# https://github.com/mikedh/trimesh
v 0.07710416 0.06277822 0.02495526
v 0.08198331 0.06277822 0.02396505
v 0.07710416 0.06277822 0.02838366
v 0.07710416 0.07900379 0.02396505
v 0.08511060 0.06277822 0.02396505
v 0.08183275 0.06277822 0.02885626
v 0.07710416 0.07857844 0.02885626
v 0.07710416 0.08256782 0.02396505
v 0.08506983 0.06370079 0.02396505
v 0.08511531 0.06277822 0.02494137
v 0.08507061 0.06277822 0.02885626
v 0.07710416 0.08257559 0.02885626
v 0.07710416 0.08258336 0.02494137
v 0.07714102 0.08255617 0.02396505
v 0.08503924 0.06438446 0.02396505
v 0.08504316 0.06438446 0.02494137
v 0.08503690 0.06438446 0.02833817
v 0.08510746 0.06277822 0.02833817
v 0.08501102 0.06438446 0.02885626
v 0.07718258 0.08254840 0.02885626
v 0.07710416 0.08261832 0.02833817
v 0.07719512 0.08255228 0.02494137
v 0.07717630 0.08254257 0.02396505
v 0.08495612 0.06573821 0.02396505
v 0.08495847 0.06577512 0.02494137
v 0.08495691 0.06574987 0.02663929
v 0.08495534 0.06572268 0.02833817
v 0.08494984 0.06562750 0.02885626
v 0.07808595 0.08219685 0.02833817
v 0.07723668 0.08256976 0.02833817
v 0.07803184 0.08215995 0.02885626
v 0.07804439 0.08217937 0.02494137
v 0.07753702 0.08238525 0.02396505
v 0.08493260 0.06609947 0.02396505
v 0.08490280 0.06662388 0.02494137
v 0.08482752 0.06778146 0.02663929
v 0.08490359 0.06659863 0.02663929
v 0.08489966 0.06657144 0.02833817
v 0.08481811 0.06778146 0.02833817
v 0.08480321 0.06723374 0.02885626
v 0.07898069 0.08162777 0.02833817
v 0.07898069 0.08159087 0.02494137
v 0.07898069 0.08156174 0.02885626
v 0.07898069 0.08157339 0.02396505
v 0.07858312 0.08182200 0.02396505
v 0.07802557 0.08216966 0.02396505
v 0.08489888 0.06658892 0.02396505
v 0.08482438 0.06778146 0.02494137
v 0.08466284 0.06948093 0.02494137
v 0.08466441 0.06948093 0.02663929
v 0.08465892 0.06948093 0.02833817
v 0.08464167 0.06896235 0.02885626
v 0.08475224 0.06778146 0.02885626
v 0.08012481 0.08076930 0.02885626
v 0.08015853 0.08079843 0.02833817
v 0.08014049 0.08078095 0.02494137
v 0.08013030 0.08077124 0.02396505
v 0.08481575 0.06778146 0.02396505
v 0.08472479 0.06875841 0.02396505
v 0.08465657 0.06948093 0.02396505
v 0.08453502 0.07045594 0.02396505
v 0.08444484 0.07117846 0.02396505
v 0.08445033 0.07117846 0.02494137
v 0.08444876 0.07117846 0.02663929
v 0.08444641 0.07117846 0.02833817
v 0.08439622 0.07117846 0.02885626
v 0.08459148 0.06948093 0.02885626
v 0.08100779 0.07994967 0.02833817
v 0.08097407 0.07991082 0.02885626
v 0.08098975 0.07993413 0.02494137
v 0.08049102 0.08041192 0.02396505
v 0.08415626 0.07287599 0.02396505
v 0.08416254 0.07287599 0.02494137
v 0.08416175 0.07287599 0.02833817
v 0.08411548 0.07287599 0.02885626
v 0.08174257 0.07910090 0.02833817
v 0.08173159 0.07908537 0.02494137
v 0.08171276 0.07906206 0.02885626
v 0.08172374 0.07907565 0.02396505
v 0.08097956 0.07992441 0.02396505
v 0.08376731 0.07457352 0.02396505
v 0.08377515 0.07457352 0.02494137
v 0.08377594 0.07457352 0.02663929
v 0.08377672 0.07457352 0.02833817
v 0.08384808 0.07405687 0.02885626
v 0.08241931 0.07797051 0.02833817
v 0.08240362 0.07797051 0.02494137
v 0.08239030 0.07797051 0.02396505
v 0.08236442 0.07797051 0.02885626
v 0.08355323 0.07529797 0.02396505
v 0.08339640 0.07585152 0.02494137
v 0.08339718 0.07585540 0.02663929
v 0.08339718 0.07585929 0.02833817
v 0.08372889 0.07457352 0.02885626
v 0.08337287 0.07579519 0.02885626
v 0.08305449 0.07670805 0.02833817
v 0.08305214 0.07670416 0.02663929
v 0.08304979 0.07670028 0.02494137
v 0.08304430 0.07669057 0.02396505
v 0.08302861 0.07664589 0.02885626
v 0.08339247 0.07583986 0.02396505
v 0.08324505 0.07620112 0.02396505
f 1 2 5
f 1 5 10
f 1 10 18
f 1 18 11
f 1 11 6
f 1 6 3
f 1 3 7
f 1 7 12
f 1 12 21
f 1 21 13
f 1 13 8
f 1 8 4
f 1 4 2
f 2 4 8
f 2 8 14
f 2 14 23
f 2 23 33
f 2 33 46
f 2 46 45
f 2 45 44
f 2 44 57
f 2 57 71
f 2 71 80
f 2 80 79
f 2 79 88
f 2 88 99
f 2 99 102
f 2 102 101
f 2 101 90
f 2 90 81
f 2 81 72
f 2 72 62
f 2 62 61
f 2 61 60
f 2 60 59
f 2 59 58
f 2 58 47
f 2 47 34
f 2 34 24
f 2 24 15
f 2 15 9
f 2 9 5
f 3 6 7
f 5 9 10
f 6 11 19
f 6 19 28
f 6 28 40
f 6 40 53
f 6 53 52
f 6 52 67
f 6 67 66
f 6 66 75
f 6 75 85
f 6 85 94
f 6 94 95
f 6 95 100
f 6 100 89
f 6 89 78
f 6 78 69
f 6 69 54
f 6 54 43
f 6 43 31
f 6 31 20
f 6 20 12
f 6 12 7
f 8 13 14
f 9 15 10
f 10 15 16
f 10 16 17
f 10 17 18
f 11 18 19
f 12 20 21
f 13 21 22
f 13 22 14
f 14 22 23
f 15 24 25
f 15 25 16
f 16 25 26
f 16 26 17
f 17 26 27
f 17 27 28
f 17 28 19
f 17 19 18
f 20 29 30
f 20 30 21
f 20 31 29
f 21 30 22
f 22 32 33
f 22 33 23
f 22 30 29
f 22 29 32
f 24 34 25
f 25 34 35
f 25 35 36
f 25 36 37
f 25 37 26
f 26 37 27
f 27 37 36
f 27 36 38
f 27 38 28
f 28 38 39
f 28 39 40
f 29 41 42
f 29 42 32
f 29 31 43
f 29 43 41
f 32 42 44
f 32 44 45
f 32 45 46
f 32 46 33
f 34 47 48
f 34 48 35
f 35 48 36
f 36 39 38
f 36 48 49
f 36 49 50
f 36 50 51
f 36 51 39
f 39 52 53
f 39 53 40
f 39 51 52
f 41 43 54
f 41 54 55
f 41 55 56
f 41 56 42
f 42 56 57
f 42 57 44
f 47 58 48
f 48 58 59
f 48 59 60
f 48 60 49
f 49 60 61
f 49 61 62
f 49 62 63
f 49 63 50
f 50 63 64
f 50 64 65
f 50 65 51
f 51 65 66
f 51 66 67
f 51 67 52
f 54 68 55
f 54 69 68
f 55 68 70
f 55 70 56
f 56 71 57
f 56 70 71
f 62 72 73
f 62 73 63
f 63 73 74
f 63 74 64
f 64 74 65
f 65 74 75
f 65 75 66
f 68 76 77
f 68 77 70
f 68 69 78
f 68 78 76
f 70 77 79
f 70 79 80
f 70 80 71
f 72 81 82
f 72 82 73
f 73 82 83
f 73 83 84
f 73 84 74
f 74 84 85
f 74 85 75
f 76 78 86
f 76 86 87
f 76 87 77
f 77 87 88
f 77 88 79
f 78 89 86
f 81 90 82
f 82 90 91
f 82 91 92
f 82 92 93
f 82 93 83
f 83 93 84
f 84 94 85
f 84 93 95
f 84 95 94
f 86 96 97
f 86 97 98
f 86 98 87
f 86 89 96
f 87 98 99
f 87 99 88
f 89 100 96
f 90 101 91
f 91 102 98
f 91 98 97
f 91 97 96
f 91 96 92
f 91 101 102
f 92 96 93
f 93 96 95
f 95 96 100
f 98 102 99
