# https://github.com/mikedh/trimesh
v -0.00002217 -0.06113447 0.02838340
v -0.00002217 -0.07102866 0.02838340
v -0.00002217 -0.06113447 0.02495525
v -0.00916741 -0.06113447 0.02838340
v -0.00002217 -0.07102866 0.02495525
v -0.02075946 -0.07102866 0.02838340
v -0.00765012 -0.06113447 0.02495525
v -0.00934948 -0.06113447 0.02838273
v -0.02245882 -0.07102866 0.02838173
v -0.01953925 -0.06980714 0.02838340
v -0.01953925 -0.07102866 0.02495525
v -0.00934948 -0.06131562 0.02495525
v -0.00934948 -0.06113447 0.02495626
v -0.01086677 -0.06113447 0.02836897
v -0.02415818 -0.07102866 0.02836025
v -0.02123541 -0.07102866 0.02495727
v -0.01953925 -0.06980714 0.02495525
v -0.02123541 -0.06980714 0.02496230
v -0.01104884 -0.06131562 0.02497103
v -0.01104884 -0.06113447 0.02499116
v -0.01104884 -0.06113447 0.02834749
v -0.02906780 -0.07102866 0.02797867
v -0.02751857 -0.07102866 0.02813774
v -0.02585435 -0.07102866 0.02828071
v -0.02293477 -0.07102866 0.02497505
v -0.02293477 -0.06980714 0.02502573
v -0.02633349 -0.07102866 0.02511634
v -0.02802966 -0.07102866 0.02524521
v -0.02972901 -0.07102866 0.02545060
v -0.03100673 -0.07102866 0.02560531
v -0.01284403 -0.06113447 0.02532911
v -0.01282486 -0.06113447 0.02800183
v -0.03106742 -0.07102866 0.02770449
v -0.03067452 -0.07102866 0.02777093
v -0.03265178 -0.07102866 0.02663996
v -0.03068411 -0.07063634 0.02576573
v -0.01407702 -0.06168372 0.02554054
v -0.01404508 -0.06113447 0.02663996
v -0.01286319 -0.06113447 0.02798807
v -0.03074799 -0.07062278 0.02752997
v -0.01380231 -0.06113447 0.02721552
f 1 2 5
f 1 5 3
f 1 3 7
f 1 7 13
f 1 13 20
f 1 20 31
f 1 31 38
f 1 38 41
f 1 41 39
f 1 39 32
f 1 32 21
f 1 21 14
f 1 14 8
f 1 8 4
f 1 4 10
f 1 10 6
f 1 6 2
f 2 6 9
f 2 9 15
f 2 15 24
f 2 24 23
f 2 23 22
f 2 22 34
f 2 34 33
f 2 33 35
f 2 35 30
f 2 30 29
f 2 29 28
f 2 28 27
f 2 27 25
f 2 25 16
f 2 16 11
f 2 11 5
f 3 5 11
f 3 11 17
f 3 17 12
f 3 12 7
f 4 8 9
f 4 9 10
f 6 10 9
f 7 12 13
f 8 14 9
f 9 14 15
f 11 16 17
f 12 17 18
f 12 18 13
f 13 19 20
f 13 18 19
f 14 21 22
f 14 22 23
f 14 23 24
f 14 24 15
f 16 25 18
f 16 18 17
f 18 25 26
f 18 26 19
f 19 26 27
f 19 27 28
f 19 28 20
f 20 28 29
f 20 29 30
f 20 30 31
f 21 32 33
f 21 33 34
f 21 34 22
f 25 27 26
f 30 35 36
f 30 36 31
f 31 36 35
f 31 35 37
f 31 37 38
f 32 39 33
f 33 40 35
f 33 39 40
f 35 40 39
f 35 39 41
f 35 41 38
f 35 38 37
