# https://github.com/mikedh/trimesh
v 0.08374640 -0.07158520 0.00456116
v 0.08374640 -0.07158890 0.00456487
v 0.08368395 -0.07158520 0.00116067
v 0.08113546 -0.07158520 0.00456487
v 0.08339394 -0.07331874 0.00456487
v 0.08339907 -0.07304487 0.00116067
v 0.08347179 -0.07158520 -0.00005110
v 0.08335373 -0.07286870 0.00010845
v 0.08062645 -0.07158520 0.00456487
v 0.08338453 -0.07335575 0.00456487
v 0.08318263 -0.07389387 0.00116067
v 0.08220311 -0.07490424 -0.00026579
v 0.08238447 -0.07158520 -0.00066706
v 0.08285327 -0.07490424 0.00116067
v 0.08165474 -0.07764741 0.00011905
v 0.08188658 -0.07660225 -0.00009987
v 0.07500762 -0.07158520 0.00308434
v 0.07558935 -0.07914631 0.00456487
v 0.08321429 -0.07401822 0.00456487
v 0.08298844 -0.07475398 0.00456487
v 0.08067863 -0.07660225 -0.00072166
v 0.08067863 -0.07490424 -0.00084994
v 0.08067863 -0.07320549 -0.00080223
v 0.08067863 -0.07158520 -0.00070523
v 0.08229635 -0.07660743 0.00456487
v 0.08220824 -0.07660225 0.00116067
v 0.08168811 -0.07769700 0.00116067
v 0.08107301 -0.07854675 0.00116067
v 0.08056827 -0.07914631 0.00116067
v 0.08026030 -0.07914631 -0.00006118
v 0.08068291 -0.07824845 -0.00024034
v 0.07500762 -0.07158520 0.00081929
v 0.07500762 -0.07914631 0.00354817
v 0.08064869 -0.07914631 0.00456487
v 0.07898135 -0.07830026 -0.00084941
v 0.07728236 -0.07830026 -0.00073862
v 0.07559791 -0.07914631 -0.00056529
v 0.07500762 -0.07914631 -0.00047570
v 0.08172147 -0.07774956 0.00456487
v 0.08111407 -0.07859856 0.00455745
v 0.08111065 -0.07860300 0.00456487
v 0.08064869 -0.07914631 0.00455745
v 0.07896510 -0.07914631 -0.00055733
v 0.07728236 -0.07914631 -0.00075877
f 1 2 3
f 1 3 7
f 1 7 13
f 1 13 24
f 1 24 32
f 1 32 17
f 1 17 9
f 1 9 4
f 1 4 2
f 2 5 6
f 2 6 3
f 2 4 9
f 2 9 18
f 2 18 34
f 2 34 41
f 2 41 39
f 2 39 25
f 2 25 20
f 2 20 19
f 2 19 10
f 2 10 5
f 3 6 8
f 3 8 7
f 5 10 6
f 6 10 11
f 6 11 8
f 7 8 12
f 7 12 13
f 8 11 14
f 8 14 15
f 8 15 16
f 8 16 12
f 9 17 18
f 10 19 11
f 11 19 20
f 11 20 14
f 12 16 21
f 12 21 13
f 13 21 22
f 13 22 23
f 13 23 24
f 14 20 25
f 14 25 26
f 14 26 15
f 15 26 27
f 15 27 28
f 15 28 29
f 15 29 30
f 15 30 31
f 15 31 16
f 16 31 21
f 17 32 38
f 17 38 33
f 17 33 18
f 18 33 38
f 18 38 37
f 18 37 44
f 18 44 43
f 18 43 30
f 18 30 29
f 18 29 42
f 18 42 34
f 21 31 35
f 21 35 22
f 22 35 23
f 23 35 36
f 23 36 24
f 24 36 37
f 24 37 38
f 24 38 32
f 25 39 27
f 25 27 26
f 27 39 40
f 27 40 28
f 28 40 41
f 28 41 29
f 29 41 42
f 30 43 31
f 31 43 35
f 34 42 41
f 35 43 44
f 35 44 36
f 36 44 37
f 39 41 40
