# https://github.com/mikedh/trimesh
v -0.00001898 -0.08306587 0.01764303
v -0.00001898 -0.08477666 0.02314869
v -0.00001898 -0.08014063 0.01764303
v 0.04330516 -0.08483630 0.01764303
v -0.00001898 -0.08020371 0.02314869
v 0.04499993 -0.08484862 0.01764303
v 0.04330516 -0.08485897 0.01814702
v 0.04330516 -0.08493241 0.01984617
v 0.04330516 -0.08499747 0.02154367
v 0.04330516 -0.08504331 0.02314869
v 0.06782393 -0.08459577 0.02323351
v 0.07558734 -0.08001593 0.01764303
v 0.06782393 -0.08165081 0.02323351
v 0.07557994 -0.08016034 0.02323351
v 0.04669471 -0.08485010 0.01764303
v 0.04499993 -0.08487031 0.01814702
v 0.04499993 -0.08494029 0.01984617
v 0.04499993 -0.08500437 0.02154367
v 0.04490373 -0.08504971 0.02314869
v 0.06782393 -0.08456817 0.02228024
v 0.06877863 -0.08452480 0.02323351
v 0.04669471 -0.08505119 0.02314869
v 0.05180125 -0.08505070 0.02314869
v 0.05339981 -0.08504380 0.02314869
v 0.05348862 -0.08504331 0.02314869
v 0.05510199 -0.08502901 0.02314869
v 0.05679677 -0.08501275 0.02314869
v 0.05689298 -0.08501176 0.02314869
v 0.05849895 -0.08498613 0.02314869
v 0.05859516 -0.08498416 0.02314869
v 0.06028254 -0.08494177 0.02314869
v 0.06198471 -0.08489495 0.02314869
v 0.06359068 -0.08483876 0.02314869
v 0.06368690 -0.08483531 0.02314869
v 0.06529286 -0.08475399 0.02314869
v 0.06538907 -0.08474906 0.02314869
v 0.06708385 -0.08464802 0.02314869
v 0.06708385 -0.08460169 0.02154367
v 0.07558734 -0.08021357 0.02153874
v 0.07558734 -0.08003022 0.01764303
v 0.07557994 -0.08337343 0.02323351
v 0.07558734 -0.08331576 0.02154367
v 0.04669471 -0.08487179 0.01814702
v 0.05180125 -0.08485010 0.01764303
v 0.04669471 -0.08494177 0.01984617
v 0.04669471 -0.08500535 0.02154367
v 0.06878603 -0.08447501 0.02154367
v 0.07024398 -0.08432173 0.02154367
v 0.07059182 -0.08432814 0.02323351
v 0.05180125 -0.08500535 0.02154367
v 0.05348862 -0.08499796 0.02154367
v 0.05519080 -0.08498268 0.02154367
v 0.05689298 -0.08496691 0.02154367
v 0.05859516 -0.08493881 0.02154367
v 0.06028254 -0.08489594 0.02154367
v 0.06198471 -0.08485010 0.02154367
v 0.06368690 -0.08478997 0.02154367
v 0.06538907 -0.08470273 0.02154367
v 0.06708385 -0.08453712 0.01984617
v 0.07558734 -0.08312600 0.01764521
v 0.07557994 -0.08312748 0.01764303
v 0.07387776 -0.08380963 0.02323351
v 0.07387776 -0.08375590 0.02154367
v 0.07558734 -0.08323887 0.01984617
v 0.07387776 -0.08368296 0.01984617
v 0.05180125 -0.08487179 0.01814702
v 0.05348862 -0.08484320 0.01764303
v 0.05180125 -0.08494177 0.01984617
v 0.06782393 -0.08448142 0.01984617
v 0.06878603 -0.08440847 0.01984617
v 0.06976293 -0.08426209 0.01863624
v 0.06997015 -0.08428772 0.01984617
v 0.07218299 -0.08406592 0.02154367
v 0.07125788 -0.08423301 0.02282254
v 0.07073243 -0.08431039 0.02323351
v 0.05348862 -0.08493438 0.01984617
v 0.05519080 -0.08491910 0.01984617
v 0.05689298 -0.08490333 0.01984617
v 0.05859516 -0.08487523 0.01984617
v 0.06028254 -0.08483285 0.01984617
v 0.06198471 -0.08478603 0.01984617
v 0.06368690 -0.08472589 0.01984617
v 0.06538907 -0.08463816 0.01984617
v 0.06538907 -0.08456718 0.01814702
v 0.06708385 -0.08446565 0.01814702
v 0.06782393 -0.08444100 0.01888414
v 0.07558734 -0.08315311 0.01814702
v 0.07507669 -0.08326204 0.01764303
v 0.07387036 -0.08381110 0.02323351
v 0.07218299 -0.08399446 0.01984617
v 0.07218299 -0.08392151 0.01814702
v 0.07387776 -0.08360212 0.01814702
v 0.07387776 -0.08357699 0.01764303
v 0.07218299 -0.08389884 0.01764303
v 0.07337451 -0.08367359 0.01764303
v 0.05348862 -0.08486489 0.01814702
v 0.05519080 -0.08482841 0.01764303
v 0.06877123 -0.08431483 0.01764303
v 0.06889704 -0.08432321 0.01810106
v 0.06956311 -0.08423695 0.01764303
v 0.07041420 -0.08412902 0.01764303
v 0.07203496 -0.08414183 0.02323351
v 0.07187955 -0.08416302 0.02323351
v 0.07129489 -0.08423843 0.02323351
v 0.05519080 -0.08484960 0.01814702
v 0.05689298 -0.08483383 0.01814702
v 0.05859516 -0.08480574 0.01814702
v 0.06028254 -0.08476286 0.01814702
v 0.06198471 -0.08471603 0.01814702
v 0.06368690 -0.08465541 0.01814702
v 0.06538907 -0.08454500 0.01764303
v 0.06658060 -0.08447403 0.01764303
v 0.06368690 -0.08463372 0.01764303
v 0.06708385 -0.08444347 0.01764303
v 0.05689298 -0.08481215 0.01764303
v 0.05859516 -0.08478405 0.01764303
v 0.05978669 -0.08475448 0.01764303
v 0.06028254 -0.08474117 0.01764303
v 0.06198471 -0.08469435 0.01764303
v 0.06318364 -0.08465196 0.01764303
f 1 2 5
f 1 5 3
f 1 3 12
f 1 12 40
f 1 40 61
f 1 61 88
f 1 88 93
f 1 93 95
f 1 95 94
f 1 94 101
f 1 101 100
f 1 100 98
f 1 98 114
f 1 114 112
f 1 112 111
f 1 111 113
f 1 113 120
f 1 120 119
f 1 119 118
f 1 118 117
f 1 117 116
f 1 116 115
f 1 115 97
f 1 97 67
f 1 67 44
f 1 44 15
f 1 15 6
f 1 6 4
f 1 4 2
f 2 4 6
f 2 6 7
f 2 7 8
f 2 8 9
f 2 9 10
f 2 10 11
f 2 11 13
f 2 13 5
f 3 5 12
f 5 13 14
f 5 14 12
f 6 15 43
f 6 43 16
f 6 16 8
f 6 8 7
f 8 16 17
f 8 17 9
f 9 17 18
f 9 18 10
f 10 18 19
f 10 19 11
f 11 20 21
f 11 21 49
f 11 49 75
f 11 75 104
f 11 104 103
f 11 103 102
f 11 102 89
f 11 89 62
f 11 62 41
f 11 41 14
f 11 14 13
f 11 19 22
f 11 22 23
f 11 23 24
f 11 24 25
f 11 25 26
f 11 26 27
f 11 27 28
f 11 28 29
f 11 29 30
f 11 30 31
f 11 31 32
f 11 32 33
f 11 33 34
f 11 34 35
f 11 35 36
f 11 36 37
f 11 37 38
f 11 38 20
f 12 14 39
f 12 39 42
f 12 42 64
f 12 64 87
f 12 87 60
f 12 60 40
f 14 41 42
f 14 42 39
f 15 44 66
f 15 66 43
f 16 43 45
f 16 45 17
f 17 45 18
f 18 45 46
f 18 46 22
f 18 22 19
f 20 47 21
f 20 38 47
f 21 47 48
f 21 48 49
f 22 46 50
f 22 50 23
f 23 50 24
f 24 50 51
f 24 51 25
f 25 51 26
f 26 51 52
f 26 52 53
f 26 53 27
f 27 53 28
f 28 53 29
f 29 53 54
f 29 54 30
f 30 54 31
f 31 54 55
f 31 55 56
f 31 56 32
f 32 56 33
f 33 56 57
f 33 57 34
f 34 57 35
f 35 57 36
f 36 57 58
f 36 58 38
f 36 38 37
f 38 58 83
f 38 83 59
f 38 59 47
f 40 60 61
f 41 62 63
f 41 63 42
f 42 63 65
f 42 65 64
f 43 66 68
f 43 68 45
f 44 67 96
f 44 96 66
f 45 68 50
f 45 50 46
f 47 59 69
f 47 69 70
f 47 70 71
f 47 71 72
f 47 72 48
f 48 72 73
f 48 73 74
f 48 74 49
f 49 74 75
f 50 68 76
f 50 76 51
f 51 76 77
f 51 77 52
f 52 77 78
f 52 78 53
f 53 78 79
f 53 79 54
f 54 79 80
f 54 80 55
f 55 80 56
f 56 80 81
f 56 81 82
f 56 82 57
f 57 82 58
f 58 82 83
f 59 83 84
f 59 84 85
f 59 85 86
f 59 86 69
f 60 87 88
f 60 88 61
f 62 89 63
f 63 89 73
f 63 73 90
f 63 90 91
f 63 91 65
f 64 65 92
f 64 92 93
f 64 93 88
f 64 88 87
f 65 91 94
f 65 94 95
f 65 95 92
f 66 96 68
f 67 97 96
f 68 96 76
f 69 86 70
f 70 86 98
f 70 98 99
f 70 99 71
f 71 99 100
f 71 100 101
f 71 101 94
f 71 94 91
f 71 91 72
f 72 91 90
f 72 90 73
f 73 89 102
f 73 102 103
f 73 103 74
f 74 103 104
f 74 104 75
f 76 96 105
f 76 105 77
f 77 105 106
f 77 106 78
f 78 106 107
f 78 107 79
f 79 107 80
f 80 108 109
f 80 109 81
f 80 107 108
f 81 109 82
f 82 110 83
f 82 109 110
f 83 110 84
f 84 111 112
f 84 112 85
f 84 110 113
f 84 113 111
f 85 112 114
f 85 114 98
f 85 98 86
f 92 95 93
f 96 97 105
f 97 115 106
f 97 106 105
f 98 100 99
f 106 115 116
f 106 116 107
f 107 116 117
f 107 117 108
f 108 117 118
f 108 118 119
f 108 119 109
f 109 119 120
f 109 120 110
f 110 120 113
