# https://github.com/mikedh/trimesh
v -0.07982995 -0.08132658 0.02833805
v -0.08014599 -0.08110582 0.02833805
v -0.08012764 -0.08108869 0.02494065
v -0.07982995 -0.08131549 0.02709258
v -0.07982995 -0.08114715 0.03003600
v -0.08003453 -0.08101309 0.03003600
v -0.08099547 -0.08025808 0.02833805
v -0.08097712 -0.08024195 0.02494065
v -0.07982995 -0.08129533 0.02494065
v -0.08010975 -0.08107357 0.02324270
v -0.07982995 -0.08091127 0.03096636
v -0.07989233 -0.08089212 0.03094994
v -0.08088401 -0.08013106 0.03003600
v -0.08164039 -0.07928130 0.03003600
v -0.08173809 -0.07940832 0.02833805
v -0.08172708 -0.07939319 0.02494065
v -0.08171378 -0.07937505 0.02324270
v -0.08095924 -0.08022481 0.02324270
v -0.07982995 -0.08126711 0.02324270
v -0.08006847 -0.08103829 0.02154474
v -0.07982995 -0.07990829 0.03132477
v -0.08055101 -0.07982966 0.03114557
v -0.08153993 -0.07915026 0.03088572
v -0.08222429 -0.07830050 0.03003600
v -0.08240548 -0.07830050 0.02833805
v -0.08238897 -0.07830050 0.02494065
v -0.08236649 -0.07830050 0.02324270
v -0.08230915 -0.07830050 0.02154474
v -0.08168121 -0.07933271 0.02154474
v -0.08091750 -0.08018248 0.02154474
v -0.07982995 -0.08120259 0.02154474
v -0.07982995 -0.08112901 0.02014546
v -0.08000976 -0.08098889 0.01984530
v -0.07982995 -0.07837308 0.03137853
v -0.08068999 -0.07830050 0.03154280
v -0.08178946 -0.07830050 0.03116349
v -0.08323983 -0.07575927 0.03089020
v -0.08297242 -0.07681568 0.03003600
v -0.08305589 -0.07701930 0.02833805
v -0.08305314 -0.07701628 0.02663860
v -0.08305085 -0.07701224 0.02494065
v -0.08304168 -0.07699410 0.02324270
v -0.08301645 -0.07694068 0.02154474
v -0.08298021 -0.07686406 0.01984530
v -0.08222567 -0.07830050 0.01984530
v -0.08163443 -0.07927223 0.01984530
v -0.08085924 -0.08012199 0.01984530
v -0.07982995 -0.08111288 0.01984530
v -0.07994416 -0.08093446 0.01814735
v -0.08233667 -0.07102964 0.03137853
v -0.08238804 -0.07320595 0.03158014
v -0.07982995 -0.07722998 0.03106194
v -0.08238804 -0.07490447 0.03153832
v -0.08241786 -0.07643566 0.03133074
v -0.08335083 -0.07490447 0.03105895
v -0.08401455 -0.07320595 0.03003600
v -0.08362054 -0.07490447 0.03003600
v -0.08332193 -0.07596793 0.03003600
v -0.08340312 -0.07617155 0.02833805
v -0.08340174 -0.07616450 0.02494065
v -0.08339532 -0.07614535 0.02324270
v -0.08337514 -0.07609192 0.02154474
v -0.08334532 -0.07601531 0.01984530
v -0.08331093 -0.07592963 0.01814735
v -0.08327331 -0.07583891 0.01644939
v -0.08293893 -0.07677839 0.01814735
v -0.08289627 -0.07668665 0.01644939
v -0.08283068 -0.07679754 0.01632395
v -0.08213302 -0.07830050 0.01814735
v -0.08158213 -0.07920470 0.01814735
v -0.08154957 -0.07916337 0.01714231
v -0.08079365 -0.08005446 0.01814735
v -0.07988683 -0.08088607 0.01673612
v -0.07982995 -0.08102417 0.01835044
v -0.07982995 -0.08092337 0.01670028
v -0.07982995 -0.08101208 0.01814735
v -0.08336551 -0.07102964 0.03142184
v -0.08149453 -0.07204270 0.03096786
v -0.08173350 -0.07102964 0.03086929
v -0.08369530 -0.07102964 0.03142184
v -0.08368062 -0.07150743 0.03142035
v -0.07982995 -0.07102964 0.02862925
v -0.08355128 -0.07320595 0.03131432
v -0.08428701 -0.07150743 0.03003600
v -0.08445168 -0.07150743 0.02833805
v -0.08416454 -0.07320595 0.02833805
v -0.08377695 -0.07490447 0.02833805
v -0.08377557 -0.07490447 0.02494065
v -0.08376273 -0.07490447 0.02324270
v -0.08372237 -0.07490447 0.02154474
v -0.08366274 -0.07490447 0.01984530
v -0.08327056 -0.07583185 0.01632395
v -0.08293663 -0.07658283 0.01632395
v -0.08289765 -0.07666952 0.01632395
v -0.08195734 -0.07842045 0.01632395
v -0.08178120 -0.07870572 0.01632395
v -0.08080787 -0.07988713 0.01632395
v -0.08064595 -0.08005849 0.01632395
v -0.07982995 -0.08076914 0.01632395
v -0.08433104 -0.07102964 0.03003600
v -0.07982995 -0.07102964 0.02470619
v -0.08451177 -0.07102964 0.02833805
v -0.08451452 -0.07102964 0.02663860
v -0.08445535 -0.07150743 0.02494065
v -0.08416546 -0.07320595 0.02494065
v -0.08415399 -0.07320595 0.02324270
v -0.08411684 -0.07320595 0.02154474
v -0.08406179 -0.07320595 0.01984530
v -0.08399850 -0.07320595 0.01814735
v -0.08393244 -0.07320595 0.01644939
v -0.08359485 -0.07490447 0.01814735
v -0.08349073 -0.07500527 0.01632395
v -0.07982995 -0.07618768 0.01632395
v -0.08134729 -0.07102964 0.01632395
v -0.08451544 -0.07102964 0.02541703
v -0.08451544 -0.07102964 0.02494065
v -0.08450856 -0.07102964 0.02372057
v -0.08444571 -0.07150743 0.02324270
v -0.08441177 -0.07150743 0.02154474
v -0.08436040 -0.07150743 0.01984530
v -0.08430169 -0.07150743 0.01814735
v -0.08423976 -0.07150743 0.01644939
v -0.08423518 -0.07150743 0.01632395
v -0.08392740 -0.07320595 0.01632395
v -0.08351412 -0.07491455 0.01632395
v -0.08429710 -0.07102964 0.01632395
v -0.08450535 -0.07102964 0.02324270
v -0.08447186 -0.07102964 0.02154474
v -0.08442140 -0.07102964 0.01984530
v -0.08436361 -0.07102964 0.01814735
v -0.08431912 -0.07102964 0.01692578
v -0.08429848 -0.07102964 0.01635979
f 1 2 3
f 1 3 4
f 1 4 9
f 1 9 19
f 1 19 31
f 1 31 32
f 1 32 48
f 1 48 74
f 1 74 76
f 1 76 75
f 1 75 99
f 1 99 113
f 1 113 101
f 1 101 82
f 1 82 52
f 1 52 34
f 1 34 21
f 1 21 11
f 1 11 5
f 1 5 6
f 1 6 2
f 2 6 7
f 2 7 8
f 2 8 3
f 3 9 4
f 3 8 10
f 3 10 9
f 5 11 12
f 5 12 6
f 6 12 13
f 6 13 7
f 7 13 14
f 7 14 15
f 7 15 16
f 7 16 8
f 8 16 17
f 8 17 18
f 8 18 10
f 9 10 19
f 10 18 20
f 10 20 19
f 11 21 22
f 11 22 12
f 12 22 23
f 12 23 13
f 13 23 14
f 14 23 24
f 14 24 25
f 14 25 15
f 15 25 26
f 15 26 16
f 16 26 27
f 16 27 17
f 17 28 29
f 17 29 18
f 17 27 28
f 18 29 30
f 18 30 20
f 19 20 31
f 20 32 31
f 20 30 33
f 20 33 32
f 21 34 35
f 21 35 22
f 22 35 36
f 22 36 23
f 23 36 37
f 23 37 38
f 23 38 24
f 24 38 39
f 24 39 25
f 25 39 40
f 25 40 41
f 25 41 26
f 26 41 42
f 26 42 27
f 27 42 43
f 27 43 28
f 28 43 44
f 28 44 45
f 28 45 29
f 29 45 46
f 29 46 30
f 30 46 47
f 30 47 33
f 32 33 48
f 33 47 49
f 33 49 48
f 34 50 51
f 34 51 35
f 34 52 50
f 35 51 53
f 35 53 54
f 35 54 36
f 36 54 37
f 37 54 55
f 37 55 56
f 37 56 57
f 37 57 58
f 37 58 38
f 38 58 39
f 39 58 59
f 39 59 60
f 39 60 41
f 39 41 40
f 41 60 61
f 41 61 42
f 42 61 62
f 42 62 43
f 43 62 63
f 43 63 44
f 44 63 64
f 44 64 65
f 44 65 66
f 44 66 45
f 45 66 67
f 45 67 68
f 45 68 69
f 45 69 46
f 46 69 70
f 46 70 47
f 47 70 71
f 47 71 72
f 47 72 73
f 47 73 49
f 48 49 74
f 49 73 75
f 49 75 76
f 49 76 74
f 50 77 51
f 50 52 78
f 50 78 79
f 50 79 82
f 50 82 101
f 50 101 114
f 50 114 126
f 50 126 132
f 50 132 131
f 50 131 130
f 50 130 129
f 50 129 128
f 50 128 127
f 50 127 117
f 50 117 116
f 50 116 115
f 50 115 103
f 50 103 102
f 50 102 100
f 50 100 80
f 50 80 77
f 51 77 80
f 51 80 81
f 51 81 53
f 52 79 78
f 52 82 79
f 53 81 83
f 53 83 54
f 54 83 55
f 55 83 56
f 56 83 84
f 56 84 85
f 56 85 86
f 56 86 87
f 56 87 57
f 57 87 58
f 58 87 59
f 59 87 88
f 59 88 60
f 60 88 61
f 61 89 62
f 61 88 89
f 62 90 63
f 62 89 90
f 63 90 64
f 64 90 91
f 64 91 65
f 65 92 66
f 65 91 92
f 66 92 93
f 66 93 67
f 67 93 94
f 67 94 68
f 68 95 69
f 68 94 93
f 68 93 92
f 68 92 112
f 68 112 125
f 68 125 124
f 68 124 123
f 68 123 126
f 68 126 114
f 68 114 113
f 68 113 99
f 68 99 98
f 68 98 97
f 68 97 96
f 68 96 95
f 69 95 70
f 70 95 71
f 71 95 96
f 71 96 97
f 71 97 72
f 72 97 98
f 72 98 73
f 73 98 75
f 75 98 99
f 80 100 81
f 81 100 84
f 81 84 83
f 84 100 102
f 84 102 85
f 85 102 103
f 85 103 104
f 85 104 86
f 86 104 105
f 86 105 87
f 87 105 88
f 88 105 106
f 88 106 89
f 89 106 107
f 89 107 90
f 90 107 108
f 90 108 91
f 91 108 109
f 91 109 110
f 91 110 111
f 91 111 92
f 92 111 112
f 101 113 114
f 103 115 104
f 104 116 117
f 104 117 118
f 104 118 105
f 104 115 116
f 105 118 106
f 106 118 119
f 106 119 107
f 107 119 120
f 107 120 108
f 108 120 121
f 108 121 122
f 108 122 123
f 108 123 109
f 109 123 110
f 110 123 124
f 110 124 111
f 111 124 125
f 111 125 112
f 117 127 118
f 118 127 128
f 118 128 119
f 119 128 129
f 119 129 120
f 120 130 121
f 120 129 130
f 121 130 131
f 121 131 132
f 121 132 122
f 122 132 123
f 123 132 126
