# https://github.com/mikedh/trimesh
v 0.00000840 0.06019069 0.02838340
v 0.00000840 0.04741712 0.02838340
v 0.00000840 0.06019069 0.02495525
v -0.00764859 0.06019069 0.02838340
v 0.00000840 0.04741712 0.02495525
v -0.00255368 0.04741712 0.02838340
v -0.00855137 0.06019069 0.02495525
v -0.00934645 0.06019069 0.02838072
v -0.00764859 0.05758872 0.02838340
v -0.00255368 0.04741712 0.02495525
v -0.00423293 0.04741712 0.02835689
v -0.00425287 0.05079432 0.02838340
v -0.00425287 0.04909634 0.02837803
v -0.00764859 0.05758872 0.02495525
v -0.00934645 0.06019069 0.02495827
v -0.01104564 0.06019069 0.02829212
v -0.00934645 0.05928669 0.02837770
v -0.00425287 0.04741712 0.02498244
v -0.00425287 0.04909634 0.02496096
v -0.00425287 0.05079432 0.02495525
v -0.00425287 0.04741712 0.02835656
v -0.00934645 0.05928669 0.02496129
v -0.01025056 0.06019069 0.02496566
v -0.01268633 0.06019069 0.02790148
v -0.01104564 0.05928669 0.02820419
v -0.00427680 0.04741712 0.02498747
v -0.01212392 0.06019069 0.02523884
v -0.01104564 0.06019069 0.02504486
v -0.00577656 0.04741712 0.02790954
v -0.01357448 0.06019069 0.02663996
v -0.01237521 0.05928669 0.02776254
v -0.00575395 0.04741712 0.02539959
v -0.01266905 0.06019069 0.02541033
v -0.00642672 0.04741712 0.02663996
v -0.01198565 0.05832267 0.02757427
v -0.01356518 0.06019069 0.02662385
v -0.00577124 0.04741712 0.02542711
v -0.01197368 0.05833767 0.02571874
v -0.01235394 0.05928669 0.02554188
f 1 2 5
f 1 5 3
f 1 3 7
f 1 7 15
f 1 15 23
f 1 23 28
f 1 28 27
f 1 27 33
f 1 33 36
f 1 36 30
f 1 30 24
f 1 24 16
f 1 16 8
f 1 8 4
f 1 4 9
f 1 9 12
f 1 12 6
f 1 6 2
f 2 6 11
f 2 11 21
f 2 21 29
f 2 29 34
f 2 34 37
f 2 37 32
f 2 32 26
f 2 26 18
f 2 18 10
f 2 10 5
f 3 5 10
f 3 10 20
f 3 20 14
f 3 14 7
f 4 8 9
f 6 12 13
f 6 13 11
f 7 14 15
f 8 16 17
f 8 17 13
f 8 13 9
f 9 13 12
f 10 18 19
f 10 19 20
f 11 13 21
f 13 17 21
f 14 20 19
f 14 19 22
f 14 22 15
f 15 22 23
f 16 24 25
f 16 25 21
f 16 21 17
f 18 26 27
f 18 27 28
f 18 28 23
f 18 23 19
f 19 23 22
f 21 25 24
f 21 24 29
f 24 30 31
f 24 31 29
f 26 32 27
f 27 32 33
f 29 31 35
f 29 35 30
f 29 30 34
f 30 35 31
f 30 36 37
f 30 37 34
f 32 37 36
f 32 36 38
f 32 38 39
f 32 39 33
f 33 39 36
f 36 39 38
