# https://github.com/mikedh/trimesh
v -0.08220964 -0.00016085 0.00381476
v -0.08220832 0.00153606 0.00381476
v -0.08218068 -0.00016085 0.00285879
v -0.08218068 -0.00043020 0.00285879
v -0.08220832 -0.00043020 0.00381476
v -0.08217936 0.00153606 0.00285879
v -0.08215567 0.03887973 0.00381476
v -0.08213593 0.03887973 0.00285879
v -0.08182922 0.03887973 0.00158829
v -0.08184633 -0.00016085 0.00157211
v -0.08184633 -0.00043020 0.00157211
v -0.07868322 -0.00043020 0.00381476
v -0.08213198 0.03887973 0.00284114
v -0.07864636 0.03887973 0.00381476
v -0.08181343 0.03887973 0.00157976
v -0.08068929 0.00153606 0.00096776
v -0.08068929 -0.00016085 0.00096717
v -0.08068929 0.03887973 0.00098335
v -0.08068929 -0.00043020 0.00096717
v -0.06880029 -0.00043020 0.00308506
v -0.06876212 -0.00042251 0.00308506
v -0.07864110 0.03550514 0.00381476
v -0.06876212 0.03887973 0.00308506
v -0.07864241 0.03830255 0.00381476
v -0.08066560 0.03887973 0.00098041
v -0.07898992 0.03887973 0.00080916
v -0.07898992 -0.00043020 0.00080916
v -0.06876212 -0.00043020 0.00276670
v -0.07864110 0.03720206 0.00381476
v -0.06876212 0.03887973 0.00081917
v -0.06876212 -0.00043020 0.00081917
f 1 2 6
f 1 6 3
f 1 3 4
f 1 4 5
f 1 5 12
f 1 12 22
f 1 22 29
f 1 29 24
f 1 24 14
f 1 14 7
f 1 7 2
f 2 7 8
f 2 8 6
f 3 6 9
f 3 9 10
f 3 10 11
f 3 11 4
f 4 11 19
f 4 19 27
f 4 27 31
f 4 31 28
f 4 28 20
f 4 20 12
f 4 12 5
f 6 8 13
f 6 13 9
f 7 14 23
f 7 23 30
f 7 30 26
f 7 26 25
f 7 25 18
f 7 18 15
f 7 15 9
f 7 9 13
f 7 13 8
f 9 15 10
f 10 16 17
f 10 17 19
f 10 19 11
f 10 15 18
f 10 18 16
f 12 20 21
f 12 21 22
f 14 24 23
f 16 18 25
f 16 25 26
f 16 26 17
f 17 26 27
f 17 27 19
f 20 28 21
f 21 28 31
f 21 31 30
f 21 30 23
f 21 23 29
f 21 29 22
f 23 24 29
f 26 30 31
f 26 31 27
