# https://github.com/mikedh/trimesh
v -0.08208563 0.03621946 0.00381476
v -0.08468515 0.04399956 0.00381476
v -0.07864194 0.03621946 0.00381476
v -0.08249400 0.03621946 0.01715930
v -0.08502014 0.04125299 0.01764116
v -0.08493846 0.04144797 0.01386479
v -0.08470110 0.04569783 0.00381476
v -0.08494804 0.04300139 0.01185749
v -0.08495633 0.04399956 0.01160302
v -0.07864130 0.03720555 0.00381476
v -0.07957097 0.03621946 0.01764116
v -0.08250867 0.03621946 0.01764116
v -0.08510245 0.04201159 0.01764116
v -0.08499653 0.04132541 0.01644734
v -0.08495888 0.04140805 0.01474865
v -0.08512861 0.04230036 0.01764116
v -0.08508522 0.04230036 0.01644734
v -0.08470110 0.04570433 0.00381476
v -0.08495952 0.04569783 0.01150286
v -0.08506162 0.04399956 0.01474865
v -0.08500483 0.04399956 0.01304996
v -0.07864321 0.03830678 0.00381476
v -0.07957672 0.03720555 0.01764116
v -0.08515541 0.04399956 0.01764116
v -0.08511712 0.04399956 0.01644734
v -0.08079480 0.04570433 0.00381476
v -0.08495952 0.04570433 0.01150828
v -0.08506672 0.04569783 0.01474865
v -0.08506672 0.04570433 0.01474865
v -0.08501057 0.04570433 0.01304996
v -0.07864768 0.03890475 0.00381476
v -0.07959203 0.03770974 0.01764116
v -0.07865853 0.04000412 0.00381476
v -0.08515988 0.04569783 0.01764116
v -0.08512159 0.04569783 0.01644734
v -0.07957417 0.04399956 0.00381476
v -0.08224132 0.04570433 0.01764116
v -0.08512159 0.04570433 0.01644734
v -0.07963159 0.03890475 0.01764116
v -0.07867831 0.04060302 0.00381476
v -0.08515988 0.04570433 0.01764116
v -0.07916325 0.04341737 0.00381476
v -0.07998508 0.04097164 0.01764116
v -0.07976048 0.04012390 0.01764116
v -0.07874275 0.04169682 0.00381476
v -0.07884548 0.04234214 0.00381476
f 1 2 7
f 1 7 18
f 1 18 26
f 1 26 36
f 1 36 42
f 1 42 46
f 1 46 45
f 1 45 40
f 1 40 33
f 1 33 31
f 1 31 22
f 1 22 10
f 1 10 3
f 1 3 11
f 1 11 12
f 1 12 4
f 1 4 5
f 1 5 6
f 1 6 2
f 2 6 8
f 2 8 9
f 2 9 7
f 3 10 11
f 4 12 5
f 5 12 11
f 5 11 23
f 5 23 32
f 5 32 39
f 5 39 44
f 5 44 43
f 5 43 37
f 5 37 41
f 5 41 34
f 5 34 24
f 5 24 16
f 5 16 13
f 5 13 14
f 5 14 15
f 5 15 6
f 6 15 13
f 6 13 16
f 6 16 17
f 6 17 8
f 7 9 19
f 7 19 18
f 8 17 16
f 8 16 20
f 8 20 21
f 8 21 9
f 9 21 19
f 10 22 11
f 11 22 23
f 13 15 14
f 16 24 25
f 16 25 20
f 18 19 27
f 18 27 30
f 18 30 29
f 18 29 38
f 18 38 41
f 18 41 37
f 18 37 26
f 19 21 20
f 19 20 28
f 19 28 29
f 19 29 30
f 19 30 27
f 20 25 28
f 22 31 23
f 23 31 33
f 23 33 32
f 24 34 35
f 24 35 25
f 25 35 28
f 26 37 36
f 28 35 38
f 28 38 29
f 32 33 40
f 32 40 39
f 34 41 38
f 34 38 35
f 36 37 42
f 37 43 42
f 39 40 45
f 39 45 44
f 42 43 46
f 43 44 46
f 44 45 46
