# https://github.com/mikedh/trimesh
v 0.07898126 0.07797196 -0.00085285
v 0.07896882 0.07895487 -0.00051986
v 0.07967844 0.07895487 -0.00026265
v 0.08068962 0.07792665 -0.00024875
v 0.08067875 0.07627385 -0.00072563
v 0.08067875 0.07457526 -0.00085007
v 0.07629902 0.07895487 -0.00080905
v 0.07799806 0.07895487 -0.00081739
v 0.08021162 0.07895487 -0.00004298
v 0.08166117 0.07732979 0.00011135
v 0.08189279 0.07627385 -0.00010346
v 0.08220757 0.07457526 -0.00026474
v 0.08228063 0.07423222 -0.00027447
v 0.08108990 0.07423222 -0.00073050
v 0.08067875 0.07423222 -0.00084033
v 0.07520467 0.07895487 -0.00057687
v 0.08031888 0.07895487 0.00022188
v 0.08108990 0.07823456 0.00116105
v 0.08169770 0.07738527 0.00116105
v 0.08222389 0.07627385 0.00116105
v 0.08286589 0.07457526 0.00116105
v 0.08297781 0.07423222 0.00116105
v 0.08254800 0.07423222 0.00022953
v 0.07520467 0.07423222 0.00081972
v 0.07520467 0.07895487 0.00417668
v 0.08048444 0.07895487 0.00116105
v 0.08118395 0.07836402 0.00624828
v 0.08177543 0.07751056 0.00624828
v 0.08240654 0.07627385 0.00624828
v 0.08300501 0.07470055 0.00624828
v 0.08300968 0.07468714 0.00624828
v 0.08314492 0.07423222 0.00624828
v 0.07520467 0.07423222 0.00308458
v 0.07562748 0.07895487 0.00572829
v 0.08067719 0.07895487 0.00624828
v 0.08007017 0.07423222 0.00624828
v 0.07580003 0.07895348 0.00624828
v 0.07583112 0.07895487 0.00624828
f 1 2 3
f 1 3 4
f 1 4 5
f 1 5 6
f 1 6 7
f 1 7 8
f 1 8 2
f 2 8 7
f 2 7 16
f 2 16 25
f 2 25 34
f 2 34 38
f 2 38 35
f 2 35 26
f 2 26 17
f 2 17 9
f 2 9 3
f 3 9 4
f 4 10 11
f 4 11 5
f 4 9 10
f 5 11 12
f 5 12 13
f 5 13 14
f 5 14 6
f 6 15 7
f 6 14 15
f 7 15 16
f 9 17 10
f 10 17 18
f 10 18 19
f 10 19 20
f 10 20 21
f 10 21 22
f 10 22 11
f 11 22 23
f 11 23 12
f 12 23 13
f 13 23 22
f 13 22 32
f 13 32 36
f 13 36 33
f 13 33 24
f 13 24 15
f 13 15 14
f 15 24 16
f 16 24 33
f 16 33 25
f 17 26 18
f 18 27 19
f 18 26 27
f 19 28 29
f 19 29 20
f 19 27 28
f 20 29 30
f 20 30 21
f 21 30 31
f 21 31 22
f 22 31 32
f 25 33 34
f 26 35 27
f 27 35 38
f 27 38 37
f 27 37 36
f 27 36 32
f 27 32 31
f 27 31 30
f 27 30 29
f 27 29 28
f 33 37 34
f 33 36 37
f 34 37 38
