# https://github.com/mikedh/trimesh
v -0.08161672 0.06989797 0.02283986
v -0.08152598 0.06989797 0.01764252
v -0.08460270 0.06989797 0.02283986
v -0.08233417 0.04449864 0.02283986
v -0.08216449 0.04449864 0.01764252
v -0.08445442 0.06989797 0.01764252
v -0.08458684 0.06989797 0.02196482
v -0.08463148 0.06947775 0.02154358
v -0.08465471 0.06947775 0.02283986
v -0.08529212 0.04449864 0.02283986
v -0.08515675 0.04449864 0.01764252
v -0.08447250 0.06989797 0.01814668
v -0.08450901 0.06947775 0.01764252
v -0.08457836 0.06989797 0.02154358
v -0.08458389 0.06947775 0.01984538
v -0.08474287 0.06777949 0.01984538
v -0.08478935 0.06777949 0.02154358
v -0.08481296 0.06777949 0.02283986
v -0.08469234 0.06907494 0.02283986
v -0.08454258 0.06989797 0.02026612
v -0.08529323 0.04529680 0.02283986
v -0.08527146 0.04569961 0.02154358
v -0.08526962 0.04449864 0.02154358
v -0.08516154 0.04449864 0.01779056
v -0.08515969 0.04569961 0.01764252
v -0.08452709 0.06947775 0.01814668
v -0.08448725 0.06989797 0.01856843
v -0.08455992 0.06897300 0.01764252
v -0.08467500 0.06777949 0.01764252
v -0.08469123 0.06777949 0.01814668
v -0.08452967 0.06989797 0.01984538
v -0.08493838 0.06526815 0.02061766
v -0.08495055 0.06546210 0.02154358
v -0.08490259 0.06650144 0.02283986
v -0.08496198 0.06565107 0.02283986
v -0.08529359 0.04569961 0.02283986
v -0.08529397 0.04699506 0.02283986
v -0.08527183 0.04739787 0.02154358
v -0.08522683 0.04569961 0.01984538
v -0.08522425 0.04449864 0.01984538
v -0.08517298 0.04449864 0.01814668
v -0.08517556 0.04569961 0.01814668
v -0.08516043 0.04739787 0.01764252
v -0.08494501 0.06367184 0.01764252
v -0.08495313 0.06380611 0.01814668
v -0.08497231 0.06441032 0.01996901
v -0.08501657 0.06438297 0.02154358
v -0.08503982 0.06438297 0.02283986
v -0.08497785 0.06539496 0.02283986
v -0.08529397 0.05079439 0.02283986
v -0.08522719 0.04739787 0.01984538
v -0.08527183 0.05079439 0.02154358
v -0.08517630 0.04739787 0.01814668
v -0.08516043 0.05079439 0.01764252
v -0.08498043 0.06263498 0.01764252
v -0.08499518 0.06268222 0.01814668
v -0.08504756 0.06268222 0.01984538
v -0.08509330 0.06268222 0.02154358
v -0.08505789 0.06398016 0.02283986
v -0.08529286 0.05209233 0.02283986
v -0.08522719 0.05079439 0.01984538
v -0.08527035 0.05249514 0.02154358
v -0.08517630 0.05079439 0.01814668
v -0.08515895 0.05249514 0.01764252
v -0.08499408 0.06217995 0.01764252
v -0.08504498 0.06098396 0.01814668
v -0.08509662 0.06098396 0.01984538
v -0.08518995 0.05928570 0.02154358
v -0.08512723 0.06228190 0.02283986
v -0.08511580 0.06268222 0.02283986
v -0.08529249 0.05249514 0.02283986
v -0.08522573 0.05249514 0.01984538
v -0.08526039 0.05419341 0.02154358
v -0.08517482 0.05249514 0.01814668
v -0.08514900 0.05419341 0.01764252
v -0.08504350 0.06048169 0.01764252
v -0.08507781 0.05928570 0.01764252
v -0.08509367 0.05928570 0.01814668
v -0.08514494 0.05928570 0.01984538
v -0.08522056 0.05888289 0.02283986
v -0.08521208 0.05928570 0.02283986
v -0.08517556 0.06058115 0.02283986
v -0.08516412 0.06098396 0.02283986
v -0.08517998 0.05758744 0.01984538
v -0.08522461 0.05758744 0.02154358
v -0.08528252 0.05419341 0.02283986
v -0.08521576 0.05419341 0.01984538
v -0.08524380 0.05589167 0.02154358
v -0.08516486 0.05419341 0.01814668
v -0.08513240 0.05589167 0.01764252
v -0.08511285 0.05758744 0.01764252
v -0.08512908 0.05758744 0.01814668
v -0.08524674 0.05758744 0.02283986
v -0.08519917 0.05589167 0.01984538
v -0.08525154 0.05718712 0.02283986
v -0.08526593 0.05589167 0.02283986
v -0.08514826 0.05589167 0.01814668
v -0.08511875 0.05708517 0.01764252
f 1 2 6
f 1 6 12
f 1 12 27
f 1 27 31
f 1 31 20
f 1 20 14
f 1 14 7
f 1 7 3
f 1 3 9
f 1 9 19
f 1 19 18
f 1 18 34
f 1 34 35
f 1 35 49
f 1 49 48
f 1 48 59
f 1 59 70
f 1 70 69
f 1 69 83
f 1 83 82
f 1 82 81
f 1 81 80
f 1 80 93
f 1 93 95
f 1 95 96
f 1 96 86
f 1 86 71
f 1 71 60
f 1 60 50
f 1 50 37
f 1 37 36
f 1 36 21
f 1 21 10
f 1 10 4
f 1 4 5
f 1 5 2
f 2 5 11
f 2 11 25
f 2 25 43
f 2 43 54
f 2 54 64
f 2 64 75
f 2 75 90
f 2 90 98
f 2 98 91
f 2 91 77
f 2 77 76
f 2 76 65
f 2 65 55
f 2 55 44
f 2 44 29
f 2 29 28
f 2 28 13
f 2 13 6
f 3 7 8
f 3 8 9
f 4 10 23
f 4 23 40
f 4 40 41
f 4 41 24
f 4 24 11
f 4 11 5
f 6 13 26
f 6 26 12
f 7 14 8
f 8 15 16
f 8 16 17
f 8 17 18
f 8 18 19
f 8 19 9
f 8 14 20
f 8 20 15
f 10 21 22
f 10 22 23
f 11 24 25
f 12 26 27
f 13 28 26
f 15 26 28
f 15 28 29
f 15 29 30
f 15 30 16
f 15 20 31
f 15 31 27
f 15 27 26
f 16 30 32
f 16 32 33
f 16 33 17
f 17 34 18
f 17 33 35
f 17 35 34
f 21 36 22
f 22 36 37
f 22 37 38
f 22 38 51
f 22 51 39
f 22 39 23
f 23 39 40
f 24 41 25
f 25 41 42
f 25 42 53
f 25 53 43
f 29 44 45
f 29 45 32
f 29 32 30
f 32 45 46
f 32 46 47
f 32 47 33
f 33 47 48
f 33 48 49
f 33 49 35
f 37 50 52
f 37 52 38
f 38 52 61
f 38 61 51
f 39 51 53
f 39 53 42
f 39 42 41
f 39 41 40
f 43 53 63
f 43 63 54
f 44 55 56
f 44 56 57
f 44 57 45
f 45 57 58
f 45 58 47
f 45 47 46
f 47 58 48
f 48 58 59
f 50 60 52
f 51 61 63
f 51 63 53
f 52 60 62
f 52 62 72
f 52 72 61
f 54 63 74
f 54 74 64
f 55 65 56
f 56 65 66
f 56 66 57
f 57 66 67
f 57 67 58
f 58 67 79
f 58 79 68
f 58 68 69
f 58 69 70
f 58 70 59
f 60 71 62
f 61 72 74
f 61 74 63
f 62 71 86
f 62 86 73
f 62 73 87
f 62 87 72
f 64 74 89
f 64 89 75
f 65 76 66
f 66 76 77
f 66 77 78
f 66 78 67
f 67 78 79
f 68 80 81
f 68 81 82
f 68 82 83
f 68 83 69
f 68 79 84
f 68 84 85
f 68 85 80
f 72 87 89
f 72 89 74
f 73 86 96
f 73 96 88
f 73 88 94
f 73 94 87
f 75 89 97
f 75 97 90
f 77 91 92
f 77 92 78
f 78 92 79
f 79 92 84
f 80 85 93
f 84 92 97
f 84 97 94
f 84 94 88
f 84 88 85
f 85 88 95
f 85 95 93
f 87 94 97
f 87 97 89
f 88 96 95
f 90 97 92
f 90 92 98
f 91 98 92
