# https://github.com/mikedh/trimesh
v 0.04504898 -0.00042905 0.02495525
v 0.05619128 -0.00042905 0.02495525
v 0.04504898 -0.00042905 0.02785752
v 0.04504898 0.00323392 0.02495525
v 0.05619128 -0.00042905 0.02838340
v 0.05619128 0.00663007 0.02495525
v 0.04644190 -0.00042905 0.02838340
v 0.04504898 -0.00042330 0.02838340
v 0.04504898 0.00493257 0.02509352
v 0.04670696 0.00493257 0.02501197
v 0.04840639 0.00493257 0.02496968
v 0.05619128 0.00832873 0.02497841
v 0.05350033 0.00663007 0.02496096
v 0.05519976 0.00663007 0.02495525
v 0.05619128 0.00663007 0.02838340
v 0.04504898 0.00323392 0.02838340
v 0.04504898 0.00608609 0.02551101
v 0.05619128 0.01002738 0.02525092
v 0.05519976 0.00832873 0.02500727
v 0.05619128 0.00762143 0.02838206
v 0.05519976 0.00663007 0.02838340
v 0.05619128 0.00832873 0.02835991
v 0.04504898 0.00327417 0.02838206
v 0.04504898 0.00641156 0.02663996
v 0.05588259 0.01098079 0.02569055
v 0.05619128 0.01108544 0.02563954
v 0.05519976 0.00832873 0.02833038
v 0.04670696 0.00493257 0.02832568
v 0.04840639 0.00493257 0.02836931
v 0.05619128 0.00932009 0.02827031
v 0.04504898 0.00493257 0.02824279
v 0.04504898 0.00611829 0.02776557
v 0.05619128 0.01124875 0.02729841
v 0.05619128 0.01131776 0.02663996
v 0.05619128 0.01003083 0.02807499
v 0.04504898 0.00496477 0.02823205
v 0.04504898 0.00610564 0.02779543
v 0.05586405 0.01099229 0.02760414
v 0.05619128 0.01110500 0.02766052
v 0.05619128 0.01078298 0.02782161
f 1 2 5
f 1 5 7
f 1 7 3
f 1 3 8
f 1 8 16
f 1 16 23
f 1 23 31
f 1 31 36
f 1 36 37
f 1 37 32
f 1 32 24
f 1 24 17
f 1 17 9
f 1 9 4
f 1 4 14
f 1 14 6
f 1 6 2
f 2 6 12
f 2 12 18
f 2 18 26
f 2 26 34
f 2 34 33
f 2 33 39
f 2 39 40
f 2 40 35
f 2 35 30
f 2 30 22
f 2 22 20
f 2 20 15
f 2 15 5
f 3 7 8
f 4 9 10
f 4 10 11
f 4 11 12
f 4 12 13
f 4 13 14
f 5 15 21
f 5 21 16
f 5 16 8
f 5 8 7
f 6 14 12
f 9 17 18
f 9 18 19
f 9 19 10
f 10 19 12
f 10 12 11
f 12 14 13
f 12 19 18
f 15 20 21
f 16 21 20
f 16 20 22
f 16 22 23
f 17 24 25
f 17 25 26
f 17 26 18
f 22 27 28
f 22 28 29
f 22 29 23
f 22 30 27
f 23 29 28
f 23 28 31
f 24 32 33
f 24 33 34
f 24 34 25
f 25 34 26
f 27 30 28
f 28 30 31
f 30 35 31
f 31 35 36
f 32 37 38
f 32 38 33
f 33 38 39
f 35 40 36
f 36 40 37
f 37 40 39
f 37 39 38
