# https://github.com/mikedh/trimesh
v -0.08263521 0.06607963 0.03150060
v -0.08248568 0.06990045 0.03140649
v -0.08256271 0.06947362 0.03142175
v -0.08372074 0.06990045 0.03142175
v -0.08391040 0.06607963 0.03150060
v -0.08408646 -0.00042332 0.03146330
v -0.08280804 -0.00042332 0.03142853
v -0.07869506 0.06947362 0.02838816
v -0.07869506 0.06990045 0.02838816
v -0.07869506 -0.00042332 0.02838307
v -0.08425800 0.06990045 0.03037975
v -0.08479915 0.06437919 0.03032125
v -0.08483410 0.06267875 0.03051710
v -0.08489559 0.05928476 0.03076128
v -0.08492343 0.05758432 0.03085030
v -0.08493443 0.05662740 0.03088083
v -0.08494090 0.05549836 0.03089524
v -0.08494738 0.05419033 0.03090796
v -0.08495320 0.05248989 0.03091813
v -0.08394988 0.06437919 0.03148534
v -0.08408646 0.05419033 0.03145397
v -0.08408646 0.05248989 0.03146160
v -0.08408646 0.05078946 0.03146330
v -0.08422240 -0.00042332 0.03137851
v -0.07869506 0.06990045 0.02494845
v -0.07869506 -0.00042332 0.02452029
v -0.08440882 0.06990045 0.03003637
v -0.08461272 0.06778007 0.03003637
v -0.08478296 0.06610028 0.02992700
v -0.08499074 0.06437919 0.02947256
v -0.08502829 0.06267875 0.02966756
v -0.08505224 0.06098520 0.02979050
v -0.08507555 0.05928476 0.02991174
v -0.08509302 0.05758432 0.03000076
v -0.08507231 0.05599404 0.03020340
v -0.08512215 0.05419033 0.03003637
v -0.08513251 0.05248989 0.03003637
v -0.08513510 0.05078946 0.03003637
v -0.08495450 0.05078946 0.03092068
v -0.08495450 -0.00042332 0.03092068
v -0.08161699 0.06990045 0.02283986
v -0.07869506 0.03719973 0.02451266
v -0.07951713 0.03550617 0.02283986
v -0.07952167 0.03590547 0.02283986
v -0.07953915 0.03719973 0.02283986
v -0.07955986 0.03763344 0.02283986
v -0.07959740 -0.00042332 0.02283986
v -0.07951455 0.03381262 0.02283986
v -0.07869506 0.03381262 0.02450079
v -0.08457582 0.06990045 0.02875952
v -0.08495515 0.06554265 0.02928857
v -0.08512215 0.06267875 0.02833814
v -0.08521730 0.05928476 0.02833814
v -0.08525161 0.05758432 0.02833814
v -0.08527039 0.05588389 0.02833814
v -0.08528656 0.05419033 0.02833814
v -0.08529757 0.05248989 0.02833814
v -0.08530016 0.05078946 0.02833814
v -0.08516099 -0.00042332 0.02977100
v -0.08513510 -0.00042332 0.03003637
v -0.08460237 0.06990045 0.02283986
v -0.07869506 0.03551305 0.02450249
v -0.08325985 -0.00042332 0.02283986
v -0.07869506 0.03382639 0.02450079
v -0.08461725 0.06990045 0.02833814
v -0.08466968 0.06947362 0.02833814
v -0.08496615 0.06571475 0.02833814
v -0.08504707 0.06437919 0.02833814
v -0.08482892 0.06778007 0.02833814
v -0.08490983 0.06656842 0.02833814
v -0.08512992 0.06267875 0.02494167
v -0.08522507 0.05928476 0.02494167
v -0.08525938 0.05758432 0.02494167
v -0.08527880 0.05588389 0.02494167
v -0.08529433 0.05419033 0.02494167
v -0.08530534 0.05248989 0.02494167
v -0.08530404 0.05078946 0.02663991
v -0.08530081 -0.00042332 0.02807192
v -0.08530016 -0.00042332 0.02833814
v -0.08465480 0.06947362 0.02283986
v -0.08460948 0.06990045 0.02324259
v -0.08505030 -0.00042332 0.02395224
v -0.08527750 0.04230104 0.02283986
v -0.08462114 0.06990045 0.02706128
v -0.08467551 0.06947362 0.02663991
v -0.08483798 0.06778007 0.02663991
v -0.08496938 0.06576983 0.02494167
v -0.08505095 0.06437919 0.02663991
v -0.08491436 0.06659596 0.02663991
v -0.08512280 0.06267875 0.02324259
v -0.08521925 0.05928476 0.02324259
v -0.08505419 0.06437919 0.02494167
v -0.08525356 0.05758432 0.02324259
v -0.08527233 0.05588389 0.02324259
v -0.08528916 0.05419033 0.02324259
v -0.08529887 0.05248989 0.02324259
v -0.08530728 0.05078946 0.02494167
v -0.08530793 0.04739547 0.02494167
v -0.08530404 -0.00042332 0.02663991
v -0.08469234 0.06907433 0.02283986
v -0.08466192 0.06947362 0.02324259
v -0.08462114 0.06990045 0.02494167
v -0.08523543 -0.00042332 0.02494167
v -0.08529110 0.04399459 0.02283986
v -0.08462178 0.06990045 0.02663991
v -0.08467357 0.06947362 0.02494167
v -0.08483474 0.06778007 0.02494167
v -0.08491372 0.06661661 0.02494167
v -0.08496550 0.06570787 0.02324259
v -0.08504707 0.06437919 0.02324259
v -0.08505806 0.06397990 0.02283986
v -0.08511568 0.06267875 0.02283986
v -0.08512732 0.06227946 0.02283986
v -0.08516423 0.06098520 0.02283986
v -0.08521213 0.05928476 0.02283986
v -0.08522054 0.05887858 0.02283986
v -0.08524708 0.05758432 0.02283986
v -0.08526585 0.05588389 0.02283986
v -0.08526974 0.05548459 0.02283986
v -0.08528204 0.05419033 0.02283986
v -0.08528462 0.05378415 0.02283986
v -0.08529240 0.05248989 0.02283986
v -0.08530081 0.05078946 0.02324259
v -0.08530081 0.04739547 0.02324259
v -0.08530016 0.04569503 0.02324259
v -0.08529368 0.04569503 0.02283986
v -0.08481274 0.06778007 0.02283986
v -0.08482050 0.06778007 0.02324259
v -0.08490660 0.06655465 0.02324259
v -0.08496162 0.06565280 0.02283986
v -0.08497781 0.06539119 0.02283986
v -0.08503994 0.06437919 0.02283986
v -0.08529368 0.05078946 0.02283986
f 1 2 3
f 1 3 4
f 1 4 5
f 1 5 6
f 1 6 7
f 1 7 2
f 2 8 9
f 2 9 25
f 2 25 41
f 2 41 61
f 2 61 81
f 2 81 102
f 2 102 105
f 2 105 84
f 2 84 65
f 2 65 50
f 2 50 27
f 2 27 11
f 2 11 4
f 2 4 3
f 2 7 10
f 2 10 8
f 4 11 12
f 4 12 13
f 4 13 14
f 4 14 5
f 5 14 15
f 5 15 16
f 5 16 17
f 5 17 18
f 5 18 19
f 5 19 20
f 5 20 21
f 5 21 22
f 5 22 23
f 5 23 6
f 6 24 40
f 6 40 60
f 6 60 59
f 6 59 79
f 6 79 78
f 6 78 99
f 6 99 103
f 6 103 82
f 6 82 63
f 6 63 47
f 6 47 26
f 6 26 10
f 6 10 7
f 6 23 24
f 8 10 26
f 8 26 49
f 8 49 64
f 8 64 62
f 8 62 42
f 8 42 25
f 8 25 9
f 11 27 28
f 11 28 12
f 12 28 29
f 12 29 30
f 12 30 31
f 12 31 13
f 13 31 14
f 14 31 32
f 14 32 33
f 14 33 15
f 15 33 34
f 15 34 16
f 16 34 35
f 16 35 36
f 16 36 17
f 17 36 18
f 18 36 37
f 18 37 19
f 19 37 38
f 19 38 39
f 19 39 22
f 19 22 21
f 19 21 20
f 22 39 23
f 23 39 24
f 24 39 40
f 25 42 43
f 25 43 44
f 25 44 45
f 25 45 46
f 25 46 41
f 26 47 48
f 26 48 49
f 27 50 51
f 27 51 28
f 28 51 29
f 29 51 30
f 30 51 52
f 30 52 31
f 31 52 53
f 31 53 32
f 32 53 54
f 32 54 33
f 33 54 34
f 34 54 55
f 34 55 36
f 34 36 35
f 36 55 56
f 36 56 57
f 36 57 37
f 37 57 58
f 37 58 38
f 38 58 59
f 38 59 60
f 38 60 40
f 38 40 39
f 41 46 45
f 41 45 44
f 41 44 43
f 41 43 48
f 41 48 47
f 41 47 63
f 41 63 83
f 41 83 104
f 41 104 126
f 41 126 133
f 41 133 122
f 41 122 121
f 41 121 120
f 41 120 119
f 41 119 118
f 41 118 117
f 41 117 116
f 41 116 115
f 41 115 114
f 41 114 113
f 41 113 112
f 41 112 111
f 41 111 132
f 41 132 131
f 41 131 130
f 41 130 127
f 41 127 100
f 41 100 80
f 41 80 61
f 42 62 43
f 43 62 48
f 48 64 49
f 48 62 64
f 50 65 66
f 50 66 51
f 51 67 68
f 51 68 52
f 51 66 69
f 51 69 70
f 51 70 67
f 52 71 72
f 52 72 53
f 52 68 88
f 52 88 71
f 53 72 73
f 53 73 54
f 54 73 74
f 54 74 55
f 55 74 56
f 56 75 76
f 56 76 57
f 56 74 75
f 57 76 77
f 57 77 58
f 58 77 78
f 58 78 79
f 58 79 59
f 61 80 101
f 61 101 81
f 63 82 83
f 65 84 85
f 65 85 66
f 66 85 86
f 66 86 69
f 67 87 88
f 67 88 68
f 67 70 86
f 67 86 89
f 67 89 87
f 69 86 70
f 71 90 91
f 71 91 72
f 71 88 92
f 71 92 110
f 71 110 90
f 72 91 93
f 72 93 73
f 73 93 74
f 74 93 94
f 74 94 95
f 74 95 75
f 75 95 76
f 76 95 96
f 76 96 123
f 76 123 97
f 76 97 77
f 77 97 98
f 77 98 78
f 78 98 99
f 80 100 101
f 81 101 106
f 81 106 102
f 82 103 83
f 83 103 104
f 84 105 85
f 85 105 102
f 85 102 106
f 85 106 86
f 86 106 107
f 86 107 108
f 86 108 87
f 86 87 89
f 87 109 110
f 87 110 92
f 87 92 88
f 87 108 109
f 90 110 111
f 90 111 112
f 90 112 113
f 90 113 114
f 90 114 91
f 91 114 115
f 91 115 116
f 91 116 117
f 91 117 93
f 93 117 118
f 93 118 94
f 94 118 95
f 95 118 119
f 95 119 120
f 95 120 121
f 95 121 122
f 95 122 96
f 96 122 123
f 97 123 98
f 98 123 124
f 98 124 99
f 99 124 125
f 99 125 126
f 99 126 104
f 99 104 103
f 100 127 128
f 100 128 101
f 101 128 107
f 101 107 106
f 107 128 129
f 107 129 109
f 107 109 108
f 109 129 130
f 109 130 131
f 109 131 132
f 109 132 110
f 110 132 111
f 122 133 123
f 123 133 126
f 123 126 124
f 124 126 125
f 127 130 129
f 127 129 128
