# https://github.com/mikedh/trimesh
v 0.08397245 0.06277628 0.03147181
v 0.08270851 0.06277628 0.03147181
v 0.08397406 0.06268348 0.03147181
v 0.08493645 0.05418871 0.03090768
v 0.08493004 0.05549418 0.03089465
v 0.08492362 0.05662640 0.03088081
v 0.08491319 0.05758538 0.03084988
v 0.08488512 0.05928681 0.03076115
v 0.08482337 0.06268348 0.03051694
v 0.08482177 0.06277628 0.03050635
v 0.08271091 0.06268348 0.03147181
v 0.07710496 0.06277628 0.02838333
v 0.07710496 -0.00042402 0.02838333
v 0.08279753 -0.00042402 0.03142867
v 0.08407591 0.05079204 0.03146367
v 0.08407591 0.05248729 0.03146123
v 0.08407591 0.05418871 0.03145390
v 0.08494207 0.05248729 0.03091826
v 0.08407591 -0.00042402 0.03146285
v 0.08512171 0.05248729 0.03003665
v 0.08511129 0.05418871 0.03003665
v 0.08506156 0.05598914 0.03020353
v 0.08508242 0.05758538 0.03000083
v 0.08506558 0.05928681 0.02991210
v 0.08501746 0.06268348 0.02966789
v 0.08483219 0.06277628 0.03046077
v 0.08387621 -0.00042402 0.03145797
v 0.07710496 0.06277628 0.02495539
v 0.07710496 -0.00042402 0.02494480
v 0.08494367 0.05079204 0.03092070
v 0.08494367 -0.00042402 0.03092070
v 0.08512412 0.05079204 0.03003665
v 0.08528692 0.05248729 0.02833774
v 0.08527569 0.05418871 0.02833774
v 0.08525966 0.05589014 0.02833774
v 0.08524121 0.05758538 0.02833774
v 0.08520673 0.05928681 0.02833774
v 0.08501585 0.06277628 0.02965731
v 0.08218160 0.06277628 0.02324264
v 0.08218079 0.06277010 0.02315716
v 0.07965290 0.03898723 0.02315716
v 0.07949010 0.03719919 0.02315716
v 0.07946764 0.03550394 0.02315716
v 0.07946523 0.03380252 0.02315716
v 0.07710496 0.03568337 0.02494318
v 0.07954544 -0.00042402 0.02315716
v 0.07710496 0.02871680 0.02494318
v 0.07946523 0.03371590 0.02315716
v 0.08509605 -0.00042402 0.03017504
v 0.08528933 0.05079204 0.02833774
v 0.08512412 -0.00042402 0.03003665
v 0.08526367 -0.00042402 0.02860393
v 0.08529334 0.05079204 0.02664046
v 0.08529414 0.05248729 0.02494155
v 0.08528371 0.05418871 0.02494155
v 0.08526367 0.05589014 0.02664046
v 0.08524923 0.05758538 0.02494155
v 0.08521394 0.05928681 0.02494155
v 0.08511931 0.06268348 0.02494155
v 0.08511530 0.06268348 0.02664046
v 0.08511129 0.06268348 0.02833774
v 0.08510728 0.06277628 0.02833774
v 0.08493084 0.06277628 0.02315716
v 0.08374148 -0.00042402 0.02315716
v 0.08528933 -0.00042402 0.02833774
v 0.08529655 0.05079204 0.02494155
v 0.08529334 -0.00042402 0.02664046
v 0.08528853 0.05248729 0.02324264
v 0.08527810 0.05418871 0.02324264
v 0.08526768 0.05589014 0.02494155
v 0.08526207 0.05589014 0.02324264
v 0.08524282 0.05758538 0.02324264
v 0.08520832 0.05928681 0.02324264
v 0.08511209 0.06268348 0.02324264
v 0.08511530 0.06277628 0.02494155
v 0.08510808 0.06277628 0.02824657
v 0.08510647 0.06277010 0.02315716
v 0.08510808 0.06277628 0.02324264
v 0.08527329 0.04229728 0.02315716
v 0.08503991 -0.00042402 0.02395167
v 0.08529013 0.05079204 0.02324264
v 0.08529655 0.04569395 0.02494155
v 0.08523560 -0.00042402 0.02520774
v 0.08528612 0.04399871 0.02315716
v 0.08528853 0.04569395 0.02315716
v 0.08529013 0.04569395 0.02324264
v 0.08528853 0.05087866 0.02315716
v 0.08528692 0.05248729 0.02315716
v 0.08527730 0.05418871 0.02315716
v 0.08527649 0.05427533 0.02315716
v 0.08525966 0.05597057 0.02315716
v 0.08526046 0.05589014 0.02315716
v 0.08524121 0.05758538 0.02315716
v 0.08523961 0.05767200 0.02315716
v 0.08520673 0.05928681 0.02315716
v 0.08520432 0.05937343 0.02315716
v 0.08511048 0.06268348 0.02315716
v 0.08527409 0.04238390 0.02315716
v 0.08522437 -0.00042402 0.02494155
f 1 2 11
f 1 11 3
f 1 3 4
f 1 4 5
f 1 5 6
f 1 6 7
f 1 7 8
f 1 8 9
f 1 9 10
f 1 10 26
f 1 26 38
f 1 38 62
f 1 62 76
f 1 76 75
f 1 75 78
f 1 78 63
f 1 63 39
f 1 39 28
f 1 28 12
f 1 12 2
f 2 12 13
f 2 13 14
f 2 14 11
f 3 15 16
f 3 16 17
f 3 17 18
f 3 18 4
f 3 11 19
f 3 19 15
f 4 18 20
f 4 20 21
f 4 21 5
f 5 21 6
f 6 21 22
f 6 22 23
f 6 23 7
f 7 23 24
f 7 24 8
f 8 24 25
f 8 25 9
f 9 25 26
f 9 26 10
f 11 14 27
f 11 27 19
f 12 28 45
f 12 45 47
f 12 47 29
f 12 29 13
f 13 29 46
f 13 46 64
f 13 64 80
f 13 80 99
f 13 99 83
f 13 83 67
f 13 67 65
f 13 65 52
f 13 52 51
f 13 51 49
f 13 49 31
f 13 31 19
f 13 19 27
f 13 27 14
f 15 30 16
f 15 19 31
f 15 31 30
f 16 30 18
f 16 18 17
f 18 30 32
f 18 32 20
f 20 32 50
f 20 50 33
f 20 33 21
f 21 34 35
f 21 35 23
f 21 23 22
f 21 33 34
f 23 35 36
f 23 36 24
f 24 36 37
f 24 37 25
f 25 38 26
f 25 37 38
f 28 39 40
f 28 40 41
f 28 41 42
f 28 42 43
f 28 43 44
f 28 44 45
f 29 47 48
f 29 48 46
f 30 31 49
f 30 49 32
f 32 49 51
f 32 51 52
f 32 52 50
f 33 50 53
f 33 53 54
f 33 54 55
f 33 55 34
f 34 55 56
f 34 56 35
f 35 56 36
f 36 56 57
f 36 57 37
f 37 57 58
f 37 58 59
f 37 59 60
f 37 60 61
f 37 61 38
f 38 61 62
f 39 63 40
f 40 63 77
f 40 77 97
f 40 97 96
f 40 96 95
f 40 95 94
f 40 94 93
f 40 93 91
f 40 91 92
f 40 92 90
f 40 90 89
f 40 89 88
f 40 88 87
f 40 87 85
f 40 85 84
f 40 84 98
f 40 98 79
f 40 79 64
f 40 64 46
f 40 46 48
f 40 48 44
f 40 44 43
f 40 43 42
f 40 42 41
f 44 48 47
f 44 47 45
f 50 52 65
f 50 65 67
f 50 67 53
f 53 66 54
f 53 67 82
f 53 82 66
f 54 66 68
f 54 68 69
f 54 69 55
f 55 69 71
f 55 71 70
f 55 70 56
f 56 70 57
f 57 70 71
f 57 71 72
f 57 72 73
f 57 73 58
f 58 73 59
f 59 74 78
f 59 78 75
f 59 75 76
f 59 76 60
f 59 73 74
f 60 76 61
f 61 76 62
f 63 78 77
f 64 79 80
f 66 81 68
f 66 82 86
f 66 86 81
f 67 83 84
f 67 84 85
f 67 85 86
f 67 86 82
f 68 81 87
f 68 87 88
f 68 88 89
f 68 89 69
f 69 89 90
f 69 90 71
f 71 91 72
f 71 90 92
f 71 92 91
f 72 93 94
f 72 94 73
f 72 91 93
f 73 94 95
f 73 95 96
f 73 96 74
f 74 97 78
f 74 96 97
f 77 78 97
f 79 98 80
f 80 98 99
f 81 86 85
f 81 85 87
f 83 99 84
f 84 99 98
