# https://github.com/mikedh/trimesh
v -0.08529219 0.04449864 0.02283986
v -0.08529106 0.04399906 0.02283986
v -0.08233462 0.04449864 0.02283986
v -0.08526959 0.04449864 0.02154358
v -0.08526845 0.04399906 0.02154358
v -0.08527750 0.04230033 0.02283986
v -0.08216450 0.04449864 0.01764252
v -0.08020334 0.04047692 0.02283986
v -0.07998518 0.04097217 0.01764252
v -0.08522437 0.04449864 0.01984538
v -0.08522325 0.04399906 0.01984538
v -0.08525263 0.04230033 0.02154358
v -0.08511360 0.04060074 0.02283986
v -0.08515655 0.04449864 0.01764252
v -0.08003831 0.04005527 0.02283986
v -0.07976025 0.04012280 0.01764252
v -0.07975912 0.03930114 0.02283986
v -0.08517295 0.04449864 0.01814668
v -0.08517181 0.04399906 0.01814668
v -0.08520403 0.04230033 0.01984538
v -0.08502035 0.04125269 0.01764252
v -0.08497796 0.04017042 0.02283986
v -0.08516164 0.04449864 0.01779056
v -0.08515542 0.04399906 0.01764252
v -0.07968960 0.03899291 0.02283986
v -0.07963139 0.03890460 0.01764252
v -0.08514695 0.04230033 0.01814668
v -0.08510230 0.04201115 0.01764252
v -0.08249740 0.03565346 0.01764252
v -0.08314339 0.03565346 0.02283986
v -0.08486605 0.03989682 0.02257175
v -0.08512830 0.04230033 0.01764252
v -0.07955961 0.03763618 0.02283986
v -0.07953870 0.03720587 0.02283986
v -0.07959182 0.03770977 0.01764252
v -0.07956752 0.03565346 0.01764252
v -0.07951835 0.03565346 0.02283986
v -0.07957656 0.03720587 0.01764252
f 1 2 6
f 1 6 13
f 1 13 22
f 1 22 30
f 1 30 37
f 1 37 34
f 1 34 33
f 1 33 25
f 1 25 17
f 1 17 15
f 1 15 8
f 1 8 3
f 1 3 7
f 1 7 14
f 1 14 23
f 1 23 18
f 1 18 10
f 1 10 4
f 1 4 5
f 1 5 2
f 2 5 6
f 3 8 9
f 3 9 7
f 4 10 11
f 4 11 5
f 5 11 12
f 5 12 6
f 6 12 13
f 7 9 16
f 7 16 26
f 7 26 35
f 7 35 38
f 7 38 36
f 7 36 29
f 7 29 21
f 7 21 28
f 7 28 32
f 7 32 24
f 7 24 14
f 8 15 9
f 9 15 17
f 9 17 16
f 10 18 19
f 10 19 11
f 11 19 20
f 11 20 12
f 12 20 13
f 13 21 22
f 13 20 21
f 14 24 23
f 16 17 25
f 16 25 26
f 18 23 19
f 19 23 24
f 19 24 20
f 20 27 28
f 20 28 21
f 20 24 27
f 21 29 30
f 21 30 31
f 21 31 22
f 22 31 30
f 24 32 27
f 25 33 26
f 26 33 34
f 26 34 35
f 27 32 28
f 29 36 37
f 29 37 30
f 34 37 38
f 34 38 35
f 36 38 37
