# https://github.com/mikedh/trimesh
v 0.00000840 0.07927929 0.02839610
v 0.00000840 0.06990137 0.02838337
v 0.00000840 0.07927929 0.02450459
v -0.07225634 0.07927929 0.02856923
v 0.00000840 0.06990137 0.02495551
v -0.07246206 0.07927929 0.02856963
v -0.07246206 0.06990137 0.02838337
v -0.03651058 0.07927929 0.02450419
v -0.07246206 0.06990137 0.02495551
v -0.07246206 0.07927929 0.02465423
v -0.03652477 0.07927929 0.02450419
v -0.03822019 0.07927929 0.02450499
f 1 2 5
f 1 5 3
f 1 3 8
f 1 8 11
f 1 11 12
f 1 12 10
f 1 10 6
f 1 6 4
f 1 4 2
f 2 4 6
f 2 6 7
f 2 7 9
f 2 9 5
f 3 5 8
f 5 9 11
f 5 11 8
f 6 10 9
f 6 9 7
f 9 10 12
f 9 12 11
