# https://github.com/mikedh/trimesh
v 0.06915954 0.02905774 0.02663999
v 0.06940918 0.02905774 0.02557192
v 0.06918676 0.02905774 0.02688487
v 0.07019150 0.04295341 0.02663999
v 0.07045902 0.02905774 0.02516942
v 0.07052590 0.04295341 0.02587304
v 0.07077631 0.04295341 0.02539239
v 0.06939207 0.02905774 0.02773131
v 0.07075298 0.04295341 0.02792330
v 0.07218621 0.03041125 0.02495621
v 0.07218621 0.02905774 0.02495553
v 0.07161852 0.04295341 0.02513506
v 0.07218621 0.04295341 0.02497473
v 0.06952971 0.02905774 0.02779800
v 0.07218621 0.04295341 0.02837060
v 0.07045824 0.02905774 0.02816177
v 0.07323217 0.04295341 0.02496126
v 0.07388463 0.04295341 0.02495553
v 0.07710416 0.03041125 0.02494307
v 0.07710416 0.02905774 0.02494341
v 0.07710416 0.03738290 0.02494341
v 0.07710416 0.03568522 0.02494307
v 0.07388463 0.04295341 0.02838374
v 0.07083230 0.02905774 0.02825002
v 0.07218621 0.03041125 0.02838239
v 0.07652013 0.04295341 0.02495520
v 0.07710416 0.03908058 0.02494543
v 0.07710416 0.02905774 0.02838374
v 0.07710416 0.04295341 0.02838374
v 0.07218621 0.02905774 0.02838340
v 0.07253071 0.02905774 0.02838374
v 0.07710416 0.04295341 0.02495520
f 1 2 5
f 1 5 11
f 1 11 20
f 1 20 28
f 1 28 31
f 1 31 30
f 1 30 24
f 1 24 16
f 1 16 14
f 1 14 8
f 1 8 3
f 1 3 4
f 1 4 2
f 2 4 6
f 2 6 7
f 2 7 5
f 3 8 4
f 4 9 15
f 4 15 23
f 4 23 29
f 4 29 32
f 4 32 26
f 4 26 18
f 4 18 17
f 4 17 13
f 4 13 12
f 4 12 7
f 4 7 6
f 4 8 9
f 5 10 11
f 5 7 12
f 5 12 13
f 5 13 10
f 8 14 9
f 9 14 16
f 9 16 15
f 10 13 17
f 10 17 18
f 10 18 11
f 11 19 20
f 11 18 21
f 11 21 22
f 11 22 19
f 15 16 24
f 15 24 25
f 15 25 23
f 18 26 27
f 18 27 21
f 19 22 21
f 19 21 27
f 19 27 32
f 19 32 29
f 19 29 28
f 19 28 20
f 23 25 30
f 23 30 31
f 23 31 28
f 23 28 29
f 24 30 25
f 26 32 27
