# https://github.com/mikedh/trimesh
v -0.07912425 -0.03890718 0.00560646
v -0.07846162 -0.04093370 0.00340438
v -0.07846162 -0.03923313 0.00341013
v -0.07846162 -0.03890718 0.00341013
v -0.08219293 -0.03890718 0.00560646
v -0.07912733 -0.03923313 0.00560646
v -0.07846162 -0.06786236 0.00308624
v -0.07846162 -0.03890718 0.00081262
v -0.08212703 -0.03890718 0.00285882
v -0.08427936 -0.04263145 0.00560646
v -0.07920800 -0.04093370 0.00560646
v -0.08118974 -0.06786236 0.00560646
v -0.07846162 -0.06786236 0.00061266
v -0.08238815 -0.04432919 -0.00090841
v -0.07899123 -0.03890718 0.00080942
v -0.08069030 -0.06786236 -0.00048422
v -0.08182589 -0.03890718 0.00159136
v -0.08391786 -0.04272781 0.00116079
v -0.08461806 -0.04432919 0.00116079
v -0.08448505 -0.04328050 0.00560646
v -0.08426273 -0.06786236 0.00560646
v -0.08238815 -0.04602977 -0.00091224
v -0.08393388 -0.04602977 -0.00030790
v -0.08392341 -0.04432919 -0.00030790
v -0.08368816 -0.04301975 -0.00010156
v -0.08238815 -0.04275616 -0.00029704
v -0.08069030 -0.03890718 0.00098638
v -0.08093725 -0.06786236 -0.00055513
v -0.08474308 -0.04432919 0.00560646
v -0.08463962 -0.04602977 0.00116079
v -0.08437604 -0.06640836 0.00560646
v -0.08414634 -0.06786236 0.00116079
v -0.08238815 -0.05621624 -0.00091863
v -0.08393449 -0.05282358 -0.00030726
v -0.08393449 -0.04772752 -0.00030726
v -0.08464147 -0.04772752 0.00116079
v -0.08238815 -0.05961455 -0.00091927
v -0.08238815 -0.06786236 -0.00084772
v -0.08238815 -0.06471062 -0.00090841
v -0.08238815 -0.06301288 -0.00091799
v -0.08474739 -0.04497825 0.00560646
v -0.08475170 -0.04602977 0.00560646
v -0.08425965 -0.06640836 0.00116079
v -0.08448505 -0.06471062 0.00560646
v -0.08438282 -0.06471062 0.00116079
v -0.08376945 -0.06786236 -0.00002042
v -0.08464085 -0.05282358 0.00116079
v -0.08464147 -0.05112584 0.00116079
v -0.08393080 -0.05451849 -0.00030662
v -0.08475232 -0.04772752 0.00560646
v -0.08258583 -0.06786236 -0.00075764
v -0.08381810 -0.06471062 -0.00028938
v -0.08385628 -0.06301288 -0.00030087
v -0.08387784 -0.06131230 -0.00030279
v -0.08389877 -0.05961455 -0.00030471
v -0.08391417 -0.05791681 -0.00030535
v -0.08392279 -0.05621624 -0.00030598
v -0.08453800 -0.06366193 0.00560646
v -0.08457065 -0.06301288 0.00560646
v -0.08446472 -0.06301288 0.00116079
v -0.08369494 -0.06786236 -0.00022613
v -0.08463223 -0.05451849 0.00116079
v -0.08474369 -0.05451849 0.00560646
v -0.08475170 -0.05282358 0.00560646
v -0.08475232 -0.05177489 0.00560646
v -0.08451522 -0.06131230 0.00116079
v -0.08456202 -0.05961455 0.00116079
v -0.08459651 -0.05791681 0.00116079
v -0.08461560 -0.05621624 0.00116079
v -0.08462730 -0.06131230 0.00560646
v -0.08472830 -0.05621624 0.00560646
v -0.08467595 -0.05961455 0.00560646
v -0.08471044 -0.05791681 0.00560646
f 1 2 3
f 1 3 4
f 1 4 8
f 1 8 15
f 1 15 27
f 1 27 17
f 1 17 9
f 1 9 5
f 1 5 10
f 1 10 20
f 1 20 29
f 1 29 41
f 1 41 42
f 1 42 50
f 1 50 65
f 1 65 64
f 1 64 63
f 1 63 71
f 1 71 73
f 1 73 72
f 1 72 70
f 1 70 59
f 1 59 58
f 1 58 44
f 1 44 31
f 1 31 21
f 1 21 12
f 1 12 11
f 1 11 6
f 1 6 7
f 1 7 2
f 2 7 13
f 2 13 8
f 2 8 4
f 2 4 3
f 5 9 10
f 6 11 7
f 7 12 21
f 7 21 32
f 7 32 46
f 7 46 61
f 7 61 51
f 7 51 38
f 7 38 28
f 7 28 16
f 7 16 13
f 7 11 12
f 8 14 15
f 8 13 16
f 8 16 14
f 9 17 18
f 9 18 10
f 10 18 19
f 10 19 20
f 14 22 23
f 14 23 24
f 14 24 25
f 14 25 26
f 14 26 27
f 14 27 15
f 14 16 28
f 14 28 22
f 17 27 25
f 17 25 18
f 18 25 19
f 19 29 20
f 19 25 24
f 19 24 30
f 19 30 29
f 21 31 43
f 21 43 32
f 22 28 33
f 22 33 23
f 23 34 35
f 23 35 36
f 23 36 30
f 23 30 24
f 23 33 37
f 23 37 34
f 25 27 26
f 28 38 39
f 28 39 40
f 28 40 37
f 28 37 33
f 29 30 41
f 30 36 42
f 30 42 41
f 31 44 45
f 31 45 43
f 32 43 46
f 34 47 48
f 34 48 36
f 34 36 35
f 34 37 40
f 34 40 49
f 34 49 47
f 36 50 42
f 36 48 65
f 36 65 50
f 38 51 52
f 38 52 39
f 39 52 53
f 39 53 54
f 39 54 55
f 39 55 40
f 40 55 56
f 40 56 57
f 40 57 49
f 43 45 46
f 44 58 45
f 45 58 59
f 45 59 60
f 45 60 61
f 45 61 46
f 47 49 57
f 47 57 62
f 47 62 63
f 47 63 64
f 47 64 65
f 47 65 48
f 51 61 52
f 52 60 66
f 52 66 67
f 52 67 53
f 52 61 60
f 53 67 68
f 53 68 54
f 54 68 55
f 55 68 69
f 55 69 62
f 55 62 56
f 56 62 57
f 59 70 60
f 60 70 66
f 62 69 71
f 62 71 63
f 66 70 72
f 66 72 67
f 67 72 73
f 67 73 68
f 68 73 69
f 69 73 71
