# https://github.com/mikedh/trimesh
v -0.00001898 -0.04924550 0.02495525
v 0.00254322 -0.04924550 0.02495525
v -0.00001898 -0.04924550 0.02838340
v -0.00001898 -0.03578639 0.02495525
v 0.00406169 -0.04924550 0.02496029
v 0.00254322 -0.04262925 0.02495525
v 0.00254322 -0.04924550 0.02838340
v -0.00001898 -0.03578639 0.02838340
v 0.00084442 -0.03578639 0.02495525
v 0.00424065 -0.04924550 0.02496297
v 0.00254322 -0.03578639 0.02495592
v 0.00424065 -0.04924550 0.02837602
v 0.00254322 -0.04262925 0.02838340
v 0.00089361 -0.03578639 0.02838340
v 0.00424065 -0.04772516 0.02498210
v 0.00603508 -0.04924550 0.02535395
v 0.00424065 -0.03578639 0.02523783
v 0.00609246 -0.04924550 0.02794847
v 0.00424065 -0.04772516 0.02835723
v 0.00254322 -0.03578639 0.02838307
v 0.00607880 -0.04924550 0.02536603
v 0.00521061 -0.03578639 0.02565464
v 0.00695927 -0.04924550 0.02663996
v 0.00522632 -0.03578639 0.02764676
v 0.00427207 -0.03578639 0.02808036
v 0.00424065 -0.03578639 0.02809345
v 0.00259172 -0.03578639 0.02837703
v 0.00685886 -0.04924550 0.02610133
v 0.00534654 -0.03578639 0.02663996
v 0.00523179 -0.03578639 0.02761522
f 1 2 5
f 1 5 10
f 1 10 16
f 1 16 21
f 1 21 28
f 1 28 23
f 1 23 18
f 1 18 12
f 1 12 7
f 1 7 3
f 1 3 8
f 1 8 4
f 1 4 9
f 1 9 6
f 1 6 2
f 2 6 5
f 3 7 13
f 3 13 14
f 3 14 8
f 4 8 14
f 4 14 20
f 4 20 27
f 4 27 26
f 4 26 25
f 4 25 24
f 4 24 30
f 4 30 29
f 4 29 22
f 4 22 17
f 4 17 11
f 4 11 9
f 5 6 11
f 5 11 10
f 6 9 11
f 7 12 13
f 10 15 16
f 10 11 15
f 11 17 15
f 12 18 19
f 12 19 20
f 12 20 13
f 13 20 14
f 15 17 16
f 16 17 21
f 17 22 21
f 18 23 24
f 18 24 25
f 18 25 26
f 18 26 19
f 19 26 27
f 19 27 20
f 21 22 28
f 22 29 23
f 22 23 28
f 23 29 30
f 23 30 24
