# https://github.com/mikedh/trimesh
v -0.08470119 0.04570433 0.00381476
v -0.08470290 0.04739777 0.00381476
v -0.08079455 0.04570433 0.00381476
v -0.08495980 0.04570433 0.01150828
v -0.08470290 0.05079438 0.00381476
v -0.08496023 0.04739777 0.01148527
v -0.08078684 0.05672682 0.00381476
v -0.08220066 0.05673654 0.01764116
v -0.08224220 0.04570433 0.01764116
v -0.08501075 0.04570433 0.01304996
v -0.08501204 0.04739777 0.01304996
v -0.08470247 0.05249214 0.00381476
v -0.08496023 0.05079438 0.01148527
v -0.08083137 0.05673654 0.00381476
v -0.08079155 0.05673654 0.00382017
v -0.08512251 0.05673654 0.01764116
v -0.08515975 0.04570433 0.01764116
v -0.08506684 0.04570433 0.01474865
v -0.08506770 0.04739777 0.01474865
v -0.08501204 0.05079438 0.01304996
v -0.08469776 0.05344794 0.00381476
v -0.08495937 0.05249214 0.01149880
v -0.08501075 0.05249214 0.01304996
v -0.08466779 0.05673654 0.00381476
v -0.08513236 0.05588982 0.01764116
v -0.08511180 0.05673654 0.01729466
v -0.08512165 0.04570433 0.01644734
v -0.08516061 0.04739777 0.01764116
v -0.08512251 0.04739777 0.01644734
v -0.08506770 0.05079438 0.01474865
v -0.08469391 0.05419098 0.00381476
v -0.08495466 0.05419098 0.01164228
v -0.08506642 0.05249214 0.01474865
v -0.08500090 0.05419098 0.01304996
v -0.08467721 0.05588982 0.00381476
v -0.08494139 0.05673654 0.01203886
v -0.08513749 0.05538546 0.01764116
v -0.08509467 0.05588982 0.01644734
v -0.08508482 0.05673654 0.01644734
v -0.08516061 0.05079438 0.01764116
v -0.08512251 0.05079438 0.01644734
v -0.08468491 0.05514678 0.00381476
v -0.08498420 0.05588982 0.01304996
v -0.08494610 0.05588982 0.01190080
v -0.08512122 0.05249214 0.01644734
v -0.08505656 0.05419098 0.01474865
v -0.08503987 0.05588982 0.01474865
v -0.08500219 0.05673654 0.01389727
v -0.08514905 0.05419098 0.01764116
v -0.08511137 0.05419098 0.01644734
v -0.08505742 0.05673654 0.01559596
v -0.08515890 0.05249214 0.01764116
v -0.08515205 0.05368662 0.01764116
v -0.08503002 0.05673654 0.01474865
f 1 2 5
f 1 5 12
f 1 12 21
f 1 21 31
f 1 31 42
f 1 42 35
f 1 35 24
f 1 24 14
f 1 14 7
f 1 7 3
f 1 3 9
f 1 9 17
f 1 17 27
f 1 27 18
f 1 18 10
f 1 10 4
f 1 4 2
f 2 4 6
f 2 6 13
f 2 13 5
f 3 7 8
f 3 8 9
f 4 10 11
f 4 11 6
f 5 13 12
f 6 11 20
f 6 20 13
f 7 14 15
f 7 15 8
f 8 16 25
f 8 25 37
f 8 37 49
f 8 49 53
f 8 53 52
f 8 52 40
f 8 40 28
f 8 28 17
f 8 17 9
f 8 15 14
f 8 14 24
f 8 24 36
f 8 36 48
f 8 48 54
f 8 54 51
f 8 51 39
f 8 39 26
f 8 26 16
f 10 18 11
f 11 18 19
f 11 19 30
f 11 30 20
f 12 13 22
f 12 22 21
f 13 20 23
f 13 23 22
f 16 26 25
f 17 28 29
f 17 29 27
f 18 27 29
f 18 29 19
f 19 29 41
f 19 41 30
f 20 30 33
f 20 33 23
f 21 22 31
f 22 23 32
f 22 32 31
f 23 33 46
f 23 46 34
f 23 34 32
f 24 35 36
f 25 26 38
f 25 38 37
f 26 39 38
f 28 40 41
f 28 41 29
f 30 41 45
f 30 45 33
f 31 32 42
f 32 34 43
f 32 43 44
f 32 44 42
f 33 45 50
f 33 50 46
f 34 46 47
f 34 47 43
f 35 42 44
f 35 44 36
f 36 44 43
f 36 43 47
f 36 47 48
f 37 38 50
f 37 50 49
f 38 39 51
f 38 51 47
f 38 47 46
f 38 46 50
f 40 52 45
f 40 45 41
f 45 52 53
f 45 53 50
f 47 51 54
f 47 54 48
f 49 50 53
