# https://github.com/mikedh/trimesh
v -0.07711371 -0.05424465 0.02495538
v -0.07077418 -0.05424465 0.02495538
v -0.07711371 -0.05424465 0.02838340
v -0.07711371 -0.04071576 0.02495034
v -0.07049886 -0.05424465 0.02495572
v -0.07049886 -0.05424465 0.02838340
v -0.07711371 -0.04071576 0.02838340
v -0.07389515 -0.04071576 0.02495538
v -0.07049886 -0.05282090 0.02495673
v -0.06907603 -0.05424465 0.02498193
v -0.06879969 -0.05424465 0.02832526
v -0.07049886 -0.05282090 0.02838240
v -0.07389515 -0.04071576 0.02838340
v -0.07241274 -0.04071576 0.02501386
v -0.07219598 -0.04263086 0.02499739
v -0.07219598 -0.04432876 0.02497790
v -0.06879969 -0.05424465 0.02501319
v -0.07219598 -0.04071576 0.02502428
v -0.07049886 -0.05112301 0.02836693
v -0.06717757 -0.05424465 0.02785172
v -0.07219598 -0.04071576 0.02831249
v -0.07219598 -0.04263086 0.02834173
v -0.07219598 -0.04432876 0.02836122
v -0.07219598 -0.04602798 0.02837635
v -0.06742207 -0.05424465 0.02537750
v -0.07109470 -0.04071576 0.02538859
v -0.06661974 -0.05424465 0.02663982
v -0.07091595 -0.04071576 0.02786517
v -0.06719401 -0.05424465 0.02546119
v -0.07093752 -0.04071576 0.02544203
v -0.06662796 -0.05424465 0.02661360
v -0.07050605 -0.04071576 0.02663982
v -0.07055742 -0.04071576 0.02648858
f 1 2 5
f 1 5 10
f 1 10 17
f 1 17 25
f 1 25 29
f 1 29 31
f 1 31 27
f 1 27 20
f 1 20 11
f 1 11 6
f 1 6 3
f 1 3 7
f 1 7 4
f 1 4 2
f 2 4 5
f 3 6 13
f 3 13 7
f 4 7 13
f 4 13 21
f 4 21 28
f 4 28 32
f 4 32 33
f 4 33 30
f 4 30 26
f 4 26 18
f 4 18 14
f 4 14 8
f 4 8 5
f 5 9 10
f 5 8 9
f 6 11 12
f 6 12 13
f 8 14 15
f 8 15 16
f 8 16 10
f 8 10 9
f 10 16 15
f 10 15 14
f 10 14 18
f 10 18 17
f 11 19 12
f 11 20 21
f 11 21 22
f 11 22 19
f 12 19 23
f 12 23 24
f 12 24 13
f 13 24 23
f 13 23 22
f 13 22 21
f 17 18 25
f 18 26 25
f 19 22 23
f 20 27 28
f 20 28 21
f 25 26 30
f 25 30 29
f 27 31 32
f 27 32 28
f 29 30 31
f 30 33 31
f 31 33 32
