# https://github.com/mikedh/trimesh
v 0.07844095 0.03716008 0.00340857
v 0.07917890 0.03716008 0.00624870
v 0.07844095 0.03720677 0.00340857
v 0.08207378 0.03716008 0.00340857
v 0.08166243 0.03716008 0.00624870
v 0.07917890 0.03719976 0.00624870
v 0.07844466 0.03890623 0.00340857
v 0.08214058 0.03716241 0.00624870
v 0.08209666 0.03716008 0.00460301
v 0.08447751 0.04345136 0.00340857
v 0.08431112 0.04230282 0.00624870
v 0.07920240 0.03889689 0.00624870
v 0.07846507 0.04059635 0.00340857
v 0.08466123 0.04399995 0.00340857
v 0.08469834 0.04399995 0.00455769
v 0.08475216 0.04399995 0.00624870
v 0.07929148 0.04059635 0.00624870
v 0.07857023 0.04230282 0.00340857
v 0.08467484 0.04515082 0.00340857
v 0.08467916 0.04569941 0.00340857
v 0.08475896 0.04569941 0.00624870
v 0.08171625 0.06100623 0.00624870
v 0.08030407 0.06100389 0.00340857
v 0.08468102 0.04739887 0.00340857
v 0.08471319 0.04739887 0.00455769
v 0.08475958 0.04739887 0.00624870
v 0.08463834 0.06100623 0.00624870
v 0.08030654 0.06100623 0.00341108
v 0.08032448 0.06100623 0.00340857
v 0.08468102 0.05079312 0.00340857
v 0.08475958 0.05249258 0.00624870
v 0.08463772 0.06100623 0.00622645
v 0.08463896 0.06098522 0.00624870
v 0.08330595 0.06100623 0.00340857
v 0.08468040 0.05249258 0.00340857
v 0.08471257 0.05249258 0.00455769
v 0.08475092 0.05418971 0.00624870
v 0.08458143 0.06100623 0.00453517
v 0.08468721 0.05928576 0.00624870
v 0.08463401 0.05928576 0.00455769
v 0.08459751 0.05928576 0.00340857
v 0.08454680 0.06098522 0.00340857
v 0.08454618 0.06099923 0.00340857
v 0.08467174 0.05418971 0.00340857
v 0.08470391 0.05418971 0.00455769
v 0.08473607 0.05588917 0.00624870
v 0.08471937 0.05758863 0.00624870
v 0.08466989 0.05758863 0.00455769
v 0.08463463 0.05758863 0.00340857
v 0.08465442 0.05588917 0.00340857
v 0.08468844 0.05588917 0.00455769
f 1 2 6
f 1 6 3
f 1 3 7
f 1 7 13
f 1 13 18
f 1 18 23
f 1 23 29
f 1 29 34
f 1 34 43
f 1 43 42
f 1 42 41
f 1 41 49
f 1 49 50
f 1 50 44
f 1 44 35
f 1 35 30
f 1 30 24
f 1 24 20
f 1 20 19
f 1 19 14
f 1 14 10
f 1 10 4
f 1 4 9
f 1 9 5
f 1 5 2
f 2 5 8
f 2 8 11
f 2 11 16
f 2 16 21
f 2 21 26
f 2 26 31
f 2 31 37
f 2 37 46
f 2 46 47
f 2 47 39
f 2 39 33
f 2 33 27
f 2 27 22
f 2 22 17
f 2 17 12
f 2 12 6
f 3 6 7
f 4 8 9
f 4 10 11
f 4 11 8
f 5 9 8
f 6 12 13
f 6 13 7
f 10 14 11
f 11 14 15
f 11 15 16
f 12 17 13
f 13 17 18
f 14 19 15
f 15 19 16
f 16 19 20
f 16 20 21
f 17 22 23
f 17 23 18
f 20 24 21
f 21 24 25
f 21 25 26
f 22 27 32
f 22 32 38
f 22 38 34
f 22 34 29
f 22 29 28
f 22 28 23
f 23 28 29
f 24 30 25
f 25 30 31
f 25 31 26
f 27 33 32
f 30 35 36
f 30 36 31
f 31 36 45
f 31 45 37
f 32 33 39
f 32 39 40
f 32 40 41
f 32 41 42
f 32 42 43
f 32 43 38
f 34 38 43
f 35 44 45
f 35 45 36
f 37 45 46
f 39 47 48
f 39 48 49
f 39 49 40
f 40 49 41
f 44 50 51
f 44 51 46
f 44 46 45
f 46 51 47
f 47 51 48
f 48 51 50
f 48 50 49
