# https://github.com/mikedh/trimesh
v 0.07710416 0.07885696 0.01627814
v 0.07710416 0.07900227 0.02396457
v 0.07710416 0.08222228 0.01627814
v 0.08199658 0.06277628 0.01627814
v 0.08198325 0.06277628 0.02396457
v 0.07710416 0.08256908 0.02396457
v 0.07710416 0.08222809 0.01637671
v 0.07754151 0.08202660 0.01627814
v 0.08491855 0.06277628 0.01627814
v 0.08511136 0.06277628 0.02396457
v 0.07717627 0.08254390 0.02396457
v 0.07710416 0.08255746 0.02324227
v 0.07710416 0.08226490 0.01700947
v 0.07774608 0.08204404 0.01814708
v 0.07763714 0.08199367 0.01644818
v 0.07762616 0.08198785 0.01627814
v 0.08491698 0.06282859 0.01627814
v 0.08492090 0.06277628 0.01633156
v 0.08510822 0.06277628 0.02324227
v 0.08503925 0.06438435 0.02396457
v 0.07802511 0.08216997 0.02396457
v 0.07801101 0.08216416 0.02324227
v 0.07716216 0.08253615 0.02324227
v 0.07710416 0.08251289 0.02181123
v 0.07710416 0.08235015 0.01851801
v 0.07784954 0.08209054 0.01984598
v 0.07898134 0.08119351 0.01644818
v 0.07899623 0.08117219 0.01627814
v 0.08488563 0.06345051 0.01627814
v 0.08492718 0.06356675 0.01723594
v 0.08493579 0.06277628 0.01673560
v 0.08510666 0.06277628 0.02315048
v 0.08503612 0.06438435 0.02324227
v 0.08495460 0.06571343 0.02324227
v 0.08495617 0.06573862 0.02396457
v 0.07858317 0.08182317 0.02396457
v 0.07898134 0.08155968 0.02324227
v 0.07898134 0.08149381 0.02154337
v 0.07794281 0.08213316 0.02154337
v 0.07710416 0.08250321 0.02154337
v 0.07710416 0.08241990 0.01984598
v 0.07898134 0.08140274 0.01984598
v 0.07898134 0.08130006 0.01814708
v 0.07710416 0.08242958 0.02003408
v 0.07912164 0.08108694 0.01627814
v 0.08484174 0.06425842 0.01627814
v 0.08494206 0.06380699 0.01814708
v 0.08502906 0.06277628 0.01970679
v 0.08497890 0.06277628 0.01805228
v 0.08482528 0.06453935 0.01627814
v 0.08472809 0.06608348 0.01627814
v 0.08462071 0.06778067 0.01627814
v 0.08507845 0.06277628 0.02154337
v 0.08500633 0.06438435 0.02154337
v 0.08493971 0.06546544 0.02154337
v 0.08489582 0.06656202 0.02324227
v 0.08489895 0.06658915 0.02396457
v 0.08493265 0.06610091 0.02396457
v 0.07898134 0.08157324 0.02396457
v 0.08012254 0.08076533 0.02324227
v 0.08008178 0.08073046 0.02154337
v 0.08002299 0.08068008 0.01984598
v 0.07995794 0.08062584 0.01814708
v 0.07988975 0.08056772 0.01644818
v 0.07988270 0.08056190 0.01627814
v 0.08492796 0.06526976 0.02061718
v 0.08496166 0.06441341 0.01996937
v 0.08503299 0.06277628 0.01985200
v 0.08444906 0.06947980 0.01627814
v 0.08445533 0.06947980 0.01644818
v 0.08451647 0.06947980 0.01814708
v 0.08457290 0.06947980 0.01984598
v 0.08462620 0.06778067 0.01644818
v 0.08473201 0.06778067 0.01984598
v 0.08477825 0.06778067 0.02154337
v 0.08480960 0.06778067 0.02324227
v 0.08481587 0.06778067 0.02396457
v 0.07963737 0.08111601 0.02396457
v 0.08013037 0.08077114 0.02396457
v 0.08049091 0.08041272 0.02396457
v 0.08097217 0.07991674 0.02324227
v 0.08093063 0.07987412 0.02154337
v 0.08087262 0.07981405 0.01984598
v 0.08080757 0.07974624 0.01814708
v 0.08085068 0.07954475 0.01627814
v 0.08468028 0.06778067 0.01814708
v 0.08442711 0.06965029 0.01627814
v 0.08429622 0.07117892 0.01814708
v 0.08435501 0.07117892 0.01984598
v 0.08462071 0.06947980 0.02154337
v 0.08440673 0.07117892 0.02154337
v 0.08465128 0.06947980 0.02324227
v 0.08472495 0.06875713 0.02396457
v 0.08097922 0.07992449 0.02396457
v 0.08171833 0.07906814 0.02324227
v 0.08168620 0.07902552 0.02154337
v 0.08163917 0.07896352 0.01984598
v 0.08158666 0.07889571 0.01814708
v 0.08154903 0.07884728 0.01697486
v 0.08104427 0.07933551 0.01627814
v 0.08422803 0.07117892 0.01627814
v 0.08423430 0.07117892 0.01644818
v 0.08405873 0.07287611 0.01984598
v 0.08411438 0.07287611 0.02154337
v 0.08444044 0.07117892 0.02324227
v 0.08415122 0.07287611 0.02324227
v 0.08465676 0.06947980 0.02396457
v 0.08140795 0.07943625 0.02396457
v 0.08172382 0.07907396 0.02396457
v 0.08200990 0.07860122 0.02396457
v 0.08239083 0.07797156 0.02396457
v 0.08238142 0.07797156 0.02324227
v 0.08232342 0.07797156 0.02154337
v 0.08224034 0.07797156 0.01984598
v 0.08214707 0.07797156 0.01814708
v 0.08195896 0.07810717 0.01627814
v 0.08184374 0.07829511 0.01627814
v 0.08419746 0.07134941 0.01627814
v 0.08399603 0.07287611 0.01814708
v 0.08366213 0.07457330 0.01984598
v 0.08372170 0.07457330 0.02154337
v 0.08376246 0.07457330 0.02324227
v 0.08444435 0.07117892 0.02396457
v 0.08453527 0.07045626 0.02396457
v 0.08415592 0.07287611 0.02396457
v 0.08376795 0.07457330 0.02396457
v 0.08304451 0.07669091 0.02396457
v 0.08304059 0.07668123 0.02324227
v 0.08301550 0.07662698 0.02154337
v 0.08297867 0.07654948 0.01984598
v 0.08293791 0.07646423 0.01814708
v 0.08289480 0.07637511 0.01644818
v 0.08280545 0.07652623 0.01627814
v 0.08392314 0.07287611 0.01627814
v 0.08359551 0.07457330 0.01814708
v 0.08326553 0.07551683 0.01627814
v 0.08330629 0.07561564 0.01814708
v 0.08334000 0.07570089 0.01984598
v 0.08336978 0.07577839 0.02154337
v 0.08339016 0.07583263 0.02324227
v 0.08355397 0.07529790 0.02396457
v 0.08324515 0.07620268 0.02396457
v 0.08289715 0.07634993 0.01627814
v 0.08351243 0.07458880 0.01627814
v 0.08352340 0.07457330 0.01644818
v 0.08348343 0.07470117 0.01627814
v 0.08339251 0.07584038 0.02396457
f 1 2 6
f 1 6 12
f 1 12 24
f 1 24 40
f 1 40 44
f 1 44 41
f 1 41 25
f 1 25 13
f 1 13 7
f 1 7 3
f 1 3 8
f 1 8 16
f 1 16 28
f 1 28 45
f 1 45 65
f 1 65 85
f 1 85 100
f 1 100 117
f 1 117 116
f 1 116 133
f 1 133 143
f 1 143 136
f 1 136 146
f 1 146 144
f 1 144 134
f 1 134 118
f 1 118 101
f 1 101 87
f 1 87 69
f 1 69 52
f 1 52 51
f 1 51 50
f 1 50 46
f 1 46 29
f 1 29 17
f 1 17 9
f 1 9 4
f 1 4 5
f 1 5 2
f 2 5 10
f 2 10 20
f 2 20 35
f 2 35 58
f 2 58 57
f 2 57 77
f 2 77 93
f 2 93 107
f 2 107 124
f 2 124 123
f 2 123 125
f 2 125 126
f 2 126 141
f 2 141 147
f 2 147 142
f 2 142 127
f 2 127 111
f 2 111 110
f 2 110 109
f 2 109 108
f 2 108 94
f 2 94 80
f 2 80 79
f 2 79 78
f 2 78 59
f 2 59 36
f 2 36 21
f 2 21 11
f 2 11 6
f 3 7 8
f 4 9 18
f 4 18 31
f 4 31 49
f 4 49 48
f 4 48 68
f 4 68 53
f 4 53 32
f 4 32 19
f 4 19 10
f 4 10 5
f 6 11 12
f 7 13 14
f 7 14 8
f 8 14 15
f 8 15 16
f 9 17 18
f 10 19 33
f 10 33 20
f 11 21 22
f 11 22 23
f 11 23 12
f 12 23 24
f 13 25 14
f 14 25 26
f 14 26 27
f 14 27 15
f 15 27 16
f 16 27 28
f 17 29 30
f 17 30 18
f 18 30 31
f 19 32 33
f 20 33 34
f 20 34 35
f 21 36 22
f 22 36 37
f 22 37 38
f 22 38 39
f 22 39 24
f 22 24 23
f 24 39 40
f 25 41 26
f 26 42 43
f 26 43 27
f 26 41 44
f 26 44 39
f 26 39 42
f 27 43 45
f 27 45 28
f 29 46 30
f 30 47 48
f 30 48 49
f 30 49 31
f 30 46 50
f 30 50 51
f 30 51 52
f 30 52 47
f 32 53 54
f 32 54 33
f 33 54 34
f 34 54 55
f 34 55 56
f 34 56 57
f 34 57 58
f 34 58 35
f 36 59 37
f 37 59 60
f 37 60 61
f 37 61 38
f 38 61 42
f 38 42 39
f 39 44 40
f 42 61 62
f 42 62 63
f 42 63 43
f 43 63 64
f 43 64 45
f 45 64 65
f 47 66 67
f 47 67 54
f 47 54 53
f 47 53 68
f 47 68 48
f 47 52 66
f 52 69 70
f 52 70 71
f 52 71 72
f 52 72 73
f 52 73 66
f 54 67 66
f 54 66 55
f 55 66 74
f 55 74 75
f 55 75 56
f 56 75 76
f 56 76 77
f 56 77 57
f 59 78 60
f 60 78 79
f 60 79 80
f 60 80 81
f 60 81 61
f 61 81 82
f 61 82 62
f 62 82 83
f 62 83 63
f 63 83 64
f 64 83 65
f 65 83 84
f 65 84 85
f 66 73 86
f 66 86 74
f 69 87 70
f 70 87 71
f 71 87 88
f 71 88 89
f 71 89 72
f 72 90 74
f 72 74 86
f 72 86 73
f 72 89 91
f 72 91 90
f 74 90 75
f 75 90 76
f 76 90 92
f 76 92 93
f 76 93 77
f 80 94 81
f 81 94 95
f 81 95 96
f 81 96 82
f 82 96 97
f 82 97 83
f 83 97 98
f 83 98 99
f 83 99 84
f 84 99 100
f 84 100 85
f 87 101 102
f 87 102 88
f 88 102 103
f 88 103 89
f 89 103 104
f 89 104 91
f 90 91 105
f 90 105 92
f 91 104 106
f 91 106 105
f 92 107 93
f 92 105 107
f 94 108 95
f 95 109 110
f 95 110 111
f 95 111 112
f 95 112 96
f 95 108 109
f 96 112 113
f 96 113 114
f 96 114 97
f 97 114 115
f 97 115 98
f 98 115 116
f 98 116 99
f 99 116 117
f 99 117 100
f 101 118 119
f 101 119 103
f 101 103 102
f 103 119 120
f 103 120 121
f 103 121 104
f 104 121 122
f 104 122 106
f 105 123 124
f 105 124 107
f 105 106 125
f 105 125 123
f 106 122 126
f 106 126 125
f 111 127 128
f 111 128 112
f 112 128 129
f 112 129 113
f 113 129 130
f 113 130 114
f 114 130 131
f 114 131 132
f 114 132 115
f 115 132 133
f 115 133 116
f 118 134 119
f 119 134 120
f 120 135 136
f 120 136 137
f 120 137 121
f 120 134 135
f 121 137 138
f 121 138 139
f 121 139 122
f 122 139 140
f 122 140 141
f 122 141 126
f 127 142 140
f 127 140 128
f 128 140 139
f 128 139 129
f 129 139 138
f 129 138 130
f 130 138 137
f 130 137 136
f 130 136 131
f 131 136 132
f 132 136 143
f 132 143 133
f 134 144 145
f 134 145 135
f 135 145 144
f 135 144 146
f 135 146 136
f 140 142 147
f 140 147 141
