# https://github.com/mikedh/trimesh
v -0.07246206 0.08287767 0.03149006
v -0.07389606 0.08275962 0.03146548
v -0.07559424 0.08136932 0.03158972
v -0.07246206 0.08155731 0.03147777
v -0.07246206 0.08360382 0.03021903
v -0.07246206 0.08370996 0.02999923
v -0.07389606 0.08344808 0.03003609
v -0.07559424 0.08254138 0.03130712
v -0.07729613 0.08143182 0.03140951
v -0.07899061 0.07967100 0.03153374
v -0.07985824 0.07880349 0.03154194
v -0.07837326 0.07880349 0.03126616
v -0.07246206 0.07880349 0.02850293
v -0.07246206 0.08386670 0.02847699
v -0.07559424 0.08301506 0.03003609
v -0.07673439 0.08235339 0.03108868
v -0.07258720 0.08385381 0.02833774
v -0.07389606 0.08358795 0.02833774
v -0.07899061 0.08085496 0.03121019
v -0.08056087 0.07951080 0.03116923
v -0.08062019 0.07880349 0.03134398
v -0.07246206 0.07880349 0.02475537
v -0.07246206 0.08387067 0.02833774
v -0.07706903 0.08249873 0.03003609
v -0.07559424 0.08315494 0.02833774
v -0.07990829 0.08057919 0.03097127
v -0.07791719 0.08207663 0.03003609
v -0.07246206 0.08385282 0.02673223
v -0.07250470 0.08384587 0.02663939
v -0.07389606 0.08354976 0.02494104
v -0.07389606 0.08356960 0.02663939
v -0.08155086 0.07883722 0.03090437
v -0.08113095 0.07880349 0.03117332
v -0.07731560 0.07880349 0.01764252
v -0.07246206 0.08060597 0.01764252
v -0.07724700 0.08257114 0.02833774
v -0.07809609 0.08219815 0.02833774
v -0.07559424 0.08311625 0.02494104
v -0.07720436 0.08255229 0.02494104
v -0.07899061 0.08141347 0.03003609
v -0.08005753 0.08070616 0.03003609
v -0.08090755 0.07982476 0.03003609
v -0.07246206 0.08383992 0.02566871
v -0.07246206 0.08382901 0.02494104
v -0.07389606 0.08352198 0.02324269
v -0.08157774 0.07880349 0.03087024
v -0.08156013 0.07880349 0.03091529
v -0.08165653 0.07897511 0.03003609
v -0.08175757 0.07880349 0.03003609
v -0.08162594 0.07880349 0.01764252
v -0.07246206 0.08355967 0.01764252
v -0.07805438 0.08217929 0.02494104
v -0.07899061 0.08159153 0.02494104
v -0.07899061 0.08162774 0.02833774
v -0.07559424 0.08308748 0.02324269
v -0.07717284 0.08253741 0.02324269
v -0.08016784 0.08079941 0.02833774
v -0.08101693 0.07995075 0.02833774
v -0.07246206 0.08379528 0.02324269
v -0.07389606 0.08346940 0.02154435
v -0.08175294 0.07910109 0.02833774
v -0.08193184 0.07880349 0.02833774
v -0.08178908 0.07880349 0.02974529
v -0.08158145 0.07887690 0.01764252
v -0.08165190 0.07880349 0.01809304
v -0.07339179 0.08338657 0.01764252
v -0.07389606 0.08339649 0.01984600
v -0.07246206 0.08359489 0.01841251
v -0.07802101 0.08216442 0.02324269
v -0.07899061 0.08156078 0.02324269
v -0.08015023 0.08078205 0.02494104
v -0.08013261 0.08076618 0.02324269
v -0.07559424 0.08303093 0.02154435
v -0.07710425 0.08250815 0.02154435
v -0.08099932 0.07993537 0.02494104
v -0.08174181 0.07908622 0.02494104
v -0.07246206 0.08373179 0.02162080
v -0.07246206 0.08367078 0.02011085
v -0.08191237 0.07880349 0.02494104
v -0.08084081 0.07967993 0.01764252
v -0.08159720 0.07889773 0.01814765
v -0.08088253 0.07981485 0.01984600
v -0.08081764 0.07974689 0.01814765
v -0.08173254 0.07880349 0.01956886
v -0.08165004 0.07896569 0.01984600
v -0.07389606 0.08329035 0.01764252
v -0.07389606 0.08331564 0.01814765
v -0.07246206 0.08365937 0.01984600
v -0.07559424 0.08295356 0.01984600
v -0.07795242 0.08213366 0.02154435
v -0.07899061 0.08149481 0.02154435
v -0.08009090 0.08073096 0.02154435
v -0.08098171 0.07991802 0.02324269
v -0.07701063 0.08246748 0.01984600
v -0.08172883 0.07906836 0.02324269
v -0.08188920 0.07880349 0.02324269
v -0.08190681 0.07880349 0.02451099
v -0.07994722 0.08060994 0.01764252
v -0.08093999 0.07987536 0.02154435
v -0.08003343 0.08068186 0.01984600
v -0.07996762 0.08062730 0.01814765
v -0.08174737 0.07880349 0.01984600
v -0.08183080 0.07880349 0.02154435
v -0.08169639 0.07902620 0.02154435
v -0.07508998 0.08297539 0.01764252
v -0.07559424 0.08286775 0.01814765
v -0.07687529 0.08240845 0.01764252
v -0.07690681 0.08242234 0.01814765
v -0.07785879 0.08209101 0.01984600
v -0.07899061 0.08140305 0.01984600
v -0.08187529 0.07880349 0.02283313
v -0.07899061 0.08127012 0.01764252
v -0.07899061 0.08130186 0.01814765
v -0.07559424 0.08284097 0.01764252
v -0.07772345 0.08202901 0.01764252
v -0.07775590 0.08204389 0.01814765
f 1 2 3
f 1 3 4
f 1 4 13
f 1 13 22
f 1 22 35
f 1 35 51
f 1 51 68
f 1 68 88
f 1 88 78
f 1 78 77
f 1 77 59
f 1 59 44
f 1 44 43
f 1 43 28
f 1 28 23
f 1 23 14
f 1 14 6
f 1 6 5
f 1 5 2
f 2 5 6
f 2 6 7
f 2 7 8
f 2 8 9
f 2 9 3
f 3 10 11
f 3 11 4
f 3 9 10
f 4 11 12
f 4 12 13
f 6 14 7
f 7 15 16
f 7 16 8
f 7 14 17
f 7 17 18
f 7 18 25
f 7 25 15
f 8 16 9
f 9 16 19
f 9 19 10
f 10 19 20
f 10 20 11
f 11 20 21
f 11 21 33
f 11 33 47
f 11 47 46
f 11 46 49
f 11 49 63
f 11 63 62
f 11 62 79
f 11 79 97
f 11 97 96
f 11 96 111
f 11 111 103
f 11 103 102
f 11 102 84
f 11 84 65
f 11 65 50
f 11 50 34
f 11 34 22
f 11 22 13
f 11 13 12
f 14 23 17
f 15 24 16
f 15 25 24
f 16 26 19
f 16 24 27
f 16 27 26
f 17 23 28
f 17 28 29
f 17 29 30
f 17 30 31
f 17 31 18
f 18 31 25
f 19 26 20
f 20 26 32
f 20 32 33
f 20 33 21
f 22 34 35
f 24 25 36
f 24 36 37
f 24 37 27
f 25 31 38
f 25 38 39
f 25 39 36
f 26 27 40
f 26 40 41
f 26 41 42
f 26 42 32
f 27 37 40
f 28 43 29
f 29 43 30
f 30 38 31
f 30 43 44
f 30 44 45
f 30 45 38
f 32 46 47
f 32 47 33
f 32 42 48
f 32 48 49
f 32 49 46
f 34 50 64
f 34 64 80
f 34 80 98
f 34 98 112
f 34 112 115
f 34 115 107
f 34 107 114
f 34 114 105
f 34 105 86
f 34 86 66
f 34 66 51
f 34 51 35
f 36 39 52
f 36 52 37
f 37 52 53
f 37 53 54
f 37 54 40
f 38 45 55
f 38 55 56
f 38 56 39
f 39 56 52
f 40 54 41
f 41 54 57
f 41 57 58
f 41 58 42
f 42 58 48
f 44 59 45
f 45 59 60
f 45 60 55
f 48 58 61
f 48 61 62
f 48 62 63
f 48 63 49
f 50 65 64
f 51 66 67
f 51 67 68
f 52 56 69
f 52 69 70
f 52 70 53
f 53 71 54
f 53 70 72
f 53 72 71
f 54 71 57
f 55 60 73
f 55 73 74
f 55 74 56
f 56 74 69
f 57 71 75
f 57 75 58
f 58 75 76
f 58 76 61
f 59 77 60
f 60 77 78
f 60 78 67
f 60 67 73
f 61 76 79
f 61 79 62
f 64 65 81
f 64 81 82
f 64 82 83
f 64 83 80
f 65 84 85
f 65 85 81
f 66 86 87
f 66 87 67
f 67 78 88
f 67 88 68
f 67 87 89
f 67 89 73
f 69 74 90
f 69 90 91
f 69 91 70
f 70 91 92
f 70 92 72
f 71 72 75
f 72 92 93
f 72 93 75
f 73 89 94
f 73 94 74
f 74 94 90
f 75 93 95
f 75 95 76
f 76 95 96
f 76 96 97
f 76 97 79
f 80 83 98
f 81 85 82
f 82 85 99
f 82 99 100
f 82 100 101
f 82 101 98
f 82 98 83
f 84 102 85
f 85 102 103
f 85 103 104
f 85 104 99
f 86 105 89
f 86 89 87
f 89 105 106
f 89 106 107
f 89 107 108
f 89 108 94
f 90 94 109
f 90 109 110
f 90 110 91
f 91 110 100
f 91 100 92
f 92 99 93
f 92 100 99
f 93 99 104
f 93 104 95
f 94 108 109
f 95 104 111
f 95 111 96
f 98 101 113
f 98 113 112
f 100 110 101
f 101 110 113
f 103 111 104
f 105 114 106
f 106 114 107
f 107 115 116
f 107 116 108
f 108 116 109
f 109 116 112
f 109 112 113
f 109 113 110
f 112 116 115
