# https://github.com/mikedh/trimesh
v -0.07246206 0.08060554 0.01764252
v -0.07246206 0.08075936 0.02257078
v -0.07246206 0.08355974 0.01764252
v -0.03992271 0.07987190 0.01764252
v -0.03992271 0.07997876 0.02257078
v -0.07246206 0.08376723 0.02257078
v -0.07246206 0.08356357 0.01772163
v -0.07219249 0.08360909 0.01764252
v -0.03872385 0.07986040 0.01764252
v -0.03822019 0.07994713 0.02257078
v -0.03889410 0.07995720 0.02257078
v -0.07220668 0.08381562 0.02257078
v -0.07246206 0.08373177 0.02161996
v -0.07246206 0.08359520 0.01841195
v -0.07219249 0.08370829 0.01984567
v -0.07014947 0.08398046 0.01984567
v -0.06985153 0.08394357 0.01814663
v -0.06976641 0.08393207 0.01764252
v -0.03822019 0.07985657 0.01764252
v -0.03652477 0.07994235 0.02257078
v -0.07140508 0.08392535 0.02257078
v -0.07137670 0.08392153 0.02227314
v -0.07204352 0.08380748 0.02164167
v -0.07246206 0.08367091 0.02011051
v -0.07246206 0.08365941 0.01984567
v -0.07058220 0.08399771 0.02164167
v -0.06879455 0.08418843 0.02154374
v -0.06879455 0.08412182 0.01984567
v -0.06879455 0.08404899 0.01814663
v -0.06880874 0.08402551 0.01764252
v -0.03702843 0.07985417 0.01764252
v -0.03652477 0.07985321 0.01764252
v -0.03550326 0.07994235 0.02257078
v -0.07053253 0.08403126 0.02257078
v -0.06982316 0.08410793 0.02257078
v -0.06879455 0.08421815 0.02257078
v -0.06812774 0.08426846 0.02257078
v -0.06709913 0.08431541 0.02154374
v -0.06709913 0.08425073 0.01984567
v -0.06709913 0.08417933 0.01814663
v -0.06829089 0.08406576 0.01764252
v -0.02684170 0.07985321 0.01764252
v 0.00000840 0.07994282 0.02257078
v -0.06709913 0.08434513 0.02257078
v -0.06539661 0.08441653 0.02154374
v -0.06539661 0.08435183 0.01984567
v -0.06539661 0.08428092 0.01814663
v -0.06659547 0.08418748 0.01764252
v -0.06709913 0.08415729 0.01764252
v 0.00000840 0.07985369 0.01764252
v 0.00000840 0.08336040 0.02257078
v -0.06539661 0.08444576 0.02257078
v -0.06472980 0.08448026 0.02257078
v -0.06370119 0.08450326 0.02154374
v -0.06370119 0.08443904 0.01984567
v -0.06370119 0.08436861 0.01814663
v -0.06370119 0.08434704 0.01764252
v -0.06489295 0.08428523 0.01764252
v -0.06539661 0.08425888 0.01764252
v 0.00000840 0.08277914 0.01764252
v -0.04331355 0.08454974 0.01764252
v -0.04331355 0.08457274 0.01814663
v -0.04331355 0.08464558 0.01984567
v -0.04331355 0.08471075 0.02154374
v -0.04331355 0.08474045 0.02257078
v -0.06370119 0.08453249 0.02257078
v -0.06302728 0.08455645 0.02257078
v -0.06199867 0.08456316 0.02154374
v -0.06199867 0.08449943 0.01984567
v -0.06199867 0.08442947 0.01814663
v -0.06319753 0.08436526 0.01764252
v -0.04501607 0.08456220 0.01764252
v -0.04501607 0.08458377 0.01814663
v -0.04501607 0.08465373 0.01984567
v -0.04501607 0.08471794 0.02154374
v -0.04434216 0.08474429 0.02257078
v -0.06199867 0.08459239 0.02257078
v -0.06030325 0.08460964 0.02154374
v -0.06030325 0.08454591 0.01984567
v -0.06030325 0.08447642 0.01814663
v -0.06199867 0.08440790 0.01764252
v -0.04671149 0.08456364 0.01764252
v -0.04671149 0.08458520 0.01814663
v -0.04671149 0.08465516 0.01984567
v -0.04671149 0.08471890 0.02154374
v -0.04671149 0.08474813 0.02257078
v -0.04604468 0.08474764 0.02257078
v -0.04501607 0.08474669 0.02257078
v -0.06030325 0.08463887 0.02257078
v -0.05860073 0.08465276 0.02154374
v -0.05860073 0.08458903 0.01984567
v -0.05860073 0.08451907 0.01814663
v -0.05979959 0.08446780 0.01764252
v -0.06030325 0.08445486 0.01764252
v -0.05181195 0.08456364 0.01764252
v -0.05181195 0.08458520 0.01814663
v -0.05181195 0.08465516 0.01984567
v -0.05181195 0.08471890 0.02154374
v -0.05181195 0.08474764 0.02257078
v -0.05860073 0.08468152 0.02257078
v -0.05793392 0.08469254 0.02257078
v -0.05690531 0.08470931 0.02257078
v -0.05690531 0.08468008 0.02154374
v -0.05690531 0.08461683 0.01984567
v -0.05690531 0.08454686 0.01814663
v -0.05809707 0.08450613 0.01764252
v -0.05860073 0.08449751 0.01764252
v -0.05300371 0.08455885 0.01764252
v -0.05350737 0.08457801 0.01814663
v -0.05350737 0.08464798 0.01984567
v -0.05350737 0.08471171 0.02154374
v -0.05283346 0.08474333 0.02257078
v -0.05520989 0.08472512 0.02257078
v -0.05520989 0.08469637 0.02154374
v -0.05520989 0.08463264 0.01984567
v -0.05520989 0.08456316 0.01814663
v -0.05690531 0.08452531 0.01764252
v -0.05350737 0.08455645 0.01764252
v -0.05453598 0.08473135 0.02257078
v -0.05350737 0.08474045 0.02257078
v -0.05520989 0.08454160 0.01764252
f 1 2 6
f 1 6 13
f 1 13 24
f 1 24 25
f 1 25 14
f 1 14 7
f 1 7 3
f 1 3 8
f 1 8 18
f 1 18 30
f 1 30 41
f 1 41 49
f 1 49 48
f 1 48 59
f 1 59 58
f 1 58 57
f 1 57 71
f 1 71 81
f 1 81 94
f 1 94 93
f 1 93 107
f 1 107 106
f 1 106 117
f 1 117 121
f 1 121 118
f 1 118 108
f 1 108 95
f 1 95 82
f 1 82 72
f 1 72 61
f 1 61 60
f 1 60 50
f 1 50 42
f 1 42 32
f 1 32 31
f 1 31 19
f 1 19 9
f 1 9 4
f 1 4 5
f 1 5 2
f 2 5 11
f 2 11 10
f 2 10 20
f 2 20 33
f 2 33 43
f 2 43 51
f 2 51 65
f 2 65 76
f 2 76 88
f 2 88 87
f 2 87 86
f 2 86 99
f 2 99 112
f 2 112 120
f 2 120 119
f 2 119 113
f 2 113 102
f 2 102 101
f 2 101 100
f 2 100 89
f 2 89 77
f 2 77 67
f 2 67 66
f 2 66 53
f 2 53 52
f 2 52 44
f 2 44 37
f 2 37 36
f 2 36 35
f 2 35 34
f 2 34 21
f 2 21 12
f 2 12 6
f 3 7 8
f 4 9 10
f 4 10 11
f 4 11 5
f 6 12 13
f 7 14 8
f 8 14 15
f 8 15 16
f 8 16 17
f 8 17 18
f 9 19 10
f 10 19 20
f 12 21 22
f 12 22 23
f 12 23 13
f 13 23 24
f 14 25 15
f 15 25 24
f 15 24 23
f 15 23 16
f 16 26 27
f 16 27 28
f 16 28 17
f 16 23 22
f 16 22 26
f 17 28 18
f 18 28 29
f 18 29 30
f 19 31 20
f 20 31 32
f 20 32 42
f 20 42 33
f 21 34 22
f 22 34 26
f 26 34 27
f 27 34 35
f 27 35 36
f 27 36 37
f 27 37 38
f 27 38 39
f 27 39 28
f 28 39 40
f 28 40 29
f 29 40 41
f 29 41 30
f 33 42 43
f 37 44 38
f 38 44 45
f 38 45 46
f 38 46 39
f 39 46 47
f 39 47 40
f 40 47 48
f 40 48 49
f 40 49 41
f 42 50 43
f 43 50 60
f 43 60 51
f 44 52 45
f 45 52 53
f 45 53 54
f 45 54 55
f 45 55 46
f 46 55 56
f 46 56 47
f 47 56 57
f 47 57 58
f 47 58 59
f 47 59 48
f 51 60 61
f 51 61 62
f 51 62 63
f 51 63 64
f 51 64 65
f 53 66 54
f 54 66 67
f 54 67 68
f 54 68 69
f 54 69 55
f 55 69 70
f 55 70 56
f 56 70 71
f 56 71 57
f 61 72 62
f 62 72 63
f 63 72 73
f 63 73 74
f 63 74 64
f 64 74 75
f 64 75 65
f 65 75 76
f 67 77 68
f 68 77 89
f 68 89 78
f 68 78 79
f 68 79 69
f 69 79 80
f 69 80 70
f 70 80 94
f 70 94 81
f 70 81 71
f 72 82 83
f 72 83 73
f 73 83 84
f 73 84 74
f 74 84 75
f 75 84 85
f 75 85 86
f 75 86 87
f 75 87 88
f 75 88 76
f 78 89 90
f 78 90 91
f 78 91 79
f 79 91 80
f 80 91 92
f 80 92 93
f 80 93 94
f 82 95 96
f 82 96 83
f 83 96 97
f 83 97 84
f 84 97 98
f 84 98 85
f 85 98 86
f 86 98 99
f 89 100 90
f 90 100 101
f 90 101 102
f 90 102 103
f 90 103 104
f 90 104 91
f 91 104 105
f 91 105 92
f 92 105 106
f 92 106 107
f 92 107 93
f 95 108 96
f 96 108 109
f 96 109 110
f 96 110 97
f 97 110 111
f 97 111 98
f 98 111 112
f 98 112 99
f 102 113 114
f 102 114 103
f 103 114 104
f 104 114 115
f 104 115 116
f 104 116 105
f 105 116 121
f 105 121 117
f 105 117 106
f 108 118 109
f 109 118 121
f 109 121 116
f 109 116 110
f 110 116 115
f 110 115 114
f 110 114 111
f 111 114 119
f 111 119 120
f 111 120 112
f 113 119 114
