# https://github.com/mikedh/trimesh
v 0.00933725 0.07967120 0.00077959
v 0.00001210 0.07895533 0.00078869
v 0.00001210 0.07967120 0.00078111
v 0.00001210 0.08046480 0.00108301
v 0.00001210 0.08128394 0.00139553
v 0.02632234 0.08128394 0.00139553
v 0.02292532 0.07967120 0.00078111
v 0.02024249 0.07895533 0.00078869
v 0.00001210 0.07895533 0.00355131
v 0.00001210 0.08209864 0.00285951
v 0.03781226 0.08209864 0.00285951
v 0.03141787 0.08128394 0.00139704
v 0.02802085 0.07967120 0.00078262
v 0.02802085 0.07895533 0.00079021
v 0.00001210 0.07979335 0.01627814
v 0.03649489 0.07895533 0.00355282
v 0.03294616 0.07979298 0.01627814
v 0.00001210 0.08218378 0.00433867
v 0.03781226 0.08218378 0.00433261
v 0.03781226 0.08211900 0.00320996
v 0.03781226 0.08128431 0.00140159
v 0.03311638 0.07967120 0.00078566
v 0.03141787 0.07895533 0.00079173
v 0.00001210 0.08272049 0.01627814
v 0.03651340 0.07895533 0.00355282
v 0.03651340 0.07979298 0.01627814
v 0.00001210 0.08220562 0.00475587
v 0.03781226 0.08222857 0.00518217
v 0.03781226 0.08219451 0.00453286
v 0.03781226 0.08005246 0.00093585
v 0.03481489 0.07967120 0.00078717
v 0.03383057 0.07895533 0.00079324
v 0.00001210 0.08265387 0.01474892
v 0.03781226 0.08273641 0.01627814
v 0.03781226 0.07895533 0.00245445
v 0.03781226 0.07896273 0.00355434
v 0.03781226 0.07979520 0.01627814
v 0.00001210 0.08222820 0.00518824
v 0.03781226 0.08266682 0.01474892
v 0.03781226 0.07967120 0.00079173
v 0.03722759 0.07895533 0.00079628
v 0.00001210 0.08261575 0.01388570
v 0.00001210 0.08231333 0.00709219
v 0.00001210 0.08238921 0.00878980
v 0.00001210 0.08250359 0.01135065
v 0.00001210 0.08254060 0.01218656
v 0.03781226 0.07895533 0.00079779
v 0.03781226 0.07912449 0.00079628
f 1 2 3
f 1 3 4
f 1 4 5
f 1 5 6
f 1 6 7
f 1 7 8
f 1 8 2
f 2 9 15
f 2 15 24
f 2 24 33
f 2 33 42
f 2 42 46
f 2 46 45
f 2 45 44
f 2 44 43
f 2 43 38
f 2 38 27
f 2 27 18
f 2 18 10
f 2 10 5
f 2 5 4
f 2 4 3
f 2 8 14
f 2 14 23
f 2 23 32
f 2 32 41
f 2 41 47
f 2 47 35
f 2 35 25
f 2 25 16
f 2 16 9
f 5 10 11
f 5 11 6
f 6 11 12
f 6 12 13
f 6 13 7
f 7 13 14
f 7 14 8
f 9 16 17
f 9 17 15
f 10 18 19
f 10 19 20
f 10 20 11
f 11 20 19
f 11 19 29
f 11 29 28
f 11 28 39
f 11 39 34
f 11 34 37
f 11 37 36
f 11 36 35
f 11 35 47
f 11 47 48
f 11 48 40
f 11 40 30
f 11 30 21
f 11 21 12
f 12 21 22
f 12 22 13
f 13 22 23
f 13 23 14
f 15 17 26
f 15 26 37
f 15 37 34
f 15 34 24
f 16 25 26
f 16 26 17
f 18 27 28
f 18 28 29
f 18 29 19
f 21 30 31
f 21 31 22
f 22 31 41
f 22 41 32
f 22 32 23
f 24 34 33
f 25 35 36
f 25 36 37
f 25 37 26
f 27 38 28
f 28 38 39
f 30 40 31
f 31 40 41
f 33 34 42
f 34 39 38
f 34 38 43
f 34 43 44
f 34 44 45
f 34 45 46
f 34 46 42
f 40 48 41
f 41 48 47
