# https://github.com/mikedh/trimesh
v 0.06709168 -0.08169843 -0.00088049
v 0.06879008 -0.08169843 -0.00086961
v 0.06199648 -0.08326741 -0.00030752
v 0.05859737 -0.08331440 -0.00030933
v 0.05797115 -0.08331993 -0.00030933
v 0.06539328 -0.08169843 -0.00087142
v 0.07558137 -0.08000009 -0.00086961
v 0.06709168 -0.08315518 -0.00029664
v 0.06539328 -0.08319941 -0.00030389
v 0.06369488 -0.08323811 -0.00030571
v 0.07048617 -0.08169843 -0.00083153
v 0.05859737 -0.08409059 0.00116116
v 0.05797115 -0.08410110 0.00116116
v 0.06029808 -0.08329173 -0.00030752
v 0.05797115 -0.08169843 -0.00074994
v 0.07727977 -0.07914760 -0.00075719
v 0.07727977 -0.08000009 -0.00077714
v 0.07218457 -0.08169843 -0.00075175
v 0.06879008 -0.08307723 -0.00026038
v 0.06539328 -0.08385066 0.00116116
v 0.06369488 -0.08393635 0.00116116
v 0.06199648 -0.08399772 0.00116116
v 0.06029808 -0.08404692 0.00116116
v 0.06029808 -0.08474129 0.01764302
v 0.05859737 -0.08478442 0.01764302
v 0.05797115 -0.08479492 0.01764302
v 0.05797115 -0.08035501 -0.00012802
v 0.07896431 -0.07914760 -0.00055774
v 0.05797115 -0.07914760 0.00064078
v 0.07894814 -0.08000838 -0.00026038
v 0.07727977 -0.08127937 -0.00015703
v 0.07388297 -0.08169843 -0.00054686
v 0.07218457 -0.08287268 -0.00012983
v 0.07048617 -0.08298048 -0.00020961
v 0.06709168 -0.08375336 0.00116116
v 0.06369488 -0.08463349 0.01764302
v 0.06539328 -0.08454559 0.01764302
v 0.06319114 -0.08465173 0.01764302
v 0.06199648 -0.08469486 0.01764302
v 0.06149273 -0.08470868 0.01764302
v 0.05797115 -0.08187313 0.01764302
v 0.08026064 -0.07914760 -0.00006093
v 0.05797115 -0.07914760 0.00315204
v 0.08011737 -0.07944779 -0.00000109
v 0.07836121 -0.08100627 0.00008594
v 0.07484193 -0.08258077 0.00025094
v 0.07388297 -0.08270129 0.00007506
v 0.07547739 -0.08177859 -0.00021323
v 0.07048617 -0.08340396 0.00116116
v 0.06879008 -0.08360243 0.00116116
v 0.06877390 -0.08431505 0.01764302
v 0.06844116 -0.08429294 0.01644632
v 0.06814076 -0.08426474 0.01517528
v 0.06709168 -0.08444386 0.01764302
v 0.06658794 -0.08447427 0.01764302
v 0.07722432 -0.07914760 0.01764302
v 0.08056797 -0.07914760 0.00116116
v 0.08022367 -0.07955615 0.00116116
v 0.07927395 -0.08040532 0.00116116
v 0.07842359 -0.08105105 0.00116116
v 0.07727977 -0.08164702 0.00116116
v 0.07507763 -0.08326188 0.01764302
v 0.07388297 -0.08357700 0.01764302
v 0.07218457 -0.08316789 0.00116116
v 0.07568073 -0.08229385 0.00116116
v 0.07681531 -0.08271622 0.01764302
v 0.07558137 -0.08312754 0.01764302
v 0.07218457 -0.08389876 0.01764302
v 0.07041916 -0.08412929 0.01764302
v 0.06956880 -0.08423710 0.01764302
v 0.06954107 -0.08423379 0.01750160
v 0.06939088 -0.08425479 0.01764302
v 0.08157777 -0.07914760 0.01764302
v 0.08154773 -0.07914760 0.01712627
v 0.08153848 -0.07916363 0.01714077
v 0.08155466 -0.07918464 0.01764302
v 0.07991172 -0.08091781 0.01764302
v 0.08075514 -0.08004100 0.01764302
v 0.07766567 -0.08233697 0.01764302
v 0.07902439 -0.08152594 0.01764302
v 0.07856686 -0.08180071 0.01764302
v 0.07337923 -0.08367375 0.01764302
f 1 2 3
f 1 3 4
f 1 4 5
f 1 5 6
f 1 6 7
f 1 7 2
f 2 8 9
f 2 9 10
f 2 10 3
f 2 7 11
f 2 11 8
f 3 12 13
f 3 13 14
f 3 14 4
f 3 10 12
f 4 14 13
f 4 13 5
f 5 13 26
f 5 26 41
f 5 41 43
f 5 43 29
f 5 29 27
f 5 27 15
f 5 15 6
f 6 15 7
f 7 16 17
f 7 17 18
f 7 18 11
f 7 15 16
f 8 11 19
f 8 19 20
f 8 20 21
f 8 21 22
f 8 22 23
f 8 23 9
f 9 23 12
f 9 12 10
f 11 18 19
f 12 23 24
f 12 24 25
f 12 25 26
f 12 26 13
f 15 27 16
f 16 28 17
f 16 27 29
f 16 29 43
f 16 43 56
f 16 56 73
f 16 73 74
f 16 74 57
f 16 57 42
f 16 42 28
f 17 28 30
f 17 30 31
f 17 31 32
f 17 32 18
f 18 33 34
f 18 34 19
f 18 32 33
f 19 35 20
f 19 34 35
f 20 36 21
f 20 35 37
f 20 37 36
f 21 36 38
f 21 38 22
f 22 38 39
f 22 39 23
f 23 39 40
f 23 40 24
f 24 40 39
f 24 39 38
f 24 38 36
f 24 36 37
f 24 37 55
f 24 55 54
f 24 54 51
f 24 51 72
f 24 72 70
f 24 70 69
f 24 69 68
f 24 68 82
f 24 82 63
f 24 63 62
f 24 62 67
f 24 67 66
f 24 66 79
f 24 79 81
f 24 81 80
f 24 80 77
f 24 77 78
f 24 78 76
f 24 76 73
f 24 73 56
f 24 56 41
f 24 41 26
f 24 26 25
f 28 42 30
f 30 42 44
f 30 44 45
f 30 45 31
f 31 45 46
f 31 46 47
f 31 47 48
f 31 48 32
f 32 48 33
f 33 49 50
f 33 50 35
f 33 35 34
f 33 48 47
f 33 47 49
f 35 50 51
f 35 51 52
f 35 52 53
f 35 53 54
f 35 54 55
f 35 55 37
f 41 56 43
f 42 57 44
f 44 57 58
f 44 58 59
f 44 59 45
f 45 59 60
f 45 60 61
f 45 61 46
f 46 62 63
f 46 63 64
f 46 64 47
f 46 61 65
f 46 65 66
f 46 66 67
f 46 67 62
f 47 64 49
f 49 64 68
f 49 68 69
f 49 69 70
f 49 70 50
f 50 70 71
f 50 71 72
f 50 72 51
f 51 54 52
f 52 54 53
f 57 74 75
f 57 75 76
f 57 76 58
f 58 77 59
f 58 76 78
f 58 78 77
f 59 77 60
f 60 79 61
f 60 77 80
f 60 80 81
f 60 81 79
f 61 79 66
f 61 66 65
f 63 82 64
f 64 82 68
f 70 72 71
f 73 76 74
f 74 76 75
