# https://github.com/mikedh/trimesh
v -0.07237513 -0.08380418 0.01632395
v -0.07237513 -0.08084322 0.01632395
v -0.07219098 -0.08383867 0.01632395
v -0.07237513 -0.08381050 0.01644836
v -0.07237513 -0.08106426 0.02290926
v -0.03992252 -0.08025443 0.02290926
v -0.03992252 -0.08009751 0.01632395
v -0.07061863 -0.08404271 0.01632395
v -0.06977580 -0.08426229 0.01863551
v -0.07219098 -0.08384450 0.01644836
v -0.07237513 -0.08388822 0.01814690
v -0.07237513 -0.08407283 0.02290926
v -0.03822268 -0.08022188 0.02290926
v -0.03979503 -0.08009654 0.01632395
v -0.07049115 -0.08405923 0.01632395
v -0.06954915 -0.08423363 0.01750294
v -0.06890464 -0.08432350 0.01810049
v -0.06879840 -0.08440851 0.01984479
v -0.06879840 -0.08447507 0.02154334
v -0.06998120 -0.08428852 0.01984479
v -0.07219098 -0.08392175 0.01814690
v -0.07237513 -0.08396207 0.01984479
v -0.07237513 -0.08403397 0.02154334
v -0.07207766 -0.08412724 0.02290926
v -0.03788980 -0.08022042 0.02290926
v -0.03822268 -0.08008488 0.01632395
v -0.06938626 -0.08418991 0.01632395
v -0.06925877 -0.08420399 0.01632395
v -0.06841594 -0.08429047 0.01632395
v -0.06844427 -0.08429338 0.01644836
v -0.06709857 -0.08453725 0.01984479
v -0.06709857 -0.08460235 0.02154334
v -0.06879840 -0.08451491 0.02290926
v -0.07025034 -0.08432205 0.02154334
v -0.07219098 -0.08406651 0.02154334
v -0.07219098 -0.08399461 0.01984479
v -0.07127024 -0.08423314 0.02282288
v -0.07139773 -0.08421857 0.02290926
v -0.03652285 -0.08021751 0.02290926
v -0.03652285 -0.08008148 0.01632395
v -0.06719772 -0.08437937 0.01632395
v -0.06709857 -0.08446584 0.01814690
v -0.06539874 -0.08456737 0.01814690
v -0.06539874 -0.08463830 0.01984479
v -0.06709857 -0.08464170 0.02290926
v -0.06539874 -0.08470291 0.02154334
v -0.06908170 -0.08448479 0.02290926
v -0.07053364 -0.08432739 0.02290926
v -0.07115692 -0.08424966 0.02290926
v -0.00001898 -0.08021751 0.02290926
v -0.00001898 -0.08008245 0.01632395
v -0.06710565 -0.08438568 0.01632395
v -0.06539874 -0.08448819 0.01632395
v -0.06382639 -0.08457029 0.01632395
v -0.06369891 -0.08465531 0.01814690
v -0.06369891 -0.08472575 0.01984479
v -0.06539874 -0.08474226 0.02290926
v -0.06369891 -0.08479036 0.02154334
v -0.00001898 -0.08403397 0.02290926
v -0.00001898 -0.08300892 0.01632395
v -0.06369891 -0.08457660 0.01632395
v -0.06212656 -0.08463344 0.01632395
v -0.06199908 -0.08471603 0.01814690
v -0.06199908 -0.08478647 0.01984479
v -0.06369891 -0.08482922 0.02290926
v -0.06199908 -0.08485011 0.02154334
v -0.04331510 -0.08503666 0.02290926
v -0.04331510 -0.08499780 0.02154334
v -0.04331510 -0.08493221 0.01984479
v -0.04331510 -0.08485934 0.01814690
v -0.04331510 -0.08478258 0.01644836
v -0.04331510 -0.08477676 0.01632395
v -0.06199908 -0.08463782 0.01632395
v -0.06199908 -0.08464316 0.01644836
v -0.06030633 -0.08476315 0.01814690
v -0.06030633 -0.08483311 0.01984479
v -0.06199908 -0.08488849 0.02290926
v -0.06030633 -0.08489675 0.02154334
v -0.04364798 -0.08503812 0.02290926
v -0.04501493 -0.08500459 0.02154334
v -0.04501493 -0.08494047 0.01984479
v -0.04501493 -0.08487051 0.01814690
v -0.04501493 -0.08479764 0.01644836
v -0.04501493 -0.08479230 0.01632395
v -0.04344258 -0.08477821 0.01632395
v -0.06030633 -0.08468494 0.01632395
v -0.06030633 -0.08469028 0.01644836
v -0.05860649 -0.08473352 0.01644836
v -0.05860649 -0.08480590 0.01814690
v -0.05860649 -0.08487586 0.01984479
v -0.06030633 -0.08493512 0.02290926
v -0.05860649 -0.08493950 0.02154334
v -0.05893938 -0.08496962 0.02290926
v -0.04501493 -0.08504298 0.02290926
v -0.04534781 -0.08504346 0.02290926
v -0.04671476 -0.08500557 0.02154334
v -0.04671476 -0.08494193 0.01984479
v -0.04671476 -0.08487197 0.01814690
v -0.04671476 -0.08479910 0.01644836
v -0.04671476 -0.08479376 0.01632395
v -0.05860649 -0.08472817 0.01632395
v -0.05690666 -0.08476121 0.01644836
v -0.05690666 -0.08483360 0.01814690
v -0.05690666 -0.08490355 0.01984479
v -0.05690666 -0.08496719 0.02154334
v -0.05723955 -0.08500023 0.02290926
v -0.05860649 -0.08497788 0.02290926
v -0.04671476 -0.08504395 0.02290926
v -0.05180717 -0.08500557 0.02154334
v -0.05180717 -0.08494193 0.01984479
v -0.05180717 -0.08487197 0.01814690
v -0.05180717 -0.08479910 0.01644836
v -0.05180717 -0.08479376 0.01632395
v -0.05690666 -0.08475586 0.01632395
v -0.05533432 -0.08477092 0.01632395
v -0.05520683 -0.08485011 0.01814690
v -0.05520683 -0.08491958 0.01984479
v -0.05690666 -0.08500557 0.02290926
v -0.05520683 -0.08498322 0.02154334
v -0.05180717 -0.08504395 0.02290926
v -0.05350700 -0.08499828 0.02154334
v -0.05350700 -0.08493464 0.01984479
v -0.05350700 -0.08486517 0.01814690
v -0.05193466 -0.08479327 0.01632395
v -0.05363449 -0.08478598 0.01632395
v -0.05520683 -0.08502160 0.02290926
v -0.05383988 -0.08503374 0.02290926
v -0.05350700 -0.08503666 0.02290926
v -0.05350700 -0.08479230 0.01644836
v -0.05350700 -0.08478696 0.01632395
f 1 2 7
f 1 7 14
f 1 14 26
f 1 26 40
f 1 40 51
f 1 51 60
f 1 60 72
f 1 72 85
f 1 85 84
f 1 84 100
f 1 100 113
f 1 113 124
f 1 124 130
f 1 130 125
f 1 125 115
f 1 115 114
f 1 114 101
f 1 101 86
f 1 86 73
f 1 73 62
f 1 62 61
f 1 61 54
f 1 54 53
f 1 53 52
f 1 52 41
f 1 41 29
f 1 29 28
f 1 28 27
f 1 27 15
f 1 15 8
f 1 8 3
f 1 3 4
f 1 4 11
f 1 11 22
f 1 22 23
f 1 23 12
f 1 12 5
f 1 5 2
f 2 5 6
f 2 6 7
f 3 8 9
f 3 9 10
f 3 10 4
f 4 10 11
f 5 12 24
f 5 24 38
f 5 38 49
f 5 49 48
f 5 48 47
f 5 47 33
f 5 33 45
f 5 45 57
f 5 57 65
f 5 65 77
f 5 77 91
f 5 91 93
f 5 93 107
f 5 107 106
f 5 106 118
f 5 118 126
f 5 126 127
f 5 127 128
f 5 128 120
f 5 120 108
f 5 108 95
f 5 95 94
f 5 94 79
f 5 79 67
f 5 67 59
f 5 59 50
f 5 50 39
f 5 39 25
f 5 25 13
f 5 13 6
f 6 13 7
f 7 13 14
f 8 15 9
f 9 15 16
f 9 16 17
f 9 17 18
f 9 18 19
f 9 19 20
f 9 20 21
f 9 21 10
f 10 21 11
f 11 21 22
f 12 23 24
f 13 25 26
f 13 26 14
f 15 27 16
f 16 27 28
f 16 28 29
f 16 29 30
f 16 30 17
f 17 30 18
f 18 30 29
f 18 29 31
f 18 31 19
f 19 31 32
f 19 32 33
f 19 33 34
f 19 34 20
f 20 34 35
f 20 35 36
f 20 36 21
f 21 36 22
f 22 36 35
f 22 35 23
f 23 35 24
f 24 35 37
f 24 37 38
f 25 39 26
f 26 39 40
f 29 41 42
f 29 42 31
f 31 42 43
f 31 43 44
f 31 44 32
f 32 45 33
f 32 44 46
f 32 46 57
f 32 57 45
f 33 47 34
f 34 47 48
f 34 48 37
f 34 37 35
f 37 48 49
f 37 49 38
f 39 50 40
f 40 50 51
f 41 52 42
f 42 52 53
f 42 53 43
f 43 53 54
f 43 54 55
f 43 55 44
f 44 55 56
f 44 56 58
f 44 58 46
f 46 58 57
f 50 59 60
f 50 60 51
f 54 61 55
f 55 61 62
f 55 62 63
f 55 63 64
f 55 64 56
f 56 64 58
f 57 58 65
f 58 64 66
f 58 66 65
f 59 67 68
f 59 68 69
f 59 69 70
f 59 70 71
f 59 71 72
f 59 72 60
f 62 73 74
f 62 74 63
f 63 74 87
f 63 87 75
f 63 75 64
f 64 75 76
f 64 76 78
f 64 78 66
f 65 66 77
f 66 78 91
f 66 91 77
f 67 79 68
f 68 79 80
f 68 80 81
f 68 81 69
f 69 81 82
f 69 82 83
f 69 83 70
f 70 83 84
f 70 84 85
f 70 85 71
f 71 85 72
f 73 86 87
f 73 87 74
f 75 87 88
f 75 88 89
f 75 89 90
f 75 90 76
f 76 90 92
f 76 92 78
f 78 92 93
f 78 93 91
f 79 94 80
f 80 94 95
f 80 95 96
f 80 96 97
f 80 97 81
f 81 97 98
f 81 98 82
f 82 98 99
f 82 99 83
f 83 99 100
f 83 100 84
f 86 101 88
f 86 88 87
f 88 101 114
f 88 114 102
f 88 102 103
f 88 103 89
f 89 103 104
f 89 104 90
f 90 104 105
f 90 105 92
f 92 105 106
f 92 106 107
f 92 107 93
f 95 108 96
f 96 108 120
f 96 120 109
f 96 109 110
f 96 110 97
f 97 110 111
f 97 111 98
f 98 111 112
f 98 112 99
f 99 112 113
f 99 113 100
f 102 114 115
f 102 115 116
f 102 116 103
f 103 116 104
f 104 116 117
f 104 117 119
f 104 119 105
f 105 118 106
f 105 119 126
f 105 126 118
f 109 120 128
f 109 128 121
f 109 121 122
f 109 122 110
f 110 122 123
f 110 123 111
f 111 123 124
f 111 124 112
f 112 124 113
f 115 125 123
f 115 123 116
f 116 123 122
f 116 122 117
f 117 122 121
f 117 121 119
f 119 121 127
f 119 127 126
f 121 128 127
f 123 125 129
f 123 129 124
f 124 129 130
f 125 130 129
