# https://github.com/mikedh/trimesh
v -0.07950649 -0.03752489 0.02311896
v -0.08363350 -0.03752489 0.02311896
v -0.07950706 -0.03753406 0.02311896
v -0.07958643 -0.03923324 0.01632395
v -0.07958246 -0.03910907 0.01632395
v -0.07953370 -0.03753406 0.01632395
v -0.07953370 -0.03752489 0.01632395
v -0.08248311 -0.03752489 0.01632395
v -0.08496986 -0.03971408 0.02311896
v -0.07967772 -0.03930241 0.02311896
v -0.07972364 -0.04048159 0.01632395
v -0.08499537 -0.04165243 0.01632395
v -0.08512067 -0.04083909 0.02311896
v -0.07968395 -0.03933574 0.02311896
v -0.07973782 -0.04060909 0.01632395
v -0.08508212 -0.04262911 0.01632395
v -0.08508722 -0.04262911 0.01644833
v -0.08514845 -0.04262911 0.01814708
v -0.08520515 -0.04262911 0.01984517
v -0.08512464 -0.04087326 0.02311896
v -0.07982059 -0.04002908 0.02311896
v -0.07975199 -0.04067992 0.01632395
v -0.08508495 -0.04275327 0.01632395
v -0.08511330 -0.04432829 0.01632395
v -0.08525335 -0.04262911 0.02154326
v -0.08517170 -0.04432829 0.01814708
v -0.08522330 -0.04432829 0.01984517
v -0.08528396 -0.04262911 0.02311896
v -0.08235214 -0.04603830 0.02311896
v -0.07993059 -0.04144826 0.01632395
v -0.08511387 -0.04445245 0.01632395
v -0.08526865 -0.04432829 0.02154326
v -0.08528510 -0.04275327 0.02311896
v -0.08512181 -0.04602663 0.01644833
v -0.08517567 -0.04602663 0.01814708
v -0.08522670 -0.04602663 0.01984517
v -0.08529814 -0.04603830 0.02311896
v -0.08219622 -0.04603830 0.01632395
v -0.08511784 -0.04602663 0.01632395
v -0.08529644 -0.04432829 0.02311896
v -0.08527149 -0.04602663 0.02154326
v -0.08512181 -0.04603830 0.01644767
v -0.08517567 -0.04603830 0.01814708
v -0.08522670 -0.04603830 0.01984517
v -0.08529814 -0.04602663 0.02311896
v -0.08527149 -0.04603830 0.02154326
v -0.08511784 -0.04603830 0.01632395
f 1 2 9
f 1 9 13
f 1 13 20
f 1 20 28
f 1 28 33
f 1 33 40
f 1 40 45
f 1 45 37
f 1 37 29
f 1 29 21
f 1 21 14
f 1 14 10
f 1 10 3
f 1 3 4
f 1 4 5
f 1 5 6
f 1 6 7
f 1 7 8
f 1 8 2
f 2 8 9
f 3 10 4
f 4 10 11
f 4 11 15
f 4 15 22
f 4 22 30
f 4 30 38
f 4 38 47
f 4 47 39
f 4 39 31
f 4 31 24
f 4 24 23
f 4 23 16
f 4 16 12
f 4 12 8
f 4 8 7
f 4 7 6
f 4 6 5
f 8 12 9
f 9 12 13
f 10 14 15
f 10 15 11
f 12 16 17
f 12 17 18
f 12 18 19
f 12 19 20
f 12 20 13
f 14 21 15
f 15 21 22
f 16 23 17
f 17 23 24
f 17 24 18
f 18 24 19
f 19 25 20
f 19 24 26
f 19 26 27
f 19 27 25
f 20 25 28
f 21 29 30
f 21 30 22
f 24 31 26
f 25 27 32
f 25 32 33
f 25 33 28
f 26 31 34
f 26 34 35
f 26 35 27
f 27 35 36
f 27 36 32
f 29 37 46
f 29 46 44
f 29 44 43
f 29 43 42
f 29 42 47
f 29 47 38
f 29 38 30
f 31 39 34
f 32 40 33
f 32 36 41
f 32 41 40
f 34 39 42
f 34 42 35
f 35 42 43
f 35 43 44
f 35 44 36
f 36 44 46
f 36 46 41
f 37 45 41
f 37 41 46
f 39 47 42
f 40 41 45
