# https://github.com/mikedh/trimesh
v 0.08212113 -0.07875437 0.02833762
v 0.08172712 -0.07940892 0.02833762
v 0.08211665 -0.07875437 0.02733372
v 0.08204117 -0.07875437 0.02912299
v 0.08098388 -0.08025841 0.02833762
v 0.08171560 -0.07939378 0.02494076
v 0.08210770 -0.07875437 0.02564144
v 0.08162926 -0.07928232 0.03003674
v 0.08194331 -0.07875437 0.03003674
v 0.08013509 -0.08110652 0.02833762
v 0.08096597 -0.08024281 0.02494076
v 0.08087258 -0.08013135 0.03003674
v 0.08002315 -0.08101341 0.03003674
v 0.08210322 -0.07875437 0.02494076
v 0.08170281 -0.07937635 0.02324301
v 0.08209043 -0.07875437 0.02394778
v 0.08152884 -0.07915114 0.03088630
v 0.08184801 -0.07875437 0.03049020
v 0.07898056 -0.08191426 0.02833762
v 0.08011654 -0.08108955 0.02494076
v 0.08009863 -0.08107395 0.02324301
v 0.08094805 -0.08022538 0.02324301
v 0.07988116 -0.08089323 0.03095049
v 0.07898056 -0.08170006 0.03003674
v 0.08167019 -0.07933369 0.02154389
v 0.08202263 -0.07875437 0.02154389
v 0.08204693 -0.07875437 0.02226096
v 0.08208020 -0.07875437 0.02324301
v 0.08164525 -0.07875437 0.03101469
v 0.08141114 -0.07875437 0.03115810
v 0.08053997 -0.07983045 0.03114444
v 0.07803903 -0.08250551 0.02833762
v 0.07898056 -0.08187803 0.02494076
v 0.07898056 -0.08184730 0.02324301
v 0.08005705 -0.08103863 0.02154389
v 0.08090648 -0.08018318 0.02154389
v 0.07898056 -0.08116247 0.03119498
v 0.07669198 -0.08266788 0.03107069
v 0.07786058 -0.08238534 0.03003674
v 0.08162350 -0.07927315 0.01984614
v 0.08197593 -0.07875437 0.02059189
v 0.08063783 -0.07875437 0.03142444
v 0.07898056 -0.07999971 0.03153234
v 0.07718961 -0.08287888 0.02833762
v 0.07799682 -0.08248670 0.02494076
v 0.07701115 -0.08280595 0.03003674
v 0.07796420 -0.08247203 0.02324301
v 0.07898056 -0.08178170 0.02154389
v 0.07999885 -0.08098955 0.01984614
v 0.08084763 -0.08012263 0.01984614
v 0.08157105 -0.07920572 0.01814702
v 0.07726764 -0.08175280 0.03140532
v 0.07558734 -0.08284861 0.03128649
v 0.07558734 -0.08330041 0.03003674
v 0.08188958 -0.07875437 0.01893922
v 0.08193884 -0.07875437 0.01984614
v 0.08022528 -0.07875437 0.03153917
v 0.07558734 -0.08169822 0.03159654
v 0.07558734 -0.08344031 0.02833762
v 0.07714739 -0.08285962 0.02494076
v 0.07711477 -0.08284540 0.02324301
v 0.07704633 -0.08281558 0.02154389
v 0.07789575 -0.08244129 0.02154389
v 0.07898056 -0.08168996 0.01984614
v 0.07993296 -0.08093497 0.01814702
v 0.07991250 -0.08091800 0.01764302
v 0.08078239 -0.08005475 0.01814702
v 0.08155442 -0.07918462 0.01764302
v 0.08184545 -0.07875437 0.01814702
v 0.08168554 -0.07897042 0.01764302
v 0.08181731 -0.07875437 0.01764302
v 0.07874965 -0.07875437 0.03126054
v 0.07558734 -0.08061160 0.03119088
v 0.07558734 -0.08340132 0.02494076
v 0.07558734 -0.08337289 0.02324301
v 0.07558734 -0.08331601 0.02154389
v 0.07695295 -0.08277522 0.01984614
v 0.07780237 -0.08239910 0.01984614
v 0.07898056 -0.08158814 0.01814702
v 0.07902597 -0.08152530 0.01764302
v 0.08075553 -0.08004099 0.01764302
v 0.07776207 -0.07875437 0.01764302
v 0.07558734 -0.07875437 0.02854523
v 0.07558734 -0.08323895 0.01984614
v 0.07684933 -0.08273027 0.01814702
v 0.07769811 -0.08235185 0.01814702
v 0.07856864 -0.08180005 0.01764302
v 0.07558734 -0.08001576 0.01764302
v 0.07558734 -0.07875437 0.02475910
v 0.07558734 -0.08315317 0.01814702
v 0.07681734 -0.08271651 0.01764302
v 0.07766613 -0.08233717 0.01764302
v 0.07558734 -0.08002998 0.01764302
v 0.07558734 -0.08312657 0.01764576
v 0.07647386 -0.08282934 0.01764302
f 1 2 3
f 1 3 7
f 1 7 14
f 1 14 16
f 1 16 28
f 1 28 27
f 1 27 26
f 1 26 41
f 1 41 56
f 1 56 55
f 1 55 69
f 1 69 71
f 1 71 82
f 1 82 89
f 1 89 83
f 1 83 72
f 1 72 57
f 1 57 42
f 1 42 30
f 1 30 29
f 1 29 18
f 1 18 9
f 1 9 4
f 1 4 2
f 2 5 6
f 2 6 7
f 2 7 3
f 2 4 8
f 2 8 5
f 4 9 8
f 5 10 11
f 5 11 6
f 5 8 12
f 5 12 13
f 5 13 10
f 6 14 7
f 6 11 15
f 6 15 16
f 6 16 14
f 8 9 17
f 8 17 12
f 9 18 17
f 10 19 20
f 10 20 11
f 10 13 19
f 11 20 21
f 11 21 22
f 11 22 15
f 12 17 23
f 12 23 13
f 13 23 24
f 13 24 19
f 15 22 25
f 15 25 26
f 15 26 27
f 15 27 28
f 15 28 16
f 17 29 30
f 17 30 31
f 17 31 23
f 17 18 29
f 19 32 33
f 19 33 20
f 19 24 32
f 20 33 21
f 21 34 35
f 21 35 22
f 21 33 34
f 22 35 36
f 22 36 25
f 23 31 37
f 23 37 38
f 23 38 39
f 23 39 24
f 24 39 32
f 25 36 40
f 25 40 41
f 25 41 26
f 30 42 31
f 31 42 43
f 31 43 37
f 32 44 45
f 32 45 33
f 32 39 46
f 32 46 44
f 33 45 34
f 34 45 47
f 34 47 48
f 34 48 35
f 35 48 49
f 35 49 36
f 36 49 50
f 36 50 51
f 36 51 40
f 37 43 52
f 37 52 38
f 38 52 53
f 38 53 54
f 38 54 46
f 38 46 39
f 40 51 55
f 40 55 56
f 40 56 41
f 42 57 43
f 43 57 58
f 43 58 52
f 44 59 60
f 44 60 45
f 44 46 59
f 45 60 61
f 45 61 47
f 46 54 59
f 47 61 62
f 47 62 63
f 47 63 48
f 48 63 64
f 48 64 49
f 49 64 65
f 49 65 50
f 50 65 66
f 50 66 67
f 50 67 68
f 50 68 51
f 51 69 55
f 51 68 70
f 51 70 71
f 51 71 69
f 52 58 53
f 53 58 73
f 53 73 83
f 53 83 89
f 53 89 88
f 53 88 93
f 53 93 94
f 53 94 90
f 53 90 84
f 53 84 76
f 53 76 75
f 53 75 74
f 53 74 59
f 53 59 54
f 57 72 58
f 58 72 73
f 59 74 60
f 60 74 61
f 61 74 75
f 61 75 62
f 62 76 77
f 62 77 63
f 62 75 76
f 63 77 78
f 63 78 64
f 64 78 79
f 64 79 65
f 65 79 66
f 66 80 87
f 66 87 92
f 66 92 91
f 66 91 95
f 66 95 93
f 66 93 88
f 66 88 82
f 66 82 71
f 66 71 70
f 66 70 68
f 66 68 81
f 66 81 67
f 66 79 80
f 67 81 68
f 72 83 73
f 76 84 77
f 77 84 85
f 77 85 78
f 78 85 86
f 78 86 79
f 79 86 87
f 79 87 80
f 82 88 89
f 84 90 91
f 84 91 85
f 85 91 86
f 86 91 92
f 86 92 87
f 90 94 91
f 91 94 95
f 93 95 94
