# https://github.com/mikedh/trimesh
v 0.06863271 -0.02794677 0.02663994
v 0.06863271 -0.02734068 0.02704531
v 0.06863271 -0.02770813 0.02638856
v 0.07055300 -0.03912538 0.02663994
v 0.06863271 -0.02571938 0.02794265
v 0.06863271 -0.02689748 0.02591748
v 0.07092961 -0.03912538 0.02552323
v 0.07093554 -0.03912538 0.02785538
v 0.06863271 -0.02394278 0.02822975
v 0.06863271 -0.02570423 0.02537295
v 0.07095585 -0.03912538 0.02544977
v 0.07218640 -0.03912538 0.02830287
v 0.06878927 -0.02394278 0.02828299
v 0.06863271 -0.02224951 0.02833420
v 0.06863271 -0.02567014 0.02536553
v 0.07211023 -0.03912538 0.02505755
v 0.06863271 -0.02379883 0.02508248
v 0.07388411 -0.03912538 0.02838374
v 0.06878927 -0.02224572 0.02837060
v 0.06863271 -0.02054488 0.02837599
v 0.07218640 -0.03912538 0.02503227
v 0.06863271 -0.02208662 0.02497566
v 0.07727869 -0.03912538 0.02838374
v 0.06878927 -0.02054488 0.02838374
v 0.06863271 -0.01885161 0.02838306
v 0.07218640 -0.03413649 0.02496690
v 0.07378086 -0.03912538 0.02495915
v 0.06878927 -0.02224572 0.02496960
v 0.06863271 -0.02038957 0.02495612
v 0.07727869 -0.03912538 0.02494432
v 0.07727869 -0.00043399 0.02838374
v 0.06863271 -0.01715076 0.02838374
v 0.07388411 -0.03912538 0.02495544
v 0.06878927 -0.02054488 0.02495544
v 0.06863271 -0.01869630 0.02495544
v 0.07727869 -0.03753060 0.02494230
v 0.07727869 -0.00043399 0.02494365
v 0.06863271 -0.00043399 0.02838374
v 0.07727869 -0.03583354 0.02494163
v 0.06863271 -0.00043399 0.02495544
v 0.07727869 -0.00186588 0.02494331
v 0.07727869 -0.03073858 0.02494163
f 1 2 5
f 1 5 9
f 1 9 14
f 1 14 20
f 1 20 25
f 1 25 32
f 1 32 38
f 1 38 40
f 1 40 35
f 1 35 29
f 1 29 22
f 1 22 17
f 1 17 15
f 1 15 10
f 1 10 6
f 1 6 3
f 1 3 4
f 1 4 2
f 2 4 5
f 3 6 4
f 4 7 11
f 4 11 16
f 4 16 21
f 4 21 27
f 4 27 33
f 4 33 30
f 4 30 23
f 4 23 18
f 4 18 12
f 4 12 8
f 4 8 5
f 4 6 7
f 5 8 9
f 6 10 11
f 6 11 7
f 8 12 9
f 9 13 14
f 9 12 13
f 10 15 11
f 11 15 17
f 11 17 16
f 12 18 19
f 12 19 14
f 12 14 13
f 14 19 20
f 16 17 21
f 17 22 21
f 18 23 31
f 18 31 38
f 18 38 32
f 18 32 24
f 18 24 19
f 19 24 20
f 20 24 25
f 21 26 27
f 21 22 28
f 21 28 26
f 22 29 28
f 23 30 36
f 23 36 39
f 23 39 42
f 23 42 41
f 23 41 37
f 23 37 31
f 24 32 25
f 26 28 27
f 27 28 29
f 27 29 33
f 29 34 33
f 29 35 34
f 30 33 36
f 31 37 40
f 31 40 38
f 33 34 36
f 34 39 36
f 34 35 39
f 35 40 42
f 35 42 39
f 37 41 40
f 40 41 42
