# https://github.com/mikedh/trimesh
v -0.07246206 0.08075929 0.02257167
v -0.07246206 0.07927929 0.02465471
v -0.07246206 0.08376713 0.02257167
v -0.03992271 0.07997851 0.02257167
v -0.07246206 0.07927929 0.02856948
v -0.03889410 0.07995730 0.02257167
v -0.03822019 0.07994697 0.02257167
v -0.03652477 0.07994262 0.02257167
v -0.03822019 0.07927929 0.02450516
v -0.07246206 0.08379486 0.02324330
v -0.07220668 0.08381552 0.02257167
v -0.07246206 0.08155801 0.03147813
v 0.00000840 0.07927929 0.02839604
v 0.00000840 0.07994262 0.02257167
v -0.03652477 0.07927929 0.02450428
v -0.07246206 0.08382911 0.02494141
v -0.07232018 0.08382150 0.02324330
v -0.07140508 0.08392535 0.02257167
v -0.07219249 0.08160803 0.03149406
v -0.07246206 0.08287761 0.03148963
v 0.00000840 0.08207889 0.03113125
v 0.00000840 0.08258128 0.03136309
v 0.00000840 0.08306791 0.03158697
v 0.00000840 0.07927929 0.02450428
v 0.00000840 0.08336043 0.02257167
v -0.07246206 0.08383999 0.02567057
v -0.07242659 0.08383509 0.02494141
v -0.07146892 0.08393350 0.02324330
v -0.07049707 0.08405584 0.02324330
v -0.07053253 0.08403138 0.02257167
v -0.06199867 0.08306791 0.03161086
v -0.06370119 0.08306791 0.03160909
v -0.06539661 0.08306791 0.03159671
v -0.07219249 0.08289935 0.03149406
v -0.07246206 0.08360347 0.03021981
v -0.06709913 0.08403736 0.03109409
v -0.06879455 0.08396940 0.03098082
v -0.06970256 0.08392481 0.03090029
v 0.00000840 0.08424180 0.03134186
v 0.00000840 0.08426029 0.02372114
v -0.04331355 0.08474038 0.02257167
v -0.07246206 0.08385140 0.02664041
v -0.07173140 0.08396722 0.02833764
v -0.07157533 0.08394710 0.02494141
v -0.07049707 0.08408303 0.02494141
v -0.06879455 0.08423799 0.02324330
v -0.06879455 0.08421842 0.02257167
v -0.06982316 0.08410804 0.02257167
v -0.05181195 0.08424180 0.03134186
v -0.05350737 0.08423854 0.03133832
v -0.05520989 0.08423092 0.03133124
v -0.05690531 0.08422276 0.03132416
v -0.05860073 0.08420918 0.03131000
v -0.06030325 0.08418797 0.03128876
v -0.06709913 0.08306791 0.03156574
v -0.06199867 0.08416459 0.03126310
v -0.06370119 0.08413414 0.03122770
v -0.06539661 0.08408955 0.03116930
v -0.07246206 0.08371004 0.02999859
v -0.06370119 0.08449082 0.03003664
v -0.06539661 0.08440327 0.03003664
v -0.06709913 0.08429997 0.03003664
v -0.06879455 0.08416948 0.03003664
v -0.07035519 0.08400854 0.02999239
v -0.07163208 0.08395417 0.02939597
v -0.07219959 0.08375789 0.02999239
v 0.00000840 0.08447777 0.03067819
v 0.00000840 0.08470287 0.02494141
v -0.04501607 0.08474691 0.02257167
v 0.00000840 0.08481216 0.02664041
v 0.00000840 0.08475669 0.02577675
v -0.07246206 0.08385249 0.02673333
v -0.07246206 0.08387044 0.02833764
v -0.07049707 0.08412381 0.02833764
v -0.06879455 0.08426518 0.02494141
v -0.06709913 0.08436413 0.02324330
v -0.06709913 0.08434510 0.02257167
v -0.06812774 0.08426844 0.02257167
v -0.05181195 0.08470558 0.03003664
v -0.05350737 0.08469852 0.03003664
v -0.05520989 0.08468329 0.03003664
v -0.05690531 0.08466753 0.03003664
v -0.05860073 0.08464034 0.03003664
v -0.06030325 0.08459793 0.03003664
v -0.06199867 0.08455117 0.03003664
v -0.07246206 0.08386663 0.02847745
v -0.06370119 0.08461968 0.02833764
v -0.06539661 0.08453322 0.02833764
v -0.06709913 0.08443210 0.02833764
v -0.06879455 0.08430596 0.02833764
v 0.00000840 0.08470558 0.03003664
v -0.04501607 0.08476594 0.02324330
v -0.04671149 0.08474800 0.02257167
v 0.00000840 0.08483336 0.02833764
v -0.04671149 0.08476703 0.02324330
v -0.04671149 0.08479312 0.02494141
v -0.06709913 0.08439132 0.02494141
v -0.06539661 0.08446472 0.02324330
v -0.06539661 0.08444569 0.02257167
v -0.05010943 0.08483390 0.02833764
v -0.05181195 0.08483336 0.02833764
v 0.00000840 0.08477083 0.02917386
v -0.05350737 0.08482574 0.02833764
v -0.05520989 0.08481053 0.02833764
v -0.05690531 0.08479475 0.02833764
v -0.05860073 0.08476757 0.02833764
v -0.06030325 0.08472516 0.02833764
v -0.06199867 0.08467895 0.02833764
v -0.06370119 0.08457836 0.02494141
v -0.06539661 0.08449191 0.02494141
v -0.05181195 0.08474800 0.02257167
v -0.02633805 0.08483390 0.02833764
v -0.05181195 0.08476703 0.02324330
v -0.05010943 0.08479312 0.02494141
v -0.06370119 0.08455171 0.02324330
v -0.06472980 0.08447995 0.02257167
v -0.05181195 0.08479258 0.02494141
v -0.05350737 0.08478497 0.02494141
v -0.05690531 0.08475398 0.02494141
v -0.05860073 0.08472625 0.02494141
v -0.06030325 0.08468384 0.02494141
v -0.06199867 0.08463762 0.02494141
v -0.06199867 0.08461153 0.02324330
v -0.05283346 0.08474364 0.02257167
v -0.05350737 0.08475942 0.02324330
v -0.06370119 0.08453269 0.02257167
v -0.05520989 0.08474419 0.02324330
v -0.05690531 0.08472788 0.02324330
v -0.05860073 0.08470069 0.02324330
v -0.06030325 0.08465774 0.02324330
v -0.06133186 0.08461098 0.02257167
v -0.06199867 0.08459249 0.02257167
v -0.05350737 0.08474038 0.02257167
v -0.05520989 0.08472516 0.02257167
v -0.05690531 0.08470939 0.02257167
v -0.05860073 0.08468166 0.02257167
v -0.06030325 0.08463871 0.02257167
f 1 2 5
f 1 5 12
f 1 12 20
f 1 20 35
f 1 35 59
f 1 59 86
f 1 86 73
f 1 73 72
f 1 72 42
f 1 42 26
f 1 26 16
f 1 16 10
f 1 10 3
f 1 3 11
f 1 11 18
f 1 18 30
f 1 30 48
f 1 48 47
f 1 47 78
f 1 78 77
f 1 77 99
f 1 99 116
f 1 116 126
f 1 126 132
f 1 132 131
f 1 131 137
f 1 137 136
f 1 136 135
f 1 135 134
f 1 134 133
f 1 133 124
f 1 124 111
f 1 111 93
f 1 93 69
f 1 69 41
f 1 41 25
f 1 25 14
f 1 14 8
f 1 8 7
f 1 7 6
f 1 6 4
f 1 4 2
f 2 4 6
f 2 6 7
f 2 7 8
f 2 8 9
f 2 9 15
f 2 15 24
f 2 24 13
f 2 13 5
f 3 10 11
f 5 13 12
f 8 14 24
f 8 24 15
f 8 15 9
f 10 16 17
f 10 17 11
f 11 17 18
f 12 19 20
f 12 13 21
f 12 21 22
f 12 22 23
f 12 23 19
f 13 24 14
f 13 14 25
f 13 25 40
f 13 40 68
f 13 68 71
f 13 71 70
f 13 70 94
f 13 94 102
f 13 102 91
f 13 91 67
f 13 67 39
f 13 39 23
f 13 23 22
f 13 22 21
f 16 26 27
f 16 27 17
f 17 27 44
f 17 44 28
f 17 28 18
f 18 28 29
f 18 29 30
f 19 31 32
f 19 32 33
f 19 33 34
f 19 34 20
f 19 23 31
f 20 34 36
f 20 36 37
f 20 37 38
f 20 38 35
f 23 39 31
f 25 41 40
f 26 42 43
f 26 43 44
f 26 44 27
f 28 44 45
f 28 45 29
f 29 45 75
f 29 75 46
f 29 46 47
f 29 47 48
f 29 48 30
f 31 49 32
f 31 39 49
f 32 49 50
f 32 50 51
f 32 51 52
f 32 52 33
f 33 52 53
f 33 53 54
f 33 54 55
f 33 55 34
f 34 55 56
f 34 56 57
f 34 57 58
f 34 58 36
f 35 38 59
f 36 58 60
f 36 60 61
f 36 61 37
f 37 61 62
f 37 62 38
f 38 62 63
f 38 63 64
f 38 64 65
f 38 65 66
f 38 66 59
f 39 67 49
f 40 41 68
f 41 69 70
f 41 70 71
f 41 71 68
f 42 72 43
f 43 72 73
f 43 73 65
f 43 65 74
f 43 74 44
f 44 74 45
f 45 74 90
f 45 90 75
f 46 75 97
f 46 97 76
f 46 76 77
f 46 77 78
f 46 78 47
f 49 79 50
f 49 67 79
f 50 79 80
f 50 80 51
f 51 80 52
f 52 80 81
f 52 81 82
f 52 82 53
f 53 82 83
f 53 83 54
f 54 83 56
f 54 56 55
f 56 83 57
f 57 83 84
f 57 84 85
f 57 85 60
f 57 60 58
f 59 66 65
f 59 65 86
f 60 87 88
f 60 88 61
f 60 85 87
f 61 88 89
f 61 89 62
f 62 89 90
f 62 90 63
f 63 90 65
f 63 65 64
f 65 73 86
f 65 90 74
f 67 91 79
f 69 92 70
f 69 93 95
f 69 95 92
f 70 92 95
f 70 95 96
f 70 96 94
f 75 90 89
f 75 89 97
f 76 97 110
f 76 110 98
f 76 98 99
f 76 99 77
f 79 100 101
f 79 101 80
f 79 91 102
f 79 102 100
f 80 103 104
f 80 104 81
f 80 101 103
f 81 104 105
f 81 105 82
f 82 105 106
f 82 106 83
f 83 106 107
f 83 107 84
f 84 107 108
f 84 108 85
f 85 108 87
f 87 109 110
f 87 110 88
f 87 108 122
f 87 122 109
f 88 110 97
f 88 97 89
f 93 111 113
f 93 113 95
f 94 96 112
f 94 112 102
f 95 113 114
f 95 114 96
f 96 114 100
f 96 100 112
f 98 110 115
f 98 115 116
f 98 116 99
f 100 114 117
f 100 117 101
f 100 102 112
f 101 117 118
f 101 118 103
f 103 118 104
f 104 118 119
f 104 119 105
f 105 119 106
f 106 120 121
f 106 121 107
f 106 119 120
f 107 121 122
f 107 122 108
f 109 122 123
f 109 123 115
f 109 115 110
f 111 124 113
f 113 124 125
f 113 125 118
f 113 118 117
f 113 117 114
f 115 126 116
f 115 123 132
f 115 132 126
f 118 125 127
f 118 127 119
f 119 127 128
f 119 128 129
f 119 129 120
f 120 129 121
f 121 129 130
f 121 130 123
f 121 123 122
f 123 130 131
f 123 131 132
f 124 133 125
f 125 133 134
f 125 134 127
f 127 134 135
f 127 135 128
f 128 135 129
f 129 136 137
f 129 137 130
f 129 135 136
f 130 137 131
