# https://github.com/mikedh/trimesh
v 0.05180089 0.08482816 0.02840806
v 0.05180089 0.08470597 0.03003695
v 0.05342983 0.08482112 0.02840806
v 0.00000840 0.08482816 0.02840806
v 0.00000840 0.08477084 0.02917403
v 0.05180089 0.08424186 0.03134181
v 0.05349890 0.08423834 0.03133868
v 0.05349890 0.08469843 0.03003695
v 0.00000840 0.08470597 0.03003695
v 0.05349890 0.08482062 0.02840806
v 0.00000840 0.07969774 0.02840806
v 0.05881169 0.08306774 0.03160328
v 0.00000840 0.08424186 0.03134181
v 0.05519692 0.08423079 0.03133180
v 0.05689495 0.08422274 0.03132429
v 0.05519692 0.08468334 0.03003695
v 0.05512785 0.08480603 0.02840806
v 0.05881169 0.07969171 0.02840806
v 0.05881169 0.08204547 0.03118136
v 0.00000840 0.08207916 0.03113194
v 0.05881169 0.08420666 0.03130803
v 0.05859296 0.08420917 0.03131084
v 0.00000840 0.08366460 0.03146285
v 0.00000840 0.08306774 0.03158764
v 0.05689495 0.08466776 0.03003695
v 0.05689495 0.08478944 0.02840806
v 0.05881169 0.08475675 0.02840806
v 0.05881169 0.08463507 0.03003695
v 0.05859296 0.08464010 0.03003695
v 0.05859296 0.08476228 0.02840806
v 0.05881169 0.08465116 0.02982270
f 1 2 3
f 1 3 10
f 1 10 17
f 1 17 26
f 1 26 30
f 1 30 27
f 1 27 18
f 1 18 11
f 1 11 4
f 1 4 5
f 1 5 2
f 2 6 7
f 2 7 8
f 2 8 3
f 2 5 9
f 2 9 13
f 2 13 6
f 3 8 10
f 4 11 20
f 4 20 24
f 4 24 23
f 4 23 13
f 4 13 9
f 4 9 5
f 6 12 7
f 6 13 12
f 7 12 14
f 7 14 8
f 8 14 15
f 8 15 16
f 8 16 10
f 10 16 17
f 11 18 19
f 11 19 20
f 12 19 18
f 12 18 27
f 12 27 31
f 12 31 28
f 12 28 21
f 12 21 22
f 12 22 15
f 12 15 14
f 12 13 23
f 12 23 24
f 12 24 19
f 15 25 16
f 15 22 25
f 16 25 17
f 17 25 26
f 19 24 20
f 21 28 29
f 21 29 25
f 21 25 22
f 25 29 30
f 25 30 26
f 27 30 31
f 28 31 29
f 29 31 30
