# https://github.com/mikedh/trimesh
v 0.06562534 0.05547319 0.02663991
v 0.06611635 0.05482367 0.02761117
v 0.06592422 0.05547319 0.02771923
v 0.06567927 0.05547319 0.02625832
v 0.07019169 0.04295341 0.02663991
v 0.07075350 0.04295341 0.02792328
v 0.06708154 0.05547319 0.02814848
v 0.06594444 0.05547319 0.02558375
v 0.06612871 0.05484450 0.02568342
v 0.07052541 0.04295341 0.02587304
v 0.07218611 0.04295341 0.02837065
v 0.06878943 0.05419130 0.02835253
v 0.06878943 0.05547319 0.02837434
v 0.06613545 0.05547319 0.02549179
v 0.07077597 0.04295341 0.02539245
v 0.07388389 0.04295341 0.02838340
v 0.07218611 0.04739710 0.02838307
v 0.07048833 0.05249275 0.02838206
v 0.07048833 0.05547319 0.02838340
v 0.07048833 0.05419130 0.02838340
v 0.06708378 0.05547319 0.02518169
v 0.07161756 0.04295341 0.02513537
v 0.07710303 0.04295341 0.02838340
v 0.07710303 0.05547319 0.02838340
v 0.06750739 0.05547319 0.02507362
v 0.07218611 0.04295341 0.02497495
v 0.07710303 0.04295341 0.02495515
v 0.07710303 0.05547319 0.02495548
v 0.06878943 0.05547319 0.02496488
v 0.06878943 0.05419130 0.02498636
v 0.07218611 0.04569855 0.02496153
v 0.07323219 0.04295341 0.02496119
v 0.06920629 0.05547319 0.02495716
v 0.07662887 0.04295341 0.02495515
v 0.07048833 0.05547319 0.02495548
v 0.07218611 0.04739710 0.02495616
v 0.07388389 0.04295341 0.02495548
v 0.07048833 0.05419130 0.02495548
f 1 2 3
f 1 3 7
f 1 7 13
f 1 13 19
f 1 19 24
f 1 24 28
f 1 28 35
f 1 35 33
f 1 33 29
f 1 29 25
f 1 25 21
f 1 21 14
f 1 14 8
f 1 8 4
f 1 4 5
f 1 5 2
f 2 5 6
f 2 6 3
f 3 6 7
f 4 8 9
f 4 9 5
f 5 10 15
f 5 15 22
f 5 22 26
f 5 26 32
f 5 32 37
f 5 37 34
f 5 34 27
f 5 27 23
f 5 23 16
f 5 16 11
f 5 11 6
f 5 9 10
f 6 11 7
f 7 12 13
f 7 11 12
f 8 14 15
f 8 15 9
f 9 15 10
f 11 16 17
f 11 17 18
f 11 18 13
f 11 13 12
f 13 18 20
f 13 20 19
f 14 21 15
f 15 21 22
f 16 23 24
f 16 24 19
f 16 19 20
f 16 20 17
f 17 20 18
f 21 25 26
f 21 26 22
f 23 27 28
f 23 28 24
f 25 29 30
f 25 30 26
f 26 31 32
f 26 30 29
f 26 29 33
f 26 33 31
f 27 34 35
f 27 35 28
f 31 36 37
f 31 37 32
f 31 33 36
f 33 35 38
f 33 38 37
f 33 37 36
f 34 37 38
f 34 38 35
