# https://github.com/mikedh/trimesh
v 0.02547713 0.06852271 0.02663996
v 0.02516301 0.06852271 0.02569458
v 0.02541979 0.06852271 0.02738466
v 0.00954422 0.05462743 0.02663996
v 0.02462451 0.06852271 0.02556772
v 0.00902068 0.05462743 0.02547677
v 0.00763954 0.05462743 0.02506701
v 0.02524278 0.06852271 0.02759072
v 0.00903813 0.05462743 0.02783201
v 0.00929990 0.05462743 0.02735781
v 0.02292427 0.06852271 0.02528683
v 0.00594180 0.05462743 0.02495559
v 0.00763954 0.05589113 0.02497606
v 0.01952877 0.06777999 0.02499418
v 0.02481648 0.06852271 0.02771254
v 0.00811073 0.05462743 0.02816090
v 0.01952877 0.06852271 0.02497707
v 0.00424155 0.05462743 0.02495525
v 0.00594180 0.05589113 0.02495525
v 0.00763954 0.05759012 0.02495525
v 0.01613078 0.06777999 0.02495525
v 0.01782853 0.06852271 0.02495592
v 0.01782853 0.06777999 0.02495660
v 0.02357246 0.06852271 0.02794947
v 0.00763954 0.05462743 0.02826964
v 0.00001089 0.05462743 0.02495525
v 0.01613078 0.06852271 0.02495525
v 0.02196944 0.06852271 0.02821057
v 0.02026920 0.06852271 0.02835857
v 0.00637558 0.05462743 0.02837803
v 0.00001089 0.05462743 0.02838340
v 0.00001089 0.06852271 0.02495525
v 0.01857145 0.06852271 0.02838307
v 0.00594180 0.05462743 0.02838340
v 0.00001089 0.06852271 0.02838340
v 0.01687370 0.06852271 0.02838340
f 1 2 5
f 1 5 11
f 1 11 17
f 1 17 22
f 1 22 27
f 1 27 32
f 1 32 35
f 1 35 36
f 1 36 33
f 1 33 29
f 1 29 28
f 1 28 24
f 1 24 15
f 1 15 8
f 1 8 3
f 1 3 4
f 1 4 2
f 2 4 6
f 2 6 7
f 2 7 5
f 3 8 9
f 3 9 10
f 3 10 4
f 4 10 9
f 4 9 16
f 4 16 25
f 4 25 30
f 4 30 34
f 4 34 31
f 4 31 26
f 4 26 18
f 4 18 12
f 4 12 7
f 4 7 6
f 5 7 11
f 7 12 13
f 7 13 14
f 7 14 11
f 8 15 16
f 8 16 9
f 11 14 17
f 12 18 19
f 12 19 20
f 12 20 21
f 12 21 22
f 12 22 23
f 12 23 17
f 12 17 14
f 12 14 13
f 15 24 25
f 15 25 16
f 17 23 22
f 18 26 32
f 18 32 27
f 18 27 21
f 18 21 20
f 18 20 19
f 21 27 22
f 24 28 25
f 25 28 29
f 25 29 30
f 26 31 35
f 26 35 32
f 29 33 30
f 30 33 34
f 31 34 36
f 31 36 35
f 33 36 34
