# https://github.com/mikedh/trimesh
v 0.05881169 0.08475706 0.02840838
v 0.05881169 0.07969204 0.02840838
v 0.05881169 0.08465087 0.02982261
v 0.06029607 0.08459736 0.03003674
v 0.06029607 0.08471919 0.02840838
v 0.07570751 0.07640015 0.02840838
v 0.05881169 0.08204468 0.03118136
v 0.05881169 0.08463441 0.03003674
v 0.06199532 0.08455127 0.03003674
v 0.06369458 0.08413391 0.03122776
v 0.06199532 0.08467309 0.02840838
v 0.07710416 0.07634746 0.02840838
v 0.07710416 0.07979411 0.03129861
v 0.05881169 0.08306789 0.03160303
v 0.05881169 0.08420635 0.03130801
v 0.06029607 0.08418824 0.03128858
v 0.06199532 0.08416437 0.03126350
v 0.06362474 0.08461630 0.02840838
v 0.06369458 0.08449117 0.03003674
v 0.06539204 0.08408946 0.03116976
v 0.07218546 0.08289914 0.03149455
v 0.07710416 0.08261185 0.02840838
v 0.07710416 0.08142483 0.03142903
v 0.07558217 0.08136885 0.03158954
v 0.06029607 0.08306789 0.03160804
v 0.06199532 0.08306789 0.03161055
v 0.06369458 0.08306789 0.03160961
v 0.06539204 0.08306789 0.03159707
v 0.06709129 0.08306789 0.03156635
v 0.06369458 0.08461383 0.02840838
v 0.06532220 0.08453150 0.02840838
v 0.06709129 0.08403678 0.03109451
v 0.06539204 0.08440309 0.03003674
v 0.07388471 0.08275921 0.03146602
v 0.07710416 0.08260692 0.02847453
v 0.07704149 0.08263408 0.02840838
v 0.07710416 0.08172940 0.03130613
v 0.07558217 0.08254106 0.03130770
v 0.06539204 0.08452739 0.02840838
v 0.06878875 0.08396927 0.03098103
v 0.06702146 0.08443108 0.02840838
v 0.06709129 0.08430020 0.03003674
v 0.06969299 0.08392483 0.03090045
v 0.07558217 0.08314857 0.02840838
v 0.07710416 0.08251719 0.02959908
v 0.07710416 0.08247603 0.03003674
v 0.07672277 0.08235338 0.03108919
v 0.07388471 0.08344820 0.03003674
v 0.06709129 0.08442614 0.02840838
v 0.06878875 0.08416931 0.03003674
v 0.06878875 0.08430020 0.02840838
v 0.07218904 0.08375772 0.02999253
v 0.07162501 0.08395446 0.02939687
v 0.07035012 0.08400879 0.02999253
v 0.07558217 0.08301439 0.03003674
v 0.07705761 0.08249825 0.03003674
v 0.07551234 0.08316667 0.02840838
v 0.07388471 0.08358238 0.02840838
v 0.07255969 0.08384909 0.02840838
v 0.07048084 0.08411910 0.02840838
v 0.07171991 0.08396598 0.02840838
f 1 2 7
f 1 7 14
f 1 14 15
f 1 15 8
f 1 8 3
f 1 3 4
f 1 4 5
f 1 5 11
f 1 11 18
f 1 18 30
f 1 30 31
f 1 31 39
f 1 39 41
f 1 41 49
f 1 49 51
f 1 51 60
f 1 60 61
f 1 61 59
f 1 59 58
f 1 58 57
f 1 57 44
f 1 44 36
f 1 36 22
f 1 22 12
f 1 12 6
f 1 6 2
f 2 6 7
f 3 8 4
f 4 9 11
f 4 11 5
f 4 8 10
f 4 10 9
f 6 12 13
f 6 13 7
f 7 13 14
f 8 15 16
f 8 16 17
f 8 17 10
f 9 18 11
f 9 10 19
f 9 19 30
f 9 30 18
f 10 20 19
f 10 17 21
f 10 21 20
f 12 22 35
f 12 35 45
f 12 45 46
f 12 46 37
f 12 37 23
f 12 23 13
f 13 23 24
f 13 24 14
f 14 25 15
f 14 24 25
f 15 25 26
f 15 26 27
f 15 27 28
f 15 28 16
f 16 28 29
f 16 29 17
f 17 29 21
f 19 31 30
f 19 20 32
f 19 32 33
f 19 33 31
f 20 21 32
f 21 24 34
f 21 34 32
f 21 29 28
f 21 28 24
f 22 36 35
f 23 37 38
f 23 38 34
f 23 34 24
f 24 28 27
f 24 27 26
f 24 26 25
f 31 33 39
f 32 40 33
f 32 34 40
f 33 41 39
f 33 40 42
f 33 42 41
f 34 43 40
f 34 38 43
f 35 36 44
f 35 44 45
f 37 46 47
f 37 47 38
f 38 47 48
f 38 48 43
f 40 43 42
f 41 42 49
f 42 43 50
f 42 50 51
f 42 51 49
f 43 48 52
f 43 52 53
f 43 53 54
f 43 54 50
f 44 55 56
f 44 56 45
f 44 57 55
f 45 56 46
f 46 56 47
f 47 56 55
f 47 55 48
f 48 57 58
f 48 58 59
f 48 59 53
f 48 53 52
f 48 55 57
f 50 54 53
f 50 53 51
f 51 53 60
f 53 59 61
f 53 61 60
