# https://github.com/mikedh/trimesh
v 0.01420197 -0.01618953 0.02664013
v 0.01420197 -0.01610526 0.02715254
v 0.01420197 -0.01565269 0.02552974
v 0.03309461 -0.00624548 0.02563981
v 0.03309461 -0.00639530 0.02664013
v 0.03309461 -0.00626421 0.02764717
v 0.01420197 -0.01568390 0.02777368
v 0.03309461 -0.00626109 0.02766227
v 0.01420197 -0.01538115 0.02544317
v 0.03309461 -0.00525919 0.02522236
v 0.03310942 -0.00042762 0.02495559
v 0.03310942 -0.00042762 0.02838340
v 0.01420197 -0.01555281 0.02783173
v 0.03309461 -0.00527480 0.02810354
v 0.01420197 -0.01375190 0.02506633
v 0.01443334 -0.01375190 0.02508310
v 0.03309461 -0.00356128 0.02495592
v 0.03309461 -0.00186024 0.02495559
v 0.03310942 0.00153247 0.02495559
v 0.03310942 0.00152935 0.02838340
v 0.03309461 -0.00356128 0.02838340
v 0.03309461 -0.00358312 0.02838105
v 0.03309461 -0.00525919 0.02810925
v 0.01420197 -0.01398286 0.02825320
v 0.01420197 -0.01205086 0.02495995
v 0.01443334 -0.01205086 0.02496062
v 0.01613436 -0.01035294 0.02495626
v 0.01443334 -0.01035294 0.02495559
v 0.03141580 -0.00356128 0.02495559
v 0.03141765 0.00323351 0.02495559
v 0.03310942 0.00323351 0.02495660
v 0.03310942 0.00322727 0.02838273
v 0.03141765 0.00323351 0.02838340
v 0.01420197 -0.01058703 0.02838340
v 0.01613436 -0.01035294 0.02838307
v 0.01420197 -0.01228495 0.02837871
v 0.01420197 -0.01035294 0.02495559
v 0.01431673 0.01014378 0.02495559
v 0.01613251 0.01002518 0.02495693
v 0.01431673 0.01172309 0.02496062
v 0.01431673 0.01184170 0.02496129
v 0.01431673 0.01353961 0.02509183
v 0.03310942 0.00493143 0.02524686
v 0.03310942 0.00492518 0.02808441
v 0.01443519 0.01342101 0.02824414
v 0.01431673 0.01342101 0.02825320
v 0.01443519 0.01172309 0.02837803
v 0.01431673 0.01172309 0.02837871
v 0.01613251 0.01002518 0.02838206
v 0.01443519 0.01002518 0.02838340
v 0.01420197 -0.01205086 0.02837938
v 0.01420197 -0.00042762 0.02838340
v 0.01420197 -0.00042762 0.02495559
v 0.01431673 0.01506899 0.02549350
v 0.03310942 0.00589275 0.02566363
v 0.01431673 0.01509396 0.02550390
v 0.03310942 0.00590835 0.02763744
v 0.01431673 0.01511893 0.02780254
v 0.01431673 0.01504714 0.02782703
v 0.01431673 0.01002518 0.02838340
v 0.01431673 0.01569634 0.02664013
v 0.01431673 0.01563080 0.02628745
v 0.03310942 0.00601760 0.02664013
f 1 2 7
f 1 7 13
f 1 13 24
f 1 24 36
f 1 36 51
f 1 51 34
f 1 34 52
f 1 52 53
f 1 53 37
f 1 37 25
f 1 25 15
f 1 15 9
f 1 9 3
f 1 3 4
f 1 4 5
f 1 5 6
f 1 6 2
f 2 6 8
f 2 8 7
f 3 9 10
f 3 10 4
f 4 10 11
f 4 11 5
f 5 11 12
f 5 12 6
f 6 12 8
f 7 8 14
f 7 14 13
f 8 12 14
f 9 15 16
f 9 16 10
f 10 17 11
f 10 16 17
f 11 17 18
f 11 18 29
f 11 29 28
f 11 28 37
f 11 37 53
f 11 53 38
f 11 38 30
f 11 30 19
f 11 19 31
f 11 31 43
f 11 43 55
f 11 55 63
f 11 63 57
f 11 57 44
f 11 44 32
f 11 32 20
f 11 20 12
f 12 20 33
f 12 33 50
f 12 50 60
f 12 60 52
f 12 52 34
f 12 34 21
f 12 21 22
f 12 22 23
f 12 23 14
f 13 14 23
f 13 23 24
f 15 25 26
f 15 26 17
f 15 17 16
f 17 26 25
f 17 25 27
f 17 27 28
f 17 28 29
f 17 29 18
f 19 30 31
f 20 32 33
f 21 34 35
f 21 35 36
f 21 36 24
f 21 24 22
f 22 24 23
f 25 37 28
f 25 28 27
f 30 38 31
f 31 38 39
f 31 39 40
f 31 40 41
f 31 41 42
f 31 42 43
f 32 44 45
f 32 45 46
f 32 46 47
f 32 47 48
f 32 48 49
f 32 49 50
f 32 50 33
f 34 51 35
f 35 51 36
f 38 40 39
f 38 53 40
f 40 53 41
f 41 53 42
f 42 53 54
f 42 54 43
f 43 54 56
f 43 56 55
f 44 57 58
f 44 58 59
f 44 59 45
f 45 59 46
f 46 59 52
f 46 52 48
f 46 48 47
f 48 60 50
f 48 50 49
f 48 52 60
f 52 59 58
f 52 58 61
f 52 61 53
f 53 61 62
f 53 62 56
f 53 56 54
f 55 56 62
f 55 62 61
f 55 61 63
f 57 63 61
f 57 61 58
