# https://github.com/mikedh/trimesh
v -0.06876212 -0.00043021 0.00081929
v 0.00000840 -0.00043021 0.00081929
v -0.06876212 -0.00043021 0.00276651
v -0.06876212 0.07639138 0.00081751
v -0.00098115 0.07639891 0.00081684
v 0.00000840 -0.00043021 0.00308513
v 0.00000840 0.07639891 0.00081684
v -0.06736193 -0.00043021 0.00308513
v -0.06876212 -0.00042268 0.00308513
v -0.06876212 0.07639891 0.00149337
v -0.06722057 0.07639891 0.00081751
v 0.00000840 0.07639891 0.00309764
v -0.03652425 0.07639891 0.00309764
v -0.03979584 0.07639891 0.00309741
v -0.06876212 0.07120978 0.00308513
v -0.06876212 0.07639891 0.00308312
v -0.06876212 0.07460903 0.00308402
v -0.06876212 0.07290941 0.00308469
f 1 2 6
f 1 6 8
f 1 8 3
f 1 3 9
f 1 9 15
f 1 15 18
f 1 18 17
f 1 17 16
f 1 16 10
f 1 10 4
f 1 4 5
f 1 5 7
f 1 7 2
f 2 7 12
f 2 12 6
f 3 8 9
f 4 10 11
f 4 11 5
f 5 11 10
f 5 10 16
f 5 16 14
f 5 14 13
f 5 13 12
f 5 12 7
f 6 12 13
f 6 13 8
f 8 13 9
f 9 13 14
f 9 14 15
f 14 16 17
f 14 17 18
f 14 18 15
