# https://github.com/mikedh/trimesh
v 0.05389082 -0.07442157 0.02495525
v 0.05389082 -0.07442157 0.02838340
v 0.05389082 -0.07150620 0.02495525
v 0.06863271 -0.07442157 0.02495525
v 0.06863271 -0.07442157 0.02838340
v 0.05389082 -0.07111459 0.02838340
v 0.05389082 -0.06980678 0.02497606
v 0.05520108 -0.06980678 0.02495660
v 0.06709012 -0.05961751 0.02495525
v 0.06863271 -0.05961751 0.02495525
v 0.06863271 -0.05807521 0.02838340
v 0.05389082 -0.06980678 0.02836327
v 0.06863271 -0.05637579 0.02837971
v 0.05389082 -0.06807593 0.02534119
v 0.06863271 -0.05124369 0.02545429
v 0.06863271 -0.05282223 0.02519118
v 0.06863271 -0.05452649 0.02502808
v 0.06863271 -0.05622108 0.02497203
v 0.06863271 -0.05791808 0.02495693
v 0.05389082 -0.06941758 0.02833105
v 0.06863271 -0.05467879 0.02833877
v 0.05389082 -0.06751026 0.02556839
v 0.06786069 -0.05177551 0.02570867
v 0.06863271 -0.04972557 0.02663996
v 0.05389082 -0.06806868 0.02797833
v 0.06863271 -0.05298178 0.02817164
v 0.06863271 -0.05129445 0.02787900
v 0.05389082 -0.06713074 0.02663996
v 0.05412747 -0.06713557 0.02567511
v 0.06863271 -0.05020663 0.02716484
v 0.05389082 -0.06722501 0.02739909
v 0.05410727 -0.06712348 0.02761991
v 0.05389082 -0.06778343 0.02788101
v 0.06863271 -0.05122193 0.02785853
v 0.05389082 -0.06746917 0.02772529
f 1 2 6
f 1 6 12
f 1 12 20
f 1 20 25
f 1 25 33
f 1 33 35
f 1 35 31
f 1 31 28
f 1 28 22
f 1 22 14
f 1 14 7
f 1 7 3
f 1 3 9
f 1 9 10
f 1 10 4
f 1 4 5
f 1 5 2
f 2 5 11
f 2 11 6
f 3 7 8
f 3 8 9
f 4 10 19
f 4 19 18
f 4 18 17
f 4 17 16
f 4 16 15
f 4 15 24
f 4 24 30
f 4 30 34
f 4 34 27
f 4 27 26
f 4 26 21
f 4 21 13
f 4 13 11
f 4 11 5
f 6 11 13
f 6 13 12
f 7 14 15
f 7 15 16
f 7 16 17
f 7 17 18
f 7 18 8
f 8 18 19
f 8 19 9
f 9 19 10
f 12 13 21
f 12 21 20
f 14 22 15
f 15 23 24
f 15 22 23
f 20 21 26
f 20 26 27
f 20 27 25
f 22 28 29
f 22 29 24
f 22 24 23
f 24 29 28
f 24 28 31
f 24 31 32
f 24 32 30
f 25 27 34
f 25 34 33
f 30 32 35
f 30 35 34
f 31 35 32
f 33 34 35
