# https://github.com/mikedh/trimesh
v -0.05973701 0.01401677 0.02663426
v -0.05973701 0.01327717 0.02542979
v -0.05973701 0.01400687 0.02665406
v -0.05973281 0.01401253 0.02663996
v -0.03825311 0.00562095 0.02663996
v -0.05973701 0.01301414 0.02534220
v -0.03825311 0.00484317 0.02538381
v -0.05973701 0.01329414 0.02788000
v -0.03825311 0.00560964 0.02666010
v -0.05973701 0.01176686 0.02509218
v -0.03825311 0.00326356 0.02497270
v -0.03825311 0.00323386 0.02496499
v -0.05973701 0.01176969 0.02823977
v -0.03825311 0.00323386 0.02837401
v -0.03825311 0.00483468 0.02793437
v -0.03825311 0.00486580 0.02792531
v -0.05973701 0.01115736 0.02498143
v -0.03825311 0.00153547 0.02495525
v -0.05973701 0.00945896 0.02495525
v -0.05973701 0.01002604 0.02496062
v -0.05973701 0.01002604 0.02837837
v -0.05860761 0.01002604 0.02836797
v -0.04162239 0.00323386 0.02838105
v -0.03825311 0.00153547 0.02838340
v -0.03825311 -0.00042455 0.02495525
v -0.05973701 -0.00043020 0.02495525
v -0.05973701 0.00832764 0.02838340
v -0.05860761 0.00832764 0.02838340
v -0.04332175 0.00323386 0.02838340
v -0.03825311 -0.00043020 0.02838340
v -0.03825311 -0.00043020 0.02532710
v -0.03965803 -0.00043020 0.02495525
v -0.05973701 -0.00043020 0.02838340
f 1 2 6
f 1 6 10
f 1 10 17
f 1 17 20
f 1 20 19
f 1 19 26
f 1 26 33
f 1 33 27
f 1 27 21
f 1 21 13
f 1 13 8
f 1 8 3
f 1 3 4
f 1 4 5
f 1 5 2
f 2 5 7
f 2 7 6
f 3 8 9
f 3 9 5
f 3 5 4
f 5 9 16
f 5 16 15
f 5 15 14
f 5 14 24
f 5 24 30
f 5 30 31
f 5 31 25
f 5 25 18
f 5 18 12
f 5 12 11
f 5 11 7
f 6 7 11
f 6 11 12
f 6 12 10
f 8 13 14
f 8 14 15
f 8 15 16
f 8 16 9
f 10 12 17
f 12 18 19
f 12 19 20
f 12 20 17
f 13 21 22
f 13 22 14
f 14 23 24
f 14 22 21
f 14 21 23
f 18 25 32
f 18 32 26
f 18 26 19
f 21 27 28
f 21 28 29
f 21 29 24
f 21 24 23
f 24 29 28
f 24 28 27
f 24 27 33
f 24 33 30
f 25 31 32
f 26 32 31
f 26 31 30
f 26 30 33
