# https://github.com/mikedh/trimesh
v -0.05976994 -0.06294825 0.02663996
v -0.05983340 -0.06294825 0.02639263
v -0.06042125 -0.06294825 0.02782664
v -0.04299296 -0.07102963 0.02663996
v -0.06043795 -0.06294825 0.02548483
v -0.06200443 -0.06294825 0.02824413
v -0.04515396 -0.07102963 0.02777093
v -0.04545122 -0.07056845 0.02758937
v -0.04521074 -0.07102963 0.02553987
v -0.04551134 -0.07058031 0.02570666
v -0.06048805 -0.06294825 0.02546302
v -0.06370116 -0.06294825 0.02837602
v -0.06200443 -0.06301391 0.02826057
v -0.04672043 -0.07102963 0.02797833
v -0.04561822 -0.07102963 0.02547174
v -0.06206789 -0.06294825 0.02507540
v -0.06370116 -0.06301391 0.02838005
v -0.05351406 -0.06980746 0.02835823
v -0.04841717 -0.07102963 0.02815251
v -0.06540124 -0.06294825 0.02838340
v -0.04732832 -0.07102963 0.02526166
v -0.06370116 -0.06294825 0.02496297
v -0.04888144 -0.07102963 0.02513010
v -0.05059153 -0.07102963 0.02501130
v -0.06030435 -0.06641068 0.02838307
v -0.05521080 -0.06980746 0.02838240
v -0.05351406 -0.07102963 0.02837636
v -0.05181398 -0.07102963 0.02833508
v -0.05012059 -0.07102963 0.02824581
v -0.07711473 -0.06294825 0.02838340
v -0.05861095 -0.06810907 0.02838340
v -0.06376796 -0.06294825 0.02495895
v -0.05229161 -0.07102963 0.02496264
v -0.05521080 -0.07102963 0.02838340
v -0.07711473 -0.06294825 0.02495525
v -0.07711473 -0.07102963 0.02838340
v -0.06546470 -0.06294825 0.02495525
v -0.05521080 -0.06980746 0.02495660
v -0.05399168 -0.07102963 0.02495559
v -0.07711473 -0.07102963 0.02495525
v -0.05861095 -0.06810907 0.02495525
v -0.05568842 -0.07102963 0.02495525
v -0.05691087 -0.06980746 0.02495525
f 1 2 5
f 1 5 11
f 1 11 16
f 1 16 22
f 1 22 32
f 1 32 37
f 1 37 35
f 1 35 30
f 1 30 20
f 1 20 12
f 1 12 6
f 1 6 3
f 1 3 4
f 1 4 2
f 2 4 5
f 3 6 7
f 3 7 8
f 3 8 4
f 4 8 7
f 4 7 14
f 4 14 19
f 4 19 29
f 4 29 28
f 4 28 27
f 4 27 34
f 4 34 36
f 4 36 40
f 4 40 42
f 4 42 39
f 4 39 33
f 4 33 24
f 4 24 23
f 4 23 21
f 4 21 15
f 4 15 9
f 4 9 10
f 4 10 5
f 5 10 11
f 6 12 13
f 6 13 7
f 7 13 14
f 9 15 16
f 9 16 11
f 9 11 10
f 12 17 18
f 12 18 19
f 12 19 13
f 12 20 17
f 13 19 14
f 15 21 16
f 16 21 23
f 16 23 24
f 16 24 22
f 17 25 26
f 17 26 18
f 17 20 25
f 18 26 27
f 18 27 28
f 18 28 29
f 18 29 19
f 20 30 36
f 20 36 34
f 20 34 31
f 20 31 25
f 22 24 32
f 24 33 32
f 25 31 26
f 26 34 27
f 26 31 34
f 30 35 40
f 30 40 36
f 32 33 38
f 32 38 37
f 33 39 38
f 35 37 41
f 35 41 43
f 35 43 42
f 35 42 40
f 37 38 39
f 37 39 41
f 39 42 43
f 39 43 41
