# https://github.com/mikedh/trimesh
v 0.08237775 -0.07320507 0.03158013
v 0.08148680 -0.07441984 0.03142621
v 0.08237775 -0.07441984 0.03155037
v 0.08367004 -0.07150579 0.03142111
v 0.08389873 -0.06640967 0.03150104
v 0.08406301 -0.05791844 0.03144152
v 0.08278038 -0.05674347 0.03143811
v 0.08119755 -0.07441984 0.03130375
v 0.08270758 -0.07441984 0.03147553
v 0.08354055 -0.07320507 0.03131481
v 0.08427688 -0.07150579 0.03003666
v 0.08459834 -0.06810895 0.03003666
v 0.08478774 -0.06471212 0.03031559
v 0.08482253 -0.06301456 0.03051288
v 0.08488437 -0.05961772 0.03075864
v 0.08491207 -0.05791844 0.03084794
v 0.08492303 -0.05694767 0.03088025
v 0.08492432 -0.05674347 0.03088280
v 0.08393803 -0.06471212 0.03148574
v 0.08419636 -0.05674347 0.03136073
v 0.08397346 -0.06301456 0.03147213
v 0.07868062 -0.05674347 0.02838348
v 0.07868062 -0.07441984 0.02842770
v 0.08339689 -0.07441984 0.03113197
v 0.08400374 -0.07320507 0.03003666
v 0.08444116 -0.07150579 0.02833756
v 0.08465439 -0.06980651 0.02833756
v 0.08494364 -0.06586285 0.02928405
v 0.08477099 -0.06642178 0.02992440
v 0.08497907 -0.06471212 0.02946689
v 0.08501708 -0.06301456 0.02966333
v 0.08504091 -0.06131528 0.02978749
v 0.08506476 -0.05961772 0.02990910
v 0.08508215 -0.05791844 0.02999839
v 0.08506669 -0.05674347 0.03014806
v 0.08496748 -0.05674347 0.03066170
v 0.07868062 -0.05674347 0.02495552
v 0.07868062 -0.07441984 0.02488834
v 0.08352831 -0.07441984 0.03076885
v 0.08372157 -0.07441984 0.03003666
v 0.08387618 -0.07441984 0.02833756
v 0.08415384 -0.07320507 0.02833756
v 0.08444309 -0.07150579 0.02664016
v 0.08465955 -0.06980651 0.02664016
v 0.08482318 -0.06810895 0.02664016
v 0.08481415 -0.06810895 0.02833756
v 0.08489791 -0.06687688 0.02833756
v 0.08495395 -0.06602898 0.02833756
v 0.08503448 -0.06471212 0.02833756
v 0.08511049 -0.06301456 0.02833756
v 0.08515817 -0.06131528 0.02833756
v 0.08520520 -0.05961772 0.02833756
v 0.08524062 -0.05791844 0.02833756
v 0.08520455 -0.05674347 0.02885120
v 0.08231010 -0.05674347 0.02289330
v 0.08072599 -0.07441984 0.02289330
v 0.08387618 -0.07441984 0.02615799
v 0.08415448 -0.07320507 0.02664016
v 0.08444502 -0.07150579 0.02494191
v 0.08465826 -0.06980651 0.02494191
v 0.08481996 -0.06810895 0.02494191
v 0.08490177 -0.06693053 0.02494191
v 0.08490242 -0.06690457 0.02664016
v 0.08495588 -0.06605666 0.02664016
v 0.08503834 -0.06471212 0.02664016
v 0.08511758 -0.06301456 0.02494191
v 0.08521292 -0.05961772 0.02494191
v 0.08520905 -0.05961772 0.02664016
v 0.08524836 -0.05791844 0.02494191
v 0.08526188 -0.05674347 0.02494191
v 0.08525351 -0.05674347 0.02833756
v 0.08524964 -0.05674347 0.02289330
v 0.08385557 -0.07441984 0.02289330
v 0.08387554 -0.07441984 0.02494191
v 0.08415448 -0.07320507 0.02494191
v 0.08443536 -0.07150579 0.02324282
v 0.08464666 -0.06980651 0.02324282
v 0.08480578 -0.06810895 0.02324282
v 0.08489404 -0.06686823 0.02324282
v 0.08495331 -0.06601859 0.02324282
v 0.08495717 -0.06608088 0.02494191
v 0.08504091 -0.06471212 0.02494191
v 0.08511049 -0.06301456 0.02324282
v 0.08515945 -0.06131528 0.02324282
v 0.08520713 -0.05961772 0.02324282
v 0.08524256 -0.05791844 0.02324282
v 0.08525544 -0.05674347 0.02324282
v 0.08525351 -0.05674347 0.02310675
v 0.08523612 -0.05791844 0.02289330
v 0.08413580 -0.07320507 0.02289330
v 0.08386330 -0.07441984 0.02324282
v 0.08387232 -0.07441984 0.02445974
v 0.08414353 -0.07320507 0.02324282
v 0.08447272 -0.07115624 0.02289330
v 0.08442827 -0.07150579 0.02289330
v 0.08464022 -0.06980651 0.02289330
v 0.08467307 -0.06945696 0.02289330
v 0.08479934 -0.06810895 0.02289330
v 0.08489082 -0.06681632 0.02289330
v 0.08495073 -0.06596841 0.02289330
v 0.08503383 -0.06471212 0.02324282
v 0.08510470 -0.06301456 0.02289330
v 0.08516332 -0.06096573 0.02289330
v 0.08520133 -0.05961772 0.02289330
v 0.08419636 -0.07285380 0.02289330
v 0.08502739 -0.06471212 0.02289330
v 0.08504350 -0.06436257 0.02289330
f 1 2 3
f 1 3 4
f 1 4 5
f 1 5 6
f 1 6 7
f 1 7 2
f 2 8 23
f 2 23 38
f 2 38 56
f 2 56 73
f 2 73 91
f 2 91 92
f 2 92 74
f 2 74 57
f 2 57 41
f 2 41 40
f 2 40 39
f 2 39 24
f 2 24 9
f 2 9 3
f 2 7 8
f 3 9 4
f 4 9 10
f 4 10 11
f 4 11 12
f 4 12 13
f 4 13 14
f 4 14 15
f 4 15 16
f 4 16 5
f 5 16 17
f 5 17 18
f 5 18 19
f 5 19 6
f 6 20 7
f 6 19 21
f 6 21 20
f 7 20 18
f 7 18 36
f 7 36 35
f 7 35 54
f 7 54 71
f 7 71 70
f 7 70 87
f 7 87 88
f 7 88 72
f 7 72 55
f 7 55 37
f 7 37 22
f 7 22 8
f 8 22 23
f 9 24 10
f 10 25 11
f 10 24 25
f 11 25 26
f 11 26 27
f 11 27 28
f 11 28 12
f 12 28 29
f 12 29 13
f 13 30 31
f 13 31 14
f 13 29 30
f 14 31 15
f 15 31 32
f 15 32 33
f 15 33 16
f 16 33 34
f 16 34 17
f 17 34 35
f 17 35 36
f 17 36 18
f 18 20 21
f 18 21 19
f 22 37 38
f 22 38 23
f 24 39 25
f 25 39 40
f 25 40 41
f 25 41 42
f 25 42 26
f 26 42 43
f 26 43 44
f 26 44 27
f 27 44 45
f 27 45 46
f 27 46 28
f 28 46 47
f 28 47 48
f 28 48 49
f 28 49 50
f 28 50 30
f 28 30 29
f 30 50 31
f 31 50 51
f 31 51 52
f 31 52 53
f 31 53 32
f 32 53 33
f 33 53 34
f 34 53 54
f 34 54 35
f 37 55 56
f 37 56 38
f 41 57 75
f 41 75 58
f 41 58 42
f 42 58 59
f 42 59 43
f 43 59 44
f 44 60 45
f 44 59 60
f 45 61 62
f 45 62 63
f 45 63 48
f 45 48 47
f 45 47 46
f 45 60 61
f 48 63 64
f 48 64 65
f 48 65 49
f 49 65 50
f 50 65 66
f 50 66 67
f 50 67 51
f 51 67 68
f 51 68 52
f 52 68 53
f 53 68 69
f 53 69 70
f 53 70 71
f 53 71 54
f 55 72 89
f 55 89 104
f 55 104 103
f 55 103 102
f 55 102 107
f 55 107 106
f 55 106 100
f 55 100 99
f 55 99 98
f 55 98 97
f 55 97 96
f 55 96 94
f 55 94 95
f 55 95 105
f 55 105 90
f 55 90 73
f 55 73 56
f 57 74 75
f 58 75 59
f 59 75 76
f 59 76 60
f 60 77 61
f 60 76 77
f 61 78 79
f 61 79 80
f 61 80 62
f 61 77 78
f 62 80 81
f 62 81 63
f 63 81 64
f 64 81 65
f 65 82 66
f 65 81 82
f 66 83 84
f 66 84 85
f 66 85 67
f 66 82 101
f 66 101 83
f 67 85 86
f 67 86 69
f 67 69 68
f 69 86 70
f 70 86 87
f 72 88 86
f 72 86 89
f 73 90 93
f 73 93 91
f 74 92 93
f 74 93 75
f 75 93 76
f 76 94 77
f 76 93 95
f 76 95 94
f 77 96 97
f 77 97 78
f 77 94 96
f 78 97 98
f 78 98 79
f 79 99 100
f 79 100 80
f 79 98 99
f 80 100 101
f 80 101 81
f 81 101 82
f 83 102 84
f 83 101 102
f 84 103 104
f 84 104 85
f 84 102 103
f 85 104 86
f 86 88 87
f 86 104 89
f 90 105 93
f 91 93 92
f 93 105 95
f 100 106 101
f 101 106 107
f 101 107 102
