# https://github.com/mikedh/trimesh
v -0.04608626 0.06990045 0.02663996
v -0.04671858 0.06990045 0.02611441
v -0.04620770 0.06990045 0.02692992
v -0.06034619 0.06204334 0.02704235
v -0.06034619 0.06196331 0.02663996
v -0.06034619 0.06271623 0.02543449
v -0.04777942 0.06990045 0.02547141
v -0.04701590 0.06990045 0.02757125
v -0.06034619 0.06268981 0.02787933
v -0.06034619 0.06276207 0.02542039
v -0.05181341 0.06947853 0.02509386
v -0.04841732 0.06990045 0.02540429
v -0.06030571 0.06438369 0.02504016
v -0.04763844 0.06990045 0.02782664
v -0.06034619 0.06270690 0.02788504
v -0.06034619 0.06438369 0.02503815
v -0.05351075 0.06947853 0.02497774
v -0.05181341 0.06990045 0.02505962
v -0.04827774 0.06990045 0.02790316
v -0.06034619 0.06434406 0.02829783
v -0.06034619 0.06608145 0.02495559
v -0.06030571 0.06608145 0.02495559
v -0.05860697 0.06608145 0.02500190
v -0.05520949 0.06947853 0.02495592
v -0.05351075 0.06990045 0.02497203
v -0.05139326 0.06990045 0.02827500
v -0.06034619 0.06438369 0.02830017
v -0.05351075 0.06947853 0.02836125
v -0.06034619 0.06777999 0.02495525
v -0.05860697 0.06777999 0.02495525
v -0.05520949 0.06990045 0.02495592
v -0.05690823 0.06947853 0.02495525
v -0.05309060 0.06990045 0.02836696
v -0.06034619 0.06604183 0.02838340
v -0.05860697 0.06608145 0.02833608
v -0.06034619 0.06990045 0.02495525
v -0.05690823 0.06990045 0.02495525
v -0.05478795 0.06990045 0.02838307
v -0.05520949 0.06947853 0.02838307
v -0.06030571 0.06608145 0.02838340
v -0.06034619 0.06990045 0.02838340
v -0.05648669 0.06990045 0.02838340
v -0.05690823 0.06947853 0.02838340
f 1 2 7
f 1 7 12
f 1 12 18
f 1 18 25
f 1 25 31
f 1 31 37
f 1 37 36
f 1 36 41
f 1 41 42
f 1 42 38
f 1 38 33
f 1 33 26
f 1 26 19
f 1 19 14
f 1 14 8
f 1 8 3
f 1 3 4
f 1 4 5
f 1 5 6
f 1 6 2
f 2 6 7
f 3 8 4
f 4 9 15
f 4 15 20
f 4 20 27
f 4 27 34
f 4 34 41
f 4 41 36
f 4 36 29
f 4 29 21
f 4 21 16
f 4 16 10
f 4 10 6
f 4 6 5
f 4 8 9
f 6 10 7
f 7 11 12
f 7 10 13
f 7 13 11
f 8 14 9
f 9 14 15
f 10 16 13
f 11 17 18
f 11 18 12
f 11 13 17
f 13 16 17
f 14 19 20
f 14 20 15
f 16 21 22
f 16 22 23
f 16 23 17
f 17 24 25
f 17 25 18
f 17 23 22
f 17 22 24
f 19 26 20
f 20 26 28
f 20 28 27
f 21 29 30
f 21 30 22
f 22 30 24
f 24 31 25
f 24 30 32
f 24 32 37
f 24 37 31
f 26 33 28
f 27 28 35
f 27 35 34
f 28 33 34
f 28 34 35
f 29 36 37
f 29 37 32
f 29 32 30
f 33 38 39
f 33 39 34
f 34 40 43
f 34 43 42
f 34 42 41
f 34 39 40
f 38 42 43
f 38 43 39
f 39 43 40
