# https://github.com/mikedh/trimesh
v -0.04841192 0.08395900 0.00394113
v -0.04671516 0.08395826 0.00394113
v -0.04841192 0.08387686 0.00116044
v -0.05095707 0.08395900 0.00394113
v -0.04671516 0.08387611 0.00116044
v -0.04501839 0.08395160 0.00394113
v -0.04671516 0.08304729 -0.00031100
v -0.05181240 0.08387686 0.00116044
v -0.05181240 0.08395826 0.00394113
v -0.04501839 0.08386723 0.00116044
v -0.04501839 0.08304285 -0.00031100
v -0.04446903 0.08394420 0.00394113
v -0.05010868 0.08304729 -0.00031100
v -0.06709717 0.08136891 -0.00087534
v -0.05181240 0.08304729 -0.00031053
v -0.05350916 0.08304433 -0.00031053
v -0.05350916 0.08387093 0.00116044
v -0.05350916 0.08395308 0.00394113
v -0.05265383 0.08395604 0.00394113
v -0.04414220 0.08392273 0.00356914
v 0.00000840 0.08216074 0.00394113
v 0.00000840 0.08209858 0.00285865
v 0.00000840 0.08168490 0.00211468
v 0.00000840 0.08128381 0.00139428
v -0.04501839 0.08136891 -0.00061792
v -0.04671516 0.08136891 -0.00064385
v 0.00000840 0.07967130 0.00077997
v -0.04409352 0.08393162 0.00394113
v -0.07103310 0.07959729 -0.00031241
v -0.06879393 0.08136891 -0.00086497
v -0.06030317 0.08298586 -0.00030959
v -0.05860640 0.08300955 -0.00031006
v -0.05690269 0.08302583 -0.00031053
v -0.05520592 0.08303619 -0.00031053
v 0.00000840 0.07639891 0.00081721
v -0.05520592 0.08385539 0.00116044
v -0.05520592 0.08393901 0.00394113
v -0.05430887 0.08394715 0.00394113
v 0.00000840 0.07905856 0.00394113
v 0.00000840 0.07797294 0.00079930
v -0.07065064 0.07639891 0.00079694
v -0.07103310 0.07639891 0.00079694
v -0.07103310 0.08136891 -0.00081452
v -0.07049765 0.08136891 -0.00083432
v -0.06709717 0.08284526 -0.00030204
v -0.06540041 0.08288892 -0.00030581
v -0.06369669 0.08292962 -0.00030770
v -0.06199993 0.08295997 -0.00030864
v -0.05690269 0.08383615 0.00116044
v 0.00000840 0.07639891 0.00309768
v -0.05679837 0.08392273 0.00394113
v -0.05638114 0.08392718 0.00394113
v -0.05588741 0.08393236 0.00394113
v -0.03756377 0.07905707 0.00394113
v -0.07103310 0.07639891 0.00308353
v -0.07103310 0.08263213 -0.00019361
v -0.07049765 0.08266321 -0.00021435
v -0.06879393 0.08276016 -0.00026150
v -0.06709717 0.08346466 0.00116044
v -0.06540041 0.08356086 0.00116044
v -0.06369669 0.08364819 0.00116044
v -0.06199993 0.08371109 0.00116044
v -0.06030317 0.08376141 0.00116044
v -0.05860640 0.08380655 0.00116044
v -0.05744509 0.08391386 0.00394113
v -0.05720171 0.08391756 0.00394113
v -0.03483086 0.07639891 0.00309768
v -0.03821744 0.07905707 0.00394113
v -0.03979598 0.07639891 0.00309721
v -0.03992115 0.07908002 0.00394113
v -0.07103310 0.07954253 0.00394113
v -0.07103310 0.08303693 0.00116044
v -0.07049765 0.08310797 0.00116044
v -0.06879393 0.08330630 0.00116044
v -0.06879393 0.08339584 0.00394113
v -0.06818198 0.08344838 0.00394113
v -0.06709717 0.08353941 0.00394113
v -0.06647827 0.08357788 0.00394113
v -0.06540041 0.08364227 0.00394113
v -0.06478151 0.08367483 0.00394113
v -0.06369669 0.08372811 0.00394113
v -0.06308474 0.08375031 0.00394113
v -0.06199993 0.08378953 0.00394113
v -0.06029621 0.08384355 0.00394113
v -0.05860640 0.08388944 0.00394113
v -0.07103310 0.08311537 0.00394113
v -0.07049765 0.08319455 0.00394113
v -0.06987875 0.08326781 0.00394113
f 1 2 5
f 1 5 3
f 1 3 8
f 1 8 4
f 1 4 9
f 1 9 19
f 1 19 18
f 1 18 38
f 1 38 37
f 1 37 53
f 1 53 52
f 1 52 51
f 1 51 66
f 1 66 65
f 1 65 85
f 1 85 84
f 1 84 83
f 1 83 82
f 1 82 81
f 1 81 80
f 1 80 79
f 1 79 78
f 1 78 77
f 1 77 76
f 1 76 75
f 1 75 88
f 1 88 87
f 1 87 86
f 1 86 71
f 1 71 70
f 1 70 68
f 1 68 54
f 1 54 39
f 1 39 21
f 1 21 28
f 1 28 12
f 1 12 6
f 1 6 2
f 2 6 5
f 3 5 7
f 3 7 13
f 3 13 8
f 4 8 9
f 5 6 10
f 5 10 11
f 5 11 7
f 6 12 10
f 7 11 14
f 7 14 13
f 8 13 15
f 8 15 16
f 8 16 17
f 8 17 18
f 8 18 19
f 8 19 9
f 10 12 20
f 10 20 21
f 10 21 22
f 10 22 23
f 10 23 24
f 10 24 11
f 11 25 26
f 11 26 14
f 11 24 27
f 11 27 25
f 12 28 20
f 13 14 15
f 14 29 30
f 14 30 31
f 14 31 32
f 14 32 33
f 14 33 34
f 14 34 16
f 14 16 15
f 14 26 35
f 14 35 29
f 16 34 17
f 17 34 33
f 17 33 36
f 17 36 37
f 17 37 38
f 17 38 18
f 20 28 21
f 21 39 50
f 21 50 35
f 21 35 40
f 21 40 27
f 21 27 24
f 21 24 23
f 21 23 22
f 25 27 40
f 25 40 35
f 25 35 26
f 29 41 42
f 29 42 55
f 29 55 71
f 29 71 86
f 29 86 72
f 29 72 56
f 29 56 43
f 29 43 44
f 29 44 30
f 29 35 41
f 30 45 46
f 30 46 47
f 30 47 48
f 30 48 31
f 30 44 45
f 31 48 49
f 31 49 32
f 32 49 36
f 32 36 33
f 35 50 67
f 35 67 69
f 35 69 55
f 35 55 42
f 35 42 41
f 36 49 51
f 36 51 52
f 36 52 53
f 36 53 37
f 39 54 50
f 43 56 57
f 43 57 58
f 43 58 45
f 43 45 44
f 45 58 59
f 45 59 60
f 45 60 61
f 45 61 62
f 45 62 63
f 45 63 46
f 46 63 64
f 46 64 47
f 47 64 48
f 48 64 49
f 49 64 65
f 49 65 66
f 49 66 51
f 50 54 68
f 50 68 67
f 55 69 68
f 55 68 70
f 55 70 71
f 56 72 73
f 56 73 74
f 56 74 59
f 56 59 57
f 57 59 58
f 59 74 75
f 59 75 76
f 59 76 77
f 59 77 78
f 59 78 79
f 59 79 60
f 60 79 80
f 60 80 61
f 61 80 81
f 61 81 62
f 62 81 82
f 62 82 83
f 62 83 84
f 62 84 63
f 63 84 85
f 63 85 64
f 64 85 65
f 67 68 69
f 72 86 87
f 72 87 73
f 73 87 88
f 73 88 75
f 73 75 74
