# https://github.com/mikedh/trimesh
v 0.05444855 -0.00043020 0.02838340
v 0.05444855 -0.00526058 0.02838340
v 0.05444855 -0.00043020 0.02495525
v 0.03309511 -0.00043020 0.02838340
v 0.05444855 -0.00695795 0.02838139
v 0.05010261 -0.00526058 0.02838340
v 0.05444855 -0.00620941 0.02495525
v 0.03309511 -0.00043020 0.02495525
v 0.03309511 -0.00356222 0.02838340
v 0.05349951 -0.00695795 0.02837904
v 0.05444855 -0.00865731 0.02824984
v 0.05444855 -0.00695795 0.02495760
v 0.03309511 -0.00356222 0.02495559
v 0.03309511 -0.00186385 0.02495525
v 0.03309511 -0.00358502 0.02838105
v 0.05444855 -0.01009889 0.02780013
v 0.03309511 -0.00526058 0.02810955
v 0.05444855 -0.00790777 0.02498311
v 0.05349951 -0.00695795 0.02495995
v 0.03309511 -0.00526058 0.02522206
v 0.05444855 -0.00865731 0.02508513
v 0.05444855 -0.01055893 0.02663996
v 0.03309511 -0.00527545 0.02810385
v 0.03309511 -0.00625997 0.02766254
v 0.03309511 -0.00624411 0.02563954
v 0.05444855 -0.00958135 0.02531804
v 0.05444855 -0.01008303 0.02550765
v 0.05444855 -0.01047366 0.02630705
v 0.03309511 -0.00626394 0.02764743
v 0.03309511 -0.00639580 0.02663996
f 1 2 5
f 1 5 11
f 1 11 16
f 1 16 22
f 1 22 28
f 1 28 27
f 1 27 26
f 1 26 21
f 1 21 18
f 1 18 12
f 1 12 7
f 1 7 3
f 1 3 8
f 1 8 4
f 1 4 9
f 1 9 6
f 1 6 2
f 2 6 5
f 3 7 14
f 3 14 8
f 4 8 14
f 4 14 13
f 4 13 20
f 4 20 25
f 4 25 30
f 4 30 29
f 4 29 24
f 4 24 23
f 4 23 17
f 4 17 15
f 4 15 9
f 5 10 11
f 5 6 9
f 5 9 10
f 7 12 13
f 7 13 14
f 9 15 11
f 9 11 10
f 11 15 17
f 11 17 16
f 12 18 19
f 12 19 13
f 13 19 18
f 13 18 21
f 13 21 20
f 16 17 23
f 16 23 24
f 16 24 22
f 20 21 26
f 20 26 27
f 20 27 25
f 22 24 29
f 22 29 30
f 22 30 25
f 22 25 28
f 25 27 28
