# https://github.com/mikedh/trimesh
v -0.07711386 -0.04071443 0.02495048
v -0.07711386 -0.04071443 0.02838374
v -0.07711386 -0.03940989 0.02494576
v -0.07389483 -0.04071443 0.02495553
v -0.07389483 -0.04071443 0.02838374
v -0.07711386 -0.02649251 0.02838374
v -0.07711386 -0.03771133 0.02494340
v -0.07241435 -0.04071443 0.02501414
v -0.07219725 -0.02904174 0.02495553
v -0.07219725 -0.03074029 0.02495991
v -0.07049880 -0.02649251 0.02498416
v -0.07219725 -0.04071443 0.02831267
v -0.07049880 -0.02649251 0.02835376
v -0.07134628 -0.02649251 0.02838003
v -0.07219725 -0.02904174 0.02838374
v -0.07219725 -0.02649251 0.02838374
v -0.07711386 -0.02649251 0.02494340
v -0.07711386 -0.03431422 0.02494273
v -0.07219725 -0.04071443 0.02502424
v -0.07219725 -0.02649251 0.02495553
v -0.06889626 -0.02649251 0.02539576
v -0.07049880 -0.02734318 0.02500572
v -0.07091644 -0.04071443 0.02786536
v -0.06887534 -0.02649251 0.02791488
v -0.06954844 -0.02649251 0.02812775
v -0.07049880 -0.02734318 0.02833119
v -0.07711386 -0.03413601 0.02494273
v -0.07109518 -0.04071443 0.02538869
v -0.06820834 -0.02649251 0.02663999
v -0.07093737 -0.04071443 0.02544190
v -0.07050578 -0.04071443 0.02663999
v -0.06833476 -0.02649251 0.02693168
v -0.07055722 -0.04071443 0.02648842
f 1 2 6
f 1 6 17
f 1 17 27
f 1 27 18
f 1 18 7
f 1 7 3
f 1 3 4
f 1 4 8
f 1 8 19
f 1 19 28
f 1 28 30
f 1 30 33
f 1 33 31
f 1 31 23
f 1 23 12
f 1 12 5
f 1 5 2
f 2 5 15
f 2 15 16
f 2 16 6
f 3 7 4
f 4 7 9
f 4 9 10
f 4 10 11
f 4 11 8
f 5 12 13
f 5 13 14
f 5 14 15
f 6 16 14
f 6 14 13
f 6 13 25
f 6 25 24
f 6 24 32
f 6 32 29
f 6 29 21
f 6 21 11
f 6 11 20
f 6 20 17
f 7 18 9
f 8 11 19
f 9 20 11
f 9 11 10
f 9 18 27
f 9 27 20
f 11 21 22
f 11 22 19
f 12 23 24
f 12 24 25
f 12 25 26
f 12 26 13
f 13 26 25
f 14 16 15
f 17 20 27
f 19 22 21
f 19 21 28
f 21 29 30
f 21 30 28
f 23 31 29
f 23 29 32
f 23 32 24
f 29 31 33
f 29 33 30
