# https://github.com/mikedh/trimesh
v 0.04504898 0.00641191 0.02663996
v 0.04504898 0.00611787 0.02776557
v 0.04504898 0.00608639 0.02551101
v 0.03311310 0.00589214 0.02566337
v 0.03311310 0.00601940 0.02663996
v 0.03311310 0.00590755 0.02763770
v 0.04504898 0.00610648 0.02779543
v 0.04504898 0.00493096 0.02509352
v 0.03311310 0.00493096 0.02524655
v 0.03311310 0.00492627 0.02808472
v 0.03311895 0.00493096 0.02808371
v 0.04504898 0.00496378 0.02823205
v 0.04504898 0.00323232 0.02495525
v 0.04330930 0.00323232 0.02495525
v 0.03311310 0.00323232 0.02495626
v 0.03311310 0.00322763 0.02838273
v 0.03311895 0.00323232 0.02838273
v 0.04504898 0.00493096 0.02824279
v 0.04504898 -0.00042953 0.02495525
v 0.03311310 0.00153435 0.02495525
v 0.03311310 0.00152966 0.02838340
v 0.03311895 0.00153435 0.02838340
v 0.04330930 0.00323232 0.02838340
v 0.04504898 0.00327318 0.02838206
v 0.04504898 -0.00042953 0.02785752
v 0.03311895 -0.00042953 0.02495525
v 0.03311310 -0.00042886 0.02495525
v 0.03311310 -0.00042953 0.02838340
v 0.04504898 0.00323232 0.02838340
v 0.04504898 -0.00042351 0.02838340
v 0.04500808 -0.00042953 0.02838340
v 0.03311310 -0.00042953 0.02501667
f 1 2 7
f 1 7 12
f 1 12 18
f 1 18 24
f 1 24 29
f 1 29 30
f 1 30 25
f 1 25 19
f 1 19 13
f 1 13 8
f 1 8 3
f 1 3 4
f 1 4 5
f 1 5 6
f 1 6 2
f 2 6 7
f 3 8 9
f 3 9 4
f 4 9 15
f 4 15 20
f 4 20 27
f 4 27 32
f 4 32 28
f 4 28 21
f 4 21 16
f 4 16 10
f 4 10 6
f 4 6 5
f 6 10 11
f 6 11 7
f 7 11 12
f 8 13 14
f 8 14 15
f 8 15 9
f 10 16 17
f 10 17 18
f 10 18 11
f 11 18 12
f 13 19 26
f 13 26 27
f 13 27 20
f 13 20 14
f 14 20 15
f 16 21 22
f 16 22 17
f 17 22 23
f 17 23 24
f 17 24 18
f 19 25 31
f 19 31 28
f 19 28 32
f 19 32 26
f 21 28 31
f 21 31 30
f 21 30 29
f 21 29 23
f 21 23 22
f 23 29 24
f 25 30 31
f 26 32 27
