# https://github.com/mikedh/trimesh
v -0.07960149 0.07639698 0.01764116
v -0.07816427 0.07639698 0.00381476
v -0.08295275 0.07639698 0.01764116
v -0.08220008 0.05673763 0.01764116
v -0.08222733 0.07639698 0.00381476
v -0.08079146 0.05673763 0.00382017
v -0.08083165 0.05673763 0.00381476
v -0.08291665 0.07639698 0.01688589
v -0.08325313 0.07546165 0.01526029
v -0.08328038 0.07552516 0.01644734
v -0.08330558 0.07558867 0.01764116
v -0.08512221 0.05673763 0.01764116
v -0.08225525 0.07634309 0.00381476
v -0.08466789 0.05673763 0.00381476
v -0.08268846 0.07627189 0.01135126
v -0.08277769 0.07627189 0.01304996
v -0.08290507 0.07637389 0.01644734
v -0.08292959 0.07612562 0.01471616
v -0.08322521 0.07538082 0.01412737
v -0.08353377 0.07457443 0.01644734
v -0.08358418 0.07457443 0.01764116
v -0.08229067 0.07627189 0.00381476
v -0.08511881 0.05708597 0.01764116
v -0.08508475 0.05673763 0.01644734
v -0.08494171 0.05673763 0.01203886
v -0.08465767 0.05759020 0.00381476
v -0.08342138 0.07471877 0.01471616
v -0.08257335 0.07552901 0.00381476
v -0.08295820 0.07449167 0.00381476
v -0.08309511 0.07404133 0.00381476
v -0.08321295 0.07364679 0.00381476
v -0.08324701 0.07375842 0.00518454
v -0.08341116 0.07288082 0.00381476
v -0.08373266 0.07287504 0.01135126
v -0.08380351 0.07287504 0.01304996
v -0.08370474 0.07407019 0.01764116
v -0.08511267 0.05759020 0.01764116
v -0.08507521 0.05759020 0.01644734
v -0.08505751 0.05673763 0.01559596
v -0.08502003 0.05759020 0.01474865
v -0.08493967 0.05703015 0.01208624
v -0.08496078 0.05759405 0.01294709
v -0.08493081 0.05816179 0.01231228
v -0.08463723 0.05854478 0.00381476
v -0.08331308 0.07326188 0.00381476
v -0.08375310 0.07117758 0.00381476
v -0.08387230 0.07287504 0.01474865
v -0.08394042 0.07287504 0.01644734
v -0.08398674 0.07287504 0.01764116
v -0.08508815 0.05878343 0.01764116
v -0.08503979 0.05928766 0.01644734
v -0.08495124 0.05895279 0.01344519
v -0.08462088 0.05928766 0.00381476
v -0.08385868 0.07043470 0.00381476
v -0.08398469 0.07117758 0.00965393
v -0.08405144 0.07117758 0.01135126
v -0.08411751 0.07117758 0.01304996
v -0.08418223 0.07117758 0.01474865
v -0.08407733 0.07237081 0.01764116
v -0.08507726 0.05928766 0.01764116
v -0.08497576 0.05942623 0.01460653
v -0.08502889 0.06098705 0.01764116
v -0.08499075 0.06098705 0.01644734
v -0.08493694 0.06186657 0.01557025
v -0.08494988 0.06098705 0.01518720
v -0.08459228 0.06024417 0.00381476
v -0.08399287 0.06947820 0.00381476
v -0.08427691 0.06947820 0.01135126
v -0.08424557 0.07117758 0.01644734
v -0.08428848 0.07117758 0.01764116
v -0.08498053 0.06263639 0.01764116
v -0.08494920 0.06253439 0.01657999
v -0.08493830 0.06356788 0.01723510
v -0.08456980 0.06098705 0.00381476
v -0.08407733 0.06873532 0.00381476
v -0.08418495 0.06777881 0.00381476
v -0.08440360 0.06947820 0.01474865
v -0.08446627 0.06947820 0.01644734
v -0.08450918 0.06947820 0.01764116
v -0.08494443 0.06367373 0.01764116
v -0.08442744 0.06438389 0.00381476
v -0.08446558 0.06364101 0.00381476
v -0.08451326 0.06268643 0.00381476
v -0.08453846 0.06194355 0.00381476
v -0.08463723 0.06777881 0.01644734
v -0.08463723 0.06608328 0.01304996
v -0.08458002 0.06608328 0.01135126
v -0.08462770 0.06438389 0.00965393
v -0.08424353 0.06703593 0.00381476
v -0.08445741 0.06777881 0.01135126
v -0.08451871 0.06777881 0.01304996
v -0.08457934 0.06777881 0.01474865
v -0.08455958 0.06897396 0.01764116
v -0.08467470 0.06777881 0.01764116
v -0.08436613 0.06534040 0.00381476
v -0.08431777 0.06608328 0.00381476
f 1 2 5
f 1 5 8
f 1 8 3
f 1 3 11
f 1 11 21
f 1 21 36
f 1 36 49
f 1 49 59
f 1 59 70
f 1 70 79
f 1 79 93
f 1 93 94
f 1 94 80
f 1 80 71
f 1 71 62
f 1 62 60
f 1 60 50
f 1 50 37
f 1 37 23
f 1 23 12
f 1 12 4
f 1 4 2
f 2 4 6
f 2 6 7
f 2 7 14
f 2 14 26
f 2 26 44
f 2 44 53
f 2 53 66
f 2 66 74
f 2 74 84
f 2 84 83
f 2 83 82
f 2 82 81
f 2 81 95
f 2 95 96
f 2 96 89
f 2 89 76
f 2 76 75
f 2 75 67
f 2 67 54
f 2 54 46
f 2 46 33
f 2 33 45
f 2 45 31
f 2 31 30
f 2 30 29
f 2 29 28
f 2 28 22
f 2 22 13
f 2 13 5
f 3 8 9
f 3 9 10
f 3 10 11
f 4 12 24
f 4 24 39
f 4 39 25
f 4 25 14
f 4 14 7
f 4 7 6
f 5 13 8
f 8 13 15
f 8 15 16
f 8 16 17
f 8 17 18
f 8 18 9
f 9 19 20
f 9 20 21
f 9 21 10
f 9 18 16
f 9 16 15
f 9 15 22
f 9 22 19
f 10 21 11
f 12 23 24
f 13 22 15
f 14 25 26
f 16 18 17
f 19 27 20
f 19 22 28
f 19 28 29
f 19 29 30
f 19 30 31
f 19 31 32
f 19 32 27
f 20 27 33
f 20 33 34
f 20 34 21
f 21 34 35
f 21 35 36
f 23 37 38
f 23 38 24
f 24 38 39
f 25 39 40
f 25 40 41
f 25 41 26
f 26 41 42
f 26 42 43
f 26 43 44
f 27 32 33
f 31 45 32
f 32 45 33
f 33 46 34
f 34 46 35
f 35 47 36
f 35 46 47
f 36 47 48
f 36 48 49
f 37 50 38
f 38 40 39
f 38 50 51
f 38 51 52
f 38 52 43
f 38 43 40
f 40 43 42
f 40 42 41
f 43 52 53
f 43 53 44
f 46 54 55
f 46 55 48
f 46 48 47
f 48 55 56
f 48 56 57
f 48 57 49
f 49 57 58
f 49 58 59
f 50 60 51
f 51 61 52
f 51 60 62
f 51 62 63
f 51 63 64
f 51 64 65
f 51 65 61
f 52 61 65
f 52 65 53
f 53 65 64
f 53 64 66
f 54 67 55
f 55 67 56
f 56 67 57
f 57 67 58
f 58 67 68
f 58 68 77
f 58 77 69
f 58 69 59
f 59 69 70
f 62 71 64
f 62 64 63
f 64 71 72
f 64 72 73
f 64 73 74
f 64 74 66
f 67 75 68
f 68 75 76
f 68 76 77
f 69 77 78
f 69 78 79
f 69 79 70
f 71 80 73
f 71 73 72
f 73 81 82
f 73 82 83
f 73 83 84
f 73 84 74
f 73 80 85
f 73 85 86
f 73 86 87
f 73 87 88
f 73 88 81
f 76 89 90
f 76 90 78
f 76 78 77
f 78 90 91
f 78 91 79
f 79 91 92
f 79 92 93
f 80 94 85
f 81 88 87
f 81 87 95
f 85 92 87
f 85 87 86
f 85 94 93
f 85 93 92
f 87 96 95
f 87 92 96
f 89 96 91
f 89 91 90
f 91 96 92
