# https://github.com/mikedh/trimesh
v 0.08502896 0.05901617 0.01627814
v 0.08210605 0.05901617 0.01627814
v 0.08505913 0.05758692 0.01627814
v 0.08494075 0.05894985 0.01344492
v 0.08494424 0.05901617 0.01360985
v 0.08210258 0.05901617 0.01617801
v 0.07929167 0.04059629 0.00624897
v 0.07929283 0.04060271 0.00625683
v 0.07972572 0.04032028 0.01627814
v 0.08500923 0.05758692 0.01474864
v 0.08492044 0.05816033 0.01231203
v 0.08507654 0.05605924 0.01627814
v 0.08502896 0.05588807 0.01474864
v 0.08492915 0.05702848 0.01208623
v 0.08469239 0.05901617 0.00625584
v 0.08181069 0.05901617 0.00768620
v 0.07920230 0.03889744 0.00624897
v 0.07957252 0.03890600 0.01627814
v 0.07970599 0.04014269 0.01627814
v 0.08176369 0.05901617 0.00624897
v 0.08495004 0.05759120 0.01294719
v 0.08471966 0.05758692 0.00625683
v 0.08507828 0.05588807 0.01627814
v 0.08504578 0.05419136 0.01474864
v 0.08499066 0.05419136 0.01305027
v 0.08497325 0.05588807 0.01305027
v 0.08493553 0.05588807 0.01190069
v 0.08422816 0.05901617 0.00624897
v 0.08471909 0.05758692 0.00624897
v 0.07917851 0.03716008 0.00624897
v 0.07952146 0.03720715 0.01627814
v 0.08494424 0.05419136 0.01164250
v 0.08473649 0.05588807 0.00624897
v 0.08509511 0.05419136 0.01627814
v 0.08510440 0.05266154 0.01627814
v 0.08505565 0.05249251 0.01474864
v 0.08499994 0.05249251 0.01305027
v 0.08494887 0.05249251 0.01149917
v 0.08166330 0.03716008 0.00624897
v 0.07952146 0.03716008 0.01627814
v 0.08491870 0.05249251 0.01065097
v 0.08475158 0.05419136 0.00625683
v 0.08475100 0.05419136 0.00624897
v 0.08510497 0.05249251 0.01627814
v 0.08510671 0.05079366 0.01627814
v 0.08505681 0.05079366 0.01474864
v 0.08500111 0.05079366 0.01305027
v 0.08494946 0.05079366 0.01148542
v 0.08214087 0.03716008 0.00625683
v 0.08214087 0.03716222 0.00624897
v 0.08246815 0.03716008 0.01627814
v 0.08491928 0.05079366 0.01063723
v 0.08475970 0.05249251 0.00625683
v 0.08475912 0.05249251 0.00624897
v 0.08510671 0.04739810 0.01627814
v 0.08505681 0.04739810 0.01474864
v 0.08500111 0.04739810 0.01305027
v 0.08494946 0.04739810 0.01148542
v 0.08214261 0.03716008 0.00630198
v 0.08492799 0.04144999 0.01386510
v 0.08494887 0.04140934 0.01474864
v 0.08498195 0.04133445 0.01627814
v 0.08431114 0.04230156 0.00624897
v 0.08491928 0.04739810 0.01063723
v 0.08476028 0.05079366 0.00625683
v 0.08475970 0.05079366 0.00624897
v 0.08510555 0.04569925 0.01627814
v 0.08505623 0.04569925 0.01474864
v 0.08494887 0.04569925 0.01150310
v 0.08475216 0.04400041 0.00624897
v 0.08493727 0.04300335 0.01185749
v 0.08500923 0.04230156 0.01474864
v 0.08506784 0.04230156 0.01627814
v 0.08476028 0.04739810 0.00625683
v 0.08491870 0.04569925 0.01065490
v 0.08475912 0.04569925 0.00625683
v 0.08475970 0.04739810 0.00624897
v 0.08510149 0.04417157 0.01627814
v 0.08505101 0.04400041 0.01474864
v 0.08494598 0.04400041 0.01160323
v 0.08475854 0.04569925 0.00624897
v 0.08507190 0.04247272 0.01627814
v 0.08510091 0.04400041 0.01627814
f 1 2 9
f 1 9 19
f 1 19 18
f 1 18 31
f 1 31 40
f 1 40 51
f 1 51 62
f 1 62 73
f 1 73 82
f 1 82 83
f 1 83 78
f 1 78 67
f 1 67 55
f 1 55 45
f 1 45 44
f 1 44 35
f 1 35 34
f 1 34 23
f 1 23 12
f 1 12 3
f 1 3 4
f 1 4 5
f 1 5 15
f 1 15 28
f 1 28 20
f 1 20 16
f 1 16 6
f 1 6 2
f 2 6 7
f 2 7 8
f 2 8 9
f 3 10 11
f 3 11 4
f 3 12 13
f 3 13 14
f 3 14 10
f 4 11 15
f 4 15 5
f 6 16 7
f 7 17 18
f 7 18 19
f 7 19 9
f 7 9 8
f 7 16 20
f 7 20 28
f 7 28 29
f 7 29 33
f 7 33 43
f 7 43 54
f 7 54 66
f 7 66 77
f 7 77 81
f 7 81 70
f 7 70 63
f 7 63 50
f 7 50 39
f 7 39 30
f 7 30 17
f 10 21 11
f 10 14 21
f 11 21 14
f 11 14 22
f 11 22 15
f 12 23 13
f 13 23 34
f 13 34 24
f 13 24 25
f 13 25 26
f 13 26 14
f 14 26 27
f 14 27 22
f 15 22 29
f 15 29 28
f 17 30 31
f 17 31 18
f 22 27 32
f 22 32 33
f 22 33 29
f 24 34 35
f 24 35 25
f 25 35 36
f 25 36 37
f 25 37 38
f 25 38 32
f 25 32 27
f 25 27 26
f 30 39 49
f 30 49 59
f 30 59 51
f 30 51 40
f 30 40 31
f 32 38 41
f 32 41 42
f 32 42 33
f 33 42 43
f 35 44 36
f 36 44 45
f 36 45 46
f 36 46 47
f 36 47 37
f 37 47 38
f 38 47 48
f 38 48 52
f 38 52 41
f 39 50 49
f 41 52 53
f 41 53 42
f 42 53 54
f 42 54 43
f 45 55 56
f 45 56 46
f 46 56 57
f 46 57 47
f 47 57 58
f 47 58 48
f 48 58 64
f 48 64 52
f 49 50 60
f 49 60 61
f 49 61 62
f 49 62 59
f 50 63 60
f 51 59 62
f 52 64 74
f 52 74 65
f 52 65 53
f 53 65 66
f 53 66 54
f 55 67 68
f 55 68 56
f 56 68 57
f 57 68 58
f 58 68 69
f 58 69 75
f 58 75 64
f 60 63 70
f 60 70 71
f 60 71 72
f 60 72 73
f 60 73 61
f 61 73 62
f 64 75 76
f 64 76 74
f 65 74 77
f 65 77 66
f 67 78 68
f 68 78 79
f 68 79 69
f 69 79 80
f 69 80 75
f 70 81 76
f 70 76 75
f 70 75 80
f 70 80 71
f 71 82 73
f 71 73 72
f 71 80 79
f 71 79 82
f 74 76 81
f 74 81 77
f 78 83 79
f 79 83 82
