# https://github.com/mikedh/trimesh
v 0.07710416 0.07857829 0.02885626
v 0.07710416 0.07979353 0.03129861
v 0.07710416 0.08257677 0.02885626
v 0.08183249 0.06277822 0.02885626
v 0.07710416 0.08142355 0.03142911
v 0.08217329 0.06277822 0.03003709
v 0.08270828 0.06277822 0.03147252
v 0.07710416 0.08251668 0.02959901
v 0.07718293 0.08254769 0.02885626
v 0.08507128 0.06277822 0.02885626
v 0.07728665 0.08143130 0.03140993
v 0.07710416 0.08172978 0.03130607
v 0.07898130 0.07966949 0.03153457
v 0.08397245 0.06277822 0.03147252
v 0.08237762 0.07287616 0.03157664
v 0.07710416 0.08247598 0.03003709
v 0.07803220 0.08216006 0.02885626
v 0.07719696 0.08254188 0.02885626
v 0.08501591 0.06277822 0.02965759
v 0.08501045 0.06438497 0.02885626
v 0.08498004 0.06438497 0.02947304
v 0.07898130 0.08085372 0.03121046
v 0.07989920 0.08057850 0.03097132
v 0.08067985 0.07797164 0.03154975
v 0.08055117 0.07950862 0.03116998
v 0.08482172 0.06277822 0.03050660
v 0.08393891 0.06438497 0.03148557
v 0.08389992 0.06608282 0.03150128
v 0.08237762 0.07457401 0.03154602
v 0.07790820 0.08207672 0.03003709
v 0.07898130 0.08156116 0.02885626
v 0.07898130 0.08141192 0.03003709
v 0.08478819 0.06438497 0.03032205
v 0.08494962 0.06562735 0.02885626
v 0.08494494 0.06554982 0.02928875
v 0.08477181 0.06610221 0.02992790
v 0.08154004 0.07883607 0.03090474
v 0.08089743 0.07982261 0.03003709
v 0.08004816 0.08070448 0.03003709
v 0.08241037 0.07611099 0.03133829
v 0.08179116 0.07797164 0.03117931
v 0.08367142 0.07117831 0.03142192
v 0.08354430 0.07287616 0.03131912
v 0.08012458 0.08077038 0.02885626
v 0.08460180 0.06778067 0.03003709
v 0.08480300 0.06723410 0.02885626
v 0.08475231 0.06778067 0.02885626
v 0.08464157 0.06896296 0.02885626
v 0.08459166 0.06948046 0.02885626
v 0.08428049 0.07117831 0.03003709
v 0.08164610 0.07897368 0.03003709
v 0.08323313 0.07543844 0.03089728
v 0.08297032 0.07650250 0.03003709
v 0.08223880 0.07797164 0.03003709
v 0.08097386 0.07991176 0.02885626
v 0.08334543 0.07457401 0.03106799
v 0.08401144 0.07287616 0.03003709
v 0.08439591 0.07117831 0.02885626
v 0.08171317 0.07906090 0.02885626
v 0.08236436 0.07797164 0.02885626
v 0.08362073 0.07457401 0.03003709
v 0.08331658 0.07565357 0.03003709
v 0.08302881 0.07664593 0.02885626
v 0.08411594 0.07287616 0.02885626
v 0.08384845 0.07405651 0.02885626
v 0.08372913 0.07457401 0.02885626
v 0.08337273 0.07579506 0.02885626
f 1 2 5
f 1 5 12
f 1 12 16
f 1 16 8
f 1 8 3
f 1 3 9
f 1 9 18
f 1 18 17
f 1 17 31
f 1 31 44
f 1 44 55
f 1 55 59
f 1 59 60
f 1 60 63
f 1 63 67
f 1 67 66
f 1 66 65
f 1 65 64
f 1 64 58
f 1 58 49
f 1 49 48
f 1 48 47
f 1 47 46
f 1 46 34
f 1 34 20
f 1 20 10
f 1 10 4
f 1 4 2
f 2 4 6
f 2 6 7
f 2 7 5
f 3 8 9
f 4 10 19
f 4 19 26
f 4 26 14
f 4 14 7
f 4 7 6
f 5 11 12
f 5 7 13
f 5 13 11
f 7 14 15
f 7 15 13
f 8 16 17
f 8 17 18
f 8 18 9
f 10 20 21
f 10 21 19
f 11 13 22
f 11 22 12
f 12 22 23
f 12 23 16
f 13 24 25
f 13 25 22
f 13 15 24
f 14 26 27
f 14 27 28
f 14 28 15
f 15 28 29
f 15 29 24
f 16 30 17
f 16 23 30
f 17 30 32
f 17 32 31
f 19 21 33
f 19 33 26
f 20 34 35
f 20 35 21
f 21 35 36
f 21 36 33
f 22 25 23
f 23 25 37
f 23 37 38
f 23 38 39
f 23 39 32
f 23 32 30
f 24 29 40
f 24 40 41
f 24 41 25
f 25 41 37
f 26 33 42
f 26 42 28
f 26 28 27
f 28 42 29
f 29 42 43
f 29 43 40
f 31 32 39
f 31 39 44
f 33 36 45
f 33 45 42
f 34 46 35
f 35 46 47
f 35 47 48
f 35 48 49
f 35 49 50
f 35 50 45
f 35 45 36
f 37 51 38
f 37 41 52
f 37 52 53
f 37 53 54
f 37 54 51
f 38 51 55
f 38 55 39
f 39 55 44
f 40 43 56
f 40 56 52
f 40 52 41
f 42 45 50
f 42 50 43
f 43 50 57
f 43 57 56
f 49 58 50
f 50 58 57
f 51 59 55
f 51 54 60
f 51 60 59
f 52 56 57
f 52 57 61
f 52 61 62
f 52 62 53
f 53 63 54
f 53 62 63
f 54 63 60
f 57 64 65
f 57 65 61
f 57 58 64
f 61 66 62
f 61 65 66
f 62 66 67
f 62 67 63
