# https://github.com/mikedh/trimesh
v -0.00934981 -0.08000001 0.00078010
v -0.01614001 -0.08158982 0.00139579
v -0.02293021 -0.08000001 0.00078175
v -0.02375846 -0.07917752 0.00079165
v -0.00002261 -0.07914743 0.00079000
v 0.00933444 -0.08000001 0.00078010
v -0.03821189 -0.08238144 0.00286155
v -0.02802659 -0.08158982 0.00139744
v 0.02461612 -0.08158982 0.00139579
v -0.00002261 -0.08238144 0.00285990
v -0.02802659 -0.08000001 0.00078340
v -0.02972787 -0.07917752 0.00079330
v -0.03482425 -0.07917752 0.00079660
v -0.03651807 -0.07917752 0.00079825
v -0.03734633 -0.07917752 0.00079991
v -0.03821189 -0.07917752 0.00366872
v -0.00002261 -0.07914743 0.00367697
v 0.01443082 -0.07914743 0.00079000
v 0.02292230 -0.08000001 0.00078175
v -0.03821189 -0.08247519 0.00455841
v -0.03821189 -0.08158982 0.00140404
v -0.03482425 -0.08158982 0.00140074
v 0.02971250 -0.08158982 0.00139744
v 0.03801744 -0.08238144 0.00285990
v -0.03312297 -0.08000001 0.00078670
v -0.03482425 -0.08000001 0.00078835
v -0.03821189 -0.07918331 0.00079991
v -0.03821189 -0.07917752 0.00370998
v -0.00002261 -0.08014043 0.01764302
v 0.03141378 -0.08014005 0.01764302
v 0.03655494 -0.07914743 0.00367697
v 0.02631740 -0.07914743 0.00079165
v 0.03056315 -0.07914743 0.00079330
v 0.03311507 -0.08000001 0.00078670
v -0.03821189 -0.08253267 0.00565113
v 0.03801744 -0.08247519 0.00455841
v -0.03821189 -0.08000001 0.00079495
v 0.03801744 -0.08158982 0.00140239
v -0.03821189 -0.08008527 0.01632251
v -0.03651807 -0.08008180 0.01632251
v -0.00002261 -0.08306544 0.01764302
v 0.03651017 -0.08014005 0.01764302
v 0.03701010 -0.08014082 0.01764302
v 0.03801744 -0.07915052 0.00367862
v 0.03801744 -0.07914743 0.00301506
v 0.03395825 -0.07914743 0.00079495
v 0.03651017 -0.08000001 0.00079000
v -0.03821189 -0.08257472 0.00649956
v 0.03801744 -0.08253267 0.00565113
v 0.03801744 -0.08000001 0.00079330
v -0.03821189 -0.08303033 0.01632251
v 0.03801744 -0.08308858 0.01764302
v 0.03801744 -0.08014314 0.01764302
v 0.03801744 -0.07914743 0.00079991
v 0.03801744 -0.07990164 0.00079330
v 0.03801744 -0.08256970 0.00640382
v 0.03801744 -0.08257434 0.00650121
v 0.03801744 -0.08302493 0.01625154
f 1 2 3
f 1 3 4
f 1 4 5
f 1 5 18
f 1 18 6
f 1 6 9
f 1 9 2
f 2 7 8
f 2 8 3
f 2 9 24
f 2 24 10
f 2 10 7
f 3 8 11
f 3 11 12
f 3 12 4
f 4 12 5
f 5 12 13
f 5 13 14
f 5 14 15
f 5 15 16
f 5 16 28
f 5 28 17
f 5 17 31
f 5 31 45
f 5 45 54
f 5 54 46
f 5 46 33
f 5 33 32
f 5 32 18
f 6 18 19
f 6 19 9
f 7 20 35
f 7 35 48
f 7 48 51
f 7 51 39
f 7 39 28
f 7 28 16
f 7 16 27
f 7 27 37
f 7 37 21
f 7 21 22
f 7 22 8
f 7 10 20
f 8 22 11
f 9 19 23
f 9 23 24
f 10 24 36
f 10 36 20
f 11 22 25
f 11 25 13
f 11 13 12
f 13 26 14
f 13 25 26
f 14 26 27
f 14 27 15
f 15 27 16
f 17 29 30
f 17 30 42
f 17 42 31
f 17 28 29
f 18 32 19
f 19 32 33
f 19 33 34
f 19 34 23
f 20 36 49
f 20 49 35
f 21 37 26
f 21 26 22
f 22 26 25
f 23 34 38
f 23 38 24
f 24 38 50
f 24 50 55
f 24 55 54
f 24 54 45
f 24 45 44
f 24 44 53
f 24 53 52
f 24 52 58
f 24 58 57
f 24 57 56
f 24 56 49
f 24 49 36
f 26 37 27
f 28 39 40
f 28 40 29
f 29 40 39
f 29 39 51
f 29 51 41
f 29 41 52
f 29 52 53
f 29 53 43
f 29 43 42
f 29 42 30
f 31 42 43
f 31 43 44
f 31 44 45
f 33 46 34
f 34 46 47
f 34 47 38
f 35 49 48
f 38 47 50
f 41 51 52
f 43 53 44
f 46 54 47
f 47 54 55
f 47 55 50
f 48 49 56
f 48 56 57
f 48 57 51
f 51 57 58
f 51 58 52
