# https://github.com/mikedh/trimesh
v -0.06710289 -0.08169825 -0.00088049
v -0.06540338 -0.08169825 -0.00087038
v -0.05780187 -0.08332140 -0.00030959
v -0.05860994 -0.08331432 -0.00030959
v -0.06200666 -0.08326748 -0.00030791
v -0.06880009 -0.08169825 -0.00086870
v -0.07559353 -0.07999993 -0.00086870
v -0.05780187 -0.08169825 -0.00074745
v -0.05780187 -0.08247388 -0.00054367
v -0.07641550 -0.07917692 -0.00080639
v -0.05780187 -0.08369723 0.00039098
v -0.06030715 -0.08329199 -0.00030791
v -0.06370386 -0.08323806 -0.00030622
v -0.05780187 -0.08410411 0.00116060
v -0.05860994 -0.08409049 0.00116060
v -0.07049730 -0.08169825 -0.00083165
v -0.06540338 -0.08319939 -0.00030454
v -0.06710289 -0.08315527 -0.00029612
v -0.07729073 -0.07999993 -0.00077776
v -0.07811502 -0.07917692 -0.00081313
v -0.07219449 -0.08169825 -0.00075250
v -0.05780187 -0.08099289 -0.00042242
v -0.05780187 -0.07917692 0.00063517
v -0.05780187 -0.08035615 -0.00012603
v -0.05780187 -0.08474139 0.01632395
v -0.05860994 -0.08472777 0.01632395
v -0.05873266 -0.08472504 0.01632395
v -0.06030715 -0.08468474 0.01632395
v -0.06030715 -0.08404692 0.00116060
v -0.06880009 -0.08307684 -0.00026075
v -0.06200666 -0.08399790 0.00116060
v -0.06370386 -0.08393635 0.00116060
v -0.06540338 -0.08385083 0.00116060
v -0.07389401 -0.08169825 -0.00054704
v -0.07729073 -0.08127939 -0.00015634
v -0.07895783 -0.08000865 -0.00025907
v -0.07897404 -0.07917692 -0.00054704
v -0.07049730 -0.08298043 -0.00021023
v -0.07219449 -0.08287258 -0.00012939
v -0.05780187 -0.07917692 0.00318485
v -0.05780187 -0.08181808 0.01632395
v -0.06043218 -0.08468147 0.01632395
v -0.06200666 -0.08463790 0.01632395
v -0.06710289 -0.08375333 0.00116060
v -0.06212938 -0.08463354 0.01632395
v -0.06370386 -0.08457689 0.01632395
v -0.06540338 -0.08448811 0.01632395
v -0.07548702 -0.08177832 -0.00021360
v -0.07837203 -0.08100651 0.00008617
v -0.07389401 -0.08270155 0.00007438
v -0.07485260 -0.08258063 0.00025120
v -0.08012943 -0.07944817 0.00000028
v -0.08025678 -0.07917692 -0.00005530
v -0.07977749 -0.07917692 -0.00025065
v -0.06880009 -0.08360246 0.00116060
v -0.07049730 -0.08340419 0.00116060
v -0.07707076 -0.07917692 0.01632395
v -0.06710984 -0.08438571 0.01632395
v -0.06720477 -0.08437917 0.01632395
v -0.06815178 -0.08426479 0.01517542
v -0.06842268 -0.08429039 0.01632395
v -0.07729073 -0.08164705 0.00116060
v -0.07843454 -0.08105117 0.00116060
v -0.07928430 -0.08040518 0.00116060
v -0.07219449 -0.08316780 0.00116060
v -0.07389401 -0.08351149 0.01632395
v -0.07559353 -0.08305777 0.01632395
v -0.07566994 -0.08303326 0.01632395
v -0.07674197 -0.08267922 0.01632395
v -0.07569077 -0.08229413 0.00116060
v -0.08023362 -0.07955602 0.00116060
v -0.08055315 -0.07917692 0.00116060
v -0.08041654 -0.07917692 0.00034888
v -0.06926318 -0.08420379 0.01632395
v -0.06938821 -0.08418962 0.01632395
v -0.07049730 -0.08405944 0.01632395
v -0.07219449 -0.08383830 0.01632395
v -0.08139133 -0.07917692 0.01632395
v -0.07759173 -0.08229903 0.01632395
v -0.07769824 -0.08223694 0.01632395
v -0.07912685 -0.08137852 0.01632395
v -0.07915464 -0.08136109 0.01632395
v -0.07922873 -0.08131098 0.01632395
v -0.07984000 -0.08084909 0.01560149
v -0.07231953 -0.08381434 0.01632395
v -0.08069671 -0.08000538 0.01632395
v -0.08145384 -0.07917692 0.01603429
v -0.08080553 -0.07988773 0.01632395
v -0.08064345 -0.08005930 0.01632395
f 1 2 3
f 1 3 4
f 1 4 5
f 1 5 6
f 1 6 7
f 1 7 2
f 2 8 9
f 2 9 3
f 2 7 10
f 2 10 8
f 3 9 8
f 3 8 22
f 3 22 24
f 3 24 23
f 3 23 40
f 3 40 41
f 3 41 25
f 3 25 14
f 3 14 11
f 3 11 4
f 4 11 12
f 4 12 5
f 5 13 6
f 5 12 14
f 5 14 15
f 5 15 13
f 6 16 7
f 6 13 17
f 6 17 18
f 6 18 16
f 7 19 20
f 7 20 10
f 7 16 21
f 7 21 19
f 8 10 22
f 10 20 37
f 10 37 54
f 10 54 53
f 10 53 73
f 10 73 72
f 10 72 87
f 10 87 78
f 10 78 57
f 10 57 40
f 10 40 23
f 10 23 24
f 10 24 22
f 11 14 12
f 13 15 17
f 14 25 26
f 14 26 15
f 15 26 27
f 15 27 28
f 15 28 29
f 15 29 17
f 16 18 30
f 16 30 21
f 17 29 18
f 18 29 31
f 18 31 32
f 18 32 33
f 18 33 30
f 19 21 34
f 19 34 35
f 19 35 36
f 19 36 20
f 20 36 37
f 21 30 38
f 21 38 39
f 21 39 34
f 25 41 57
f 25 57 78
f 25 78 88
f 25 88 86
f 25 86 89
f 25 89 83
f 25 83 82
f 25 82 81
f 25 81 80
f 25 80 79
f 25 79 69
f 25 69 68
f 25 68 67
f 25 67 66
f 25 66 85
f 25 85 77
f 25 77 76
f 25 76 75
f 25 75 74
f 25 74 61
f 25 61 59
f 25 59 58
f 25 58 47
f 25 47 46
f 25 46 45
f 25 45 43
f 25 43 42
f 25 42 28
f 25 28 27
f 25 27 26
f 28 42 29
f 29 42 43
f 29 43 31
f 30 33 44
f 30 44 38
f 31 45 46
f 31 46 32
f 31 43 45
f 32 46 33
f 33 46 47
f 33 47 44
f 34 39 48
f 34 48 35
f 35 49 36
f 35 48 50
f 35 50 51
f 35 51 49
f 36 52 53
f 36 53 54
f 36 54 37
f 36 49 52
f 38 44 39
f 39 50 48
f 39 44 55
f 39 55 56
f 39 56 50
f 40 57 41
f 44 47 58
f 44 58 59
f 44 59 60
f 44 60 61
f 44 61 55
f 49 62 63
f 49 63 64
f 49 64 52
f 49 51 62
f 50 56 65
f 50 65 51
f 51 65 66
f 51 66 67
f 51 67 68
f 51 68 69
f 51 69 70
f 51 70 62
f 52 64 71
f 52 71 72
f 52 72 73
f 52 73 53
f 55 74 75
f 55 75 56
f 55 61 74
f 56 75 76
f 56 76 77
f 56 77 65
f 59 61 60
f 62 79 63
f 62 70 69
f 62 69 79
f 63 79 80
f 63 80 81
f 63 81 82
f 63 82 83
f 63 83 84
f 63 84 64
f 64 84 71
f 65 85 66
f 65 77 85
f 71 86 87
f 71 87 72
f 71 84 86
f 78 87 88
f 83 89 84
f 84 89 86
f 86 88 87
