# https://github.com/mikedh/trimesh
v -0.07846130 -0.06786236 0.00061274
v -0.07521655 -0.06786236 0.00081952
v -0.07846130 -0.06786236 0.00308676
v -0.07846130 -0.03890718 0.00081240
v -0.07521655 -0.03890718 0.00081925
v -0.07521655 -0.04980222 0.00081925
v -0.07521655 -0.06786236 0.00308402
v -0.07846130 -0.04093370 0.00340446
v -0.07846130 -0.03890718 0.00341049
v -0.07521655 -0.03890718 0.00308511
v -0.07521655 -0.04772752 0.00308511
v -0.07846130 -0.03923313 0.00341022
f 1 2 7
f 1 7 3
f 1 3 8
f 1 8 12
f 1 12 9
f 1 9 4
f 1 4 5
f 1 5 6
f 1 6 2
f 2 6 5
f 2 5 10
f 2 10 11
f 2 11 7
f 3 7 8
f 4 9 10
f 4 10 5
f 7 11 9
f 7 9 12
f 7 12 8
f 9 11 10
