# https://github.com/mikedh/trimesh
v -0.02465098 -0.00871763 0.02664131
v -0.02465098 -0.00827471 0.02782631
v -0.02465098 -0.00871462 0.02662822
v -0.01446191 -0.01579230 0.02646243
v -0.01446191 -0.01582092 0.02663996
v -0.02463502 -0.00827772 0.02783470
v -0.02465098 -0.00695951 0.02828037
v -0.01543633 -0.01473923 0.02759743
v -0.01446191 -0.01530268 0.02777429
v -0.02465098 -0.00825061 0.02547342
v -0.01541838 -0.01472116 0.02569827
v -0.01446191 -0.01528460 0.02553685
v -0.01446191 -0.01375246 0.02822634
v -0.02463502 -0.00695951 0.02828205
v -0.02465098 -0.00526165 0.02838340
v -0.02465098 -0.00696101 0.02505660
v -0.01446191 -0.01523940 0.02551537
v -0.01446191 -0.01205460 0.02837736
v -0.02293651 -0.00695951 0.02836998
v -0.02465098 -0.00043020 0.02838340
v -0.01614247 -0.01035523 0.02838273
v -0.01446191 -0.01035523 0.02838340
v -0.02465098 -0.00694444 0.02505291
v -0.02463502 -0.00695951 0.02505392
v -0.01446191 -0.01373438 0.02510493
v -0.01446191 -0.00043020 0.02838340
v -0.02465098 -0.00043020 0.02495525
v -0.02293651 -0.00695951 0.02496901
v -0.01446191 -0.01205460 0.02496163
v -0.02465098 -0.00526165 0.02495559
v -0.01446191 -0.00043020 0.02495525
v -0.02465098 -0.00524508 0.02495525
v -0.01446191 -0.01203501 0.02496029
v -0.02463502 -0.00526165 0.02495525
v -0.01446191 -0.01033715 0.02495525
v -0.01614247 -0.01035523 0.02495626
v -0.01784098 -0.00865737 0.02495525
f 1 2 7
f 1 7 15
f 1 15 20
f 1 20 27
f 1 27 32
f 1 32 30
f 1 30 23
f 1 23 16
f 1 16 10
f 1 10 3
f 1 3 4
f 1 4 5
f 1 5 2
f 2 6 7
f 2 5 8
f 2 8 9
f 2 9 6
f 3 10 4
f 4 11 12
f 4 12 17
f 4 17 25
f 4 25 29
f 4 29 33
f 4 33 35
f 4 35 31
f 4 31 26
f 4 26 22
f 4 22 18
f 4 18 13
f 4 13 9
f 4 9 5
f 4 10 11
f 5 9 8
f 6 9 7
f 7 9 13
f 7 13 14
f 7 14 15
f 10 16 17
f 10 17 12
f 10 12 11
f 13 18 14
f 14 18 19
f 14 19 15
f 15 19 18
f 15 18 21
f 15 21 22
f 15 22 26
f 15 26 20
f 16 23 24
f 16 24 25
f 16 25 17
f 18 22 21
f 20 26 31
f 20 31 27
f 23 28 29
f 23 29 25
f 23 25 24
f 23 30 28
f 27 31 35
f 27 35 37
f 27 37 34
f 27 34 32
f 28 33 29
f 28 30 34
f 28 34 33
f 30 32 34
f 33 36 35
f 33 34 36
f 34 37 36
f 35 36 37
