# https://github.com/mikedh/trimesh
v 0.05388865 -0.06713122 0.02663996
v 0.05388865 -0.06722614 0.02739909
v 0.05388865 -0.06751087 0.02556839
v 0.03180659 -0.07081921 0.02663996
v 0.05388865 -0.06747091 0.02772529
v 0.03180659 -0.07146861 0.02788974
v 0.05388865 -0.06807820 0.02534119
v 0.03180659 -0.07148431 0.02542073
v 0.03180659 -0.07083063 0.02661882
v 0.05388865 -0.06778490 0.02788101
v 0.03180659 -0.07320485 0.02837300
v 0.05388865 -0.06807106 0.02797833
v 0.05388865 -0.06980801 0.02497606
v 0.05349955 -0.06980801 0.02498177
v 0.03180659 -0.07320485 0.02496599
v 0.03180659 -0.07184326 0.02531871
v 0.03180659 -0.07442157 0.02837871
v 0.05180259 -0.07150643 0.02838340
v 0.05388865 -0.07111679 0.02838340
v 0.05388865 -0.06980801 0.02836327
v 0.05388865 -0.06941838 0.02833105
v 0.05388865 -0.07150643 0.02495525
v 0.05349955 -0.07150643 0.02495525
v 0.05180259 -0.07150643 0.02495559
v 0.03180659 -0.07359234 0.02496163
v 0.04549034 -0.07442157 0.02838340
v 0.04670523 -0.07320485 0.02838340
v 0.03180659 -0.07442157 0.02495760
v 0.05388865 -0.07442157 0.02838340
v 0.05388865 -0.07442157 0.02495525
v 0.04670523 -0.07320485 0.02495525
v 0.04670523 -0.07442157 0.02495525
f 1 2 5
f 1 5 10
f 1 10 12
f 1 12 21
f 1 21 20
f 1 20 19
f 1 19 29
f 1 29 30
f 1 30 22
f 1 22 13
f 1 13 7
f 1 7 3
f 1 3 4
f 1 4 2
f 2 4 6
f 2 6 5
f 3 7 8
f 3 8 9
f 3 9 4
f 4 9 8
f 4 8 16
f 4 16 15
f 4 15 25
f 4 25 28
f 4 28 17
f 4 17 11
f 4 11 6
f 5 6 10
f 6 11 12
f 6 12 10
f 7 13 14
f 7 14 15
f 7 15 16
f 7 16 8
f 11 17 18
f 11 18 19
f 11 19 20
f 11 20 21
f 11 21 12
f 13 22 23
f 13 23 24
f 13 24 15
f 13 15 14
f 15 24 25
f 17 26 27
f 17 27 18
f 17 28 32
f 17 32 30
f 17 30 29
f 17 29 26
f 18 27 26
f 18 26 29
f 18 29 19
f 22 30 32
f 22 32 31
f 22 31 23
f 23 31 24
f 24 31 28
f 24 28 25
f 28 31 32
