# https://github.com/mikedh/trimesh
v 0.05445203 -0.01056045 0.02663996
v 0.05445203 -0.01009986 0.02780013
v 0.05445203 -0.01047695 0.02630705
v 0.06863270 -0.02794699 0.02663996
v 0.05445203 -0.00865884 0.02824984
v 0.06863270 -0.02734095 0.02704537
v 0.06775396 -0.02523463 0.02767026
v 0.06863270 -0.02572216 0.02794276
v 0.05445203 -0.01008640 0.02550765
v 0.06863270 -0.02770726 0.02638860
v 0.06863270 -0.02394445 0.02822970
v 0.05520028 -0.00865884 0.02833642
v 0.05445203 -0.00695924 0.02838139
v 0.05445203 -0.00958271 0.02531804
v 0.06863270 -0.02570600 0.02537307
v 0.06863270 -0.02689922 0.02591742
v 0.06863270 -0.02225024 0.02833441
v 0.05520028 -0.00695924 0.02838340
v 0.05445203 -0.00526234 0.02838340
v 0.06863270 -0.02054525 0.02837602
v 0.06708900 -0.01884835 0.02837770
v 0.06863270 -0.01884835 0.02838307
v 0.05445203 -0.00865884 0.02508513
v 0.06863270 -0.02567098 0.02536569
v 0.06708900 -0.01714875 0.02838340
v 0.05445203 -0.00043020 0.02838340
v 0.06863270 -0.01714875 0.02838340
v 0.06863270 -0.02379900 0.02508245
v 0.05445203 -0.00791005 0.02498311
v 0.06863270 -0.00043020 0.02838340
v 0.05445203 -0.00043020 0.02495525
v 0.06863270 -0.02208863 0.02497572
v 0.05445203 -0.00695924 0.02495760
v 0.06863270 -0.00043020 0.02495525
v 0.05445203 -0.00621045 0.02495525
v 0.06863270 -0.02038903 0.02495592
v 0.05520028 -0.00695924 0.02495525
v 0.06863270 -0.01869212 0.02495525
f 1 2 5
f 1 5 13
f 1 13 19
f 1 19 26
f 1 26 31
f 1 31 35
f 1 35 33
f 1 33 29
f 1 29 23
f 1 23 14
f 1 14 9
f 1 9 3
f 1 3 4
f 1 4 2
f 2 4 6
f 2 6 7
f 2 7 8
f 2 8 5
f 3 9 4
f 4 10 16
f 4 16 15
f 4 15 24
f 4 24 28
f 4 28 32
f 4 32 36
f 4 36 38
f 4 38 34
f 4 34 30
f 4 30 27
f 4 27 22
f 4 22 20
f 4 20 17
f 4 17 11
f 4 11 8
f 4 8 6
f 4 9 10
f 5 8 11
f 5 11 12
f 5 12 13
f 6 8 7
f 9 14 15
f 9 15 16
f 9 16 10
f 11 17 12
f 12 17 13
f 13 18 19
f 13 17 20
f 13 20 21
f 13 21 22
f 13 22 18
f 14 23 15
f 15 23 24
f 18 22 25
f 18 25 27
f 18 27 30
f 18 30 26
f 18 26 19
f 20 22 21
f 22 27 25
f 23 28 24
f 23 29 28
f 26 30 34
f 26 34 31
f 28 29 32
f 29 33 32
f 31 34 38
f 31 38 37
f 31 37 35
f 32 33 36
f 33 35 37
f 33 37 36
f 36 37 38
