# https://github.com/mikedh/trimesh
v -0.07956088 -0.00044222 0.02311896
v -0.08369443 -0.00044222 0.02311896
v -0.07948026 -0.03412795 0.02311896
v -0.07951785 0.03549644 0.02283930
v -0.07951884 0.03564808 0.02283930
v -0.08220859 -0.00044222 0.00381476
v -0.08369196 -0.00525138 0.02311896
v -0.08314342 0.03564808 0.02283930
v -0.08208494 0.03621853 0.00381476
v -0.08216654 0.01682306 0.00381476
v -0.08217941 0.01341478 0.00381476
v -0.08219177 0.01002815 0.00381476
v -0.08219375 0.00927717 0.00381476
v -0.08219622 0.00831679 0.00381476
v -0.08219771 0.00758747 0.00381476
v -0.08220810 0.00152909 0.00381476
v -0.08220859 0.00078534 0.00381476
v -0.07948273 -0.03582487 0.02311896
v -0.07868441 -0.00044222 0.00381476
v -0.07864237 0.03550366 0.00381476
v -0.07864188 0.03621853 0.00381476
v -0.07951488 0.03379952 0.02283930
v -0.07957127 0.03621853 0.01764100
v -0.08213489 -0.03755068 0.00560988
v -0.08363310 -0.03752180 0.02311896
v -0.08369048 -0.00695552 0.02311896
v -0.08250883 0.03621853 0.01764100
v -0.07950697 -0.03752180 0.02311896
v -0.07910731 -0.03755068 0.00560988
v -0.08248558 -0.03755068 0.01632205
v -0.07953467 -0.03755068 0.01632205
f 1 2 7
f 1 7 26
f 1 26 25
f 1 25 28
f 1 28 18
f 1 18 3
f 1 3 4
f 1 4 5
f 1 5 8
f 1 8 2
f 2 6 7
f 2 8 9
f 2 9 10
f 2 10 11
f 2 11 12
f 2 12 13
f 2 13 14
f 2 14 15
f 2 15 16
f 2 16 17
f 2 17 6
f 3 18 19
f 3 19 20
f 3 20 21
f 3 21 22
f 3 22 4
f 4 21 5
f 4 22 21
f 5 21 23
f 5 23 27
f 5 27 8
f 6 19 29
f 6 29 24
f 6 24 25
f 6 25 26
f 6 26 7
f 6 17 16
f 6 16 15
f 6 15 14
f 6 14 13
f 6 13 12
f 6 12 11
f 6 11 10
f 6 10 9
f 6 9 21
f 6 21 20
f 6 20 19
f 8 27 9
f 9 27 23
f 9 23 21
f 18 28 29
f 18 29 19
f 24 29 31
f 24 31 30
f 24 30 25
f 25 30 31
f 25 31 28
f 28 31 29
