# https://github.com/mikedh/trimesh
v -0.08475141 -0.04603622 0.00560814
v -0.08475141 -0.04602708 0.00560814
v -0.08172751 -0.04603622 0.00560814
v -0.08495971 -0.04603622 0.01150158
v -0.08474788 -0.04497719 0.00560814
v -0.07991164 -0.04334919 0.00560814
v -0.08219590 -0.04603622 0.01632395
v -0.08501090 -0.04603622 0.01304994
v -0.08501090 -0.04602708 0.01304994
v -0.08506151 -0.04432848 0.01474936
v -0.08500502 -0.04432848 0.01304994
v -0.08495971 -0.04602708 0.01150262
v -0.08492617 -0.04432848 0.01075152
v -0.08474317 -0.04432848 0.00560814
v -0.08495618 -0.04432848 0.01160018
v -0.07953034 -0.04254681 0.00560814
v -0.07983220 -0.04179511 0.01402344
v -0.07987633 -0.04162816 0.01515534
v -0.07993047 -0.04144792 0.01632395
v -0.08511800 -0.04603622 0.01632395
v -0.08506680 -0.04603622 0.01474936
v -0.08506680 -0.04602708 0.01474936
v -0.08511388 -0.04445224 0.01632395
v -0.08494795 -0.04331181 0.01185405
v -0.08511329 -0.04432848 0.01632395
v -0.08508504 -0.04275364 0.01632395
v -0.08448544 -0.04327858 0.00560814
v -0.08494088 -0.04177268 0.01381783
v -0.07920788 -0.04093210 0.00560814
v -0.07973805 -0.04060900 0.01632395
v -0.07975218 -0.04068043 0.01632395
v -0.08508211 -0.04262988 0.01632395
v -0.08502268 -0.04262988 0.01474936
v -0.08427950 -0.04262988 0.00560814
v -0.08496206 -0.04173032 0.01474936
v -0.08499560 -0.04165224 0.01632395
v -0.08213528 -0.03755068 0.00560814
v -0.07912727 -0.03923350 0.00560814
v -0.07958624 -0.03923350 0.01632395
v -0.07972334 -0.04048108 0.01632395
v -0.08248598 -0.03755068 0.01632395
v -0.07910727 -0.03755068 0.00560814
v -0.07953446 -0.03755068 0.01632395
f 1 2 5
f 1 5 14
f 1 14 27
f 1 27 34
f 1 34 37
f 1 37 42
f 1 42 38
f 1 38 29
f 1 29 16
f 1 16 6
f 1 6 3
f 1 3 7
f 1 7 20
f 1 20 21
f 1 21 8
f 1 8 4
f 1 4 2
f 2 4 5
f 3 6 7
f 4 8 9
f 4 9 10
f 4 10 11
f 4 11 12
f 4 12 5
f 5 13 14
f 5 12 15
f 5 15 13
f 6 16 17
f 6 17 7
f 7 17 18
f 7 18 19
f 7 19 31
f 7 31 30
f 7 30 40
f 7 40 39
f 7 39 43
f 7 43 41
f 7 41 36
f 7 36 32
f 7 32 26
f 7 26 25
f 7 25 23
f 7 23 20
f 8 21 22
f 8 22 9
f 9 22 23
f 9 23 10
f 10 24 11
f 10 23 25
f 10 25 26
f 10 26 24
f 11 24 15
f 11 15 12
f 13 15 24
f 13 24 14
f 14 24 28
f 14 28 27
f 16 29 17
f 17 30 31
f 17 31 18
f 17 29 30
f 18 31 19
f 20 23 22
f 20 22 21
f 24 26 32
f 24 32 33
f 24 33 28
f 27 28 34
f 28 33 32
f 28 32 35
f 28 35 36
f 28 36 37
f 28 37 34
f 29 38 39
f 29 39 40
f 29 40 30
f 32 36 35
f 36 41 37
f 37 41 43
f 37 43 42
f 38 42 43
f 38 43 39
