# https://github.com/mikedh/trimesh
v 0.08528420 -0.04601514 0.02289245
v 0.08526130 -0.04772814 0.02154361
v 0.08526084 -0.04601514 0.02154361
v 0.08234000 -0.04601514 0.02289245
v 0.08528420 -0.05112357 0.02289245
v 0.08526130 -0.05112357 0.02154361
v 0.08521687 -0.04772814 0.01984536
v 0.08521595 -0.04601514 0.01984536
v 0.08223100 -0.04601514 0.01764354
v 0.08060546 -0.07442157 0.01764354
v 0.08072638 -0.07442157 0.02289245
v 0.08528282 -0.05247228 0.02289245
v 0.08521687 -0.05112357 0.01984536
v 0.08525946 -0.05282267 0.02154361
v 0.08516557 -0.04772814 0.01814711
v 0.08516511 -0.04601514 0.01814711
v 0.08514908 -0.04601514 0.01764354
v 0.08367928 -0.07442157 0.01764354
v 0.08385562 -0.07442157 0.02289245
v 0.08528237 -0.05282267 0.02289245
v 0.08516557 -0.05112357 0.01814711
v 0.08521504 -0.05282267 0.01984536
v 0.08516419 -0.05282267 0.01814711
v 0.08527458 -0.05417138 0.02289245
v 0.08524939 -0.05452177 0.02154361
v 0.08515000 -0.04772814 0.01764354
v 0.08516466 -0.04601514 0.01813220
v 0.08396829 -0.07320355 0.01764354
v 0.08368019 -0.07442157 0.01766461
v 0.08410661 -0.07320355 0.02154361
v 0.08413592 -0.07320355 0.02289245
v 0.08382401 -0.07442157 0.02154361
v 0.08515000 -0.05112357 0.01764354
v 0.08520450 -0.05452177 0.01984536
v 0.08515412 -0.05452177 0.01814711
v 0.08514816 -0.05282267 0.01764354
v 0.08527229 -0.05452177 0.02289245
v 0.08523290 -0.05622087 0.02154361
v 0.08405943 -0.07270022 0.01764354
v 0.08398798 -0.07320355 0.01814711
v 0.08374752 -0.07442157 0.01936337
v 0.08419684 -0.07285316 0.02289245
v 0.08405119 -0.07320355 0.01984536
v 0.08434983 -0.07150445 0.01984536
v 0.08440112 -0.07150445 0.02154361
v 0.08380798 -0.07442157 0.02106163
v 0.08518801 -0.05622087 0.01984536
v 0.08513809 -0.05452177 0.01764354
v 0.08513717 -0.05622087 0.01814711
v 0.08512618 -0.05571754 0.01764354
v 0.08525580 -0.05622087 0.02289245
v 0.08523656 -0.05791998 0.02289245
v 0.08521320 -0.05791998 0.02154361
v 0.08427287 -0.07150445 0.01764354
v 0.08376538 -0.07442157 0.01984536
v 0.08442815 -0.07150445 0.02289245
v 0.08429120 -0.07150445 0.01814711
v 0.08451105 -0.06980535 0.01814711
v 0.08456830 -0.06980535 0.01984536
v 0.08461594 -0.06980535 0.02154361
v 0.08447258 -0.07115406 0.02289245
v 0.08516832 -0.05791998 0.01984536
v 0.08511748 -0.05791998 0.01814711
v 0.08510740 -0.05741664 0.01764354
v 0.08512114 -0.05622087 0.01764354
v 0.08520863 -0.05926869 0.02289245
v 0.08517794 -0.05961630 0.02154361
v 0.08433838 -0.07100111 0.01764354
v 0.08449319 -0.06980535 0.01764354
v 0.08454403 -0.06930201 0.01764354
v 0.08466082 -0.06810902 0.01764354
v 0.08467686 -0.06810902 0.01814711
v 0.08472861 -0.06810902 0.01984536
v 0.08464021 -0.06980535 0.02289245
v 0.08477487 -0.06810902 0.02154361
v 0.08479961 -0.06810902 0.02289245
v 0.08513305 -0.05961630 0.01984536
v 0.08508175 -0.05961630 0.01814711
v 0.08507672 -0.05911296 0.01764354
v 0.08510145 -0.05791998 0.01764354
v 0.08520130 -0.05961630 0.02289245
v 0.08516328 -0.06096223 0.02289245
v 0.08512984 -0.06131262 0.02154361
v 0.08493290 -0.06397946 0.01764354
v 0.08494114 -0.06411294 0.01814711
v 0.08492694 -0.06558401 0.02064644
v 0.08493839 -0.06577033 0.02154361
v 0.08495076 -0.06596777 0.02289245
v 0.08508496 -0.06131262 0.01984536
v 0.08506572 -0.05961630 0.01764354
v 0.08503320 -0.06131262 0.01814711
v 0.08511473 -0.06266133 0.02289245
v 0.08510465 -0.06301172 0.02289245
v 0.08508084 -0.06301172 0.02154361
v 0.08496816 -0.06295888 0.01764354
v 0.08498282 -0.06301172 0.01814711
v 0.08503503 -0.06301172 0.01984536
v 0.08500342 -0.06471082 0.02154361
v 0.08495992 -0.06473029 0.01998667
v 0.08502770 -0.06471082 0.02289245
v 0.08501717 -0.06131262 0.01764354
v 0.08504373 -0.06436044 0.02289245
f 1 2 3
f 1 3 8
f 1 8 16
f 1 16 27
f 1 27 17
f 1 17 9
f 1 9 4
f 1 4 11
f 1 11 19
f 1 19 31
f 1 31 42
f 1 42 56
f 1 56 61
f 1 61 74
f 1 74 76
f 1 76 88
f 1 88 100
f 1 100 102
f 1 102 93
f 1 93 92
f 1 92 82
f 1 82 81
f 1 81 66
f 1 66 52
f 1 52 51
f 1 51 37
f 1 37 24
f 1 24 20
f 1 20 12
f 1 12 5
f 1 5 6
f 1 6 2
f 2 6 13
f 2 13 7
f 2 7 3
f 3 7 8
f 4 9 10
f 4 10 11
f 5 12 6
f 6 12 14
f 6 14 22
f 6 22 13
f 7 13 21
f 7 21 15
f 7 15 16
f 7 16 8
f 9 17 26
f 9 26 33
f 9 33 36
f 9 36 48
f 9 48 50
f 9 50 65
f 9 65 64
f 9 64 80
f 9 80 79
f 9 79 90
f 9 90 101
f 9 101 95
f 9 95 84
f 9 84 71
f 9 71 70
f 9 70 69
f 9 69 68
f 9 68 54
f 9 54 39
f 9 39 28
f 9 28 18
f 9 18 10
f 10 18 29
f 10 29 41
f 10 41 55
f 10 55 46
f 10 46 32
f 10 32 19
f 10 19 11
f 12 20 14
f 13 22 23
f 13 23 21
f 14 20 24
f 14 24 25
f 14 25 22
f 15 26 27
f 15 27 16
f 15 21 33
f 15 33 26
f 17 27 26
f 18 28 29
f 19 30 31
f 19 32 30
f 21 23 33
f 22 25 34
f 22 34 35
f 22 35 23
f 23 35 48
f 23 48 36
f 23 36 33
f 24 37 25
f 25 37 51
f 25 51 38
f 25 38 47
f 25 47 34
f 28 39 40
f 28 40 41
f 28 41 29
f 30 42 31
f 30 32 43
f 30 43 44
f 30 44 45
f 30 45 42
f 32 46 43
f 34 47 35
f 35 47 49
f 35 49 50
f 35 50 48
f 38 51 52
f 38 52 53
f 38 53 62
f 38 62 47
f 39 54 43
f 39 43 40
f 40 43 41
f 41 43 55
f 42 45 56
f 43 54 57
f 43 57 44
f 43 46 55
f 44 57 58
f 44 58 59
f 44 59 45
f 45 59 60
f 45 60 61
f 45 61 56
f 47 62 63
f 47 63 49
f 49 63 64
f 49 64 65
f 49 65 50
f 52 66 53
f 53 66 67
f 53 67 77
f 53 77 62
f 54 68 57
f 57 68 69
f 57 69 58
f 58 69 70
f 58 70 59
f 59 70 71
f 59 71 72
f 59 72 73
f 59 73 60
f 60 74 61
f 60 73 75
f 60 75 76
f 60 76 74
f 62 77 63
f 63 77 78
f 63 78 79
f 63 79 80
f 63 80 64
f 66 81 67
f 67 81 82
f 67 82 83
f 67 83 89
f 67 89 77
f 71 84 85
f 71 85 86
f 71 86 72
f 72 86 73
f 73 86 87
f 73 87 75
f 75 87 88
f 75 88 76
f 77 89 78
f 78 90 79
f 78 89 91
f 78 91 101
f 78 101 90
f 82 92 83
f 83 92 93
f 83 93 94
f 83 94 89
f 84 95 96
f 84 96 97
f 84 97 85
f 85 97 94
f 85 94 98
f 85 98 99
f 85 99 86
f 86 99 98
f 86 98 87
f 87 98 88
f 88 98 100
f 89 94 97
f 89 97 91
f 91 97 96
f 91 96 101
f 93 102 94
f 94 102 98
f 95 101 96
f 98 102 100
