# https://github.com/mikedh/trimesh
v 0.07868062 -0.07442157 0.02842783
v 0.07727883 -0.07442157 0.02838407
v 0.07868062 -0.07442157 0.02488791
v 0.07868062 -0.00043021 0.02838369
v 0.07728212 -0.00043021 0.02838369
v 0.07727883 -0.00043745 0.02838369
v 0.07727883 -0.07442157 0.02836027
v 0.07868062 -0.03752728 0.02451437
v 0.07849837 -0.07442157 0.02489021
v 0.07868062 -0.00043021 0.02452128
v 0.07727883 -0.00043021 0.02498657
v 0.07727883 -0.07441432 0.02495470
v 0.07728212 -0.07442157 0.02495470
v 0.07868062 -0.03583974 0.02450900
v 0.07727883 -0.00043021 0.02494357
v 0.07868062 -0.03414495 0.02450631
v 0.07727883 -0.03752728 0.02494204
v 0.07727883 -0.03074088 0.02494165
v 0.07727883 -0.03583974 0.02494165
f 1 2 7
f 1 7 13
f 1 13 9
f 1 9 3
f 1 3 8
f 1 8 14
f 1 14 16
f 1 16 10
f 1 10 4
f 1 4 5
f 1 5 6
f 1 6 2
f 2 6 11
f 2 11 15
f 2 15 18
f 2 18 19
f 2 19 17
f 2 17 12
f 2 12 7
f 3 9 8
f 4 10 15
f 4 15 11
f 4 11 5
f 5 11 6
f 7 12 13
f 8 9 12
f 8 12 14
f 9 13 12
f 10 16 15
f 12 17 16
f 12 16 14
f 15 16 18
f 16 17 19
f 16 19 18
