# https://github.com/mikedh/trimesh
v -0.08235183 -0.04604075 0.02311896
v -0.08219594 -0.04604075 0.01632395
v -0.08529833 -0.04604075 0.02311896
v -0.08140062 -0.07102963 0.02311896
v -0.08511768 -0.04604075 0.01632395
v -0.08134723 -0.07102963 0.01632395
v -0.08527164 -0.04604075 0.02154326
v -0.08529871 -0.04615083 0.02311896
v -0.08450261 -0.07102963 0.02311896
v -0.08512193 -0.04604075 0.01644767
v -0.08511846 -0.04772624 0.01632395
v -0.08429721 -0.07102963 0.01632395
v -0.08522677 -0.04604075 0.01984517
v -0.08527203 -0.04772624 0.02154326
v -0.08529871 -0.05124891 0.02311896
v -0.08447206 -0.07102963 0.02154326
v -0.08465503 -0.06980648 0.02311896
v -0.08462640 -0.06980648 0.02154326
v -0.08517648 -0.04772624 0.01814708
v -0.08517570 -0.04604075 0.01814708
v -0.08512271 -0.04772624 0.01644833
v -0.08511846 -0.05124891 0.01632395
v -0.08429875 -0.07102963 0.01635920
v -0.08445620 -0.06980648 0.01632395
v -0.08522715 -0.04772624 0.01984517
v -0.08527203 -0.05112414 0.02154326
v -0.08527009 -0.05282187 0.02154326
v -0.08529678 -0.05282187 0.02311896
v -0.08442177 -0.07102963 0.01984517
v -0.08457882 -0.06980648 0.01984517
v -0.08481440 -0.06810876 0.02311896
v -0.08478578 -0.06810876 0.02154326
v -0.08473936 -0.06810876 0.01984517
v -0.08517648 -0.05112414 0.01814708
v -0.08512271 -0.05112414 0.01644833
v -0.08511691 -0.05282187 0.01632395
v -0.08512116 -0.05282187 0.01644833
v -0.08431926 -0.07102963 0.01692523
v -0.08446084 -0.06980648 0.01644833
v -0.08462911 -0.06810876 0.01632395
v -0.08522715 -0.05112414 0.01984517
v -0.08522560 -0.05282187 0.01984517
v -0.08526003 -0.05452204 0.02154326
v -0.08528673 -0.05452204 0.02311896
v -0.08436335 -0.07102963 0.01814708
v -0.08452157 -0.06980648 0.01814708
v -0.08468752 -0.06810876 0.01814708
v -0.08463336 -0.06810876 0.01644833
v -0.08489641 -0.06695900 0.02311896
v -0.08494902 -0.06577010 0.02154326
v -0.08493780 -0.06558418 0.02064666
v -0.08517455 -0.05282187 0.01814708
v -0.08510684 -0.05452204 0.01632395
v -0.08511111 -0.05452204 0.01644833
v -0.08493742 -0.06387911 0.01726312
v -0.08473781 -0.06640858 0.01632395
v -0.08516448 -0.05452204 0.01814708
v -0.08521516 -0.05452204 0.01984517
v -0.08528556 -0.05464436 0.02311896
v -0.08524339 -0.05621977 0.02154326
v -0.08526893 -0.05634453 0.02311896
v -0.08495172 -0.06411396 0.01814708
v -0.08496333 -0.06600005 0.02311896
v -0.08501440 -0.06471085 0.02154326
v -0.08497068 -0.06473042 0.01998618
v -0.08510569 -0.05464436 0.01632395
v -0.08509021 -0.05621977 0.01632395
v -0.08514785 -0.05621977 0.01814708
v -0.08489293 -0.06382774 0.01632395
v -0.08485231 -0.06457631 0.01632395
v -0.08483761 -0.06482583 0.01632395
v -0.08504573 -0.06301313 0.01984517
v -0.08499351 -0.06301313 0.01814708
v -0.08494515 -0.06267064 0.01632395
v -0.08492813 -0.06312076 0.01632395
v -0.08519852 -0.05621977 0.01984517
v -0.08522406 -0.05791994 0.02154326
v -0.08525074 -0.05791994 0.02311896
v -0.08509137 -0.06301313 0.02154326
v -0.08504225 -0.06471085 0.02311896
v -0.08507049 -0.05791994 0.01632395
v -0.08512812 -0.05791994 0.01814708
v -0.08517918 -0.05791994 0.01984517
v -0.08509524 -0.06131295 0.01984517
v -0.08504380 -0.06131295 0.01814708
v -0.08498964 -0.06131295 0.01644833
v -0.08498190 -0.06143771 0.01632395
v -0.08518885 -0.05961522 0.02154326
v -0.08521594 -0.05961522 0.02311896
v -0.08524843 -0.05804226 0.02311896
v -0.08511923 -0.06301313 0.02311896
v -0.08514050 -0.06131295 0.02154326
v -0.08509254 -0.05961522 0.01814708
v -0.08503412 -0.05962256 0.01632395
v -0.08503838 -0.05961522 0.01644833
v -0.08514360 -0.05961522 0.01984517
v -0.08502948 -0.05978402 0.01632395
v -0.08516410 -0.06143771 0.02311896
f 1 2 5
f 1 5 10
f 1 10 20
f 1 20 13
f 1 13 7
f 1 7 3
f 1 3 8
f 1 8 15
f 1 15 28
f 1 28 44
f 1 44 59
f 1 59 61
f 1 61 78
f 1 78 90
f 1 90 89
f 1 89 98
f 1 98 91
f 1 91 80
f 1 80 63
f 1 63 49
f 1 49 31
f 1 31 17
f 1 17 9
f 1 9 4
f 1 4 2
f 2 4 6
f 2 6 12
f 2 12 24
f 2 24 40
f 2 40 56
f 2 56 71
f 2 71 70
f 2 70 69
f 2 69 75
f 2 75 74
f 2 74 87
f 2 87 97
f 2 97 94
f 2 94 81
f 2 81 67
f 2 67 66
f 2 66 53
f 2 53 36
f 2 36 22
f 2 22 11
f 2 11 5
f 3 7 8
f 4 9 16
f 4 16 29
f 4 29 45
f 4 45 38
f 4 38 23
f 4 23 12
f 4 12 6
f 5 11 10
f 7 13 25
f 7 25 14
f 7 14 8
f 8 14 26
f 8 26 15
f 9 17 18
f 9 18 16
f 10 19 20
f 10 11 21
f 10 21 19
f 11 22 35
f 11 35 21
f 12 23 24
f 13 20 19
f 13 19 25
f 14 25 41
f 14 41 26
f 15 26 27
f 15 27 28
f 16 18 30
f 16 30 29
f 17 31 32
f 17 32 18
f 18 32 33
f 18 33 30
f 19 21 35
f 19 35 34
f 19 34 41
f 19 41 25
f 22 36 37
f 22 37 35
f 23 38 39
f 23 39 24
f 24 39 40
f 26 41 42
f 26 42 27
f 27 42 43
f 27 43 44
f 27 44 28
f 29 30 46
f 29 46 45
f 30 33 47
f 30 47 48
f 30 48 46
f 31 49 32
f 32 49 50
f 32 50 51
f 32 51 33
f 33 51 47
f 34 35 37
f 34 37 52
f 34 52 42
f 34 42 41
f 36 53 54
f 36 54 37
f 37 54 57
f 37 57 52
f 38 45 39
f 39 46 40
f 39 45 46
f 40 46 48
f 40 48 55
f 40 55 56
f 42 52 57
f 42 57 58
f 42 58 43
f 43 59 44
f 43 58 76
f 43 76 60
f 43 60 61
f 43 61 59
f 47 51 48
f 48 51 62
f 48 62 55
f 49 63 50
f 50 63 64
f 50 64 51
f 51 64 65
f 51 65 62
f 53 66 54
f 54 66 67
f 54 67 68
f 54 68 57
f 55 69 70
f 55 70 71
f 55 71 56
f 55 62 72
f 55 72 73
f 55 73 74
f 55 74 75
f 55 75 69
f 57 68 76
f 57 76 58
f 60 76 83
f 60 83 77
f 60 77 61
f 61 77 78
f 62 65 64
f 62 64 79
f 62 79 72
f 63 80 64
f 64 80 91
f 64 91 79
f 67 81 82
f 67 82 68
f 68 82 83
f 68 83 76
f 72 79 84
f 72 84 85
f 72 85 73
f 73 85 86
f 73 86 74
f 74 86 87
f 77 83 88
f 77 88 89
f 77 89 90
f 77 90 78
f 79 91 92
f 79 92 84
f 81 93 82
f 81 94 95
f 81 95 93
f 82 93 96
f 82 96 83
f 83 96 88
f 84 92 88
f 84 88 96
f 84 96 93
f 84 93 85
f 85 93 95
f 85 95 86
f 86 95 94
f 86 94 97
f 86 97 87
f 88 92 98
f 88 98 89
f 91 98 92
