# https://github.com/mikedh/trimesh
v 0.03839889 0.07660589 0.02838340
v 0.03839889 0.07457481 0.02838340
v 0.03839889 0.07660589 0.02495127
v 0.00001216 0.07660589 0.02838340
v 0.01857608 0.06852350 0.02838307
v 0.03839889 0.07287605 0.02833804
v 0.01687752 0.06852350 0.02838340
v 0.03839889 0.07457481 0.02495530
v 0.03788030 0.07660589 0.02495094
v 0.00001216 0.07660589 0.02495127
v 0.00001216 0.06852350 0.02838340
v 0.02027088 0.06852350 0.02835854
v 0.03839889 0.07153096 0.02789079
v 0.03839889 0.07438967 0.02495967
v 0.01783202 0.06852350 0.02495598
v 0.03311531 0.07660589 0.02495094
v 0.01613346 0.06852350 0.02495530
v 0.00001216 0.06852350 0.02495530
v 0.02196944 0.06852350 0.02821069
v 0.03839889 0.07105701 0.02663978
v 0.02357030 0.06852350 0.02794926
v 0.02481416 0.06852350 0.02771270
v 0.02524256 0.06852350 0.02759073
v 0.03839889 0.07287605 0.02500100
v 0.01952682 0.06852350 0.02497714
v 0.03839889 0.07149615 0.02555242
v 0.02541918 0.06852350 0.02738474
v 0.02547554 0.06852350 0.02663978
v 0.02516364 0.06852350 0.02569455
v 0.03839889 0.07272888 0.02504670
v 0.03839889 0.07155391 0.02541868
v 0.02292394 0.06852350 0.02528662
v 0.02462251 0.06852350 0.02556754
f 1 2 6
f 1 6 13
f 1 13 20
f 1 20 26
f 1 26 31
f 1 31 30
f 1 30 24
f 1 24 14
f 1 14 8
f 1 8 3
f 1 3 9
f 1 9 16
f 1 16 10
f 1 10 4
f 1 4 11
f 1 11 7
f 1 7 2
f 2 5 6
f 2 7 5
f 3 8 9
f 4 10 18
f 4 18 11
f 5 12 6
f 5 7 11
f 5 11 18
f 5 18 17
f 5 17 15
f 5 15 25
f 5 25 32
f 5 32 33
f 5 33 29
f 5 29 28
f 5 28 27
f 5 27 23
f 5 23 22
f 5 22 21
f 5 21 19
f 5 19 12
f 6 12 13
f 8 14 15
f 8 15 9
f 9 15 17
f 9 17 18
f 9 18 16
f 10 16 18
f 12 19 13
f 13 19 21
f 13 21 22
f 13 22 23
f 13 23 20
f 14 24 15
f 15 24 25
f 20 23 27
f 20 27 28
f 20 28 29
f 20 29 26
f 24 30 25
f 25 30 31
f 25 31 32
f 26 29 31
f 29 33 31
f 31 33 32
