# https://github.com/mikedh/trimesh
v -0.00001764 -0.04832784 0.02838340
v 0.00254383 -0.04924665 0.02838340
v 0.00423957 -0.04924665 0.02837568
v 0.00609196 -0.04924665 0.02794817
v 0.00695770 -0.04924665 0.02664013
v -0.00001764 -0.04832784 0.02495559
v -0.00255163 -0.04832784 0.02838340
v 0.00423957 -0.05112312 0.02838340
v 0.00423957 -0.04942589 0.02837770
v 0.00593805 -0.05112312 0.02827065
v 0.00933503 -0.05961553 0.02837736
v 0.01103351 -0.06102570 0.02833978
v 0.01283918 -0.06102570 0.02797670
v 0.00696594 -0.04974178 0.02766663
v 0.00685875 -0.04924665 0.02610155
v 0.01403472 -0.06102570 0.02664013
v -0.00255163 -0.04832784 0.02495559
v 0.00607822 -0.04924665 0.02536632
v 0.00603425 -0.04924665 0.02535424
v 0.00423957 -0.04924665 0.02496331
v 0.00406092 -0.04924665 0.02496062
v 0.00254383 -0.04924665 0.02495559
v -0.00315352 -0.04832784 0.02838139
v -0.00425011 -0.05112312 0.02838340
v 0.00763654 -0.05791705 0.02838340
v 0.01103351 -0.05961553 0.02819918
v 0.00933503 -0.06102570 0.02838206
v -0.00001764 -0.06113350 0.02838340
v 0.01234998 -0.05961553 0.02775791
v 0.00695220 -0.04976936 0.02563108
v -0.00001764 -0.06113350 0.02495559
v 0.01378737 -0.06102570 0.02614349
v -0.00425011 -0.05112312 0.02495559
v -0.00425011 -0.04942589 0.02496163
v -0.00425011 -0.04832784 0.02497606
v 0.01282544 -0.06102570 0.02533914
v 0.01270451 -0.06102570 0.02530089
v 0.00593805 -0.05112312 0.02506733
v 0.01103351 -0.06102570 0.02499821
v 0.01074768 -0.06102570 0.02496901
v 0.00423957 -0.04942589 0.02496129
v 0.00933503 -0.05961553 0.02496196
v 0.00763654 -0.05791705 0.02495559
v 0.00423957 -0.05112312 0.02495559
v -0.00425011 -0.04832784 0.02836293
v -0.00425011 -0.04942589 0.02837770
v -0.00764708 -0.05791705 0.02838340
v 0.00763654 -0.06102570 0.02838340
v -0.00916418 -0.06113350 0.02838340
v 0.01232799 -0.05961553 0.02554652
v -0.00764708 -0.06113350 0.02495559
v 0.00904920 -0.06102570 0.02495559
v 0.00933503 -0.06102570 0.02495693
v -0.00764708 -0.05791705 0.02495559
v -0.00934557 -0.05961553 0.02496230
v -0.01104406 -0.06113350 0.02499149
v -0.01283873 -0.06113350 0.02532941
v -0.00584691 -0.04832784 0.02539317
v 0.01103351 -0.05961553 0.02513512
v -0.00494545 -0.04832784 0.02819582
v -0.01281949 -0.06113350 0.02800153
v -0.01104406 -0.06113350 0.02834716
v -0.01086266 -0.06113350 0.02836864
v -0.00934557 -0.05961553 0.02837703
v -0.00934557 -0.06113350 0.02838273
v -0.00934557 -0.06113350 0.02495660
v -0.01404252 -0.06113350 0.02664013
v -0.01228357 -0.05961553 0.02557337
v -0.00693801 -0.04985835 0.02565390
v -0.00655599 -0.04832784 0.02664013
v -0.00587439 -0.04832784 0.02791764
v -0.01285797 -0.06113350 0.02798777
v -0.01380066 -0.06113350 0.02721530
v -0.00695175 -0.04981573 0.02764180
v -0.00630039 -0.04832784 0.02717436
f 1 2 3
f 1 3 4
f 1 4 5
f 1 5 6
f 1 6 17
f 1 17 35
f 1 35 58
f 1 58 70
f 1 70 75
f 1 75 71
f 1 71 60
f 1 60 45
f 1 45 23
f 1 23 7
f 1 7 24
f 1 24 47
f 1 47 49
f 1 49 28
f 1 28 48
f 1 48 25
f 1 25 8
f 1 8 2
f 2 8 9
f 2 9 3
f 3 10 4
f 3 9 11
f 3 11 12
f 3 12 10
f 4 10 13
f 4 13 14
f 4 14 5
f 5 15 6
f 5 14 16
f 5 16 15
f 6 15 18
f 6 18 19
f 6 19 20
f 6 20 21
f 6 21 22
f 6 22 44
f 6 44 43
f 6 43 52
f 6 52 31
f 6 31 51
f 6 51 54
f 6 54 33
f 6 33 17
f 7 23 24
f 8 25 9
f 9 25 11
f 10 12 26
f 10 26 13
f 11 25 27
f 11 27 12
f 12 13 26
f 12 27 28
f 12 28 13
f 13 16 29
f 13 29 14
f 13 28 16
f 14 29 16
f 15 16 30
f 15 30 18
f 16 28 31
f 16 31 32
f 16 32 30
f 17 33 34
f 17 34 35
f 18 30 36
f 18 36 37
f 18 37 19
f 19 37 38
f 19 38 20
f 20 38 39
f 20 39 40
f 20 40 41
f 20 41 21
f 21 41 42
f 21 42 43
f 21 43 44
f 21 44 22
f 23 45 46
f 23 46 47
f 23 47 24
f 25 48 27
f 27 48 28
f 28 49 65
f 28 65 63
f 28 63 62
f 28 62 61
f 28 61 72
f 28 72 73
f 28 73 67
f 28 67 57
f 28 57 56
f 28 56 66
f 28 66 51
f 28 51 31
f 30 32 50
f 30 50 36
f 31 52 53
f 31 53 40
f 31 40 39
f 31 39 37
f 31 37 36
f 31 36 32
f 32 36 50
f 33 54 34
f 34 54 55
f 34 55 35
f 35 55 56
f 35 56 57
f 35 57 58
f 37 59 38
f 37 39 59
f 38 59 39
f 40 53 42
f 40 42 41
f 42 53 43
f 43 53 52
f 45 60 61
f 45 61 62
f 45 62 63
f 45 63 46
f 46 63 64
f 46 64 65
f 46 65 47
f 47 65 49
f 51 66 54
f 54 66 55
f 55 66 56
f 57 67 68
f 57 68 58
f 58 68 69
f 58 69 70
f 60 71 61
f 61 71 72
f 63 65 64
f 67 73 70
f 67 70 69
f 67 69 68
f 70 73 74
f 70 74 75
f 71 75 74
f 71 74 73
f 71 73 72
