# https://github.com/mikedh/trimesh
v 0.05619237 -0.00043020 0.02495528
v 0.07710211 -0.00043020 0.02494484
v 0.05619237 -0.00043020 0.02838374
v 0.05619237 0.00663261 0.02495528
v 0.07710211 0.02905638 0.02494316
v 0.07710211 0.00323541 0.02494450
v 0.07710211 -0.00043020 0.02838374
v 0.05619237 0.00663261 0.02838374
v 0.05619237 0.00832976 0.02497852
v 0.05689857 0.00832976 0.02495798
v 0.07218530 0.02905638 0.02495562
v 0.07710211 0.02905638 0.02838374
v 0.05619237 0.00762261 0.02838205
v 0.07218530 0.02871002 0.02838374
v 0.07218530 0.02905638 0.02838340
v 0.05619237 0.01002980 0.02525098
v 0.07045767 0.02905638 0.02516948
v 0.07048632 0.02871002 0.02511828
v 0.07252920 0.02905638 0.02838374
v 0.05619237 0.00832976 0.02835983
v 0.07083022 0.02905638 0.02825004
v 0.05619237 0.01108907 0.02563929
v 0.06940757 0.02905638 0.02557193
v 0.05619237 0.00932265 0.02827024
v 0.07045562 0.02905638 0.02816180
v 0.05619237 0.01131998 0.02663987
v 0.06915784 0.02905638 0.02663987
v 0.05619237 0.01003268 0.02807491
v 0.06952834 0.02905638 0.02779807
v 0.05619237 0.01125071 0.02729829
v 0.06918446 0.02905638 0.02688505
v 0.05619237 0.01078601 0.02782165
v 0.06939120 0.02905638 0.02773139
v 0.05619237 0.01110639 0.02766066
f 1 2 7
f 1 7 3
f 1 3 8
f 1 8 13
f 1 13 20
f 1 20 24
f 1 24 28
f 1 28 32
f 1 32 34
f 1 34 30
f 1 30 26
f 1 26 22
f 1 22 16
f 1 16 9
f 1 9 4
f 1 4 5
f 1 5 6
f 1 6 2
f 2 6 5
f 2 5 12
f 2 12 7
f 3 7 12
f 3 12 19
f 3 19 14
f 3 14 8
f 4 9 10
f 4 10 11
f 4 11 5
f 5 11 17
f 5 17 23
f 5 23 27
f 5 27 31
f 5 31 33
f 5 33 29
f 5 29 25
f 5 25 21
f 5 21 15
f 5 15 19
f 5 19 12
f 8 14 15
f 8 15 13
f 9 16 17
f 9 17 18
f 9 18 11
f 9 11 10
f 11 18 17
f 13 15 20
f 14 19 15
f 15 21 20
f 16 22 23
f 16 23 17
f 20 21 24
f 21 25 24
f 22 26 27
f 22 27 23
f 24 25 28
f 25 29 28
f 26 30 27
f 27 30 31
f 28 29 32
f 29 33 32
f 30 34 33
f 30 33 31
f 32 33 34
