# https://github.com/mikedh/trimesh
v 0.06782733 -0.07442278 0.02838348
v 0.06782733 -0.08216644 0.03139389
v 0.06782733 -0.07442278 0.02495556
v -0.00001898 -0.07442278 0.02838348
v 0.06028959 -0.08339629 0.03161093
v 0.06198973 -0.08339629 0.03161093
v 0.06368987 -0.08339629 0.03160513
v 0.06782733 -0.08284577 0.03149164
v -0.00001898 -0.08339629 0.03159850
v 0.06782733 -0.08164874 0.02314882
v 0.03990781 -0.08024146 0.02314882
v 0.03830728 -0.08020865 0.02314882
v 0.03820766 -0.08020743 0.02314882
v 0.03660714 -0.08020379 0.02314882
v -0.00001898 -0.07442278 0.02495556
v -0.00001898 -0.08454958 0.03132182
v 0.05180216 -0.08454958 0.03132182
v 0.05349566 -0.08454593 0.03131850
v 0.06539002 -0.08339629 0.03158691
v 0.05519580 -0.08453864 0.03131105
v 0.05689595 -0.08453013 0.03130276
v 0.06709016 -0.08339629 0.03154797
v 0.06782733 -0.08346191 0.03147424
v 0.06782733 -0.08459332 0.02314882
v -0.00001898 -0.08020379 0.02314882
v -0.00001898 -0.08640407 0.02630834
v 0.01613238 -0.08640407 0.02630834
v 0.05349566 -0.08498464 0.03003697
v 0.05180216 -0.08499193 0.03003697
v 0.05859609 -0.08451676 0.03128868
v 0.06028959 -0.08449489 0.03126549
v 0.06198973 -0.08447180 0.03123815
v 0.05519580 -0.08497005 0.03003697
v 0.05689595 -0.08495425 0.03003697
v 0.06368987 -0.08444141 0.03120087
v 0.06539002 -0.08439645 0.03113874
v 0.06782733 -0.08402580 0.03118265
v 0.06782733 -0.08459575 0.02324326
v 0.06715657 -0.08464315 0.02314882
v -0.00001898 -0.08477683 0.02314882
v -0.00001898 -0.08662403 0.02561414
v 0.01613238 -0.08683670 0.02494148
v 0.05859609 -0.08492631 0.03003697
v 0.06028959 -0.08488377 0.03003697
v 0.06198973 -0.08483637 0.03003697
v 0.06368987 -0.08477683 0.03003697
v 0.06709016 -0.08434298 0.03105922
v 0.06782733 -0.08431624 0.03101200
v 0.06782733 -0.08460791 0.02397970
v 0.06709016 -0.08465044 0.02324326
v 0.06709016 -0.08464801 0.02314882
v -0.00001898 -0.08637612 0.02365580
v 0.04330809 -0.08504297 0.02314882
v -0.00001898 -0.08683670 0.02494148
v 0.06368987 -0.08490565 0.02833792
v 0.01613238 -0.08637612 0.02365580
v 0.06198973 -0.08489471 0.02314882
v 0.06359690 -0.08483880 0.02314882
v 0.06368987 -0.08483516 0.02314882
v 0.06368987 -0.08483759 0.02324326
v 0.06368987 -0.08486433 0.02494148
v 0.06539002 -0.08481936 0.02833792
v 0.06539002 -0.08468812 0.03003697
v 0.06782733 -0.08442440 0.03055223
v 0.06782733 -0.08462249 0.02494148
v 0.06709016 -0.08467718 0.02494148
v 0.06539002 -0.08475131 0.02324326
v 0.06699055 -0.08465409 0.02314882
v 0.04490862 -0.08504905 0.02314882
v 0.04660876 -0.08505026 0.02314882
v 0.05180216 -0.08505026 0.02314882
v 0.05340269 -0.08504419 0.02314882
v 0.05519580 -0.08502839 0.02314882
v 0.05680297 -0.08501259 0.02314882
v 0.05689595 -0.08501137 0.02314882
v 0.05859609 -0.08498464 0.02314882
v 0.06019661 -0.08494332 0.02314882
v 0.06028959 -0.08494089 0.02314882
v 0.06529704 -0.08475374 0.02314882
v 0.06539002 -0.08477804 0.02494148
v 0.06709016 -0.08471849 0.02833792
v 0.06709016 -0.08458481 0.03003697
v 0.06782733 -0.08451798 0.03009579
v 0.06782733 -0.08466381 0.02833792
v 0.06539002 -0.08474888 0.02314882
f 1 2 8
f 1 8 23
f 1 23 37
f 1 37 48
f 1 48 64
f 1 64 83
f 1 83 84
f 1 84 65
f 1 65 49
f 1 49 38
f 1 38 24
f 1 24 10
f 1 10 3
f 1 3 15
f 1 15 4
f 1 4 2
f 2 5 6
f 2 6 7
f 2 7 8
f 2 4 9
f 2 9 5
f 3 10 11
f 3 11 12
f 3 12 13
f 3 13 14
f 3 14 25
f 3 25 15
f 4 15 25
f 4 25 40
f 4 40 52
f 4 52 54
f 4 54 41
f 4 41 26
f 4 26 16
f 4 16 9
f 5 9 16
f 5 16 17
f 5 17 6
f 6 17 18
f 6 18 7
f 7 19 8
f 7 18 20
f 7 20 21
f 7 21 19
f 8 19 22
f 8 22 23
f 10 24 39
f 10 39 51
f 10 51 68
f 10 68 85
f 10 85 79
f 10 79 59
f 10 59 58
f 10 58 57
f 10 57 78
f 10 78 77
f 10 77 76
f 10 76 75
f 10 75 74
f 10 74 73
f 10 73 72
f 10 72 71
f 10 71 70
f 10 70 69
f 10 69 53
f 10 53 40
f 10 40 25
f 10 25 14
f 10 14 13
f 10 13 12
f 10 12 11
f 16 26 27
f 16 27 17
f 17 27 18
f 18 28 20
f 18 27 29
f 18 29 28
f 19 21 30
f 19 30 31
f 19 31 32
f 19 32 22
f 20 28 21
f 21 28 33
f 21 33 34
f 21 34 30
f 22 32 35
f 22 35 36
f 22 36 23
f 23 36 37
f 24 38 39
f 26 41 27
f 27 41 42
f 27 42 28
f 27 28 29
f 28 42 33
f 30 34 43
f 30 43 31
f 31 43 32
f 32 43 35
f 33 42 34
f 34 42 43
f 35 43 44
f 35 44 45
f 35 45 46
f 35 46 36
f 36 46 47
f 36 47 37
f 37 47 48
f 38 49 50
f 38 50 39
f 39 50 51
f 40 53 52
f 41 54 42
f 42 55 46
f 42 46 45
f 42 45 44
f 42 44 43
f 42 54 52
f 42 52 56
f 42 56 57
f 42 57 58
f 42 58 59
f 42 59 60
f 42 60 61
f 42 61 55
f 46 55 62
f 46 62 63
f 46 63 47
f 47 63 48
f 48 63 64
f 49 65 66
f 49 66 50
f 50 66 80
f 50 80 67
f 50 67 68
f 50 68 51
f 52 53 69
f 52 69 70
f 52 70 71
f 52 71 56
f 55 61 80
f 55 80 62
f 56 71 72
f 56 72 73
f 56 73 74
f 56 74 75
f 56 75 76
f 56 76 77
f 56 77 78
f 56 78 57
f 59 79 60
f 60 79 67
f 60 67 80
f 60 80 61
f 62 81 63
f 62 80 66
f 62 66 81
f 63 81 82
f 63 82 64
f 64 82 83
f 65 84 81
f 65 81 66
f 67 79 85
f 67 85 68
f 81 84 82
f 82 84 83
