# https://github.com/mikedh/trimesh
v -0.07103310 0.08319754 0.00567988
v -0.07103310 0.08303649 0.00116040
v -0.07219685 0.08288143 0.00116040
v -0.07162105 0.08311169 0.00567988
v -0.07103310 0.08016291 0.00567988
v -0.07103310 0.08263254 -0.00019377
v -0.07219685 0.08256466 -0.00014891
v -0.07389549 0.08239363 0.00004592
v -0.07219685 0.08302585 0.00567988
v -0.07489788 0.08226585 0.00022600
v -0.07389549 0.08253205 0.00116040
v -0.07331970 0.08279559 0.00567988
v -0.07103310 0.07639957 0.00308368
v -0.07876486 0.07639957 0.00567988
v -0.07103310 0.08136944 -0.00081414
v -0.07219685 0.08136944 -0.00077056
v -0.07389549 0.08136944 -0.00057637
v -0.07551677 0.08145729 -0.00023094
v -0.07729167 0.08097015 -0.00017006
v -0.07513328 0.08234239 0.00567988
v -0.07389549 0.08267646 0.00567988
v -0.07838911 0.08068998 0.00007284
v -0.07729167 0.08135813 0.00116040
v -0.07575881 0.08198635 0.00116040
v -0.07598205 0.08206089 0.00567988
v -0.07103310 0.07639957 0.00079703
v -0.08232351 0.07639957 0.00567988
v -0.07103310 0.07959791 -0.00031233
v -0.07219685 0.07967111 -0.00053215
v -0.07899032 0.07639957 -0.00074877
v -0.07559413 0.07967111 -0.00086733
v -0.07729167 0.07967111 -0.00079171
v -0.07896932 0.07968775 -0.00027196
v -0.08014080 0.07913207 -0.00000792
v -0.07931192 0.08009503 0.00116040
v -0.07846205 0.08074122 0.00116040
v -0.07729167 0.08150720 0.00567988
v -0.08177092 0.07748631 0.00567988
v -0.08170793 0.07738582 0.00116040
v -0.08217541 0.07639957 0.00116040
v -0.08069007 0.07639957 -0.00068917
v -0.07899032 0.07797279 -0.00085259
v -0.08070001 0.07792687 -0.00024889
v -0.08025131 0.07924653 0.00116040
v -0.08167146 0.07733059 0.00011129
v -0.08110008 0.07823499 0.00116040
v -0.07941802 0.08017955 0.00567988
v -0.07856925 0.08081576 0.00567988
v -0.08117855 0.07833614 0.00567988
v -0.08187591 0.07639957 -0.00007841
v -0.08032978 0.07933039 0.00567988
f 1 2 3
f 1 3 4
f 1 4 9
f 1 9 12
f 1 12 21
f 1 21 20
f 1 20 25
f 1 25 37
f 1 37 48
f 1 48 47
f 1 47 51
f 1 51 49
f 1 49 38
f 1 38 27
f 1 27 14
f 1 14 5
f 1 5 13
f 1 13 26
f 1 26 28
f 1 28 15
f 1 15 6
f 1 6 2
f 2 6 7
f 2 7 8
f 2 8 3
f 3 9 4
f 3 8 10
f 3 10 11
f 3 11 12
f 3 12 9
f 5 14 13
f 6 15 16
f 6 16 7
f 7 16 17
f 7 17 8
f 8 17 18
f 8 18 19
f 8 19 10
f 10 20 21
f 10 21 11
f 10 19 22
f 10 22 23
f 10 23 24
f 10 24 25
f 10 25 20
f 11 21 12
f 13 14 27
f 13 27 40
f 13 40 50
f 13 50 41
f 13 41 30
f 13 30 26
f 15 28 29
f 15 29 30
f 15 30 31
f 15 31 16
f 16 31 32
f 16 32 17
f 17 32 19
f 17 19 18
f 19 32 33
f 19 33 22
f 22 33 34
f 22 34 35
f 22 35 36
f 22 36 23
f 23 37 25
f 23 25 24
f 23 36 37
f 26 30 28
f 27 38 39
f 27 39 40
f 28 30 29
f 30 41 42
f 30 42 31
f 31 42 32
f 32 42 33
f 33 42 43
f 33 43 34
f 34 44 35
f 34 43 45
f 34 45 46
f 34 46 44
f 35 44 47
f 35 47 36
f 36 47 48
f 36 48 37
f 38 49 39
f 39 49 46
f 39 46 45
f 39 45 40
f 40 45 50
f 41 50 43
f 41 43 42
f 43 50 45
f 44 51 47
f 44 46 49
f 44 49 51
