# https://github.com/mikedh/trimesh
v -0.06918093 0.04752027 0.02663996
v -0.06034620 0.06196058 0.02663996
v -0.06034620 0.06204164 0.02704235
v -0.06918093 0.04798475 0.02734170
v -0.06918093 0.04909773 0.02549356
v -0.06034792 0.06271645 0.02543080
v -0.06034620 0.06271425 0.02543449
v -0.06034620 0.06268796 0.02787933
v -0.06918093 0.04905172 0.02784980
v -0.06918093 0.04915469 0.02545362
v -0.06034620 0.06276027 0.02542039
v -0.06034620 0.06270549 0.02788504
v -0.06918093 0.04908897 0.02785483
v -0.06034620 0.06434210 0.02829783
v -0.06918093 0.05249365 0.02508446
v -0.06879866 0.05249365 0.02512138
v -0.06034620 0.06438154 0.02503815
v -0.06918093 0.05211242 0.02824849
v -0.06034620 0.06438154 0.02830017
v -0.06879866 0.05419160 0.02835421
v -0.06918093 0.05419160 0.02497841
v -0.06879866 0.05419160 0.02498479
v -0.06034620 0.06608169 0.02495559
v -0.06918093 0.05381038 0.02836058
v -0.06034620 0.06604006 0.02838340
v -0.06918093 0.05589175 0.02495693
v -0.06879866 0.05589175 0.02495727
v -0.06034620 0.06777965 0.02495525
v -0.06710003 0.05928547 0.02495525
v -0.06879866 0.05589175 0.02838173
v -0.06918093 0.05550834 0.02838206
v -0.06034620 0.06990045 0.02838340
v -0.06710003 0.05928547 0.02838340
v -0.06918093 0.05758971 0.02495525
v -0.06879866 0.05758971 0.02495525
v -0.06034620 0.06990045 0.02495525
v -0.06879866 0.05758971 0.02838340
v -0.06918093 0.05720849 0.02838340
v -0.06918093 0.06990045 0.02838340
v -0.06918093 0.06990045 0.02495525
f 1 2 3
f 1 3 4
f 1 4 9
f 1 9 13
f 1 13 18
f 1 18 24
f 1 24 31
f 1 31 38
f 1 38 39
f 1 39 40
f 1 40 34
f 1 34 26
f 1 26 21
f 1 21 15
f 1 15 10
f 1 10 5
f 1 5 6
f 1 6 7
f 1 7 2
f 2 7 11
f 2 11 17
f 2 17 23
f 2 23 28
f 2 28 36
f 2 36 32
f 2 32 25
f 2 25 19
f 2 19 14
f 2 14 12
f 2 12 8
f 2 8 3
f 3 8 4
f 4 8 9
f 5 10 6
f 6 11 7
f 6 10 11
f 8 12 9
f 9 12 14
f 9 14 13
f 10 15 16
f 10 16 17
f 10 17 11
f 13 14 18
f 14 19 20
f 14 20 18
f 15 21 22
f 15 22 16
f 16 22 17
f 17 22 23
f 18 20 24
f 19 25 20
f 20 25 24
f 21 26 27
f 21 27 22
f 22 27 23
f 23 27 29
f 23 29 28
f 24 30 31
f 24 25 30
f 25 32 39
f 25 39 38
f 25 38 37
f 25 37 33
f 25 33 31
f 25 31 30
f 26 34 35
f 26 35 27
f 27 35 29
f 28 29 35
f 28 35 34
f 28 34 40
f 28 40 36
f 31 33 37
f 31 37 38
f 32 36 40
f 32 40 39
