# https://github.com/mikedh/trimesh
v -0.03784967 -0.00043122 0.02838340
v -0.03784967 -0.00186339 0.02838340
v -0.03784967 -0.00043122 0.02495525
v -0.05494921 -0.00043122 0.02838340
v -0.03784967 -0.00356188 0.02837568
v -0.04332132 -0.00356188 0.02838340
v -0.04162241 -0.00356188 0.02838173
v -0.03784967 -0.00186339 0.02495525
v -0.05494921 -0.00043122 0.02495525
v -0.05494921 -0.00669660 0.02838340
v -0.03784967 -0.00519937 0.02792833
v -0.05494921 -0.00695884 0.02838273
v -0.05351141 -0.00695884 0.02837904
v -0.05494921 -0.00839610 0.02834380
v -0.05494921 -0.00865732 0.02830454
v -0.03784967 -0.00223846 0.02495693
v -0.04162241 -0.00356188 0.02495727
v -0.04332132 -0.00356188 0.02495525
v -0.05494921 -0.00526036 0.02495525
v -0.03784967 -0.00595256 0.02663996
v -0.05494921 -0.01006002 0.02791994
v -0.05494921 -0.01026229 0.02783839
v -0.03784967 -0.00356188 0.02496331
v -0.05494921 -0.00695884 0.02495626
v -0.05181251 -0.00526036 0.02495525
v -0.03784967 -0.00534269 0.02565867
v -0.05494921 -0.01081321 0.02663996
v -0.05494921 -0.01024603 0.02547275
v -0.03784967 -0.00391865 0.02505526
v -0.05494921 -0.00865732 0.02503177
v -0.05351141 -0.00695884 0.02495995
v -0.03784967 -0.00516583 0.02538079
f 1 2 5
f 1 5 11
f 1 11 20
f 1 20 26
f 1 26 32
f 1 32 29
f 1 29 23
f 1 23 16
f 1 16 8
f 1 8 3
f 1 3 9
f 1 9 4
f 1 4 10
f 1 10 6
f 1 6 2
f 2 6 7
f 2 7 5
f 3 8 18
f 3 18 25
f 3 25 19
f 3 19 9
f 4 9 19
f 4 19 24
f 4 24 30
f 4 30 28
f 4 28 27
f 4 27 22
f 4 22 21
f 4 21 15
f 4 15 14
f 4 14 12
f 4 12 10
f 5 7 12
f 5 12 13
f 5 13 14
f 5 14 15
f 5 15 11
f 6 10 12
f 6 12 7
f 8 16 17
f 8 17 18
f 11 15 21
f 11 21 22
f 11 22 20
f 12 14 13
f 16 23 17
f 17 23 24
f 17 24 18
f 18 24 25
f 19 25 24
f 20 22 27
f 20 27 28
f 20 28 26
f 23 29 30
f 23 30 31
f 23 31 24
f 24 31 30
f 26 28 32
f 28 30 32
f 29 32 30
