# https://github.com/mikedh/trimesh
v -0.08219623 -0.04603835 0.01632395
v -0.08172741 -0.04603835 0.00560814
v -0.08511763 -0.04603835 0.01632395
v -0.08173202 -0.06786235 0.01632395
v -0.08119012 -0.06786235 0.00560814
v -0.08475149 -0.04603835 0.00560814
v -0.08507070 -0.04603835 0.01486371
v -0.08511801 -0.04615159 0.01632395
v -0.08464495 -0.06786235 0.01632395
v -0.08426305 -0.06786235 0.00560814
v -0.08495955 -0.04603835 0.01150158
v -0.08475264 -0.04772616 0.00560814
v -0.08493033 -0.04772616 0.01063718
v -0.08501186 -0.04772616 0.01304994
v -0.08506763 -0.04772616 0.01474936
v -0.08511878 -0.04772616 0.01632395
v -0.08459227 -0.06786235 0.01474936
v -0.08473764 -0.06640956 0.01632395
v -0.08468957 -0.06640956 0.01474936
v -0.08463534 -0.06640956 0.01304994
v -0.08440996 -0.06786235 0.00965424
v -0.08437612 -0.06640956 0.00560814
v -0.08495994 -0.04772616 0.01148479
v -0.08475264 -0.05177262 0.00560814
v -0.08493033 -0.05112314 0.01063718
v -0.08501186 -0.05112314 0.01304994
v -0.08506763 -0.05112314 0.01474936
v -0.08511878 -0.05112314 0.01632395
v -0.08453227 -0.06786235 0.01304994
v -0.08457727 -0.06640956 0.01135156
v -0.08483764 -0.06482644 0.01632395
v -0.08462534 -0.06471107 0.00965424
v -0.08447150 -0.06786235 0.01135156
v -0.08448535 -0.06471107 0.00560814
v -0.08495994 -0.05112314 0.01148479
v -0.08475225 -0.05282377 0.00560814
v -0.08495955 -0.05282377 0.01150158
v -0.08501071 -0.05282377 0.01304994
v -0.08506609 -0.05282377 0.01474936
v -0.08511686 -0.05282377 0.01632395
v -0.08485225 -0.06457647 0.01632395
v -0.08468110 -0.06471107 0.01135156
v -0.08489302 -0.06382657 0.01632395
v -0.08491379 -0.06331168 0.01612988
v -0.08457073 -0.06301258 0.00560814
v -0.08474380 -0.05452226 0.00560814
v -0.08495456 -0.05452226 0.01164844
v -0.08500071 -0.05452226 0.01304994
v -0.08505647 -0.05452226 0.01474936
v -0.08511647 -0.05294768 0.01632395
v -0.08492840 -0.06312154 0.01632395
v -0.08465034 -0.06301258 0.00795587
v -0.08493686 -0.06217936 0.01558229
v -0.08462726 -0.06131409 0.00560814
v -0.08472841 -0.05622075 0.00560814
v -0.08494610 -0.05622075 0.01190650
v -0.08498378 -0.05622075 0.01304994
v -0.08503917 -0.05622075 0.01474936
v -0.08509032 -0.05622075 0.01632395
v -0.08510570 -0.05464617 0.01632395
v -0.08510685 -0.05452226 0.01632395
v -0.08494533 -0.06267074 0.01632395
v -0.08498187 -0.06143800 0.01632395
v -0.08502955 -0.05978437 0.01632395
v -0.08503417 -0.05962414 0.01632395
v -0.08497494 -0.05974378 0.01461404
v -0.08495071 -0.05926522 0.01345696
v -0.08467611 -0.05961560 0.00560814
v -0.08471033 -0.05791710 0.00560814
v -0.08493994 -0.05733598 0.01209008
v -0.08501955 -0.05791710 0.01474936
v -0.08507031 -0.05791710 0.01632395
v -0.08493071 -0.05846831 0.01232506
v -0.08496032 -0.05790856 0.01295448
f 1 2 6
f 1 6 11
f 1 11 7
f 1 7 3
f 1 3 8
f 1 8 16
f 1 16 28
f 1 28 40
f 1 40 50
f 1 50 61
f 1 61 60
f 1 60 59
f 1 59 72
f 1 72 65
f 1 65 64
f 1 64 63
f 1 63 62
f 1 62 51
f 1 51 43
f 1 43 41
f 1 41 31
f 1 31 18
f 1 18 9
f 1 9 4
f 1 4 5
f 1 5 2
f 2 5 10
f 2 10 22
f 2 22 34
f 2 34 45
f 2 45 54
f 2 54 68
f 2 68 69
f 2 69 55
f 2 55 46
f 2 46 36
f 2 36 24
f 2 24 12
f 2 12 6
f 3 7 8
f 4 9 17
f 4 17 29
f 4 29 33
f 4 33 21
f 4 21 10
f 4 10 5
f 6 12 13
f 6 13 11
f 7 11 14
f 7 14 15
f 7 15 16
f 7 16 8
f 9 18 19
f 9 19 20
f 9 20 17
f 10 21 22
f 11 23 14
f 11 13 23
f 12 24 25
f 12 25 13
f 13 25 35
f 13 35 23
f 14 23 35
f 14 35 26
f 14 26 27
f 14 27 15
f 15 27 28
f 15 28 16
f 17 20 30
f 17 30 22
f 17 22 29
f 18 31 19
f 19 31 20
f 20 31 32
f 20 32 30
f 21 33 22
f 22 30 34
f 22 33 29
f 24 36 25
f 25 36 37
f 25 37 35
f 26 35 37
f 26 37 38
f 26 38 27
f 27 38 39
f 27 39 28
f 28 39 40
f 30 32 34
f 31 41 42
f 31 42 32
f 32 42 41
f 32 41 43
f 32 43 44
f 32 44 45
f 32 45 34
f 36 46 37
f 37 46 47
f 37 47 38
f 38 47 48
f 38 48 49
f 38 49 39
f 39 49 50
f 39 50 40
f 43 51 44
f 44 51 52
f 44 52 45
f 45 52 53
f 45 53 54
f 46 55 47
f 47 55 56
f 47 56 57
f 47 57 48
f 48 57 49
f 49 57 58
f 49 58 59
f 49 59 60
f 49 60 61
f 49 61 50
f 51 62 52
f 52 62 53
f 53 62 63
f 53 63 64
f 53 64 65
f 53 65 66
f 53 66 67
f 53 67 54
f 54 67 68
f 55 69 56
f 56 69 70
f 56 70 57
f 57 70 58
f 58 70 59
f 59 70 71
f 59 71 72
f 65 67 66
f 65 72 67
f 67 73 68
f 67 72 73
f 68 73 69
f 69 73 70
f 70 74 71
f 70 73 74
f 71 73 72
f 71 74 73
