# https://github.com/mikedh/trimesh
v -0.00655789 -0.04832784 0.02663996
v -0.00584869 -0.04832784 0.02539288
v -0.00629930 -0.04832784 0.02717457
v -0.00529376 -0.03399068 0.02769576
v -0.00546913 -0.03399068 0.02663996
v -0.00530336 -0.03399068 0.02570465
v -0.00527648 -0.03399068 0.02560833
v -0.00425173 -0.04772578 0.02498344
v -0.00425173 -0.04832784 0.02497572
v -0.00435030 -0.03399068 0.02522642
v -0.00425173 -0.03399068 0.02519051
v -0.00587366 -0.04832784 0.02791793
v -0.00425173 -0.03399068 0.02814311
v -0.00269957 -0.03399068 0.02496801
v -0.00255364 -0.04832784 0.02495525
v -0.00255364 -0.03399068 0.02495525
v -0.00494556 -0.04832784 0.02819614
v -0.00255364 -0.03399068 0.02838340
v -0.00425173 -0.04772578 0.02835555
v -0.00001962 -0.04832784 0.02495525
v -0.00001962 -0.03399068 0.02495525
v -0.00425173 -0.04832784 0.02836327
v -0.00001962 -0.03399068 0.02838340
v -0.00315530 -0.04832784 0.02838139
v -0.00255364 -0.04832784 0.02838340
v -0.00001962 -0.04832784 0.02838340
f 1 2 9
f 1 9 15
f 1 15 20
f 1 20 26
f 1 26 25
f 1 25 24
f 1 24 22
f 1 22 17
f 1 17 12
f 1 12 3
f 1 3 4
f 1 4 5
f 1 5 6
f 1 6 7
f 1 7 2
f 2 8 9
f 2 7 10
f 2 10 11
f 2 11 8
f 3 12 4
f 4 13 18
f 4 18 23
f 4 23 21
f 4 21 16
f 4 16 14
f 4 14 11
f 4 11 10
f 4 10 7
f 4 7 6
f 4 6 5
f 4 12 13
f 8 11 14
f 8 14 9
f 9 14 16
f 9 16 15
f 12 17 13
f 13 17 19
f 13 19 18
f 15 16 21
f 15 21 20
f 17 22 19
f 18 19 22
f 18 22 24
f 18 24 25
f 18 25 26
f 18 26 23
f 20 21 23
f 20 23 26
