# https://github.com/mikedh/trimesh
v -0.00642560 0.04741712 0.02663996
v -0.00577502 0.04741712 0.02790954
v -0.00576998 0.04741712 0.02542711
v -0.00518049 0.03635159 0.02569726
v -0.00527496 0.03635159 0.02663996
v -0.00524788 0.03635159 0.02710410
v -0.00519498 0.03635159 0.02760213
v -0.00425154 0.04739654 0.02835656
v -0.00425154 0.04741712 0.02835656
v -0.00473900 0.03635159 0.02782362
v -0.00425154 0.03635159 0.02804780
v -0.00575235 0.04741712 0.02539959
v -0.00425154 0.03635159 0.02528146
v -0.00255361 0.04230029 0.02838340
v -0.00423139 0.04741712 0.02835689
v -0.00340636 0.03635159 0.02822836
v -0.00255361 0.03635159 0.02838206
v -0.00427547 0.04741712 0.02498747
v -0.00255361 0.03635159 0.02495693
v -0.00425154 0.04739654 0.02498244
v -0.00255361 0.04741712 0.02838340
v -0.00170842 0.03635159 0.02838307
v -0.00085505 0.03635159 0.02838340
v -0.00425154 0.04741712 0.02498244
v -0.00085505 0.03635159 0.02495525
v -0.00255361 0.04230029 0.02495525
v 0.00000840 0.04741712 0.02838340
v 0.00000840 0.03635159 0.02838340
v -0.00255361 0.04741712 0.02495525
v 0.00000840 0.03635159 0.02495525
v 0.00000840 0.04741712 0.02495525
f 1 2 9
f 1 9 15
f 1 15 21
f 1 21 27
f 1 27 31
f 1 31 29
f 1 29 24
f 1 24 18
f 1 18 12
f 1 12 3
f 1 3 4
f 1 4 5
f 1 5 6
f 1 6 7
f 1 7 2
f 2 8 9
f 2 7 10
f 2 10 11
f 2 11 8
f 3 12 4
f 4 13 19
f 4 19 25
f 4 25 30
f 4 30 28
f 4 28 23
f 4 23 22
f 4 22 17
f 4 17 16
f 4 16 11
f 4 11 10
f 4 10 7
f 4 7 6
f 4 6 5
f 4 12 13
f 8 14 15
f 8 15 9
f 8 11 16
f 8 16 17
f 8 17 14
f 12 18 13
f 13 18 20
f 13 20 19
f 14 21 15
f 14 17 22
f 14 22 23
f 14 23 28
f 14 28 27
f 14 27 21
f 18 24 20
f 19 20 26
f 19 26 25
f 20 24 29
f 20 29 26
f 25 26 29
f 25 29 31
f 25 31 30
f 27 28 30
f 27 30 31
