# https://github.com/mikedh/trimesh
v -0.00001161 -0.07485210 0.00081878
v 0.00255082 -0.07485210 0.00081878
v -0.00001161 -0.07485210 0.00308506
v -0.00001161 -0.00043165 0.00081945
v 0.00001048 0.06754898 0.00081945
v 0.07500586 -0.07432242 0.00081923
v 0.07500586 -0.07485210 0.00081923
v 0.07241397 0.06754898 0.00081945
v 0.04844637 -0.07485210 0.00308506
v 0.07520467 -0.00043165 0.00308551
v -0.00001161 -0.00043165 0.00308506
v 0.00001048 0.06754898 0.00308506
v 0.07520467 0.04945612 0.00081945
v 0.07520467 -0.00043165 0.00081945
v 0.07500586 -0.07485210 0.00308484
v 0.07520467 0.06754898 0.00081967
v 0.07387927 -0.07319336 0.00308506
v 0.07520467 0.00832206 0.00308551
v 0.06878385 0.06754898 0.00308506
v 0.07520467 0.06754898 0.00308395
v 0.07520467 0.04569259 0.00308506
v 0.07217834 0.06754898 0.00308484
v 0.07468923 0.06754898 0.00308417
v 0.07387927 0.06754898 0.00308440
f 1 2 7
f 1 7 15
f 1 15 9
f 1 9 3
f 1 3 11
f 1 11 4
f 1 4 5
f 1 5 8
f 1 8 2
f 2 6 7
f 2 8 6
f 3 9 10
f 3 10 18
f 3 18 11
f 4 11 12
f 4 12 5
f 5 12 19
f 5 19 22
f 5 22 24
f 5 24 23
f 5 23 20
f 5 20 16
f 5 16 8
f 6 8 13
f 6 13 14
f 6 14 7
f 7 14 10
f 7 10 15
f 8 16 13
f 9 15 17
f 9 17 10
f 10 14 13
f 10 13 16
f 10 16 20
f 10 20 21
f 10 21 18
f 10 17 15
f 11 18 12
f 12 18 19
f 18 21 19
f 19 21 22
f 20 23 21
f 21 23 24
f 21 24 22
