# https://github.com/mikedh/trimesh
v 0.05180051 0.08483310 0.02833824
v 0.05180051 0.08482826 0.02840806
v 0.05349849 0.08482585 0.02833824
v 0.05180051 0.08479283 0.02494114
v 0.00001595 0.08483310 0.02833824
v 0.05343057 0.08482101 0.02840806
v 0.00001595 0.08482826 0.02840806
v 0.05349849 0.08478478 0.02494114
v 0.05519647 0.08481055 0.02833824
v 0.05349849 0.08477592 0.02433227
v 0.05241178 0.08478075 0.02433227
v 0.05180051 0.08478317 0.02433227
v 0.05070626 0.08478397 0.02433227
v 0.04670657 0.08479283 0.02494114
v 0.00001595 0.08482263 0.02747520
v 0.05512855 0.08480572 0.02840806
v 0.00001595 0.07969785 0.02840806
v 0.05519647 0.08476947 0.02494114
v 0.05689444 0.08478961 0.02840806
v 0.05689444 0.08479444 0.02833824
v 0.05519647 0.08476061 0.02433227
v 0.05010253 0.08478397 0.02433227
v 0.00001595 0.08481216 0.02663969
v 0.00001595 0.07660590 0.02838373
v 0.07592689 0.07660590 0.02840806
v 0.05689444 0.08475336 0.02494114
v 0.05859242 0.08476222 0.02840806
v 0.05859242 0.08476706 0.02833824
v 0.05689444 0.08474450 0.02433227
v 0.04500105 0.08478317 0.02433227
v 0.00001595 0.08475659 0.02577705
v 0.04391434 0.08478075 0.02433227
v 0.00001595 0.07660590 0.02495112
v 0.07709662 0.07660590 0.02840806
v 0.05859242 0.08472599 0.02494114
v 0.05750572 0.08473484 0.02433227
v 0.06029040 0.08471954 0.02840806
v 0.06029040 0.08472438 0.02833824
v 0.00001595 0.08470263 0.02494114
v 0.04330307 0.08477833 0.02433227
v 0.00001595 0.07937004 0.02433227
v 0.07709662 0.07869914 0.02433227
v 0.07709662 0.07660590 0.02490803
v 0.07709662 0.08261180 0.02840806
v 0.05859242 0.08471713 0.02433227
v 0.06029040 0.08468330 0.02494114
v 0.05920369 0.08470182 0.02433227
v 0.06198838 0.08467363 0.02840806
v 0.06198838 0.08467846 0.02833824
v 0.00001595 0.08448194 0.02433227
v 0.07709662 0.08257394 0.02433227
v 0.07709662 0.08261824 0.02833824
v 0.07703624 0.08263435 0.02840806
v 0.06029040 0.08467443 0.02433227
v 0.06198838 0.08463739 0.02494114
v 0.06361844 0.08461645 0.02840806
v 0.06368636 0.08461967 0.02833824
v 0.07709662 0.08258361 0.02494114
v 0.07614575 0.08290818 0.02433227
v 0.07557975 0.08315464 0.02833824
v 0.07557975 0.08314900 0.02840806
v 0.06198838 0.08462773 0.02433227
v 0.06368636 0.08457859 0.02494114
v 0.06259965 0.08460678 0.02433227
v 0.06368636 0.08461403 0.02840806
v 0.06538433 0.08452786 0.02840806
v 0.06538433 0.08453269 0.02833824
v 0.07557975 0.08311598 0.02494114
v 0.07557975 0.08310551 0.02433227
v 0.07388177 0.08356942 0.02663969
v 0.07388177 0.08358795 0.02833824
v 0.07551184 0.08316672 0.02840806
v 0.06368636 0.08456892 0.02433227
v 0.06538433 0.08449161 0.02494114
v 0.06708986 0.08442637 0.02840806
v 0.06708986 0.08443201 0.02833824
v 0.07449304 0.08338418 0.02433227
v 0.07388177 0.08354929 0.02494114
v 0.07257621 0.08385373 0.02833824
v 0.07388177 0.08358231 0.02840806
v 0.06538433 0.08448194 0.02433227
v 0.06708986 0.08439093 0.02494114
v 0.06871237 0.08430556 0.02840806
v 0.06878784 0.08430556 0.02833824
v 0.07388177 0.08353962 0.02433227
v 0.07241774 0.08383520 0.02494114
v 0.07249320 0.08384567 0.02663969
v 0.07172345 0.08396729 0.02833824
v 0.07171591 0.08396649 0.02840806
v 0.07255358 0.08384970 0.02840806
v 0.06708986 0.08438127 0.02433227
v 0.06878784 0.08426449 0.02494114
v 0.06878784 0.08429992 0.02840806
v 0.07048582 0.08412354 0.02833824
v 0.07293845 0.08372245 0.02433227
v 0.07238000 0.08383037 0.02433227
v 0.07156498 0.08394715 0.02494114
v 0.07047827 0.08411870 0.02840806
v 0.06878784 0.08425482 0.02433227
v 0.07048582 0.08408247 0.02494114
v 0.07152725 0.08394152 0.02433227
v 0.07083296 0.08402930 0.02433227
v 0.07048582 0.08407280 0.02433227
f 1 2 3
f 1 3 4
f 1 4 14
f 1 14 5
f 1 5 7
f 1 7 2
f 2 6 3
f 2 7 17
f 2 17 25
f 2 25 34
f 2 34 44
f 2 44 53
f 2 53 61
f 2 61 72
f 2 72 80
f 2 80 90
f 2 90 89
f 2 89 98
f 2 98 93
f 2 93 83
f 2 83 75
f 2 75 66
f 2 66 65
f 2 65 56
f 2 56 48
f 2 48 37
f 2 37 27
f 2 27 19
f 2 19 16
f 2 16 6
f 3 8 4
f 3 6 16
f 3 16 9
f 3 9 18
f 3 18 8
f 4 8 10
f 4 10 11
f 4 11 12
f 4 12 13
f 4 13 22
f 4 22 14
f 5 15 23
f 5 23 31
f 5 31 39
f 5 39 50
f 5 50 41
f 5 41 33
f 5 33 24
f 5 24 17
f 5 17 7
f 5 14 15
f 8 18 21
f 8 21 10
f 9 16 19
f 9 19 20
f 9 20 26
f 9 26 18
f 10 21 29
f 10 29 36
f 10 36 45
f 10 45 47
f 10 47 54
f 10 54 62
f 10 62 64
f 10 64 73
f 10 73 81
f 10 81 91
f 10 91 99
f 10 99 103
f 10 103 102
f 10 102 101
f 10 101 96
f 10 96 95
f 10 95 85
f 10 85 77
f 10 77 69
f 10 69 59
f 10 59 51
f 10 51 42
f 10 42 41
f 10 41 50
f 10 50 40
f 10 40 32
f 10 32 30
f 10 30 22
f 10 22 13
f 10 13 12
f 10 12 11
f 14 22 23
f 14 23 15
f 17 24 25
f 18 26 29
f 18 29 21
f 19 27 28
f 19 28 20
f 20 28 35
f 20 35 26
f 22 30 23
f 23 30 32
f 23 32 31
f 24 33 43
f 24 43 34
f 24 34 25
f 26 35 36
f 26 36 29
f 27 37 38
f 27 38 28
f 28 38 46
f 28 46 35
f 31 32 39
f 32 40 39
f 33 41 42
f 33 42 43
f 34 43 42
f 34 42 51
f 34 51 58
f 34 58 52
f 34 52 44
f 35 45 36
f 35 46 47
f 35 47 45
f 37 48 49
f 37 49 38
f 38 49 55
f 38 55 46
f 39 40 50
f 44 52 53
f 46 54 47
f 46 55 54
f 48 56 57
f 48 57 49
f 49 57 63
f 49 63 55
f 51 59 58
f 52 58 60
f 52 60 53
f 53 60 61
f 54 55 62
f 55 63 64
f 55 64 62
f 56 65 57
f 57 65 66
f 57 66 67
f 57 67 74
f 57 74 63
f 58 59 68
f 58 68 60
f 59 69 68
f 60 68 70
f 60 70 71
f 60 71 72
f 60 72 61
f 63 73 64
f 63 74 81
f 63 81 73
f 66 75 76
f 66 76 67
f 67 76 82
f 67 82 74
f 68 69 77
f 68 77 78
f 68 78 70
f 70 78 79
f 70 79 71
f 71 79 80
f 71 80 72
f 74 82 91
f 74 91 81
f 75 83 76
f 76 83 84
f 76 84 92
f 76 92 82
f 77 85 78
f 78 85 86
f 78 86 87
f 78 87 79
f 79 87 88
f 79 88 89
f 79 89 90
f 79 90 80
f 82 92 99
f 82 99 91
f 83 93 84
f 84 93 94
f 84 94 100
f 84 100 92
f 85 95 86
f 86 95 96
f 86 96 97
f 86 97 88
f 86 88 87
f 88 97 94
f 88 94 89
f 89 94 98
f 92 100 103
f 92 103 99
f 93 98 94
f 94 97 100
f 96 101 97
f 97 101 102
f 97 102 100
f 100 102 103
