# https://github.com/mikedh/trimesh
v -0.06662079 -0.05424465 0.02663996
v -0.06662759 -0.05424465 0.02661345
v -0.06717775 -0.05424465 0.02785148
v -0.06615553 -0.05519714 0.02758300
v -0.05976747 -0.06294825 0.02663996
v -0.05983199 -0.06294825 0.02639263
v -0.06617081 -0.05522270 0.02571270
v -0.06719474 -0.05424465 0.02546100
v -0.06879939 -0.05424465 0.02832535
v -0.06042291 -0.06294825 0.02782664
v -0.06096459 -0.06197191 0.02763233
v -0.06043989 -0.06294825 0.02548483
v -0.06098157 -0.06198895 0.02566337
v -0.06742227 -0.05424465 0.02537744
v -0.06049083 -0.06294825 0.02546302
v -0.07049744 -0.05424465 0.02838340
v -0.06879939 -0.05452069 0.02835219
v -0.06200719 -0.06294825 0.02824413
v -0.06879939 -0.05424465 0.02501298
v -0.06207172 -0.06294825 0.02507540
v -0.06710134 -0.05961540 0.02838340
v -0.06540329 -0.06131420 0.02838273
v -0.06879939 -0.05621949 0.02838139
v -0.07711304 -0.05424465 0.02838340
v -0.06370524 -0.06294825 0.02837602
v -0.06879939 -0.05452069 0.02498680
v -0.06907447 -0.05424465 0.02498177
v -0.06370524 -0.06294825 0.02496297
v -0.06540329 -0.06294825 0.02838340
v -0.07711304 -0.05424465 0.02495525
v -0.07711304 -0.06294825 0.02838340
v -0.06376977 -0.06294825 0.02495895
v -0.06879939 -0.05621949 0.02495760
v -0.07049744 -0.05424465 0.02495559
v -0.07711304 -0.06294825 0.02495525
v -0.07077252 -0.05424465 0.02495525
v -0.06546782 -0.06294825 0.02495525
v -0.06540329 -0.06131420 0.02495626
v -0.07049744 -0.05452069 0.02495525
v -0.06710134 -0.05961540 0.02495525
f 1 2 8
f 1 8 14
f 1 14 19
f 1 19 27
f 1 27 34
f 1 34 36
f 1 36 30
f 1 30 24
f 1 24 16
f 1 16 9
f 1 9 3
f 1 3 4
f 1 4 5
f 1 5 2
f 2 5 6
f 2 6 7
f 2 7 8
f 3 9 10
f 3 10 11
f 3 11 4
f 4 11 5
f 5 11 10
f 5 10 18
f 5 18 25
f 5 25 29
f 5 29 31
f 5 31 35
f 5 35 37
f 5 37 32
f 5 32 28
f 5 28 20
f 5 20 15
f 5 15 12
f 5 12 6
f 6 12 13
f 6 13 7
f 7 13 8
f 8 13 12
f 8 12 15
f 8 15 14
f 9 16 17
f 9 17 18
f 9 18 10
f 14 15 19
f 15 20 19
f 16 21 22
f 16 22 23
f 16 23 17
f 16 24 31
f 16 31 29
f 16 29 21
f 17 23 25
f 17 25 18
f 19 26 27
f 19 20 26
f 20 28 26
f 21 29 22
f 22 29 25
f 22 25 23
f 24 30 35
f 24 35 31
f 26 28 32
f 26 32 27
f 27 33 34
f 27 32 33
f 30 36 39
f 30 39 40
f 30 40 37
f 30 37 35
f 32 37 38
f 32 38 34
f 32 34 33
f 34 38 39
f 34 39 36
f 37 40 38
f 38 40 39
