# https://github.com/mikedh/trimesh
v 0.06709182 0.08136969 -0.00087534
v 0.05758422 0.08136969 -0.00073430
v 0.05758422 0.08235934 -0.00048412
v 0.05758422 0.08301946 -0.00030949
v 0.05859739 0.08300977 -0.00030949
v 0.06029768 0.08298608 -0.00030949
v 0.06199563 0.08296023 -0.00030781
v 0.06369358 0.08292955 -0.00030781
v 0.06878977 0.08136969 -0.00086359
v 0.07558158 0.07967091 -0.00086695
v 0.05758422 0.08083017 -0.00048412
v 0.07629663 0.07895586 -0.00080818
v 0.05758422 0.08350406 0.00057035
v 0.05758422 0.08382443 0.00116138
v 0.05859739 0.08380666 0.00116138
v 0.06539386 0.08288862 -0.00030445
v 0.06709182 0.08284555 -0.00030110
v 0.07048539 0.08136969 -0.00083336
v 0.07218567 0.08136969 -0.00076956
v 0.07728186 0.07967091 -0.00079139
v 0.07799691 0.07895586 -0.00081657
v 0.05758422 0.08003436 -0.00011304
v 0.05758422 0.07895586 0.00061400
v 0.05758422 0.08445602 0.01627814
v 0.05859739 0.08443933 0.01627814
v 0.06029768 0.08439626 0.01627814
v 0.06029768 0.08376090 0.00116138
v 0.06709182 0.08346475 0.00116138
v 0.06878977 0.08275993 -0.00026080
v 0.06199563 0.08371136 0.00116138
v 0.06369358 0.08364836 0.00116138
v 0.06539386 0.08356113 0.00116138
v 0.07048539 0.08266356 -0.00021378
v 0.07218567 0.08256448 -0.00014830
v 0.07388363 0.08136969 -0.00057647
v 0.07728186 0.08097070 -0.00017013
v 0.07895885 0.07968760 -0.00027087
v 0.07896816 0.07895586 -0.00051938
v 0.05758422 0.07895586 0.00313934
v 0.05758422 0.08153284 0.01627814
v 0.06199563 0.08434941 0.01627814
v 0.06539386 0.08419918 0.01627814
v 0.06709182 0.08409742 0.01627814
v 0.06801882 0.08392458 0.01373434
v 0.06825872 0.08394773 0.01474850
v 0.06874086 0.08397035 0.01627814
v 0.06878977 0.08330645 0.00116138
v 0.06369358 0.08428803 0.01627814
v 0.07048539 0.08310831 0.00116138
v 0.07388363 0.08239380 0.00004647
v 0.07550472 0.08145799 -0.00023057
v 0.07837889 0.08069071 0.00007334
v 0.07488516 0.08226565 0.00022614
v 0.08012809 0.07913193 -0.00000726
v 0.08021193 0.07895586 -0.00004252
v 0.07967855 0.07895586 -0.00026248
v 0.07696509 0.07895586 0.01627814
v 0.06720827 0.08408881 0.01627814
v 0.06916243 0.08392728 0.01627814
v 0.06941864 0.08389066 0.01606154
v 0.06981925 0.08385297 0.01627814
v 0.07036194 0.08378728 0.01627814
v 0.07062281 0.08375336 0.01627814
v 0.07218567 0.08354767 0.01627814
v 0.07218567 0.08288109 0.00116138
v 0.07728186 0.08135838 0.00116138
v 0.07845109 0.08074133 0.00116138
v 0.07930123 0.08009574 0.00116138
v 0.07388363 0.08253164 0.00116138
v 0.07388363 0.08322246 0.01627814
v 0.07558158 0.08276855 0.01627814
v 0.07569105 0.08273301 0.01627814
v 0.07677643 0.08237064 0.01627814
v 0.07574695 0.08198620 0.00116138
v 0.08023988 0.07924608 0.00116138
v 0.08031908 0.07895586 0.00022278
v 0.08133691 0.07895586 0.01627814
v 0.07754040 0.08202766 0.01627814
v 0.07762424 0.08198943 0.01627814
v 0.07899378 0.08117369 0.01627814
v 0.07911956 0.08108754 0.01627814
v 0.07988119 0.08056418 0.01627814
v 0.08073832 0.07966283 0.01627814
v 0.08085012 0.07954492 0.01627814
v 0.08104344 0.07933761 0.01627814
v 0.08137651 0.07895586 0.01596751
v 0.08048444 0.07895586 0.00116138
f 1 2 3
f 1 3 4
f 1 4 5
f 1 5 6
f 1 6 7
f 1 7 8
f 1 8 9
f 1 9 10
f 1 10 2
f 2 11 22
f 2 22 23
f 2 23 39
f 2 39 40
f 2 40 24
f 2 24 14
f 2 14 13
f 2 13 4
f 2 4 3
f 2 10 12
f 2 12 11
f 4 13 5
f 5 13 6
f 6 13 14
f 6 14 7
f 7 14 15
f 7 15 8
f 8 16 9
f 8 15 16
f 9 16 17
f 9 17 18
f 9 18 10
f 10 18 19
f 10 19 20
f 10 20 21
f 10 21 12
f 11 12 22
f 12 21 38
f 12 38 56
f 12 56 55
f 12 55 76
f 12 76 87
f 12 87 86
f 12 86 77
f 12 77 57
f 12 57 39
f 12 39 23
f 12 23 22
f 14 24 25
f 14 25 15
f 15 25 26
f 15 26 27
f 15 27 17
f 15 17 16
f 17 28 29
f 17 29 19
f 17 19 18
f 17 27 30
f 17 30 31
f 17 31 32
f 17 32 28
f 19 29 33
f 19 33 34
f 19 34 35
f 19 35 20
f 20 36 37
f 20 37 38
f 20 38 21
f 20 35 36
f 24 40 57
f 24 57 77
f 24 77 85
f 24 85 84
f 24 84 83
f 24 83 82
f 24 82 81
f 24 81 80
f 24 80 79
f 24 79 78
f 24 78 73
f 24 73 72
f 24 72 71
f 24 71 70
f 24 70 64
f 24 64 63
f 24 63 62
f 24 62 61
f 24 61 59
f 24 59 46
f 24 46 58
f 24 58 43
f 24 43 42
f 24 42 48
f 24 48 41
f 24 41 26
f 24 26 25
f 26 41 27
f 27 41 30
f 28 42 43
f 28 43 44
f 28 44 45
f 28 45 46
f 28 46 47
f 28 47 34
f 28 34 33
f 28 33 29
f 28 32 42
f 30 41 48
f 30 48 31
f 31 48 32
f 32 48 42
f 34 47 49
f 34 49 50
f 34 50 35
f 35 50 51
f 35 51 36
f 36 52 37
f 36 51 50
f 36 50 53
f 36 53 52
f 37 54 55
f 37 55 56
f 37 56 38
f 37 52 54
f 39 57 40
f 43 58 44
f 44 58 45
f 45 58 46
f 46 59 47
f 47 59 60
f 47 60 49
f 49 60 61
f 49 61 62
f 49 62 63
f 49 63 64
f 49 64 65
f 49 65 50
f 50 65 53
f 52 66 67
f 52 67 68
f 52 68 54
f 52 53 66
f 53 65 69
f 53 69 70
f 53 70 71
f 53 71 72
f 53 72 73
f 53 73 74
f 53 74 66
f 54 68 75
f 54 75 76
f 54 76 55
f 59 61 60
f 64 70 65
f 65 70 69
f 66 73 78
f 66 78 79
f 66 79 67
f 66 74 73
f 67 80 81
f 67 81 82
f 67 82 68
f 67 79 80
f 68 82 75
f 75 82 83
f 75 83 84
f 75 84 85
f 75 85 86
f 75 86 87
f 75 87 76
f 77 86 85
