# https://github.com/mikedh/trimesh
v 0.07520467 0.06100857 0.00081982
v 0.07921925 0.06100857 0.00069765
v 0.07520467 0.06100857 0.00308387
v 0.07520467 0.07423092 0.00081906
v 0.07921925 0.07423092 -0.00033982
v 0.07921925 0.06100857 0.00314098
v 0.07921925 0.07422963 0.00352374
v 0.07520467 0.07249642 0.00308500
v 0.07520467 0.07423092 0.00308500
v 0.07921925 0.07423092 0.00338077
v 0.07921611 0.07423092 0.00352298
f 1 2 6
f 1 6 3
f 1 3 8
f 1 8 9
f 1 9 4
f 1 4 5
f 1 5 2
f 2 5 10
f 2 10 7
f 2 7 6
f 3 6 7
f 3 7 8
f 4 9 11
f 4 11 10
f 4 10 5
f 7 10 11
f 7 11 9
f 7 9 8
