# https://github.com/mikedh/trimesh
v 0.08367967 0.03718763 0.02315635
v 0.08212018 0.03715838 0.00549610
v 0.08246811 0.03718763 0.01627654
v 0.07949009 0.03718763 0.02315635
v 0.08373873 0.00663192 0.02315635
v 0.08220058 -0.00041828 0.00390570
v 0.07908160 0.03715838 0.00549610
v 0.07952185 0.03718763 0.01627654
v 0.07946775 0.03549822 0.02315635
v 0.08374171 0.00153442 0.02315635
v 0.08374171 -0.00041828 0.02315635
v 0.08219959 -0.00185172 0.00390570
v 0.07872027 -0.00041828 0.00390570
v 0.07946527 0.03380149 0.02315635
v 0.07954567 -0.00041828 0.02315635
v 0.08326324 -0.03752687 0.02289065
v 0.08208295 -0.03750493 0.00390570
v 0.08218023 -0.01139581 0.00390570
v 0.08218371 -0.01034998 0.00390570
v 0.08218867 -0.00865326 0.00390570
v 0.08219165 -0.00695653 0.00390570
v 0.08219562 -0.00460159 0.00390570
v 0.08219810 -0.00290486 0.00390570
v 0.07867212 -0.03583015 0.00390570
v 0.07867113 -0.03750493 0.00390570
v 0.07949753 -0.03413342 0.02289065
v 0.07950001 -0.03583015 0.02289065
v 0.07950448 -0.03618119 0.02289065
v 0.07952384 -0.03752687 0.02289065
v 0.08251874 -0.03752687 0.01764270
v 0.07956702 -0.03752687 0.01764270
f 1 2 3
f 1 3 8
f 1 8 4
f 1 4 9
f 1 9 14
f 1 14 15
f 1 15 11
f 1 11 10
f 1 10 5
f 1 5 6
f 1 6 2
f 2 7 8
f 2 8 3
f 2 6 13
f 2 13 7
f 4 8 7
f 4 7 9
f 5 10 6
f 6 10 11
f 6 11 12
f 6 12 23
f 6 23 22
f 6 22 21
f 6 21 20
f 6 20 19
f 6 19 18
f 6 18 17
f 6 17 25
f 6 25 24
f 6 24 13
f 7 13 9
f 9 13 14
f 11 15 29
f 11 29 16
f 11 16 17
f 11 17 18
f 11 18 19
f 11 19 20
f 11 20 21
f 11 21 22
f 11 22 23
f 11 23 12
f 13 24 14
f 14 24 25
f 14 25 26
f 14 26 27
f 14 27 15
f 15 27 28
f 15 28 29
f 16 29 31
f 16 31 30
f 16 30 17
f 17 30 31
f 17 31 25
f 25 31 29
f 25 29 28
f 25 28 27
f 25 27 26
