# https://github.com/mikedh/trimesh
v -0.08456577 0.06990132 0.02883451
v -0.08440911 0.06990132 0.03003698
v -0.08455960 0.06997540 0.02883451
v -0.08065312 0.06990132 0.02883451
v -0.08425785 0.06990132 0.03038035
v -0.08368137 0.07117804 0.03142201
v -0.08429103 0.07117804 0.03003698
v -0.08440834 0.07117804 0.02883451
v -0.08165250 0.06990132 0.03038115
v -0.07668258 0.07880349 0.02883451
v -0.08372073 0.06990132 0.03142227
v -0.08238796 0.07287656 0.03157691
v -0.08238796 0.07457420 0.03154604
v -0.08355558 0.07287656 0.03131918
v -0.08402248 0.07287656 0.03003698
v -0.08433039 0.07167391 0.02883451
v -0.08220043 0.06990132 0.03116293
v -0.07806629 0.07880349 0.03095997
v -0.08188094 0.07880349 0.02883451
v -0.08248596 0.06990132 0.03140697
v -0.07985901 0.07880349 0.03154228
v -0.08068938 0.07797210 0.03154980
v -0.08242114 0.07611236 0.03133824
v -0.08335570 0.07457420 0.03106816
v -0.08324303 0.07543784 0.03089742
v -0.08363121 0.07457420 0.03003698
v -0.08374156 0.07457420 0.02883451
v -0.08412820 0.07287656 0.02883451
v -0.07837421 0.07880349 0.03126629
v -0.08220429 0.07826492 0.02883451
v -0.08178910 0.07880349 0.02974649
v -0.08062070 0.07880349 0.03134442
v -0.08180145 0.07797210 0.03117931
v -0.08156066 0.07880349 0.03091541
v -0.08157764 0.07880349 0.03087084
v -0.08298142 0.07650278 0.03003698
v -0.08332715 0.07565309 0.03003698
v -0.08365282 0.07488967 0.02883451
v -0.08237715 0.07797210 0.02883451
v -0.08224904 0.07797210 0.03003698
v -0.08175746 0.07880349 0.03003698
v -0.08113082 0.07880349 0.03117421
v -0.08304084 0.07664832 0.02883451
v -0.08314194 0.07640082 0.02883451
v -0.08338426 0.07579950 0.02883451
v -0.08282707 0.07707709 0.02883451
f 1 2 3
f 1 3 8
f 1 8 16
f 1 16 28
f 1 28 27
f 1 27 38
f 1 38 45
f 1 45 44
f 1 44 43
f 1 43 46
f 1 46 39
f 1 39 30
f 1 30 19
f 1 19 10
f 1 10 4
f 1 4 9
f 1 9 17
f 1 17 20
f 1 20 11
f 1 11 5
f 1 5 2
f 2 5 6
f 2 6 7
f 2 7 3
f 3 7 8
f 4 10 9
f 5 11 6
f 6 12 13
f 6 13 14
f 6 14 7
f 6 11 12
f 7 14 15
f 7 15 16
f 7 16 8
f 9 10 18
f 9 18 17
f 10 19 31
f 10 31 41
f 10 41 35
f 10 35 34
f 10 34 42
f 10 42 32
f 10 32 21
f 10 21 29
f 10 29 18
f 11 20 12
f 12 20 21
f 12 21 22
f 12 22 13
f 13 22 23
f 13 23 14
f 14 23 24
f 14 24 15
f 15 24 25
f 15 25 26
f 15 26 27
f 15 27 28
f 15 28 16
f 17 18 29
f 17 29 20
f 19 30 31
f 20 29 21
f 21 32 22
f 22 32 33
f 22 33 23
f 23 33 25
f 23 25 24
f 25 33 34
f 25 34 35
f 25 35 36
f 25 36 37
f 25 37 26
f 26 38 27
f 26 37 38
f 30 39 40
f 30 40 31
f 31 40 41
f 32 42 33
f 33 42 34
f 35 41 40
f 35 40 36
f 36 43 44
f 36 44 37
f 36 40 43
f 37 45 38
f 37 44 45
f 39 46 40
f 40 46 43
