# https://github.com/mikedh/trimesh
v -0.08226093 -0.00043021 0.00560709
v -0.07923107 -0.00043021 0.00560709
v -0.08223128 -0.00043021 0.00455737
v -0.08225955 -0.00186518 0.00560709
v -0.07521724 -0.00043021 0.00308587
v -0.07910558 -0.03583384 0.00560709
v -0.08218025 -0.00043021 0.00285948
v -0.08217956 -0.00186518 0.00285948
v -0.08222990 -0.00186518 0.00455737
v -0.08222507 -0.00526242 0.00455737
v -0.08225610 -0.00421161 0.00560709
v -0.07521724 -0.00043021 0.00081921
v -0.07521724 -0.03073798 0.00308587
v -0.07910626 -0.03753246 0.00560709
v -0.07521724 -0.03890718 0.00308540
v -0.08212854 -0.00043021 0.00265799
v -0.08182583 -0.03890718 0.00159136
v -0.08212715 -0.03890718 0.00285948
v -0.08225197 -0.00696105 0.00560709
v -0.07521724 -0.03890718 0.00081921
v -0.07899111 -0.00043021 0.00080934
v -0.07912350 -0.03890718 0.00560709
v -0.08184582 -0.00043021 0.00157257
v -0.08184513 -0.00186518 0.00157304
v -0.08068946 -0.03890718 0.00098641
v -0.08219267 -0.03890718 0.00560709
v -0.07899111 -0.03890718 0.00080934
v -0.08042398 -0.00043021 0.00094226
v -0.08166516 -0.00043021 0.00147769
v -0.08068946 -0.00186518 0.00096763
v -0.08068946 -0.00043021 0.00096716
f 1 2 5
f 1 5 12
f 1 12 21
f 1 21 28
f 1 28 31
f 1 31 29
f 1 29 23
f 1 23 16
f 1 16 7
f 1 7 3
f 1 3 9
f 1 9 4
f 1 4 11
f 1 11 19
f 1 19 26
f 1 26 22
f 1 22 14
f 1 14 6
f 1 6 2
f 2 6 5
f 3 7 8
f 3 8 9
f 4 9 10
f 4 10 11
f 5 6 13
f 5 13 15
f 5 15 20
f 5 20 12
f 6 14 15
f 6 15 13
f 7 16 8
f 8 16 17
f 8 17 18
f 8 18 9
f 9 18 10
f 10 18 11
f 11 18 19
f 12 20 27
f 12 27 21
f 14 22 15
f 15 22 26
f 15 26 18
f 15 18 17
f 15 17 25
f 15 25 27
f 15 27 20
f 16 23 24
f 16 24 17
f 17 24 25
f 18 26 19
f 21 27 28
f 23 29 25
f 23 25 24
f 25 29 30
f 25 30 27
f 27 30 31
f 27 31 28
f 29 31 30
