# https://github.com/mikedh/trimesh
v 0.07710153 0.06852271 0.02838340
v 0.07710153 0.05547319 0.02838340
v 0.07710153 0.06852271 0.02495525
v 0.05859778 0.06852271 0.02838340
v 0.07710153 0.05547319 0.02495525
v 0.07048497 0.05547319 0.02838340
v 0.05785647 0.06852271 0.02495525
v 0.05689961 0.06852271 0.02837636
v 0.05859778 0.06777929 0.02838340
v 0.07048497 0.05547319 0.02495525
v 0.06878680 0.05589089 0.02838139
v 0.06878680 0.05547319 0.02837434
v 0.05615830 0.06852271 0.02496264
v 0.06920478 0.05547319 0.02495727
v 0.05520144 0.06852271 0.02831024
v 0.05689961 0.06777929 0.02837099
v 0.05520144 0.06777929 0.02825420
v 0.06708863 0.05589089 0.02823373
v 0.06708075 0.05547319 0.02814848
v 0.05446013 0.06852271 0.02503680
v 0.06878680 0.05547319 0.02496465
v 0.05350590 0.06852271 0.02811761
v 0.05180510 0.06852271 0.02789309
v 0.05058535 0.06852271 0.02763401
v 0.06592147 0.05547319 0.02771925
v 0.05274355 0.06852271 0.02526199
v 0.06750661 0.05547319 0.02507372
v 0.05024888 0.06852271 0.02663996
v 0.05060113 0.06849589 0.02762495
v 0.06562442 0.05547319 0.02663996
v 0.05140815 0.06852271 0.02548584
v 0.06708075 0.05547319 0.02518178
v 0.05061953 0.06852271 0.02566605
v 0.05058010 0.06852271 0.02571572
v 0.06567699 0.05547319 0.02625839
v 0.06613440 0.05547319 0.02549188
v 0.05062742 0.06850866 0.02567042
v 0.06594250 0.05547319 0.02558350
f 1 2 5
f 1 5 3
f 1 3 7
f 1 7 13
f 1 13 20
f 1 20 26
f 1 26 31
f 1 31 33
f 1 33 34
f 1 34 28
f 1 28 24
f 1 24 23
f 1 23 22
f 1 22 15
f 1 15 8
f 1 8 4
f 1 4 9
f 1 9 6
f 1 6 2
f 2 6 12
f 2 12 19
f 2 19 25
f 2 25 30
f 2 30 35
f 2 35 38
f 2 38 36
f 2 36 32
f 2 32 27
f 2 27 21
f 2 21 14
f 2 14 10
f 2 10 5
f 3 5 10
f 3 10 7
f 4 8 9
f 6 11 12
f 6 9 11
f 7 10 14
f 7 14 13
f 8 15 16
f 8 16 11
f 8 11 9
f 11 16 12
f 12 16 15
f 12 15 17
f 12 17 18
f 12 18 19
f 13 14 21
f 13 21 20
f 15 22 17
f 17 22 23
f 17 23 18
f 18 23 19
f 19 23 24
f 19 24 25
f 20 21 27
f 20 27 26
f 24 28 29
f 24 29 25
f 25 29 28
f 25 28 30
f 26 27 31
f 27 32 33
f 27 33 31
f 28 34 35
f 28 35 30
f 32 36 33
f 33 37 34
f 33 36 38
f 33 38 37
f 34 37 38
f 34 38 35
