# https://github.com/mikedh/trimesh
v -0.02649054 -0.00043020 0.02495525
v -0.01622706 -0.00043020 0.02495525
v -0.02649054 -0.00043020 0.02838340
v -0.02649054 0.00323309 0.02495525
v -0.01622706 -0.00043020 0.02838340
v -0.01622706 0.00832844 0.02495525
v -0.02649054 0.00323309 0.02838340
v -0.02649054 0.00493200 0.02496230
v -0.02633382 0.00493200 0.02496029
v -0.02463496 0.00493200 0.02495525
v -0.01622706 0.00832844 0.02838340
v -0.01784153 0.00832844 0.02495525
v -0.01622706 0.01002736 0.02495928
v -0.02649054 0.00477552 0.02837904
v -0.02463496 0.00493200 0.02838340
v -0.02649054 0.00676225 0.02535294
v -0.02463496 0.00663092 0.02505426
v -0.01622706 0.01172628 0.02507506
v -0.01784153 0.01002736 0.02500761
v -0.02123824 0.00663092 0.02495525
v -0.01622706 0.00994213 0.02838240
v -0.01784153 0.00832844 0.02838340
v -0.02633382 0.00493200 0.02837871
v -0.02649054 0.00493200 0.02837669
v -0.02123824 0.00663092 0.02838340
v -0.02649054 0.00679858 0.02536133
v -0.01622706 0.01327849 0.02549658
v -0.01622706 0.01002736 0.02837971
v -0.01622706 0.01164105 0.02828272
v -0.02463496 0.00663092 0.02828407
v -0.02649054 0.00647444 0.02810016
v -0.02649054 0.00769973 0.02667285
v -0.02603242 0.00765502 0.02562310
v -0.01622706 0.01384294 0.02663996
v -0.01622706 0.01172628 0.02826125
v -0.02649054 0.00663372 0.02804881
v -0.01622706 0.01322680 0.02784477
v -0.02649054 0.00769973 0.02669534
v -0.01622706 0.01382338 0.02678662
v -0.02649054 0.00759774 0.02760649
v -0.02649054 0.00752509 0.02765146
v -0.01622706 0.01329386 0.02781423
f 1 2 5
f 1 5 3
f 1 3 7
f 1 7 14
f 1 14 24
f 1 24 31
f 1 31 36
f 1 36 41
f 1 41 40
f 1 40 38
f 1 38 32
f 1 32 26
f 1 26 16
f 1 16 8
f 1 8 4
f 1 4 10
f 1 10 20
f 1 20 12
f 1 12 6
f 1 6 2
f 2 6 13
f 2 13 18
f 2 18 27
f 2 27 34
f 2 34 39
f 2 39 42
f 2 42 37
f 2 37 35
f 2 35 29
f 2 29 28
f 2 28 21
f 2 21 11
f 2 11 5
f 3 5 11
f 3 11 22
f 3 22 25
f 3 25 15
f 3 15 7
f 4 8 9
f 4 9 10
f 6 12 13
f 7 15 14
f 8 16 17
f 8 17 18
f 8 18 19
f 8 19 13
f 8 13 9
f 9 13 10
f 10 13 20
f 11 21 22
f 12 20 13
f 13 19 18
f 14 15 21
f 14 21 23
f 14 23 24
f 15 25 21
f 16 26 17
f 17 26 18
f 18 26 27
f 21 28 24
f 21 24 23
f 21 25 22
f 24 28 29
f 24 29 30
f 24 30 31
f 26 32 33
f 26 33 27
f 27 33 34
f 29 35 31
f 29 31 30
f 31 35 37
f 31 37 36
f 32 38 34
f 32 34 33
f 34 38 40
f 34 40 39
f 36 37 41
f 37 42 41
f 39 40 42
f 40 41 42
