# https://github.com/mikedh/trimesh
v -0.07982922 -0.08132654 0.02833834
v -0.07982922 -0.08128667 0.02865777
v -0.07982922 -0.08129567 0.02494117
v -0.07899077 -0.08191303 0.02833834
v -0.07967160 -0.08139728 0.02865777
v -0.07982922 -0.07324566 0.02865777
v -0.07982922 -0.08128539 0.02437568
v -0.07936293 -0.08160949 0.02437568
v -0.07899077 -0.08186801 0.02437568
v -0.07899077 -0.08187702 0.02494117
v -0.07804871 -0.08250466 0.02833834
v -0.07899077 -0.08187316 0.02865777
v -0.07982922 -0.07258458 0.02865316
v -0.07237513 -0.07963654 0.02865777
v -0.07982922 -0.07593886 0.02437568
v -0.07833476 -0.08227315 0.02437568
v -0.07800711 -0.08248665 0.02494117
v -0.07719931 -0.08287892 0.02833834
v -0.07716574 -0.08286478 0.02865777
v -0.07801514 -0.08248279 0.02865777
v -0.07982922 -0.07103092 0.02863052
v -0.07237513 -0.08414064 0.02865777
v -0.07237513 -0.07103092 0.02838361
v -0.07982922 -0.07103092 0.02470684
v -0.07237513 -0.07103092 0.02495543
v -0.07246562 -0.08029248 0.02437568
v -0.07799617 -0.08248150 0.02437568
v -0.07771303 -0.08260626 0.02437568
v -0.07715771 -0.08285963 0.02494117
v -0.07559466 -0.08344097 0.02833834
v -0.07559466 -0.08341525 0.02865777
v -0.07389587 -0.08384868 0.02865777
v -0.07242402 -0.08416122 0.02833834
v -0.07237513 -0.08416894 0.02833834
v -0.07237513 -0.08036579 0.02437568
v -0.07714677 -0.08285449 0.02437568
v -0.07610327 -0.08321719 0.02437568
v -0.07559466 -0.08340239 0.02494117
v -0.07389587 -0.08383839 0.02494117
v -0.07389587 -0.08385640 0.02663934
v -0.07389587 -0.08387441 0.02833834
v -0.07237513 -0.08415736 0.02734987
v -0.07237513 -0.08411106 0.02437568
v -0.07559466 -0.08339210 0.02437568
v -0.07389587 -0.08382810 0.02437568
v -0.07280859 -0.08403260 0.02437568
v -0.07237513 -0.08412392 0.02494117
v -0.07237513 -0.08412135 0.02482757
f 1 2 6
f 1 6 13
f 1 13 21
f 1 21 24
f 1 24 15
f 1 15 7
f 1 7 3
f 1 3 4
f 1 4 5
f 1 5 2
f 2 5 12
f 2 12 20
f 2 20 19
f 2 19 31
f 2 31 32
f 2 32 22
f 2 22 14
f 2 14 6
f 3 7 8
f 3 8 9
f 3 9 10
f 3 10 4
f 4 10 11
f 4 11 12
f 4 12 5
f 6 14 13
f 7 15 26
f 7 26 35
f 7 35 43
f 7 43 46
f 7 46 45
f 7 45 44
f 7 44 37
f 7 37 36
f 7 36 28
f 7 28 27
f 7 27 16
f 7 16 9
f 7 9 8
f 9 16 17
f 9 17 10
f 10 17 11
f 11 17 18
f 11 18 19
f 11 19 20
f 11 20 12
f 13 14 21
f 14 22 34
f 14 34 42
f 14 42 47
f 14 47 48
f 14 48 43
f 14 43 35
f 14 35 25
f 14 25 23
f 14 23 21
f 15 24 25
f 15 25 26
f 16 27 17
f 17 28 29
f 17 29 18
f 17 27 28
f 18 29 30
f 18 30 31
f 18 31 19
f 21 23 25
f 21 25 24
f 22 32 33
f 22 33 34
f 25 35 26
f 28 36 29
f 29 36 37
f 29 37 38
f 29 38 30
f 30 38 39
f 30 39 40
f 30 40 41
f 30 41 32
f 30 32 31
f 32 41 33
f 33 42 34
f 33 41 40
f 33 40 39
f 33 39 42
f 37 44 38
f 38 44 45
f 38 45 39
f 39 45 46
f 39 46 47
f 39 47 42
f 43 48 46
f 46 48 47
