# https://github.com/mikedh/trimesh
v 0.00000840 0.07979374 0.01627814
v 0.00000840 0.07937029 0.02433187
v 0.00000840 0.08272026 0.01627814
v 0.03651431 0.07979268 0.01627814
v 0.00000840 0.08448189 0.02433187
v 0.03651431 0.07937029 0.02433187
v 0.04330892 0.08448772 0.01627814
v 0.03804209 0.07979586 0.01627814
v 0.03798466 0.07937135 0.02433187
v 0.04330892 0.08477867 0.02433187
v 0.04330892 0.08475960 0.02324238
v 0.04330892 0.08471084 0.02154350
v 0.04330892 0.08464566 0.01984540
v 0.04330892 0.08457252 0.01814731
v 0.04500326 0.08450309 0.01627814
v 0.04347548 0.08448984 0.01627814
v 0.03820866 0.07979639 0.01627814
v 0.03820866 0.07937188 0.02433187
v 0.04391773 0.08478080 0.02433187
v 0.04500326 0.08476596 0.02324238
v 0.04500326 0.08471773 0.02154350
v 0.04500326 0.08465360 0.01984540
v 0.04500326 0.08458364 0.01814731
v 0.04500326 0.08451051 0.01644843
v 0.04517557 0.08450362 0.01627814
v 0.03990875 0.07980858 0.01627814
v 0.03967900 0.07939096 0.02433187
v 0.04500326 0.08478292 0.02433187
v 0.04561208 0.08478344 0.02433187
v 0.04670334 0.08476702 0.02324238
v 0.04670334 0.08471879 0.02154350
v 0.04670334 0.08465519 0.01984540
v 0.04670334 0.08458523 0.01814731
v 0.04670334 0.08451210 0.01644843
v 0.04670334 0.08450468 0.01627814
v 0.04160883 0.07992412 0.01627814
v 0.03990875 0.07939573 0.02433187
v 0.05010352 0.08478398 0.02433187
v 0.05179786 0.08476702 0.02324238
v 0.05179786 0.08471879 0.02154350
v 0.05179786 0.08465519 0.01984540
v 0.05179786 0.08458523 0.01814731
v 0.05179786 0.08451210 0.01644843
v 0.05179786 0.08450468 0.01627814
v 0.05868436 0.08151457 0.01627814
v 0.05868436 0.08106780 0.02433187
v 0.05071233 0.08478398 0.02433187
v 0.05179786 0.08478344 0.02433187
v 0.05240668 0.08478080 0.02433187
v 0.05349795 0.08475960 0.02324238
v 0.05349795 0.08471137 0.02154350
v 0.05349795 0.08464777 0.01984540
v 0.05349795 0.08457835 0.01814731
v 0.05349795 0.08450574 0.01644843
v 0.05197017 0.08450415 0.01627814
v 0.05868436 0.08443685 0.01627814
v 0.05868436 0.08471508 0.02433187
v 0.05349795 0.08477549 0.02433187
v 0.05410676 0.08477020 0.02433187
v 0.05519804 0.08474423 0.02324238
v 0.05519804 0.08469653 0.02154350
v 0.05519804 0.08463293 0.01984540
v 0.05519804 0.08456298 0.01814731
v 0.05519804 0.08448348 0.01627814
v 0.05349795 0.08449832 0.01627814
v 0.05868436 0.08444426 0.01643975
v 0.05859246 0.08443949 0.01627814
v 0.05868436 0.08469812 0.02324238
v 0.05859246 0.08471720 0.02433187
v 0.05580685 0.08475483 0.02433187
v 0.05689812 0.08474476 0.02433187
v 0.05689812 0.08472832 0.02324238
v 0.05689812 0.08468010 0.02154350
v 0.05689812 0.08461651 0.01984540
v 0.05689812 0.08454707 0.01814731
v 0.05689812 0.08447447 0.01644843
v 0.05689812 0.08446705 0.01627814
v 0.05859246 0.08451951 0.01814731
v 0.05868436 0.08451316 0.01805980
v 0.05868436 0.08469600 0.02315487
v 0.05859246 0.08470024 0.02324238
v 0.05859246 0.08465254 0.02154350
v 0.05859246 0.08458895 0.01984540
v 0.05868436 0.08458682 0.01984540
v 0.05868436 0.08451687 0.01814731
v 0.05868436 0.08465043 0.02154350
v 0.05868436 0.08464725 0.02145599
f 1 2 5
f 1 5 3
f 1 3 7
f 1 7 16
f 1 16 15
f 1 15 25
f 1 25 35
f 1 35 44
f 1 44 55
f 1 55 65
f 1 65 64
f 1 64 77
f 1 77 67
f 1 67 56
f 1 56 45
f 1 45 36
f 1 36 26
f 1 26 17
f 1 17 8
f 1 8 4
f 1 4 2
f 2 4 6
f 2 6 9
f 2 9 18
f 2 18 27
f 2 27 37
f 2 37 46
f 2 46 57
f 2 57 69
f 2 69 71
f 2 71 70
f 2 70 59
f 2 59 58
f 2 58 49
f 2 49 48
f 2 48 47
f 2 47 38
f 2 38 29
f 2 29 28
f 2 28 19
f 2 19 10
f 2 10 5
f 3 5 7
f 4 8 9
f 4 9 6
f 5 10 11
f 5 11 12
f 5 12 13
f 5 13 14
f 5 14 15
f 5 15 16
f 5 16 7
f 8 17 18
f 8 18 9
f 10 19 20
f 10 20 11
f 11 20 21
f 11 21 12
f 12 21 22
f 12 22 13
f 13 22 23
f 13 23 24
f 13 24 14
f 14 24 15
f 15 24 25
f 17 26 18
f 18 26 27
f 19 28 20
f 20 28 29
f 20 29 30
f 20 30 31
f 20 31 21
f 21 31 32
f 21 32 22
f 22 32 33
f 22 33 23
f 23 33 25
f 23 25 24
f 25 33 34
f 25 34 35
f 26 36 37
f 26 37 27
f 29 38 30
f 30 38 47
f 30 47 39
f 30 39 40
f 30 40 31
f 31 40 41
f 31 41 32
f 32 41 42
f 32 42 33
f 33 42 43
f 33 43 34
f 34 43 44
f 34 44 35
f 36 45 46
f 36 46 37
f 39 47 48
f 39 48 49
f 39 49 50
f 39 50 51
f 39 51 40
f 40 51 52
f 40 52 41
f 41 52 53
f 41 53 42
f 42 53 54
f 42 54 55
f 42 55 43
f 43 55 44
f 45 56 66
f 45 66 79
f 45 79 85
f 45 85 84
f 45 84 87
f 45 87 86
f 45 86 80
f 45 80 68
f 45 68 57
f 45 57 46
f 49 58 50
f 50 58 59
f 50 59 70
f 50 70 60
f 50 60 61
f 50 61 51
f 51 61 62
f 51 62 52
f 52 62 53
f 53 62 63
f 53 63 64
f 53 64 54
f 54 64 65
f 54 65 55
f 56 67 66
f 57 68 81
f 57 81 69
f 60 70 71
f 60 71 72
f 60 72 61
f 61 72 73
f 61 73 74
f 61 74 62
f 62 74 75
f 62 75 63
f 63 75 64
f 64 75 76
f 64 76 77
f 66 67 78
f 66 78 79
f 67 77 76
f 67 76 78
f 68 80 81
f 69 81 72
f 69 72 71
f 72 81 82
f 72 82 73
f 73 82 83
f 73 83 74
f 74 83 78
f 74 78 75
f 75 78 76
f 78 83 84
f 78 84 85
f 78 85 79
f 80 86 82
f 80 82 81
f 82 86 87
f 82 87 83
f 83 87 84
