# https://github.com/mikedh/trimesh
v -0.05779764 -0.08169837 -0.00074696
v -0.05779764 -0.08247416 -0.00054308
v -0.05779764 -0.08099241 -0.00042276
v -0.05690799 -0.08169837 -0.00074028
v -0.04502041 -0.08334563 -0.00031079
v -0.04671919 -0.08334947 -0.00031079
v -0.05779764 -0.08332143 -0.00030912
v -0.04841412 -0.08335003 -0.00031079
v -0.05181167 -0.08335003 -0.00031079
v -0.05520922 -0.08333903 -0.00030912
v -0.05690799 -0.08332913 -0.00030912
v -0.05779764 -0.08035572 -0.00012696
v -0.04671919 -0.08169837 -0.00066006
v -0.04841412 -0.08169837 -0.00067343
v -0.04502041 -0.08169837 -0.00063666
v -0.04332164 -0.08305477 -0.00008351
v -0.04502041 -0.08414946 0.00116150
v -0.04671919 -0.08415661 0.00116150
v -0.04841412 -0.08415770 0.00116150
v -0.05779764 -0.08369696 0.00039110
v -0.05351044 -0.08415221 0.00116150
v -0.05520922 -0.08413736 0.00116150
v -0.05181167 -0.08415770 0.00116150
v -0.05351044 -0.08334728 -0.00030912
v -0.05779764 -0.07917692 0.00063509
v -0.05520922 -0.07917692 0.00063676
v -0.05011289 -0.07917692 0.00064010
v -0.04841412 -0.07917692 0.00064177
v -0.04671919 -0.07917692 0.00064344
v -0.04555727 -0.07917692 0.00064679
v -0.04502041 -0.07917692 0.00064846
v -0.04841412 -0.08040026 -0.00005176
v -0.04671919 -0.08040905 -0.00003839
v -0.04502041 -0.08043215 -0.00001332
v -0.03822532 -0.07917692 0.00079886
v -0.03821190 -0.07918297 0.00079886
v -0.03821190 -0.07999999 0.00079385
v -0.04332164 -0.08368596 0.00116150
v -0.03821190 -0.08001154 0.00079719
v -0.03821190 -0.08159006 0.00140382
v -0.03821190 -0.08159611 0.00141385
v -0.03821190 -0.08238180 0.00285940
v -0.04332164 -0.08388664 0.00285940
v -0.04244349 -0.08426657 0.00856976
v -0.04406940 -0.08426327 0.00502189
v -0.04332164 -0.08453213 0.01135057
v -0.04332164 -0.08462010 0.01305015
v -0.04332164 -0.08470367 0.01474805
v -0.04332164 -0.08477680 0.01632228
v -0.04344435 -0.08477845 0.01632228
v -0.04502041 -0.08479219 0.01632228
v -0.04671919 -0.08479384 0.01632228
v -0.05779764 -0.08410382 0.00116150
v -0.05690799 -0.08411867 0.00116150
v -0.05181167 -0.08479384 0.01632228
v -0.05351044 -0.08478669 0.01632228
v -0.05520922 -0.08477185 0.01632228
v -0.05533384 -0.08477075 0.01632228
v -0.05690799 -0.08475535 0.01632228
v -0.05779764 -0.07917692 0.00318528
v -0.04325836 -0.07917692 0.00067018
v -0.03821190 -0.07917692 0.00366825
v -0.03821190 -0.08247527 0.00455898
v -0.04186061 -0.08450464 0.01632228
v -0.04227093 -0.08436994 0.01135057
v -0.04237638 -0.08431055 0.00965268
v -0.05779764 -0.08474106 0.01632228
v -0.05703262 -0.08475370 0.01632228
v -0.05779764 -0.08181823 0.01632228
v -0.04162286 -0.08021442 0.01632228
v -0.03992409 -0.08009731 0.01632228
v -0.03822532 -0.08008521 0.01632228
v -0.03822532 -0.07917692 0.00370835
v -0.03821190 -0.07917692 0.00370835
v -0.03821190 -0.08253300 0.00565024
v -0.03821190 -0.08257533 0.00650922
v -0.03821190 -0.08303058 0.01632228
v -0.03821190 -0.08008521 0.01632228
f 1 2 7
f 1 7 20
f 1 20 53
f 1 53 67
f 1 67 69
f 1 69 60
f 1 60 25
f 1 25 12
f 1 12 3
f 1 3 4
f 1 4 5
f 1 5 6
f 1 6 2
f 2 6 8
f 2 8 9
f 2 9 10
f 2 10 11
f 2 11 7
f 3 12 13
f 3 13 14
f 3 14 4
f 4 14 5
f 5 15 16
f 5 16 17
f 5 17 18
f 5 18 6
f 5 14 13
f 5 13 15
f 6 18 19
f 6 19 8
f 7 11 21
f 7 21 22
f 7 22 20
f 8 19 23
f 8 23 9
f 9 23 24
f 9 24 10
f 10 24 21
f 10 21 11
f 12 25 26
f 12 26 27
f 12 27 28
f 12 28 29
f 12 29 30
f 12 30 31
f 12 31 32
f 12 32 13
f 13 33 15
f 13 32 33
f 15 33 34
f 15 34 35
f 15 35 36
f 15 36 37
f 15 37 16
f 16 38 17
f 16 37 39
f 16 39 40
f 16 40 41
f 16 41 42
f 16 42 38
f 17 38 43
f 17 43 44
f 17 44 45
f 17 45 46
f 17 46 47
f 17 47 48
f 17 48 49
f 17 49 50
f 17 50 51
f 17 51 18
f 18 51 52
f 18 52 19
f 19 52 55
f 19 55 23
f 20 22 54
f 20 54 53
f 21 24 23
f 21 23 55
f 21 55 56
f 21 56 57
f 21 57 22
f 22 57 58
f 22 58 59
f 22 59 54
f 25 60 73
f 25 73 74
f 25 74 62
f 25 62 35
f 25 35 61
f 25 61 31
f 25 31 30
f 25 30 29
f 25 29 28
f 25 28 27
f 25 27 26
f 31 33 32
f 31 61 33
f 33 61 34
f 34 61 35
f 35 62 36
f 36 62 74
f 36 74 78
f 36 78 77
f 36 77 76
f 36 76 75
f 36 75 63
f 36 63 42
f 36 42 41
f 36 41 40
f 36 40 39
f 36 39 37
f 38 42 43
f 42 63 64
f 42 64 65
f 42 65 66
f 42 66 44
f 42 44 43
f 44 66 47
f 44 47 46
f 44 46 45
f 47 66 48
f 48 66 49
f 49 66 65
f 49 65 64
f 49 64 77
f 49 77 78
f 49 78 72
f 49 72 71
f 49 71 70
f 49 70 69
f 49 69 67
f 49 67 68
f 49 68 59
f 49 59 58
f 49 58 57
f 49 57 56
f 49 56 55
f 49 55 52
f 49 52 51
f 49 51 50
f 53 54 67
f 54 59 68
f 54 68 67
f 60 69 70
f 60 70 71
f 60 71 72
f 60 72 73
f 63 75 64
f 64 75 76
f 64 76 77
f 72 78 74
f 72 74 73
