# https://github.com/mikedh/trimesh
v -0.00001898 -0.07102963 0.02838359
v -0.00001898 -0.07960115 0.02839658
v -0.00001898 -0.07102963 0.02495547
v -0.07237513 -0.07102963 0.02838359
v -0.07237513 -0.07960115 0.02865079
v -0.00001898 -0.07960115 0.02450309
v -0.03652285 -0.07960115 0.02450269
v -0.07237513 -0.07102963 0.02495547
v -0.07237513 -0.07960115 0.02465659
v -0.03822977 -0.07960115 0.02450350
v -0.03992252 -0.07960115 0.02451081
f 1 2 6
f 1 6 3
f 1 3 8
f 1 8 4
f 1 4 5
f 1 5 2
f 2 5 9
f 2 9 11
f 2 11 10
f 2 10 7
f 2 7 6
f 3 6 7
f 3 7 8
f 4 8 9
f 4 9 5
f 7 10 8
f 8 10 11
f 8 11 9
