# https://github.com/mikedh/trimesh
v -0.07237513 -0.08407309 0.02290926
v -0.07237513 -0.08106441 0.02290926
v -0.07207766 -0.08412762 0.02290926
v -0.07237513 -0.08408583 0.02331474
v -0.07237513 -0.07960115 0.02465640
v -0.03992252 -0.08025487 0.02290926
v -0.07139773 -0.08421828 0.02290926
v -0.07203516 -0.08414604 0.02333092
v -0.07226180 -0.08414462 0.02494177
v -0.07237513 -0.08412195 0.02482763
v -0.07237513 -0.07960115 0.02865073
v -0.03995793 -0.07960115 0.02451159
v -0.03652285 -0.08021733 0.02290926
v -0.03822268 -0.08022158 0.02290926
v -0.07115692 -0.08424944 0.02290926
v -0.07136939 -0.08424873 0.02395618
v -0.07156771 -0.08427494 0.02833810
v -0.07237513 -0.08415737 0.02734995
v -0.07237513 -0.08412408 0.02494177
v -0.07237513 -0.08188599 0.03148398
v -0.00001898 -0.07960115 0.02839688
v -0.03822977 -0.07960115 0.02450392
v -0.03652994 -0.07960115 0.02450307
v -0.03109756 -0.08021733 0.02290926
v -0.07053364 -0.08432735 0.02290926
v -0.07061863 -0.08432877 0.02333092
v -0.07049115 -0.08436984 0.02494177
v -0.07049115 -0.08441022 0.02833810
v -0.07152521 -0.08426856 0.02931688
v -0.07237513 -0.08416870 0.02833810
v -0.07237513 -0.08204039 0.03149080
v -0.07219098 -0.08191928 0.03149506
v -0.00001898 -0.08339670 0.03159898
v -0.00001898 -0.08238743 0.03116284
v -0.00001898 -0.07960115 0.02450307
v -0.00001898 -0.08021804 0.02290926
v -0.06908170 -0.08448458 0.02290926
v -0.06879840 -0.08452424 0.02324318
v -0.06879840 -0.08455187 0.02494177
v -0.06879840 -0.08459224 0.02833810
v -0.07213432 -0.08406317 0.02994469
v -0.07237513 -0.08401855 0.02995747
v -0.07237513 -0.08414533 0.02860899
v -0.07049115 -0.08433372 0.02967976
v -0.06957041 -0.08423315 0.03084595
v -0.07237513 -0.08319414 0.03149080
v -0.07219098 -0.08320901 0.03149506
v -0.06539874 -0.08339670 0.03158620
v -0.06369891 -0.08339670 0.03160580
v -0.06199908 -0.08339670 0.03161091
v -0.06030633 -0.08339670 0.03161091
v -0.00001898 -0.08398243 0.03145843
v -0.00001898 -0.08403413 0.02290926
v -0.06879840 -0.08451504 0.02290926
v -0.06709857 -0.08465102 0.02324318
v -0.06709857 -0.08467794 0.02494177
v -0.06709857 -0.08471902 0.02833810
v -0.06709857 -0.08458586 0.03003669
v -0.06891880 -0.08441730 0.03018236
v -0.06843718 -0.08429335 0.03097287
v -0.06709857 -0.08434364 0.03105891
v -0.06539874 -0.08439605 0.03113898
v -0.06369891 -0.08444138 0.03120032
v -0.06199908 -0.08447183 0.03123865
v -0.06709857 -0.08339670 0.03154787
v -0.06030633 -0.08449521 0.03126506
v -0.05860649 -0.08451645 0.03128891
v -0.05690666 -0.08453062 0.03130254
v -0.05520683 -0.08453841 0.03131106
v -0.05350700 -0.08454620 0.03131872
v -0.05180717 -0.08454974 0.03132213
v -0.00001898 -0.08454974 0.03132213
v -0.00001898 -0.08637634 0.02365548
v -0.04331510 -0.08503631 0.02290926
v -0.06709857 -0.08464111 0.02290926
v -0.06573162 -0.08472256 0.02290926
v -0.06539874 -0.08474239 0.02290926
v -0.06539874 -0.08475160 0.02324318
v -0.06539874 -0.08477851 0.02494177
v -0.06539874 -0.08481959 0.02833810
v -0.06539874 -0.08468856 0.03003669
v -0.06369891 -0.08477710 0.03003669
v -0.06199908 -0.08483730 0.03003669
v -0.06030633 -0.08488404 0.03003669
v -0.05860649 -0.08492653 0.03003669
v -0.05690666 -0.08495416 0.03003669
v -0.05350700 -0.08498532 0.03003669
v -0.05180717 -0.08499240 0.03003669
v -0.01444629 -0.08640396 0.02630814
v -0.00001898 -0.08640396 0.02630814
v -0.00001898 -0.08660298 0.02428840
v -0.01444629 -0.08637634 0.02365548
v -0.04671476 -0.08504411 0.02290926
v -0.04534781 -0.08504340 0.02290926
v -0.04501493 -0.08504269 0.02290926
v -0.04364798 -0.08503773 0.02290926
v -0.06369891 -0.08482880 0.02290926
v -0.06369891 -0.08483871 0.02324318
v -0.06369891 -0.08486492 0.02494177
v -0.06369891 -0.08490600 0.02833810
v -0.06199908 -0.08496549 0.02833810
v -0.01444629 -0.08683599 0.02494177
v -0.00001898 -0.08662352 0.02561388
v -0.00001898 -0.08683599 0.02494177
v -0.06030633 -0.08493503 0.02290926
v -0.05860649 -0.08497753 0.02290926
v -0.05723955 -0.08500020 0.02290926
v -0.05690666 -0.08500515 0.02290926
v -0.05520683 -0.08502144 0.02290926
v -0.05350700 -0.08503702 0.02290926
v -0.05180717 -0.08504411 0.02290926
v -0.06233196 -0.08487696 0.02290926
v -0.06199908 -0.08488829 0.02290926
f 1 2 6
f 1 6 14
f 1 14 13
f 1 13 24
f 1 24 36
f 1 36 53
f 1 53 74
f 1 74 96
f 1 96 95
f 1 95 94
f 1 94 93
f 1 93 111
f 1 111 110
f 1 110 109
f 1 109 108
f 1 108 107
f 1 107 106
f 1 106 105
f 1 105 113
f 1 113 112
f 1 112 97
f 1 97 77
f 1 77 76
f 1 76 75
f 1 75 54
f 1 54 37
f 1 37 25
f 1 25 15
f 1 15 7
f 1 7 3
f 1 3 4
f 1 4 10
f 1 10 19
f 1 19 18
f 1 18 30
f 1 30 43
f 1 43 42
f 1 42 46
f 1 46 31
f 1 31 20
f 1 20 11
f 1 11 5
f 1 5 2
f 2 5 6
f 3 7 8
f 3 8 4
f 4 8 9
f 4 9 10
f 5 11 21
f 5 21 35
f 5 35 23
f 5 23 22
f 5 22 12
f 5 12 13
f 5 13 14
f 5 14 6
f 7 15 16
f 7 16 8
f 8 16 9
f 9 16 17
f 9 17 18
f 9 18 19
f 9 19 10
f 11 20 21
f 12 22 13
f 13 22 23
f 13 23 35
f 13 35 24
f 15 25 26
f 15 26 16
f 16 26 27
f 16 27 28
f 16 28 17
f 17 29 30
f 17 30 18
f 17 28 29
f 20 31 32
f 20 32 33
f 20 33 34
f 20 34 21
f 21 34 33
f 21 33 52
f 21 52 72
f 21 72 90
f 21 90 103
f 21 103 104
f 21 104 91
f 21 91 73
f 21 73 53
f 21 53 36
f 21 36 35
f 24 35 36
f 25 37 38
f 25 38 26
f 26 38 27
f 27 38 39
f 27 39 40
f 27 40 28
f 28 40 29
f 29 41 42
f 29 42 43
f 29 43 30
f 29 40 44
f 29 44 45
f 29 45 41
f 31 46 47
f 31 47 32
f 32 47 48
f 32 48 49
f 32 49 50
f 32 50 51
f 32 51 33
f 33 51 52
f 37 54 38
f 38 54 55
f 38 55 39
f 39 55 56
f 39 56 57
f 39 57 40
f 40 57 58
f 40 58 44
f 41 45 42
f 42 45 46
f 44 58 59
f 44 59 45
f 45 59 58
f 45 58 60
f 45 60 46
f 46 60 61
f 46 61 47
f 47 61 62
f 47 62 63
f 47 63 64
f 47 64 65
f 47 65 48
f 48 65 64
f 48 64 66
f 48 66 67
f 48 67 49
f 49 67 68
f 49 68 69
f 49 69 70
f 49 70 50
f 50 70 71
f 50 71 72
f 50 72 51
f 51 72 52
f 53 73 74
f 54 75 55
f 55 75 76
f 55 76 77
f 55 77 78
f 55 78 79
f 55 79 56
f 56 79 80
f 56 80 57
f 57 80 81
f 57 81 58
f 58 81 60
f 60 81 61
f 61 81 82
f 61 82 62
f 62 82 63
f 63 82 83
f 63 83 84
f 63 84 85
f 63 85 64
f 64 85 66
f 66 85 67
f 67 85 86
f 67 86 68
f 68 87 69
f 68 86 87
f 69 87 70
f 70 87 88
f 70 88 89
f 70 89 71
f 71 89 90
f 71 90 72
f 73 91 92
f 73 92 111
f 73 111 93
f 73 93 94
f 73 94 95
f 73 95 96
f 73 96 74
f 77 97 98
f 77 98 78
f 78 98 79
f 79 98 99
f 79 99 100
f 79 100 80
f 80 100 82
f 80 82 81
f 82 100 83
f 83 100 101
f 83 101 102
f 83 102 84
f 84 102 85
f 85 102 86
f 86 102 87
f 87 102 89
f 87 89 88
f 89 102 103
f 89 103 90
f 91 104 102
f 91 102 92
f 92 102 105
f 92 105 106
f 92 106 107
f 92 107 108
f 92 108 109
f 92 109 110
f 92 110 111
f 97 112 102
f 97 102 98
f 98 102 99
f 99 102 100
f 100 102 101
f 102 104 103
f 102 112 113
f 102 113 105
