# https://github.com/mikedh/trimesh
v -0.00001898 -0.00043021 0.00308529
v -0.00001898 -0.07493124 0.00308529
v -0.00001898 -0.00043021 0.00081921
v -0.07521655 -0.00043021 0.00308529
v -0.00001898 -0.07493124 0.00081877
v -0.07521655 -0.07493124 0.00308529
v -0.07521655 -0.00043021 0.00081921
v -0.00255844 -0.07493124 0.00081877
v -0.07521655 -0.07493124 0.00081899
v -0.07521655 -0.07490206 0.00081899
f 1 2 5
f 1 5 3
f 1 3 7
f 1 7 4
f 1 4 6
f 1 6 2
f 2 6 9
f 2 9 8
f 2 8 5
f 3 5 8
f 3 8 7
f 4 7 10
f 4 10 9
f 4 9 6
f 7 8 10
f 8 9 10
