# https://github.com/mikedh/trimesh
v 0.01403711 -0.06102902 0.02663996
v 0.01379100 -0.06102902 0.02614328
v 0.01284396 -0.06102902 0.02797699
v 0.03083151 -0.07059981 0.02755749
v 0.03180659 -0.07081876 0.02663996
v 0.01282838 -0.06102902 0.02533884
v 0.03079101 -0.07060898 0.02573519
v 0.03180659 -0.07146773 0.02788974
v 0.01103711 -0.06102902 0.02834011
v 0.03180659 -0.07148346 0.02542073
v 0.01270689 -0.06102902 0.02530059
v 0.03180659 -0.07320490 0.02837300
v 0.00933929 -0.06102902 0.02838240
v 0.01103711 -0.06131484 0.02836897
v 0.03180659 -0.07184270 0.02531871
v 0.01103711 -0.06102902 0.02499787
v 0.03141718 -0.07320490 0.02837568
v 0.03180659 -0.07442156 0.02837871
v 0.00764146 -0.06102902 0.02838340
v 0.00933929 -0.06131484 0.02838340
v 0.02971936 -0.07320490 0.02838240
v 0.03180659 -0.07320490 0.02496599
v 0.01075050 -0.06102902 0.02496868
v 0.03141718 -0.07442156 0.02838139
v 0.03180659 -0.07442156 0.02495760
v -0.00001898 -0.06102902 0.02838340
v 0.02802154 -0.07320490 0.02838340
v 0.02971936 -0.07442156 0.02838307
v 0.03180659 -0.07359166 0.02496163
v 0.03141718 -0.07320490 0.02496331
v 0.00933929 -0.06102902 0.02495660
v 0.03093432 -0.07442156 0.02495592
v 0.02971936 -0.07320490 0.02495660
v -0.00001898 -0.06102902 0.02495525
v -0.00001898 -0.07442156 0.02838340
v 0.02802154 -0.07442156 0.02838340
v 0.00905268 -0.06102902 0.02495525
v 0.02923649 -0.07442156 0.02495525
v 0.02802154 -0.07320490 0.02495525
v -0.00001898 -0.07442156 0.02495525
f 1 2 6
f 1 6 11
f 1 11 16
f 1 16 23
f 1 23 31
f 1 31 37
f 1 37 34
f 1 34 26
f 1 26 19
f 1 19 13
f 1 13 9
f 1 9 3
f 1 3 4
f 1 4 5
f 1 5 2
f 2 5 7
f 2 7 6
f 3 8 4
f 3 9 8
f 4 8 5
f 5 8 12
f 5 12 18
f 5 18 25
f 5 25 29
f 5 29 22
f 5 22 15
f 5 15 10
f 5 10 7
f 6 7 10
f 6 10 11
f 8 9 12
f 9 13 14
f 9 14 12
f 10 15 16
f 10 16 11
f 12 17 24
f 12 24 18
f 12 14 13
f 12 13 17
f 13 19 20
f 13 20 21
f 13 21 17
f 15 22 16
f 16 22 23
f 17 21 24
f 18 24 28
f 18 28 36
f 18 36 35
f 18 35 40
f 18 40 38
f 18 38 32
f 18 32 25
f 19 26 35
f 19 35 36
f 19 36 27
f 19 27 20
f 20 27 21
f 21 27 28
f 21 28 24
f 22 29 30
f 22 30 31
f 22 31 23
f 25 32 33
f 25 33 29
f 26 34 40
f 26 40 35
f 27 36 28
f 29 33 37
f 29 37 31
f 29 31 30
f 32 38 39
f 32 39 37
f 32 37 33
f 34 37 39
f 34 39 38
f 34 38 40
