# https://github.com/mikedh/trimesh
v 0.05868436 0.08151432 0.01627814
v 0.05868436 0.08106792 0.02433187
v 0.05868436 0.08443712 0.01627814
v 0.07710416 0.07885712 0.01627814
v 0.05868436 0.08471509 0.02433187
v 0.07710416 0.07869930 0.02433187
v 0.05868436 0.08444419 0.01643975
v 0.06029628 0.08439648 0.01627814
v 0.07710416 0.08222338 0.01627814
v 0.05868436 0.08469801 0.02324238
v 0.06029628 0.08467445 0.02433187
v 0.06029628 0.08465797 0.02324238
v 0.07710416 0.08257437 0.02433187
v 0.05868436 0.08451722 0.01814731
v 0.06029628 0.08447658 0.01814731
v 0.06199474 0.08434937 0.01627814
v 0.07710416 0.08222927 0.01637669
v 0.07677601 0.08237061 0.01627814
v 0.05868436 0.08469565 0.02315487
v 0.06199474 0.08462793 0.02433187
v 0.06029628 0.08460967 0.02154350
v 0.05868436 0.08465030 0.02154350
v 0.06199474 0.08461144 0.02324238
v 0.07710416 0.08255788 0.02324238
v 0.07612872 0.08291594 0.02433187
v 0.05868436 0.08458317 0.01975868
v 0.06029628 0.08454607 0.01984540
v 0.06199474 0.08449955 0.01984540
v 0.06199474 0.08442947 0.01814731
v 0.06369319 0.08436880 0.01814731
v 0.06369319 0.08428813 0.01627814
v 0.07710416 0.08226578 0.01700973
v 0.07569238 0.08273279 0.01627814
v 0.07558240 0.08286765 0.01814731
v 0.07558240 0.08295364 0.01984540
v 0.07689500 0.08242243 0.01814731
v 0.07710416 0.08232997 0.01814731
v 0.06369319 0.08456903 0.02433187
v 0.05868436 0.08464737 0.02145599
v 0.06199474 0.08456315 0.02154350
v 0.06369319 0.08455195 0.02324238
v 0.07710416 0.08251254 0.02181153
v 0.07709334 0.08250783 0.02154350
v 0.07558240 0.08308732 0.02324238
v 0.07558240 0.08310558 0.02433187
v 0.05868436 0.08458670 0.01984540
v 0.06369319 0.08450367 0.02154350
v 0.06369319 0.08443888 0.01984540
v 0.06539345 0.08435173 0.01984540
v 0.06539345 0.08428046 0.01814731
v 0.06539345 0.08420686 0.01644843
v 0.06539345 0.08419919 0.01627814
v 0.07558240 0.08276872 0.01627814
v 0.07558240 0.08277814 0.01644843
v 0.07388394 0.08322218 0.01627814
v 0.07388394 0.08323102 0.01644843
v 0.07558240 0.08303078 0.02154350
v 0.07699958 0.08246778 0.01984540
v 0.07388394 0.08331523 0.01814731
v 0.07388394 0.08339650 0.01984540
v 0.07710416 0.08235000 0.01851783
v 0.06430262 0.08453782 0.02433187
v 0.06539345 0.08446480 0.02324238
v 0.07710416 0.08250429 0.02156321
v 0.07388394 0.08346953 0.02154350
v 0.07388394 0.08352194 0.02324238
v 0.07449336 0.08338413 0.02433187
v 0.06539345 0.08441651 0.02154350
v 0.06709191 0.08425043 0.01984540
v 0.06709191 0.08417918 0.01814731
v 0.06709191 0.08410497 0.01644843
v 0.06556294 0.08418919 0.01627814
v 0.07218548 0.08354785 0.01627814
v 0.07710416 0.08243068 0.02003382
v 0.07710416 0.08242125 0.01984540
v 0.07218548 0.08363207 0.01814731
v 0.07218548 0.08370804 0.01984540
v 0.06539345 0.08448188 0.02433187
v 0.06600108 0.08444595 0.02433187
v 0.06709191 0.08436409 0.02324238
v 0.07203583 0.08380756 0.02164125
v 0.07231169 0.08382170 0.02324238
v 0.07238021 0.08383053 0.02433187
v 0.07294456 0.08372276 0.02433187
v 0.07388394 0.08353961 0.02433187
v 0.06709191 0.08431521 0.02154350
v 0.06878856 0.08418801 0.02154350
v 0.06878856 0.08412204 0.01984540
v 0.06878856 0.08404903 0.01814731
v 0.06720730 0.08408907 0.01627814
v 0.06709191 0.08409731 0.01627814
v 0.07062405 0.08375339 0.01627814
v 0.06967386 0.08392182 0.01719578
v 0.06984695 0.08394361 0.01814731
v 0.07014265 0.08398071 0.01984540
v 0.06709191 0.08438117 0.02433187
v 0.06878856 0.08423806 0.02324238
v 0.07137051 0.08392182 0.02227350
v 0.07146247 0.08393301 0.02324238
v 0.07207550 0.08387058 0.02433187
v 0.07048702 0.08405551 0.02324238
v 0.07057537 0.08399779 0.02164125
v 0.06873808 0.08397010 0.01627814
v 0.06882643 0.08397482 0.01655722
v 0.07036081 0.08378754 0.01627814
v 0.06981810 0.08385291 0.01627814
v 0.06915999 0.08392712 0.01627814
v 0.06878856 0.08425514 0.02433187
v 0.07048702 0.08407317 0.02433187
v 0.07153098 0.08394184 0.02433187
f 1 2 5
f 1 5 10
f 1 10 19
f 1 19 22
f 1 22 39
f 1 39 46
f 1 46 26
f 1 26 14
f 1 14 7
f 1 7 3
f 1 3 8
f 1 8 16
f 1 16 31
f 1 31 52
f 1 52 72
f 1 72 91
f 1 91 90
f 1 90 103
f 1 103 107
f 1 107 106
f 1 106 105
f 1 105 92
f 1 92 73
f 1 73 55
f 1 55 53
f 1 53 33
f 1 33 18
f 1 18 9
f 1 9 4
f 1 4 2
f 2 4 6
f 2 6 13
f 2 13 25
f 2 25 45
f 2 45 67
f 2 67 85
f 2 85 84
f 2 84 83
f 2 83 100
f 2 100 110
f 2 110 109
f 2 109 108
f 2 108 96
f 2 96 79
f 2 79 78
f 2 78 62
f 2 62 38
f 2 38 20
f 2 20 11
f 2 11 5
f 3 7 8
f 4 9 17
f 4 17 32
f 4 32 37
f 4 37 61
f 4 61 75
f 4 75 74
f 4 74 64
f 4 64 42
f 4 42 24
f 4 24 13
f 4 13 6
f 5 11 12
f 5 12 10
f 7 14 15
f 7 15 8
f 8 15 29
f 8 29 16
f 9 18 17
f 10 12 19
f 11 20 23
f 11 23 12
f 12 21 22
f 12 22 19
f 12 23 40
f 12 40 21
f 13 24 25
f 14 26 15
f 15 26 27
f 15 27 28
f 15 28 29
f 16 29 30
f 16 30 31
f 17 18 32
f 18 33 34
f 18 34 35
f 18 35 36
f 18 36 37
f 18 37 32
f 20 38 23
f 21 27 39
f 21 39 22
f 21 40 28
f 21 28 27
f 23 38 41
f 23 41 47
f 23 47 40
f 24 42 43
f 24 43 44
f 24 44 25
f 25 44 45
f 26 46 27
f 27 46 39
f 28 40 47
f 28 47 48
f 28 48 30
f 28 30 29
f 30 48 49
f 30 49 50
f 30 50 31
f 31 50 51
f 31 51 52
f 33 53 54
f 33 54 34
f 34 54 55
f 34 55 56
f 34 56 35
f 35 57 58
f 35 58 36
f 35 56 59
f 35 59 60
f 35 60 57
f 36 58 61
f 36 61 37
f 38 62 41
f 41 62 63
f 41 63 68
f 41 68 47
f 42 64 43
f 43 58 57
f 43 57 44
f 43 64 58
f 44 57 65
f 44 65 66
f 44 66 45
f 45 66 67
f 47 68 49
f 47 49 48
f 49 68 86
f 49 86 69
f 49 69 70
f 49 70 50
f 50 70 51
f 51 70 71
f 51 71 72
f 51 72 52
f 53 55 54
f 55 73 56
f 56 73 59
f 57 60 65
f 58 64 74
f 58 74 75
f 58 75 61
f 59 73 60
f 60 73 76
f 60 76 77
f 60 77 65
f 62 78 63
f 63 78 79
f 63 79 80
f 63 80 68
f 65 77 81
f 65 81 82
f 65 82 66
f 66 82 83
f 66 83 84
f 66 84 85
f 66 85 67
f 68 80 86
f 69 86 87
f 69 87 88
f 69 88 70
f 70 88 89
f 70 89 90
f 70 90 71
f 71 91 72
f 71 90 91
f 73 92 93
f 73 93 94
f 73 94 76
f 76 94 95
f 76 95 77
f 77 95 81
f 79 96 80
f 80 96 108
f 80 108 97
f 80 97 86
f 81 95 98
f 81 98 82
f 82 98 99
f 82 99 100
f 82 100 83
f 86 97 87
f 87 97 101
f 87 101 102
f 87 102 95
f 87 95 88
f 88 95 94
f 88 94 93
f 88 93 89
f 89 103 90
f 89 93 104
f 89 104 103
f 92 105 93
f 93 106 107
f 93 107 103
f 93 103 104
f 93 105 106
f 95 102 98
f 97 108 109
f 97 109 101
f 98 102 101
f 98 101 99
f 99 110 100
f 99 101 109
f 99 109 110
