# https://github.com/mikedh/trimesh
v -0.07711473 -0.01595298 0.02494473
v -0.07711256 -0.02649112 0.02494406
v -0.07711473 -0.01595298 0.02838340
v -0.07711473 -0.00865715 0.02494473
v -0.07219653 -0.02649112 0.02495584
v -0.07711256 -0.02649112 0.02838374
v -0.07711256 -0.02224372 0.02494406
v -0.05495354 -0.00526178 0.02495584
v -0.05521388 -0.00696074 0.02495584
v -0.07711473 -0.00043020 0.02838340
v -0.07711473 -0.00043020 0.02494507
v -0.07049783 -0.02564164 0.02496325
v -0.07049783 -0.02649112 0.02498447
v -0.05495354 -0.00696074 0.02495652
v -0.07219653 -0.02649112 0.02838374
v -0.07711256 -0.01595298 0.02838374
v -0.05495354 -0.00043020 0.02495584
v -0.05495354 -0.00043020 0.02838340
v -0.06889676 -0.02649112 0.02539595
v -0.05521388 -0.00865715 0.02499996
v -0.05495354 -0.00865715 0.02503228
v -0.07134393 -0.02649112 0.02838003
v -0.05495354 -0.00670054 0.02838340
v -0.07049783 -0.02394268 0.02838374
v -0.06590505 -0.01595298 0.02838374
v -0.06820686 -0.02649112 0.02664016
v -0.05495354 -0.01024897 0.02547272
v -0.07049783 -0.02649112 0.02835343
v -0.07049783 -0.02564164 0.02837599
v -0.05495354 -0.00696074 0.02838239
v -0.06833270 -0.02649112 0.02693143
v -0.05495354 -0.01081528 0.02664016
v -0.05495354 -0.01026172 0.02783858
v -0.06954543 -0.02649112 0.02812749
v -0.05495354 -0.00865715 0.02830461
v -0.05495354 -0.00839695 0.02834367
v -0.06887507 -0.02649112 0.02791468
v -0.05495354 -0.01006019 0.02791973
f 1 2 6
f 1 6 3
f 1 3 10
f 1 10 11
f 1 11 4
f 1 4 7
f 1 7 2
f 2 5 13
f 2 13 19
f 2 19 26
f 2 26 31
f 2 31 37
f 2 37 34
f 2 34 28
f 2 28 22
f 2 22 15
f 2 15 6
f 2 7 17
f 2 17 8
f 2 8 9
f 2 9 5
f 3 6 16
f 3 16 10
f 4 11 7
f 5 12 13
f 5 9 14
f 5 14 12
f 6 15 24
f 6 24 25
f 6 25 16
f 7 11 17
f 8 17 18
f 8 18 23
f 8 23 30
f 8 30 36
f 8 36 35
f 8 35 38
f 8 38 33
f 8 33 32
f 8 32 27
f 8 27 21
f 8 21 14
f 8 14 9
f 10 18 17
f 10 17 11
f 10 16 25
f 10 25 18
f 12 14 13
f 13 14 20
f 13 20 21
f 13 21 19
f 14 21 20
f 15 22 23
f 15 23 24
f 18 25 23
f 19 21 27
f 19 27 26
f 22 28 29
f 22 29 30
f 22 30 23
f 23 25 24
f 26 27 32
f 26 32 33
f 26 33 31
f 28 34 35
f 28 35 36
f 28 36 30
f 28 30 29
f 31 33 37
f 33 38 37
f 34 37 35
f 35 37 38
