# https://github.com/mikedh/trimesh
v -0.08461761 0.06990132 0.02441164
v -0.08461237 0.06990132 0.02366356
v -0.08073401 0.06990132 0.02441164
v -0.08445804 0.07117804 0.02441164
v -0.08445130 0.07117804 0.02324215
v -0.08460937 0.06990132 0.02324215
v -0.08152587 0.06990132 0.01764252
v -0.07731639 0.07880349 0.01764252
v -0.07696503 0.07880349 0.02441164
v -0.08425952 0.07234757 0.02441164
v -0.08458690 0.06990132 0.02196466
v -0.08416962 0.07287656 0.02441164
v -0.08416213 0.07287656 0.02324215
v -0.08441684 0.07117804 0.02154324
v -0.08445429 0.06990132 0.01764252
v -0.08162550 0.07880349 0.01764252
v -0.08190568 0.07880349 0.02441164
v -0.08457790 0.06990132 0.02154324
v -0.08390292 0.07404608 0.02441164
v -0.08377257 0.07457420 0.02324215
v -0.08412467 0.07287656 0.02154324
v -0.08436515 0.07117804 0.01984566
v -0.08454270 0.06990132 0.02026708
v -0.08445879 0.06990132 0.01776775
v -0.08428873 0.07117804 0.01764252
v -0.08164273 0.07880349 0.01793605
v -0.08210122 0.07801742 0.01764252
v -0.08188920 0.07880349 0.02324215
v -0.08239188 0.07797210 0.02324215
v -0.08240687 0.07797210 0.02441164
v -0.08378156 0.07457420 0.02441164
v -0.08373286 0.07457420 0.02154324
v -0.08340024 0.07583348 0.02324215
v -0.08338002 0.07577945 0.02154324
v -0.08406923 0.07287656 0.01984566
v -0.08430671 0.07117804 0.01814675
v -0.08448726 0.06990132 0.01856817
v -0.08452921 0.06990132 0.01984566
v -0.08447227 0.06990132 0.01814675
v -0.08407747 0.07237284 0.01764252
v -0.08165172 0.07880349 0.01809308
v -0.08215815 0.07797210 0.01814675
v -0.08237990 0.07749801 0.01764252
v -0.08183077 0.07880349 0.02154324
v -0.08233420 0.07797210 0.02154324
v -0.08302567 0.07662828 0.02154324
v -0.08305114 0.07668231 0.02324215
v -0.08261213 0.07757034 0.02441164
v -0.08340473 0.07584656 0.02441164
v -0.08335005 0.07570102 0.01984566
v -0.08331634 0.07561562 0.01814675
v -0.08367293 0.07457420 0.01984566
v -0.08305713 0.07669538 0.02441164
v -0.08400630 0.07287656 0.01814675
v -0.08398683 0.07287656 0.01764252
v -0.08165472 0.07880349 0.01814675
v -0.08225104 0.07797210 0.01984566
v -0.08173263 0.07880349 0.01956869
v -0.08293577 0.07643830 0.01764252
v -0.08181354 0.07880349 0.02118544
v -0.08298971 0.07655071 0.01984566
v -0.08330585 0.07558947 0.01764252
v -0.08360551 0.07457420 0.01814675
v -0.08370515 0.07407135 0.01764252
v -0.08294850 0.07646531 0.01814675
v -0.08174761 0.07880349 0.01984566
v -0.08358453 0.07457420 0.01764252
f 1 2 6
f 1 6 11
f 1 11 18
f 1 18 23
f 1 23 38
f 1 38 37
f 1 37 39
f 1 39 24
f 1 24 15
f 1 15 7
f 1 7 3
f 1 3 9
f 1 9 17
f 1 17 30
f 1 30 48
f 1 48 53
f 1 53 49
f 1 49 31
f 1 31 19
f 1 19 12
f 1 12 10
f 1 10 4
f 1 4 5
f 1 5 2
f 2 5 6
f 3 7 8
f 3 8 9
f 4 10 5
f 5 11 6
f 5 10 12
f 5 12 13
f 5 13 14
f 5 14 11
f 7 15 25
f 7 25 40
f 7 40 55
f 7 55 64
f 7 64 67
f 7 67 62
f 7 62 59
f 7 59 43
f 7 43 27
f 7 27 16
f 7 16 8
f 8 16 26
f 8 26 41
f 8 41 56
f 8 56 58
f 8 58 66
f 8 66 60
f 8 60 44
f 8 44 28
f 8 28 17
f 8 17 9
f 11 14 18
f 12 19 13
f 13 19 20
f 13 20 21
f 13 21 14
f 14 21 22
f 14 22 23
f 14 23 18
f 15 24 25
f 16 27 26
f 17 28 29
f 17 29 30
f 19 31 20
f 20 32 21
f 20 31 33
f 20 33 34
f 20 34 32
f 21 35 22
f 21 32 35
f 22 36 37
f 22 37 38
f 22 38 23
f 22 35 36
f 24 39 36
f 24 36 25
f 25 36 35
f 25 35 40
f 26 27 42
f 26 42 41
f 27 43 42
f 28 44 45
f 28 45 29
f 29 45 46
f 29 46 47
f 29 47 30
f 30 47 48
f 31 49 33
f 32 34 50
f 32 50 51
f 32 51 52
f 32 52 35
f 33 49 53
f 33 53 47
f 33 47 34
f 34 47 46
f 34 46 50
f 35 54 40
f 35 52 54
f 36 39 37
f 40 54 55
f 41 42 56
f 42 57 58
f 42 58 56
f 42 43 57
f 43 59 57
f 44 60 45
f 45 57 61
f 45 61 46
f 45 60 57
f 46 61 50
f 47 53 48
f 50 61 51
f 51 62 52
f 51 61 62
f 52 63 64
f 52 64 55
f 52 55 54
f 52 62 63
f 57 59 65
f 57 65 61
f 57 60 66
f 57 66 58
f 59 62 65
f 61 65 62
f 62 67 63
f 63 67 64
