# https://github.com/mikedh/trimesh
v 0.06863271 -0.07442157 0.02495538
v 0.07679968 -0.07442157 0.02495471
v 0.06863271 -0.07442157 0.02838345
v 0.06863271 -0.05961506 0.02495538
v 0.07727869 -0.03913262 0.02494427
v 0.07727869 -0.07441811 0.02495471
v 0.07727869 -0.07442157 0.02836022
v 0.07727869 -0.07442157 0.02838379
v 0.06863271 -0.05807085 0.02838345
v 0.06863271 -0.05791539 0.02495707
v 0.06878927 -0.05791539 0.02495538
v 0.07388411 -0.03913262 0.02495538
v 0.07727869 -0.03913262 0.02838345
v 0.07388411 -0.03913262 0.02838345
v 0.06878927 -0.05621917 0.02838076
v 0.06863271 -0.05637808 0.02837941
v 0.06863271 -0.05621917 0.02497188
v 0.06878927 -0.05621917 0.02495808
v 0.07378086 -0.03913262 0.02495909
v 0.07218640 -0.03913262 0.02830264
v 0.06878927 -0.05452295 0.02835012
v 0.06863271 -0.05467841 0.02833867
v 0.06863271 -0.05452641 0.02502778
v 0.06878927 -0.05452295 0.02498838
v 0.07218640 -0.03913262 0.02503215
v 0.07093554 -0.03913262 0.02785549
v 0.06863271 -0.05298219 0.02817166
v 0.06863271 -0.05282328 0.02519142
v 0.07095585 -0.03913262 0.02544968
v 0.07211023 -0.03913262 0.02505775
v 0.07055300 -0.03913262 0.02663996
v 0.06863271 -0.05122033 0.02785852
v 0.06863271 -0.05129634 0.02787906
v 0.06863271 -0.05124452 0.02545439
v 0.07092961 -0.03913262 0.02552308
v 0.06863271 -0.04972794 0.02663996
v 0.06863271 -0.05020813 0.02716489
f 1 2 7
f 1 7 8
f 1 8 3
f 1 3 9
f 1 9 16
f 1 16 22
f 1 22 27
f 1 27 33
f 1 33 32
f 1 32 37
f 1 37 36
f 1 36 34
f 1 34 28
f 1 28 23
f 1 23 17
f 1 17 10
f 1 10 4
f 1 4 5
f 1 5 2
f 2 6 7
f 2 5 6
f 3 8 9
f 4 10 11
f 4 11 5
f 5 11 12
f 5 12 19
f 5 19 25
f 5 25 30
f 5 30 29
f 5 29 35
f 5 35 31
f 5 31 26
f 5 26 20
f 5 20 14
f 5 14 13
f 5 13 8
f 5 8 7
f 5 7 6
f 8 13 14
f 8 14 9
f 9 14 15
f 9 15 16
f 10 17 18
f 10 18 11
f 11 18 12
f 12 18 19
f 14 20 16
f 14 16 15
f 16 20 21
f 16 21 22
f 17 23 24
f 17 24 18
f 18 24 25
f 18 25 19
f 20 26 22
f 20 22 21
f 22 26 27
f 23 28 29
f 23 29 30
f 23 30 25
f 23 25 24
f 26 31 32
f 26 32 33
f 26 33 27
f 28 34 29
f 29 34 35
f 31 35 34
f 31 34 36
f 31 36 37
f 31 37 32
