# https://github.com/mikedh/trimesh
v 0.08387675 -0.07442199 0.02785541
v 0.08376477 -0.07490379 0.02494173
v 0.08387594 -0.07442199 0.02615807
v 0.08387594 -0.07442199 0.02833805
v 0.08376640 -0.07490379 0.02833805
v 0.08339234 -0.07617106 0.02833805
v 0.08339152 -0.07616385 0.02494173
v 0.08338503 -0.07614561 0.02325008
v 0.08375017 -0.07490973 0.02325008
v 0.08386214 -0.07442411 0.02325008
v 0.08387188 -0.07442199 0.02445910
v 0.08387513 -0.07442199 0.02494173
v 0.08372177 -0.07442199 0.03003620
v 0.08360979 -0.07490379 0.03003620
v 0.08331119 -0.07596706 0.03003620
v 0.08304505 -0.07701972 0.02833805
v 0.08304018 -0.07701294 0.02494173
v 0.08302801 -0.07700021 0.02325008
v 0.08074225 -0.07442199 0.02325008
v 0.08352865 -0.07442199 0.03076909
v 0.08322924 -0.07575882 0.03089016
v 0.08296147 -0.07681615 0.03003620
v 0.08221335 -0.07830099 0.03003620
v 0.08239429 -0.07830099 0.02833805
v 0.08237807 -0.07830099 0.02494173
v 0.08235291 -0.07830565 0.02325008
v 0.08071791 -0.07442199 0.02325008
v 0.08339720 -0.07442199 0.03113229
v 0.08333959 -0.07490379 0.03105916
v 0.08164454 -0.07875437 0.03101528
v 0.08184821 -0.07875437 0.03049040
v 0.08240727 -0.07643613 0.03133054
v 0.08177843 -0.07830099 0.03116316
v 0.08194315 -0.07875437 0.03003620
v 0.08204133 -0.07875437 0.02912294
v 0.08212166 -0.07875437 0.02833805
v 0.08210705 -0.07875437 0.02564212
v 0.08210300 -0.07875437 0.02494173
v 0.08209001 -0.07875437 0.02394803
v 0.08208028 -0.07875437 0.02325008
v 0.07806296 -0.07875183 0.02325008
v 0.07558815 -0.07442284 0.02495555
v 0.07558815 -0.07442199 0.02498398
v 0.08270750 -0.07442199 0.03147517
v 0.08141086 -0.07875437 0.03115829
v 0.08237726 -0.07490379 0.03153855
v 0.08067896 -0.07830099 0.03154261
v 0.07808487 -0.07875437 0.02325008
v 0.07558815 -0.07875437 0.02476054
v 0.07558815 -0.07442199 0.02838355
v 0.08237726 -0.07442199 0.03155073
v 0.08063758 -0.07875437 0.03142479
v 0.08022538 -0.07875437 0.03154017
v 0.07558815 -0.07875437 0.02854605
v 0.07874942 -0.07875437 0.03126067
v 0.08119664 -0.07442199 0.03130454
v 0.08148632 -0.07442199 0.03142561
f 1 2 3
f 1 3 12
f 1 12 11
f 1 11 19
f 1 19 27
f 1 27 43
f 1 43 50
f 1 50 56
f 1 56 57
f 1 57 51
f 1 51 44
f 1 44 28
f 1 28 20
f 1 20 13
f 1 13 4
f 1 4 5
f 1 5 2
f 2 6 7
f 2 7 8
f 2 8 9
f 2 9 10
f 2 10 11
f 2 11 12
f 2 12 3
f 2 5 6
f 4 13 5
f 5 13 14
f 5 14 15
f 5 15 6
f 6 16 7
f 6 15 16
f 7 16 17
f 7 17 8
f 8 18 26
f 8 26 40
f 8 40 48
f 8 48 41
f 8 41 27
f 8 27 19
f 8 19 10
f 8 10 9
f 8 17 18
f 10 19 11
f 13 20 21
f 13 21 14
f 14 21 15
f 15 22 16
f 15 21 22
f 16 22 23
f 16 23 24
f 16 24 17
f 17 24 25
f 17 25 18
f 18 25 26
f 20 28 29
f 20 29 21
f 21 30 31
f 21 31 22
f 21 29 32
f 21 32 33
f 21 33 30
f 22 31 23
f 23 34 35
f 23 35 24
f 23 31 34
f 24 35 36
f 24 36 25
f 25 36 37
f 25 37 38
f 25 38 39
f 25 39 26
f 26 39 40
f 27 41 42
f 27 42 43
f 28 44 32
f 28 32 29
f 30 33 45
f 30 45 52
f 30 52 53
f 30 53 55
f 30 55 54
f 30 54 49
f 30 49 48
f 30 48 40
f 30 40 39
f 30 39 38
f 30 38 37
f 30 37 36
f 30 36 35
f 30 35 34
f 30 34 31
f 32 44 46
f 32 46 47
f 32 47 33
f 33 47 45
f 41 48 49
f 41 49 42
f 42 49 54
f 42 54 50
f 42 50 43
f 44 51 46
f 45 47 52
f 46 51 47
f 47 51 53
f 47 53 52
f 50 54 55
f 50 55 56
f 51 57 53
f 53 57 55
f 55 57 56
