# https://github.com/mikedh/trimesh
v 0.07710416 0.07660589 0.02840806
v 0.07710416 0.07660589 0.02490802
v 0.07592967 0.07660589 0.02840806
v 0.07710416 0.07634716 0.02840806
v 0.07710416 0.06852350 0.02495531
v 0.05785382 0.06852350 0.02495531
v 0.03839889 0.07457481 0.02495531
v 0.03839889 0.07660589 0.02495119
v 0.07570613 0.07639939 0.02840806
v 0.03839889 0.07660589 0.02838374
v 0.07710416 0.06852350 0.02838374
v 0.05859640 0.06852350 0.02838374
v 0.05615648 0.06852350 0.02496284
v 0.03839889 0.07438967 0.02495976
v 0.03839889 0.07457481 0.02838374
v 0.05520174 0.06947930 0.02838305
v 0.05689907 0.06852350 0.02837654
v 0.05445915 0.06852350 0.02503685
v 0.03839889 0.07287605 0.02500088
v 0.03839889 0.07287605 0.02833817
v 0.05520174 0.06852350 0.02831041
v 0.05274288 0.06852350 0.02526197
v 0.03839889 0.07155391 0.02541855
v 0.03839889 0.07272888 0.02504645
v 0.03839889 0.07153096 0.02789068
v 0.05350440 0.06852350 0.02811785
v 0.05140926 0.06852350 0.02548571
v 0.03839889 0.07149615 0.02555252
v 0.05062121 0.06852350 0.02566594
v 0.03839889 0.07105701 0.02664006
v 0.05058711 0.06852350 0.02763405
v 0.05180328 0.06852350 0.02789308
v 0.05057953 0.06852350 0.02571562
v 0.05024992 0.06852350 0.02664006
f 1 2 8
f 1 8 10
f 1 10 3
f 1 3 9
f 1 9 4
f 1 4 11
f 1 11 5
f 1 5 2
f 2 5 6
f 2 6 7
f 2 7 8
f 3 10 9
f 4 9 12
f 4 12 11
f 5 11 12
f 5 12 17
f 5 17 21
f 5 21 26
f 5 26 32
f 5 32 31
f 5 31 34
f 5 34 33
f 5 33 29
f 5 29 27
f 5 27 22
f 5 22 18
f 5 18 13
f 5 13 6
f 6 13 7
f 7 14 19
f 7 19 24
f 7 24 23
f 7 23 28
f 7 28 30
f 7 30 25
f 7 25 20
f 7 20 15
f 7 15 10
f 7 10 8
f 7 13 14
f 9 10 15
f 9 15 12
f 12 15 16
f 12 16 17
f 13 18 19
f 13 19 14
f 15 20 17
f 15 17 16
f 17 20 21
f 18 22 23
f 18 23 24
f 18 24 19
f 20 25 21
f 21 25 26
f 22 27 23
f 23 27 29
f 23 29 28
f 25 30 31
f 25 31 32
f 25 32 26
f 28 29 30
f 29 33 30
f 30 34 31
f 30 33 34
