# https://github.com/mikedh/trimesh
v -0.07103310 0.08376256 0.01764135
v -0.07103310 0.08083295 0.01764135
v -0.07103310 0.08371210 0.01651604
v -0.07219759 0.08355567 0.01644695
v -0.07219759 0.08360901 0.01764135
v -0.07959986 0.07639891 0.01764135
v -0.07103310 0.08016327 0.00567988
v -0.07103310 0.08349728 0.01188602
v -0.07339240 0.08338627 0.01764135
v -0.07219759 0.08347565 0.01474905
v -0.08295328 0.07639891 0.01764135
v -0.07876442 0.07639891 0.00567988
v -0.07103310 0.08319740 0.00567988
v -0.07389647 0.08329039 0.01764135
v -0.07219759 0.08339203 0.01304997
v -0.08293578 0.07643928 0.01764135
v -0.08291595 0.07639891 0.01688607
v -0.08232320 0.07639891 0.00567988
v -0.07162118 0.08311162 0.00567988
v -0.07219759 0.08330841 0.01135323
v -0.07389647 0.08323056 0.01644695
v -0.07509012 0.08297537 0.01764135
v -0.07219759 0.08305467 0.00625717
v -0.07219759 0.08302583 0.00567988
v -0.08237921 0.07749895 0.01764135
v -0.08177130 0.07748670 0.00567988
v -0.07389647 0.08314477 0.01474905
v -0.07389647 0.08305827 0.01304997
v -0.07559419 0.08284129 0.01764135
v -0.07332006 0.08279588 0.00567988
v -0.07389647 0.08297105 0.01135323
v -0.08210151 0.07801870 0.01764135
v -0.08117856 0.07833587 0.00567988
v -0.08158111 0.07887725 0.01764135
v -0.08156011 0.07884913 0.01697389
v -0.08152277 0.07879939 0.01584156
v -0.07559419 0.08277785 0.01644695
v -0.07649613 0.08224153 0.01180640
v -0.07657781 0.08227757 0.01304997
v -0.07668866 0.08232659 0.01474905
v -0.07679834 0.08237489 0.01644695
v -0.07687534 0.08240877 0.01764135
v -0.07389647 0.08267621 0.00567988
v -0.07513329 0.08234245 0.00567988
v -0.08032912 0.07933067 0.00567988
v -0.08084018 0.07968029 0.01764135
v -0.07559419 0.08268630 0.01474905
v -0.07641329 0.08220765 0.01067524
v -0.07742608 0.08189263 0.01304997
v -0.07753693 0.08194381 0.01474905
v -0.07764661 0.08199427 0.01644695
v -0.07729190 0.08150769 0.00567988
v -0.07772362 0.08202887 0.01764135
v -0.07598273 0.08206059 0.00567988
v -0.07944467 0.08020004 0.00625717
v -0.07941783 0.08017913 0.00567988
v -0.07994757 0.08060949 0.01764135
v -0.07989973 0.08056912 0.01644695
v -0.07985656 0.08053380 0.01540128
v -0.07980638 0.08049271 0.01426895
v -0.07975271 0.08044801 0.01304997
v -0.07856956 0.08081566 0.00567988
v -0.07899078 0.08126908 0.01764135
v -0.07882626 0.08099155 0.01135323
f 1 2 7
f 1 7 13
f 1 13 8
f 1 8 3
f 1 3 4
f 1 4 5
f 1 5 9
f 1 9 14
f 1 14 22
f 1 22 29
f 1 29 42
f 1 42 53
f 1 53 63
f 1 63 57
f 1 57 46
f 1 46 34
f 1 34 32
f 1 32 25
f 1 25 16
f 1 16 11
f 1 11 6
f 1 6 2
f 2 6 7
f 3 8 4
f 4 9 5
f 4 8 10
f 4 10 9
f 6 11 17
f 6 17 18
f 6 18 12
f 6 12 7
f 7 12 18
f 7 18 26
f 7 26 33
f 7 33 45
f 7 45 56
f 7 56 62
f 7 62 52
f 7 52 54
f 7 54 44
f 7 44 43
f 7 43 30
f 7 30 24
f 7 24 19
f 7 19 13
f 8 13 10
f 9 10 14
f 10 13 15
f 10 15 14
f 11 16 17
f 13 19 20
f 13 20 15
f 14 21 22
f 14 15 20
f 14 20 23
f 14 23 24
f 14 24 21
f 16 25 26
f 16 26 18
f 16 18 17
f 19 24 23
f 19 23 20
f 21 27 22
f 21 24 27
f 22 27 28
f 22 28 29
f 24 30 31
f 24 31 28
f 24 28 27
f 25 32 26
f 26 32 34
f 26 34 35
f 26 35 36
f 26 36 33
f 28 31 29
f 29 37 38
f 29 38 39
f 29 39 40
f 29 40 41
f 29 41 42
f 29 31 43
f 29 43 44
f 29 44 37
f 30 43 31
f 33 36 45
f 34 46 45
f 34 45 35
f 35 45 36
f 37 47 48
f 37 48 38
f 37 44 47
f 38 49 50
f 38 50 51
f 38 51 39
f 38 48 52
f 38 52 49
f 39 51 40
f 40 51 53
f 40 53 41
f 41 53 42
f 44 54 48
f 44 48 47
f 45 55 56
f 45 46 57
f 45 57 58
f 45 58 59
f 45 59 60
f 45 60 61
f 45 61 55
f 48 54 52
f 49 52 50
f 50 52 51
f 51 52 53
f 52 62 53
f 53 62 63
f 55 62 56
f 55 61 62
f 57 63 58
f 58 63 64
f 58 64 62
f 58 62 59
f 59 62 60
f 60 62 61
f 62 64 63
