# https://github.com/mikedh/trimesh
v -0.07520184 -0.07917691 -0.00054857
v -0.00003094 -0.07917691 0.00079018
v -0.07520184 -0.07917691 0.00415940
v -0.07520184 -0.07493125 0.00081967
v -0.00003094 -0.07485294 0.00081921
v 0.07499292 -0.07485294 0.00081921
v 0.07499292 -0.07914686 -0.00047576
v -0.00003094 -0.07917691 0.00370455
v -0.07520184 -0.07493125 0.00308472
v 0.07499292 -0.07914686 0.00354786
v 0.07499292 -0.07485294 0.00308472
v 0.04674501 -0.07485294 0.00308518
v 0.04328938 -0.07485294 0.00308518
v -0.00003094 -0.07485294 0.00308472
f 1 2 8
f 1 8 3
f 1 3 9
f 1 9 4
f 1 4 5
f 1 5 6
f 1 6 7
f 1 7 2
f 2 7 10
f 2 10 8
f 3 8 10
f 3 10 11
f 3 11 12
f 3 12 13
f 3 13 14
f 3 14 9
f 4 9 14
f 4 14 5
f 5 14 13
f 5 13 12
f 5 12 11
f 5 11 6
f 6 11 10
f 6 10 7
