# https://github.com/mikedh/trimesh
v -0.01055155 0.02036766 0.02663996
v -0.00949504 0.02036766 0.02533112
v -0.01037167 0.02036766 0.02728029
v -0.00519559 0.03635002 0.02760213
v -0.00524831 0.03635002 0.02710410
v -0.00527416 0.03635002 0.02663996
v -0.00518112 0.03635002 0.02569726
v -0.00764873 0.02191818 0.02504956
v -0.00764873 0.02036766 0.02497136
v -0.00425280 0.03635002 0.02528146
v -0.00952192 0.02036766 0.02797934
v -0.00473970 0.03635002 0.02782362
v -0.00255328 0.03635002 0.02495693
v -0.00595024 0.02191818 0.02495525
v -0.00595024 0.02036766 0.02495525
v -0.00950538 0.02036766 0.02798471
v -0.00425280 0.03635002 0.02804780
v -0.00085480 0.03635002 0.02495525
v -0.00255328 0.03550514 0.02495626
v -0.00255328 0.03380755 0.02495525
v 0.00000840 0.02036766 0.02495525
v -0.00764873 0.02036766 0.02836730
v -0.00764873 0.02191818 0.02828843
v -0.00340717 0.03635002 0.02822836
v 0.00000840 0.03635002 0.02495525
v 0.00000840 0.02036766 0.02838340
v -0.00749986 0.02036766 0.02837568
v -0.00255328 0.03635002 0.02838206
v 0.00000840 0.03635002 0.02838340
v -0.00595024 0.02036766 0.02838340
v -0.00595024 0.02191818 0.02838340
v -0.00255328 0.03550514 0.02838273
v -0.00170869 0.03635002 0.02838307
v -0.00085480 0.03635002 0.02838340
v -0.00255328 0.03380755 0.02838340
f 1 2 9
f 1 9 15
f 1 15 21
f 1 21 26
f 1 26 30
f 1 30 27
f 1 27 22
f 1 22 16
f 1 16 11
f 1 11 3
f 1 3 4
f 1 4 5
f 1 5 6
f 1 6 7
f 1 7 2
f 2 8 9
f 2 7 10
f 2 10 8
f 3 11 4
f 4 12 17
f 4 17 24
f 4 24 28
f 4 28 33
f 4 33 34
f 4 34 29
f 4 29 25
f 4 25 18
f 4 18 13
f 4 13 10
f 4 10 7
f 4 7 6
f 4 6 5
f 4 11 12
f 8 10 13
f 8 13 9
f 9 14 15
f 9 13 14
f 11 16 17
f 11 17 12
f 13 18 19
f 13 19 14
f 14 19 20
f 14 20 18
f 14 18 25
f 14 25 21
f 14 21 15
f 16 22 23
f 16 23 17
f 17 23 24
f 18 20 19
f 21 25 29
f 21 29 26
f 22 27 28
f 22 28 23
f 23 28 24
f 26 29 34
f 26 34 35
f 26 35 31
f 26 31 30
f 27 30 31
f 27 31 28
f 28 32 33
f 28 31 32
f 31 35 32
f 32 35 33
f 33 35 34
