# https://github.com/mikedh/trimesh
v -0.08422647 -0.06786236 0.00457742
v -0.08420707 -0.06810934 0.00457742
v -0.08122257 -0.06786236 0.00457742
v -0.08414621 -0.06786236 0.00116075
v -0.08412681 -0.06810934 0.00116075
v -0.08395042 -0.06980829 0.00116075
v -0.08401481 -0.06980829 0.00457742
v -0.08095270 -0.06786236 0.00455723
v -0.08095711 -0.06786568 0.00457742
v -0.08376874 -0.06786236 -0.00002048
v -0.08360647 -0.06980829 -0.00017085
v -0.08348917 -0.07150725 -0.00006086
v -0.08336481 -0.07286841 0.00010864
v -0.08370965 -0.07150725 0.00116075
v -0.08377403 -0.07150725 0.00457742
v -0.07521655 -0.06786236 0.00308376
v -0.07555169 -0.07917692 0.00457742
v -0.08369466 -0.06786236 -0.00022612
v -0.08368584 -0.06810934 -0.00022133
v -0.08238762 -0.06980829 -0.00079361
v -0.08238762 -0.07150725 -0.00068309
v -0.08221388 -0.07490295 -0.00026597
v -0.08340979 -0.07304451 0.00116075
v -0.08189726 -0.07660190 -0.00009965
v -0.08166531 -0.07764741 0.00011927
v -0.08286387 -0.07490295 0.00116075
v -0.08319372 -0.07389288 0.00116075
v -0.08340450 -0.07332139 0.00457742
v -0.07521655 -0.06786236 0.00081961
v -0.07526946 -0.07917692 0.00432768
v -0.07521655 -0.07917692 0.00415977
v -0.08057788 -0.07917692 0.00457742
v -0.08258606 -0.06786236 -0.00075748
v -0.08238762 -0.06810934 -0.00084303
v -0.08068900 -0.07490295 -0.00084994
v -0.08068900 -0.07660190 -0.00072135
v -0.08069341 -0.07824770 -0.00024046
v -0.08025685 -0.07917692 -0.00005502
v -0.08041648 -0.07917692 0.00034829
v -0.08108411 -0.07854673 0.00116075
v -0.08169882 -0.07769725 0.00116075
v -0.08221917 -0.07660190 0.00116075
v -0.08231001 -0.07660190 0.00457742
v -0.08231707 -0.07658308 0.00457742
v -0.08297676 -0.07481324 0.00457742
v -0.08299969 -0.07475122 0.00457742
v -0.08303144 -0.07464932 0.00457742
v -0.08337981 -0.07341442 0.00457742
v -0.07521655 -0.07917692 -0.00054812
v -0.08093594 -0.06786236 -0.00055556
v -0.08063344 -0.07917692 0.00455723
v -0.08064049 -0.07917027 0.00457742
v -0.08238762 -0.06786236 -0.00084781
v -0.07899126 -0.07830086 -0.00084941
v -0.07897539 -0.07917692 -0.00054706
v -0.07977795 -0.07917692 -0.00025056
v -0.08055318 -0.07917692 0.00116075
v -0.08112556 -0.07859878 0.00457742
v -0.08172528 -0.07776038 0.00457742
v -0.08173234 -0.07774931 0.00455723
v -0.08174027 -0.07773491 0.00457742
v -0.07641687 -0.07917692 -0.00080637
v -0.07811549 -0.07917692 -0.00081274
v -0.08173234 -0.07774931 0.00457742
f 1 2 7
f 1 7 15
f 1 15 28
f 1 28 48
f 1 48 47
f 1 47 46
f 1 46 45
f 1 45 44
f 1 44 43
f 1 43 61
f 1 61 64
f 1 64 59
f 1 59 58
f 1 58 52
f 1 52 32
f 1 32 17
f 1 17 9
f 1 9 3
f 1 3 8
f 1 8 16
f 1 16 29
f 1 29 50
f 1 50 53
f 1 53 33
f 1 33 18
f 1 18 10
f 1 10 4
f 1 4 5
f 1 5 2
f 2 5 6
f 2 6 7
f 3 9 8
f 4 10 11
f 4 11 5
f 5 11 12
f 5 12 6
f 6 12 13
f 6 13 14
f 6 14 15
f 6 15 7
f 8 9 16
f 9 17 16
f 10 18 19
f 10 19 11
f 11 20 21
f 11 21 12
f 11 19 20
f 12 21 22
f 12 22 13
f 13 23 14
f 13 22 24
f 13 24 25
f 13 25 26
f 13 26 27
f 13 27 23
f 14 23 15
f 15 23 28
f 16 17 30
f 16 30 31
f 16 31 49
f 16 49 29
f 17 32 51
f 17 51 57
f 17 57 39
f 17 39 38
f 17 38 56
f 17 56 55
f 17 55 63
f 17 63 62
f 17 62 49
f 17 49 31
f 17 31 30
f 18 33 20
f 18 20 19
f 20 33 34
f 20 34 35
f 20 35 21
f 21 35 36
f 21 36 22
f 22 36 24
f 23 27 28
f 24 36 37
f 24 37 25
f 25 37 38
f 25 38 39
f 25 39 40
f 25 40 41
f 25 41 42
f 25 42 26
f 26 42 43
f 26 43 44
f 26 44 45
f 26 45 46
f 26 46 27
f 27 46 47
f 27 47 48
f 27 48 28
f 29 49 50
f 32 52 51
f 33 53 34
f 34 53 35
f 35 54 36
f 35 53 54
f 36 54 37
f 37 54 55
f 37 55 56
f 37 56 38
f 39 57 40
f 40 58 41
f 40 57 58
f 41 59 60
f 41 60 61
f 41 61 43
f 41 43 42
f 41 58 59
f 49 62 50
f 50 62 53
f 51 52 57
f 52 58 57
f 53 62 54
f 54 62 63
f 54 63 55
f 59 64 60
f 60 64 61
