# https://github.com/mikedh/trimesh
v 0.05797115 -0.08169842 -0.00075030
v 0.05797115 -0.08035518 -0.00012915
v 0.05797115 -0.08331970 -0.00030919
v 0.05689690 -0.08332918 -0.00030919
v 0.05519958 -0.08333924 -0.00030919
v 0.05350032 -0.08334705 -0.00030919
v 0.05180105 -0.08334984 -0.00030919
v 0.04500984 -0.08334538 -0.00031099
v 0.04670715 -0.08169842 -0.00066028
v 0.05126783 -0.07914705 0.00064504
v 0.05638712 -0.07914705 0.00064144
v 0.05797115 -0.07914705 0.00064144
v 0.04670715 -0.08040878 -0.00003912
v 0.04239062 -0.07914705 0.00067205
v 0.04443169 -0.07914705 0.00065225
v 0.04670715 -0.07914705 0.00064865
v 0.05797115 -0.08410074 0.00116177
v 0.05689690 -0.08411861 0.00116177
v 0.05519958 -0.08413759 0.00116177
v 0.05350032 -0.08415210 0.00116177
v 0.05180105 -0.08415769 0.00116177
v 0.04840447 -0.08334984 -0.00030919
v 0.04500984 -0.08169842 -0.00063507
v 0.04670715 -0.08334929 -0.00030919
v 0.04670715 -0.08415657 0.00116177
v 0.04500984 -0.08414931 0.00116177
v 0.04331057 -0.08305507 -0.00008233
v 0.05797115 -0.07914705 0.00315306
v 0.03801744 -0.07914705 0.00079988
v 0.05797115 -0.08478967 0.01751879
v 0.05689690 -0.08481200 0.01764302
v 0.05639493 -0.08481703 0.01764302
v 0.05519958 -0.08482819 0.01764302
v 0.05350032 -0.08484326 0.01764302
v 0.05299640 -0.08484550 0.01764302
v 0.05180105 -0.08485052 0.01764302
v 0.04840447 -0.08415769 0.00116177
v 0.03801744 -0.08000011 0.00079268
v 0.04670715 -0.08485052 0.01764302
v 0.04500984 -0.08484885 0.01764302
v 0.04331057 -0.08483657 0.01764302
v 0.04331057 -0.08478241 0.01644753
v 0.04331057 -0.08470369 0.01474791
v 0.04331057 -0.08461995 0.01305010
v 0.04331057 -0.08453230 0.01135048
v 0.04405864 -0.08426320 0.00502192
v 0.04243164 -0.08426655 0.00857059
v 0.04331057 -0.08388636 0.00285959
v 0.04331057 -0.08368593 0.00116177
v 0.03801744 -0.08238177 0.00285959
v 0.03801744 -0.08159012 0.00140303
v 0.05797115 -0.08187317 0.01764302
v 0.03991398 -0.07914705 0.00365178
v 0.03801744 -0.08014303 0.01764302
v 0.03821472 -0.08014359 0.01764302
v 0.03871864 -0.08014750 0.01764302
v 0.03991398 -0.08015866 0.01764302
v 0.04041595 -0.08019384 0.01764302
v 0.04161130 -0.08030549 0.01764302
v 0.03801744 -0.07914705 0.00301443
v 0.05797115 -0.08479470 0.01764302
v 0.04287305 -0.08475505 0.01764302
v 0.04226171 -0.08436984 0.01135048
v 0.04236523 -0.08431010 0.00965266
v 0.04159763 -0.08450885 0.01764302
v 0.03801744 -0.08246440 0.00436296
v 0.03826159 -0.07914705 0.00367699
v 0.03821472 -0.07914705 0.00367699
v 0.03801744 -0.07914984 0.00367879
v 0.03801744 -0.08308856 0.01764302
v 0.04183787 -0.08450774 0.01644753
v 0.03801744 -0.08308242 0.01750439
v 0.03801744 -0.08302492 0.01625128
v 0.03801744 -0.08294676 0.01455166
v 0.03801744 -0.08257494 0.00650008
v 0.03801744 -0.08252637 0.00552424
v 0.03801744 -0.08247500 0.00455921
f 1 2 12
f 1 12 28
f 1 28 52
f 1 52 61
f 1 61 30
f 1 30 17
f 1 17 3
f 1 3 4
f 1 4 5
f 1 5 6
f 1 6 7
f 1 7 8
f 1 8 9
f 1 9 2
f 2 10 11
f 2 11 12
f 2 9 13
f 2 13 14
f 2 14 15
f 2 15 16
f 2 16 10
f 3 17 18
f 3 18 19
f 3 19 4
f 4 19 20
f 4 20 5
f 5 20 6
f 6 20 21
f 6 21 7
f 7 21 37
f 7 37 22
f 7 22 8
f 8 23 9
f 8 22 24
f 8 24 25
f 8 25 26
f 8 26 27
f 8 27 23
f 9 23 13
f 10 16 15
f 10 15 14
f 10 14 29
f 10 29 60
f 10 60 68
f 10 68 67
f 10 67 53
f 10 53 28
f 10 28 12
f 10 12 11
f 13 23 14
f 14 23 29
f 17 30 18
f 18 30 31
f 18 31 19
f 19 31 32
f 19 32 33
f 19 33 34
f 19 34 20
f 20 35 36
f 20 36 21
f 20 34 35
f 21 36 39
f 21 39 37
f 22 37 24
f 23 27 38
f 23 38 29
f 24 37 25
f 25 37 39
f 25 39 40
f 25 40 26
f 26 40 41
f 26 41 42
f 26 42 43
f 26 43 44
f 26 44 45
f 26 45 46
f 26 46 47
f 26 47 48
f 26 48 49
f 26 49 27
f 27 49 50
f 27 50 51
f 27 51 38
f 28 53 54
f 28 54 55
f 28 55 56
f 28 56 57
f 28 57 58
f 28 58 59
f 28 59 52
f 29 38 51
f 29 51 50
f 29 50 66
f 29 66 77
f 29 77 76
f 29 76 75
f 29 75 74
f 29 74 73
f 29 73 72
f 29 72 70
f 29 70 54
f 29 54 69
f 29 69 60
f 30 61 31
f 31 61 52
f 31 52 59
f 31 59 58
f 31 58 57
f 31 57 56
f 31 56 55
f 31 55 54
f 31 54 70
f 31 70 65
f 31 65 62
f 31 62 41
f 31 41 40
f 31 40 39
f 31 39 36
f 31 36 35
f 31 35 34
f 31 34 33
f 31 33 32
f 41 62 63
f 41 63 42
f 42 63 64
f 42 64 43
f 43 64 44
f 44 64 47
f 44 47 45
f 45 47 46
f 47 64 50
f 47 50 48
f 48 50 49
f 50 65 66
f 50 64 65
f 53 67 54
f 54 68 69
f 54 67 68
f 60 69 68
f 62 65 71
f 62 71 63
f 63 71 65
f 63 65 64
f 65 70 72
f 65 72 73
f 65 73 74
f 65 74 75
f 65 75 76
f 65 76 77
f 65 77 66
