# https://github.com/mikedh/trimesh
v -0.03825311 -0.00043158 0.02532740
v -0.03784838 -0.00595251 0.02664013
v -0.03825311 -0.00043158 0.02838340
v -0.03825311 -0.00042675 0.02495559
v -0.02465360 -0.00825089 0.02547370
v -0.02465360 -0.00871378 0.02662839
v -0.02465360 -0.00871861 0.02664148
v -0.02465360 -0.00827500 0.02782603
v -0.03784838 -0.00519710 0.02792804
v -0.03784838 -0.00534175 0.02565894
v -0.03784838 -0.00356091 0.02837535
v -0.03784838 -0.00186364 0.02838340
v -0.03825311 0.00153410 0.02838340
v -0.03825311 0.00153410 0.02495559
v -0.03784838 -0.00186364 0.02495559
v -0.03784838 -0.00223653 0.02495727
v -0.03784838 -0.00356091 0.02496364
v -0.03784838 -0.00391772 0.02505559
v -0.03784838 -0.00516496 0.02538109
v -0.02465360 -0.00695866 0.02505693
v -0.02465360 -0.00695705 0.02828005
v -0.03312750 -0.00356091 0.02838340
v -0.02633506 -0.00525978 0.02837938
v -0.02465360 -0.00525978 0.02838340
v -0.03143005 0.00323298 0.02838340
v -0.03312750 0.00323298 0.02838273
v -0.03825311 0.00323298 0.02837367
v -0.03825311 0.00323298 0.02496532
v -0.03312750 0.00323298 0.02495660
v -0.03143005 0.00323298 0.02495559
v -0.03142872 -0.00356091 0.02495559
v -0.03312750 -0.00356091 0.02495592
v -0.02465360 -0.00524371 0.02495559
v -0.02633506 -0.00525978 0.02495995
v -0.02465360 -0.00694258 0.02505324
v -0.02465360 -0.00043158 0.02838340
v -0.02649083 0.00323298 0.02838340
v -0.02649083 0.00477434 0.02837904
v -0.02649083 0.00493024 0.02837636
v -0.02803384 0.00493024 0.02835454
v -0.02649083 0.00647161 0.02809985
v -0.03825311 0.00483220 0.02793408
v -0.03825311 0.00484184 0.02538411
v -0.02649482 0.00679306 0.02535995
v -0.02973261 0.00493024 0.02504519
v -0.02803384 0.00493024 0.02498445
v -0.02649083 0.00493024 0.02496264
v -0.02649083 0.00323298 0.02495559
v -0.02465360 -0.00525978 0.02495592
v -0.02465360 -0.00043158 0.02495559
v -0.02649083 0.00769955 0.02669517
v -0.02649083 0.00759829 0.02760623
v -0.02649083 0.00752597 0.02765120
v -0.02649083 0.00663233 0.02804851
v -0.03825311 0.00486434 0.02792502
v -0.03825311 0.00561976 0.02664013
v -0.03437628 0.00582388 0.02573813
v -0.02716714 0.00746811 0.02613980
v -0.02649083 0.00679788 0.02536162
v -0.02649083 0.00676091 0.02535323
v -0.02649083 0.00769955 0.02667268
v -0.02649482 0.00770116 0.02667906
v -0.03825311 0.00560851 0.02666027
f 1 2 3
f 1 3 13
f 1 13 27
f 1 27 42
f 1 42 55
f 1 55 63
f 1 63 56
f 1 56 43
f 1 43 28
f 1 28 14
f 1 14 4
f 1 4 2
f 2 5 6
f 2 6 7
f 2 7 8
f 2 8 9
f 2 9 3
f 2 4 10
f 2 10 5
f 3 9 11
f 3 11 12
f 3 12 22
f 3 22 24
f 3 24 36
f 3 36 37
f 3 37 25
f 3 25 13
f 4 14 30
f 4 30 48
f 4 48 50
f 4 50 33
f 4 33 31
f 4 31 15
f 4 15 16
f 4 16 17
f 4 17 18
f 4 18 19
f 4 19 10
f 5 10 19
f 5 19 20
f 5 20 35
f 5 35 49
f 5 49 33
f 5 33 50
f 5 50 36
f 5 36 24
f 5 24 21
f 5 21 8
f 5 8 7
f 5 7 6
f 8 21 9
f 9 21 11
f 11 22 12
f 11 21 23
f 11 23 24
f 11 24 22
f 13 25 26
f 13 26 27
f 14 28 29
f 14 29 30
f 15 31 32
f 15 32 16
f 16 32 17
f 17 32 33
f 17 33 34
f 17 34 35
f 17 35 20
f 17 20 18
f 18 20 19
f 21 24 23
f 25 37 38
f 25 38 26
f 26 38 27
f 27 38 39
f 27 39 40
f 27 40 41
f 27 41 42
f 28 43 44
f 28 44 45
f 28 45 46
f 28 46 47
f 28 47 29
f 29 47 30
f 30 47 48
f 31 33 32
f 33 49 34
f 34 49 35
f 36 50 61
f 36 61 51
f 36 51 52
f 36 52 53
f 36 53 54
f 36 54 41
f 36 41 39
f 36 39 38
f 36 38 37
f 39 41 40
f 41 54 55
f 41 55 42
f 43 56 57
f 43 57 58
f 43 58 59
f 43 59 44
f 44 59 60
f 44 60 47
f 44 47 46
f 44 46 45
f 47 60 50
f 47 50 48
f 50 60 59
f 50 59 61
f 51 62 52
f 51 61 62
f 52 62 56
f 52 56 63
f 52 63 55
f 52 55 53
f 53 55 54
f 56 62 58
f 56 58 57
f 58 62 61
f 58 61 59
