# https://github.com/mikedh/trimesh
v -0.08057784 -0.07917692 0.00457796
v -0.07555111 -0.07917692 0.00457796
v -0.08068822 -0.07917692 0.00533105
v -0.08064015 -0.07917027 0.00457796
v -0.08095705 -0.06786568 0.00457796
v -0.08173149 -0.06786236 0.01632395
v -0.07707327 -0.07917692 0.01632395
v -0.08145376 -0.07917692 0.01603421
v -0.08151162 -0.07911157 0.01600892
v -0.08112529 -0.07859878 0.00457796
v -0.08122232 -0.06786236 0.00457796
v -0.08128018 -0.06786236 0.00600941
v -0.08464409 -0.06786236 0.01632395
v -0.08139234 -0.07917692 0.01632395
v -0.08178044 -0.07870622 0.01632395
v -0.08173238 -0.07774931 0.00457796
v -0.08172525 -0.07776038 0.00457796
v -0.08422572 -0.06786236 0.00457796
v -0.08459157 -0.06786236 0.01474877
v -0.08462896 -0.06810934 0.01632395
v -0.08195670 -0.07842048 0.01632395
v -0.08174039 -0.07773491 0.00457796
v -0.08200299 -0.07820450 0.01474877
v -0.08420702 -0.06810934 0.00457796
v -0.08439129 -0.06810934 0.00965417
v -0.08447140 -0.06786236 0.01135122
v -0.08453193 -0.06786236 0.01305057
v -0.08457555 -0.06810934 0.01474877
v -0.08445627 -0.06980829 0.01632395
v -0.08283084 -0.07679794 0.01632395
v -0.08231009 -0.07660190 0.00457796
v -0.08289760 -0.07666946 0.01632395
v -0.08266972 -0.07660190 0.01135122
v -0.08401475 -0.06980829 0.00457796
v -0.08420702 -0.06980829 0.00965417
v -0.08427111 -0.06980829 0.01135122
v -0.08433521 -0.06980829 0.01305057
v -0.08439841 -0.06980829 0.01474877
v -0.08445271 -0.06810934 0.01135122
v -0.08423551 -0.07150725 0.01632395
v -0.08231721 -0.07658308 0.00457796
v -0.08324832 -0.07577900 0.01537080
v -0.08321894 -0.07568930 0.01423828
v -0.08293677 -0.07658197 0.01632395
v -0.08291807 -0.07644795 0.01478212
v -0.08275873 -0.07660190 0.01305057
v -0.08377441 -0.07150725 0.00457796
v -0.08390971 -0.07150725 0.00795596
v -0.08404501 -0.07150725 0.01135122
v -0.08417676 -0.07150725 0.01474877
v -0.08392751 -0.07320621 0.01632395
v -0.08300976 -0.07500152 0.00625661
v -0.08299996 -0.07475122 0.00457796
v -0.08327057 -0.07583106 0.01632395
v -0.08349044 -0.07500373 0.01632395
v -0.08324387 -0.07407451 0.00526551
v -0.08368539 -0.07194362 0.00457796
v -0.08350558 -0.07320621 0.00625661
v -0.08357857 -0.07320621 0.00795596
v -0.08372278 -0.07320621 0.01135122
v -0.08379399 -0.07320621 0.01305057
v -0.08386431 -0.07320621 0.01474877
v -0.08351359 -0.07491292 0.01632395
v -0.08303112 -0.07464932 0.00457796
v -0.08340410 -0.07332139 0.00457796
v -0.08338007 -0.07341442 0.00457796
f 1 2 7
f 1 7 14
f 1 14 8
f 1 8 3
f 1 3 4
f 1 4 10
f 1 10 17
f 1 17 16
f 1 16 22
f 1 22 31
f 1 31 41
f 1 41 53
f 1 53 64
f 1 64 66
f 1 66 65
f 1 65 57
f 1 57 47
f 1 47 34
f 1 34 24
f 1 24 18
f 1 18 11
f 1 11 5
f 1 5 2
f 2 5 6
f 2 6 7
f 3 8 9
f 3 9 4
f 4 9 10
f 5 11 12
f 5 12 6
f 6 13 20
f 6 20 29
f 6 29 40
f 6 40 51
f 6 51 63
f 6 63 55
f 6 55 54
f 6 54 44
f 6 44 32
f 6 32 30
f 6 30 21
f 6 21 15
f 6 15 14
f 6 14 7
f 6 12 11
f 6 11 18
f 6 18 26
f 6 26 27
f 6 27 19
f 6 19 13
f 8 14 15
f 8 15 9
f 9 15 16
f 9 16 17
f 9 17 10
f 13 19 20
f 15 21 16
f 16 21 23
f 16 23 22
f 18 24 25
f 18 25 26
f 19 27 28
f 19 28 20
f 20 28 29
f 21 30 23
f 22 23 30
f 22 30 32
f 22 32 33
f 22 33 31
f 24 34 35
f 24 35 36
f 24 36 37
f 24 37 38
f 24 38 29
f 24 29 25
f 25 29 39
f 25 39 26
f 26 39 28
f 26 28 27
f 28 39 29
f 29 38 40
f 31 33 42
f 31 42 43
f 31 43 41
f 32 44 42
f 32 42 45
f 32 45 46
f 32 46 33
f 33 46 42
f 34 47 48
f 34 48 49
f 34 49 50
f 34 50 35
f 35 50 36
f 36 50 37
f 37 50 40
f 37 40 38
f 40 50 51
f 41 52 53
f 41 43 52
f 42 46 45
f 42 44 54
f 42 54 55
f 42 55 56
f 42 56 43
f 43 56 53
f 43 53 52
f 47 57 58
f 47 58 59
f 47 59 60
f 47 60 61
f 47 61 62
f 47 62 51
f 47 51 48
f 48 51 49
f 49 51 50
f 51 62 63
f 53 56 64
f 55 63 56
f 56 65 66
f 56 66 64
f 56 63 65
f 57 65 58
f 58 65 63
f 58 63 59
f 59 63 60
f 60 63 61
f 61 63 62
