# https://github.com/mikedh/trimesh
v -0.07103310 0.07954258 0.00394113
v -0.07103310 0.08083359 0.01764118
v -0.07103310 0.08311535 0.00394113
v -0.03992115 0.07907954 0.00394113
v -0.03992115 0.07987193 0.01764118
v -0.07103310 0.08376274 0.01764118
v -0.07103310 0.08341560 0.01018964
v -0.07049765 0.08319459 0.00394113
v -0.03821744 0.07905744 0.00394113
v -0.03872508 0.07986061 0.01764118
v -0.07103310 0.08373202 0.01695718
v -0.07001088 0.08389912 0.01764118
v -0.07103310 0.08349699 0.01188622
v -0.07049765 0.08354551 0.01135109
v -0.06968403 0.08392176 0.01719457
v -0.06987875 0.08326790 0.00394113
v -0.03702831 0.07985415 0.01764118
v -0.03821744 0.07985684 0.01764118
v -0.03417719 0.07905744 0.00394113
v -0.03652067 0.07985307 0.01764118
v -0.07103310 0.08371207 0.01651593
v -0.06976053 0.08393200 0.01764118
v -0.06880784 0.08402525 0.01764118
v -0.06883566 0.08397458 0.01655617
v -0.06826543 0.08394763 0.01474827
v -0.06879393 0.08339565 0.00394113
v 0.00000840 0.07905852 0.00394113
v 0.00000840 0.07985361 0.01764118
v -0.03143039 0.07985307 0.01764118
v -0.06829325 0.08406568 0.01764118
v -0.06802204 0.08392445 0.01373435
v -0.06818198 0.08344794 0.00394113
v 0.00000840 0.08216071 0.00394113
v 0.00000840 0.08277899 0.01764118
v -0.06709717 0.08415732 0.01764118
v -0.06709717 0.08410503 0.01644753
v -0.06709717 0.08402903 0.01474827
v -0.06709022 0.08395625 0.01312143
v -0.06709717 0.08353958 0.00394113
v 0.00000840 0.08218389 0.00433811
v -0.04409352 0.08393146 0.00394113
v 0.00000840 0.08276389 0.01728308
v -0.04331468 0.08454974 0.01764118
v -0.06659648 0.08418751 0.01764118
v -0.06540041 0.08420691 0.01644753
v -0.06540041 0.08413199 0.01474827
v -0.06540041 0.08405598 0.01305035
v -0.06651304 0.08393362 0.01184062
v -0.06647827 0.08357785 0.00394113
v 0.00000840 0.08222809 0.00518707
v -0.04446903 0.08394386 0.00394113
v -0.04331468 0.08441660 0.01474827
v 0.00000840 0.08272778 0.01644753
v -0.04331468 0.08449583 0.01644753
v -0.04501839 0.08395140 0.00394113
v -0.04501839 0.08428561 0.01135109
v -0.04501839 0.08436161 0.01305035
v -0.04501839 0.08443654 0.01474827
v -0.04501839 0.08451093 0.01644753
v -0.04501839 0.08456214 0.01764118
v 0.00000840 0.08265393 0.01474827
v 0.00000840 0.08257900 0.01305035
v 0.00000840 0.08250354 0.01135109
v 0.00000840 0.08238926 0.00879080
v 0.00000840 0.08225181 0.00571415
v -0.06540041 0.08425866 0.01764118
v -0.06489277 0.08428507 0.01764118
v -0.06369669 0.08429532 0.01644753
v -0.06369669 0.08422092 0.01474827
v -0.06453812 0.08391637 0.00881494
v -0.06496231 0.08394224 0.00994688
v -0.06547690 0.08397242 0.01130549
v -0.06540041 0.08364199 0.00394113
v -0.04671516 0.08395787 0.00394113
v -0.04671516 0.08428776 0.01135109
v -0.04671516 0.08436323 0.01305035
v -0.04671516 0.08443816 0.01474827
v -0.04671516 0.08451201 0.01644753
v -0.04671516 0.08456376 0.01764118
v -0.06369669 0.08434706 0.01764118
v -0.06319600 0.08436539 0.01764118
v -0.06199993 0.08435676 0.01644753
v -0.06285526 0.08391745 0.00709958
v -0.06369669 0.08414546 0.01305035
v -0.06478151 0.08367488 0.00394113
v -0.06386359 0.08397836 0.00948955
v -0.06327250 0.08393686 0.00795525
v -0.06369669 0.08372824 0.00394113
v -0.04754963 0.08395841 0.00394113
v -0.04841192 0.08395895 0.00394113
v -0.05181240 0.08436323 0.01305035
v -0.05181240 0.08443816 0.01474827
v -0.05181240 0.08451201 0.01644753
v -0.05181240 0.08456376 0.01764118
v -0.06199993 0.08440797 0.01764118
v -0.06149925 0.08442198 0.01764118
v -0.06030317 0.08440366 0.01644753
v -0.06030317 0.08432981 0.01474827
v -0.06199993 0.08428238 0.01474827
v -0.06199993 0.08378969 0.00394113
v -0.06199993 0.08420745 0.01305035
v -0.06199993 0.08413199 0.01135109
v -0.06199993 0.08405652 0.00965451
v -0.06199993 0.08398051 0.00795525
v -0.06199993 0.08392984 0.00682464
v -0.05971208 0.08392445 0.00523670
v -0.06029621 0.08384360 0.00394113
v -0.06369669 0.08406946 0.01135109
v -0.05181240 0.08395895 0.00394113
v -0.05350916 0.08395356 0.00394113
v -0.05350916 0.08428184 0.01135109
v -0.05350916 0.08443169 0.01474827
v -0.05350916 0.08450554 0.01644753
v -0.05350916 0.08455675 0.01764118
v -0.06030317 0.08445487 0.01764118
v -0.05979553 0.08446781 0.01764118
v -0.05860640 0.08444678 0.01644753
v -0.06030317 0.08417996 0.01135109
v -0.05860640 0.08437293 0.01474827
v -0.06030317 0.08410449 0.00965451
v -0.05860640 0.08422308 0.01135109
v -0.05860640 0.08393793 0.00493493
v -0.05860640 0.08388995 0.00394113
v -0.05430887 0.08394709 0.00394113
v -0.05520592 0.08393955 0.00394113
v -0.05520592 0.08426728 0.01135109
v -0.05520592 0.08441714 0.01474827
v -0.05520592 0.08449045 0.01644753
v -0.05520592 0.08454166 0.01764118
v -0.05860640 0.08449745 0.01764118
v -0.05809876 0.08450608 0.01764118
v -0.05690269 0.08452549 0.01764118
v -0.05690269 0.08447428 0.01644753
v -0.05690269 0.08440043 0.01474827
v -0.05690269 0.08432603 0.01305035
v -0.05744509 0.08391421 0.00394113
v -0.05588741 0.08393254 0.00394113
v -0.05640200 0.08453034 0.01764118
v -0.05679837 0.08392283 0.00394113
v -0.05720171 0.08391798 0.00394113
f 1 2 6
f 1 6 11
f 1 11 21
f 1 21 13
f 1 13 7
f 1 7 3
f 1 3 8
f 1 8 16
f 1 16 26
f 1 26 32
f 1 32 39
f 1 39 49
f 1 49 73
f 1 73 85
f 1 85 88
f 1 88 100
f 1 100 107
f 1 107 123
f 1 123 136
f 1 136 140
f 1 140 139
f 1 139 137
f 1 137 125
f 1 125 124
f 1 124 110
f 1 110 109
f 1 109 90
f 1 90 89
f 1 89 74
f 1 74 55
f 1 55 51
f 1 51 41
f 1 41 33
f 1 33 27
f 1 27 19
f 1 19 9
f 1 9 4
f 1 4 5
f 1 5 2
f 2 5 10
f 2 10 18
f 2 18 17
f 2 17 20
f 2 20 29
f 2 29 28
f 2 28 34
f 2 34 43
f 2 43 60
f 2 60 79
f 2 79 94
f 2 94 114
f 2 114 129
f 2 129 138
f 2 138 132
f 2 132 131
f 2 131 130
f 2 130 116
f 2 116 115
f 2 115 96
f 2 96 95
f 2 95 81
f 2 81 80
f 2 80 67
f 2 67 66
f 2 66 44
f 2 44 35
f 2 35 30
f 2 30 23
f 2 23 22
f 2 22 12
f 2 12 6
f 3 7 8
f 4 9 5
f 5 9 10
f 6 12 11
f 7 13 8
f 8 14 15
f 8 15 16
f 8 13 14
f 9 17 18
f 9 18 10
f 9 19 29
f 9 29 20
f 9 20 17
f 11 12 21
f 12 14 21
f 12 22 15
f 12 15 14
f 13 21 14
f 15 22 23
f 15 23 24
f 15 24 25
f 15 25 26
f 15 26 16
f 19 27 28
f 19 28 29
f 23 30 25
f 23 25 24
f 25 30 31
f 25 31 26
f 26 31 32
f 27 33 40
f 27 40 50
f 27 50 65
f 27 65 64
f 27 64 63
f 27 63 62
f 27 62 61
f 27 61 53
f 27 53 42
f 27 42 34
f 27 34 28
f 30 35 31
f 31 35 36
f 31 36 37
f 31 37 38
f 31 38 39
f 31 39 32
f 33 41 40
f 34 42 43
f 35 44 36
f 36 44 45
f 36 45 46
f 36 46 37
f 37 46 47
f 37 47 38
f 38 48 49
f 38 49 39
f 38 47 48
f 40 41 50
f 41 51 52
f 41 52 50
f 42 53 43
f 43 54 55
f 43 55 56
f 43 56 57
f 43 57 58
f 43 58 59
f 43 59 60
f 43 53 61
f 43 61 62
f 43 62 63
f 43 63 64
f 43 64 65
f 43 65 50
f 43 50 54
f 44 66 45
f 45 66 67
f 45 67 68
f 45 68 69
f 45 69 70
f 45 70 46
f 46 70 47
f 47 70 71
f 47 71 72
f 47 72 48
f 48 72 71
f 48 71 49
f 49 71 70
f 49 70 73
f 50 52 54
f 51 55 54
f 51 54 52
f 55 74 56
f 56 74 57
f 57 74 75
f 57 75 76
f 57 76 77
f 57 77 58
f 58 77 59
f 59 77 78
f 59 78 79
f 59 79 60
f 67 80 68
f 68 80 81
f 68 81 82
f 68 82 83
f 68 83 69
f 69 83 84
f 69 84 70
f 70 85 73
f 70 84 86
f 70 86 87
f 70 87 83
f 70 83 88
f 70 88 85
f 74 89 75
f 75 89 90
f 75 90 76
f 76 90 109
f 76 109 91
f 76 91 92
f 76 92 77
f 77 92 93
f 77 93 78
f 78 93 94
f 78 94 79
f 81 95 82
f 82 95 96
f 82 96 97
f 82 97 98
f 82 98 99
f 82 99 83
f 83 100 88
f 83 87 84
f 83 99 101
f 83 101 102
f 83 102 103
f 83 103 104
f 83 104 105
f 83 105 106
f 83 106 107
f 83 107 100
f 84 108 86
f 84 87 108
f 86 108 87
f 91 109 110
f 91 110 111
f 91 111 92
f 92 111 112
f 92 112 113
f 92 113 93
f 93 113 94
f 94 113 114
f 96 115 97
f 97 115 116
f 97 116 117
f 97 117 119
f 97 119 98
f 98 118 99
f 98 119 121
f 98 121 118
f 99 118 101
f 101 118 102
f 102 118 120
f 102 120 103
f 103 120 106
f 103 106 104
f 104 106 105
f 106 120 118
f 106 118 121
f 106 121 122
f 106 122 123
f 106 123 107
f 110 124 111
f 111 124 125
f 111 125 126
f 111 126 127
f 111 127 112
f 112 127 113
f 113 127 128
f 113 128 129
f 113 129 114
f 116 130 117
f 117 130 131
f 117 131 132
f 117 132 133
f 117 133 134
f 117 134 119
f 119 134 135
f 119 135 121
f 121 135 136
f 121 136 122
f 122 136 123
f 125 137 135
f 125 135 126
f 126 135 127
f 127 135 134
f 127 134 133
f 127 133 128
f 128 133 138
f 128 138 129
f 132 138 133
f 135 137 139
f 135 139 140
f 135 140 136
