# https://github.com/mikedh/trimesh
v -0.01622706 -0.00043175 0.02495559
v -0.01446144 -0.01033395 0.02495559
v -0.01446144 -0.01203131 0.02496062
v -0.01446144 -0.01205260 0.02496196
v -0.01446144 -0.01373400 0.02510525
v -0.01446144 -0.01523982 0.02551565
v -0.01446144 -0.01528238 0.02553713
v -0.01446144 -0.01579319 0.02646262
v -0.01446144 -0.01581980 0.02664013
v -0.01622706 -0.00043175 0.02838340
v -0.01622706 0.00832646 0.02495559
v -0.00255501 -0.03399068 0.02495559
v -0.00269963 -0.03399068 0.02496834
v -0.00425388 -0.03399068 0.02519082
v -0.00435083 -0.03399068 0.02522673
v -0.00527734 -0.03399068 0.02560860
v -0.00530436 -0.03399068 0.02570491
v -0.00547123 -0.03399068 0.02664013
v -0.01446144 -0.01530367 0.02777401
v -0.00529641 -0.03399068 0.02769549
v -0.01446144 -0.01374996 0.02822602
v -0.01446144 -0.01205260 0.02837736
v -0.01444237 -0.01205260 0.02837871
v -0.01446144 -0.01035523 0.02838340
v -0.01622706 0.00832646 0.02838340
v -0.01622706 0.01002383 0.02495962
v -0.01613965 0.01002383 0.02495693
v -0.00765004 0.01851599 0.02495559
v -0.00002021 -0.03399068 0.02495559
v -0.00425388 -0.03399068 0.02814280
v -0.01444237 -0.01374996 0.02823072
v -0.00255501 -0.03399068 0.02838340
v -0.00765004 0.01851599 0.02838340
v -0.01622706 0.00994401 0.02838206
v -0.01622706 0.01172119 0.02507539
v -0.01613965 0.01172119 0.02505760
v -0.00765004 0.02036766 0.02497170
v -0.00765004 0.02021867 0.02496431
v -0.00595117 0.02036766 0.02495559
v -0.00002021 -0.03399068 0.02838340
v 0.00000840 -0.00043175 0.02495559
v -0.00595117 0.02036766 0.02838340
v -0.01622706 0.01002383 0.02837971
v -0.00750066 0.02036766 0.02837535
v -0.00765004 0.02021867 0.02837468
v -0.01622706 0.01327490 0.02549686
v -0.00949354 0.02036766 0.02533142
v 0.00000840 0.02036766 0.02495559
v 0.00000840 -0.00043175 0.02838340
v 0.00000840 0.02036766 0.02838340
v -0.01622706 0.01163606 0.02828240
v -0.00765004 0.02036766 0.02836696
v -0.01622706 0.01383891 0.02664013
v -0.01543404 0.01440825 0.02568343
v -0.01050428 0.01988878 0.02556968
v -0.01055037 0.02036766 0.02664013
v -0.01622706 0.01172119 0.02826092
v -0.00950307 0.02036766 0.02798441
v -0.01622706 0.01381763 0.02678644
v -0.01036920 0.02036766 0.02728006
v -0.01622706 0.01322169 0.02784448
v -0.00951897 0.02036766 0.02797905
v -0.01622706 0.01329086 0.02781395
v -0.01544834 0.01441889 0.02761160
v -0.01052017 0.01991006 0.02772804
f 1 2 3
f 1 3 4
f 1 4 5
f 1 5 6
f 1 6 7
f 1 7 8
f 1 8 9
f 1 9 10
f 1 10 25
f 1 25 34
f 1 34 43
f 1 43 51
f 1 51 57
f 1 57 61
f 1 61 63
f 1 63 59
f 1 59 53
f 1 53 46
f 1 46 35
f 1 35 26
f 1 26 11
f 1 11 28
f 1 28 39
f 1 39 48
f 1 48 41
f 1 41 29
f 1 29 12
f 1 12 2
f 2 12 3
f 3 12 13
f 3 13 4
f 4 13 14
f 4 14 5
f 5 14 15
f 5 15 16
f 5 16 6
f 6 16 7
f 7 16 17
f 7 17 8
f 8 17 18
f 8 18 9
f 9 19 10
f 9 18 20
f 9 20 19
f 10 19 21
f 10 21 22
f 10 22 23
f 10 23 24
f 10 24 32
f 10 32 40
f 10 40 49
f 10 49 50
f 10 50 42
f 10 42 33
f 10 33 25
f 11 26 27
f 11 27 28
f 12 29 40
f 12 40 32
f 12 32 30
f 12 30 20
f 12 20 18
f 12 18 17
f 12 17 16
f 12 16 15
f 12 15 14
f 12 14 13
f 19 20 21
f 20 30 21
f 21 31 22
f 21 30 31
f 22 31 30
f 22 30 32
f 22 32 23
f 23 32 24
f 25 33 34
f 26 35 36
f 26 36 37
f 26 37 38
f 26 38 27
f 27 38 39
f 27 39 28
f 29 41 49
f 29 49 40
f 33 42 34
f 34 42 44
f 34 44 45
f 34 45 43
f 35 46 47
f 35 47 36
f 36 47 37
f 37 47 56
f 37 56 60
f 37 60 62
f 37 62 58
f 37 58 52
f 37 52 44
f 37 44 42
f 37 42 50
f 37 50 48
f 37 48 39
f 37 39 38
f 41 48 50
f 41 50 49
f 43 45 52
f 43 52 51
f 44 52 45
f 46 53 54
f 46 54 55
f 46 55 47
f 47 55 56
f 51 52 58
f 51 58 57
f 53 59 56
f 53 56 54
f 54 56 55
f 56 59 60
f 57 58 61
f 58 62 61
f 59 63 64
f 59 64 60
f 60 64 65
f 60 65 62
f 61 62 65
f 61 65 63
f 63 65 64
