# https://github.com/mikedh/trimesh
v -0.07982922 -0.07593829 0.02437568
v -0.07246562 -0.08029293 0.02437568
v -0.07982922 -0.07618791 0.01632395
v -0.07982922 -0.08128579 0.02437568
v -0.07237513 -0.08036574 0.02437568
v -0.07237513 -0.08084256 0.01632395
v -0.07982922 -0.08076976 0.01632395
v -0.07982922 -0.08127458 0.02366634
v -0.07927026 -0.08167461 0.02437568
v -0.07237513 -0.08411154 0.02437568
v -0.07237513 -0.08380353 0.01632395
v -0.07922939 -0.08131059 0.01632395
v -0.07982922 -0.08092337 0.01670069
v -0.07982922 -0.08126659 0.02324232
v -0.07899077 -0.08184742 0.02324232
v -0.07899077 -0.08186742 0.02437568
v -0.07280859 -0.08403314 0.02437568
v -0.07389587 -0.08380992 0.02324232
v -0.07237513 -0.08408514 0.02331404
v -0.07237513 -0.08380992 0.01644848
v -0.07389587 -0.08351151 0.01632395
v -0.07915642 -0.08136019 0.01632395
v -0.07899077 -0.08158820 0.01814694
v -0.07982922 -0.08102497 0.01835028
v -0.07982922 -0.08121699 0.02191902
v -0.07899077 -0.08178181 0.02154386
v -0.07797354 -0.08247145 0.02324232
v -0.07799617 -0.08248185 0.02437568
v -0.07833476 -0.08227384 0.02437568
v -0.07982922 -0.08120258 0.02154386
v -0.07389587 -0.08382833 0.02437568
v -0.07446140 -0.08368352 0.02437568
v -0.07559466 -0.08339310 0.02437568
v -0.07559466 -0.08337390 0.02324232
v -0.07389587 -0.08375632 0.02154386
v -0.07237513 -0.08403394 0.02154386
v -0.07237513 -0.08388833 0.01814694
v -0.07389587 -0.08368272 0.01984540
v -0.07389587 -0.08360192 0.01814694
v -0.07389587 -0.08351791 0.01644848
v -0.07559466 -0.08315389 0.01814694
v -0.07559466 -0.08305788 0.01632395
v -0.07769917 -0.08223704 0.01632395
v -0.07770865 -0.08235144 0.01814694
v -0.07781227 -0.08239864 0.01984540
v -0.07899077 -0.08168981 0.01984540
v -0.07982922 -0.08111218 0.01984540
v -0.07982922 -0.08112898 0.02014490
v -0.07790568 -0.08244105 0.02154386
v -0.07705629 -0.08281547 0.02154386
v -0.07712488 -0.08284507 0.02324232
v -0.07714677 -0.08285467 0.02437568
v -0.07610327 -0.08321709 0.02437568
v -0.07559466 -0.08331710 0.02154386
v -0.07237513 -0.08396193 0.01984540
v -0.07559466 -0.08324029 0.01984540
v -0.07674250 -0.08267946 0.01632395
v -0.07567054 -0.08303308 0.01632395
v -0.07759190 -0.08229864 0.01632395
v -0.07759992 -0.08230264 0.01644848
v -0.07685926 -0.08272987 0.01814694
v -0.07696288 -0.08277547 0.01984540
v -0.07752987 -0.08232664 0.01632395
f 1 2 3
f 1 3 7
f 1 7 13
f 1 13 24
f 1 24 47
f 1 47 48
f 1 48 30
f 1 30 25
f 1 25 14
f 1 14 8
f 1 8 4
f 1 4 9
f 1 9 16
f 1 16 29
f 1 29 28
f 1 28 52
f 1 52 53
f 1 53 33
f 1 33 32
f 1 32 31
f 1 31 17
f 1 17 10
f 1 10 5
f 1 5 2
f 2 5 6
f 2 6 3
f 3 6 11
f 3 11 21
f 3 21 42
f 3 42 58
f 3 58 57
f 3 57 63
f 3 63 59
f 3 59 43
f 3 43 22
f 3 22 12
f 3 12 7
f 4 8 9
f 5 10 19
f 5 19 36
f 5 36 55
f 5 55 37
f 5 37 20
f 5 20 11
f 5 11 6
f 7 12 13
f 8 14 15
f 8 15 9
f 9 15 16
f 10 17 18
f 10 18 19
f 11 20 40
f 11 40 21
f 12 22 23
f 12 23 13
f 13 23 24
f 14 25 15
f 15 26 27
f 15 27 28
f 15 28 29
f 15 29 16
f 15 25 30
f 15 30 26
f 17 31 18
f 18 32 33
f 18 33 34
f 18 34 35
f 18 35 36
f 18 36 19
f 18 31 32
f 20 37 38
f 20 38 39
f 20 39 40
f 21 40 41
f 21 41 42
f 22 43 23
f 23 43 44
f 23 44 45
f 23 45 46
f 23 46 24
f 24 46 47
f 26 30 48
f 26 48 46
f 26 46 49
f 26 49 27
f 27 49 50
f 27 50 51
f 27 51 28
f 28 51 52
f 33 53 51
f 33 51 34
f 34 51 50
f 34 50 54
f 34 54 35
f 35 54 38
f 35 38 37
f 35 37 55
f 35 55 36
f 38 54 56
f 38 56 39
f 39 56 40
f 40 56 41
f 41 56 57
f 41 57 58
f 41 58 42
f 43 59 60
f 43 60 44
f 44 60 57
f 44 57 61
f 44 61 45
f 45 49 46
f 45 61 62
f 45 62 49
f 46 48 47
f 49 62 50
f 50 62 54
f 51 53 52
f 54 62 56
f 56 62 61
f 56 61 57
f 57 60 63
f 59 63 60
