# https://github.com/mikedh/trimesh
v 0.00000840 0.06990045 0.02838340
v 0.00000840 0.06019164 0.02838340
v 0.00000840 0.06990045 0.02495525
v -0.01953837 0.06990045 0.02838340
v 0.00000840 0.06019164 0.02495525
v -0.00765002 0.06019164 0.02838340
v -0.01995789 0.06990045 0.02495525
v -0.02123670 0.06990045 0.02837904
v -0.01953837 0.06947845 0.02838340
v -0.00855271 0.06019164 0.02495525
v -0.00934836 0.06098621 0.02838340
v -0.00934836 0.06019164 0.02838072
v -0.01953837 0.06947845 0.02495525
v -0.02165912 0.06990045 0.02495995
v -0.02123670 0.06947845 0.02837770
v -0.02293504 0.06990045 0.02833743
v -0.01784003 0.06778001 0.02838240
v -0.00934836 0.06019164 0.02495827
v -0.01104669 0.06098621 0.02836964
v -0.01104669 0.06019164 0.02829212
v -0.02123670 0.06947845 0.02496129
v -0.02335745 0.06990045 0.02500157
v -0.01025105 0.06019164 0.02496566
v -0.02293504 0.06947845 0.02832232
v -0.02463337 0.06990045 0.02819513
v -0.02798086 0.06990045 0.02783537
v -0.01268716 0.06019164 0.02790148
v -0.02505579 0.06990045 0.02514420
v -0.01104669 0.06019164 0.02504486
v -0.02954900 0.06990045 0.02663996
v -0.01357539 0.06019164 0.02663996
v -0.02789985 0.06990045 0.02547308
v -0.01212587 0.06019164 0.02523884
v -0.02906004 0.06990045 0.02601105
v -0.01267269 0.06019164 0.02541033
v -0.01356671 0.06019164 0.02662385
f 1 2 5
f 1 5 3
f 1 3 7
f 1 7 14
f 1 14 22
f 1 22 28
f 1 28 32
f 1 32 34
f 1 34 30
f 1 30 26
f 1 26 25
f 1 25 16
f 1 16 8
f 1 8 4
f 1 4 9
f 1 9 11
f 1 11 6
f 1 6 2
f 2 6 12
f 2 12 20
f 2 20 27
f 2 27 31
f 2 31 36
f 2 36 35
f 2 35 33
f 2 33 29
f 2 29 23
f 2 23 18
f 2 18 10
f 2 10 5
f 3 5 10
f 3 10 13
f 3 13 7
f 4 8 9
f 6 11 12
f 7 13 14
f 8 15 9
f 8 16 15
f 9 15 17
f 9 17 12
f 9 12 11
f 10 18 14
f 10 14 13
f 12 17 15
f 12 15 19
f 12 19 20
f 14 21 22
f 14 18 23
f 14 23 21
f 15 16 24
f 15 24 19
f 16 25 24
f 19 24 20
f 20 24 26
f 20 26 27
f 21 23 22
f 22 23 28
f 23 29 28
f 24 25 26
f 26 30 27
f 27 30 31
f 28 29 32
f 29 33 32
f 30 34 35
f 30 35 36
f 30 36 31
f 32 33 35
f 32 35 34
