# https://github.com/mikedh/trimesh
v 0.08425813 -0.07158520 0.01764232
v 0.08074243 -0.07442210 0.02325008
v 0.08386269 -0.07442432 0.02325008
v 0.08405871 -0.07270279 0.01764232
v 0.08421655 -0.07158520 0.01650101
v 0.08130166 -0.07158520 0.01764232
v 0.08071868 -0.07442210 0.02325008
v 0.08374982 -0.07490984 0.02325008
v 0.08385250 -0.07442210 0.02275990
v 0.08396706 -0.07320607 0.01764232
v 0.08392124 -0.07320607 0.01644614
v 0.08415375 -0.07158520 0.01482747
v 0.08062533 -0.07158520 0.00456487
v 0.07558982 -0.07914631 0.00456487
v 0.07806345 -0.07875182 0.02325008
v 0.08338493 -0.07614510 0.02325008
v 0.08338493 -0.07614510 0.02324093
v 0.08336457 -0.07609182 0.02154361
v 0.08371164 -0.07490392 0.02154361
v 0.08382365 -0.07442210 0.02154361
v 0.08380753 -0.07442210 0.02106075
v 0.08376510 -0.07442210 0.01984445
v 0.08374728 -0.07442210 0.01936159
v 0.08385250 -0.07320607 0.01474699
v 0.08374982 -0.07158520 0.00463803
v 0.08388644 -0.07158520 0.00803451
v 0.08395434 -0.07158520 0.00973366
v 0.08401883 -0.07158520 0.01135234
v 0.08408841 -0.07158520 0.01313014
v 0.08367939 -0.07442210 0.01764232
v 0.08113533 -0.07158520 0.00456487
v 0.07722675 -0.07914631 0.01764232
v 0.08064824 -0.07914631 0.00456487
v 0.07806769 -0.07875404 0.02324093
v 0.07808551 -0.07875404 0.02325008
v 0.08303192 -0.07699032 0.02325008
v 0.08303022 -0.07699402 0.02324093
v 0.08300562 -0.07694074 0.02154361
v 0.08333402 -0.07601484 0.01984445
v 0.08330007 -0.07592973 0.01814530
v 0.08365139 -0.07490392 0.01984445
v 0.08358435 -0.07490392 0.01814530
v 0.08378292 -0.07320607 0.01305149
v 0.08339342 -0.07331931 0.00456487
v 0.08374558 -0.07158890 0.00456487
v 0.08371164 -0.07320607 0.01135234
v 0.08363951 -0.07320607 0.00965502
v 0.08349355 -0.07320607 0.00625854
v 0.08157660 -0.07914631 0.01764232
v 0.08110988 -0.07860231 0.00456487
v 0.08150107 -0.07911152 0.01600718
v 0.08152568 -0.07914631 0.01677537
v 0.08207981 -0.07875404 0.02325008
v 0.08302768 -0.07699995 0.02325008
v 0.08229789 -0.07830035 0.02154361
v 0.08296913 -0.07686377 0.01984445
v 0.08235560 -0.07830035 0.02324093
v 0.08328904 -0.07590234 0.01764232
v 0.08326189 -0.07583722 0.01644614
v 0.08323728 -0.07577800 0.01537068
v 0.08351052 -0.07490466 0.01644614
v 0.08338408 -0.07335632 0.00456487
v 0.08154689 -0.07914631 0.01712654
v 0.08172085 -0.07774895 0.00456487
v 0.08193894 -0.07875404 0.01984445
v 0.08202211 -0.07875404 0.02154361
v 0.08204671 -0.07875404 0.02225875
v 0.08207981 -0.07875404 0.02324093
v 0.08235220 -0.07830553 0.02325008
v 0.08221473 -0.07830035 0.01984445
v 0.08292839 -0.07677791 0.01814530
v 0.08288427 -0.07668687 0.01644614
v 0.08290718 -0.07644707 0.01478174
v 0.08274764 -0.07660176 0.01305149
v 0.08265854 -0.07660176 0.01135234
v 0.08229535 -0.07660694 0.00456487
v 0.08320843 -0.07568845 0.01423852
v 0.08323219 -0.07407646 0.00526721
v 0.08321352 -0.07401873 0.00456487
v 0.08298779 -0.07475441 0.00456487
v 0.08299798 -0.07500235 0.00625854
f 1 2 3
f 1 3 4
f 1 4 5
f 1 5 12
f 1 12 29
f 1 29 28
f 1 28 27
f 1 27 26
f 1 26 25
f 1 25 31
f 1 31 13
f 1 13 6
f 1 6 7
f 1 7 2
f 2 7 15
f 2 15 35
f 2 35 53
f 2 53 69
f 2 69 54
f 2 54 36
f 2 36 16
f 2 16 8
f 2 8 3
f 3 8 9
f 3 9 10
f 3 10 4
f 4 10 11
f 4 11 12
f 4 12 5
f 6 13 14
f 6 14 15
f 6 15 7
f 8 16 17
f 8 17 18
f 8 18 19
f 8 19 9
f 9 19 20
f 9 20 10
f 10 20 21
f 10 21 22
f 10 22 23
f 10 23 11
f 11 24 25
f 11 25 26
f 11 26 27
f 11 27 28
f 11 28 29
f 11 29 12
f 11 23 30
f 11 30 24
f 13 31 45
f 13 45 44
f 13 44 62
f 13 62 79
f 13 79 80
f 13 80 76
f 13 76 64
f 13 64 50
f 13 50 33
f 13 33 14
f 14 32 15
f 14 33 52
f 14 52 63
f 14 63 49
f 14 49 32
f 15 34 35
f 15 32 34
f 16 36 17
f 17 37 18
f 17 36 37
f 18 38 39
f 18 39 19
f 18 37 38
f 19 39 40
f 19 40 41
f 19 41 22
f 19 22 21
f 19 21 20
f 22 41 23
f 23 41 42
f 23 42 30
f 24 43 25
f 24 30 43
f 25 44 45
f 25 45 31
f 25 43 46
f 25 46 47
f 25 47 48
f 25 48 44
f 30 42 43
f 32 49 53
f 32 53 35
f 32 35 34
f 33 50 51
f 33 51 52
f 36 54 37
f 37 54 38
f 38 55 56
f 38 56 39
f 38 54 57
f 38 57 55
f 39 56 40
f 40 56 58
f 40 58 41
f 41 58 59
f 41 59 60
f 41 60 42
f 42 60 61
f 42 61 44
f 42 44 47
f 42 47 46
f 42 46 43
f 44 48 47
f 44 61 62
f 49 63 64
f 49 64 65
f 49 65 66
f 49 66 67
f 49 67 68
f 49 68 53
f 50 64 51
f 51 64 52
f 52 64 63
f 53 68 57
f 53 57 69
f 54 69 57
f 55 66 65
f 55 65 70
f 55 70 56
f 55 57 67
f 55 67 66
f 56 70 71
f 56 71 58
f 57 68 67
f 58 71 59
f 59 71 60
f 60 72 73
f 60 73 74
f 60 74 75
f 60 75 76
f 60 76 77
f 60 77 78
f 60 78 61
f 60 71 72
f 61 78 62
f 62 78 79
f 64 76 75
f 64 75 71
f 64 71 70
f 64 70 65
f 71 75 72
f 72 75 74
f 72 74 73
f 76 80 81
f 76 81 77
f 77 81 80
f 77 80 79
f 77 79 78
