# https://github.com/mikedh/trimesh
v 0.05758189 0.08136950 -0.00073547
v 0.05758189 0.08235929 -0.00048400
v 0.05758189 0.08083061 -0.00048400
v 0.04840534 0.08136950 -0.00065720
v 0.04500913 0.08304269 -0.00031080
v 0.04670820 0.08304704 -0.00031080
v 0.04840534 0.08304758 -0.00031080
v 0.05180155 0.08304758 -0.00031080
v 0.05758189 0.08301933 -0.00030914
v 0.05350063 0.08304432 -0.00031080
v 0.05519970 0.08303617 -0.00031080
v 0.05758189 0.08003475 -0.00011262
v 0.04670820 0.08136950 -0.00064221
v 0.04500913 0.08386788 0.00116140
v 0.04670820 0.08387602 0.00116140
v 0.04500913 0.08136950 -0.00061723
v 0.04331006 0.08274934 -0.00008764
v 0.04840534 0.08387657 0.00116140
v 0.05180155 0.08387657 0.00116140
v 0.05758189 0.08350390 0.00057019
v 0.05689684 0.08302585 -0.00030914
v 0.05519970 0.08385592 0.00116140
v 0.05350063 0.08387114 0.00116140
v 0.05758189 0.07895533 0.00061349
v 0.05180155 0.07895533 0.00061849
v 0.05010248 0.07895533 0.00062015
v 0.04670820 0.07895533 0.00062348
v 0.04500913 0.07895533 0.00062848
v 0.04670820 0.08009234 -0.00002102
v 0.04500913 0.08450347 0.01627814
v 0.04331006 0.08340449 0.00116140
v 0.04346487 0.08366470 0.00294670
v 0.04413443 0.08392329 0.00356956
v 0.04331006 0.08433344 0.01305062
v 0.04331006 0.08441655 0.01474932
v 0.04331006 0.08448771 0.01627814
v 0.04348035 0.08448989 0.01627814
v 0.04670820 0.08450456 0.01627814
v 0.04500913 0.08011732 0.00000562
v 0.03781419 0.07895533 0.00079835
v 0.03781419 0.07912482 0.00079668
v 0.03781419 0.07967132 0.00079169
v 0.03781419 0.08128475 0.00140288
v 0.03781419 0.08209853 0.00286010
v 0.05180155 0.08450456 0.01627814
v 0.05197185 0.08450401 0.01627814
v 0.05758189 0.08382442 0.00116140
v 0.05689684 0.08383637 0.00116140
v 0.05519970 0.08448337 0.01627814
v 0.05689684 0.08446707 0.01627814
v 0.05350063 0.08449804 0.01627814
v 0.05758189 0.07895533 0.00313989
v 0.04325587 0.07895533 0.00066012
v 0.04258243 0.08389504 0.00729004
v 0.04241407 0.08395099 0.00842084
v 0.04331006 0.08424489 0.01135192
v 0.04233667 0.08400206 0.00965322
v 0.04223217 0.08406181 0.01135192
v 0.04195350 0.08422153 0.01627814
v 0.03781419 0.07895533 0.00245374
v 0.03781419 0.08218382 0.00433230
v 0.05758189 0.08445567 0.01627814
v 0.05706713 0.08446436 0.01627814
v 0.05758189 0.08153302 0.01627814
v 0.04161098 0.07992448 0.01627814
v 0.03991384 0.07980876 0.01627814
v 0.03821477 0.07979627 0.01627814
v 0.03804448 0.07979573 0.01627814
v 0.03991384 0.07895533 0.00352792
v 0.04182192 0.08419545 0.01627814
v 0.03819929 0.07895533 0.00355290
v 0.03781419 0.07896293 0.00355457
v 0.03781419 0.08222837 0.00518165
v 0.03781419 0.07979573 0.01627814
v 0.03821477 0.07895533 0.00355290
v 0.03781419 0.08266676 0.01474932
v 0.03781419 0.08273630 0.01627814
f 1 2 9
f 1 9 20
f 1 20 47
f 1 47 62
f 1 62 64
f 1 64 52
f 1 52 24
f 1 24 12
f 1 12 3
f 1 3 4
f 1 4 5
f 1 5 6
f 1 6 7
f 1 7 8
f 1 8 2
f 2 8 10
f 2 10 11
f 2 11 9
f 3 12 4
f 4 12 13
f 4 13 5
f 5 14 15
f 5 15 6
f 5 13 16
f 5 16 17
f 5 17 14
f 6 15 18
f 6 18 7
f 7 18 19
f 7 19 8
f 8 19 10
f 9 11 21
f 9 21 22
f 9 22 20
f 10 19 23
f 10 23 11
f 11 23 21
f 12 24 25
f 12 25 26
f 12 26 27
f 12 27 28
f 12 28 29
f 12 29 13
f 13 29 16
f 14 30 15
f 14 17 31
f 14 31 32
f 14 32 33
f 14 33 34
f 14 34 35
f 14 35 36
f 14 36 37
f 14 37 30
f 15 30 38
f 15 38 18
f 16 29 39
f 16 39 40
f 16 40 41
f 16 41 42
f 16 42 17
f 17 42 43
f 17 43 44
f 17 44 31
f 18 38 45
f 18 45 19
f 19 45 46
f 19 46 23
f 20 22 48
f 20 48 47
f 21 23 22
f 22 49 50
f 22 50 48
f 22 23 49
f 23 46 51
f 23 51 49
f 24 52 69
f 24 69 75
f 24 75 71
f 24 71 60
f 24 60 40
f 24 40 53
f 24 53 28
f 24 28 27
f 24 27 26
f 24 26 25
f 28 53 29
f 29 53 39
f 30 37 36
f 30 36 59
f 30 59 70
f 30 70 77
f 30 77 74
f 30 74 68
f 30 68 67
f 30 67 66
f 30 66 65
f 30 65 64
f 30 64 62
f 30 62 63
f 30 63 50
f 30 50 49
f 30 49 51
f 30 51 46
f 30 46 45
f 30 45 38
f 31 44 32
f 32 44 33
f 33 44 54
f 33 54 55
f 33 55 56
f 33 56 34
f 34 56 55
f 34 55 57
f 34 57 35
f 35 57 36
f 36 57 58
f 36 58 59
f 39 53 40
f 40 60 72
f 40 72 74
f 40 74 77
f 40 77 76
f 40 76 73
f 40 73 61
f 40 61 44
f 40 44 43
f 40 43 42
f 40 42 41
f 44 61 57
f 44 57 55
f 44 55 54
f 47 48 62
f 48 50 63
f 48 63 62
f 52 64 65
f 52 65 66
f 52 66 67
f 52 67 68
f 52 68 69
f 57 61 58
f 58 61 70
f 58 70 59
f 60 71 72
f 61 73 70
f 68 74 71
f 68 71 75
f 68 75 69
f 70 73 76
f 70 76 77
f 71 74 72
