# https://github.com/mikedh/trimesh
v 0.08407647 -0.00043021 0.03146283
v 0.08494372 -0.00043021 0.03092084
v 0.08387633 -0.00043021 0.03145780
v 0.08278045 -0.05674347 0.03143766
v 0.08407647 -0.05112097 0.03146283
v 0.08512442 -0.00043021 0.03003653
v 0.08494372 -0.05112097 0.03092084
v 0.08279729 -0.00043021 0.03142843
v 0.07868062 -0.05674347 0.02838370
v 0.08419629 -0.05674347 0.03136047
v 0.08407647 -0.05451652 0.03145360
v 0.08407647 -0.05281874 0.03146115
v 0.07868062 -0.00043021 0.02838370
v 0.08528957 -0.00043021 0.02833756
v 0.08512442 -0.05112097 0.03003653
v 0.08494242 -0.05281874 0.03091832
v 0.07868062 -0.05674347 0.02495555
v 0.08492428 -0.05674347 0.03088225
v 0.08493011 -0.05581190 0.03089483
v 0.08493659 -0.05451652 0.03090742
v 0.07868062 -0.00043021 0.02452179
v 0.08529346 -0.00043021 0.02664026
v 0.08528957 -0.05112097 0.02833756
v 0.08512183 -0.05281874 0.03003653
v 0.08231024 -0.05674347 0.02289245
v 0.07868062 -0.03923102 0.02454696
v 0.07949994 -0.03582995 0.02289245
v 0.07950447 -0.03618274 0.02289245
v 0.07952390 -0.03753324 0.02289245
v 0.07954074 -0.03789154 0.02289245
v 0.07968194 -0.03929716 0.02289245
v 0.08496768 -0.05674347 0.03066243
v 0.08511082 -0.05451652 0.03003653
v 0.07958025 -0.00043021 0.02289245
v 0.07957960 -0.00051840 0.02289245
v 0.07949734 -0.03413217 0.02289245
v 0.07868062 -0.03413769 0.02450669
v 0.08522481 -0.00043021 0.02494129
v 0.08529346 -0.05112097 0.02664026
v 0.08529735 -0.04772541 0.02494129
v 0.08529022 -0.04602212 0.02324316
v 0.08528181 -0.04432435 0.02289245
v 0.08528633 -0.05281874 0.02833756
v 0.08524942 -0.05674347 0.02289245
v 0.07868062 -0.03753324 0.02451424
v 0.08506677 -0.05674347 0.03014812
v 0.08506094 -0.05631352 0.03020266
v 0.08520473 -0.05674347 0.02885103
v 0.08525979 -0.05621430 0.02833756
v 0.08527533 -0.05451652 0.02833756
v 0.08333099 -0.00043021 0.02289245
v 0.07868062 -0.03583546 0.02450921
v 0.08506872 -0.00043021 0.02410649
v 0.08526885 -0.04262657 0.02289245
v 0.08529022 -0.05281874 0.02664026
v 0.08529411 -0.05281874 0.02494129
v 0.08529670 -0.05112097 0.02494129
v 0.08529022 -0.05112097 0.02324316
v 0.08528440 -0.04737263 0.02289245
v 0.08528375 -0.04602212 0.02289245
v 0.08528375 -0.05451652 0.02494129
v 0.08525590 -0.05674347 0.02324316
v 0.08525590 -0.05621430 0.02289245
v 0.08525331 -0.05674347 0.02833756
v 0.08526044 -0.05674347 0.02546650
v 0.08526173 -0.05674347 0.02494129
v 0.08526755 -0.05621430 0.02494129
v 0.08503957 -0.00043021 0.02395211
v 0.08528828 -0.05281874 0.02324316
v 0.08528440 -0.05112097 0.02289245
v 0.08527792 -0.05451652 0.02324316
v 0.08526173 -0.05621430 0.02324316
v 0.08527209 -0.05451652 0.02289245
v 0.08528246 -0.05281874 0.02289245
f 1 2 6
f 1 6 14
f 1 14 22
f 1 22 38
f 1 38 53
f 1 53 68
f 1 68 51
f 1 51 34
f 1 34 21
f 1 21 13
f 1 13 8
f 1 8 3
f 1 3 4
f 1 4 5
f 1 5 7
f 1 7 2
f 2 7 15
f 2 15 6
f 3 8 4
f 4 9 17
f 4 17 25
f 4 25 44
f 4 44 62
f 4 62 66
f 4 66 65
f 4 65 64
f 4 64 48
f 4 48 46
f 4 46 32
f 4 32 18
f 4 18 10
f 4 10 11
f 4 11 12
f 4 12 5
f 4 8 13
f 4 13 9
f 5 12 7
f 6 15 23
f 6 23 14
f 7 12 16
f 7 16 15
f 9 13 21
f 9 21 37
f 9 37 52
f 9 52 45
f 9 45 26
f 9 26 17
f 10 18 19
f 10 19 20
f 10 20 16
f 10 16 11
f 11 16 12
f 14 23 39
f 14 39 22
f 15 16 24
f 15 24 23
f 16 20 24
f 17 26 27
f 17 27 28
f 17 28 29
f 17 29 30
f 17 30 31
f 17 31 25
f 18 32 19
f 19 33 20
f 19 32 33
f 20 33 24
f 21 34 35
f 21 35 36
f 21 36 37
f 22 39 40
f 22 40 41
f 22 41 42
f 22 42 38
f 23 24 43
f 23 43 55
f 23 55 39
f 24 33 50
f 24 50 43
f 25 31 30
f 25 30 29
f 25 29 28
f 25 28 27
f 25 27 36
f 25 36 35
f 25 35 34
f 25 34 51
f 25 51 54
f 25 54 42
f 25 42 60
f 25 60 59
f 25 59 70
f 25 70 74
f 25 74 73
f 25 73 63
f 25 63 44
f 26 45 27
f 27 45 36
f 32 46 47
f 32 47 33
f 33 47 46
f 33 46 48
f 33 48 49
f 33 49 50
f 36 45 52
f 36 52 37
f 38 42 54
f 38 54 53
f 39 55 56
f 39 56 57
f 39 57 40
f 40 57 58
f 40 58 41
f 41 58 70
f 41 70 59
f 41 59 60
f 41 60 42
f 43 50 61
f 43 61 55
f 44 63 62
f 48 64 49
f 49 61 50
f 49 64 65
f 49 65 66
f 49 66 67
f 49 67 61
f 51 68 54
f 53 54 68
f 55 61 56
f 56 69 57
f 56 61 71
f 56 71 69
f 57 69 58
f 58 69 74
f 58 74 70
f 61 67 72
f 61 72 71
f 62 63 72
f 62 72 67
f 62 67 66
f 63 73 71
f 63 71 72
f 69 71 73
f 69 73 74
