# https://github.com/mikedh/trimesh
v -0.08263407 -0.06640639 0.03150166
v -0.08390925 -0.06640639 0.03150166
v -0.08336549 -0.07102963 0.03142125
v -0.08255868 -0.06980645 0.03142207
v -0.08233653 -0.07102963 0.03137940
v -0.08280810 -0.00043021 0.03142863
v -0.08300780 -0.00043021 0.03143438
v -0.08408649 -0.00043021 0.03146310
v -0.08408649 -0.05111998 0.03146310
v -0.08408649 -0.05282001 0.03146145
v -0.08408649 -0.05452003 0.03145325
v -0.08394855 -0.06470637 0.03148607
v -0.08495265 -0.05282001 0.03091825
v -0.08494703 -0.05452003 0.03090759
v -0.08494062 -0.05581233 0.03089446
v -0.08493420 -0.05694568 0.03087969
v -0.08492297 -0.05791318 0.03084769
v -0.08489490 -0.05961320 0.03075825
v -0.08369511 -0.07102963 0.03142125
v -0.07711553 -0.07102963 0.02838359
v -0.07711553 -0.00043021 0.02838359
v -0.08422283 -0.00043021 0.03137858
v -0.08495425 -0.05111998 0.03092072
v -0.08513229 -0.05282001 0.03003617
v -0.08513470 -0.05111998 0.03003617
v -0.08512187 -0.05452003 0.03003617
v -0.08507134 -0.05630990 0.03020274
v -0.08509299 -0.05791318 0.02999842
v -0.08507535 -0.05961320 0.02990898
v -0.08505129 -0.06131323 0.02978754
v -0.08502723 -0.06301325 0.02966364
v -0.08483315 -0.06301325 0.03051290
v -0.08460859 -0.06810642 0.03003617
v -0.08433110 -0.07102963 0.03003617
v -0.08479786 -0.06470637 0.03031597
v -0.07711553 -0.07102963 0.02495535
v -0.07711553 -0.00043021 0.02494468
v -0.08495425 -0.00043021 0.03092072
v -0.08529670 -0.05282001 0.02833764
v -0.08529991 -0.05111998 0.02833764
v -0.08513470 -0.00043021 0.03003617
v -0.08516116 -0.00043021 0.02977113
v -0.08528627 -0.05452003 0.02833764
v -0.08527023 -0.05621315 0.02833764
v -0.08525099 -0.05791318 0.02833764
v -0.08512106 -0.06301325 0.02833764
v -0.08498954 -0.06470637 0.02946671
v -0.08521570 -0.05961320 0.02833764
v -0.08478101 -0.06642021 0.02992457
v -0.08495425 -0.06586045 0.02928373
v -0.08466473 -0.06980645 0.02833764
v -0.08451154 -0.07102963 0.02833764
v -0.08139980 -0.07102963 0.02311978
v -0.07950709 -0.03753360 0.02311978
v -0.07948303 -0.03583358 0.02311978
v -0.07947982 -0.03414046 0.02311978
v -0.07711553 -0.03601325 0.02494304
v -0.07956082 -0.00043021 0.02311978
v -0.07711553 -0.03074041 0.02494304
v -0.08530071 -0.05282001 0.02663993
v -0.08530392 -0.05111998 0.02663993
v -0.08529991 -0.00043021 0.02833764
v -0.08530071 -0.00043021 0.02807178
v -0.08529429 -0.05452003 0.02494140
v -0.08527825 -0.05621315 0.02494140
v -0.08525901 -0.05791318 0.02494140
v -0.08517640 -0.06131323 0.02494140
v -0.08512828 -0.06301325 0.02494140
v -0.08504888 -0.06470637 0.02663993
v -0.08504487 -0.06470637 0.02833764
v -0.08522372 -0.05961320 0.02494140
v -0.08496467 -0.06602630 0.02833764
v -0.08490853 -0.06687632 0.02833764
v -0.08482513 -0.06810642 0.02833764
v -0.08466954 -0.06980645 0.02663993
v -0.08483395 -0.06810642 0.02663993
v -0.08451395 -0.07102963 0.02663993
v -0.08450272 -0.07102963 0.02311978
v -0.08369431 -0.00043021 0.02311978
v -0.08530472 -0.05282001 0.02494140
v -0.08530713 -0.05111998 0.02494140
v -0.08530392 -0.00043021 0.02663993
v -0.08528868 -0.05452003 0.02324287
v -0.08527183 -0.05621315 0.02324287
v -0.08525259 -0.05791318 0.02324287
v -0.08516998 -0.06131323 0.02324287
v -0.08512106 -0.06301325 0.02324287
v -0.08505209 -0.06470637 0.02494140
v -0.08496627 -0.06605395 0.02663993
v -0.08521730 -0.05961320 0.02324287
v -0.08491335 -0.06690396 0.02663993
v -0.08466874 -0.06980645 0.02494140
v -0.08451556 -0.07102963 0.02541813
v -0.08496788 -0.06607468 0.02494140
v -0.08491174 -0.06692469 0.02494140
v -0.08483074 -0.06810642 0.02494140
v -0.08450513 -0.07102963 0.02324287
v -0.08463906 -0.06993084 0.02311978
v -0.08505049 -0.00043021 0.02395182
v -0.08528387 -0.04262677 0.02311978
v -0.08529911 -0.05282001 0.02324287
v -0.08530713 -0.04602682 0.02494140
v -0.08530071 -0.05111998 0.02324287
v -0.08529349 -0.00043021 0.02637407
v -0.08529670 -0.04445119 0.02311978
v -0.08530071 -0.04602682 0.02324287
v -0.08528627 -0.05452003 0.02311978
v -0.08528547 -0.05463752 0.02311978
v -0.08527023 -0.05621315 0.02311978
v -0.08525099 -0.05791318 0.02311978
v -0.08521570 -0.05961320 0.02311978
v -0.08516758 -0.06131323 0.02311978
v -0.08511866 -0.06301325 0.02311978
v -0.08504247 -0.06470637 0.02311978
v -0.08504407 -0.06470637 0.02324287
v -0.08496387 -0.06601940 0.02324287
v -0.08465670 -0.06980645 0.02324287
v -0.08450834 -0.07102963 0.02371960
v -0.08451475 -0.07102963 0.02494140
v -0.08490452 -0.06686250 0.02324287
v -0.08481630 -0.06810642 0.02324287
v -0.08465430 -0.06980645 0.02311978
v -0.08520607 -0.00043021 0.02478631
v -0.08529590 -0.04432679 0.02311978
v -0.08523495 -0.00043021 0.02494140
v -0.08529830 -0.05124438 0.02311978
v -0.08529670 -0.05282001 0.02311978
v -0.08529830 -0.04602682 0.02311978
v -0.08496306 -0.06599866 0.02311978
v -0.08490372 -0.06684867 0.02311978
v -0.08480267 -0.06823081 0.02311978
v -0.08481390 -0.06810642 0.02311978
f 1 2 19
f 1 19 3
f 1 3 4
f 1 4 5
f 1 5 6
f 1 6 7
f 1 7 8
f 1 8 2
f 2 9 10
f 2 10 11
f 2 11 12
f 2 12 13
f 2 13 14
f 2 14 15
f 2 15 16
f 2 16 17
f 2 17 18
f 2 18 19
f 2 8 9
f 3 19 34
f 3 34 52
f 3 52 77
f 3 77 93
f 3 93 119
f 3 119 118
f 3 118 97
f 3 97 78
f 3 78 53
f 3 53 36
f 3 36 20
f 3 20 5
f 3 5 4
f 5 20 21
f 5 21 6
f 6 21 37
f 6 37 58
f 6 58 79
f 6 79 99
f 6 99 123
f 6 123 125
f 6 125 104
f 6 104 82
f 6 82 63
f 6 63 62
f 6 62 42
f 6 42 41
f 6 41 38
f 6 38 22
f 6 22 8
f 6 8 7
f 8 22 9
f 9 23 10
f 9 22 23
f 10 23 13
f 10 13 11
f 11 13 12
f 13 24 14
f 13 23 25
f 13 25 24
f 14 24 26
f 14 26 15
f 15 26 16
f 16 26 27
f 16 27 28
f 16 28 17
f 17 28 29
f 17 29 18
f 18 29 30
f 18 30 31
f 18 31 32
f 18 32 19
f 19 33 34
f 19 32 35
f 19 35 33
f 20 36 57
f 20 57 59
f 20 59 37
f 20 37 21
f 22 38 23
f 23 38 41
f 23 41 25
f 24 39 43
f 24 43 26
f 24 25 40
f 24 40 39
f 25 41 42
f 25 42 40
f 26 43 44
f 26 44 28
f 26 28 27
f 28 45 29
f 28 44 45
f 29 45 30
f 30 45 31
f 31 46 47
f 31 47 35
f 31 35 32
f 31 45 48
f 31 48 46
f 33 49 50
f 33 50 34
f 33 35 49
f 34 51 52
f 34 50 51
f 35 47 49
f 36 53 54
f 36 54 55
f 36 55 56
f 36 56 57
f 37 59 56
f 37 56 58
f 39 40 61
f 39 61 60
f 39 60 43
f 40 42 62
f 40 62 63
f 40 63 61
f 43 60 64
f 43 64 65
f 43 65 44
f 44 65 66
f 44 66 45
f 45 66 71
f 45 71 48
f 46 67 68
f 46 68 69
f 46 69 70
f 46 70 50
f 46 50 47
f 46 48 71
f 46 71 67
f 47 50 49
f 50 70 72
f 50 72 73
f 50 73 74
f 50 74 51
f 51 75 52
f 51 74 76
f 51 76 75
f 52 75 77
f 53 78 98
f 53 98 122
f 53 122 131
f 53 131 132
f 53 132 130
f 53 130 129
f 53 129 114
f 53 114 113
f 53 113 112
f 53 112 111
f 53 111 110
f 53 110 109
f 53 109 108
f 53 108 107
f 53 107 127
f 53 127 126
f 53 126 128
f 53 128 105
f 53 105 124
f 53 124 100
f 53 100 79
f 53 79 58
f 53 58 56
f 53 56 55
f 53 55 54
f 56 59 57
f 60 80 64
f 60 61 80
f 61 81 80
f 61 63 82
f 61 82 102
f 61 102 81
f 64 83 65
f 64 80 101
f 64 101 83
f 65 84 85
f 65 85 66
f 65 83 84
f 66 85 90
f 66 90 71
f 67 71 90
f 67 90 86
f 67 86 68
f 68 86 87
f 68 87 88
f 68 88 69
f 69 88 89
f 69 89 72
f 69 72 70
f 72 89 91
f 72 91 76
f 72 76 73
f 73 76 74
f 75 92 93
f 75 93 77
f 75 76 92
f 76 91 94
f 76 94 95
f 76 95 96
f 76 96 92
f 78 97 98
f 79 100 99
f 80 81 101
f 81 102 106
f 81 106 103
f 81 103 101
f 82 104 105
f 82 105 106
f 82 106 102
f 83 101 127
f 83 127 107
f 83 107 108
f 83 108 109
f 83 109 84
f 84 109 110
f 84 110 85
f 85 110 111
f 85 111 90
f 86 90 111
f 86 111 112
f 86 112 113
f 86 113 87
f 87 113 114
f 87 114 115
f 87 115 88
f 88 115 116
f 88 116 94
f 88 94 89
f 89 94 91
f 92 117 97
f 92 97 118
f 92 118 119
f 92 119 93
f 92 96 117
f 94 116 95
f 95 116 96
f 96 116 120
f 96 120 121
f 96 121 117
f 97 117 98
f 98 117 122
f 99 100 123
f 100 124 125
f 100 125 123
f 101 103 126
f 101 126 127
f 103 106 128
f 103 128 126
f 104 125 105
f 105 128 106
f 105 125 124
f 114 129 116
f 114 116 115
f 116 129 130
f 116 130 120
f 117 121 131
f 117 131 122
f 120 130 121
f 121 132 131
f 121 130 132
