# https://github.com/mikedh/trimesh
v 0.00000840 0.03380808 0.02495525
v 0.00254302 0.03380808 0.02495525
v 0.00000840 0.03380808 0.02838340
v 0.00000840 0.05462403 0.02495525
v 0.00424147 0.03380808 0.02516131
v 0.00424147 0.05079300 0.02495525
v 0.00593900 0.05462403 0.02495559
v 0.00593900 0.05418998 0.02495592
v 0.00763838 0.05462403 0.02506701
v 0.00254302 0.03380808 0.02838340
v 0.00000840 0.05462403 0.02838340
v 0.00424147 0.05462403 0.02495525
v 0.00529134 0.03380808 0.02557913
v 0.00901861 0.05462403 0.02547677
v 0.00424147 0.03380808 0.02817365
v 0.00763838 0.05462403 0.02826964
v 0.00637387 0.05462403 0.02837803
v 0.00593900 0.05418998 0.02838307
v 0.00593900 0.05462403 0.02838340
v 0.00551065 0.03380808 0.02663996
v 0.00954215 0.05462403 0.02663996
v 0.00531001 0.03380808 0.02772630
v 0.00903728 0.05462403 0.02783201
v 0.00810873 0.05462403 0.02816090
v 0.00929764 0.05462403 0.02735781
f 1 2 5
f 1 5 13
f 1 13 20
f 1 20 22
f 1 22 15
f 1 15 10
f 1 10 3
f 1 3 11
f 1 11 4
f 1 4 12
f 1 12 6
f 1 6 2
f 2 6 7
f 2 7 8
f 2 8 9
f 2 9 5
f 3 10 19
f 3 19 11
f 4 11 19
f 4 19 17
f 4 17 16
f 4 16 24
f 4 24 23
f 4 23 25
f 4 25 21
f 4 21 14
f 4 14 9
f 4 9 7
f 4 7 12
f 5 9 14
f 5 14 13
f 6 12 7
f 7 9 8
f 10 15 16
f 10 16 17
f 10 17 18
f 10 18 19
f 13 14 21
f 13 21 20
f 15 22 23
f 15 23 24
f 15 24 16
f 17 19 18
f 20 21 22
f 21 25 22
f 22 25 23
