# https://github.com/mikedh/trimesh
v 0.07558278 -0.08169761 0.03159699
v 0.06782809 -0.08216584 0.03139396
v 0.06782809 -0.08284662 0.03149220
v 0.06782809 -0.08346223 0.03147419
v 0.07218588 -0.08320756 0.03149466
v 0.07388433 -0.08306720 0.03145618
v 0.07558278 -0.08284863 0.03128753
v 0.07558734 -0.08169761 0.03159617
v 0.07558278 -0.08061377 0.03119502
v 0.06782809 -0.07442157 0.02838373
v 0.06782809 -0.08402570 0.03118274
v 0.06782809 -0.08431547 0.03101164
v 0.07558734 -0.08284863 0.03128671
v 0.06842817 -0.08429341 0.03097317
v 0.06956072 -0.08423325 0.03084627
v 0.07558734 -0.08061077 0.03119175
v 0.07558734 -0.07442157 0.02838373
v 0.06782809 -0.07442157 0.02495598
v 0.06782809 -0.08442475 0.03055237
v 0.07388433 -0.08373595 0.03003661
v 0.07558278 -0.08330181 0.03003661
v 0.07558734 -0.08329981 0.03003661
v 0.06782809 -0.08451800 0.03009556
v 0.06891279 -0.08441773 0.03018233
v 0.07048819 -0.08433351 0.02967967
v 0.07151744 -0.08426834 0.02931701
v 0.07212435 -0.08406280 0.02994492
v 0.07558734 -0.07442157 0.02498381
v 0.07558278 -0.07442157 0.02495598
v 0.07558278 -0.08015958 0.02323432
v 0.06782809 -0.08164949 0.02323432
v 0.07388433 -0.08387531 0.02833788
v 0.07558734 -0.08344018 0.02833788
v 0.06782809 -0.08466438 0.02833788
v 0.06878897 -0.08459219 0.02833788
v 0.07156453 -0.08427436 0.02833788
v 0.07241300 -0.08416206 0.02833788
v 0.07048819 -0.08441071 0.02833788
v 0.07558734 -0.07442357 0.02495598
v 0.07558734 -0.08015758 0.02323842
v 0.07558278 -0.08337400 0.02323432
v 0.06782809 -0.08459620 0.02323432
v 0.07388433 -0.08383822 0.02494124
v 0.07558734 -0.08340107 0.02494124
v 0.06782809 -0.08462327 0.02494124
v 0.06878897 -0.08455108 0.02494124
v 0.07140653 -0.08425430 0.02494124
v 0.07225500 -0.08414402 0.02494124
v 0.07232944 -0.08415404 0.02663997
v 0.07048819 -0.08436961 0.02494124
v 0.07136096 -0.08424829 0.02395557
v 0.07558734 -0.08337200 0.02324251
v 0.07388433 -0.08381014 0.02323432
v 0.06878442 -0.08452501 0.02323432
v 0.07203016 -0.08414602 0.02333093
v 0.07061200 -0.08432850 0.02333093
v 0.07188280 -0.08416306 0.02323432
v 0.07073657 -0.08431045 0.02323432
v 0.07203852 -0.08414201 0.02323432
v 0.07059225 -0.08432850 0.02323432
f 1 2 3
f 1 3 4
f 1 4 5
f 1 5 6
f 1 6 7
f 1 7 13
f 1 13 8
f 1 8 9
f 1 9 2
f 2 9 10
f 2 10 18
f 2 18 31
f 2 31 42
f 2 42 45
f 2 45 34
f 2 34 23
f 2 23 19
f 2 19 12
f 2 12 11
f 2 11 4
f 2 4 3
f 4 11 5
f 5 11 12
f 5 12 6
f 6 13 7
f 6 12 14
f 6 14 15
f 6 15 13
f 8 13 22
f 8 22 33
f 8 33 44
f 8 44 52
f 8 52 40
f 8 40 39
f 8 39 28
f 8 28 17
f 8 17 16
f 8 16 9
f 9 16 17
f 9 17 10
f 10 17 28
f 10 28 29
f 10 29 18
f 12 19 14
f 13 15 20
f 13 20 21
f 13 21 22
f 14 19 23
f 14 23 15
f 15 23 24
f 15 24 25
f 15 25 26
f 15 26 27
f 15 27 20
f 18 29 30
f 18 30 31
f 20 27 26
f 20 26 32
f 20 32 33
f 20 33 21
f 21 33 22
f 23 25 24
f 23 34 35
f 23 35 25
f 25 35 26
f 26 36 37
f 26 37 32
f 26 35 38
f 26 38 36
f 28 39 29
f 29 39 30
f 30 39 40
f 30 40 41
f 30 41 53
f 30 53 59
f 30 59 57
f 30 57 58
f 30 58 60
f 30 60 54
f 30 54 42
f 30 42 31
f 32 43 33
f 32 37 43
f 33 43 44
f 34 45 46
f 34 46 35
f 35 46 50
f 35 50 38
f 36 47 48
f 36 48 49
f 36 49 37
f 36 38 47
f 37 49 43
f 38 50 51
f 38 51 47
f 40 52 41
f 41 52 44
f 41 44 53
f 42 54 45
f 43 49 48
f 43 48 53
f 43 53 44
f 45 54 46
f 46 54 50
f 47 51 48
f 48 51 55
f 48 55 53
f 50 54 56
f 50 56 51
f 51 57 55
f 51 56 58
f 51 58 57
f 53 55 59
f 54 60 56
f 55 57 59
f 56 60 58
