# https://github.com/mikedh/trimesh
v 0.07952327 -0.03752687 0.02289245
v 0.08326428 -0.03752687 0.02289245
v 0.07956669 -0.03752687 0.01764354
v 0.07956669 -0.03753435 0.01764354
v 0.07958248 -0.03803770 0.01764354
v 0.07962309 -0.03923294 0.01764354
v 0.07954075 -0.03789566 0.02289245
v 0.08421053 -0.03914074 0.02289245
v 0.08487369 -0.04019479 0.02253533
v 0.08251879 -0.03752687 0.01764354
v 0.07975110 -0.04043068 0.01764354
v 0.07968230 -0.03930271 0.02289245
v 0.08500959 -0.04055859 0.02289245
v 0.08501185 -0.04156944 0.01764354
v 0.07974884 -0.03958927 0.02289245
v 0.07998963 -0.04127956 0.01764354
v 0.08510546 -0.04089167 0.02289245
v 0.08519456 -0.04262930 0.01984536
v 0.08509361 -0.04233775 0.01764354
v 0.07984527 -0.03991487 0.02256770
v 0.08004828 -0.04038749 0.02289245
v 0.08223119 -0.04601236 0.01764354
v 0.08234002 -0.04601236 0.02289245
v 0.08021294 -0.04079947 0.02289245
v 0.08526899 -0.04262930 0.02289245
v 0.08524249 -0.04262930 0.02154361
v 0.08513816 -0.04262930 0.01814711
v 0.08521316 -0.04432789 0.01984536
v 0.08516129 -0.04432789 0.01814711
v 0.08514493 -0.04432789 0.01764354
v 0.08512012 -0.04262930 0.01764354
v 0.08514888 -0.04601236 0.01764354
v 0.08528422 -0.04601236 0.02289245
v 0.08528196 -0.04432789 0.02289245
v 0.08525828 -0.04432789 0.02154361
v 0.08521599 -0.04601236 0.01984536
v 0.08516523 -0.04601236 0.01814711
v 0.08514775 -0.04552313 0.01764354
v 0.08526109 -0.04601236 0.02154361
f 1 2 10
f 1 10 3
f 1 3 4
f 1 4 5
f 1 5 6
f 1 6 7
f 1 7 12
f 1 12 15
f 1 15 21
f 1 21 24
f 1 24 23
f 1 23 33
f 1 33 34
f 1 34 25
f 1 25 17
f 1 17 13
f 1 13 8
f 1 8 2
f 2 8 9
f 2 9 10
f 3 10 14
f 3 14 19
f 3 19 31
f 3 31 30
f 3 30 38
f 3 38 32
f 3 32 22
f 3 22 16
f 3 16 11
f 3 11 6
f 3 6 5
f 3 5 4
f 6 11 12
f 6 12 7
f 8 13 9
f 9 13 14
f 9 14 10
f 11 15 12
f 11 16 15
f 13 17 14
f 14 18 19
f 14 17 18
f 15 20 21
f 15 16 20
f 16 22 23
f 16 23 24
f 16 24 21
f 16 21 20
f 17 25 26
f 17 26 18
f 18 27 19
f 18 26 28
f 18 28 29
f 18 29 30
f 18 30 27
f 19 27 31
f 22 32 37
f 22 37 36
f 22 36 39
f 22 39 33
f 22 33 23
f 25 34 35
f 25 35 26
f 26 35 28
f 27 30 31
f 28 35 39
f 28 39 36
f 28 36 37
f 28 37 29
f 29 37 38
f 29 38 30
f 32 38 37
f 33 39 34
f 34 39 35
