# https://github.com/mikedh/trimesh
v 0.08091998 -0.04770368 0.00390570
v 0.07918419 -0.04362881 0.00390570
v 0.08469469 -0.04770368 0.00390570
v 0.08222515 -0.04770368 0.01764302
v 0.07890197 -0.04267595 0.00390570
v 0.07998962 -0.04128008 0.01764302
v 0.08469343 -0.04602644 0.00390570
v 0.08494900 -0.04602644 0.01150184
v 0.08494964 -0.04770368 0.01148570
v 0.08515005 -0.04770368 0.01764302
v 0.07877260 -0.04189271 0.00390570
v 0.07975116 -0.04043099 0.01764302
v 0.08467821 -0.04432825 0.00390570
v 0.08494584 -0.04432825 0.01160000
v 0.08499467 -0.04432825 0.01304957
v 0.08505111 -0.04432825 0.01474926
v 0.08500038 -0.04602644 0.01304957
v 0.08505618 -0.04770368 0.01472774
v 0.08511136 -0.04770368 0.01642608
v 0.08511136 -0.04602644 0.01644760
v 0.08514878 -0.04602644 0.01764302
v 0.07871489 -0.04093187 0.00390570
v 0.07962305 -0.03923367 0.01764302
v 0.08404148 -0.04257318 0.00390570
v 0.08416070 -0.04262906 0.00455787
v 0.08493062 -0.04177298 0.01381739
v 0.08493759 -0.04331153 0.01185415
v 0.08511960 -0.04262906 0.01764302
v 0.08510693 -0.04432825 0.01644760
v 0.08505618 -0.04602644 0.01474926
v 0.08514498 -0.04432825 0.01764302
v 0.07868889 -0.04019851 0.00390570
v 0.07958246 -0.03803835 0.01764302
v 0.08208372 -0.03751154 0.00390570
v 0.08501180 -0.04156944 0.01764302
v 0.08495155 -0.04173007 0.01474926
v 0.08509360 -0.04233871 0.01764302
v 0.08507648 -0.04262906 0.01644760
v 0.08501242 -0.04262906 0.01474926
v 0.07867874 -0.03923367 0.00390570
v 0.07956661 -0.03753448 0.01764302
v 0.07867113 -0.03751154 0.00390570
v 0.08251814 -0.03751154 0.01762689
v 0.08251814 -0.03751154 0.01764302
v 0.07867303 -0.03850032 0.00390570
v 0.07956661 -0.03751154 0.01764302
v 0.07867113 -0.03753448 0.00390570
f 1 2 5
f 1 5 11
f 1 11 22
f 1 22 32
f 1 32 40
f 1 40 45
f 1 45 47
f 1 47 42
f 1 42 34
f 1 34 24
f 1 24 13
f 1 13 7
f 1 7 3
f 1 3 9
f 1 9 18
f 1 18 19
f 1 19 10
f 1 10 4
f 1 4 2
f 2 4 6
f 2 6 5
f 3 7 8
f 3 8 9
f 4 10 21
f 4 21 31
f 4 31 28
f 4 28 37
f 4 37 35
f 4 35 44
f 4 44 46
f 4 46 41
f 4 41 33
f 4 33 23
f 4 23 12
f 4 12 6
f 5 6 12
f 5 12 11
f 7 13 14
f 7 14 15
f 7 15 8
f 8 15 16
f 8 16 17
f 8 17 9
f 9 17 18
f 10 19 20
f 10 20 21
f 11 12 23
f 11 23 22
f 13 24 25
f 13 25 26
f 13 26 27
f 13 27 14
f 14 27 15
f 15 27 28
f 15 28 16
f 16 28 29
f 16 29 17
f 17 29 30
f 17 30 18
f 18 30 20
f 18 20 19
f 20 30 29
f 20 29 31
f 20 31 21
f 22 23 32
f 23 33 32
f 24 34 25
f 25 34 26
f 26 35 36
f 26 36 37
f 26 37 28
f 26 28 38
f 26 38 39
f 26 39 27
f 26 34 35
f 27 39 38
f 27 38 28
f 28 31 29
f 32 33 41
f 32 41 40
f 34 42 46
f 34 46 44
f 34 44 43
f 34 43 35
f 35 43 44
f 35 37 36
f 40 41 45
f 41 46 42
f 41 42 47
f 41 47 45
