# https://github.com/mikedh/trimesh
v -0.06918179 -0.00043020 0.02495525
v -0.05974003 -0.00043020 0.02495525
v -0.06918179 -0.00043020 0.02838340
v -0.06918179 0.02059951 0.02495525
v -0.05974003 -0.00043020 0.02838340
v -0.05974003 0.00946171 0.02495525
v -0.06918179 0.02021794 0.02838340
v -0.06918179 0.02229923 0.02496700
v -0.06879913 0.02021794 0.02495525
v -0.05974003 0.00833146 0.02838340
v -0.05974003 0.01002829 0.02496062
v -0.06879913 0.02021794 0.02838340
v -0.06918179 0.02191766 0.02837199
v -0.06918179 0.02399606 0.02504117
v -0.06879913 0.02191766 0.02497036
v -0.05974003 0.01116143 0.02498143
v -0.05974003 0.01002829 0.02837837
v -0.06030663 0.01002829 0.02838340
v -0.06879913 0.02191766 0.02836864
v -0.06918179 0.02361449 0.02829850
v -0.06918179 0.02710933 0.02540865
v -0.05974003 0.01176848 0.02509218
v -0.06918179 0.02750246 0.02545932
v -0.05974003 0.01177137 0.02823977
v -0.06030663 0.01172801 0.02835186
v -0.06879913 0.02361449 0.02827366
v -0.06918179 0.02701105 0.02791424
v -0.05974003 0.01301725 0.02534220
v -0.06918179 0.02832052 0.02579526
v -0.05974003 0.01327741 0.02542979
v -0.05974003 0.01329476 0.02788000
v -0.06918179 0.02763254 0.02783873
v -0.06918179 0.02899405 0.02643458
v -0.05974003 0.01401743 0.02663426
v -0.05974003 0.01400876 0.02665406
v -0.06918179 0.02910101 0.02663996
v -0.06918179 0.02871077 0.02704537
f 1 2 5
f 1 5 3
f 1 3 7
f 1 7 13
f 1 13 20
f 1 20 27
f 1 27 32
f 1 32 37
f 1 37 36
f 1 36 33
f 1 33 29
f 1 29 23
f 1 23 21
f 1 21 14
f 1 14 8
f 1 8 4
f 1 4 9
f 1 9 6
f 1 6 2
f 2 6 11
f 2 11 16
f 2 16 22
f 2 22 28
f 2 28 30
f 2 30 34
f 2 34 35
f 2 35 31
f 2 31 24
f 2 24 17
f 2 17 10
f 2 10 5
f 3 5 10
f 3 10 18
f 3 18 12
f 3 12 7
f 4 8 9
f 6 9 8
f 6 8 11
f 7 12 13
f 8 14 15
f 8 15 16
f 8 16 11
f 10 17 18
f 12 19 13
f 12 18 17
f 12 17 19
f 13 19 20
f 14 21 16
f 14 16 15
f 16 21 23
f 16 23 22
f 17 24 25
f 17 25 19
f 19 26 20
f 19 25 26
f 20 26 27
f 22 23 28
f 23 29 30
f 23 30 28
f 24 31 32
f 24 32 25
f 25 32 26
f 26 32 27
f 29 33 30
f 30 33 34
f 31 35 36
f 31 36 37
f 31 37 32
f 33 36 34
f 34 36 35
