# https://github.com/mikedh/trimesh
v -0.07982922 -0.08128675 0.02865818
v -0.07967160 -0.08139768 0.02865818
v -0.07982922 -0.08114702 0.03003726
v -0.07982922 -0.07324440 0.02865818
v -0.07899077 -0.08187339 0.02865818
v -0.07982922 -0.08091129 0.03096757
v -0.07899077 -0.08169953 0.03003726
v -0.07982922 -0.07723037 0.03106193
v -0.07237513 -0.08188513 0.03148451
v -0.07237513 -0.07963668 0.02865818
v -0.07801514 -0.08248244 0.02865818
v -0.07787065 -0.08238537 0.03003726
v -0.07670164 -0.08266696 0.03107142
v -0.07899077 -0.08116195 0.03119540
v -0.07982922 -0.07990760 0.03132457
v -0.07982922 -0.07837380 0.03137865
v -0.07559466 -0.08169740 0.03159698
v -0.07237513 -0.08203978 0.03149112
v -0.07237513 -0.08413997 0.02865818
v -0.07716574 -0.08286535 0.02865818
v -0.07702126 -0.08280562 0.03003726
v -0.07559466 -0.08330161 0.03003726
v -0.07389587 -0.08373572 0.03003726
v -0.07559466 -0.08284936 0.03128803
v -0.07727739 -0.08175286 0.03140540
v -0.07899077 -0.07999933 0.03153312
v -0.07389587 -0.08306801 0.03145689
v -0.07237513 -0.08319281 0.03149112
v -0.07237513 -0.08401837 0.02995786
v -0.07389587 -0.08384878 0.02865818
v -0.07559466 -0.08341467 0.02865818
v -0.07527431 -0.08349680 0.02865818
f 1 2 3
f 1 3 6
f 1 6 15
f 1 15 16
f 1 16 8
f 1 8 4
f 1 4 10
f 1 10 19
f 1 19 30
f 1 30 32
f 1 32 31
f 1 31 20
f 1 20 11
f 1 11 5
f 1 5 2
f 2 5 3
f 3 5 7
f 3 7 6
f 4 8 9
f 4 9 10
f 5 11 7
f 6 7 12
f 6 12 13
f 6 13 14
f 6 14 15
f 7 11 12
f 8 16 9
f 9 17 18
f 9 18 28
f 9 28 29
f 9 29 19
f 9 19 10
f 9 16 17
f 11 20 21
f 11 21 12
f 12 21 13
f 13 21 22
f 13 22 23
f 13 23 24
f 13 24 25
f 13 25 14
f 14 25 26
f 14 26 15
f 15 26 16
f 16 26 17
f 17 25 27
f 17 27 28
f 17 28 18
f 17 26 25
f 19 29 23
f 19 23 30
f 20 31 21
f 21 31 22
f 22 31 32
f 22 32 23
f 23 29 27
f 23 27 24
f 23 32 30
f 24 27 25
f 27 29 28
