# https://github.com/mikedh/trimesh
v -0.08470147 0.04569973 0.00381476
v -0.08464061 0.04740014 0.00116044
v -0.08463905 0.04569973 0.00116044
v -0.08468430 0.04400299 0.00381476
v -0.08470147 0.05249402 0.00381476
v -0.08393376 0.04569973 -0.00030759
v -0.08464061 0.05249402 0.00116044
v -0.08392128 0.04400299 -0.00030759
v -0.08461564 0.04400299 0.00116044
v -0.08400553 0.04224015 0.00381476
v -0.08469366 0.05419443 0.00381476
v -0.08393376 0.04740014 -0.00030759
v -0.08238741 0.05928464 -0.00091927
v -0.08238741 0.05589116 -0.00091881
v -0.08238741 0.04569973 -0.00091232
v -0.08238741 0.04400299 -0.00090768
v -0.08463281 0.05419443 0.00116044
v -0.08393064 0.05419443 -0.00030666
v -0.08393376 0.05249402 -0.00030713
v -0.08368566 0.04270290 -0.00010092
v -0.08391503 0.04242011 0.00116044
v -0.08213463 0.03887973 0.00285878
v -0.08213619 0.03887973 0.00288982
v -0.08215648 0.03887973 0.00381476
v -0.08468430 0.05514930 0.00381476
v -0.08238741 0.06098505 -0.00091881
v -0.08068971 0.07457363 -0.00084976
v -0.07899045 0.07639524 -0.00074920
v -0.08238741 0.04245683 -0.00029647
v -0.06876212 0.03887973 0.00081938
v -0.07899045 0.03887973 0.00080919
v -0.08461564 0.05589116 0.00116044
v -0.08389943 0.05928464 -0.00030481
v -0.08391347 0.05759158 -0.00030574
v -0.08392283 0.05589116 -0.00030620
v -0.08238741 0.06268178 -0.00091834
v -0.08068971 0.03887973 0.00098342
v -0.08183036 0.03887973 0.00158769
v -0.08213151 0.03887973 0.00284117
v -0.07864561 0.03887973 0.00381476
v -0.08467650 0.05589116 0.00381476
v -0.08238741 0.06947607 -0.00079554
v -0.08238741 0.07117649 -0.00068804
v -0.08068971 0.07627036 -0.00072557
v -0.08238741 0.06438220 -0.00090908
v -0.08238741 0.06777934 -0.00084374
v -0.08068971 0.07639524 -0.00068943
v -0.06876212 0.07639524 0.00081753
v -0.08066475 0.03887973 0.00098064
v -0.06876212 0.03887973 0.00308491
v -0.08459692 0.05759158 0.00116044
v -0.08385730 0.06268178 -0.00030110
v -0.07816345 0.07639524 0.00381476
v -0.08465778 0.05759158 0.00381476
v -0.08360920 0.06947607 -0.00017321
v -0.08381829 0.06438220 -0.00028998
v -0.08368722 0.06777934 -0.00022186
v -0.08349217 0.07117649 -0.00006524
v -0.08221733 0.07457363 -0.00026449
v -0.08190213 0.07627036 -0.00010370
v -0.08187560 0.07639524 -0.00007821
v -0.06876212 0.07639524 0.00308306
v -0.06876212 0.07121321 0.00308491
v -0.08456259 0.05928464 0.00116044
v -0.06876212 0.07291362 0.00308445
v -0.06876212 0.07461036 0.00308399
v -0.08222669 0.07639524 0.00381476
v -0.08463749 0.05854278 0.00381476
v -0.08438471 0.06438220 0.00116044
v -0.08426144 0.06607893 0.00116044
v -0.08413036 0.06777934 0.00116044
v -0.08451578 0.06098505 0.00116044
v -0.08446585 0.06268178 0.00116044
v -0.08395560 0.06947607 0.00116044
v -0.08336733 0.07255003 0.00010437
v -0.08217520 0.07639524 0.00116044
v -0.08287581 0.07457363 0.00116044
v -0.08223450 0.07627036 0.00116044
v -0.08462033 0.05928464 0.00381476
v -0.08225478 0.07634382 0.00381476
v -0.08446429 0.06364033 0.00381476
v -0.08442684 0.06438220 0.00381476
v -0.08436598 0.06533707 0.00381476
v -0.08431761 0.06607893 0.00381476
v -0.08451266 0.06268178 0.00381476
v -0.08418498 0.06777934 0.00381476
v -0.08459224 0.06023951 0.00381476
v -0.08456883 0.06098505 0.00381476
v -0.08453762 0.06193992 0.00381476
v -0.08385886 0.07043462 0.00381476
v -0.08371686 0.07117649 0.00116044
v -0.08407731 0.06873422 0.00381476
v -0.08399305 0.06947607 0.00381476
v -0.08341415 0.07273366 0.00116044
v -0.08319882 0.07358570 0.00116044
v -0.08229067 0.07627036 0.00381476
v -0.08257310 0.07552851 0.00381476
v -0.08295695 0.07448916 0.00381476
v -0.08375275 0.07117649 0.00381476
v -0.08341103 0.07288056 0.00381476
v -0.08331272 0.07326251 0.00381476
v -0.08321286 0.07364814 0.00381476
v -0.08309427 0.07404110 0.00381476
f 1 2 3
f 1 3 4
f 1 4 10
f 1 10 24
f 1 24 40
f 1 40 53
f 1 53 67
f 1 67 80
f 1 80 96
f 1 96 97
f 1 97 98
f 1 98 103
f 1 103 102
f 1 102 101
f 1 101 100
f 1 100 99
f 1 99 90
f 1 90 93
f 1 93 92
f 1 92 86
f 1 86 84
f 1 84 83
f 1 83 82
f 1 82 81
f 1 81 85
f 1 85 89
f 1 89 88
f 1 88 87
f 1 87 79
f 1 79 68
f 1 68 54
f 1 54 41
f 1 41 25
f 1 25 11
f 1 11 5
f 1 5 7
f 1 7 2
f 2 6 3
f 2 7 12
f 2 12 6
f 3 6 8
f 3 8 9
f 3 9 4
f 4 9 10
f 5 11 17
f 5 17 7
f 6 12 13
f 6 13 14
f 6 14 15
f 6 15 16
f 6 16 8
f 7 17 18
f 7 18 19
f 7 19 12
f 8 16 20
f 8 20 9
f 9 20 21
f 9 21 10
f 10 21 22
f 10 22 23
f 10 23 24
f 11 25 17
f 12 19 13
f 13 26 27
f 13 27 14
f 13 19 26
f 14 27 15
f 15 27 28
f 15 28 16
f 16 29 20
f 16 28 30
f 16 30 31
f 16 31 29
f 17 25 32
f 17 32 33
f 17 33 34
f 17 34 35
f 17 35 18
f 18 35 36
f 18 36 19
f 19 36 26
f 20 29 37
f 20 37 38
f 20 38 21
f 21 38 39
f 21 39 22
f 22 39 38
f 22 38 37
f 22 37 49
f 22 49 31
f 22 31 30
f 22 30 50
f 22 50 40
f 22 40 24
f 22 24 23
f 25 41 32
f 26 36 27
f 27 42 43
f 27 43 44
f 27 44 28
f 27 36 45
f 27 45 46
f 27 46 42
f 28 44 47
f 28 47 61
f 28 61 76
f 28 76 67
f 28 67 53
f 28 53 62
f 28 62 48
f 28 48 30
f 29 31 49
f 29 49 37
f 30 48 62
f 30 62 66
f 30 66 65
f 30 65 63
f 30 63 50
f 32 41 54
f 32 54 51
f 32 51 33
f 33 52 45
f 33 45 36
f 33 36 34
f 33 51 52
f 34 36 35
f 40 50 53
f 42 55 43
f 42 46 56
f 42 56 57
f 42 57 55
f 43 55 58
f 43 58 59
f 43 59 44
f 44 59 60
f 44 60 47
f 45 52 56
f 45 56 46
f 47 60 61
f 50 63 53
f 51 54 64
f 51 64 52
f 52 64 56
f 53 63 65
f 53 65 66
f 53 66 62
f 54 68 64
f 55 57 69
f 55 69 70
f 55 70 71
f 55 71 58
f 56 64 72
f 56 72 73
f 56 73 57
f 57 73 69
f 58 71 74
f 58 74 75
f 58 75 59
f 59 75 60
f 60 75 61
f 61 75 77
f 61 77 78
f 61 78 76
f 64 68 79
f 64 79 72
f 67 76 80
f 69 81 82
f 69 82 83
f 69 83 84
f 69 84 70
f 69 73 85
f 69 85 81
f 70 84 71
f 71 84 86
f 71 86 74
f 72 79 87
f 72 87 73
f 73 87 88
f 73 88 89
f 73 89 85
f 74 90 91
f 74 91 75
f 74 86 92
f 74 92 93
f 74 93 90
f 75 91 94
f 75 94 95
f 75 95 77
f 76 78 96
f 76 96 80
f 77 97 78
f 77 95 98
f 77 98 97
f 78 97 96
f 90 99 91
f 91 99 94
f 94 100 95
f 94 99 100
f 95 100 101
f 95 101 102
f 95 102 103
f 95 103 98
