# https://github.com/mikedh/trimesh
v 0.08493095 0.06277378 0.02315635
v 0.08510636 0.06277378 0.02315029
v 0.08216461 0.06277378 0.02163541
v 0.08218164 0.06277128 0.02315635
v 0.08510693 0.06276877 0.02315635
v 0.08507855 0.06277378 0.02154385
v 0.08199771 0.06277378 0.01628757
v 0.07965259 0.03899357 0.02315635
v 0.08511091 0.06268361 0.02315635
v 0.08508252 0.06268361 0.02154385
v 0.08503711 0.06268361 0.01984517
v 0.08503313 0.06277378 0.01985123
v 0.08199771 0.06277378 0.01627814
v 0.07957255 0.03890590 0.01627814
v 0.07949024 0.03720768 0.02315635
v 0.08515916 0.06098538 0.02315635
v 0.08513134 0.06098538 0.02154385
v 0.08498488 0.06268361 0.01814716
v 0.08497864 0.06277378 0.01805223
v 0.08502916 0.06277378 0.01970715
v 0.08508593 0.06098538 0.01984517
v 0.08503426 0.06098538 0.01814716
v 0.08491903 0.06277378 0.01627814
v 0.07952146 0.03720768 0.01627814
v 0.07948967 0.03718764 0.02315635
v 0.08520458 0.05937231 0.02315635
v 0.08517902 0.05928715 0.02154385
v 0.08513418 0.05928715 0.01984517
v 0.08493890 0.06253082 0.01658112
v 0.08493605 0.06277378 0.01673530
v 0.08497466 0.06098538 0.01627814
v 0.08508309 0.05928715 0.01814716
v 0.08502916 0.05928715 0.01644848
v 0.08493492 0.06233294 0.01627814
v 0.07952146 0.03718764 0.01627814
v 0.08367977 0.03718764 0.02315635
v 0.08520685 0.05928715 0.02315635
v 0.08521423 0.05758642 0.02154385
v 0.08516938 0.05758642 0.01984517
v 0.08502291 0.05929967 0.01627814
v 0.08511829 0.05758642 0.01814716
v 0.08505925 0.05758642 0.01627814
v 0.08246833 0.03718764 0.01627814
v 0.08498204 0.04133552 0.01627814
v 0.08495082 0.03939684 0.02315635
v 0.08523977 0.05767408 0.02315635
v 0.08524147 0.05758642 0.02315635
v 0.08526078 0.05588819 0.02315635
v 0.08523296 0.05588819 0.02154385
v 0.08518868 0.05588819 0.01984517
v 0.08513758 0.05588819 0.01814716
v 0.08507855 0.05588819 0.01627814
v 0.08506777 0.04230236 0.01627814
v 0.08507457 0.04230236 0.01644848
v 0.08513645 0.04230236 0.01814716
v 0.08519322 0.04230236 0.01984517
v 0.08511204 0.04054652 0.02315635
v 0.08527724 0.05418996 0.02315635
v 0.08524942 0.05418996 0.02154385
v 0.08520515 0.05418996 0.01984517
v 0.08515461 0.05418996 0.01814716
v 0.08510069 0.05418996 0.01644848
v 0.08509501 0.05418996 0.01627814
v 0.08507230 0.04247268 0.01627814
v 0.08510126 0.04400059 0.01627814
v 0.08524204 0.04230236 0.02154385
v 0.08516086 0.04400059 0.01814716
v 0.08521253 0.04400059 0.01984517
v 0.08527326 0.04230236 0.02315635
v 0.08528689 0.05249173 0.02315635
v 0.08525964 0.05249173 0.02154385
v 0.08521479 0.05249173 0.01984517
v 0.08516427 0.05249173 0.01814716
v 0.08510523 0.05249173 0.01627814
v 0.08510579 0.04569882 0.01627814
v 0.08525794 0.04400059 0.02154385
v 0.08516484 0.04569882 0.01814716
v 0.08521593 0.04569882 0.01984517
v 0.08528632 0.04400059 0.02315635
v 0.08528859 0.05087866 0.02315635
v 0.08526135 0.05079350 0.02154385
v 0.08521650 0.05079350 0.01984517
v 0.08516597 0.05079350 0.01814716
v 0.08511204 0.05079350 0.01644848
v 0.08510636 0.05096383 0.01627814
v 0.08510636 0.04739955 0.01627814
v 0.08511204 0.04739955 0.01644848
v 0.08516597 0.04739955 0.01814716
v 0.08526078 0.04569882 0.02154385
v 0.08521650 0.04739955 0.01984517
v 0.08528859 0.04569882 0.02315635
v 0.08528916 0.04748471 0.02315635
v 0.08526135 0.04739955 0.02154385
v 0.08528916 0.04739955 0.02315635
f 1 2 6
f 1 6 12
f 1 12 20
f 1 20 19
f 1 19 30
f 1 30 23
f 1 23 13
f 1 13 7
f 1 7 3
f 1 3 4
f 1 4 8
f 1 8 15
f 1 15 25
f 1 25 36
f 1 36 45
f 1 45 57
f 1 57 69
f 1 69 79
f 1 79 91
f 1 91 94
f 1 94 92
f 1 92 80
f 1 80 70
f 1 70 58
f 1 58 48
f 1 48 47
f 1 47 46
f 1 46 37
f 1 37 26
f 1 26 16
f 1 16 9
f 1 9 5
f 1 5 2
f 2 5 6
f 3 7 4
f 4 7 8
f 5 9 6
f 6 9 10
f 6 10 11
f 6 11 12
f 7 13 14
f 7 14 8
f 8 14 15
f 9 16 17
f 9 17 10
f 10 17 21
f 10 21 11
f 11 18 19
f 11 19 20
f 11 20 12
f 11 21 32
f 11 32 22
f 11 22 18
f 13 23 34
f 13 34 31
f 13 31 40
f 13 40 42
f 13 42 52
f 13 52 63
f 13 63 74
f 13 74 85
f 13 85 86
f 13 86 75
f 13 75 65
f 13 65 64
f 13 64 53
f 13 53 44
f 13 44 43
f 13 43 35
f 13 35 24
f 13 24 14
f 14 24 15
f 15 24 25
f 16 26 17
f 17 26 27
f 17 27 28
f 17 28 21
f 18 29 30
f 18 30 19
f 18 22 31
f 18 31 29
f 21 28 32
f 22 32 33
f 22 33 31
f 23 30 34
f 24 35 25
f 25 35 43
f 25 43 36
f 26 37 27
f 27 37 38
f 27 38 39
f 27 39 28
f 28 39 41
f 28 41 32
f 29 34 30
f 29 31 34
f 31 33 40
f 32 41 42
f 32 42 33
f 33 42 40
f 36 43 44
f 36 44 45
f 37 46 38
f 38 46 47
f 38 47 48
f 38 48 49
f 38 49 50
f 38 50 39
f 39 50 51
f 39 51 41
f 41 51 52
f 41 52 42
f 44 53 54
f 44 54 55
f 44 55 56
f 44 56 57
f 44 57 45
f 48 58 59
f 48 59 49
f 49 59 60
f 49 60 50
f 50 60 61
f 50 61 51
f 51 61 52
f 52 61 62
f 52 62 63
f 53 64 54
f 54 64 55
f 55 64 65
f 55 65 56
f 56 66 57
f 56 65 67
f 56 67 68
f 56 68 66
f 57 66 69
f 58 70 71
f 58 71 59
f 59 71 60
f 60 71 72
f 60 72 73
f 60 73 61
f 61 73 74
f 61 74 62
f 62 74 63
f 65 75 67
f 66 68 76
f 66 76 69
f 67 75 77
f 67 77 68
f 68 77 78
f 68 78 76
f 69 76 79
f 70 80 71
f 71 80 81
f 71 81 82
f 71 82 72
f 72 82 83
f 72 83 73
f 73 83 74
f 74 83 84
f 74 84 85
f 75 86 87
f 75 87 88
f 75 88 77
f 76 78 89
f 76 89 79
f 77 88 78
f 78 88 90
f 78 90 93
f 78 93 89
f 79 89 91
f 80 92 81
f 81 92 94
f 81 94 93
f 81 93 90
f 81 90 82
f 82 90 88
f 82 88 83
f 83 88 87
f 83 87 84
f 84 87 86
f 84 86 85
f 89 93 94
f 89 94 91
