# https://github.com/mikedh/trimesh
v 0.07500857 -0.07158203 0.00081925
v 0.08067913 -0.07158203 -0.00070485
v 0.07500857 -0.07158203 0.00308438
v 0.07500857 -0.03922134 0.00081925
v 0.08237745 -0.05961348 -0.00091927
v 0.08237745 -0.06131468 -0.00091880
v 0.08237745 -0.06301270 -0.00091785
v 0.08237745 -0.06471073 -0.00090841
v 0.08237745 -0.06810678 -0.00084323
v 0.08237745 -0.06980480 -0.00079364
v 0.08237745 -0.07150600 -0.00068359
v 0.08238408 -0.07158203 -0.00066706
v 0.08237745 -0.04433125 -0.00090841
v 0.08237745 -0.04602928 -0.00091219
v 0.08237745 -0.05621743 -0.00091880
v 0.08035767 -0.07158203 0.00390523
v 0.07871529 -0.04093203 0.00390523
v 0.07868874 -0.04020024 0.00390523
v 0.07867831 -0.03923401 0.00390523
v 0.07500857 -0.04433125 0.00308532
v 0.07500857 -0.03922134 0.00308485
v 0.07896942 -0.03922134 0.00080933
v 0.08392405 -0.04772730 -0.00030765
v 0.08392405 -0.05282455 -0.00030717
v 0.08392026 -0.05452258 -0.00030670
v 0.08390319 -0.05791546 -0.00030576
v 0.08388802 -0.05961348 -0.00030481
v 0.08386716 -0.06131468 -0.00030292
v 0.08384534 -0.06301270 -0.00030103
v 0.08380742 -0.06471073 -0.00028970
v 0.08367466 -0.06810678 -0.00022122
v 0.08359596 -0.06980480 -0.00017068
v 0.08347837 -0.07150600 -0.00006064
v 0.08347173 -0.07158203 -0.00005072
v 0.08237745 -0.04275678 -0.00029678
v 0.08367750 -0.04301972 -0.00010173
v 0.08391267 -0.04433125 -0.00030812
v 0.07898080 -0.03922134 0.00080933
v 0.08392310 -0.04602928 -0.00030765
v 0.08372207 -0.07158203 0.00390523
v 0.07867831 -0.03922134 0.00390523
v 0.07500857 -0.04320663 0.00308532
v 0.08463050 -0.04772730 0.00116072
v 0.08463050 -0.05282455 0.00116072
v 0.08462197 -0.05452258 0.00116072
v 0.08460489 -0.05621743 0.00116072
v 0.08458593 -0.05791546 0.00116072
v 0.08455084 -0.05961348 0.00116072
v 0.08450438 -0.06131468 0.00116072
v 0.08445412 -0.06301270 0.00116072
v 0.08437258 -0.06471073 0.00116072
v 0.08424930 -0.06640875 0.00116072
v 0.08411655 -0.06810678 0.00116072
v 0.08393922 -0.06980480 0.00116072
v 0.08369931 -0.07150600 0.00116072
v 0.08368319 -0.07158203 0.00116072
v 0.08066775 -0.03922134 0.00098125
v 0.08067913 -0.03922134 0.00098267
v 0.08460774 -0.04433125 0.00116072
v 0.08181324 -0.03922134 0.00158295
v 0.08390698 -0.04272827 0.00116072
v 0.08462860 -0.04602928 0.00116072
v 0.08373819 -0.07150600 0.00390523
v 0.08215081 -0.03922134 0.00390523
v 0.08469498 -0.04772730 0.00390523
v 0.08469403 -0.05282455 0.00390523
v 0.08468550 -0.05452258 0.00390523
v 0.08467507 -0.05556484 0.00390523
v 0.08466843 -0.05621743 0.00390523
v 0.08465705 -0.05726286 0.00390523
v 0.08464852 -0.05791546 0.00390523
v 0.08462671 -0.05896405 0.00390523
v 0.08461154 -0.05961348 0.00390523
v 0.08456128 -0.06131468 0.00390523
v 0.08452619 -0.06236010 0.00390523
v 0.08450343 -0.06301270 0.00390523
v 0.08445033 -0.06405813 0.00390523
v 0.08441714 -0.06471073 0.00390523
v 0.08434982 -0.06575615 0.00390523
v 0.08430715 -0.06640875 0.00390523
v 0.08422559 -0.06745418 0.00390523
v 0.08417344 -0.06810678 0.00390523
v 0.08405491 -0.06915537 0.00390523
v 0.08398000 -0.06980480 0.00390523
v 0.08383207 -0.07085340 0.00390523
v 0.08467791 -0.04433125 0.00390523
v 0.08404069 -0.04257304 0.00390523
v 0.08212616 -0.03922134 0.00285059
v 0.08469309 -0.04602928 0.00390523
f 1 2 12
f 1 12 34
f 1 34 56
f 1 56 40
f 1 40 16
f 1 16 3
f 1 3 20
f 1 20 42
f 1 42 21
f 1 21 4
f 1 4 2
f 2 5 6
f 2 6 7
f 2 7 8
f 2 8 9
f 2 9 10
f 2 10 11
f 2 11 12
f 2 4 13
f 2 13 14
f 2 14 15
f 2 15 5
f 3 16 17
f 3 17 18
f 3 18 19
f 3 19 20
f 4 21 41
f 4 41 64
f 4 64 88
f 4 88 60
f 4 60 58
f 4 58 57
f 4 57 38
f 4 38 22
f 4 22 13
f 5 15 23
f 5 23 24
f 5 24 6
f 6 24 7
f 7 24 25
f 7 25 26
f 7 26 27
f 7 27 8
f 8 27 28
f 8 28 29
f 8 29 30
f 8 30 9
f 9 30 10
f 10 31 32
f 10 32 11
f 10 30 31
f 11 33 12
f 11 32 33
f 12 33 34
f 13 35 36
f 13 36 37
f 13 37 14
f 13 22 38
f 13 38 35
f 14 37 39
f 14 39 15
f 15 39 23
f 16 40 63
f 16 63 85
f 16 85 84
f 16 84 83
f 16 83 82
f 16 82 81
f 16 81 80
f 16 80 79
f 16 79 78
f 16 78 77
f 16 77 76
f 16 76 75
f 16 75 74
f 16 74 73
f 16 73 72
f 16 72 71
f 16 71 70
f 16 70 69
f 16 69 68
f 16 68 67
f 16 67 66
f 16 66 65
f 16 65 89
f 16 89 86
f 16 86 87
f 16 87 64
f 16 64 41
f 16 41 19
f 16 19 18
f 16 18 17
f 19 41 42
f 19 42 20
f 21 42 41
f 23 43 44
f 23 44 24
f 23 39 43
f 24 44 25
f 25 44 45
f 25 45 26
f 26 45 27
f 27 45 46
f 27 46 47
f 27 47 28
f 28 47 29
f 29 47 48
f 29 48 30
f 30 48 49
f 30 49 50
f 30 50 31
f 31 50 51
f 31 51 32
f 32 51 52
f 32 52 53
f 32 53 33
f 33 53 54
f 33 54 34
f 34 54 55
f 34 55 56
f 35 38 57
f 35 57 58
f 35 58 36
f 36 59 37
f 36 58 60
f 36 60 61
f 36 61 59
f 37 59 62
f 37 62 39
f 39 62 43
f 40 56 55
f 40 55 63
f 43 65 44
f 43 62 89
f 43 89 65
f 44 66 67
f 44 67 45
f 44 65 66
f 45 67 68
f 45 68 46
f 46 68 69
f 46 69 70
f 46 70 47
f 47 70 71
f 47 71 48
f 48 71 72
f 48 72 73
f 48 73 49
f 49 73 74
f 49 74 50
f 50 75 76
f 50 76 51
f 50 74 75
f 51 76 77
f 51 77 78
f 51 78 79
f 51 79 80
f 51 80 52
f 52 80 81
f 52 81 53
f 53 81 82
f 53 82 54
f 54 82 83
f 54 83 84
f 54 84 55
f 55 85 63
f 55 84 85
f 59 86 62
f 59 61 87
f 59 87 86
f 60 88 61
f 61 88 87
f 62 86 89
f 64 87 88
