# https://github.com/mikedh/trimesh
v 0.07500762 -0.03922133 0.00081942
v 0.07500762 -0.03922133 0.00308557
v 0.07500762 -0.00043250 0.00081942
v 0.07898007 -0.00016334 0.00080887
v 0.07896803 -0.03922133 0.00080933
v 0.07867750 -0.03922133 0.00390562
v 0.07920187 -0.00043250 0.00549389
v 0.07907999 0.03550026 0.00549389
v 0.07500762 -0.00043250 0.00308557
v 0.07520532 0.03716007 0.00081988
v 0.08067860 -0.00016334 0.00096756
v 0.08067860 -0.00043250 0.00096756
v 0.07898007 -0.03922133 0.00080933
v 0.07898007 0.03716007 0.00081071
v 0.08215038 -0.03922133 0.00390562
v 0.08224605 -0.00043250 0.00549389
v 0.07908070 0.03716007 0.00549389
v 0.07520532 0.03716007 0.00308557
v 0.08067860 0.00153386 0.00096802
v 0.08183576 -0.00016334 0.00157251
v 0.08067860 -0.03922133 0.00098270
v 0.08066726 -0.03922133 0.00098132
v 0.07902471 0.03716007 0.00081575
v 0.08067860 0.00833013 0.00097306
v 0.08067860 0.00492826 0.00097031
v 0.08212558 -0.03922133 0.00285074
v 0.08222124 -0.00016334 0.00455689
v 0.08224605 0.00153386 0.00549389
v 0.08211991 0.03716007 0.00549389
v 0.08183505 0.00153386 0.00157297
v 0.08217022 -0.00043250 0.00285946
v 0.08181308 -0.03922133 0.00158352
v 0.08217022 -0.00016334 0.00285946
v 0.08067860 0.03716007 0.00100471
v 0.08067860 0.01002733 0.00097490
v 0.08219998 -0.00186054 0.00390562
v 0.08221982 0.00153386 0.00455689
v 0.08220069 -0.00121007 0.00390562
v 0.08223471 0.00833013 0.00549389
v 0.08206322 0.03716007 0.00285946
v 0.08220495 0.01681612 0.00549389
v 0.08182868 0.00833013 0.00157755
v 0.08183364 0.00323106 0.00157434
v 0.08216881 0.00153386 0.00285946
v 0.08178899 0.03716007 0.00160874
v 0.08182655 0.01002733 0.00157939
v 0.08220849 0.00833013 0.00455689
v 0.08223258 0.00908527 0.00549389
v 0.08220849 0.01588154 0.00549389
v 0.08221486 0.01418435 0.00549389
v 0.08222975 0.01002733 0.00549389
v 0.08220353 0.01002733 0.00455689
v 0.08215250 0.01002733 0.00285946
v 0.08179679 0.03716007 0.00164222
v 0.08215747 0.00833013 0.00285946
f 1 2 9
f 1 9 3
f 1 3 4
f 1 4 5
f 1 5 13
f 1 13 22
f 1 22 21
f 1 21 32
f 1 32 26
f 1 26 15
f 1 15 6
f 1 6 2
f 2 6 7
f 2 7 8
f 2 8 9
f 3 9 18
f 3 18 10
f 3 10 4
f 4 11 12
f 4 12 13
f 4 13 5
f 4 10 14
f 4 14 11
f 6 15 16
f 6 16 7
f 7 16 28
f 7 28 39
f 7 39 48
f 7 48 51
f 7 51 50
f 7 50 49
f 7 49 41
f 7 41 29
f 7 29 17
f 7 17 8
f 8 17 9
f 9 17 18
f 10 18 17
f 10 17 29
f 10 29 40
f 10 40 54
f 10 54 45
f 10 45 34
f 10 34 23
f 10 23 14
f 11 14 19
f 11 19 20
f 11 20 12
f 12 20 21
f 12 21 22
f 12 22 13
f 14 23 24
f 14 24 25
f 14 25 19
f 15 26 16
f 16 26 27
f 16 27 28
f 19 25 30
f 19 30 20
f 20 31 32
f 20 32 21
f 20 30 33
f 20 33 31
f 23 34 35
f 23 35 24
f 24 35 30
f 24 30 25
f 26 32 31
f 26 31 36
f 26 36 27
f 27 33 44
f 27 44 37
f 27 37 28
f 27 36 38
f 27 38 31
f 27 31 33
f 28 37 47
f 28 47 39
f 29 41 40
f 30 35 34
f 30 34 42
f 30 42 43
f 30 43 44
f 30 44 33
f 31 38 36
f 34 45 46
f 34 46 42
f 37 44 55
f 37 55 47
f 39 47 48
f 40 41 49
f 40 49 50
f 40 50 51
f 40 51 52
f 40 52 53
f 40 53 54
f 42 44 43
f 42 46 44
f 44 46 45
f 44 45 55
f 45 54 55
f 47 55 53
f 47 53 52
f 47 52 48
f 48 52 51
f 53 55 54
