# https://github.com/mikedh/trimesh
v -0.00001759 -0.03578639 0.02495559
v 0.00084668 -0.03578639 0.02495559
v -0.00001759 -0.03578639 0.02838340
v -0.00001759 -0.00043055 0.02495559
v 0.00254434 -0.03413100 0.02495559
v 0.00254434 -0.03578639 0.02495626
v 0.00089438 -0.03578639 0.02838340
v -0.00001759 -0.00043055 0.02838340
v 0.00000907 0.03380807 0.02495559
v 0.01419788 -0.01035607 0.02495559
v 0.01419788 -0.01205233 0.02495995
v 0.01419788 -0.01374860 0.02506633
v 0.00424200 -0.03578639 0.02523814
v 0.00254434 -0.03578639 0.02838307
v 0.00254434 -0.03413100 0.02838340
v 0.00000907 0.03380807 0.02838340
v 0.00254434 0.03380807 0.02495559
v 0.01431573 -0.00043055 0.02495559
v 0.01419788 -0.01538355 0.02544317
v 0.00521290 -0.03578639 0.02565491
v 0.00259345 -0.03578639 0.02837703
v 0.01419788 -0.01228395 0.02837871
v 0.01419788 -0.01205233 0.02837938
v 0.01419788 -0.01058769 0.02838340
v 0.00254434 0.03380807 0.02838340
v 0.00424341 0.03380807 0.02516163
v 0.01431573 0.01184522 0.02496129
v 0.01431573 0.01172259 0.02496062
v 0.01431573 0.01014214 0.02495559
v 0.01419788 -0.01618740 0.02664013
v 0.01419788 -0.01565604 0.02552974
v 0.01431573 -0.00043055 0.02838340
v 0.00534899 -0.03578639 0.02664013
v 0.00424200 -0.03578639 0.02809314
v 0.01419788 -0.01398021 0.02825320
v 0.00424341 0.03380807 0.02817334
v 0.01431573 0.01002633 0.02838340
v 0.01431573 0.01172259 0.02837871
v 0.00529287 0.03380807 0.02557941
v 0.01431573 0.01354148 0.02509183
v 0.01419788 -0.01610565 0.02715254
v 0.01419788 -0.01555386 0.02783173
v 0.01419788 -0.01568329 0.02777368
v 0.00523254 -0.03578639 0.02761495
v 0.00427427 -0.03578639 0.02808005
v 0.00522693 -0.03578639 0.02764650
v 0.00531111 0.03380807 0.02772603
v 0.01431573 0.01341886 0.02825320
v 0.00551314 0.03380807 0.02664013
v 0.01431573 0.01563286 0.02628745
v 0.01431573 0.01509468 0.02550390
v 0.01431573 0.01506743 0.02549350
v 0.01431573 0.01504700 0.02782703
v 0.01431573 0.01512193 0.02780254
v 0.01431573 0.01569417 0.02664013
f 1 2 6
f 1 6 13
f 1 13 20
f 1 20 33
f 1 33 44
f 1 44 46
f 1 46 45
f 1 45 34
f 1 34 21
f 1 21 14
f 1 14 7
f 1 7 3
f 1 3 8
f 1 8 4
f 1 4 9
f 1 9 17
f 1 17 29
f 1 29 18
f 1 18 10
f 1 10 5
f 1 5 2
f 2 5 6
f 3 7 15
f 3 15 24
f 3 24 32
f 3 32 37
f 3 37 25
f 3 25 16
f 3 16 8
f 4 8 16
f 4 16 9
f 5 10 6
f 6 10 11
f 6 11 12
f 6 12 13
f 7 14 15
f 9 16 25
f 9 25 36
f 9 36 47
f 9 47 49
f 9 49 39
f 9 39 26
f 9 26 17
f 10 18 11
f 11 18 12
f 12 18 19
f 12 19 20
f 12 20 13
f 14 21 22
f 14 22 23
f 14 23 24
f 14 24 15
f 17 26 27
f 17 27 28
f 17 28 29
f 18 30 31
f 18 31 19
f 18 29 28
f 18 28 27
f 18 27 40
f 18 40 52
f 18 52 51
f 18 51 50
f 18 50 55
f 18 55 54
f 18 54 53
f 18 53 48
f 18 48 38
f 18 38 37
f 18 37 32
f 18 32 30
f 19 31 20
f 20 31 30
f 20 30 33
f 21 34 35
f 21 35 22
f 22 35 32
f 22 32 23
f 23 32 24
f 25 37 38
f 25 38 36
f 26 39 40
f 26 40 27
f 30 32 41
f 30 41 33
f 32 35 42
f 32 42 43
f 32 43 41
f 33 41 44
f 34 45 35
f 35 45 46
f 35 46 42
f 36 38 48
f 36 48 47
f 39 49 50
f 39 50 51
f 39 51 52
f 39 52 40
f 41 43 46
f 41 46 44
f 42 46 43
f 47 48 53
f 47 53 54
f 47 54 55
f 47 55 49
f 49 55 50
