# https://github.com/mikedh/trimesh
v 0.08314489 0.07423092 0.00624827
v 0.08007069 0.07423092 0.00624827
v 0.08326001 0.07384260 0.00624827
v 0.08318892 0.07358502 0.00116057
v 0.08297778 0.07423092 0.00116057
v 0.07921925 0.07423092 0.00338061
v 0.07921925 0.07422963 0.00352374
v 0.07921925 0.06100857 0.00314064
v 0.08171681 0.06100857 0.00624827
v 0.08350403 0.07287698 0.00624827
v 0.08340377 0.07273588 0.00116057
v 0.08335709 0.07255337 0.00010458
v 0.08254756 0.07423092 0.00022947
v 0.07921925 0.07423092 -0.00033957
v 0.07921925 0.06100857 0.00069818
v 0.08463823 0.06100857 0.00624827
v 0.08383771 0.07117742 0.00624827
v 0.08370668 0.07117742 0.00116057
v 0.08394540 0.06947787 0.00116057
v 0.08348281 0.07117742 -0.00006522
v 0.08228125 0.07423092 -0.00027432
v 0.07929936 0.07423092 -0.00037535
v 0.08085158 0.06100857 -0.00030449
v 0.08463769 0.06100857 0.00622652
v 0.08458411 0.06268482 0.00624827
v 0.08407272 0.06947787 0.00624827
v 0.08426051 0.06777961 0.00624827
v 0.08411993 0.06777961 0.00116057
v 0.08237780 0.07117742 -0.00068759
v 0.08359899 0.06947787 -0.00017258
v 0.08109030 0.07423092 -0.00073039
v 0.08067970 0.07423092 -0.00084055
v 0.08067970 0.07287568 -0.00080266
v 0.08237780 0.06100857 -0.00091914
v 0.08235658 0.06100857 -0.00091072
v 0.08445627 0.06268482 0.00116057
v 0.08450560 0.06100857 0.00116057
v 0.08437510 0.06438437 0.00116057
v 0.08449923 0.06438437 0.00624827
v 0.08439048 0.06608263 0.00624827
v 0.08425150 0.06608263 0.00116057
v 0.08237780 0.06947787 -0.00079565
v 0.08367644 0.06777961 -0.00022169
v 0.08237780 0.06777961 -0.00084336
v 0.08237780 0.06438437 -0.00090861
v 0.08237780 0.06268482 -0.00091844
v 0.08386742 0.06100857 -0.00030308
v 0.08380854 0.06438437 -0.00028975
v 0.08384673 0.06268482 -0.00030098
f 1 2 9
f 1 9 16
f 1 16 25
f 1 25 39
f 1 39 40
f 1 40 27
f 1 27 26
f 1 26 17
f 1 17 10
f 1 10 3
f 1 3 4
f 1 4 5
f 1 5 13
f 1 13 21
f 1 21 31
f 1 31 32
f 1 32 22
f 1 22 14
f 1 14 6
f 1 6 2
f 2 6 7
f 2 7 8
f 2 8 9
f 3 10 11
f 3 11 4
f 4 11 12
f 4 12 5
f 5 12 13
f 6 14 15
f 6 15 8
f 6 8 7
f 8 15 23
f 8 23 35
f 8 35 34
f 8 34 47
f 8 47 37
f 8 37 24
f 8 24 16
f 8 16 9
f 10 17 11
f 11 17 18
f 11 18 12
f 12 18 19
f 12 19 20
f 12 20 21
f 12 21 13
f 14 22 23
f 14 23 15
f 16 24 25
f 17 26 19
f 17 19 18
f 19 27 28
f 19 28 20
f 19 26 27
f 20 29 21
f 20 28 30
f 20 30 29
f 21 29 31
f 22 32 33
f 22 33 34
f 22 34 35
f 22 35 23
f 24 36 25
f 24 37 36
f 25 36 38
f 25 38 39
f 27 40 41
f 27 41 28
f 28 41 30
f 29 30 42
f 29 42 32
f 29 32 31
f 30 41 38
f 30 38 43
f 30 43 42
f 32 42 44
f 32 44 45
f 32 45 46
f 32 46 34
f 32 34 33
f 34 46 47
f 36 37 48
f 36 48 43
f 36 43 38
f 37 47 49
f 37 49 48
f 38 41 40
f 38 40 39
f 42 43 48
f 42 48 44
f 44 48 45
f 45 48 49
f 45 49 47
f 45 47 46
