# https://github.com/mikedh/trimesh
v 0.07520467 0.07895533 0.00417726
v 0.07217944 0.06754898 0.00308497
v 0.07387975 0.06754898 0.00308451
v 0.07520467 0.06754898 0.00308404
v 0.07520467 0.07895533 -0.00057723
v 0.00000840 0.07895533 0.00355037
v 0.00000840 0.06754898 0.00308497
v 0.07520467 0.06754898 0.00081989
v 0.07411529 0.06754898 0.00081943
v 0.00000840 0.06754898 0.00081943
v 0.00000840 0.07895533 0.00078824
f 1 2 3
f 1 3 4
f 1 4 8
f 1 8 5
f 1 5 11
f 1 11 6
f 1 6 7
f 1 7 2
f 2 7 10
f 2 10 9
f 2 9 8
f 2 8 4
f 2 4 3
f 5 8 9
f 5 9 10
f 5 10 11
f 6 11 10
f 6 10 7
