# https://github.com/mikedh/trimesh
v 0.08515005 -0.04770701 0.01764302
v 0.08511205 -0.04770701 0.01644760
v 0.08222572 -0.04770701 0.01764302
v 0.08515005 -0.05112453 0.01764302
v 0.08505716 -0.04770701 0.01474926
v 0.08511205 -0.05112453 0.01644760
v 0.08091976 -0.04770701 0.00390570
v 0.08130301 -0.07158519 0.01764302
v 0.08514816 -0.05282393 0.01764302
v 0.08500134 -0.04770701 0.01304957
v 0.08505716 -0.05112453 0.01474926
v 0.08511018 -0.05282393 0.01644760
v 0.08505576 -0.05282393 0.01474926
v 0.08469455 -0.04770701 0.00390570
v 0.08035825 -0.07158519 0.00390570
v 0.08425877 -0.07158519 0.01764302
v 0.08514113 -0.05401842 0.01764302
v 0.08510033 -0.05452100 0.01644760
v 0.08494928 -0.04770701 0.01147494
v 0.08500134 -0.05112453 0.01304957
v 0.08504544 -0.05452100 0.01474926
v 0.08499008 -0.05452100 0.01304957
v 0.08494411 -0.05452100 0.01164841
v 0.08499993 -0.05282393 0.01304957
v 0.08469455 -0.05217175 0.00390570
v 0.08372212 -0.07158519 0.00390570
v 0.08421749 -0.07158519 0.01650273
v 0.08427284 -0.07150572 0.01764302
v 0.08513785 -0.05452100 0.01764302
v 0.08512143 -0.05622041 0.01764302
v 0.08508344 -0.05622041 0.01644760
v 0.08494928 -0.05112453 0.01148570
v 0.08494880 -0.05282393 0.01150184
v 0.08502855 -0.05622041 0.01474926
v 0.08497320 -0.05622041 0.01304957
v 0.08493520 -0.05622041 0.01190659
v 0.08467579 -0.05556823 0.00390570
v 0.08468517 -0.05452100 0.00390570
v 0.08468892 -0.05386882 0.00390570
v 0.08469409 -0.05282393 0.00390570
v 0.08395526 -0.07158519 0.00973223
v 0.08373807 -0.07150572 0.00390570
v 0.08416589 -0.07150572 0.01474926
v 0.08422921 -0.07150572 0.01644760
v 0.08415182 -0.07158519 0.01474926
v 0.08445016 -0.06980631 0.01644760
v 0.08449285 -0.06980631 0.01764302
v 0.08510173 -0.05791981 0.01764302
v 0.08506374 -0.05791981 0.01644760
v 0.08500885 -0.05791981 0.01474926
v 0.08492910 -0.05733776 0.01209081
v 0.08466876 -0.05622041 0.00390570
v 0.08402281 -0.07158519 0.01143057
v 0.08396699 -0.07150572 0.00965424
v 0.08403454 -0.07150572 0.01135123
v 0.08383189 -0.07085354 0.00390570
v 0.08410068 -0.07150572 0.01304957
v 0.08398013 -0.06980631 0.00390570
v 0.08426064 -0.06980631 0.01135123
v 0.08432444 -0.06980631 0.01304957
v 0.08438777 -0.06980631 0.01474926
v 0.08408942 -0.07158519 0.01312891
v 0.08417339 -0.06810924 0.00390570
v 0.08450410 -0.06810924 0.01304957
v 0.08456509 -0.06810924 0.01474926
v 0.08454398 -0.06930373 0.01764302
v 0.08507640 -0.05911431 0.01764302
v 0.08494036 -0.05926625 0.01345701
v 0.08492019 -0.05847148 0.01232479
v 0.08494974 -0.05791046 0.01295410
v 0.08464905 -0.05791981 0.00390570
v 0.08465703 -0.05726763 0.00390570
v 0.08405471 -0.06915413 0.00390570
v 0.08422546 -0.06745706 0.00390570
v 0.08430802 -0.06640984 0.00390570
v 0.08462279 -0.06810924 0.01644760
v 0.08456696 -0.06640984 0.01135123
v 0.08466078 -0.06810924 0.01764302
v 0.08506561 -0.05961688 0.01764302
v 0.08502761 -0.05961688 0.01644760
v 0.08492628 -0.06217885 0.01558162
v 0.08461200 -0.05961688 0.00390570
v 0.08462654 -0.05896470 0.00390570
v 0.08441732 -0.06471043 0.00390570
v 0.08462466 -0.06640984 0.01304957
v 0.08493286 -0.06398111 0.01764302
v 0.08461481 -0.06471043 0.00965424
v 0.08492676 -0.06388060 0.01726248
v 0.08501729 -0.06131395 0.01764302
v 0.08498165 -0.06250845 0.01764302
v 0.08496804 -0.06295959 0.01764302
v 0.08493802 -0.06285207 0.01659686
v 0.08456133 -0.06131395 0.00390570
v 0.08450410 -0.06301336 0.00390570
v 0.08452615 -0.06236118 0.00390570
f 1 2 5
f 1 5 10
f 1 10 19
f 1 19 14
f 1 14 7
f 1 7 3
f 1 3 8
f 1 8 16
f 1 16 28
f 1 28 47
f 1 47 66
f 1 66 78
f 1 78 86
f 1 86 91
f 1 91 90
f 1 90 89
f 1 89 79
f 1 79 67
f 1 67 48
f 1 48 30
f 1 30 29
f 1 29 17
f 1 17 9
f 1 9 4
f 1 4 6
f 1 6 2
f 2 6 11
f 2 11 5
f 3 7 8
f 4 9 12
f 4 12 6
f 5 11 20
f 5 20 10
f 6 12 13
f 6 13 11
f 7 14 25
f 7 25 40
f 7 40 39
f 7 39 38
f 7 38 37
f 7 37 52
f 7 52 72
f 7 72 71
f 7 71 83
f 7 83 82
f 7 82 93
f 7 93 95
f 7 95 94
f 7 94 84
f 7 84 75
f 7 75 74
f 7 74 63
f 7 63 73
f 7 73 58
f 7 58 56
f 7 56 42
f 7 42 26
f 7 26 15
f 7 15 8
f 8 15 26
f 8 26 41
f 8 41 53
f 8 53 62
f 8 62 45
f 8 45 27
f 8 27 16
f 9 17 18
f 9 18 12
f 10 20 19
f 11 13 24
f 11 24 20
f 12 18 13
f 13 18 21
f 13 21 22
f 13 22 23
f 13 23 24
f 14 19 25
f 16 27 28
f 17 29 18
f 18 29 30
f 18 30 31
f 18 31 34
f 18 34 21
f 19 20 32
f 19 32 25
f 20 24 33
f 20 33 32
f 21 34 35
f 21 35 22
f 22 35 23
f 23 35 36
f 23 36 37
f 23 37 38
f 23 38 39
f 23 39 33
f 23 33 24
f 25 32 33
f 25 33 40
f 26 42 41
f 27 43 44
f 27 44 28
f 27 45 43
f 28 46 47
f 28 44 46
f 30 48 49
f 30 49 31
f 31 49 50
f 31 50 34
f 33 39 40
f 34 50 51
f 34 51 35
f 35 51 36
f 36 51 52
f 36 52 37
f 41 42 54
f 41 54 55
f 41 55 53
f 42 56 54
f 43 57 58
f 43 58 59
f 43 59 60
f 43 60 44
f 43 45 57
f 44 60 61
f 44 61 46
f 45 62 57
f 46 61 63
f 46 63 64
f 46 64 65
f 46 65 47
f 47 65 66
f 48 67 68
f 48 68 49
f 49 68 69
f 49 69 50
f 50 69 70
f 50 70 51
f 51 70 71
f 51 71 72
f 51 72 52
f 53 55 62
f 54 56 55
f 55 56 58
f 55 58 57
f 55 57 62
f 58 73 59
f 59 73 63
f 59 63 60
f 60 63 61
f 63 74 64
f 64 74 75
f 64 75 65
f 65 76 66
f 65 75 77
f 65 77 85
f 65 85 76
f 66 76 78
f 67 79 68
f 68 79 80
f 68 80 81
f 68 81 82
f 68 82 69
f 69 82 83
f 69 83 71
f 69 71 70
f 75 84 77
f 76 85 86
f 76 86 78
f 77 84 87
f 77 87 88
f 77 88 85
f 79 89 80
f 80 89 81
f 81 89 90
f 81 90 91
f 81 91 92
f 81 92 88
f 81 88 93
f 81 93 82
f 84 94 88
f 84 88 87
f 85 88 86
f 86 88 91
f 88 94 95
f 88 95 93
f 88 92 91
