# https://github.com/mikedh/trimesh
v 0.08133787 0.07895533 0.01627814
v 0.08061179 0.07895533 0.01627814
v 0.08184426 0.07829570 0.01627814
v 0.08137678 0.07895533 0.01596792
v 0.08061179 0.07895533 0.00625683
v 0.08061179 0.07391253 0.01627814
v 0.08195929 0.07810835 0.01627814
v 0.08151301 0.07879725 0.01584128
v 0.08067795 0.07895533 0.00624897
v 0.08061179 0.07893581 0.00624897
v 0.08061179 0.07231421 0.00624897
v 0.08176382 0.05901831 0.00624897
v 0.08181053 0.05901831 0.00768620
v 0.08181961 0.05901831 0.00795519
v 0.08210243 0.05901831 0.01617801
v 0.08210589 0.05901831 0.01627814
v 0.08200210 0.07789759 0.01474864
v 0.08177637 0.07750923 0.00624897
v 0.08280602 0.07652760 0.01627814
v 0.08118824 0.07836010 0.00625683
v 0.08118435 0.07836400 0.00624897
v 0.08422834 0.05901831 0.00624897
v 0.08502923 0.05901831 0.01627814
v 0.08289727 0.07635001 0.01627814
v 0.08267845 0.07627195 0.01135191
v 0.08240730 0.07627195 0.00625683
v 0.08240687 0.07627195 0.00624897
v 0.08468716 0.05928763 0.00624897
v 0.08469235 0.05901831 0.00625584
v 0.08493971 0.05901831 0.01347437
v 0.08502318 0.05930129 0.01627814
v 0.08276753 0.07627195 0.01305027
v 0.08294483 0.07624463 0.01627814
v 0.08291889 0.07612558 0.01471624
v 0.08324279 0.07546205 0.01526011
v 0.08321511 0.07538009 0.01412721
v 0.08300841 0.07469315 0.00625683
v 0.08300538 0.07469900 0.00624897
v 0.08463916 0.06098743 0.00624897
v 0.08463959 0.06098743 0.00625683
v 0.08492674 0.06186757 0.01557033
v 0.08496522 0.05942619 0.01460727
v 0.08501712 0.05951791 0.01627814
v 0.08326571 0.07551670 0.01627814
v 0.08348366 0.07470095 0.01627814
v 0.08341102 0.07471851 0.01471624
v 0.08326009 0.07384227 0.00625683
v 0.08301014 0.07468534 0.00624897
v 0.08325966 0.07384227 0.00624897
v 0.08458381 0.06268527 0.00624897
v 0.08458424 0.06268527 0.00625683
v 0.08464176 0.06268527 0.00795519
v 0.08493495 0.06233400 0.01627814
v 0.08497474 0.06098743 0.01627814
v 0.08351264 0.07458776 0.01627814
v 0.08350485 0.07287626 0.00625683
v 0.08350442 0.07287626 0.00624897
v 0.08449948 0.06438507 0.00624897
v 0.08455873 0.06438507 0.00795519
v 0.08461711 0.06438507 0.00965355
v 0.08490425 0.06299947 0.01610340
v 0.08491679 0.06282968 0.01627814
v 0.08392303 0.07287626 0.01627814
v 0.08386205 0.07287626 0.01474864
v 0.08379286 0.07287626 0.01305027
v 0.08372194 0.07287626 0.01135191
v 0.08365016 0.07287626 0.00965355
v 0.08383827 0.07117646 0.00625683
v 0.08383784 0.07117646 0.00624897
v 0.08439051 0.06608291 0.00624897
v 0.08456954 0.06608291 0.01135191
v 0.08484198 0.06425822 0.01627814
v 0.08488609 0.06345028 0.01627814
v 0.08462705 0.06608291 0.01305027
v 0.08482598 0.06453924 0.01627814
v 0.08422834 0.07117646 0.01627814
v 0.08417169 0.07117646 0.01474864
v 0.08410725 0.07117646 0.01305027
v 0.08404109 0.07117646 0.01135191
v 0.08397406 0.07117646 0.00965355
v 0.08407266 0.06947861 0.00624897
v 0.08426077 0.06778076 0.00624897
v 0.08432304 0.06778076 0.00795519
v 0.08444672 0.06778076 0.01135191
v 0.08450813 0.06778076 0.01305027
v 0.08456910 0.06778076 0.01474864
v 0.08462100 0.06778076 0.01627814
v 0.08468154 0.06608291 0.01474864
v 0.08442726 0.06964839 0.01627814
v 0.08439310 0.06947861 0.01474864
v 0.08432996 0.06947861 0.01305027
v 0.08426639 0.06947861 0.01135191
v 0.08413752 0.06947861 0.00795519
v 0.08444932 0.06947861 0.01627814
f 1 2 6
f 1 6 16
f 1 16 23
f 1 23 31
f 1 31 43
f 1 43 54
f 1 54 53
f 1 53 62
f 1 62 73
f 1 73 72
f 1 72 75
f 1 75 87
f 1 87 94
f 1 94 89
f 1 89 76
f 1 76 63
f 1 63 55
f 1 55 45
f 1 45 44
f 1 44 33
f 1 33 24
f 1 24 19
f 1 19 7
f 1 7 3
f 1 3 4
f 1 4 9
f 1 9 5
f 1 5 2
f 2 5 10
f 2 10 11
f 2 11 6
f 3 7 8
f 3 8 4
f 4 8 9
f 5 9 10
f 6 11 12
f 6 12 13
f 6 13 14
f 6 14 15
f 6 15 16
f 7 17 18
f 7 18 8
f 7 19 17
f 8 18 20
f 8 20 21
f 8 21 9
f 9 21 18
f 9 18 27
f 9 27 38
f 9 38 48
f 9 48 49
f 9 49 57
f 9 57 69
f 9 69 81
f 9 81 82
f 9 82 70
f 9 70 58
f 9 58 50
f 9 50 39
f 9 39 28
f 9 28 22
f 9 22 12
f 9 12 11
f 9 11 10
f 12 22 29
f 12 29 30
f 12 30 23
f 12 23 16
f 12 16 15
f 12 15 14
f 12 14 13
f 17 19 18
f 18 21 20
f 18 19 24
f 18 24 25
f 18 25 26
f 18 26 27
f 22 28 29
f 23 30 31
f 24 32 25
f 24 33 34
f 24 34 32
f 25 32 35
f 25 35 26
f 26 35 36
f 26 36 27
f 27 36 37
f 27 37 38
f 28 39 40
f 28 40 30
f 28 30 29
f 30 40 41
f 30 41 42
f 30 42 43
f 30 43 31
f 32 34 35
f 33 44 35
f 33 35 34
f 35 44 45
f 35 45 36
f 36 45 46
f 36 46 47
f 36 47 37
f 37 48 38
f 37 47 49
f 37 49 48
f 39 50 51
f 39 51 40
f 40 51 41
f 41 51 52
f 41 52 53
f 41 53 54
f 41 54 43
f 41 43 42
f 45 55 46
f 46 55 56
f 46 56 47
f 47 56 57
f 47 57 49
f 50 58 51
f 51 58 59
f 51 59 60
f 51 60 61
f 51 61 52
f 52 61 62
f 52 62 53
f 55 63 64
f 55 64 65
f 55 65 66
f 55 66 67
f 55 67 56
f 56 67 68
f 56 68 69
f 56 69 57
f 58 70 71
f 58 71 59
f 59 71 60
f 60 72 73
f 60 73 61
f 60 71 74
f 60 74 75
f 60 75 72
f 61 73 62
f 63 76 77
f 63 77 78
f 63 78 79
f 63 79 80
f 63 80 64
f 64 80 68
f 64 68 65
f 65 68 66
f 66 68 67
f 68 80 81
f 68 81 69
f 70 82 83
f 70 83 84
f 70 84 85
f 70 85 86
f 70 86 71
f 71 86 87
f 71 87 74
f 74 87 88
f 74 88 75
f 75 88 87
f 76 89 90
f 76 90 77
f 77 90 91
f 77 91 92
f 77 92 93
f 77 93 78
f 78 93 81
f 78 81 79
f 79 81 80
f 81 93 82
f 82 93 92
f 82 92 91
f 82 91 90
f 82 90 94
f 82 94 83
f 83 94 84
f 84 94 85
f 85 94 86
f 86 94 87
f 89 94 90
