# https://github.com/mikedh/trimesh
v -0.07869506 -0.00042332 0.02452025
v -0.06918179 -0.00042332 0.02495533
v -0.07869506 -0.00042332 0.02838338
v -0.07869506 0.03381262 0.02450008
v -0.06918179 -0.00042332 0.02838338
v -0.06918179 0.06990045 0.02495533
v -0.07869506 0.06990045 0.02838871
v -0.07869506 0.03550617 0.02450236
v -0.06918179 0.06990045 0.02838338
v -0.07869506 0.03719973 0.02451264
v -0.07869506 0.06990045 0.02494847
f 1 2 5
f 1 5 3
f 1 3 7
f 1 7 11
f 1 11 10
f 1 10 8
f 1 8 4
f 1 4 2
f 2 4 6
f 2 6 9
f 2 9 5
f 3 5 7
f 4 8 6
f 5 9 7
f 6 8 10
f 6 10 11
f 6 11 7
f 6 7 9
