# https://github.com/mikedh/trimesh
v 0.07520467 0.03716008 0.00081932
v 0.08237786 0.04739887 -0.00091334
v 0.08237786 0.04569941 -0.00091207
v 0.08237786 0.04399995 -0.00090783
v 0.07898096 0.03716008 0.00081000
v 0.07520467 0.03716008 0.00308492
v 0.07520467 0.05117129 0.00081932
v 0.08237786 0.05928576 -0.00091927
v 0.08237786 0.05588917 -0.00091842
v 0.08392325 0.04569941 -0.00030754
v 0.08391119 0.04399995 -0.00030754
v 0.08367558 0.04270201 -0.00010123
v 0.08067848 0.03716008 0.00100445
v 0.07844109 0.03716008 0.00340857
v 0.07520467 0.04909366 0.00308492
v 0.07520467 0.06100623 0.00081975
v 0.08237786 0.06100623 -0.00091885
v 0.08392418 0.05249258 -0.00030712
v 0.08392418 0.04739887 -0.00030754
v 0.08462916 0.04569941 0.00116077
v 0.08460597 0.04399995 0.00116077
v 0.08178975 0.03716008 0.00160813
v 0.08070816 0.03716008 0.00102055
v 0.08207360 0.03716008 0.00340857
v 0.07844109 0.03720677 0.00340857
v 0.07520467 0.05720812 0.00308407
v 0.07520467 0.06100623 0.00308365
v 0.08384811 0.06100623 -0.00031136
v 0.08388800 0.05928576 -0.00030458
v 0.08390377 0.05758863 -0.00030585
v 0.08391212 0.05588917 -0.00030627
v 0.08391954 0.05418971 -0.00030670
v 0.08463008 0.05249258 0.00116077
v 0.08463008 0.04739887 0.00116077
v 0.08467925 0.04569941 0.00340857
v 0.08467461 0.04515082 0.00340857
v 0.08466162 0.04399995 0.00340857
v 0.08468018 0.04684794 0.00340857
v 0.08447703 0.04345136 0.00340857
v 0.08206340 0.03716008 0.00285869
v 0.08179717 0.03716008 0.00164117
v 0.08206432 0.03716008 0.00290402
v 0.07844480 0.03890623 0.00340857
v 0.08030373 0.06100389 0.00340857
v 0.08032413 0.06100623 0.00340857
v 0.07846521 0.04059635 0.00340857
v 0.07857003 0.04230282 0.00340857
v 0.08386759 0.06100623 -0.00030331
v 0.08458649 0.05758863 0.00116077
v 0.08460504 0.05588917 0.00116077
v 0.08462174 0.05418971 0.00116077
v 0.08467461 0.05364112 0.00340857
v 0.08468018 0.05249258 0.00340857
v 0.08330546 0.06100623 0.00340857
v 0.08449744 0.06100623 0.00114128
v 0.08455217 0.05928576 0.00116077
v 0.08463473 0.05758863 0.00340857
v 0.08465421 0.05588917 0.00340857
v 0.08467183 0.05418971 0.00340857
v 0.08452805 0.06100623 0.00285869
v 0.08454568 0.06099923 0.00340857
v 0.08450486 0.06100623 0.00116077
v 0.08450579 0.06098522 0.00116077
v 0.08459762 0.05928576 0.00340857
v 0.08452805 0.06100623 0.00283624
v 0.08454660 0.06098522 0.00340857
v 0.08456330 0.06043430 0.00340857
f 1 2 3
f 1 3 4
f 1 4 5
f 1 5 13
f 1 13 23
f 1 23 22
f 1 22 41
f 1 41 40
f 1 40 42
f 1 42 24
f 1 24 14
f 1 14 6
f 1 6 15
f 1 15 26
f 1 26 27
f 1 27 16
f 1 16 7
f 1 7 8
f 1 8 9
f 1 9 2
f 2 10 3
f 2 9 10
f 3 10 4
f 4 10 11
f 4 11 12
f 4 12 13
f 4 13 5
f 6 14 25
f 6 25 15
f 7 16 8
f 8 16 17
f 8 17 18
f 8 18 19
f 8 19 10
f 8 10 9
f 10 19 34
f 10 34 20
f 10 20 11
f 11 21 12
f 11 20 21
f 12 21 22
f 12 22 23
f 12 23 13
f 14 24 39
f 14 39 37
f 14 37 36
f 14 36 35
f 14 35 38
f 14 38 53
f 14 53 52
f 14 52 59
f 14 59 58
f 14 58 57
f 14 57 64
f 14 64 67
f 14 67 66
f 14 66 61
f 14 61 54
f 14 54 45
f 14 45 44
f 14 44 47
f 14 47 46
f 14 46 43
f 14 43 25
f 15 25 26
f 16 27 45
f 16 45 54
f 16 54 60
f 16 60 65
f 16 65 62
f 16 62 55
f 16 55 48
f 16 48 28
f 16 28 17
f 17 28 29
f 17 29 30
f 17 30 31
f 17 31 32
f 17 32 18
f 18 32 33
f 18 33 19
f 19 33 34
f 20 35 36
f 20 36 37
f 20 37 21
f 20 34 38
f 20 38 35
f 21 37 39
f 21 39 40
f 21 40 41
f 21 41 22
f 24 42 39
f 25 43 27
f 25 27 26
f 27 44 45
f 27 43 46
f 27 46 47
f 27 47 44
f 28 48 29
f 29 49 50
f 29 50 51
f 29 51 30
f 29 48 49
f 30 51 31
f 31 51 33
f 31 33 32
f 33 51 52
f 33 52 53
f 33 53 38
f 33 38 34
f 39 42 40
f 48 55 56
f 48 56 49
f 49 56 57
f 49 57 58
f 49 58 50
f 50 58 59
f 50 59 51
f 51 59 52
f 54 61 60
f 55 62 63
f 55 63 56
f 56 64 57
f 56 63 64
f 60 61 65
f 61 66 62
f 61 62 65
f 62 66 63
f 63 66 67
f 63 67 64
