# https://github.com/mikedh/trimesh
v -0.07246325 0.07880349 0.02850306
v -0.07246325 0.07880349 0.02475624
v -0.07383326 0.07880349 0.02861389
v -0.07246325 0.06990132 0.02838358
v -0.07246325 0.06990132 0.02495537
v -0.07696490 0.07880349 0.02441164
v -0.07668280 0.07880349 0.02883424
v -0.08065240 0.06990132 0.02883424
v -0.08073334 0.06990132 0.02441164
v -0.08190458 0.07880349 0.02441164
v -0.08188077 0.07880349 0.02883424
v -0.08456606 0.06990132 0.02883424
v -0.08461724 0.06990132 0.02441164
v -0.08206170 0.07854379 0.02441164
v -0.08190696 0.07880349 0.02451078
v -0.08193077 0.07880349 0.02833812
v -0.08242949 0.07797210 0.02833812
v -0.08220334 0.07826492 0.02883424
v -0.08455892 0.06997540 0.02883424
v -0.08457558 0.06990132 0.02875934
v -0.08462081 0.06990132 0.02494152
v -0.08445774 0.07117804 0.02441164
v -0.08240688 0.07797210 0.02441164
v -0.08191172 0.07880349 0.02494152
v -0.08241402 0.07797210 0.02494152
v -0.08192958 0.07880349 0.02789050
v -0.08306035 0.07670148 0.02494152
v -0.08306273 0.07670497 0.02663939
v -0.08306511 0.07670845 0.02833812
v -0.08237713 0.07797210 0.02883424
v -0.08452202 0.07027344 0.02883424
v -0.08461724 0.06990132 0.02833812
v -0.08462200 0.06990132 0.02663939
v -0.08446012 0.07117804 0.02494152
v -0.08417326 0.07287656 0.02494152
v -0.08416969 0.07287656 0.02441164
v -0.08261280 0.07757034 0.02441164
v -0.08305678 0.07669538 0.02441164
v -0.08340434 0.07584656 0.02441164
v -0.08340672 0.07585179 0.02494152
v -0.08340791 0.07585963 0.02833812
v -0.08314129 0.07640082 0.02883424
v -0.08304011 0.07664832 0.02883424
v -0.08282705 0.07707709 0.02883424
v -0.08440894 0.07117804 0.02883424
v -0.08445655 0.07117804 0.02833812
v -0.08445893 0.07117804 0.02663939
v -0.08417207 0.07287656 0.02833812
v -0.08378642 0.07457420 0.02833812
v -0.08378642 0.07457420 0.02663939
v -0.08378523 0.07457420 0.02494152
v -0.08390307 0.07404608 0.02441164
v -0.08352098 0.07545352 0.02441164
v -0.08378166 0.07457420 0.02441164
v -0.08365311 0.07488967 0.02883424
v -0.08338411 0.07579950 0.02883424
v -0.08433038 0.07167391 0.02883424
v -0.08412803 0.07287656 0.02883424
v -0.08374119 0.07457420 0.02883424
f 1 2 6
f 1 6 10
f 1 10 15
f 1 15 24
f 1 24 26
f 1 26 16
f 1 16 11
f 1 11 7
f 1 7 3
f 1 3 4
f 1 4 5
f 1 5 2
f 2 5 6
f 3 7 4
f 4 7 8
f 4 8 12
f 4 12 20
f 4 20 32
f 4 32 33
f 4 33 21
f 4 21 13
f 4 13 9
f 4 9 5
f 5 9 6
f 6 9 13
f 6 13 22
f 6 22 36
f 6 36 52
f 6 52 54
f 6 54 53
f 6 53 39
f 6 39 38
f 6 38 37
f 6 37 23
f 6 23 14
f 6 14 10
f 7 11 18
f 7 18 30
f 7 30 44
f 7 44 43
f 7 43 42
f 7 42 56
f 7 56 55
f 7 55 59
f 7 59 58
f 7 58 57
f 7 57 45
f 7 45 31
f 7 31 19
f 7 19 12
f 7 12 8
f 10 14 15
f 11 16 17
f 11 17 18
f 12 19 20
f 13 21 22
f 14 23 15
f 15 23 25
f 15 25 24
f 16 26 17
f 17 25 27
f 17 27 28
f 17 28 29
f 17 29 30
f 17 30 18
f 17 26 25
f 19 31 20
f 20 31 32
f 21 33 34
f 21 34 22
f 22 34 35
f 22 35 36
f 23 37 25
f 24 25 26
f 25 37 27
f 27 37 38
f 27 38 39
f 27 39 40
f 27 40 28
f 28 40 29
f 29 40 41
f 29 41 42
f 29 42 43
f 29 43 44
f 29 44 30
f 31 45 32
f 32 45 46
f 32 46 33
f 33 46 47
f 33 47 34
f 34 47 48
f 34 48 35
f 35 48 49
f 35 49 50
f 35 50 51
f 35 51 52
f 35 52 36
f 39 53 40
f 40 53 54
f 40 54 51
f 40 51 41
f 41 51 50
f 41 50 49
f 41 49 55
f 41 55 56
f 41 56 42
f 45 57 46
f 46 57 48
f 46 48 47
f 48 57 58
f 48 58 49
f 49 59 55
f 49 58 59
f 51 54 52
