# https://github.com/mikedh/trimesh
v -0.05411772 0.05689925 0.01354300
v -0.05411772 0.05638125 0.01479283
v -0.05411772 0.05795200 0.01354300
v -0.04272895 0.05662598 0.01354300
v -0.05411772 0.05638125 0.01714169
v -0.04236894 0.05661856 0.01354300
v -0.04213307 0.05661494 0.01354300
v -0.04153967 0.05661342 0.01354300
v -0.04213307 0.05638125 0.01470310
v -0.05411772 0.05796170 0.01394598
v -0.05402834 0.05796893 0.01354300
v -0.05411772 0.05717880 0.01888688
v -0.04153967 0.05638125 0.01470257
v -0.05411772 0.05797369 0.01496485
v -0.05406806 0.05797102 0.01394598
v -0.05374778 0.05800737 0.01354300
v -0.05402337 0.05719631 0.01889644
v -0.05411772 0.05764066 0.01889378
v -0.05411772 0.05797750 0.01540234
v -0.05410531 0.05797578 0.01496485
v -0.05377012 0.05801022 0.01394598
v -0.05342997 0.05805304 0.01394598
v -0.05344239 0.05804448 0.01354300
v -0.05045553 0.05770727 0.01896652
v -0.05105142 0.05770727 0.01896545
v -0.05164481 0.05770727 0.01895803
v -0.05402337 0.05764827 0.01889644
v -0.05411772 0.05789471 0.01813189
v -0.05224070 0.05804658 0.01865645
v -0.05283409 0.05802279 0.01858849
v -0.05315190 0.05800718 0.01854017
v -0.04391574 0.05829263 0.01354300
v -0.05411772 0.05798149 0.01598425
v -0.05386199 0.05802203 0.01700258
v -0.05380737 0.05801499 0.01496485
v -0.05342997 0.05806256 0.01496485
v -0.05283409 0.05811680 0.01394598
v -0.05283409 0.05810995 0.01354300
v -0.05319411 0.05807131 0.01354300
v -0.04689018 0.05811813 0.01880512
v -0.04748358 0.05811699 0.01880299
v -0.04807946 0.05811432 0.01879874
v -0.04867286 0.05811147 0.01879450
v -0.04926626 0.05810671 0.01878600
v -0.04986214 0.05809929 0.01877326
v -0.05224070 0.05770727 0.01893944
v -0.05045553 0.05809111 0.01875786
v -0.05105142 0.05808045 0.01873662
v -0.05164481 0.05806484 0.01870158
v -0.05411772 0.05793201 0.01799915
v -0.05105142 0.05820529 0.01802198
v -0.05164481 0.05817464 0.01802198
v -0.05224070 0.05813849 0.01802198
v -0.05283409 0.05809282 0.01802198
v -0.05338032 0.05803649 0.01799543
v -0.05382723 0.05801746 0.01763758
v -0.05402586 0.05794876 0.01799543
v -0.04451162 0.05829492 0.01354300
v -0.05411772 0.05798187 0.01604000
v -0.05411772 0.05798815 0.01700258
v -0.05342997 0.05807683 0.01700258
v -0.05283409 0.05812631 0.01496485
v -0.05224070 0.05816095 0.01394598
v -0.05224070 0.05815429 0.01354300
v -0.05260071 0.05812745 0.01354300
v -0.04689018 0.05828045 0.01802198
v -0.04748358 0.05827798 0.01802198
v -0.04807946 0.05827265 0.01802198
v -0.04867286 0.05826714 0.01802198
v -0.04926626 0.05825762 0.01802198
v -0.04986214 0.05824278 0.01802198
v -0.05045553 0.05822641 0.01802198
v -0.05411772 0.05798682 0.01708647
v -0.05105142 0.05825039 0.01700258
v -0.05164481 0.05822013 0.01700258
v -0.05224070 0.05818474 0.01700258
v -0.05283409 0.05814059 0.01700258
v -0.04451162 0.05830158 0.01394598
v -0.04510502 0.05829530 0.01354300
v -0.04510502 0.05830196 0.01394598
v -0.04510502 0.05831109 0.01496485
v -0.05224070 0.05817046 0.01496485
v -0.05164481 0.05819615 0.01394598
v -0.05164481 0.05818949 0.01354300
v -0.04629430 0.05832537 0.01700258
v -0.04689018 0.05832518 0.01700258
v -0.04748358 0.05832251 0.01700258
v -0.04807946 0.05831719 0.01700258
v -0.04867286 0.05831166 0.01700258
v -0.04926626 0.05830215 0.01700258
v -0.04986214 0.05828731 0.01700258
v -0.05045553 0.05827113 0.01700258
v -0.05105142 0.05823593 0.01496485
v -0.05164481 0.05820567 0.01496485
v -0.04689018 0.05829530 0.01354300
v -0.03797432 0.05832537 0.01700258
v -0.04689018 0.05830196 0.01394598
v -0.04629430 0.05831109 0.01496485
v -0.05105142 0.05822660 0.01394598
v -0.05141143 0.05820148 0.01354300
v -0.04689018 0.05831090 0.01496485
v -0.04748358 0.05830824 0.01496485
v -0.04867286 0.05829739 0.01496485
v -0.04926626 0.05828769 0.01496485
v -0.04986214 0.05827284 0.01496485
v -0.05045553 0.05825667 0.01496485
v -0.05045553 0.05824754 0.01394598
v -0.04724771 0.05829377 0.01354300
v -0.04748358 0.05829930 0.01394598
v -0.05105142 0.05821994 0.01354300
v -0.04807946 0.05829397 0.01394598
v -0.04867286 0.05828826 0.01394598
v -0.04926626 0.05827874 0.01394598
v -0.04986214 0.05826371 0.01394598
v -0.05022215 0.05824734 0.01354300
v -0.05045553 0.05824087 0.01354300
v -0.04748358 0.05829263 0.01354300
v -0.04807946 0.05828731 0.01354300
v -0.04867286 0.05828179 0.01354300
v -0.04926626 0.05827208 0.01354300
v -0.04986214 0.05825705 0.01354300
v -0.02875600 0.05780974 0.01354300
v -0.02875600 0.05661342 0.01354300
v -0.02875600 0.05638125 0.01703764
v -0.02875600 0.05638125 0.01470257
v -0.02875600 0.05770721 0.01895217
v -0.02875600 0.05770721 0.01895218
v -0.02875600 0.05811807 0.01880514
v -0.02875600 0.05831775 0.01598387
v -0.02875600 0.05831775 0.01598379
v -0.02875600 0.05831775 0.01598388
v -0.02875600 0.05830329 0.01750440
v -0.02875600 0.05832517 0.01700222
v -0.02875600 0.05830329 0.01750423
v -0.02875600 0.05830330 0.01750416
v -0.02875600 0.05638134 0.01703784
v -0.02875600 0.05736109 0.01867877
v -0.02875600 0.05753691 0.01881786
v -0.02875600 0.05770727 0.01895218
v -0.02875600 0.05812463 0.01423255
v -0.02875600 0.05811813 0.01880512
v -0.02875600 0.05820071 0.01840698
v -0.02875600 0.05827951 0.01496457
v -0.02875600 0.05831775 0.01598377
v -0.02875600 0.05829834 0.01546568
v -0.02875600 0.05820073 0.01840685
v -0.02875600 0.05828045 0.01802198
v -0.02875600 0.05831775 0.01598406
v -0.02875600 0.05832518 0.01700258
f 4 2 1
f 2 7 8
f 122 32 140
f 140 32 143
f 136 137 12
f 12 137 138
f 6 7 2
f 2 4 6
f 2 8 9
f 143 32 145
f 12 138 126
f 24 139 128
f 11 3 10
f 31 50 28
f 28 18 31
f 24 40 25
f 25 40 41
f 17 18 12
f 17 25 26
f 24 25 17
f 66 147 132
f 41 40 66
f 13 9 8
f 86 66 85
f 144 145 32
f 16 11 15
f 15 11 10
f 18 17 27
f 27 17 26
f 27 26 46
f 142 40 141
f 52 75 76
f 31 54 55
f 101 98 97
f 66 86 67
f 41 66 67
f 69 89 90
f 103 90 89
f 104 90 103
f 149 96 135
f 135 96 85
f 147 66 146
f 47 27 46
f 48 27 47
f 105 92 91
f 91 90 105
f 105 90 104
f 76 75 82
f 82 77 76
f 72 92 74
f 18 27 29
f 53 54 31
f 53 52 76
f 76 77 53
f 53 77 54
f 77 82 62
f 88 89 69
f 88 103 89
f 41 67 42
f 42 25 41
f 69 44 43
f 43 42 67
f 43 44 26
f 26 25 43
f 25 42 43
f 119 111 118
f 97 95 108
f 114 121 115
f 111 103 102
f 103 88 102
f 86 101 102
f 112 111 119
f 112 103 111
f 134 135 85
f 31 55 56
f 54 77 56
f 56 55 54
f 45 47 46
f 46 26 45
f 26 44 45
f 74 92 93
f 51 72 74
f 74 75 51
f 75 52 51
f 52 29 51
f 48 72 51
f 91 92 71
f 92 72 71
f 71 90 91
f 71 72 48
f 30 29 52
f 52 53 30
f 30 53 31
f 31 18 30
f 18 29 30
f 16 22 23
f 16 15 21
f 21 22 16
f 36 22 21
f 37 65 38
f 38 22 37
f 37 82 63
f 37 62 82
f 64 65 37
f 63 64 37
f 133 148 81
f 68 88 69
f 67 88 68
f 69 43 68
f 68 43 67
f 87 67 86
f 87 88 67
f 86 102 87
f 87 102 88
f 109 108 117
f 97 108 109
f 111 102 109
f 117 118 109
f 109 118 111
f 107 115 116
f 114 115 107
f 107 105 114
f 107 116 110
f 104 103 113
f 103 112 113
f 119 120 113
f 113 112 119
f 114 105 113
f 113 105 104
f 14 15 10
f 50 56 73
f 73 56 60
f 57 50 31
f 31 56 57
f 57 56 50
f 61 56 77
f 63 82 83
f 48 51 49
f 49 51 29
f 49 27 48
f 49 29 27
f 69 90 70
f 90 71 70
f 47 45 70
f 48 47 70
f 70 71 48
f 70 44 69
f 70 45 44
f 39 22 38
f 39 23 22
f 36 21 35
f 35 61 36
f 35 21 15
f 92 105 106
f 105 107 106
f 106 93 92
f 106 107 93
f 60 56 34
f 56 61 34
f 61 35 34
f 34 59 60
f 34 35 19
f 84 83 100
f 99 107 110
f 93 107 99
f 110 100 99
f 99 100 83
f 94 82 75
f 94 83 82
f 94 75 74
f 74 93 94
f 93 99 94
f 94 99 83
f 15 14 20
f 20 35 15
f 20 14 19
f 19 35 20
f 33 34 19
f 59 34 33
f 136 12 5
f 136 5 124
f 24 128 40
f 40 128 141
f 17 139 24
f 127 139 17
f 12 126 17
f 17 126 127
f 5 2 13
f 13 125 124
f 124 5 13
f 2 9 13
f 123 125 13
f 13 8 123
f 85 96 81
f 81 98 85
f 85 98 101
f 101 86 85
f 146 66 40
f 40 142 146
f 98 81 80
f 97 98 80
f 148 80 81
f 131 80 148
f 32 58 130
f 130 144 32
f 85 66 134
f 134 66 132
f 36 62 37
f 37 22 36
f 97 80 79
f 79 95 97
f 78 58 79
f 79 80 78
f 133 81 96
f 133 96 149
f 129 123 122
f 124 125 129
f 129 139 127
f 122 140 129
f 143 145 129
f 129 125 123
f 129 136 124
f 129 142 141
f 129 140 143
f 132 147 129
f 137 136 129
f 129 138 137
f 127 126 129
f 141 128 129
f 147 146 129
f 129 126 138
f 129 128 139
f 145 144 129
f 149 135 129
f 129 146 142
f 129 134 132
f 135 134 129
f 148 133 129
f 129 80 131
f 78 80 129
f 129 130 58
f 129 58 78
f 109 102 101
f 109 101 97
f 113 120 121
f 113 121 114
f 61 62 36
f 77 62 61
f 83 84 64
f 83 64 63
f 38 65 100
f 1 3 100
f 122 123 100
f 100 32 122
f 100 4 1
f 123 8 100
f 100 120 119
f 7 6 100
f 100 8 7
f 3 11 100
f 100 115 121
f 100 6 4
f 100 11 16
f 100 58 32
f 110 116 100
f 100 39 38
f 95 79 100
f 119 118 100
f 100 108 95
f 121 120 100
f 64 84 100
f 100 65 64
f 100 118 117
f 117 108 100
f 116 115 100
f 16 23 100
f 100 79 58
f 23 39 100
f 1 2 33
f 5 12 33
f 33 3 1
f 33 2 5
f 10 3 33
f 33 28 50
f 12 18 33
f 18 28 33
f 60 59 33
f 33 14 10
f 19 14 33
f 50 73 33
f 33 73 60
