# https://github.com/mikedh/trimesh
v -0.02876264 -0.02860907 0.00185117
v -0.02876264 -0.05468443 0.00185117
v -0.02876264 -0.02860907 0.00049153
v -0.05508179 -0.02860907 0.00185117
v -0.02876264 -0.05468443 0.00049126
v -0.05508179 -0.05468443 0.00185117
v -0.05508179 -0.02860907 0.00049153
v -0.02965145 -0.05468443 0.00049126
v -0.05508179 -0.05468443 0.00049139
v -0.05508179 -0.05467422 0.00049139
f 10 8 9
f 7 8 10
f 6 2 1
f 6 1 4
f 1 2 3
f 2 5 3
f 4 1 7
f 1 3 7
f 2 6 8
f 8 5 2
f 6 9 8
f 8 3 5
f 8 7 3
f 10 6 4
f 10 9 6
f 4 7 10
