# https://github.com/mikedh/trimesh
v 0.05643794 0.05588169 -0.00051171
v 0.05643359 0.05622570 -0.00031192
v 0.05668195 0.05622570 -0.00015759
v 0.05703587 0.05586583 -0.00014925
v 0.05703206 0.05528735 -0.00043538
v 0.05703206 0.05469284 -0.00051004
v 0.05549916 0.05622570 -0.00048543
v 0.05609382 0.05622570 -0.00049043
v 0.05686857 0.05622570 -0.00002579
v 0.05737591 0.05565693 0.00006681
v 0.05745698 0.05528735 -0.00006208
v 0.05756715 0.05469284 -0.00015884
v 0.05759272 0.05457278 -0.00016468
v 0.05717597 0.05457278 -0.00043830
v 0.05703206 0.05457278 -0.00050420
v 0.05511613 0.05622570 -0.00034612
v 0.05690611 0.05622570 0.00013313
v 0.05717597 0.05597360 0.00069663
v 0.05738870 0.05567634 0.00069663
v 0.05757286 0.05528735 0.00069663
v 0.05779756 0.05469284 0.00069663
v 0.05783673 0.05457278 0.00069663
v 0.05768630 0.05457278 0.00013772
v 0.05511613 0.05457278 0.00049183
v 0.05511613 0.05622570 0.00250601
v 0.05696405 0.05622570 0.00069663
v 0.05720888 0.05601891 0.00374897
v 0.05741590 0.05572020 0.00374897
v 0.05763679 0.05528735 0.00374897
v 0.05784625 0.05473669 0.00374897
v 0.05784789 0.05473200 0.00374897
v 0.05789522 0.05457278 0.00374897
v 0.05511613 0.05457278 0.00185075
v 0.05526412 0.05622570 0.00343697
v 0.05703152 0.05622570 0.00374897
v 0.05681906 0.05457278 0.00374897
v 0.05532451 0.05622522 0.00374897
v 0.05533539 0.05622570 0.00374897
f 36 37 33
f 15 24 16
f 34 25 33
f 33 37 34
f 26 35 27
f 27 18 26
f 1 8 2
f 7 15 16
f 7 8 1
f 13 5 12
f 4 5 1
f 14 5 13
f 10 4 9
f 21 22 10
f 38 34 37
f 9 4 3
f 1 2 3
f 3 4 1
f 6 14 15
f 5 14 6
f 1 5 6
f 6 7 1
f 15 7 6
f 13 12 23
f 32 22 31
f 31 22 21
f 21 30 31
f 21 10 20
f 29 30 20
f 20 30 21
f 17 10 9
f 17 26 18
f 18 10 17
f 11 23 12
f 11 12 5
f 22 23 11
f 11 10 22
f 5 4 11
f 4 10 11
f 29 20 19
f 19 20 10
f 19 28 29
f 19 10 18
f 27 28 19
f 19 18 27
f 25 24 33
f 16 24 25
f 32 36 23
f 23 14 13
f 33 24 23
f 23 36 33
f 24 15 23
f 15 14 23
f 23 22 32
f 31 36 32
f 27 35 31
f 37 36 31
f 31 38 37
f 31 28 27
f 29 28 31
f 31 30 29
f 35 38 31
f 16 25 17
f 25 34 17
f 17 38 35
f 9 3 17
f 17 7 16
f 35 26 17
f 17 2 8
f 8 7 17
f 34 38 17
f 17 3 2
