# https://github.com/mikedh/trimesh
v -0.05841899 -0.04457118 0.00336488
v -0.05841899 -0.04456798 0.00336488
v -0.05736063 -0.04457118 0.00336488
v -0.05849190 -0.04457118 0.00690095
v -0.05841776 -0.04420052 0.00336488
v -0.05672507 -0.04363072 0.00336488
v -0.05752456 -0.04457118 0.00979437
v -0.05850982 -0.04457118 0.00782996
v -0.05850982 -0.04456798 0.00782996
v -0.05852753 -0.04397347 0.00884962
v -0.05850776 -0.04397347 0.00782996
v -0.05849190 -0.04456798 0.00690157
v -0.05848016 -0.04397347 0.00645091
v -0.05841611 -0.04397347 0.00336488
v -0.05849066 -0.04397347 0.00696011
v -0.05659162 -0.04334988 0.00336488
v -0.05669727 -0.04308679 0.00841406
v -0.05671272 -0.04302836 0.00909320
v -0.05673166 -0.04296527 0.00979437
v -0.05854730 -0.04457118 0.00979437
v -0.05852938 -0.04457118 0.00884962
v -0.05852938 -0.04456798 0.00884962
v -0.05854586 -0.04401678 0.00979437
v -0.05848778 -0.04361763 0.00711243
v -0.05854565 -0.04397347 0.00979437
v -0.05853576 -0.04342227 0.00979437
v -0.05832590 -0.04360600 0.00336488
v -0.05848531 -0.04307894 0.00829070
v -0.05647876 -0.04278474 0.00336488
v -0.05666432 -0.04267165 0.00979437
v -0.05666926 -0.04269665 0.00979437
v -0.05853474 -0.04337896 0.00979437
v -0.05851394 -0.04337896 0.00884962
v -0.05825382 -0.04337896 0.00336488
v -0.05849272 -0.04306411 0.00884962
v -0.05850446 -0.04303678 0.00979437
v -0.05750335 -0.04160124 0.00336488
v -0.05645054 -0.04219022 0.00336488
v -0.05661118 -0.04219022 0.00979437
v -0.05665917 -0.04262688 0.00979437
v -0.05762609 -0.04160124 0.00979437
v -0.05644354 -0.04160124 0.00336488
v -0.05659306 -0.04160124 0.00979437
f 36 41 37
f 7 3 6
f 24 15 11
f 28 36 37
f 27 14 28
f 28 14 24
f 6 16 17
f 17 7 6
f 24 11 10
f 10 11 4
f 34 28 37
f 27 28 34
f 29 17 16
f 14 5 13
f 13 5 15
f 13 15 24
f 24 14 13
f 1 4 2
f 4 5 2
f 15 5 12
f 12 5 4
f 12 11 15
f 4 11 12
f 23 22 20
f 25 10 23
f 20 22 21
f 35 32 36
f 36 28 35
f 28 32 35
f 26 32 24
f 24 10 26
f 26 10 25
f 33 28 24
f 24 32 33
f 33 32 28
f 18 19 7
f 7 17 18
f 22 23 9
f 9 10 4
f 9 23 10
f 42 43 38
f 29 38 39
f 39 38 43
f 8 9 4
f 17 29 30
f 19 18 31
f 31 18 17
f 17 30 31
f 29 39 40
f 40 30 29
f 42 37 43
f 37 41 43
f 38 34 37
f 38 37 42
f 38 3 1
f 6 3 38
f 38 16 6
f 1 2 38
f 38 14 27
f 38 5 14
f 27 34 38
f 38 29 16
f 38 2 5
f 1 3 8
f 8 7 20
f 3 7 8
f 8 4 1
f 20 21 8
f 8 21 22
f 22 9 8
f 40 26 25
f 41 36 40
f 20 7 40
f 40 23 20
f 36 32 40
f 7 19 40
f 25 23 40
f 32 26 40
f 40 43 41
f 40 39 43
f 19 31 40
f 40 31 30
