# https://github.com/mikedh/trimesh
v -0.03105126 -0.04537324 0.01598398
v -0.03080304 -0.04537324 0.01523573
v -0.03096076 -0.04537324 0.01630474
v -0.03060882 -0.04035524 0.01661746
v -0.03067020 -0.04035524 0.01598398
v -0.03061218 -0.04035524 0.01542279
v -0.03060277 -0.04035524 0.01536500
v -0.03024411 -0.04516252 0.01499006
v -0.03024411 -0.04537324 0.01498543
v -0.03027861 -0.04035524 0.01513585
v -0.03024411 -0.04035524 0.01511431
v -0.03081178 -0.04537324 0.01675076
v -0.03024411 -0.04035524 0.01688587
v -0.02970085 -0.04035524 0.01498081
v -0.02964977 -0.04537324 0.01497315
v -0.02964977 -0.04035524 0.01497315
v -0.03048695 -0.04537324 0.01691768
v -0.02964977 -0.04035524 0.01703004
v -0.03024411 -0.04516252 0.01701333
v -0.02876287 -0.04537324 0.01497315
v -0.02876287 -0.04035524 0.01497315
v -0.03024411 -0.04537324 0.01701796
v -0.02876287 -0.04035524 0.01703004
v -0.02986036 -0.04537324 0.01702883
v -0.02964977 -0.04537324 0.01703004
v -0.02876287 -0.04537324 0.01703004
f 13 12 17
f 4 12 13
f 1 4 5
f 1 7 2
f 3 4 1
f 3 12 4
f 18 22 24
f 18 13 19
f 19 22 18
f 17 22 19
f 19 13 17
f 6 7 1
f 1 5 6
f 11 2 10
f 10 2 7
f 9 2 8
f 8 2 11
f 9 16 15
f 18 24 25
f 14 8 11
f 14 16 9
f 9 8 14
f 21 26 20
f 21 23 26
f 15 21 20
f 15 16 21
f 20 26 25
f 25 3 1
f 1 2 25
f 25 15 20
f 17 12 25
f 25 22 17
f 25 2 9
f 12 3 25
f 25 24 22
f 9 15 25
f 25 23 18
f 26 23 25
f 18 23 14
f 14 5 4
f 4 13 14
f 7 6 14
f 23 21 14
f 14 13 18
f 11 10 14
f 21 16 14
f 14 6 5
f 14 10 7
