# https://github.com/mikedh/trimesh
v 0.05749490 -0.05602253 0.01700257
v 0.05735699 -0.05625162 0.01700257
v 0.05749333 -0.05602253 0.01640023
v 0.05746691 -0.05602253 0.01747379
v 0.05709686 -0.05654894 0.01700257
v 0.05735296 -0.05624632 0.01496446
v 0.05749020 -0.05602253 0.01538486
v 0.05732274 -0.05620731 0.01802204
v 0.05743266 -0.05602253 0.01802204
v 0.05679978 -0.05684578 0.01700257
v 0.05709059 -0.05654348 0.01496446
v 0.05705790 -0.05650447 0.01802204
v 0.05676060 -0.05681319 0.01802204
v 0.05748863 -0.05602253 0.01496446
v 0.05734848 -0.05624022 0.01394581
v 0.05748415 -0.05602253 0.01436867
v 0.05728759 -0.05616140 0.01853178
v 0.05739930 -0.05602253 0.01829412
v 0.05639570 -0.05712849 0.01700257
v 0.05679329 -0.05683984 0.01496446
v 0.05678702 -0.05683438 0.01394581
v 0.05708432 -0.05653738 0.01394581
v 0.05671091 -0.05677113 0.01857029
v 0.05639570 -0.05705352 0.01802204
v 0.05733707 -0.05622529 0.01292633
v 0.05746042 -0.05602253 0.01292633
v 0.05746893 -0.05602253 0.01335658
v 0.05748057 -0.05602253 0.01394581
v 0.05732834 -0.05602253 0.01860881
v 0.05724640 -0.05602253 0.01869486
v 0.05694149 -0.05639916 0.01868666
v 0.05606616 -0.05733543 0.01700257
v 0.05639570 -0.05711581 0.01496446
v 0.05639570 -0.05710506 0.01394581
v 0.05677247 -0.05682202 0.01292633
v 0.05706977 -0.05652261 0.01292633
v 0.05639570 -0.05686536 0.01871699
v 0.05559469 -0.05739226 0.01864241
v 0.05600370 -0.05729337 0.01802204
v 0.05732073 -0.05620410 0.01190768
v 0.05744408 -0.05602253 0.01235513
v 0.05697574 -0.05602253 0.01885466
v 0.05639570 -0.05645840 0.01891940
v 0.05576886 -0.05746611 0.01700257
v 0.05605139 -0.05732885 0.01496446
v 0.05570640 -0.05744058 0.01802204
v 0.05603997 -0.05732371 0.01394581
v 0.05639570 -0.05708209 0.01292633
v 0.05675210 -0.05680484 0.01190768
v 0.05704917 -0.05650142 0.01190768
v 0.05730237 -0.05618050 0.01088821
v 0.05579617 -0.05707198 0.01884319
v 0.05520807 -0.05745551 0.01877189
v 0.05520807 -0.05761364 0.01802204
v 0.05741385 -0.05602253 0.01136353
v 0.05743109 -0.05602253 0.01190768
v 0.05683135 -0.05602253 0.01892350
v 0.05520807 -0.05705288 0.01895792
v 0.05520807 -0.05766261 0.01700257
v 0.05575409 -0.05745937 0.01496446
v 0.05574267 -0.05745439 0.01394581
v 0.05571872 -0.05744395 0.01292633
v 0.05601601 -0.05731295 0.01292633
v 0.05639570 -0.05704999 0.01190768
v 0.05672904 -0.05678574 0.01088821
v 0.05672187 -0.05677980 0.01058581
v 0.05702634 -0.05647766 0.01088821
v 0.05729655 -0.05617312 0.01058581
v 0.05739841 -0.05602253 0.01088821
v 0.05734244 -0.05609815 0.01058581
v 0.05738856 -0.05602253 0.01058581
v 0.05631488 -0.05602253 0.01875632
v 0.05520807 -0.05667256 0.01871453
v 0.05520807 -0.05764896 0.01496446
v 0.05520807 -0.05763901 0.01394581
v 0.05520807 -0.05761910 0.01292633
v 0.05568603 -0.05742983 0.01190768
v 0.05598333 -0.05729819 0.01190768
v 0.05639570 -0.05701435 0.01088821
v 0.05641159 -0.05699236 0.01058581
v 0.05701694 -0.05647285 0.01058581
v 0.05596922 -0.05602253 0.01058581
v 0.05520807 -0.05602253 0.01712714
v 0.05520807 -0.05759213 0.01190768
v 0.05564977 -0.05741409 0.01088821
v 0.05594684 -0.05728165 0.01088821
v 0.05625152 -0.05708852 0.01058581
v 0.05520807 -0.05646402 0.01058581
v 0.05520807 -0.05602253 0.01485546
v 0.05520807 -0.05756211 0.01088821
v 0.05563857 -0.05740928 0.01058581
v 0.05593565 -0.05727651 0.01058581
v 0.05520807 -0.05646899 0.01058581
v 0.05520807 -0.05755280 0.01058746
v 0.05551835 -0.05744877 0.01058581
f 52 58 53
f 52 43 58
f 93 95 94
f 89 82 88
f 38 52 53
f 39 23 38
f 53 54 38
f 19 10 13
f 12 23 13
f 5 12 13
f 13 10 5
f 29 30 17
f 17 23 12
f 31 42 43
f 31 30 42
f 31 17 30
f 23 17 31
f 20 10 19
f 9 17 8
f 8 17 12
f 5 2 8
f 8 12 5
f 61 74 75
f 73 72 83
f 58 72 73
f 57 72 58
f 58 43 57
f 43 42 57
f 52 38 37
f 37 38 23
f 23 31 37
f 43 52 37
f 37 31 43
f 39 38 46
f 46 38 54
f 46 32 39
f 44 32 46
f 46 54 59
f 59 44 46
f 24 23 39
f 24 13 23
f 19 13 24
f 24 32 19
f 39 32 24
f 29 17 18
f 18 17 9
f 34 35 21
f 48 35 34
f 25 36 40
f 22 36 25
f 21 35 22
f 22 35 36
f 9 8 4
f 4 2 1
f 4 8 2
f 75 76 62
f 62 61 75
f 74 61 60
f 59 74 60
f 60 44 59
f 94 95 91
f 36 35 49
f 49 35 48
f 33 20 19
f 19 32 33
f 21 20 33
f 33 34 21
f 63 48 47
f 48 34 47
f 47 62 63
f 61 62 47
f 81 67 66
f 68 67 81
f 66 67 50
f 36 49 50
f 50 67 68
f 5 10 11
f 10 20 11
f 11 20 21
f 21 22 11
f 1 2 3
f 77 62 76
f 85 78 77
f 63 62 77
f 77 78 63
f 84 91 85
f 84 77 76
f 85 77 84
f 64 49 48
f 64 48 63
f 63 78 64
f 45 60 61
f 61 47 45
f 45 32 44
f 44 60 45
f 45 33 32
f 34 33 45
f 45 47 34
f 66 50 65
f 65 50 49
f 49 64 65
f 51 40 36
f 36 50 51
f 51 50 68
f 68 70 51
f 51 70 71
f 15 22 25
f 15 11 22
f 28 16 15
f 15 27 28
f 26 27 15
f 25 26 15
f 40 56 41
f 25 40 41
f 41 26 25
f 7 3 2
f 94 91 90
f 91 84 90
f 92 87 86
f 86 91 92
f 85 91 86
f 86 78 85
f 79 80 66
f 66 65 79
f 79 65 64
f 79 64 78
f 79 87 80
f 78 86 79
f 79 86 87
f 55 56 40
f 40 51 55
f 11 15 6
f 6 2 5
f 5 11 6
f 14 7 6
f 6 7 2
f 6 16 14
f 6 15 16
f 69 51 71
f 69 55 51
f 87 93 88
f 87 91 95
f 88 82 87
f 87 82 71
f 95 93 87
f 71 70 87
f 66 80 87
f 87 81 66
f 87 70 68
f 92 91 87
f 68 81 87
f 88 93 90
f 53 58 90
f 90 74 59
f 90 54 53
f 90 93 94
f 90 89 88
f 59 54 90
f 58 73 90
f 83 89 90
f 90 76 75
f 75 74 90
f 90 73 83
f 90 84 76
f 71 82 69
f 69 30 29
f 28 27 69
f 69 7 14
f 69 89 83
f 42 30 69
f 69 57 42
f 82 89 69
f 83 72 69
f 29 18 69
f 72 57 69
f 69 18 9
f 69 4 1
f 1 3 69
f 9 4 69
f 69 27 26
f 69 16 28
f 26 41 69
f 14 16 69
f 69 41 56
f 3 7 69
f 56 55 69
