# https://github.com/mikedh/trimesh
v 0.05806374 -0.05351332 0.00273670
v 0.05806374 -0.05351462 0.00273892
v 0.05804188 -0.05351332 0.00069640
v 0.05714991 -0.05351332 0.00273892
v 0.05794038 -0.05412006 0.00273892
v 0.05794217 -0.05402420 0.00069640
v 0.05796763 -0.05351332 -0.00003066
v 0.05792631 -0.05396255 0.00006507
v 0.05697176 -0.05351332 0.00273892
v 0.05793709 -0.05413301 0.00273892
v 0.05786642 -0.05432135 0.00069640
v 0.05752359 -0.05467498 -0.00015947
v 0.05758706 -0.05351332 -0.00040024
v 0.05775114 -0.05467498 0.00069640
v 0.05733166 -0.05563509 0.00007143
v 0.05741280 -0.05526929 -0.00005992
v 0.05500517 -0.05351332 0.00185060
v 0.05520877 -0.05615971 0.00273892
v 0.05787750 -0.05436488 0.00273892
v 0.05779845 -0.05462239 0.00273892
v 0.05699002 -0.05526929 -0.00043300
v 0.05699002 -0.05467498 -0.00050996
v 0.05699002 -0.05408042 -0.00048134
v 0.05699002 -0.05351332 -0.00042314
v 0.05755622 -0.05527110 0.00273892
v 0.05752538 -0.05526929 0.00069640
v 0.05734334 -0.05565245 0.00069640
v 0.05712805 -0.05594986 0.00069640
v 0.05695139 -0.05615971 0.00069640
v 0.05684361 -0.05615971 -0.00003671
v 0.05699152 -0.05584546 -0.00014420
v 0.05500517 -0.05351332 0.00049157
v 0.05500517 -0.05615971 0.00212890
v 0.05697954 -0.05615971 0.00273892
v 0.05639597 -0.05586359 -0.00050965
v 0.05580133 -0.05586359 -0.00044317
v 0.05521177 -0.05615971 -0.00033917
v 0.05500517 -0.05615971 -0.00028542
v 0.05735501 -0.05567085 0.00273892
v 0.05714242 -0.05596800 0.00273447
v 0.05714123 -0.05596955 0.00273892
v 0.05697954 -0.05615971 0.00273447
v 0.05639028 -0.05615971 -0.00033440
v 0.05580133 -0.05615971 -0.00045526
f 17 18 9
f 33 18 17
f 38 32 24
f 4 2 1
f 44 35 43
f 1 2 3
f 8 7 3
f 35 44 36
f 8 3 6
f 6 3 2
f 30 15 29
f 13 7 12
f 12 7 8
f 31 15 30
f 31 30 43
f 43 35 31
f 37 36 44
f 38 24 37
f 24 36 37
f 23 36 24
f 23 24 13
f 23 13 22
f 22 35 23
f 35 36 23
f 14 15 8
f 5 6 2
f 8 15 16
f 16 12 8
f 15 31 16
f 22 13 21
f 13 12 21
f 12 16 21
f 21 16 31
f 21 35 22
f 21 31 35
f 25 14 20
f 19 20 11
f 11 20 14
f 8 6 11
f 11 14 8
f 26 14 25
f 15 14 26
f 41 40 39
f 28 29 15
f 28 41 29
f 40 41 28
f 19 11 10
f 6 5 10
f 10 11 6
f 42 41 34
f 29 41 42
f 27 28 15
f 25 39 27
f 39 40 27
f 40 28 27
f 27 26 25
f 15 26 27
f 38 33 32
f 32 33 17
f 13 24 3
f 17 9 3
f 3 4 1
f 3 32 17
f 3 24 32
f 9 4 3
f 3 7 13
f 18 34 10
f 10 9 18
f 10 4 9
f 2 4 10
f 25 20 10
f 10 5 2
f 10 39 25
f 34 41 10
f 10 20 19
f 10 41 39
f 18 33 42
f 42 34 18
f 42 33 38
f 38 37 42
f 43 30 42
f 42 44 43
f 30 29 42
f 42 37 44
