# https://github.com/mikedh/trimesh
v -0.05752937 -0.02851480 0.00228886
v -0.05751924 -0.02851480 0.00171527
v -0.05751924 -0.02860907 0.00171527
v -0.05752891 -0.02860907 0.00228886
v -0.05740222 -0.02851480 0.00094327
v -0.05740222 -0.02860907 0.00094327
v -0.05629513 -0.02860907 0.00228886
v -0.05699725 -0.02851480 0.00058030
v -0.05699725 -0.02860907 0.00058030
v -0.05283610 -0.02860907 0.00185104
v -0.05282274 -0.02860638 0.00185104
v -0.05640247 -0.02860907 0.00048550
v -0.05282274 -0.02860907 0.00166002
v -0.05282274 -0.02860907 0.00049150
v -0.05751919 -0.02845850 0.00171527
v -0.05751873 -0.02845850 0.00171213
v -0.05629495 -0.02845850 0.00228886
v -0.05699480 -0.02845850 0.00057991
v -0.05640247 -0.02845850 0.00048550
v -0.05282274 -0.02845850 0.00049150
v -0.05752933 -0.02845850 0.00228886
v -0.05740219 -0.02845850 0.00094331
v -0.05740217 -0.02845850 0.00094328
v -0.05740055 -0.02845850 0.00094181
v -0.05736383 -0.02845850 0.00090889
v -0.05699725 -0.02845850 0.00058034
v -0.05282274 -0.02845850 0.00185104
v -0.05286340 -0.02845850 0.00185618
f 1 3 4
f 11 27 28
f 11 10 13
f 7 10 11
f 26 18 8
f 24 25 5
f 2 3 1
f 5 22 23
f 23 24 5
f 16 2 15
f 20 27 13
f 13 27 11
f 13 14 20
f 17 21 7
f 1 4 7
f 7 21 1
f 3 6 7
f 7 4 3
f 12 14 7
f 7 9 12
f 6 9 7
f 14 13 7
f 7 13 10
f 7 28 17
f 11 28 7
f 8 9 6
f 6 5 8
f 12 9 19
f 9 8 19
f 19 8 18
f 20 14 19
f 19 14 12
f 25 8 5
f 26 8 25
f 2 6 3
f 2 5 6
f 1 21 2
f 21 15 2
f 16 27 20
f 16 15 21
f 16 28 27
f 16 21 17
f 20 19 16
f 17 28 16
f 16 18 26
f 16 19 18
f 26 25 16
f 16 23 22
f 25 24 16
f 24 23 16
f 5 2 16
f 16 22 5
