# https://github.com/mikedh/trimesh
v -0.05752891 0.02917112 0.00228886
v -0.05751878 0.02917112 0.00171527
v -0.05751048 0.04224141 0.00228886
v -0.05750358 0.04224141 0.00171527
v -0.05739623 0.04224141 0.00095297
v -0.05750219 0.04224141 0.00170468
v -0.05628223 0.04224141 0.00228886
v -0.05739070 0.04224141 0.00094786
v -0.05699725 0.02917112 0.00058066
v -0.05699725 0.04224141 0.00059001
v -0.05628039 0.04106030 0.00228886
v -0.05282274 0.04224141 0.00185104
v -0.05628084 0.04203939 0.00228886
v -0.05698896 0.04224141 0.00058825
v -0.05640247 0.04224141 0.00048550
v -0.05628039 0.04165422 0.00228886
v -0.05282274 0.04224141 0.00049150
v -0.05752933 0.02863350 0.00228886
v -0.05751873 0.02863350 0.00171213
v -0.05751919 0.02863350 0.00171527
v -0.05740219 0.02863350 0.00094331
v -0.05740055 0.02863350 0.00094181
v -0.05740217 0.02863350 0.00094328
v -0.05736383 0.02863350 0.00090889
v -0.05699725 0.02863350 0.00058034
v -0.05282274 0.02863350 0.00185104
v -0.05286340 0.02863350 0.00185618
v -0.05282274 0.02863350 0.00049150
v -0.05629495 0.02863350 0.00228886
v -0.05640247 0.02863350 0.00048550
v -0.05699480 0.02863350 0.00057991
f 3 4 1
f 15 30 31
f 9 14 15
f 10 14 9
f 25 24 9
f 2 1 4
f 5 21 19
f 12 7 13
f 13 16 12
f 29 27 11
f 5 2 6
f 6 2 4
f 26 17 12
f 28 17 26
f 15 17 30
f 30 17 28
f 15 31 9
f 9 31 25
f 18 1 2
f 2 20 18
f 20 2 19
f 19 2 5
f 5 8 23
f 23 21 5
f 18 29 11
f 11 7 3
f 11 1 18
f 3 1 11
f 11 13 7
f 16 13 11
f 11 27 26
f 12 16 11
f 11 26 12
f 6 7 12
f 12 17 6
f 6 4 3
f 6 17 15
f 3 7 6
f 6 8 5
f 15 14 6
f 6 14 10
f 10 8 6
f 22 30 28
f 22 29 18
f 28 26 22
f 25 31 22
f 22 27 29
f 18 20 22
f 26 27 22
f 22 31 30
f 22 24 25
f 22 19 21
f 20 19 22
f 10 9 22
f 22 9 24
f 22 8 10
f 22 23 8
