# https://github.com/mikedh/trimesh
v 0.02879744 0.05734776 0.00236468
v 0.02879744 0.05732600 0.00171519
v 0.02879744 0.05718122 0.00126881
v 0.02879744 0.05704083 0.00083657
v 0.02879744 0.05647646 0.00046798
v 0.02879744 0.05533112 0.00049033
v 0.02879744 0.05626200 0.00236468
v 0.02879744 0.05533112 0.00185861
v 0.02879450 0.05732612 0.00171500
v 0.02879450 0.05734787 0.00236437
v 0.02879450 0.05718136 0.00126870
v 0.02879450 0.05704100 0.00083654
v 0.02879450 0.05647668 0.00046786
v 0.02879450 0.05704095 0.00083638
v 0.02879450 0.05533144 0.00049017
v 0.02879450 0.05533112 0.00185861
v 0.02879450 0.05626200 0.00236468
v 0.02879450 0.05533133 0.00185872
v 0.02879450 0.05734788 0.00236468
v 0.02879450 0.05734788 0.00236464
v 0.02879450 0.05647657 0.00046783
v 0.02879450 0.05533134 0.00049020
v 0.02879450 0.05533143 0.00049017
v 0.02879450 0.05533112 0.00049032
v 0.02879450 0.05533125 0.00049025
f 16 8 18
f 12 4 14
f 13 5 21
f 6 24 25
f 25 22 6
f 6 22 23
f 1 10 20
f 20 19 1
f 6 8 24
f 24 8 16
f 7 18 8
f 17 18 7
f 9 10 2
f 2 10 1
f 5 15 21
f 6 15 5
f 19 7 1
f 17 7 19
f 3 8 6
f 1 7 3
f 3 2 1
f 3 7 8
f 6 5 3
f 3 5 4
f 9 2 3
f 3 11 9
f 3 12 11
f 4 12 3
f 4 5 13
f 14 4 13
f 17 19 20
f 16 18 20
f 20 12 14
f 21 15 20
f 20 24 16
f 20 13 21
f 20 18 17
f 15 23 20
f 20 10 9
f 9 11 20
f 20 25 24
f 11 12 20
f 14 13 20
f 22 25 20
f 20 23 22
