# https://github.com/mikedh/trimesh
v -0.05361759 0.05795040 0.01058481
v -0.05361759 0.05692503 0.01058481
v -0.05361759 0.05793273 0.00990962
v -0.05402516 0.05787798 0.00986817
v -0.05402516 0.05789665 0.01058481
v -0.05661595 0.05537312 0.01058481
v -0.05361759 0.05669064 0.00340793
v -0.05361759 0.05785755 0.00713161
v -0.05444334 0.05781869 0.01058481
v -0.05402516 0.05784998 0.00884943
v -0.05778965 0.05537312 0.01058481
v -0.05632355 0.05537312 0.00340793
v -0.05361759 0.05775259 0.00340793
v -0.05461976 0.05778514 0.01058481
v -0.05402516 0.05782071 0.00782998
v -0.05778352 0.05538725 0.01058481
v -0.05777658 0.05537312 0.01013164
v -0.05756912 0.05537312 0.00340793
v -0.05382341 0.05772257 0.00340793
v -0.05402516 0.05779144 0.00681194
v -0.05461976 0.05776420 0.00986817
v -0.05503754 0.05767488 0.01058481
v -0.05402516 0.05770263 0.00375430
v -0.05402516 0.05769254 0.00340793
v -0.05758872 0.05575813 0.01058481
v -0.05737596 0.05575385 0.00340793
v -0.05461976 0.05773417 0.00884943
v -0.05461976 0.05770389 0.00782998
v -0.05521397 0.05762795 0.01058481
v -0.05441802 0.05761206 0.00340793
v -0.05461976 0.05767337 0.00681194
v -0.05749153 0.05594005 0.01058481
v -0.05716850 0.05605105 0.00340793
v -0.05730939 0.05624054 0.01058481
v -0.05730204 0.05623070 0.01018433
v -0.05728897 0.05621329 0.00950494
v -0.05521397 0.05760575 0.00986817
v -0.05552965 0.05741804 0.00708384
v -0.05555823 0.05743065 0.00782998
v -0.05559703 0.05744781 0.00884943
v -0.05563542 0.05746471 0.00986817
v -0.05566237 0.05747657 0.01058481
v -0.05461976 0.05757017 0.00340793
v -0.05505265 0.05745336 0.00340793
v -0.05687119 0.05639923 0.00340793
v -0.05705006 0.05652160 0.01058481
v -0.05521397 0.05757371 0.00884943
v -0.05550065 0.05740618 0.00640514
v -0.05585513 0.05729592 0.00782998
v -0.05589393 0.05731383 0.00884943
v -0.05593231 0.05733149 0.00986817
v -0.05580816 0.05716119 0.00340793
v -0.05595927 0.05734360 0.01058481
v -0.05534996 0.05735471 0.00340793
v -0.05656163 0.05670351 0.00375430
v -0.05655224 0.05669620 0.00340793
v -0.05673765 0.05684682 0.01058481
v -0.05672091 0.05683269 0.00986817
v -0.05670580 0.05682033 0.00924077
v -0.05668823 0.05680595 0.00856137
v -0.05666945 0.05679030 0.00782998
v -0.05625535 0.05691898 0.00340793
v -0.05640277 0.05707768 0.01058481
v -0.05634519 0.05698054 0.00681194
f 2 6 7
f 7 6 12
f 62 63 53
f 26 32 34
f 26 25 32
f 58 57 63
f 62 53 52
f 25 26 16
f 16 26 18
f 64 63 62
f 62 58 64
f 64 58 63
f 57 58 45
f 13 10 8
f 43 44 29
f 29 31 43
f 29 44 37
f 44 47 37
f 29 37 38
f 11 16 17
f 17 16 18
f 36 45 33
f 33 26 36
f 46 45 34
f 57 45 46
f 4 8 10
f 4 5 1
f 49 38 52
f 35 26 34
f 35 36 26
f 34 45 35
f 45 36 35
f 5 4 9
f 9 10 14
f 9 4 10
f 3 4 1
f 8 4 3
f 21 22 14
f 27 22 21
f 14 24 21
f 21 24 27
f 29 22 28
f 28 31 29
f 28 22 27
f 28 24 31
f 27 24 28
f 30 43 31
f 31 24 30
f 44 54 48
f 48 47 44
f 48 54 52
f 52 38 48
f 48 37 47
f 48 38 37
f 50 49 52
f 38 49 50
f 62 56 55
f 55 61 62
f 55 56 45
f 45 61 55
f 59 58 62
f 59 45 58
f 19 20 13
f 15 10 13
f 13 20 15
f 14 10 15
f 15 20 14
f 51 52 53
f 51 50 52
f 38 50 51
f 53 40 51
f 41 42 29
f 29 40 41
f 53 42 41
f 41 40 53
f 29 38 39
f 39 40 29
f 38 51 39
f 39 51 40
f 62 61 60
f 60 59 62
f 60 61 45
f 45 59 60
f 23 19 24
f 20 19 23
f 23 24 14
f 14 20 23
f 17 6 11
f 18 12 17
f 17 12 6
f 11 6 9
f 9 2 1
f 6 2 9
f 63 57 9
f 9 53 63
f 9 16 11
f 34 32 9
f 1 5 9
f 9 46 34
f 9 22 29
f 32 25 9
f 25 16 9
f 29 42 9
f 57 46 9
f 14 22 9
f 9 42 53
f 1 2 3
f 3 2 7
f 7 13 3
f 13 8 3
f 19 13 7
f 62 52 19
f 7 12 19
f 19 12 18
f 18 26 19
f 19 56 62
f 19 26 33
f 43 30 19
f 33 45 19
f 44 43 19
f 45 56 19
f 19 54 44
f 52 54 19
f 19 30 24
