# https://github.com/mikedh/trimesh
v -0.04200338 -0.02860943 0.01703004
v -0.04200338 -0.02911069 0.01703004
v -0.04200338 -0.02860943 0.01497315
v -0.04798822 -0.02860943 0.01703004
v -0.04200338 -0.02970516 0.01702541
v -0.04391846 -0.02970516 0.01703004
v -0.04332384 -0.02970516 0.01702904
v -0.04200338 -0.02911069 0.01497315
v -0.04798822 -0.02860943 0.01497315
v -0.04798822 -0.03080231 0.01703004
v -0.04200338 -0.03027828 0.01675700
v -0.04798822 -0.03089409 0.01702964
v -0.04748499 -0.03089409 0.01702742
v -0.04798822 -0.03139714 0.01700628
v -0.04798822 -0.03148856 0.01698272
v -0.04200338 -0.02924196 0.01497416
v -0.04332384 -0.02970516 0.01497436
v -0.04391846 -0.02970516 0.01497315
v -0.04798822 -0.03029963 0.01497315
v -0.04200338 -0.03054190 0.01598398
v -0.04798822 -0.03197951 0.01675196
v -0.04798822 -0.03205030 0.01670303
v -0.04200338 -0.02970516 0.01497799
v -0.04798822 -0.03089409 0.01497376
v -0.04689038 -0.03029963 0.01497315
v -0.04200338 -0.03032844 0.01539520
v -0.04798822 -0.03224312 0.01598398
v -0.04798822 -0.03204461 0.01528365
v -0.04200338 -0.02983003 0.01503316
v -0.04798822 -0.03148856 0.01501906
v -0.04748499 -0.03089409 0.01497597
v -0.04200338 -0.03026654 0.01522847
f 27 20 22
f 28 20 27
f 15 5 14
f 11 5 15
f 11 22 20
f 19 25 24
f 30 24 31
f 31 23 30
f 24 23 31
f 32 28 30
f 12 14 13
f 13 5 12
f 13 14 5
f 21 11 15
f 22 11 21
f 6 10 12
f 24 25 18
f 30 23 29
f 29 32 30
f 20 28 26
f 28 32 26
f 5 2 7
f 2 6 7
f 12 5 7
f 7 6 12
f 17 18 8
f 17 23 24
f 24 18 17
f 23 17 16
f 16 17 8
f 1 3 9
f 4 1 9
f 4 9 21
f 15 14 21
f 21 28 27
f 27 22 21
f 21 10 4
f 9 19 21
f 21 24 30
f 30 28 21
f 12 10 21
f 21 14 12
f 21 19 24
f 6 1 4
f 4 10 6
f 6 2 1
f 18 9 3
f 18 19 9
f 25 19 18
f 3 8 18
f 16 3 1
f 16 11 20
f 1 2 16
f 16 8 3
f 5 11 16
f 16 2 5
f 20 26 16
f 16 29 23
f 32 29 16
f 16 26 32
