# https://github.com/mikedh/trimesh
v 0.04456164 0.02972337 0.01497315
v 0.04846145 0.03091202 0.01497315
v 0.04456164 0.03031790 0.01505611
v 0.04514194 0.03031790 0.01500718
v 0.04573674 0.03031790 0.01498181
v 0.04846145 0.03150656 0.01498705
v 0.04751962 0.03091202 0.01497658
v 0.04811442 0.03091202 0.01497315
v 0.04846145 0.03091202 0.01703004
v 0.04456164 0.02972337 0.01703004
v 0.04456164 0.03072163 0.01530661
v 0.04846145 0.03210108 0.01515055
v 0.04811442 0.03150656 0.01500436
v 0.04846145 0.03125900 0.01702924
v 0.04811442 0.03091202 0.01703004
v 0.04846145 0.03150656 0.01701595
v 0.04456164 0.02973746 0.01702924
v 0.04456164 0.03083555 0.01598398
v 0.04835341 0.03243478 0.01541433
v 0.04846145 0.03247140 0.01538372
v 0.04811442 0.03150656 0.01699823
v 0.04514194 0.03031790 0.01699541
v 0.04573674 0.03031790 0.01702159
v 0.04846145 0.03185353 0.01696219
v 0.04456164 0.03031790 0.01694567
v 0.04456164 0.03073290 0.01665934
v 0.04846145 0.03252856 0.01637905
v 0.04846145 0.03255272 0.01598398
v 0.04846145 0.03210229 0.01684499
v 0.04456164 0.03032917 0.01693923
v 0.04456164 0.03072847 0.01667726
v 0.04834692 0.03243880 0.01656248
v 0.04846145 0.03247825 0.01659631
v 0.04846145 0.03236554 0.01669297
v 0.04456164 0.02859150 0.01497315
v 0.04846145 0.02859150 0.01497315
v 0.04846145 0.02859150 0.01703004
v 0.04456164 0.02859150 0.01703004
f 1 6 7
f 3 11 12
f 12 11 20
f 8 6 2
f 8 7 6
f 1 7 8
f 12 6 13
f 13 3 12
f 28 20 19
f 19 20 11
f 28 19 18
f 18 19 11
f 29 34 30
f 1 3 4
f 3 13 4
f 4 13 6
f 34 33 31
f 30 34 31
f 27 18 26
f 28 18 27
f 14 16 10
f 5 6 1
f 1 4 5
f 5 4 6
f 33 27 32
f 32 27 26
f 26 31 32
f 32 31 33
f 9 14 15
f 15 14 10
f 25 22 24
f 24 29 25
f 25 29 30
f 16 22 23
f 21 16 24
f 24 22 21
f 21 22 16
f 22 25 17
f 17 23 22
f 10 16 17
f 16 23 17
f 2 36 35
f 1 8 35
f 35 8 2
f 2 6 14
f 14 36 2
f 34 29 14
f 9 37 14
f 14 37 36
f 14 6 12
f 14 20 28
f 12 20 14
f 28 27 14
f 14 33 34
f 14 29 24
f 24 16 14
f 14 27 33
f 36 37 38
f 38 35 36
f 15 37 9
f 10 38 15
f 15 38 37
f 17 3 1
f 1 35 17
f 11 3 17
f 17 18 11
f 17 38 10
f 26 18 17
f 30 31 17
f 17 31 26
f 35 38 17
f 17 25 30
