# https://github.com/mikedh/trimesh
v 0.02879744 0.05657149 0.01354247
v 0.02879744 0.05654029 0.01058551
v 0.02879744 0.05776764 0.01354247
v 0.02879744 0.05756420 0.01058551
v 0.02879450 0.05657148 0.01354154
v 0.02879450 0.05654029 0.01058551
v 0.02879450 0.05756432 0.01058551
v 0.02879450 0.05776772 0.01354189
v 0.02879450 0.05657149 0.01354247
v 0.02879450 0.05776773 0.01354247
v 0.02879450 0.05776772 0.01354195
v 0.02879450 0.05776773 0.01354215
v 0.02879450 0.05776773 0.01354235
f 3 7 8
f 4 7 3
f 1 9 5
f 10 3 13
f 3 12 13
f 3 8 11
f 11 12 3
f 9 3 10
f 1 3 9
f 4 6 7
f 2 6 4
f 4 3 1
f 1 2 4
f 5 2 1
f 5 6 2
f 11 9 10
f 7 6 11
f 11 5 9
f 11 8 7
f 6 5 11
