# https://github.com/mikedh/trimesh
v 0.03201955 -0.05645850 0.00046806
v 0.03736814 -0.05701494 0.00083747
v 0.03380329 -0.05616010 0.00047400
v 0.03677531 -0.05645850 0.00046905
v 0.03915188 -0.05701494 0.00083846
v 0.04205860 -0.05729200 0.00171594
v 0.03974732 -0.05650752 0.01058581
v 0.04154673 -0.05616010 0.00220618
v 0.03796359 -0.05616010 0.00047499
v 0.03944960 -0.05616010 0.00047598
v 0.04034277 -0.05645850 0.00047202
v 0.04205860 -0.05732482 0.00273505
v 0.04205860 -0.05701494 0.00084143
v 0.04153106 -0.05650752 0.01058581
v 0.04170604 -0.05650779 0.01058581
v 0.04205860 -0.05616118 0.00220717
v 0.04205860 -0.05616010 0.00180904
v 0.04063789 -0.05616010 0.00047697
v 0.04153106 -0.05645850 0.00047400
v 0.04205860 -0.05734493 0.00339068
v 0.04205860 -0.05645850 0.00047598
v 0.04205860 -0.05753950 0.01058581
v 0.04205860 -0.05650860 0.01058581
v 0.04205860 -0.05616010 0.00047995
v 0.04205860 -0.05642407 0.00047598
v 0.04205860 -0.05735789 0.00384229
v 0.04205860 -0.05735952 0.00390073
v 0.04205860 -0.05751723 0.00975092
v 0.02875250 -0.05645850 0.00046806
v 0.02875250 -0.05701494 0.00083747
v 0.02875250 -0.05616010 0.00047400
v 0.02875250 -0.05729200 0.00171594
v 0.02875250 -0.05616035 0.00221221
v 0.02875250 -0.05616010 0.00220618
v 0.02875250 -0.05616032 0.00221137
v 0.02875250 -0.05733490 0.00306370
v 0.02875250 -0.05650765 0.01058581
v 0.02875250 -0.05735877 0.00387094
v 0.02875250 -0.05735227 0.00364456
v 0.02875250 -0.05735959 0.00390023
v 0.02875250 -0.05743911 0.00683960
v 0.02875250 -0.05752934 0.01019067
v 0.02875250 -0.05751817 0.00977216
v 0.02875250 -0.05732482 0.00273505
v 0.02875250 -0.05734493 0.00339068
v 0.02875250 -0.05753141 0.01058581
f 22 46 42
f 33 37 7
f 4 2 1
f 8 16 17
f 8 14 15
f 15 16 8
f 23 16 15
f 5 13 6
f 6 2 5
f 5 11 13
f 5 2 4
f 4 11 5
f 28 41 27
f 43 41 28
f 35 33 7
f 19 21 13
f 13 11 19
f 24 19 18
f 18 19 11
f 4 1 3
f 3 9 4
f 39 45 20
f 44 12 36
f 20 45 36
f 36 12 20
f 40 27 41
f 26 27 40
f 38 26 40
f 25 19 24
f 21 19 25
f 10 11 4
f 10 18 11
f 4 9 10
f 32 30 2
f 6 32 2
f 1 30 29
f 1 2 30
f 22 23 15
f 7 37 15
f 15 46 22
f 15 37 46
f 15 14 7
f 12 44 32
f 12 32 6
f 43 28 22
f 22 42 43
f 35 8 34
f 7 14 35
f 35 14 8
f 29 31 3
f 3 1 29
f 39 20 26
f 39 26 38
f 40 31 29
f 40 43 42
f 29 30 40
f 46 37 40
f 34 31 40
f 40 30 32
f 32 44 40
f 40 42 46
f 44 36 40
f 40 35 34
f 37 33 40
f 40 39 38
f 41 43 40
f 33 35 40
f 45 39 40
f 40 36 45
f 6 13 25
f 25 23 22
f 24 17 25
f 22 28 25
f 25 27 26
f 13 21 25
f 25 12 6
f 25 16 23
f 26 20 25
f 25 17 16
f 20 12 25
f 28 27 25
f 10 31 34
f 10 17 24
f 34 8 10
f 24 18 10
f 8 17 10
f 10 3 31
f 9 3 10
