# https://github.com/mikedh/trimesh
v -0.02876376 -0.04985556 0.01703004
v -0.02876376 -0.05331853 0.01703004
v -0.02876376 -0.04985556 0.01497315
v -0.03196459 -0.04985556 0.01703004
v -0.02876376 -0.05331853 0.01497315
v -0.03602181 -0.05331853 0.01703004
v -0.03143354 -0.04985556 0.01497315
v -0.03202832 -0.04985556 0.01702964
v -0.03661659 -0.05331853 0.01702904
v -0.03559474 -0.05289100 0.01703004
v -0.03559474 -0.05331853 0.01497315
v -0.03202832 -0.04991897 0.01497315
v -0.03202832 -0.04985556 0.01497376
v -0.03255937 -0.04985556 0.01702138
v -0.03721136 -0.05331853 0.01701615
v -0.03618839 -0.05331853 0.01497436
v -0.03559474 -0.05289100 0.01497315
v -0.03618839 -0.05289100 0.01497738
v -0.03262309 -0.04991897 0.01498262
v -0.03262309 -0.04985556 0.01499470
v -0.03262309 -0.04985556 0.01700849
v -0.03892973 -0.05331853 0.01678720
v -0.03838750 -0.05331853 0.01688264
v -0.03780502 -0.05331853 0.01696843
v -0.03678317 -0.05331853 0.01498503
v -0.03678317 -0.05289100 0.01501544
v -0.03797272 -0.05331853 0.01506980
v -0.03856638 -0.05331853 0.01514713
v -0.03916115 -0.05331853 0.01527036
v -0.03960836 -0.05331853 0.01536319
v -0.03325141 -0.04985556 0.01519747
v -0.03324470 -0.04985556 0.01680110
v -0.03962960 -0.05331853 0.01662269
v -0.03949208 -0.05331853 0.01666256
v -0.04018412 -0.05331853 0.01598398
v -0.03949544 -0.05318122 0.01545944
v -0.03368296 -0.05004780 0.01532432
v -0.03367178 -0.04985556 0.01598398
v -0.03325812 -0.04985556 0.01679284
v -0.03951780 -0.05317647 0.01651798
v -0.03358681 -0.04985556 0.01632931
f 41 38 35
f 38 31 37
f 35 38 37
f 37 31 35
f 15 14 24
f 9 14 15
f 35 33 40
f 32 33 21
f 14 21 22
f 39 41 35
f 35 40 39
f 39 33 32
f 39 40 33
f 16 17 11
f 36 30 35
f 35 31 36
f 31 30 36
f 9 6 10
f 10 4 9
f 8 14 9
f 9 4 8
f 24 14 23
f 14 22 23
f 34 21 33
f 34 22 21
f 18 12 17
f 18 17 16
f 25 18 16
f 27 28 19
f 27 19 26
f 26 19 18
f 26 25 27
f 18 25 26
f 12 18 13
f 18 19 13
f 13 7 12
f 20 13 19
f 20 30 31
f 20 29 30
f 28 29 20
f 20 19 28
f 5 3 1
f 1 2 5
f 10 2 1
f 10 6 2
f 1 4 10
f 3 5 7
f 5 11 7
f 7 11 17
f 17 12 7
f 25 5 2
f 2 6 25
f 25 33 35
f 25 28 27
f 35 30 25
f 30 29 25
f 25 6 9
f 25 15 24
f 25 11 5
f 9 15 25
f 24 23 25
f 16 11 25
f 25 34 33
f 25 23 22
f 22 34 25
f 25 29 28
f 1 3 20
f 14 8 20
f 38 41 20
f 20 31 38
f 20 4 1
f 32 21 20
f 20 39 32
f 20 21 14
f 41 39 20
f 20 8 4
f 3 7 20
f 7 13 20
