# https://github.com/mikedh/trimesh
v -0.05411814 0.05621472 0.01710184
v -0.05411814 0.05621472 0.01485374
v -0.05459764 0.05621472 0.01716833
v -0.05411814 0.05309896 0.01703015
v -0.05411814 0.05309896 0.01497322
v -0.05569372 0.05621472 0.01464698
v -0.05559498 0.05621472 0.01730054
v -0.05698434 0.05309896 0.01730054
v -0.05701267 0.05309896 0.01464698
v -0.05742260 0.05621472 0.01464698
v -0.05741427 0.05621472 0.01730054
v -0.05835412 0.05309896 0.01730054
v -0.05837203 0.05309896 0.01464698
v -0.05747760 0.05612383 0.01464698
v -0.05742344 0.05621472 0.01470647
v -0.05743177 0.05621472 0.01700287
v -0.05760632 0.05592374 0.01700287
v -0.05752717 0.05602622 0.01730054
v -0.05835162 0.05312489 0.01730054
v -0.05835745 0.05309896 0.01725560
v -0.05837328 0.05309896 0.01496491
v -0.05831621 0.05354581 0.01464698
v -0.05759841 0.05592374 0.01464698
v -0.05742510 0.05621472 0.01496491
v -0.05760091 0.05592374 0.01496491
v -0.05743135 0.05621472 0.01673430
v -0.05782712 0.05547902 0.01496491
v -0.05782796 0.05548024 0.01598363
v -0.05782879 0.05548146 0.01700287
v -0.05758800 0.05592374 0.01730054
v -0.05833871 0.05322920 0.01730054
v -0.05837203 0.05309896 0.01700287
v -0.05837370 0.05309896 0.01598363
v -0.05831704 0.05354581 0.01496491
v -0.05821664 0.05414030 0.01496491
v -0.05821539 0.05414030 0.01464698
v -0.05767048 0.05578312 0.01464698
v -0.05782587 0.05547688 0.01464698
v -0.05794752 0.05517980 0.01464698
v -0.05794835 0.05518163 0.01496491
v -0.05794877 0.05518437 0.01700287
v -0.05785545 0.05537379 0.01730054
v -0.05782004 0.05546041 0.01730054
v -0.05774547 0.05561048 0.01730054
v -0.05829913 0.05354581 0.01730054
v -0.05831579 0.05354581 0.01700287
v -0.05831663 0.05354581 0.01598363
v -0.05821622 0.05414030 0.01700287
v -0.05808125 0.05473447 0.01700287
v -0.05808125 0.05473447 0.01598363
v -0.05808083 0.05473447 0.01496491
v -0.05812207 0.05454963 0.01464698
v -0.05798834 0.05504223 0.01464698
v -0.05807958 0.05473447 0.01464698
v -0.05803459 0.05484488 0.01730054
v -0.05794044 0.05516332 0.01730054
v -0.05827163 0.05371937 0.01730054
v -0.05820081 0.05414030 0.01730054
v -0.05806542 0.05473447 0.01730054
f 2 5 6
f 6 5 9
f 4 7 8
f 3 4 1
f 3 7 4
f 32 46 33
f 48 58 49
f 17 11 16
f 46 32 45
f 33 34 21
f 33 46 47
f 47 34 33
f 47 46 48
f 48 34 47
f 13 21 22
f 22 21 34
f 59 49 58
f 40 51 41
f 26 24 25
f 26 17 16
f 25 17 26
f 25 23 37
f 25 24 15
f 15 23 25
f 41 56 42
f 38 39 27
f 39 40 27
f 27 17 25
f 27 37 38
f 25 37 27
f 29 43 44
f 44 30 29
f 29 30 17
f 29 42 43
f 41 42 29
f 29 40 41
f 46 45 57
f 48 46 57
f 57 58 48
f 50 49 41
f 41 51 50
f 52 51 54
f 51 40 54
f 49 59 55
f 55 56 41
f 41 49 55
f 14 15 10
f 23 15 14
f 11 17 18
f 17 30 18
f 28 27 40
f 40 29 28
f 17 27 28
f 28 29 17
f 12 19 20
f 35 50 51
f 52 36 35
f 35 51 52
f 35 34 48
f 48 49 35
f 49 50 35
f 35 36 22
f 35 22 34
f 53 40 39
f 53 54 40
f 31 20 19
f 32 20 31
f 31 45 32
f 4 5 2
f 1 4 2
f 1 2 15
f 15 2 6
f 15 3 1
f 6 10 15
f 7 3 15
f 15 11 7
f 16 11 15
f 15 26 16
f 24 26 15
f 20 5 4
f 4 8 20
f 20 9 5
f 20 32 33
f 13 9 20
f 20 8 12
f 33 21 20
f 20 21 13
f 53 9 13
f 53 10 6
f 6 9 53
f 53 39 38
f 52 54 53
f 53 36 52
f 13 22 53
f 38 37 53
f 53 37 23
f 22 36 53
f 53 14 10
f 23 14 53
f 12 8 31
f 7 11 31
f 31 8 7
f 31 42 56
f 31 19 12
f 58 57 31
f 44 43 31
f 56 55 31
f 31 59 58
f 43 42 31
f 31 30 44
f 31 57 45
f 11 18 31
f 31 55 59
f 31 18 30
