# https://github.com/mikedh/trimesh
v -0.05840142 0.04463002 0.00228886
v -0.05840202 0.04522272 0.00228886
v -0.05703409 0.04463002 0.00228886
v -0.05849193 0.04463002 0.00690497
v -0.05840202 0.04641153 0.00228886
v -0.05849208 0.04522272 0.00689116
v -0.05703139 0.04848789 0.00228886
v -0.05752623 0.04849129 0.01058470
v -0.05754077 0.04463002 0.01058470
v -0.05850976 0.04463002 0.00782998
v -0.05851021 0.04522272 0.00782998
v -0.05840186 0.04700575 0.00228886
v -0.05849208 0.04641153 0.00689116
v -0.05704698 0.04849129 0.00228886
v -0.05703304 0.04849129 0.00229210
v -0.05854888 0.04849129 0.01058470
v -0.05856191 0.04463002 0.01058470
v -0.05852939 0.04463002 0.00884919
v -0.05852969 0.04522272 0.00884919
v -0.05851021 0.04641153 0.00782998
v -0.05840022 0.04734028 0.00228886
v -0.05849178 0.04700575 0.00689928
v -0.05850976 0.04700575 0.00782998
v -0.05838973 0.04849129 0.00228886
v -0.05855233 0.04819494 0.01058470
v -0.05854513 0.04849129 0.01037680
v -0.05854858 0.04463002 0.00986840
v -0.05856221 0.04522272 0.01058470
v -0.05854888 0.04522272 0.00986840
v -0.05852969 0.04641153 0.00884919
v -0.05839887 0.04760034 0.00228886
v -0.05849013 0.04760034 0.00698537
v -0.05852925 0.04700575 0.00884919
v -0.05850632 0.04760034 0.00782998
v -0.05839302 0.04819494 0.00228886
v -0.05848549 0.04849129 0.00722332
v -0.05855412 0.04801841 0.01058470
v -0.05853913 0.04819494 0.00986840
v -0.05853569 0.04849129 0.00986840
v -0.05856221 0.04641153 0.01058470
v -0.05854888 0.04641153 0.00986840
v -0.05839572 0.04793487 0.00228886
v -0.05850047 0.04819494 0.00782998
v -0.05848713 0.04819494 0.00714048
v -0.05854843 0.04700575 0.00986840
v -0.05852580 0.04760034 0.00884919
v -0.05851995 0.04819494 0.00884919
v -0.05850677 0.04849129 0.00833836
v -0.05855817 0.04760034 0.01058470
v -0.05854498 0.04760034 0.00986840
v -0.05852610 0.04849129 0.00935758
v -0.05856161 0.04700575 0.01058470
v -0.05855922 0.04742382 0.01058470
v -0.05851651 0.04849129 0.00884919
f 7 8 3
f 15 8 7
f 9 3 8
f 14 15 7
f 4 2 1
f 6 2 4
f 40 52 45
f 12 5 13
f 18 27 19
f 41 40 45
f 45 52 53
f 12 13 22
f 32 31 22
f 42 31 32
f 19 27 29
f 11 18 19
f 6 4 11
f 30 41 33
f 33 41 45
f 33 20 30
f 12 22 21
f 21 22 31
f 35 36 24
f 47 38 51
f 10 11 4
f 18 11 10
f 32 22 23
f 20 33 23
f 13 20 23
f 23 22 13
f 36 35 44
f 44 35 42
f 44 42 32
f 47 51 54
f 26 25 16
f 38 25 26
f 34 46 47
f 32 23 34
f 33 46 34
f 34 23 33
f 50 38 47
f 47 46 50
f 50 53 49
f 45 53 50
f 50 33 45
f 50 46 33
f 43 47 36
f 36 44 43
f 43 44 32
f 32 34 43
f 43 34 47
f 36 47 48
f 47 54 48
f 39 51 38
f 38 26 39
f 37 50 49
f 37 25 38
f 38 50 37
f 13 5 2
f 13 2 6
f 29 17 28
f 29 27 17
f 28 40 29
f 40 41 29
f 30 19 29
f 29 41 30
f 11 13 6
f 11 20 13
f 11 19 30
f 30 20 11
f 7 3 35
f 35 14 7
f 35 3 1
f 35 5 12
f 24 14 35
f 1 2 35
f 2 5 35
f 12 21 35
f 31 42 35
f 35 21 31
f 1 3 10
f 9 17 10
f 3 9 10
f 10 4 1
f 17 27 10
f 27 18 10
f 39 14 24
f 39 16 8
f 8 15 39
f 15 14 39
f 24 36 39
f 39 26 16
f 39 54 51
f 36 48 39
f 39 48 54
f 8 16 37
f 28 17 37
f 37 9 8
f 37 17 9
f 37 40 28
f 52 40 37
f 37 53 52
f 49 53 37
f 16 25 37
