# https://github.com/mikedh/trimesh
v 0.03771150 0.05257445 0.01598398
v 0.03760155 0.05257445 0.01541675
v 0.03769143 0.05257445 0.01643080
v 0.03213498 0.04771110 0.01598398
v 0.03741308 0.05257445 0.01534063
v 0.03195174 0.04771110 0.01528606
v 0.03146834 0.04771110 0.01504021
v 0.03762947 0.05257445 0.01655443
v 0.03195785 0.04771110 0.01669921
v 0.03204946 0.04771110 0.01641469
v 0.03681799 0.05257445 0.01517210
v 0.03087413 0.04771110 0.01497335
v 0.03146834 0.04815340 0.01498564
v 0.03562957 0.05231450 0.01499651
v 0.03748027 0.05257445 0.01662752
v 0.03163326 0.04771110 0.01689654
v 0.03562957 0.05257445 0.01498624
v 0.03027904 0.04771110 0.01497315
v 0.03087413 0.04815340 0.01497315
v 0.03146834 0.04874804 0.01497315
v 0.03444027 0.05231450 0.01497315
v 0.03503449 0.05257445 0.01497355
v 0.03503449 0.05231450 0.01497396
v 0.03704486 0.05257445 0.01676968
v 0.03146834 0.04771110 0.01696178
v 0.02879831 0.04771110 0.01497315
v 0.03444027 0.05257445 0.01497315
v 0.03648380 0.05257445 0.01692634
v 0.03588872 0.05257445 0.01701514
v 0.03102595 0.04771110 0.01702682
v 0.02879831 0.04771110 0.01703004
v 0.02879831 0.05257445 0.01497315
v 0.03529451 0.05257445 0.01702984
v 0.03087413 0.04771110 0.01703004
v 0.02879831 0.05257445 0.01703004
v 0.03470030 0.05257445 0.01703004
f 4 6 2
f 1 4 2
f 2 6 7
f 12 13 7
f 12 21 22
f 29 33 30
f 25 29 30
f 9 8 16
f 28 29 25
f 9 10 3
f 3 8 9
f 3 10 4
f 3 4 1
f 17 11 14
f 14 11 7
f 7 13 14
f 14 12 17
f 13 12 14
f 5 2 7
f 7 11 5
f 22 21 27
f 23 22 17
f 17 12 23
f 23 12 22
f 33 36 34
f 34 30 33
f 24 28 25
f 18 19 12
f 21 12 20
f 12 19 20
f 15 24 25
f 25 16 15
f 15 16 8
f 26 31 35
f 35 32 26
f 34 35 31
f 34 36 35
f 4 10 18
f 18 31 26
f 18 6 4
f 18 34 31
f 7 6 18
f 18 16 25
f 18 10 9
f 18 12 7
f 25 30 18
f 9 16 18
f 30 34 18
f 26 32 20
f 32 27 20
f 20 27 21
f 20 18 26
f 19 18 20
f 32 35 15
f 15 11 17
f 1 2 15
f 2 5 15
f 29 28 15
f 17 22 15
f 15 33 29
f 35 36 15
f 15 3 1
f 15 36 33
f 15 27 32
f 8 3 15
f 15 5 11
f 22 27 15
f 28 24 15
