# https://github.com/mikedh/trimesh
v -0.05658327 -0.04159221 0.01387138
v -0.05802773 -0.04159221 0.01387138
v -0.05658347 -0.04159542 0.01387138
v -0.05661125 -0.04219013 0.00979437
v -0.05660986 -0.04214667 0.00979437
v -0.05659280 -0.04159542 0.00979437
v -0.05659280 -0.04159221 0.00979437
v -0.05762509 -0.04159221 0.00979437
v -0.05849545 -0.04235843 0.01387138
v -0.05664320 -0.04221434 0.01387138
v -0.05665927 -0.04262706 0.00979437
v -0.05850438 -0.04303685 0.00979437
v -0.05854823 -0.04275218 0.01387138
v -0.05664538 -0.04222601 0.01387138
v -0.05666424 -0.04267168 0.00979437
v -0.05853474 -0.04337869 0.00979437
v -0.05853653 -0.04337869 0.00986900
v -0.05855796 -0.04337869 0.01088825
v -0.05857780 -0.04337869 0.01190710
v -0.05854962 -0.04276414 0.01387138
v -0.05669321 -0.04246868 0.01387138
v -0.05666920 -0.04269647 0.00979437
v -0.05853573 -0.04342214 0.00979437
v -0.05854566 -0.04397340 0.00979437
v -0.05859467 -0.04337869 0.01292596
v -0.05856609 -0.04397340 0.01088825
v -0.05858415 -0.04397340 0.01190710
v -0.05860539 -0.04337869 0.01387138
v -0.05757925 -0.04457191 0.01387138
v -0.05673171 -0.04296539 0.00979437
v -0.05854585 -0.04401686 0.00979437
v -0.05860003 -0.04397340 0.01292596
v -0.05860579 -0.04342214 0.01387138
v -0.05854863 -0.04456782 0.00986900
v -0.05856748 -0.04456782 0.01088825
v -0.05858535 -0.04456782 0.01190710
v -0.05861035 -0.04457191 0.01387138
v -0.05752468 -0.04457191 0.00979437
v -0.05854724 -0.04456782 0.00979437
v -0.05860975 -0.04397340 0.01387138
v -0.05860102 -0.04456782 0.01292596
v -0.05854863 -0.04457191 0.00986860
v -0.05856748 -0.04457191 0.01088825
v -0.05858535 -0.04457191 0.01190710
v -0.05861035 -0.04456782 0.01387138
v -0.05860102 -0.04457191 0.01292596
v -0.05854724 -0.04457191 0.00979437
f 30 21 29
f 29 38 30
f 6 7 1
f 8 9 2
f 12 9 8
f 3 4 1
f 3 10 4
f 1 4 5
f 5 6 1
f 21 15 14
f 14 15 10
f 21 30 22
f 22 15 21
f 4 10 11
f 10 15 11
f 13 9 12
f 12 20 13
f 19 20 12
f 16 17 12
f 28 20 25
f 20 19 25
f 12 17 18
f 18 19 12
f 17 16 23
f 32 40 33
f 28 25 33
f 33 25 32
f 19 26 27
f 32 25 27
f 27 25 19
f 35 27 26
f 19 18 24
f 24 26 19
f 24 18 17
f 17 23 24
f 41 40 32
f 34 35 26
f 27 35 36
f 32 27 36
f 36 41 32
f 40 41 45
f 26 24 31
f 31 34 26
f 42 43 35
f 35 34 42
f 34 31 39
f 47 42 39
f 39 42 34
f 8 2 1
f 1 7 8
f 36 43 44
f 35 43 36
f 44 46 36
f 46 41 36
f 45 3 1
f 37 29 45
f 1 2 45
f 29 21 45
f 9 13 45
f 2 9 45
f 10 3 45
f 21 14 45
f 45 14 10
f 45 20 28
f 45 13 20
f 28 33 45
f 45 33 40
f 45 46 37
f 45 41 46
f 42 29 37
f 42 47 38
f 42 38 29
f 37 46 42
f 42 46 44
f 44 43 42
f 39 8 7
f 39 22 30
f 38 47 39
f 39 30 38
f 7 6 39
f 4 11 39
f 12 8 39
f 39 5 4
f 6 5 39
f 15 22 39
f 39 11 15
f 39 16 12
f 39 23 16
f 39 24 23
f 39 31 24
