# https://github.com/mikedh/trimesh
v -0.05224201 -0.05705289 -0.00052829
v -0.05164718 -0.05705289 -0.00052223
v -0.04898665 -0.05762099 -0.00018575
v -0.04926948 -0.05761851 -0.00018575
v -0.05045833 -0.05760212 -0.00018475
v -0.05283603 -0.05705289 -0.00052122
v -0.05521374 -0.05645848 -0.00052122
v -0.04898665 -0.05705289 -0.00044847
v -0.04898665 -0.05732436 -0.00032620
v -0.05550143 -0.05617042 -0.00048383
v -0.04898665 -0.05775253 0.00023459
v -0.04986350 -0.05761070 -0.00018475
v -0.05105235 -0.05759182 -0.00018373
v -0.04898665 -0.05789494 0.00069636
v -0.04926948 -0.05789017 0.00069636
v -0.05343006 -0.05705289 -0.00049899
v -0.05164718 -0.05757829 -0.00018272
v -0.05224201 -0.05756284 -0.00017767
v -0.05580776 -0.05645848 -0.00046666
v -0.05609626 -0.05617042 -0.00048788
v -0.05402407 -0.05705289 -0.00045150
v -0.04898665 -0.05680601 -0.00025345
v -0.04898665 -0.05617042 0.00038110
v -0.04898665 -0.05658315 -0.00007562
v -0.04898665 -0.05811799 0.00979437
v -0.04926948 -0.05811322 0.00979437
v -0.04931243 -0.05811226 0.00979437
v -0.04986350 -0.05809816 0.00979437
v -0.04986350 -0.05787492 0.00069636
v -0.05283603 -0.05753539 -0.00015645
v -0.05045833 -0.05785777 0.00069636
v -0.05105235 -0.05783622 0.00069636
v -0.05164718 -0.05780629 0.00069636
v -0.05461890 -0.05705289 -0.00032822
v -0.05580776 -0.05690629 -0.00009380
v -0.05639124 -0.05646153 -0.00015544
v -0.05639691 -0.05617042 -0.00032822
v -0.05343006 -0.05750165 -0.00012614
v -0.05402407 -0.05746390 -0.00007763
v -0.04898665 -0.05617042 0.00191091
v -0.04898665 -0.05709483 0.00979437
v -0.04990726 -0.05809701 0.00979437
v -0.05045833 -0.05808177 0.00979437
v -0.05224201 -0.05777217 0.00069636
v -0.05050128 -0.05808024 0.00979437
v -0.05105235 -0.05806041 0.00979437
v -0.05164718 -0.05802934 0.00979437
v -0.05517646 -0.05708091 -0.00012816
v -0.05618621 -0.05681078 0.00005170
v -0.05461890 -0.05740404 0.00004463
v -0.05495441 -0.05736172 0.00015072
v -0.05680130 -0.05626536 0.00000017
v -0.05684587 -0.05617042 -0.00003318
v -0.05667812 -0.05617042 -0.00015039
v -0.05283603 -0.05771936 0.00069636
v -0.05343006 -0.05764997 0.00069636
v -0.05573077 -0.05617042 0.00979437
v -0.05224444 -0.05799350 0.00979437
v -0.05227767 -0.05799121 0.00979437
v -0.05260912 -0.05795118 0.00910525
v -0.05270394 -0.05796014 0.00979437
v -0.05580776 -0.05703497 0.00069636
v -0.05620809 -0.05682641 0.00069636
v -0.05650551 -0.05660031 0.00069636
v -0.05402407 -0.05756723 0.00069636
v -0.05461890 -0.05768752 0.00979437
v -0.05521374 -0.05752872 0.00979437
v -0.05524048 -0.05752014 0.00979437
v -0.05561569 -0.05739623 0.00979437
v -0.05524777 -0.05726145 0.00069636
v -0.05683777 -0.05630311 0.00069636
v -0.05694960 -0.05617042 0.00069636
v -0.05690179 -0.05617042 0.00020933
v -0.05299811 -0.05792983 0.00979437
v -0.05304187 -0.05792487 0.00979437
v -0.05343006 -0.05787930 0.00979437
v -0.05402407 -0.05780191 0.00979437
v -0.05724297 -0.05617042 0.00979437
v -0.05591311 -0.05726316 0.00979437
v -0.05595038 -0.05724143 0.00979437
v -0.05645040 -0.05694098 0.00979437
v -0.05646012 -0.05693488 0.00979437
v -0.05648606 -0.05691734 0.00979437
v -0.05670000 -0.05675568 0.00936089
v -0.05406784 -0.05779352 0.00979437
v -0.05699985 -0.05646038 0.00979437
v -0.05726484 -0.05617042 0.00962057
v -0.05703794 -0.05641921 0.00979437
v -0.05698121 -0.05647925 0.00979437
f 4 1 3
f 51 62 49
f 49 62 63
f 3 1 2
f 2 10 8
f 63 62 79
f 57 41 40
f 65 66 51
f 11 4 3
f 11 14 12
f 12 4 11
f 72 71 87
f 19 36 20
f 24 10 23
f 3 2 9
f 9 2 8
f 70 62 51
f 19 34 35
f 35 36 19
f 49 36 35
f 51 49 35
f 21 34 19
f 63 84 64
f 64 84 71
f 64 49 63
f 83 84 63
f 53 36 52
f 52 36 49
f 52 73 53
f 52 64 71
f 49 64 52
f 72 73 52
f 71 72 52
f 37 20 36
f 19 20 7
f 7 21 19
f 1 6 7
f 7 20 10
f 7 2 1
f 10 2 7
f 8 10 22
f 10 24 22
f 51 66 67
f 67 68 51
f 51 68 69
f 69 70 51
f 69 79 62
f 62 70 69
f 29 43 31
f 32 18 31
f 31 18 29
f 31 46 32
f 66 65 85
f 65 77 85
f 61 55 44
f 44 47 58
f 30 44 38
f 38 21 30
f 39 44 55
f 39 38 44
f 34 21 39
f 21 38 39
f 18 6 17
f 6 13 17
f 29 18 17
f 17 15 29
f 17 13 15
f 5 6 1
f 5 13 6
f 1 4 5
f 5 4 12
f 12 14 5
f 14 15 5
f 15 13 5
f 16 18 30
f 30 21 16
f 16 6 18
f 16 7 6
f 21 7 16
f 84 83 89
f 54 36 53
f 54 37 36
f 26 27 15
f 29 15 28
f 15 27 28
f 46 31 45
f 45 31 43
f 61 44 60
f 47 44 33
f 46 47 33
f 32 46 33
f 33 18 32
f 30 18 33
f 33 44 30
f 74 55 61
f 56 76 77
f 56 77 65
f 56 39 55
f 50 65 51
f 51 35 50
f 50 56 65
f 39 56 50
f 88 78 87
f 63 79 80
f 80 81 63
f 82 83 63
f 63 81 82
f 42 43 29
f 29 28 42
f 61 60 59
f 59 44 58
f 59 60 44
f 76 56 75
f 55 74 75
f 75 56 55
f 34 39 48
f 39 50 48
f 48 35 34
f 48 50 35
f 87 71 86
f 86 88 87
f 71 84 86
f 84 89 86
f 22 41 25
f 22 24 23
f 40 41 22
f 22 23 40
f 22 11 3
f 25 14 22
f 14 11 22
f 3 9 22
f 22 9 8
f 40 23 54
f 87 78 54
f 78 57 54
f 54 72 87
f 23 10 54
f 54 57 40
f 53 73 54
f 10 20 54
f 54 73 72
f 20 37 54
f 26 14 25
f 26 15 14
f 25 41 86
f 43 42 86
f 41 57 86
f 86 47 46
f 78 88 86
f 86 57 78
f 46 45 86
f 86 67 66
f 79 69 86
f 83 82 86
f 66 85 86
f 86 74 61
f 68 67 86
f 86 69 68
f 58 47 86
f 86 26 25
f 86 85 77
f 77 76 86
f 86 89 83
f 86 80 79
f 27 26 86
f 86 28 27
f 86 45 43
f 61 59 86
f 76 75 86
f 81 80 86
f 86 82 81
f 86 42 28
f 86 59 58
f 86 75 74
