# https://github.com/mikedh/trimesh
v -0.05754733 -0.02860907 0.00336425
v -0.05648687 -0.02860907 0.00336425
v -0.05753695 -0.02860907 0.00273442
v -0.05754684 -0.02911131 0.00336425
v -0.05508203 -0.02860907 0.00185152
v -0.05644295 -0.04100034 0.00336425
v -0.05751909 -0.02860907 0.00171569
v -0.05751885 -0.02911131 0.00171569
v -0.05753647 -0.02911131 0.00273442
v -0.05753477 -0.03030035 0.00273442
v -0.05754563 -0.02993256 0.00336425
v -0.05508203 -0.02860907 0.00049153
v -0.05508203 -0.03921679 0.00185152
v -0.05644319 -0.04159486 0.00336425
v -0.05508203 -0.04207601 0.00185124
v -0.05750099 -0.02860907 0.00159479
v -0.05739504 -0.04207601 0.00095482
v -0.05750050 -0.04207601 0.00171569
v -0.05754419 -0.03089487 0.00336425
v -0.05508203 -0.04207601 0.00049153
v -0.05640289 -0.02860907 0.00048560
v -0.05644923 -0.04207601 0.00336425
v -0.05740204 -0.02860907 0.00094354
v -0.05740180 -0.02911131 0.00094382
v -0.05699731 -0.04207601 0.00059185
v -0.05752343 -0.04207601 0.00336425
v -0.05640289 -0.04207601 0.00048560
v -0.05690439 -0.02860907 0.00056536
v -0.05733881 -0.02860907 0.00088661
v -0.05699731 -0.02911131 0.00058058
v -0.05699731 -0.02860907 0.00058030
f 2 6 5
f 5 6 13
f 13 6 15
f 18 8 17
f 14 22 15
f 15 6 14
f 21 27 28
f 27 31 28
f 17 24 25
f 25 24 23
f 3 7 8
f 8 7 16
f 23 24 16
f 17 8 16
f 16 24 17
f 19 18 26
f 27 25 30
f 30 31 27
f 9 3 8
f 8 18 9
f 9 18 10
f 31 30 29
f 29 25 23
f 29 30 25
f 4 9 10
f 11 4 10
f 10 18 11
f 18 19 11
f 20 12 5
f 5 13 20
f 20 13 15
f 21 12 20
f 20 27 21
f 25 20 15
f 25 22 26
f 25 18 17
f 15 22 25
f 27 20 25
f 26 18 25
f 5 12 29
f 21 28 29
f 29 12 21
f 1 2 29
f 29 2 5
f 23 16 29
f 29 3 1
f 29 28 31
f 7 3 29
f 29 16 7
f 1 3 4
f 3 9 4
f 11 2 1
f 6 2 11
f 11 14 6
f 26 22 11
f 22 14 11
f 11 19 26
f 1 4 11
