# https://github.com/mikedh/trimesh
v 0.05855464 0.04924716 0.00976688
v 0.05753162 0.04924716 0.00976688
v 0.05856520 0.04874692 0.00976688
v 0.05852376 0.04922395 0.00806695
v 0.05852498 0.04924716 0.00816591
v 0.05753040 0.04924716 0.00970681
v 0.05654658 0.04280020 0.00374938
v 0.05654699 0.04280245 0.00375410
v 0.05669850 0.04270360 0.00976688
v 0.05854773 0.04874692 0.00884918
v 0.05851665 0.04894762 0.00738722
v 0.05857129 0.04821223 0.00976688
v 0.05855464 0.04815232 0.00884918
v 0.05851970 0.04855147 0.00725174
v 0.05843684 0.04924716 0.00375350
v 0.05742824 0.04924716 0.00461172
v 0.05651531 0.04220560 0.00374938
v 0.05664488 0.04220860 0.00976688
v 0.05669160 0.04264144 0.00976688
v 0.05741179 0.04924716 0.00374938
v 0.05852701 0.04874842 0.00776831
v 0.05844638 0.04874692 0.00375410
v 0.05857190 0.04815232 0.00976688
v 0.05856052 0.04755848 0.00884918
v 0.05854123 0.04755848 0.00783016
v 0.05853514 0.04815232 0.00783016
v 0.05852194 0.04815232 0.00714041
v 0.05827436 0.04924716 0.00374938
v 0.05844618 0.04874692 0.00374938
v 0.05650698 0.04159753 0.00374938
v 0.05662701 0.04161400 0.00976688
v 0.05852498 0.04755848 0.00698550
v 0.05845227 0.04815232 0.00374938
v 0.05857779 0.04755848 0.00976688
v 0.05858104 0.04702304 0.00976688
v 0.05856398 0.04696388 0.00884918
v 0.05854448 0.04696388 0.00783016
v 0.05852660 0.04696388 0.00689950
v 0.05737665 0.04159753 0.00374938
v 0.05662701 0.04159753 0.00976688
v 0.05851605 0.04696388 0.00639058
v 0.05845755 0.04755848 0.00375410
v 0.05845735 0.04755848 0.00374938
v 0.05858124 0.04696388 0.00976688
v 0.05858185 0.04636928 0.00976688
v 0.05856438 0.04636928 0.00884918
v 0.05854489 0.04636928 0.00783016
v 0.05852681 0.04636928 0.00689125
v 0.05754380 0.04159753 0.00375410
v 0.05754380 0.04159828 0.00374938
v 0.05765835 0.04159753 0.00976688
v 0.05851625 0.04636928 0.00638234
v 0.05846039 0.04696388 0.00375410
v 0.05846019 0.04696388 0.00374938
v 0.05858185 0.04518084 0.00976688
v 0.05856438 0.04518084 0.00884918
v 0.05854489 0.04518084 0.00783016
v 0.05852681 0.04518084 0.00689125
v 0.05754441 0.04159753 0.00378119
v 0.05851930 0.04309900 0.00831906
v 0.05852660 0.04308477 0.00884918
v 0.05853818 0.04305856 0.00976688
v 0.05830340 0.04339705 0.00374938
v 0.05851625 0.04518084 0.00638234
v 0.05846060 0.04636928 0.00375410
v 0.05846039 0.04636928 0.00374938
v 0.05858144 0.04458624 0.00976688
v 0.05856418 0.04458624 0.00884918
v 0.05852660 0.04458624 0.00690186
v 0.05845776 0.04399164 0.00374938
v 0.05852254 0.04364267 0.00711449
v 0.05854773 0.04339705 0.00884918
v 0.05856824 0.04339705 0.00976688
v 0.05846060 0.04518084 0.00375410
v 0.05851605 0.04458624 0.00639294
v 0.05846019 0.04458624 0.00375410
v 0.05846039 0.04518084 0.00374938
v 0.05858002 0.04405155 0.00976688
v 0.05856235 0.04399164 0.00884918
v 0.05852559 0.04399164 0.00696194
v 0.05845999 0.04458624 0.00374938
v 0.05856967 0.04345695 0.00976688
v 0.05857982 0.04399164 0.00976688
f 7 17 18
f 8 9 2
f 8 2 7
f 7 9 8
f 49 62 59
f 59 62 51
f 1 4 5
f 3 4 1
f 19 9 7
f 7 18 19
f 31 18 17
f 31 17 30
f 30 40 31
f 50 49 39
f 25 35 36
f 15 5 4
f 16 20 7
f 45 36 44
f 36 35 44
f 46 36 45
f 46 47 36
f 38 41 32
f 32 25 38
f 60 63 70
f 50 63 60
f 60 49 50
f 11 15 4
f 11 10 21
f 4 3 11
f 3 10 11
f 7 2 6
f 6 16 7
f 12 13 3
f 24 13 34
f 25 13 24
f 34 35 24
f 35 25 24
f 27 25 32
f 36 47 37
f 47 38 37
f 37 25 36
f 37 38 25
f 55 67 68
f 68 67 78
f 83 79 78
f 78 79 68
f 48 38 47
f 48 52 41
f 41 38 48
f 82 79 83
f 69 58 68
f 68 79 69
f 61 73 62
f 61 60 73
f 62 49 61
f 49 60 61
f 71 60 70
f 71 82 73
f 79 82 71
f 15 29 28
f 41 52 53
f 34 13 23
f 13 12 23
f 26 13 25
f 25 27 26
f 68 58 57
f 64 58 75
f 58 69 75
f 73 60 72
f 72 71 73
f 60 71 72
f 80 71 70
f 79 71 80
f 80 69 79
f 70 75 80
f 80 75 69
f 32 41 42
f 41 53 42
f 14 26 27
f 21 10 14
f 13 26 14
f 3 13 14
f 14 10 3
f 14 11 21
f 56 55 68
f 68 57 56
f 64 75 76
f 76 75 70
f 22 27 32
f 22 14 27
f 11 14 22
f 22 29 15
f 15 11 22
f 64 76 74
f 81 76 70
f 42 43 33
f 29 22 33
f 32 42 33
f 33 22 32
f 65 53 52
f 39 51 40
f 39 40 30
f 39 49 59
f 59 51 39
f 48 58 64
f 64 52 48
f 28 2 1
f 1 5 28
f 5 15 28
f 28 6 2
f 20 16 28
f 16 6 28
f 23 31 40
f 40 51 23
f 1 2 23
f 2 9 23
f 9 19 23
f 45 44 23
f 23 3 1
f 23 51 62
f 62 73 23
f 23 82 83
f 23 19 18
f 18 31 23
f 23 35 34
f 83 78 23
f 23 44 35
f 23 55 45
f 23 12 3
f 67 55 23
f 23 78 67
f 73 82 23
f 58 48 57
f 57 48 47
f 45 55 56
f 56 46 45
f 56 57 47
f 47 46 56
f 53 54 43
f 43 42 53
f 65 52 64
f 64 74 65
f 77 74 76
f 76 81 77
f 70 63 66
f 30 17 66
f 66 17 7
f 7 20 66
f 66 63 50
f 66 39 30
f 50 39 66
f 20 28 66
f 66 28 29
f 66 81 70
f 66 43 54
f 29 33 66
f 66 33 43
f 66 77 81
f 66 54 53
f 53 65 66
f 66 65 74
f 74 77 66
