# https://github.com/mikedh/trimesh
v 0.02964284 -0.04569483 0.01703004
v 0.03023635 -0.04569483 0.01702541
v 0.03088469 -0.04569483 0.01676890
v 0.03118770 -0.04569483 0.01598408
v 0.03023635 -0.04635159 0.01703004
v 0.03023635 -0.04575756 0.01702662
v 0.03083082 -0.04635159 0.01696239
v 0.03201976 -0.04932394 0.01702642
v 0.03261423 -0.04981750 0.01700387
v 0.03324621 -0.04981750 0.01678602
v 0.03119058 -0.04586812 0.01659998
v 0.03115306 -0.04569483 0.01566093
v 0.03366465 -0.04981750 0.01598408
v 0.03087988 -0.04569483 0.01521979
v 0.03086449 -0.04569483 0.01521254
v 0.03023635 -0.04569483 0.01497799
v 0.03017382 -0.04569483 0.01497637
v 0.02964284 -0.04569483 0.01497335
v 0.03142529 -0.04872947 0.01703004
v 0.03261423 -0.04932394 0.01691951
v 0.03201976 -0.04981750 0.01702924
v 0.03307499 -0.04932394 0.01665475
v 0.03118577 -0.04587778 0.01537865
v 0.03357808 -0.04981750 0.01568609
v 0.03324140 -0.04981750 0.01520348
v 0.03319908 -0.04981750 0.01518053
v 0.03083082 -0.04635159 0.01504040
v 0.03261423 -0.04981750 0.01499893
v 0.03251419 -0.04981750 0.01498141
v 0.03023635 -0.04575756 0.01497677
v 0.03201976 -0.04932394 0.01497718
v 0.03142529 -0.04872947 0.01497335
v 0.03023635 -0.04635159 0.01497335
v 0.03142529 -0.04981750 0.01703004
v 0.03306730 -0.04932394 0.01532791
v 0.03191972 -0.04981750 0.01497335
v 0.03201976 -0.04981750 0.01497416
v 0.03261423 -0.04932394 0.01508107
v 0.02875250 -0.04537458 0.01703002
v 0.02875250 -0.04537546 0.01703004
v 0.02875250 -0.04537417 0.01702929
v 0.02875250 -0.04537406 0.01702739
v 0.02875250 -0.04537406 0.01497591
v 0.02875250 -0.04537407 0.01497512
v 0.02875250 -0.04537417 0.01497407
v 0.02875250 -0.04537418 0.01497405
v 0.02875250 -0.04537463 0.01497337
v 0.02875250 -0.04537458 0.01497337
v 0.02875250 -0.04537546 0.01497335
v 0.02875250 -0.04985515 0.01703004
v 0.02875250 -0.04985516 0.01703000
v 0.02875250 -0.04985517 0.01702971
v 0.02875250 -0.04985518 0.01702873
v 0.02875250 -0.04985518 0.01497462
v 0.02875250 -0.04985518 0.01497426
v 0.02875250 -0.04985515 0.01497335
v 0.02875250 -0.04985516 0.01497337
v 0.02875250 -0.04985515 0.01497336
v 0.02875250 -0.04985517 0.01497364
v 0.02875250 -0.04985516 0.01497339
v 0.02875250 -0.04985517 0.01497367
v 0.02875250 -0.04985514 0.01703004
f 8 21 9
f 13 4 11
f 4 43 42
f 13 53 54
f 12 4 13
f 19 34 21
f 21 8 19
f 22 10 13
f 13 11 22
f 22 11 10
f 2 8 9
f 31 29 37
f 16 28 29
f 16 27 28
f 7 2 9
f 32 37 36
f 31 37 32
f 23 12 13
f 13 24 23
f 14 12 23
f 25 14 23
f 26 14 25
f 17 33 18
f 17 32 33
f 31 32 17
f 27 16 15
f 14 26 15
f 15 26 27
f 9 10 20
f 20 7 9
f 10 7 20
f 10 11 3
f 3 7 10
f 2 7 3
f 3 11 4
f 35 24 25
f 25 23 35
f 35 23 24
f 28 27 38
f 38 26 28
f 27 26 38
f 30 29 31
f 31 17 30
f 30 16 29
f 30 17 16
f 2 1 6
f 1 5 6
f 8 2 6
f 6 5 19
f 6 19 8
f 52 53 13
f 13 10 52
f 52 10 9
f 9 51 52
f 50 51 9
f 9 21 50
f 44 43 4
f 4 12 44
f 58 56 36
f 36 37 58
f 32 49 18
f 32 56 49
f 36 56 32
f 18 33 32
f 55 61 25
f 25 24 55
f 13 54 55
f 55 24 13
f 16 48 15
f 15 48 46
f 45 12 14
f 45 44 12
f 14 15 45
f 45 15 46
f 1 2 39
f 39 40 1
f 62 50 21
f 21 34 62
f 39 2 3
f 3 41 39
f 4 42 3
f 42 41 3
f 57 58 37
f 57 37 29
f 25 61 59
f 59 26 25
f 18 49 47
f 47 17 18
f 47 48 16
f 16 17 47
f 40 62 5
f 34 19 5
f 5 1 40
f 5 62 34
f 53 52 60
f 60 40 39
f 60 54 53
f 49 56 60
f 60 42 43
f 51 50 60
f 39 41 60
f 60 52 51
f 43 44 60
f 60 45 46
f 60 41 42
f 50 62 60
f 46 48 60
f 44 45 60
f 60 62 40
f 60 47 49
f 48 47 60
f 60 57 29
f 29 28 60
f 26 59 60
f 28 26 60
