# https://github.com/mikedh/trimesh
v -0.04966395 0.03353937 0.01598056
v -0.04966395 0.03328051 0.01525787
v -0.04966395 0.03353590 0.01599244
v -0.04966248 0.03353789 0.01598398
v -0.04214459 0.03060083 0.01598398
v -0.04966395 0.03318845 0.01520532
v -0.04214459 0.03032861 0.01523029
v -0.04966395 0.03328645 0.01672800
v -0.04214459 0.03059687 0.01599606
v -0.04966395 0.03275190 0.01505531
v -0.04214459 0.02977575 0.01498362
v -0.04214459 0.02976535 0.01497899
v -0.04966395 0.03275289 0.01694386
v -0.04214459 0.02976535 0.01702441
v -0.04214459 0.03032564 0.01676062
v -0.04214459 0.03033653 0.01675519
v -0.04966395 0.03253858 0.01498886
v -0.04214459 0.02917091 0.01497315
v -0.04966395 0.03194414 0.01497315
v -0.04966395 0.03214261 0.01497637
v -0.04966395 0.03214261 0.01702702
v -0.04926866 0.03214261 0.01702078
v -0.04332384 0.02976535 0.01702863
v -0.04214459 0.02917091 0.01703004
v -0.04966395 0.03154817 0.01703004
v -0.04926866 0.03154817 0.01703004
v -0.04391861 0.02976535 0.01703004
v -0.04966395 0.02863350 0.01497315
v -0.04966395 0.02863350 0.01703004
v -0.04214459 0.02863350 0.01703004
v -0.04214459 0.02863350 0.01497315
f 9 8 16
f 16 8 15
f 12 6 11
f 11 6 7
f 12 17 10
f 10 6 12
f 7 6 2
f 5 7 2
f 1 5 2
f 8 9 3
f 3 9 5
f 18 19 12
f 20 17 12
f 12 19 20
f 1 3 4
f 4 5 1
f 4 3 5
f 13 22 14
f 8 13 14
f 14 15 8
f 21 22 13
f 21 14 22
f 26 21 25
f 24 14 23
f 23 21 24
f 14 21 23
f 24 21 27
f 21 26 27
f 31 29 28
f 31 30 29
f 18 31 28
f 28 19 18
f 12 11 14
f 24 30 14
f 5 9 14
f 14 7 5
f 14 18 12
f 30 31 14
f 14 9 16
f 16 15 14
f 14 11 7
f 31 18 14
f 28 29 21
f 1 2 21
f 29 25 21
f 17 20 21
f 21 10 17
f 21 19 28
f 21 13 8
f 21 3 1
f 6 10 21
f 21 2 6
f 8 3 21
f 21 20 19
f 27 25 29
f 27 30 24
f 29 30 27
f 27 26 25
