# https://github.com/mikedh/trimesh
v -0.05660231 -0.02861328 0.01387138
v -0.05804905 -0.02861328 0.01387138
v -0.05657409 -0.04040328 0.01387138
v -0.05752901 -0.02861328 0.00228886
v -0.05804819 -0.03029648 0.01387138
v -0.05657496 -0.04099720 0.01387138
v -0.05629554 -0.02861328 0.00228886
v -0.05750321 -0.04160124 0.00336593
v -0.05802759 -0.04159113 0.01387138
v -0.05804767 -0.03089293 0.01387138
v -0.05658344 -0.04159113 0.01387138
v -0.05644356 -0.04160124 0.00336593
v -0.05762595 -0.04160124 0.00979323
v -0.05659313 -0.04160124 0.00979323
v -0.05660212 -0.02845850 0.01386931
v -0.05804669 -0.02845850 0.01386932
v -0.05786171 -0.02845850 0.00969885
v -0.05752901 -0.02845850 0.00228886
v -0.05629536 -0.02845850 0.00228886
v -0.05660213 -0.02845850 0.01386932
v -0.05804226 -0.02845850 0.01373166
v -0.05803535 -0.02845850 0.01357471
v -0.05803213 -0.02845850 0.01350174
v -0.05802684 -0.02845850 0.01338218
v -0.05802515 -0.02845850 0.01334439
v -0.05802258 -0.02845850 0.01328660
v -0.05802020 -0.02845850 0.01323349
v -0.05793235 -0.02845850 0.01127309
v -0.05643036 -0.02845850 0.00819453
v -0.05643173 -0.02845850 0.00825222
v -0.05658018 -0.02845850 0.01378707
v -0.05658054 -0.02845850 0.01378913
f 13 9 8
f 8 9 4
f 9 10 4
f 7 6 12
f 12 6 11
f 2 4 5
f 5 4 10
f 6 7 3
f 12 11 14
f 1 15 20
f 32 3 31
f 31 3 30
f 2 16 21
f 29 30 3
f 28 17 2
f 2 23 24
f 2 21 22
f 22 23 2
f 2 26 27
f 27 28 2
f 25 26 2
f 2 24 25
f 7 18 19
f 7 4 18
f 7 12 8
f 8 4 7
f 3 1 2
f 9 11 3
f 3 10 9
f 2 5 3
f 3 11 6
f 3 5 10
f 8 12 14
f 14 13 8
f 14 11 9
f 9 13 14
f 2 1 20
f 20 16 2
f 32 15 1
f 1 3 32
f 18 4 17
f 17 4 2
f 29 3 7
f 29 7 19
f 25 32 31
f 19 18 25
f 25 21 16
f 16 20 25
f 25 20 15
f 18 17 25
f 15 32 25
f 31 30 25
f 25 29 19
f 25 22 21
f 30 29 25
f 25 27 26
f 17 28 25
f 25 24 23
f 23 22 25
f 28 27 25
