# https://github.com/mikedh/trimesh
v -0.05748597 0.04131031 0.00228886
v -0.05839580 0.04403335 0.00228886
v -0.05628068 0.04131031 0.00228886
v -0.05762890 0.04131031 0.01029558
v -0.05851305 0.04307205 0.01058470
v -0.05848446 0.04314029 0.00831887
v -0.05840139 0.04462774 0.00228886
v -0.05848781 0.04368399 0.00711449
v -0.05849072 0.04403335 0.00696181
v -0.05628046 0.04165544 0.00228886
v -0.05660584 0.04131031 0.01058470
v -0.05763403 0.04131031 0.01058470
v -0.05854186 0.04333756 0.01058470
v -0.05850479 0.04309739 0.00986840
v -0.05849161 0.04312632 0.00884919
v -0.05855101 0.04343863 0.01058470
v -0.05853583 0.04343863 0.00986840
v -0.05840139 0.04463002 0.00228886
v -0.05849183 0.04462774 0.00690172
v -0.05852757 0.04403335 0.00884919
v -0.05850769 0.04403335 0.00782998
v -0.05628112 0.04204087 0.00228886
v -0.05660785 0.04165544 0.01058470
v -0.05856039 0.04403335 0.01058470
v -0.05854699 0.04403335 0.00986840
v -0.05703418 0.04463002 0.00228886
v -0.05849183 0.04463002 0.00690497
v -0.05852935 0.04462774 0.00884919
v -0.05852935 0.04463002 0.00884919
v -0.05850970 0.04463002 0.00782998
v -0.05628269 0.04225016 0.00228886
v -0.05661321 0.04183191 0.01058470
v -0.05628649 0.04263494 0.00228886
v -0.05856196 0.04462774 0.01058470
v -0.05854856 0.04462774 0.00986840
v -0.05660696 0.04403335 0.00228886
v -0.05754046 0.04463002 0.01058470
v -0.05854856 0.04463002 0.00986840
v -0.05662706 0.04225016 0.01058470
v -0.05629341 0.04284456 0.00228886
v -0.05856196 0.04463002 0.01058470
v -0.05646314 0.04382958 0.00228886
v -0.05675078 0.04297357 0.01058470
v -0.05667217 0.04267687 0.01058470
v -0.05631596 0.04322739 0.00228886
v -0.05635192 0.04345325 0.00228886
f 10 11 3
f 6 2 1
f 8 2 6
f 21 19 9
f 9 2 8
f 8 21 9
f 36 26 37
f 37 42 36
f 5 6 1
f 18 19 27
f 2 9 7
f 7 19 18
f 7 9 19
f 22 11 10
f 43 46 42
f 42 37 43
f 12 5 4
f 4 5 1
f 19 28 29
f 45 46 44
f 46 43 44
f 8 6 17
f 17 16 8
f 6 16 17
f 13 16 6
f 30 27 19
f 19 29 30
f 39 40 45
f 45 44 39
f 20 21 8
f 8 16 20
f 20 19 21
f 20 28 19
f 5 13 14
f 33 40 32
f 40 39 32
f 16 24 25
f 25 20 16
f 28 20 25
f 25 35 28
f 6 5 15
f 5 14 15
f 15 13 6
f 15 14 13
f 33 32 23
f 23 31 33
f 22 31 23
f 11 22 23
f 1 3 4
f 4 3 11
f 11 12 4
f 1 2 31
f 18 26 31
f 10 3 31
f 31 3 1
f 31 26 36
f 36 42 31
f 42 46 31
f 31 7 18
f 31 22 10
f 31 46 45
f 2 7 31
f 45 40 31
f 31 40 33
f 34 41 38
f 38 35 34
f 28 35 38
f 38 29 28
f 30 26 18
f 30 37 26
f 41 37 30
f 18 27 30
f 30 38 41
f 29 38 30
f 25 24 34
f 34 35 25
f 23 12 11
f 23 37 41
f 23 41 34
f 23 13 5
f 23 5 12
f 23 43 37
f 34 24 23
f 23 44 43
f 23 24 16
f 16 13 23
f 23 39 44
f 23 32 39
