# https://github.com/mikedh/trimesh
v 0.02879744 0.05651931 0.00976688
v 0.02879744 0.05637110 0.01459912
v 0.02879744 0.05754359 0.00976688
v 0.04157451 0.05651894 0.00976688
v 0.02879744 0.05816016 0.01459912
v 0.04157451 0.05637110 0.01459912
v 0.04395262 0.05816220 0.00976688
v 0.04210923 0.05652005 0.00976688
v 0.04208913 0.05637147 0.01459912
v 0.04395262 0.05826403 0.01459912
v 0.04395262 0.05825736 0.01394543
v 0.04395262 0.05824029 0.01292610
v 0.04395262 0.05821748 0.01190724
v 0.04395262 0.05819188 0.01088839
v 0.04454564 0.05816758 0.00976688
v 0.04401092 0.05816294 0.00976688
v 0.04216753 0.05652024 0.00976688
v 0.04216753 0.05637166 0.01459912
v 0.04416571 0.05826478 0.01459912
v 0.04454564 0.05825959 0.01394543
v 0.04454564 0.05824271 0.01292610
v 0.04454564 0.05822026 0.01190724
v 0.04454564 0.05819577 0.01088839
v 0.04454564 0.05817018 0.00986906
v 0.04460595 0.05816777 0.00976688
v 0.04276256 0.05652450 0.00976688
v 0.04268215 0.05637834 0.01459912
v 0.04454564 0.05826552 0.01459912
v 0.04475873 0.05826570 0.01459912
v 0.04514067 0.05825996 0.01394543
v 0.04514067 0.05824308 0.01292610
v 0.04514067 0.05822082 0.01190724
v 0.04514067 0.05819633 0.01088839
v 0.04514067 0.05817074 0.00986906
v 0.04514067 0.05816814 0.00976688
v 0.04335759 0.05656494 0.00976688
v 0.04276256 0.05638001 0.01459912
v 0.04633073 0.05826589 0.01459912
v 0.04692375 0.05825996 0.01394543
v 0.04692375 0.05824308 0.01292610
v 0.04692375 0.05822082 0.01190724
v 0.04692375 0.05819633 0.01088839
v 0.04692375 0.05817074 0.00986906
v 0.04692375 0.05816814 0.00976688
v 0.04933403 0.05712160 0.00976688
v 0.04933403 0.05696523 0.01459912
v 0.04654382 0.05826589 0.01459912
v 0.04692375 0.05826570 0.01459912
v 0.04713684 0.05826478 0.01459912
v 0.04751878 0.05825736 0.01394543
v 0.04751878 0.05824048 0.01292610
v 0.04751878 0.05821822 0.01190724
v 0.04751878 0.05819392 0.01088839
v 0.04751878 0.05816851 0.00986906
v 0.04698406 0.05816795 0.00976688
v 0.04933403 0.05814440 0.00976688
v 0.04933403 0.05824178 0.01459912
v 0.04751878 0.05826292 0.01459912
v 0.04773187 0.05826107 0.01459912
v 0.04811381 0.05825198 0.01394543
v 0.04811381 0.05823529 0.01292610
v 0.04811381 0.05821303 0.01190724
v 0.04811381 0.05818854 0.01088839
v 0.04811381 0.05816072 0.00976688
v 0.04751878 0.05816591 0.00976688
v 0.04933403 0.05814699 0.00986385
v 0.04930186 0.05814532 0.00976688
v 0.04933403 0.05823584 0.01394543
v 0.04930186 0.05824252 0.01459912
v 0.04832690 0.05825569 0.01459912
v 0.04870884 0.05825217 0.01459912
v 0.04870884 0.05824641 0.01394543
v 0.04870884 0.05822953 0.01292610
v 0.04870884 0.05820728 0.01190724
v 0.04870884 0.05818297 0.01088839
v 0.04870884 0.05815756 0.00986906
v 0.04870884 0.05815497 0.00976688
v 0.04930186 0.05817333 0.01088839
v 0.04933403 0.05817111 0.01083588
v 0.04933403 0.05823510 0.01389292
v 0.04930186 0.05823658 0.01394543
v 0.04930186 0.05821989 0.01292610
v 0.04930186 0.05819763 0.01190724
v 0.04933403 0.05819689 0.01190724
v 0.04933403 0.05817240 0.01088839
v 0.04933403 0.05821915 0.01292610
v 0.04933403 0.05821804 0.01287359
f 4 2 1
f 7 3 5
f 45 46 36
f 26 36 37
f 37 36 46
f 18 17 26
f 26 37 27
f 27 18 26
f 17 18 8
f 2 4 6
f 4 8 9
f 9 8 18
f 9 6 4
f 40 50 51
f 40 39 50
f 73 72 82
f 5 10 11
f 10 20 11
f 11 12 5
f 47 48 39
f 49 58 50
f 50 39 49
f 39 48 49
f 80 86 82
f 72 71 69
f 82 86 87
f 55 42 54
f 50 58 59
f 60 71 72
f 19 20 10
f 30 29 38
f 20 29 30
f 12 11 21
f 21 11 20
f 21 22 12
f 82 72 81
f 81 80 82
f 68 80 81
f 72 69 81
f 83 87 84
f 82 87 83
f 83 78 74
f 84 78 83
f 85 78 84
f 61 73 74
f 74 62 61
f 51 50 61
f 50 60 61
f 72 73 61
f 61 60 72
f 55 54 65
f 53 54 42
f 53 41 52
f 42 41 53
f 52 62 53
f 71 60 70
f 7 5 16
f 5 15 16
f 14 15 5
f 28 29 20
f 20 19 28
f 56 67 66
f 66 67 78
f 32 21 31
f 22 21 32
f 23 22 32
f 25 34 35
f 43 42 55
f 64 65 54
f 54 53 64
f 77 64 76
f 76 67 77
f 78 67 76
f 75 62 74
f 74 78 75
f 78 76 75
f 75 76 64
f 15 14 24
f 25 15 24
f 23 25 24
f 13 22 23
f 23 24 13
f 13 24 14
f 12 22 13
f 5 12 13
f 13 14 5
f 78 85 79
f 79 66 78
f 23 32 33
f 33 25 23
f 33 34 25
f 44 43 55
f 63 53 62
f 62 75 63
f 63 64 53
f 63 75 64
f 5 3 1
f 1 2 5
f 38 47 30
f 30 47 39
f 39 40 30
f 40 31 30
f 20 30 21
f 21 30 31
f 57 68 81
f 81 69 57
f 74 73 83
f 83 73 82
f 61 62 52
f 61 52 51
f 51 52 41
f 41 40 51
f 70 60 50
f 50 59 70
f 2 6 28
f 28 27 37
f 28 46 57
f 28 5 2
f 28 37 46
f 58 49 28
f 28 10 5
f 18 27 28
f 28 9 18
f 38 29 28
f 6 9 28
f 28 47 38
f 57 69 28
f 28 59 58
f 48 47 28
f 28 49 48
f 28 69 71
f 28 19 10
f 71 70 28
f 28 70 59
f 32 31 40
f 40 41 32
f 57 46 79
f 45 56 79
f 79 46 45
f 79 68 57
f 79 87 86
f 86 80 79
f 79 80 68
f 84 87 79
f 79 85 84
f 56 66 79
f 33 32 41
f 33 41 42
f 42 43 33
f 33 43 34
f 44 4 1
f 1 3 44
f 26 17 44
f 44 3 7
f 44 56 45
f 45 36 44
f 55 65 44
f 44 36 26
f 44 8 4
f 17 8 44
f 44 67 56
f 7 16 44
f 44 15 25
f 77 67 44
f 44 64 77
f 44 16 15
f 25 35 44
f 65 64 44
f 34 43 44
f 44 35 34
