# https://github.com/mikedh/trimesh
v 0.04846183 0.03091291 0.01497317
v 0.05578024 0.03876123 0.01496590
v 0.05578024 0.02972389 0.01496670
v 0.04846183 0.03091291 0.01703024
v 0.04846183 0.03150692 0.01498711
v 0.04870900 0.03150692 0.01497479
v 0.05405936 0.03876123 0.01497337
v 0.05578024 0.03876123 0.01703024
v 0.04846183 0.03125941 0.01702923
v 0.05405936 0.03864001 0.01703024
v 0.05405936 0.03876123 0.01703004
v 0.04846183 0.03210193 0.01515059
v 0.05345468 0.03876123 0.01510169
v 0.05346471 0.03864001 0.01507097
v 0.05417972 0.03876123 0.01703024
v 0.04846183 0.03150692 0.01701590
v 0.05358508 0.03876123 0.01695002
v 0.04846183 0.03247267 0.01538357
v 0.05308715 0.03876123 0.01534316
v 0.04846183 0.03185443 0.01696214
v 0.05345397 0.03876123 0.01689708
v 0.04846183 0.03255349 0.01598392
v 0.05299974 0.03876123 0.01598392
v 0.04846183 0.03210294 0.01684495
v 0.05312942 0.03876123 0.01667884
v 0.04846183 0.03252925 0.01637897
v 0.05300906 0.03876123 0.01613103
v 0.04846183 0.03236660 0.01669299
v 0.05308142 0.03876123 0.01663883
v 0.04846183 0.03247874 0.01659640
v 0.04846183 0.02859150 0.01497317
v 0.04856860 0.02859150 0.01497306
v 0.04932073 0.02859150 0.01497241
v 0.05578024 0.02859150 0.01496688
v 0.04846183 0.02859150 0.01703024
v 0.05578024 0.02859150 0.01703024
f 33 3 34
f 7 2 1
f 5 12 13
f 13 12 19
f 23 22 26
f 20 16 17
f 13 7 14
f 14 5 13
f 7 5 14
f 1 5 6
f 6 7 1
f 6 5 7
f 18 19 12
f 23 19 18
f 18 22 23
f 11 9 4
f 16 9 11
f 11 17 16
f 24 25 28
f 20 17 21
f 21 24 20
f 25 24 21
f 29 30 28
f 28 25 29
f 29 26 30
f 10 11 4
f 23 26 27
f 26 29 27
f 11 10 15
f 36 34 8
f 8 3 2
f 34 3 8
f 35 31 32
f 36 35 32
f 32 34 36
f 32 33 34
f 32 31 1
f 1 2 32
f 2 3 32
f 3 33 32
f 1 31 24
f 24 31 35
f 24 35 4
f 24 5 1
f 24 26 22
f 22 18 24
f 28 30 24
f 4 9 24
f 12 5 24
f 30 26 24
f 24 16 20
f 24 18 12
f 24 9 16
f 15 8 2
f 15 19 23
f 2 7 15
f 15 7 13
f 13 19 15
f 15 21 17
f 23 27 15
f 17 11 15
f 25 21 15
f 15 29 25
f 15 27 29
f 4 35 15
f 15 35 36
f 36 8 15
f 15 10 4
