# https://github.com/mikedh/trimesh
v -0.03559443 0.05309866 0.01703004
v -0.03143351 0.04970057 0.01703004
v -0.03574126 0.05309866 0.01497315
v -0.03618885 0.05309866 0.01702742
v -0.03559443 0.05295096 0.01703004
v -0.03174945 0.04970057 0.01497315
v -0.03202793 0.04997867 0.01703004
v -0.03202793 0.04970057 0.01702843
v -0.03559443 0.05295096 0.01497315
v -0.03633669 0.05309866 0.01497597
v -0.03618885 0.05295096 0.01702662
v -0.03678326 0.05309866 0.01700246
v -0.03500001 0.05235650 0.01702944
v -0.03202793 0.04970057 0.01497496
v -0.03262234 0.04997867 0.01702178
v -0.03262234 0.04970057 0.01697527
v -0.03618885 0.05295096 0.01497677
v -0.03693111 0.05309866 0.01500094
v -0.03234387 0.04970057 0.01497940
v -0.03678326 0.05295096 0.01699339
v -0.03737768 0.05309866 0.01691708
v -0.03854930 0.05309866 0.01670122
v -0.03319651 0.04970057 0.01674089
v -0.03752553 0.05309866 0.01508652
v -0.03262234 0.04970057 0.01502692
v -0.03909815 0.05309866 0.01598398
v -0.03350739 0.04970057 0.01598398
v -0.03852095 0.05309866 0.01528385
v -0.03300005 0.04970057 0.01514330
v -0.03892701 0.05309866 0.01560663
v -0.03319144 0.04970057 0.01524620
v -0.03350435 0.04970057 0.01597431
v -0.02875600 0.05309866 0.01703004
v -0.02875600 0.04970057 0.01703004
v -0.02875600 0.05309866 0.01497315
v -0.02875600 0.04970057 0.01497315
f 23 22 26
f 22 23 16
f 12 11 4
f 25 28 24
f 19 24 18
f 25 24 19
f 27 23 26
f 26 32 27
f 26 30 31
f 31 32 26
f 31 30 28
f 22 16 20
f 20 11 12
f 11 20 15
f 15 20 16
f 1 4 5
f 5 4 11
f 9 10 3
f 6 10 9
f 18 10 17
f 17 19 18
f 10 19 17
f 14 10 6
f 14 19 10
f 29 28 25
f 29 31 28
f 21 20 12
f 22 20 21
f 8 15 16
f 11 15 8
f 7 8 2
f 5 8 7
f 13 5 11
f 11 8 13
f 13 8 5
f 35 33 36
f 36 33 34
f 3 35 9
f 35 36 9
f 9 36 6
f 21 33 35
f 1 33 21
f 26 22 21
f 21 35 3
f 3 10 21
f 21 24 28
f 21 30 26
f 28 30 21
f 12 4 21
f 21 4 1
f 18 24 21
f 21 10 18
f 23 27 8
f 8 34 2
f 8 36 34
f 8 29 25
f 25 19 8
f 8 16 23
f 6 36 8
f 8 14 6
f 8 27 32
f 32 31 8
f 19 14 8
f 31 29 8
f 2 34 7
f 7 33 1
f 34 33 7
f 1 5 7
