# https://github.com/mikedh/trimesh
v -0.05695824 -0.05617042 0.00274678
v -0.05519889 -0.05617042 0.00274678
v -0.05699688 -0.05617042 0.00319863
v -0.05698005 -0.05616809 0.00274678
v -0.05709097 -0.05221149 0.00274678
v -0.05736202 -0.05221033 0.00979437
v -0.05573164 -0.05617042 0.00979437
v -0.05726482 -0.05617042 0.00962053
v -0.05728507 -0.05614755 0.00960535
v -0.05714985 -0.05596807 0.00274678
v -0.05718381 -0.05221033 0.00274678
v -0.05720406 -0.05221033 0.00360565
v -0.05838143 -0.05221033 0.00979437
v -0.05724332 -0.05617042 0.00979437
v -0.05737915 -0.05600568 0.00979437
v -0.05736233 -0.05567076 0.00274678
v -0.05735984 -0.05567463 0.00274678
v -0.05823500 -0.05221033 0.00274678
v -0.05836305 -0.05221033 0.00884926
v -0.05837614 -0.05229677 0.00979437
v -0.05744084 -0.05590567 0.00979437
v -0.05736514 -0.05566572 0.00274678
v -0.05745705 -0.05583007 0.00884926
v -0.05822846 -0.05229677 0.00274678
v -0.05829295 -0.05229677 0.00579250
v -0.05832099 -0.05221033 0.00681073
v -0.05834218 -0.05221033 0.00783034
v -0.05835744 -0.05229677 0.00884926
v -0.05831569 -0.05289140 0.00979437
v -0.05774679 -0.05533778 0.00979437
v -0.05756453 -0.05526917 0.00274678
v -0.05777016 -0.05529281 0.00979437
v -0.05769040 -0.05526917 0.00681073
v -0.05816116 -0.05289140 0.00274678
v -0.05822846 -0.05289140 0.00579250
v -0.05825089 -0.05289140 0.00681073
v -0.05827332 -0.05289140 0.00783034
v -0.05829544 -0.05289140 0.00884926
v -0.05831445 -0.05229677 0.00681073
v -0.05823843 -0.05348604 0.00979437
v -0.05756702 -0.05526258 0.00274678
v -0.05789291 -0.05498115 0.00922248
v -0.05788263 -0.05494976 0.00854297
v -0.05778387 -0.05526219 0.00979437
v -0.05777732 -0.05521528 0.00886927
v -0.05772156 -0.05526917 0.00783034
v -0.05807704 -0.05348604 0.00274678
v -0.05812440 -0.05348604 0.00477358
v -0.05817175 -0.05348604 0.00681073
v -0.05821787 -0.05348604 0.00884926
v -0.05813063 -0.05408067 0.00979437
v -0.05780942 -0.05470903 0.00375397
v -0.05780599 -0.05462143 0.00274678
v -0.05790070 -0.05499937 0.00979437
v -0.05797765 -0.05470981 0.00979437
v -0.05789135 -0.05438458 0.00315931
v -0.05804589 -0.05363877 0.00274678
v -0.05798295 -0.05408067 0.00375397
v -0.05800850 -0.05408067 0.00477358
v -0.05805897 -0.05408067 0.00681073
v -0.05808390 -0.05408067 0.00783034
v -0.05810851 -0.05408067 0.00884926
v -0.05798576 -0.05467802 0.00979437
v -0.05781689 -0.05458576 0.00274678
v -0.05794744 -0.05412099 0.00274678
v -0.05793902 -0.05415355 0.00274678
f 6 7 2
f 5 6 2
f 12 5 11
f 6 5 12
f 8 14 15
f 15 9 8
f 8 9 3
f 1 3 4
f 3 9 4
f 9 10 4
f 17 10 9
f 52 43 53
f 33 31 22
f 22 32 33
f 16 9 15
f 16 17 9
f 16 23 22
f 41 52 53
f 41 31 43
f 43 52 41
f 21 16 15
f 23 16 21
f 20 28 29
f 48 34 47
f 49 34 48
f 48 51 49
f 47 51 48
f 23 21 30
f 30 32 22
f 22 23 30
f 46 33 32
f 32 45 46
f 19 27 28
f 19 20 13
f 28 20 19
f 28 27 26
f 18 25 26
f 29 28 39
f 39 25 29
f 28 26 39
f 39 26 25
f 24 25 18
f 29 25 24
f 51 40 50
f 49 51 50
f 50 34 49
f 43 31 42
f 31 33 42
f 33 46 42
f 42 46 45
f 42 45 32
f 53 43 56
f 43 42 56
f 37 50 40
f 65 56 63
f 44 42 32
f 54 42 44
f 58 59 47
f 65 63 58
f 58 63 59
f 53 56 64
f 35 24 34
f 34 50 35
f 38 40 29
f 38 37 40
f 29 24 38
f 24 37 38
f 55 42 54
f 55 56 42
f 55 63 56
f 57 58 47
f 65 58 57
f 62 51 47
f 47 61 62
f 62 63 51
f 62 61 63
f 47 59 60
f 60 61 47
f 59 63 60
f 63 61 60
f 66 56 65
f 66 64 56
f 50 37 36
f 36 35 50
f 36 37 24
f 24 35 36
f 8 3 1
f 8 1 2
f 2 7 8
f 7 14 8
f 11 18 26
f 13 6 26
f 26 12 11
f 6 12 26
f 26 19 13
f 27 19 26
f 55 6 13
f 55 14 7
f 7 6 55
f 15 14 55
f 29 40 55
f 55 21 15
f 13 20 55
f 51 63 55
f 55 20 29
f 55 40 51
f 32 30 55
f 55 30 21
f 55 44 32
f 54 44 55
f 2 1 66
f 66 5 2
f 66 18 11
f 66 16 22
f 11 5 66
f 66 24 18
f 1 4 66
f 22 31 66
f 66 4 10
f 10 17 66
f 66 41 53
f 17 16 66
f 47 34 66
f 31 41 66
f 53 64 66
f 34 24 66
f 66 57 47
f 65 57 66
