# https://github.com/mikedh/trimesh
v 0.03206254 0.05647642 0.00046775
v 0.02879874 0.05622587 0.00047321
v 0.02879874 0.05647642 0.00046867
v 0.02879874 0.05675418 0.00064981
v 0.02879874 0.05704088 0.00083732
v 0.03800732 0.05704088 0.00083732
v 0.03681836 0.05647642 0.00046867
v 0.03587937 0.05622587 0.00047321
v 0.02879874 0.05622587 0.00213079
v 0.02879874 0.05732602 0.00171571
v 0.04202879 0.05732602 0.00171571
v 0.03979075 0.05704088 0.00083822
v 0.03860180 0.05647642 0.00046957
v 0.03860180 0.05622587 0.00047413
v 0.02879874 0.05651917 0.00976688
v 0.04156771 0.05622587 0.00213169
v 0.04032566 0.05651904 0.00976688
v 0.02879874 0.05735582 0.00260320
v 0.04202879 0.05735582 0.00259957
v 0.04202879 0.05733315 0.00192598
v 0.04202879 0.05704101 0.00084095
v 0.04038523 0.05647642 0.00047140
v 0.03979075 0.05622587 0.00047504
v 0.02879874 0.05754367 0.00976688
v 0.04157419 0.05622587 0.00213169
v 0.04157419 0.05651904 0.00976688
v 0.02879874 0.05736347 0.00285352
v 0.04202879 0.05737150 0.00310930
v 0.04202879 0.05735958 0.00271972
v 0.04202879 0.05660986 0.00056151
v 0.04097971 0.05647642 0.00047230
v 0.04063520 0.05622587 0.00047594
v 0.02879874 0.05752035 0.00884935
v 0.04202879 0.05754924 0.00976688
v 0.04202879 0.05622587 0.00147267
v 0.04202879 0.05622846 0.00213260
v 0.04202879 0.05651982 0.00976688
v 0.02879874 0.05737137 0.00311294
v 0.04202879 0.05752489 0.00884935
v 0.04202879 0.05647642 0.00047504
v 0.04182416 0.05622587 0.00047777
v 0.02879874 0.05750701 0.00833142
v 0.02879874 0.05740117 0.00425531
v 0.02879874 0.05742772 0.00527388
v 0.02879874 0.05746776 0.00681039
v 0.02879874 0.05748071 0.00731194
v 0.04202879 0.05622587 0.00047867
v 0.04202879 0.05628507 0.00047777
f 19 10 18
f 34 39 38
f 38 39 28
f 15 9 17
f 36 37 25
f 37 26 25
f 25 35 36
f 18 28 29
f 29 19 18
f 11 10 20
f 10 19 20
f 27 28 18
f 27 38 28
f 16 17 9
f 11 21 12
f 12 6 11
f 33 24 34
f 44 45 34
f 22 12 21
f 42 33 34
f 34 38 43
f 43 44 34
f 5 6 1
f 6 7 1
f 2 3 1
f 12 22 13
f 13 14 7
f 31 22 21
f 22 31 32
f 34 45 46
f 46 42 34
f 5 1 4
f 4 1 3
f 2 1 8
f 7 14 8
f 8 1 7
f 30 31 21
f 40 31 30
f 41 31 40
f 41 32 31
f 14 13 23
f 23 13 22
f 22 32 23
f 47 41 48
f 48 41 40
f 17 37 34
f 17 24 15
f 34 24 17
f 17 26 37
f 5 10 6
f 6 10 11
f 26 17 16
f 16 25 26
f 13 7 6
f 6 12 13
f 4 43 38
f 2 9 4
f 4 9 15
f 15 24 4
f 18 10 4
f 4 10 5
f 4 27 18
f 24 33 4
f 38 27 4
f 4 3 2
f 45 44 4
f 4 46 45
f 33 42 4
f 44 43 4
f 42 46 4
f 23 9 2
f 47 35 23
f 23 16 9
f 35 25 23
f 25 16 23
f 2 8 23
f 23 41 47
f 23 8 14
f 32 41 23
f 36 35 48
f 34 37 48
f 48 21 11
f 48 37 36
f 48 29 28
f 48 35 47
f 11 20 48
f 48 39 34
f 28 39 48
f 19 29 48
f 48 20 19
f 48 30 21
f 40 30 48
