# https://github.com/mikedh/trimesh
v -0.05658725 0.04105725 0.01370358
v -0.05658759 0.04111033 0.01370358
v -0.05785620 0.04111033 0.01370358
v -0.05748573 0.04130999 0.00228886
v -0.05751429 0.03452157 0.00228886
v -0.05751879 0.03332867 0.00228886
v -0.05752312 0.03214335 0.00228886
v -0.05752381 0.03188051 0.00228886
v -0.05752468 0.03154438 0.00228886
v -0.05752520 0.03128911 0.00228886
v -0.05752884 0.02916868 0.00228886
v -0.05752901 0.02890837 0.00228886
v -0.05628083 0.04105978 0.00228886
v -0.05628066 0.04130999 0.00228886
v -0.05658621 0.04046333 0.01370358
v -0.05660594 0.04130999 0.01058460
v -0.05763409 0.04130999 0.01058460
v -0.05660213 0.02863350 0.01386932
v -0.05660212 0.02863350 0.01386931
v -0.05804669 0.02863350 0.01386932
v -0.05804226 0.02863350 0.01373166
v -0.05803535 0.02863350 0.01357471
v -0.05803213 0.02863350 0.01350174
v -0.05802515 0.02863350 0.01334439
v -0.05802684 0.02863350 0.01338218
v -0.05802258 0.02863350 0.01328660
v -0.05802020 0.02863350 0.01323349
v -0.05793235 0.02863350 0.01127309
v -0.05643173 0.02863350 0.00825222
v -0.05643036 0.02863350 0.00819453
v -0.05658018 0.02863350 0.01378707
v -0.05658054 0.02863350 0.01378913
v -0.05752901 0.02863350 0.00228886
v -0.05786171 0.02863350 0.00969885
v -0.05629536 0.02863350 0.00228886
f 14 1 15
f 2 1 14
f 14 16 2
f 17 4 3
f 20 3 21
f 3 4 21
f 35 13 30
f 19 32 1
f 34 12 33
f 25 6 7
f 25 23 6
f 20 18 2
f 2 3 20
f 3 2 17
f 17 2 16
f 14 4 17
f 17 16 14
f 14 15 31
f 31 29 14
f 30 13 14
f 14 29 30
f 32 31 15
f 32 15 1
f 1 2 19
f 19 2 18
f 11 12 28
f 28 12 34
f 27 9 10
f 26 9 27
f 27 10 11
f 11 28 27
f 35 33 8
f 14 13 8
f 8 4 14
f 7 6 8
f 8 13 35
f 8 5 4
f 8 33 12
f 11 10 8
f 8 6 5
f 8 12 11
f 10 9 8
f 4 5 22
f 22 21 4
f 5 6 22
f 6 23 22
f 20 21 24
f 24 18 20
f 24 33 35
f 26 27 24
f 35 30 24
f 34 33 24
f 29 31 24
f 24 30 29
f 31 32 24
f 24 19 18
f 32 19 24
f 24 28 34
f 21 22 24
f 24 27 28
f 23 25 24
f 24 22 23
f 7 8 24
f 24 25 7
f 24 8 9
f 24 9 26
