# https://github.com/mikedh/trimesh
v -0.02876216 -0.04098374 0.01497335
v -0.02876216 -0.04098374 0.01703004
v -0.02876216 -0.02860919 0.01497335
v -0.02876216 -0.02860919 0.01703004
v -0.02875600 -0.04098374 0.01497335
v -0.02875600 -0.04098374 0.01703004
v -0.02876204 -0.02845850 0.01497335
v -0.02875600 -0.02845850 0.01497335
v -0.02875600 -0.02845850 0.01703004
v -0.02876204 -0.02845850 0.01703004
f 1 5 6
f 6 2 1
f 8 5 1
f 1 3 8
f 8 3 7
f 8 6 5
f 9 6 8
f 1 2 4
f 4 3 1
f 2 6 10
f 10 6 9
f 10 4 2
f 10 8 7
f 9 8 10
f 7 3 10
f 3 4 10
