# https://github.com/mikedh/trimesh
v -0.05818626 -0.02860666 0.01887798
v -0.05773881 -0.02860666 0.01885712
v -0.05629927 -0.02860666 0.01702984
v -0.05823384 -0.02860666 0.01882711
v -0.05629927 -0.02860666 0.01471217
v -0.05849008 -0.02860666 0.01855241
v -0.05661509 -0.02860666 0.01370392
v -0.05856235 -0.02860666 0.01786260
v -0.05855329 -0.02860666 0.01802182
v -0.05789695 -0.02860666 0.01370392
v -0.05861128 -0.02860666 0.01684315
v -0.05861106 -0.02860666 0.01700288
v -0.05852360 -0.02860666 0.01437134
v -0.05861241 -0.02860666 0.01598395
v -0.05858840 -0.02860666 0.01496500
v -0.05773843 -0.02845850 0.01885739
v -0.05818303 -0.02845850 0.01887812
v -0.05630726 -0.02845850 0.01704076
v -0.05773813 -0.02845850 0.01885704
v -0.05818626 -0.02845850 0.01887798
v -0.05823345 -0.02845850 0.01882753
v -0.05629927 -0.02845850 0.01702986
v -0.05823596 -0.02845850 0.01882484
v -0.05849008 -0.02845850 0.01855241
v -0.05661473 -0.02845850 0.01370392
v -0.05630282 -0.02845850 0.01469971
v -0.05855329 -0.02845850 0.01802182
v -0.05861128 -0.02845850 0.01684447
v -0.05861106 -0.02845850 0.01700288
v -0.05790394 -0.02845850 0.01370392
v -0.05861131 -0.02845850 0.01682653
v -0.05861243 -0.02845850 0.01597493
v -0.05852439 -0.02845850 0.01436473
v -0.05861237 -0.02845850 0.01596222
v -0.05858859 -0.02845850 0.01495298
v -0.05818587 -0.02845850 0.01887812
v -0.05629927 -0.02845850 0.01471203
v -0.05856227 -0.02845850 0.01786392
v -0.05856275 -0.02845850 0.01785549
v -0.05858855 -0.02845850 0.01495251
v -0.05861240 -0.02845850 0.01596590
v -0.05861240 -0.02845850 0.01596524
v -0.05861238 -0.02845850 0.01596302
f 3 22 18
f 16 2 19
f 19 2 3
f 3 18 19
f 26 37 5
f 1 17 36
f 36 20 1
f 4 21 23
f 11 28 31
f 15 35 40
f 41 14 32
f 41 42 14
f 43 34 14
f 14 42 43
f 38 39 8
f 25 7 10
f 10 30 25
f 1 2 17
f 17 2 16
f 5 37 22
f 5 22 3
f 5 25 26
f 7 25 5
f 33 30 10
f 10 13 33
f 4 23 24
f 24 6 4
f 20 21 4
f 1 20 4
f 29 28 11
f 12 29 11
f 32 14 11
f 11 31 32
f 24 27 9
f 9 6 24
f 40 13 15
f 40 33 13
f 34 35 15
f 15 14 34
f 3 2 8
f 8 13 10
f 8 2 1
f 8 14 15
f 10 7 8
f 8 5 3
f 15 13 8
f 7 5 8
f 1 4 8
f 12 11 8
f 8 4 6
f 8 11 14
f 6 9 8
f 39 29 12
f 12 8 39
f 16 19 38
f 26 25 38
f 38 21 20
f 24 23 38
f 38 37 26
f 38 17 16
f 38 18 22
f 22 37 38
f 38 25 30
f 38 27 24
f 20 36 38
f 38 19 18
f 32 31 38
f 30 33 38
f 38 36 17
f 23 21 38
f 33 40 38
f 29 39 38
f 38 28 29
f 31 28 38
f 38 40 35
f 35 34 38
f 38 41 32
f 34 43 38
f 42 41 38
f 38 43 42
f 38 9 27
f 38 8 9
