# https://github.com/mikedh/trimesh
v 0.05578096 0.05056388 0.01497316
v 0.05748866 0.05056388 0.01437903
v 0.05578096 0.05056388 0.01703020
v 0.05578096 0.05624283 0.01437903
v 0.05858321 0.05056388 0.01437903
v 0.05743596 0.05056388 0.01731376
v 0.05578096 0.05609395 0.01731376
v 0.05578096 0.05749024 0.01437903
v 0.05856894 0.05088678 0.01437903
v 0.05858486 0.05056388 0.01496482
v 0.05856921 0.05056388 0.01731376
v 0.05578096 0.05749296 0.01731376
v 0.05578096 0.05749568 0.01496482
v 0.05579386 0.05748616 0.01437903
v 0.05855823 0.05112606 0.01437903
v 0.05855961 0.05112606 0.01496482
v 0.05855742 0.05112606 0.01700290
v 0.05858211 0.05056388 0.01700290
v 0.05854836 0.05112606 0.01731376
v 0.05580840 0.05748344 0.01731376
v 0.05578096 0.05750791 0.01700290
v 0.05581279 0.05748480 0.01496482
v 0.05580621 0.05748140 0.01437903
v 0.05852914 0.05159987 0.01437903
v 0.05852996 0.05161279 0.01496482
v 0.05852942 0.05160395 0.01598357
v 0.05852887 0.05159444 0.01700290
v 0.05852694 0.05156113 0.01731376
v 0.05612458 0.05736040 0.01700290
v 0.05582734 0.05749092 0.01700290
v 0.05610564 0.05734748 0.01731376
v 0.05611004 0.05735428 0.01496482
v 0.05593246 0.05742634 0.01437903
v 0.05852091 0.05172631 0.01437903
v 0.05851048 0.05190986 0.01496482
v 0.05848413 0.05231501 0.01598357
v 0.05851076 0.05190102 0.01598357
v 0.05850938 0.05189150 0.01700290
v 0.05848084 0.05231501 0.01700290
v 0.05847562 0.05212331 0.01731376
v 0.05643774 0.05716122 0.01700290
v 0.05643774 0.05714830 0.01496482
v 0.05643774 0.05713811 0.01731376
v 0.05643774 0.05714219 0.01437903
v 0.05629859 0.05722920 0.01437903
v 0.05610345 0.05735088 0.01437903
v 0.05850911 0.05189762 0.01437903
v 0.05848303 0.05231501 0.01496482
v 0.05842649 0.05290983 0.01496482
v 0.05842704 0.05290983 0.01598357
v 0.05842512 0.05290983 0.01700290
v 0.05841908 0.05272832 0.01731376
v 0.05845778 0.05231501 0.01731376
v 0.05683818 0.05686076 0.01731376
v 0.05684999 0.05687095 0.01700290
v 0.05684367 0.05686483 0.01496482
v 0.05684011 0.05686143 0.01437903
v 0.05848001 0.05231501 0.01437903
v 0.05844818 0.05265694 0.01437903
v 0.05842430 0.05290983 0.01437903
v 0.05838176 0.05325108 0.01437903
v 0.05835019 0.05350396 0.01437903
v 0.05835212 0.05350396 0.01496482
v 0.05835157 0.05350396 0.01598357
v 0.05835074 0.05350396 0.01700290
v 0.05833318 0.05350396 0.01731376
v 0.05840152 0.05290983 0.01731376
v 0.05714723 0.05657388 0.01700290
v 0.05713542 0.05656029 0.01731376
v 0.05714091 0.05656845 0.01496482
v 0.05696636 0.05673567 0.01437903
v 0.05824919 0.05409810 0.01437903
v 0.05825139 0.05409810 0.01496482
v 0.05825111 0.05409810 0.01700290
v 0.05823492 0.05409810 0.01731376
v 0.05740440 0.05627682 0.01700290
v 0.05740056 0.05627138 0.01496482
v 0.05739397 0.05626322 0.01731376
v 0.05739781 0.05626798 0.01437903
v 0.05713735 0.05656504 0.01437903
v 0.05811306 0.05469223 0.01437903
v 0.05811580 0.05469223 0.01496482
v 0.05811608 0.05469223 0.01598357
v 0.05811635 0.05469223 0.01700290
v 0.05814133 0.05451140 0.01731376
v 0.05764126 0.05588118 0.01700290
v 0.05763577 0.05588118 0.01496482
v 0.05763111 0.05588118 0.01437903
v 0.05762205 0.05588118 0.01731376
v 0.05803813 0.05494579 0.01437903
v 0.05798324 0.05513953 0.01496482
v 0.05798351 0.05514089 0.01598357
v 0.05798351 0.05514225 0.01700290
v 0.05809961 0.05469223 0.01731376
v 0.05797500 0.05511982 0.01731376
v 0.05786357 0.05543932 0.01700290
v 0.05786193 0.05543660 0.01496482
v 0.05786001 0.05543320 0.01437903
v 0.05785451 0.05541756 0.01731376
v 0.05798186 0.05513545 0.01437903
v 0.05793027 0.05526189 0.01437903
f 4 2 1
f 7 3 6
f 76 78 86
f 10 5 9
f 9 15 10
f 17 18 10
f 27 28 17
f 66 67 51
f 11 18 19
f 18 17 19
f 19 17 28
f 21 22 13
f 30 22 21
f 57 42 56
f 68 78 76
f 68 76 77
f 77 70 68
f 56 42 41
f 41 42 29
f 10 15 16
f 16 17 10
f 39 40 28
f 75 66 65
f 65 66 51
f 51 67 52
f 52 39 51
f 29 42 32
f 56 70 71
f 71 57 56
f 71 70 80
f 42 57 44
f 44 32 42
f 22 23 14
f 8 13 14
f 14 13 22
f 20 31 29
f 29 30 20
f 21 12 20
f 20 30 21
f 78 68 69
f 69 68 54
f 56 41 55
f 55 41 54
f 54 68 55
f 55 70 56
f 55 68 70
f 54 41 43
f 29 31 43
f 43 41 29
f 89 86 78
f 51 39 36
f 85 84 94
f 75 65 74
f 74 85 75
f 84 85 74
f 94 84 95
f 87 88 77
f 77 76 87
f 76 86 87
f 77 88 79
f 79 70 77
f 80 70 79
f 25 16 15
f 40 39 53
f 39 52 53
f 33 23 22
f 33 32 46
f 22 32 33
f 46 32 45
f 32 44 45
f 27 36 38
f 38 36 39
f 38 28 27
f 38 39 28
f 84 74 73
f 73 62 72
f 88 87 98
f 99 95 96
f 96 89 99
f 86 89 96
f 62 73 63
f 63 73 74
f 24 25 15
f 37 36 27
f 37 25 36
f 17 16 26
f 16 25 26
f 27 17 26
f 26 37 27
f 25 37 26
f 72 81 82
f 82 73 72
f 97 98 87
f 86 96 97
f 97 87 86
f 48 47 58
f 64 74 65
f 64 63 74
f 62 63 49
f 49 36 48
f 48 60 49
f 34 47 48
f 25 24 34
f 90 82 81
f 84 73 83
f 73 82 83
f 98 97 101
f 91 97 96
f 100 101 91
f 91 101 97
f 91 90 100
f 82 90 91
f 59 60 48
f 48 58 59
f 62 49 61
f 61 49 60
f 51 36 50
f 36 49 50
f 50 65 51
f 50 64 65
f 63 64 50
f 50 49 63
f 35 34 48
f 25 34 35
f 48 36 35
f 36 25 35
f 93 96 95
f 93 95 84
f 84 83 93
f 93 83 82
f 92 91 96
f 96 93 92
f 82 91 92
f 92 93 82
f 18 3 1
f 6 3 18
f 1 2 18
f 18 5 10
f 18 11 6
f 2 5 18
f 3 7 13
f 13 12 21
f 1 3 13
f 13 4 1
f 8 4 13
f 13 7 12
f 22 30 32
f 32 30 29
f 6 11 53
f 12 7 53
f 53 52 67
f 53 7 6
f 53 89 78
f 67 66 53
f 53 85 94
f 11 19 53
f 53 20 12
f 53 66 75
f 53 19 28
f 28 40 53
f 78 69 53
f 54 43 53
f 94 95 53
f 31 20 53
f 53 69 54
f 53 43 31
f 99 89 53
f 75 85 53
f 53 95 99
f 61 4 8
f 61 5 2
f 2 4 61
f 61 24 15
f 61 9 5
f 61 33 46
f 15 9 61
f 46 45 61
f 61 71 80
f 72 62 61
f 8 14 61
f 80 79 61
f 57 71 61
f 61 44 57
f 61 14 23
f 61 81 72
f 61 79 88
f 88 98 61
f 23 33 61
f 61 45 44
f 47 34 61
f 100 90 61
f 60 59 61
f 61 58 47
f 61 101 100
f 61 34 24
f 61 90 81
f 98 101 61
f 61 59 58
