# https://github.com/mikedh/trimesh
v 0.02964529 -0.05465674 0.00049127
v 0.05500455 -0.05447135 0.00049154
v 0.05500455 -0.05465674 0.00049154
v 0.04570873 -0.05465674 0.00185104
v 0.05507413 -0.02860958 0.00185131
v 0.05507413 -0.02860958 0.00049167
v 0.05500455 -0.05465674 0.00185090
v 0.05461024 -0.05407618 0.00185104
v 0.02875250 -0.05465674 0.00049127
v 0.02875250 -0.05465271 0.00185104
v 0.02875250 -0.05465674 0.00185104
v 0.02875250 -0.02846177 0.00049148
v 0.02875250 -0.02860910 0.00185104
v 0.04249836 -0.02845850 0.00049148
v 0.05452931 -0.02845850 0.00049161
v 0.05504633 -0.02845850 0.00049162
v 0.05507413 -0.02845850 0.00049167
v 0.05507413 -0.02845850 0.00185131
v 0.03004657 -0.02845850 0.00185105
v 0.02875250 -0.02845850 0.00185104
v 0.02875250 -0.02845850 0.00049148
f 2 3 1
f 20 13 19
f 5 4 8
f 4 7 8
f 8 7 5
f 2 15 16
f 5 10 11
f 11 4 5
f 1 3 7
f 7 11 9
f 7 9 1
f 4 11 7
f 19 13 10
f 5 18 19
f 19 10 5
f 9 11 12
f 20 21 12
f 12 13 20
f 12 11 10
f 10 13 12
f 1 9 12
f 12 21 14
f 14 1 12
f 15 1 14
f 15 2 1
f 6 17 18
f 6 18 5
f 6 7 3
f 5 7 6
f 14 21 16
f 20 19 16
f 18 17 16
f 16 21 20
f 16 21 21
f 16 19 18
f 16 15 14
f 16 6 3
f 3 2 16
f 17 6 16
