# https://github.com/mikedh/trimesh
v -0.05282274 0.05537048 0.00049051
v -0.02909940 0.05537312 0.00049010
v -0.05282274 0.05537312 0.00089602
v -0.05228320 0.05537312 0.00049051
v -0.04153949 0.05537312 0.00185858
v -0.04268454 0.05537312 0.00185845
v -0.05282274 0.05355692 0.00185108
v -0.05282274 0.05537312 0.00184987
v -0.05282274 0.05474666 0.00185041
v -0.05282274 0.05415179 0.00185081
v -0.02875600 0.05537312 0.00049010
v -0.02875600 0.05537312 0.00185858
v -0.05282274 0.02863350 0.00049157
v -0.05268990 0.02863350 0.00049157
v -0.05276696 0.02863350 0.00185112
v -0.05276066 0.02863350 0.00185112
v -0.05282274 0.02863350 0.00185108
v -0.02875600 0.02863350 0.00185112
v -0.05227224 0.02863350 0.00185112
v -0.02875600 0.02863350 0.00049157
f 1 4 2
f 3 4 1
f 7 6 10
f 5 16 19
f 9 6 8
f 9 10 6
f 1 2 13
f 13 2 14
f 11 12 20
f 20 12 18
f 20 2 11
f 14 2 20
f 11 2 6
f 6 12 11
f 5 12 6
f 6 2 4
f 4 3 6
f 6 3 8
f 19 12 5
f 18 12 19
f 15 13 14
f 15 20 18
f 15 17 13
f 14 20 15
f 18 19 15
f 15 19 16
f 7 17 15
f 15 6 7
f 5 6 15
f 15 16 5
f 9 17 7
f 1 13 9
f 13 17 9
f 8 3 9
f 9 3 1
f 7 10 9
