# https://github.com/mikedh/trimesh
v 0.02879744 0.05633925 0.01703762
v 0.02879744 0.05657142 0.01354300
v 0.02879744 0.05731911 0.01867875
v 0.02879744 0.05749495 0.01881785
v 0.02879744 0.05766527 0.01895218
v 0.02879744 0.05633925 0.01470257
v 0.02879744 0.05776765 0.01354300
v 0.02879744 0.05807613 0.01880512
v 0.02879744 0.05808260 0.01423268
v 0.02879744 0.05815872 0.01840691
v 0.02879744 0.05823750 0.01496485
v 0.02879744 0.05827576 0.01598425
v 0.02879744 0.05825634 0.01546605
v 0.02879744 0.05823845 0.01802198
v 0.02879744 0.05828318 0.01700258
v 0.02879744 0.05826129 0.01750432
v 0.02879450 0.05657142 0.01354300
v 0.02879450 0.05633934 0.01703784
v 0.02879450 0.05749491 0.01881786
v 0.02879450 0.05731909 0.01867877
v 0.02879450 0.05766521 0.01895217
v 0.02879450 0.05807607 0.01880514
v 0.02879450 0.05766527 0.01895218
v 0.02879450 0.05776774 0.01354300
v 0.02879450 0.05807613 0.01880512
v 0.02879450 0.05808263 0.01423255
v 0.02879450 0.05825634 0.01546568
v 0.02879450 0.05823751 0.01496457
v 0.02879450 0.05823845 0.01802198
v 0.02879450 0.05827575 0.01598406
v 0.02879450 0.05828317 0.01700222
v 0.02879450 0.05826129 0.01750440
v 0.02879450 0.05828318 0.01700258
v 0.02879450 0.05826130 0.01750416
v 0.02879450 0.05633925 0.01703764
v 0.02879450 0.05633925 0.01470257
v 0.02879450 0.05766521 0.01895218
v 0.02879450 0.05827575 0.01598377
v 0.02879450 0.05815873 0.01840685
v 0.02879450 0.05815871 0.01840698
v 0.02879450 0.05827575 0.01598379
v 0.02879450 0.05827575 0.01598387
v 0.02879450 0.05827575 0.01598388
v 0.02879450 0.05826129 0.01750423
f 1 18 35
f 22 8 25
f 13 11 28
f 37 5 23
f 39 40 10
f 27 13 28
f 34 44 16
f 16 44 32
f 43 30 12
f 33 15 31
f 12 13 38
f 13 27 38
f 12 41 42
f 36 6 1
f 1 35 36
f 7 17 24
f 2 17 7
f 2 6 36
f 36 17 2
f 9 7 26
f 26 7 24
f 9 26 11
f 11 26 28
f 3 20 18
f 3 18 1
f 5 8 22
f 23 5 22
f 4 21 19
f 5 21 4
f 4 19 20
f 20 3 4
f 8 10 40
f 25 8 40
f 39 10 14
f 14 29 39
f 1 6 16
f 14 10 16
f 16 6 2
f 16 3 1
f 2 7 16
f 16 7 9
f 16 8 5
f 9 11 16
f 11 13 16
f 16 10 8
f 5 4 16
f 16 4 3
f 16 13 12
f 12 15 16
f 16 32 29
f 16 29 14
f 16 15 33
f 33 34 16
f 31 15 12
f 12 30 31
f 24 17 42
f 25 40 42
f 18 20 42
f 42 26 24
f 42 35 18
f 29 32 42
f 42 36 35
f 17 36 42
f 42 44 34
f 42 34 33
f 28 26 42
f 23 22 42
f 20 19 42
f 42 22 25
f 42 39 29
f 19 21 42
f 42 37 23
f 32 44 42
f 21 37 42
f 40 39 42
f 42 27 28
f 42 31 30
f 42 38 27
