# https://github.com/mikedh/trimesh
v -0.05629927 -0.02860666 0.01471215
v -0.05296963 -0.02860666 0.01497320
v -0.05629927 -0.02860666 0.01703003
v -0.05296963 -0.02860666 0.01703003
v -0.05629927 -0.02845850 0.01703005
v -0.05629927 -0.02845850 0.01471200
v -0.05296963 -0.02845850 0.01703003
v -0.05301080 -0.02845850 0.01496982
v -0.05296963 -0.02845850 0.01497320
v -0.05298967 -0.02845850 0.01703005
f 8 9 2
f 4 7 10
f 5 6 3
f 3 6 1
f 4 3 1
f 1 2 4
f 1 6 8
f 8 2 1
f 2 9 7
f 7 4 2
f 10 6 5
f 10 8 6
f 10 7 9
f 9 8 10
f 5 3 10
f 3 4 10
