# https://github.com/mikedh/trimesh
v -0.05296963 0.03584333 0.01497315
v -0.04966501 0.03194510 0.01497315
v -0.05296963 0.03570978 0.01703004
v -0.05296963 0.03643823 0.01498020
v -0.05283570 0.03570978 0.01497315
v -0.04966501 0.03154951 0.01703004
v -0.04966501 0.03214340 0.01497637
v -0.05283570 0.03570978 0.01703004
v -0.05296963 0.03630468 0.01702319
v -0.05296963 0.03703212 0.01502470
v -0.05283570 0.03630468 0.01498222
v -0.04966501 0.03254000 0.01498886
v -0.04966501 0.03214340 0.01702702
v -0.04986332 0.03214340 0.01703004
v -0.05283570 0.03630468 0.01702118
v -0.05296963 0.03689857 0.01697910
v -0.05296963 0.03812177 0.01524519
v -0.04966501 0.03275247 0.01505531
v -0.05296963 0.03825936 0.01527559
v -0.04966501 0.03275348 0.01694386
v -0.04986332 0.03273830 0.01701112
v -0.05283570 0.03689857 0.01696420
v -0.05296963 0.03808737 0.01674854
v -0.04966501 0.03318954 0.01520532
v -0.05296963 0.03854568 0.01547716
v -0.04966501 0.03328059 0.01525787
v -0.04966501 0.03328667 0.01672800
v -0.05296963 0.03830489 0.01670324
v -0.05296963 0.03878142 0.01586075
v -0.04966501 0.03353960 0.01598056
v -0.04966501 0.03353657 0.01599244
v -0.05296963 0.03881885 0.01598398
v -0.05296963 0.03868227 0.01622722
v -0.05296963 0.02863350 0.01497315
v -0.04966501 0.02863350 0.01497315
v -0.05296963 0.02863350 0.01703004
v -0.04966501 0.02863350 0.01703004
f 25 26 19
f 33 27 32
f 33 28 27
f 27 28 20
f 1 4 5
f 5 4 2
f 19 18 12
f 19 26 24
f 24 18 19
f 26 25 29
f 29 30 26
f 32 30 29
f 32 27 31
f 31 30 32
f 13 14 6
f 11 4 10
f 10 12 11
f 11 12 4
f 2 4 7
f 4 12 7
f 19 12 17
f 17 12 10
f 23 22 28
f 23 16 22
f 22 16 15
f 9 15 16
f 21 15 13
f 22 15 21
f 13 20 21
f 28 22 21
f 21 20 28
f 8 9 3
f 15 9 8
f 8 14 13
f 13 15 8
f 35 36 34
f 37 36 35
f 5 34 1
f 5 35 34
f 2 35 5
f 37 35 7
f 7 35 2
f 7 31 27
f 27 20 7
f 7 24 26
f 7 6 37
f 26 30 7
f 7 20 13
f 7 12 18
f 18 24 7
f 30 31 7
f 13 6 7
f 9 36 3
f 1 34 9
f 34 36 9
f 32 29 9
f 9 4 1
f 9 23 28
f 9 33 32
f 10 4 9
f 9 25 19
f 28 33 9
f 9 29 25
f 19 17 9
f 9 17 10
f 16 23 9
f 3 36 8
f 8 36 37
f 37 6 8
f 8 6 14
