# https://github.com/mikedh/trimesh
v -0.05669623 -0.05690886 0.01719491
v -0.05664106 -0.05694769 0.01719491
v -0.05669623 -0.05685996 0.01802236
v -0.05669623 -0.05409404 0.01719491
v -0.05640277 -0.05711419 0.01719491
v -0.05669623 -0.05677745 0.01858054
v -0.05640277 -0.05705334 0.01802236
v -0.05669623 -0.05548913 0.01863716
v -0.05408730 -0.05711830 0.01889071
v -0.05408730 -0.05633134 0.01719491
v -0.05606130 -0.05732735 0.01719491
v -0.05601073 -0.05729338 0.01802236
v -0.05560157 -0.05739194 0.01864285
v -0.05640277 -0.05686518 0.01871724
v -0.05669623 -0.05642616 0.01879474
v -0.05669623 -0.05588933 0.01882719
v -0.05521413 -0.05705259 0.01895819
v -0.05408730 -0.05717242 0.01889467
v -0.05408730 -0.05790749 0.01719491
v -0.05576401 -0.05746137 0.01719491
v -0.05571344 -0.05744047 0.01802236
v -0.05521413 -0.05761406 0.01802236
v -0.05461955 -0.05776600 0.01802236
v -0.05521413 -0.05745578 0.01877282
v -0.05580309 -0.05707200 0.01884324
v -0.05640277 -0.05645827 0.01891987
v -0.05461955 -0.05753230 0.01887413
v -0.05408730 -0.05757598 0.01889467
v -0.05408730 -0.05786493 0.01797472
v -0.05461955 -0.05780557 0.01719491
v -0.05521413 -0.05765363 0.01719491
v -0.05510201 -0.05768238 0.01719491
f 10 4 9
f 9 4 8
f 8 16 9
f 19 29 23
f 9 16 17
f 19 23 30
f 26 17 16
f 22 23 13
f 13 23 24
f 22 31 32
f 32 23 22
f 32 30 23
f 2 3 1
f 2 5 3
f 9 17 18
f 17 28 18
f 27 28 17
f 29 28 27
f 27 23 29
f 24 23 27
f 15 26 16
f 17 26 25
f 24 27 25
f 25 27 17
f 25 13 24
f 22 13 21
f 20 31 21
f 21 31 22
f 21 11 20
f 26 15 14
f 14 25 26
f 14 15 6
f 6 13 14
f 13 25 14
f 7 5 11
f 3 5 7
f 7 6 3
f 12 13 6
f 6 7 12
f 12 21 13
f 11 21 12
f 12 7 11
f 4 10 2
f 1 4 2
f 2 10 19
f 19 30 2
f 2 31 20
f 20 11 2
f 2 32 31
f 11 5 2
f 30 32 2
f 19 10 18
f 18 10 9
f 18 29 19
f 18 28 29
f 15 4 1
f 15 8 4
f 16 8 15
f 1 3 15
f 3 6 15
