# https://github.com/mikedh/trimesh
v 0.05624883 0.04159753 0.00204514
v 0.05650711 0.04159753 0.00374922
v 0.05624883 0.04161387 0.00204514
v 0.05752032 0.04159753 0.00204514
v 0.05737635 0.04159753 0.00374922
v 0.05650711 0.04161142 0.00374922
v 0.05625013 0.04220868 0.00204514
v 0.05754370 0.04159834 0.00374922
v 0.05752833 0.04159753 0.00276181
v 0.05836163 0.04379948 0.00204514
v 0.05830339 0.04339749 0.00374922
v 0.05651534 0.04220541 0.00374922
v 0.05625727 0.04280022 0.00204514
v 0.05842593 0.04399148 0.00204514
v 0.05843892 0.04399148 0.00273461
v 0.05845776 0.04399148 0.00374922
v 0.05654652 0.04280022 0.00374922
v 0.05629408 0.04339749 0.00204514
v 0.05843069 0.04439429 0.00204514
v 0.05843221 0.04458629 0.00204514
v 0.05846014 0.04458629 0.00374922
v 0.05739519 0.04994368 0.00374922
v 0.05690092 0.04994286 0.00204514
v 0.05843286 0.04518110 0.00204514
v 0.05844412 0.04518110 0.00273461
v 0.05846035 0.04518110 0.00374922
v 0.05841792 0.04994368 0.00374922
v 0.05690179 0.04994368 0.00204665
v 0.05690807 0.04994368 0.00204514
v 0.05843286 0.04636909 0.00204514
v 0.05846035 0.04696390 0.00374922
v 0.05841770 0.04994368 0.00373587
v 0.05841814 0.04993633 0.00374922
v 0.05795158 0.04994368 0.00204514
v 0.05843264 0.04696390 0.00204514
v 0.05844390 0.04696390 0.00273461
v 0.05845732 0.04755790 0.00374922
v 0.05839800 0.04994368 0.00272110
v 0.05843502 0.04934152 0.00374922
v 0.05841640 0.04934152 0.00273461
v 0.05840363 0.04934152 0.00204514
v 0.05838588 0.04993633 0.00204514
v 0.05838566 0.04994123 0.00204514
v 0.05842961 0.04755790 0.00204514
v 0.05844087 0.04755790 0.00273461
v 0.05845212 0.04815271 0.00374922
v 0.05844628 0.04874752 0.00374922
v 0.05842896 0.04874752 0.00273461
v 0.05841662 0.04874752 0.00204514
v 0.05842355 0.04815271 0.00204514
v 0.05843545 0.04815271 0.00273461
f 23 17 22
f 17 23 18
f 13 12 17
f 17 18 13
f 13 6 12
f 28 29 23
f 28 23 22
f 51 46 44
f 6 13 7
f 43 34 38
f 4 11 8
f 16 11 15
f 15 11 14
f 49 39 48
f 40 39 49
f 26 25 31
f 21 25 26
f 25 21 24
f 6 7 3
f 43 38 32
f 32 39 40
f 48 39 47
f 47 46 51
f 51 48 47
f 14 11 10
f 11 4 10
f 8 5 9
f 9 4 8
f 50 49 48
f 50 48 51
f 51 44 50
f 40 49 41
f 41 32 40
f 20 21 16
f 20 24 21
f 33 32 27
f 39 32 33
f 43 32 42
f 32 41 42
f 46 37 45
f 45 44 46
f 19 15 14
f 16 15 19
f 19 20 16
f 30 31 25
f 25 24 30
f 36 30 35
f 31 30 36
f 2 6 3
f 1 2 3
f 22 27 32
f 32 28 22
f 29 28 32
f 32 34 29
f 32 38 34
f 9 5 2
f 1 4 9
f 9 2 1
f 2 5 33
f 22 17 33
f 33 6 2
f 26 31 33
f 33 27 22
f 33 5 8
f 33 37 46
f 17 12 33
f 12 6 33
f 8 11 33
f 33 11 16
f 33 21 26
f 46 47 33
f 16 21 33
f 33 47 39
f 31 37 33
f 44 35 30
f 30 4 1
f 30 18 23
f 23 29 30
f 30 34 43
f 30 13 18
f 29 34 30
f 30 50 44
f 30 7 13
f 1 3 30
f 14 10 30
f 43 42 30
f 30 3 7
f 30 10 4
f 49 50 30
f 30 41 49
f 24 20 30
f 30 19 14
f 30 42 41
f 20 19 30
f 36 35 44
f 44 45 36
f 36 37 31
f 36 45 37
