# https://github.com/mikedh/trimesh
v -0.05840151 0.04462841 0.00228886
v -0.05838021 0.04522355 0.00069626
v -0.05837967 0.04462841 0.00069626
v -0.05839551 0.04403455 0.00228886
v -0.05840151 0.04700641 0.00228886
v -0.05813282 0.04462841 -0.00018455
v -0.05838021 0.04700641 0.00069626
v -0.05812845 0.04403455 -0.00018455
v -0.05837147 0.04403455 0.00069626
v -0.05815794 0.04341755 0.00228886
v -0.05839878 0.04760155 0.00228886
v -0.05813282 0.04522355 -0.00018455
v -0.05759159 0.04938312 -0.00055156
v -0.05759159 0.04819541 -0.00055129
v -0.05759159 0.04462841 -0.00054739
v -0.05759159 0.04403455 -0.00054461
v -0.05837748 0.04760155 0.00069626
v -0.05813172 0.04760155 -0.00018400
v -0.05813282 0.04700641 -0.00018428
v -0.05804598 0.04357951 -0.00006055
v -0.05812626 0.04348054 0.00069626
v -0.05750312 0.04224141 0.00171527
v -0.05750367 0.04224141 0.00173389
v -0.05751077 0.04224141 0.00228886
v -0.05839551 0.04793576 0.00228886
v -0.05759159 0.04997827 -0.00055129
v -0.05699740 0.05473427 -0.00050986
v -0.05640266 0.05537183 -0.00044952
v -0.05759159 0.04349339 -0.00017788
v -0.05282274 0.04224141 0.00049163
v -0.05640266 0.04224141 0.00048551
v -0.05837147 0.04819541 0.00069626
v -0.05812080 0.04938312 -0.00018289
v -0.05812571 0.04879055 -0.00018344
v -0.05812899 0.04819541 -0.00018372
v -0.05759159 0.05057212 -0.00055100
v -0.05699740 0.04224141 0.00059005
v -0.05739663 0.04224141 0.00095261
v -0.05750203 0.04224141 0.00170470
v -0.05628196 0.04224141 0.00228886
v -0.05839278 0.04819541 0.00228886
v -0.05759159 0.05295012 -0.00047732
v -0.05759159 0.05354527 -0.00041282
v -0.05699740 0.05532813 -0.00043534
v -0.05759159 0.05116727 -0.00054545
v -0.05759159 0.05235627 -0.00050624
v -0.05699740 0.05537183 -0.00041366
v -0.05282274 0.05537183 0.00049052
v -0.05698866 0.04224141 0.00058838
v -0.05282274 0.04224141 0.00185095
v -0.05836492 0.04879055 0.00069626
v -0.05810606 0.05057212 -0.00018066
v -0.05611321 0.05537183 0.00228886
v -0.05838622 0.04879055 0.00228886
v -0.05801922 0.05295012 -0.00010393
v -0.05809240 0.05116727 -0.00017399
v -0.05804653 0.05235627 -0.00013312
v -0.05797826 0.05354527 -0.00003914
v -0.05753207 0.05473427 -0.00015869
v -0.05742175 0.05532813 -0.00006222
v -0.05741246 0.05537183 -0.00004693
v -0.05282274 0.05537183 0.00184984
v -0.05282274 0.05355812 0.00185095
v -0.05835291 0.04938312 0.00069626
v -0.05282274 0.05415327 0.00185067
v -0.05282274 0.05474713 0.00185039
v -0.05753534 0.05537183 0.00228886
v -0.05837912 0.04912347 0.00228886
v -0.05829065 0.05116727 0.00069626
v -0.05824750 0.05176113 0.00069626
v -0.05820163 0.05235627 0.00069626
v -0.05833652 0.04997827 0.00069626
v -0.05831905 0.05057212 0.00069626
v -0.05814046 0.05295012 0.00069626
v -0.05793457 0.05402601 0.00006262
v -0.05751732 0.05537183 0.00069626
v -0.05776253 0.05473427 0.00069626
v -0.05753808 0.05532813 0.00069626
v -0.05837312 0.04938312 0.00228886
v -0.05754517 0.05535384 0.00228886
v -0.05831850 0.05090762 0.00228886
v -0.05830539 0.05116727 0.00228886
v -0.05828409 0.05150147 0.00228886
v -0.05826716 0.05176113 0.00228886
v -0.05833543 0.05057212 0.00228886
v -0.05822074 0.05235627 0.00228886
v -0.05836328 0.04971733 0.00228886
v -0.05835509 0.04997827 0.00228886
v -0.05834417 0.05031247 0.00228886
v -0.05810660 0.05328562 0.00228886
v -0.05805690 0.05354527 0.00069626
v -0.05818306 0.05269048 0.00228886
v -0.05815357 0.05295012 0.00228886
v -0.05795095 0.05409028 0.00069626
v -0.05787559 0.05438850 0.00069626
v -0.05755773 0.05532813 0.00228886
v -0.05765658 0.05506848 0.00228886
v -0.05779093 0.05470471 0.00228886
v -0.05806946 0.05354527 0.00228886
v -0.05794986 0.05414170 0.00228886
v -0.05791545 0.05427538 0.00228886
v -0.05788050 0.05441035 0.00228886
v -0.05783899 0.05454789 0.00228886
f 16 28 30
f 30 28 48
f 43 27 42
f 28 16 15
f 15 27 28
f 1 3 4
f 75 74 91
f 31 16 30
f 16 31 29
f 53 40 50
f 55 43 42
f 36 45 27
f 46 56 42
f 46 45 56
f 42 27 46
f 27 45 46
f 13 27 14
f 27 15 14
f 9 4 3
f 9 10 4
f 21 10 9
f 71 70 84
f 71 55 70
f 38 39 21
f 37 29 49
f 49 29 31
f 63 53 50
f 27 43 44
f 28 27 44
f 42 56 57
f 57 55 42
f 57 56 73
f 43 55 58
f 55 71 58
f 58 74 75
f 58 71 74
f 67 76 80
f 76 96 80
f 77 95 98
f 75 95 77
f 100 95 94
f 94 99 100
f 91 99 94
f 75 91 94
f 94 95 75
f 2 3 1
f 26 27 13
f 26 36 27
f 24 10 23
f 8 9 3
f 73 85 69
f 70 55 69
f 84 70 69
f 69 57 73
f 55 57 69
f 86 71 84
f 74 71 86
f 90 99 91
f 74 93 90
f 90 91 74
f 62 53 66
f 59 44 43
f 60 44 59
f 43 58 59
f 75 60 59
f 59 58 75
f 28 44 47
f 47 44 60
f 97 77 98
f 78 96 76
f 78 97 96
f 77 97 78
f 101 95 100
f 101 102 95
f 98 95 103
f 95 102 103
f 64 51 54
f 7 5 17
f 7 17 18
f 52 64 56
f 51 64 52
f 56 45 52
f 21 39 22
f 22 10 21
f 22 23 10
f 6 8 3
f 3 2 6
f 6 14 15
f 6 15 16
f 16 8 6
f 13 14 6
f 6 12 13
f 21 9 20
f 9 8 20
f 20 38 21
f 37 38 20
f 20 29 37
f 16 29 20
f 20 8 16
f 81 69 85
f 82 69 81
f 84 69 83
f 83 69 82
f 89 85 73
f 73 88 89
f 87 88 73
f 92 93 74
f 74 86 92
f 53 63 65
f 65 66 53
f 61 47 60
f 61 78 76
f 61 60 75
f 75 77 61
f 77 78 61
f 68 64 54
f 79 64 68
f 72 64 79
f 79 87 72
f 72 87 73
f 73 56 72
f 56 64 72
f 11 17 5
f 34 17 33
f 51 52 33
f 33 52 45
f 45 36 33
f 36 34 33
f 19 12 7
f 7 18 19
f 19 18 36
f 36 26 19
f 13 12 19
f 19 26 13
f 35 17 34
f 35 18 17
f 35 34 36
f 36 18 35
f 51 33 32
f 32 33 17
f 17 11 25
f 41 32 25
f 25 32 17
f 1 5 2
f 2 5 7
f 30 50 22
f 50 40 22
f 22 31 30
f 22 40 24
f 22 38 37
f 37 49 22
f 39 38 22
f 22 49 31
f 24 23 22
f 6 2 7
f 7 12 6
f 30 48 65
f 65 50 30
f 65 48 62
f 65 63 50
f 62 66 65
f 62 48 61
f 61 48 28
f 61 53 62
f 61 76 67
f 67 53 61
f 28 47 61
f 32 41 54
f 54 51 32
f 25 53 67
f 25 10 24
f 25 97 98
f 24 40 25
f 1 4 25
f 84 83 25
f 67 80 25
f 100 99 25
f 25 81 85
f 93 92 25
f 40 53 25
f 25 90 93
f 4 10 25
f 98 103 25
f 25 5 1
f 25 86 84
f 25 80 96
f 25 101 100
f 25 68 54
f 85 89 25
f 25 87 79
f 99 90 25
f 96 97 25
f 102 101 25
f 25 103 102
f 82 81 25
f 25 83 82
f 25 89 88
f 88 87 25
f 25 92 86
f 79 68 25
f 25 11 5
f 54 41 25
