# https://github.com/mikedh/trimesh
v 0.02879744 0.05626198 0.00236468
v 0.02879744 0.05654026 0.01058471
v 0.02879744 0.05734775 0.00236468
v 0.02879744 0.05756415 0.01058471
v 0.02879744 0.05735586 0.00260287
v 0.02879744 0.05755886 0.01036985
v 0.02879744 0.05737133 0.00311224
v 0.02879744 0.05754622 0.00986852
v 0.02879744 0.05752038 0.00884896
v 0.02879744 0.05749415 0.00783021
v 0.02879744 0.05746774 0.00681065
v 0.02879744 0.05742774 0.00527448
v 0.02879744 0.05737963 0.00342849
v 0.02879450 0.05654020 0.01058269
v 0.02879450 0.05626198 0.00236468
v 0.02879450 0.05734787 0.00236468
v 0.02879450 0.05755898 0.01036989
v 0.02879450 0.05756427 0.01058471
v 0.02879450 0.05735598 0.00260282
v 0.02879450 0.05737145 0.00311210
v 0.02879450 0.05752050 0.00884930
v 0.02879450 0.05754635 0.00986866
v 0.02879450 0.05749428 0.00783074
v 0.02879450 0.05742789 0.00527551
v 0.02879450 0.05746788 0.00681139
v 0.02879450 0.05737979 0.00342988
v 0.02879450 0.05654026 0.01058471
v 0.02879450 0.05737148 0.00311335
v 0.02879450 0.05737149 0.00311369
v 0.02879450 0.05737149 0.00311355
f 27 14 2
f 23 21 10
f 9 10 21
f 18 4 17
f 28 7 20
f 29 7 30
f 7 28 30
f 6 17 4
f 25 11 24
f 11 12 24
f 15 3 1
f 16 3 15
f 1 2 15
f 2 14 15
f 2 4 27
f 27 4 18
f 19 5 3
f 19 3 16
f 5 19 7
f 19 20 7
f 13 7 26
f 26 7 29
f 11 25 23
f 23 10 11
f 21 22 8
f 8 9 21
f 6 4 2
f 6 2 1
f 1 3 6
f 3 5 6
f 5 7 6
f 13 12 6
f 6 7 13
f 10 9 6
f 6 11 10
f 9 8 6
f 6 12 11
f 22 17 6
f 6 8 22
f 24 27 18
f 16 15 24
f 24 15 14
f 14 27 24
f 24 19 16
f 18 17 24
f 24 26 29
f 24 21 23
f 24 20 19
f 23 25 24
f 24 22 21
f 24 17 22
f 24 28 20
f 24 30 28
f 13 26 24
f 24 12 13
