# https://github.com/mikedh/trimesh
v -0.05757914 -0.04457276 0.01387138
v -0.05752458 -0.04457276 0.00979437
v -0.05861042 -0.04457276 0.01387138
v -0.05724622 -0.05331887 0.01387138
v -0.05854719 -0.04457276 0.00979437
v -0.05722753 -0.05331887 0.00979437
v -0.05860107 -0.04457276 0.01292596
v -0.05861055 -0.04461129 0.01387138
v -0.05833191 -0.05331887 0.01387138
v -0.05854868 -0.04457276 0.00986860
v -0.05854746 -0.04516268 0.00979437
v -0.05826002 -0.05331887 0.00979437
v -0.05858537 -0.04457276 0.01190710
v -0.05860121 -0.04516268 0.01292596
v -0.05861055 -0.04639562 0.01387138
v -0.05832122 -0.05331887 0.01292596
v -0.05838526 -0.05289077 0.01387138
v -0.05837524 -0.05289077 0.01292596
v -0.05856777 -0.04516268 0.01088825
v -0.05856749 -0.04457276 0.01088825
v -0.05854895 -0.04516268 0.00986900
v -0.05854746 -0.04639562 0.00979437
v -0.05826056 -0.05331887 0.00981552
v -0.05831567 -0.05289077 0.00979437
v -0.05858550 -0.04516268 0.01190710
v -0.05860121 -0.04635195 0.01292596
v -0.05860053 -0.04694615 0.01292596
v -0.05860987 -0.04694615 0.01387138
v -0.05830362 -0.05331887 0.01190710
v -0.05835859 -0.05289077 0.01190710
v -0.05844104 -0.05229657 0.01387138
v -0.05843102 -0.05229657 0.01292596
v -0.05841478 -0.05229657 0.01190710
v -0.05856777 -0.04635195 0.01088825
v -0.05854895 -0.04635195 0.00986900
v -0.05854692 -0.04694615 0.00979437
v -0.05854841 -0.04694615 0.00986900
v -0.05826774 -0.05331887 0.01015514
v -0.05831729 -0.05289077 0.00986900
v -0.05837619 -0.05229657 0.00979437
v -0.05858550 -0.04635195 0.01190710
v -0.05858496 -0.04694615 0.01190710
v -0.05859701 -0.04754121 0.01292596
v -0.05860636 -0.04754121 0.01387138
v -0.05828317 -0.05331887 0.01088825
v -0.05833855 -0.05289077 0.01088825
v -0.05839663 -0.05229657 0.01088825
v -0.05837768 -0.05229657 0.00986900
v -0.05846974 -0.05189415 0.01387138
v -0.05848816 -0.05147803 0.01292596
v -0.05848423 -0.05141296 0.01238800
v -0.05856709 -0.04694615 0.01088825
v -0.05854339 -0.04754121 0.00979437
v -0.05854489 -0.04754121 0.00986900
v -0.05848410 -0.05081619 0.01035787
v -0.05841423 -0.05170150 0.00979437
v -0.05856357 -0.04754121 0.01088825
v -0.05858131 -0.04754121 0.01190710
v -0.05860595 -0.04758403 0.01387138
v -0.05859119 -0.04813542 0.01292596
v -0.05860013 -0.04817909 0.01387138
v -0.05848910 -0.05089839 0.01088825
v -0.05849317 -0.05155852 0.01387138
v -0.05851104 -0.05110730 0.01292596
v -0.05849574 -0.05111415 0.01199171
v -0.05854299 -0.04758403 0.00979437
v -0.05853757 -0.04813542 0.00979437
v -0.05855775 -0.04813542 0.01088825
v -0.05846853 -0.05079821 0.00979437
v -0.05845431 -0.05106021 0.00979437
v -0.05844916 -0.05114754 0.00979437
v -0.05852201 -0.05051310 0.01190710
v -0.05850373 -0.05051310 0.01088825
v -0.05848680 -0.05039322 0.00979437
v -0.05848085 -0.05055077 0.00979437
v -0.05857548 -0.04813542 0.01190710
v -0.05858442 -0.04873048 0.01292596
v -0.05859376 -0.04873048 0.01387138
v -0.05853798 -0.05051310 0.01292596
v -0.05852079 -0.05110730 0.01387138
v -0.05853067 -0.04873048 0.00979437
v -0.05855084 -0.04873048 0.01088825
v -0.05856871 -0.04873048 0.01190710
v -0.05853933 -0.04991803 0.01190710
v -0.05852133 -0.04991803 0.01088825
v -0.05850237 -0.04991803 0.00986900
v -0.05849967 -0.04996170 0.00979437
v -0.05857210 -0.04932383 0.01292596
v -0.05858158 -0.04932383 0.01387138
v -0.05859295 -0.04877329 0.01387138
v -0.05854773 -0.05051310 0.01387138
v -0.05855518 -0.04991803 0.01292596
v -0.05853839 -0.04932383 0.01088825
v -0.05851794 -0.04932640 0.00979437
v -0.05851943 -0.04932383 0.00986900
v -0.05855626 -0.04932383 0.01190710
v -0.05851632 -0.04938291 0.00979437
v -0.05856344 -0.04996170 0.01387138
f 6 2 4
f 1 4 2
f 68 67 81
f 8 3 7
f 93 84 96
f 92 91 98
f 98 88 92
f 79 91 92
f 92 84 79
f 96 84 92
f 92 88 96
f 74 55 73
f 63 80 64
f 50 63 64
f 64 80 91
f 64 91 79
f 49 63 50
f 47 30 33
f 56 55 71
f 56 40 55
f 96 88 83
f 54 67 68
f 68 57 54
f 54 57 52
f 20 19 13
f 13 19 25
f 89 88 98
f 75 55 74
f 75 69 55
f 71 55 70
f 55 69 70
f 79 84 72
f 72 73 55
f 74 73 86
f 50 64 51
f 51 47 33
f 62 64 79
f 79 72 62
f 62 72 55
f 30 29 16
f 32 17 31
f 50 51 32
f 32 51 33
f 31 49 32
f 32 49 50
f 46 29 30
f 30 47 48
f 48 46 30
f 40 46 48
f 47 51 48
f 51 62 48
f 55 40 48
f 48 62 55
f 68 81 82
f 82 83 68
f 81 93 82
f 82 93 96
f 96 83 82
f 53 54 36
f 19 20 10
f 37 54 52
f 36 54 37
f 37 22 36
f 35 22 37
f 34 37 52
f 35 37 34
f 28 27 44
f 58 57 68
f 74 86 87
f 94 86 95
f 95 81 94
f 95 93 81
f 85 86 73
f 73 72 85
f 93 95 85
f 85 95 86
f 84 93 85
f 85 72 84
f 65 51 64
f 64 62 65
f 65 62 51
f 9 17 18
f 18 16 9
f 30 16 18
f 17 32 18
f 33 30 18
f 18 32 33
f 40 24 39
f 39 46 40
f 77 83 88
f 78 61 77
f 77 61 60
f 77 90 78
f 89 90 77
f 88 89 77
f 44 27 43
f 60 61 43
f 43 58 60
f 67 54 66
f 54 53 66
f 11 10 5
f 8 7 14
f 14 7 13
f 13 25 14
f 27 28 15
f 15 26 27
f 60 58 76
f 83 77 76
f 76 77 60
f 68 83 76
f 76 58 68
f 97 86 94
f 97 87 86
f 23 24 12
f 23 39 24
f 44 43 59
f 59 43 61
f 19 10 21
f 10 11 21
f 42 41 34
f 42 34 52
f 26 41 42
f 27 26 42
f 52 57 42
f 57 58 42
f 42 43 27
f 58 43 42
f 46 39 45
f 29 46 45
f 39 23 38
f 38 45 39
f 2 5 10
f 10 3 1
f 10 1 2
f 10 7 3
f 13 7 10
f 10 20 13
f 8 14 15
f 15 14 26
f 19 34 41
f 41 25 19
f 26 14 41
f 41 14 25
f 97 5 2
f 97 2 6
f 6 12 97
f 97 81 67
f 67 66 97
f 74 87 97
f 97 56 71
f 71 70 97
f 12 24 97
f 94 81 97
f 97 75 74
f 97 24 40
f 40 56 97
f 69 75 97
f 97 70 69
f 97 53 36
f 36 22 97
f 97 11 5
f 97 66 53
f 22 11 97
f 4 1 59
f 59 9 4
f 59 89 98
f 59 3 8
f 1 3 59
f 98 91 59
f 59 80 63
f 63 49 59
f 59 17 9
f 78 90 59
f 91 80 59
f 31 17 59
f 59 49 31
f 8 15 59
f 59 28 44
f 59 90 89
f 59 61 78
f 59 15 28
f 21 34 19
f 35 34 21
f 21 11 22
f 21 22 35
f 4 9 38
f 38 12 6
f 6 4 38
f 9 16 38
f 38 16 29
f 38 23 12
f 29 45 38
