# https://github.com/mikedh/trimesh
v 0.04223411 0.05540356 0.01703004
v 0.04223411 0.05469268 0.01703004
v 0.04223411 0.05540356 0.01497076
v 0.02879876 0.05540356 0.01703004
v 0.03529613 0.05257473 0.01702984
v 0.04223411 0.05409812 0.01700282
v 0.03470163 0.05257473 0.01703004
v 0.04223411 0.05469268 0.01497318
v 0.04205260 0.05540356 0.01497056
v 0.02879876 0.05540356 0.01497076
v 0.02879876 0.05257473 0.01703004
v 0.03588931 0.05257473 0.01701512
v 0.04223411 0.05362734 0.01673447
v 0.04223411 0.05462788 0.01497580
v 0.03503571 0.05257473 0.01497359
v 0.04038486 0.05540356 0.01497056
v 0.03444121 0.05257473 0.01497318
v 0.02879876 0.05257473 0.01497318
v 0.03648380 0.05257473 0.01692641
v 0.04223411 0.05346145 0.01598387
v 0.03704411 0.05257473 0.01676956
v 0.03747946 0.05257473 0.01662762
v 0.03762940 0.05257473 0.01655444
v 0.04223411 0.05409812 0.01500060
v 0.03562889 0.05257473 0.01498628
v 0.04223411 0.05361515 0.01533145
v 0.03769121 0.05257473 0.01643084
v 0.03771094 0.05257473 0.01598387
v 0.03760177 0.05257473 0.01541673
v 0.04223411 0.05404661 0.01502802
v 0.04223411 0.05363537 0.01525121
v 0.03681788 0.05257473 0.01517197
v 0.03741238 0.05257473 0.01534052
f 2 7 5
f 18 10 16
f 6 2 5
f 9 3 8
f 8 15 9
f 9 15 17
f 13 6 12
f 12 6 5
f 20 13 23
f 13 22 23
f 13 12 19
f 27 28 20
f 20 23 27
f 21 22 13
f 13 19 21
f 15 8 14
f 14 24 15
f 15 24 25
f 29 33 31
f 20 28 29
f 31 25 30
f 30 25 24
f 31 33 32
f 32 25 31
f 20 29 26
f 26 29 31
f 11 1 4
f 11 2 1
f 7 2 11
f 4 10 11
f 11 10 18
f 16 10 4
f 4 1 16
f 1 3 16
f 16 3 9
f 17 16 9
f 18 16 17
f 32 11 18
f 7 11 32
f 5 7 32
f 18 17 32
f 28 27 32
f 32 12 5
f 32 17 15
f 15 25 32
f 32 23 22
f 32 19 12
f 32 27 23
f 22 21 32
f 32 21 19
f 32 29 28
f 33 29 32
f 1 2 26
f 26 3 1
f 2 6 26
f 26 13 20
f 26 6 13
f 26 8 3
f 31 30 26
f 26 14 8
f 24 14 26
f 26 30 24
