# https://github.com/mikedh/trimesh
v 0.04038280 0.02912786 0.01497335
v 0.04038280 0.02912677 0.01703004
v 0.03979068 0.02972323 0.01497335
v 0.04038280 0.02972323 0.01497396
v 0.04038280 0.02972104 0.01702964
v 0.03979068 0.02972323 0.01703004
v 0.03380536 0.03214182 0.01497335
v 0.03444088 0.03210031 0.01497416
v 0.03380536 0.03269458 0.01497637
v 0.03380536 0.03273610 0.01497677
v 0.03380536 0.03333036 0.01505510
v 0.04038280 0.03031750 0.01514812
v 0.04038280 0.03031531 0.01685065
v 0.03384682 0.03328885 0.01694648
v 0.03380536 0.03328885 0.01695192
v 0.03384682 0.03269458 0.01702682
v 0.03380536 0.03269458 0.01702723
v 0.03444088 0.03210031 0.01702924
v 0.03384682 0.03210031 0.01703004
v 0.03380536 0.03386565 0.01529610
v 0.04038280 0.03065396 0.01539818
v 0.03380536 0.03387439 0.01530234
v 0.04038280 0.03065942 0.01658246
v 0.03380536 0.03388313 0.01668152
v 0.03380536 0.03385800 0.01669622
v 0.03380536 0.03210031 0.01703004
v 0.03380536 0.03408522 0.01598408
v 0.03380536 0.03406228 0.01577247
v 0.04038280 0.03069766 0.01598408
v 0.04038280 0.02859150 0.01497335
v 0.04038280 0.02859150 0.01703004
v 0.03376681 0.02859150 0.01497335
v 0.03376660 0.02859150 0.01497346
v 0.03376659 0.02859150 0.01497347
v 0.03376642 0.02859150 0.01497586
v 0.03376630 0.02859150 0.01498226
v 0.03376630 0.02859150 0.01702082
v 0.03376643 0.02859150 0.01702763
v 0.03376660 0.02859150 0.01702994
v 0.03376683 0.02859150 0.01703004
v 0.03376629 0.02859150 0.01702045
v 0.03376625 0.02859150 0.01700230
v 0.03376625 0.02859150 0.01500016
v 0.03376626 0.02859150 0.01499463
v 0.03376630 0.02859150 0.01498242
f 42 27 43
f 4 10 11
f 27 29 21
f 15 17 16
f 16 5 15
f 17 5 16
f 14 5 13
f 15 5 14
f 23 24 13
f 27 24 23
f 23 29 27
f 3 4 1
f 3 7 4
f 4 7 8
f 27 21 28
f 21 22 28
f 12 22 21
f 12 4 11
f 9 8 7
f 10 4 9
f 4 8 9
f 2 5 6
f 18 5 17
f 15 14 25
f 13 24 25
f 25 14 13
f 20 12 11
f 22 12 20
f 19 6 5
f 5 18 19
f 17 26 19
f 19 18 17
f 24 27 42
f 42 41 24
f 11 10 34
f 34 35 11
f 15 38 39
f 39 17 15
f 17 39 26
f 26 39 40
f 1 30 3
f 3 30 32
f 32 7 3
f 12 30 1
f 2 31 12
f 12 21 29
f 12 5 2
f 1 4 12
f 29 23 12
f 12 31 30
f 13 5 12
f 12 23 13
f 25 24 41
f 41 37 25
f 25 38 15
f 25 37 38
f 44 43 27
f 27 28 44
f 22 45 44
f 44 28 22
f 33 7 32
f 33 9 7
f 33 34 10
f 10 9 33
f 19 31 2
f 40 31 19
f 19 26 40
f 2 6 19
f 36 41 42
f 42 43 36
f 32 30 36
f 43 44 36
f 30 31 36
f 36 37 41
f 36 31 40
f 40 39 36
f 35 34 36
f 36 39 38
f 38 37 36
f 36 33 32
f 34 33 36
f 11 35 36
f 36 20 11
f 36 45 22
f 22 20 36
