# https://github.com/mikedh/trimesh
v 0.05658564 -0.04159290 0.01373547
v 0.05789500 -0.04159290 0.01373547
v 0.05660084 -0.04159290 0.01058612
v 0.05660084 -0.04159552 0.01058612
v 0.05660637 -0.04177170 0.01058612
v 0.05662058 -0.04219003 0.01058612
v 0.05659176 -0.04172198 0.01373547
v 0.05822619 -0.04215776 0.01373547
v 0.05845829 -0.04252668 0.01352120
v 0.05763408 -0.04159290 0.01058612
v 0.05666538 -0.04260924 0.01058612
v 0.05664131 -0.04221445 0.01373547
v 0.05850586 -0.04265401 0.01373547
v 0.05850665 -0.04300780 0.01058612
v 0.05666459 -0.04231474 0.01373547
v 0.05674887 -0.04290635 0.01058612
v 0.05853941 -0.04277058 0.01373547
v 0.05857060 -0.04337876 0.01190722
v 0.05853526 -0.04327671 0.01058612
v 0.05669834 -0.04242870 0.01354062
v 0.05676940 -0.04259412 0.01373547
v 0.05753342 -0.04456283 0.01058612
v 0.05757151 -0.04456283 0.01373547
v 0.05682703 -0.04273831 0.01373547
v 0.05859665 -0.04337876 0.01373547
v 0.05858737 -0.04337876 0.01292617
v 0.05855086 -0.04337876 0.01088827
v 0.05857711 -0.04397326 0.01190722
v 0.05855895 -0.04397326 0.01088827
v 0.05855323 -0.04397326 0.01058612
v 0.05854454 -0.04337876 0.01058612
v 0.05855461 -0.04456283 0.01058612
v 0.05860198 -0.04456283 0.01373547
v 0.05860119 -0.04397326 0.01373547
v 0.05859290 -0.04397326 0.01292617
v 0.05857810 -0.04456283 0.01190722
v 0.05856033 -0.04456283 0.01088827
v 0.05855421 -0.04439160 0.01058612
v 0.05859388 -0.04456283 0.01292617
f 22 23 16
f 15 11 16
f 24 16 23
f 11 15 12
f 12 6 11
f 14 17 18
f 5 6 1
f 16 24 21
f 1 6 7
f 6 12 7
f 17 14 13
f 9 10 2
f 9 14 10
f 9 13 14
f 1 3 4
f 4 5 1
f 20 21 15
f 20 15 16
f 16 21 20
f 33 39 34
f 18 28 29
f 29 30 18
f 8 9 2
f 13 9 8
f 28 36 37
f 37 29 28
f 25 34 35
f 35 34 39
f 39 36 35
f 35 36 28
f 30 29 38
f 38 37 32
f 29 37 38
f 19 14 18
f 25 35 26
f 17 25 26
f 18 17 26
f 26 28 18
f 26 35 28
f 31 19 27
f 27 19 18
f 30 31 27
f 18 30 27
f 1 2 10
f 10 3 1
f 8 24 23
f 8 2 1
f 8 23 33
f 15 21 8
f 1 7 8
f 33 34 8
f 8 12 15
f 8 25 17
f 8 21 24
f 8 7 12
f 17 13 8
f 8 34 25
f 33 23 37
f 37 23 22
f 22 32 37
f 37 39 33
f 37 36 39
f 22 16 19
f 3 10 19
f 16 11 19
f 19 32 22
f 19 38 32
f 11 6 19
f 10 14 19
f 6 5 19
f 19 4 3
f 5 4 19
f 19 31 30
f 30 38 19
