# https://github.com/mikedh/trimesh
v 0.02879744 0.04042433 0.01497315
v 0.02968456 0.04042433 0.01497315
v 0.02879744 0.04042433 0.01703004
v 0.02879744 0.04770991 0.01497315
v 0.03027901 0.04042433 0.01509679
v 0.03027901 0.04636905 0.01497315
v 0.03087315 0.04770991 0.01497335
v 0.03087315 0.04755799 0.01497355
v 0.03146793 0.04770991 0.01504021
v 0.02968456 0.04042433 0.01703004
v 0.02879744 0.04770991 0.01703004
v 0.03027901 0.04770991 0.01497315
v 0.03064647 0.04042433 0.01534748
v 0.03195101 0.04770991 0.01528606
v 0.03027901 0.04042433 0.01690419
v 0.03146793 0.04770991 0.01696178
v 0.03102535 0.04770991 0.01702682
v 0.03087315 0.04755799 0.01702984
v 0.03087315 0.04770991 0.01703004
v 0.03072323 0.04042433 0.01598398
v 0.03213425 0.04770991 0.01598398
v 0.03065300 0.04042433 0.01663578
v 0.03195755 0.04770991 0.01669921
v 0.03163256 0.04770991 0.01689654
v 0.03204867 0.04770991 0.01641469
f 21 20 13
f 22 20 21
f 8 7 9
f 21 13 14
f 9 14 5
f 5 14 13
f 22 23 15
f 7 6 12
f 2 6 7
f 7 8 2
f 2 8 9
f 9 5 2
f 16 17 10
f 10 15 16
f 25 22 21
f 25 23 22
f 16 15 24
f 24 15 23
f 17 19 18
f 19 10 18
f 18 10 17
f 1 3 11
f 11 4 1
f 1 4 2
f 4 12 2
f 2 12 6
f 10 11 3
f 10 19 11
f 10 3 1
f 1 2 10
f 10 13 20
f 20 22 10
f 10 5 13
f 22 15 10
f 10 2 5
f 4 11 24
f 21 14 24
f 11 19 24
f 24 12 4
f 9 7 24
f 24 17 16
f 24 14 9
f 24 19 17
f 24 25 21
f 7 12 24
f 23 25 24
