# https://github.com/mikedh/trimesh
v -0.05207328 -0.04744413 0.01598398
v -0.05207566 -0.04744413 0.01596807
v -0.05226821 -0.04744413 0.01671089
v -0.05191044 -0.04777750 0.01654980
v -0.04967461 -0.05049039 0.01598398
v -0.04969720 -0.05049039 0.01583558
v -0.05191578 -0.04778645 0.01542762
v -0.05227416 -0.04744413 0.01527660
v -0.05283579 -0.04744413 0.01699521
v -0.04990402 -0.05049039 0.01669598
v -0.05009361 -0.05014867 0.01657940
v -0.04990996 -0.05049039 0.01529090
v -0.05009955 -0.05015463 0.01539802
v -0.05235379 -0.04744413 0.01522646
v -0.04992779 -0.05049039 0.01527781
v -0.05343010 -0.04744413 0.01703004
v -0.05283579 -0.04754074 0.01701131
v -0.05045852 -0.05049039 0.01694648
v -0.05283579 -0.04744413 0.01500779
v -0.05048110 -0.05049039 0.01504524
v -0.05224147 -0.04932389 0.01703004
v -0.05164715 -0.04991847 0.01702964
v -0.05283579 -0.04813532 0.01702883
v -0.05574556 -0.04744413 0.01703004
v -0.05105283 -0.05049039 0.01702561
v -0.05283579 -0.04754074 0.01499208
v -0.05293206 -0.04744413 0.01498906
v -0.05105283 -0.05049039 0.01497778
v -0.05164715 -0.05049039 0.01703004
v -0.05574556 -0.04744413 0.01497315
v -0.05574556 -0.05049039 0.01703004
v -0.05107542 -0.05049039 0.01497537
v -0.05283579 -0.04813532 0.01497456
v -0.05343010 -0.04744413 0.01497335
v -0.05574556 -0.05049039 0.01497315
v -0.05352638 -0.04744413 0.01497315
v -0.05166974 -0.05049039 0.01497315
v -0.05164715 -0.04991847 0.01497376
v -0.05343010 -0.04754074 0.01497315
v -0.05224147 -0.04932389 0.01497315
f 1 3 4
f 5 1 4
f 10 3 9
f 16 17 9
f 18 10 9
f 9 17 18
f 18 17 25
f 11 10 5
f 5 4 11
f 11 4 3
f 3 10 11
f 2 7 8
f 2 1 5
f 32 33 27
f 14 15 19
f 8 15 14
f 19 15 20
f 8 7 13
f 22 29 25
f 34 27 33
f 34 33 32
f 26 27 19
f 19 20 26
f 32 27 26
f 6 13 7
f 6 2 5
f 7 2 6
f 29 22 21
f 21 22 16
f 23 22 25
f 16 22 23
f 25 17 23
f 17 16 23
f 32 26 28
f 28 26 20
f 13 6 12
f 12 15 8
f 8 13 12
f 36 34 39
f 32 37 38
f 37 40 38
f 38 34 32
f 40 39 38
f 38 39 34
f 24 30 35
f 35 31 24
f 24 16 34
f 34 30 24
f 34 3 1
f 1 2 34
f 9 3 34
f 34 36 30
f 34 16 9
f 34 2 8
f 19 27 34
f 34 14 19
f 8 14 34
f 24 31 21
f 31 29 21
f 21 16 24
f 31 35 12
f 12 29 31
f 35 37 12
f 5 10 12
f 25 29 12
f 12 6 5
f 12 37 32
f 12 18 25
f 10 18 12
f 12 20 15
f 32 28 12
f 12 28 20
f 39 35 30
f 39 37 35
f 30 36 39
f 39 40 37
