# https://github.com/mikedh/trimesh
v 0.04692468 0.05828308 0.01700294
v 0.04692468 0.05828139 0.01704484
v 0.04751897 0.05828055 0.01700294
v 0.04692468 0.05826899 0.01496468
v 0.02880008 0.05828308 0.01700294
v 0.04749520 0.05827885 0.01704484
v 0.02880008 0.05828139 0.01704484
v 0.04751897 0.05826617 0.01496468
v 0.04811326 0.05827519 0.01700294
v 0.04751897 0.05826307 0.01459936
v 0.04713862 0.05826476 0.01459936
v 0.04692468 0.05826561 0.01459936
v 0.04654169 0.05826589 0.01459936
v 0.04514180 0.05826899 0.01496468
v 0.02880008 0.05827942 0.01648512
v 0.04808949 0.05827350 0.01704484
v 0.02880008 0.05648575 0.01704484
v 0.04811326 0.05826081 0.01496468
v 0.04870755 0.05826786 0.01704484
v 0.04870755 0.05826955 0.01700294
v 0.04811326 0.05825771 0.01459936
v 0.04633039 0.05826589 0.01459936
v 0.02880008 0.05827576 0.01598381
v 0.02880008 0.05540357 0.01703024
v 0.05536891 0.05540357 0.01704484
v 0.04870755 0.05825518 0.01496468
v 0.04930185 0.05825828 0.01704484
v 0.04930185 0.05825997 0.01700294
v 0.04870755 0.05825208 0.01459936
v 0.04454487 0.05826561 0.01459936
v 0.02880008 0.05825631 0.01546623
v 0.04416452 0.05826476 0.01459936
v 0.02880008 0.05540357 0.01497067
v 0.05577832 0.05540357 0.01704484
v 0.04930185 0.05824560 0.01496468
v 0.04892150 0.05824869 0.01459936
v 0.04989614 0.05824334 0.01704484
v 0.04989614 0.05824503 0.01700294
v 0.02880008 0.05823742 0.01496468
v 0.04395057 0.05826392 0.01459936
v 0.02880008 0.05637101 0.01459936
v 0.05577832 0.05613620 0.01459936
v 0.05577832 0.05540357 0.01494482
v 0.05577832 0.05750563 0.01704484
v 0.04930185 0.05824250 0.01459936
v 0.04989614 0.05823066 0.01496468
v 0.04951579 0.05823714 0.01459936
v 0.05049043 0.05822727 0.01704484
v 0.05049043 0.05822896 0.01700294
v 0.02880008 0.05816018 0.01459936
v 0.05577832 0.05749238 0.01459936
v 0.05577832 0.05750788 0.01700294
v 0.05575718 0.05751352 0.01704484
v 0.04989614 0.05822755 0.01459936
v 0.05049043 0.05821459 0.01496468
v 0.05106095 0.05820726 0.01704484
v 0.05108473 0.05820838 0.01700294
v 0.05577832 0.05749576 0.01496468
v 0.05544551 0.05760936 0.01459936
v 0.05524741 0.05769562 0.01700294
v 0.05524741 0.05769365 0.01704484
v 0.05049043 0.05821121 0.01459936
v 0.05108473 0.05819401 0.01496468
v 0.05070438 0.05820387 0.01459936
v 0.05108473 0.05820641 0.01704484
v 0.05167902 0.05817625 0.01704484
v 0.05167902 0.05817794 0.01700294
v 0.05524741 0.05768209 0.01496468
v 0.05524741 0.05767843 0.01459936
v 0.05465312 0.05784080 0.01598381
v 0.05465312 0.05784728 0.01700294
v 0.05522364 0.05769985 0.01704484
v 0.05108473 0.05819062 0.01459936
v 0.05167902 0.05816356 0.01496468
v 0.05227595 0.05814073 0.01704484
v 0.05227595 0.05814270 0.01700294
v 0.05486706 0.05777596 0.01459936
v 0.05465312 0.05783375 0.01496468
v 0.05419617 0.05794031 0.01700294
v 0.05465312 0.05784531 0.01704484
v 0.05167902 0.05816018 0.01459936
v 0.05227595 0.05812833 0.01496468
v 0.05284383 0.05809845 0.01704484
v 0.05287024 0.05809845 0.01700294
v 0.05465312 0.05783037 0.01459936
v 0.05414071 0.05793382 0.01496468
v 0.05416712 0.05793748 0.01598381
v 0.05389771 0.05798005 0.01700294
v 0.05389507 0.05797977 0.01704484
v 0.05418825 0.05793890 0.01704484
v 0.05227595 0.05812494 0.01459936
v 0.05287024 0.05808407 0.01496468
v 0.05287024 0.05809647 0.01704484
v 0.05346454 0.05803474 0.01700294
v 0.05432296 0.05789436 0.01459936
v 0.05412750 0.05793213 0.01459936
v 0.05384224 0.05797300 0.01496468
v 0.05346189 0.05803305 0.01704484
v 0.05287024 0.05808069 0.01459936
v 0.05346454 0.05802036 0.01496468
v 0.05382904 0.05797103 0.01459936
v 0.05358604 0.05800176 0.01459936
v 0.05346454 0.05801698 0.01459936
f 42 33 41
f 43 33 42
f 25 17 24
f 50 39 40
f 32 40 39
f 3 2 6
f 1 2 3
f 28 20 19
f 19 27 28
f 31 32 39
f 23 32 31
f 5 14 15
f 15 14 23
f 30 32 23
f 67 66 76
f 49 48 57
f 57 66 67
f 57 55 49
f 54 55 62
f 59 58 51
f 1 3 4
f 4 3 8
f 4 8 10
f 16 3 6
f 23 14 22
f 22 30 23
f 75 76 66
f 99 91 92
f 92 76 84
f 80 79 90
f 94 84 93
f 94 97 100
f 58 60 52
f 87 79 78
f 96 97 86
f 87 78 86
f 86 78 85
f 66 57 65
f 55 54 46
f 68 59 69
f 68 60 58
f 58 59 68
f 35 20 28
f 35 26 20
f 9 16 19
f 3 16 9
f 9 19 20
f 8 3 9
f 74 91 81
f 84 76 83
f 93 84 83
f 76 75 83
f 76 92 82
f 82 92 91
f 91 74 82
f 101 97 96
f 102 103 100
f 100 97 102
f 97 101 102
f 98 94 93
f 72 61 60
f 44 52 53
f 60 61 53
f 53 52 60
f 80 72 71
f 71 72 60
f 71 79 80
f 96 86 95
f 95 86 85
f 56 57 48
f 56 65 57
f 62 55 64
f 47 46 54
f 45 35 47
f 47 35 46
f 49 55 38
f 55 46 38
f 38 35 28
f 46 35 38
f 38 37 48
f 38 48 49
f 77 68 69
f 78 68 77
f 85 78 77
f 36 29 26
f 36 35 45
f 26 35 36
f 8 9 18
f 11 4 10
f 11 12 4
f 4 12 13
f 55 57 63
f 73 64 63
f 63 64 55
f 89 90 79
f 94 98 89
f 70 68 78
f 60 68 70
f 70 71 60
f 70 78 79
f 79 71 70
f 97 94 88
f 94 89 88
f 87 86 88
f 88 86 97
f 88 79 87
f 88 89 79
f 24 33 25
f 25 33 43
f 25 43 34
f 5 7 2
f 2 1 5
f 24 17 15
f 15 7 5
f 15 33 24
f 15 17 7
f 15 50 41
f 41 33 15
f 15 39 50
f 15 31 39
f 23 31 15
f 5 1 4
f 4 14 5
f 92 103 99
f 100 103 92
f 100 92 94
f 94 92 84
f 34 43 52
f 52 44 34
f 43 42 52
f 42 51 52
f 51 58 52
f 82 74 67
f 67 76 82
f 27 37 38
f 28 27 38
f 18 9 20
f 20 26 18
f 14 4 13
f 13 22 14
f 81 73 63
f 63 74 81
f 67 74 63
f 63 57 67
f 7 17 89
f 44 53 89
f 89 25 34
f 17 25 89
f 34 44 89
f 48 37 89
f 89 2 7
f 6 2 89
f 89 16 6
f 93 83 89
f 89 72 80
f 89 37 27
f 27 19 89
f 19 16 89
f 89 75 66
f 80 90 89
f 89 98 93
f 66 65 89
f 89 83 75
f 89 56 48
f 61 72 89
f 89 53 61
f 65 56 89
f 41 50 21
f 21 51 42
f 21 42 41
f 69 59 21
f 50 40 21
f 22 13 21
f 96 95 21
f 21 54 62
f 40 32 21
f 21 91 99
f 45 47 21
f 99 103 21
f 32 30 21
f 103 102 21
f 62 64 21
f 21 59 51
f 30 22 21
f 81 91 21
f 21 36 45
f 21 73 81
f 21 77 69
f 21 11 10
f 21 101 96
f 21 102 101
f 21 95 85
f 21 64 73
f 21 47 54
f 85 77 21
f 29 36 21
f 12 11 21
f 21 13 12
f 21 18 26
f 26 29 21
f 10 8 21
f 8 18 21
