# https://github.com/mikedh/trimesh
v -0.02876006 -0.05465674 0.00049127
v -0.02876006 -0.05465674 0.00185104
v -0.02876006 -0.02860958 0.00049167
v -0.02876006 -0.02860958 0.00185104
v -0.02875600 -0.05465674 0.00185104
v -0.02875600 -0.02846177 0.00049148
v -0.02875600 -0.02860910 0.00185104
v -0.02875600 -0.05465674 0.00049127
v -0.02875600 -0.05465271 0.00185104
v -0.02876001 -0.02845850 0.00049167
v -0.02875600 -0.02845850 0.00049148
v -0.02875600 -0.02845850 0.00185104
v -0.02876001 -0.02845850 0.00185104
f 1 6 8
f 2 5 9
f 1 2 3
f 3 2 4
f 1 3 11
f 11 6 1
f 11 3 10
f 5 2 1
f 1 8 5
f 10 3 13
f 13 3 4
f 13 11 10
f 13 12 11
f 7 5 8
f 6 11 7
f 7 8 6
f 11 12 7
f 7 9 5
f 4 2 7
f 2 9 7
f 7 13 4
f 12 13 7
