# https://github.com/mikedh/trimesh
v -0.03443547 0.03154776 0.01497335
v -0.03443547 0.03154776 0.01703004
v -0.03443547 0.03214184 0.01497577
v -0.03440488 0.03214184 0.01497416
v -0.03143351 0.03511410 0.01497335
v -0.03143351 0.03511410 0.01703004
v -0.03443547 0.03211390 0.01702924
v -0.03443547 0.03273592 0.01504523
v -0.03440488 0.03273592 0.01503456
v -0.03143351 0.03576218 0.01498302
v -0.03143351 0.03571003 0.01497859
v -0.03083891 0.03576218 0.01497335
v -0.03083891 0.03576218 0.01703004
v -0.03443547 0.03214184 0.01702783
v -0.03138123 0.03576218 0.01702521
v -0.03143351 0.03571003 0.01702481
v -0.03443547 0.03327972 0.01529812
v -0.03207874 0.03576218 0.01519885
v -0.03443547 0.03270612 0.01696944
v -0.03143351 0.03576218 0.01702018
v -0.03443547 0.03347712 0.01598408
v -0.03415791 0.03367639 0.01541006
v -0.03243250 0.03559457 0.01534181
v -0.03244863 0.03576218 0.01598408
v -0.03443547 0.03273592 0.01695655
v -0.03208207 0.03576218 0.01679065
v -0.03443547 0.03346967 0.01607186
v -0.03238522 0.03576218 0.01636804
v -0.03443547 0.03326109 0.01670669
v -0.03208764 0.03576218 0.01678743
v -0.03443547 0.03328530 0.01668837
v -0.03416292 0.03368011 0.01656696
v -0.03243806 0.03560202 0.01663682
v -0.02875600 0.03576218 0.01497335
v -0.02875600 0.03576218 0.01703004
v -0.03443547 0.02863350 0.01497335
v -0.03443547 0.02863350 0.01703004
v -0.02875600 0.02863350 0.01497335
v -0.02875600 0.02863350 0.01703004
f 10 12 11
f 24 21 27
f 14 20 19
f 4 5 1
f 12 5 4
f 4 11 12
f 18 23 24
f 10 9 18
f 9 8 18
f 18 8 17
f 17 23 18
f 24 23 22
f 22 23 17
f 22 17 21
f 22 21 24
f 32 27 31
f 29 33 31
f 31 33 32
f 30 33 29
f 3 4 1
f 3 8 9
f 3 9 10
f 10 11 3
f 11 4 3
f 33 30 28
f 32 33 28
f 24 27 28
f 28 27 32
f 19 20 26
f 26 30 29
f 6 7 2
f 13 7 6
f 15 7 13
f 25 26 29
f 19 26 25
f 14 7 16
f 7 15 16
f 16 15 20
f 20 14 16
f 39 37 36
f 36 38 39
f 39 38 35
f 35 38 34
f 38 36 5
f 5 36 1
f 34 38 5
f 5 12 34
f 2 37 6
f 6 37 39
f 39 35 6
f 35 13 6
f 15 35 34
f 34 12 15
f 15 13 35
f 15 12 10
f 15 18 24
f 15 26 20
f 10 18 15
f 24 28 15
f 15 28 30
f 30 26 15
f 1 36 25
f 25 36 37
f 25 37 2
f 29 31 25
f 25 27 21
f 21 17 25
f 25 3 1
f 2 7 25
f 25 14 19
f 17 8 25
f 25 31 27
f 25 7 14
f 8 3 25
