# https://github.com/mikedh/trimesh
v -0.05404572 0.05638125 0.01714154
v -0.05411772 0.05638125 0.01714178
v -0.05411772 0.05309898 0.01703002
v -0.04153470 0.05638125 0.01470251
v -0.05411772 0.05309898 0.01497331
v -0.05411772 0.05638125 0.01479254
v -0.04153967 0.05638125 0.01470251
v -0.04213307 0.05638125 0.01470299
v -0.02875600 0.05638125 0.01703767
v -0.02875600 0.05309936 0.01703003
v -0.02875600 0.05309898 0.01703002
v -0.02875600 0.05309898 0.01497331
v -0.02875600 0.05309973 0.01497324
v -0.02875600 0.05638125 0.01470275
f 4 14 13
f 8 5 6
f 9 1 10
f 5 8 7
f 2 3 11
f 11 10 2
f 12 11 5
f 5 11 3
f 2 6 5
f 5 3 2
f 14 9 10
f 10 11 12
f 12 13 10
f 10 13 14
f 2 10 10
f 10 1 2
f 12 5 7
f 7 13 12
f 4 13 7
f 7 6 2
f 7 9 14
f 2 1 7
f 7 14 4
f 7 1 9
f 7 8 6
