# https://github.com/mikedh/trimesh
v -0.05860827 0.04420802 0.01370392
v -0.05860787 0.04403317 0.01370392
v -0.05757312 0.04420802 0.01370392
v -0.05860036 0.04420802 0.01292615
v -0.05859996 0.04403317 0.01292615
v -0.05860313 0.04343862 0.01370392
v -0.05751358 0.04420802 0.01058551
v -0.05682717 0.04280042 0.01370392
v -0.05675081 0.04297376 0.01058551
v -0.05858453 0.04420802 0.01190723
v -0.05858414 0.04403317 0.01190723
v -0.05859442 0.04343862 0.01292615
v -0.05854576 0.04284376 0.01370392
v -0.05856079 0.04420802 0.01058551
v -0.05676941 0.04265284 0.01370392
v -0.05667209 0.04267648 0.01058551
v -0.05667169 0.04238890 0.01370392
v -0.05856653 0.04420802 0.01088801
v -0.05856613 0.04403317 0.01088801
v -0.05857741 0.04343862 0.01190723
v -0.05851312 0.04307194 0.01058551
v -0.05849829 0.04269315 0.01370392
v -0.05856257 0.04420802 0.01067434
v -0.05856040 0.04403317 0.01058551
v -0.05664736 0.04228102 0.01370392
v -0.05662699 0.04225011 0.01058551
v -0.05855743 0.04343862 0.01088801
v -0.05854181 0.04333740 0.01058551
v -0.05763009 0.04111221 0.01058551
v -0.05785619 0.04111221 0.01370392
v -0.05845912 0.04259739 0.01354305
v -0.05855091 0.04343862 0.01058551
v -0.05660186 0.04180616 0.01370392
v -0.05659455 0.04165555 0.01370392
v -0.05661314 0.04183192 0.01058551
v -0.05660463 0.04111221 0.01058551
v -0.05658742 0.04111221 0.01370392
v -0.05660780 0.04165555 0.01058551
f 7 3 9
f 3 8 9
f 17 9 15
f 15 9 8
f 16 9 17
f 6 12 13
f 6 5 12
f 29 30 21
f 30 31 21
f 22 31 30
f 13 21 22
f 22 21 31
f 25 16 17
f 33 34 26
f 26 25 33
f 16 25 26
f 12 5 11
f 5 4 11
f 5 6 2
f 1 4 2
f 2 4 5
f 13 12 20
f 20 21 13
f 12 11 20
f 37 36 38
f 38 34 37
f 10 11 4
f 21 20 28
f 35 26 34
f 34 38 35
f 11 10 18
f 32 28 27
f 27 28 20
f 27 24 32
f 20 24 27
f 14 24 23
f 11 18 19
f 19 20 11
f 19 24 20
f 18 23 19
f 19 23 24
f 37 30 36
f 36 30 29
f 2 3 1
f 2 8 3
f 2 30 37
f 17 15 2
f 2 25 17
f 37 34 2
f 2 22 30
f 2 34 33
f 2 15 8
f 2 6 13
f 13 22 2
f 33 25 2
f 35 14 7
f 35 36 29
f 29 21 35
f 7 9 35
f 9 16 35
f 21 28 35
f 16 26 35
f 35 38 36
f 35 24 14
f 35 28 32
f 32 24 35
f 7 14 23
f 1 3 23
f 23 3 7
f 23 4 1
f 23 10 4
f 23 18 10
