# https://github.com/mikedh/trimesh
v 0.05629072 -0.05450605 0.01705670
v 0.05580009 -0.05450605 0.01703044
v 0.05629072 -0.05450605 0.01493275
v 0.05629072 -0.02860907 0.01703021
v 0.05580124 -0.02860907 0.01703021
v 0.05580009 -0.02861161 0.01703021
v 0.05580009 -0.05450605 0.01701616
v 0.05629072 -0.04159305 0.01470862
v 0.05622693 -0.05450605 0.01493413
v 0.05629072 -0.02860907 0.01471277
v 0.05580009 -0.02860907 0.01499194
v 0.05580009 -0.05450351 0.01497282
v 0.05580124 -0.05450605 0.01497282
v 0.05629072 -0.04100241 0.01470540
v 0.05580009 -0.02860907 0.01496614
v 0.05629072 -0.04040923 0.01470379
v 0.05580009 -0.04159305 0.01496522
v 0.05580009 -0.03921781 0.01496499
v 0.05580009 -0.04100241 0.01496499
f 2 1 6
f 16 15 10
f 1 4 5
f 5 6 1
f 6 5 11
f 12 13 7
f 9 13 12
f 9 8 3
f 12 8 9
f 14 12 16
f 14 8 12
f 18 15 16
f 16 19 18
f 16 12 17
f 17 19 16
f 4 10 11
f 11 10 15
f 11 5 4
f 9 3 1
f 9 1 2
f 2 7 9
f 9 7 13
f 1 3 14
f 14 4 1
f 14 10 4
f 16 10 14
f 3 8 14
f 17 7 2
f 2 6 17
f 17 11 15
f 6 11 17
f 15 18 17
f 12 7 17
f 17 18 19
