# https://github.com/mikedh/trimesh
v 0.05573924 -0.02860691 0.01703000
v 0.05773164 -0.02860691 0.01885720
v 0.05817907 -0.02860691 0.01887771
v 0.05810917 -0.02860691 0.01887478
v 0.05573924 -0.02860691 0.01496688
v 0.05848278 -0.02860691 0.01855242
v 0.05659340 -0.02860691 0.01389430
v 0.05853612 -0.02860691 0.01810502
v 0.05854594 -0.02860691 0.01802199
v 0.05859478 -0.02860691 0.01716236
v 0.05806202 -0.02860691 0.01389430
v 0.05860377 -0.02860691 0.01700264
v 0.05860517 -0.02860691 0.01598428
v 0.05851647 -0.02860691 0.01437100
v 0.05858496 -0.02860691 0.01512464
v 0.05858103 -0.02860691 0.01496493
v 0.05773143 -0.02845850 0.01885738
v 0.05575239 -0.02845850 0.01704243
v 0.05817586 -0.02845850 0.01887775
v 0.05810643 -0.02845850 0.01887484
v 0.05573924 -0.02845850 0.01703000
v 0.05848027 -0.02845850 0.01855512
v 0.05817907 -0.02845850 0.01887771
v 0.05574950 -0.02845850 0.01495356
v 0.05659306 -0.02845850 0.01389430
v 0.05853568 -0.02845850 0.01810873
v 0.05848278 -0.02845850 0.01855242
v 0.05854594 -0.02845850 0.01802199
v 0.05853620 -0.02845850 0.01810434
v 0.05860377 -0.02845850 0.01700264
v 0.05859486 -0.02845850 0.01716104
v 0.05806734 -0.02845850 0.01389430
v 0.05858120 -0.02845850 0.01495433
v 0.05858124 -0.02845850 0.01495471
v 0.05858513 -0.02845850 0.01511290
v 0.05817883 -0.02845850 0.01887775
v 0.05573924 -0.02845850 0.01496687
v 0.05859438 -0.02845850 0.01716947
v 0.05860518 -0.02845850 0.01597490
v 0.05860517 -0.02845850 0.01598428
v 0.05860514 -0.02845850 0.01596433
v 0.05860515 -0.02845850 0.01596506
v 0.05860516 -0.02845850 0.01596553
v 0.05851728 -0.02845850 0.01436627
v 0.05851728 -0.02845850 0.01436628
f 18 21 1
f 17 2 17
f 6 27 22
f 24 5 37
f 26 27 6
f 19 3 36
f 36 3 23
f 40 13 39
f 33 34 16
f 38 10 31
f 14 44 45
f 39 13 43
f 8 29 26
f 8 26 6
f 13 41 42
f 42 43 13
f 5 21 37
f 1 21 5
f 18 2 17
f 1 2 18
f 20 17 4
f 4 17 2
f 19 20 3
f 20 4 3
f 3 22 23
f 6 22 3
f 7 5 24
f 24 25 7
f 11 25 32
f 7 25 11
f 14 11 44
f 44 11 32
f 12 40 30
f 13 40 12
f 10 12 30
f 30 31 10
f 10 38 9
f 9 38 28
f 45 16 14
f 45 33 16
f 13 15 35
f 35 41 13
f 35 15 16
f 16 34 35
f 8 4 2
f 8 2 1
f 1 5 8
f 8 5 7
f 7 11 8
f 8 3 4
f 6 3 8
f 8 11 14
f 14 16 8
f 8 15 13
f 13 12 8
f 12 10 8
f 16 15 8
f 10 9 8
f 28 29 8
f 8 9 28
f 42 18 17
f 42 24 37
f 42 31 30
f 37 21 42
f 19 36 42
f 42 20 19
f 17 17 42
f 21 18 42
f 42 22 27
f 42 29 28
f 42 17 20
f 32 25 42
f 27 26 42
f 23 22 42
f 25 24 42
f 42 44 32
f 42 40 39
f 42 45 44
f 42 36 23
f 30 40 42
f 26 29 42
f 28 38 42
f 34 33 42
f 42 38 31
f 33 45 42
f 42 35 34
f 41 35 42
