# https://github.com/mikedh/trimesh
v 0.05249207 -0.05450647 0.01703009
v 0.05249207 -0.05721675 0.01883633
v 0.05249207 -0.05450647 0.01497334
v 0.04985386 -0.05764720 0.01896656
v 0.05044891 -0.05764720 0.01896656
v 0.05104395 -0.05764720 0.01896308
v 0.05249207 -0.05745452 0.01889498
v 0.05249207 -0.05703556 0.01388929
v 0.04272023 -0.05654301 0.01388929
v 0.04216005 -0.05653153 0.01388929
v 0.04212518 -0.05653110 0.01388929
v 0.04156500 -0.05652983 0.01388929
v 0.04688326 -0.05805085 0.01879309
v 0.04747598 -0.05804958 0.01879110
v 0.05163901 -0.05764720 0.01895215
v 0.04807103 -0.05804702 0.01878663
v 0.04866608 -0.05804405 0.01878166
v 0.05223406 -0.05764720 0.01892878
v 0.05249207 -0.05767017 0.01888454
v 0.05249207 -0.05806616 0.01388929
v 0.03439883 -0.05869992 0.01578500
v 0.04747598 -0.05820312 0.01802218
v 0.04688326 -0.05820568 0.01802218
v 0.04926113 -0.05803937 0.01877321
v 0.04985386 -0.05803171 0.01875929
v 0.05044891 -0.05802363 0.01874289
v 0.04807103 -0.05819802 0.01802218
v 0.04866608 -0.05819249 0.01802218
v 0.05104395 -0.05801299 0.01872052
v 0.05163901 -0.05799726 0.01868324
v 0.05249207 -0.05786753 0.01870959
v 0.05249207 -0.05806701 0.01394596
v 0.05225730 -0.05808360 0.01388929
v 0.03439883 -0.05885134 0.01496489
v 0.04926113 -0.05818271 0.01802218
v 0.04985386 -0.05816782 0.01802218
v 0.05044891 -0.05815123 0.01802218
v 0.05104395 -0.05813039 0.01802218
v 0.05223406 -0.05797854 0.01863553
v 0.05249207 -0.05796918 0.01860720
v 0.05249207 -0.05807127 0.01438782
v 0.05223406 -0.05808615 0.01394596
v 0.05223406 -0.05808530 0.01388929
v 0.04391033 -0.05822354 0.01388929
v 0.05104395 -0.05817548 0.01700275
v 0.03439883 -0.05869014 0.01419348
v 0.05044891 -0.05817165 0.01388929
v 0.05101142 -0.05815208 0.01388929
v 0.05104395 -0.05815081 0.01388929
v 0.05104395 -0.05815166 0.01394596
v 0.05104395 -0.05816102 0.01496489
v 0.05163901 -0.05814528 0.01700275
v 0.05163901 -0.05809934 0.01802218
v 0.05249207 -0.05800704 0.01833134
v 0.05249207 -0.05807637 0.01496489
v 0.05223406 -0.05809551 0.01496489
v 0.05163901 -0.05812146 0.01394596
v 0.05219919 -0.05808743 0.01388929
v 0.04447052 -0.05822567 0.01388929
v 0.04506557 -0.05822609 0.01388929
v 0.04688326 -0.05822609 0.01388929
v 0.04744344 -0.05822397 0.01388929
v 0.04807103 -0.05821844 0.01388929
v 0.04863354 -0.05821291 0.01388929
v 0.04866608 -0.05821248 0.01388929
v 0.04926113 -0.05820312 0.01388929
v 0.04982131 -0.05818866 0.01388929
v 0.04985386 -0.05818781 0.01388929
v 0.05160646 -0.05812231 0.01388929
v 0.05163901 -0.05813081 0.01496489
v 0.05223406 -0.05810997 0.01700275
v 0.05223406 -0.05806318 0.01802218
v 0.05249207 -0.05803979 0.01805747
v 0.05249207 -0.05809083 0.01700275
v 0.05163901 -0.05812061 0.01388929
v 0.02875250 -0.05450647 0.01497334
v 0.02875250 -0.05450647 0.01703009
v 0.02875250 -0.05450723 0.01703059
v 0.02875250 -0.05764720 0.01895910
v 0.02875250 -0.05652983 0.01388929
v 0.02875250 -0.05805085 0.01879309
v 0.02875250 -0.05813043 0.01388929
v 0.02875250 -0.05877700 0.01536801
v 0.02875250 -0.05868995 0.01419335
v 0.02875250 -0.05868994 0.01419335
v 0.02875250 -0.05868995 0.01419336
v 0.02875250 -0.05869014 0.01419348
v 0.02875250 -0.05764708 0.01895907
v 0.02875250 -0.05805073 0.01879315
v 0.02875250 -0.05869992 0.01578500
v 0.02875250 -0.05877682 0.01536897
v 0.02875250 -0.05885134 0.01496489
f 9 3 8
f 88 2 78
f 51 45 34
f 11 12 3
f 34 49 50
f 50 51 34
f 83 92 34
f 2 6 7
f 89 4 79
f 5 14 6
f 2 4 5
f 5 6 2
f 3 9 10
f 10 11 3
f 73 72 74
f 34 45 38
f 38 37 34
f 52 38 45
f 82 44 85
f 19 7 18
f 13 21 14
f 14 5 13
f 91 21 90
f 22 21 34
f 35 28 34
f 28 35 24
f 69 50 49
f 72 73 54
f 40 31 39
f 37 38 29
f 26 35 29
f 29 18 26
f 74 72 71
f 46 64 65
f 65 66 46
f 34 46 47
f 46 61 62
f 34 28 27
f 27 22 34
f 14 21 23
f 23 22 14
f 21 22 23
f 22 27 17
f 28 24 17
f 17 27 28
f 26 18 15
f 15 7 6
f 15 18 7
f 6 17 15
f 15 17 24
f 53 54 40
f 40 39 53
f 53 39 38
f 72 54 53
f 38 52 53
f 53 71 72
f 52 71 53
f 37 29 36
f 36 29 35
f 34 37 36
f 36 35 34
f 38 39 30
f 30 29 38
f 30 39 31
f 30 31 19
f 19 18 30
f 18 29 30
f 56 55 74
f 74 71 56
f 56 41 55
f 42 41 56
f 52 70 56
f 56 71 52
f 68 47 46
f 48 49 34
f 34 47 48
f 63 64 46
f 46 62 63
f 6 14 16
f 16 17 6
f 14 22 16
f 22 17 16
f 26 15 25
f 25 15 24
f 25 35 26
f 25 24 35
f 32 41 42
f 58 43 42
f 75 58 57
f 57 58 42
f 57 69 75
f 42 56 57
f 57 56 70
f 50 69 57
f 57 70 51
f 51 50 57
f 46 66 67
f 67 68 46
f 20 32 33
f 42 43 33
f 33 32 42
f 1 3 77
f 77 3 76
f 77 78 2
f 1 77 2
f 76 3 12
f 12 80 76
f 92 87 46
f 34 92 46
f 4 88 79
f 2 88 4
f 81 90 13
f 90 21 13
f 13 89 81
f 4 89 13
f 13 5 4
f 91 83 34
f 34 21 91
f 45 51 70
f 70 52 45
f 86 46 87
f 86 61 46
f 86 60 61
f 32 3 1
f 8 3 32
f 1 2 32
f 2 7 32
f 32 20 8
f 32 31 40
f 40 54 32
f 74 55 32
f 32 7 19
f 32 73 74
f 19 31 32
f 32 54 73
f 55 41 32
f 84 77 76
f 84 89 79
f 76 80 84
f 84 80 82
f 92 83 84
f 84 78 77
f 79 88 84
f 84 87 92
f 84 88 78
f 84 90 81
f 82 85 84
f 81 89 84
f 84 91 90
f 83 91 84
f 84 44 59
f 84 85 44
f 59 60 84
f 60 86 84
f 82 80 33
f 33 9 8
f 80 12 33
f 8 20 33
f 33 10 9
f 49 48 33
f 33 44 82
f 12 11 33
f 59 44 33
f 33 65 64
f 11 10 33
f 61 60 33
f 33 69 49
f 33 58 75
f 75 69 33
f 66 65 33
f 33 67 66
f 33 62 61
f 33 60 59
f 64 63 33
f 47 68 33
f 33 48 47
f 33 63 62
f 43 58 33
f 68 67 33
