# https://github.com/mikedh/trimesh
v 0.05277395 -0.03823987 0.01598396
v 0.05277395 -0.03802774 0.01622719
v 0.05277395 -0.03815635 0.01583314
v 0.05344605 -0.04215238 0.01598396
v 0.05277395 -0.03746028 0.01676559
v 0.05277395 -0.03787262 0.01555049
v 0.05357786 -0.04215238 0.01531394
v 0.05357994 -0.04215238 0.01671323
v 0.05277395 -0.03683847 0.01693785
v 0.05277395 -0.03745498 0.01522377
v 0.05358705 -0.04215238 0.01526986
v 0.05401774 -0.04215238 0.01698172
v 0.05282874 -0.03683847 0.01696979
v 0.05277395 -0.03624583 0.01700052
v 0.05277395 -0.03744305 0.01521932
v 0.05399108 -0.04215238 0.01503453
v 0.05277395 -0.03678809 0.01504949
v 0.05461194 -0.04215238 0.01703024
v 0.05282874 -0.03624450 0.01702236
v 0.05277395 -0.03564921 0.01702559
v 0.05401774 -0.04215238 0.01501936
v 0.05277395 -0.03618882 0.01498540
v 0.05580004 -0.04215238 0.01703024
v 0.05282874 -0.03564921 0.01703024
v 0.05277395 -0.03505656 0.01702984
v 0.05401774 -0.04040627 0.01498014
v 0.05457580 -0.04215238 0.01497549
v 0.05282874 -0.03624450 0.01498176
v 0.05277395 -0.03559485 0.01497367
v 0.05580004 -0.04215238 0.01496659
v 0.05580004 -0.02861040 0.01703024
v 0.05277395 -0.03446127 0.01703024
v 0.05461194 -0.04215238 0.01497326
v 0.05282874 -0.03564921 0.01497326
v 0.05277395 -0.03500221 0.01497326
v 0.05580004 -0.04159421 0.01496538
v 0.05580004 -0.02861040 0.01496619
v 0.05277395 -0.02861040 0.01703024
v 0.05580004 -0.04100024 0.01496498
v 0.05277395 -0.02861040 0.01497326
v 0.05580004 -0.02911156 0.01496599
v 0.05580004 -0.03921700 0.01496498
f 8 5 4
f 40 37 41
f 41 42 40
f 3 4 1
f 6 4 3
f 7 6 11
f 7 4 6
f 1 4 2
f 2 4 5
f 36 34 39
f 39 34 35
f 12 18 19
f 19 14 12
f 8 12 9
f 9 5 8
f 11 15 17
f 33 36 30
f 34 36 33
f 11 6 10
f 10 15 11
f 24 19 18
f 14 9 13
f 12 14 13
f 13 9 12
f 11 17 16
f 16 17 21
f 21 17 22
f 19 24 20
f 14 19 20
f 25 24 32
f 25 20 24
f 21 26 27
f 21 22 28
f 28 26 21
f 28 27 26
f 29 28 22
f 29 35 34
f 34 33 29
f 33 27 29
f 27 28 29
f 31 37 38
f 38 37 40
f 36 37 31
f 36 31 23
f 23 30 36
f 36 41 37
f 39 42 36
f 42 41 36
f 35 42 39
f 40 42 35
f 23 31 24
f 31 38 24
f 24 38 32
f 24 18 23
f 27 30 23
f 27 7 11
f 23 18 27
f 27 12 8
f 8 4 27
f 27 18 12
f 4 7 27
f 27 33 30
f 11 16 27
f 27 16 21
f 32 38 29
f 29 38 40
f 29 25 32
f 1 2 29
f 29 3 1
f 29 10 6
f 6 3 29
f 29 2 5
f 40 35 29
f 5 9 29
f 29 9 14
f 29 17 15
f 15 10 29
f 29 22 17
f 14 20 29
f 20 25 29
