# https://github.com/mikedh/trimesh
v 0.05726275 0.05622587 0.00976688
v 0.05700863 0.05622587 0.00976688
v 0.05743999 0.05599499 0.00976688
v 0.05727637 0.05622587 0.00958075
v 0.05700863 0.05622587 0.00375410
v 0.05700863 0.05446089 0.00976688
v 0.05748025 0.05592942 0.00976688
v 0.05732405 0.05617054 0.00950477
v 0.05703178 0.05622587 0.00374938
v 0.05700863 0.05621903 0.00374938
v 0.05700863 0.05390147 0.00374938
v 0.05741184 0.04924791 0.00374938
v 0.05742819 0.04924791 0.00461172
v 0.05743136 0.04924791 0.00477311
v 0.05753035 0.04924791 0.00970681
v 0.05753156 0.04924791 0.00976688
v 0.05749523 0.05585566 0.00884918
v 0.05741623 0.05571973 0.00374938
v 0.05777661 0.05537616 0.00976688
v 0.05721038 0.05601754 0.00375410
v 0.05720902 0.05601890 0.00374938
v 0.05827442 0.04924791 0.00374938
v 0.05855473 0.04924791 0.00976688
v 0.05780854 0.05531400 0.00976688
v 0.05773196 0.05528668 0.00681115
v 0.05763706 0.05528668 0.00375410
v 0.05763690 0.05528668 0.00374938
v 0.05843501 0.04934217 0.00374938
v 0.05843682 0.04924791 0.00375350
v 0.05852340 0.04924791 0.00808462
v 0.05855261 0.04934695 0.00976688
v 0.05776314 0.05528668 0.00783016
v 0.05782519 0.05527712 0.00976688
v 0.05781611 0.05523545 0.00882974
v 0.05792948 0.05500322 0.00915607
v 0.05791979 0.05497453 0.00847633
v 0.05784744 0.05473410 0.00375410
v 0.05784638 0.05473615 0.00374938
v 0.05841821 0.04993710 0.00374938
v 0.05841836 0.04993710 0.00375410
v 0.05851886 0.05024515 0.00934220
v 0.05853233 0.04939067 0.00876436
v 0.05855049 0.04942277 0.00976688
v 0.05793750 0.05502235 0.00976688
v 0.05801378 0.05473683 0.00976688
v 0.05798836 0.05474298 0.00882974
v 0.05793553 0.05443629 0.00375410
v 0.05784805 0.05473137 0.00374938
v 0.05793538 0.05443629 0.00374938
v 0.05839883 0.05053134 0.00374938
v 0.05839898 0.05053134 0.00375410
v 0.05841912 0.05053134 0.00477311
v 0.05852173 0.05040840 0.00976688
v 0.05853566 0.04993710 0.00976688
v 0.05802392 0.05469722 0.00976688
v 0.05802120 0.05409819 0.00375410
v 0.05802105 0.05409819 0.00374938
v 0.05836932 0.05112627 0.00374938
v 0.05839006 0.05112627 0.00477311
v 0.05841049 0.05112627 0.00579213
v 0.05851099 0.05064131 0.00966204
v 0.05851538 0.05058189 0.00976688
v 0.05816756 0.05409819 0.00976688
v 0.05814622 0.05409819 0.00884918
v 0.05812200 0.05409819 0.00783016
v 0.05809718 0.05409819 0.00681115
v 0.05807206 0.05409819 0.00579213
v 0.05813789 0.05350326 0.00375410
v 0.05813774 0.05350326 0.00374938
v 0.05833118 0.05172052 0.00374938
v 0.05839384 0.05172052 0.00681115
v 0.05848919 0.05108188 0.00976688
v 0.05850463 0.05079910 0.00976688
v 0.05841397 0.05172052 0.00783016
v 0.05848359 0.05118023 0.00976688
v 0.05827442 0.05350326 0.00976688
v 0.05825459 0.05350326 0.00884918
v 0.05823204 0.05350326 0.00783016
v 0.05820888 0.05350326 0.00681115
v 0.05818542 0.05350326 0.00579213
v 0.05821993 0.05290901 0.00374938
v 0.05828577 0.05231477 0.00374938
v 0.05830756 0.05231477 0.00477311
v 0.05835085 0.05231477 0.00681115
v 0.05837235 0.05231477 0.00783016
v 0.05839369 0.05231477 0.00884918
v 0.05841185 0.05231477 0.00976688
v 0.05843304 0.05172052 0.00884918
v 0.05834404 0.05296844 0.00976688
v 0.05833209 0.05290901 0.00884918
v 0.05830999 0.05290901 0.00783016
v 0.05828774 0.05290901 0.00681115
v 0.05824263 0.05290901 0.00477311
v 0.05835176 0.05290901 0.00976688
f 6 11 12
f 10 5 9
f 22 28 29
f 29 28 30
f 9 4 8
f 16 6 15
f 6 14 15
f 13 6 12
f 13 14 6
f 40 28 39
f 40 30 28
f 4 1 3
f 3 8 4
f 7 8 3
f 30 40 41
f 18 8 7
f 51 41 40
f 73 62 61
f 30 41 42
f 64 55 63
f 64 65 55
f 64 68 65
f 35 36 27
f 27 36 37
f 8 18 20
f 17 18 7
f 25 18 24
f 69 68 81
f 58 51 50
f 41 51 52
f 61 62 52
f 52 51 61
f 87 75 88
f 88 74 87
f 75 74 88
f 60 74 75
f 75 72 60
f 60 72 73
f 60 73 61
f 61 51 60
f 53 54 41
f 53 52 62
f 41 52 53
f 23 30 31
f 55 67 56
f 56 46 55
f 56 67 68
f 55 65 66
f 66 67 55
f 65 68 66
f 68 67 66
f 45 35 44
f 36 35 45
f 55 46 45
f 45 46 36
f 44 35 33
f 21 20 18
f 9 8 21
f 8 20 21
f 19 17 7
f 24 18 19
f 18 17 19
f 27 18 26
f 18 25 26
f 26 35 27
f 26 25 35
f 90 94 82
f 86 94 87
f 86 85 94
f 94 85 84
f 63 76 77
f 77 78 63
f 76 90 77
f 80 64 63
f 68 64 80
f 81 68 80
f 81 78 93
f 93 82 81
f 93 92 82
f 93 77 92
f 78 77 93
f 59 51 58
f 59 60 51
f 30 42 43
f 43 31 30
f 43 42 41
f 41 54 43
f 47 37 36
f 36 46 47
f 46 56 47
f 32 25 24
f 35 25 32
f 27 37 38
f 37 48 38
f 89 90 76
f 94 90 89
f 87 74 71
f 71 86 87
f 71 59 58
f 74 60 71
f 60 59 71
f 82 94 83
f 94 84 83
f 92 77 91
f 91 77 90
f 82 92 91
f 91 90 82
f 63 78 79
f 79 80 63
f 79 78 81
f 81 80 79
f 49 48 37
f 37 47 49
f 24 33 34
f 34 32 24
f 34 33 35
f 35 32 34
f 70 71 58
f 82 83 70
f 70 83 84
f 70 84 85
f 85 86 70
f 86 71 70
f 10 6 2
f 2 5 10
f 11 6 10
f 1 5 2
f 9 5 1
f 1 4 9
f 23 16 13
f 12 22 13
f 16 15 13
f 13 30 23
f 13 22 29
f 29 30 13
f 13 15 14
f 50 40 39
f 50 51 40
f 56 69 57
f 68 69 56
f 89 16 23
f 89 1 2
f 62 73 89
f 2 6 89
f 63 55 89
f 89 6 16
f 89 75 87
f 89 76 63
f 7 3 89
f 23 31 89
f 44 33 89
f 89 3 1
f 87 94 89
f 89 45 44
f 89 43 54
f 89 53 62
f 89 72 75
f 73 72 89
f 54 53 89
f 89 19 7
f 55 45 89
f 89 33 24
f 24 19 89
f 31 43 89
f 49 56 57
f 49 47 56
f 12 11 70
f 57 69 70
f 70 22 12
f 70 10 9
f 39 28 70
f 27 38 70
f 11 10 70
f 28 22 70
f 81 82 70
f 70 50 39
f 70 49 57
f 70 18 27
f 70 69 81
f 58 50 70
f 9 21 70
f 70 21 18
f 70 38 48
f 48 49 70
