# https://github.com/mikedh/trimesh
v 0.05227664 0.05707089 -0.00052520
v 0.04894898 0.05707089 -0.00044058
v 0.04894898 0.05741727 -0.00029047
v 0.04894898 0.05764831 -0.00018569
v 0.04930359 0.05764492 -0.00018569
v 0.04989869 0.05763663 -0.00018569
v 0.05049297 0.05762758 -0.00018469
v 0.05108725 0.05761684 -0.00018469
v 0.05287092 0.05707089 -0.00051815
v 0.05524805 0.05647632 -0.00052017
v 0.04894898 0.05688206 -0.00029047
v 0.05549832 0.05622605 -0.00048491
v 0.04894898 0.05781792 0.00034221
v 0.04894898 0.05793005 0.00069683
v 0.04930359 0.05792383 0.00069683
v 0.05168235 0.05760252 -0.00018267
v 0.05227664 0.05758744 -0.00018066
v 0.05346439 0.05707089 -0.00050002
v 0.05405948 0.05707089 -0.00046174
v 0.05584315 0.05647632 -0.00047483
v 0.05609342 0.05622605 -0.00048994
v 0.04894898 0.05660353 -0.00006782
v 0.04894898 0.05622605 0.00036840
v 0.04894898 0.05815111 0.00976688
v 0.04930359 0.05814527 0.00976688
v 0.04989869 0.05813019 0.00976688
v 0.04989869 0.05790782 0.00069683
v 0.05227664 0.05780416 0.00069683
v 0.05287092 0.05755748 -0.00015648
v 0.05049297 0.05789048 0.00069683
v 0.05108725 0.05786843 0.00069683
v 0.05168235 0.05783790 0.00069683
v 0.05346439 0.05752375 -0.00012827
v 0.05405948 0.05748907 -0.00008898
v 0.05465377 0.05707089 -0.00034588
v 0.05584315 0.05693125 -0.00010208
v 0.05643010 0.05648216 -0.00016252
v 0.05643336 0.05622605 -0.00031163
v 0.04894898 0.05622605 0.00188360
v 0.04894898 0.05712799 0.00976688
v 0.05049297 0.05811379 0.00976688
v 0.05168235 0.05806121 0.00976688
v 0.05227664 0.05802560 0.00976688
v 0.05260109 0.05796510 0.00824060
v 0.05268505 0.05797321 0.00884910
v 0.05285380 0.05798112 0.00976688
v 0.05287092 0.05774876 0.00069683
v 0.05108725 0.05809231 0.00976688
v 0.05346439 0.05767941 0.00069683
v 0.05465377 0.05742933 0.00002788
v 0.05522115 0.05710180 -0.00013834
v 0.05622711 0.05683325 0.00004400
v 0.05500431 0.05738448 0.00013568
v 0.05683933 0.05628768 -0.00000436
v 0.05686868 0.05622605 -0.00002551
v 0.05668199 0.05622605 -0.00015749
v 0.05573228 0.05622605 0.00976688
v 0.05231739 0.05802258 0.00976688
v 0.05300135 0.05796605 0.00976688
v 0.05309102 0.05795323 0.00963692
v 0.05323124 0.05794004 0.00976688
v 0.05342118 0.05791705 0.00976688
v 0.05351248 0.05790518 0.00976688
v 0.05405948 0.05783318 0.00976688
v 0.05405948 0.05759988 0.00069683
v 0.05584315 0.05706693 0.00069683
v 0.05625238 0.05685097 0.00069683
v 0.05654993 0.05662501 0.00069683
v 0.05465377 0.05747757 0.00069683
v 0.05465377 0.05771936 0.00976688
v 0.05524805 0.05756049 0.00976688
v 0.05528637 0.05754805 0.00976688
v 0.05566625 0.05742122 0.00976688
v 0.05530593 0.05728667 0.00069683
v 0.05687846 0.05632763 0.00069683
v 0.05690618 0.05622605 0.00013367
v 0.05726242 0.05622605 0.00976688
v 0.05593364 0.05730118 0.00976688
v 0.05596298 0.05728780 0.00976688
v 0.05644232 0.05700229 0.00976688
v 0.05648635 0.05697214 0.00976688
v 0.05675292 0.05678896 0.00976688
v 0.05705291 0.05647349 0.00976688
v 0.05709204 0.05643222 0.00976688
v 0.05715970 0.05635966 0.00976688
v 0.05727628 0.05622605 0.00958051
v 0.05696405 0.05622605 0.00069683
f 12 23 22
f 3 1 2
f 3 4 1
f 2 1 10
f 10 12 2
f 2 12 11
f 12 22 11
f 36 20 35
f 67 52 66
f 12 10 21
f 21 10 20
f 20 38 21
f 67 66 79
f 57 40 39
f 34 35 19
f 20 10 19
f 19 35 20
f 36 35 51
f 87 75 86
f 76 75 87
f 68 52 67
f 54 75 76
f 54 68 75
f 52 68 54
f 53 52 36
f 53 66 52
f 43 28 42
f 75 68 82
f 82 68 67
f 34 19 33
f 33 28 34
f 17 19 18
f 18 19 10
f 55 54 76
f 52 54 37
f 37 38 20
f 54 55 37
f 37 20 36
f 36 52 37
f 65 69 53
f 66 53 74
f 25 14 24
f 48 31 30
f 30 31 17
f 48 42 32
f 32 31 48
f 32 42 28
f 32 28 17
f 17 31 32
f 85 77 86
f 86 75 85
f 67 79 80
f 1 4 5
f 5 6 1
f 7 8 1
f 1 6 7
f 7 6 14
f 29 19 17
f 29 33 19
f 17 28 29
f 28 33 29
f 17 18 9
f 9 16 17
f 9 10 1
f 9 18 10
f 1 8 9
f 8 16 9
f 38 37 56
f 56 37 55
f 34 28 47
f 47 59 60
f 50 65 53
f 50 35 34
f 50 51 35
f 36 51 50
f 50 53 36
f 70 71 53
f 53 69 70
f 70 65 64
f 69 65 70
f 66 74 73
f 73 74 53
f 15 25 26
f 14 25 15
f 15 16 8
f 17 16 15
f 15 7 14
f 8 7 15
f 48 30 41
f 84 85 75
f 81 82 67
f 67 80 81
f 13 5 4
f 14 6 13
f 6 5 13
f 34 47 49
f 49 50 34
f 65 50 49
f 64 65 49
f 49 47 60
f 78 79 66
f 66 73 78
f 53 71 72
f 72 73 53
f 26 41 27
f 27 15 26
f 27 41 30
f 27 30 17
f 17 15 27
f 60 59 61
f 61 49 60
f 62 49 61
f 59 47 46
f 46 47 28
f 28 45 46
f 44 28 43
f 44 45 28
f 75 82 83
f 83 84 75
f 64 49 63
f 63 49 62
f 58 46 45
f 58 44 43
f 45 44 58
f 39 23 56
f 56 23 12
f 86 77 56
f 77 57 56
f 56 87 86
f 12 21 56
f 56 21 38
f 56 57 39
f 76 87 56
f 56 55 76
f 13 3 2
f 13 40 24
f 24 14 13
f 39 40 13
f 13 23 39
f 2 11 13
f 13 22 23
f 4 3 13
f 13 11 22
f 24 40 58
f 48 41 58
f 58 25 24
f 40 57 58
f 58 80 79
f 43 42 58
f 58 57 77
f 82 81 58
f 58 42 48
f 77 85 58
f 58 70 64
f 26 25 58
f 58 61 59
f 58 83 82
f 64 63 58
f 71 70 58
f 79 78 58
f 58 41 26
f 58 72 71
f 85 84 58
f 58 81 80
f 58 78 73
f 73 72 58
f 62 61 58
f 59 46 58
f 84 83 58
f 58 63 62
