# https://github.com/mikedh/trimesh
v 0.02879744 0.05633925 0.01703766
v 0.02879744 0.05305698 0.01703002
v 0.02879744 0.05633925 0.01470275
v 0.02879744 0.05305698 0.01497331
v 0.02879450 0.05633925 0.01470275
v 0.02879450 0.05633925 0.01703767
v 0.02879450 0.05305736 0.01703003
v 0.02879450 0.05305698 0.01497331
v 0.02879450 0.05305698 0.01703002
v 0.02879450 0.05305773 0.01497324
f 7 9 2
f 4 8 10
f 3 6 1
f 5 6 3
f 1 6 7
f 7 2 1
f 4 3 1
f 1 2 4
f 8 4 2
f 2 9 8
f 10 6 5
f 10 7 6
f 10 8 9
f 10 7 7
f 9 7 10
f 5 3 10
f 3 4 10
