# https://github.com/mikedh/trimesh
v -0.05574585 -0.04270855 0.01497029
v -0.05574585 -0.04270855 0.01703024
v -0.05574585 -0.04225196 0.01496746
v -0.05461919 -0.04270855 0.01497332
v -0.05461919 -0.04270855 0.01703024
v -0.05574585 -0.03773088 0.01703024
v -0.05574585 -0.04165747 0.01496604
v -0.05410102 -0.04270855 0.01500848
v -0.05402504 -0.03862311 0.01497332
v -0.05402504 -0.03921760 0.01497595
v -0.05343058 -0.03773088 0.01499050
v -0.05402504 -0.04270855 0.01698760
v -0.05343058 -0.03773088 0.01701226
v -0.05372720 -0.03773088 0.01702802
v -0.05402504 -0.03862311 0.01703024
v -0.05402504 -0.03773088 0.01703024
v -0.05574585 -0.03773088 0.01496604
v -0.05574585 -0.04046848 0.01496564
v -0.05402504 -0.04270855 0.01501454
v -0.05402504 -0.03773088 0.01497332
v -0.05286969 -0.03773088 0.01523746
v -0.05343058 -0.03802861 0.01500343
v -0.05357675 -0.04270855 0.01671922
v -0.05286237 -0.03773088 0.01674893
v -0.05309795 -0.03773088 0.01687665
v -0.05343058 -0.03802861 0.01699871
v -0.05574585 -0.04040610 0.01496564
v -0.05363931 -0.04270855 0.01523321
v -0.05262892 -0.03773088 0.01598399
v -0.05358408 -0.04270855 0.01526514
v -0.05343302 -0.04270855 0.01598399
v -0.05267317 -0.03773088 0.01615901
v -0.05345103 -0.04270855 0.01589305
f 23 31 29
f 23 24 12
f 11 9 20
f 11 19 8
f 16 15 14
f 32 23 29
f 32 24 23
f 14 15 5
f 13 14 5
f 5 12 13
f 25 12 24
f 4 7 9
f 11 8 4
f 9 7 18
f 11 21 22
f 22 19 11
f 22 21 19
f 30 21 29
f 26 25 13
f 13 12 26
f 12 25 26
f 3 4 1
f 7 4 3
f 10 9 11
f 11 4 10
f 10 4 9
f 17 20 27
f 19 21 28
f 21 30 28
f 29 31 33
f 33 30 29
f 6 2 5
f 5 16 6
f 15 16 5
f 25 17 6
f 29 21 25
f 25 20 17
f 6 16 25
f 25 14 13
f 25 32 29
f 11 20 25
f 25 21 11
f 25 16 14
f 24 32 25
f 27 2 6
f 1 2 27
f 6 17 27
f 27 3 1
f 27 18 7
f 7 3 27
f 27 20 9
f 9 18 27
f 33 2 1
f 33 5 2
f 31 23 33
f 1 4 33
f 23 12 33
f 33 8 19
f 12 5 33
f 33 4 8
f 19 28 33
f 33 28 30
