# https://github.com/mikedh/trimesh
v -0.04214459 -0.02860955 0.01519644
v -0.04200293 -0.03054188 0.01598408
v -0.04214459 -0.02860955 0.01703004
v -0.04214459 -0.02860786 0.01497335
v -0.03738476 -0.03134631 0.01528422
v -0.03738476 -0.03150832 0.01597703
v -0.03738476 -0.03151001 0.01598489
v -0.03738476 -0.03135475 0.01669562
v -0.04200293 -0.03027748 0.01675682
v -0.04200293 -0.03032811 0.01539536
v -0.04200293 -0.02970482 0.01702521
v -0.04200293 -0.02911077 0.01703004
v -0.04200293 -0.02911077 0.01497335
v -0.04200293 -0.02924129 0.01497436
v -0.04200293 -0.02970482 0.01497818
v -0.04200293 -0.02982970 0.01503335
v -0.04200293 -0.03026624 0.01522865
v -0.03738476 -0.03089403 0.01503416
v -0.03738476 -0.03089347 0.01696803
v -0.04035063 -0.02970482 0.01703004
v -0.03797327 -0.03029942 0.01702763
v -0.03738476 -0.03029942 0.01703004
v -0.03975605 -0.02970482 0.01497335
v -0.04035063 -0.02970482 0.01497355
v -0.03738476 -0.03029380 0.01497335
v -0.03797327 -0.03029942 0.01497597
v -0.03738476 -0.03088840 0.01503194
v -0.03738476 -0.02860955 0.01703004
v -0.03738476 -0.03029942 0.01497355
v -0.03738476 -0.02860955 0.01497335
v -0.04214459 -0.02845850 0.01703004
v -0.04214459 -0.02845850 0.01497335
v -0.03746049 -0.02845850 0.01703004
v -0.03746049 -0.02845850 0.01497335
v -0.03741889 -0.02845850 0.01502804
v -0.03741889 -0.02845850 0.01697628
v -0.03741932 -0.02845850 0.01700498
v -0.03741963 -0.02845850 0.01700621
v -0.03742405 -0.02845850 0.01701776
v -0.03742496 -0.02845850 0.01701940
v -0.03743652 -0.02845850 0.01702970
v -0.03743807 -0.02845850 0.01702982
v -0.03743652 -0.02845850 0.01497369
v -0.03742334 -0.02845850 0.01498767
v -0.03742315 -0.02845850 0.01498790
f 6 2 5
f 7 2 6
f 4 2 1
f 8 2 7
f 9 8 19
f 2 8 9
f 11 9 19
f 5 17 18
f 5 2 10
f 10 17 5
f 2 4 10
f 4 17 10
f 27 18 15
f 34 43 30
f 19 22 21
f 21 11 19
f 22 11 21
f 23 25 24
f 25 15 24
f 27 15 26
f 26 15 25
f 16 18 17
f 16 15 18
f 16 17 4
f 4 15 16
f 45 30 44
f 44 30 43
f 11 12 3
f 9 11 3
f 2 9 3
f 1 2 3
f 20 11 22
f 20 12 11
f 23 24 13
f 27 26 29
f 29 26 25
f 35 30 45
f 33 28 42
f 42 28 41
f 4 13 14
f 14 15 4
f 14 24 15
f 14 13 24
f 37 28 36
f 37 38 28
f 41 28 40
f 28 38 39
f 39 40 28
f 31 32 3
f 32 4 3
f 3 4 1
f 20 33 31
f 22 28 20
f 31 3 20
f 20 28 33
f 20 3 12
f 32 34 13
f 34 30 13
f 13 4 32
f 13 25 23
f 13 30 25
f 29 22 19
f 29 6 5
f 7 6 29
f 29 8 7
f 19 8 29
f 29 28 22
f 5 18 29
f 29 18 27
f 25 30 29
f 30 28 29
f 35 28 30
f 36 28 35
f 39 32 31
f 31 33 39
f 39 34 32
f 45 44 39
f 39 43 34
f 39 35 45
f 39 44 43
f 39 42 41
f 36 35 39
f 33 42 39
f 39 37 36
f 38 37 39
f 41 40 39
