# https://github.com/mikedh/trimesh
v -0.05629927 0.04046792 0.01470005
v -0.05296963 0.05309866 0.01497320
v -0.05629927 0.05309866 0.01703323
v -0.05629927 0.04106066 0.01470142
v -0.05296963 0.05309866 0.01703003
v -0.05629927 0.04165341 0.01470758
v -0.05629927 0.05309866 0.01496908
v -0.05629927 0.02863350 0.01471200
v -0.05296963 0.02863350 0.01497320
v -0.05301080 0.02863350 0.01496982
v -0.05298967 0.02863350 0.01703005
v -0.05296963 0.02863350 0.01703003
v -0.05629927 0.02863350 0.01703005
f 6 7 2
f 3 13 11
f 4 2 1
f 4 6 2
f 10 8 1
f 5 7 3
f 2 7 5
f 5 9 2
f 12 9 5
f 11 5 3
f 12 5 11
f 4 13 3
f 1 8 4
f 3 7 4
f 4 8 13
f 7 6 4
f 10 9 12
f 13 8 10
f 12 11 10
f 10 11 13
f 2 9 10
f 1 2 10
