# https://github.com/mikedh/trimesh
v 0.04780949 -0.02860907 0.01703004
v 0.04780949 -0.03029970 0.01703004
v 0.04780949 -0.02860907 0.01497315
v 0.04033579 -0.02860907 0.01703004
v 0.04780949 -0.03089378 0.01702883
v 0.04628841 -0.03029970 0.01703004
v 0.04780949 -0.03063179 0.01497315
v 0.04033579 -0.02860907 0.01497315
v 0.04033579 -0.02970528 0.01703004
v 0.04747733 -0.03089378 0.01702742
v 0.04780949 -0.03148856 0.01694990
v 0.04780949 -0.03089378 0.01497456
v 0.04033579 -0.02970528 0.01497335
v 0.04033579 -0.02911085 0.01497315
v 0.04033579 -0.02971326 0.01702863
v 0.04780949 -0.03199311 0.01668008
v 0.04033579 -0.03029970 0.01686573
v 0.04780949 -0.03122622 0.01498987
v 0.04747733 -0.03089378 0.01497597
v 0.04033579 -0.03029970 0.01513324
v 0.04780949 -0.03148856 0.01505108
v 0.04780949 -0.03215413 0.01598398
v 0.04033579 -0.03030491 0.01686231
v 0.04033579 -0.03064949 0.01659752
v 0.04033579 -0.03064394 0.01538372
v 0.04780949 -0.03181197 0.01519082
v 0.04780949 -0.03198756 0.01530459
v 0.04780949 -0.03212428 0.01578423
v 0.04033579 -0.03065088 0.01658846
v 0.04033579 -0.03069703 0.01598398
f 16 24 22
f 20 27 25
f 20 21 26
f 26 27 20
f 2 6 5
f 11 5 10
f 11 15 17
f 17 16 11
f 30 25 22
f 22 25 28
f 28 25 27
f 13 7 12
f 13 18 21
f 13 21 20
f 9 15 11
f 11 10 9
f 9 10 5
f 5 6 9
f 24 16 23
f 16 17 23
f 22 24 29
f 29 30 22
f 7 13 14
f 12 18 19
f 19 13 12
f 18 13 19
f 1 3 8
f 4 1 8
f 21 18 28
f 28 3 1
f 28 26 21
f 1 2 28
f 28 5 11
f 28 16 22
f 28 7 3
f 11 16 28
f 27 26 28
f 12 7 28
f 28 18 12
f 28 2 5
f 9 1 4
f 9 2 1
f 6 2 9
f 4 8 14
f 24 23 14
f 14 13 20
f 20 25 14
f 14 9 4
f 14 17 15
f 25 30 14
f 14 29 24
f 15 9 14
f 14 23 17
f 30 29 14
f 14 8 3
f 3 7 14
