# https://github.com/mikedh/trimesh
v 0.04456164 0.03083567 0.01598398
v 0.04456164 0.03073275 0.01665934
v 0.04456164 0.03072174 0.01530661
v 0.04038409 0.03065375 0.01539802
v 0.04038409 0.03069829 0.01598398
v 0.04038409 0.03065914 0.01658262
v 0.04456164 0.03072877 0.01667726
v 0.04456164 0.03031734 0.01505611
v 0.04038409 0.03031734 0.01514793
v 0.04038409 0.03031569 0.01685083
v 0.04038613 0.03031734 0.01685023
v 0.04456164 0.03032882 0.01693923
v 0.04456164 0.02972281 0.01497315
v 0.04395276 0.02972281 0.01497315
v 0.04038409 0.02972281 0.01497376
v 0.04038409 0.02972117 0.01702964
v 0.04038613 0.02972281 0.01702964
v 0.04456164 0.03031734 0.01694567
v 0.04038409 0.02912852 0.01497315
v 0.04038409 0.02912688 0.01703004
v 0.04038613 0.02912852 0.01703004
v 0.04395276 0.02972281 0.01703004
v 0.04456164 0.02973711 0.01702924
v 0.04456164 0.02972281 0.01703004
v 0.04456164 0.02859150 0.01703004
v 0.04456164 0.02859150 0.01497315
v 0.04038409 0.02859150 0.01497315
v 0.04038409 0.02859150 0.01703004
f 4 1 3
f 5 1 4
f 5 6 1
f 14 19 15
f 14 8 13
f 15 8 14
f 9 8 15
f 3 8 9
f 4 3 9
f 11 6 10
f 11 7 6
f 10 18 11
f 1 6 2
f 6 7 2
f 17 18 10
f 12 11 18
f 7 11 12
f 16 17 10
f 18 17 23
f 24 23 22
f 22 23 17
f 17 21 22
f 28 26 25
f 27 26 28
f 13 26 14
f 14 26 27
f 27 19 14
f 23 3 1
f 25 26 23
f 13 8 23
f 23 26 13
f 23 24 25
f 23 8 3
f 1 2 23
f 23 12 18
f 23 2 7
f 7 12 23
f 20 19 27
f 20 5 4
f 27 28 20
f 10 6 20
f 4 9 20
f 15 19 20
f 6 5 20
f 20 9 15
f 20 16 10
f 17 16 20
f 20 21 17
f 22 28 25
f 25 24 22
f 22 20 28
f 21 20 22
