# https://github.com/mikedh/trimesh
v 0.02964263 -0.04569443 0.01497315
v 0.03017409 -0.04569443 0.01497617
v 0.02964263 -0.04337874 0.01497315
v 0.02964263 -0.04569443 0.01703004
v 0.02904805 -0.04098374 0.01497315
v 0.03023673 -0.04569443 0.01497778
v 0.02964263 -0.04098374 0.01497355
v 0.03023673 -0.04569443 0.01702561
v 0.02964263 -0.04337874 0.01703004
v 0.02906526 -0.04098374 0.01703004
v 0.03023673 -0.04516231 0.01498926
v 0.03086478 -0.04569443 0.01521237
v 0.03023673 -0.04098374 0.01514270
v 0.03088486 -0.04569443 0.01676908
v 0.03023673 -0.04516231 0.01701434
v 0.02964263 -0.04098374 0.01702984
v 0.03088008 -0.04569443 0.01521962
v 0.03057621 -0.04098374 0.01539278
v 0.03118824 -0.04569443 0.01598398
v 0.03058171 -0.04098374 0.01658806
v 0.03024772 -0.04098374 0.01684822
v 0.03023673 -0.04098374 0.01685607
v 0.02965960 -0.04098374 0.01702622
v 0.03115310 -0.04569443 0.01566080
v 0.03062379 -0.04098374 0.01598398
v 0.03058363 -0.04098374 0.01656913
v 0.02875250 -0.04569443 0.01497315
v 0.02875250 -0.04569443 0.01703004
v 0.02875250 -0.04098374 0.01497315
v 0.02875250 -0.04098374 0.01703004
f 24 18 19
f 20 14 19
f 18 24 17
f 17 13 18
f 12 13 17
f 19 18 25
f 22 14 21
f 14 20 21
f 12 6 11
f 11 13 12
f 11 7 13
f 6 7 11
f 10 9 16
f 8 9 4
f 16 9 8
f 2 7 6
f 26 20 19
f 19 25 26
f 15 23 16
f 16 8 15
f 22 23 15
f 15 8 14
f 15 14 22
f 3 2 1
f 7 2 3
f 5 7 3
f 30 29 27
f 27 28 30
f 10 28 4
f 30 28 10
f 4 9 10
f 19 14 2
f 28 27 2
f 2 24 19
f 12 17 2
f 2 6 12
f 4 28 2
f 2 8 4
f 2 27 1
f 2 17 24
f 14 8 2
f 5 29 26
f 26 25 18
f 26 23 22
f 26 29 30
f 22 21 26
f 26 7 5
f 18 13 26
f 16 23 26
f 13 7 26
f 30 10 26
f 26 21 20
f 26 10 16
f 3 29 5
f 1 27 3
f 3 27 29
