# https://github.com/mikedh/trimesh
v 0.05789521 0.05457232 0.00374896
v 0.05681924 0.05457232 0.00374896
v 0.05793550 0.05443641 0.00374896
v 0.05791062 0.05434626 0.00069634
v 0.05783672 0.05457232 0.00069634
v 0.05652124 0.05457232 0.00202837
v 0.05652124 0.05457187 0.00211424
v 0.05652124 0.04994450 0.00188438
v 0.05739538 0.04994450 0.00374896
v 0.05802091 0.05409844 0.00374896
v 0.05798582 0.05404906 0.00069634
v 0.05796948 0.05398518 0.00006275
v 0.05768615 0.05457232 0.00013768
v 0.05652124 0.05457232 -0.00020374
v 0.05652124 0.04994450 0.00041891
v 0.05841788 0.04994450 0.00374896
v 0.05813770 0.05350360 0.00374896
v 0.05809184 0.05350360 0.00069634
v 0.05817539 0.05290875 0.00069634
v 0.05801348 0.05350360 -0.00003913
v 0.05759294 0.05457232 -0.00016459
v 0.05654928 0.05457232 -0.00022521
v 0.05709255 0.04994450 -0.00018269
v 0.05841769 0.04994450 0.00373591
v 0.05839894 0.05053119 0.00374896
v 0.05821995 0.05290875 0.00374896
v 0.05828568 0.05231436 0.00374896
v 0.05823648 0.05231436 0.00069634
v 0.05762673 0.05350360 -0.00041255
v 0.05805415 0.05290875 -0.00010355
v 0.05717611 0.05457232 -0.00043823
v 0.05703239 0.05457232 -0.00050433
v 0.05703239 0.05409799 -0.00048160
v 0.05762673 0.04994450 -0.00055148
v 0.05761930 0.04994450 -0.00054643
v 0.05835419 0.05053119 0.00069634
v 0.05837146 0.04994450 0.00069634
v 0.05832579 0.05112603 0.00069634
v 0.05836923 0.05112603 0.00374896
v 0.05833117 0.05172042 0.00374896
v 0.05828253 0.05172042 0.00069634
v 0.05762673 0.05290875 -0.00047739
v 0.05808125 0.05231436 -0.00013301
v 0.05762673 0.05231436 -0.00050602
v 0.05762673 0.05112603 -0.00054517
v 0.05762673 0.05053119 -0.00055106
v 0.05814810 0.04994450 -0.00018185
v 0.05812749 0.05112603 -0.00017385
v 0.05814086 0.05053119 -0.00018059
f 7 2 6
f 8 2 7
f 9 2 8
f 12 13 5
f 15 14 23
f 4 5 1
f 12 5 4
f 26 19 17
f 37 36 24
f 25 36 38
f 16 24 25
f 25 24 36
f 41 40 38
f 41 30 28
f 38 30 41
f 28 19 27
f 27 19 26
f 27 41 28
f 40 41 27
f 43 42 30
f 43 30 38
f 38 36 43
f 30 42 29
f 38 40 39
f 39 25 38
f 46 47 34
f 46 45 47
f 42 43 48
f 48 43 36
f 48 36 37
f 30 29 20
f 28 30 20
f 12 19 20
f 20 19 28
f 21 13 12
f 12 20 21
f 21 20 29
f 3 4 1
f 12 4 11
f 11 10 17
f 11 3 10
f 4 3 11
f 32 46 34
f 45 46 32
f 32 29 42
f 47 45 49
f 45 48 49
f 37 47 49
f 49 48 37
f 42 48 44
f 44 48 45
f 44 32 42
f 45 32 44
f 18 19 12
f 12 11 18
f 18 17 19
f 18 11 17
f 33 32 34
f 31 21 29
f 29 32 31
f 32 33 22
f 22 33 34
f 34 35 22
f 22 35 23
f 22 23 14
f 14 15 8
f 14 7 6
f 8 7 14
f 8 15 24
f 24 35 34
f 34 47 24
f 16 9 24
f 24 9 8
f 24 47 37
f 15 23 24
f 23 35 24
f 3 9 16
f 2 9 3
f 3 1 2
f 3 27 26
f 16 25 3
f 26 17 3
f 3 39 40
f 40 27 3
f 17 10 3
f 25 39 3
f 2 1 22
f 6 2 22
f 22 14 6
f 22 5 13
f 1 5 22
f 13 21 22
f 21 31 22
f 22 31 32
