# https://github.com/mikedh/trimesh
v 0.05647250 0.04101659 0.00329633
v 0.05511636 0.04159752 0.00049193
v 0.05643752 0.04159752 0.00048643
v 0.05647275 0.04159752 0.00329633
v 0.05511636 0.04159752 0.00185134
v 0.05703201 0.02912835 0.00058081
v 0.05645315 0.04159752 0.00048945
v 0.05703201 0.03150705 0.00058384
v 0.05703201 0.03031639 0.00058219
v 0.05758062 0.02912835 0.00329633
v 0.05753647 0.04159752 0.00329633
v 0.05743677 0.02912835 0.00094378
v 0.05703201 0.04159752 0.00060283
v 0.05703201 0.03210107 0.00058494
v 0.05757144 0.02912835 0.00273413
v 0.05757665 0.03150705 0.00329633
v 0.05751663 0.04159752 0.00171568
v 0.05756623 0.03447714 0.00329633
v 0.05743454 0.03150705 0.00094653
v 0.05743627 0.02972237 0.00094460
v 0.05755358 0.02912835 0.00171568
v 0.05742065 0.04159752 0.00096524
v 0.05743379 0.03210107 0.00094763
v 0.05756747 0.03150705 0.00273413
v 0.05757590 0.03177134 0.00329633
v 0.05756747 0.03415004 0.00329633
v 0.05756970 0.03355602 0.00329633
v 0.05757491 0.03210107 0.00329633
v 0.05756574 0.03210107 0.00273413
v 0.05754788 0.03210107 0.00171568
v 0.05742338 0.04159752 0.00098533
v 0.05754961 0.03150705 0.00171568
v 0.05504796 0.02859150 0.00049166
v 0.05643752 0.02859150 0.00048533
v 0.05643174 0.02859150 0.00048535
v 0.05504796 0.02859150 0.00185134
v 0.05506357 0.02859150 0.00186797
v 0.05703201 0.02859150 0.00058056
v 0.05702941 0.02859150 0.00058012
v 0.05743699 0.02859150 0.00094353
v 0.05739804 0.02859150 0.00090860
v 0.05757189 0.02859150 0.00273413
v 0.05757017 0.02859150 0.00263612
v 0.05757277 0.02859150 0.00278824
v 0.05579532 0.02859150 0.00260982
v 0.05651464 0.02859150 0.00329633
v 0.05506432 0.02859150 0.00186873
v 0.05758062 0.02859150 0.00329633
v 0.05754279 0.02859150 0.00164139
v 0.05755403 0.02859150 0.00171568
f 33 2 35
f 12 13 19
f 23 13 22
f 23 19 13
f 22 21 23
f 23 21 19
f 12 19 20
f 20 21 12
f 19 21 20
f 14 13 12
f 12 8 14
f 12 6 9
f 9 8 12
f 9 6 3
f 3 8 9
f 17 11 18
f 30 31 17
f 41 38 6
f 34 3 39
f 1 45 46
f 10 15 24
f 24 15 21
f 49 40 12
f 13 14 7
f 7 8 3
f 7 14 8
f 27 28 17
f 22 31 32
f 31 30 32
f 32 21 22
f 32 24 21
f 45 1 47
f 10 24 16
f 17 28 29
f 29 30 17
f 29 32 30
f 24 32 29
f 10 48 44
f 43 50 21
f 17 18 26
f 26 27 17
f 25 16 24
f 25 29 28
f 24 29 25
f 3 35 2
f 34 35 3
f 33 36 5
f 5 2 33
f 41 6 12
f 12 40 41
f 3 6 39
f 6 38 39
f 12 21 49
f 21 50 49
f 7 3 2
f 7 31 22
f 22 13 7
f 2 5 7
f 17 31 7
f 7 11 17
f 7 5 4
f 4 11 7
f 44 15 10
f 44 42 15
f 15 42 43
f 21 15 43
f 33 35 37
f 37 36 33
f 37 35 34
f 37 41 40
f 40 49 37
f 48 46 37
f 34 39 37
f 46 45 37
f 50 43 37
f 38 41 37
f 37 39 38
f 37 44 48
f 37 49 50
f 45 47 37
f 42 44 37
f 37 43 42
f 4 5 37
f 37 5 36
f 37 1 4
f 37 47 1
f 25 11 4
f 25 48 10
f 25 46 48
f 25 18 11
f 28 27 25
f 4 1 25
f 25 1 46
f 10 16 25
f 25 26 18
f 27 26 25
