# https://github.com/mikedh/trimesh
v 0.05578096 0.05609390 0.01731376
v 0.05578096 0.05651924 0.01877917
v 0.05578096 0.05749337 0.01731376
v 0.05743587 0.05056388 0.01731376
v 0.05578096 0.05708974 0.01885747
v 0.05755515 0.05056388 0.01802225
v 0.05774240 0.05056388 0.01888351
v 0.05578096 0.05747234 0.01775941
v 0.05580853 0.05748319 0.01731376
v 0.05856945 0.05056388 0.01731376
v 0.05584483 0.05709246 0.01884596
v 0.05578096 0.05719692 0.01878364
v 0.05643796 0.05647582 0.01892074
v 0.05818486 0.05056388 0.01888351
v 0.05762667 0.05409816 0.01894598
v 0.05578096 0.05745809 0.01802225
v 0.05610577 0.05734752 0.01731376
v 0.05581344 0.05748116 0.01731376
v 0.05855007 0.05056388 0.01779455
v 0.05854816 0.05112624 0.01731376
v 0.05853751 0.05112624 0.01768382
v 0.05643796 0.05689030 0.01872628
v 0.05675922 0.05679398 0.01858279
v 0.05703245 0.05588157 0.01892985
v 0.05698741 0.05641952 0.01870199
v 0.05848210 0.05056388 0.01830396
v 0.05817312 0.05112624 0.01889134
v 0.05815947 0.05172049 0.01890077
v 0.05762667 0.05469240 0.01892761
v 0.05606237 0.05731835 0.01802225
v 0.05643796 0.05713791 0.01731376
v 0.05643796 0.05708567 0.01802225
v 0.05847037 0.05112624 0.01819323
v 0.05852687 0.05156107 0.01731376
v 0.05852523 0.05153394 0.01757325
v 0.05846463 0.05172727 0.01795674
v 0.05733351 0.05618412 0.01854284
v 0.05710860 0.05652941 0.01802225
v 0.05681136 0.05683807 0.01802225
v 0.05763813 0.05523035 0.01880297
v 0.05742141 0.05588157 0.01870759
v 0.05807950 0.05350391 0.01885315
v 0.05803501 0.05409816 0.01879147
v 0.05683810 0.05686113 0.01731376
v 0.05840513 0.05231473 0.01802225
v 0.05847555 0.05212344 0.01731376
v 0.05845781 0.05231473 0.01731376
v 0.05841905 0.05272854 0.01731376
v 0.05840158 0.05290966 0.01731376
v 0.05829267 0.05350391 0.01802225
v 0.05737064 0.05623229 0.01802225
v 0.05792610 0.05499495 0.01853837
v 0.05783411 0.05536738 0.01802225
v 0.05757808 0.05588157 0.01802225
v 0.05713535 0.05656062 0.01731376
v 0.05796540 0.05469240 0.01864079
v 0.05819850 0.05409816 0.01802225
v 0.05833307 0.05350391 0.01731376
v 0.05739411 0.05626282 0.01731376
v 0.05762203 0.05588157 0.01731376
v 0.05806176 0.05469240 0.01802225
v 0.05795530 0.05507025 0.01802225
v 0.05785458 0.05541758 0.01731376
v 0.05823508 0.05409816 0.01731376
v 0.05814146 0.05451128 0.01731376
v 0.05809970 0.05469240 0.01731376
v 0.05797496 0.05511977 0.01731376
f 1 4 2
f 6 2 4
f 6 7 2
f 15 24 13
f 13 7 15
f 15 7 14
f 39 32 23
f 25 37 23
f 25 13 24
f 29 24 15
f 24 29 40
f 2 7 5
f 7 13 5
f 10 21 19
f 33 21 36
f 26 19 33
f 33 19 21
f 33 42 26
f 43 50 57
f 42 50 43
f 43 29 42
f 43 40 29
f 26 42 28
f 15 14 28
f 28 29 15
f 42 29 28
f 16 12 23
f 60 59 51
f 44 39 55
f 55 51 59
f 23 12 22
f 22 25 23
f 13 25 22
f 57 64 65
f 52 53 37
f 45 50 42
f 42 33 45
f 45 33 36
f 58 64 57
f 57 50 58
f 27 14 26
f 26 28 27
f 27 28 14
f 31 39 44
f 32 39 31
f 31 17 32
f 32 17 30
f 17 16 30
f 23 32 30
f 30 16 23
f 60 51 54
f 54 63 60
f 53 63 54
f 37 53 54
f 54 51 37
f 38 55 39
f 51 55 38
f 37 51 38
f 23 37 38
f 38 39 23
f 12 5 11
f 11 22 12
f 11 5 13
f 13 22 11
f 41 52 37
f 40 52 41
f 37 25 41
f 41 25 24
f 24 40 41
f 56 43 57
f 57 52 56
f 40 43 56
f 56 52 40
f 62 66 67
f 53 52 62
f 67 63 62
f 62 63 53
f 36 21 35
f 35 45 36
f 50 45 35
f 49 58 50
f 50 35 49
f 49 35 48
f 17 18 8
f 8 16 17
f 66 62 61
f 61 65 66
f 57 65 61
f 61 52 57
f 61 62 52
f 34 35 20
f 20 21 10
f 20 35 21
f 46 35 34
f 3 8 9
f 9 8 18
f 48 35 47
f 35 46 47
f 19 4 10
f 26 14 19
f 19 6 4
f 7 6 19
f 19 14 7
f 8 3 1
f 1 2 8
f 2 5 8
f 8 5 12
f 12 16 8
f 10 4 47
f 47 4 1
f 1 3 47
f 44 55 47
f 47 65 64
f 60 63 47
f 47 59 60
f 47 31 44
f 67 66 47
f 47 49 48
f 64 58 47
f 47 55 59
f 66 65 47
f 47 63 67
f 47 20 10
f 3 9 47
f 17 31 47
f 47 18 17
f 58 49 47
f 34 20 47
f 47 46 34
f 47 9 18
