# https://github.com/mikedh/trimesh
v 0.04904240 -0.05705295 -0.00045018
v 0.04904240 -0.05658281 -0.00007749
v 0.04904240 -0.05762039 -0.00018551
v 0.04866642 -0.05762371 -0.00018551
v 0.04807235 -0.05762723 -0.00018551
v 0.04747761 -0.05762997 -0.00018551
v 0.04688287 -0.05763094 -0.00018551
v 0.04450594 -0.05762938 -0.00018659
v 0.04510000 -0.05705295 -0.00039617
v 0.04669624 -0.05615997 0.00038702
v 0.04848799 -0.05615997 0.00038486
v 0.04904240 -0.05615997 0.00038486
v 0.04510000 -0.05660157 -0.00002347
v 0.04358922 -0.05615997 0.00040323
v 0.04430359 -0.05615997 0.00039135
v 0.04510000 -0.05615997 0.00038919
v 0.04904240 -0.05789376 0.00069706
v 0.04866642 -0.05790001 0.00069706
v 0.04807235 -0.05790666 0.00069706
v 0.04747761 -0.05791173 0.00069706
v 0.04688287 -0.05791369 0.00069706
v 0.04569406 -0.05763094 -0.00018551
v 0.04450594 -0.05705295 -0.00038104
v 0.04510000 -0.05763075 -0.00018551
v 0.04510000 -0.05791330 0.00069706
v 0.04450594 -0.05791076 0.00069706
v 0.04391120 -0.05752777 -0.00004940
v 0.04904240 -0.05615997 0.00189184
v 0.04205860 -0.05615997 0.00047993
v 0.04904240 -0.05813488 0.01051127
v 0.04866642 -0.05814270 0.01058581
v 0.04849073 -0.05814446 0.01058581
v 0.04807235 -0.05814837 0.01058581
v 0.04747761 -0.05815364 0.01058581
v 0.04730124 -0.05815443 0.01058581
v 0.04688287 -0.05815618 0.01058581
v 0.04569406 -0.05791369 0.00069706
v 0.04205860 -0.05645854 0.00047561
v 0.04510000 -0.05815618 0.01058581
v 0.04450594 -0.05815560 0.01058581
v 0.04391120 -0.05815130 0.01058581
v 0.04391120 -0.05813234 0.00986852
v 0.04391120 -0.05810479 0.00884875
v 0.04391120 -0.05807548 0.00783006
v 0.04391120 -0.05804481 0.00681029
v 0.04417302 -0.05795062 0.00301315
v 0.04360357 -0.05795179 0.00514235
v 0.04391120 -0.05781873 0.00171575
v 0.04391120 -0.05774858 0.00069706
v 0.04205860 -0.05729212 0.00171575
v 0.04205860 -0.05701504 0.00084182
v 0.04904240 -0.05711411 0.01058581
v 0.04272239 -0.05615997 0.00219107
v 0.04205860 -0.05650856 0.01058581
v 0.04212765 -0.05650876 0.01058581
v 0.04230402 -0.05651013 0.01058581
v 0.04272239 -0.05651403 0.01058581
v 0.04289808 -0.05652634 0.01058581
v 0.04331646 -0.05656542 0.01058581
v 0.04205860 -0.05615997 0.00180866
v 0.04904240 -0.05813665 0.01058581
v 0.04375807 -0.05812277 0.01058581
v 0.04354410 -0.05798794 0.00681029
v 0.04358033 -0.05796704 0.00579160
v 0.04331167 -0.05803660 0.01058581
v 0.04205860 -0.05732104 0.00261778
v 0.04214406 -0.05615997 0.00220619
v 0.04212765 -0.05615997 0.00220619
v 0.04205860 -0.05616094 0.00220727
v 0.04205860 -0.05753950 0.01058581
v 0.04339575 -0.05803621 0.00986852
v 0.04205860 -0.05753735 0.01050263
v 0.04205860 -0.05751722 0.00975077
v 0.04205860 -0.05748987 0.00873100
v 0.04205860 -0.05735973 0.00390005
v 0.04205860 -0.05734273 0.00331454
v 0.04205860 -0.05732475 0.00273553
f 29 14 23
f 54 53 67
f 54 28 53
f 55 28 54
f 15 2 14
f 1 8 9
f 8 23 9
f 9 2 1
f 27 23 8
f 27 8 26
f 51 27 50
f 10 2 16
f 2 15 16
f 68 60 69
f 69 54 68
f 68 54 67
f 52 28 59
f 28 58 59
f 57 58 28
f 11 12 2
f 11 2 10
f 14 2 13
f 2 9 13
f 13 23 14
f 13 9 23
f 21 20 36
f 21 6 20
f 18 3 17
f 1 3 4
f 7 8 1
f 1 6 7
f 6 21 7
f 38 27 51
f 29 23 38
f 23 27 38
f 66 50 65
f 49 27 26
f 49 50 27
f 40 41 26
f 76 65 75
f 56 28 55
f 56 57 28
f 36 20 35
f 20 34 35
f 5 6 1
f 1 4 5
f 20 6 5
f 5 4 20
f 65 50 64
f 50 47 64
f 77 65 76
f 77 66 65
f 48 47 50
f 50 49 48
f 26 47 48
f 48 49 26
f 25 40 26
f 26 8 25
f 25 39 40
f 37 39 25
f 8 24 25
f 25 24 37
f 74 75 65
f 61 31 30
f 30 31 18
f 30 18 17
f 33 34 19
f 19 34 20
f 18 31 19
f 3 18 19
f 20 4 19
f 19 4 3
f 37 24 22
f 8 7 22
f 22 24 8
f 65 64 63
f 46 47 26
f 26 45 46
f 46 45 47
f 65 70 72
f 33 19 32
f 32 19 31
f 65 63 71
f 26 41 42
f 42 43 26
f 64 43 42
f 41 63 42
f 42 63 64
f 44 45 26
f 26 43 44
f 47 45 44
f 44 64 47
f 44 43 64
f 73 74 65
f 65 72 73
f 65 71 62
f 62 63 41
f 62 71 63
f 29 60 11
f 11 14 29
f 11 68 67
f 67 53 11
f 53 28 11
f 11 15 14
f 10 16 11
f 28 12 11
f 11 16 15
f 60 68 11
f 39 21 36
f 37 21 39
f 30 28 52
f 52 61 30
f 1 2 30
f 30 3 1
f 30 12 28
f 17 3 30
f 2 12 30
f 22 21 37
f 22 7 21
f 76 75 73
f 29 38 73
f 73 60 29
f 73 54 69
f 69 60 73
f 51 50 73
f 73 70 54
f 73 38 51
f 50 66 73
f 73 77 76
f 66 77 73
f 75 74 73
f 73 72 70
f 62 61 52
f 52 59 62
f 62 31 61
f 55 54 62
f 62 56 55
f 54 70 62
f 36 35 62
f 33 32 62
f 62 70 65
f 62 59 58
f 58 57 62
f 62 34 33
f 41 40 62
f 57 56 62
f 62 35 34
f 62 39 36
f 40 39 62
f 62 32 31
