# https://github.com/mikedh/trimesh
v 0.04937859 0.05825647 0.01704503
v 0.04937859 0.05648371 0.01704503
v 0.04937859 0.05821930 0.01789357
v 0.04989812 0.05820058 0.01802204
v 0.04989812 0.05824322 0.01704503
v 0.05529213 0.05533155 0.01704503
v 0.04937859 0.05730714 0.01870882
v 0.04937859 0.05821354 0.01802204
v 0.05049286 0.05818444 0.01802204
v 0.05108760 0.05803837 0.01873666
v 0.05049286 0.05822708 0.01704503
v 0.05578096 0.05531311 0.01704503
v 0.05578096 0.05651944 0.01877917
v 0.04937859 0.05766526 0.01896182
v 0.04937859 0.05806372 0.01878481
v 0.04989812 0.05805738 0.01877315
v 0.05049286 0.05804903 0.01875810
v 0.05106316 0.05820721 0.01704503
v 0.05108760 0.05816341 0.01802204
v 0.05168171 0.05802281 0.01870186
v 0.05405941 0.05760620 0.01889673
v 0.05578096 0.05750565 0.01704503
v 0.05578096 0.05709019 0.01885742
v 0.05524826 0.05707060 0.01895372
v 0.04989812 0.05766526 0.01896482
v 0.05049286 0.05766526 0.01896633
v 0.05108760 0.05766526 0.01896577
v 0.05168171 0.05766526 0.01895824
v 0.05227645 0.05766526 0.01893981
v 0.05108760 0.05820634 0.01704503
v 0.05165727 0.05817753 0.01704503
v 0.05227645 0.05800437 0.01865671
v 0.05168171 0.05813258 0.01802204
v 0.05465415 0.05755722 0.01887961
v 0.05578096 0.05750392 0.01708472
v 0.05575902 0.05751343 0.01704503
v 0.05578096 0.05719679 0.01878368
v 0.05524826 0.05748087 0.01878462
v 0.05168171 0.05817609 0.01704503
v 0.05287056 0.05798074 0.01858862
v 0.05225201 0.05814238 0.01704503
v 0.05227645 0.05809657 0.01802204
v 0.05318705 0.05796519 0.01854027
v 0.05524826 0.05769350 0.01704503
v 0.05578096 0.05747252 0.01775945
v 0.05578096 0.05745811 0.01802204
v 0.05564747 0.05741518 0.01865351
v 0.05465415 0.05779837 0.01802204
v 0.05227645 0.05814065 0.01704503
v 0.05287056 0.05805076 0.01802204
v 0.05287056 0.05809657 0.01704503
v 0.05406066 0.05790670 0.01799552
v 0.05386325 0.05797556 0.01763812
v 0.05341704 0.05799458 0.01799552
v 0.05524826 0.05764654 0.01802204
v 0.05576466 0.05746589 0.01802204
v 0.05522382 0.05769983 0.01704503
v 0.05465415 0.05784533 0.01704503
v 0.05419039 0.05793868 0.01704503
v 0.05346279 0.05803319 0.01704503
v 0.05389647 0.05797959 0.01704503
f 6 7 2
f 25 15 14
f 26 15 25
f 13 6 12
f 7 6 13
f 14 7 13
f 37 46 47
f 24 25 14
f 14 13 24
f 26 25 24
f 24 13 23
f 23 34 24
f 4 10 9
f 8 10 4
f 55 48 47
f 17 10 8
f 23 37 38
f 38 34 23
f 38 37 47
f 47 48 38
f 3 4 1
f 8 4 3
f 1 4 5
f 9 11 5
f 5 4 9
f 18 11 9
f 9 30 18
f 31 30 19
f 19 33 31
f 19 30 9
f 9 10 19
f 10 20 19
f 31 33 39
f 33 41 39
f 50 51 42
f 42 41 33
f 42 33 40
f 47 46 56
f 56 55 47
f 55 56 44
f 48 52 43
f 43 38 48
f 40 34 43
f 34 38 43
f 43 54 50
f 50 42 43
f 43 42 40
f 53 52 48
f 60 51 53
f 53 43 52
f 54 43 53
f 53 51 50
f 50 54 53
f 16 8 15
f 16 17 8
f 15 28 16
f 26 24 27
f 24 28 27
f 27 15 26
f 27 28 15
f 21 24 34
f 21 28 24
f 21 20 10
f 10 17 21
f 40 33 32
f 33 19 32
f 32 19 20
f 32 34 40
f 32 21 34
f 20 21 32
f 49 42 51
f 41 42 49
f 45 56 46
f 45 44 56
f 48 55 57
f 57 58 48
f 55 44 57
f 48 58 59
f 59 53 48
f 29 21 17
f 28 21 29
f 17 16 29
f 29 16 28
f 44 45 35
f 60 53 61
f 53 59 61
f 36 35 22
f 44 35 36
f 1 2 3
f 2 7 3
f 3 7 14
f 14 15 3
f 15 8 3
f 12 22 35
f 35 37 23
f 35 13 12
f 23 13 35
f 46 37 35
f 35 45 46
f 12 6 36
f 36 2 1
f 36 22 12
f 11 18 36
f 36 6 2
f 36 51 60
f 36 30 31
f 31 39 36
f 1 5 36
f 60 61 36
f 58 57 36
f 36 5 11
f 36 18 30
f 36 39 41
f 36 49 51
f 41 49 36
f 36 57 44
f 36 59 58
f 36 61 59
