# https://github.com/mikedh/trimesh
v 0.04451964 -0.02860867 0.01497315
v 0.04841945 -0.02860867 0.01497315
v 0.04451964 -0.02860867 0.01671451
v 0.04841945 -0.02860867 0.01703004
v 0.04500717 -0.02860867 0.01703004
v 0.04451964 -0.02860666 0.01703004
v 0.04451964 -0.02845850 0.01703004
v 0.04841945 -0.02845850 0.01497315
v 0.04841945 -0.02845850 0.01703004
v 0.04451964 -0.02845850 0.01497315
f 3 5 6
f 5 9 7
f 4 9 5
f 7 6 5
f 8 2 1
f 1 10 8
f 7 9 8
f 8 10 7
f 8 9 4
f 8 4 2
f 4 5 3
f 1 2 3
f 2 4 3
f 3 6 7
f 3 10 1
f 7 10 3
