# https://github.com/mikedh/trimesh
v 0.04894816 0.05707083 -0.00044128
v 0.04894816 0.05741725 -0.00029040
v 0.04573637 0.05707083 -0.00039432
v 0.04454770 0.05765644 -0.00018648
v 0.04514237 0.05765796 -0.00018648
v 0.04573637 0.05765815 -0.00018648
v 0.04692504 0.05765815 -0.00018648
v 0.04894816 0.05764827 -0.00018548
v 0.04751972 0.05765701 -0.00018648
v 0.04811440 0.05765416 -0.00018648
v 0.04894816 0.05660366 -0.00006757
v 0.04514237 0.05707083 -0.00038533
v 0.04454770 0.05794526 0.00069684
v 0.04514237 0.05794811 0.00069684
v 0.04454770 0.05707083 -0.00037034
v 0.04395302 0.05755377 -0.00005258
v 0.04573637 0.05794830 0.00069684
v 0.04692504 0.05794830 0.00069684
v 0.04894816 0.05781787 0.00034211
v 0.04870839 0.05765055 -0.00018548
v 0.04811440 0.05794107 0.00069684
v 0.04751972 0.05794640 0.00069684
v 0.04894816 0.05622587 0.00036809
v 0.04692504 0.05622587 0.00037109
v 0.04633037 0.05622587 0.00037209
v 0.04514237 0.05622587 0.00037409
v 0.04454770 0.05622587 0.00037709
v 0.04514237 0.05662382 -0.00001261
v 0.04454770 0.05816771 0.00976688
v 0.04395302 0.05778307 0.00069684
v 0.04400720 0.05787415 0.00176802
v 0.04424155 0.05796465 0.00214174
v 0.04395302 0.05810820 0.00783037
v 0.04395302 0.05813729 0.00884959
v 0.04395302 0.05816220 0.00976688
v 0.04401262 0.05816296 0.00976688
v 0.04514237 0.05816810 0.00976688
v 0.04454770 0.05663256 0.00000337
v 0.04202947 0.05622587 0.00047901
v 0.04202947 0.05628519 0.00047801
v 0.04202947 0.05647646 0.00047501
v 0.04202947 0.05704116 0.00084173
v 0.04202947 0.05732599 0.00171606
v 0.04692504 0.05816810 0.00976688
v 0.04698465 0.05816790 0.00976688
v 0.04894816 0.05793005 0.00069684
v 0.04870839 0.05793423 0.00069684
v 0.04811440 0.05816068 0.00976688
v 0.04870839 0.05815497 0.00976688
v 0.04751972 0.05816581 0.00976688
v 0.04894816 0.05622587 0.00188393
v 0.04393405 0.05622587 0.00039607
v 0.04369835 0.05795476 0.00437402
v 0.04363942 0.05797435 0.00505250
v 0.04395302 0.05807721 0.00681115
v 0.04361233 0.05799222 0.00579193
v 0.04357576 0.05801313 0.00681115
v 0.04347823 0.05806904 0.00976688
v 0.04202947 0.05622587 0.00147224
v 0.04202947 0.05735584 0.00259938
v 0.04894816 0.05815098 0.00976688
v 0.04876800 0.05815403 0.00976688
v 0.04894816 0.05712806 0.00976688
v 0.04335834 0.05656507 0.00976688
v 0.04276434 0.05652457 0.00976688
v 0.04216967 0.05652019 0.00976688
v 0.04211007 0.05652001 0.00976688
v 0.04276434 0.05622587 0.00211675
v 0.04343217 0.05805991 0.00976688
v 0.04216425 0.05622587 0.00213174
v 0.04202947 0.05622853 0.00213274
v 0.04202947 0.05737143 0.00310899
v 0.04202947 0.05652001 0.00976688
v 0.04216967 0.05622587 0.00213174
v 0.04202947 0.05752487 0.00884959
v 0.04202947 0.05754921 0.00976688
f 68 51 67
f 67 51 66
f 74 68 67
f 64 51 63
f 12 15 4
f 14 13 29
f 14 4 13
f 26 27 11
f 4 15 16
f 13 4 16
f 16 42 43
f 29 13 36
f 13 35 36
f 76 69 75
f 69 72 75
f 60 72 69
f 66 51 65
f 51 64 65
f 3 4 1
f 3 12 4
f 1 11 3
f 11 12 3
f 11 27 28
f 28 12 11
f 15 12 28
f 28 27 52
f 22 45 50
f 37 14 29
f 47 61 46
f 24 11 23
f 71 59 70
f 73 71 70
f 42 16 41
f 41 16 15
f 13 16 30
f 30 16 43
f 30 31 13
f 43 31 30
f 57 60 69
f 13 31 32
f 32 31 43
f 39 15 38
f 15 28 38
f 38 52 39
f 38 28 52
f 48 21 22
f 22 50 48
f 22 9 18
f 19 47 46
f 8 21 19
f 21 47 19
f 8 2 10
f 10 2 9
f 10 9 22
f 1 4 5
f 5 6 1
f 4 14 5
f 1 6 7
f 7 2 1
f 9 2 7
f 7 18 9
f 25 26 11
f 11 24 25
f 40 15 39
f 40 41 15
f 58 57 69
f 35 57 58
f 43 60 56
f 60 57 56
f 56 54 43
f 56 57 35
f 55 32 54
f 43 54 53
f 53 32 43
f 54 32 53
f 49 47 21
f 21 48 49
f 44 45 22
f 22 18 44
f 14 37 17
f 17 5 14
f 6 5 17
f 20 10 22
f 8 10 20
f 22 21 20
f 20 21 8
f 34 56 35
f 34 35 13
f 54 56 33
f 33 55 54
f 56 34 33
f 32 55 33
f 13 32 33
f 33 34 13
f 61 47 62
f 47 49 62
f 70 67 73
f 74 67 70
f 23 11 19
f 19 11 1
f 19 61 63
f 19 51 23
f 63 51 19
f 46 61 19
f 1 2 19
f 19 2 8
f 39 52 25
f 25 59 39
f 23 51 25
f 25 68 74
f 25 51 68
f 52 27 25
f 27 26 25
f 25 24 23
f 74 70 25
f 25 70 59
f 40 73 76
f 39 59 40
f 40 60 43
f 40 71 73
f 43 42 40
f 76 75 40
f 40 59 71
f 40 75 72
f 72 60 40
f 42 41 40
f 37 44 17
f 17 44 18
f 17 7 6
f 18 7 17
f 29 36 62
f 62 37 29
f 62 67 66
f 76 73 62
f 62 69 76
f 63 61 62
f 62 58 69
f 73 67 62
f 62 64 63
f 66 65 62
f 62 36 35
f 62 65 64
f 62 50 45
f 45 44 62
f 62 48 50
f 35 58 62
f 62 49 48
f 62 44 37
