# https://github.com/mikedh/trimesh
v 0.02904884 -0.04098374 0.01497335
v 0.02964302 -0.04040435 0.01497335
v 0.02964302 -0.04098374 0.01497376
v 0.02906553 -0.04098374 0.01703004
v 0.03372176 -0.03208312 0.01497335
v 0.03372176 -0.03267682 0.01497597
v 0.03372176 -0.03327051 0.01503980
v 0.03023720 -0.04098374 0.01514288
v 0.02964302 -0.04098374 0.01702984
v 0.02964302 -0.04040435 0.01703004
v 0.03376301 -0.02860919 0.01497335
v 0.03372176 -0.03384274 0.01526590
v 0.03057702 -0.04098374 0.01539295
v 0.02966021 -0.04098374 0.01702622
v 0.03372176 -0.03275788 0.01702723
v 0.03372176 -0.03267682 0.01702763
v 0.03372176 -0.03216419 0.01703004
v 0.03372176 -0.03412409 0.01598408
v 0.03372176 -0.03393811 0.01531784
v 0.03376301 -0.02860919 0.01703004
v 0.03062465 -0.04098374 0.01598408
v 0.03023720 -0.04098374 0.01685588
v 0.03372176 -0.03335157 0.01695192
v 0.03372176 -0.03409548 0.01629152
v 0.03372176 -0.03390235 0.01669904
v 0.03372176 -0.03394765 0.01666421
v 0.03058389 -0.04098374 0.01656897
v 0.03024849 -0.04098374 0.01684803
v 0.03058193 -0.04098374 0.01658790
v 0.02875250 -0.04098374 0.01497335
v 0.02875250 -0.04098374 0.01703004
v 0.03376301 -0.02845850 0.01497335
v 0.03376301 -0.02845850 0.01703004
v 0.02875250 -0.02845850 0.01497335
v 0.02875250 -0.02845850 0.01703004
f 11 7 6
f 11 18 19
f 11 6 5
f 12 7 11
f 11 19 12
f 3 5 6
f 3 6 7
f 7 8 3
f 18 21 13
f 13 19 18
f 13 12 19
f 13 8 7
f 7 12 13
f 2 3 1
f 5 3 2
f 15 23 20
f 20 18 11
f 4 9 10
f 10 9 17
f 16 9 15
f 17 9 16
f 16 20 17
f 15 20 16
f 28 23 22
f 29 23 28
f 22 23 14
f 15 9 14
f 14 23 15
f 24 26 29
f 29 27 24
f 18 20 24
f 20 26 24
f 24 27 21
f 24 21 18
f 25 23 29
f 29 26 25
f 25 20 23
f 25 26 20
f 30 31 34
f 34 31 35
f 32 34 35
f 35 33 32
f 1 30 2
f 30 34 2
f 2 32 11
f 34 32 2
f 11 5 2
f 20 32 33
f 11 32 20
f 10 31 4
f 35 31 10
f 10 33 35
f 10 20 33
f 17 20 10
f 4 31 14
f 14 31 30
f 14 30 1
f 21 27 14
f 14 13 21
f 1 3 14
f 14 9 4
f 14 3 8
f 8 13 14
f 14 27 29
f 14 28 22
f 29 28 14
