# https://github.com/mikedh/trimesh
v -0.04967548 -0.05049039 0.01598398
v -0.04969769 -0.05049039 0.01583558
v -0.04990344 -0.05049039 0.01669598
v -0.04380354 -0.05331887 0.01598398
v -0.04990928 -0.05049039 0.01529090
v -0.05045755 -0.05049039 0.01694648
v -0.04455989 -0.05331887 0.01666256
v -0.04466393 -0.05315746 0.01655362
v -0.04457976 -0.05331887 0.01532392
v -0.04468497 -0.05316161 0.01542400
v -0.04992682 -0.05049039 0.01527781
v -0.05105141 -0.05049039 0.01702561
v -0.05045755 -0.05051337 0.01695634
v -0.04510815 -0.05331887 0.01678700
v -0.04472238 -0.05331887 0.01528304
v -0.05047976 -0.05049039 0.01504524
v -0.05105141 -0.05051337 0.01702803
v -0.04748592 -0.05289111 0.01701494
v -0.04570201 -0.05331887 0.01689151
v -0.05164643 -0.05049039 0.01703004
v -0.04532091 -0.05331887 0.01515700
v -0.05105141 -0.05049039 0.01497778
v -0.04586450 -0.05331887 0.01507806
v -0.04646304 -0.05331887 0.01500678
v -0.04986252 -0.05170224 0.01702984
v -0.04807978 -0.05289111 0.01702944
v -0.04748592 -0.05331887 0.01702582
v -0.04689089 -0.05331887 0.01700105
v -0.04629821 -0.05331887 0.01694749
v -0.05574616 -0.05049039 0.01703004
v -0.04926983 -0.05229667 0.01703004
v -0.05107479 -0.05049039 0.01497537
v -0.04705806 -0.05331887 0.01497758
v -0.04807978 -0.05331887 0.01703004
v -0.05574616 -0.05049039 0.01497315
v -0.05574616 -0.05331887 0.01703004
v -0.05166864 -0.05049039 0.01497315
v -0.04807978 -0.05289111 0.01497396
v -0.04765309 -0.05331887 0.01497335
v -0.05574616 -0.05331887 0.01497315
v -0.04926983 -0.05229667 0.01497315
v -0.04824695 -0.05331887 0.01497315
v -0.04867480 -0.05289111 0.01497315
f 4 1 3
f 13 6 12
f 2 1 4
f 4 5 2
f 16 11 9
f 3 6 7
f 7 6 13
f 10 11 5
f 10 9 11
f 4 9 10
f 10 5 4
f 8 7 4
f 4 3 8
f 3 7 8
f 13 12 19
f 34 26 31
f 17 12 20
f 27 26 34
f 33 39 38
f 38 32 33
f 38 37 32
f 39 37 38
f 21 23 16
f 24 22 16
f 16 23 24
f 24 32 22
f 33 32 24
f 14 7 13
f 13 19 14
f 18 19 12
f 12 17 18
f 18 17 26
f 18 27 28
f 26 27 18
f 20 31 25
f 25 31 26
f 25 17 20
f 26 17 25
f 41 37 39
f 16 9 15
f 15 21 16
f 29 18 28
f 19 18 29
f 39 42 43
f 43 41 39
f 30 35 40
f 40 36 30
f 30 36 31
f 31 20 30
f 36 34 31
f 37 35 30
f 30 20 37
f 37 11 16
f 37 3 1
f 20 12 37
f 1 2 37
f 37 6 3
f 37 12 6
f 37 2 5
f 5 11 37
f 16 22 37
f 22 32 37
f 36 40 29
f 29 9 4
f 4 7 29
f 29 34 36
f 29 15 9
f 29 39 33
f 40 42 29
f 7 14 29
f 29 42 39
f 28 27 29
f 33 24 29
f 29 27 34
f 23 21 29
f 29 24 23
f 29 14 19
f 21 15 29
f 43 40 35
f 43 42 40
f 35 37 43
f 37 41 43
