# https://github.com/mikedh/trimesh
v 0.05824285 -0.05351332 0.01058539
v 0.05701235 -0.05450624 0.01395005
v 0.05810444 -0.05450701 0.01395005
v 0.05817305 -0.05390448 0.01058539
v 0.05822829 -0.05351332 0.00990061
v 0.05720808 -0.05351332 0.01058539
v 0.05700404 -0.05450624 0.01395005
v 0.05806494 -0.05467694 0.01395005
v 0.05810087 -0.05450624 0.01365594
v 0.05814097 -0.05408062 0.01058539
v 0.05812493 -0.05408062 0.00986768
v 0.05820631 -0.05351332 0.00889648
v 0.05697137 -0.05351332 0.00273892
v 0.05520894 -0.05615971 0.00273892
v 0.05607471 -0.05602164 0.01395005
v 0.05793723 -0.05510929 0.01395005
v 0.05793723 -0.05510929 0.01394456
v 0.05793010 -0.05509064 0.01292617
v 0.05805157 -0.05467487 0.01292617
v 0.05809078 -0.05450624 0.01292617
v 0.05808514 -0.05450624 0.01263645
v 0.05807028 -0.05450624 0.01190667
v 0.05806405 -0.05450624 0.01161695
v 0.05810087 -0.05408062 0.00884819
v 0.05806494 -0.05351332 0.00278282
v 0.05811275 -0.05351332 0.00482071
v 0.05813652 -0.05351332 0.00584020
v 0.05815909 -0.05351332 0.00681140
v 0.05818344 -0.05351332 0.00787808
v 0.05804029 -0.05450624 0.01058539
v 0.05714987 -0.05351332 0.00273892
v 0.05578186 -0.05615971 0.01058539
v 0.05697938 -0.05615971 0.00273892
v 0.05607619 -0.05602241 0.01394456
v 0.05608243 -0.05602241 0.01395005
v 0.05781367 -0.05540511 0.01395005
v 0.05781308 -0.05540641 0.01394456
v 0.05780447 -0.05538776 0.01292617
v 0.05791941 -0.05506369 0.01190667
v 0.05790752 -0.05503391 0.01088718
v 0.05803049 -0.05467487 0.01190667
v 0.05800702 -0.05467487 0.01088718
v 0.05807652 -0.05408062 0.00783089
v 0.05794020 -0.05412026 0.00273892
v 0.05806345 -0.05351462 0.00273892
v 0.05805157 -0.05408062 0.00681140
v 0.05802633 -0.05408062 0.00579301
v 0.05797524 -0.05408062 0.00375512
v 0.05730431 -0.05615971 0.01058539
v 0.05714096 -0.05596931 0.00273892
v 0.05727787 -0.05614753 0.00960431
v 0.05728649 -0.05615971 0.01006522
v 0.05748043 -0.05602241 0.01395005
v 0.05781219 -0.05540848 0.01395005
v 0.05755676 -0.05586362 0.01292617
v 0.05779170 -0.05536082 0.01190667
v 0.05757696 -0.05586362 0.01394456
v 0.05790366 -0.05502432 0.01058539
v 0.05789416 -0.05500153 0.00986768
v 0.05788555 -0.05498080 0.00922241
v 0.05798118 -0.05467513 0.00986768
v 0.05793693 -0.05413321 0.00273892
v 0.05729391 -0.05615971 0.01027592
v 0.05735480 -0.05567063 0.00273892
v 0.05743113 -0.05602241 0.01190667
v 0.05746024 -0.05602241 0.01292617
v 0.05746885 -0.05602241 0.01335525
v 0.05748043 -0.05602241 0.01394456
v 0.05757577 -0.05586544 0.01395005
v 0.05752766 -0.05586362 0.01190667
v 0.05777744 -0.05533077 0.01088718
v 0.05776199 -0.05529890 0.00986768
v 0.05777001 -0.05521497 0.00886904
v 0.05771417 -0.05526912 0.00783089
v 0.05768299 -0.05526912 0.00681140
v 0.05755587 -0.05527093 0.00273892
v 0.05787545 -0.05494946 0.00854311
v 0.05788377 -0.05438526 0.00316033
v 0.05787723 -0.05436506 0.00273892
v 0.05779823 -0.05462254 0.00273892
v 0.05780179 -0.05470932 0.00375512
f 6 13 14
f 31 25 45
f 15 7 6
f 15 6 14
f 14 32 15
f 3 4 1
f 1 2 3
f 45 25 44
f 34 35 15
f 34 15 32
f 32 35 34
f 76 75 64
f 39 56 40
f 51 52 33
f 33 50 51
f 51 50 64
f 64 52 51
f 70 66 65
f 64 70 65
f 71 70 64
f 56 70 71
f 64 75 71
f 75 72 71
f 53 57 69
f 69 57 54
f 55 66 70
f 55 70 56
f 55 67 66
f 57 67 55
f 54 37 36
f 17 37 18
f 17 8 16
f 18 8 17
f 16 36 17
f 17 36 37
f 18 37 38
f 56 39 38
f 38 39 18
f 38 37 54
f 38 55 56
f 54 57 38
f 57 55 38
f 1 4 5
f 4 12 5
f 18 39 19
f 19 8 18
f 19 39 40
f 48 44 25
f 27 28 11
f 11 28 29
f 29 12 11
f 11 12 4
f 68 57 53
f 68 67 57
f 64 65 49
f 49 65 66
f 66 67 49
f 67 68 49
f 49 68 53
f 71 59 58
f 40 56 58
f 56 71 58
f 80 79 77
f 77 79 78
f 3 8 9
f 8 19 9
f 44 48 47
f 47 48 25
f 26 11 25
f 27 11 26
f 24 43 25
f 25 11 24
f 78 79 62
f 63 52 64
f 64 49 63
f 74 72 75
f 74 73 72
f 41 58 59
f 41 19 40
f 40 58 41
f 81 76 80
f 80 77 81
f 81 77 76
f 20 9 19
f 4 3 10
f 3 9 10
f 9 20 10
f 10 11 4
f 44 47 42
f 19 41 22
f 60 77 78
f 76 77 60
f 60 41 59
f 60 42 41
f 75 76 60
f 60 74 75
f 73 74 60
f 72 73 60
f 60 71 72
f 60 59 71
f 78 62 61
f 61 60 78
f 42 60 61
f 61 62 44
f 44 42 61
f 43 42 46
f 46 42 47
f 25 43 46
f 46 47 25
f 43 24 30
f 30 42 43
f 30 24 11
f 21 20 19
f 19 22 21
f 21 10 20
f 21 22 10
f 23 22 41
f 23 30 11
f 11 10 23
f 10 22 23
f 41 42 23
f 42 30 23
f 1 6 7
f 7 2 1
f 2 7 36
f 16 8 36
f 7 15 36
f 36 35 53
f 15 35 36
f 53 69 36
f 36 3 2
f 36 8 3
f 36 69 54
f 53 35 49
f 49 35 32
f 13 6 26
f 26 6 1
f 26 31 13
f 25 31 26
f 29 28 26
f 26 12 29
f 1 5 26
f 26 5 12
f 26 28 27
f 62 33 14
f 14 13 62
f 13 31 62
f 45 44 62
f 62 31 45
f 64 50 62
f 62 76 64
f 62 50 33
f 80 76 62
f 62 79 80
f 14 33 63
f 63 32 14
f 33 52 63
f 63 49 32
