# https://github.com/mikedh/trimesh
v 0.04933403 0.05712151 0.00976688
v 0.04933403 0.05696527 0.01459912
v 0.04933403 0.05814449 0.00976688
v 0.05578096 0.05619149 0.00976688
v 0.04933403 0.05824178 0.01459912
v 0.05578096 0.05613626 0.01459912
v 0.04933403 0.05814697 0.00986385
v 0.04989820 0.05813027 0.00976688
v 0.05578096 0.05736968 0.00976688
v 0.04933403 0.05823580 0.01394543
v 0.04989820 0.05822756 0.01459912
v 0.04989820 0.05822179 0.01394543
v 0.05578096 0.05749253 0.01459912
v 0.04933403 0.05817253 0.01088839
v 0.04989820 0.05815830 0.01088839
v 0.05049266 0.05811378 0.00976688
v 0.05578096 0.05737174 0.00982601
v 0.05566610 0.05742121 0.00976688
v 0.04933403 0.05823498 0.01389292
v 0.05049266 0.05821128 0.01459912
v 0.04989820 0.05820488 0.01292610
v 0.04933403 0.05821911 0.01292610
v 0.05049266 0.05820550 0.01394543
v 0.05578096 0.05748676 0.01394543
v 0.05543955 0.05761208 0.01459912
v 0.04933403 0.05819561 0.01185521
v 0.04989820 0.05818262 0.01190724
v 0.05049266 0.05816634 0.01190724
v 0.05049266 0.05814181 0.01088839
v 0.05108712 0.05812058 0.01088839
v 0.05108712 0.05809235 0.00976688
v 0.05578096 0.05738452 0.01020584
v 0.05528683 0.05754798 0.00976688
v 0.05524834 0.05759518 0.01088839
v 0.05524834 0.05762527 0.01190724
v 0.05570775 0.05743935 0.01088839
v 0.05578096 0.05740699 0.01088839
v 0.05108712 0.05819066 0.01459912
v 0.04933403 0.05821808 0.01287359
v 0.05049266 0.05818860 0.01292610
v 0.05108712 0.05818468 0.01394543
v 0.05578096 0.05747089 0.01308692
v 0.05577717 0.05746924 0.01292610
v 0.05524834 0.05767206 0.01394543
v 0.05524834 0.05767845 0.01459912
v 0.04933403 0.05819685 0.01190724
v 0.05108712 0.05816778 0.01292610
v 0.05108712 0.05814511 0.01190724
v 0.05168221 0.05811461 0.01190724
v 0.05168221 0.05808966 0.01088839
v 0.05168221 0.05806390 0.00986906
v 0.05168221 0.05806122 0.00976688
v 0.05524834 0.05756055 0.00976688
v 0.05524834 0.05756385 0.00986906
v 0.05465388 0.05771926 0.00976688
v 0.05465388 0.05772236 0.00986906
v 0.05524834 0.05765227 0.01292610
v 0.05574435 0.05745522 0.01190724
v 0.05465388 0.05775183 0.01088839
v 0.05465388 0.05778028 0.01190724
v 0.05578096 0.05741400 0.01111070
v 0.05130042 0.05817974 0.01459912
v 0.05168221 0.05815418 0.01394543
v 0.05578096 0.05746800 0.01293793
v 0.05465388 0.05780584 0.01292610
v 0.05465388 0.05782418 0.01394543
v 0.05486718 0.05777595 0.01459912
v 0.05168221 0.05813728 0.01292610
v 0.05227667 0.05807915 0.01190724
v 0.05227667 0.05805421 0.01088839
v 0.05227667 0.05802824 0.00986906
v 0.05174153 0.05805772 0.00976688
v 0.05405942 0.05783325 0.00976688
v 0.05578096 0.05744224 0.01202029
v 0.05578096 0.05743894 0.01190724
v 0.05405942 0.05786272 0.01088839
v 0.05405942 0.05788931 0.01190724
v 0.05168221 0.05816016 0.01459912
v 0.05189488 0.05814758 0.01459912
v 0.05227667 0.05811893 0.01394543
v 0.05400704 0.05792415 0.01298475
v 0.05410359 0.05792909 0.01394543
v 0.05412757 0.05793219 0.01459912
v 0.05432510 0.05789447 0.01459912
v 0.05465388 0.05783036 0.01459912
v 0.05227667 0.05810182 0.01292610
v 0.05287050 0.05805730 0.01292610
v 0.05287050 0.05803421 0.01190724
v 0.05287050 0.05800866 0.01088839
v 0.05231706 0.05802267 0.00976688
v 0.05227667 0.05802556 0.00976688
v 0.05351292 0.05790519 0.00976688
v 0.05318035 0.05796414 0.01031747
v 0.05324093 0.05797176 0.01088839
v 0.05334443 0.05798475 0.01190724
v 0.05227667 0.05812491 0.01459912
v 0.05287050 0.05807482 0.01394543
v 0.05377418 0.05796414 0.01336410
v 0.05380636 0.05796805 0.01394543
v 0.05402093 0.05794620 0.01459912
v 0.05346496 0.05801093 0.01394543
v 0.05349588 0.05799073 0.01298475
v 0.05285283 0.05798104 0.00976688
v 0.05288375 0.05798269 0.00993433
v 0.05342078 0.05791714 0.00976688
v 0.05323084 0.05794002 0.00976688
v 0.05300050 0.05796599 0.00976688
v 0.05287050 0.05808080 0.01459912
v 0.05346496 0.05801711 0.01459912
v 0.05383034 0.05797114 0.01459912
f 1 4 2
f 6 2 4
f 60 59 73
f 44 24 43
f 5 12 10
f 48 28 47
f 47 49 48
f 47 28 40
f 69 86 87
f 13 24 25
f 25 44 45
f 24 44 25
f 42 64 43
f 43 24 42
f 76 95 77
f 76 60 73
f 77 60 76
f 73 93 94
f 94 76 73
f 95 76 94
f 43 64 58
f 56 55 73
f 73 59 56
f 45 44 66
f 66 82 83
f 30 48 49
f 31 16 30
f 39 22 21
f 12 40 21
f 21 22 12
f 31 51 52
f 50 30 49
f 50 51 31
f 31 30 50
f 92 93 73
f 92 105 93
f 106 107 93
f 93 105 106
f 88 87 95
f 95 94 88
f 69 87 88
f 88 94 93
f 93 89 88
f 18 37 32
f 75 58 74
f 74 58 64
f 61 58 75
f 36 37 18
f 36 61 37
f 58 61 36
f 65 66 44
f 82 66 65
f 65 60 77
f 19 10 12
f 12 22 19
f 11 12 5
f 11 20 12
f 23 40 12
f 12 20 23
f 23 20 38
f 47 40 23
f 47 63 68
f 68 49 47
f 28 15 27
f 27 46 39
f 39 21 27
f 29 15 28
f 29 30 16
f 93 107 103
f 81 98 82
f 81 65 77
f 82 65 81
f 77 95 81
f 95 98 81
f 95 87 102
f 102 98 95
f 72 52 51
f 70 88 89
f 69 88 70
f 70 49 69
f 70 50 49
f 51 50 70
f 9 18 17
f 18 32 17
f 35 36 18
f 58 36 35
f 59 60 35
f 35 56 59
f 45 66 67
f 66 85 67
f 84 66 83
f 84 85 66
f 47 23 41
f 41 23 38
f 41 63 47
f 78 79 63
f 63 79 80
f 86 68 80
f 80 68 63
f 46 27 26
f 15 14 26
f 26 27 15
f 7 8 3
f 7 14 15
f 15 8 7
f 89 103 90
f 90 70 89
f 104 89 93
f 93 103 104
f 104 103 89
f 98 102 101
f 101 102 87
f 99 101 109
f 82 98 99
f 98 101 99
f 34 35 18
f 56 35 34
f 55 56 34
f 43 58 57
f 58 35 57
f 57 44 43
f 57 65 44
f 60 65 57
f 57 35 60
f 62 78 63
f 63 41 62
f 62 41 38
f 96 80 79
f 71 90 91
f 70 90 71
f 51 70 71
f 91 72 71
f 71 72 51
f 108 109 97
f 109 101 97
f 97 101 87
f 97 87 86
f 86 80 97
f 110 99 109
f 33 34 18
f 99 110 100
f 83 82 100
f 82 99 100
f 54 33 53
f 34 33 54
f 53 55 54
f 55 34 54
f 69 49 68
f 68 86 69
f 27 21 40
f 27 40 28
f 16 8 29
f 29 8 15
f 28 48 29
f 48 30 29
f 4 9 17
f 17 6 4
f 64 42 17
f 17 13 6
f 17 61 75
f 17 24 13
f 17 42 24
f 75 74 17
f 17 32 37
f 17 74 64
f 37 61 17
f 7 2 5
f 1 2 7
f 7 3 1
f 5 10 7
f 10 19 7
f 39 46 7
f 7 22 39
f 7 19 22
f 46 26 7
f 7 26 14
f 97 96 108
f 80 96 97
f 1 3 33
f 33 4 1
f 33 9 4
f 73 55 33
f 33 18 9
f 33 72 91
f 107 106 33
f 3 8 33
f 91 90 33
f 33 55 53
f 33 16 31
f 33 92 73
f 31 52 33
f 105 92 33
f 33 106 105
f 33 8 16
f 33 103 107
f 52 72 33
f 33 90 103
f 5 2 100
f 2 6 100
f 6 13 100
f 100 25 45
f 100 109 108
f 100 62 38
f 100 11 5
f 13 25 100
f 38 20 100
f 45 67 100
f 20 11 100
f 100 84 83
f 108 96 100
f 100 67 85
f 85 84 100
f 79 78 100
f 78 62 100
f 100 96 79
f 100 110 109
