# https://github.com/mikedh/trimesh
v 0.05578004 0.05257445 0.01703004
v 0.05578004 0.04800712 0.01703004
v 0.05578004 0.05257445 0.01497315
v 0.04930372 0.05257445 0.01703004
v 0.05578004 0.04800712 0.01497315
v 0.05346424 0.04800712 0.01703004
v 0.04904426 0.05257445 0.01497315
v 0.04870936 0.05257445 0.01702582
v 0.04930372 0.05231425 0.01703004
v 0.05346424 0.04800712 0.01497315
v 0.05286988 0.04815331 0.01702883
v 0.05286988 0.04800712 0.01702460
v 0.04844991 0.05257445 0.01497758
v 0.05301617 0.04800712 0.01497436
v 0.04811500 0.05257445 0.01698614
v 0.04870936 0.05231425 0.01702259
v 0.04811500 0.05231425 0.01695252
v 0.05227552 0.04815331 0.01694024
v 0.05227276 0.04800712 0.01688909
v 0.04785555 0.05257445 0.01502208
v 0.05286988 0.04800712 0.01497879
v 0.04752157 0.05257445 0.01687057
v 0.04692629 0.05257445 0.01673585
v 0.04649937 0.05257445 0.01658041
v 0.05186701 0.04800712 0.01663155
v 0.04725474 0.05257445 0.01515719
v 0.05242181 0.04800712 0.01504423
v 0.04638161 0.05257445 0.01598398
v 0.04650490 0.05256506 0.01657497
v 0.05176305 0.04800712 0.01598398
v 0.04678735 0.05257445 0.01529150
v 0.05227276 0.04800712 0.01510907
v 0.04651134 0.05257445 0.01539963
v 0.04649754 0.05257445 0.01542943
v 0.05178145 0.04800712 0.01575503
v 0.05194154 0.04800712 0.01529513
v 0.04651410 0.05256953 0.01540225
v 0.05187438 0.04800712 0.01535010
f 35 30 28
f 21 20 13
f 15 12 16
f 19 12 18
f 38 35 34
f 34 35 28
f 27 20 21
f 19 24 25
f 28 30 25
f 14 13 7
f 7 10 14
f 21 13 14
f 15 16 8
f 23 24 19
f 19 18 23
f 37 34 33
f 37 33 38
f 38 34 37
f 33 27 32
f 20 27 26
f 29 24 28
f 28 25 29
f 29 25 24
f 12 6 11
f 11 16 12
f 11 8 16
f 17 23 18
f 17 12 15
f 17 18 12
f 38 33 36
f 33 32 36
f 31 27 33
f 31 26 27
f 4 8 9
f 8 11 9
f 9 11 6
f 22 17 15
f 23 17 22
f 5 3 1
f 1 2 5
f 3 5 10
f 10 7 3
f 36 5 2
f 2 6 36
f 30 35 36
f 36 25 30
f 36 27 21
f 36 12 19
f 36 35 38
f 36 10 5
f 36 6 12
f 21 14 36
f 19 25 36
f 36 14 10
f 36 32 27
f 9 2 1
f 1 4 9
f 9 6 2
f 1 3 22
f 22 13 20
f 3 7 22
f 22 4 1
f 22 34 28
f 28 24 22
f 22 31 33
f 15 8 22
f 7 13 22
f 33 34 22
f 22 8 4
f 24 23 22
f 20 26 22
f 26 31 22
