# https://github.com/mikedh/trimesh
v -0.05669623 -0.05692279 0.01700300
v -0.05669623 -0.05690883 0.01719466
v -0.05669623 -0.05691198 0.01496470
v -0.05640277 -0.05712806 0.01700300
v -0.05664106 -0.05694755 0.01719466
v -0.05669623 -0.05409448 0.01719466
v -0.05669623 -0.05690839 0.01462541
v -0.05653303 -0.05702182 0.01462541
v -0.05640277 -0.05711230 0.01462541
v -0.05640277 -0.05711546 0.01496470
v -0.05607305 -0.05733513 0.01700300
v -0.05640277 -0.05711411 0.01719466
v -0.05669623 -0.05386310 0.01719190
v -0.05408730 -0.05633129 0.01719466
v -0.05669623 -0.05503710 0.01462541
v -0.05617317 -0.05725410 0.01462541
v -0.05605849 -0.05732883 0.01496470
v -0.05577576 -0.05746612 0.01700300
v -0.05576401 -0.05746117 0.01719466
v -0.05606130 -0.05732748 0.01719466
v -0.05669623 -0.05331932 0.01717831
v -0.05408730 -0.05790772 0.01719466
v -0.05408730 -0.05331932 0.01703017
v -0.05669623 -0.05331932 0.01482410
v -0.05408730 -0.05331932 0.01497326
v -0.05411897 -0.05656087 0.01462541
v -0.05605466 -0.05732703 0.01462541
v -0.05595556 -0.05737069 0.01462541
v -0.05576120 -0.05745937 0.01496470
v -0.05521413 -0.05766284 0.01700300
v -0.05521413 -0.05765384 0.01719466
v -0.05461955 -0.05780554 0.01719466
v -0.05410441 -0.05791493 0.01700300
v -0.05408730 -0.05791763 0.01700300
v -0.05408730 -0.05658653 0.01462541
v -0.05575737 -0.05745757 0.01462541
v -0.05539214 -0.05758452 0.01462541
v -0.05521413 -0.05764934 0.01496470
v -0.05461955 -0.05780194 0.01496470
v -0.05461955 -0.05780824 0.01598360
v -0.05461955 -0.05781454 0.01700300
v -0.05408730 -0.05791358 0.01640992
v -0.05408730 -0.05789737 0.01462541
v -0.05521413 -0.05764574 0.01462541
v -0.05461955 -0.05779834 0.01462541
v -0.05423901 -0.05786991 0.01462541
v -0.05408730 -0.05790187 0.01496470
v -0.05408730 -0.05790097 0.01489654
f 23 21 14
f 15 24 25
f 14 21 13
f 13 6 14
f 3 4 1
f 5 2 1
f 1 4 5
f 29 17 28
f 28 17 27
f 18 17 29
f 11 17 18
f 25 35 26
f 26 15 25
f 12 4 11
f 12 5 4
f 11 4 10
f 10 17 11
f 4 3 10
f 30 18 29
f 31 18 30
f 20 12 11
f 8 3 7
f 17 10 9
f 9 10 3
f 3 8 9
f 41 32 31
f 31 30 41
f 39 47 42
f 46 47 39
f 39 45 46
f 11 18 19
f 19 20 11
f 19 18 31
f 27 17 16
f 17 9 16
f 40 30 39
f 40 41 30
f 33 42 34
f 39 42 33
f 33 40 39
f 41 40 33
f 32 41 33
f 34 22 33
f 22 32 33
f 48 46 43
f 47 46 48
f 29 28 36
f 38 30 29
f 39 30 38
f 44 38 37
f 29 36 37
f 37 38 29
f 24 23 25
f 21 23 24
f 1 2 3
f 3 13 21
f 21 24 3
f 3 15 7
f 2 6 3
f 24 15 3
f 6 13 3
f 19 6 2
f 14 6 19
f 2 5 19
f 19 22 14
f 31 32 19
f 5 12 19
f 19 32 22
f 12 20 19
f 48 23 14
f 48 35 25
f 25 23 48
f 14 22 48
f 43 35 48
f 48 22 34
f 34 42 48
f 48 42 47
f 38 44 45
f 38 45 39
f 7 15 37
f 27 16 37
f 37 35 43
f 15 26 37
f 37 28 27
f 37 26 35
f 43 46 37
f 37 8 7
f 37 9 8
f 37 46 45
f 45 44 37
f 37 16 9
f 37 36 28
