# https://github.com/mikedh/trimesh
v -0.03202843 -0.05645850 0.00046806
v -0.03440500 -0.05701494 0.00083747
v -0.03678157 -0.05645850 0.00046905
v -0.03707146 -0.05617063 0.00047499
v -0.02876391 -0.05616010 0.00047400
v -0.04213016 -0.05729200 0.00171693
v -0.03856531 -0.05701494 0.00083846
v -0.02876391 -0.05729200 0.00171594
v -0.03856531 -0.05645850 0.00047004
v -0.03916075 -0.05617063 0.00047598
v -0.04094449 -0.05617063 0.00047796
v -0.04153732 -0.05617063 0.00047895
v -0.04182722 -0.05617063 0.00047995
v -0.04213016 -0.05617063 0.00220123
v -0.02876391 -0.05616010 0.00220618
v -0.04213016 -0.05732482 0.00273505
v -0.04213016 -0.05701494 0.00084242
v -0.04094449 -0.05701494 0.00084044
v -0.04034904 -0.05645850 0.00047202
v -0.04094449 -0.05645850 0.00047301
v -0.04213016 -0.05617266 0.00047995
v -0.04213016 -0.05617063 0.00222599
v -0.02876391 -0.05650765 0.01058581
v -0.04213016 -0.05734493 0.00339068
v -0.04213016 -0.05645850 0.00047697
v -0.04213016 -0.05648834 0.00979351
v -0.04153732 -0.05648713 0.00979351
v -0.02876391 -0.05753140 0.01058581
v -0.04213016 -0.05735965 0.00389974
v -0.04213016 -0.05751912 0.00979351
v -0.02875600 -0.05616010 0.00047400
v -0.02875600 -0.05701494 0.00083747
v -0.02875600 -0.05729200 0.00171594
v -0.02875600 -0.05732482 0.00273505
v -0.02875600 -0.05650765 0.01058581
v -0.02875600 -0.05753141 0.01058581
v -0.02875600 -0.05734493 0.00339068
v -0.02875600 -0.05735227 0.00364456
v -0.02875600 -0.05645850 0.00046806
v -0.02875600 -0.05616035 0.00221221
v -0.02875600 -0.05616032 0.00221137
v -0.02875600 -0.05616010 0.00220618
v -0.02875600 -0.05735877 0.00387094
v -0.02875600 -0.05735959 0.00390023
v -0.02875600 -0.05743911 0.00683960
v -0.02875600 -0.05751817 0.00977216
v -0.02875600 -0.05752934 0.01019067
f 15 22 23
f 23 35 15
f 14 13 21
f 8 16 6
f 22 26 27
f 23 22 27
f 27 26 23
f 40 15 35
f 13 14 5
f 21 13 12
f 13 5 12
f 12 5 11
f 44 30 29
f 45 30 44
f 41 42 15
f 15 40 41
f 6 17 18
f 18 7 6
f 6 7 2
f 2 8 6
f 7 3 2
f 46 47 30
f 46 30 45
f 29 38 43
f 43 44 29
f 1 4 5
f 3 4 1
f 1 2 3
f 11 5 10
f 5 4 10
f 10 4 3
f 9 10 3
f 18 19 9
f 9 3 7
f 7 18 9
f 20 25 21
f 21 12 20
f 17 25 20
f 11 19 20
f 20 12 11
f 20 18 17
f 20 19 18
f 5 42 31
f 15 42 5
f 5 14 22
f 22 15 5
f 36 35 28
f 28 35 23
f 28 47 36
f 30 47 28
f 26 30 28
f 23 26 28
f 34 8 33
f 16 8 34
f 2 32 33
f 33 8 2
f 37 40 35
f 31 42 37
f 37 35 36
f 37 39 31
f 33 32 37
f 45 44 37
f 36 47 37
f 37 34 33
f 32 39 37
f 42 41 37
f 37 46 45
f 37 43 38
f 37 41 40
f 47 46 37
f 44 43 37
f 37 24 16
f 16 34 37
f 29 24 37
f 37 38 29
f 1 5 31
f 31 39 1
f 1 39 32
f 32 2 1
f 25 26 22
f 22 14 25
f 6 16 25
f 29 30 25
f 25 17 6
f 25 14 21
f 25 24 29
f 25 30 26
f 16 24 25
f 11 10 9
f 9 19 11
