# https://github.com/mikedh/trimesh
v 0.05511613 0.05622587 0.00250636
v 0.05405730 0.05223364 0.00185098
v 0.05465241 0.05223364 0.00185071
v 0.05511613 0.05223364 0.00185042
v 0.05511613 0.05622587 -0.00034634
v 0.02879744 0.05622587 0.00213022
v 0.02879744 0.05223364 0.00185098
v 0.05511613 0.05223364 0.00049193
v 0.05473485 0.05223364 0.00049166
v 0.02879744 0.05223364 0.00049166
v 0.02879744 0.05622587 0.00047294
f 7 1 6
f 7 2 1
f 5 10 11
f 1 2 3
f 3 4 1
f 5 8 9
f 9 10 5
f 1 5 11
f 6 1 11
f 10 7 11
f 11 7 6
f 8 5 1
f 1 4 8
f 9 7 10
f 2 7 9
f 9 3 2
f 4 3 9
f 9 8 4
