# https://github.com/mikedh/trimesh
v 0.05810936 -0.05450620 0.01671325
v 0.05807017 -0.05467483 0.01496504
v 0.05810908 -0.05450620 0.01569484
v 0.05810908 -0.05450620 0.01700283
v 0.05807074 -0.05467483 0.01700283
v 0.05793982 -0.05511837 0.01700283
v 0.05793953 -0.05511585 0.01496504
v 0.05793726 -0.05510946 0.01395005
v 0.05806506 -0.05467691 0.01395005
v 0.05810425 -0.05450694 0.01395005
v 0.05810766 -0.05450620 0.01467546
v 0.05810880 -0.05450620 0.01496504
v 0.05805512 -0.05450620 0.01802172
v 0.05801593 -0.05467483 0.01802172
v 0.05791142 -0.05504697 0.01802172
v 0.05781827 -0.05541540 0.01700283
v 0.05781656 -0.05541303 0.01496504
v 0.05781230 -0.05540857 0.01395005
v 0.05701229 -0.05450620 0.01395005
v 0.05798753 -0.05450620 0.01846145
v 0.05788273 -0.05497409 0.01853410
v 0.05778901 -0.05534415 0.01802172
v 0.05752717 -0.05586385 0.01802172
v 0.05759050 -0.05586385 0.01700283
v 0.05758482 -0.05586385 0.01496504
v 0.05757602 -0.05586548 0.01395005
v 0.05700377 -0.05450620 0.01395005
v 0.05794152 -0.05450620 0.01867937
v 0.05792136 -0.05467483 0.01863550
v 0.05732809 -0.05602253 0.01860917
v 0.05739937 -0.05602253 0.01829424
v 0.05759504 -0.05521115 0.01879832
v 0.05737495 -0.05586385 0.01869790
v 0.05743260 -0.05602253 0.01802172
v 0.05746697 -0.05602253 0.01747376
v 0.05749508 -0.05602253 0.01700283
v 0.05748997 -0.05602253 0.01538527
v 0.05748855 -0.05602253 0.01496504
v 0.05748400 -0.05602253 0.01436882
v 0.05748060 -0.05602253 0.01395005
v 0.05607454 -0.05602164 0.01395005
v 0.05520835 -0.05450649 0.01497333
v 0.05520835 -0.05450620 0.01499039
v 0.05770013 -0.05450620 0.01888510
v 0.05724630 -0.05602253 0.01869497
v 0.05758454 -0.05467483 0.01892313
v 0.05699014 -0.05586385 0.01892557
v 0.05608220 -0.05602253 0.01395005
v 0.05520835 -0.05602253 0.01485632
v 0.05520835 -0.05450620 0.01703013
v 0.05758454 -0.05450620 0.01893044
v 0.05697565 -0.05602253 0.01885487
v 0.05683138 -0.05602253 0.01892410
v 0.05520835 -0.05602253 0.01712763
v 0.05631480 -0.05602253 0.01875640
v 0.05717132 -0.05450620 0.01878272
v 0.05727271 -0.05450620 0.01885537
f 41 49 42
f 54 55 50
f 9 2 8
f 10 2 9
f 8 2 7
f 49 41 48
f 42 43 27
f 27 41 42
f 6 15 16
f 16 7 6
f 6 7 2
f 56 55 57
f 56 50 55
f 2 12 3
f 11 2 10
f 11 12 2
f 10 19 11
f 17 18 8
f 8 7 17
f 17 7 16
f 17 25 18
f 18 25 26
f 44 51 46
f 44 32 28
f 46 32 44
f 53 51 57
f 57 55 53
f 5 6 2
f 15 6 5
f 5 3 1
f 2 3 5
f 16 23 24
f 36 25 24
f 24 17 16
f 25 17 24
f 37 25 36
f 37 38 25
f 40 26 39
f 25 38 39
f 39 26 25
f 30 21 33
f 33 21 32
f 20 21 13
f 15 21 22
f 16 15 22
f 22 23 16
f 4 5 1
f 13 5 4
f 15 5 14
f 14 5 13
f 14 21 15
f 13 21 14
f 31 34 23
f 31 21 30
f 23 22 31
f 31 22 21
f 36 24 35
f 23 34 35
f 35 24 23
f 30 33 45
f 47 33 32
f 47 32 46
f 47 45 33
f 46 51 47
f 51 53 47
f 29 20 28
f 21 20 29
f 28 32 29
f 32 21 29
f 52 47 53
f 45 47 52
f 49 54 50
f 42 49 50
f 50 43 42
f 8 18 26
f 26 19 10
f 26 27 19
f 26 9 8
f 40 48 26
f 10 9 26
f 26 48 41
f 41 27 26
f 28 20 4
f 57 51 4
f 4 27 43
f 4 56 57
f 43 50 4
f 1 3 4
f 19 27 4
f 4 11 19
f 4 44 28
f 50 56 4
f 4 3 12
f 12 11 4
f 51 44 4
f 4 20 13
f 52 37 36
f 36 35 52
f 52 54 49
f 49 48 52
f 52 55 54
f 52 48 40
f 40 39 52
f 52 53 55
f 52 31 30
f 38 37 52
f 52 39 38
f 34 31 52
f 52 35 34
f 30 45 52
