# https://github.com/mikedh/trimesh
v -0.03802769 0.02976508 0.01497315
v -0.03443547 0.03154845 0.01497315
v -0.03802769 0.02976508 0.01703004
v -0.03802769 0.03035970 0.01497738
v -0.03797284 0.03035970 0.01497617
v -0.03737824 0.03035970 0.01497315
v -0.03443547 0.03154845 0.01703004
v -0.03500054 0.03154845 0.01497315
v -0.03443547 0.03214308 0.01497557
v -0.03802769 0.03030493 0.01702742
v -0.03737824 0.03035970 0.01703004
v -0.03802769 0.03100029 0.01521176
v -0.03737824 0.03095432 0.01503256
v -0.03443547 0.03273770 0.01504504
v -0.03500054 0.03214308 0.01500457
v -0.03618938 0.03095432 0.01497315
v -0.03443547 0.03211325 0.01702944
v -0.03500054 0.03154845 0.01703004
v -0.03797284 0.03035970 0.01702723
v -0.03802769 0.03035970 0.01702601
v -0.03618938 0.03095432 0.01703004
v -0.03802769 0.03101300 0.01521680
v -0.03443547 0.03328097 0.01529795
v -0.03443547 0.03214308 0.01702783
v -0.03443547 0.03270787 0.01696963
v -0.03737824 0.03095432 0.01697044
v -0.03802769 0.03089955 0.01686010
v -0.03802769 0.03132841 0.01600371
v -0.03786735 0.03131276 0.01537386
v -0.03443547 0.03347853 0.01598398
v -0.03443547 0.03273770 0.01695675
v -0.03802769 0.03095530 0.01682929
v -0.03443547 0.03326288 0.01670686
v -0.03802769 0.03132841 0.01601720
v -0.03443547 0.03347168 0.01607197
v -0.03802769 0.03129271 0.01656389
v -0.03802769 0.03126728 0.01659088
v -0.03443547 0.03328635 0.01668854
v -0.03802769 0.02863350 0.01497315
v -0.03443547 0.02863350 0.01497315
v -0.03802769 0.02863350 0.01703004
v -0.03443547 0.02863350 0.01703004
f 30 23 29
f 29 28 30
f 28 29 22
f 23 14 22
f 22 29 23
f 8 9 2
f 30 28 34
f 34 36 30
f 30 36 35
f 14 9 15
f 15 4 14
f 9 4 15
f 13 22 14
f 14 4 13
f 38 35 36
f 27 20 26
f 22 13 12
f 12 13 4
f 1 4 5
f 5 6 1
f 5 4 9
f 9 6 5
f 9 8 16
f 16 6 9
f 37 38 36
f 32 27 33
f 33 37 32
f 38 37 33
f 26 20 25
f 25 27 26
f 3 11 10
f 10 11 17
f 20 17 24
f 24 25 20
f 31 33 27
f 27 25 31
f 20 10 19
f 19 17 20
f 19 10 17
f 18 7 17
f 17 11 21
f 21 18 17
f 40 42 41
f 41 39 40
f 2 40 16
f 16 39 1
f 40 39 16
f 16 8 2
f 1 6 16
f 10 34 28
f 10 4 1
f 10 41 3
f 1 39 10
f 22 12 10
f 28 22 10
f 39 41 10
f 10 27 32
f 36 34 10
f 32 37 10
f 20 27 10
f 10 12 4
f 10 37 36
f 31 40 2
f 2 9 31
f 31 23 30
f 31 42 40
f 31 14 23
f 31 9 14
f 30 35 31
f 35 38 31
f 31 7 42
f 38 33 31
f 31 24 17
f 17 7 31
f 25 24 31
f 3 41 21
f 21 41 42
f 21 11 3
f 42 7 21
f 7 18 21
