# https://github.com/mikedh/trimesh
v -0.05767792 -0.05170074 0.01890100
v -0.05812424 -0.05170074 0.01890100
v -0.05793392 -0.05331887 0.01885275
v -0.05765154 -0.05289076 0.01885324
v -0.05757379 -0.05331887 0.01882764
v -0.05773884 -0.02860907 0.01885718
v -0.05780873 -0.02860907 0.01886063
v -0.05818627 -0.02860907 0.01887786
v -0.05818627 -0.04635049 0.01887786
v -0.05818627 -0.04694550 0.01887687
v -0.05818627 -0.04754051 0.01887195
v -0.05813799 -0.05110573 0.01889164
v -0.05848943 -0.04694550 0.01855095
v -0.05848746 -0.04754051 0.01854455
v -0.05848522 -0.04799282 0.01853668
v -0.05848297 -0.04838949 0.01852781
v -0.05847904 -0.04872811 0.01850861
v -0.05846922 -0.04932312 0.01845495
v -0.05804929 -0.05331887 0.01885275
v -0.05574644 -0.05331887 0.01703015
v -0.05574644 -0.02860907 0.01703015
v -0.05823399 -0.02860907 0.01882715
v -0.05848999 -0.04635049 0.01855243
v -0.05855230 -0.04694550 0.01802170
v -0.05855315 -0.04635049 0.01802170
v -0.05854865 -0.04754051 0.01802170
v -0.05853097 -0.04816697 0.01812164
v -0.05853855 -0.04872811 0.01799905
v -0.05853237 -0.04932312 0.01794539
v -0.05852395 -0.04991813 0.01787252
v -0.05851553 -0.05051314 0.01779818
v -0.05844760 -0.05051314 0.01830774
v -0.05836901 -0.05229575 0.01802170
v -0.05827189 -0.05331887 0.01802170
v -0.05843525 -0.05110573 0.01818958
v -0.05574644 -0.05331887 0.01497321
v -0.05574644 -0.02860907 0.01496681
v -0.05848999 -0.02860907 0.01855243
v -0.05860985 -0.04694550 0.01700258
v -0.05861097 -0.04635049 0.01700258
v -0.05855315 -0.02860907 0.01802170
v -0.05856241 -0.02860907 0.01786268
v -0.05860619 -0.04754051 0.01700258
v -0.05860058 -0.04813310 0.01700258
v -0.05859385 -0.04872811 0.01700258
v -0.05854837 -0.05051314 0.01700258
v -0.05850234 -0.05110573 0.01768003
v -0.05858150 -0.04932312 0.01700258
v -0.05842935 -0.05170557 0.01795474
v -0.05848999 -0.05150966 0.01757024
v -0.05838866 -0.05289076 0.01700258
v -0.05833504 -0.05331887 0.01700258
v -0.05724593 -0.05331887 0.01387187
v -0.05658348 -0.04159526 0.01387187
v -0.05657506 -0.04100025 0.01387187
v -0.05657394 -0.04040766 0.01387187
v -0.05574644 -0.04106314 0.01496582
v -0.05660229 -0.02860907 0.01387187
v -0.05574644 -0.03921764 0.01496582
v -0.05861125 -0.04694550 0.01598396
v -0.05861237 -0.04635049 0.01598396
v -0.05861097 -0.02860907 0.01700258
v -0.05861125 -0.02860907 0.01684307
v -0.05860900 -0.04754051 0.01496484
v -0.05860339 -0.04813310 0.01496484
v -0.05859665 -0.04872811 0.01496484
v -0.05856774 -0.04991813 0.01496484
v -0.05855090 -0.05051314 0.01496484
v -0.05852311 -0.05110573 0.01598396
v -0.05852170 -0.05110573 0.01700258
v -0.05858430 -0.04932312 0.01496484
v -0.05849363 -0.05156770 0.01700258
v -0.05847399 -0.05186521 0.01700258
v -0.05844480 -0.05229575 0.01700258
v -0.05839034 -0.05289076 0.01598396
v -0.05844788 -0.05229575 0.01598396
v -0.05833588 -0.05331887 0.01598396
v -0.05833195 -0.05331887 0.01387187
v -0.05804901 -0.02860907 0.01387187
v -0.05861265 -0.04694550 0.01496484
v -0.05861350 -0.04635049 0.01496484
v -0.05861237 -0.02860907 0.01598396
v -0.05860704 -0.04754051 0.01394572
v -0.05860114 -0.04813310 0.01394572
v -0.05859441 -0.04872811 0.01394572
v -0.05856549 -0.04991813 0.01394572
v -0.05854837 -0.05051314 0.01394572
v -0.05852423 -0.05110573 0.01496484
v -0.05849419 -0.05157738 0.01598396
v -0.05858206 -0.04932312 0.01394572
v -0.05847567 -0.05187489 0.01598396
v -0.05839006 -0.05289076 0.01496484
v -0.05833645 -0.05331887 0.01525088
v -0.05849476 -0.05158464 0.01496484
v -0.05847511 -0.05188214 0.01496484
v -0.05844676 -0.05229575 0.01496484
v -0.05833280 -0.05331887 0.01394572
v -0.05837967 -0.05293429 0.01387187
v -0.05852367 -0.02860907 0.01437109
v -0.05860535 -0.04337787 0.01387187
v -0.05861069 -0.04694550 0.01394572
v -0.05861350 -0.04456789 0.01496484
v -0.05861125 -0.04635049 0.01394572
v -0.05860872 -0.02860907 0.01582444
v -0.05860985 -0.04401642 0.01387187
v -0.05861125 -0.04456789 0.01394572
v -0.05860619 -0.04754051 0.01387187
v -0.05860591 -0.04758163 0.01387187
v -0.05860058 -0.04813310 0.01387187
v -0.05859385 -0.04872811 0.01387187
v -0.05858150 -0.04932312 0.01387187
v -0.05856465 -0.04991813 0.01387187
v -0.05854753 -0.05051314 0.01387187
v -0.05852086 -0.05110573 0.01387187
v -0.05852142 -0.05110573 0.01394572
v -0.05849335 -0.05156529 0.01394572
v -0.05838585 -0.05289076 0.01394572
v -0.05833392 -0.05331887 0.01423176
v -0.05833616 -0.05331887 0.01496484
v -0.05847258 -0.05186038 0.01394572
v -0.05844170 -0.05229575 0.01394572
v -0.05838501 -0.05289076 0.01387187
v -0.05857812 -0.02860907 0.01487179
v -0.05860957 -0.04397288 0.01387187
v -0.05858823 -0.02860907 0.01496484
v -0.05861041 -0.04639403 0.01387187
v -0.05860985 -0.04694550 0.01387187
v -0.05861041 -0.04456789 0.01387187
v -0.05849307 -0.05155803 0.01387187
v -0.05847230 -0.05185553 0.01387187
v -0.05843693 -0.05233928 0.01387187
v -0.05844087 -0.05229575 0.01387187
f 21 5 20
f 6 5 21
f 1 5 6
f 3 5 4
f 4 1 3
f 5 1 4
f 7 1 6
f 8 1 7
f 2 1 8
f 100 99 79
f 34 51 52
f 38 23 22
f 9 2 8
f 8 22 9
f 9 22 23
f 36 53 54
f 32 19 18
f 18 19 2
f 31 45 48
f 31 46 47
f 48 46 31
f 32 18 31
f 2 9 10
f 10 9 23
f 35 19 32
f 47 49 35
f 35 31 47
f 32 31 35
f 56 57 36
f 58 37 56
f 123 99 100
f 100 125 123
f 75 92 93
f 93 77 75
f 75 77 52
f 75 52 51
f 119 92 118
f 93 92 119
f 117 92 96
f 29 18 17
f 17 2 16
f 17 18 2
f 30 29 45
f 45 31 30
f 30 18 29
f 30 31 18
f 2 10 11
f 33 35 49
f 34 19 33
f 19 35 33
f 36 54 55
f 55 56 36
f 59 56 37
f 57 56 59
f 101 126 127
f 101 83 64
f 114 87 113
f 68 46 67
f 67 46 48
f 48 71 67
f 82 104 105
f 105 104 125
f 103 101 81
f 103 126 101
f 63 61 40
f 40 62 63
f 63 82 61
f 42 62 40
f 25 41 42
f 40 25 42
f 24 25 40
f 45 29 28
f 28 17 16
f 29 17 28
f 118 92 97
f 92 117 97
f 121 117 96
f 76 74 73
f 96 92 76
f 92 75 76
f 76 75 51
f 51 74 76
f 73 74 50
f 50 49 47
f 47 46 50
f 46 70 50
f 50 33 49
f 50 74 51
f 50 51 34
f 34 33 50
f 2 11 12
f 129 116 114
f 130 116 129
f 68 87 88
f 109 83 108
f 81 101 80
f 101 64 80
f 80 61 81
f 124 125 100
f 124 105 125
f 23 25 13
f 25 24 13
f 2 12 13
f 13 12 11
f 13 10 23
f 13 11 10
f 26 24 39
f 39 43 26
f 39 24 40
f 26 43 44
f 44 28 26
f 45 28 44
f 16 26 27
f 27 28 16
f 26 28 27
f 78 97 98
f 98 97 117
f 117 122 98
f 120 116 130
f 130 121 120
f 96 116 120
f 120 121 96
f 132 121 130
f 73 50 72
f 72 50 70
f 72 76 73
f 114 116 115
f 116 88 115
f 115 87 114
f 115 88 87
f 94 88 116
f 107 108 83
f 111 112 86
f 86 90 111
f 86 87 68
f 68 67 86
f 65 64 83
f 105 128 106
f 82 105 106
f 106 102 82
f 2 13 14
f 14 24 26
f 14 13 24
f 64 43 60
f 60 80 64
f 43 39 60
f 61 80 60
f 131 122 117
f 117 121 131
f 121 132 131
f 69 72 70
f 69 70 46
f 69 46 68
f 68 88 69
f 95 116 96
f 95 94 116
f 96 76 95
f 76 94 95
f 76 72 91
f 91 94 76
f 88 94 89
f 89 69 88
f 72 69 89
f 89 91 72
f 94 91 89
f 84 83 109
f 84 65 83
f 15 26 16
f 15 14 26
f 16 2 15
f 2 14 15
f 3 1 19
f 1 2 19
f 41 23 38
f 41 25 23
f 20 36 59
f 59 37 21
f 59 21 20
f 36 57 59
f 42 37 58
f 6 21 42
f 42 7 6
f 125 104 42
f 58 79 42
f 21 37 42
f 8 7 42
f 42 79 99
f 38 22 42
f 42 22 8
f 99 123 42
f 42 123 125
f 42 41 38
f 42 63 62
f 42 104 82
f 82 63 42
f 97 36 20
f 20 5 97
f 97 5 3
f 97 119 118
f 3 19 97
f 97 53 36
f 97 19 34
f 34 52 97
f 97 78 53
f 52 77 97
f 97 77 93
f 93 119 97
f 66 71 48
f 48 45 66
f 61 82 102
f 81 61 102
f 107 83 101
f 101 127 107
f 86 112 113
f 86 113 87
f 86 67 71
f 71 90 86
f 85 110 111
f 111 90 85
f 71 66 85
f 85 90 71
f 65 43 64
f 65 44 43
f 65 66 45
f 45 44 65
f 106 128 126
f 126 103 106
f 81 102 106
f 106 103 81
f 60 39 40
f 40 61 60
f 53 78 131
f 58 56 131
f 131 79 58
f 126 128 131
f 100 79 131
f 131 129 114
f 131 54 53
f 114 113 131
f 131 112 111
f 131 110 109
f 131 55 54
f 56 55 131
f 131 127 126
f 109 108 131
f 111 110 131
f 131 124 100
f 78 98 131
f 130 129 131
f 131 132 130
f 113 112 131
f 105 124 131
f 131 128 105
f 131 98 122
f 131 107 127
f 108 107 131
f 84 85 66
f 66 65 84
f 110 85 84
f 109 110 84
