# https://github.com/mikedh/trimesh
v -0.02876217 -0.04537324 0.01703004
v -0.02876217 -0.04537324 0.01497335
v -0.02964907 -0.04537324 0.01703004
v -0.02964907 -0.04537324 0.01497335
v -0.02985973 -0.04537324 0.01702883
v -0.03024354 -0.04635159 0.01703004
v -0.02876217 -0.04985523 0.01703004
v -0.02876217 -0.04985523 0.01497335
v -0.03024354 -0.04635159 0.01497335
v -0.03024354 -0.04575756 0.01497698
v -0.03024354 -0.04537324 0.01498564
v -0.03024354 -0.04537324 0.01701776
v -0.03024354 -0.04575756 0.01702662
v -0.03143248 -0.04872947 0.01703004
v -0.03196346 -0.04985523 0.01703004
v -0.03143248 -0.04985523 0.01497335
v -0.03143248 -0.04872947 0.01497335
v -0.03202695 -0.04932394 0.01497738
v -0.03262142 -0.04985523 0.01499489
v -0.03324956 -0.04985523 0.01519765
v -0.03080242 -0.04537324 0.01523590
v -0.03048691 -0.04537324 0.01691749
v -0.03324282 -0.04985523 0.01680092
v -0.03262142 -0.04985523 0.01700830
v -0.03255793 -0.04985523 0.01702118
v -0.03202695 -0.04932394 0.01702622
v -0.03202695 -0.04985523 0.01702964
v -0.03202695 -0.04985523 0.01497396
v -0.03367088 -0.04985523 0.01598408
v -0.03305525 -0.04932394 0.01534402
v -0.03118430 -0.04590892 0.01539234
v -0.03105060 -0.04537324 0.01598408
v -0.03081204 -0.04537324 0.01675058
v -0.03325629 -0.04985523 0.01679266
v -0.03358623 -0.04985523 0.01632918
v -0.03118911 -0.04589401 0.01658508
v -0.03096114 -0.04537324 0.01630462
v -0.02875600 -0.04537406 0.01702739
v -0.02875600 -0.04985515 0.01497335
v -0.02875600 -0.04985518 0.01497462
v -0.02875600 -0.04985518 0.01702873
v -0.02875600 -0.04537546 0.01703004
v -0.02875600 -0.04537458 0.01703002
v -0.02875600 -0.04537417 0.01702929
v -0.02875600 -0.04537406 0.01497591
v -0.02875600 -0.04537407 0.01497512
v -0.02875600 -0.04537417 0.01497407
v -0.02875600 -0.04537418 0.01497405
v -0.02875600 -0.04537458 0.01497337
v -0.02875600 -0.04537463 0.01497337
v -0.02875600 -0.04537546 0.01497335
v -0.02875600 -0.04985516 0.01703000
v -0.02875600 -0.04985517 0.01702971
v -0.02875600 -0.04985518 0.01497426
v -0.02875600 -0.04985515 0.01703004
v -0.02875600 -0.04985514 0.01703004
v -0.02875600 -0.04985516 0.01497337
v -0.02875600 -0.04985516 0.01497339
v -0.02875600 -0.04985517 0.01497364
v -0.02875600 -0.04985517 0.01497367
f 18 28 19
f 50 51 2
f 2 49 50
f 35 32 29
f 7 41 53
f 28 18 17
f 30 20 29
f 30 21 20
f 19 20 11
f 20 21 11
f 11 18 19
f 2 45 46
f 46 47 2
f 48 49 2
f 2 47 48
f 38 1 44
f 25 12 24
f 24 12 23
f 33 35 34
f 34 23 33
f 52 55 7
f 7 53 52
f 28 17 16
f 40 8 54
f 31 30 29
f 21 30 31
f 32 21 31
f 29 32 31
f 1 42 43
f 43 44 1
f 36 33 37
f 35 33 36
f 36 37 32
f 32 35 36
f 22 23 12
f 22 33 23
f 58 59 8
f 8 57 58
f 8 59 60
f 60 54 8
f 10 17 18
f 11 4 10
f 18 11 10
f 6 3 5
f 27 26 25
f 17 10 9
f 9 10 4
f 14 27 15
f 14 6 5
f 26 27 13
f 25 26 13
f 13 14 5
f 27 14 13
f 13 5 12
f 12 25 13
f 38 45 1
f 1 45 2
f 40 41 8
f 8 41 7
f 22 1 2
f 2 4 22
f 32 37 22
f 22 21 32
f 37 33 22
f 22 11 21
f 12 5 22
f 22 3 1
f 22 4 11
f 5 3 22
f 60 56 55
f 60 50 49
f 60 45 38
f 39 51 60
f 60 41 40
f 60 46 45
f 49 48 60
f 55 52 60
f 51 50 60
f 38 44 60
f 60 53 41
f 60 43 42
f 47 46 60
f 60 48 47
f 42 56 60
f 60 52 53
f 44 43 60
f 27 8 7
f 29 20 27
f 7 15 27
f 27 35 29
f 19 28 27
f 27 20 19
f 27 25 24
f 24 23 27
f 34 35 27
f 28 16 27
f 27 23 34
f 27 16 8
f 9 51 39
f 2 51 9
f 39 8 9
f 8 16 9
f 9 16 17
f 9 4 2
f 14 15 7
f 14 56 42
f 14 42 1
f 7 56 14
f 1 3 14
f 3 6 14
