# https://github.com/mikedh/trimesh
v 0.05852033 0.05056232 0.01389381
v 0.05858173 0.05056232 0.01389017
v 0.05755211 0.05056232 0.01298125
v 0.05755807 0.05056145 0.01389381
v 0.05858193 0.05056057 0.01389381
v 0.05857199 0.05056232 0.01292631
v 0.05749370 0.05056232 0.00977254
v 0.05667291 0.04223925 0.01389381
v 0.05858332 0.05053076 0.01389381
v 0.05857338 0.05053076 0.01292631
v 0.05855749 0.05053076 0.01190710
v 0.05855610 0.05056232 0.01191074
v 0.05749370 0.05056232 0.00976688
v 0.05664489 0.04220857 0.00976688
v 0.05661608 0.04161419 0.01389381
v 0.05860021 0.04993638 0.01389381
v 0.05859047 0.04993638 0.01292631
v 0.05853921 0.05053076 0.01088830
v 0.05853702 0.05056232 0.01083134
v 0.05855471 0.05056232 0.01182429
v 0.05857458 0.04993638 0.01190710
v 0.05855649 0.04993638 0.01088830
v 0.05851616 0.05056232 0.00976688
v 0.05662701 0.04161419 0.00976688
v 0.05661588 0.04160717 0.01389381
v 0.05861610 0.04937181 0.01389381
v 0.05860716 0.04934200 0.01292631
v 0.05859146 0.04934200 0.01190710
v 0.05852312 0.05047729 0.00994867
v 0.05852212 0.05056232 0.01004118
v 0.05853563 0.04993638 0.00976688
v 0.05857358 0.04934200 0.01088830
v 0.05855471 0.04934200 0.00986909
v 0.05852172 0.05040803 0.00976688
v 0.05662701 0.04160717 0.00976688
v 0.05808242 0.04160717 0.01389381
v 0.05861690 0.04934200 0.01389381
v 0.05861948 0.04874675 0.01292631
v 0.05860378 0.04874675 0.01190710
v 0.05855252 0.04934638 0.00976688
v 0.05858590 0.04874675 0.01088830
v 0.05856524 0.04874675 0.00976688
v 0.05765842 0.04160717 0.00976688
v 0.05853821 0.04305893 0.00976688
v 0.05852729 0.04238039 0.01389381
v 0.05862842 0.04877743 0.01389381
v 0.05862901 0.04874675 0.01389381
v 0.05863577 0.04815237 0.01389381
v 0.05862604 0.04815237 0.01292631
v 0.05861054 0.04815237 0.01190710
v 0.05859265 0.04815237 0.01088830
v 0.05857199 0.04815237 0.00976688
v 0.05856822 0.04339733 0.00976688
v 0.05857060 0.04339733 0.00986909
v 0.05859226 0.04339733 0.01088830
v 0.05861213 0.04339733 0.01190710
v 0.05858371 0.04278278 0.01389381
v 0.05864153 0.04755799 0.01389381
v 0.05863180 0.04755799 0.01292631
v 0.05861630 0.04755799 0.01190710
v 0.05859861 0.04755799 0.01088830
v 0.05857974 0.04755799 0.00986909
v 0.05857775 0.04755799 0.00976688
v 0.05856981 0.04345694 0.00976688
v 0.05857994 0.04399171 0.00976688
v 0.05862921 0.04339733 0.01292631
v 0.05860080 0.04399171 0.01088830
v 0.05861889 0.04399171 0.01190710
v 0.05864014 0.04339733 0.01389381
v 0.05864491 0.04696361 0.01389381
v 0.05863537 0.04696361 0.01292631
v 0.05861968 0.04696361 0.01190710
v 0.05860199 0.04696361 0.01088830
v 0.05858133 0.04696361 0.00976688
v 0.05858153 0.04458609 0.00976688
v 0.05863478 0.04399171 0.01292631
v 0.05860219 0.04458609 0.01088830
v 0.05862008 0.04458609 0.01190710
v 0.05864471 0.04399171 0.01389381
v 0.05864551 0.04639903 0.01389381
v 0.05863597 0.04636923 0.01292631
v 0.05862027 0.04636923 0.01190710
v 0.05860259 0.04636923 0.01088830
v 0.05858371 0.04636923 0.00986909
v 0.05858173 0.04642884 0.00976688
v 0.05858173 0.04518134 0.00976688
v 0.05858371 0.04518134 0.00986909
v 0.05860259 0.04518134 0.01088830
v 0.05863577 0.04458609 0.01292631
v 0.05862027 0.04518134 0.01190710
v 0.05864551 0.04458609 0.01389381
v 0.05864571 0.04521115 0.01389381
v 0.05863597 0.04518134 0.01292631
v 0.05864571 0.04518134 0.01389381
f 3 4 1
f 44 45 36
f 4 3 7
f 7 8 4
f 13 14 7
f 7 14 8
f 57 45 44
f 44 36 43
f 8 14 15
f 56 57 44
f 67 56 65
f 1 5 2
f 24 35 25
f 25 15 24
f 24 15 14
f 69 57 66
f 57 56 66
f 66 76 69
f 69 76 79
f 48 58 59
f 55 56 44
f 55 65 56
f 67 65 75
f 62 52 61
f 61 52 51
f 52 41 51
f 42 41 52
f 32 41 42
f 6 2 5
f 5 9 6
f 89 91 79
f 89 79 76
f 76 78 89
f 92 81 80
f 58 70 71
f 59 58 71
f 71 60 59
f 70 80 71
f 71 80 81
f 50 51 41
f 50 60 61
f 61 51 50
f 68 78 76
f 76 66 68
f 68 56 67
f 68 66 56
f 47 48 38
f 38 27 37
f 44 53 54
f 54 55 44
f 67 75 77
f 77 68 67
f 78 68 77
f 17 9 16
f 17 27 28
f 28 21 17
f 32 21 28
f 27 38 28
f 28 41 32
f 12 6 11
f 17 21 11
f 11 21 32
f 91 89 94
f 74 62 61
f 84 85 74
f 49 48 59
f 49 38 48
f 50 38 49
f 59 60 49
f 60 50 49
f 46 38 37
f 47 38 46
f 64 54 53
f 65 55 64
f 55 54 64
f 78 77 88
f 88 77 75
f 75 87 88
f 40 31 33
f 33 42 40
f 32 42 33
f 30 34 23
f 17 16 26
f 37 27 26
f 26 27 17
f 41 28 39
f 39 28 38
f 39 50 41
f 39 38 50
f 12 11 20
f 20 11 19
f 17 11 10
f 10 11 6
f 10 9 17
f 10 6 9
f 19 11 18
f 18 30 19
f 93 94 89
f 60 71 72
f 73 72 82
f 73 74 61
f 61 60 73
f 60 72 73
f 52 62 63
f 62 74 63
f 86 87 75
f 78 88 90
f 31 18 22
f 32 33 22
f 22 33 31
f 22 11 32
f 22 18 11
f 34 30 29
f 30 18 29
f 29 31 34
f 29 18 31
f 83 73 82
f 84 74 83
f 74 73 83
f 43 36 25
f 25 35 43
f 25 36 26
f 26 46 37
f 1 4 26
f 26 5 1
f 4 8 26
f 26 15 25
f 26 36 45
f 45 57 26
f 26 57 69
f 58 48 26
f 8 15 26
f 26 94 92
f 69 79 26
f 92 80 26
f 79 91 26
f 26 70 58
f 26 48 47
f 26 9 5
f 26 80 70
f 26 16 9
f 91 94 26
f 47 46 26
f 20 3 1
f 20 23 13
f 13 7 20
f 20 7 3
f 1 2 20
f 2 6 20
f 20 6 12
f 20 30 23
f 19 30 20
f 92 94 93
f 93 81 92
f 81 82 72
f 72 71 81
f 13 23 86
f 44 43 86
f 86 14 13
f 35 24 86
f 86 43 35
f 86 53 44
f 86 42 52
f 86 24 14
f 65 64 86
f 23 34 86
f 86 75 65
f 86 31 40
f 40 42 86
f 52 63 86
f 34 31 86
f 86 74 85
f 86 64 53
f 86 63 74
f 86 85 84
f 84 87 86
f 81 93 90
f 90 82 81
f 90 93 89
f 90 89 78
f 82 90 83
f 83 90 88
f 83 87 84
f 83 88 87
