# https://github.com/mikedh/trimesh
v -0.05752468 -0.04457192 0.00979437
v -0.05736059 -0.04457192 0.00336488
v -0.05854717 -0.04457192 0.00979437
v -0.05736221 -0.05221032 0.00979437
v -0.05717254 -0.05221032 0.00336488
v -0.05841902 -0.04457192 0.00336488
v -0.05853075 -0.04457192 0.00891823
v -0.05854730 -0.04461156 0.00979437
v -0.05838173 -0.05221032 0.00979437
v -0.05824807 -0.05221032 0.00336488
v -0.05849184 -0.04457192 0.00690095
v -0.05841942 -0.04516266 0.00336488
v -0.05848162 -0.04516266 0.00638231
v -0.05851015 -0.04516266 0.00782996
v -0.05852967 -0.04516266 0.00884962
v -0.05854757 -0.04516266 0.00979437
v -0.05836329 -0.05221032 0.00884962
v -0.05841417 -0.05170185 0.00979437
v -0.05839735 -0.05170185 0.00884962
v -0.05837837 -0.05170185 0.00782996
v -0.05829949 -0.05221032 0.00579254
v -0.05828764 -0.05170185 0.00336488
v -0.05849198 -0.04516266 0.00689087
v -0.05841942 -0.04657892 0.00336488
v -0.05848162 -0.04635160 0.00638231
v -0.05851015 -0.04635160 0.00782996
v -0.05852967 -0.04635160 0.00884962
v -0.05854757 -0.04635160 0.00979437
v -0.05834229 -0.05221032 0.00782996
v -0.05835804 -0.05170185 0.00681094
v -0.05844917 -0.05114775 0.00979437
v -0.05837487 -0.05110737 0.00579254
v -0.05832103 -0.05221032 0.00681094
v -0.05832587 -0.05110737 0.00336488
v -0.05849198 -0.04635160 0.00689087
v -0.05841929 -0.04694682 0.00336488
v -0.05849184 -0.04694682 0.00690095
v -0.05850975 -0.04694682 0.00782996
v -0.05852913 -0.04694682 0.00884962
v -0.05854690 -0.04694682 0.00979437
v -0.05845429 -0.05106026 0.00979437
v -0.05839439 -0.05110737 0.00681094
v -0.05846856 -0.05079780 0.00979437
v -0.05847583 -0.05061759 0.00967793
v -0.05835576 -0.05051290 0.00336488
v -0.05841633 -0.04754129 0.00336488
v -0.05849010 -0.04754129 0.00698906
v -0.05850625 -0.04754129 0.00782996
v -0.05852576 -0.04754129 0.00884962
v -0.05854676 -0.04699019 0.00979437
v -0.05848094 -0.05055104 0.00979437
v -0.05838362 -0.05051290 0.00477352
v -0.05848390 -0.05022128 0.00934937
v -0.05837554 -0.04991843 0.00336488
v -0.05841094 -0.04813576 0.00336488
v -0.05848713 -0.04813576 0.00714390
v -0.05850032 -0.04813576 0.00782996
v -0.05851971 -0.04813576 0.00884962
v -0.05853761 -0.04813576 0.00979437
v -0.05854300 -0.04758466 0.00979437
v -0.05854340 -0.04754129 0.00979437
v -0.05848687 -0.05039326 0.00979437
v -0.05849965 -0.04996180 0.00979437
v -0.05851796 -0.04932695 0.00979437
v -0.05849723 -0.04936882 0.00876842
v -0.05848875 -0.04920133 0.00807418
v -0.05839264 -0.04932396 0.00336488
v -0.05840462 -0.04872949 0.00336488
v -0.05848498 -0.04852609 0.00725405
v -0.05851284 -0.04872949 0.00884962
v -0.05853061 -0.04872949 0.00979437
v -0.05848175 -0.04892241 0.00739504
v -0.05849211 -0.04872650 0.00777269
f 5 2 1
f 5 1 4
f 36 46 37
f 67 72 68
f 68 72 69
f 37 46 47
f 66 72 67
f 72 66 71
f 45 34 32
f 7 8 3
f 16 8 7
f 55 47 46
f 64 71 66
f 69 72 73
f 45 53 54
f 54 66 67
f 54 53 66
f 45 32 44
f 34 22 30
f 30 32 34
f 16 7 15
f 37 26 35
f 13 11 6
f 13 23 11
f 38 26 37
f 37 47 38
f 69 57 56
f 56 57 47
f 47 55 56
f 56 55 68
f 56 68 69
f 61 50 49
f 69 73 70
f 72 71 70
f 70 73 72
f 66 53 65
f 65 64 66
f 53 64 65
f 33 29 22
f 52 53 45
f 52 62 53
f 51 62 52
f 45 44 52
f 52 44 51
f 53 62 63
f 63 64 53
f 22 29 17
f 17 30 22
f 26 38 27
f 14 15 7
f 14 7 11
f 11 23 14
f 25 24 36
f 25 36 37
f 37 35 25
f 12 13 6
f 40 28 39
f 39 50 40
f 28 27 39
f 39 27 38
f 39 49 50
f 38 49 39
f 47 57 48
f 57 49 48
f 48 38 47
f 48 49 38
f 59 70 71
f 69 70 59
f 21 22 10
f 21 33 22
f 51 44 43
f 43 44 32
f 20 17 9
f 30 17 20
f 32 30 20
f 20 31 32
f 61 49 60
f 49 59 60
f 58 49 57
f 58 59 49
f 58 57 69
f 69 59 58
f 41 43 32
f 19 20 9
f 31 20 19
f 31 41 42
f 32 31 42
f 42 41 32
f 18 19 9
f 31 19 18
f 7 3 1
f 2 6 7
f 7 1 2
f 6 11 7
f 27 28 16
f 16 15 27
f 23 35 14
f 14 35 26
f 14 27 15
f 26 27 14
f 25 35 23
f 23 13 25
f 5 10 12
f 12 2 5
f 12 54 67
f 12 6 2
f 12 55 46
f 67 68 12
f 46 36 12
f 10 22 12
f 12 34 45
f 12 22 34
f 68 55 12
f 45 54 12
f 36 24 12
f 12 25 13
f 24 25 12
f 21 10 5
f 4 9 21
f 5 4 21
f 9 17 21
f 29 33 21
f 21 17 29
f 18 4 1
f 18 9 4
f 1 3 18
f 18 8 16
f 64 63 18
f 3 8 18
f 18 50 61
f 18 63 62
f 16 28 18
f 18 41 31
f 18 28 40
f 40 50 18
f 71 64 18
f 18 62 51
f 51 43 18
f 18 59 71
f 61 60 18
f 18 60 59
f 43 41 18
