# https://github.com/mikedh/trimesh
v 0.05223459 -0.05705295 -0.00052829
v 0.05282903 -0.05705295 -0.00052177
v 0.05045127 -0.05760209 -0.00018451
v 0.04926158 -0.05761854 -0.00018560
v 0.04904240 -0.05762048 -0.00018560
v 0.05164015 -0.05705295 -0.00052285
v 0.05520598 -0.05645853 -0.00052177
v 0.05223459 -0.05756281 -0.00017798
v 0.05164015 -0.05757829 -0.00018233
v 0.05104571 -0.05759184 -0.00018343
v 0.05342266 -0.05705295 -0.00049892
v 0.04926158 -0.05789021 0.00069670
v 0.04904240 -0.05789388 0.00069670
v 0.04985683 -0.05761061 -0.00018451
v 0.04904240 -0.05705295 -0.00044996
v 0.05580042 -0.05616016 -0.00045431
v 0.05580042 -0.05645853 -0.00046628
v 0.05401710 -0.05705295 -0.00045105
v 0.05282903 -0.05753553 -0.00015623
v 0.05164015 -0.05780623 0.00069670
v 0.05104571 -0.05783622 0.00069670
v 0.05045127 -0.05785770 0.00069670
v 0.04985683 -0.05787492 0.00069670
v 0.04985683 -0.05811795 0.01058581
v 0.04926158 -0.05813305 0.01058581
v 0.04904240 -0.05813672 0.01058581
v 0.04904240 -0.05658275 -0.00007681
v 0.05639001 -0.05616016 -0.00033464
v 0.04904240 -0.05616016 0.00038447
v 0.05638435 -0.05646143 -0.00015623
v 0.05580042 -0.05690628 -0.00009422
v 0.05461154 -0.05705295 -0.00032812
v 0.05401710 -0.05746394 -0.00007790
v 0.05342266 -0.05750167 -0.00012577
v 0.05223459 -0.05777218 0.00069670
v 0.05104571 -0.05808022 0.01058581
v 0.05164015 -0.05804946 0.01058581
v 0.05086940 -0.05808661 0.01058581
v 0.05045127 -0.05810170 0.01058581
v 0.05027496 -0.05810654 0.01058581
v 0.04904240 -0.05711410 0.01058581
v 0.05684372 -0.05616016 -0.00003656
v 0.04904240 -0.05616016 0.00189122
v 0.05679358 -0.05626523 -0.00000065
v 0.05617892 -0.05681069 0.00005156
v 0.05494718 -0.05736177 0.00015056
v 0.05461154 -0.05740395 0.00004504
v 0.05516959 -0.05708101 -0.00012794
v 0.05342266 -0.05764989 0.00069670
v 0.05282903 -0.05771935 0.00069670
v 0.05282336 -0.05796877 0.01058581
v 0.05270691 -0.05796103 0.00986779
v 0.05260177 -0.05795116 0.00910517
v 0.05223459 -0.05801385 0.01058581
v 0.05205828 -0.05802449 0.01058581
v 0.05578101 -0.05616016 0.01058581
v 0.05695129 -0.05616016 0.00069670
v 0.05683078 -0.05630315 0.00069670
v 0.05649838 -0.05660036 0.00069670
v 0.05620076 -0.05682637 0.00069670
v 0.05580042 -0.05703496 0.00069670
v 0.05502967 -0.05760016 0.01058581
v 0.05461154 -0.05771045 0.01058581
v 0.05401710 -0.05756726 0.00069670
v 0.05524076 -0.05726135 0.00069670
v 0.05563786 -0.05740918 0.01058581
v 0.05520598 -0.05755314 0.01058581
v 0.05401710 -0.05782307 0.01058581
v 0.05339921 -0.05790375 0.01058581
v 0.05310158 -0.05794149 0.01058581
v 0.05309187 -0.05794033 0.01050096
v 0.05303931 -0.05794768 0.01058581
v 0.05730472 -0.05616016 0.01058581
v 0.05729421 -0.05616016 0.01027576
v 0.05729097 -0.05616577 0.01028446
v 0.05729663 -0.05617312 0.01058581
v 0.05672160 -0.05677973 0.01058581
v 0.05701680 -0.05647285 0.01058581
v 0.05593548 -0.05727644 0.01058581
v 0.05641104 -0.05699258 0.01058581
v 0.05625090 -0.05708875 0.01058581
v 0.05443523 -0.05774431 0.01058581
f 43 41 56
f 27 29 16
f 16 15 27
f 42 57 44
f 30 42 44
f 5 15 6
f 6 1 5
f 34 19 18
f 18 33 34
f 18 17 32
f 32 33 18
f 62 63 46
f 46 67 62
f 66 67 46
f 66 61 79
f 28 17 16
f 28 30 17
f 42 30 28
f 44 57 58
f 48 47 33
f 33 32 48
f 46 47 31
f 47 48 31
f 17 30 31
f 31 32 17
f 31 48 32
f 26 13 25
f 13 12 25
f 25 12 24
f 1 6 7
f 16 17 7
f 7 15 16
f 7 6 15
f 7 17 18
f 3 12 13
f 11 7 18
f 18 19 11
f 33 47 49
f 46 61 65
f 65 66 46
f 61 66 65
f 77 58 78
f 77 80 60
f 79 61 60
f 5 1 4
f 1 3 4
f 4 13 5
f 2 3 1
f 1 7 2
f 7 11 2
f 8 11 19
f 9 2 8
f 8 2 11
f 21 22 8
f 12 9 23
f 24 12 23
f 9 8 23
f 23 8 22
f 23 22 39
f 21 36 38
f 38 22 21
f 39 22 38
f 68 49 64
f 64 82 68
f 64 47 46
f 64 49 47
f 63 82 64
f 46 63 64
f 51 54 52
f 54 53 52
f 20 37 36
f 20 36 21
f 21 8 20
f 20 8 19
f 49 70 50
f 33 49 50
f 76 78 58
f 76 58 57
f 59 58 77
f 77 60 59
f 44 58 59
f 79 60 81
f 81 60 80
f 14 3 13
f 13 4 14
f 14 4 3
f 10 2 9
f 3 2 10
f 10 9 12
f 12 3 10
f 24 23 40
f 40 23 39
f 69 49 68
f 69 70 49
f 51 50 72
f 51 52 35
f 35 50 51
f 35 52 53
f 35 53 54
f 54 55 35
f 19 34 35
f 35 20 19
f 35 34 33
f 33 50 35
f 35 55 37
f 37 20 35
f 73 76 74
f 44 59 45
f 45 59 60
f 45 30 44
f 45 31 30
f 45 60 61
f 45 61 46
f 46 31 45
f 70 72 71
f 71 50 70
f 71 72 50
f 57 74 75
f 75 76 57
f 75 74 76
f 27 41 43
f 27 15 5
f 43 29 27
f 27 26 41
f 5 13 27
f 27 13 26
f 73 56 72
f 41 26 72
f 72 54 51
f 72 56 41
f 72 76 73
f 36 37 72
f 72 66 79
f 63 62 72
f 79 81 72
f 72 38 36
f 72 82 63
f 72 62 67
f 67 66 72
f 72 55 54
f 72 25 24
f 68 82 72
f 72 80 77
f 26 25 72
f 72 69 68
f 77 78 72
f 39 38 72
f 24 40 72
f 78 76 72
f 72 81 80
f 72 40 39
f 70 69 72
f 37 55 72
f 74 29 43
f 74 56 73
f 16 29 74
f 43 56 74
f 74 28 16
f 57 42 74
f 42 28 74
