# https://github.com/mikedh/trimesh
v 0.04451964 -0.02860884 0.01497315
v 0.04451964 -0.02860884 0.01671451
v 0.04034413 -0.02860884 0.01497315
v 0.04034208 -0.02860860 0.01497315
v 0.04034208 -0.02860884 0.01703004
v 0.04451964 -0.02860673 0.01703004
v 0.04450533 -0.02860884 0.01703004
v 0.04034208 -0.02860884 0.01501000
v 0.04451964 -0.02845850 0.01497315
v 0.04034208 -0.02845850 0.01703004
v 0.04034208 -0.02845850 0.01497315
v 0.04451964 -0.02845850 0.01703004
f 4 3 8
f 2 6 7
f 11 9 1
f 11 3 4
f 1 3 11
f 8 11 4
f 10 11 8
f 5 10 8
f 2 3 1
f 5 8 2
f 2 7 5
f 2 8 3
f 12 11 10
f 9 11 12
f 1 9 12
f 12 2 1
f 6 2 12
f 5 7 12
f 12 10 5
f 7 6 12
