# https://github.com/mikedh/trimesh
v -0.05661652 0.05537244 0.01058470
v -0.05611349 0.05537244 0.00228886
v -0.05778946 0.05537244 0.01058470
v -0.05752603 0.04849167 0.01058470
v -0.05753557 0.05537244 0.00228886
v -0.05703301 0.04849167 0.00229210
v -0.05704708 0.04849167 0.00228886
v -0.05777683 0.05537244 0.01013153
v -0.05789460 0.05504508 0.00915617
v -0.05790413 0.05506731 0.00986840
v -0.05791295 0.05508953 0.01058470
v -0.05854877 0.04849167 0.01058470
v -0.05754534 0.05535358 0.00228886
v -0.05838976 0.04849167 0.00228886
v -0.05769696 0.05532866 0.00681076
v -0.05772819 0.05532866 0.00782998
v -0.05777277 0.05536436 0.00986840
v -0.05778136 0.05527747 0.00882970
v -0.05788482 0.05501679 0.00847642
v -0.05799282 0.05473455 0.00986840
v -0.05801046 0.05473455 0.01058470
v -0.05755773 0.05532866 0.00228886
v -0.05854758 0.04861359 0.01058470
v -0.05853566 0.04849167 0.00986840
v -0.05848560 0.04849167 0.00722332
v -0.05838618 0.04879007 0.00228886
v -0.05795348 0.05478507 0.00882970
v -0.05765667 0.05506865 0.00228886
v -0.05779137 0.05470558 0.00228886
v -0.05783929 0.05454797 0.00228886
v -0.05788053 0.05440988 0.00228886
v -0.05789245 0.05444895 0.00311072
v -0.05794991 0.05414179 0.00228886
v -0.05806243 0.05413976 0.00681076
v -0.05808723 0.05413976 0.00782998
v -0.05805266 0.05455807 0.01058470
v -0.05854543 0.04879007 0.01058470
v -0.05853232 0.04879007 0.00986840
v -0.05852613 0.04849167 0.00935758
v -0.05851301 0.04879007 0.00884919
v -0.05848488 0.04859405 0.00725174
v -0.05849227 0.04879142 0.00776825
v -0.05848178 0.04899013 0.00738737
v -0.05837903 0.04912417 0.00228886
v -0.05791558 0.05427516 0.00228886
v -0.05806958 0.05354565 0.00228886
v -0.05811131 0.05413976 0.00884919
v -0.05813515 0.05413976 0.00986840
v -0.05815136 0.05413976 0.01058470
v -0.05853685 0.04920770 0.01058470
v -0.05851993 0.04938418 0.00986840
v -0.05848893 0.04926698 0.00806711
v -0.05837331 0.04938418 0.00228886
v -0.05810654 0.05328565 0.00228886
v -0.05815064 0.05354565 0.00579236
v -0.05817400 0.05354565 0.00681076
v -0.05819713 0.05354565 0.00782998
v -0.05821978 0.05354565 0.00884919
v -0.05818307 0.05396328 0.01058470
v -0.05853304 0.04938418 0.01058470
v -0.05849752 0.04943268 0.00876392
v -0.05851611 0.04997897 0.01058470
v -0.05850276 0.04997897 0.00986840
v -0.05848393 0.05028680 0.00934215
v -0.05848846 0.04997897 0.00911232
v -0.05836330 0.04971896 0.00228886
v -0.05815350 0.05295087 0.00228886
v -0.05825292 0.05295087 0.00681076
v -0.05824195 0.05354565 0.00986840
v -0.05825697 0.05354565 0.01058470
v -0.05849919 0.05055624 0.01058470
v -0.05848822 0.05052054 0.00994799
v -0.05848441 0.05088226 0.01034106
v -0.05835543 0.04997897 0.00228886
v -0.05818307 0.05269086 0.00228886
v -0.05822073 0.05235608 0.00228886
v -0.05829726 0.05295087 0.00884919
v -0.05831919 0.05295087 0.00986840
v -0.05833421 0.05295087 0.01058470
v -0.05848655 0.05091931 0.01058470
v -0.05830560 0.05116786 0.00228886
v -0.05831895 0.05090785 0.00228886
v -0.05833564 0.05057375 0.00228886
v -0.05834446 0.05031374 0.00228886
v -0.05837903 0.05235608 0.00986840
v -0.05837903 0.05176265 0.00782998
v -0.05835901 0.05176265 0.00681076
v -0.05837570 0.05116786 0.00579236
v -0.05824124 0.05209608 0.00228886
v -0.05831609 0.05235608 0.00681076
v -0.05833755 0.05235608 0.00782998
v -0.05835877 0.05235608 0.00884919
v -0.05835185 0.05277439 0.01058470
v -0.05839215 0.05235608 0.01058470
v -0.05828415 0.05150264 0.00228886
v -0.05826722 0.05176265 0.00228886
f 1 4 2
f 2 4 6
f 6 7 2
f 85 73 80
f 16 8 15
f 94 93 85
f 85 80 94
f 17 16 18
f 18 8 17
f 17 8 16
f 14 25 26
f 76 77 68
f 95 87 96
f 30 19 29
f 42 26 41
f 41 26 25
f 71 80 73
f 43 26 42
f 43 44 26
f 43 53 44
f 52 53 43
f 75 68 67
f 76 68 75
f 86 73 85
f 85 87 86
f 86 87 73
f 83 84 73
f 73 82 83
f 81 82 73
f 81 87 95
f 9 8 18
f 3 8 9
f 18 16 9
f 16 15 9
f 15 22 9
f 9 22 19
f 73 64 72
f 72 71 73
f 64 71 72
f 65 51 64
f 65 53 52
f 64 53 65
f 60 51 50
f 62 51 60
f 73 84 74
f 74 64 73
f 40 43 42
f 42 41 40
f 25 39 40
f 40 41 25
f 78 77 76
f 78 91 79
f 77 78 69
f 96 91 89
f 93 79 92
f 79 91 92
f 85 93 92
f 92 91 96
f 92 87 85
f 92 96 87
f 73 87 88
f 88 81 73
f 87 81 88
f 28 29 19
f 19 22 28
f 13 22 15
f 13 8 5
f 13 15 8
f 10 21 11
f 10 9 21
f 11 3 10
f 3 9 10
f 31 19 30
f 52 51 61
f 61 65 52
f 51 65 61
f 64 51 63
f 51 62 63
f 63 62 71
f 63 71 64
f 66 53 64
f 64 74 66
f 12 23 24
f 38 23 37
f 43 40 38
f 38 40 39
f 52 43 38
f 39 24 38
f 38 24 23
f 37 50 38
f 38 51 52
f 38 50 51
f 59 69 70
f 67 55 54
f 54 55 46
f 67 57 56
f 56 55 67
f 76 89 90
f 90 89 91
f 90 78 76
f 91 78 90
f 46 55 48
f 55 56 48
f 48 57 49
f 48 56 57
f 34 35 21
f 34 33 46
f 46 35 34
f 19 31 32
f 32 27 19
f 33 27 32
f 20 27 33
f 20 34 21
f 33 34 20
f 21 9 20
f 20 9 19
f 19 27 20
f 58 59 49
f 49 57 58
f 69 59 58
f 58 57 67
f 67 68 58
f 58 68 77
f 77 69 58
f 36 48 49
f 21 35 36
f 33 32 45
f 45 32 31
f 47 36 35
f 48 36 47
f 47 35 46
f 46 48 47
f 2 5 8
f 8 3 1
f 8 1 2
f 69 79 70
f 69 78 79
f 24 6 4
f 24 4 12
f 7 6 24
f 24 14 7
f 24 25 14
f 24 39 25
f 12 4 36
f 4 1 36
f 1 3 36
f 36 3 11
f 80 71 36
f 93 94 36
f 36 62 60
f 11 21 36
f 36 94 80
f 36 79 93
f 36 23 12
f 49 59 36
f 60 50 36
f 70 79 36
f 36 50 37
f 71 62 36
f 37 23 36
f 36 59 70
f 7 14 45
f 2 7 45
f 45 5 2
f 45 75 67
f 45 13 5
f 14 26 45
f 53 66 45
f 45 74 84
f 29 28 45
f 45 81 95
f 95 96 45
f 84 83 45
f 30 29 45
f 26 44 45
f 44 53 45
f 76 75 45
f 45 83 82
f 82 81 45
f 45 89 76
f 46 33 45
f 45 31 30
f 96 89 45
f 45 28 22
f 22 13 45
f 67 54 45
f 45 66 74
f 45 54 46
