# https://github.com/mikedh/trimesh
v -0.04488619 0.05309866 0.01598398
v -0.04510750 0.05309866 0.01566865
v -0.04492870 0.05309866 0.01615795
v -0.04987717 0.05034867 0.01622541
v -0.04987717 0.05032066 0.01598398
v -0.04987717 0.05058418 0.01526069
v -0.04547880 0.05309866 0.01528285
v -0.04521157 0.05309866 0.01654275
v -0.04987717 0.05057493 0.01672760
v -0.04987717 0.05060022 0.01525223
v -0.04689069 0.05295099 0.01505632
v -0.04570206 0.05309866 0.01524257
v -0.04986300 0.05116779 0.01502410
v -0.04542945 0.05309866 0.01669598
v -0.04987717 0.05058092 0.01673102
v -0.04987717 0.05116779 0.01502289
v -0.04748476 0.05295099 0.01498664
v -0.04689069 0.05309866 0.01503577
v -0.04565321 0.05309866 0.01674190
v -0.04987717 0.05115392 0.01697870
v -0.04987717 0.05176201 0.01497335
v -0.04986300 0.05176201 0.01497335
v -0.04926844 0.05176201 0.01500114
v -0.04807932 0.05295099 0.01497355
v -0.04748476 0.05309866 0.01498322
v -0.04674364 0.05309866 0.01696500
v -0.04987717 0.05116779 0.01698010
v -0.04748476 0.05295099 0.01701675
v -0.04987717 0.05235650 0.01497315
v -0.04926844 0.05235650 0.01497315
v -0.04807932 0.05309866 0.01497355
v -0.04867388 0.05295099 0.01497315
v -0.04733771 0.05309866 0.01702018
v -0.04987717 0.05174814 0.01703004
v -0.04926844 0.05176201 0.01700165
v -0.04987717 0.05309866 0.01497315
v -0.04867388 0.05309866 0.01497315
v -0.04793178 0.05309866 0.01702984
v -0.04807932 0.05295099 0.01702984
v -0.04986300 0.05176201 0.01703004
v -0.04987717 0.05309866 0.01703004
v -0.04852634 0.05309866 0.01703004
v -0.04867388 0.05295099 0.01703004
f 5 1 4
f 5 6 1
f 8 9 4
f 14 9 8
f 1 6 2
f 6 7 2
f 4 1 3
f 3 8 4
f 33 38 39
f 34 33 39
f 28 33 34
f 15 9 14
f 14 20 15
f 10 16 13
f 10 7 6
f 10 13 7
f 7 13 11
f 34 39 40
f 35 28 34
f 33 28 26
f 26 28 20
f 21 22 16
f 16 22 23
f 7 11 12
f 12 11 18
f 43 40 39
f 27 35 34
f 20 28 27
f 28 35 27
f 19 20 14
f 19 26 20
f 17 23 22
f 16 23 17
f 13 16 17
f 17 11 13
f 18 11 17
f 22 30 24
f 24 17 22
f 32 24 30
f 17 24 25
f 18 17 25
f 31 25 24
f 30 21 29
f 22 21 30
f 43 41 34
f 43 42 41
f 34 40 43
f 38 42 43
f 43 39 38
f 27 5 4
f 27 36 29
f 34 41 27
f 29 21 27
f 41 36 27
f 6 5 27
f 4 9 27
f 27 10 6
f 9 15 27
f 27 15 20
f 16 10 27
f 27 21 16
f 29 36 32
f 36 37 32
f 32 30 29
f 31 36 41
f 31 3 1
f 31 37 36
f 1 2 31
f 14 8 31
f 41 42 31
f 31 2 7
f 7 12 31
f 8 3 31
f 31 38 33
f 31 19 14
f 31 42 38
f 33 26 31
f 31 12 18
f 26 19 31
f 18 25 31
f 31 32 37
f 24 32 31
