# https://github.com/mikedh/trimesh
v 0.05511613 0.04159753 0.00049159
v 0.05762675 0.04518110 -0.00054800
v 0.05762675 0.04458629 -0.00054724
v 0.05762675 0.04399148 -0.00054470
v 0.05643784 0.04159753 0.00048600
v 0.05511613 0.04159753 0.00185095
v 0.05511613 0.04650145 0.00049159
v 0.05762675 0.04934152 -0.00055156
v 0.05762675 0.04815271 -0.00055105
v 0.05816764 0.04458629 -0.00018452
v 0.05816342 0.04399148 -0.00018452
v 0.05808095 0.04353720 -0.00006074
v 0.05703197 0.04159753 0.00060267
v 0.05624888 0.04159753 0.00204514
v 0.05511613 0.04577428 0.00185095
v 0.05511613 0.04994368 0.00049185
v 0.05762675 0.04994368 -0.00055131
v 0.05816796 0.04696390 -0.00018427
v 0.05816796 0.04518110 -0.00018452
v 0.05841471 0.04458629 0.00069646
v 0.05840659 0.04399148 0.00069646
v 0.05742091 0.04159753 0.00096488
v 0.05704236 0.04159753 0.00061233
v 0.05752026 0.04159753 0.00204514
v 0.05624888 0.04161387 0.00204514
v 0.05511613 0.04861434 0.00185044
v 0.05511613 0.04994368 0.00185019
v 0.05814134 0.04994368 -0.00018682
v 0.05815530 0.04934152 -0.00018275
v 0.05816082 0.04874752 -0.00018351
v 0.05816374 0.04815271 -0.00018376
v 0.05816634 0.04755790 -0.00018402
v 0.05841503 0.04696390 0.00069646
v 0.05841503 0.04518110 0.00069646
v 0.05843224 0.04458629 0.00204514
v 0.05843061 0.04439429 0.00204514
v 0.05842607 0.04399148 0.00204514
v 0.05843256 0.04498828 0.00204514
v 0.05836146 0.04379948 0.00204514
v 0.05751669 0.04159753 0.00171521
v 0.05742351 0.04159753 0.00098470
v 0.05751701 0.04159753 0.00174241
v 0.05625018 0.04220868 0.00204514
v 0.05690081 0.04994286 0.00204514
v 0.05690795 0.04994368 0.00204514
v 0.05625732 0.04280022 0.00204514
v 0.05629401 0.04339749 0.00204514
v 0.05814816 0.04994368 -0.00018199
v 0.05839977 0.04874752 0.00069646
v 0.05840626 0.04815271 0.00069646
v 0.05841211 0.04755790 0.00069646
v 0.05843061 0.04736589 0.00204514
v 0.05843256 0.04696390 0.00204514
v 0.05795141 0.04994368 0.00204514
v 0.05836860 0.04994368 0.00068477
v 0.05838776 0.04934152 0.00069646
v 0.05841666 0.04874752 0.00204514
v 0.05842347 0.04815271 0.00204514
v 0.05842964 0.04755790 0.00204514
v 0.05837932 0.04994368 0.00171521
v 0.05838549 0.04994123 0.00204514
v 0.05837120 0.04994368 0.00069646
v 0.05837153 0.04993633 0.00069646
v 0.05840367 0.04934152 0.00204514
v 0.05837932 0.04994368 0.00170174
v 0.05838581 0.04993633 0.00204514
v 0.05839166 0.04974351 0.00204514
f 7 8 1
f 16 8 7
f 17 8 16
f 60 54 61
f 3 4 1
f 1 8 9
f 1 4 5
f 4 13 5
f 11 21 12
f 12 4 11
f 12 13 4
f 20 21 11
f 8 17 18
f 33 52 53
f 51 52 33
f 41 21 40
f 21 20 37
f 37 20 36
f 27 44 45
f 47 27 46
f 47 44 27
f 2 3 1
f 1 9 2
f 22 21 41
f 22 12 21
f 35 20 38
f 36 20 35
f 60 61 65
f 61 62 65
f 10 9 8
f 10 2 9
f 10 20 11
f 3 2 10
f 11 4 10
f 4 3 10
f 52 51 59
f 46 27 43
f 39 40 21
f 21 37 39
f 13 12 23
f 12 22 23
f 29 30 17
f 48 49 29
f 51 30 29
f 32 18 17
f 33 18 32
f 8 18 19
f 19 10 8
f 19 18 33
f 20 10 19
f 56 49 48
f 56 64 57
f 57 49 56
f 58 49 57
f 27 26 25
f 25 43 27
f 25 26 15
f 42 39 24
f 40 39 42
f 66 62 61
f 28 29 17
f 48 29 28
f 51 29 50
f 50 29 49
f 49 58 50
f 50 58 59
f 50 59 51
f 17 30 31
f 31 32 17
f 33 32 31
f 31 51 33
f 31 30 51
f 34 19 33
f 20 19 34
f 38 20 34
f 55 56 48
f 63 55 62
f 56 55 63
f 64 56 63
f 63 67 64
f 63 66 67
f 62 66 63
f 26 7 1
f 1 6 26
f 16 7 26
f 26 27 16
f 6 15 26
f 25 15 6
f 6 14 25
f 42 6 1
f 1 5 42
f 41 40 42
f 42 14 6
f 42 5 13
f 24 14 42
f 13 23 42
f 42 22 41
f 42 23 22
f 66 61 54
f 66 35 38
f 38 53 66
f 66 37 36
f 24 39 66
f 66 47 46
f 66 14 24
f 54 45 66
f 66 53 52
f 52 59 66
f 46 43 66
f 66 45 44
f 44 47 66
f 36 35 66
f 57 64 66
f 66 25 14
f 66 58 57
f 66 39 37
f 64 67 66
f 59 58 66
f 43 25 66
f 34 53 38
f 33 53 34
f 16 27 55
f 55 17 16
f 55 54 60
f 55 45 54
f 60 65 55
f 55 28 17
f 27 45 55
f 55 65 62
f 48 28 55
