# https://github.com/mikedh/trimesh
v 0.05860197 -0.04456380 0.01373547
v 0.05859396 -0.04516335 0.01292617
v 0.05859379 -0.04456380 0.01292617
v 0.05757150 -0.04456380 0.01373547
v 0.05860197 -0.04635175 0.01373547
v 0.05859396 -0.04635175 0.01292617
v 0.05857840 -0.04516335 0.01190722
v 0.05857808 -0.04456380 0.01190722
v 0.05753335 -0.04456380 0.01058612
v 0.05696441 -0.05450605 0.01058612
v 0.05700673 -0.05450605 0.01373547
v 0.05860149 -0.04682380 0.01373547
v 0.05857840 -0.04635175 0.01190722
v 0.05859331 -0.04694643 0.01292617
v 0.05856045 -0.04516335 0.01088827
v 0.05856029 -0.04456380 0.01088827
v 0.05855468 -0.04456380 0.01058612
v 0.05804025 -0.05450605 0.01058612
v 0.05810197 -0.05450605 0.01373547
v 0.05860133 -0.04694643 0.01373547
v 0.05856045 -0.04635175 0.01088827
v 0.05857776 -0.04694643 0.01190722
v 0.05855997 -0.04694643 0.01088827
v 0.05859860 -0.04741848 0.01373547
v 0.05858979 -0.04754112 0.01292617
v 0.05855500 -0.04516335 0.01058612
v 0.05856013 -0.04456380 0.01087932
v 0.05814140 -0.05407974 0.01058612
v 0.05804057 -0.05450605 0.01059877
v 0.05818981 -0.05407974 0.01292617
v 0.05820007 -0.05407974 0.01373547
v 0.05809090 -0.05450605 0.01292617
v 0.05855500 -0.04635175 0.01058612
v 0.05857408 -0.04754112 0.01190722
v 0.05855644 -0.04754112 0.01088827
v 0.05855436 -0.04694643 0.01058612
v 0.05859780 -0.04754112 0.01373547
v 0.05858402 -0.04813580 0.01292617
v 0.05817330 -0.05390358 0.01058612
v 0.05814829 -0.05407974 0.01088827
v 0.05806413 -0.05450605 0.01161802
v 0.05822139 -0.05395711 0.01373547
v 0.05817042 -0.05407974 0.01190722
v 0.05827494 -0.05348506 0.01190722
v 0.05829289 -0.05348506 0.01292617
v 0.05808529 -0.05450605 0.01263698
v 0.05856830 -0.04813580 0.01190722
v 0.05855083 -0.04754112 0.01058612
v 0.05855051 -0.04813580 0.01088827
v 0.05854666 -0.04795964 0.01058612
v 0.05859203 -0.04813580 0.01373547
v 0.05858530 -0.04873049 0.01373547
v 0.05857712 -0.04873049 0.01292617
v 0.05824800 -0.05348506 0.01058612
v 0.05807038 -0.05450605 0.01190722
v 0.05830235 -0.05348506 0.01373547
v 0.05825442 -0.05348506 0.01088827
v 0.05833137 -0.05289037 0.01088827
v 0.05835141 -0.05289037 0.01190722
v 0.05836808 -0.05289037 0.01292617
v 0.05831790 -0.05336242 0.01373547
v 0.05856141 -0.04873049 0.01190722
v 0.05854362 -0.04873049 0.01088827
v 0.05854009 -0.04855432 0.01058612
v 0.05854490 -0.04813580 0.01058612
v 0.05857552 -0.04920254 0.01373547
v 0.05856478 -0.04932421 0.01292617
v 0.05827093 -0.05330889 0.01058612
v 0.05832512 -0.05289037 0.01058612
v 0.05834291 -0.05271420 0.01058612
v 0.05838379 -0.05229666 0.01058612
v 0.05838940 -0.05229666 0.01088827
v 0.05840751 -0.05229666 0.01190722
v 0.05837657 -0.05289037 0.01373547
v 0.05842370 -0.05229666 0.01292617
v 0.05843236 -0.05229666 0.01373547
v 0.05854907 -0.04932421 0.01190722
v 0.05853111 -0.04932421 0.01088827
v 0.05852935 -0.04914804 0.01058612
v 0.05853801 -0.04873049 0.01058612
v 0.05857295 -0.04932421 0.01373547
v 0.05855965 -0.04979528 0.01373547
v 0.05854794 -0.04991792 0.01292617
v 0.05847902 -0.05085131 0.01058612
v 0.05848190 -0.05089803 0.01088827
v 0.05847693 -0.05141290 0.01238786
v 0.05848094 -0.05147812 0.01292617
v 0.05848527 -0.05154722 0.01373547
v 0.05853224 -0.04991792 0.01190722
v 0.05852550 -0.04932421 0.01058612
v 0.05851412 -0.04991792 0.01088827
v 0.05854266 -0.05038997 0.01373547
v 0.05853913 -0.05051260 0.01373547
v 0.05853079 -0.05051260 0.01292617
v 0.05849136 -0.05049411 0.01058612
v 0.05849649 -0.05051260 0.01088827
v 0.05851476 -0.05051260 0.01190722
v 0.05850370 -0.05110729 0.01292617
v 0.05848847 -0.05111410 0.01199200
v 0.05851220 -0.05110729 0.01373547
v 0.05850851 -0.04991792 0.01058612
v 0.05851781 -0.05098465 0.01373547
f 4 9 10
f 1 2 3
f 11 4 10
f 7 3 2
f 31 19 30
f 3 7 8
f 7 15 27
f 17 27 26
f 26 27 15
f 32 30 19
f 28 40 41
f 43 32 46
f 30 32 43
f 43 41 40
f 16 8 7
f 7 27 16
f 12 6 5
f 14 12 20
f 6 12 14
f 24 37 25
f 24 14 20
f 25 14 24
f 67 81 82
f 38 37 51
f 25 37 38
f 38 34 25
f 52 38 51
f 53 38 52
f 67 82 83
f 29 18 28
f 28 41 29
f 55 43 46
f 41 43 55
f 76 75 88
f 60 76 74
f 75 76 60
f 45 56 42
f 31 30 42
f 30 45 42
f 39 40 28
f 39 43 40
f 39 54 43
f 22 13 6
f 6 14 22
f 22 14 25
f 25 34 22
f 66 81 67
f 67 53 66
f 53 52 66
f 80 63 79
f 62 53 67
f 62 38 53
f 62 63 49
f 93 83 92
f 92 83 82
f 94 83 93
f 77 62 67
f 63 62 77
f 75 60 73
f 61 60 74
f 61 56 45
f 45 60 61
f 71 84 85
f 85 86 71
f 84 97 85
f 97 94 85
f 88 75 87
f 75 73 87
f 87 73 86
f 49 65 50
f 35 50 48
f 49 50 35
f 35 22 34
f 64 65 49
f 49 63 64
f 63 80 64
f 34 38 47
f 38 62 47
f 47 62 49
f 49 35 47
f 47 35 34
f 102 94 93
f 84 95 96
f 96 97 84
f 96 95 101
f 79 63 78
f 63 77 78
f 71 86 72
f 86 73 72
f 44 45 30
f 30 43 44
f 98 87 86
f 98 85 94
f 98 100 88
f 88 87 98
f 98 102 100
f 94 102 98
f 22 35 23
f 36 33 23
f 23 33 21
f 21 13 23
f 13 22 23
f 79 78 90
f 97 96 91
f 91 96 101
f 71 72 59
f 59 73 60
f 59 72 73
f 59 60 45
f 45 44 59
f 43 54 57
f 57 44 43
f 86 85 99
f 99 98 86
f 85 98 99
f 97 91 89
f 89 94 97
f 89 91 78
f 89 78 77
f 83 94 89
f 67 83 89
f 89 77 67
f 71 59 70
f 68 57 54
f 69 57 68
f 69 70 58
f 58 70 59
f 58 59 44
f 58 57 69
f 44 57 58
f 26 15 21
f 21 33 26
f 1 5 6
f 6 2 1
f 9 4 16
f 16 4 1
f 1 3 16
f 16 17 9
f 3 8 16
f 16 27 17
f 21 15 13
f 13 15 7
f 2 6 13
f 13 7 2
f 55 19 11
f 10 18 55
f 55 11 10
f 55 32 19
f 46 32 55
f 18 29 55
f 55 29 41
f 1 4 102
f 102 19 31
f 102 24 20
f 4 11 102
f 51 37 102
f 11 19 102
f 102 52 51
f 102 5 1
f 74 76 102
f 102 61 74
f 20 12 102
f 81 66 102
f 93 92 102
f 102 12 5
f 37 24 102
f 102 82 81
f 31 42 102
f 88 100 102
f 102 76 88
f 102 42 56
f 102 66 52
f 102 92 82
f 56 61 102
f 23 48 36
f 23 35 48
f 101 90 91
f 91 90 78
f 9 17 68
f 10 9 68
f 65 64 68
f 17 26 68
f 68 18 10
f 68 33 36
f 28 18 68
f 68 84 71
f 68 39 28
f 68 26 33
f 68 95 84
f 36 48 68
f 68 80 79
f 54 39 68
f 79 90 68
f 68 50 65
f 101 95 68
f 71 70 68
f 48 50 68
f 68 64 80
f 68 90 101
f 68 70 69
