# https://github.com/mikedh/trimesh
v -0.05644949 -0.04207601 0.00336388
v -0.05621757 -0.04278530 0.00204263
v -0.05621757 -0.04219010 0.00204608
v -0.05621757 -0.04207601 0.00204608
v -0.05752353 -0.04207601 0.00336388
v -0.05645057 -0.04219010 0.00336388
v -0.05621757 -0.05221033 0.00185174
v -0.05621757 -0.04207601 0.00048757
v -0.05750046 -0.04207601 0.00171529
v -0.05825378 -0.04337951 0.00336388
v -0.05647880 -0.04278530 0.00336388
v -0.05717241 -0.05221033 0.00336388
v -0.05621757 -0.05221033 0.00036760
v -0.05759185 -0.04397372 -0.00054505
v -0.05640293 -0.04207601 0.00048565
v -0.05699761 -0.05221033 -0.00029053
v -0.05739506 -0.04207601 0.00095482
v -0.05812725 -0.04341323 0.00069647
v -0.05837232 -0.04397372 0.00069647
v -0.05832577 -0.04360668 0.00336388
v -0.05824796 -0.05221033 0.00336388
v -0.05759185 -0.04456892 -0.00054734
v -0.05813286 -0.04456892 -0.00018474
v -0.05812919 -0.04397372 -0.00018474
v -0.05804686 -0.04351541 -0.00006094
v -0.05759185 -0.04342316 -0.00017822
v -0.05699761 -0.04207601 0.00059183
v -0.05708404 -0.05221033 -0.00033308
v -0.05841608 -0.04397372 0.00336388
v -0.05837987 -0.04456892 0.00069647
v -0.05828761 -0.05170143 0.00336388
v -0.05820722 -0.05221033 0.00069647
v -0.05759185 -0.04813418 -0.00055118
v -0.05813307 -0.04694675 -0.00018436
v -0.05813307 -0.04516313 -0.00018436
v -0.05838051 -0.04516313 0.00069647
v -0.05759185 -0.04932359 -0.00055156
v -0.05759185 -0.05221033 -0.00050863
v -0.05759185 -0.05110722 -0.00054505
v -0.05759185 -0.05051301 -0.00055079
v -0.05841759 -0.04420089 0.00336388
v -0.05841910 -0.04456892 0.00336388
v -0.05824688 -0.05170143 0.00069647
v -0.05832577 -0.05110722 0.00336388
v -0.05828999 -0.05110722 0.00069647
v -0.05807531 -0.05221033 -0.00001225
v -0.05838030 -0.04694675 0.00069647
v -0.05838051 -0.04635254 0.00069647
v -0.05813178 -0.04753997 -0.00018397
v -0.05841931 -0.04516313 0.00336388
v -0.05766104 -0.05221033 -0.00045458
v -0.05809234 -0.05110722 -0.00017363
v -0.05810570 -0.05051301 -0.00018052
v -0.05811324 -0.04991781 -0.00018167
v -0.05812057 -0.04932359 -0.00018283
v -0.05812596 -0.04872938 -0.00018321
v -0.05812898 -0.04813418 -0.00018359
v -0.05834430 -0.05074018 0.00336388
v -0.05835573 -0.05051301 0.00336388
v -0.05831865 -0.05051301 0.00069647
v -0.05804923 -0.05221033 -0.00013568
v -0.05837728 -0.04753997 0.00069647
v -0.05841629 -0.04753997 0.00336388
v -0.05841910 -0.04694675 0.00336388
v -0.05841931 -0.04657971 0.00336388
v -0.05833633 -0.04991781 0.00069647
v -0.05835271 -0.04932359 0.00069647
v -0.05836478 -0.04872938 0.00069647
v -0.05837146 -0.04813418 0.00069647
v -0.05837556 -0.04991781 0.00336388
v -0.05841090 -0.04813418 0.00336388
v -0.05839258 -0.04932359 0.00336388
v -0.05840465 -0.04872938 0.00336388
f 1 7 2
f 1 6 7
f 11 12 7
f 7 6 11
f 3 4 1
f 3 1 2
f 14 24 25
f 16 8 13
f 16 14 8
f 26 14 25
f 18 17 25
f 24 14 23
f 30 24 23
f 30 23 36
f 52 67 53
f 39 52 53
f 38 52 39
f 22 23 14
f 14 26 27
f 25 17 27
f 27 26 25
f 42 36 50
f 30 36 42
f 19 29 20
f 30 29 19
f 19 18 25
f 25 24 19
f 19 24 30
f 17 18 9
f 34 23 37
f 51 52 38
f 61 52 51
f 46 45 61
f 67 52 66
f 66 72 67
f 60 52 61
f 61 45 60
f 60 66 52
f 59 60 45
f 38 39 28
f 14 16 28
f 28 22 14
f 54 39 53
f 55 39 54
f 40 39 55
f 40 34 37
f 49 34 40
f 37 28 40
f 40 28 39
f 37 23 33
f 23 22 33
f 33 28 37
f 22 28 33
f 8 14 15
f 14 27 15
f 41 29 30
f 30 42 41
f 5 9 10
f 10 9 18
f 10 19 20
f 18 19 10
f 35 36 23
f 23 34 35
f 47 34 49
f 63 47 62
f 43 46 32
f 45 46 43
f 60 59 70
f 72 66 70
f 66 60 70
f 55 54 68
f 68 54 53
f 53 67 68
f 56 40 55
f 55 62 56
f 34 47 48
f 47 63 64
f 31 44 45
f 45 43 31
f 58 59 45
f 45 44 58
f 69 62 55
f 55 68 69
f 73 69 68
f 49 40 57
f 40 56 57
f 57 47 49
f 62 47 57
f 57 56 62
f 65 48 47
f 47 64 65
f 71 63 62
f 62 69 71
f 69 73 71
f 7 13 3
f 2 7 3
f 13 8 3
f 3 8 4
f 28 21 32
f 28 13 7
f 7 12 28
f 12 21 28
f 28 51 38
f 28 16 13
f 32 46 28
f 61 51 28
f 28 46 61
f 4 8 15
f 15 5 1
f 1 4 15
f 15 9 5
f 15 27 17
f 17 9 15
f 48 35 34
f 36 35 48
f 31 43 32
f 32 21 31
f 73 68 67
f 67 72 73
f 36 48 65
f 50 36 65
f 71 21 12
f 71 11 6
f 6 1 71
f 12 11 71
f 5 10 71
f 1 5 71
f 29 41 71
f 71 42 50
f 20 29 71
f 72 70 71
f 71 73 72
f 71 41 42
f 71 10 20
f 59 58 71
f 71 31 21
f 71 70 59
f 71 64 63
f 44 31 71
f 71 58 44
f 50 65 71
f 71 65 64
