# https://github.com/mikedh/trimesh
v -0.04214459 0.02917044 0.01703004
v -0.04214459 0.02917044 0.01497335
v -0.03975652 0.02976504 0.01703004
v -0.04035063 0.02976504 0.01702964
v -0.04214459 0.02976504 0.01702420
v -0.04214459 0.02976504 0.01497919
v -0.04035063 0.02976504 0.01497396
v -0.03975652 0.02976504 0.01497335
v -0.03802779 0.02976504 0.01703004
v -0.03802779 0.03030452 0.01702742
v -0.03802779 0.03035908 0.01702582
v -0.03856784 0.03035908 0.01701272
v -0.03802779 0.03089856 0.01685991
v -0.04214459 0.03032477 0.01676045
v -0.04214459 0.03032814 0.01523047
v -0.03802919 0.03101107 0.01521597
v -0.03916241 0.03035908 0.01502711
v -0.03856784 0.03035908 0.01499067
v -0.03802779 0.03035908 0.01497758
v -0.03802779 0.02976504 0.01497335
v -0.03802779 0.03132834 0.01601710
v -0.03802779 0.03129290 0.01656374
v -0.03802779 0.03126759 0.01659072
v -0.03802779 0.03095482 0.01682911
v -0.04214459 0.03033602 0.01675501
v -0.04214459 0.03060042 0.01598408
v -0.04078770 0.03067186 0.01544288
v -0.03826450 0.03124734 0.01568388
v -0.03802779 0.03101276 0.01521697
v -0.03802779 0.03099982 0.01521194
v -0.03802779 0.03132834 0.01600361
v -0.03802919 0.03132891 0.01600744
v -0.04214459 0.03059648 0.01599616
v -0.04214459 0.02863350 0.01703004
v -0.04214459 0.02863350 0.01497335
v -0.03741889 0.02863350 0.01697628
v -0.03741932 0.02863350 0.01700498
v -0.03742405 0.02863350 0.01701776
v -0.03741963 0.02863350 0.01700621
v -0.03742496 0.02863350 0.01701940
v -0.03743807 0.02863350 0.01702982
v -0.03743652 0.02863350 0.01702970
v -0.03743652 0.02863350 0.01497369
v -0.03746049 0.02863350 0.01497335
v -0.03742315 0.02863350 0.01498790
v -0.03742334 0.02863350 0.01498767
v -0.03741889 0.02863350 0.01502804
v -0.03746049 0.02863350 0.01703004
f 28 26 32
f 32 26 22
f 30 19 16
f 31 28 32
f 6 15 16
f 27 15 26
f 26 28 27
f 28 15 27
f 16 15 29
f 29 15 28
f 28 31 29
f 29 30 16
f 4 5 1
f 12 11 13
f 13 5 12
f 12 5 11
f 13 25 14
f 14 5 13
f 24 25 13
f 33 22 26
f 25 22 33
f 32 22 21
f 21 31 32
f 2 6 7
f 7 6 19
f 16 19 18
f 19 6 18
f 3 4 1
f 23 22 25
f 25 24 23
f 17 6 16
f 16 18 17
f 17 18 6
f 10 3 9
f 4 3 10
f 11 5 10
f 5 4 10
f 2 7 8
f 19 20 8
f 8 7 19
f 2 35 33
f 1 5 33
f 33 34 1
f 33 14 25
f 26 15 33
f 33 35 34
f 33 6 2
f 15 6 33
f 5 14 33
f 36 47 21
f 47 31 21
f 22 37 21
f 21 37 36
f 1 34 3
f 34 48 3
f 3 48 9
f 13 40 38
f 38 24 13
f 42 40 13
f 13 11 42
f 44 20 43
f 43 20 19
f 19 30 43
f 30 46 43
f 45 46 30
f 30 29 45
f 45 29 31
f 45 31 47
f 39 37 22
f 22 23 39
f 24 38 39
f 39 23 24
f 8 35 2
f 8 44 35
f 8 20 44
f 34 35 41
f 41 47 36
f 41 48 34
f 36 37 41
f 35 44 41
f 44 43 41
f 41 38 40
f 40 42 41
f 41 45 47
f 37 39 41
f 41 43 46
f 46 45 41
f 41 39 38
f 9 48 41
f 41 10 9
f 41 42 11
f 11 10 41
