# https://github.com/mikedh/trimesh
v 0.05758471 -0.05408027 0.01894808
v 0.05727288 -0.05450544 0.01885573
v 0.05758471 -0.05450544 0.01893022
v 0.05803701 -0.05348553 0.01885267
v 0.05811706 -0.05170188 0.01890062
v 0.05817455 -0.04872995 0.01886491
v 0.05772563 -0.04831871 0.01886287
v 0.05717164 -0.05450544 0.01878225
v 0.05770015 -0.05450544 0.01888532
v 0.05799169 -0.05408027 0.01878889
v 0.05824941 -0.05348553 0.01802200
v 0.05836192 -0.05229663 0.01802200
v 0.05842821 -0.05110774 0.01818935
v 0.05844039 -0.05051360 0.01830773
v 0.05846203 -0.04932470 0.01845518
v 0.05847172 -0.04872995 0.01850876
v 0.05847556 -0.04839018 0.01852815
v 0.05847601 -0.04831871 0.01852968
v 0.05813081 -0.05110774 0.01889144
v 0.05822123 -0.04831871 0.01881644
v 0.05814321 -0.05051360 0.01888328
v 0.05629072 -0.04831871 0.01703009
v 0.05629072 -0.05450544 0.01705662
v 0.05794141 -0.05450544 0.01867918
v 0.05815381 -0.05408027 0.01802200
v 0.05830691 -0.05348553 0.01700254
v 0.05838154 -0.05289078 0.01700254
v 0.05848277 -0.05151050 0.01757043
v 0.05842235 -0.05170612 0.01795464
v 0.05849517 -0.05110774 0.01768013
v 0.05850848 -0.05051360 0.01779800
v 0.05851682 -0.04991885 0.01787249
v 0.05852517 -0.04932470 0.01794546
v 0.05853125 -0.04872995 0.01799903
v 0.05852584 -0.04831871 0.01808884
v 0.05849112 -0.04831871 0.01839702
v 0.05629072 -0.04831871 0.01497331
v 0.05629072 -0.05450544 0.01493300
v 0.05798741 -0.05450544 0.01846131
v 0.05805505 -0.05450544 0.01802200
v 0.05810916 -0.05450544 0.01700254
v 0.05820634 -0.05408027 0.01700254
v 0.05830758 -0.05348553 0.01598410
v 0.05838334 -0.05289078 0.01598410
v 0.05844061 -0.05229663 0.01598410
v 0.05843745 -0.05229663 0.01700254
v 0.05846677 -0.05186541 0.01700254
v 0.05848638 -0.05156864 0.01700254
v 0.05851457 -0.05110774 0.01700254
v 0.05854117 -0.05051360 0.01700254
v 0.05855786 -0.04991885 0.01700254
v 0.05857432 -0.04932470 0.01700254
v 0.05858672 -0.04872995 0.01700254
v 0.05857409 -0.04831871 0.01731072
v 0.05756103 -0.04831871 0.01373598
v 0.05700660 -0.05450544 0.01373598
v 0.05810916 -0.05450544 0.01569479
v 0.05820657 -0.05408027 0.01598410
v 0.05830826 -0.05348553 0.01496515
v 0.05838289 -0.05289078 0.01496515
v 0.05843949 -0.05229663 0.01496515
v 0.05846812 -0.05188419 0.01496515
v 0.05846835 -0.05187510 0.01598410
v 0.05848706 -0.05157833 0.01598410
v 0.05851592 -0.05110774 0.01598410
v 0.05854365 -0.05051360 0.01496515
v 0.05857702 -0.04932470 0.01496515
v 0.05858943 -0.04872995 0.01496515
v 0.05859416 -0.04831871 0.01496515
v 0.05859123 -0.04831871 0.01700254
v 0.05858987 -0.04831871 0.01373598
v 0.05810195 -0.05450544 0.01373598
v 0.05810894 -0.05450544 0.01496515
v 0.05820657 -0.05408027 0.01496515
v 0.05830488 -0.05348553 0.01394569
v 0.05837883 -0.05289078 0.01394569
v 0.05843452 -0.05229663 0.01394569
v 0.05846541 -0.05186238 0.01394569
v 0.05848616 -0.05156501 0.01394569
v 0.05848751 -0.05158681 0.01496515
v 0.05851682 -0.05110774 0.01496515
v 0.05854117 -0.05051360 0.01394569
v 0.05855831 -0.04991885 0.01394569
v 0.05857500 -0.04932470 0.01394569
v 0.05858740 -0.04872995 0.01394569
v 0.05859190 -0.04831871 0.01394569
v 0.05859123 -0.04831871 0.01386405
v 0.05858514 -0.04872995 0.01373598
v 0.05820003 -0.05408027 0.01373598
v 0.05810466 -0.05450544 0.01394569
v 0.05810781 -0.05450544 0.01467584
v 0.05820274 -0.05408027 0.01394569
v 0.05831795 -0.05336318 0.01373598
v 0.05830239 -0.05348553 0.01373598
v 0.05837658 -0.05289078 0.01373598
v 0.05838807 -0.05276844 0.01373598
v 0.05843227 -0.05229663 0.01373598
v 0.05846429 -0.05184421 0.01373598
v 0.05848526 -0.05154744 0.01373598
v 0.05851434 -0.05110774 0.01394569
v 0.05853915 -0.05051360 0.01373598
v 0.05855966 -0.04979651 0.01373598
v 0.05857297 -0.04932470 0.01373598
v 0.05822123 -0.05395733 0.01373598
v 0.05851209 -0.05110774 0.01373598
v 0.05851772 -0.05098540 0.01373598
f 37 55 56
f 22 23 8
f 8 7 22
f 2 7 8
f 38 37 56
f 6 20 7
f 69 70 53
f 69 53 68
f 52 67 68
f 68 53 52
f 1 7 2
f 1 6 7
f 5 6 1
f 1 4 5
f 19 6 5
f 5 17 18
f 18 19 5
f 32 53 33
f 33 15 32
f 69 68 85
f 3 1 2
f 9 4 3
f 4 1 3
f 25 41 42
f 25 24 39
f 9 24 10
f 10 4 9
f 10 11 4
f 10 25 11
f 24 25 10
f 20 6 21
f 6 19 21
f 21 18 20
f 19 18 21
f 36 17 35
f 36 18 17
f 14 4 13
f 14 15 4
f 35 17 34
f 34 33 53
f 15 33 16
f 16 17 5
f 16 34 17
f 33 34 16
f 5 4 16
f 4 15 16
f 50 66 67
f 60 75 76
f 52 53 31
f 31 53 32
f 30 50 31
f 32 15 31
f 15 14 31
f 13 30 31
f 31 14 13
f 92 94 75
f 26 25 42
f 11 25 26
f 71 85 88
f 69 85 86
f 40 25 39
f 41 25 40
f 35 34 54
f 54 53 70
f 54 34 53
f 84 68 67
f 84 85 68
f 67 66 84
f 66 83 84
f 51 67 52
f 51 50 67
f 52 31 51
f 51 31 50
f 29 30 13
f 28 46 47
f 30 29 28
f 49 50 28
f 28 50 30
f 49 28 48
f 48 28 47
f 47 46 45
f 45 48 47
f 63 48 45
f 75 94 93
f 95 76 93
f 93 76 75
f 74 92 75
f 73 92 74
f 74 57 73
f 60 45 44
f 11 26 27
f 27 28 11
f 46 28 27
f 26 44 27
f 27 45 46
f 27 44 45
f 87 85 71
f 87 86 85
f 103 83 102
f 103 84 83
f 103 88 85
f 85 84 103
f 102 83 101
f 11 28 12
f 12 28 29
f 12 29 13
f 13 4 12
f 4 11 12
f 42 41 58
f 59 74 75
f 59 75 60
f 59 58 74
f 60 44 59
f 42 58 59
f 91 90 92
f 91 92 73
f 92 89 104
f 94 92 104
f 82 83 66
f 82 101 83
f 76 77 61
f 60 76 61
f 61 45 60
f 65 81 66
f 65 50 49
f 66 50 65
f 49 48 65
f 43 26 42
f 42 59 43
f 43 44 26
f 43 59 44
f 101 82 100
f 66 81 100
f 100 82 66
f 96 76 95
f 96 77 76
f 96 97 77
f 64 48 63
f 64 65 48
f 106 100 105
f 101 100 106
f 80 100 81
f 80 64 63
f 81 65 80
f 65 64 80
f 105 100 99
f 100 80 79
f 79 99 100
f 61 79 62
f 62 79 80
f 45 61 62
f 63 45 62
f 62 80 63
f 99 79 78
f 78 98 99
f 78 61 77
f 78 79 61
f 97 98 78
f 77 97 78
f 22 37 38
f 38 23 22
f 89 90 72
f 92 90 89
f 87 36 35
f 22 7 87
f 7 20 87
f 87 37 22
f 55 37 87
f 87 70 69
f 87 71 55
f 69 86 87
f 20 18 87
f 18 36 87
f 35 54 87
f 87 54 70
f 41 57 58
f 57 74 58
f 91 38 56
f 2 8 91
f 56 72 91
f 91 8 23
f 39 24 91
f 23 38 91
f 91 3 2
f 91 24 9
f 91 57 41
f 9 3 91
f 91 40 39
f 41 40 91
f 73 57 91
f 72 90 91
f 98 72 56
f 56 55 98
f 55 71 98
f 95 93 98
f 98 89 72
f 98 103 102
f 71 88 98
f 94 104 98
f 98 93 94
f 102 101 98
f 88 103 98
f 98 96 95
f 98 104 89
f 98 106 105
f 97 96 98
f 101 106 98
f 105 99 98
