# https://github.com/mikedh/trimesh
v -0.02876264 -0.05331887 0.01703015
v -0.02876264 -0.05631890 0.01703795
v -0.02876264 -0.05331887 0.01497328
v -0.05408730 -0.05331887 0.01703015
v -0.05408730 -0.05631890 0.01719047
v -0.02876264 -0.05631890 0.01470185
v -0.04153900 -0.05631890 0.01470161
v -0.05408730 -0.05331887 0.01497328
v -0.05408730 -0.05631890 0.01479395
v -0.04213642 -0.05631890 0.01470210
v -0.04272888 -0.05631890 0.01470649
f 5 1 4
f 5 2 1
f 8 3 7
f 7 3 6
f 10 8 7
f 11 9 8
f 8 10 11
f 1 3 8
f 4 1 8
f 6 3 1
f 1 2 6
f 4 8 9
f 9 5 4
f 11 6 2
f 2 5 11
f 7 6 11
f 5 9 11
f 11 10 7
