# https://github.com/mikedh/trimesh
v 0.02879817 0.05223364 0.00049167
v 0.05413939 0.05223364 0.00049167
v 0.02879817 0.05223364 0.00185104
v 0.05511613 0.04590114 0.00049167
v 0.05511613 0.05223364 0.00049180
v 0.05511613 0.03150422 0.00185131
v 0.05286885 0.05223364 0.00185104
v 0.05511613 0.05223364 0.00185037
v 0.05511613 0.04458391 0.00185104
v 0.05405692 0.05223364 0.00185090
v 0.05493573 0.05223364 0.00185050
v 0.05465224 0.05223364 0.00185064
v 0.02879450 0.04094560 0.00049167
v 0.02879450 0.04094560 0.00185104
v 0.05508833 0.02859150 0.00049162
v 0.05457131 0.02859150 0.00049161
v 0.05511613 0.02859150 0.00185131
v 0.02879450 0.02859150 0.00185104
v 0.03008857 0.02859150 0.00185105
v 0.02879450 0.02859150 0.00049148
v 0.04254036 0.02859150 0.00049148
v 0.05511613 0.02859150 0.00049167
f 22 15 4
f 7 3 6
f 2 5 4
f 9 7 6
f 21 2 16
f 7 9 10
f 19 17 6
f 11 9 8
f 12 10 9
f 9 11 12
f 20 1 20
f 13 1 20
f 2 21 20
f 20 1 2
f 4 15 16
f 16 2 4
f 17 9 6
f 17 22 4
f 4 5 17
f 17 5 8
f 8 9 17
f 14 1 13
f 3 1 14
f 13 20 14
f 20 18 14
f 19 16 15
f 15 22 19
f 20 21 19
f 19 20 20
f 19 18 20
f 21 16 19
f 22 17 19
f 19 14 18
f 6 3 19
f 3 14 19
f 3 7 12
f 12 1 3
f 12 2 1
f 8 5 12
f 5 2 12
f 7 10 12
f 12 11 8
