# https://github.com/mikedh/trimesh
v -0.03244904 0.03576218 0.01598398
v -0.03207926 0.03576218 0.01519867
v -0.03238608 0.03576218 0.01636817
v -0.03057446 0.04135601 0.01656128
v -0.03059291 0.04135601 0.01626246
v -0.03060196 0.04135601 0.01598398
v -0.03056939 0.04135601 0.01541836
v -0.03143306 0.03630486 0.01502974
v -0.03143306 0.03576218 0.01498282
v -0.03024448 0.04135601 0.01516888
v -0.03208867 0.03576218 0.01678760
v -0.03041490 0.04135601 0.01669417
v -0.02964965 0.04135601 0.01497416
v -0.03083858 0.03630486 0.01497315
v -0.03083858 0.03576218 0.01497315
v -0.03208288 0.03576218 0.01679083
v -0.03024448 0.04135601 0.01682868
v -0.02905518 0.04135601 0.01497315
v -0.02964965 0.04106030 0.01497376
v -0.02964965 0.04046614 0.01497315
v -0.03143306 0.03576218 0.01702038
v -0.03143306 0.03630486 0.01697306
v -0.02994851 0.04135601 0.01693702
v -0.03138095 0.03576218 0.01702541
v -0.02964965 0.04135601 0.01702924
v -0.03083858 0.03576218 0.01703004
v -0.03083858 0.03630486 0.01703004
v -0.02964965 0.04106030 0.01702964
v -0.02935404 0.04135601 0.01702984
v -0.02905518 0.04135601 0.01703004
v -0.02964965 0.04046614 0.01703004
v -0.02875600 0.03576218 0.01497315
v -0.02875600 0.03576218 0.01703004
v -0.02875600 0.04135601 0.01703004
v -0.02875600 0.04135601 0.01497315
f 3 4 1
f 3 11 4
f 6 7 1
f 1 7 2
f 4 11 12
f 11 17 12
f 14 15 9
f 14 9 13
f 1 4 5
f 5 6 1
f 10 2 7
f 25 22 21
f 9 2 8
f 2 10 8
f 8 10 13
f 13 9 8
f 21 22 16
f 16 17 11
f 16 22 17
f 24 25 21
f 17 22 23
f 22 25 23
f 27 24 26
f 25 24 27
f 13 18 19
f 19 18 20
f 19 20 14
f 19 14 13
f 30 29 31
f 28 29 25
f 31 29 28
f 28 27 31
f 25 27 28
f 35 33 32
f 34 33 35
f 24 15 32
f 32 33 24
f 1 2 24
f 24 33 26
f 24 3 1
f 11 3 24
f 9 15 24
f 24 2 9
f 24 16 11
f 21 16 24
f 18 35 32
f 32 15 18
f 15 14 18
f 14 20 18
f 26 33 30
f 30 33 34
f 30 27 26
f 31 27 30
f 4 12 30
f 34 35 30
f 30 5 4
f 17 23 30
f 13 10 30
f 7 6 30
f 30 12 17
f 6 5 30
f 30 10 7
f 30 18 13
f 30 23 25
f 35 18 30
f 25 29 30
