# https://github.com/mikedh/trimesh
v 0.02879767 0.04042432 0.01497335
v 0.02879767 0.04042432 0.01703004
v 0.02968502 0.04042432 0.01497335
v 0.02968502 0.04042432 0.01703004
v 0.03027969 0.04042432 0.01509698
v 0.03380501 0.03273733 0.01497677
v 0.03380501 0.03269441 0.01497637
v 0.03380501 0.03214125 0.01497335
v 0.03027969 0.04042432 0.01690400
v 0.03380501 0.03210072 0.01703004
v 0.03380501 0.03269441 0.01702723
v 0.03064700 0.04042432 0.01534765
v 0.03380501 0.03333102 0.01505510
v 0.03065339 0.04042432 0.01663562
v 0.03380501 0.03328810 0.01695192
v 0.03072410 0.04042432 0.01598408
v 0.03380501 0.03406300 0.01577247
v 0.03380501 0.03387464 0.01530234
v 0.03380501 0.03386510 0.01529610
v 0.03380501 0.03385795 0.01669622
v 0.03380501 0.03388418 0.01668152
v 0.03380501 0.03408446 0.01598408
v 0.02879450 0.03634741 0.01497335
v 0.02879450 0.03634741 0.01703004
v 0.03380501 0.02859150 0.01497335
v 0.02879450 0.02859150 0.01497335
v 0.02879450 0.02859150 0.01703004
v 0.03380501 0.02859150 0.01703004
f 3 5 6
f 16 17 12
f 15 9 11
f 8 3 7
f 7 3 6
f 4 11 9
f 4 10 11
f 22 17 16
f 21 22 14
f 14 22 16
f 14 9 15
f 18 12 17
f 18 19 12
f 5 12 13
f 12 19 13
f 6 5 13
f 20 14 15
f 21 14 20
f 1 23 24
f 24 2 1
f 27 24 26
f 26 24 23
f 26 25 28
f 28 27 26
f 3 26 23
f 25 26 3
f 3 23 1
f 3 8 25
f 2 24 4
f 4 24 27
f 4 27 28
f 28 10 4
f 16 12 14
f 1 2 14
f 14 3 1
f 5 3 14
f 14 12 5
f 2 4 14
f 14 4 9
f 25 8 20
f 20 10 28
f 28 25 20
f 20 7 6
f 20 18 17
f 15 11 20
f 6 13 20
f 8 7 20
f 17 22 20
f 11 10 20
f 20 22 21
f 19 18 20
f 20 13 19
