# https://github.com/mikedh/trimesh
v 0.05500517 -0.04218597 0.00049165
v 0.05500517 -0.04218597 0.00185134
v 0.05500517 -0.02860988 0.00049165
v 0.05639552 -0.02851567 0.00048532
v 0.05639131 -0.04218597 0.00048560
v 0.05628962 -0.04218597 0.00234337
v 0.05647315 -0.02860988 0.00329633
v 0.05500517 -0.02860988 0.00185134
v 0.05699001 -0.02851567 0.00058054
v 0.05699001 -0.02860988 0.00058054
v 0.05639552 -0.04218597 0.00048560
v 0.05750513 -0.04218597 0.00234337
v 0.05753862 -0.02860988 0.00329633
v 0.05739502 -0.02851567 0.00094351
v 0.05699001 -0.04218597 0.00058962
v 0.05698604 -0.04218597 0.00058879
v 0.05749645 -0.04218597 0.00171044
v 0.05752993 -0.02851567 0.00273413
v 0.05751208 -0.02860988 0.00171568
v 0.05738708 -0.04218597 0.00095011
v 0.05751208 -0.02851567 0.00171568
v 0.05752249 -0.02910969 0.00234337
v 0.05752274 -0.02888202 0.00234337
v 0.05647264 -0.02845850 0.00329633
v 0.05575332 -0.02845850 0.00260982
v 0.05500596 -0.02845850 0.00185134
v 0.05500596 -0.02845850 0.00049166
v 0.05638974 -0.02845850 0.00048535
v 0.05639552 -0.02845850 0.00048533
v 0.05698741 -0.02845850 0.00058012
v 0.05753862 -0.02845850 0.00329633
v 0.05750079 -0.02845850 0.00164139
v 0.05751203 -0.02845850 0.00171568
v 0.05502232 -0.02845850 0.00186873
v 0.05502157 -0.02845850 0.00186797
v 0.05699001 -0.02845850 0.00058056
v 0.05735604 -0.02845850 0.00090860
v 0.05739499 -0.02845850 0.00094353
v 0.05752817 -0.02845850 0.00263612
v 0.05752989 -0.02845850 0.00273413
v 0.05753077 -0.02845850 0.00278824
f 3 4 1
f 1 4 5
f 4 11 5
f 7 2 6
f 20 15 14
f 14 19 20
f 20 19 17
f 13 12 17
f 13 17 18
f 10 15 16
f 16 11 10
f 10 14 15
f 10 11 4
f 38 14 37
f 22 17 19
f 22 18 17
f 21 18 19
f 21 32 33
f 19 14 21
f 28 29 4
f 9 10 4
f 14 10 9
f 19 18 23
f 23 22 19
f 18 22 23
f 18 40 41
f 39 40 18
f 26 8 35
f 8 34 35
f 36 9 30
f 24 25 7
f 7 25 2
f 7 31 24
f 13 31 7
f 6 12 7
f 7 12 13
f 17 2 1
f 1 5 17
f 17 15 20
f 17 11 16
f 17 12 6
f 6 2 17
f 16 15 17
f 17 5 11
f 26 27 8
f 8 27 3
f 1 2 8
f 8 3 1
f 21 14 38
f 38 32 21
f 2 25 34
f 34 8 2
f 3 27 28
f 4 3 28
f 36 37 9
f 9 37 14
f 41 31 13
f 13 18 41
f 39 21 33
f 18 21 39
f 24 31 30
f 30 27 26
f 30 39 33
f 30 25 24
f 30 28 27
f 30 32 38
f 38 37 30
f 26 35 30
f 30 37 36
f 33 32 30
f 31 41 30
f 30 34 25
f 29 28 30
f 30 41 40
f 40 39 30
f 30 35 34
f 4 29 30
f 30 9 4
