# https://github.com/mikedh/trimesh
v -0.03100496 0.04522949 0.01598398
v -0.03077726 0.04522949 0.01674572
v -0.03077549 0.04522949 0.01525627
v -0.03056917 0.04135656 0.01541836
v -0.03060224 0.04135656 0.01598398
v -0.03059276 0.04135656 0.01626246
v -0.03057424 0.04135656 0.01656128
v -0.03024404 0.04522229 0.01701394
v -0.03024404 0.04522949 0.01701394
v -0.03041465 0.04135656 0.01669417
v -0.03024404 0.04135656 0.01682868
v -0.03076932 0.04522949 0.01523975
v -0.03024404 0.04135656 0.01516888
v -0.02964976 0.04343860 0.01703004
v -0.03023699 0.04522949 0.01701413
v -0.02994823 0.04135656 0.01693702
v -0.02964976 0.04135656 0.01702924
v -0.03025241 0.04522949 0.01499248
v -0.02964976 0.04135656 0.01497416
v -0.03024404 0.04522229 0.01498946
v -0.02964976 0.04522949 0.01703004
v -0.02935395 0.04135656 0.01702984
v -0.02905527 0.04135656 0.01703004
v -0.03024404 0.04522949 0.01498946
v -0.02905527 0.04135656 0.01497315
v -0.02964976 0.04343860 0.01497315
v -0.02964976 0.04522949 0.01497315
v -0.02875600 0.04522949 0.01703004
v -0.02875600 0.04522949 0.01497315
v -0.02875600 0.04135656 0.01497315
v -0.02875600 0.04135656 0.01703004
f 1 4 5
f 1 7 2
f 3 4 1
f 3 12 4
f 13 12 18
f 4 12 13
f 6 7 1
f 1 5 6
f 11 2 10
f 10 2 7
f 9 2 8
f 8 2 11
f 11 16 8
f 19 13 20
f 20 13 18
f 9 8 15
f 17 8 16
f 24 20 18
f 19 20 26
f 25 19 26
f 21 15 14
f 14 15 8
f 8 17 14
f 22 14 17
f 14 22 23
f 31 29 28
f 31 30 29
f 28 29 24
f 24 21 28
f 24 3 1
f 1 2 24
f 18 12 24
f 24 2 9
f 29 27 24
f 12 3 24
f 9 15 24
f 24 15 21
f 26 24 27
f 20 24 26
f 26 30 25
f 29 30 26
f 26 27 29
f 23 31 28
f 28 21 23
f 21 14 23
f 25 30 23
f 23 5 4
f 23 16 11
f 7 6 23
f 30 31 23
f 23 19 25
f 4 13 23
f 11 10 23
f 23 13 19
f 23 6 5
f 23 10 7
f 23 17 16
f 23 22 17
