# https://github.com/mikedh/trimesh
v 0.03372319 -0.03412484 0.01598408
v 0.03372319 -0.03409534 0.01629152
v 0.03372319 -0.03393694 0.01531784
v 0.04033561 -0.03064442 0.01538389
v 0.04033561 -0.03069686 0.01598408
v 0.04033561 -0.03065097 0.01658830
v 0.03372319 -0.03394787 0.01666421
v 0.04033561 -0.03064988 0.01659736
v 0.03372319 -0.03384190 0.01526590
v 0.04033561 -0.03029922 0.01513342
v 0.04034080 -0.02860817 0.01497335
v 0.04034080 -0.02860817 0.01703004
v 0.03372319 -0.03390198 0.01669904
v 0.04033561 -0.03030468 0.01686212
v 0.03372319 -0.03327167 0.01503980
v 0.03380417 -0.03327167 0.01504986
v 0.04033561 -0.02970495 0.01497355
v 0.04033561 -0.02910958 0.01497335
v 0.04033561 -0.02970495 0.01703004
v 0.04033561 -0.02971259 0.01702863
v 0.04033561 -0.03029922 0.01686555
v 0.03372319 -0.03335250 0.01695192
v 0.03372319 -0.03267630 0.01497597
v 0.03380417 -0.03267630 0.01497637
v 0.03439953 -0.03208203 0.01497376
v 0.03380417 -0.03208203 0.01497335
v 0.03974803 -0.02970495 0.01497335
v 0.03372319 -0.03216396 0.01703004
v 0.03439953 -0.03208203 0.01702984
v 0.03372319 -0.03275823 0.01702723
v 0.03372319 -0.03208203 0.01497335
v 0.03372319 -0.03267630 0.01702763
v 0.03372319 -0.02860817 0.01703004
v 0.03372319 -0.02860817 0.01497335
v 0.03372481 -0.02845850 0.01497335
v 0.04034080 -0.02845850 0.01703004
v 0.03372483 -0.02845850 0.01703004
v 0.03372425 -0.02845850 0.01700230
v 0.04034080 -0.02845850 0.01497335
v 0.03372459 -0.02845850 0.01497347
v 0.03372460 -0.02845850 0.01497346
v 0.03372430 -0.02845850 0.01498226
v 0.03372442 -0.02845850 0.01497586
v 0.03372430 -0.02845850 0.01702082
v 0.03372460 -0.02845850 0.01702994
v 0.03372443 -0.02845850 0.01702763
v 0.03372429 -0.02845850 0.01702045
v 0.03372425 -0.02845850 0.01500016
v 0.03372426 -0.02845850 0.01499463
v 0.03372430 -0.02845850 0.01498242
f 11 12 5
f 11 5 4
f 4 10 11
f 4 5 1
f 11 10 17
f 19 29 30
f 19 30 22
f 31 26 23
f 3 4 1
f 10 4 3
f 15 23 24
f 24 17 15
f 23 17 24
f 27 17 26
f 23 26 25
f 25 17 23
f 26 17 25
f 6 5 12
f 12 8 6
f 1 5 6
f 6 2 1
f 6 8 2
f 12 21 14
f 14 8 12
f 2 8 7
f 8 14 7
f 12 19 20
f 20 21 12
f 22 21 20
f 20 19 22
f 10 3 9
f 11 17 18
f 17 27 18
f 13 21 22
f 13 14 21
f 13 7 14
f 29 19 28
f 16 9 15
f 10 9 16
f 15 17 16
f 16 17 10
f 34 43 40
f 38 33 47
f 45 33 37
f 45 46 33
f 30 29 32
f 29 28 32
f 35 34 41
f 34 40 41
f 34 48 49
f 49 50 34
f 42 43 34
f 34 50 42
f 33 46 44
f 44 47 33
f 39 36 12
f 39 12 11
f 38 48 33
f 33 48 34
f 18 39 11
f 35 39 18
f 26 31 18
f 18 34 35
f 18 31 34
f 18 27 26
f 12 36 28
f 28 36 37
f 28 19 12
f 37 33 28
f 22 30 32
f 34 31 32
f 32 23 15
f 1 2 32
f 32 3 1
f 15 9 32
f 32 31 23
f 32 13 22
f 2 7 32
f 32 33 34
f 32 9 3
f 7 13 32
f 32 28 33
f 36 39 44
f 44 39 35
f 37 36 44
f 44 48 38
f 44 45 37
f 35 41 44
f 44 40 43
f 44 49 48
f 43 42 44
f 46 45 44
f 44 41 40
f 50 49 44
f 44 42 50
