# https://github.com/mikedh/trimesh
v 0.05808238 0.04160717 0.01389381
v 0.05753656 0.04159693 0.00329766
v 0.05765834 0.04160717 0.00976592
v 0.05661603 0.04160717 0.01389381
v 0.05810306 0.03091267 0.01389381
v 0.05647306 0.04159693 0.00329766
v 0.05662715 0.04160717 0.00976592
v 0.05660821 0.04101588 0.01389381
v 0.05810410 0.02912855 0.01389381
v 0.05660734 0.04042202 0.01389381
v 0.05663514 0.02859150 0.01389381
v 0.05810410 0.02859150 0.01389381
v 0.05759664 0.02859150 0.00302869
v 0.05757046 0.02859150 0.00247189
v 0.05756439 0.02859150 0.00235404
v 0.05634800 0.02859150 0.00235404
v 0.05634964 0.02859150 0.00247793
v 0.05768024 0.02859150 0.00481758
v 0.05634978 0.02859150 0.00248460
v 0.05647259 0.02859150 0.00828687
v 0.05647559 0.02859150 0.00841856
v 0.05661296 0.02859150 0.01381449
v 0.05661325 0.02859150 0.01381642
f 18 5 9
f 11 10 23
f 12 18 9
f 1 2 3
f 4 6 8
f 10 8 17
f 23 10 22
f 10 21 22
f 5 18 13
f 7 6 4
f 20 21 10
f 10 17 19
f 19 20 10
f 14 2 1
f 15 2 14
f 6 15 16
f 6 2 15
f 8 5 1
f 9 5 8
f 1 4 8
f 10 11 8
f 8 12 9
f 11 12 8
f 17 6 16
f 17 8 6
f 1 5 13
f 13 14 1
f 7 4 1
f 1 3 7
f 2 6 7
f 7 3 2
f 19 11 23
f 16 15 19
f 19 12 11
f 15 14 19
f 19 17 16
f 23 22 19
f 18 12 19
f 19 13 18
f 19 22 21
f 14 13 19
f 21 20 19
