# https://github.com/mikedh/trimesh
v 0.04761353 -0.05195443 0.01598398
v 0.04761353 -0.05198765 0.01643945
v 0.04761353 -0.05208730 0.01534103
v 0.03988481 -0.05324522 0.01598398
v 0.04761353 -0.05207332 0.01663517
v 0.03988481 -0.05347251 0.01673384
v 0.04761353 -0.05228587 0.01520471
v 0.03988481 -0.05347801 0.01525244
v 0.03988481 -0.05324922 0.01597129
v 0.04761353 -0.05218321 0.01672861
v 0.03988481 -0.05408020 0.01702380
v 0.04761353 -0.05228337 0.01678700
v 0.04761353 -0.05289130 0.01498564
v 0.04747734 -0.05289130 0.01498906
v 0.03988481 -0.05408020 0.01497959
v 0.03988481 -0.05360364 0.01519123
v 0.03988481 -0.05450605 0.01702723
v 0.04688341 -0.05348575 0.01703004
v 0.04761353 -0.05334938 0.01703004
v 0.04761353 -0.05289130 0.01701796
v 0.04761353 -0.05275493 0.01699863
v 0.04761353 -0.05348575 0.01497315
v 0.04747734 -0.05348575 0.01497315
v 0.04688341 -0.05348575 0.01497335
v 0.03988481 -0.05421582 0.01497698
v 0.04467412 -0.05450605 0.01703004
v 0.04509933 -0.05408020 0.01703004
v 0.03988481 -0.05450605 0.01497456
v 0.04761353 -0.05450605 0.01703004
v 0.04761353 -0.05450605 0.01497315
v 0.04509933 -0.05408020 0.01497315
v 0.04509933 -0.05450605 0.01497315
f 3 7 8
f 8 9 3
f 3 9 4
f 4 1 3
f 8 7 16
f 7 15 16
f 4 6 2
f 2 1 4
f 32 28 31
f 17 27 18
f 15 13 24
f 24 25 15
f 28 25 24
f 24 31 28
f 7 13 14
f 14 15 7
f 14 13 15
f 6 10 5
f 5 2 6
f 12 10 6
f 27 17 26
f 21 12 11
f 11 12 6
f 18 19 11
f 11 17 18
f 23 13 22
f 23 24 13
f 31 24 23
f 21 11 20
f 20 11 19
f 26 30 29
f 32 30 26
f 26 28 32
f 26 17 28
f 29 19 26
f 18 27 26
f 26 19 18
f 4 9 11
f 11 6 4
f 11 9 8
f 15 25 11
f 8 16 11
f 11 16 15
f 11 25 28
f 28 17 11
f 22 30 23
f 23 30 32
f 32 31 23
f 22 13 20
f 20 30 22
f 20 3 1
f 1 2 20
f 29 30 20
f 7 3 20
f 20 13 7
f 10 12 20
f 20 5 10
f 2 5 20
f 20 12 21
f 20 19 29
