# https://github.com/mikedh/trimesh
v -0.05282274 -0.02860907 0.00049157
v -0.05282274 -0.02860907 0.00165991
v -0.05233268 -0.02860907 0.00185108
v -0.05282274 -0.02860644 0.00185108
v -0.02875600 -0.02860907 0.00185108
v -0.02875600 -0.02860907 0.00049157
v -0.05282274 -0.02845850 0.00185108
v -0.05227224 -0.02845850 0.00185112
v -0.05276066 -0.02845850 0.00185112
v -0.02875600 -0.02845850 0.00049157
v -0.05282274 -0.02845850 0.00049157
v -0.05268990 -0.02845850 0.00049157
v -0.05276696 -0.02845850 0.00185112
v -0.02875600 -0.02845850 0.00185112
f 1 11 12
f 2 3 4
f 7 4 13
f 4 9 13
f 12 6 1
f 12 10 6
f 2 4 7
f 2 11 1
f 7 11 2
f 1 6 5
f 5 2 1
f 3 2 5
f 6 10 5
f 5 10 14
f 8 11 7
f 10 12 8
f 8 12 11
f 7 13 8
f 14 10 8
f 8 13 9
f 3 5 8
f 8 5 14
f 4 3 8
f 8 9 4
