# https://github.com/mikedh/trimesh
v 0.05300034 0.03876171 0.01598399
v 0.05308771 0.03876171 0.01534315
v 0.05300987 0.03876171 0.01613092
v 0.05336153 0.04362519 0.01598399
v 0.05345516 0.03876171 0.01510165
v 0.05347857 0.04362519 0.01552382
v 0.05356621 0.04362519 0.01523543
v 0.05308172 0.03876171 0.01663879
v 0.05355804 0.04362519 0.01675398
v 0.05405967 0.03923544 0.01497373
v 0.05405967 0.03876171 0.01497332
v 0.05386098 0.04362519 0.01508104
v 0.05405967 0.04362519 0.01498484
v 0.05312990 0.03876171 0.01667880
v 0.05405967 0.04362519 0.01702236
v 0.05345488 0.03876171 0.01689706
v 0.05442576 0.04362519 0.01497676
v 0.05465412 0.04362519 0.01497332
v 0.05578096 0.03923544 0.01496584
v 0.05578096 0.03876171 0.01496605
v 0.05578096 0.04167552 0.01496605
v 0.05578096 0.04108133 0.01496584
v 0.05465412 0.04362519 0.01703024
v 0.05358581 0.03876171 0.01695001
v 0.05405967 0.03923544 0.01702943
v 0.05557655 0.04362519 0.01497312
v 0.05578096 0.04226970 0.01496726
v 0.05578096 0.03876171 0.01703024
v 0.05578096 0.04362519 0.01703024
v 0.05405967 0.03876171 0.01703004
v 0.05418025 0.03876171 0.01703024
v 0.05578096 0.04362519 0.01497312
f 1 4 2
f 3 4 1
f 19 20 11
f 8 9 4
f 4 3 8
f 2 7 5
f 6 2 4
f 6 7 2
f 16 15 9
f 24 15 16
f 13 5 12
f 12 5 7
f 11 18 21
f 24 30 25
f 25 15 24
f 23 15 25
f 25 30 23
f 23 30 31
f 9 8 14
f 14 16 9
f 27 21 18
f 19 11 22
f 11 21 22
f 13 17 10
f 11 5 10
f 10 5 13
f 10 17 18
f 10 18 11
f 32 27 26
f 26 27 18
f 28 29 31
f 31 29 23
f 14 20 28
f 1 2 14
f 2 5 14
f 14 3 1
f 14 11 20
f 14 8 3
f 24 16 14
f 14 5 11
f 14 30 24
f 28 31 14
f 14 31 30
f 28 20 22
f 22 20 19
f 22 29 28
f 22 32 29
f 22 27 32
f 21 27 22
f 4 9 26
f 29 32 26
f 13 12 26
f 23 29 26
f 26 15 23
f 26 6 4
f 9 15 26
f 26 17 13
f 7 6 26
f 26 12 7
f 18 17 26
