# https://github.com/mikedh/trimesh
v 0.05817926 -0.02860907 0.01887770
v 0.05848280 -0.02860907 0.01855250
v 0.05810922 -0.02860907 0.01887468
v 0.05772566 -0.04831871 0.01886260
v 0.05817926 -0.04635084 0.01887770
v 0.05854605 -0.02860907 0.01802192
v 0.05848280 -0.04635084 0.01855250
v 0.05773155 -0.02860907 0.01885706
v 0.05629072 -0.04831871 0.01703022
v 0.05822120 -0.04831871 0.01881628
v 0.05817926 -0.04753928 0.01887216
v 0.05817926 -0.04694506 0.01887669
v 0.05629072 -0.02860907 0.01703022
v 0.05860385 -0.02860907 0.01700254
v 0.05854605 -0.04635084 0.01802192
v 0.05848235 -0.04694506 0.01855099
v 0.05629072 -0.04831871 0.01497333
v 0.05847600 -0.04831871 0.01852935
v 0.05847804 -0.04799267 0.01853690
v 0.05848031 -0.04753928 0.01854445
v 0.05629072 -0.02860907 0.01471307
v 0.05860521 -0.02860907 0.01598416
v 0.05860385 -0.04635084 0.01700254
v 0.05854514 -0.04694506 0.01802192
v 0.05756108 -0.04831871 0.01373547
v 0.05629072 -0.04218936 0.01472818
v 0.05657748 -0.04099898 0.01373547
v 0.05657906 -0.04112246 0.01373547
v 0.05658586 -0.04159513 0.01373547
v 0.05659176 -0.04172054 0.01373547
v 0.05664118 -0.04221251 0.01373547
v 0.05849119 -0.04831871 0.01839746
v 0.05854129 -0.04753928 0.01802192
v 0.05660559 -0.02860907 0.01373547
v 0.05660536 -0.02863994 0.01373547
v 0.05657657 -0.04040476 0.01373547
v 0.05629072 -0.04040669 0.01470401
v 0.05858118 -0.02860907 0.01496477
v 0.05860521 -0.04635084 0.01598416
v 0.05860657 -0.04516239 0.01496477
v 0.05860408 -0.04456624 0.01394590
v 0.05860113 -0.04397202 0.01373547
v 0.05860272 -0.04694506 0.01700254
v 0.05858980 -0.04831871 0.01373547
v 0.05629072 -0.04159513 0.01470854
v 0.05852587 -0.04831871 0.01808887
v 0.05852383 -0.04816823 0.01812160
v 0.05857416 -0.04831871 0.01731062
v 0.05859343 -0.04813351 0.01700254
v 0.05859887 -0.04753928 0.01700254
v 0.05791835 -0.02860907 0.01373547
v 0.05629072 -0.04100091 0.01470553
v 0.05852655 -0.02860907 0.01446389
v 0.05859660 -0.04337780 0.01373547
v 0.05860408 -0.04694506 0.01598416
v 0.05860544 -0.04694506 0.01496477
v 0.05860635 -0.04635084 0.01496477
v 0.05860408 -0.04635084 0.01394590
v 0.05860204 -0.04503892 0.01373547
v 0.05860181 -0.04456624 0.01373547
v 0.05860181 -0.04753928 0.01496477
v 0.05859206 -0.04831871 0.01394590
v 0.05859206 -0.04813351 0.01373547
v 0.05859116 -0.04831871 0.01700254
v 0.05859365 -0.04831871 0.01527990
v 0.05859411 -0.04831871 0.01496477
v 0.05859614 -0.04813351 0.01496477
v 0.05851635 -0.02860907 0.01437127
v 0.05860340 -0.04694506 0.01394590
v 0.05860204 -0.04635084 0.01373547
v 0.05859977 -0.04753928 0.01394590
v 0.05859411 -0.04813351 0.01394590
v 0.05859773 -0.04753928 0.01373547
v 0.05860136 -0.04694506 0.01373547
f 9 4 13
f 8 13 4
f 3 4 1
f 3 8 4
f 10 11 4
f 1 4 5
f 4 11 12
f 12 5 4
f 58 41 40
f 54 51 68
f 62 72 66
f 17 31 25
f 5 12 7
f 50 49 61
f 43 50 61
f 42 41 60
f 41 59 60
f 57 58 40
f 40 39 57
f 39 56 57
f 63 62 44
f 72 62 63
f 30 31 17
f 36 37 21
f 16 12 11
f 16 7 12
f 11 10 16
f 66 49 65
f 65 49 64
f 33 49 50
f 67 49 66
f 67 61 49
f 66 72 67
f 72 61 67
f 43 61 55
f 55 61 56
f 55 56 39
f 71 73 74
f 71 61 72
f 22 39 40
f 40 41 22
f 22 41 42
f 17 26 27
f 27 28 17
f 27 26 45
f 45 36 27
f 17 28 29
f 29 30 17
f 52 36 45
f 37 36 52
f 35 21 34
f 35 36 21
f 20 16 10
f 7 16 15
f 69 71 74
f 69 57 56
f 58 57 69
f 42 54 38
f 38 22 42
f 19 10 18
f 19 20 10
f 33 20 19
f 32 19 18
f 33 19 32
f 33 46 48
f 64 49 48
f 49 33 48
f 24 15 16
f 16 20 24
f 24 20 33
f 24 50 43
f 24 33 50
f 43 23 24
f 23 15 24
f 53 54 68
f 53 38 54
f 47 32 46
f 47 46 33
f 33 32 47
f 70 59 41
f 41 58 70
f 1 5 2
f 5 7 2
f 39 23 55
f 55 23 43
f 71 63 73
f 72 63 71
f 22 23 39
f 22 14 23
f 52 17 9
f 13 21 52
f 9 13 52
f 21 37 52
f 52 26 17
f 45 26 52
f 44 25 35
f 34 51 35
f 35 54 42
f 42 60 35
f 74 73 35
f 31 30 35
f 51 54 35
f 35 70 74
f 35 25 31
f 35 63 44
f 35 60 59
f 59 70 35
f 73 63 35
f 28 27 35
f 35 29 28
f 35 27 36
f 30 29 35
f 6 2 15
f 15 2 7
f 15 14 6
f 23 14 15
f 74 70 69
f 69 70 58
f 61 71 69
f 56 61 69
f 9 17 48
f 48 4 9
f 17 25 48
f 48 10 4
f 48 62 66
f 18 10 48
f 66 65 48
f 44 62 48
f 48 25 44
f 48 65 64
f 48 32 18
f 46 32 48
f 34 21 53
f 53 51 34
f 53 3 1
f 13 8 53
f 53 21 13
f 8 3 53
f 68 51 53
f 1 2 53
f 6 14 53
f 53 2 6
f 14 22 53
f 22 38 53
