# https://github.com/mikedh/trimesh
v 0.05707449 -0.04515479 0.00234342
v 0.05646697 -0.04372858 0.00234342
v 0.05839564 -0.04515479 0.00234342
v 0.05753130 -0.04515479 0.01058581
v 0.05636819 -0.04339508 0.00234342
v 0.05674887 -0.04290653 0.01058581
v 0.05839520 -0.04456775 0.00234342
v 0.05848465 -0.04456775 0.00690110
v 0.05848487 -0.04515479 0.00689142
v 0.05855502 -0.04515479 0.01058581
v 0.05632291 -0.04312095 0.00234342
v 0.05666541 -0.04260935 0.01058581
v 0.05838987 -0.04397339 0.00234342
v 0.05848354 -0.04397339 0.00696000
v 0.05850063 -0.04397339 0.00782974
v 0.05852039 -0.04397339 0.00884956
v 0.05850263 -0.04456775 0.00782974
v 0.05852216 -0.04515479 0.00883664
v 0.05854148 -0.04515479 0.00985565
v 0.05854148 -0.04456775 0.00986856
v 0.05855457 -0.04456775 0.01058581
v 0.05630271 -0.04278465 0.00234342
v 0.05662057 -0.04219028 0.01058581
v 0.05816702 -0.04335911 0.00234342
v 0.05820875 -0.04337867 0.00273472
v 0.05847822 -0.04307904 0.00829043
v 0.05848066 -0.04361754 0.00711249
v 0.05854436 -0.04337867 0.01058581
v 0.05853993 -0.04397339 0.00986856
v 0.05852216 -0.04456775 0.00884956
v 0.05855324 -0.04397339 0.01058581
v 0.05629361 -0.04252798 0.00234342
v 0.05660636 -0.04177192 0.01058581
v 0.05748180 -0.04158754 0.00234342
v 0.05850663 -0.04300780 0.01058581
v 0.05848554 -0.04306402 0.00884956
v 0.05853526 -0.04327705 0.01058581
v 0.05852927 -0.04337867 0.00986856
v 0.05850685 -0.04337867 0.00884956
v 0.05629006 -0.04219028 0.00234342
v 0.05660081 -0.04159557 0.01058581
v 0.05628740 -0.04158754 0.00234342
v 0.05763385 -0.04158754 0.01057613
v 0.05763385 -0.04158754 0.01058581
v 0.05628806 -0.04193361 0.00234342
v 0.05660081 -0.04158754 0.01058581
v 0.05628740 -0.04159557 0.00234342
f 1 4 2
f 11 5 12
f 6 2 4
f 5 2 6
f 12 5 6
f 14 7 13
f 15 7 14
f 3 7 8
f 8 9 3
f 17 9 8
f 8 7 15
f 18 9 17
f 17 30 18
f 23 11 12
f 22 11 23
f 23 32 22
f 34 26 25
f 25 26 13
f 13 26 27
f 27 14 13
f 27 28 15
f 15 14 27
f 34 43 35
f 35 26 34
f 35 43 44
f 28 31 29
f 29 30 17
f 29 20 30
f 31 20 29
f 32 23 33
f 34 25 24
f 24 25 13
f 38 26 28
f 28 27 38
f 28 26 37
f 10 20 21
f 21 20 31
f 19 20 10
f 15 28 16
f 28 29 16
f 16 29 17
f 16 8 15
f 17 8 16
f 41 47 45
f 45 40 41
f 41 40 32
f 32 33 41
f 39 27 26
f 26 38 39
f 39 38 27
f 35 37 36
f 26 35 36
f 36 37 26
f 43 34 42
f 43 46 44
f 42 46 43
f 42 34 24
f 24 3 1
f 32 40 24
f 5 11 24
f 1 2 24
f 24 7 3
f 24 2 5
f 13 7 24
f 24 11 22
f 22 32 24
f 24 47 42
f 45 47 24
f 24 40 45
f 1 3 19
f 10 4 19
f 19 4 1
f 3 9 19
f 9 18 19
f 19 18 30
f 30 20 19
f 41 46 42
f 42 47 41
f 41 4 10
f 12 6 41
f 28 37 41
f 44 46 41
f 41 23 12
f 41 6 4
f 41 31 28
f 41 35 44
f 10 21 41
f 41 33 23
f 41 37 35
f 41 21 31
