# https://github.com/mikedh/trimesh
v 0.05176337 0.04800712 0.01598395
v 0.05193522 0.04777978 0.01656670
v 0.05186798 0.04800712 0.01663154
v 0.05178224 0.04800712 0.01575499
v 0.05336159 0.04362519 0.01598395
v 0.05355823 0.04362519 0.01675397
v 0.05227304 0.04800712 0.01688909
v 0.05187505 0.04800712 0.01535025
v 0.05193955 0.04778708 0.01541005
v 0.05347839 0.04362519 0.01552382
v 0.05405964 0.04362519 0.01702239
v 0.05287080 0.04755845 0.01701152
v 0.05287080 0.04800712 0.01702460
v 0.05194191 0.04800712 0.01529507
v 0.05356609 0.04362519 0.01523547
v 0.05465386 0.04362519 0.01703004
v 0.05405964 0.04518049 0.01702984
v 0.05346542 0.04696396 0.01702924
v 0.05346542 0.04800712 0.01703004
v 0.05346542 0.04755845 0.01703004
v 0.05227382 0.04800712 0.01510901
v 0.05386065 0.04362519 0.01508122
v 0.05578056 0.04362519 0.01703004
v 0.05578056 0.04800712 0.01703004
v 0.05242209 0.04800712 0.01504417
v 0.05405964 0.04362519 0.01498497
v 0.05578056 0.04362519 0.01497309
v 0.05578056 0.04800712 0.01497329
v 0.05287080 0.04800712 0.01497893
v 0.05287080 0.04755845 0.01499182
v 0.05405964 0.04458599 0.01497692
v 0.05442577 0.04362519 0.01497671
v 0.05301670 0.04800712 0.01497430
v 0.05561460 0.04362519 0.01497309
v 0.05346542 0.04800712 0.01497329
v 0.05405964 0.04518049 0.01497370
v 0.05465386 0.04362519 0.01497329
v 0.05346542 0.04755845 0.01497329
f 2 3 1
f 1 5 2
f 5 6 2
f 2 6 3
f 7 6 11
f 3 6 7
f 11 16 17
f 5 9 10
f 10 9 15
f 4 5 1
f 4 9 5
f 31 32 26
f 26 33 31
f 32 31 37
f 13 7 12
f 11 13 12
f 12 7 11
f 18 13 11
f 11 17 18
f 22 21 26
f 15 21 22
f 14 21 15
f 26 21 25
f 33 35 38
f 38 37 33
f 36 31 33
f 33 37 36
f 36 37 31
f 9 4 8
f 15 9 8
f 8 14 15
f 26 25 30
f 37 38 34
f 34 38 35
f 20 19 13
f 13 18 20
f 20 18 17
f 20 17 16
f 29 30 25
f 29 33 26
f 26 30 29
f 23 27 28
f 28 24 23
f 23 16 34
f 34 27 23
f 5 10 34
f 34 6 5
f 34 16 11
f 34 22 26
f 11 6 34
f 26 32 34
f 34 10 15
f 32 37 34
f 15 22 34
f 34 28 27
f 34 35 28
f 23 24 20
f 20 16 23
f 24 19 20
f 24 28 29
f 1 3 29
f 3 7 29
f 29 8 4
f 28 35 29
f 29 35 33
f 29 7 13
f 29 4 1
f 29 19 24
f 21 14 29
f 29 25 21
f 13 19 29
f 14 8 29
