# https://github.com/mikedh/trimesh
v -0.02876264 -0.05450647 0.01703009
v -0.02876264 -0.05764720 0.01895910
v -0.02876264 -0.05450647 0.01497334
v -0.02876264 -0.05805085 0.01879309
v -0.02876264 -0.05652983 0.01388929
v -0.02876264 -0.05869992 0.01578500
v -0.02876264 -0.05813039 0.01388929
v -0.02876264 -0.05877691 0.01536848
v -0.02876264 -0.05869014 0.01419348
v -0.02876264 -0.05885134 0.01496489
v -0.02875600 -0.05450647 0.01703009
v -0.02875600 -0.05764708 0.01895907
v -0.02875600 -0.05450723 0.01703059
v -0.02875600 -0.05450647 0.01497334
v -0.02875600 -0.05805073 0.01879315
v -0.02875600 -0.05764720 0.01895910
v -0.02875600 -0.05877682 0.01536897
v -0.02875600 -0.05869992 0.01578500
v -0.02875600 -0.05813043 0.01388929
v -0.02875600 -0.05868994 0.01419335
v -0.02875600 -0.05885134 0.01496489
v -0.02875600 -0.05877700 0.01536801
v -0.02875600 -0.05652983 0.01388929
v -0.02875600 -0.05805085 0.01879309
v -0.02875600 -0.05869014 0.01419348
v -0.02875600 -0.05868995 0.01419335
v -0.02875600 -0.05868995 0.01419336
f 13 11 1
f 16 12 2
f 4 24 15
f 8 22 17
f 27 25 9
f 2 12 13
f 2 13 1
f 15 2 4
f 16 2 15
f 4 6 18
f 18 24 4
f 9 2 1
f 10 8 9
f 1 3 9
f 9 6 4
f 9 3 5
f 5 7 9
f 4 2 9
f 9 8 6
f 14 3 1
f 1 11 14
f 5 3 14
f 14 23 5
f 19 7 5
f 5 23 19
f 22 8 10
f 10 21 22
f 10 9 25
f 25 21 10
f 6 8 17
f 17 18 6
f 20 9 7
f 7 19 20
f 26 22 21
f 26 12 16
f 11 13 26
f 13 12 26
f 16 15 26
f 26 14 11
f 26 15 24
f 24 18 26
f 23 14 26
f 26 19 23
f 21 25 26
f 18 17 26
f 26 17 22
f 26 20 19
