# https://github.com/mikedh/trimesh
v -0.02876264 -0.05753155 0.01058582
v -0.02876264 -0.05813033 0.01388921
v -0.02876264 -0.05650772 0.01058582
v -0.02876264 -0.05652980 0.01388921
v -0.02875600 -0.05650771 0.01058582
v -0.02875600 -0.05753183 0.01058582
v -0.02875600 -0.05813034 0.01388777
v -0.02875600 -0.05652978 0.01388838
v -0.02875600 -0.05813034 0.01388782
v -0.02875600 -0.05813034 0.01388790
v -0.02875600 -0.05813035 0.01388835
v -0.02875600 -0.05813036 0.01388879
v -0.02875600 -0.05813037 0.01388921
v -0.02875600 -0.05813031 0.01388923
v -0.02875600 -0.05652994 0.01388923
v -0.02875600 -0.05652979 0.01388923
f 6 2 1
f 3 4 5
f 2 6 7
f 5 4 8
f 4 16 8
f 15 16 4
f 13 2 12
f 14 2 13
f 11 12 2
f 10 11 2
f 2 7 9
f 9 10 2
f 5 6 3
f 3 6 1
f 1 2 3
f 2 4 3
f 14 4 2
f 14 15 4
f 9 6 5
f 5 8 9
f 9 7 6
f 9 8 16
f 16 15 9
f 15 14 9
