# https://github.com/mikedh/trimesh
v -0.05669623 -0.05503690 0.01462541
v -0.05411897 -0.05656103 0.01462541
v -0.05669623 -0.05512427 0.00979437
v -0.05669623 -0.05690853 0.01462541
v -0.05408730 -0.05658651 0.01462541
v -0.05408730 -0.05675340 0.00979437
v -0.05669623 -0.05672792 0.00979437
v -0.05669623 -0.05690460 0.01419980
v -0.05650059 -0.05704461 0.01462541
v -0.05408730 -0.05789754 0.01462541
v -0.05408730 -0.05778974 0.00979437
v -0.05648629 -0.05691721 0.00979437
v -0.05669623 -0.05678168 0.01002041
v -0.05669623 -0.05690181 0.01394539
v -0.05640277 -0.05710510 0.01394539
v -0.05640277 -0.05711210 0.01462541
v -0.05423901 -0.05787010 0.01462541
v -0.05461955 -0.05779197 0.01394539
v -0.05408730 -0.05788830 0.01398842
v -0.05408730 -0.05779197 0.00986909
v -0.05461955 -0.05768753 0.00979437
v -0.05646075 -0.05693457 0.00979437
v -0.05640277 -0.05701437 0.01088816
v -0.05669623 -0.05681724 0.01101017
v -0.05669623 -0.05688445 0.01315141
v -0.05640277 -0.05708213 0.01292632
v -0.05604674 -0.05732351 0.01394539
v -0.05605466 -0.05732715 0.01462541
v -0.05617317 -0.05725434 0.01462541
v -0.05669623 -0.05687940 0.01292632
v -0.05461955 -0.05779842 0.01462541
v -0.05481749 -0.05774773 0.01462541
v -0.05521413 -0.05764608 0.01462541
v -0.05521413 -0.05763936 0.01394539
v -0.05461955 -0.05777321 0.01292632
v -0.05408730 -0.05787038 0.01292632
v -0.05408730 -0.05781942 0.01088816
v -0.05461955 -0.05774745 0.01190724
v -0.05461955 -0.05771917 0.01088816
v -0.05461955 -0.05768977 0.00986909
v -0.05521413 -0.05756236 0.01088816
v -0.05521413 -0.05752876 0.00979437
v -0.05595071 -0.05724146 0.00979437
v -0.05595403 -0.05728150 0.01088816
v -0.05599029 -0.05729802 0.01190724
v -0.05640277 -0.05704993 0.01190724
v -0.05669623 -0.05684776 0.01190724
v -0.05669623 -0.05685364 0.01208694
v -0.05602299 -0.05731287 0.01292632
v -0.05572570 -0.05744391 0.01292632
v -0.05574971 -0.05745427 0.01394539
v -0.05575737 -0.05745763 0.01462541
v -0.05539214 -0.05758448 0.01462541
v -0.05521413 -0.05761949 0.01292632
v -0.05408730 -0.05784518 0.01190724
v -0.05521413 -0.05759260 0.01190724
v -0.05561588 -0.05739631 0.00979437
v -0.05524069 -0.05752008 0.00979437
v -0.05591317 -0.05726302 0.00979437
v -0.05591597 -0.05726442 0.00986909
v -0.05565674 -0.05741395 0.01088816
v -0.05569301 -0.05742991 0.01190724
v -0.05589145 -0.05727282 0.00979437
f 2 3 1
f 5 6 2
f 2 6 3
f 54 50 62
f 62 50 49
f 33 53 51
f 51 53 52
f 52 28 51
f 54 35 34
f 33 51 34
f 34 50 54
f 34 51 50
f 61 44 57
f 38 35 54
f 28 15 27
f 27 51 28
f 49 50 27
f 50 51 27
f 43 44 23
f 45 62 49
f 45 23 44
f 45 61 62
f 44 61 45
f 18 19 10
f 18 34 35
f 36 19 18
f 35 36 18
f 31 32 18
f 18 32 33
f 33 34 18
f 55 36 35
f 37 38 20
f 38 39 20
f 56 61 57
f 54 62 56
f 62 61 56
f 56 38 54
f 56 39 38
f 15 16 9
f 29 15 28
f 29 16 15
f 15 30 26
f 49 27 26
f 26 27 15
f 43 23 22
f 57 44 60
f 43 59 60
f 60 44 43
f 17 18 10
f 31 18 17
f 40 21 11
f 11 20 40
f 40 20 39
f 39 56 40
f 41 56 57
f 41 42 21
f 21 40 41
f 41 40 56
f 25 30 15
f 15 14 25
f 8 9 4
f 15 9 8
f 8 14 15
f 13 23 24
f 48 26 30
f 47 24 46
f 46 24 23
f 49 26 46
f 46 48 47
f 26 48 46
f 46 45 49
f 23 45 46
f 12 23 13
f 12 22 23
f 12 13 7
f 57 60 63
f 63 60 59
f 58 41 57
f 42 41 58
f 55 38 37
f 35 38 55
f 5 10 20
f 20 6 5
f 20 11 6
f 10 19 20
f 20 19 36
f 36 55 20
f 20 55 37
f 17 10 5
f 17 2 1
f 5 2 17
f 1 4 17
f 52 53 17
f 33 32 17
f 17 28 52
f 17 53 33
f 17 29 28
f 17 32 31
f 4 9 17
f 17 9 16
f 16 29 17
f 48 4 1
f 3 7 48
f 1 3 48
f 7 13 48
f 30 25 48
f 48 8 4
f 13 24 48
f 48 25 14
f 14 8 48
f 48 24 47
f 6 11 58
f 3 6 58
f 57 63 58
f 58 7 3
f 58 12 7
f 11 21 58
f 21 42 58
f 58 59 43
f 43 22 58
f 22 12 58
f 58 63 59
