# https://github.com/mikedh/trimesh
v -0.04898517 -0.05705293 -0.00044818
v -0.04898517 -0.05732446 -0.00032585
v -0.04898517 -0.05680584 -0.00025366
v -0.04867380 -0.05705293 -0.00044417
v -0.04451314 -0.05762947 -0.00018647
v -0.04510772 -0.05763081 -0.00018647
v -0.04898517 -0.05762100 -0.00018547
v -0.04570094 -0.05763101 -0.00018647
v -0.04689008 -0.05763101 -0.00018647
v -0.04807923 -0.05762716 -0.00018547
v -0.04867380 -0.05762370 -0.00018547
v -0.04898517 -0.05658300 -0.00007618
v -0.04510772 -0.05705293 -0.00039604
v -0.04570094 -0.05705293 -0.00040406
v -0.04451314 -0.05705293 -0.00038200
v -0.04391857 -0.05752767 -0.00005011
v -0.04451314 -0.05791081 0.00069690
v -0.04510772 -0.05791331 0.00069690
v -0.04570094 -0.05791370 0.00069690
v -0.04898517 -0.05775244 0.00023466
v -0.04748465 -0.05791177 0.00069690
v -0.04807923 -0.05790658 0.00069690
v -0.04689008 -0.05791370 0.00069690
v -0.04748465 -0.05763005 -0.00018547
v -0.04898517 -0.05617042 0.00038105
v -0.04807923 -0.05617042 0.00038206
v -0.04629551 -0.05617042 0.00038406
v -0.04570094 -0.05617042 0.00038506
v -0.04510772 -0.05617042 0.00038606
v -0.04470104 -0.05617042 0.00038807
v -0.04451314 -0.05617042 0.00038908
v -0.04570094 -0.05659859 -0.00003106
v -0.04510772 -0.05660167 -0.00002303
v -0.04451314 -0.05660975 -0.00000799
v -0.04213486 -0.05617042 0.00047932
v -0.04213017 -0.05617254 0.00047932
v -0.04213017 -0.05645850 0.00047631
v -0.04391857 -0.05774859 0.00069690
v -0.04213017 -0.05646254 0.00047831
v -0.04213017 -0.05701502 0.00084229
v -0.04213017 -0.05701714 0.00084831
v -0.04213017 -0.05729213 0.00171564
v -0.04391857 -0.05781882 0.00171564
v -0.04361122 -0.05795180 0.00514186
v -0.04418029 -0.05795064 0.00301313
v -0.04391857 -0.05804475 0.00681034
v -0.04391857 -0.05807553 0.00783009
v -0.04391857 -0.05810478 0.00884883
v -0.04391857 -0.05813038 0.00979337
v -0.04396152 -0.05813096 0.00979337
v -0.04451314 -0.05813577 0.00979337
v -0.04510772 -0.05813634 0.00979337
v -0.04898517 -0.05789484 0.00069690
v -0.04867380 -0.05790003 0.00069690
v -0.04689008 -0.05813634 0.00979337
v -0.04748465 -0.05813384 0.00979337
v -0.04807923 -0.05812865 0.00979337
v -0.04812284 -0.05812826 0.00979337
v -0.04867380 -0.05812287 0.00979337
v -0.04898517 -0.05617042 0.00191117
v -0.04389643 -0.05617042 0.00040211
v -0.04213017 -0.05617042 0.00220095
v -0.04213017 -0.05732484 0.00273539
v -0.04340721 -0.05803512 0.00979337
v -0.04355083 -0.05798798 0.00681034
v -0.04358773 -0.05796719 0.00579161
v -0.04898517 -0.05811787 0.00979337
v -0.04871742 -0.05812230 0.00979337
v -0.04898517 -0.05709488 0.00979337
v -0.04332400 -0.05653355 0.00979337
v -0.04272943 -0.05649256 0.00979337
v -0.04213486 -0.05648832 0.00979337
v -0.04213486 -0.05617042 0.00222501
v -0.04213017 -0.05617042 0.00222501
v -0.04213017 -0.05734505 0.00339014
v -0.04213017 -0.05735987 0.00390553
v -0.04213017 -0.05751920 0.00979337
v -0.04213017 -0.05648832 0.00979337
f 31 32 12
f 12 32 13
f 72 73 60
f 43 44 17
f 42 44 43
f 50 17 49
f 50 51 17
f 67 53 54
f 12 13 3
f 30 31 12
f 12 29 30
f 70 60 69
f 15 35 36
f 36 37 15
f 15 34 35
f 5 13 15
f 49 17 48
f 17 44 45
f 45 46 17
f 44 46 45
f 38 43 17
f 42 43 38
f 65 64 49
f 42 64 65
f 77 64 76
f 20 54 53
f 7 22 20
f 22 54 20
f 59 54 22
f 51 52 18
f 17 51 18
f 18 5 17
f 1 3 4
f 4 5 1
f 26 12 25
f 26 27 12
f 28 29 12
f 12 27 28
f 72 60 71
f 60 70 71
f 36 35 62
f 35 34 61
f 17 46 47
f 47 48 17
f 47 46 44
f 16 41 42
f 42 38 16
f 40 41 16
f 16 39 40
f 17 5 16
f 16 38 17
f 37 39 16
f 5 15 16
f 16 15 37
f 49 48 66
f 66 65 49
f 66 47 44
f 48 47 66
f 66 44 42
f 42 65 66
f 63 64 42
f 10 2 9
f 6 2 1
f 1 5 6
f 5 18 6
f 21 56 57
f 21 57 22
f 55 56 21
f 21 23 55
f 21 22 7
f 67 54 68
f 54 59 68
f 22 57 58
f 58 59 22
f 19 18 52
f 19 6 18
f 14 3 13
f 14 4 3
f 14 13 5
f 5 4 14
f 31 61 33
f 32 31 33
f 33 61 34
f 34 15 33
f 33 13 32
f 33 15 13
f 75 76 64
f 64 63 75
f 7 2 11
f 2 10 11
f 11 21 7
f 10 21 11
f 9 2 8
f 2 6 8
f 6 19 8
f 9 23 24
f 23 21 24
f 24 10 9
f 24 21 10
f 72 78 74
f 74 73 72
f 20 3 1
f 20 60 25
f 25 12 20
f 20 53 67
f 67 69 20
f 1 2 20
f 69 60 20
f 12 3 20
f 20 2 7
f 25 60 61
f 61 62 35
f 73 74 61
f 61 60 73
f 31 30 61
f 61 26 25
f 61 30 29
f 29 28 61
f 27 26 61
f 61 28 27
f 74 62 61
f 58 78 72
f 58 69 67
f 55 52 58
f 58 56 55
f 49 64 58
f 58 50 49
f 58 64 77
f 77 78 58
f 51 50 58
f 58 52 51
f 72 71 58
f 58 70 69
f 57 56 58
f 67 68 58
f 58 71 70
f 58 68 59
f 19 52 55
f 55 23 19
f 40 39 75
f 75 78 77
f 75 37 36
f 42 41 75
f 75 62 74
f 75 41 40
f 75 74 78
f 77 76 75
f 75 39 37
f 36 62 75
f 75 63 42
f 8 19 23
f 8 23 9
