# https://github.com/mikedh/trimesh
v -0.05507664 -0.05617042 -0.00032914
v -0.02876683 -0.05617042 0.00047411
v -0.05507664 -0.05617042 0.00249564
v -0.05507664 -0.05468444 0.00049180
v -0.02876683 -0.05465703 0.00049153
v -0.02876683 -0.05617042 0.00222273
v -0.05507664 -0.05468444 0.00185083
v -0.02876683 -0.05465703 0.00185083
v -0.02875600 -0.05465703 0.00049153
v -0.02875600 -0.05541267 0.00008176
v -0.02875600 -0.05616515 -0.00030727
v -0.02875600 -0.05617041 0.00222269
v -0.02875600 -0.05616515 0.00231192
v -0.02875600 -0.05520993 0.00208658
v -0.02875600 -0.05465703 0.00185083
v -0.02875600 -0.05617041 0.00047379
v -0.02875600 -0.05541267 0.00217279
v -0.02875600 -0.05523715 0.00209817
f 10 11 1
f 1 4 5
f 3 8 7
f 3 13 17
f 3 17 18
f 18 14 3
f 6 3 1
f 1 2 6
f 9 10 5
f 5 10 1
f 1 3 7
f 7 4 1
f 7 5 4
f 8 5 7
f 16 2 1
f 1 11 16
f 12 6 2
f 2 16 12
f 3 6 12
f 12 13 3
f 9 5 15
f 15 5 8
f 15 17 13
f 15 10 9
f 11 10 15
f 15 18 17
f 15 16 11
f 13 12 15
f 15 12 16
f 14 18 15
f 15 8 3
f 3 14 15
