# https://github.com/mikedh/trimesh
v 0.05277395 -0.05450605 0.01497323
v 0.05563239 -0.05450605 0.01497283
v 0.05277395 -0.05450605 0.01703007
v 0.05277395 -0.04932377 0.01497323
v 0.05580004 -0.04215492 0.01496656
v 0.05580004 -0.05450484 0.01497283
v 0.05580004 -0.05450605 0.01701613
v 0.05580004 -0.05450605 0.01703027
v 0.05277395 -0.04878330 0.01703007
v 0.05277395 -0.04872889 0.01497424
v 0.05282874 -0.04872889 0.01497323
v 0.05461194 -0.04215492 0.01497323
v 0.05580004 -0.04215492 0.01703007
v 0.05461194 -0.04215492 0.01703007
v 0.05282874 -0.04813521 0.01702846
v 0.05277395 -0.04819083 0.01702765
v 0.05277395 -0.04813521 0.01498313
v 0.05282874 -0.04813521 0.01497485
v 0.05457580 -0.04215492 0.01497545
v 0.05401774 -0.04215492 0.01698158
v 0.05282874 -0.04754153 0.01701007
v 0.05277395 -0.04759594 0.01700320
v 0.05277395 -0.04754274 0.01501667
v 0.05282874 -0.04754153 0.01499303
v 0.05401774 -0.04215492 0.01501929
v 0.05357994 -0.04215492 0.01671329
v 0.05277395 -0.04700227 0.01690300
v 0.05277395 -0.04694665 0.01511485
v 0.05358705 -0.04215492 0.01526981
v 0.05399108 -0.04215492 0.01503465
v 0.05344605 -0.04215492 0.01598398
v 0.05277395 -0.04638562 0.01671511
v 0.05277395 -0.04641222 0.01672744
v 0.05277395 -0.04639408 0.01527263
v 0.05357786 -0.04215492 0.01531385
v 0.05277395 -0.04586328 0.01598398
v 0.05277395 -0.04603135 0.01629893
f 1 5 2
f 6 2 5
f 2 6 7
f 9 3 8
f 24 25 18
f 8 13 14
f 14 9 8
f 24 18 17
f 5 11 12
f 12 11 18
f 36 31 34
f 4 5 1
f 4 11 5
f 19 18 25
f 19 12 18
f 28 34 29
f 29 34 35
f 35 34 31
f 26 33 27
f 26 31 32
f 32 33 26
f 18 11 10
f 11 4 10
f 10 17 18
f 24 17 23
f 23 28 29
f 29 30 23
f 23 30 25
f 23 25 24
f 22 20 26
f 26 27 22
f 37 31 36
f 37 32 31
f 14 20 16
f 22 16 21
f 20 22 21
f 21 16 20
f 15 16 9
f 9 14 15
f 14 16 15
f 7 3 1
f 1 2 7
f 8 3 7
f 5 13 7
f 7 6 5
f 7 13 8
f 35 13 5
f 35 30 29
f 5 12 35
f 35 31 26
f 35 14 13
f 25 30 35
f 26 20 35
f 35 19 25
f 35 20 14
f 12 19 35
f 1 3 16
f 3 9 16
f 36 34 16
f 17 10 16
f 16 4 1
f 16 23 17
f 16 37 36
f 34 28 16
f 16 27 33
f 33 32 16
f 16 10 4
f 28 23 16
f 16 22 27
f 32 37 16
