# https://github.com/mikedh/trimesh
v 0.05511613 0.04994450 0.00049189
v 0.05652124 0.04994450 0.00041859
v 0.05511613 0.04994450 0.00185032
v 0.05511613 0.05457232 0.00049144
v 0.05652124 0.05457232 -0.00020389
v 0.05652124 0.04994450 0.00188459
v 0.05652124 0.05457187 0.00211424
v 0.05511613 0.05396525 0.00185100
v 0.05511613 0.05457232 0.00185100
v 0.05652124 0.05457232 0.00202846
v 0.05652014 0.05457232 0.00211379
f 5 2 1
f 1 4 5
f 3 6 7
f 11 9 7
f 7 9 8
f 8 3 7
f 10 11 7
f 2 6 3
f 1 2 3
f 1 3 8
f 8 4 1
f 8 9 4
f 7 6 10
f 10 6 2
f 2 5 10
f 4 9 10
f 10 5 4
f 9 11 10
