# https://github.com/mikedh/trimesh
v -0.05669648 -0.05692280 0.01700283
v -0.05680710 -0.05684554 0.01700283
v -0.05680067 -0.05683954 0.01496439
v -0.05669648 -0.05691892 0.01625555
v -0.05669648 -0.05686000 0.01802160
v -0.05676809 -0.05681308 0.01802160
v -0.05710441 -0.05654883 0.01700283
v -0.05709799 -0.05654318 0.01496439
v -0.05669648 -0.05691187 0.01496439
v -0.05679441 -0.05683425 0.01394562
v -0.05669648 -0.05677744 0.01857982
v -0.05671832 -0.05677074 0.01856996
v -0.05706540 -0.05650437 0.01802160
v -0.05733014 -0.05620696 0.01802160
v -0.05736433 -0.05625141 0.01700283
v -0.05736048 -0.05624612 0.01496439
v -0.05735582 -0.05623977 0.01394562
v -0.05709173 -0.05653718 0.01394562
v -0.05669648 -0.05690199 0.01394562
v -0.05677996 -0.05682190 0.01292684
v -0.05669648 -0.05642640 0.01879486
v -0.05694885 -0.05639888 0.01868734
v -0.05729498 -0.05616109 0.01853143
v -0.05753450 -0.05586368 0.01802160
v -0.05759792 -0.05586368 0.01700283
v -0.05759214 -0.05586368 0.01496439
v -0.05758427 -0.05586368 0.01394562
v -0.05756420 -0.05586368 0.01292684
v -0.05734442 -0.05622495 0.01292684
v -0.05707713 -0.05652237 0.01292684
v -0.05669648 -0.05687941 0.01292684
v -0.05669648 -0.05685365 0.01208728
v -0.05675942 -0.05680461 0.01190718
v -0.05669648 -0.05588908 0.01882712
v -0.05699750 -0.05586368 0.01892568
v -0.05738231 -0.05586368 0.01869809
v -0.05788994 -0.05497424 0.01853412
v -0.05779635 -0.05534399 0.01802160
v -0.05782556 -0.05541525 0.01700283
v -0.05782460 -0.05541420 0.01598316
v -0.05782380 -0.05541278 0.01496439
v -0.05782059 -0.05540644 0.01394562
v -0.05781176 -0.05538774 0.01292684
v -0.05779907 -0.05536092 0.01190718
v -0.05753498 -0.05586368 0.01190718
v -0.05732805 -0.05620378 0.01190718
v -0.05705673 -0.05650120 0.01190718
v -0.05669648 -0.05684801 0.01190718
v -0.05673646 -0.05678556 0.01088841
v -0.05757383 -0.05331887 0.01882712
v -0.05759181 -0.05408058 0.01894808
v -0.05669648 -0.05548899 0.01863716
v -0.05759181 -0.05467506 0.01892299
v -0.05760225 -0.05521098 0.01879844
v -0.05792879 -0.05467506 0.01863537
v -0.05816109 -0.05408058 0.01802160
v -0.05802319 -0.05467506 0.01802160
v -0.05791868 -0.05504728 0.01802160
v -0.05794709 -0.05511854 0.01700283
v -0.05794661 -0.05511608 0.01496439
v -0.05794436 -0.05510937 0.01394562
v -0.05793730 -0.05509067 0.01292684
v -0.05792686 -0.05506386 0.01190718
v -0.05791483 -0.05503387 0.01088841
v -0.05790166 -0.05500212 0.00986963
v -0.05778463 -0.05533094 0.01088841
v -0.05776969 -0.05529883 0.00986963
v -0.05774674 -0.05533764 0.00979437
v -0.05750256 -0.05586368 0.01088841
v -0.05730975 -0.05618015 0.01088841
v -0.05729835 -0.05616568 0.01028539
v -0.05703378 -0.05647756 0.01088841
v -0.05671639 -0.05676862 0.01004167
v -0.05669648 -0.05681696 0.01101026
v -0.05669648 -0.05678168 0.01002017
v -0.05669648 -0.05681273 0.01088841
v -0.05793393 -0.05331887 0.01885310
v -0.05727909 -0.05367345 0.01858072
v -0.05736273 -0.05331887 0.01852157
v -0.05804936 -0.05331887 0.01885310
v -0.05804422 -0.05348610 0.01885221
v -0.05669648 -0.05331887 0.01717755
v -0.05799895 -0.05408058 0.01878859
v -0.05825645 -0.05348610 0.01802160
v -0.05831409 -0.05348610 0.01700283
v -0.05821359 -0.05408058 0.01700283
v -0.05807793 -0.05467506 0.01700283
v -0.05807745 -0.05467506 0.01496439
v -0.05807296 -0.05467506 0.01394562
v -0.05805883 -0.05467506 0.01292684
v -0.05803796 -0.05467506 0.01190718
v -0.05790070 -0.05499965 0.00979437
v -0.05778382 -0.05526249 0.00979437
v -0.05777018 -0.05529283 0.00979437
v -0.05744107 -0.05590566 0.00979437
v -0.05737942 -0.05600550 0.00979437
v -0.05703875 -0.05641900 0.00979437
v -0.05698208 -0.05647897 0.00979437
v -0.05669648 -0.05672770 0.00979437
v -0.05827186 -0.05331887 0.01802160
v -0.05669648 -0.05331887 0.01482371
v -0.05833512 -0.05331887 0.01700283
v -0.05833608 -0.05331887 0.01598316
v -0.05831537 -0.05348610 0.01496439
v -0.05821391 -0.05408058 0.01496439
v -0.05820990 -0.05408058 0.01394562
v -0.05819689 -0.05408058 0.01292684
v -0.05817763 -0.05408058 0.01190718
v -0.05815548 -0.05408058 0.01088841
v -0.05813235 -0.05408058 0.00986963
v -0.05801420 -0.05467506 0.01088841
v -0.05797776 -0.05471034 0.00979437
v -0.05669648 -0.05512419 0.00979437
v -0.05722755 -0.05331887 0.00979437
v -0.05833640 -0.05331887 0.01525022
v -0.05833640 -0.05331887 0.01496439
v -0.05833400 -0.05331887 0.01423234
v -0.05831200 -0.05348610 0.01394562
v -0.05830012 -0.05348610 0.01292684
v -0.05828214 -0.05348610 0.01190718
v -0.05826159 -0.05348610 0.01088841
v -0.05823992 -0.05348610 0.00986963
v -0.05823831 -0.05348610 0.00979437
v -0.05813059 -0.05408058 0.00979437
v -0.05798594 -0.05467859 0.00979437
v -0.05825999 -0.05331887 0.00979437
v -0.05833287 -0.05331887 0.01394562
v -0.05832115 -0.05331887 0.01292684
v -0.05830349 -0.05331887 0.01190718
v -0.05828326 -0.05331887 0.01088841
v -0.05826769 -0.05331887 0.01015547
v -0.05826047 -0.05331887 0.00981587
f 101 113 114
f 79 52 82
f 81 80 100
f 80 81 51
f 34 35 21
f 34 52 50
f 50 51 34
f 34 51 35
f 37 23 36
f 78 79 50
f 50 52 78
f 52 79 78
f 118 119 106
f 118 128 119
f 37 55 56
f 56 55 83
f 88 106 89
f 91 92 65
f 106 119 107
f 89 106 107
f 5 6 1
f 5 11 12
f 12 6 5
f 13 6 12
f 12 23 13
f 13 7 6
f 38 23 37
f 37 56 57
f 77 51 50
f 80 51 77
f 35 51 53
f 53 81 83
f 53 51 81
f 22 23 12
f 22 36 23
f 22 11 21
f 12 11 22
f 21 35 22
f 35 36 22
f 119 128 129
f 105 118 106
f 106 88 105
f 128 118 127
f 100 102 84
f 84 56 83
f 84 81 100
f 83 81 84
f 89 107 90
f 92 91 111
f 111 124 125
f 42 43 27
f 91 90 108
f 108 90 107
f 20 31 19
f 75 98 99
f 14 13 23
f 14 25 15
f 15 7 14
f 7 13 14
f 16 7 15
f 27 17 16
f 95 69 68
f 96 71 95
f 39 38 58
f 58 38 37
f 37 57 58
f 26 25 41
f 41 42 26
f 26 42 27
f 27 16 26
f 15 25 26
f 26 16 15
f 40 39 41
f 41 25 40
f 40 25 39
f 24 38 39
f 39 25 24
f 25 14 24
f 23 38 24
f 24 14 23
f 54 36 35
f 35 53 54
f 54 53 83
f 83 55 54
f 54 55 37
f 37 36 54
f 104 105 86
f 118 105 104
f 104 103 115
f 85 84 102
f 85 104 86
f 86 56 85
f 56 84 85
f 102 103 85
f 103 104 85
f 112 111 125
f 92 111 112
f 43 42 62
f 89 90 62
f 68 67 94
f 68 69 45
f 45 67 68
f 45 69 46
f 46 29 45
f 109 108 123
f 91 108 109
f 97 71 96
f 72 97 98
f 71 97 72
f 2 3 1
f 1 6 2
f 6 7 2
f 20 19 10
f 19 9 10
f 10 9 3
f 39 58 59
f 123 108 122
f 108 121 122
f 119 129 120
f 120 121 108
f 129 130 120
f 120 130 121
f 120 107 119
f 120 108 107
f 116 104 115
f 63 62 90
f 43 62 63
f 93 94 67
f 43 63 44
f 27 43 28
f 28 45 29
f 43 44 28
f 28 44 45
f 28 17 27
f 28 29 17
f 110 123 124
f 110 109 123
f 91 109 110
f 124 111 110
f 110 111 91
f 71 72 47
f 98 75 73
f 73 72 98
f 73 47 72
f 32 31 20
f 1 3 4
f 3 9 4
f 20 10 18
f 17 29 18
f 89 62 61
f 61 88 89
f 61 42 41
f 61 62 42
f 87 58 57
f 87 59 58
f 87 56 86
f 87 57 56
f 88 59 87
f 86 105 87
f 87 105 88
f 126 123 132
f 123 122 132
f 132 122 121
f 117 127 118
f 118 104 117
f 104 116 117
f 64 90 91
f 64 63 90
f 64 91 65
f 65 44 64
f 64 44 63
f 67 45 66
f 45 44 66
f 66 93 67
f 92 93 66
f 65 92 66
f 66 44 65
f 70 47 46
f 71 47 70
f 46 69 70
f 70 95 71
f 69 95 70
f 49 73 75
f 47 73 49
f 20 18 30
f 30 18 29
f 30 29 46
f 46 47 30
f 8 10 3
f 8 18 10
f 8 2 7
f 3 2 8
f 7 16 8
f 8 16 17
f 17 18 8
f 60 59 88
f 88 61 60
f 60 61 41
f 41 39 60
f 39 59 60
f 121 130 131
f 131 132 121
f 76 49 75
f 33 49 48
f 48 32 33
f 33 32 20
f 20 30 33
f 47 49 33
f 33 30 47
f 48 49 74
f 49 76 74
f 93 126 114
f 114 113 93
f 93 112 125
f 93 113 99
f 99 98 93
f 125 124 93
f 93 123 126
f 93 95 68
f 124 123 93
f 68 94 93
f 96 95 93
f 92 112 93
f 93 97 96
f 98 97 93
f 50 79 131
f 131 101 114
f 114 126 131
f 131 116 115
f 115 103 131
f 100 80 131
f 82 101 131
f 131 79 82
f 131 77 50
f 131 102 100
f 80 77 131
f 131 129 128
f 128 127 131
f 131 103 102
f 131 130 129
f 126 132 131
f 127 117 131
f 131 117 116
f 74 101 82
f 74 34 21
f 99 113 74
f 82 52 74
f 74 5 1
f 113 101 74
f 21 11 74
f 52 34 74
f 31 32 74
f 11 5 74
f 74 19 31
f 74 75 99
f 1 4 74
f 74 9 19
f 74 32 48
f 74 4 9
f 74 76 75
