# https://github.com/mikedh/trimesh
v -0.05411772 0.05684544 0.01058551
v -0.05411772 0.05689928 0.01354247
v -0.05411772 0.05787941 0.01058551
v -0.04272895 0.05658866 0.01058551
v -0.04272895 0.05662607 0.01354247
v -0.05411772 0.05795203 0.01354247
v -0.05411772 0.05788075 0.01063298
v -0.05402337 0.05789668 0.01058551
v -0.04230935 0.05658464 0.01058551
v -0.04213307 0.05661500 0.01354247
v -0.04236894 0.05661852 0.01354247
v -0.05402834 0.05796897 0.01354247
v -0.05411772 0.05793962 0.01297198
v -0.05411772 0.05789182 0.01104717
v -0.05402337 0.05793140 0.01190740
v -0.05330831 0.05802666 0.01190740
v -0.05320404 0.05801375 0.01088798
v -0.05317424 0.05800972 0.01058551
v -0.04213307 0.05658330 0.01058551
v -0.04153967 0.05661332 0.01354247
v -0.05374778 0.05800737 0.01354247
v -0.05373785 0.05800604 0.01336388
v -0.05397123 0.05796612 0.01298500
v -0.05411772 0.05791832 0.01206631
v -0.05411772 0.05791429 0.01190740
v -0.05345977 0.05803270 0.01298500
v -0.05283409 0.05809945 0.01292624
v -0.05283409 0.05807614 0.01190740
v -0.05283409 0.05805065 0.01088798
v -0.05283906 0.05804243 0.01058551
v -0.04171595 0.05658246 0.01058551
v -0.04153967 0.05658212 0.01058551
v -0.04118214 0.05661332 0.01354247
v -0.05344239 0.05804444 0.01354247
v -0.05319411 0.05807128 0.01354247
v -0.05283409 0.05810985 0.01354247
v -0.05260071 0.05812746 0.01354247
v -0.05224070 0.05814389 0.01292624
v -0.05224070 0.05812126 0.01190740
v -0.05224070 0.05809627 0.01088798
v -0.05265781 0.05805652 0.01058551
v -0.03815060 0.05658212 0.01058551
v -0.05224070 0.05815430 0.01354247
v -0.05164481 0.05817929 0.01292624
v -0.05164481 0.05815664 0.01190740
v -0.05164481 0.05813182 0.01088798
v -0.05206441 0.05809912 0.01058551
v -0.05224070 0.05808855 0.01058551
v -0.05164481 0.05818952 0.01354247
v -0.05141143 0.05820159 0.01354247
v -0.05105142 0.05820964 0.01292624
v -0.05105142 0.05818716 0.01190740
v -0.05105142 0.05816251 0.01088798
v -0.05105142 0.05815496 0.01058551
v -0.05146853 0.05813333 0.01058551
v -0.05164481 0.05812411 0.01058551
v -0.04391574 0.05822591 0.01058551
v -0.04391574 0.05823396 0.01088798
v -0.04391574 0.05825945 0.01190740
v -0.04391574 0.05828226 0.01292624
v -0.04391574 0.05829266 0.01354247
v -0.05105142 0.05821987 0.01354247
v -0.05081555 0.05822826 0.01354247
v -0.05045553 0.05823061 0.01292624
v -0.05045553 0.05820830 0.01190740
v -0.05045553 0.05818381 0.01088798
v -0.05087514 0.05816134 0.01058551
v -0.04451162 0.05823027 0.01058551
v -0.04451162 0.05823782 0.01088798
v -0.04451162 0.05826231 0.01190740
v -0.04451162 0.05828478 0.01292624
v -0.04427576 0.05829400 0.01354247
v -0.05045553 0.05824084 0.01354247
v -0.04986214 0.05824687 0.01292624
v -0.04986214 0.05822457 0.01190740
v -0.04986214 0.05820025 0.01088798
v -0.05045553 0.05817626 0.01058551
v -0.04510502 0.05823077 0.01058551
v -0.04510502 0.05823832 0.01088798
v -0.04510502 0.05826281 0.01190740
v -0.04510502 0.05828511 0.01292624
v -0.04510502 0.05829535 0.01354247
v -0.04487164 0.05829517 0.01354247
v -0.04451162 0.05829484 0.01354247
v -0.04986214 0.05825710 0.01354247
v -0.04926626 0.05826197 0.01292624
v -0.04926626 0.05823966 0.01190740
v -0.04926626 0.05821517 0.01088798
v -0.04968586 0.05819723 0.01058551
v -0.04986214 0.05819270 0.01058551
v -0.04689018 0.05823077 0.01058551
v -0.04689018 0.05823832 0.01088798
v -0.04689018 0.05826281 0.01190740
v -0.04689018 0.05828511 0.01292624
v -0.04689018 0.05829517 0.01354247
v -0.04926626 0.05827203 0.01354247
v -0.04903287 0.05827589 0.01354247
v -0.04867286 0.05828176 0.01354247
v -0.04867286 0.05827153 0.01292624
v -0.04867286 0.05824939 0.01190740
v -0.04867286 0.05822490 0.01088798
v -0.04908997 0.05821065 0.01058551
v -0.04926626 0.05820763 0.01058551
v -0.04730730 0.05822910 0.01058551
v -0.04748358 0.05823580 0.01088798
v -0.04748358 0.05826029 0.01190740
v -0.04748358 0.05828260 0.01292624
v -0.04724771 0.05829367 0.01354247
v -0.04807946 0.05828729 0.01354247
v -0.04807946 0.05827723 0.01292624
v -0.04807946 0.05825492 0.01190740
v -0.04807946 0.05823061 0.01088798
v -0.04867286 0.05821736 0.01058551
v -0.04748358 0.05822826 0.01058551
v -0.04784359 0.05828947 0.01354247
v -0.04748358 0.05829266 0.01354247
v -0.04807946 0.05822306 0.01058551
v -0.02875600 0.05760632 0.01058551
v -0.02875600 0.05658229 0.01058551
v -0.02875600 0.05661349 0.01354247
v -0.02875600 0.05780973 0.01354247
v -0.02875600 0.05780972 0.01354195
v -0.02875600 0.05780973 0.01354235
v -0.02875600 0.05780973 0.01354215
v -0.02875600 0.05661348 0.01354154
v -0.02875600 0.05780972 0.01354189
f 5 2 1
f 4 5 1
f 118 57 126
f 11 4 10
f 5 4 11
f 119 125 42
f 120 33 42
f 42 125 120
f 19 20 10
f 60 71 61
f 70 71 60
f 60 59 70
f 82 71 81
f 13 6 12
f 7 8 3
f 14 8 7
f 15 8 14
f 31 32 20
f 20 19 31
f 10 4 9
f 9 19 10
f 83 71 82
f 83 84 71
f 61 71 72
f 71 84 72
f 122 126 57
f 57 58 122
f 68 58 57
f 59 58 68
f 82 81 94
f 25 15 14
f 24 15 25
f 8 15 16
f 23 13 12
f 23 16 15
f 24 13 23
f 23 15 24
f 82 94 95
f 92 106 93
f 93 106 94
f 18 8 17
f 8 16 17
f 22 34 26
f 22 23 12
f 26 16 22
f 16 23 22
f 67 54 53
f 38 43 44
f 37 43 38
f 18 29 30
f 36 37 27
f 27 37 38
f 27 16 26
f 27 35 36
f 34 35 27
f 26 34 27
f 92 91 104
f 69 68 78
f 78 79 69
f 70 59 69
f 59 68 69
f 70 69 80
f 80 69 79
f 80 71 70
f 80 81 71
f 21 22 12
f 34 22 21
f 53 54 46
f 46 56 47
f 47 40 46
f 49 44 43
f 48 40 47
f 28 40 29
f 28 29 18
f 18 17 28
f 28 17 16
f 16 27 28
f 100 101 88
f 108 95 94
f 110 99 98
f 100 99 110
f 55 46 54
f 56 46 55
f 38 44 39
f 39 46 40
f 40 28 39
f 39 27 38
f 39 28 27
f 44 49 50
f 41 30 29
f 29 40 41
f 40 48 41
f 100 110 111
f 113 101 112
f 112 111 106
f 112 101 100
f 100 111 112
f 86 99 100
f 85 96 86
f 74 85 86
f 98 99 86
f 103 88 102
f 102 101 113
f 102 88 101
f 52 44 51
f 51 50 62
f 44 50 51
f 52 51 65
f 65 51 64
f 116 108 107
f 107 108 94
f 94 106 107
f 107 115 116
f 110 115 107
f 45 39 44
f 46 39 45
f 45 44 52
f 45 52 53
f 53 46 45
f 113 112 117
f 105 112 106
f 105 104 114
f 105 106 92
f 92 104 105
f 89 88 103
f 100 88 87
f 87 86 100
f 98 86 97
f 97 86 96
f 63 73 64
f 63 51 62
f 64 51 63
f 66 90 77
f 77 67 66
f 66 67 53
f 53 52 66
f 52 65 66
f 109 110 98
f 109 115 110
f 90 66 76
f 76 89 90
f 65 75 76
f 76 66 65
f 88 89 76
f 76 75 87
f 76 87 88
f 42 33 20
f 20 32 42
f 122 58 59
f 59 124 122
f 123 121 120
f 123 119 118
f 120 125 123
f 118 126 123
f 123 125 119
f 61 121 123
f 123 60 61
f 123 124 59
f 59 60 123
f 25 3 1
f 1 2 25
f 6 13 25
f 2 6 25
f 14 7 25
f 25 13 24
f 25 7 3
f 78 91 79
f 79 91 92
f 80 79 92
f 92 93 80
f 80 94 81
f 80 93 94
f 73 85 74
f 74 64 73
f 107 111 110
f 106 111 107
f 114 117 105
f 105 117 112
f 1 3 89
f 89 57 118
f 118 119 89
f 30 41 89
f 89 4 1
f 3 8 89
f 89 68 57
f 119 42 89
f 32 31 89
f 89 8 18
f 47 56 89
f 89 42 32
f 89 9 4
f 18 30 89
f 89 31 19
f 19 9 89
f 78 68 89
f 114 104 89
f 89 67 77
f 89 91 78
f 54 67 89
f 89 48 47
f 103 102 89
f 89 104 91
f 77 90 89
f 89 55 54
f 56 55 89
f 89 41 48
f 89 117 114
f 89 102 113
f 113 117 89
f 61 72 109
f 109 6 2
f 120 121 109
f 109 33 120
f 2 5 109
f 109 11 10
f 109 21 12
f 10 20 109
f 12 6 109
f 109 121 61
f 5 11 109
f 20 33 109
f 98 97 109
f 109 83 82
f 95 108 109
f 84 83 109
f 109 72 84
f 82 95 109
f 36 35 109
f 109 37 36
f 109 35 34
f 43 37 109
f 109 63 62
f 34 21 109
f 109 49 43
f 62 50 109
f 109 108 116
f 109 50 49
f 109 96 85
f 85 73 109
f 116 115 109
f 109 97 96
f 73 63 109
f 75 64 74
f 75 65 64
f 74 86 75
f 86 87 75
