# https://github.com/mikedh/trimesh
v -0.05767832 0.05176137 0.01890036
v -0.05762599 0.05309866 0.01884389
v -0.05765295 0.05294927 0.01885305
v -0.05805826 0.05309866 0.01885305
v -0.05812464 0.05176137 0.01890036
v -0.05629927 0.05294927 0.01703290
v -0.05629927 0.05309866 0.01703290
v -0.05824630 0.05309866 0.01822785
v -0.05843570 0.05116622 0.01819275
v -0.05844793 0.05057106 0.01831026
v -0.05846946 0.04938317 0.01845677
v -0.05847920 0.04878801 0.01851018
v -0.05848305 0.04845309 0.01852850
v -0.05848532 0.04805793 0.01853714
v -0.05848758 0.04760012 0.01854478
v -0.05848962 0.04700496 0.01855088
v -0.05813846 0.05116622 0.01889120
v -0.05818626 0.04760012 0.01887238
v -0.05818626 0.04700496 0.01887696
v -0.05818626 0.04640981 0.01887798
v -0.05629927 0.05309866 0.01496907
v -0.05829909 0.05309866 0.01802182
v -0.05837045 0.05235652 0.01802182
v -0.05843004 0.05176860 0.01795620
v -0.05850276 0.05116622 0.01768354
v -0.05851590 0.05057106 0.01780054
v -0.05852428 0.04997832 0.01787430
v -0.05853244 0.04938317 0.01794704
v -0.05853856 0.04878801 0.01800046
v -0.05853131 0.04823141 0.01812204
v -0.05854875 0.04760012 0.01802182
v -0.05855238 0.04700496 0.01802182
v -0.05855329 0.04640981 0.01802182
v -0.05849008 0.04640981 0.01855241
v -0.05732195 0.05309866 0.01370392
v -0.05629927 0.04165341 0.01470760
v -0.05658700 0.04106066 0.01370392
v -0.05658858 0.04120041 0.01370392
v -0.05659470 0.04165341 0.01370392
v -0.05660195 0.04180520 0.01370392
v -0.05658609 0.04046792 0.01370392
v -0.05629927 0.04046792 0.01470047
v -0.05835754 0.05309866 0.01725571
v -0.05849030 0.05157343 0.01757314
v -0.05854875 0.05057106 0.01700288
v -0.05858206 0.04938317 0.01700288
v -0.05859406 0.04878801 0.01700288
v -0.05860064 0.04819286 0.01700288
v -0.05860630 0.04760012 0.01700288
v -0.05861015 0.04700496 0.01700288
v -0.05861106 0.04640981 0.01700288
v -0.05836683 0.05309866 0.01370392
v -0.05629927 0.04106307 0.01470149
v -0.05629927 0.04047274 0.01470047
v -0.05837204 0.05309866 0.01700288
v -0.05839039 0.05294927 0.01700288
v -0.05849415 0.05163366 0.01700288
v -0.05852247 0.05116622 0.01700288
v -0.05844612 0.05235652 0.01700288
v -0.05847444 0.05193245 0.01700288
v -0.05855147 0.05057106 0.01496500
v -0.05858477 0.04938317 0.01496500
v -0.05859678 0.04878801 0.01496500
v -0.05860358 0.04819286 0.01496500
v -0.05860902 0.04760012 0.01496500
v -0.05861287 0.04700496 0.01496500
v -0.05861241 0.04640981 0.01598395
v -0.05838518 0.05294927 0.01370392
v -0.05836932 0.05309866 0.01394555
v -0.05860313 0.04343886 0.01370392
v -0.05837340 0.05309866 0.01623677
v -0.05839243 0.05294927 0.01598395
v -0.05844929 0.05235652 0.01598395
v -0.05849528 0.05165294 0.01496500
v -0.05852383 0.05116622 0.01598395
v -0.05847603 0.05194209 0.01598395
v -0.05854898 0.05057106 0.01394555
v -0.05858274 0.04938317 0.01394555
v -0.05852497 0.05116622 0.01496500
v -0.05859475 0.04878801 0.01394555
v -0.05860132 0.04819286 0.01394555
v -0.05860721 0.04760012 0.01394555
v -0.05861060 0.04700496 0.01394555
v -0.05861355 0.04640981 0.01496500
v -0.05861378 0.04522191 0.01496500
v -0.05839832 0.05280952 0.01370392
v -0.05838767 0.05294927 0.01394555
v -0.05837340 0.05309866 0.01496500
v -0.05860788 0.04403161 0.01370392
v -0.05837362 0.05309866 0.01598395
v -0.05839175 0.05294927 0.01496500
v -0.05844816 0.05235652 0.01496500
v -0.05847580 0.05194931 0.01496500
v -0.05849393 0.05163125 0.01394555
v -0.05852247 0.05116622 0.01394555
v -0.05852632 0.05102647 0.01370392
v -0.05854649 0.05057106 0.01370392
v -0.05855056 0.05043131 0.01370392
v -0.05856348 0.04997832 0.01370392
v -0.05858025 0.04938317 0.01370392
v -0.05858319 0.04924100 0.01370392
v -0.05859248 0.04878801 0.01370392
v -0.05859905 0.04819286 0.01370392
v -0.05860041 0.04805311 0.01370392
v -0.05860471 0.04760012 0.01370392
v -0.05860562 0.04745795 0.01370392
v -0.05860834 0.04700496 0.01370392
v -0.05861128 0.04640981 0.01394555
v -0.05861128 0.04522191 0.01394555
v -0.05861106 0.04462676 0.01394555
v -0.05860879 0.04462676 0.01370392
v -0.05844046 0.05235652 0.01370392
v -0.05844317 0.05235652 0.01394555
v -0.05847331 0.05192763 0.01394555
v -0.05849257 0.05161198 0.01370392
v -0.05849823 0.05152042 0.01370392
v -0.05851998 0.05116622 0.01370392
v -0.05860879 0.04640981 0.01370392
v -0.05818587 0.02863350 0.01887812
v -0.05773843 0.02863350 0.01885739
v -0.05773813 0.02863350 0.01885704
v -0.05630726 0.02863350 0.01704076
v -0.05629927 0.02863350 0.01702986
v -0.05823596 0.02863350 0.01882484
v -0.05823345 0.02863350 0.01882753
v -0.05629927 0.02863350 0.01471203
v -0.05630282 0.02863350 0.01469971
v -0.05856227 0.02863350 0.01786392
v -0.05661473 0.02863350 0.01370392
v -0.05861128 0.02863350 0.01684447
v -0.05861131 0.02863350 0.01682653
v -0.05858855 0.02863350 0.01495251
v -0.05858859 0.02863350 0.01495298
v -0.05861243 0.02863350 0.01597493
v -0.05861240 0.02863350 0.01596590
v -0.05861240 0.02863350 0.01596524
v -0.05861237 0.02863350 0.01596222
v -0.05861238 0.02863350 0.01596302
v -0.05818303 0.02863350 0.01887812
v -0.05818626 0.02863350 0.01887798
v -0.05849008 0.02863350 0.01855241
v -0.05855329 0.02863350 0.01802182
v -0.05861106 0.02863350 0.01700288
v -0.05856275 0.02863350 0.01785549
v -0.05790394 0.02863350 0.01370392
v -0.05852439 0.02863350 0.01436473
f 7 2 6
f 146 70 145
f 5 1 4
f 121 122 2
f 120 1 139
f 13 5 12
f 13 14 5
f 34 16 33
f 33 16 32
f 2 4 3
f 3 1 2
f 3 4 1
f 87 88 69
f 69 52 87
f 132 70 146
f 51 67 85
f 51 66 67
f 51 33 32
f 14 13 31
f 5 14 15
f 15 16 5
f 32 16 15
f 14 31 15
f 15 31 32
f 17 18 5
f 5 16 17
f 17 16 18
f 18 16 19
f 19 20 5
f 5 18 19
f 34 20 19
f 19 16 34
f 20 125 140
f 34 141 124
f 85 67 84
f 67 66 84
f 62 61 78
f 25 9 24
f 8 9 4
f 4 9 10
f 40 35 21
f 21 39 40
f 21 36 37
f 88 87 91
f 91 87 92
f 61 45 58
f 46 62 47
f 62 63 47
f 47 27 46
f 143 51 130
f 85 134 131
f 30 31 13
f 64 47 63
f 64 48 47
f 23 24 9
f 23 8 22
f 9 8 23
f 5 4 11
f 4 10 11
f 12 5 11
f 43 55 56
f 38 39 21
f 21 37 38
f 73 91 92
f 73 59 56
f 68 87 52
f 114 112 115
f 115 94 114
f 114 94 92
f 75 79 61
f 61 58 75
f 25 24 44
f 44 45 25
f 44 58 45
f 24 23 44
f 56 59 44
f 44 43 56
f 22 43 44
f 44 23 22
f 31 30 29
f 29 48 31
f 47 48 29
f 29 13 12
f 29 30 13
f 32 31 50
f 50 51 32
f 66 51 50
f 51 143 144
f 82 66 65
f 82 83 66
f 65 64 82
f 107 83 82
f 85 84 108
f 108 83 107
f 27 11 26
f 26 11 10
f 46 27 26
f 26 9 25
f 26 10 9
f 26 45 46
f 25 45 26
f 53 37 36
f 37 53 41
f 41 127 129
f 72 73 56
f 91 73 72
f 56 55 72
f 72 90 88
f 88 91 72
f 74 95 79
f 94 95 74
f 79 75 74
f 59 73 60
f 60 44 59
f 87 68 86
f 113 114 92
f 112 114 113
f 92 87 113
f 113 86 112
f 87 86 113
f 27 47 28
f 47 29 28
f 28 29 12
f 12 11 28
f 28 11 27
f 31 48 49
f 49 50 31
f 49 64 65
f 48 64 49
f 142 33 128
f 80 78 102
f 80 64 63
f 80 63 62
f 62 78 80
f 85 108 109
f 136 135 109
f 77 78 61
f 96 97 77
f 77 95 96
f 96 95 117
f 117 95 94
f 42 41 54
f 54 41 53
f 71 72 55
f 90 72 71
f 93 73 92
f 93 74 73
f 92 94 93
f 94 74 93
f 57 75 58
f 57 74 75
f 58 44 57
f 44 60 57
f 57 60 73
f 107 82 106
f 82 105 106
f 111 138 136
f 78 100 101
f 102 78 101
f 78 77 99
f 99 100 78
f 116 94 115
f 116 117 94
f 73 74 76
f 76 57 73
f 74 57 76
f 104 105 82
f 82 103 104
f 81 103 82
f 81 82 64
f 64 80 81
f 136 109 110
f 110 111 136
f 109 111 110
f 133 137 89
f 118 108 107
f 98 77 97
f 98 99 77
f 122 123 6
f 6 2 122
f 121 1 120
f 2 1 121
f 139 5 119
f 139 1 5
f 142 141 33
f 33 141 34
f 45 61 62
f 45 62 46
f 119 5 140
f 5 20 140
f 124 20 34
f 124 125 20
f 130 51 131
f 131 51 85
f 66 83 108
f 108 84 66
f 126 127 41
f 41 42 126
f 66 50 49
f 65 66 49
f 128 121 120
f 136 138 128
f 123 122 128
f 128 145 129
f 128 139 119
f 146 145 128
f 129 127 128
f 128 124 141
f 128 126 123
f 128 141 142
f 128 132 146
f 130 131 128
f 122 121 128
f 120 139 128
f 119 140 128
f 133 132 128
f 128 137 133
f 128 135 136
f 128 140 125
f 125 124 128
f 128 143 130
f 134 135 128
f 128 131 134
f 128 138 137
f 128 127 126
f 128 144 143
f 33 51 128
f 51 144 128
f 109 134 85
f 109 135 134
f 79 95 77
f 61 79 77
f 54 21 7
f 6 123 54
f 54 7 6
f 123 126 54
f 54 36 21
f 126 42 54
f 54 53 36
f 2 7 71
f 71 4 2
f 7 21 71
f 69 88 71
f 22 8 71
f 71 52 69
f 21 35 71
f 35 52 71
f 71 8 4
f 71 43 22
f 55 43 71
f 88 90 71
f 102 103 81
f 81 80 102
f 70 132 89
f 89 132 133
f 138 111 89
f 137 138 89
f 118 109 108
f 118 111 109
f 129 145 98
f 98 145 70
f 98 52 35
f 35 40 98
f 115 112 98
f 98 118 107
f 107 106 98
f 112 86 98
f 98 40 39
f 105 104 98
f 39 38 98
f 98 68 52
f 98 38 37
f 98 41 129
f 98 97 96
f 37 41 98
f 98 86 68
f 98 103 102
f 102 101 98
f 96 117 98
f 98 116 115
f 98 106 105
f 70 89 98
f 98 101 100
f 100 99 98
f 117 116 98
f 98 104 103
f 98 89 111
f 111 118 98
