# https://github.com/mikedh/trimesh
v 0.05818486 0.05056320 0.01888309
v 0.05774248 0.05056320 0.01888309
v 0.05818542 0.05053072 0.01888309
v 0.05852226 0.04755755 0.01854461
v 0.05852001 0.04801446 0.01853679
v 0.05851777 0.04841074 0.01852849
v 0.05851412 0.04874638 0.01850993
v 0.05850429 0.04934188 0.01845669
v 0.05848268 0.05053072 0.01831016
v 0.05848212 0.05056320 0.01830381
v 0.05774332 0.05053072 0.01888309
v 0.05578124 0.05056320 0.01703000
v 0.05822107 0.04636871 0.01887820
v 0.05822107 0.04696205 0.01887674
v 0.05822107 0.04755755 0.01887234
v 0.05852422 0.04696205 0.01855096
v 0.05858710 0.04696205 0.01802199
v 0.05858345 0.04755755 0.01802199
v 0.05856605 0.04818770 0.01812212
v 0.05857335 0.04874638 0.01800050
v 0.05856745 0.04934188 0.01794726
v 0.05855061 0.05053072 0.01780073
v 0.05848577 0.05056320 0.01827646
v 0.05578124 0.05056320 0.01497323
v 0.05852478 0.04636871 0.01855242
v 0.05858794 0.04636871 0.01802199
v 0.05864492 0.04696205 0.01700264
v 0.05864099 0.04755755 0.01700264
v 0.05863538 0.04815305 0.01700264
v 0.05862892 0.04874638 0.01700264
v 0.05861686 0.04934188 0.01700264
v 0.05855005 0.05056320 0.01779439
v 0.05755806 0.05056320 0.01394558
v 0.05755778 0.05056104 0.01389430
v 0.05667302 0.04223703 0.01389430
v 0.05661604 0.04161122 0.01389430
v 0.05660817 0.04101788 0.01389430
v 0.05660733 0.04042238 0.01389430
v 0.05578124 0.04108068 0.01496591
v 0.05578124 0.03864238 0.01496591
v 0.05660733 0.04039207 0.01389430
v 0.05864577 0.04636871 0.01700264
v 0.05864717 0.04636871 0.01598428
v 0.05864745 0.04696205 0.01496493
v 0.05864380 0.04755755 0.01496493
v 0.05863678 0.04815305 0.01598428
v 0.05863173 0.04874638 0.01496493
v 0.05861938 0.04934188 0.01496493
v 0.05858626 0.05053072 0.01496493
v 0.05858486 0.05053072 0.01598428
v 0.05858345 0.05053072 0.01700264
v 0.05858205 0.05056320 0.01700264
v 0.05852029 0.05056320 0.01389430
v 0.05864829 0.04636871 0.01496493
v 0.05864549 0.04696205 0.01394558
v 0.05864184 0.04755755 0.01394558
v 0.05863819 0.04815305 0.01496493
v 0.05863622 0.04815305 0.01394558
v 0.05862949 0.04874638 0.01394558
v 0.05861741 0.04934188 0.01394558
v 0.05858373 0.05053072 0.01394558
v 0.05858486 0.05056320 0.01496493
v 0.05858233 0.05056320 0.01694794
v 0.05858176 0.05056104 0.01389430
v 0.05858233 0.05056320 0.01394558
v 0.05864015 0.04339555 0.01389430
v 0.05864605 0.04636871 0.01394558
v 0.05864829 0.04458438 0.01496493
v 0.05864464 0.04399105 0.01389430
v 0.05864549 0.04458438 0.01389430
v 0.05864605 0.04458438 0.01394558
v 0.05864549 0.04639903 0.01389430
v 0.05864492 0.04696205 0.01389430
v 0.05864155 0.04755755 0.01389430
v 0.05864127 0.04758787 0.01389430
v 0.05863538 0.04818120 0.01389430
v 0.05863566 0.04815305 0.01389430
v 0.05862892 0.04874638 0.01389430
v 0.05862836 0.04877670 0.01389430
v 0.05861686 0.04934188 0.01389430
v 0.05861601 0.04937220 0.01389430
v 0.05858317 0.05053072 0.01389430
v 0.05864043 0.04342587 0.01389430
v 0.05578124 0.02859150 0.01703000
v 0.05579439 0.02859150 0.01704243
v 0.05777343 0.02859150 0.01885738
v 0.05822083 0.02859150 0.01887775
v 0.05578124 0.02859150 0.01496687
v 0.05852227 0.02859150 0.01855512
v 0.05852478 0.02859150 0.01855242
v 0.05579150 0.02859150 0.01495356
v 0.05863638 0.02859150 0.01716947
v 0.05810934 0.02859150 0.01389430
v 0.05864717 0.02859150 0.01598428
v 0.05864718 0.02859150 0.01597490
v 0.05864715 0.02859150 0.01596506
v 0.05864714 0.02859150 0.01596433
v 0.05864716 0.02859150 0.01596553
v 0.05855928 0.02859150 0.01436627
v 0.05862320 0.02859150 0.01495433
v 0.05814843 0.02859150 0.01887484
v 0.05821786 0.02859150 0.01887775
v 0.05822107 0.02859150 0.01887771
v 0.05663506 0.02859150 0.01389430
v 0.05857768 0.02859150 0.01810873
v 0.05857820 0.02859150 0.01810434
v 0.05858794 0.02859150 0.01802199
v 0.05863686 0.02859150 0.01716104
v 0.05864577 0.02859150 0.01700264
v 0.05862713 0.02859150 0.01511290
v 0.05855928 0.02859150 0.01436628
v 0.05862324 0.02859150 0.01495471
f 38 39 24
f 85 86 2
f 35 24 34
f 24 35 36
f 33 53 34
f 34 24 33
f 3 4 1
f 91 41 104
f 9 10 1
f 1 8 9
f 1 6 7
f 7 8 1
f 5 6 1
f 1 4 5
f 48 47 60
f 49 63 50
f 48 60 49
f 38 24 37
f 24 36 37
f 86 101 11
f 11 101 102
f 22 9 8
f 43 27 42
f 28 45 46
f 28 27 45
f 44 43 54
f 44 27 43
f 45 27 44
f 13 103 89
f 105 25 90
f 63 49 62
f 61 49 60
f 14 3 13
f 14 15 3
f 14 13 25
f 112 69 110
f 26 106 107
f 107 92 26
f 46 47 30
f 47 58 59
f 59 60 47
f 57 58 47
f 46 45 57
f 57 47 46
f 64 53 65
f 65 82 64
f 61 82 65
f 16 14 25
f 15 14 16
f 25 26 16
f 4 3 16
f 3 15 16
f 54 67 55
f 55 44 54
f 55 67 72
f 97 110 69
f 111 83 100
f 99 93 66
f 22 32 23
f 10 9 23
f 9 22 23
f 109 42 108
f 18 5 4
f 6 5 18
f 27 28 18
f 31 32 22
f 31 47 48
f 31 30 47
f 31 49 50
f 48 49 31
f 29 28 46
f 46 30 29
f 29 18 28
f 79 59 78
f 79 80 60
f 60 59 79
f 78 59 76
f 76 59 58
f 81 82 61
f 60 80 81
f 81 61 60
f 56 55 74
f 73 55 72
f 74 55 73
f 17 16 26
f 27 18 17
f 4 16 17
f 17 18 4
f 20 7 6
f 20 29 30
f 18 29 20
f 32 31 51
f 50 63 51
f 51 31 50
f 58 56 75
f 75 56 74
f 6 18 19
f 19 20 6
f 18 20 19
f 7 20 21
f 8 7 21
f 21 22 8
f 21 20 30
f 21 31 22
f 30 31 21
f 52 51 63
f 32 51 52
f 77 76 58
f 58 75 77
f 85 2 12
f 12 84 85
f 40 88 84
f 40 84 12
f 12 24 40
f 40 24 39
f 41 40 39
f 41 39 38
f 1 2 3
f 2 11 3
f 88 40 91
f 40 41 91
f 103 3 87
f 13 3 103
f 86 11 2
f 2 86 86
f 102 3 11
f 87 3 102
f 109 94 42
f 42 94 43
f 90 25 89
f 25 13 89
f 43 94 95
f 54 43 95
f 95 68 54
f 112 100 83
f 83 69 112
f 26 105 106
f 25 105 26
f 49 61 65
f 65 62 49
f 54 68 71
f 71 67 54
f 70 72 71
f 72 67 71
f 97 69 70
f 97 70 96
f 83 111 66
f 66 111 99
f 42 26 108
f 108 26 92
f 84 88 98
f 88 91 98
f 98 85 84
f 98 94 109
f 86 85 98
f 98 93 99
f 90 89 98
f 87 102 98
f 109 108 98
f 112 110 98
f 98 100 112
f 104 93 98
f 98 86 86
f 98 91 104
f 98 105 90
f 98 103 87
f 107 106 98
f 101 86 98
f 98 102 101
f 98 89 103
f 106 105 98
f 98 95 94
f 99 111 98
f 98 92 107
f 110 97 98
f 98 111 100
f 98 108 92
f 68 95 98
f 98 71 68
f 70 71 98
f 96 70 98
f 58 57 56
f 56 57 45
f 44 55 56
f 45 44 56
f 17 26 42
f 17 42 27
f 52 2 1
f 12 2 52
f 52 24 12
f 1 10 52
f 63 62 52
f 52 33 24
f 53 33 52
f 10 23 52
f 62 65 52
f 52 65 53
f 52 23 32
f 77 93 104
f 77 79 78
f 34 53 77
f 77 41 38
f 77 35 34
f 77 53 64
f 104 41 77
f 38 37 77
f 77 36 35
f 77 72 70
f 77 37 36
f 64 82 77
f 70 69 77
f 77 66 93
f 69 83 77
f 77 81 80
f 78 76 77
f 83 66 77
f 80 79 77
f 77 73 72
f 82 81 77
f 74 73 77
f 77 75 74
