# https://github.com/mikedh/trimesh
v -0.03143301 0.04970024 0.01703004
v -0.02964979 0.04522949 0.01703004
v -0.03174898 0.04970024 0.01497315
v -0.03202726 0.04970024 0.01702843
v -0.03143301 0.04878955 0.01703004
v -0.02964979 0.04522949 0.01497315
v -0.03023753 0.04522949 0.01701413
v -0.03024450 0.04641151 0.01703004
v -0.03024450 0.04581722 0.01702682
v -0.03143301 0.04878955 0.01497315
v -0.03202726 0.04970024 0.01497496
v -0.03262197 0.04970024 0.01697527
v -0.03202726 0.04938384 0.01702662
v -0.03024450 0.04522949 0.01498946
v -0.03024450 0.04581722 0.01497658
v -0.03024450 0.04641151 0.01497315
v -0.03024450 0.04522949 0.01701394
v -0.03202726 0.04938384 0.01497677
v -0.03234370 0.04970024 0.01497940
v -0.03319622 0.04970024 0.01674089
v -0.03262197 0.04938384 0.01692251
v -0.03025288 0.04522949 0.01499248
v -0.03299937 0.04970024 0.01514330
v -0.03262197 0.04970024 0.01502692
v -0.03077780 0.04522949 0.01674572
v -0.03350707 0.04970024 0.01598398
v -0.03308732 0.04938384 0.01665752
v -0.03076988 0.04522949 0.01523975
v -0.03319017 0.04970024 0.01524620
v -0.03100535 0.04522949 0.01598398
v -0.03295098 0.04904643 0.01654456
v -0.03350381 0.04970024 0.01597431
v -0.03077593 0.04522949 0.01525627
v -0.03294679 0.04905168 0.01543124
v -0.03307988 0.04938384 0.01532513
v -0.02875600 0.04970024 0.01703004
v -0.02875600 0.04522949 0.01703004
v -0.02875600 0.04970024 0.01497315
v -0.02875600 0.04522949 0.01497315
f 12 20 21
f 21 17 12
f 21 20 17
f 33 30 26
f 26 30 25
f 17 20 25
f 2 9 7
f 7 9 17
f 17 9 13
f 13 9 4
f 13 4 12
f 12 17 13
f 35 29 28
f 28 34 35
f 28 29 23
f 27 20 26
f 27 25 20
f 5 1 4
f 4 9 5
f 29 35 32
f 32 35 34
f 32 34 28
f 28 33 32
f 32 33 26
f 24 19 14
f 14 23 24
f 26 25 31
f 31 27 26
f 25 27 31
f 8 9 2
f 8 5 9
f 3 10 11
f 6 14 15
f 15 14 19
f 28 23 22
f 23 14 22
f 6 15 16
f 16 15 10
f 18 11 10
f 10 15 18
f 19 11 18
f 18 15 19
f 38 36 39
f 39 36 37
f 2 37 8
f 37 36 8
f 36 1 8
f 1 5 8
f 11 23 29
f 26 20 11
f 11 36 38
f 11 38 3
f 12 4 11
f 4 1 11
f 11 20 12
f 11 32 26
f 11 1 36
f 11 19 24
f 24 23 11
f 29 32 11
f 17 25 22
f 22 37 2
f 2 7 22
f 22 39 37
f 22 33 28
f 6 39 22
f 30 33 22
f 22 25 30
f 22 7 17
f 22 14 6
f 3 38 16
f 38 39 16
f 16 39 6
f 16 10 3
