# https://github.com/mikedh/trimesh
v -0.05296933 0.04526559 0.01598398
v -0.04987717 0.05031970 0.01598398
v -0.04987717 0.05034807 0.01622541
v -0.05296933 0.04542816 0.01640502
v -0.05296933 0.04581771 0.01529614
v -0.04987777 0.05058426 0.01525848
v -0.04987717 0.05058349 0.01526069
v -0.04987717 0.05057429 0.01672760
v -0.05296933 0.04580160 0.01670988
v -0.05296933 0.04583764 0.01527217
v -0.04987717 0.05059959 0.01525223
v -0.04987717 0.05058042 0.01673102
v -0.05296933 0.04581464 0.01671290
v -0.04987717 0.05115324 0.01697870
v -0.05296933 0.04700628 0.01505068
v -0.05283553 0.04700628 0.01507283
v -0.04987717 0.05116704 0.01502289
v -0.05296933 0.04687285 0.01694909
v -0.04987717 0.05116704 0.01698010
v -0.05283553 0.04760056 0.01701253
v -0.05296933 0.04760056 0.01498705
v -0.05283553 0.04760056 0.01499087
v -0.04987717 0.05176209 0.01497335
v -0.05296933 0.04746713 0.01701635
v -0.04987717 0.05174752 0.01703004
v -0.05296933 0.04819561 0.01497416
v -0.05283553 0.04819561 0.01497436
v -0.04987717 0.05235638 0.01497315
v -0.05224101 0.04938341 0.01497315
v -0.05283553 0.04819561 0.01702904
v -0.05296933 0.04806142 0.01702924
v -0.04987717 0.05309866 0.01703004
v -0.05224101 0.04938341 0.01703004
v -0.05296933 0.04878990 0.01497315
v -0.05283553 0.04878990 0.01497315
v -0.04987717 0.05309866 0.01497315
v -0.05283553 0.04878990 0.01703004
v -0.05296933 0.04865647 0.01703004
v -0.05296933 0.05309866 0.01703004
v -0.05296933 0.05309866 0.01497315
f 10 11 6
f 1 2 3
f 6 11 7
f 7 2 1
f 1 6 7
f 11 10 17
f 21 26 27
f 5 6 1
f 5 10 6
f 16 17 10
f 30 31 24
f 14 9 12
f 12 9 8
f 8 9 4
f 4 3 8
f 1 3 4
f 28 23 29
f 29 23 27
f 15 16 10
f 31 30 25
f 25 30 24
f 24 18 20
f 20 18 14
f 14 19 20
f 19 25 20
f 20 25 24
f 13 9 14
f 14 18 13
f 26 34 35
f 35 27 26
f 35 29 27
f 22 15 21
f 22 23 17
f 17 16 22
f 16 15 22
f 21 27 22
f 27 23 22
f 31 25 33
f 37 38 31
f 31 33 37
f 40 39 36
f 36 39 32
f 25 36 32
f 25 3 2
f 14 12 25
f 28 36 25
f 25 23 28
f 2 7 25
f 8 3 25
f 25 7 11
f 11 17 25
f 25 19 14
f 17 23 25
f 25 12 8
f 13 39 40
f 13 18 24
f 13 5 1
f 40 34 13
f 13 26 21
f 1 4 13
f 24 31 13
f 13 38 39
f 13 34 26
f 10 5 13
f 31 38 13
f 21 15 13
f 13 4 9
f 13 15 10
f 35 36 28
f 40 36 35
f 35 34 40
f 28 29 35
f 32 39 37
f 39 38 37
f 37 25 32
f 37 33 25
