# https://github.com/mikedh/trimesh
v 0.04692481 0.05828136 0.01704484
v 0.04692481 0.05823859 0.01802217
v 0.04749494 0.05827889 0.01704484
v 0.02879744 0.05828136 0.01704484
v 0.02879744 0.05826129 0.01750442
v 0.04692481 0.05807615 0.01880509
v 0.04751912 0.05807492 0.01880321
v 0.04751912 0.05823595 0.01802217
v 0.02879744 0.05823859 0.01802217
v 0.04751912 0.05827872 0.01704484
v 0.02879744 0.05648571 0.01704484
v 0.04937859 0.05766521 0.01896197
v 0.02879744 0.05807615 0.01880509
v 0.04811342 0.05807228 0.01879908
v 0.04870773 0.05806946 0.01879457
v 0.04811342 0.05823067 0.01802217
v 0.04808925 0.05827361 0.01704484
v 0.04937859 0.05648360 0.01704484
v 0.04937859 0.05730741 0.01870882
v 0.02879744 0.05731921 0.01867916
v 0.04937859 0.05806383 0.01878482
v 0.04930204 0.05806471 0.01878650
v 0.02879744 0.05787411 0.01887771
v 0.02879744 0.05766521 0.01895258
v 0.04870773 0.05822522 0.01802217
v 0.04870773 0.05826780 0.01704484
v 0.04937859 0.05825636 0.01704484
v 0.04937859 0.05821377 0.01802217
v 0.04930204 0.05821553 0.01802217
v 0.04930204 0.05825830 0.01704484
v 0.04937859 0.05821941 0.01789362
f 19 11 18
f 20 11 19
f 24 19 12
f 20 19 24
f 5 1 4
f 12 6 13
f 2 5 9
f 1 5 2
f 23 24 12
f 12 13 23
f 30 26 25
f 25 26 17
f 1 2 3
f 10 3 8
f 8 3 2
f 27 30 31
f 29 30 25
f 29 21 28
f 25 21 29
f 28 31 29
f 29 31 30
f 12 21 22
f 22 15 12
f 22 21 25
f 25 15 22
f 7 6 12
f 7 2 6
f 7 8 2
f 16 15 25
f 8 15 16
f 25 17 16
f 16 17 10
f 10 8 16
f 12 15 14
f 14 7 12
f 14 15 8
f 8 7 14
f 9 13 2
f 2 13 6
f 4 11 23
f 23 11 20
f 20 24 23
f 23 5 4
f 9 5 23
f 23 13 9
f 4 1 3
f 3 27 18
f 3 11 4
f 18 11 3
f 3 17 26
f 3 30 27
f 26 30 3
f 10 17 3
f 18 27 31
f 12 19 31
f 31 19 18
f 31 21 12
f 28 21 31
