# https://github.com/mikedh/trimesh
v 0.04390931 -0.05815120 0.01058582
v 0.04450248 -0.05815552 0.01058582
v 0.04390931 -0.05815914 0.01088821
v 0.04390931 -0.05818484 0.01190770
v 0.04390931 -0.05820761 0.01292620
v 0.04390931 -0.05822366 0.01388921
v 0.05249088 -0.05806702 0.01394011
v 0.05520807 -0.05646408 0.01058582
v 0.05249088 -0.05703628 0.01394011
v 0.05520548 -0.05651462 0.01394011
v 0.04509565 -0.05815604 0.01058582
v 0.04450248 -0.05816311 0.01088821
v 0.04450248 -0.05818760 0.01190770
v 0.04450248 -0.05821003 0.01292620
v 0.04446881 -0.05822590 0.01388921
v 0.05249088 -0.05805736 0.01336814
v 0.05282502 -0.05804218 0.01394011
v 0.04509565 -0.05822642 0.01388921
v 0.04688294 -0.05822625 0.01388921
v 0.04744243 -0.05822383 0.01388921
v 0.04747352 -0.05822366 0.01388921
v 0.04803820 -0.05821865 0.01388921
v 0.04863137 -0.05821296 0.01388921
v 0.04866504 -0.05821262 0.01388921
v 0.04922713 -0.05820365 0.01388921
v 0.04926081 -0.05820296 0.01388921
v 0.04985139 -0.05818812 0.01388921
v 0.05044715 -0.05817173 0.01388921
v 0.05100924 -0.05815207 0.01388921
v 0.05104292 -0.05815086 0.01388921
v 0.05160500 -0.05812240 0.01388921
v 0.05163867 -0.05812067 0.01388921
v 0.05223185 -0.05808531 0.01388921
v 0.05223185 -0.05806909 0.01292620
v 0.05520807 -0.05653325 0.01292324
v 0.05520807 -0.05646908 0.01058582
v 0.05520548 -0.05763920 0.01394011
v 0.05520807 -0.05761902 0.01292620
v 0.04509565 -0.05816363 0.01088821
v 0.04688294 -0.05815604 0.01058582
v 0.04509565 -0.05818812 0.01190770
v 0.04509565 -0.05821037 0.01292620
v 0.05282761 -0.05802475 0.01292620
v 0.05333789 -0.05797111 0.01292620
v 0.05345964 -0.05797335 0.01394011
v 0.04688294 -0.05821037 0.01292620
v 0.04747352 -0.05820779 0.01292620
v 0.04806928 -0.05820244 0.01292620
v 0.04866504 -0.05819692 0.01292620
v 0.04926081 -0.05818708 0.01292620
v 0.04985139 -0.05817208 0.01292620
v 0.05044715 -0.05815604 0.01292620
v 0.05104292 -0.05813499 0.01292620
v 0.05163867 -0.05810446 0.01292620
v 0.05223185 -0.05804649 0.01190770
v 0.05520807 -0.05755260 0.01058713
v 0.05520548 -0.05755312 0.01058582
v 0.05460972 -0.05779187 0.01394011
v 0.05460972 -0.05777306 0.01292620
v 0.05520807 -0.05759210 0.01190770
v 0.05460972 -0.05774754 0.01190770
v 0.04688294 -0.05816363 0.01088821
v 0.04747352 -0.05815362 0.01058582
v 0.04688294 -0.05818812 0.01190770
v 0.05249088 -0.05802700 0.01190770
v 0.05282761 -0.05800146 0.01190770
v 0.05316953 -0.05795023 0.01118174
v 0.05324205 -0.05795920 0.01190770
v 0.05401655 -0.05788157 0.01292620
v 0.05369276 -0.05794005 0.01369352
v 0.05350885 -0.05796714 0.01394011
v 0.04747352 -0.05818553 0.01190770
v 0.04806928 -0.05818018 0.01190770
v 0.04866504 -0.05817467 0.01190770
v 0.04926081 -0.05816483 0.01190770
v 0.04985139 -0.05815000 0.01190770
v 0.05044715 -0.05813361 0.01190770
v 0.05104292 -0.05811256 0.01190770
v 0.05163867 -0.05808186 0.01190770
v 0.05163867 -0.05805701 0.01088821
v 0.05223185 -0.05802148 0.01088821
v 0.05249088 -0.05801285 0.01133048
v 0.05520807 -0.05756209 0.01088821
v 0.05502934 -0.05760021 0.01058582
v 0.05460713 -0.05779239 0.01394011
v 0.05401655 -0.05785656 0.01190770
v 0.05401655 -0.05783103 0.01088821
v 0.05460972 -0.05771924 0.01088821
v 0.05460972 -0.05771045 0.01058582
v 0.05401655 -0.05782309 0.01058582
v 0.05443358 -0.05774426 0.01058582
v 0.04747352 -0.05816121 0.01088821
v 0.04806928 -0.05814844 0.01058582
v 0.05282243 -0.05796869 0.01058582
v 0.05286646 -0.05797162 0.01086064
v 0.05309959 -0.05794143 0.01058582
v 0.05339747 -0.05790366 0.01058582
v 0.05396474 -0.05790814 0.01394011
v 0.05391034 -0.05791556 0.01394011
v 0.05370571 -0.05794195 0.01394011
v 0.04806928 -0.05815586 0.01088821
v 0.04866504 -0.05815034 0.01088821
v 0.04926081 -0.05814051 0.01088821
v 0.04985139 -0.05812550 0.01088821
v 0.05044715 -0.05810911 0.01088821
v 0.05104292 -0.05808789 0.01088821
v 0.05163867 -0.05804925 0.01058582
v 0.05205571 -0.05802441 0.01058582
v 0.05104292 -0.05808030 0.01058582
v 0.05223185 -0.05801371 0.01058582
v 0.04866504 -0.05814275 0.01058582
v 0.04926081 -0.05813292 0.01058582
v 0.04967784 -0.05812257 0.01058582
v 0.04985139 -0.05811791 0.01058582
v 0.05044715 -0.05810152 0.01058582
v 0.05086677 -0.05808669 0.01058582
v 0.02875250 -0.05753183 0.01058582
v 0.02875250 -0.05813034 0.01388777
v 0.02875250 -0.05813034 0.01388790
v 0.02875250 -0.05813034 0.01388782
v 0.02875250 -0.05813035 0.01388835
v 0.02875250 -0.05813036 0.01388879
v 0.02875250 -0.05813031 0.01388923
v 0.02875250 -0.05813037 0.01388921
v 0.02875250 -0.05652979 0.01388923
v 0.02875250 -0.05652994 0.01388923
v 0.02875250 -0.05652978 0.01388838
v 0.02875250 -0.05650771 0.01058582
f 8 128 127
f 127 10 8
f 125 10 127
f 118 117 1
f 8 10 35
f 10 38 35
f 37 38 10
f 4 13 5
f 56 57 36
f 89 60 88
f 38 37 59
f 69 86 59
f 5 13 14
f 14 6 5
f 13 39 41
f 41 14 13
f 42 14 41
f 12 39 13
f 13 4 12
f 92 72 64
f 26 27 7
f 7 27 28
f 91 89 88
f 84 57 56
f 60 89 84
f 38 59 61
f 61 60 38
f 88 60 61
f 90 91 61
f 61 91 88
f 58 59 37
f 23 49 24
f 23 22 49
f 23 24 7
f 7 22 23
f 6 14 15
f 7 6 15
f 47 46 64
f 64 72 47
f 2 4 3
f 2 12 4
f 62 92 64
f 72 92 73
f 7 24 25
f 25 26 7
f 24 49 25
f 29 30 7
f 7 28 29
f 109 107 80
f 83 84 56
f 60 84 83
f 90 61 87
f 87 59 86
f 87 61 59
f 85 98 69
f 69 59 85
f 59 58 85
f 45 17 44
f 44 17 43
f 18 19 7
f 7 15 18
f 42 46 18
f 18 46 19
f 18 14 42
f 18 15 14
f 21 47 22
f 21 22 7
f 19 46 20
f 46 47 20
f 47 21 20
f 7 19 20
f 20 21 7
f 74 73 101
f 101 73 92
f 52 28 27
f 52 29 28
f 103 111 112
f 103 75 74
f 49 22 48
f 22 47 48
f 74 49 48
f 48 73 74
f 106 109 80
f 7 30 31
f 31 32 7
f 16 17 7
f 16 43 17
f 43 16 34
f 34 16 7
f 80 107 108
f 1 2 120
f 120 118 1
f 3 119 120
f 120 2 3
f 70 45 44
f 70 44 69
f 66 43 65
f 66 82 94
f 65 82 66
f 93 92 63
f 93 101 92
f 115 104 114
f 27 26 50
f 50 25 49
f 26 25 50
f 105 106 78
f 105 104 115
f 53 31 30
f 30 29 53
f 29 52 53
f 32 31 53
f 76 103 104
f 75 103 76
f 76 50 75
f 102 103 74
f 111 103 102
f 74 101 102
f 102 93 111
f 101 93 102
f 109 106 116
f 116 105 115
f 106 105 116
f 55 82 65
f 65 43 55
f 43 34 55
f 54 53 78
f 32 53 54
f 7 32 33
f 33 34 7
f 81 110 94
f 94 82 81
f 82 55 81
f 81 108 110
f 80 108 81
f 81 55 80
f 69 98 99
f 99 70 69
f 67 96 97
f 43 66 67
f 67 97 90
f 90 87 67
f 113 103 112
f 104 103 113
f 113 114 104
f 51 52 27
f 27 50 51
f 51 76 52
f 50 76 51
f 104 105 77
f 77 76 104
f 52 76 77
f 77 105 78
f 78 53 77
f 77 53 52
f 79 54 78
f 79 106 80
f 78 106 79
f 80 55 79
f 70 99 100
f 94 96 95
f 96 67 95
f 95 66 94
f 95 67 66
f 44 43 68
f 43 67 68
f 68 86 69
f 69 44 68
f 68 87 86
f 68 67 87
f 45 70 71
f 70 100 71
f 6 123 124
f 7 123 6
f 126 9 10
f 126 10 125
f 7 9 126
f 126 123 7
f 122 6 124
f 5 6 122
f 42 41 46
f 46 41 64
f 121 4 5
f 5 122 121
f 39 12 2
f 2 11 39
f 64 41 62
f 62 41 39
f 4 121 119
f 3 4 119
f 83 36 8
f 8 35 83
f 83 35 38
f 56 36 83
f 38 60 83
f 63 92 40
f 92 62 40
f 39 11 40
f 40 62 39
f 72 73 48
f 48 47 72
f 128 117 120
f 125 127 120
f 117 118 120
f 120 127 128
f 120 126 125
f 123 126 120
f 74 75 50
f 50 49 74
f 33 54 34
f 32 54 33
f 113 117 128
f 113 108 107
f 1 117 113
f 113 128 8
f 90 97 113
f 113 93 63
f 8 36 113
f 113 96 94
f 57 84 113
f 113 36 57
f 113 91 90
f 94 110 113
f 113 2 1
f 115 114 113
f 89 91 113
f 113 84 89
f 97 96 113
f 11 2 113
f 112 111 113
f 107 109 113
f 63 40 113
f 113 40 11
f 110 108 113
f 111 93 113
f 113 116 115
f 109 116 113
f 34 54 79
f 79 55 34
f 10 9 71
f 71 9 7
f 71 37 10
f 71 58 37
f 7 17 71
f 98 85 71
f 71 85 58
f 17 45 71
f 71 99 98
f 71 100 99
