# https://github.com/mikedh/trimesh
v 0.05500550 -0.05351221 0.00049155
v 0.05699020 -0.05351221 -0.00042291
v 0.05500550 -0.05351221 0.00185063
v 0.05500550 -0.04218597 0.00049155
v 0.05758461 -0.04932322 -0.00055156
v 0.05758461 -0.04991864 -0.00055128
v 0.05758461 -0.05051295 -0.00055071
v 0.05758461 -0.05110726 -0.00054505
v 0.05758461 -0.05229587 -0.00050594
v 0.05758461 -0.05289018 -0.00047618
v 0.05758461 -0.05348560 -0.00041015
v 0.05758693 -0.05351221 -0.00040024
v 0.05758461 -0.04397444 -0.00054505
v 0.05758461 -0.04456875 -0.00054731
v 0.05758461 -0.04813460 -0.00055128
v 0.05687768 -0.05351221 0.00234314
v 0.05630285 -0.04278471 0.00234314
v 0.05629356 -0.04252858 0.00234314
v 0.05628991 -0.04219040 0.00234314
v 0.05500550 -0.04397444 0.00185119
v 0.05500550 -0.04218597 0.00185091
v 0.05639180 -0.04218597 0.00048560
v 0.05812592 -0.04516306 -0.00018459
v 0.05812592 -0.04694709 -0.00018430
v 0.05812459 -0.04754140 -0.00018402
v 0.05811862 -0.04872891 -0.00018346
v 0.05811331 -0.04932322 -0.00018289
v 0.05810601 -0.04991864 -0.00018175
v 0.05809837 -0.05051295 -0.00018062
v 0.05808510 -0.05110726 -0.00017382
v 0.05803863 -0.05229587 -0.00013273
v 0.05801109 -0.05289018 -0.00010241
v 0.05796993 -0.05348560 -0.00003638
v 0.05796761 -0.05351221 -0.00003043
v 0.05758461 -0.04342337 -0.00017807
v 0.05803962 -0.04351540 -0.00006104
v 0.05812193 -0.04397444 -0.00018487
v 0.05639578 -0.04218597 0.00048560
v 0.05812559 -0.04456875 -0.00018459
v 0.05805522 -0.05351221 0.00234314
v 0.05628991 -0.04218597 0.00234314
v 0.05500550 -0.04358082 0.00185119
v 0.05837317 -0.04516306 0.00069643
v 0.05837317 -0.04694709 0.00069643
v 0.05837019 -0.04754140 0.00069643
v 0.05836421 -0.04813460 0.00069643
v 0.05835758 -0.04872891 0.00069643
v 0.05834529 -0.04932322 0.00069643
v 0.05832903 -0.04991864 0.00069643
v 0.05831144 -0.05051295 0.00069643
v 0.05828290 -0.05110726 0.00069643
v 0.05823976 -0.05170156 0.00069643
v 0.05819329 -0.05229587 0.00069643
v 0.05813123 -0.05289018 0.00069643
v 0.05804726 -0.05348560 0.00069643
v 0.05804162 -0.05351221 0.00069643
v 0.05698621 -0.04218597 0.00058875
v 0.05699020 -0.04218597 0.00058960
v 0.05836521 -0.04397444 0.00069643
v 0.05738713 -0.04218597 0.00094977
v 0.05811994 -0.04341339 0.00069643
v 0.05837251 -0.04456875 0.00069643
v 0.05806087 -0.05348560 0.00234314
v 0.05750528 -0.04218597 0.00234314
v 0.05839574 -0.04516306 0.00234314
v 0.05839541 -0.04694709 0.00234314
v 0.05839242 -0.04754140 0.00234314
v 0.05838877 -0.04790619 0.00234314
v 0.05838645 -0.04813460 0.00234314
v 0.05838247 -0.04850050 0.00234314
v 0.05837948 -0.04872891 0.00234314
v 0.05837185 -0.04909592 0.00234314
v 0.05836654 -0.04932322 0.00234314
v 0.05834895 -0.04991864 0.00234314
v 0.05833667 -0.05028454 0.00234314
v 0.05832870 -0.05051295 0.00234314
v 0.05831012 -0.05087885 0.00234314
v 0.05829850 -0.05110726 0.00234314
v 0.05827494 -0.05147315 0.00234314
v 0.05826000 -0.05170156 0.00234314
v 0.05823146 -0.05206746 0.00234314
v 0.05821320 -0.05229587 0.00234314
v 0.05817172 -0.05266288 0.00234314
v 0.05814550 -0.05289018 0.00234314
v 0.05809372 -0.05325719 0.00234314
v 0.05838977 -0.04397444 0.00234314
v 0.05816674 -0.04335906 0.00234314
v 0.05749666 -0.04218597 0.00171035
v 0.05839508 -0.04456875 0.00234314
f 11 12 2
f 2 10 11
f 9 10 2
f 2 8 9
f 1 4 2
f 4 13 2
f 65 43 89
f 36 58 60
f 60 61 36
f 36 13 35
f 35 58 36
f 13 38 35
f 14 2 13
f 37 13 36
f 37 14 13
f 39 14 37
f 30 10 9
f 9 8 30
f 8 2 7
f 42 41 21
f 17 3 16
f 86 89 62
f 62 89 43
f 43 39 62
f 39 37 62
f 61 60 88
f 64 87 88
f 88 87 61
f 22 13 4
f 22 38 13
f 58 35 57
f 57 35 38
f 15 14 39
f 5 2 15
f 2 14 15
f 11 10 32
f 6 2 5
f 6 7 2
f 23 39 43
f 5 15 23
f 23 15 39
f 8 7 27
f 3 17 18
f 86 62 59
f 59 87 86
f 61 87 59
f 36 61 59
f 59 37 36
f 59 62 37
f 76 51 50
f 10 30 31
f 31 32 10
f 51 32 31
f 31 50 51
f 30 50 31
f 33 12 11
f 11 32 33
f 29 30 8
f 3 18 19
f 20 3 19
f 78 79 51
f 51 79 80
f 30 29 48
f 48 29 47
f 12 33 34
f 53 33 32
f 8 27 28
f 28 29 8
f 28 27 47
f 47 29 28
f 26 27 7
f 7 25 26
f 7 6 24
f 24 25 7
f 24 6 5
f 5 23 24
f 77 51 76
f 77 78 51
f 49 50 30
f 30 48 49
f 73 49 48
f 54 34 33
f 33 53 54
f 54 83 84
f 82 83 54
f 54 53 82
f 52 32 51
f 52 53 32
f 51 80 52
f 82 53 81
f 81 52 80
f 53 52 81
f 45 26 25
f 27 26 45
f 71 47 70
f 71 48 47
f 50 49 74
f 49 73 74
f 56 34 55
f 34 54 55
f 55 85 63
f 84 85 55
f 55 54 84
f 47 27 46
f 27 45 46
f 46 69 70
f 70 47 46
f 25 24 44
f 44 45 25
f 44 23 43
f 44 24 23
f 65 66 44
f 44 43 65
f 68 45 67
f 69 46 68
f 68 46 45
f 72 73 48
f 48 71 72
f 76 50 75
f 50 74 75
f 1 3 42
f 42 4 1
f 42 3 20
f 42 21 4
f 4 21 57
f 64 88 57
f 57 41 64
f 21 41 57
f 57 60 58
f 57 22 4
f 57 88 60
f 38 22 57
f 19 42 20
f 41 42 19
f 1 2 34
f 34 3 1
f 56 40 34
f 16 3 34
f 34 2 12
f 34 40 16
f 55 40 56
f 63 40 55
f 67 45 44
f 66 67 44
f 65 89 75
f 16 40 75
f 41 19 75
f 75 17 16
f 75 40 63
f 75 87 64
f 64 41 75
f 75 89 86
f 75 77 76
f 75 66 65
f 86 87 75
f 75 83 82
f 75 71 70
f 75 18 17
f 70 69 75
f 63 85 75
f 75 67 66
f 75 19 18
f 79 78 75
f 75 80 79
f 75 85 84
f 84 83 75
f 73 72 75
f 78 77 75
f 82 81 75
f 75 81 80
f 75 68 67
f 75 74 73
f 69 68 75
f 75 72 71
