# https://github.com/mikedh/trimesh
v -0.05574616 -0.03404204 0.01496684
v -0.05574540 -0.03773039 0.01496644
v -0.05574616 -0.03404204 0.01703004
v -0.05574616 -0.03148850 0.01496684
v -0.05402479 -0.03773039 0.01497350
v -0.05574540 -0.03773039 0.01703024
v -0.05574540 -0.03624380 0.01496644
v -0.04798974 -0.03030012 0.01497350
v -0.04808086 -0.03089476 0.01497350
v -0.05574616 -0.02860907 0.01703004
v -0.05574616 -0.02860907 0.01496704
v -0.05343024 -0.03743307 0.01497795
v -0.05343024 -0.03773039 0.01499068
v -0.04798974 -0.03089476 0.01497391
v -0.05402479 -0.03773039 0.01703024
v -0.05574540 -0.03404204 0.01703024
v -0.04798974 -0.02860907 0.01497350
v -0.04798974 -0.02860907 0.01703004
v -0.05286987 -0.03773039 0.01523757
v -0.04808086 -0.03148850 0.01499998
v -0.04798974 -0.03148850 0.01501937
v -0.05372638 -0.03773039 0.01702802
v -0.04798974 -0.03080369 0.01703004
v -0.05343024 -0.03683844 0.01703024
v -0.05182277 -0.03404204 0.01703024
v -0.05262840 -0.03773039 0.01598410
v -0.04798974 -0.03204564 0.01528363
v -0.05343024 -0.03773039 0.01701206
v -0.05343024 -0.03743307 0.01702559
v -0.04798974 -0.03089476 0.01702943
v -0.05267244 -0.03773039 0.01615886
v -0.04798974 -0.03224385 0.01598410
v -0.04798974 -0.03205010 0.01670315
v -0.05309690 -0.03773039 0.01687649
v -0.04798974 -0.03148850 0.01698277
v -0.04798974 -0.03139743 0.01700620
v -0.05286227 -0.03773039 0.01674881
v -0.04798974 -0.03197957 0.01675184
f 13 12 14
f 5 12 13
f 5 14 12
f 7 4 11
f 11 17 7
f 8 14 9
f 9 2 8
f 9 5 2
f 14 5 9
f 26 27 32
f 14 21 20
f 13 14 20
f 20 21 13
f 27 26 19
f 19 21 27
f 13 21 19
f 37 35 34
f 34 35 28
f 37 31 33
f 33 31 26
f 33 26 32
f 28 35 36
f 18 25 23
f 23 15 22
f 38 35 37
f 37 33 38
f 29 22 28
f 24 23 25
f 15 23 24
f 30 23 22
f 22 29 30
f 28 36 30
f 30 29 28
f 10 3 16
f 16 3 6
f 10 11 4
f 1 3 4
f 4 3 10
f 2 3 1
f 6 3 2
f 10 16 25
f 25 18 10
f 17 11 10
f 10 18 17
f 1 4 7
f 7 2 1
f 7 17 8
f 8 2 7
f 6 2 34
f 34 5 13
f 2 5 34
f 34 31 37
f 34 15 6
f 13 19 34
f 28 22 34
f 34 19 26
f 26 31 34
f 22 15 34
f 24 16 6
f 24 25 16
f 6 15 24
f 30 21 14
f 8 17 30
f 30 17 18
f 30 14 8
f 32 27 30
f 27 21 30
f 30 33 32
f 18 23 30
f 30 36 35
f 35 38 30
f 30 38 33
