# https://github.com/mikedh/trimesh
v 0.05855502 -0.04515595 0.01058581
v 0.05854172 -0.04515595 0.00986856
v 0.05753150 -0.04515595 0.01058581
v 0.05855502 -0.04635209 0.01058581
v 0.05852251 -0.04515595 0.00884956
v 0.05854172 -0.04635209 0.00986856
v 0.05707442 -0.04515595 0.00234342
v 0.05720855 -0.05351332 0.01058581
v 0.05855436 -0.04694688 0.01058581
v 0.05850297 -0.04515595 0.00782974
v 0.05852251 -0.04635209 0.00884956
v 0.05854106 -0.04694688 0.00986856
v 0.05852202 -0.04694688 0.00884956
v 0.05839559 -0.04515595 0.00234342
v 0.05687789 -0.05351332 0.00234342
v 0.05824307 -0.05351332 0.01058581
v 0.05855190 -0.04736495 0.01058581
v 0.05853762 -0.04754085 0.00986856
v 0.05848475 -0.04515595 0.00688496
v 0.05850297 -0.04635209 0.00782974
v 0.05851840 -0.04754085 0.00884956
v 0.05849903 -0.04754085 0.00782974
v 0.05848294 -0.04754085 0.00698905
v 0.05850248 -0.04694688 0.00782974
v 0.05839559 -0.04671861 0.00234342
v 0.05805524 -0.05351332 0.00234342
v 0.05822862 -0.05351332 0.00990164
v 0.05824799 -0.05348550 0.01058581
v 0.05855075 -0.04754085 0.01058581
v 0.05854500 -0.04813564 0.01058581
v 0.05853170 -0.04813564 0.00986856
v 0.05848475 -0.04635209 0.00689142
v 0.05848458 -0.04694688 0.00690110
v 0.05851249 -0.04813564 0.00884956
v 0.05849312 -0.04813564 0.00782974
v 0.05847982 -0.04813564 0.00714395
v 0.05838903 -0.04790738 0.00234342
v 0.05839231 -0.04754085 0.00234342
v 0.05839362 -0.04731259 0.00234342
v 0.05839543 -0.04694688 0.00234342
v 0.05813684 -0.05351332 0.00583934
v 0.05806082 -0.05348550 0.00234342
v 0.05821056 -0.05348550 0.00884956
v 0.05823272 -0.05348550 0.00986856
v 0.05820564 -0.05351332 0.00884956
v 0.05831006 -0.05289071 0.00986856
v 0.05832500 -0.05289071 0.01058581
v 0.05853811 -0.04873043 0.01058581
v 0.05852481 -0.04873043 0.00986856
v 0.05850560 -0.04873043 0.00884956
v 0.05847769 -0.04852672 0.00725449
v 0.05838657 -0.04813564 0.00234342
v 0.05816048 -0.05351332 0.00685834
v 0.05814095 -0.05348550 0.00579254
v 0.05816459 -0.05348550 0.00681074
v 0.05809366 -0.05325724 0.00234342
v 0.05818774 -0.05348550 0.00782974
v 0.05814555 -0.05289071 0.00234342
v 0.05824372 -0.05289071 0.00681074
v 0.05826605 -0.05289071 0.00782974
v 0.05828822 -0.05289071 0.00884956
v 0.05818380 -0.05351332 0.00787735
v 0.05821319 -0.05229673 0.00234342
v 0.05832893 -0.05229673 0.00782974
v 0.05835028 -0.05229673 0.00884956
v 0.05834289 -0.05271481 0.01058581
v 0.05852924 -0.04914851 0.01058581
v 0.05848163 -0.04920169 0.00807421
v 0.05847457 -0.04892352 0.00739487
v 0.05848491 -0.04872716 0.00777246
v 0.05837967 -0.04873043 0.00234342
v 0.05838246 -0.04850217 0.00234342
v 0.05817165 -0.05266245 0.00234342
v 0.05823141 -0.05206847 0.00234342
v 0.05826031 -0.05170194 0.00234342
v 0.05837048 -0.05229673 0.00986856
v 0.05835094 -0.05170194 0.00681074
v 0.05838377 -0.05229673 0.01058581
v 0.05852546 -0.04932441 0.01058581
v 0.05851216 -0.04932441 0.00986856
v 0.05847670 -0.05022110 0.00934897
v 0.05836670 -0.04932441 0.00234342
v 0.05837179 -0.04909615 0.00234342
v 0.05829856 -0.05110715 0.00234342
v 0.05837113 -0.05170194 0.00782974
v 0.05847900 -0.05085189 0.01058581
v 0.05836768 -0.05110715 0.00579254
v 0.05847687 -0.05081671 0.01035749
v 0.05850855 -0.04991838 0.01058581
v 0.05849608 -0.05033646 0.01058581
v 0.05849131 -0.05049436 0.01058581
v 0.05848081 -0.05045672 0.00995812
v 0.05834897 -0.04991838 0.00234342
v 0.05832893 -0.05051318 0.00234342
v 0.05833665 -0.05028491 0.00234342
f 8 7 15
f 7 8 3
f 39 40 33
f 14 19 25
f 33 40 25
f 38 39 23
f 23 39 33
f 28 16 27
f 87 77 84
f 84 77 75
f 33 25 32
f 32 20 33
f 32 25 19
f 19 20 32
f 10 20 19
f 38 23 37
f 12 6 4
f 68 81 82
f 80 81 68
f 82 69 68
f 48 67 68
f 68 67 79
f 68 79 80
f 82 81 93
f 84 94 88
f 88 93 81
f 88 87 84
f 77 87 88
f 86 85 88
f 88 85 77
f 83 69 82
f 71 69 83
f 28 27 44
f 26 42 41
f 65 75 77
f 77 85 65
f 29 30 18
f 9 12 4
f 9 18 12
f 33 20 24
f 24 23 33
f 11 6 13
f 6 12 13
f 13 20 11
f 13 24 20
f 12 18 13
f 22 23 13
f 23 24 13
f 48 68 49
f 49 68 69
f 69 50 49
f 86 88 91
f 95 88 94
f 93 88 95
f 70 69 71
f 70 50 69
f 31 18 30
f 46 47 28
f 28 44 46
f 46 65 47
f 58 55 56
f 43 27 45
f 43 44 27
f 53 55 62
f 41 55 53
f 76 65 85
f 86 78 76
f 76 85 86
f 29 18 17
f 18 9 17
f 80 79 89
f 89 81 80
f 92 88 81
f 81 91 92
f 92 91 88
f 51 70 71
f 50 70 51
f 22 13 21
f 21 13 18
f 64 46 63
f 65 46 64
f 63 74 64
f 64 74 75
f 75 65 64
f 42 56 54
f 54 56 55
f 54 41 42
f 54 55 41
f 57 55 58
f 58 43 57
f 62 55 57
f 57 45 62
f 57 43 45
f 44 43 60
f 66 76 78
f 47 65 66
f 65 76 66
f 90 91 81
f 81 89 90
f 72 51 71
f 35 23 22
f 22 21 35
f 59 43 58
f 59 60 43
f 58 73 59
f 59 73 63
f 63 60 59
f 63 46 61
f 61 60 63
f 61 46 44
f 44 60 61
f 51 72 52
f 50 51 34
f 51 35 34
f 34 35 21
f 18 31 34
f 34 21 18
f 36 52 37
f 36 37 23
f 23 35 36
f 36 35 51
f 51 52 36
f 10 5 11
f 11 20 10
f 7 3 2
f 2 3 1
f 2 14 7
f 2 19 14
f 2 10 19
f 5 10 2
f 1 4 2
f 4 6 2
f 11 5 2
f 2 6 11
f 31 30 48
f 48 49 31
f 15 26 53
f 53 16 8
f 53 8 15
f 53 27 16
f 62 45 53
f 45 27 53
f 26 41 53
f 1 3 90
f 90 3 8
f 8 16 90
f 90 67 48
f 90 16 28
f 90 4 1
f 90 9 4
f 90 78 86
f 28 47 90
f 48 30 90
f 90 89 79
f 90 30 29
f 79 67 90
f 86 91 90
f 29 17 90
f 90 17 9
f 90 66 78
f 47 66 90
f 7 14 52
f 15 7 52
f 14 25 52
f 52 39 38
f 52 26 15
f 82 93 52
f 38 37 52
f 52 42 26
f 40 39 52
f 52 25 40
f 58 56 52
f 52 83 82
f 52 94 84
f 52 95 94
f 84 75 52
f 52 74 63
f 63 73 52
f 71 83 52
f 52 73 58
f 93 95 52
f 52 56 42
f 75 74 52
f 52 72 71
f 34 31 49
f 34 49 50
