# https://github.com/mikedh/trimesh
v -0.04570017 0.05801915 0.00236468
v -0.04510631 0.05801889 0.00236468
v -0.04570017 0.05799040 0.00069626
v -0.04659097 0.05801915 0.00236468
v -0.04510631 0.05799014 0.00069626
v -0.04451244 0.05801656 0.00236468
v -0.04510631 0.05770005 -0.00018660
v -0.04689034 0.05799040 0.00069626
v -0.04689034 0.05801889 0.00236468
v -0.04451244 0.05798703 0.00069626
v -0.04451244 0.05769850 -0.00018660
v -0.04432016 0.05801397 0.00236468
v -0.04629404 0.05770005 -0.00018660
v -0.05224001 0.05711262 -0.00052520
v -0.04689034 0.05770005 -0.00018632
v -0.04748421 0.05769902 -0.00018632
v -0.04748421 0.05798833 0.00069626
v -0.04748421 0.05801708 0.00236468
v -0.04718484 0.05801811 0.00236468
v -0.04420577 0.05800646 0.00214148
v -0.04451244 0.05711262 -0.00037075
v -0.04510631 0.05711262 -0.00038631
v -0.04418873 0.05800957 0.00236468
v -0.05361759 0.05649255 -0.00018745
v -0.05283388 0.05711262 -0.00051898
v -0.04986211 0.05767855 -0.00018575
v -0.04926824 0.05768684 -0.00018604
v -0.04867194 0.05769254 -0.00018632
v -0.04807807 0.05769617 -0.00018632
v -0.04807807 0.05798289 0.00069626
v -0.04807807 0.05801215 0.00236468
v -0.04776410 0.05801500 0.00236468
v -0.05348372 0.05537312 0.00047816
v -0.05361759 0.05537312 0.00047816
v -0.05361759 0.05711262 -0.00048871
v -0.05343018 0.05711262 -0.00050059
v -0.05224001 0.05762934 -0.00018122
v -0.05164614 0.05764462 -0.00018349
v -0.05104984 0.05765887 -0.00018462
v -0.05045598 0.05766949 -0.00018518
v -0.04867194 0.05797615 0.00069626
v -0.04863543 0.05800646 0.00236468
v -0.04848940 0.05800801 0.00236468
v -0.04831659 0.05800983 0.00236468
v -0.04190332 0.05630347 0.00236468
v -0.05361759 0.05537312 0.00185012
v -0.05361759 0.05755475 -0.00011617
v -0.05343018 0.05756562 -0.00012861
v -0.05283388 0.05759956 -0.00015690
v -0.05224001 0.05784613 0.00069626
v -0.05164614 0.05787980 0.00069626
v -0.05104984 0.05791037 0.00069626
v -0.05045598 0.05793238 0.00069626
v -0.04986211 0.05794999 0.00069626
v -0.04926824 0.05796579 0.00069626
v -0.04886178 0.05800335 0.00236468
v -0.04877660 0.05800465 0.00236468
v -0.04094680 0.05537312 0.00185861
v -0.04213210 0.05630347 0.00236468
v -0.04268459 0.05537312 0.00185833
v -0.04272840 0.05631151 0.00236468
v -0.05361759 0.05647339 0.00236468
v -0.05361759 0.05769643 0.00069626
v -0.05343018 0.05772129 0.00069626
v -0.05283388 0.05779070 0.00069626
v -0.05283388 0.05782204 0.00236468
v -0.05261969 0.05784043 0.00236468
v -0.05224001 0.05787229 0.00236468
v -0.05202339 0.05788576 0.00236468
v -0.05164614 0.05790829 0.00236468
v -0.05142953 0.05791969 0.00236468
v -0.05104984 0.05793834 0.00236468
v -0.05083566 0.05794611 0.00236468
v -0.05045598 0.05795984 0.00236468
v -0.04985967 0.05797874 0.00236468
v -0.04926824 0.05799480 0.00236468
v -0.05361759 0.05772388 0.00236468
v -0.05343018 0.05775159 0.00236468
v -0.05321356 0.05777723 0.00236468
v -0.02875600 0.05630400 0.00236468
v -0.02875600 0.05738988 0.00236468
v -0.02875600 0.05738988 0.00236464
v -0.02875600 0.05738987 0.00236437
v -0.02875600 0.05708295 0.00083638
v -0.02875600 0.05651857 0.00046783
v -0.02875600 0.05537343 0.00049017
v -0.02875600 0.05537334 0.00049020
v -0.02875600 0.05537344 0.00049017
v -0.02875600 0.05537325 0.00049025
v -0.02875600 0.05537312 0.00049032
v -0.02875600 0.05537333 0.00185872
v -0.02875600 0.05537312 0.00185861
v -0.02875600 0.05736812 0.00171500
v -0.02875600 0.05722336 0.00126870
v -0.02875600 0.05708300 0.00083654
v -0.02875600 0.05651868 0.00046786
f 24 33 34
f 11 14 7
f 21 85 88
f 10 93 94
f 83 93 10
f 96 11 84
f 5 11 7
f 7 3 5
f 10 11 5
f 10 5 6
f 22 11 21
f 14 11 22
f 61 62 46
f 46 59 61
f 60 59 46
f 18 8 17
f 63 64 47
f 25 14 24
f 10 94 95
f 10 6 12
f 2 6 5
f 2 3 1
f 2 5 3
f 80 45 91
f 59 60 58
f 71 72 52
f 52 72 53
f 78 63 77
f 64 63 78
f 69 50 68
f 70 50 69
f 51 50 70
f 70 71 51
f 51 71 52
f 68 50 67
f 67 50 66
f 64 66 65
f 66 50 65
f 47 64 65
f 65 50 47
f 17 8 16
f 35 47 48
f 48 49 35
f 47 50 48
f 50 49 48
f 38 25 37
f 35 49 37
f 52 53 37
f 37 51 52
f 37 49 50
f 50 51 37
f 14 25 26
f 20 12 23
f 10 12 20
f 32 18 17
f 17 31 32
f 8 9 4
f 8 18 19
f 19 9 8
f 30 31 17
f 17 28 30
f 79 66 64
f 64 78 79
f 14 28 29
f 29 16 14
f 29 28 17
f 17 16 29
f 15 16 8
f 14 16 15
f 35 37 36
f 36 37 25
f 24 35 36
f 36 25 24
f 54 37 53
f 53 75 54
f 54 55 38
f 38 37 54
f 39 25 38
f 38 55 39
f 27 26 41
f 27 30 28
f 41 30 27
f 27 28 14
f 14 26 27
f 42 41 57
f 42 30 41
f 74 75 53
f 55 54 76
f 76 54 75
f 7 14 13
f 14 15 13
f 13 15 8
f 40 26 25
f 25 39 40
f 41 26 40
f 55 41 40
f 40 39 55
f 31 30 44
f 73 53 72
f 73 74 53
f 55 76 56
f 57 41 56
f 56 41 55
f 30 42 43
f 43 44 30
f 96 85 21
f 21 11 96
f 24 34 63
f 63 35 24
f 63 62 77
f 63 34 46
f 46 62 63
f 63 47 35
f 84 11 95
f 95 11 10
f 24 14 89
f 14 87 89
f 89 90 33
f 89 33 24
f 21 88 86
f 86 22 21
f 86 87 14
f 14 22 86
f 91 81 80
f 91 86 88
f 84 95 91
f 91 96 84
f 91 92 90
f 91 82 81
f 91 88 85
f 91 94 93
f 93 83 91
f 85 96 91
f 90 89 91
f 91 95 94
f 83 82 91
f 91 89 87
f 87 86 91
f 46 34 58
f 33 90 58
f 58 34 33
f 90 92 58
f 58 60 46
f 58 45 59
f 92 91 58
f 58 91 45
f 81 82 20
f 20 23 81
f 20 83 10
f 20 82 83
f 1 3 4
f 3 8 4
f 13 8 3
f 13 3 7
f 43 2 1
f 80 81 43
f 66 79 43
f 77 62 43
f 62 61 43
f 81 23 43
f 23 12 43
f 43 45 80
f 43 19 18
f 18 32 43
f 43 61 59
f 59 45 43
f 43 78 77
f 72 71 43
f 43 69 68
f 43 12 6
f 6 2 43
f 43 71 70
f 68 67 43
f 1 4 43
f 43 42 57
f 70 69 43
f 43 67 66
f 43 32 31
f 43 4 9
f 9 19 43
f 31 44 43
f 43 79 78
f 43 73 72
f 75 74 43
f 43 76 75
f 57 56 43
f 74 73 43
f 43 56 76
