# https://github.com/mikedh/trimesh
v 0.05752270 -0.02860490 0.00234342
v 0.05806210 -0.02860490 0.01389381
v 0.05752236 -0.02910660 0.00234342
v 0.05630459 -0.02860490 0.00234342
v 0.05659348 -0.02860490 0.01389381
v 0.05789463 -0.04159290 0.01373439
v 0.05748153 -0.04158523 0.00234342
v 0.05751558 -0.03244703 0.00234342
v 0.05751680 -0.03208099 0.00234342
v 0.05751853 -0.03148714 0.00234342
v 0.05751958 -0.03089329 0.00234342
v 0.05752097 -0.03006906 0.00234342
v 0.05752184 -0.02947520 0.00234342
v 0.05628774 -0.04099905 0.00234342
v 0.05628740 -0.04158523 0.00234342
v 0.05657664 -0.04040520 0.01373439
v 0.05657750 -0.04099905 0.01373439
v 0.05657907 -0.04112192 0.01373439
v 0.05658584 -0.04159290 0.01373439
v 0.05763406 -0.04159290 0.01058562
v 0.05660096 -0.04159290 0.01058562
v 0.05763824 -0.02845850 0.00481758
v 0.05806210 -0.02845850 0.01389381
v 0.05643059 -0.02845850 0.00828687
v 0.05643359 -0.02845850 0.00841856
v 0.05657096 -0.02845850 0.01381449
v 0.05657125 -0.02845850 0.01381642
v 0.05659314 -0.02845850 0.01389381
v 0.05755464 -0.02845850 0.00302869
v 0.05752239 -0.02845850 0.00235404
v 0.05752846 -0.02845850 0.00247189
v 0.05630600 -0.02845850 0.00235404
v 0.05630764 -0.02845850 0.00247793
v 0.05630778 -0.02845850 0.00248460
f 2 6 7
f 20 7 6
f 17 16 15
f 21 19 15
f 24 4 14
f 15 19 18
f 18 17 15
f 19 5 18
f 5 17 18
f 4 33 32
f 34 4 24
f 34 33 4
f 2 7 8
f 8 9 2
f 31 1 30
f 31 29 1
f 1 29 22
f 3 1 2
f 2 9 10
f 10 11 2
f 2 11 12
f 13 3 2
f 2 12 13
f 5 19 6
f 5 6 2
f 15 16 25
f 25 16 26
f 28 5 2
f 2 23 28
f 7 20 21
f 15 7 21
f 6 19 21
f 21 20 6
f 15 25 14
f 14 25 24
f 26 16 27
f 16 17 27
f 27 17 5
f 5 28 27
f 32 1 4
f 30 1 32
f 22 25 26
f 30 32 22
f 26 27 22
f 24 25 22
f 22 34 24
f 22 28 23
f 22 32 33
f 22 27 28
f 33 34 22
f 22 31 30
f 29 31 22
f 22 23 2
f 2 1 22
f 13 7 15
f 15 14 13
f 13 14 4
f 4 1 13
f 13 8 7
f 9 8 13
f 1 3 13
f 13 10 9
f 11 10 13
f 13 12 11
