# https://github.com/mikedh/trimesh
v 0.05500002 -0.05465703 0.00049153
v 0.05500002 -0.05615990 -0.00028546
v 0.05500002 -0.05615990 0.00212872
v 0.05500002 -0.05465703 0.00185083
v 0.04511325 -0.05465703 0.00185111
v 0.04390378 -0.05465703 0.00185111
v 0.02875250 -0.05616515 -0.00030727
v 0.02875250 -0.05541267 0.00008176
v 0.02875250 -0.05617041 0.00047379
v 0.02875250 -0.05616515 0.00231192
v 0.02875250 -0.05523715 0.00209817
v 0.02875250 -0.05541267 0.00217279
v 0.02875250 -0.05520993 0.00208658
v 0.02875250 -0.05465703 0.00049153
v 0.02875250 -0.05617041 0.00222269
v 0.02875250 -0.05465703 0.00185083
f 7 2 9
f 1 8 14
f 15 3 10
f 16 13 6
f 8 2 7
f 1 2 8
f 15 9 2
f 2 3 15
f 4 2 1
f 4 3 2
f 3 4 12
f 10 3 12
f 14 16 6
f 6 4 1
f 1 14 6
f 5 4 6
f 11 15 10
f 11 8 7
f 11 16 14
f 7 9 11
f 9 15 11
f 11 14 8
f 10 12 11
f 11 13 16
f 11 4 5
f 11 12 4
f 5 6 11
f 11 6 13
