# https://github.com/mikedh/trimesh
v -0.05408730 -0.05778996 0.00979437
v -0.05408730 -0.05675363 0.00979437
v -0.05402284 -0.05780203 0.00979437
v -0.05408730 -0.05779218 0.00986902
v -0.05408730 -0.05683099 0.01374556
v -0.04272888 -0.05654755 0.01374556
v -0.04272888 -0.05649263 0.00979437
v -0.05347252 -0.05787345 0.00979437
v -0.05317753 -0.05795030 0.01118131
v -0.05402284 -0.05780408 0.00986902
v -0.05408730 -0.05781938 0.01088814
v -0.05408730 -0.05788399 0.01374556
v -0.04213394 -0.05653616 0.01374556
v -0.04268426 -0.05649229 0.00979437
v -0.05342790 -0.05787923 0.00979437
v -0.05309820 -0.05794027 0.01050176
v -0.05287262 -0.05797173 0.01086029
v -0.05283544 -0.05800148 0.01190687
v -0.05283544 -0.05802477 0.01292600
v -0.05324942 -0.05795948 0.01190687
v -0.05402284 -0.05783111 0.01088814
v -0.05408730 -0.05784522 0.01190687
v -0.05408730 -0.05787039 0.01292600
v -0.05398318 -0.05790303 0.01374556
v -0.04201743 -0.05653565 0.01374556
v -0.04213394 -0.05648821 0.00979437
v -0.05304119 -0.05792497 0.00979437
v -0.05299657 -0.05792990 0.00979437
v -0.05270158 -0.05796016 0.00979437
v -0.05271149 -0.05796118 0.00986902
v -0.05224050 -0.05804654 0.01190687
v -0.05224050 -0.05806932 0.01292600
v -0.05283544 -0.05803872 0.01374556
v -0.05334362 -0.05797122 0.01292600
v -0.05402284 -0.05788178 0.01292600
v -0.05402284 -0.05785661 0.01190687
v -0.05370058 -0.05794010 0.01369373
v -0.05374521 -0.05793500 0.01374556
v -0.04153900 -0.05653463 0.01374556
v -0.04153900 -0.05648702 0.00979437
v -0.05227520 -0.05799128 0.00979437
v -0.05224050 -0.05802154 0.01088814
v -0.05164556 -0.05805708 0.01088814
v -0.05164556 -0.05808191 0.01190687
v -0.05224050 -0.05808310 0.01374556
v -0.05164556 -0.05810452 0.01292600
v -0.05293460 -0.05802818 0.01374556
v -0.05344277 -0.05797309 0.01374556
v -0.05366092 -0.05794588 0.01374556
v -0.02876264 -0.05653463 0.01374556
v -0.02876264 -0.05648736 0.00979437
v -0.05224298 -0.05799349 0.00979437
v -0.05164556 -0.05802937 0.00979437
v -0.05109524 -0.05805810 0.00979437
v -0.05105062 -0.05808786 0.01088814
v -0.05105062 -0.05811251 0.01190687
v -0.05164556 -0.05811829 0.01374556
v -0.05105062 -0.05813513 0.01292600
v -0.02876264 -0.05787039 0.01374556
v -0.02876264 -0.05751162 0.00979437
v -0.05105062 -0.05806031 0.00979437
v -0.05050030 -0.05808020 0.00979437
v -0.05045568 -0.05810911 0.01088814
v -0.05045568 -0.05813376 0.01190687
v -0.05105062 -0.05814873 0.01374556
v -0.05045568 -0.05815604 0.01292600
v -0.04391629 -0.05822133 0.01374556
v -0.04391629 -0.05820773 0.01292600
v -0.04391629 -0.05818477 0.01190687
v -0.04391629 -0.05815927 0.01088814
v -0.04391629 -0.05813240 0.00986902
v -0.04391629 -0.05813037 0.00979437
v -0.05045568 -0.05808174 0.00979437
v -0.05045568 -0.05808361 0.00986902
v -0.04986322 -0.05812560 0.01088814
v -0.04986322 -0.05815009 0.01190687
v -0.05045568 -0.05816947 0.01374556
v -0.04986322 -0.05817236 0.01292600
v -0.04403279 -0.05822184 0.01374556
v -0.04451123 -0.05821011 0.01292600
v -0.04451123 -0.05818766 0.01190687
v -0.04451123 -0.05816318 0.01088814
v -0.04451123 -0.05813767 0.00986902
v -0.04451123 -0.05813580 0.00979437
v -0.04396090 -0.05813087 0.00979437
v -0.04986322 -0.05809823 0.00979437
v -0.04986322 -0.05810010 0.00986902
v -0.04926827 -0.05811523 0.00986902
v -0.04926827 -0.05814057 0.01088814
v -0.04926827 -0.05816505 0.01190687
v -0.04986322 -0.05818579 0.01374556
v -0.04926827 -0.05818732 0.01292600
v -0.04938478 -0.05819787 0.01374556
v -0.04451123 -0.05822354 0.01374556
v -0.04462773 -0.05822371 0.01374556
v -0.04510617 -0.05821045 0.01292600
v -0.04510617 -0.05818818 0.01190687
v -0.04510617 -0.05816369 0.01088814
v -0.04510617 -0.05813819 0.00986902
v -0.04510617 -0.05813632 0.00979437
v -0.04926827 -0.05811336 0.00979437
v -0.04867333 -0.05812492 0.00986902
v -0.04867333 -0.05815026 0.01088814
v -0.04867333 -0.05817474 0.01190687
v -0.04867333 -0.05819702 0.01292600
v -0.04878984 -0.05820858 0.01374556
v -0.04926827 -0.05820076 0.01374556
v -0.04510617 -0.05822388 0.01374556
v -0.04688851 -0.05821045 0.01292600
v -0.04688851 -0.05818818 0.01190687
v -0.04688851 -0.05816369 0.01088814
v -0.04688851 -0.05813819 0.00986902
v -0.04688851 -0.05813632 0.00979437
v -0.04867333 -0.05812305 0.00979437
v -0.04812301 -0.05812832 0.00979437
v -0.04807839 -0.05815604 0.01088814
v -0.04807839 -0.05818035 0.01190687
v -0.04867333 -0.05821045 0.01374556
v -0.04807839 -0.05820263 0.01292600
v -0.04688851 -0.05822388 0.01374556
v -0.04748345 -0.05820790 0.01292600
v -0.04748345 -0.05818562 0.01190687
v -0.04748345 -0.05816131 0.01088814
v -0.04693313 -0.05813614 0.00979437
v -0.04752807 -0.05813359 0.00979437
v -0.04807839 -0.05821606 0.01374556
v -0.04759996 -0.05822031 0.01374556
v -0.04748345 -0.05822133 0.01374556
v -0.04748345 -0.05813580 0.00986902
v -0.04748345 -0.05813394 0.00979437
f 60 59 72
f 7 2 6
f 6 13 7
f 6 2 5
f 50 51 40
f 24 12 23
f 50 40 39
f 26 39 40
f 67 68 59
f 85 72 71
f 71 72 59
f 7 13 14
f 13 26 14
f 25 26 13
f 39 26 25
f 24 23 35
f 20 34 35
f 33 34 19
f 19 32 33
f 19 34 20
f 33 32 45
f 30 29 18
f 18 17 30
f 29 30 16
f 16 30 17
f 68 67 79
f 22 11 21
f 36 21 20
f 20 35 36
f 36 22 21
f 34 48 37
f 24 35 37
f 37 35 34
f 47 34 33
f 47 48 34
f 54 55 43
f 1 3 4
f 27 16 15
f 9 17 18
f 9 16 17
f 18 19 9
f 9 19 20
f 15 16 9
f 9 8 15
f 3 8 9
f 20 21 9
f 61 55 54
f 108 96 95
f 80 79 94
f 68 79 80
f 94 95 80
f 80 95 96
f 70 84 85
f 85 71 70
f 70 71 59
f 24 37 38
f 44 46 32
f 56 46 44
f 44 55 56
f 44 43 55
f 54 43 53
f 42 53 43
f 11 4 10
f 10 4 3
f 21 11 10
f 10 9 21
f 3 9 10
f 29 16 28
f 16 27 28
f 55 61 62
f 68 80 81
f 110 109 121
f 121 122 110
f 49 37 48
f 49 38 37
f 18 29 31
f 29 42 31
f 31 19 18
f 32 19 31
f 31 44 32
f 43 44 31
f 31 42 43
f 53 42 52
f 68 81 69
f 59 68 69
f 69 70 59
f 97 80 96
f 97 81 80
f 58 66 65
f 58 46 56
f 65 57 58
f 58 57 46
f 64 58 56
f 66 58 64
f 78 66 64
f 65 66 77
f 78 91 77
f 77 66 78
f 41 42 29
f 41 52 42
f 82 69 81
f 93 91 78
f 55 62 63
f 123 124 111
f 110 122 123
f 123 111 110
f 112 124 113
f 111 124 112
f 69 82 83
f 84 70 83
f 70 69 83
f 74 62 73
f 74 63 62
f 78 64 76
f 76 90 78
f 116 123 122
f 121 128 127
f 87 74 73
f 63 74 87
f 106 105 118
f 78 90 92
f 92 106 107
f 105 106 92
f 107 93 92
f 92 93 78
f 119 127 126
f 121 127 119
f 104 90 103
f 103 116 104
f 102 116 103
f 115 102 114
f 116 102 115
f 86 87 73
f 63 87 75
f 64 63 75
f 75 76 64
f 117 116 122
f 117 104 116
f 123 116 125
f 116 115 125
f 88 75 87
f 88 86 101
f 87 86 88
f 88 102 103
f 129 125 130
f 123 125 129
f 130 124 129
f 124 123 129
f 75 88 89
f 103 90 89
f 89 88 103
f 50 59 51
f 51 59 60
f 23 22 36
f 36 35 23
f 57 45 32
f 32 46 57
f 4 2 1
f 4 12 5
f 5 2 4
f 4 23 12
f 4 22 23
f 11 22 4
f 120 96 108
f 120 109 96
f 96 109 97
f 97 109 110
f 109 120 128
f 128 121 109
f 63 64 56
f 56 55 63
f 100 112 113
f 99 112 100
f 83 100 84
f 99 100 83
f 98 112 99
f 111 112 98
f 99 83 98
f 98 83 82
f 98 97 110
f 110 111 98
f 81 97 98
f 98 82 81
f 106 47 33
f 106 59 50
f 106 6 5
f 106 57 65
f 5 12 106
f 106 12 24
f 13 6 106
f 50 39 106
f 106 25 13
f 108 95 106
f 106 67 59
f 39 25 106
f 24 38 106
f 106 79 67
f 33 45 106
f 106 120 108
f 94 79 106
f 48 47 106
f 45 57 106
f 106 95 94
f 106 127 128
f 65 77 106
f 106 49 48
f 38 49 106
f 91 93 106
f 106 77 91
f 106 128 120
f 106 93 107
f 118 126 106
f 126 127 106
f 119 126 118
f 118 105 119
f 105 92 104
f 104 92 90
f 121 119 117
f 122 121 117
f 117 119 105
f 105 104 117
f 1 2 125
f 125 3 1
f 125 51 60
f 125 2 7
f 60 72 125
f 125 72 85
f 125 40 51
f 7 14 125
f 125 26 40
f 125 86 73
f 73 62 125
f 125 14 26
f 15 8 125
f 125 124 130
f 85 84 125
f 29 28 125
f 125 8 3
f 125 27 15
f 125 61 54
f 84 100 125
f 54 53 125
f 125 28 27
f 125 62 61
f 125 41 29
f 53 52 125
f 113 124 125
f 52 41 125
f 125 114 101
f 125 100 113
f 125 115 114
f 101 86 125
f 101 114 88
f 114 102 88
f 76 75 89
f 90 76 89
