# https://github.com/mikedh/trimesh
v -0.05837216 0.05309896 0.01464698
v -0.05837033 0.05309896 0.01419814
v -0.05701290 0.05309896 0.01464698
v -0.05831631 0.05354581 0.01464698
v -0.05831396 0.05354581 0.01394529
v -0.05836928 0.05309896 0.01394529
v -0.05729005 0.05309896 0.01058551
v -0.05581674 0.05621472 0.01058551
v -0.05569376 0.05621472 0.01464698
v -0.05824683 0.05395515 0.01464698
v -0.05836141 0.05309896 0.01317880
v -0.05821537 0.05414030 0.01464698
v -0.05821275 0.05414030 0.01394529
v -0.05830189 0.05354581 0.01292594
v -0.05831500 0.05309896 0.01058551
v -0.05732493 0.05621472 0.01058551
v -0.05742299 0.05621472 0.01464698
v -0.05835827 0.05309896 0.01292594
v -0.05812202 0.05454963 0.01464698
v -0.05807640 0.05473447 0.01394529
v -0.05819963 0.05414030 0.01292594
v -0.05828380 0.05354581 0.01190740
v -0.05834595 0.05309896 0.01216025
v -0.05831658 0.05309896 0.01066065
v -0.05825706 0.05354581 0.01058551
v -0.05733096 0.05621472 0.01076163
v -0.05749143 0.05593960 0.01058551
v -0.05741722 0.05621472 0.01394529
v -0.05759316 0.05592374 0.01394529
v -0.05759840 0.05592374 0.01464698
v -0.05807955 0.05473447 0.01464698
v -0.05806250 0.05473447 0.01292594
v -0.05794608 0.05517522 0.01394529
v -0.05793901 0.05515631 0.01292594
v -0.05818023 0.05414030 0.01190740
v -0.05826335 0.05354581 0.01088805
v -0.05832654 0.05309896 0.01114090
v -0.05834122 0.05309896 0.01190740
v -0.05818311 0.05396399 0.01058551
v -0.05733410 0.05621472 0.01085585
v -0.05751135 0.05592374 0.01088805
v -0.05758897 0.05575780 0.01058551
v -0.05739677 0.05621472 0.01292594
v -0.05757297 0.05592374 0.01292594
v -0.05781498 0.05545340 0.01292594
v -0.05782390 0.05547231 0.01394529
v -0.05767025 0.05578312 0.01464698
v -0.05794766 0.05517980 0.01464698
v -0.05792852 0.05512886 0.01190740
v -0.05791672 0.05509897 0.01088805
v -0.05804153 0.05473447 0.01190740
v -0.05782600 0.05547688 0.01464698
v -0.05815821 0.05414030 0.01088805
v -0.05815139 0.05414030 0.01058551
v -0.05733515 0.05621472 0.01088805
v -0.05754386 0.05592374 0.01190740
v -0.05736242 0.05621472 0.01174121
v -0.05778352 0.05538691 0.01058551
v -0.05739074 0.05621472 0.01271126
v -0.05780240 0.05542625 0.01190740
v -0.05791305 0.05508981 0.01058551
v -0.05801793 0.05473447 0.01088805
v -0.05805280 0.05455847 0.01058551
v -0.05778798 0.05539636 0.01088805
v -0.05736766 0.05621472 0.01190740
v -0.05801059 0.05473447 0.01058551
f 3 8 9
f 7 8 3
f 4 5 1
f 13 5 12
f 14 23 18
f 22 23 14
f 5 13 14
f 12 5 10
f 5 4 10
f 1 5 2
f 5 6 2
f 11 6 5
f 11 14 18
f 5 14 11
f 38 23 22
f 22 37 38
f 19 13 12
f 33 31 48
f 48 52 33
f 15 24 25
f 22 14 21
f 21 14 13
f 45 44 60
f 28 43 44
f 46 33 52
f 45 34 46
f 34 33 46
f 20 19 31
f 13 19 20
f 20 21 13
f 32 21 20
f 31 33 20
f 34 32 20
f 20 33 34
f 36 37 22
f 36 24 37
f 36 25 24
f 51 63 54
f 62 66 63
f 62 63 51
f 29 30 17
f 17 28 29
f 29 28 44
f 29 46 30
f 29 44 45
f 45 46 29
f 44 43 59
f 27 42 41
f 47 46 52
f 30 46 47
f 39 25 35
f 25 36 35
f 22 21 35
f 35 36 22
f 35 32 51
f 35 21 32
f 61 64 58
f 60 64 61
f 66 62 61
f 61 62 51
f 56 59 65
f 44 59 56
f 56 60 44
f 56 64 60
f 58 64 56
f 56 42 58
f 56 41 42
f 53 54 39
f 39 35 53
f 51 54 53
f 53 35 51
f 49 34 45
f 45 60 49
f 49 32 34
f 16 27 26
f 27 41 26
f 41 56 57
f 57 56 65
f 57 55 41
f 60 61 50
f 50 49 60
f 32 49 50
f 51 32 50
f 50 61 51
f 41 55 40
f 40 26 41
f 38 3 1
f 7 3 38
f 38 15 7
f 38 11 18
f 18 23 38
f 1 2 38
f 38 24 15
f 38 2 6
f 6 11 38
f 37 24 38
f 9 17 47
f 1 3 47
f 47 3 9
f 47 4 1
f 12 10 47
f 48 31 47
f 47 52 48
f 47 10 4
f 17 30 47
f 47 19 12
f 31 19 47
f 7 15 61
f 61 16 8
f 61 8 7
f 15 25 61
f 63 66 61
f 61 27 16
f 61 25 39
f 61 54 63
f 58 42 61
f 39 54 61
f 61 42 27
f 40 17 9
f 9 8 40
f 8 16 40
f 40 28 17
f 43 28 40
f 40 59 43
f 65 59 40
f 16 26 40
f 40 57 65
f 55 57 40
