# https://github.com/mikedh/trimesh
v 0.04761429 -0.05450605 0.01497315
v 0.04761429 -0.05450605 0.01703004
v 0.04761429 -0.05348567 0.01497315
v 0.05277395 -0.05450605 0.01497315
v 0.05277395 -0.05450605 0.01703004
v 0.04761429 -0.05334861 0.01703004
v 0.04761429 -0.05289087 0.01498564
v 0.04807288 -0.05289087 0.01497396
v 0.05223404 -0.04932463 0.01497315
v 0.05277395 -0.04932463 0.01497315
v 0.05277395 -0.04878482 0.01703004
v 0.04761429 -0.05289087 0.01701796
v 0.05277395 -0.04819003 0.01702783
v 0.04761429 -0.05228508 0.01520471
v 0.05277395 -0.04639379 0.01527257
v 0.05277395 -0.04694628 0.01511471
v 0.05277395 -0.04754277 0.01501685
v 0.05277395 -0.04813588 0.01498322
v 0.05277395 -0.04872983 0.01497416
v 0.04761429 -0.05275465 0.01699863
v 0.05277395 -0.04759608 0.01700326
v 0.04761429 -0.05208709 0.01534103
v 0.05250374 -0.04657993 0.01542520
v 0.05277395 -0.04586245 0.01598398
v 0.04761429 -0.05228254 0.01678700
v 0.05277395 -0.04700212 0.01690298
v 0.05277395 -0.04641156 0.01672740
v 0.04761429 -0.05195426 0.01598398
v 0.04769711 -0.05195595 0.01540507
v 0.05277395 -0.04603082 0.01629890
v 0.04761429 -0.05198725 0.01643945
v 0.04769004 -0.05195172 0.01657195
v 0.04761429 -0.05218270 0.01672861
v 0.05277395 -0.04638618 0.01671512
v 0.04761429 -0.05207271 0.01663517
f 29 28 24
f 14 15 7
f 24 28 31
f 12 13 21
f 10 9 19
f 28 29 22
f 22 15 14
f 22 29 24
f 17 7 16
f 16 7 15
f 18 7 17
f 6 11 13
f 13 12 6
f 25 34 33
f 24 15 23
f 23 22 24
f 15 22 23
f 9 3 8
f 19 9 8
f 8 18 19
f 8 3 7
f 7 18 8
f 34 30 35
f 33 34 35
f 21 26 20
f 20 12 21
f 32 30 24
f 32 35 30
f 31 35 32
f 24 31 32
f 27 20 26
f 25 20 27
f 34 25 27
f 5 2 1
f 1 4 5
f 3 4 1
f 3 10 4
f 9 10 3
f 2 5 6
f 5 11 6
f 1 2 20
f 20 31 28
f 20 3 1
f 28 22 20
f 14 7 20
f 20 25 33
f 2 6 20
f 20 22 14
f 7 3 20
f 20 6 12
f 33 35 20
f 20 35 31
f 27 5 4
f 27 11 5
f 27 15 24
f 27 18 17
f 17 16 27
f 21 13 27
f 4 10 27
f 13 11 27
f 24 30 27
f 27 10 19
f 27 16 15
f 19 18 27
f 27 30 34
f 27 26 21
