# https://github.com/mikedh/trimesh
v 0.04781071 -0.03215466 0.01598398
v 0.04781071 -0.03199345 0.01668008
v 0.04781071 -0.03212543 0.01578423
v 0.05277395 -0.03823995 0.01598398
v 0.04781071 -0.03148909 0.01694990
v 0.05277395 -0.03802783 0.01622722
v 0.05246639 -0.03729062 0.01660216
v 0.05277395 -0.03746126 0.01676566
v 0.04781071 -0.03198874 0.01530459
v 0.05277395 -0.03815604 0.01583316
v 0.05277395 -0.03683906 0.01693782
v 0.04807260 -0.03148909 0.01700185
v 0.04781071 -0.03089423 0.01702883
v 0.04781071 -0.03181245 0.01519082
v 0.05277395 -0.03745560 0.01522384
v 0.05277395 -0.03787323 0.01555045
v 0.05277395 -0.03624608 0.01700065
v 0.04807260 -0.03089423 0.01703004
v 0.04781071 -0.03030032 0.01703004
v 0.05277395 -0.03564934 0.01702561
v 0.05223365 -0.03505542 0.01702662
v 0.05277395 -0.03505542 0.01702984
v 0.04781071 -0.03148909 0.01505108
v 0.05277395 -0.03744334 0.01521941
v 0.05223365 -0.03446056 0.01703004
v 0.04781071 -0.02860907 0.01703004
v 0.05277395 -0.03446056 0.01703004
v 0.05277395 -0.03678815 0.01504947
v 0.04781071 -0.03122702 0.01498987
v 0.05277395 -0.02860907 0.01703004
v 0.04781071 -0.02860907 0.01497315
v 0.05277395 -0.03618952 0.01498543
v 0.04781071 -0.03089423 0.01497456
v 0.05277395 -0.02860907 0.01497315
v 0.04781071 -0.03063216 0.01497315
v 0.05277395 -0.03559466 0.01497355
v 0.04807260 -0.03089423 0.01497315
v 0.05277395 -0.03500074 0.01497315
f 1 4 2
f 5 2 8
f 8 11 5
f 3 4 1
f 3 9 4
f 4 9 10
f 6 2 4
f 12 13 5
f 5 11 12
f 33 36 32
f 32 29 33
f 7 6 8
f 7 8 2
f 2 6 7
f 13 22 18
f 17 12 11
f 13 12 17
f 23 15 14
f 14 15 9
f 16 10 9
f 9 15 16
f 23 29 28
f 28 29 32
f 13 18 19
f 22 27 25
f 25 18 22
f 13 17 20
f 24 15 23
f 23 28 24
f 37 38 36
f 33 35 37
f 36 33 37
f 21 20 22
f 21 22 13
f 13 20 21
f 34 31 26
f 26 30 34
f 26 31 19
f 1 2 19
f 31 35 19
f 19 3 1
f 19 2 5
f 23 14 19
f 5 13 19
f 9 3 19
f 19 29 23
f 19 33 29
f 19 14 9
f 19 35 33
f 25 30 26
f 25 27 30
f 26 19 25
f 25 19 18
f 24 34 30
f 10 16 24
f 24 6 4
f 4 10 24
f 11 8 24
f 24 38 34
f 32 36 24
f 8 6 24
f 30 27 24
f 24 17 11
f 36 38 24
f 24 27 22
f 24 28 32
f 24 16 15
f 22 20 24
f 24 20 17
f 31 34 37
f 34 38 37
f 37 35 31
