# https://github.com/mikedh/trimesh
v 0.05578096 0.05619144 0.00976688
v 0.05578096 0.05624229 0.01437874
v 0.05578096 0.05736930 0.00976688
v 0.05749330 0.05056320 0.00976688
v 0.05748864 0.05056320 0.01437874
v 0.05578096 0.05749068 0.01437874
v 0.05578096 0.05737133 0.00982603
v 0.05593403 0.05730081 0.00976688
v 0.05851599 0.05056320 0.00976688
v 0.05858348 0.05056320 0.01437874
v 0.05580619 0.05748187 0.01437874
v 0.05578096 0.05748661 0.01394536
v 0.05578096 0.05738422 0.01020568
v 0.05600563 0.05730691 0.01088825
v 0.05596750 0.05728928 0.00986891
v 0.05596366 0.05728725 0.00976688
v 0.05851544 0.05058151 0.00976688
v 0.05851681 0.05056320 0.00979894
v 0.05858238 0.05056320 0.01394536
v 0.05855824 0.05112602 0.01437874
v 0.05610329 0.05735099 0.01437874
v 0.05609835 0.05734896 0.01394536
v 0.05580126 0.05747915 0.01394536
v 0.05578096 0.05747101 0.01308674
v 0.05578096 0.05741405 0.01111081
v 0.05604184 0.05732319 0.01190759
v 0.05643797 0.05700923 0.00986891
v 0.05644318 0.05700177 0.00976688
v 0.05850447 0.05079918 0.00976688
v 0.05851901 0.05083986 0.01034156
v 0.05852203 0.05056320 0.01004136
v 0.05858183 0.05056320 0.01389029
v 0.05855714 0.05112602 0.01394536
v 0.05852861 0.05159120 0.01394536
v 0.05852916 0.05160002 0.01437874
v 0.05629861 0.05722961 0.01437874
v 0.05643797 0.05713739 0.01394536
v 0.05643797 0.05711433 0.01292602
v 0.05607448 0.05733811 0.01292602
v 0.05578096 0.05746762 0.01292602
v 0.05578096 0.05743847 0.01190759
v 0.05643797 0.05708246 0.01190759
v 0.05643797 0.05704652 0.01088825
v 0.05578096 0.05744185 0.01202045
v 0.05648707 0.05697193 0.00976688
v 0.05848911 0.05108195 0.00976688
v 0.05852422 0.05092395 0.01088825
v 0.05855467 0.05056320 0.01182407
v 0.05853712 0.05056320 0.01083137
v 0.05848335 0.05118027 0.00976688
v 0.05844933 0.05172072 0.00976688
v 0.05841175 0.05231473 0.00976688
v 0.05857196 0.05056320 0.01292602
v 0.05854672 0.05112602 0.01292602
v 0.05852340 0.05150440 0.01292602
v 0.05850804 0.05188821 0.01394536
v 0.05850913 0.05189770 0.01437874
v 0.05852093 0.05172682 0.01437874
v 0.05643797 0.05714213 0.01437874
v 0.05683739 0.05685937 0.01394536
v 0.05682312 0.05684716 0.01292602
v 0.05680255 0.05682953 0.01190759
v 0.05677978 0.05681054 0.01088825
v 0.05675591 0.05679020 0.00986891
v 0.05675344 0.05678817 0.00976688
v 0.05851929 0.05143592 0.01237031
v 0.05853108 0.05113619 0.01198162
v 0.05855605 0.05056320 0.01191120
v 0.05835167 0.05290943 0.00976688
v 0.05835387 0.05290943 0.00986891
v 0.05837526 0.05290943 0.01088825
v 0.05839502 0.05290943 0.01190759
v 0.05841367 0.05231473 0.00986891
v 0.05845070 0.05231473 0.01190759
v 0.05846689 0.05231473 0.01292602
v 0.05847786 0.05231473 0.01394536
v 0.05848005 0.05231473 0.01437874
v 0.05666758 0.05698210 0.01437874
v 0.05684013 0.05686140 0.01437874
v 0.05696632 0.05673595 0.01437874
v 0.05713476 0.05656236 0.01394536
v 0.05712022 0.05654744 0.01292602
v 0.05709992 0.05652642 0.01190759
v 0.05707715 0.05650268 0.01088825
v 0.05709224 0.05643216 0.00976688
v 0.05843260 0.05231473 0.01088825
v 0.05834399 0.05296910 0.00976688
v 0.05829818 0.05350412 0.01088825
v 0.05831875 0.05350412 0.01190759
v 0.05841175 0.05290943 0.01292602
v 0.05833686 0.05350412 0.01292602
v 0.05842245 0.05290943 0.01394536
v 0.05844823 0.05265650 0.01437874
v 0.05713723 0.05656507 0.01437874
v 0.05739592 0.05626535 0.01394536
v 0.05738467 0.05625043 0.01292602
v 0.05736821 0.05622873 0.01190759
v 0.05734983 0.05620500 0.01088825
v 0.05733666 0.05618805 0.01018492
v 0.05715999 0.05635893 0.00976688
v 0.05827431 0.05350412 0.00976688
v 0.05827651 0.05350412 0.00986891
v 0.05821506 0.05409814 0.01190759
v 0.05823453 0.05409814 0.01292602
v 0.05834865 0.05350412 0.01394536
v 0.05824743 0.05409814 0.01394536
v 0.05842437 0.05290943 0.01437874
v 0.05728728 0.05639419 0.01437874
v 0.05739784 0.05626739 0.01437874
v 0.05749796 0.05610193 0.01437874
v 0.05763129 0.05588155 0.01437874
v 0.05762800 0.05588155 0.01394536
v 0.05760770 0.05588155 0.01292602
v 0.05757862 0.05588155 0.01190759
v 0.05754597 0.05588155 0.01088825
v 0.05748014 0.05592901 0.00976688
v 0.05743981 0.05599479 0.00976688
v 0.05826361 0.05356379 0.00976688
v 0.05819311 0.05409814 0.01088825
v 0.05807625 0.05469215 0.01190759
v 0.05809710 0.05469215 0.01292602
v 0.05811136 0.05469215 0.01394536
v 0.05835002 0.05350412 0.01437874
v 0.05838184 0.05325119 0.01437874
v 0.05824907 0.05409814 0.01437874
v 0.05811328 0.05469215 0.01437874
v 0.05786008 0.05543332 0.01437874
v 0.05785871 0.05542993 0.01394536
v 0.05784993 0.05541094 0.01292602
v 0.05783703 0.05538382 0.01190759
v 0.05782277 0.05535398 0.01088825
v 0.05780768 0.05532279 0.00986891
v 0.05777641 0.05537568 0.00976688
v 0.05816760 0.05409814 0.00976688
v 0.05805293 0.05469215 0.01088825
v 0.05793744 0.05502239 0.00976688
v 0.05795170 0.05505697 0.01088825
v 0.05796350 0.05508681 0.01190759
v 0.05797392 0.05511394 0.01292602
v 0.05798106 0.05513292 0.01394536
v 0.05803839 0.05494577 0.01437874
v 0.05793030 0.05526244 0.01437874
v 0.05780850 0.05531398 0.00976688
v 0.05802385 0.05469758 0.00976688
v 0.05802769 0.05469215 0.00986891
v 0.05801370 0.05473691 0.00976688
v 0.05798188 0.05513563 0.01437874
f 1 4 5
f 5 2 1
f 89 72 71
f 71 72 52
f 91 72 89
f 72 91 90
f 74 90 75
f 72 90 74
f 12 6 11
f 11 23 12
f 55 74 75
f 19 33 10
f 136 120 135
f 120 134 135
f 89 71 88
f 105 90 91
f 91 106 105
f 72 74 86
f 117 100 99
f 99 116 117
f 136 130 137
f 137 130 138
f 137 120 136
f 113 130 114
f 24 12 23
f 10 33 20
f 75 90 76
f 33 19 32
f 32 53 54
f 54 33 32
f 130 113 129
f 138 130 129
f 120 137 121
f 121 137 138
f 136 135 146
f 146 135 144
f 134 144 145
f 145 135 134
f 144 135 145
f 54 53 47
f 47 67 54
f 47 30 52
f 52 30 51
f 51 30 50
f 87 101 102
f 102 88 87
f 70 69 87
f 87 88 70
f 70 88 71
f 52 69 70
f 70 71 52
f 125 106 126
f 123 105 125
f 125 105 106
f 104 91 89
f 104 106 91
f 52 72 73
f 72 86 73
f 16 27 28
f 26 27 14
f 13 25 14
f 14 25 26
f 131 130 136
f 114 130 131
f 115 97 114
f 22 24 23
f 22 23 11
f 56 55 75
f 75 76 56
f 56 76 77
f 124 105 123
f 124 107 105
f 90 105 92
f 105 107 92
f 92 76 90
f 142 140 127
f 142 147 140
f 140 147 141
f 127 140 128
f 138 129 139
f 139 121 138
f 139 128 140
f 129 128 139
f 122 141 126
f 140 141 122
f 126 106 122
f 122 139 140
f 121 139 122
f 106 104 122
f 122 104 121
f 30 49 31
f 48 49 30
f 30 47 48
f 17 29 30
f 50 30 46
f 30 29 46
f 89 88 103
f 103 104 89
f 88 102 103
f 120 121 103
f 121 104 103
f 103 102 101
f 66 73 86
f 52 73 66
f 54 67 66
f 66 55 54
f 74 55 66
f 66 86 74
f 66 47 52
f 67 47 66
f 45 28 27
f 15 27 16
f 15 14 27
f 16 8 15
f 8 14 15
f 7 8 3
f 7 14 8
f 13 14 7
f 65 83 84
f 99 100 84
f 84 83 99
f 99 83 98
f 98 83 97
f 97 115 98
f 98 116 99
f 98 115 116
f 136 143 132
f 132 131 136
f 114 131 132
f 132 115 114
f 127 128 111
f 114 97 96
f 96 113 114
f 21 22 11
f 40 24 39
f 24 22 39
f 39 44 40
f 26 44 39
f 26 25 41
f 41 44 26
f 55 56 34
f 34 33 54
f 54 55 34
f 34 35 20
f 34 20 33
f 58 35 34
f 57 56 77
f 58 34 57
f 57 34 56
f 93 92 107
f 77 76 93
f 76 92 93
f 68 47 53
f 68 48 47
f 9 17 18
f 30 31 18
f 18 17 30
f 119 134 120
f 120 103 119
f 119 118 134
f 101 118 119
f 119 103 101
f 85 84 100
f 65 84 85
f 133 132 143
f 116 115 133
f 115 132 133
f 59 37 36
f 36 37 22
f 22 21 36
f 60 79 80
f 61 37 60
f 60 37 59
f 61 62 42
f 26 39 42
f 110 95 109
f 111 95 110
f 112 95 111
f 112 111 128
f 113 96 112
f 96 95 112
f 112 129 113
f 112 128 129
f 78 60 59
f 79 60 78
f 43 45 27
f 43 27 26
f 26 42 43
f 38 42 39
f 22 37 38
f 38 39 22
f 38 37 61
f 61 42 38
f 109 95 108
f 95 94 108
f 81 95 96
f 81 94 95
f 61 60 81
f 80 94 81
f 81 60 80
f 65 45 64
f 45 43 64
f 64 83 65
f 82 81 96
f 97 83 82
f 82 96 97
f 61 81 82
f 83 62 82
f 82 62 61
f 63 43 42
f 63 64 43
f 63 42 62
f 63 62 83
f 83 64 63
f 41 3 1
f 1 2 41
f 2 6 41
f 41 24 40
f 40 44 41
f 6 12 41
f 41 25 13
f 12 24 41
f 41 7 3
f 13 7 41
f 18 5 4
f 10 5 18
f 4 9 18
f 53 32 18
f 18 19 10
f 18 32 19
f 18 68 53
f 18 31 49
f 49 48 18
f 48 68 18
f 133 9 4
f 133 4 1
f 133 8 16
f 134 118 133
f 133 101 87
f 1 3 133
f 136 146 133
f 100 117 133
f 133 143 136
f 52 51 133
f 133 144 134
f 87 69 133
f 133 45 65
f 133 118 101
f 16 28 133
f 133 69 52
f 133 117 116
f 133 85 100
f 3 8 133
f 133 146 144
f 133 17 9
f 133 51 50
f 50 46 133
f 29 17 133
f 133 46 29
f 28 45 133
f 65 85 133
f 108 5 10
f 2 5 108
f 123 125 108
f 20 35 108
f 108 6 2
f 11 6 108
f 108 124 123
f 127 111 108
f 10 20 108
f 108 21 11
f 126 141 108
f 108 57 77
f 108 142 127
f 108 125 126
f 108 110 109
f 80 79 108
f 107 124 108
f 147 142 108
f 108 141 147
f 59 36 108
f 77 93 108
f 108 94 80
f 108 35 58
f 58 57 108
f 108 93 107
f 108 36 21
f 111 110 108
f 108 78 59
f 79 78 108
