# https://github.com/mikedh/trimesh
v 0.05520647 -0.05705266 0.01895819
v 0.05249233 -0.05721654 0.01883638
v 0.05249233 -0.05745482 0.01889532
v 0.05249233 -0.05767028 0.01888451
v 0.05401756 -0.05758115 0.01889680
v 0.05461202 -0.05753202 0.01887371
v 0.05520647 -0.05745552 0.01877252
v 0.05520807 -0.05705266 0.01895770
v 0.05520647 -0.05667332 0.01871701
v 0.05249233 -0.05450605 0.01703024
v 0.05249233 -0.05786749 0.01870964
v 0.05249233 -0.05796891 0.01860698
v 0.05520807 -0.05745552 0.01877203
v 0.05270236 -0.05796119 0.01858390
v 0.05309875 -0.05794014 0.01850776
v 0.05520807 -0.05667227 0.01871505
v 0.05520807 -0.05450605 0.01703024
v 0.05249233 -0.05450605 0.01497359
v 0.05249233 -0.05800716 0.01833142
v 0.05461202 -0.05776608 0.01802197
v 0.05520647 -0.05761413 0.01802197
v 0.05520807 -0.05761343 0.01802197
v 0.05249233 -0.05803980 0.01805734
v 0.05287198 -0.05800471 0.01810940
v 0.05342337 -0.05797523 0.01780780
v 0.05378360 -0.05795242 0.01759021
v 0.05399602 -0.05788048 0.01796695
v 0.05520807 -0.05450605 0.01499029
v 0.05520647 -0.05450605 0.01497359
v 0.05520647 -0.05651435 0.01394059
v 0.05249233 -0.05703582 0.01394059
v 0.05461202 -0.05781486 0.01700273
v 0.05520807 -0.05766256 0.01700273
v 0.05249233 -0.05809103 0.01700273
v 0.05282864 -0.05806577 0.01700273
v 0.05380009 -0.05795453 0.01700273
v 0.05409705 -0.05791522 0.01700273
v 0.05342337 -0.05800225 0.01700273
v 0.05520807 -0.05450675 0.01497359
v 0.05520807 -0.05651365 0.01394305
v 0.05520647 -0.05763940 0.01394059
v 0.05249233 -0.05806717 0.01394059
v 0.05461202 -0.05780188 0.01496474
v 0.05520807 -0.05764887 0.01496474
v 0.05249233 -0.05807664 0.01496474
v 0.05282864 -0.05805138 0.01496474
v 0.05374479 -0.05794751 0.01496474
v 0.05404175 -0.05790891 0.01496474
v 0.05406780 -0.05791241 0.01598398
v 0.05342337 -0.05798786 0.01496474
v 0.05372884 -0.05794540 0.01437334
v 0.05520807 -0.05763870 0.01394551
v 0.05461202 -0.05779205 0.01394059
v 0.05282705 -0.05804225 0.01394059
v 0.05396306 -0.05790961 0.01399856
v 0.05346670 -0.05797347 0.01399856
v 0.05391148 -0.05791557 0.01394059
v 0.05351030 -0.05796716 0.01394059
v 0.05396598 -0.05790820 0.01394059
v 0.05345979 -0.05797347 0.01394059
f 9 10 2
f 9 17 10
f 1 9 2
f 8 9 1
f 16 9 8
f 17 9 16
f 30 40 41
f 18 29 30
f 39 40 30
f 30 29 39
f 52 41 40
f 31 18 30
f 28 39 29
f 3 1 2
f 3 4 1
f 6 7 1
f 7 6 13
f 1 4 5
f 5 6 1
f 12 6 5
f 15 13 6
f 41 52 44
f 13 15 20
f 50 46 54
f 12 5 11
f 11 5 4
f 14 6 12
f 14 15 6
f 23 15 14
f 24 15 23
f 43 44 33
f 21 33 22
f 21 20 33
f 22 13 21
f 13 20 21
f 27 15 26
f 26 20 27
f 27 20 15
f 42 54 45
f 45 54 46
f 35 46 50
f 35 23 34
f 19 14 12
f 23 14 19
f 41 44 53
f 44 43 53
f 36 47 48
f 48 53 43
f 32 43 33
f 32 20 26
f 33 20 32
f 38 36 26
f 26 35 38
f 38 35 50
f 38 47 36
f 25 35 26
f 26 15 25
f 15 24 25
f 25 24 23
f 23 35 25
f 54 60 56
f 50 54 56
f 59 53 55
f 53 48 55
f 26 36 37
f 37 32 26
f 43 32 37
f 50 56 51
f 51 48 47
f 51 55 48
f 51 38 50
f 47 38 51
f 59 55 57
f 55 51 57
f 49 48 43
f 43 37 49
f 36 48 49
f 49 37 36
f 58 56 60
f 58 51 56
f 58 57 51
f 28 18 10
f 10 17 28
f 29 18 28
f 8 1 13
f 1 7 13
f 44 16 8
f 44 28 17
f 17 16 44
f 40 39 44
f 44 52 40
f 39 28 44
f 8 13 44
f 44 13 22
f 22 33 44
f 34 45 35
f 35 45 46
f 10 18 19
f 2 10 19
f 19 31 42
f 12 11 19
f 18 31 19
f 42 45 19
f 19 3 2
f 4 3 19
f 34 23 19
f 19 11 4
f 19 45 34
f 42 31 58
f 30 41 58
f 58 31 30
f 41 53 58
f 58 54 42
f 58 60 54
f 58 53 59
f 59 57 58
