# https://github.com/mikedh/trimesh
v 0.05578096 0.05540356 0.01704484
v 0.05578096 0.05540356 0.01494481
v 0.05536988 0.05540356 0.01704484
v 0.05578096 0.05531301 0.01704484
v 0.05578096 0.05257473 0.01497319
v 0.04904334 0.05257473 0.01497319
v 0.04223411 0.05469268 0.01497319
v 0.04223411 0.05540356 0.01497071
v 0.05529165 0.05533129 0.01704484
v 0.04223411 0.05540356 0.01703024
v 0.05578096 0.05257473 0.01703024
v 0.04930324 0.05257473 0.01703024
v 0.04844927 0.05257473 0.01497770
v 0.04223411 0.05462788 0.01497586
v 0.04223411 0.05469268 0.01703024
v 0.04811511 0.05290926 0.01702983
v 0.04870917 0.05257473 0.01702592
v 0.04785520 0.05257473 0.01502211
v 0.04223411 0.05409812 0.01500053
v 0.04223411 0.05409812 0.01700290
v 0.04811511 0.05257473 0.01698625
v 0.04725451 0.05257473 0.01515718
v 0.04223411 0.05363537 0.01525113
v 0.04223411 0.05404661 0.01502787
v 0.04223411 0.05362734 0.01673441
v 0.04752104 0.05257473 0.01687071
v 0.04678774 0.05257473 0.01529143
v 0.04223411 0.05361515 0.01533151
v 0.04651192 0.05257473 0.01539956
v 0.04223411 0.05346145 0.01598404
v 0.04649999 0.05257473 0.01658043
v 0.04692565 0.05257473 0.01673585
v 0.04649734 0.05257473 0.01542937
v 0.04638197 0.05257473 0.01598404
f 8 2 7
f 6 2 5
f 7 2 6
f 6 13 7
f 12 15 16
f 28 23 29
f 22 23 18
f 10 15 9
f 15 12 9
f 28 29 30
f 27 23 22
f 27 29 23
f 13 18 19
f 10 9 3
f 4 12 11
f 4 9 12
f 17 20 21
f 17 12 16
f 15 20 17
f 16 15 17
f 21 20 25
f 25 30 31
f 31 30 34
f 24 18 23
f 24 19 18
f 7 13 14
f 13 19 14
f 32 25 31
f 33 30 29
f 33 34 30
f 21 25 26
f 25 32 26
f 1 2 3
f 2 8 3
f 8 10 3
f 5 2 4
f 4 2 1
f 4 11 5
f 1 3 4
f 4 3 9
f 14 10 8
f 14 8 7
f 28 30 14
f 14 23 28
f 14 15 10
f 14 20 15
f 14 24 23
f 14 25 20
f 30 25 14
f 19 24 14
f 5 11 26
f 31 34 26
f 26 6 5
f 22 18 26
f 13 6 26
f 26 27 22
f 11 12 26
f 26 17 21
f 26 18 13
f 29 27 26
f 12 17 26
f 26 33 29
f 26 32 31
f 34 33 26
