# https://github.com/mikedh/trimesh
v -0.05361759 0.05647340 0.00236468
v -0.05361759 0.05692526 0.01058471
v -0.05361759 0.05772387 0.00236468
v -0.04272840 0.05631134 0.00236468
v -0.04272840 0.05658868 0.01058471
v -0.05361759 0.05795046 0.01058471
v -0.05361759 0.05782896 0.00611378
v -0.05343018 0.05775161 0.00236468
v -0.04213210 0.05630360 0.00236468
v -0.04230978 0.05658471 0.01058471
v -0.05361759 0.05793971 0.01017431
v -0.05325981 0.05799819 0.01058471
v -0.05361759 0.05785745 0.00713173
v -0.05343018 0.05787443 0.00681065
v -0.05314541 0.05800612 0.01031674
v -0.05321356 0.05777727 0.00236468
v -0.04171591 0.05658245 0.01058471
v -0.04213210 0.05658339 0.01058471
v -0.04071802 0.05630360 0.00236468
v -0.04153823 0.05658207 0.01058471
v -0.05361759 0.05793272 0.00990956
v -0.05317219 0.05800970 0.01058471
v -0.05283874 0.05804234 0.01058471
v -0.05284848 0.05802460 0.00993370
v -0.05264890 0.05801517 0.00884896
v -0.05283388 0.05782198 0.00236468
v -0.03975664 0.05658207 0.01058471
v -0.05265864 0.05805649 0.01058471
v -0.05256371 0.05800706 0.00824061
v -0.05261969 0.05784028 0.00236468
v -0.05224001 0.05808856 0.01058471
v -0.05224001 0.05807026 0.00986852
v -0.05224001 0.05804366 0.00884896
v -0.05223758 0.05801819 0.00787286
v -0.05224001 0.05787235 0.00236468
v -0.04418873 0.05800951 0.00236468
v -0.04391614 0.05822591 0.01058471
v -0.05206477 0.05809913 0.01058471
v -0.05164614 0.05810592 0.00986852
v -0.05164614 0.05807970 0.00884896
v -0.05164614 0.05805309 0.00783021
v -0.05203556 0.05801027 0.00710437
v -0.05202339 0.05788575 0.00236468
v -0.04432016 0.05801385 0.00236468
v -0.04391614 0.05817931 0.00884896
v -0.04391614 0.05820704 0.00986852
v -0.04451244 0.05801649 0.00236468
v -0.04451244 0.05813346 0.00681065
v -0.04451244 0.05816006 0.00783021
v -0.04451244 0.05818629 0.00884896
v -0.04451244 0.05821233 0.00986852
v -0.04451244 0.05823025 0.01058471
v -0.05164614 0.05812403 0.01058471
v -0.05146847 0.05813327 0.01058471
v -0.05104984 0.05813686 0.00986852
v -0.05104984 0.05811082 0.00884896
v -0.05134434 0.05800423 0.00528896
v -0.05149281 0.05801328 0.00596813
v -0.05167291 0.05802385 0.00678329
v -0.05164614 0.05790820 0.00236468
v -0.04510631 0.05801875 0.00236468
v -0.04510631 0.05813422 0.00681065
v -0.04510631 0.05816063 0.00783021
v -0.04510631 0.05818686 0.00884896
v -0.04510631 0.05821270 0.00986852
v -0.04510631 0.05823082 0.01058471
v -0.05104984 0.05815497 0.01058471
v -0.05087460 0.05816139 0.01058471
v -0.05045598 0.05815837 0.00986852
v -0.05075534 0.05800461 0.00425975
v -0.05104984 0.05808441 0.00783021
v -0.05142953 0.05791971 0.00236468
v -0.05110826 0.05802593 0.00569373
v -0.05090137 0.05801140 0.00477315
v -0.05104984 0.05793838 0.00236468
v -0.04539837 0.05801894 0.00236468
v -0.04570017 0.05801913 0.00236468
v -0.04689034 0.05816063 0.00783021
v -0.04689034 0.05818686 0.00884896
v -0.04689034 0.05821270 0.00986852
v -0.04689034 0.05823082 0.01058471
v -0.05045598 0.05817629 0.01058471
v -0.05028074 0.05818119 0.01058471
v -0.04986211 0.05817478 0.00986852
v -0.04986211 0.05814893 0.00884896
v -0.05045598 0.05813233 0.00884896
v -0.05045598 0.05795989 0.00236468
v -0.05045598 0.05810611 0.00783021
v -0.05045598 0.05807970 0.00681065
v -0.05045598 0.05805328 0.00579271
v -0.05045598 0.05802668 0.00477315
v -0.05045598 0.05800894 0.00409478
v -0.04965523 0.05800706 0.00314202
v -0.04985967 0.05797876 0.00236468
v -0.05104984 0.05805781 0.00681065
v -0.04689034 0.05801913 0.00236468
v -0.04748421 0.05801725 0.00236468
v -0.04748421 0.05813214 0.00681065
v -0.04748421 0.05818459 0.00884896
v -0.04748421 0.05821044 0.00986852
v -0.04748421 0.05822836 0.01058471
v -0.04986211 0.05819270 0.01058471
v -0.04968444 0.05819723 0.01058471
v -0.04926824 0.05818987 0.00986852
v -0.04986211 0.05809649 0.00681065
v -0.04926824 0.05816403 0.00884896
v -0.04986211 0.05807007 0.00579271
v -0.04926824 0.05811158 0.00681065
v -0.04926824 0.05801178 0.00296096
v -0.04926824 0.05799498 0.00236468
v -0.04776410 0.05801498 0.00236468
v -0.04807807 0.05801234 0.00236468
v -0.04807807 0.05812705 0.00681065
v -0.04807807 0.05817950 0.00884896
v -0.04807807 0.05820516 0.00986852
v -0.04807807 0.05822308 0.01058471
v -0.04926824 0.05820761 0.01058471
v -0.04909057 0.05821063 0.01058471
v -0.04867194 0.05821742 0.01058471
v -0.04867194 0.05819950 0.00986852
v -0.04867194 0.05817365 0.00884896
v -0.04867194 0.05814761 0.00783021
v -0.04886178 0.05800347 0.00236468
v -0.04831659 0.05800989 0.00236468
v -0.04849670 0.05821912 0.01058471
v -0.04863543 0.05800649 0.00236468
v -0.04877660 0.05800479 0.00236468
v -0.02875600 0.05738987 0.00236468
v -0.02875600 0.05630398 0.00236468
v -0.02875600 0.05658226 0.01058471
v -0.02875600 0.05760627 0.01058471
v -0.02875600 0.05658220 0.01058269
v -0.02875600 0.05741345 0.00311210
v -0.02875600 0.05741349 0.00311369
v -0.02875600 0.05741349 0.00311355
v -0.02875600 0.05741348 0.00311335
v -0.02875600 0.05739798 0.00260282
v -0.02875600 0.05760098 0.01036989
v -0.02875600 0.05758835 0.00986866
v -0.02875600 0.05756250 0.00884930
v -0.02875600 0.05753628 0.00783074
v -0.02875600 0.05750988 0.00681139
v -0.02875600 0.05746989 0.00527551
v -0.02875600 0.05742179 0.00342988
f 5 2 1
f 4 5 1
f 4 9 5
f 132 19 129
f 5 9 10
f 9 18 10
f 9 20 17
f 17 18 9
f 96 97 78
f 143 144 37
f 128 36 137
f 137 36 133
f 45 36 44
f 44 46 45
f 110 94 93
f 112 122 113
f 98 78 97
f 98 112 113
f 140 37 139
f 143 37 142
f 134 37 144
f 8 13 14
f 109 110 93
f 120 104 119
f 15 8 14
f 93 90 107
f 126 122 124
f 122 112 124
f 78 98 79
f 111 98 97
f 112 98 111
f 66 52 51
f 52 37 51
f 37 50 51
f 47 46 44
f 47 37 46
f 138 37 131
f 138 139 37
f 141 37 140
f 141 142 37
f 14 13 21
f 7 8 3
f 13 8 7
f 119 104 118
f 104 117 118
f 110 109 123
f 72 57 75
f 72 60 57
f 57 60 43
f 70 87 75
f 75 57 70
f 57 74 70
f 94 87 70
f 93 94 70
f 70 92 93
f 71 70 74
f 30 29 35
f 26 29 30
f 23 15 22
f 16 15 26
f 8 15 16
f 25 29 26
f 26 15 25
f 93 92 91
f 91 90 93
f 92 70 91
f 91 70 90
f 89 70 88
f 90 70 89
f 105 89 88
f 93 107 105
f 64 51 50
f 103 117 104
f 127 122 126
f 127 123 122
f 41 40 57
f 56 71 57
f 70 71 56
f 73 74 57
f 57 71 73
f 40 41 33
f 12 22 15
f 12 15 14
f 14 21 12
f 24 15 23
f 23 25 24
f 24 25 15
f 28 25 23
f 28 31 29
f 29 25 28
f 86 69 85
f 86 105 88
f 85 105 86
f 88 70 86
f 70 69 86
f 83 69 82
f 85 69 84
f 84 83 102
f 69 83 84
f 102 103 84
f 84 103 104
f 82 69 68
f 93 105 108
f 108 109 93
f 108 123 109
f 122 123 108
f 100 101 81
f 81 80 100
f 66 51 65
f 51 64 65
f 63 64 50
f 62 77 63
f 125 120 119
f 47 61 48
f 37 47 48
f 76 77 62
f 62 61 76
f 57 43 58
f 58 41 57
f 58 43 42
f 67 68 55
f 55 68 69
f 55 69 70
f 70 56 55
f 95 71 74
f 74 73 95
f 95 73 71
f 29 31 32
f 32 33 29
f 40 33 32
f 31 38 32
f 34 43 35
f 42 43 34
f 35 29 34
f 29 33 34
f 34 41 42
f 34 33 41
f 6 12 11
f 11 12 21
f 122 108 106
f 106 121 122
f 99 79 98
f 49 50 37
f 37 48 49
f 62 63 49
f 49 63 50
f 49 61 62
f 49 48 61
f 42 41 59
f 59 58 42
f 41 58 59
f 67 55 54
f 39 55 56
f 53 54 39
f 39 54 55
f 39 38 53
f 57 40 39
f 39 56 57
f 40 32 39
f 39 32 38
f 100 99 114
f 114 121 120
f 113 122 114
f 122 121 114
f 114 98 113
f 114 99 98
f 115 114 120
f 115 125 116
f 120 125 115
f 100 114 115
f 9 19 27
f 27 20 9
f 27 132 130
f 19 132 27
f 133 36 136
f 36 45 136
f 90 89 105
f 105 107 90
f 135 129 128
f 135 131 130
f 135 144 143
f 130 132 135
f 128 137 135
f 135 132 129
f 135 141 140
f 143 142 135
f 135 137 133
f 140 139 135
f 135 138 131
f 139 138 135
f 142 141 135
f 135 136 45
f 135 45 46
f 37 134 135
f 46 37 135
f 65 81 66
f 65 80 81
f 79 80 65
f 65 64 79
f 79 64 63
f 78 79 63
f 63 77 96
f 96 78 63
f 1 3 76
f 76 127 126
f 128 129 76
f 76 111 97
f 129 19 76
f 76 4 1
f 3 8 76
f 9 4 76
f 76 19 9
f 76 36 128
f 76 47 44
f 44 36 76
f 35 43 76
f 75 87 76
f 76 97 96
f 94 110 76
f 76 87 94
f 126 124 76
f 96 77 76
f 76 30 35
f 76 72 75
f 76 124 112
f 112 111 76
f 76 16 26
f 110 123 76
f 60 72 76
f 76 43 60
f 26 30 76
f 8 16 76
f 76 61 47
f 123 127 76
f 11 3 1
f 2 6 11
f 1 2 11
f 11 7 3
f 11 21 13
f 13 7 11
f 120 121 106
f 104 120 106
f 106 84 104
f 85 84 106
f 106 105 85
f 106 108 105
f 99 80 79
f 99 100 80
f 2 5 54
f 54 17 20
f 54 27 130
f 130 131 54
f 54 6 2
f 54 52 66
f 131 37 54
f 5 10 54
f 20 27 54
f 117 103 54
f 54 10 18
f 18 17 54
f 66 81 54
f 53 38 54
f 54 37 52
f 119 118 54
f 54 83 82
f 54 28 23
f 54 125 119
f 81 101 54
f 82 68 54
f 54 118 117
f 54 12 6
f 23 22 54
f 101 116 54
f 54 103 102
f 54 38 31
f 22 12 54
f 31 28 54
f 102 83 54
f 54 68 67
f 116 125 54
f 115 116 101
f 101 100 115
