# https://github.com/mikedh/trimesh
v -0.05835402 0.05309896 0.01730071
v -0.05829919 0.05309896 0.01802219
v -0.05835186 0.05312489 0.01730071
v -0.05698459 0.05309896 0.01730071
v -0.05824625 0.05309896 0.01822821
v -0.05804448 0.05354581 0.01885321
v -0.05825786 0.05354581 0.01802219
v -0.05829892 0.05354581 0.01730071
v -0.05733438 0.05309896 0.01822869
v -0.05559490 0.05621472 0.01730071
v -0.05805826 0.05309896 0.01885336
v -0.05759179 0.05414030 0.01894615
v -0.05759179 0.05473447 0.01892762
v -0.05800045 0.05414030 0.01879151
v -0.05816387 0.05414030 0.01802219
v -0.05827164 0.05371937 0.01730071
v -0.05752615 0.05309896 0.01869776
v -0.05607920 0.05621472 0.01857598
v -0.05741433 0.05621472 0.01730071
v -0.05762609 0.05309896 0.01884418
v -0.05670665 0.05621472 0.01892537
v -0.05699728 0.05592374 0.01892988
v -0.05760340 0.05527283 0.01880294
v -0.05793050 0.05473447 0.01864090
v -0.05789106 0.05503674 0.01853845
v -0.05802692 0.05473447 0.01802219
v -0.05806555 0.05473447 0.01730071
v -0.05820087 0.05414030 0.01730071
v -0.05618697 0.05621472 0.01875977
v -0.05752750 0.05602622 0.01730071
v -0.05738219 0.05621472 0.01784789
v -0.05697325 0.05621472 0.01880665
v -0.05738651 0.05592374 0.01870759
v -0.05730223 0.05621472 0.01854925
v -0.05730817 0.05621472 0.01852250
v -0.05779950 0.05540947 0.01802219
v -0.05792050 0.05511208 0.01802219
v -0.05803449 0.05484488 0.01730071
v -0.05758800 0.05592374 0.01730071
v -0.05754316 0.05592374 0.01802219
v -0.05737111 0.05621472 0.01802219
v -0.05715179 0.05621472 0.01870453
v -0.05782029 0.05546041 0.01730071
v -0.05785568 0.05537379 0.01730071
v -0.05794049 0.05516332 0.01730071
v -0.05774547 0.05561048 0.01730071
f 9 18 17
f 9 4 10
f 10 18 9
f 17 18 29
f 27 28 15
f 1 2 3
f 2 7 3
f 12 21 22
f 12 22 13
f 15 7 14
f 20 29 21
f 20 21 12
f 17 29 20
f 12 11 20
f 8 3 7
f 32 22 21
f 32 42 33
f 33 22 32
f 6 14 7
f 2 5 6
f 6 7 2
f 6 5 11
f 13 14 6
f 6 11 12
f 12 13 6
f 15 28 16
f 16 7 15
f 16 8 7
f 39 46 40
f 45 38 37
f 15 14 24
f 24 25 15
f 40 35 41
f 33 42 34
f 34 25 33
f 34 35 25
f 40 46 43
f 26 38 27
f 26 37 38
f 26 27 15
f 15 25 26
f 25 37 26
f 33 25 23
f 25 24 23
f 23 24 14
f 23 14 13
f 23 22 33
f 23 13 22
f 30 39 40
f 45 37 44
f 40 43 36
f 36 37 25
f 43 44 36
f 36 44 37
f 36 35 40
f 25 35 36
f 19 30 31
f 40 41 31
f 31 30 40
f 1 4 20
f 20 2 1
f 4 9 20
f 20 5 2
f 20 9 17
f 11 5 20
f 44 19 10
f 44 4 1
f 10 4 44
f 44 16 28
f 1 3 44
f 28 27 44
f 44 38 45
f 27 38 44
f 3 8 44
f 44 30 19
f 8 16 44
f 46 39 44
f 44 43 46
f 39 30 44
f 10 19 31
f 21 29 31
f 31 18 10
f 31 29 18
f 31 32 21
f 31 34 42
f 42 32 31
f 31 41 35
f 35 34 31
