# https://github.com/mikedh/trimesh
v -0.05411772 0.05764068 0.01889404
v -0.05461962 0.05759937 0.01887929
v -0.05521398 0.05711276 0.01895383
v -0.05411772 0.05717856 0.01888666
v -0.05411772 0.05789484 0.01813142
v -0.05411772 0.05793199 0.01799954
v -0.05461962 0.05784033 0.01802165
v -0.05521398 0.05752298 0.01878427
v -0.05580965 0.05713464 0.01884571
v -0.05640271 0.05651835 0.01892024
v -0.05670638 0.05621472 0.01892516
v -0.05618664 0.05621472 0.01875970
v -0.05411772 0.05621472 0.01710176
v -0.05411772 0.05798685 0.01708619
v -0.05521398 0.05768877 0.01802165
v -0.05561304 0.05745719 0.01865321
v -0.05416152 0.05798233 0.01700264
v -0.05461962 0.05788928 0.01700264
v -0.05640271 0.05693274 0.01872611
v -0.05695230 0.05646228 0.01870154
v -0.05697307 0.05621472 0.01880639
v -0.05411772 0.05621472 0.01485322
v -0.05411772 0.05798823 0.01700264
v -0.05573016 0.05750806 0.01802165
v -0.05521398 0.05773773 0.01700264
v -0.05672390 0.05683622 0.01858276
v -0.05602702 0.05736032 0.01802165
v -0.05411772 0.05798199 0.01603934
v -0.05413265 0.05797955 0.01598363
v -0.05461962 0.05787592 0.01496462
v -0.05461962 0.05788286 0.01598363
v -0.05729880 0.05622653 0.01854262
v -0.05715183 0.05621472 0.01870399
v -0.05581646 0.05621472 0.01058551
v -0.05411772 0.05684559 0.01058551
v -0.05579245 0.05753340 0.01700264
v -0.05608963 0.05740285 0.01700264
v -0.05521398 0.05772419 0.01496462
v -0.05577753 0.05752680 0.01496462
v -0.05640271 0.05712821 0.01802165
v -0.05677614 0.05688066 0.01802165
v -0.05707364 0.05657217 0.01802165
v -0.05411772 0.05797747 0.01540123
v -0.05411772 0.05797365 0.01496462
v -0.05461962 0.05786619 0.01394561
v -0.05730821 0.05621472 0.01852214
v -0.05730205 0.05621472 0.01854917
v -0.05733579 0.05627479 0.01802165
v -0.05737115 0.05621472 0.01802165
v -0.05732508 0.05621472 0.01058551
v -0.05411772 0.05787938 0.01058551
v -0.05607503 0.05739625 0.01496462
v -0.05640271 0.05719054 0.01496462
v -0.05640271 0.05720321 0.01700264
v -0.05521398 0.05771412 0.01394561
v -0.05576649 0.05752159 0.01394561
v -0.05681474 0.05691329 0.01700264
v -0.05711193 0.05661626 0.01700264
v -0.05411772 0.05796185 0.01394561
v -0.05461962 0.05784779 0.01292661
v -0.05736953 0.05631888 0.01700264
v -0.05743214 0.05621472 0.01700264
v -0.05738218 0.05621472 0.01784717
v -0.05730951 0.05624042 0.01058551
v -0.05733416 0.05621472 0.01085582
v -0.05444313 0.05781880 0.01058551
v -0.05461962 0.05782227 0.01190760
v -0.05411772 0.05789171 0.01104751
v -0.05606335 0.05739105 0.01394561
v -0.05640271 0.05717977 0.01394561
v -0.05680858 0.05690722 0.01496462
v -0.05680241 0.05690166 0.01394561
v -0.05521398 0.05769433 0.01292661
v -0.05574249 0.05751135 0.01292661
v -0.05710576 0.05661088 0.01496462
v -0.05736563 0.05631368 0.01496462
v -0.05411772 0.05793963 0.01297248
v -0.05411772 0.05791827 0.01206651
v -0.05742533 0.05621472 0.01496462
v -0.05705028 0.05652148 0.01058551
v -0.05731502 0.05624771 0.01088859
v -0.05706489 0.05656870 0.01190760
v -0.05704217 0.05654491 0.01088859
v -0.05736239 0.05621472 0.01174132
v -0.05733351 0.05627149 0.01190760
v -0.05461962 0.05778512 0.01058551
v -0.05461962 0.05779397 0.01088859
v -0.05411772 0.05791428 0.01190760
v -0.05521398 0.05766725 0.01190760
v -0.05603935 0.05738028 0.01292661
v -0.05640271 0.05715668 0.01292661
v -0.05678782 0.05688934 0.01292661
v -0.05709960 0.05660481 0.01394561
v -0.05570972 0.05749712 0.01190760
v -0.05736109 0.05630743 0.01394561
v -0.05741722 0.05621472 0.01394561
v -0.05742338 0.05621472 0.01470659
v -0.05673753 0.05684698 0.01058551
v -0.05708500 0.05658988 0.01292661
v -0.05676770 0.05687215 0.01190760
v -0.05674467 0.05685305 0.01088859
v -0.05736758 0.05621472 0.01190760
v -0.05739678 0.05621472 0.01292661
v -0.05734974 0.05629267 0.01292661
v -0.05503749 0.05767489 0.01058551
v -0.05521398 0.05763721 0.01088859
v -0.05566235 0.05747646 0.01058551
v -0.05567338 0.05748132 0.01088859
v -0.05600658 0.05736535 0.01190760
v -0.05640271 0.05712457 0.01190760
v -0.05741235 0.05621472 0.01369988
v -0.05640271 0.05707804 0.01058551
v -0.05640271 0.05708915 0.01088859
v -0.05521398 0.05762784 0.01058551
v -0.05595921 0.05734365 0.01058551
v -0.05597056 0.05734886 0.01088859
f 34 35 22
f 13 4 12
f 12 4 11
f 7 6 14
f 15 16 7
f 2 5 6
f 2 6 7
f 1 5 2
f 27 16 24
f 16 15 24
f 31 30 38
f 26 16 27
f 26 19 16
f 46 47 32
f 32 49 46
f 1 2 3
f 3 4 1
f 11 4 3
f 25 24 15
f 25 31 38
f 25 15 7
f 57 58 41
f 41 54 57
f 20 26 32
f 19 26 20
f 62 61 79
f 48 61 62
f 58 61 48
f 48 49 32
f 38 30 45
f 11 3 10
f 10 20 11
f 19 20 10
f 9 3 2
f 16 19 9
f 19 10 9
f 9 10 3
f 24 25 36
f 7 14 17
f 17 14 23
f 30 31 17
f 54 41 40
f 40 26 27
f 40 41 26
f 32 47 33
f 33 20 32
f 75 58 57
f 97 79 76
f 76 79 61
f 76 75 95
f 76 61 58
f 58 75 76
f 63 48 62
f 49 48 63
f 42 41 58
f 58 48 42
f 42 48 32
f 32 26 42
f 26 41 42
f 60 45 59
f 59 45 44
f 30 43 44
f 44 45 30
f 52 56 69
f 56 74 69
f 55 56 38
f 38 45 55
f 73 74 55
f 55 74 56
f 55 60 73
f 45 60 55
f 16 9 8
f 8 9 2
f 7 16 8
f 8 2 7
f 27 24 37
f 24 36 37
f 37 40 27
f 54 40 37
f 37 36 52
f 37 53 54
f 52 53 37
f 38 56 39
f 39 25 38
f 39 36 25
f 39 56 52
f 52 36 39
f 18 25 7
f 7 17 18
f 31 25 18
f 18 17 31
f 28 17 23
f 11 20 21
f 20 33 21
f 97 76 96
f 96 76 95
f 80 83 98
f 107 115 116
f 77 60 59
f 78 60 77
f 106 114 107
f 107 89 106
f 73 60 67
f 67 89 73
f 51 66 67
f 67 68 51
f 88 68 67
f 78 88 67
f 67 60 78
f 73 89 94
f 94 74 73
f 90 69 74
f 90 94 109
f 74 94 90
f 91 69 90
f 70 69 91
f 70 72 53
f 70 53 52
f 52 69 70
f 29 28 43
f 17 28 29
f 29 43 30
f 30 17 29
f 71 75 57
f 71 72 75
f 53 72 71
f 57 54 71
f 54 53 71
f 98 83 82
f 103 104 85
f 111 104 103
f 111 96 95
f 95 104 111
f 95 75 93
f 93 104 95
f 75 72 93
f 110 90 109
f 91 90 110
f 114 106 105
f 105 89 86
f 105 106 89
f 86 89 87
f 89 67 87
f 87 66 86
f 87 67 66
f 108 89 107
f 108 94 89
f 109 94 108
f 107 116 108
f 108 116 109
f 92 93 72
f 92 70 91
f 72 70 92
f 103 85 102
f 83 80 64
f 64 82 83
f 104 93 99
f 99 85 104
f 82 85 99
f 93 92 99
f 112 116 115
f 109 116 112
f 65 64 50
f 100 99 92
f 82 99 100
f 91 110 100
f 100 92 91
f 113 112 98
f 113 110 109
f 109 112 113
f 84 102 85
f 85 65 84
f 81 65 85
f 64 65 81
f 81 85 82
f 82 64 81
f 98 82 101
f 82 100 101
f 101 113 98
f 101 100 110
f 110 113 101
f 23 14 68
f 13 22 68
f 1 4 68
f 68 4 13
f 68 22 35
f 68 5 1
f 35 51 68
f 6 5 68
f 68 14 6
f 59 44 68
f 68 77 59
f 68 28 23
f 68 44 43
f 43 28 68
f 78 77 68
f 68 88 78
f 112 51 35
f 112 35 34
f 34 50 112
f 107 114 112
f 112 115 107
f 112 66 51
f 112 80 98
f 50 64 112
f 86 66 112
f 112 105 86
f 114 105 112
f 112 64 80
f 47 46 84
f 13 12 84
f 34 22 84
f 11 21 84
f 84 22 13
f 84 12 11
f 62 79 84
f 84 50 34
f 84 63 62
f 84 46 49
f 84 79 97
f 84 33 47
f 84 111 103
f 49 63 84
f 84 21 33
f 97 96 84
f 96 111 84
f 103 102 84
f 84 65 50
