# https://github.com/mikedh/trimesh
v -0.05823526 -0.05221033 0.00274645
v -0.05822847 -0.05229677 0.00274645
v -0.05718390 -0.05221033 0.00274645
v -0.05820717 -0.05221033 0.00069645
v -0.05820038 -0.05229677 0.00069645
v -0.05813865 -0.05289140 0.00069645
v -0.05816118 -0.05289140 0.00274645
v -0.05708945 -0.05221033 0.00273434
v -0.05709099 -0.05221149 0.00274645
v -0.05807506 -0.05221033 -0.00001229
v -0.05801826 -0.05289140 -0.00010251
v -0.05797721 -0.05348604 -0.00003652
v -0.05793368 -0.05396244 0.00006518
v -0.05805438 -0.05348604 0.00069645
v -0.05807691 -0.05348604 0.00274645
v -0.05508179 -0.05221033 0.00185026
v -0.05519909 -0.05617042 0.00274645
v -0.05804913 -0.05221033 -0.00013567
v -0.05804604 -0.05229677 -0.00013280
v -0.05759167 -0.05289140 -0.00047617
v -0.05759167 -0.05348604 -0.00040985
v -0.05753086 -0.05467453 -0.00015958
v -0.05794943 -0.05402408 0.00069645
v -0.05742004 -0.05526917 -0.00005979
v -0.05733886 -0.05563509 0.00007156
v -0.05775835 -0.05467453 0.00069645
v -0.05787380 -0.05432101 0.00069645
v -0.05794758 -0.05412099 0.00274645
v -0.05508179 -0.05221033 0.00049177
v -0.05510031 -0.05617042 0.00259661
v -0.05508179 -0.05617042 0.00249586
v -0.05695826 -0.05617042 0.00274645
v -0.05766112 -0.05221033 -0.00045449
v -0.05759167 -0.05229677 -0.00050582
v -0.05699715 -0.05467453 -0.00050996
v -0.05699715 -0.05526917 -0.00043281
v -0.05699869 -0.05584520 -0.00014428
v -0.05684590 -0.05617042 -0.00003301
v -0.05690177 -0.05617042 0.00020897
v -0.05713544 -0.05594986 0.00069645
v -0.05735059 -0.05565254 0.00069645
v -0.05753271 -0.05526917 0.00069645
v -0.05756450 -0.05526917 0.00274645
v -0.05756697 -0.05526258 0.00274645
v -0.05779787 -0.05464313 0.00274645
v -0.05780589 -0.05462143 0.00274645
v -0.05781700 -0.05458576 0.00274645
v -0.05793893 -0.05415355 0.00274645
v -0.05508179 -0.05617042 -0.00032887
v -0.05708358 -0.05221033 -0.00033334
v -0.05697770 -0.05617042 0.00273434
v -0.05698017 -0.05616809 0.00274645
v -0.05759167 -0.05221033 -0.00050869
v -0.05640294 -0.05586380 -0.00050965
v -0.05639739 -0.05617042 -0.00032824
v -0.05667828 -0.05617042 -0.00015034
v -0.05694961 -0.05617042 0.00069645
v -0.05714995 -0.05596807 0.00274645
v -0.05735985 -0.05567463 0.00274645
v -0.05736232 -0.05567076 0.00273434
v -0.05736509 -0.05566572 0.00274645
v -0.05550190 -0.05617042 -0.00048382
v -0.05609642 -0.05617042 -0.00048764
v -0.05736232 -0.05567076 0.00274645
f 9 17 16
f 8 9 16
f 30 31 16
f 16 17 30
f 9 8 3
f 50 29 49
f 35 21 20
f 51 32 52
f 11 4 10
f 5 4 11
f 11 20 21
f 34 53 35
f 35 20 34
f 53 50 62
f 62 50 49
f 22 24 13
f 24 22 36
f 36 21 35
f 36 22 21
f 5 11 12
f 13 6 12
f 12 6 5
f 12 11 21
f 12 22 13
f 21 22 12
f 15 23 28
f 42 43 26
f 14 23 15
f 15 7 14
f 14 7 6
f 13 23 14
f 14 6 13
f 51 52 57
f 57 52 58
f 58 40 57
f 41 40 58
f 41 43 42
f 54 36 35
f 54 62 63
f 35 53 54
f 53 62 54
f 10 18 19
f 19 11 10
f 20 11 19
f 19 18 20
f 53 34 33
f 33 34 20
f 20 18 33
f 47 48 27
f 27 23 13
f 13 26 27
f 27 48 28
f 27 28 23
f 47 27 46
f 46 27 26
f 6 7 2
f 5 6 2
f 39 57 40
f 55 54 63
f 36 54 37
f 24 36 37
f 54 55 37
f 45 46 26
f 38 39 25
f 40 41 25
f 25 39 40
f 25 37 38
f 24 37 25
f 25 41 42
f 42 26 25
f 13 24 25
f 25 26 13
f 59 41 58
f 43 41 61
f 38 37 56
f 56 37 55
f 44 26 43
f 44 45 26
f 60 59 64
f 41 59 60
f 64 61 60
f 60 61 41
f 16 31 29
f 29 31 49
f 16 29 33
f 1 3 33
f 33 8 16
f 33 50 53
f 33 3 8
f 33 4 1
f 29 50 33
f 10 4 33
f 33 18 10
f 2 4 5
f 1 4 2
f 49 31 56
f 56 30 17
f 17 32 56
f 31 30 56
f 56 32 51
f 56 62 49
f 56 39 38
f 63 62 56
f 51 57 56
f 57 39 56
f 56 55 63
f 17 9 44
f 44 3 1
f 44 32 17
f 9 3 44
f 58 52 44
f 47 46 44
f 1 2 44
f 44 52 32
f 44 48 47
f 15 28 44
f 44 7 15
f 28 48 44
f 43 61 44
f 44 2 7
f 44 59 58
f 46 45 44
f 64 59 44
f 44 61 64
