# https://github.com/mikedh/trimesh
v -0.04214459 -0.02860709 0.01497315
v -0.04966395 -0.02860907 0.01497315
v -0.04214459 -0.02860907 0.01703004
v -0.04214459 -0.02860907 0.01519626
v -0.04263631 -0.02860907 0.01497315
v -0.04966395 -0.02860907 0.01703004
v -0.04214459 -0.02845850 0.01497315
v -0.04214459 -0.02845850 0.01703004
v -0.04966395 -0.02845850 0.01497315
v -0.04966395 -0.02845850 0.01703004
f 4 5 1
f 7 5 2
f 2 9 7
f 1 5 7
f 2 5 4
f 4 6 2
f 3 6 4
f 1 7 4
f 4 7 8
f 4 8 3
f 10 9 2
f 2 6 10
f 8 7 10
f 10 7 9
f 10 6 3
f 3 8 10
