# https://github.com/mikedh/trimesh
v -0.03738384 -0.03150967 0.01598479
v -0.03738384 -0.03135465 0.01669579
v -0.03738384 -0.03150862 0.01597693
v -0.03381767 -0.03398581 0.01587746
v -0.03381767 -0.03399582 0.01598398
v -0.03737826 -0.03135570 0.01670082
v -0.03738384 -0.03089433 0.01696822
v -0.03415872 -0.03361723 0.01655846
v -0.03381767 -0.03381444 0.01666457
v -0.03738384 -0.03134621 0.01528405
v -0.03415243 -0.03361091 0.01541896
v -0.03381767 -0.03380811 0.01532211
v -0.03381767 -0.03327186 0.01693580
v -0.03737826 -0.03089433 0.01696923
v -0.03738384 -0.03030008 0.01703004
v -0.03738384 -0.03089485 0.01503396
v -0.03381767 -0.03379229 0.01530922
v -0.03381767 -0.03267761 0.01702642
v -0.03678378 -0.03089433 0.01702199
v -0.03738384 -0.02860907 0.01703004
v -0.03440586 -0.03208283 0.01702964
v -0.03381767 -0.03208283 0.01703004
v -0.03738384 -0.03088905 0.01503175
v -0.03737826 -0.03089433 0.01503235
v -0.03381767 -0.03326553 0.01506296
v -0.03381767 -0.02860907 0.01703004
v -0.03738384 -0.02860907 0.01497315
v -0.03678378 -0.03089433 0.01498141
v -0.03381767 -0.03267761 0.01497698
v -0.03738384 -0.03030008 0.01497335
v -0.03381767 -0.02860907 0.01497315
v -0.03738384 -0.03029428 0.01497315
v -0.03381767 -0.03267075 0.01497617
v -0.03737826 -0.03030008 0.01497315
v -0.03381767 -0.03207650 0.01497315
v -0.03440586 -0.03208283 0.01497376
v -0.03500034 -0.03148858 0.01497315
f 7 9 13
f 1 4 5
f 1 5 2
f 3 4 1
f 3 10 4
f 7 2 6
f 9 7 6
f 6 2 9
f 8 5 9
f 9 2 8
f 8 2 5
f 18 15 19
f 18 22 21
f 22 15 21
f 21 15 18
f 33 28 34
f 16 17 10
f 17 16 25
f 10 17 12
f 14 15 7
f 14 19 15
f 18 19 14
f 13 18 14
f 14 7 13
f 36 35 33
f 33 34 36
f 29 25 23
f 23 28 29
f 29 28 33
f 24 16 23
f 23 25 24
f 24 25 16
f 11 12 4
f 4 10 11
f 10 12 11
f 30 32 34
f 30 28 23
f 30 34 28
f 35 36 37
f 37 36 34
f 31 27 20
f 20 26 31
f 15 26 20
f 15 22 26
f 29 35 31
f 29 5 4
f 29 31 26
f 13 9 29
f 29 18 13
f 26 22 29
f 9 5 29
f 29 22 18
f 33 35 29
f 4 12 29
f 17 25 29
f 29 12 17
f 20 27 30
f 30 15 20
f 23 16 30
f 1 2 30
f 30 3 1
f 30 2 7
f 7 15 30
f 10 3 30
f 30 16 10
f 27 32 30
f 27 31 37
f 31 35 37
f 37 32 27
f 34 32 37
