# https://github.com/mikedh/trimesh
v -0.05361759 0.05775264 0.00340793
v -0.05361759 0.05769627 0.00069624
v -0.05402490 0.05764200 0.00069624
v -0.05382337 0.05772259 0.00340793
v -0.05361759 0.05669052 0.00340793
v -0.05361759 0.05755489 -0.00011626
v -0.05402490 0.05753113 -0.00008935
v -0.05461942 0.05747127 0.00002755
v -0.05402490 0.05769255 0.00340793
v -0.05497026 0.05742655 0.00013560
v -0.05461942 0.05751972 0.00069624
v -0.05441790 0.05761196 0.00340793
v -0.05361759 0.05537335 0.00185021
v -0.05632370 0.05537335 0.00340793
v -0.05361759 0.05711280 -0.00048848
v -0.05402490 0.05711280 -0.00046234
v -0.05461942 0.05711280 -0.00034582
v -0.05518687 0.05714355 -0.00013856
v -0.05580808 0.05697305 -0.00010204
v -0.05505265 0.05745334 0.00340793
v -0.05461942 0.05757026 0.00340793
v -0.05619219 0.05687499 0.00004370
v -0.05580808 0.05710885 0.00069624
v -0.05527158 0.05732872 0.00069624
v -0.05534972 0.05735481 0.00340793
v -0.05361759 0.05537335 0.00047822
v -0.05756923 0.05537335 0.00340793
v -0.05361759 0.05649277 -0.00018740
v -0.05402490 0.05651839 -0.00031929
v -0.05640261 0.05537335 -0.00044926
v -0.05521395 0.05651839 -0.00052040
v -0.05580808 0.05651839 -0.00047503
v -0.05639526 0.05652421 -0.00016318
v -0.05680528 0.05632972 -0.00000475
v -0.05651517 0.05666676 0.00069624
v -0.05621772 0.05689293 0.00069624
v -0.05580808 0.05716102 0.00340793
v -0.05737582 0.05575371 0.00340793
v -0.05735378 0.05571854 0.00069624
v -0.05751739 0.05537335 0.00069624
v -0.05699752 0.05537335 -0.00041350
v -0.05640261 0.05592398 -0.00051155
v -0.05700100 0.05590790 -0.00014933
v -0.05684396 0.05636979 0.00069624
v -0.05734101 0.05569921 0.00006677
v -0.05714103 0.05601575 0.00069624
v -0.05655231 0.05669634 0.00340793
v -0.05625524 0.05691902 0.00340793
v -0.05716849 0.05605115 0.00340793
v -0.05741257 0.05537335 -0.00004705
v -0.05687142 0.05639914 0.00340793
f 13 5 14
f 31 15 30
f 41 50 43
f 43 50 45
f 26 30 28
f 45 50 40
f 41 43 42
f 42 32 31
f 42 30 41
f 31 30 42
f 32 42 33
f 33 42 43
f 19 33 22
f 32 33 19
f 32 19 17
f 15 28 29
f 29 30 15
f 29 28 30
f 1 2 3
f 2 8 3
f 20 21 10
f 10 21 11
f 10 19 22
f 8 19 10
f 10 3 8
f 11 3 10
f 27 38 39
f 39 40 27
f 45 40 39
f 39 38 49
f 51 44 49
f 34 43 45
f 34 35 22
f 44 35 34
f 22 33 34
f 34 33 43
f 18 19 8
f 8 17 18
f 18 17 19
f 2 6 7
f 7 8 2
f 7 17 8
f 20 10 25
f 23 10 22
f 37 25 23
f 49 44 46
f 46 39 49
f 45 39 46
f 46 34 45
f 44 34 46
f 22 35 36
f 36 23 22
f 48 37 36
f 37 23 36
f 48 36 47
f 47 36 35
f 44 51 47
f 47 35 44
f 16 6 15
f 16 7 6
f 17 7 16
f 32 17 16
f 16 15 31
f 31 32 16
f 1 3 4
f 3 9 4
f 12 3 11
f 12 9 3
f 11 21 12
f 24 25 10
f 10 23 24
f 24 23 25
f 40 14 27
f 41 30 40
f 13 14 40
f 40 26 13
f 40 30 26
f 40 50 41
f 6 5 13
f 1 5 6
f 6 2 1
f 6 28 15
f 13 26 6
f 26 28 6
f 12 5 1
f 27 14 12
f 12 14 5
f 12 38 27
f 12 37 48
f 20 25 12
f 48 47 12
f 49 38 12
f 12 21 20
f 12 51 49
f 1 4 12
f 12 25 37
f 12 47 51
f 12 4 9
