# https://github.com/mikedh/trimesh
v 0.04841983 -0.02860907 0.01497317
v 0.05573824 -0.02860907 0.01496690
v 0.04841983 -0.02860907 0.01703024
v 0.05573824 -0.02860907 0.01703024
v 0.04841983 -0.02845850 0.01703024
v 0.04927873 -0.02845850 0.01497241
v 0.05573824 -0.02845850 0.01496688
v 0.05573824 -0.02845850 0.01703024
v 0.04841983 -0.02845850 0.01497317
v 0.04852660 -0.02845850 0.01497306
f 1 9 10
f 10 6 1
f 5 9 3
f 3 9 1
f 1 2 3
f 2 4 3
f 5 3 8
f 8 3 4
f 8 4 2
f 2 7 8
f 6 2 1
f 6 7 2
f 10 9 5
f 5 8 10
f 10 8 7
f 7 6 10
