# https://github.com/mikedh/trimesh
v -0.05574580 -0.04744413 0.01497323
v -0.05352696 -0.04744413 0.01497323
v -0.05574580 -0.04744413 0.01703004
v -0.05574580 -0.04270902 0.01497020
v -0.05343060 -0.04744413 0.01497343
v -0.05343060 -0.04744413 0.01703004
v -0.05574580 -0.04270902 0.01703004
v -0.05461930 -0.04270902 0.01497323
v -0.05343060 -0.04694582 0.01497404
v -0.05293261 -0.04744413 0.01498916
v -0.05283589 -0.04744413 0.01699516
v -0.05343060 -0.04694582 0.01702944
v -0.05461930 -0.04270902 0.01703004
v -0.05410046 -0.04270902 0.01500832
v -0.05402459 -0.04337930 0.01499843
v -0.05402459 -0.04397357 0.01498674
v -0.05283589 -0.04744413 0.01500791
v -0.05402459 -0.04270902 0.01501457
v -0.05343060 -0.04635155 0.01702016
v -0.05226815 -0.04744413 0.01671103
v -0.05402459 -0.04270902 0.01698749
v -0.05402459 -0.04337930 0.01700504
v -0.05402459 -0.04397357 0.01701673
v -0.05402459 -0.04456829 0.01702581
v -0.05235372 -0.04744413 0.01522650
v -0.05363914 -0.04270902 0.01523315
v -0.05207291 -0.04744413 0.01598389
v -0.05357658 -0.04270902 0.01671910
v -0.05227390 -0.04744413 0.01527671
v -0.05358413 -0.04270902 0.01526522
v -0.05207579 -0.04744413 0.01596816
v -0.05343312 -0.04270902 0.01598389
v -0.05345110 -0.04270902 0.01589315
f 21 11 20
f 1 4 2
f 4 5 2
f 8 5 4
f 28 20 27
f 21 20 28
f 17 10 18
f 31 29 30
f 32 28 27
f 27 31 32
f 12 6 11
f 12 13 6
f 9 10 5
f 5 8 9
f 8 10 9
f 17 18 25
f 30 29 25
f 33 31 30
f 33 32 31
f 21 13 22
f 22 11 21
f 30 25 26
f 26 25 18
f 14 15 8
f 14 18 10
f 10 15 14
f 16 10 8
f 8 15 16
f 16 15 10
f 13 12 24
f 19 12 11
f 11 22 19
f 23 19 22
f 23 22 13
f 13 24 23
f 23 24 12
f 12 19 23
f 1 3 7
f 7 4 1
f 13 7 3
f 3 6 13
f 25 6 3
f 25 3 1
f 1 2 25
f 27 20 25
f 25 10 17
f 25 20 11
f 11 6 25
f 25 2 5
f 25 31 27
f 5 10 25
f 29 31 25
f 4 7 14
f 21 28 14
f 14 8 4
f 14 13 21
f 14 33 30
f 7 13 14
f 30 26 14
f 28 32 14
f 32 33 14
f 14 26 18
