# https://github.com/mikedh/trimesh
v -0.05621745 -0.05221033 0.00036764
v -0.05508179 -0.05221033 0.00049171
v -0.05621745 -0.05221033 0.00185206
v -0.05621745 -0.04207601 0.00048744
v -0.05508179 -0.04207601 0.00049155
v -0.05508179 -0.04588928 0.00049155
v -0.05508179 -0.05221033 0.00185041
v -0.05621745 -0.04278530 0.00204268
v -0.05621745 -0.04207601 0.00204629
v -0.05508179 -0.04207601 0.00185107
v -0.05508179 -0.04516313 0.00185107
v -0.05621745 -0.04219010 0.00204613
f 1 4 5
f 6 2 1
f 1 5 6
f 11 10 9
f 9 7 11
f 3 7 8
f 12 7 9
f 12 8 7
f 9 10 5
f 4 9 5
f 7 3 1
f 1 2 7
f 11 5 10
f 2 6 11
f 11 6 5
f 11 7 2
f 12 9 4
f 12 4 1
f 1 3 12
f 3 8 12
