# https://github.com/mikedh/trimesh
v 0.03366549 -0.04981866 0.01598398
v 0.03357935 -0.04981866 0.01568597
v 0.03324789 -0.04981866 0.01678619
v 0.03954353 -0.05316843 0.01653449
v 0.03988481 -0.05324507 0.01598398
v 0.03324243 -0.04981866 0.01520330
v 0.03952935 -0.05317164 0.01544111
v 0.03988481 -0.05347221 0.01673384
v 0.03261549 -0.04981866 0.01700407
v 0.03988481 -0.05347771 0.01525244
v 0.03319991 -0.04981866 0.01518035
v 0.03988481 -0.05408022 0.01702380
v 0.03202125 -0.04981866 0.01702944
v 0.03261549 -0.04991869 0.01702138
v 0.03988481 -0.05360344 0.01519123
v 0.03261549 -0.04981866 0.01499872
v 0.03974851 -0.05408022 0.01702541
v 0.03988481 -0.05450605 0.01702723
v 0.03142701 -0.04981866 0.01703004
v 0.03202125 -0.04991869 0.01703004
v 0.03915428 -0.05408022 0.01702944
v 0.03988481 -0.05408022 0.01497959
v 0.03251518 -0.04981866 0.01498121
v 0.03974851 -0.05450605 0.01702883
v 0.03988481 -0.05450605 0.01497456
v 0.03856004 -0.05408022 0.01703004
v 0.03915428 -0.05450605 0.01702984
v 0.03988481 -0.05421558 0.01497698
v 0.03974851 -0.05408022 0.01497799
v 0.03202125 -0.04981866 0.01497396
v 0.03957951 -0.05450605 0.01497355
v 0.03915428 -0.05408022 0.01497396
v 0.03856004 -0.05450605 0.01703004
v 0.03192094 -0.04981866 0.01497315
v 0.03898527 -0.05450605 0.01497315
v 0.03856004 -0.05408022 0.01497315
v 0.02875250 -0.04981866 0.01497315
v 0.02875250 -0.05450605 0.01703004
v 0.02875250 -0.05450605 0.01497315
v 0.02875250 -0.04981866 0.01703004
f 4 8 5
f 5 1 4
f 2 1 5
f 9 12 8
f 11 10 16
f 6 10 11
f 6 2 7
f 7 10 6
f 5 10 7
f 7 2 5
f 22 30 23
f 22 23 16
f 3 4 1
f 8 4 3
f 3 9 8
f 21 17 13
f 13 17 12
f 16 10 15
f 15 22 16
f 34 30 28
f 36 31 35
f 34 31 36
f 24 17 21
f 21 27 24
f 21 13 20
f 9 13 14
f 12 9 14
f 14 13 12
f 22 28 29
f 30 22 29
f 29 28 30
f 32 28 25
f 34 28 32
f 25 31 32
f 32 31 34
f 33 27 26
f 26 27 21
f 21 20 26
f 19 20 13
f 37 39 40
f 39 38 40
f 28 12 18
f 5 8 28
f 18 25 28
f 8 12 28
f 28 10 5
f 28 15 10
f 22 15 28
f 36 39 37
f 37 34 36
f 36 35 39
f 18 12 24
f 12 17 24
f 24 38 39
f 24 25 18
f 39 35 24
f 24 31 25
f 24 33 38
f 35 31 24
f 24 27 33
f 37 40 19
f 16 23 19
f 19 34 37
f 19 30 34
f 1 2 19
f 19 2 6
f 19 11 16
f 19 3 1
f 6 11 19
f 23 30 19
f 9 3 19
f 19 13 9
f 19 40 38
f 38 33 19
f 33 26 19
f 19 26 20
