# https://github.com/mikedh/trimesh
v -0.05408730 -0.05788408 0.01374556
v -0.05408730 -0.05683104 0.01374556
v -0.05398318 -0.05790317 0.01374556
v -0.05408730 -0.05788854 0.01398884
v -0.05408730 -0.05631890 0.01479384
v -0.04272888 -0.05654770 0.01374556
v -0.05374521 -0.05793490 0.01374556
v -0.05396831 -0.05790961 0.01399855
v -0.05404763 -0.05790912 0.01496506
v -0.05408730 -0.05790118 0.01489658
v -0.05408730 -0.05631890 0.01719044
v -0.04274128 -0.05631890 0.01470695
v -0.04153900 -0.05653457 0.01374556
v -0.04213394 -0.05653605 0.01374556
v -0.05366092 -0.05794580 0.01374556
v -0.05373529 -0.05794556 0.01437371
v -0.05380470 -0.05795473 0.01700286
v -0.05408730 -0.05791358 0.01640997
v -0.05408730 -0.05790193 0.01496506
v -0.05408730 -0.05711860 0.01889039
v -0.02876264 -0.05631890 0.01703813
v -0.04213642 -0.05631890 0.01470235
v -0.04154148 -0.05631890 0.01470184
v -0.03964015 -0.05653457 0.01374556
v -0.05344277 -0.05797307 0.01374556
v -0.05347252 -0.05797357 0.01399855
v -0.05342790 -0.05798794 0.01496506
v -0.05342790 -0.05800208 0.01700286
v -0.05378982 -0.05795250 0.01759013
v -0.05408730 -0.05791755 0.01700286
v -0.05408730 -0.05717264 0.01889448
v -0.05402284 -0.05713025 0.01889704
v -0.02876264 -0.05764735 0.01895939
v -0.02876264 -0.05729410 0.01869770
v -0.02876264 -0.05631890 0.01470184
v -0.02876264 -0.05653481 0.01374556
v -0.05293460 -0.05802810 0.01374556
v -0.05283544 -0.05804198 0.01394591
v -0.05283544 -0.05805165 0.01496506
v -0.05283544 -0.05806578 0.01700286
v -0.05400301 -0.05788061 0.01796681
v -0.05408730 -0.05786499 0.01797448
v -0.05408730 -0.05790937 0.01716539
v -0.05342790 -0.05797530 0.01780786
v -0.05310564 -0.05794010 0.01850757
v -0.05408730 -0.05757645 0.01889448
v -0.05402284 -0.05758165 0.01889704
v -0.05164556 -0.05764735 0.01895172
v -0.05105062 -0.05764735 0.01896348
v -0.05045568 -0.05764735 0.01896655
v -0.04986322 -0.05764735 0.01896655
v -0.02876264 -0.05785235 0.01887506
v -0.02876264 -0.05787045 0.01374556
v -0.05283544 -0.05803876 0.01374556
v -0.05224050 -0.05808636 0.01394591
v -0.05224050 -0.05809578 0.01496506
v -0.05224050 -0.05811016 0.01700286
v -0.05224050 -0.05806355 0.01802201
v -0.05287758 -0.05800455 0.01810942
v -0.05270901 -0.05796117 0.01858372
v -0.05224050 -0.05797877 0.01863535
v -0.05164556 -0.05799712 0.01868339
v -0.05105062 -0.05801298 0.01872019
v -0.05045568 -0.05802364 0.01874319
v -0.05224050 -0.05764735 0.01892872
v -0.04986322 -0.05803182 0.01875904
v -0.04926827 -0.05803926 0.01877335
v -0.04867333 -0.05804422 0.01878152
v -0.04807839 -0.05804694 0.01878664
v -0.04748345 -0.05804967 0.01879123
v -0.04688851 -0.05805091 0.01879328
v -0.02876264 -0.05805091 0.01879328
v -0.02876264 -0.05869022 0.01419329
v -0.04391629 -0.05822121 0.01374556
v -0.05224050 -0.05808289 0.01374556
v -0.05176207 -0.05811140 0.01374556
v -0.05164556 -0.05811834 0.01374556
v -0.05164556 -0.05812156 0.01394591
v -0.05164556 -0.05813098 0.01496506
v -0.05164556 -0.05814536 0.01700286
v -0.05164556 -0.05809950 0.01802201
v -0.05105062 -0.05813048 0.01802201
v -0.05045568 -0.05815156 0.01802201
v -0.04986322 -0.05816791 0.01802201
v -0.04926827 -0.05818279 0.01802201
v -0.04867333 -0.05819246 0.01802201
v -0.04748345 -0.05820336 0.01802201
v -0.04688851 -0.05820584 0.01802201
v -0.03381220 -0.05869989 0.01578488
v -0.02876264 -0.05869989 0.01578488
v -0.02876264 -0.05876954 0.01457304
v -0.03381220 -0.05869022 0.01419329
v -0.04510617 -0.05822394 0.01374556
v -0.04462773 -0.05822369 0.01374556
v -0.04451123 -0.05822344 0.01374556
v -0.04403279 -0.05822171 0.01374556
v -0.05105062 -0.05814858 0.01374556
v -0.05105062 -0.05815205 0.01394591
v -0.05105062 -0.05816122 0.01496506
v -0.05105062 -0.05817560 0.01700286
v -0.05045568 -0.05819642 0.01700286
v -0.03381220 -0.05885110 0.01496506
v -0.02876264 -0.05877673 0.01536833
v -0.02876264 -0.05885110 0.01496506
v -0.04986322 -0.05818576 0.01374556
v -0.04926827 -0.05820064 0.01374556
v -0.04878984 -0.05820857 0.01374556
v -0.04867333 -0.05821030 0.01374556
v -0.04807839 -0.05821600 0.01374556
v -0.04748345 -0.05822146 0.01374556
v -0.04688851 -0.05822394 0.01374556
v -0.05057219 -0.05816544 0.01374556
v -0.05045568 -0.05816940 0.01374556
f 21 11 20
f 20 34 21
f 20 33 34
f 53 73 74
f 6 2 5
f 5 14 6
f 13 14 5
f 99 98 102
f 102 100 99
f 70 71 50
f 89 71 70
f 101 100 102
f 102 89 87
f 102 104 103
f 103 89 102
f 102 92 91
f 92 73 91
f 91 104 102
f 49 70 50
f 65 48 47
f 47 48 32
f 48 49 32
f 32 49 50
f 50 51 32
f 33 20 32
f 32 51 33
f 24 35 36
f 52 51 72
f 33 51 52
f 46 61 47
f 86 87 68
f 86 85 102
f 102 87 86
f 89 70 88
f 88 87 89
f 70 87 88
f 89 103 90
f 69 49 68
f 70 49 69
f 68 87 69
f 69 87 70
f 47 61 62
f 62 63 47
f 64 65 47
f 47 63 64
f 48 65 64
f 64 63 85
f 100 101 83
f 83 101 102
f 81 61 60
f 61 46 60
f 60 46 45
f 12 13 5
f 12 22 13
f 13 22 23
f 81 57 80
f 38 26 25
f 31 32 20
f 45 46 42
f 105 92 102
f 105 106 92
f 102 113 105
f 92 110 111
f 68 49 67
f 67 49 48
f 67 86 68
f 85 86 67
f 85 63 84
f 63 83 84
f 102 85 84
f 84 83 102
f 63 62 82
f 82 83 63
f 82 62 61
f 82 61 81
f 100 83 82
f 81 80 82
f 82 80 100
f 81 60 58
f 58 60 45
f 44 40 58
f 58 57 81
f 58 40 57
f 98 77 97
f 102 98 97
f 38 54 55
f 28 16 27
f 27 16 26
f 27 26 38
f 17 18 9
f 9 16 17
f 17 16 28
f 37 54 38
f 38 25 37
f 29 42 43
f 29 44 45
f 29 17 28
f 28 40 29
f 29 40 44
f 9 18 19
f 19 10 9
f 109 110 92
f 92 108 109
f 92 106 107
f 107 108 92
f 73 93 94
f 94 95 73
f 74 73 96
f 73 95 96
f 48 64 66
f 66 67 48
f 66 64 85
f 85 67 66
f 45 44 59
f 59 58 45
f 44 58 59
f 112 113 102
f 102 97 112
f 75 55 54
f 18 17 30
f 30 29 43
f 17 29 30
f 8 16 9
f 1 3 4
f 3 8 4
f 9 10 4
f 4 8 9
f 45 42 41
f 41 29 45
f 42 29 41
f 77 55 76
f 55 75 76
f 38 55 39
f 55 56 39
f 39 27 38
f 57 40 39
f 39 56 57
f 39 40 28
f 28 27 39
f 78 55 77
f 78 56 55
f 78 77 98
f 26 16 15
f 15 25 26
f 98 99 79
f 79 78 98
f 56 78 79
f 16 8 7
f 7 15 16
f 7 8 3
f 51 71 72
f 50 71 51
f 21 34 90
f 90 35 21
f 36 35 90
f 90 91 73
f 90 53 36
f 34 33 90
f 73 53 90
f 90 52 72
f 90 103 104
f 104 91 90
f 33 52 90
f 72 71 90
f 90 71 89
f 5 11 23
f 21 35 23
f 23 11 21
f 23 12 5
f 22 12 23
f 23 24 13
f 35 24 23
f 47 32 31
f 31 46 47
f 111 73 92
f 111 93 73
f 4 11 5
f 4 2 1
f 5 2 4
f 4 20 11
f 43 42 4
f 4 31 20
f 4 19 18
f 46 31 4
f 4 42 46
f 4 30 43
f 10 19 4
f 18 30 4
f 100 80 79
f 79 99 100
f 79 80 57
f 57 56 79
f 1 2 7
f 2 6 7
f 7 24 36
f 36 53 7
f 54 37 7
f 7 53 74
f 7 6 14
f 14 13 7
f 7 94 93
f 13 24 7
f 7 111 110
f 74 96 7
f 7 105 113
f 113 112 7
f 7 3 1
f 110 109 7
f 106 105 7
f 93 111 7
f 7 107 106
f 7 97 77
f 77 76 7
f 7 37 25
f 7 109 108
f 108 107 7
f 95 94 7
f 7 96 95
f 7 112 97
f 7 75 54
f 7 76 75
f 25 15 7
