# https://github.com/mikedh/trimesh
v -0.03443547 -0.02860961 0.01497335
v -0.03381750 -0.03207538 0.01497335
v -0.03381750 -0.03266946 0.01497637
v -0.03381750 -0.03267691 0.01497718
v -0.03381750 -0.03326540 0.01506315
v -0.03381750 -0.03379244 0.01530939
v -0.03381750 -0.03380733 0.01532228
v -0.03381750 -0.03398612 0.01587757
v -0.03381750 -0.03399543 0.01598408
v -0.03443547 -0.02860961 0.01703004
v -0.02965025 -0.04035524 0.01497335
v -0.02970087 -0.04035524 0.01498100
v -0.03024486 -0.04035524 0.01511449
v -0.03027879 -0.04035524 0.01513604
v -0.03060307 -0.04035524 0.01536516
v -0.03061253 -0.04035524 0.01542295
v -0.03067093 -0.04035524 0.01598408
v -0.03381750 -0.03381478 0.01666441
v -0.03060974 -0.04035524 0.01661729
v -0.03381750 -0.03327099 0.01693561
v -0.03381750 -0.03267691 0.01702642
v -0.03381083 -0.03267691 0.01702723
v -0.03381750 -0.03208283 0.01703004
v -0.02876307 -0.04035524 0.01497335
v -0.03024486 -0.04035524 0.01688568
v -0.03381083 -0.03327099 0.01693843
v -0.02965025 -0.04035524 0.01703004
v -0.02876307 -0.04035524 0.01703004
v -0.02875600 -0.03205817 0.01497335
v -0.02875600 -0.03205817 0.01703004
v -0.03443547 -0.02845850 0.01703004
v -0.02875600 -0.02845850 0.01497335
v -0.02875600 -0.02845850 0.01703004
v -0.03443547 -0.02845850 0.01497335
f 1 9 10
f 2 3 1
f 11 3 2
f 4 5 1
f 1 3 4
f 8 9 1
f 1 7 8
f 1 5 6
f 6 7 1
f 9 19 18
f 18 10 9
f 7 6 15
f 15 6 5
f 5 14 15
f 5 4 13
f 13 14 5
f 25 27 21
f 22 27 23
f 21 27 22
f 22 23 10
f 10 21 22
f 16 8 7
f 7 15 16
f 12 13 4
f 12 3 11
f 12 4 3
f 19 25 20
f 20 18 19
f 20 21 10
f 10 18 20
f 9 8 17
f 8 16 17
f 17 19 9
f 26 25 21
f 21 20 26
f 26 20 25
f 10 34 1
f 31 34 10
f 31 33 32
f 32 34 31
f 29 32 30
f 30 32 33
f 28 24 30
f 24 29 30
f 1 34 2
f 2 29 24
f 2 32 29
f 2 24 11
f 34 32 2
f 27 33 31
f 31 10 27
f 28 30 27
f 27 30 33
f 10 23 27
f 11 24 17
f 17 24 28
f 17 25 19
f 28 27 17
f 17 12 11
f 17 15 14
f 14 13 17
f 27 25 17
f 17 16 15
f 13 12 17
