# https://github.com/mikedh/trimesh
v -0.05732185 0.05309779 0.01370392
v -0.05729009 0.05309779 0.01058551
v -0.05836695 0.05309779 0.01370392
v -0.05757296 0.04420802 0.01370392
v -0.05751357 0.04420802 0.01058551
v -0.05831505 0.05309779 0.01058551
v -0.05836139 0.05309779 0.01317889
v -0.05837702 0.05295071 0.01292615
v -0.05838515 0.05295071 0.01370392
v -0.05860824 0.04420802 0.01370392
v -0.05856086 0.04420802 0.01058551
v -0.05832138 0.05309779 0.01088801
v -0.05833415 0.05295071 0.01058551
v -0.05835843 0.05309779 0.01292615
v -0.05836036 0.05295071 0.01190723
v -0.05841600 0.05235632 0.01190723
v -0.05843227 0.05235632 0.01292615
v -0.05844054 0.05235632 0.01370392
v -0.05839832 0.05280973 0.01370392
v -0.05834590 0.05309779 0.01215967
v -0.05860863 0.04448738 0.01370392
v -0.05860101 0.04462836 0.01292615
v -0.05860037 0.04420802 0.01292615
v -0.05856254 0.04420802 0.01067434
v -0.05856189 0.04462836 0.01058551
v -0.05834048 0.05295071 0.01088801
v -0.05832654 0.05309779 0.01114106
v -0.05835197 0.05277405 0.01058551
v -0.05839225 0.05235632 0.01058551
v -0.05839793 0.05235632 0.01088801
v -0.05834138 0.05309779 0.01190723
v -0.05848443 0.05147735 0.01237060
v -0.05848869 0.05154524 0.01292615
v -0.05847191 0.05190900 0.01370392
v -0.05849269 0.05161137 0.01370392
v -0.05860876 0.04462836 0.01370392
v -0.05860889 0.04508177 0.01370392
v -0.05860114 0.04522275 0.01292615
v -0.05858539 0.04462836 0.01190723
v -0.05858449 0.04420802 0.01190723
v -0.05856654 0.04420802 0.01088801
v -0.05856745 0.04462836 0.01088801
v -0.05856215 0.04522275 0.01058551
v -0.05848675 0.05091864 0.01058551
v -0.05848960 0.05096564 0.01088801
v -0.05849631 0.05117711 0.01198141
v -0.05851180 0.05116754 0.01292615
v -0.05851994 0.05116754 0.01370392
v -0.05849825 0.05152174 0.01370392
v -0.05860889 0.04641154 0.01370392
v -0.05858552 0.04522275 0.01190723
v -0.05860114 0.04641154 0.01292615
v -0.05856770 0.04522275 0.01088801
v -0.05856215 0.04641154 0.01058551
v -0.05849915 0.05055574 0.01058551
v -0.05850431 0.05057228 0.01088801
v -0.05852265 0.05057228 0.01190723
v -0.05853866 0.05057228 0.01292615
v -0.05852626 0.05102656 0.01370392
v -0.05860850 0.04686582 0.01370392
v -0.05858552 0.04641154 0.01190723
v -0.05860062 0.04700680 0.01292615
v -0.05856770 0.04641154 0.01088801
v -0.05856163 0.04700680 0.01058551
v -0.05850393 0.05039648 0.01058551
v -0.05852174 0.04997789 0.01088801
v -0.05853982 0.04997789 0.01190723
v -0.05857248 0.04938349 0.01292615
v -0.05855053 0.05043217 0.01370392
v -0.05854653 0.05057228 0.01370392
v -0.05860837 0.04700680 0.01370392
v -0.05858501 0.04700680 0.01190723
v -0.05859714 0.04760119 0.01292615
v -0.05856719 0.04700680 0.01088801
v -0.05855815 0.04760119 0.01058551
v -0.05852122 0.04980209 0.01058551
v -0.05853323 0.04938349 0.01058551
v -0.05853878 0.04938349 0.01088801
v -0.05855673 0.04938349 0.01190723
v -0.05858320 0.04924251 0.01370392
v -0.05858023 0.04938349 0.01370392
v -0.05856745 0.04983690 0.01370392
v -0.05856344 0.04997789 0.01370392
v -0.05856899 0.04878910 0.01190723
v -0.05858461 0.04878910 0.01292615
v -0.05860488 0.04760119 0.01370392
v -0.05858152 0.04760119 0.01190723
v -0.05859133 0.04819558 0.01292615
v -0.05856370 0.04760119 0.01088801
v -0.05855234 0.04819558 0.01058551
v -0.05854550 0.04878910 0.01058551
v -0.05855118 0.04878910 0.01088801
v -0.05859236 0.04878910 0.01370392
v -0.05857571 0.04819558 0.01190723
v -0.05859404 0.04864899 0.01370392
v -0.05859908 0.04819558 0.01370392
v -0.05855789 0.04819558 0.01088801
v -0.05854756 0.04861331 0.01058551
f 5 1 4
f 2 1 5
f 37 22 36
f 10 22 23
f 21 22 10
f 21 36 22
f 45 44 57
f 45 29 44
f 58 45 57
f 47 45 58
f 58 48 47
f 17 18 8
f 8 20 15
f 8 9 3
f 17 8 16
f 16 8 15
f 74 64 63
f 75 64 74
f 74 89 75
f 89 87 94
f 67 58 57
f 68 79 84
f 68 67 79
f 58 67 68
f 59 58 70
f 48 58 59
f 19 8 18
f 9 8 19
f 20 8 14
f 15 20 31
f 31 27 15
f 28 29 15
f 6 13 12
f 15 29 30
f 30 16 15
f 16 30 32
f 29 45 32
f 32 30 29
f 40 42 41
f 39 42 40
f 53 42 39
f 39 40 23
f 39 23 22
f 25 41 42
f 54 63 64
f 73 94 87
f 89 94 97
f 90 75 97
f 97 75 89
f 34 18 17
f 17 35 34
f 85 68 84
f 84 94 85
f 77 91 92
f 84 79 92
f 92 94 84
f 92 97 94
f 90 97 92
f 44 55 56
f 57 44 56
f 7 8 3
f 7 14 8
f 13 28 26
f 26 28 15
f 15 27 26
f 27 12 26
f 26 12 13
f 17 16 33
f 16 32 33
f 33 35 17
f 33 32 47
f 33 49 35
f 48 49 33
f 47 48 33
f 46 45 47
f 47 32 46
f 46 32 45
f 74 63 72
f 72 73 87
f 72 89 74
f 72 87 89
f 24 25 11
f 41 25 24
f 86 73 71
f 68 81 82
f 95 85 88
f 94 73 88
f 88 85 94
f 93 85 95
f 78 92 79
f 77 92 78
f 79 67 78
f 90 92 98
f 98 92 91
f 50 60 52
f 70 58 69
f 58 68 69
f 95 88 96
f 73 86 96
f 96 88 73
f 80 81 68
f 68 85 80
f 85 93 80
f 65 56 55
f 61 52 72
f 61 72 63
f 62 60 71
f 62 52 60
f 71 73 62
f 73 72 62
f 72 52 62
f 38 22 37
f 38 39 22
f 68 82 83
f 83 69 68
f 66 65 76
f 56 65 66
f 57 56 66
f 66 67 57
f 66 78 67
f 66 76 77
f 77 78 66
f 53 39 51
f 39 38 51
f 25 42 53
f 53 43 25
f 54 43 53
f 53 63 54
f 7 3 1
f 2 6 7
f 7 1 2
f 7 31 20
f 6 12 7
f 20 14 7
f 27 31 7
f 7 12 27
f 4 10 24
f 24 5 4
f 11 5 24
f 10 23 24
f 23 40 24
f 40 41 24
f 65 5 11
f 2 5 65
f 65 6 2
f 65 75 90
f 65 13 6
f 44 29 65
f 29 28 65
f 65 54 64
f 65 55 44
f 11 25 65
f 64 75 65
f 65 91 77
f 90 98 65
f 65 28 13
f 65 25 43
f 43 54 65
f 65 98 91
f 77 76 65
f 37 50 38
f 50 52 38
f 4 1 83
f 83 49 48
f 1 3 83
f 83 10 4
f 83 21 10
f 37 36 83
f 36 21 83
f 3 9 83
f 18 34 83
f 83 59 70
f 83 19 18
f 71 60 83
f 83 50 37
f 48 59 83
f 9 19 83
f 70 69 83
f 35 49 83
f 83 34 35
f 83 93 95
f 83 86 71
f 83 60 50
f 83 82 81
f 95 96 83
f 81 80 83
f 83 96 86
f 83 80 93
f 51 63 53
f 51 61 63
f 51 38 52
f 52 61 51
