# Converted from RoboDojo wrench/00001; source geometry preserved.
v -0.002434637 0.052722435 -0.003078118
v 0.000930030 0.052722435 -0.003078113
v -0.002434632 -0.060830601 -0.003078118
v 0.000930035 -0.059993334 -0.003078113
v 0.004294702 -0.060830601 -0.003078108
v 0.004294697 0.052722435 -0.003078108
v -0.003241002 0.056735188 -0.003078119
v 0.000957577 0.056735188 -0.003078113
v 0.004807713 0.056735188 -0.003078107
v 0.005208823 -0.063761652 -0.003078107
v 0.000999595 -0.062924389 -0.003078112
v -0.003209631 -0.063761652 -0.003078119
v 0.004294427 0.052719329 -0.000026654
v 0.000957307 0.056732085 -0.000026659
v 0.000929759 0.052719329 -0.000026659
v -0.002434908 0.052719329 -0.000026663
v -0.003241273 0.056732085 -0.000026665
v -0.003608444 0.059184384 -0.003078119
v 0.001028062 0.059211481 -0.003078112
v 0.005415458 0.060105737 -0.003078106
v 0.004807443 0.056732085 -0.000026653
v 0.000929764 -0.059996445 -0.000026659
v 0.004294432 -0.060833707 -0.000026654
v -0.002434903 -0.060833707 -0.000026663
v 0.011161295 -0.069717497 -0.000026644
v 0.011161295 -0.069717497 -0.000026644
v 0.011998564 -0.073926717 -0.000026643
v 0.011998564 -0.073926717 -0.000026643
v 0.011161295 -0.078135952 -0.000026644
v 0.011161295 -0.078135952 -0.000026644
v 0.008776964 -0.081704348 -0.000026647
v 0.008776964 -0.081704348 -0.000026647
v 0.005208553 -0.084088691 -0.000026653
v 0.005208553 -0.084088691 -0.000026653
v 0.000999326 -0.084925957 -0.000026659
v 0.000999326 -0.084925957 -0.000026659
v 0.007847860 -0.071089968 -0.000026649
v 0.007847860 -0.071089968 -0.000026649
v 0.007847861 -0.076763488 -0.000026649
v 0.007847861 -0.076763488 -0.000026649
v 0.003836083 -0.080775253 -0.000026654
v 0.003836083 -0.080775253 -0.000026654
v 0.003836082 -0.067078196 -0.000026654
v 0.003836082 -0.067078196 -0.000026654
v -0.009162644 -0.069717497 -0.000026673
v -0.009162644 -0.069717497 -0.000026673
v -0.009999913 -0.073926717 -0.000026674
v -0.009999913 -0.073926717 -0.000026674
v -0.009162645 -0.078135952 -0.000026673
v -0.009162645 -0.078135952 -0.000026673
v -0.006778312 -0.081704348 -0.000026670
v -0.006778312 -0.081704348 -0.000026670
v -0.003209902 -0.084088691 -0.000026664
v -0.003209902 -0.084088691 -0.000026664
v -0.005849209 -0.071089968 -0.000026668
v -0.005849209 -0.071089968 -0.000026668
v -0.005849209 -0.076763488 -0.000026668
v -0.005849209 -0.076763488 -0.000026668
v -0.001837431 -0.080775253 -0.000026662
v -0.001837431 -0.080775253 -0.000026662
v -0.001837432 -0.067078196 -0.000026662
v -0.001837432 -0.067078196 -0.000026662
v -0.003608714 0.059181277 -0.000026665
v 0.001027792 0.059208374 -0.000026658
v 0.005415188 0.060102630 -0.000026652
v 0.004294698 0.034434710 -0.003078108
v 0.000930031 0.034434710 -0.003078113
v -0.002434637 0.034434710 -0.003078118
v -0.002434633 -0.040014036 -0.003078118
v -0.002434907 0.034431603 -0.000026663
v -0.002434904 -0.040017147 -0.000026663
v 0.004294427 0.034431603 -0.000026654
v 0.000929760 0.034431603 -0.000026659
v 0.000930034 -0.040014036 -0.003078113
v 0.004294701 -0.040014036 -0.003078108
v 0.000929763 -0.040017147 -0.000026659
v 0.004294431 -0.040017147 -0.000026654
v -0.005287089 0.052722137 -0.002785011
v -0.005287089 0.052722137 -0.002785011
v -0.005287089 0.052722137 -0.002785011
v -0.005287089 0.052722137 -0.002785011
v -0.004975054 0.052722435 -0.003078121
v -0.004975054 0.052722435 -0.003078121
v -0.004975054 0.052722435 -0.003078121
v -0.004967696 -0.062947977 -0.003078121
v -0.004967696 -0.062947977 -0.003078121
v -0.004967696 -0.062947977 -0.003078121
v -0.005287085 -0.063215230 -0.002785011
v -0.005287085 -0.063215230 -0.002785011
v -0.005287085 -0.063215230 -0.002785011
v -0.005287085 -0.063215230 -0.002785011
v 0.007147103 -0.063215230 -0.002784993
v 0.007147103 -0.063215230 -0.002784993
v 0.007147103 -0.063215230 -0.002784993
v 0.007147103 -0.063215230 -0.002784993
v 0.006829688 -0.062949583 -0.003078104
v 0.006829688 -0.062949583 -0.003078104
v 0.006829688 -0.062949583 -0.003078104
v 0.007147098 0.052722137 -0.002784993
v 0.007147098 0.052722137 -0.002784993
v 0.007147098 0.052722137 -0.002784993
v 0.007147098 0.052722137 -0.002784993
v 0.006838107 0.052722435 -0.003078104
v 0.006838107 0.052722435 -0.003078104
v 0.006838107 0.052722435 -0.003078104
v -0.006453030 0.056734890 -0.002785012
v -0.006453030 0.056734890 -0.002785012
v -0.006453030 0.056734890 -0.002785012
v -0.006453030 0.056734890 -0.002785012
v -0.006140783 0.056735188 -0.003078123
v -0.006140783 0.056735188 -0.003078123
v -0.006140783 0.056735188 -0.003078123
v 0.007539196 0.056735188 -0.003078103
v 0.007539196 0.056735188 -0.003078103
v 0.007539196 0.056735188 -0.003078103
v 0.007847907 0.056734890 -0.002784992
v 0.007847907 0.056734890 -0.002784992
v 0.007847907 0.056734890 -0.002784992
v 0.007847907 0.056734890 -0.002784992
v -0.005287086 -0.040014334 -0.002785011
v -0.005287086 -0.040014334 -0.002785011
v -0.004971852 -0.040014036 -0.003078121
v -0.004971852 -0.040014036 -0.003078121
v 0.003551115 -0.039563570 -0.002784999
v 0.003551115 -0.039563570 -0.002784999
v 0.003551115 -0.039563570 -0.002784999
v 0.003551115 -0.039563570 -0.002784999
v 0.003844226 -0.039270461 -0.002784998
v 0.003844226 -0.039270461 -0.002784998
v 0.003844226 -0.039270461 -0.002784998
v 0.003844226 -0.039270461 -0.002784998
v 0.004137340 -0.039856676 -0.003078108
v 0.004137340 -0.039856676 -0.003078108
v 0.004137340 -0.039856676 -0.003078108
v 0.004137340 -0.039856676 -0.003078108
v 0.006834022 -0.040014036 -0.003078104
v 0.006834022 -0.040014036 -0.003078104
v 0.007147102 -0.040014334 -0.002784993
v 0.007147102 -0.040014334 -0.002784993
v -0.004974243 0.034434710 -0.003078121
v -0.004974243 0.034434710 -0.003078121
v -0.005287089 0.034434412 -0.002785011
v -0.005287089 0.034434412 -0.002785011
v 0.000930030 0.033984236 -0.002785002
v 0.000930030 0.033984236 -0.002785002
v 0.000930030 0.033984236 -0.002785002
v 0.000930031 0.034277350 -0.003078113
v 0.000930031 0.034277350 -0.003078113
v 0.003551113 0.033984236 -0.002784999
v 0.003551113 0.033984236 -0.002784999
v 0.003551113 0.033984236 -0.002784999
v 0.003551113 0.033984236 -0.002784999
v 0.004137336 0.034277350 -0.003078108
v 0.004137336 0.034277350 -0.003078108
v 0.004137336 0.034277350 -0.003078108
v 0.004137336 0.034277350 -0.003078108
v 0.003844223 0.033691127 -0.002784998
v 0.003844223 0.033691127 -0.002784998
v 0.003844223 0.033691127 -0.002784998
v 0.003844223 0.033691127 -0.002784998
v 0.006836754 0.034434710 -0.003078104
v 0.006836754 0.034434710 -0.003078104
v 0.007147099 0.034434412 -0.002784993
v 0.007147099 0.034434412 -0.002784993
v 0.000930033 -0.039563570 -0.002785002
v 0.000930033 -0.039563570 -0.002785002
v 0.000930033 -0.039563570 -0.002785002
v 0.000930034 -0.039856676 -0.003078113
v 0.000930034 -0.039856676 -0.003078113
v -0.001691052 0.033984236 -0.002785006
v -0.001691052 0.033984236 -0.002785006
v -0.001691052 0.033984236 -0.002785006
v -0.001984162 0.033691127 -0.002785006
v -0.001984162 0.033691127 -0.002785006
v -0.001984162 0.033691127 -0.002785006
v -0.001984162 0.033691127 -0.002785006
v -0.002277275 0.034277350 -0.003078118
v -0.002277275 0.034277350 -0.003078118
v -0.002277275 0.034277350 -0.003078118
v -0.002277275 0.034277350 -0.003078118
v -0.001984159 -0.039270461 -0.002785006
v -0.001984159 -0.039270461 -0.002785006
v -0.001984159 -0.039270461 -0.002785006
v -0.001984159 -0.039270461 -0.002785006
v -0.001691048 -0.039563570 -0.002785006
v -0.001691048 -0.039563570 -0.002785006
v -0.001691048 -0.039563570 -0.002785006
v -0.001691048 -0.039563570 -0.002785006
v -0.002277271 -0.039856676 -0.003078118
v -0.002277271 -0.039856676 -0.003078118
v -0.002277271 -0.039856676 -0.003078118
v -0.002277271 -0.039856676 -0.003078118
v 0.009476149 -0.067719564 -0.003078101
v 0.009476149 -0.067719564 -0.003078101
v 0.009476149 -0.067719564 -0.003078101
v 0.008777204 -0.066146277 -0.002784991
v 0.008777204 -0.066146277 -0.002784991
v 0.008777204 -0.066146277 -0.002784991
v 0.008777204 -0.066146277 -0.002784991
v 0.011161538 -0.069714688 -0.002784987
v 0.011161538 -0.069714688 -0.002784987
v 0.011161538 -0.069714688 -0.002784987
v 0.011161538 -0.069714688 -0.002784987
v 0.010885461 -0.069828756 -0.003078098
v 0.010885461 -0.069828756 -0.003078098
v 0.010885461 -0.069828756 -0.003078098
v 0.011998807 -0.073923908 -0.002784986
v 0.011998807 -0.073923908 -0.002784986
v 0.011998807 -0.073923908 -0.002784986
v 0.011998807 -0.073923908 -0.002784986
v 0.011699980 -0.073923610 -0.003078097
v 0.011699980 -0.073923610 -0.003078097
v 0.011699980 -0.073923610 -0.003078097
v 0.011161539 -0.078133136 -0.002784987
v 0.011161539 -0.078133136 -0.002784987
v 0.011161539 -0.078133136 -0.002784987
v 0.011161539 -0.078133136 -0.002784987
v 0.010885461 -0.078018472 -0.003078098
v 0.010885461 -0.078018472 -0.003078098
v 0.010885461 -0.078018472 -0.003078098
v 0.008777208 -0.081701547 -0.002784991
v 0.008777208 -0.081701547 -0.002784991
v 0.008777208 -0.081701547 -0.002784991
v 0.008777208 -0.081701547 -0.002784991
v 0.008565913 -0.081489928 -0.003078102
v 0.008565913 -0.081489928 -0.003078102
v 0.008565913 -0.081489928 -0.003078102
v 0.005208798 -0.084085882 -0.002784996
v 0.005208798 -0.084085882 -0.002784996
v 0.005208798 -0.084085882 -0.002784996
v 0.005208798 -0.084085882 -0.002784996
v 0.005094458 -0.083809480 -0.003078107
v 0.005094458 -0.083809480 -0.003078107
v 0.005094458 -0.083809480 -0.003078107
v 0.003949015 -0.066803098 -0.003078109
v 0.003949015 -0.066803098 -0.003078109
v 0.003949015 -0.066803098 -0.003078109
v 0.003836327 -0.067075387 -0.002784998
v 0.003836327 -0.067075387 -0.002784998
v 0.003836327 -0.067075387 -0.002784998
v 0.003836327 -0.067075387 -0.002784998
v 0.006989257 -0.068300664 -0.002784994
v 0.006989257 -0.068300664 -0.002784994
v 0.006989257 -0.068300664 -0.002784994
v 0.006989257 -0.068300664 -0.002784994
v 0.006622815 -0.067934230 -0.002784994
v 0.006622815 -0.067934230 -0.002784994
v 0.006622815 -0.067934230 -0.002784994
v 0.006622815 -0.067934230 -0.002784994
v 0.007137402 -0.067785807 -0.003078104
v 0.007137402 -0.067785807 -0.003078104
v 0.007137402 -0.067785807 -0.003078104
v 0.007137402 -0.067785807 -0.003078104
v 0.008120122 -0.070974201 -0.003078102
v 0.008120122 -0.070974201 -0.003078102
v 0.008120122 -0.070974201 -0.003078102
v 0.007848104 -0.071087159 -0.002784992
v 0.007848104 -0.071087159 -0.002784992
v 0.007848104 -0.071087159 -0.002784992
v 0.007848104 -0.071087159 -0.002784992
v 0.009211150 -0.073664792 -0.002784991
v 0.009211150 -0.073664792 -0.002784991
v 0.009211150 -0.073664792 -0.002784991
v 0.009211150 -0.073664792 -0.002784991
v 0.009679763 -0.073923610 -0.003078100
v 0.009679763 -0.073923610 -0.003078100
v 0.009679763 -0.073923610 -0.003078100
v 0.009679763 -0.073923610 -0.003078100
v 0.009211149 -0.074183024 -0.002784990
v 0.009211149 -0.074183024 -0.002784990
v 0.009211149 -0.074183024 -0.002784990
v 0.009211149 -0.074183024 -0.002784990
v 0.008120123 -0.076873034 -0.003078102
v 0.008120123 -0.076873034 -0.003078102
v 0.008120123 -0.076873034 -0.003078102
v 0.007848104 -0.076760672 -0.002784992
v 0.007848104 -0.076760672 -0.002784992
v 0.007848104 -0.076760672 -0.002784992
v 0.007848104 -0.076760672 -0.002784992
v 0.006989259 -0.079547159 -0.002784994
v 0.006989259 -0.079547159 -0.002784994
v 0.006989259 -0.079547159 -0.002784994
v 0.006989259 -0.079547159 -0.002784994
v 0.007137406 -0.080061421 -0.003078104
v 0.007137406 -0.080061421 -0.003078104
v 0.007137406 -0.080061421 -0.003078104
v 0.007137406 -0.080061421 -0.003078104
v 0.006622818 -0.079913601 -0.002784994
v 0.006622818 -0.079913601 -0.002784994
v 0.006622818 -0.079913601 -0.002784994
v 0.006622818 -0.079913601 -0.002784994
v 0.003949017 -0.081044137 -0.003078109
v 0.003949017 -0.081044137 -0.003078109
v 0.003949017 -0.081044137 -0.003078109
v 0.003836327 -0.080772445 -0.002784998
v 0.003836327 -0.080772445 -0.002784998
v 0.003836327 -0.080772445 -0.002784998
v 0.003836327 -0.080772445 -0.002784998
v -0.006778067 -0.066146277 -0.002785013
v -0.006778067 -0.066146277 -0.002785013
v -0.006778067 -0.066146277 -0.002785013
v -0.006778067 -0.066146277 -0.002785013
v -0.007109915 -0.067170247 -0.003078124
v -0.007109915 -0.067170247 -0.003078124
v -0.007109915 -0.067170247 -0.003078124
v -0.008886271 -0.069828756 -0.003078127
v -0.008886271 -0.069828756 -0.003078127
v -0.008886271 -0.069828756 -0.003078127
v -0.009162401 -0.069714688 -0.002785017
v -0.009162401 -0.069714688 -0.002785017
v -0.009162401 -0.069714688 -0.002785017
v -0.009162401 -0.069714688 -0.002785017
v -0.009700791 -0.073923610 -0.003078128
v -0.009700791 -0.073923610 -0.003078128
v -0.009700791 -0.073923610 -0.003078128
v -0.009999670 -0.073923908 -0.002785017
v -0.009999670 -0.073923908 -0.002785017
v -0.009999670 -0.073923908 -0.002785017
v -0.009999670 -0.073923908 -0.002785017
v -0.008886271 -0.078018472 -0.003078127
v -0.008886271 -0.078018472 -0.003078127
v -0.008886271 -0.078018472 -0.003078127
v -0.009162401 -0.078133136 -0.002785017
v -0.009162401 -0.078133136 -0.002785017
v -0.009162401 -0.078133136 -0.002785017
v -0.009162401 -0.078133136 -0.002785017
v -0.006566721 -0.081489928 -0.003078123
v -0.006566721 -0.081489928 -0.003078123
v -0.006566721 -0.081489928 -0.003078123
v -0.006778068 -0.081701547 -0.002785013
v -0.006778068 -0.081701547 -0.002785013
v -0.006778068 -0.081701547 -0.002785013
v -0.006778068 -0.081701547 -0.002785013
v -0.003095265 -0.083809480 -0.003078119
v -0.003095265 -0.083809480 -0.003078119
v -0.003095265 -0.083809480 -0.003078119
v -0.003209657 -0.084085882 -0.002785008
v -0.003209657 -0.084085882 -0.002785008
v -0.003209657 -0.084085882 -0.002785008
v -0.003209657 -0.084085882 -0.002785008
v 0.000999570 -0.084923148 -0.002785002
v 0.000999570 -0.084923148 -0.002785002
v 0.000999570 -0.084923148 -0.002785002
v 0.000999570 -0.084923148 -0.002785002
v 0.000999596 -0.084624000 -0.003078112
v 0.000999596 -0.084624000 -0.003078112
v 0.000999596 -0.084624000 -0.003078112
v 0.001258681 -0.065712340 -0.002785002
v 0.001258681 -0.065712340 -0.002785002
v 0.001258681 -0.065712340 -0.002785002
v 0.001258681 -0.065712340 -0.002785002
v 0.000740456 -0.065712340 -0.002785002
v 0.000740456 -0.065712340 -0.002785002
v 0.000740456 -0.065712340 -0.002785002
v 0.000740456 -0.065712340 -0.002785002
v 0.000999595 -0.065243460 -0.003078112
v 0.000999595 -0.065243460 -0.003078112
v 0.000999595 -0.065243460 -0.003078112
v 0.000999595 -0.065243460 -0.003078112
v -0.001837187 -0.067075387 -0.002785006
v -0.001837187 -0.067075387 -0.002785006
v -0.001837187 -0.067075387 -0.002785006
v -0.001837187 -0.067075387 -0.002785006
v -0.001949824 -0.066803098 -0.003078117
v -0.001949824 -0.066803098 -0.003078117
v -0.001949824 -0.066803098 -0.003078117
v -0.004990117 -0.068300664 -0.002785010
v -0.004990117 -0.068300664 -0.002785010
v -0.004990117 -0.068300664 -0.002785010
v -0.004990117 -0.068300664 -0.002785010
v -0.005138210 -0.067785807 -0.003078121
v -0.005138210 -0.067785807 -0.003078121
v -0.005138210 -0.067785807 -0.003078121
v -0.005138210 -0.067785807 -0.003078121
v -0.004623675 -0.067934230 -0.002785010
v -0.004623675 -0.067934230 -0.002785010
v -0.004623675 -0.067934230 -0.002785010
v -0.004623675 -0.067934230 -0.002785010
v -0.005848966 -0.071087159 -0.002785012
v -0.005848966 -0.071087159 -0.002785012
v -0.005848966 -0.071087159 -0.002785012
v -0.005848966 -0.071087159 -0.002785012
v -0.006120932 -0.070974201 -0.003078123
v -0.006120932 -0.070974201 -0.003078123
v -0.006120932 -0.070974201 -0.003078123
v -0.007212013 -0.073664792 -0.002785014
v -0.007212013 -0.073664792 -0.002785014
v -0.007212013 -0.073664792 -0.002785014
v -0.007212013 -0.073664792 -0.002785014
v -0.007212013 -0.074183024 -0.002785014
v -0.007212013 -0.074183024 -0.002785014
v -0.007212013 -0.074183024 -0.002785014
v -0.007212013 -0.074183024 -0.002785014
v -0.007680574 -0.073923610 -0.003078125
v -0.007680574 -0.073923610 -0.003078125
v -0.007680574 -0.073923610 -0.003078125
v -0.007680574 -0.073923610 -0.003078125
v -0.005848965 -0.076760672 -0.002785012
v -0.005848965 -0.076760672 -0.002785012
v -0.005848965 -0.076760672 -0.002785012
v -0.005848965 -0.076760672 -0.002785012
v -0.006120932 -0.076873034 -0.003078123
v -0.006120932 -0.076873034 -0.003078123
v -0.006120932 -0.076873034 -0.003078123
v -0.004990117 -0.079547159 -0.002785010
v -0.004990117 -0.079547159 -0.002785010
v -0.004990117 -0.079547159 -0.002785010
v -0.004990117 -0.079547159 -0.002785010
v -0.004623677 -0.079913601 -0.002785010
v -0.004623677 -0.079913601 -0.002785010
v -0.004623677 -0.079913601 -0.002785010
v -0.004623677 -0.079913601 -0.002785010
v -0.005138213 -0.080061421 -0.003078121
v -0.005138213 -0.080061421 -0.003078121
v -0.005138213 -0.080061421 -0.003078121
v -0.005138213 -0.080061421 -0.003078121
v -0.001837187 -0.080772445 -0.002785006
v -0.001837187 -0.080772445 -0.002785006
v -0.001837187 -0.080772445 -0.002785006
v -0.001837187 -0.080772445 -0.002785006
v -0.001949824 -0.081044137 -0.003078117
v -0.001949824 -0.081044137 -0.003078117
v -0.001949824 -0.081044137 -0.003078117
v 0.001258684 -0.082135499 -0.002785002
v 0.001258684 -0.082135499 -0.002785002
v 0.001258684 -0.082135499 -0.002785002
v 0.001258684 -0.082135499 -0.002785002
v 0.000999596 -0.082603782 -0.003078112
v 0.000999596 -0.082603782 -0.003078112
v 0.000999596 -0.082603782 -0.003078112
v 0.000999596 -0.082603782 -0.003078112
v 0.000740457 -0.082135499 -0.002785002
v 0.000740457 -0.082135499 -0.002785002
v 0.000740457 -0.082135499 -0.002785002
v 0.000740457 -0.082135499 -0.002785002
v -0.005866453 0.069286339 -0.000319779
v -0.005866453 0.069286339 -0.000319779
v -0.005866453 0.069286339 -0.000319779
v -0.005866453 0.069286339 -0.000319779
v -0.005794483 0.068694152 -0.000026668
v -0.005794483 0.068694152 -0.000026668
v -0.005794483 0.068694152 -0.000026668
v -0.005794483 0.068694152 -0.000026668
v -0.005448254 0.068916194 -0.000319778
v -0.005448254 0.068916194 -0.000319778
v -0.005448254 0.068916194 -0.000319778
v -0.005448254 0.068916194 -0.000319778
v -0.006210316 0.069863409 -0.000319779
v -0.006210316 0.069863409 -0.000319779
v -0.006416723 0.069723330 -0.000026669
v -0.006416723 0.069723330 -0.000026669
v 0.006829418 -0.062952694 -0.000026650
v 0.006829418 -0.062952694 -0.000026650
v 0.006829418 -0.062952694 -0.000026650
v 0.007146885 -0.063217744 -0.000319760
v 0.007146885 -0.063217744 -0.000319760
v 0.007146885 -0.063217744 -0.000319760
v 0.007146885 -0.063217744 -0.000319760
v 0.006833751 -0.040017147 -0.000026650
v 0.006833751 -0.040017147 -0.000026650
v 0.007146884 -0.040016849 -0.000319760
v 0.007146884 -0.040016849 -0.000319760
v -0.005866235 0.069288850 -0.002785012
v -0.005866235 0.069288850 -0.002785012
v -0.005866235 0.069288850 -0.002785012
v -0.005866235 0.069288850 -0.002785012
v -0.005448038 0.068918705 -0.002785011
v -0.005448038 0.068918705 -0.002785011
v -0.005448038 0.068918705 -0.002785011
v -0.005448038 0.068918705 -0.002785011
v -0.005794214 0.068697259 -0.003078122
v -0.005794214 0.068697259 -0.003078122
v -0.005794214 0.068697259 -0.003078122
v -0.005794214 0.068697259 -0.003078122
v -0.006141053 0.056732085 -0.000026669
v -0.006141053 0.056732085 -0.000026669
v -0.006141053 0.056732085 -0.000026669
v -0.006453247 0.056732383 -0.000319780
v -0.006453247 0.056732383 -0.000319780
v -0.006453247 0.056732383 -0.000319780
v -0.006453247 0.056732383 -0.000319780
v 0.007146880 0.052719627 -0.000319760
v 0.007146880 0.052719627 -0.000319760
v 0.007146880 0.052719627 -0.000319760
v 0.007146880 0.052719627 -0.000319760
v 0.006837837 0.052719329 -0.000026650
v 0.006837837 0.052719329 -0.000026650
v 0.006837837 0.052719329 -0.000026650
v 0.007847689 0.056732383 -0.000319759
v 0.007847689 0.056732383 -0.000319759
v 0.007847689 0.056732383 -0.000319759
v 0.007847689 0.056732383 -0.000319759
v 0.007538927 0.056732085 -0.000026649
v 0.007538927 0.056732085 -0.000026649
v 0.007538927 0.056732085 -0.000026649
v -0.005287308 0.052719627 -0.000319778
v -0.005287308 0.052719627 -0.000319778
v -0.005287308 0.052719627 -0.000319778
v -0.005287308 0.052719627 -0.000319778
v -0.004975325 0.052719329 -0.000026667
v -0.004975325 0.052719329 -0.000026667
v -0.004975325 0.052719329 -0.000026667
v -0.004974513 0.034431603 -0.000026667
v -0.004974513 0.034431603 -0.000026667
v -0.005287307 0.034431901 -0.000319778
v -0.005287307 0.034431901 -0.000319778
v -0.013332831 0.069955185 -0.000026679
v -0.013332831 0.069955185 -0.000026679
v -0.013332831 0.069955185 -0.000026679
v -0.013628268 0.069922641 -0.000319790
v -0.013628268 0.069922641 -0.000319790
v -0.013628268 0.069922641 -0.000319790
v -0.013628268 0.069922641 -0.000319790
v -0.012656579 0.065497421 -0.000319789
v -0.012656579 0.065497421 -0.000319789
v -0.012656579 0.065497421 -0.000319789
v -0.012656579 0.065497421 -0.000319789
v -0.012394714 0.065674499 -0.000026677
v -0.012394714 0.065674499 -0.000026677
v -0.012394714 0.065674499 -0.000026677
v -0.007813331 0.059898410 -0.002785015
v -0.007813331 0.059898410 -0.002785015
v -0.007813331 0.059898410 -0.002785015
v -0.007813331 0.059898410 -0.002785015
v -0.007601443 0.060132712 -0.003078125
v -0.007601443 0.060132712 -0.003078125
v -0.007601443 0.060132712 -0.003078125
v -0.010443742 0.080771469 -0.002785018
v -0.010443742 0.080771469 -0.002785018
v -0.010443742 0.080771469 -0.002785018
v -0.010443742 0.080771469 -0.002785018
v -0.010026880 0.081026234 -0.002785018
v -0.010026880 0.081026234 -0.002785018
v -0.010026880 0.081026234 -0.002785018
v -0.010026880 0.081026234 -0.002785018
v -0.010157645 0.080738060 -0.003078128
v -0.010157645 0.080738060 -0.003078128
v -0.010157645 0.080738060 -0.003078128
v -0.010157645 0.080738060 -0.003078128
v -0.012389326 0.075957753 -0.003078132
v -0.012389326 0.075957753 -0.003078132
v -0.012389326 0.075957753 -0.003078132
v -0.012676868 0.075986207 -0.002785021
v -0.012676868 0.075986207 -0.002785021
v -0.012676868 0.075986207 -0.002785021
v -0.012676868 0.075986207 -0.002785021
v -0.013628048 0.069925152 -0.002785023
v -0.013628048 0.069925152 -0.002785023
v -0.013628048 0.069925152 -0.002785023
v -0.013628048 0.069925152 -0.002785023
v -0.013332559 0.069958292 -0.003078133
v -0.013332559 0.069958292 -0.003078133
v -0.013332559 0.069958292 -0.003078133
v -0.009313902 0.080999836 -0.002785017
v -0.009313902 0.080999836 -0.002785017
v -0.009313902 0.080999836 -0.002785017
v -0.009313902 0.080999836 -0.002785017
v -0.008960608 0.080702163 -0.002785016
v -0.008960608 0.080702163 -0.002785016
v -0.008960608 0.080702163 -0.002785016
v -0.008960608 0.080702163 -0.002785016
v -0.009247759 0.080704369 -0.003078127
v -0.009247759 0.080704369 -0.003078127
v -0.009247759 0.080704369 -0.003078127
v -0.009247759 0.080704369 -0.003078127
v -0.007866506 0.075505167 -0.002785015
v -0.007866506 0.075505167 -0.002785015
v -0.007866506 0.075505167 -0.002785015
v -0.007866506 0.075505167 -0.002785015
v -0.008158901 0.075534709 -0.003078126
v -0.008158901 0.075534709 -0.003078126
v -0.008158901 0.075534709 -0.003078126
v -0.006704001 0.070694812 -0.002785013
v -0.006704001 0.070694812 -0.002785013
v -0.006704001 0.070694812 -0.002785013
v -0.006704001 0.070694812 -0.002785013
v -0.006980203 0.070664406 -0.003078124
v -0.006980203 0.070664406 -0.003078124
v -0.006980203 0.070664406 -0.003078124
v -0.003982632 0.068271995 -0.002785009
v -0.003982632 0.068271995 -0.002785009
v -0.003982632 0.068271995 -0.002785009
v -0.003982632 0.068271995 -0.002785009
v -0.003967125 0.067896292 -0.003078120
v -0.003967125 0.067896292 -0.003078120
v -0.003967125 0.067896292 -0.003078120
v 0.001028036 0.068299092 -0.002785002
v 0.001028036 0.068299092 -0.002785002
v 0.001028036 0.068299092 -0.002785002
v 0.001028036 0.068299092 -0.002785002
v 0.001028062 0.067922793 -0.003078112
v 0.001028062 0.067922793 -0.003078112
v 0.001028062 0.067922793 -0.003078112
v 0.003418807 0.069463283 -0.002784999
v 0.003418807 0.069463283 -0.002784999
v 0.003418807 0.069463283 -0.002784999
v 0.003418807 0.069463283 -0.002784999
v 0.003492935 0.069116279 -0.003078109
v 0.003492935 0.069116279 -0.003078109
v 0.003492935 0.069116279 -0.003078109
v 0.005883418 0.071694106 -0.002784995
v 0.005883418 0.071694106 -0.002784995
v 0.005883418 0.071694106 -0.002784995
v 0.005883418 0.071694106 -0.002784995
v 0.006028473 0.071398176 -0.003078106
v 0.006028473 0.071398176 -0.003078106
v 0.006028473 0.071398176 -0.003078106
v 0.009927913 0.063459761 -0.003078100
v 0.009927913 0.063459761 -0.003078100
v 0.009927913 0.063459761 -0.003078100
v 0.010101437 0.063078657 -0.002784989
v 0.010101437 0.063078657 -0.002784989
v 0.010101437 0.063078657 -0.002784989
v 0.010101437 0.063078657 -0.002784989
v -0.012394443 0.065677613 -0.003078132
v -0.012394443 0.065677613 -0.003078132
v -0.012394443 0.065677613 -0.003078132
v -0.012656360 0.065499939 -0.002785021
v -0.012656360 0.065499939 -0.002785021
v -0.012656360 0.065499939 -0.002785021
v -0.012656360 0.065499939 -0.002785021
v -0.006416453 0.069726445 -0.003078123
v -0.006416453 0.069726445 -0.003078123
v -0.006210099 0.069865927 -0.002785012
v -0.006210099 0.069865927 -0.002785012
v 0.006692401 0.073659904 -0.002784994
v 0.006692401 0.073659904 -0.002784994
v 0.006692401 0.073659904 -0.002784994
v 0.006692401 0.073659904 -0.002784994
v 0.006953878 0.073591746 -0.003078104
v 0.006953878 0.073591746 -0.003078104
v 0.006953878 0.073591746 -0.003078104
v 0.013320404 0.071924873 -0.003078095
v 0.013320404 0.071924873 -0.003078095
v 0.013320404 0.071924873 -0.003078095
v 0.013628268 0.071843967 -0.002784984
v 0.013628268 0.071843967 -0.002784984
v 0.013628268 0.071843967 -0.002784984
v 0.013628268 0.071843967 -0.002784984
v 0.005302719 0.080778621 -0.002784996
v 0.005302719 0.080778621 -0.002784996
v 0.005302719 0.080778621 -0.002784996
v 0.005302719 0.080778621 -0.002784996
v 0.005509913 0.080946162 -0.003078106
v 0.005509913 0.080946162 -0.003078106
v 0.005509913 0.080946162 -0.003078106
v 0.008059365 0.083004273 -0.003078102
v 0.008059365 0.083004273 -0.003078102
v 0.008059365 0.083004273 -0.003078102
v 0.008243253 0.083152443 -0.002784992
v 0.008243253 0.083152443 -0.002784992
v 0.008243253 0.083152443 -0.002784992
v 0.008243253 0.083152443 -0.002784992
v 0.012621518 0.077726319 -0.002784986
v 0.012621518 0.077726319 -0.002784986
v 0.012621518 0.077726319 -0.002784986
v 0.012621518 0.077726319 -0.002784986
v 0.012847781 0.077208146 -0.002784985
v 0.012847781 0.077208146 -0.002784985
v 0.012847781 0.077208146 -0.002784985
v 0.012847781 0.077208146 -0.002784985
v 0.012499705 0.077513412 -0.003078096
v 0.012499705 0.077513412 -0.003078096
v 0.012499705 0.077513412 -0.003078096
v 0.012499705 0.077513412 -0.003078096
v 0.006558822 0.077802911 -0.003078105
v 0.006558822 0.077802911 -0.003078105
v 0.006558822 0.077802911 -0.003078105
v 0.006295646 0.077815436 -0.002784994
v 0.006295646 0.077815436 -0.002784994
v 0.006295646 0.077815436 -0.002784994
v 0.006295646 0.077815436 -0.002784994
v 0.006498844 0.072509989 -0.003078105
v 0.006498844 0.072509989 -0.003078105
v 0.006498844 0.072509989 -0.003078105
v 0.006287909 0.072677009 -0.002784994
v 0.006287909 0.072677009 -0.002784994
v 0.006287909 0.072677009 -0.002784994
v 0.003569942 0.084087603 -0.002784998
v 0.003569942 0.084087603 -0.002784998
v 0.003569942 0.084087603 -0.002784998
v 0.003569942 0.084087603 -0.002784998
v 0.003706832 0.083821684 -0.003078109
v 0.003706832 0.083821684 -0.003078109
v 0.003706832 0.083821684 -0.003078109
v 0.003706832 0.083821684 -0.003078109
v 0.003497666 0.083655208 -0.002784999
v 0.003497666 0.083655208 -0.002784999
v 0.003497666 0.083655208 -0.002784999
v 0.003497666 0.083655208 -0.002784999
v 0.012862453 0.067461312 -0.002784985
v 0.012862453 0.067461312 -0.002784985
v 0.012862453 0.067461312 -0.002784985
v 0.012862453 0.067461312 -0.002784985
v 0.012585015 0.067681730 -0.003078096
v 0.012585015 0.067681730 -0.003078096
v 0.012585015 0.067681730 -0.003078096
v 0.004556268 0.084883839 -0.002784997
v 0.004556268 0.084883839 -0.002784997
v 0.004556268 0.084883839 -0.002784997
v 0.004556268 0.084883839 -0.002784997
v 0.005040754 0.084925957 -0.002784996
v 0.005040754 0.084925957 -0.002784996
v 0.005040754 0.084925957 -0.002784996
v 0.005040754 0.084925957 -0.002784996
v 0.004874823 0.084764577 -0.003078107
v 0.004874823 0.084764577 -0.003078107
v 0.004874823 0.084764577 -0.003078107
v 0.004874823 0.084764577 -0.003078107
v -0.005287303 -0.063217744 -0.000319778
v -0.005287303 -0.063217744 -0.000319778
v -0.005287303 -0.063217744 -0.000319778
v -0.005287303 -0.063217744 -0.000319778
v -0.004967967 -0.062951088 -0.000026667
v -0.004967967 -0.062951088 -0.000026667
v -0.004967967 -0.062951088 -0.000026667
v -0.005287304 -0.040016849 -0.000319778
v -0.005287304 -0.040016849 -0.000319778
v -0.004972123 -0.040017147 -0.000026667
v -0.004972123 -0.040017147 -0.000026667
v 0.000929763 -0.039859787 -0.000026659
v 0.000929763 -0.039859787 -0.000026659
v 0.000929764 -0.039566677 -0.000319769
v 0.000929764 -0.039566677 -0.000319769
v 0.000929764 -0.039566677 -0.000319769
v 0.006836483 0.034431603 -0.000026650
v 0.006836483 0.034431603 -0.000026650
v 0.007146880 0.034431901 -0.000319760
v 0.007146880 0.034431901 -0.000319760
v 0.003550843 0.033981126 -0.000319765
v 0.003550843 0.033981126 -0.000319765
v 0.003550843 0.033981126 -0.000319765
v 0.003550843 0.033981126 -0.000319765
v 0.003843954 0.033688016 -0.000319765
v 0.003843954 0.033688016 -0.000319765
v 0.003843954 0.033688016 -0.000319765
v 0.003843954 0.033688016 -0.000319765
v 0.004137064 0.034274239 -0.000026654
v 0.004137064 0.034274239 -0.000026654
v 0.004137064 0.034274239 -0.000026654
v 0.004137064 0.034274239 -0.000026654
v 0.000929760 0.034274239 -0.000026659
v 0.000929760 0.034274239 -0.000026659
v 0.000929760 0.033981126 -0.000319769
v 0.000929760 0.033981126 -0.000319769
v 0.000929760 0.033981126 -0.000319769
v -0.001984432 0.033688016 -0.000319773
v -0.001984432 0.033688016 -0.000319773
v -0.001984432 0.033688016 -0.000319773
v -0.001984432 0.033688016 -0.000319773
v -0.001691321 0.033981126 -0.000319773
v -0.001691321 0.033981126 -0.000319773
v -0.001691321 0.033981126 -0.000319773
v -0.002277543 0.034274239 -0.000026663
v -0.002277543 0.034274239 -0.000026663
v -0.002277543 0.034274239 -0.000026663
v -0.002277543 0.034274239 -0.000026663
v -0.001984429 -0.039273567 -0.000319773
v -0.001984429 -0.039273567 -0.000319773
v -0.001984429 -0.039273567 -0.000319773
v -0.001984429 -0.039273567 -0.000319773
v -0.002277541 -0.039859787 -0.000026663
v -0.002277541 -0.039859787 -0.000026663
v -0.002277541 -0.039859787 -0.000026663
v -0.002277541 -0.039859787 -0.000026663
v -0.001691318 -0.039566677 -0.000319773
v -0.001691318 -0.039566677 -0.000319773
v -0.001691318 -0.039566677 -0.000319773
v -0.001691318 -0.039566677 -0.000319773
v 0.008777267 -0.066149294 0.000266464
v 0.008777267 -0.066149294 0.000266464
v 0.008777267 -0.066149294 0.000266464
v 0.008777267 -0.066149294 0.000266464
v 0.008777267 -0.066149294 0.000266464
v 0.008242907 -0.065505698 -0.000026648
v 0.008242907 -0.065505698 -0.000026648
v 0.008242907 -0.065505698 -0.000026648
v 0.006989012 -0.068303481 -0.000026650
v 0.006989012 -0.068303481 -0.000026650
v 0.006622571 -0.067937039 -0.000026650
v 0.006622571 -0.067937039 -0.000026650
v 0.009210907 -0.074185833 -0.000026647
v 0.009210907 -0.074185833 -0.000026647
v 0.009210907 -0.073667601 -0.000026647
v 0.009210907 -0.073667601 -0.000026647
v 0.006989016 -0.079549968 -0.000026650
v 0.006989016 -0.079549968 -0.000026650
v 0.006622574 -0.079916410 -0.000026650
v 0.006622574 -0.079916410 -0.000026650
v 0.001258440 -0.082138300 -0.000026658
v 0.001258440 -0.082138300 -0.000026658
v 0.000740212 -0.082138300 -0.000026659
v 0.000740212 -0.082138300 -0.000026659
v 0.000991346 -0.062591273 -0.000026659
v 0.000991346 -0.062591273 -0.000026659
v 0.000991346 -0.062591273 -0.000026659
v 0.000999325 -0.062927496 0.000266452
v 0.000999325 -0.062927496 0.000266452
v 0.000999325 -0.062927496 0.000266452
v 0.000999325 -0.062927496 0.000266452
v 0.005208551 -0.063764758 0.000266458
v 0.005208551 -0.063764758 0.000266458
v 0.005208551 -0.063764758 0.000266458
v 0.005208551 -0.063764758 0.000266458
v 0.005096699 -0.063406110 -0.000026653
v 0.005096699 -0.063406110 -0.000026653
v 0.005096699 -0.063406110 -0.000026653
v 0.000740212 -0.065715142 -0.000026659
v 0.000740212 -0.065715142 -0.000026659
v 0.001258438 -0.065715142 -0.000026658
v 0.001258438 -0.065715142 -0.000026658
v -0.006262992 -0.065507904 -0.000026669
v -0.006262992 -0.065507904 -0.000026669
v -0.006262992 -0.065507904 -0.000026669
v -0.006778502 -0.066149220 -0.000319780
v -0.006778502 -0.066149220 -0.000319780
v -0.006778502 -0.066149220 -0.000319780
v -0.006778502 -0.066149220 -0.000319780
v -0.006778502 -0.066149220 -0.000319780
v -0.004623919 -0.067937039 -0.000026666
v -0.004623919 -0.067937039 -0.000026666
v -0.004990361 -0.068303481 -0.000026667
v -0.004990361 -0.068303481 -0.000026667
v -0.007212257 -0.074185833 -0.000026670
v -0.007212257 -0.074185833 -0.000026670
v -0.007212256 -0.073667601 -0.000026670
v -0.007212256 -0.073667601 -0.000026670
v -0.004623922 -0.079916410 -0.000026666
v -0.004623922 -0.079916410 -0.000026666
v -0.004990363 -0.079549968 -0.000026667
v -0.004990363 -0.079549968 -0.000026667
v -0.003115280 -0.063406900 -0.000026664
v -0.003115280 -0.063406900 -0.000026664
v -0.003115280 -0.063406900 -0.000026664
v -0.003209902 -0.063764758 0.000266446
v -0.003209902 -0.063764758 0.000266446
v -0.003209902 -0.063764758 0.000266446
v -0.003209902 -0.063764758 0.000266446
v -0.007601711 0.060129598 -0.000026670
v -0.007601711 0.060129598 -0.000026670
v -0.007601711 0.060129598 -0.000026670
v -0.007813548 0.059895892 -0.000319781
v -0.007813548 0.059895892 -0.000319781
v -0.007813548 0.059895892 -0.000319781
v -0.007813548 0.059895892 -0.000319781
v -0.010443961 0.080768965 -0.000319785
v -0.010443961 0.080768965 -0.000319785
v -0.010443961 0.080768965 -0.000319785
v -0.010443961 0.080768965 -0.000319785
v -0.010157916 0.080734961 -0.000026674
v -0.010157916 0.080734961 -0.000026674
v -0.010157916 0.080734961 -0.000026674
v -0.010157916 0.080734961 -0.000026674
v -0.010027099 0.081023730 -0.000319784
v -0.010027099 0.081023730 -0.000319784
v -0.010027099 0.081023730 -0.000319784
v -0.010027099 0.081023730 -0.000319784
v -0.012677087 0.075983696 -0.000319789
v -0.012677087 0.075983696 -0.000319789
v -0.012677087 0.075983696 -0.000319789
v -0.012677087 0.075983696 -0.000319789
v -0.012389597 0.075954646 -0.000026677
v -0.012389597 0.075954646 -0.000026677
v -0.012389597 0.075954646 -0.000026677
v -0.009314119 0.080997318 -0.000319784
v -0.009314119 0.080997318 -0.000319784
v -0.009314119 0.080997318 -0.000319784
v -0.009314119 0.080997318 -0.000319784
v -0.009248030 0.080701262 -0.000026673
v -0.009248030 0.080701262 -0.000026673
v -0.009248030 0.080701262 -0.000026673
v -0.009248030 0.080701262 -0.000026673
v -0.008960827 0.080699645 -0.000319783
v -0.008960827 0.080699645 -0.000319783
v -0.008960827 0.080699645 -0.000319783
v -0.008960827 0.080699645 -0.000319783
v -0.008159171 0.075531602 -0.000026672
v -0.008159171 0.075531602 -0.000026672
v -0.008159171 0.075531602 -0.000026672
v -0.007866723 0.075502656 -0.000319782
v -0.007866723 0.075502656 -0.000319782
v -0.007866723 0.075502656 -0.000319782
v -0.007866723 0.075502656 -0.000319782
v -0.006980473 0.070661291 -0.000026670
v -0.006980473 0.070661291 -0.000026670
v -0.006980473 0.070661291 -0.000026670
v -0.006704219 0.070692293 -0.000319780
v -0.006704219 0.070692293 -0.000319780
v -0.006704219 0.070692293 -0.000319780
v -0.006704219 0.070692293 -0.000319780
v 0.003550846 -0.039566677 -0.000319765
v 0.003550846 -0.039566677 -0.000319765
v 0.003550846 -0.039566677 -0.000319765
v 0.003550846 -0.039566677 -0.000319765
v 0.004137067 -0.039859787 -0.000026654
v 0.004137067 -0.039859787 -0.000026654
v 0.004137067 -0.039859787 -0.000026654
v 0.004137067 -0.039859787 -0.000026654
v 0.003843957 -0.039273567 -0.000319765
v 0.003843957 -0.039273567 -0.000319765
v 0.003843957 -0.039273567 -0.000319765
v 0.003843957 -0.039273567 -0.000319765
v -0.003967396 0.067893185 -0.000026666
v -0.003967396 0.067893185 -0.000026666
v -0.003967396 0.067893185 -0.000026666
v -0.003982850 0.068269484 -0.000319776
v -0.003982850 0.068269484 -0.000319776
v -0.003982850 0.068269484 -0.000319776
v -0.003982850 0.068269484 -0.000319776
v 0.010101220 0.063076146 -0.000319756
v 0.010101220 0.063076146 -0.000319756
v 0.010101220 0.063076146 -0.000319756
v 0.010101220 0.063076146 -0.000319756
v 0.009927644 0.063456655 -0.000026645
v 0.009927644 0.063456655 -0.000026645
v 0.009927644 0.063456655 -0.000026645
v 0.001027791 0.067919686 -0.000026658
v 0.001027791 0.067919686 -0.000026658
v 0.001027791 0.067919686 -0.000026658
v 0.001027817 0.068296582 -0.000319769
v 0.001027817 0.068296582 -0.000319769
v 0.001027817 0.068296582 -0.000319769
v 0.001027817 0.068296582 -0.000319769
v 0.003492665 0.069113165 -0.000026655
v 0.003492665 0.069113165 -0.000026655
v 0.003492665 0.069113165 -0.000026655
v 0.003418589 0.069460765 -0.000319765
v 0.003418589 0.069460765 -0.000319765
v 0.003418589 0.069460765 -0.000319765
v 0.003418589 0.069460765 -0.000319765
v 0.006028203 0.071395062 -0.000026651
v 0.006028203 0.071395062 -0.000026651
v 0.006028203 0.071395062 -0.000026651
v 0.005883199 0.071691588 -0.000319762
v 0.005883199 0.071691588 -0.000319762
v 0.005883199 0.071691588 -0.000319762
v 0.005883199 0.071691588 -0.000319762
v 0.013628051 0.071841456 -0.000319751
v 0.013628051 0.071841456 -0.000319751
v 0.013628051 0.071841456 -0.000319751
v 0.013628051 0.071841456 -0.000319751
v 0.013320134 0.071921766 -0.000026641
v 0.013320134 0.071921766 -0.000026641
v 0.013320134 0.071921766 -0.000026641
v 0.006953607 0.073588639 -0.000026650
v 0.006953607 0.073588639 -0.000026650
v 0.006953607 0.073588639 -0.000026650
v 0.006692182 0.073657393 -0.000319761
v 0.006692182 0.073657393 -0.000319761
v 0.006692182 0.073657393 -0.000319761
v 0.006692182 0.073657393 -0.000319761
v 0.012584745 0.067678615 -0.000026642
v 0.012584745 0.067678615 -0.000026642
v 0.012584745 0.067678615 -0.000026642
v 0.012862235 0.067458794 -0.000319752
v 0.012862235 0.067458794 -0.000319752
v 0.012862235 0.067458794 -0.000319752
v 0.012862235 0.067458794 -0.000319752
v 0.006287691 0.072674498 -0.000319761
v 0.006287691 0.072674498 -0.000319761
v 0.006287691 0.072674498 -0.000319761
v 0.006498574 0.072506882 -0.000026651
v 0.006498574 0.072506882 -0.000026651
v 0.006498574 0.072506882 -0.000026651
v 0.008243035 0.083149940 -0.000319759
v 0.008243035 0.083149940 -0.000319759
v 0.008243035 0.083149940 -0.000319759
v 0.008243035 0.083149940 -0.000319759
v 0.008059095 0.083001174 -0.000026648
v 0.008059095 0.083001174 -0.000026648
v 0.008059095 0.083001174 -0.000026648
v 0.005509642 0.080943055 -0.000026652
v 0.005509642 0.080943055 -0.000026652
v 0.005509642 0.080943055 -0.000026652
v 0.005302501 0.080776110 -0.000319763
v 0.005302501 0.080776110 -0.000319763
v 0.005302501 0.080776110 -0.000319763
v 0.005302501 0.080776110 -0.000319763
v 0.012621300 0.077723809 -0.000319752
v 0.012621300 0.077723809 -0.000319752
v 0.012621300 0.077723809 -0.000319752
v 0.012621300 0.077723809 -0.000319752
v 0.012499436 0.077510305 -0.000026642
v 0.012499436 0.077510305 -0.000026642
v 0.012499436 0.077510305 -0.000026642
v 0.012499436 0.077510305 -0.000026642
v 0.012847564 0.077205636 -0.000319752
v 0.012847564 0.077205636 -0.000319752
v 0.012847564 0.077205636 -0.000319752
v 0.012847564 0.077205636 -0.000319752
v 0.006295428 0.077812925 -0.000319761
v 0.006295428 0.077812925 -0.000319761
v 0.006295428 0.077812925 -0.000319761
v 0.006295428 0.077812925 -0.000319761
v 0.006558551 0.077799805 -0.000026650
v 0.006558551 0.077799805 -0.000026650
v 0.006558551 0.077799805 -0.000026650
v 0.004556050 0.084881328 -0.000319764
v 0.004556050 0.084881328 -0.000319764
v 0.004556050 0.084881328 -0.000319764
v 0.004556050 0.084881328 -0.000319764
v 0.004874553 0.084761471 -0.000026653
v 0.004874553 0.084761471 -0.000026653
v 0.004874553 0.084761471 -0.000026653
v 0.004874553 0.084761471 -0.000026653
v 0.005040535 0.084923446 -0.000319763
v 0.005040535 0.084923446 -0.000319763
v 0.005040535 0.084923446 -0.000319763
v 0.005040535 0.084923446 -0.000319763
v 0.003569723 0.084085092 -0.000319765
v 0.003569723 0.084085092 -0.000319765
v 0.003569723 0.084085092 -0.000319765
v 0.003569723 0.084085092 -0.000319765
v 0.003497449 0.083652698 -0.000319765
v 0.003497449 0.083652698 -0.000319765
v 0.003497449 0.083652698 -0.000319765
v 0.003497449 0.083652698 -0.000319765
v 0.003706561 0.083818577 -0.000026654
v 0.003706561 0.083818577 -0.000026654
v 0.003706561 0.083818577 -0.000026654
v 0.003706561 0.083818577 -0.000026654
v 0.011161292 -0.078135952 0.002785021
v 0.011161292 -0.078135952 0.002785021
v 0.011161292 -0.078135952 0.002785021
v 0.011161292 -0.078135952 0.002785021
v 0.010885187 -0.078021586 0.003078131
v 0.010885187 -0.078021586 0.003078131
v 0.010885187 -0.078021586 0.003078131
v 0.008565640 -0.081493028 0.003078127
v 0.008565640 -0.081493028 0.003078127
v 0.008565640 -0.081493028 0.003078127
v 0.008776960 -0.081704348 0.002785017
v 0.008776960 -0.081704348 0.002785017
v 0.008776960 -0.081704348 0.002785017
v 0.008776960 -0.081704348 0.002785017
v 0.011998559 -0.073926717 0.002785023
v 0.011998559 -0.073926717 0.002785023
v 0.011998559 -0.073926717 0.002785023
v 0.011998559 -0.073926717 0.002785023
v 0.011699706 -0.073926717 0.003078133
v 0.011699706 -0.073926717 0.003078133
v 0.011699706 -0.073926717 0.003078133
v 0.011161291 -0.069717497 0.002785021
v 0.011161291 -0.069717497 0.002785021
v 0.011161291 -0.069717497 0.002785021
v 0.011161291 -0.069717497 0.002785021
v 0.010885186 -0.069831863 0.003078131
v 0.010885186 -0.069831863 0.003078131
v 0.010885186 -0.069831863 0.003078131
v 0.008776957 -0.066149093 0.002785017
v 0.008776957 -0.066149093 0.002785017
v 0.008776957 -0.066149093 0.002785017
v 0.008776957 -0.066149093 0.002785017
v 0.008565636 -0.066360414 0.003078127
v 0.008565636 -0.066360414 0.003078127
v 0.008565636 -0.066360414 0.003078127
v 0.005094184 -0.083812587 0.003078123
v 0.005094184 -0.083812587 0.003078123
v 0.005094184 -0.083812587 0.003078123
v 0.005208550 -0.084088691 0.002785013
v 0.005208550 -0.084088691 0.002785013
v 0.005208550 -0.084088691 0.002785013
v 0.005208550 -0.084088691 0.002785013
v 0.000999322 -0.084627107 0.003078117
v 0.000999322 -0.084627107 0.003078117
v 0.000999322 -0.084627107 0.003078117
v 0.000999323 -0.084925957 0.002785006
v 0.000999323 -0.084925957 0.002785006
v 0.000999323 -0.084925957 0.002785006
v 0.000999323 -0.084925957 0.002785006
v 0.006989009 -0.068303481 0.002785014
v 0.006989009 -0.068303481 0.002785014
v 0.006989009 -0.068303481 0.002785014
v 0.006989009 -0.068303481 0.002785014
v 0.007137128 -0.067788921 0.003078125
v 0.007137128 -0.067788921 0.003078125
v 0.007137128 -0.067788921 0.003078125
v 0.007137128 -0.067788921 0.003078125
v 0.006622566 -0.067937039 0.002785014
v 0.006622566 -0.067937039 0.002785014
v 0.006622566 -0.067937039 0.002785014
v 0.006622566 -0.067937039 0.002785014
v 0.007847857 -0.071089968 0.002785016
v 0.007847857 -0.071089968 0.002785016
v 0.007847857 -0.071089968 0.002785016
v 0.007847857 -0.071089968 0.002785016
v 0.008119849 -0.070977308 0.003078127
v 0.008119849 -0.070977308 0.003078127
v 0.008119849 -0.070977308 0.003078127
v 0.009210902 -0.073667601 0.002785018
v 0.009210902 -0.073667601 0.002785018
v 0.009210902 -0.073667601 0.002785018
v 0.009210902 -0.073667601 0.002785018
v 0.009210904 -0.074185833 0.002785018
v 0.009210904 -0.074185833 0.002785018
v 0.009210904 -0.074185833 0.002785018
v 0.009210904 -0.074185833 0.002785018
v 0.009679489 -0.073926717 0.003078129
v 0.009679489 -0.073926717 0.003078129
v 0.009679489 -0.073926717 0.003078129
v 0.009679489 -0.073926717 0.003078129
v 0.007847858 -0.076763488 0.002785016
v 0.007847858 -0.076763488 0.002785016
v 0.007847858 -0.076763488 0.002785016
v 0.007847858 -0.076763488 0.002785016
v 0.008119850 -0.076876149 0.003078127
v 0.008119850 -0.076876149 0.003078127
v 0.008119850 -0.076876149 0.003078127
v 0.006622571 -0.079916410 0.002785014
v 0.006622571 -0.079916410 0.002785014
v 0.006622571 -0.079916410 0.002785014
v 0.006622571 -0.079916410 0.002785014
v 0.007137132 -0.080064528 0.003078125
v 0.007137132 -0.080064528 0.003078125
v 0.007137132 -0.080064528 0.003078125
v 0.007137132 -0.080064528 0.003078125
v 0.006989012 -0.079549968 0.002785014
v 0.006989012 -0.079549968 0.002785014
v 0.006989012 -0.079549968 0.002785014
v 0.006989012 -0.079549968 0.002785014
v 0.003836080 -0.080775253 0.002785011
v 0.003836080 -0.080775253 0.002785011
v 0.003836080 -0.080775253 0.002785011
v 0.003836080 -0.080775253 0.002785011
v 0.003948742 -0.081047244 0.003078121
v 0.003948742 -0.081047244 0.003078121
v 0.003948742 -0.081047244 0.003078121
v 0.000740209 -0.082138300 0.002785006
v 0.000740209 -0.082138300 0.002785006
v 0.000740209 -0.082138300 0.002785006
v 0.000740209 -0.082138300 0.002785006
v 0.000999322 -0.082606882 0.003078117
v 0.000999322 -0.082606882 0.003078117
v 0.000999322 -0.082606882 0.003078117
v 0.000999322 -0.082606882 0.003078117
v 0.001258435 -0.082138300 0.002785007
v 0.001258435 -0.082138300 0.002785007
v 0.001258435 -0.082138300 0.002785007
v 0.001258435 -0.082138300 0.002785007
v 0.000999322 -0.062927496 0.002785006
v 0.000999322 -0.062927496 0.002785006
v 0.000999322 -0.062927496 0.002785006
v 0.000999322 -0.062927496 0.002785006
v 0.000999321 -0.063226350 0.003078117
v 0.000999321 -0.063226350 0.003078117
v 0.000999321 -0.063226350 0.003078117
v 0.005094183 -0.064040862 0.003078123
v 0.005094183 -0.064040862 0.003078123
v 0.005094183 -0.064040862 0.003078123
v 0.005208549 -0.063764758 0.002785013
v 0.005208549 -0.063764758 0.002785013
v 0.005208549 -0.063764758 0.002785013
v 0.005208549 -0.063764758 0.002785013
v 0.000740209 -0.065715142 0.002785006
v 0.000740209 -0.065715142 0.002785006
v 0.000740209 -0.065715142 0.002785006
v 0.000740209 -0.065715142 0.002785006
v 0.001258435 -0.065715142 0.002785007
v 0.001258435 -0.065715142 0.002785007
v 0.001258435 -0.065715142 0.002785007
v 0.001258435 -0.065715142 0.002785007
v 0.000999321 -0.065246560 0.003078117
v 0.000999321 -0.065246560 0.003078117
v 0.000999321 -0.065246560 0.003078117
v 0.000999321 -0.065246560 0.003078117
v 0.003836079 -0.067078196 0.002785011
v 0.003836079 -0.067078196 0.002785011
v 0.003836079 -0.067078196 0.002785011
v 0.003836079 -0.067078196 0.002785011
v 0.003948741 -0.066806205 0.003078121
v 0.003948741 -0.066806205 0.003078121
v 0.003948741 -0.066806205 0.003078121
v -0.006566992 -0.066360414 0.003078106
v -0.006566992 -0.066360414 0.003078106
v -0.006566992 -0.066360414 0.003078106
v -0.006778313 -0.066149093 0.002784995
v -0.006778313 -0.066149093 0.002784995
v -0.006778313 -0.066149093 0.002784995
v -0.006778313 -0.066149093 0.002784995
v -0.009162648 -0.069717497 0.002784992
v -0.009162648 -0.069717497 0.002784992
v -0.009162648 -0.069717497 0.002784992
v -0.009162648 -0.069717497 0.002784992
v -0.008886544 -0.069831863 0.003078103
v -0.008886544 -0.069831863 0.003078103
v -0.008886544 -0.069831863 0.003078103
v -0.009999916 -0.073926717 0.002784991
v -0.009999916 -0.073926717 0.002784991
v -0.009999916 -0.073926717 0.002784991
v -0.009999916 -0.073926717 0.002784991
v -0.009701063 -0.073926717 0.003078102
v -0.009701063 -0.073926717 0.003078102
v -0.009701063 -0.073926717 0.003078102
v -0.009162649 -0.078135952 0.002784992
v -0.009162649 -0.078135952 0.002784992
v -0.009162649 -0.078135952 0.002784992
v -0.009162649 -0.078135952 0.002784992
v -0.008886544 -0.078021586 0.003078103
v -0.008886544 -0.078021586 0.003078103
v -0.008886544 -0.078021586 0.003078103
v -0.006778315 -0.081704348 0.002784995
v -0.006778315 -0.081704348 0.002784995
v -0.006778315 -0.081704348 0.002784995
v -0.006778315 -0.081704348 0.002784995
v -0.006566994 -0.081493028 0.003078106
v -0.006566994 -0.081493028 0.003078106
v -0.006566994 -0.081493028 0.003078106
v -0.003209905 -0.084088691 0.002785000
v -0.003209905 -0.084088691 0.002785000
v -0.003209905 -0.084088691 0.002785000
v -0.003209905 -0.084088691 0.002785000
v -0.003095539 -0.083812587 0.003078111
v -0.003095539 -0.083812587 0.003078111
v -0.003095539 -0.083812587 0.003078111
v -0.004990363 -0.068303481 0.002784998
v -0.004990363 -0.068303481 0.002784998
v -0.004990363 -0.068303481 0.002784998
v -0.004990363 -0.068303481 0.002784998
v -0.004623922 -0.067937039 0.002784999
v -0.004623922 -0.067937039 0.002784999
v -0.004623922 -0.067937039 0.002784999
v -0.004623922 -0.067937039 0.002784999
v -0.005138484 -0.067788921 0.003078108
v -0.005138484 -0.067788921 0.003078108
v -0.005138484 -0.067788921 0.003078108
v -0.005138484 -0.067788921 0.003078108
v -0.006121205 -0.070977308 0.003078106
v -0.006121205 -0.070977308 0.003078106
v -0.006121205 -0.070977308 0.003078106
v -0.005849212 -0.071089968 0.002784996
v -0.005849212 -0.071089968 0.002784996
v -0.005849212 -0.071089968 0.002784996
v -0.005849212 -0.071089968 0.002784996
v -0.007212260 -0.074185833 0.002784995
v -0.007212260 -0.074185833 0.002784995
v -0.007212260 -0.074185833 0.002784995
v -0.007212260 -0.074185833 0.002784995
v -0.007212260 -0.073667601 0.002784995
v -0.007212260 -0.073667601 0.002784995
v -0.007212260 -0.073667601 0.002784995
v -0.007212260 -0.073667601 0.002784995
v -0.007680848 -0.073926717 0.003078105
v -0.007680848 -0.073926717 0.003078105
v -0.007680848 -0.073926717 0.003078105
v -0.007680848 -0.073926717 0.003078105
v -0.006121205 -0.076876149 0.003078106
v -0.006121205 -0.076876149 0.003078106
v -0.006121205 -0.076876149 0.003078106
v -0.005849211 -0.076763488 0.002784996
v -0.005849211 -0.076763488 0.002784996
v -0.005849211 -0.076763488 0.002784996
v -0.005849211 -0.076763488 0.002784996
v -0.004623923 -0.079916410 0.002784999
v -0.004623923 -0.079916410 0.002784999
v -0.004623923 -0.079916410 0.002784999
v -0.004623923 -0.079916410 0.002784999
v -0.004990366 -0.079549968 0.002784998
v -0.004990366 -0.079549968 0.002784998
v -0.004990366 -0.079549968 0.002784998
v -0.004990366 -0.079549968 0.002784998
v -0.005138487 -0.080064528 0.003078108
v -0.005138487 -0.080064528 0.003078108
v -0.005138487 -0.080064528 0.003078108
v -0.005138487 -0.080064528 0.003078108
v -0.001950098 -0.081047244 0.003078113
v -0.001950098 -0.081047244 0.003078113
v -0.001950098 -0.081047244 0.003078113
v -0.001837435 -0.080775253 0.002785002
v -0.001837435 -0.080775253 0.002785002
v -0.001837435 -0.080775253 0.002785002
v -0.001837435 -0.080775253 0.002785002
v -0.003209905 -0.063764758 0.002785000
v -0.003209905 -0.063764758 0.002785000
v -0.003209905 -0.063764758 0.002785000
v -0.003209905 -0.063764758 0.002785000
v -0.003095540 -0.064040862 0.003078111
v -0.003095540 -0.064040862 0.003078111
v -0.003095540 -0.064040862 0.003078111
v -0.001950098 -0.066806205 0.003078113
v -0.001950098 -0.066806205 0.003078113
v -0.001950098 -0.066806205 0.003078113
v -0.001837435 -0.067078196 0.002785002
v -0.001837435 -0.067078196 0.002785002
v -0.001837435 -0.067078196 0.002785002
v -0.001837435 -0.067078196 0.002785002
v 0.000930033 -0.039270461 -0.002491892
v 0.000930033 -0.039270461 -0.002491892
v 0.000930033 -0.039563570 -0.002785002
v 0.000930033 -0.039563570 -0.002785002
v 0.000930033 -0.039563570 -0.002785002
v 0.000930030 0.033691127 -0.002491892
v 0.000930030 0.033691127 -0.002491892
v 0.000930030 0.033984236 -0.002785002
v 0.000930030 0.033984236 -0.002785002
v 0.000930030 0.033984236 -0.002785002
v 0.000929764 -0.039566677 -0.000319769
v 0.000929764 -0.039566677 -0.000319769
v 0.000929764 -0.039566677 -0.000319769
v 0.000929764 -0.039273567 -0.000612880
v 0.000929764 -0.039273567 -0.000612880
v 0.000929760 0.033981126 -0.000319769
v 0.000929760 0.033981126 -0.000319769
v 0.000929760 0.033981126 -0.000319769
v 0.000929761 0.033688016 -0.000612880
v 0.000929761 0.033688016 -0.000612880
v 0.003551112 0.033984236 -0.002784998
v 0.003551112 0.033984236 -0.002784998
v 0.003551112 0.033984236 -0.002784998
v 0.003551112 0.033984236 -0.002784998
v 0.003844223 0.033691127 -0.002784998
v 0.003844223 0.033691127 -0.002784998
v 0.003844223 0.033691127 -0.002784998
v 0.003844223 0.033691127 -0.002784998
v 0.003551112 0.033691127 -0.002491888
v 0.003551112 0.033691127 -0.002491888
v 0.003551112 0.033691127 -0.002491888
v 0.003551112 0.033691127 -0.002491888
v -0.001691052 0.033984236 -0.002785006
v -0.001691052 0.033984236 -0.002785006
v -0.001691052 0.033984236 -0.002785006
v -0.001691052 0.033691127 -0.002491895
v -0.001691052 0.033691127 -0.002491895
v -0.001691052 0.033691127 -0.002491895
v -0.001691052 0.033691127 -0.002491895
v -0.001984162 0.033691127 -0.002785006
v -0.001984162 0.033691127 -0.002785006
v -0.001984162 0.033691127 -0.002785006
v -0.001984162 0.033691127 -0.002785006
v -0.001984159 -0.039270461 -0.002785006
v -0.001984159 -0.039270461 -0.002785006
v -0.001984159 -0.039270461 -0.002785006
v -0.001984159 -0.039270461 -0.002785006
v -0.001691048 -0.039270461 -0.002491895
v -0.001691048 -0.039270461 -0.002491895
v -0.001691048 -0.039270461 -0.002491895
v -0.001691048 -0.039270461 -0.002491895
v -0.001691048 -0.039563570 -0.002785006
v -0.001691048 -0.039563570 -0.002785006
v -0.001691048 -0.039563570 -0.002785006
v -0.001691048 -0.039563570 -0.002785006
v -0.001984432 0.033688016 -0.000319773
v -0.001984432 0.033688016 -0.000319773
v -0.001984432 0.033688016 -0.000319773
v -0.001984432 0.033688016 -0.000319773
v -0.001691321 0.033688016 -0.000612884
v -0.001691321 0.033688016 -0.000612884
v -0.001691321 0.033688016 -0.000612884
v -0.001691321 0.033688016 -0.000612884
v -0.001691321 0.033981126 -0.000319773
v -0.001691321 0.033981126 -0.000319773
v -0.001691321 0.033981126 -0.000319773
v -0.001984429 -0.039273567 -0.000319773
v -0.001984429 -0.039273567 -0.000319773
v -0.001984429 -0.039273567 -0.000319773
v -0.001984429 -0.039273567 -0.000319773
v -0.001691318 -0.039566677 -0.000319773
v -0.001691318 -0.039566677 -0.000319773
v -0.001691318 -0.039566677 -0.000319773
v -0.001691318 -0.039566677 -0.000319773
v -0.001691318 -0.039273567 -0.000612884
v -0.001691318 -0.039273567 -0.000612884
v -0.001691318 -0.039273567 -0.000612884
v -0.001691318 -0.039273567 -0.000612884
v 0.003550843 0.033981126 -0.000319766
v 0.003550843 0.033981126 -0.000319766
v 0.003550843 0.033981126 -0.000319766
v 0.003550843 0.033981126 -0.000319766
v 0.003550843 0.033688016 -0.000612876
v 0.003550843 0.033688016 -0.000612876
v 0.003550843 0.033688016 -0.000612876
v 0.003550843 0.033688016 -0.000612876
v 0.003843954 0.033688016 -0.000319765
v 0.003843954 0.033688016 -0.000319765
v 0.003843954 0.033688016 -0.000319765
v 0.003843954 0.033688016 -0.000319765
v 0.003551116 -0.039563570 -0.002784998
v 0.003551116 -0.039563570 -0.002784998
v 0.003551116 -0.039563570 -0.002784998
v 0.003551116 -0.039563570 -0.002784998
v 0.003551115 -0.039270461 -0.002491888
v 0.003551115 -0.039270461 -0.002491888
v 0.003551115 -0.039270461 -0.002491888
v 0.003551115 -0.039270461 -0.002491888
v 0.003844226 -0.039270461 -0.002784998
v 0.003844226 -0.039270461 -0.002784998
v 0.003844226 -0.039270461 -0.002784998
v 0.003844226 -0.039270461 -0.002784998
v 0.003550846 -0.039566677 -0.000319766
v 0.003550846 -0.039566677 -0.000319766
v 0.003550846 -0.039566677 -0.000319766
v 0.003550846 -0.039566677 -0.000319766
v 0.003843957 -0.039273567 -0.000319765
v 0.003843957 -0.039273567 -0.000319765
v 0.003843957 -0.039273567 -0.000319765
v 0.003843957 -0.039273567 -0.000319765
v 0.003550847 -0.039273567 -0.000612876
v 0.003550847 -0.039273567 -0.000612876
v 0.003550847 -0.039273567 -0.000612876
v 0.003550847 -0.039273567 -0.000612876
f 5 4 74
f 5 74 75
f 4 3 69
f 4 69 74
f 1 7 8
f 1 8 2
f 11 12 3
f 11 3 4
f 16 15 14
f 16 14 17
f 22 76 71
f 22 71 24
f 23 77 76
f 23 76 22
f 10 11 4
f 10 4 5
f 67 2 6
f 67 6 66
f 2 8 9
f 2 9 6
f 68 1 2
f 68 2 67
f 9 8 19
f 9 19 20
f 8 7 18
f 8 18 19
f 73 72 13
f 73 13 15
f 15 13 21
f 15 21 14
f 70 73 15
f 70 15 16
f 21 65 64
f 21 64 14
f 14 64 63
f 14 63 17
f 127 129 134
f 152 155 158
f 172 175 179
f 183 188 191
f 242 248 252
f 261 266 269
f 280 286 290
f 348 352 357
f 367 373 377
f 386 390 395
f 405 411 415
f 424 429 432
f 436 442 445
f 463 468 473
f 528 532 537
f 556 558 564
f 655 659 665
f 681 686 688
f 698 702 707
f 732 734 740
f 749 753 756
f 760 764 769
f 846 851 854
f 867 871 873
f 893 897 899
f 980 986 988
f 998 1003 1006
f 1012 1015 1021
f 1071 1077 1081
f 1090 1094 1099
f 1111 1115 1117
f 1128 1133 1136
f 1154 1158 1163
f 1215 1221 1225
f 1234 1238 1243
f 1255 1257 1263
f 1309 1312 1316
f 1320 1323 1327
f 1331 1335 1340
f 1343 1347 1351
f 1354 1359 1362
f 1366 1370 1372
f 1379 1382 1386
f 1391 1393 1398
f 619 547 552
f 619 552 617
f 142 79 84
f 142 84 141
f 117 99 104
f 117 104 115
f 78 107 112
f 78 112 83
f 138 92 97
f 138 97 137
f 624 464 474
f 624 474 623
f 88 120 123
f 88 123 86
f 163 138 137
f 163 137 162
f 120 142 141
f 120 141 123
f 100 163 162
f 100 162 105
f 196 200 205
f 196 205 194
f 201 208 213
f 201 213 206
f 207 215 220
f 207 220 212
f 214 223 227
f 214 227 219
f 221 230 234
f 221 234 226
f 228 343 347
f 228 347 233
f 253 256 258
f 253 258 243
f 255 267 262
f 255 262 257
f 268 274 276
f 268 276 270
f 275 287 281
f 275 281 277
f 285 293 295
f 285 295 288
f 294 430 426
f 294 426 297
f 358 237 240
f 358 240 350
f 236 251 246
f 236 246 238
f 488 727 728
f 488 728 483
f 720 504 505
f 720 505 717
f 727 460 461
f 727 461 728
f 715 720 717
f 715 717 710
f 304 307 309
f 304 309 299
f 308 315 317
f 308 317 310
f 314 322 324
f 314 324 316
f 321 329 332
f 321 332 323
f 328 336 339
f 328 339 330
f 335 346 341
f 335 341 337
f 368 380 385
f 368 385 374
f 379 387 396
f 379 396 384
f 391 398 403
f 391 403 397
f 399 406 416
f 399 416 404
f 409 417 422
f 409 422 414
f 419 434 431
f 419 431 423
f 354 362 366
f 354 366 359
f 360 375 372
f 360 372 365
f 451 443 437
f 451 437 448
f 460 454 456
f 460 456 461
f 501 477 479
f 501 479 496
f 495 487 482
f 495 482 490
f 504 502 497
f 504 497 505
f 520 508 510
f 520 510 515
f 195 98 93
f 195 93 197
f 300 89 87
f 300 87 305
f 538 541 543
f 538 543 530
f 542 553 548
f 542 548 544
f 563 539 534
f 563 534 554
f 572 565 560
f 572 560 567
f 579 571 566
f 579 566 574
f 1325 173 170
f 1325 170 1318
f 114 610 612
f 114 612 116
f 467 582 586
f 467 586 472
f 580 587 592
f 580 592 585
f 589 594 599
f 589 599 593
f 106 522 527
f 106 527 111
f 596 601 606
f 596 606 600
f 521 618 616
f 521 616 526
f 573 624 623
f 573 623 578
f 697 634 636
f 697 636 692
f 676 626 631
f 676 631 674
f 663 649 652
f 663 652 654
f 669 641 646
f 669 646 667
f 635 664 658
f 635 658 637
f 627 670 668
f 627 668 632
f 708 684 679
f 708 679 700
f 648 709 704
f 648 704 650
f 603 677 675
f 603 675 607
f 640 687 685
f 640 685 645
f 609 696 691
f 609 691 611
f 799 801 806
f 799 806 796
f 803 771 777
f 803 777 807
f 795 833 835
f 795 835 797
f 834 813 836
f 813 815 836
f 770 455 776
f 455 453 776
f 814 716 711
f 814 711 817
f 1155 808 810
f 1155 810 1159
f 1256 829 830
f 1256 830 1259
f 792 1129 1137
f 792 1137 790
f 1237 825 827
f 1237 827 1241
f 789 1112 1119
f 789 1119 786
f 848 858 863
f 848 863 852
f 859 511 509
f 859 509 864
f 865 856 853
f 865 853 870
f 881 875 872
f 881 872 879
f 888 880 878
f 888 878 886
f 489 911 916
f 489 916 494
f 441 905 908
f 441 908 444
f 904 918 920
f 904 920 906
f 919 925 927
f 919 927 922
f 476 841 843
f 476 843 478
f 926 932 934
f 926 934 929
f 840 519 514
f 840 514 842
f 885 451 448
f 885 448 887
f 956 938 943
f 956 943 954
f 963 946 948
f 963 948 959
f 979 967 971
f 979 971 984
f 996 974 976
f 996 976 991
f 939 987 985
f 939 985 944
f 947 997 992
f 947 992 949
f 1000 1010 1019
f 1000 1019 1004
f 965 1008 1005
f 965 1005 970
f 933 964 960
f 933 960 936
f 973 1020 1014
f 973 1014 975
f 910 955 953
f 910 953 915
f 699 999 1007
f 699 1007 703
f 1013 682 690
f 1013 690 1017
f 465 438 447
f 465 447 470
f 781 249 244
f 781 244 778
f 272 783 785
f 272 785 264
f 529 847 855
f 529 855 533
f 291 789 786
f 291 786 282
f 557 868 874
f 557 874 559
f 433 792 790
f 433 790 425
f 378 821 822
f 378 822 369
f 808 353 349
f 808 349 810
f 825 393 389
f 825 389 827
f 829 412 407
f 829 407 830
f 657 982 989
f 657 989 660
f 1027 1031 1034
f 1027 1034 1022
f 1042 1028 1023
f 1042 1023 1037
f 1049 1041 1036
f 1049 1036 1044
f 1056 1048 1043
f 1056 1043 1052
f 1030 1059 1062
f 1030 1062 1032
f 1058 1066 1069
f 1058 1069 1060
f 1072 1084 1089
f 1072 1089 1078
f 1083 1091 1100
f 1083 1100 1088
f 1095 1102 1107
f 1095 1107 1101
f 1103 1118 1116
f 1103 1116 1108
f 1109 1121 1126
f 1109 1126 1114
f 1123 1138 1134
f 1123 1134 1127
f 1146 1148 1150
f 1146 1150 1142
f 1160 1168 1172
f 1160 1172 1164
f 1149 1055 1050
f 1149 1050 1152
f 1166 1079 1076
f 1166 1076 1171
f 1178 1180 1185
f 1178 1185 1175
f 1181 1187 1192
f 1181 1192 1186
f 1188 1195 1200
f 1188 1200 1193
f 1194 1203 1207
f 1194 1207 1199
f 1201 1210 1214
f 1201 1214 1206
f 1208 1067 1065
f 1208 1065 1213
f 1226 1229 1231
f 1226 1231 1216
f 1228 1244 1239
f 1228 1239 1230
f 1245 1247 1249
f 1245 1249 1235
f 1248 1264 1258
f 1248 1258 1250
f 1262 1266 1268
f 1262 1268 1253
f 1267 1135 1130
f 1267 1130 1270
f 1140 1272 1277
f 1140 1277 1145
f 1165 1281 1284
f 1165 1284 1156
f 1274 1176 1174
f 1274 1174 1278
f 1280 1224 1219
f 1280 1219 1282
f 778 1073 1082
f 778 1082 781
f 1217 822 821
f 1217 821 1222
f 783 1097 1093
f 783 1093 785
f 150 146 148
f 150 148 154
f 176 184 192
f 176 192 180
f 757 765 761
f 757 761 750
f 739 743 745
f 739 745 730
f 169 190 187
f 169 187 166
f 133 169 166
f 133 166 124
f 146 171 178
f 146 178 148
f 131 160 156
f 131 156 135
f 725 768 763
f 725 763 722
f 892 725 722
f 892 722 896
f 743 755 752
f 743 752 745
f 898 741 735
f 898 735 901
f 1315 1292 1295
f 1315 1295 1307
f 1324 1336 1332
f 1324 1332 1328
f 1344 1355 1363
f 1344 1363 1348
f 1364 1302 1305
f 1364 1305 1369
f 1289 1339 1334
f 1289 1334 1287
f 1376 1289 1287
f 1376 1287 1381
f 1292 1322 1319
f 1292 1319 1295
f 1383 1317 1313
f 1383 1313 1387
f 1300 1361 1358
f 1300 1358 1298
f 1397 1300 1298
f 1397 1298 1389
f 1302 1350 1346
f 1302 1346 1305
f 1394 1373 1371
f 1394 1371 1399
f 1374 736 733
f 1374 733 1367
f 748 1342 1349
f 748 1349 751
f 157 1310 1308
f 157 1308 151
f 126 1378 128
f 1378 1384 128
f 181 1329 1337
f 181 1337 185
f 1390 894 900
f 1390 900 1392
f 1353 759 767
f 1353 767 1357
f 81 143 506
f 81 506 499
f 82 110 7
f 82 7 1
f 140 82 1
f 140 1 68
f 109 80 498
f 109 498 481
f 3 12 303
f 3 303 85
f 3 85 122
f 3 122 69
f 90 302 819
f 90 819 712
f 121 91 713
f 121 713 718
f 95 139 462
f 95 462 458
f 5 75 136
f 5 136 96
f 96 193 10
f 96 10 5
f 199 94 457
f 199 457 774
f 101 119 492
f 101 492 484
f 66 6 103
f 66 103 161
f 6 9 113
f 6 113 103
f 164 102 485
f 164 485 729
f 7 110 525
f 7 525 18
f 524 108 480
f 524 480 845
f 113 9 20
f 113 20 608
f 118 614 913
f 118 913 491
f 69 122 140
f 69 140 68
f 143 121 718
f 143 718 506
f 125 167 1290
f 125 1290 1377
f 132 153 66
f 132 66 75
f 168 132 75
f 168 75 74
f 159 130 1385
f 159 1385 1311
f 139 164 729
f 139 729 462
f 75 66 161
f 75 161 136
f 170 144 1293
f 170 1293 1318
f 145 149 1306
f 145 1306 1294
f 147 177 68
f 147 68 67
f 153 147 67
f 153 67 66
f 165 186 1338
f 165 1338 1288
f 189 168 74
f 189 74 69
f 182 174 1326
f 182 1326 1330
f 177 189 69
f 177 69 68
f 202 198 773
f 202 773 25
f 204 254 250
f 204 250 193
f 193 250 235
f 193 235 10
f 211 265 254
f 211 254 204
f 210 203 26
f 210 26 28
f 218 273 265
f 218 265 211
f 217 209 27
f 217 27 30
f 225 284 273
f 225 273 218
f 224 216 29
f 224 29 32
f 232 292 284
f 232 284 225
f 231 222 31
f 231 31 34
f 345 428 292
f 345 292 232
f 344 229 33
f 344 33 36
f 351 241 44
f 351 44 811
f 10 235 356
f 10 356 11
f 239 247 780
f 239 780 43
f 245 260 38
f 245 38 779
f 259 263 784
f 259 784 37
f 271 278 39
f 271 39 782
f 279 283 787
f 279 787 40
f 289 296 41
f 289 41 788
f 298 427 791
f 298 791 42
f 301 311 45
f 301 45 818
f 303 12 364
f 303 364 371
f 306 303 371
f 306 371 383
f 312 319 48
f 312 48 46
f 313 306 383
f 313 383 394
f 318 326 50
f 318 50 47
f 320 313 394
f 320 394 402
f 325 333 52
f 325 52 49
f 327 320 402
f 327 402 413
f 331 340 54
f 331 54 51
f 334 327 413
f 334 413 421
f 338 342 35
f 338 35 53
f 345 334 421
f 345 421 428
f 12 11 356
f 12 356 364
f 363 355 809
f 363 809 62
f 376 361 61
f 376 61 820
f 382 370 823
f 382 823 56
f 388 381 55
f 388 55 826
f 400 392 824
f 400 824 57
f 408 401 58
f 408 58 831
f 418 410 828
f 418 828 59
f 435 420 60
f 435 60 793
f 625 449 439
f 625 439 466
f 518 839 440
f 518 440 450
f 839 63 903
f 839 903 440
f 469 446 909
f 469 909 583
f 507 518 450
f 507 450 884
f 575 889 449
f 575 449 625
f 452 23 805
f 452 805 775
f 23 452 459
f 23 459 77
f 77 459 726
f 77 726 72
f 615 622 471
f 615 471 525
f 525 471 584
f 525 584 18
f 17 63 839
f 17 839 475
f 500 16 17
f 500 17 475
f 72 726 486
f 72 486 13
f 13 486 493
f 13 493 21
f 493 914 65
f 493 65 21
f 503 70 16
f 503 16 500
f 71 70 503
f 71 503 719
f 621 517 512
f 621 512 549
f 550 513 861
f 550 861 546
f 862 507 884
f 862 884 877
f 523 844 516
f 523 516 620
f 545 860 849
f 545 849 531
f 536 562 570
f 536 570 540
f 535 857 866
f 535 866 555
f 540 570 577
f 540 577 551
f 551 577 622
f 551 622 615
f 561 876 883
f 561 883 569
f 568 882 890
f 568 890 576
f 18 584 591
f 18 591 19
f 581 907 921
f 581 921 588
f 19 591 598
f 19 598 20
f 590 923 928
f 590 928 595
f 20 598 605
f 20 605 608
f 597 930 935
f 597 935 602
f 608 605 673
f 608 673 695
f 604 937 961
f 604 961 678
f 693 957 912
f 693 912 613
f 633 630 666
f 633 666 662
f 629 951 994
f 629 994 672
f 695 673 630
f 695 630 633
f 678 961 950
f 678 950 628
f 661 990 941
f 661 941 639
f 638 940 958
f 638 958 694
f 647 644 683
f 647 683 706
f 642 977 1016
f 642 1016 689
f 662 666 644
f 662 644 647
f 671 993 978
f 671 978 643
f 705 1009 966
f 705 966 651
f 653 968 981
f 653 981 656
f 680 1011 1001
f 680 1001 701
f 24 71 719
f 24 719 714
f 24 714 812
f 24 812 832
f 766 723 1296
f 766 1296 1356
f 721 762 71
f 721 71 76
f 724 891 1388
f 724 1388 1297
f 895 721 76
f 895 76 77
f 742 738 72
f 742 72 73
f 902 737 1375
f 902 1375 1395
f 731 746 1303
f 731 1303 1365
f 738 895 77
f 738 77 72
f 744 751 1349
f 744 1349 1301
f 754 742 73
f 754 73 70
f 747 758 1352
f 747 1352 1341
f 762 754 70
f 762 70 71
f 25 773 1053
f 25 1053 1045
f 772 804 1153
f 772 1153 1051
f 779 38 1086
f 779 1086 1074
f 43 780 1080
f 43 1080 1167
f 37 784 1092
f 37 1092 1085
f 782 39 1104
f 782 1104 1096
f 788 41 1122
f 788 1122 1110
f 40 787 1120
f 40 1120 1105
f 793 60 1271
f 793 1271 1131
f 42 791 1139
f 42 1139 1124
f 802 800 1143
f 802 1143 1151
f 805 23 22
f 805 22 794
f 798 837 1273
f 798 1273 1141
f 794 22 24
f 794 24 832
f 811 44 1169
f 811 1169 1161
f 62 809 1157
f 62 1157 1285
f 818 45 1182
f 818 1182 1179
f 838 816 1177
f 838 1177 1275
f 56 823 1218
f 56 1218 1233
f 820 61 1283
f 820 1283 1220
f 826 55 1232
f 826 1232 1240
f 57 824 1236
f 57 1236 1251
f 831 58 1252
f 831 1252 1260
f 59 828 1254
f 59 1254 1269
f 850 862 877
f 850 877 869
f 63 64 917
f 63 917 903
f 65 914 931
f 65 931 924
f 914 952 962
f 914 962 931
f 64 65 924
f 64 924 917
f 942 983 995
f 942 995 945
f 952 942 945
f 952 945 962
f 969 1002 1018
f 969 1018 972
f 983 969 972
f 983 972 995
f 32 29 1024
f 32 1024 1035
f 1026 1040 1098
f 1026 1098 1106
f 1029 1026 1106
f 1029 1106 1113
f 30 27 1038
f 30 1038 1025
f 34 31 1033
f 34 1033 1063
f 1057 1029 1113
f 1057 1113 1125
f 1040 1047 1087
f 1040 1087 1098
f 28 26 1046
f 28 1046 1039
f 1047 1054 1075
f 1047 1075 1087
f 1054 1147 1170
f 1054 1170 1075
f 36 33 1061
f 36 1061 1070
f 1064 1057 1125
f 1064 1125 1132
f 53 35 1068
f 53 1068 1209
f 1064 1132 1265
f 1064 1265 1212
f 1276 1279 1162
f 1276 1162 1144
f 1147 1144 1162
f 1147 1162 1170
f 1184 1227 1223
f 1184 1223 1173
f 1173 1223 1279
f 1173 1279 1276
f 1191 1242 1227
f 1191 1227 1184
f 46 48 1190
f 46 1190 1183
f 1198 1246 1242
f 1198 1242 1191
f 47 50 1197
f 47 1197 1189
f 1205 1261 1246
f 1205 1246 1198
f 49 52 1204
f 49 1204 1196
f 1212 1265 1261
f 1212 1261 1205
f 51 54 1211
f 51 1211 1202
f 1286 1291 1314
f 1286 1314 1380
f 1333 1321 1291
f 1333 1291 1286
f 1360 1299 1304
f 1360 1304 1345
f 1299 1396 1368
f 1299 1368 1304
