# Converted from RoboDojo wrench/00001; source geometry preserved.
v -0.005287305 -0.002807372 -0.000319969
v -0.004973280 -0.002807372 -0.000026949
v -0.005286088 -0.002807372 -0.002784802
v -0.005286088 -0.060521137 -0.002784802
v -0.005286088 -0.060521137 -0.000319969
v 0.006834295 -0.002807372 -0.000026650
v -0.004972064 -0.040011987 -0.000026949
v 0.006829426 -0.060521137 -0.000026650
v -0.005130293 -0.002807372 -0.002931462
v -0.005249573 -0.060521137 -0.002818854
v -0.005001275 -0.060521137 -0.000058013
v 0.006991308 -0.002807372 -0.000173309
v 0.006833078 -0.040011987 -0.000026650
v -0.004967195 -0.060521137 -0.000026949
v 0.007109371 -0.060521137 -0.000285918
v -0.004972064 -0.002807372 -0.003078121
v -0.004970846 -0.040011987 -0.003078121
v -0.004967195 -0.060521137 -0.003078121
v 0.007145885 -0.002807372 -0.000319969
v 0.007145885 -0.060521137 -0.000319969
v 0.006834295 -0.002807372 -0.003077822
v 0.006833078 -0.040011987 -0.003077822
v 0.006829426 -0.060521137 -0.003077822
v 0.007145885 -0.002807372 -0.002784802
v 0.007147103 -0.060521137 -0.002784802
v 0.006990090 -0.002807372 -0.002931462
f 1 2 6
f 1 6 12
f 1 12 19
f 1 19 24
f 1 24 26
f 1 26 21
f 1 21 16
f 1 16 9
f 1 9 3
f 1 3 4
f 1 4 5
f 1 5 2
f 2 5 7
f 2 7 8
f 2 8 6
f 3 9 4
f 4 10 18
f 4 18 23
f 4 23 25
f 4 25 20
f 4 20 15
f 4 15 8
f 4 8 14
f 4 14 11
f 4 11 5
f 4 9 10
f 5 11 7
f 6 8 13
f 6 13 12
f 7 11 14
f 7 14 8
f 8 15 13
f 9 16 17
f 9 17 10
f 10 17 18
f 12 13 20
f 12 20 19
f 13 15 20
f 16 21 18
f 16 18 17
f 18 21 22
f 18 22 23
f 19 20 25
f 19 25 24
f 21 26 25
f 21 25 22
f 22 25 23
f 24 25 26
