# Converted from RoboDojo wrench/00001; source geometry preserved.
v -0.006540455 0.056936743 -0.000477988
v -0.006540455 0.056936743 -0.000319979
v -0.006540455 0.056938479 -0.002784805
v -0.005286919 0.052682967 -0.002784805
v -0.006540455 0.057488863 -0.000096854
v -0.005286345 0.052682967 -0.000319381
v -0.006540455 0.056994039 -0.002807208
v -0.004975546 0.052682967 -0.003077227
v -0.006540455 0.057665962 -0.003077825
v -0.006540455 0.057662489 -0.000026959
v -0.004974972 0.052682967 -0.000026959
v -0.002435155 0.052682967 -0.003077825
v -0.004974972 0.052722901 -0.003077825
v -0.006540455 0.059306702 -0.003078124
v -0.000671473 0.052682967 -0.000026661
v -0.006540455 0.069928986 -0.000026959
v -0.000671473 0.052682967 -0.003077825
v -0.006540455 0.069932459 -0.003078124
v -0.000671473 0.067909747 -0.000026661
v -0.006540455 0.070416870 -0.000319979
v -0.000671473 0.067913219 -0.003077825
v -0.006540455 0.070420343 -0.002784805
v -0.000671473 0.068286510 -0.000319979
v -0.000671473 0.068288246 -0.002784805
f 1 2 5
f 1 5 10
f 1 10 16
f 1 16 20
f 1 20 22
f 1 22 18
f 1 18 14
f 1 14 9
f 1 9 7
f 1 7 3
f 1 3 4
f 1 4 2
f 2 4 6
f 2 6 5
f 3 7 4
f 4 8 12
f 4 12 17
f 4 17 15
f 4 15 11
f 4 11 6
f 4 7 9
f 4 9 8
f 5 6 10
f 6 11 10
f 8 9 13
f 8 13 12
f 9 14 13
f 10 11 15
f 10 15 19
f 10 19 16
f 12 13 14
f 12 14 17
f 14 18 21
f 14 21 17
f 15 17 21
f 15 21 24
f 15 24 23
f 15 23 19
f 16 19 20
f 18 22 21
f 19 23 20
f 20 23 22
f 21 22 24
f 22 23 24
