# Converted from RoboDojo wrench/00001; source geometry preserved.
v 0.007146549 -0.062590024 -0.002212671
v 0.007146549 -0.062590024 -0.002784937
v 0.007137511 -0.062590024 -0.000312105
v 0.010219302 -0.068308585 0.000268023
v 0.010221109 -0.068308585 -0.001581442
v 0.010221109 -0.068308585 -0.002784937
v 0.006833851 -0.062590024 -0.003073199
v 0.006829332 -0.062590024 -0.000026791
v 0.008780530 -0.066154049 0.000268023
v 0.007095035 -0.068308585 0.000268023
v 0.010015053 -0.068308585 -0.002956912
v 0.006829332 -0.062949952 -0.003077785
v 0.006399147 -0.062590024 -0.003077785
v 0.009869550 -0.068308585 -0.003077785
v 0.005208907 -0.063764971 0.000268023
v 0.000992006 -0.062590024 -0.000026791
v 0.001000140 -0.062927562 0.000268023
v 0.006988392 -0.068302987 0.000268023
v 0.006990200 -0.068308585 -0.000026791
v 0.000989295 -0.062590024 -0.003077785
v 0.007298379 -0.068308585 -0.003077785
v 0.000989295 -0.062590024 -0.000081495
v 0.000989295 -0.062592262 -0.000026791
v 0.000989295 -0.062929800 0.000268023
v 0.003836109 -0.067077663 0.000268023
v 0.006991103 -0.068308585 -0.002784937
v 0.003836109 -0.067077663 -0.000026791
v 0.000989295 -0.065248911 -0.003077785
v 0.007249576 -0.068308585 -0.003031597
v 0.003837013 -0.067074864 -0.002784937
v 0.003949078 -0.066802818 -0.003077785
v 0.000989295 -0.065714634 0.000268023
v 0.000989295 -0.065714634 -0.000026791
v 0.000989295 -0.065713515 -0.001352142
v 0.000989295 -0.065711834 -0.002784937
f 1 2 7
f 1 7 13
f 1 13 20
f 1 20 22
f 1 22 16
f 1 16 8
f 1 8 3
f 1 3 4
f 1 4 5
f 1 5 6
f 1 6 2
f 2 6 7
f 3 8 4
f 4 8 9
f 4 9 15
f 4 15 17
f 4 17 24
f 4 24 32
f 4 32 25
f 4 25 18
f 4 18 10
f 4 10 19
f 4 19 26
f 4 26 29
f 4 29 21
f 4 21 14
f 4 14 11
f 4 11 6
f 4 6 5
f 6 11 7
f 7 12 13
f 7 11 14
f 7 14 12
f 8 15 9
f 8 16 17
f 8 17 15
f 10 18 19
f 12 14 21
f 12 21 31
f 12 31 28
f 12 28 20
f 12 20 13
f 16 22 23
f 16 23 24
f 16 24 17
f 18 25 19
f 19 25 27
f 19 27 26
f 20 28 35
f 20 35 34
f 20 34 33
f 20 33 32
f 20 32 24
f 20 24 23
f 20 23 22
f 21 29 30
f 21 30 31
f 25 32 33
f 25 33 27
f 26 27 30
f 26 30 29
f 27 33 34
f 27 34 30
f 28 31 35
f 30 34 35
f 30 35 31
