# Converted from RoboDojo wrench/00001; source geometry preserved.
v 0.009350442 -0.073300296 -0.003077501
v 0.008120315 -0.070973992 -0.003077501
v 0.007298955 -0.068308585 -0.003078104
v 0.011575956 -0.073300296 -0.003077501
v 0.009063588 -0.073300296 -0.002824406
v 0.007848281 -0.071086864 -0.002784634
v 0.009869649 -0.068308585 -0.003077501
v 0.010885114 -0.069829159 -0.003077501
v 0.006992020 -0.068308585 -0.002784634
v 0.011161450 -0.069714824 -0.002784634
v 0.011874762 -0.073300296 -0.002784634
v 0.009018648 -0.073300296 -0.002784634
v 0.009016735 -0.073300296 -0.000026500
v 0.007848281 -0.071089795 -0.000026500
v 0.006990586 -0.068308585 -0.000026500
v 0.010014989 -0.068308585 -0.002956980
v 0.010222002 -0.068308585 -0.002784634
v 0.010219612 -0.068308585 0.002784663
v 0.011160972 -0.069717755 0.002784663
v 0.011873806 -0.073300296 0.002784663
v 0.009016735 -0.073300296 0.002784663
v 0.007848281 -0.071089795 0.002784663
v 0.006991542 -0.068308585 0.002785265
v 0.010071882 -0.068308585 0.002907595
v 0.010885114 -0.069832095 0.003077530
v 0.011574999 -0.073300296 0.003078133
v 0.011827909 -0.073300296 0.002829858
v 0.009275383 -0.073300296 0.003013051
v 0.008120315 -0.070976923 0.003077530
v 0.007297521 -0.068308585 0.003077530
v 0.009867259 -0.068308585 0.003077530
v 0.009348530 -0.073300296 0.003077530
f 1 2 3
f 1 3 4
f 1 4 11
f 1 11 20
f 1 20 27
f 1 27 26
f 1 26 32
f 1 32 28
f 1 28 21
f 1 21 13
f 1 13 12
f 1 12 5
f 1 5 2
f 2 5 6
f 2 6 3
f 3 7 8
f 3 8 4
f 3 6 9
f 3 9 15
f 3 15 23
f 3 23 30
f 3 30 31
f 3 31 24
f 3 24 18
f 3 18 17
f 3 17 16
f 3 16 7
f 4 8 10
f 4 10 11
f 5 12 6
f 6 12 13
f 6 13 14
f 6 14 15
f 6 15 9
f 7 16 8
f 8 16 10
f 10 16 17
f 10 17 18
f 10 18 19
f 10 19 20
f 10 20 11
f 13 21 22
f 13 22 14
f 14 22 15
f 15 22 23
f 18 24 19
f 19 24 25
f 19 25 26
f 19 26 27
f 19 27 20
f 21 28 22
f 22 28 29
f 22 29 30
f 22 30 23
f 24 31 25
f 25 31 26
f 26 30 29
f 26 29 32
f 26 31 30
f 28 32 29
