# Converted from RoboDojo wrench/00001; source geometry preserved.
v -0.005305867 -0.079521937 0.003078108
v -0.005849352 -0.076763122 0.002784638
v -0.006121585 -0.076875792 0.003077505
v -0.007350058 -0.073300296 0.003077505
v -0.009576389 -0.073300296 0.003077505
v -0.009700755 -0.073926970 0.003077505
v -0.008886506 -0.078021338 0.003077505
v -0.007883751 -0.079521937 0.003077505
v -0.005002298 -0.079521937 0.002787651
v -0.004999360 -0.079521937 0.000001195
v -0.004997891 -0.079521937 -0.002784658
v -0.005849352 -0.076760080 -0.002784658
v -0.007018091 -0.073300296 0.002784638
v -0.007063626 -0.073300296 0.002825013
v -0.009875062 -0.073300296 0.002784638
v -0.009999427 -0.073926970 0.002784638
v -0.009162166 -0.078135830 0.002784638
v -0.008090862 -0.079521937 0.002905762
v -0.005254456 -0.079521937 -0.003029919
v -0.006121095 -0.076872744 -0.003077525
v -0.007019560 -0.073300296 -0.002784658
v -0.007018091 -0.073300296 -0.000026525
v -0.009875551 -0.073300296 -0.002784658
v -0.009999427 -0.073923922 -0.002784658
v -0.009999427 -0.073926970 -0.000026525
v -0.009162166 -0.078135830 -0.000026525
v -0.008236282 -0.079521937 0.002784638
v -0.005304887 -0.079521937 -0.003077525
v -0.009700755 -0.073923922 -0.003078128
v -0.007351037 -0.073300296 -0.003077525
v -0.007278083 -0.073300296 -0.003013649
v -0.009830016 -0.073300296 -0.002829251
v -0.009162166 -0.078132788 -0.002784658
v -0.008234323 -0.079521937 -0.002784658
v -0.008236282 -0.079521937 -0.000026525
v -0.007881303 -0.079521937 -0.003077525
v -0.009576389 -0.073300296 -0.003077525
v -0.008886016 -0.078018291 -0.003077525
v -0.008025253 -0.079521937 -0.002958209
f 1 2 3
f 1 3 4
f 1 4 5
f 1 5 6
f 1 6 7
f 1 7 8
f 1 8 18
f 1 18 27
f 1 27 35
f 1 35 34
f 1 34 39
f 1 39 36
f 1 36 28
f 1 28 19
f 1 19 11
f 1 11 10
f 1 10 9
f 1 9 2
f 2 9 10
f 2 10 11
f 2 11 12
f 2 12 13
f 2 13 3
f 3 13 14
f 3 14 4
f 4 14 13
f 4 13 22
f 4 22 21
f 4 21 31
f 4 31 30
f 4 30 37
f 4 37 32
f 4 32 23
f 4 23 15
f 4 15 5
f 5 15 16
f 5 16 6
f 6 16 7
f 7 17 18
f 7 18 8
f 7 16 17
f 11 19 12
f 12 19 20
f 12 20 21
f 12 21 22
f 12 22 13
f 15 23 24
f 15 24 16
f 16 24 25
f 16 25 26
f 16 26 17
f 17 26 35
f 17 35 27
f 17 27 18
f 19 28 20
f 20 28 29
f 20 29 30
f 20 30 31
f 20 31 21
f 23 32 29
f 23 29 24
f 24 29 33
f 24 33 26
f 24 26 25
f 26 33 34
f 26 34 35
f 28 36 29
f 29 32 37
f 29 37 30
f 29 36 38
f 29 38 33
f 33 38 34
f 34 38 39
f 36 39 38
