# Converted from RoboDojo wrench/00001; source geometry preserved.
v 0.005041525 0.084925957 -0.002784791
v 0.004874840 0.084764399 -0.003077810
v 0.004556704 0.084883254 -0.002784791
v 0.004556704 0.084881118 -0.000319961
v 0.005040628 0.084923112 -0.000319961
v 0.008242593 0.083149546 -0.000319961
v 0.008242593 0.083152391 -0.002784791
v 0.008059777 0.083003644 -0.003077810
v 0.003707149 0.083821392 -0.003078109
v 0.003570037 0.084087571 -0.002784791
v 0.003570037 0.084084722 -0.000319961
v 0.003707149 0.083818547 -0.000026941
v 0.004874840 0.084760840 -0.000026941
v 0.008059777 0.083000799 -0.000026941
v 0.012381937 0.077655190 -0.000026941
v 0.012621211 0.077724225 -0.000319961
v 0.012621211 0.077726361 -0.002784791
v 0.012391794 0.077655190 -0.003070642
v 0.012210771 0.077655190 -0.003077810
v 0.003498345 0.083654853 -0.002784791
v 0.006573055 0.077655190 -0.003077810
v 0.003498345 0.083652008 -0.000319961
v 0.006572159 0.077655190 -0.000026941
v 0.012581780 0.077655190 -0.000225573
v 0.012650784 0.077655190 -0.000319961
v 0.012652576 0.077655190 -0.002784791
v 0.012579987 0.077655190 -0.002882762
v 0.006311377 0.077655190 -0.002784791
v 0.006311377 0.077655190 -0.000319961
v 0.006320339 0.077655190 -0.000308909
f 1 2 3
f 1 3 4
f 1 4 5
f 1 5 6
f 1 6 7
f 1 7 8
f 1 8 2
f 2 9 10
f 2 10 3
f 2 8 9
f 3 10 4
f 4 10 11
f 4 11 12
f 4 12 13
f 4 13 5
f 5 13 14
f 5 14 6
f 6 14 15
f 6 15 16
f 6 16 7
f 7 16 17
f 7 17 18
f 7 18 8
f 8 18 19
f 8 19 9
f 9 20 10
f 9 19 21
f 9 21 20
f 10 20 22
f 10 22 11
f 11 22 12
f 12 22 23
f 12 23 15
f 12 15 14
f 12 14 13
f 15 24 16
f 15 23 30
f 15 30 29
f 15 29 28
f 15 28 21
f 15 21 19
f 15 19 18
f 15 18 27
f 15 27 26
f 15 26 25
f 15 25 24
f 16 24 25
f 16 25 26
f 16 26 17
f 17 26 27
f 17 27 18
f 20 21 28
f 20 28 22
f 22 29 30
f 22 30 23
f 22 28 29
