# Converted from RoboDojo wrench/00001; source geometry preserved.
v 0.000989294 -0.062603474 -0.000016427
v 0.000989294 -0.062930478 0.002785201
v 0.000989294 -0.063139801 -0.000016427
v -0.001711050 -0.063139801 -0.000016427
v -0.000065825 -0.063139801 0.002785201
v 0.000217897 -0.063139801 0.002840634
v 0.000989294 -0.063139801 0.002991181
v 0.000989294 -0.065264183 0.000021437
v 0.000984762 -0.065715079 0.000021437
v -0.001837954 -0.067077400 0.000021437
v -0.005014190 -0.068383143 0.000021437
v -0.008269287 -0.068383143 0.000021437
v -0.006942230 -0.066393410 0.000021437
v -0.006777254 -0.066148446 0.000021437
v -0.005767458 -0.065225712 0.000021437
v -0.003131472 -0.063465671 0.000021437
v -0.003211241 -0.063764951 0.002784595
v -0.003096120 -0.064041603 0.003077814
v 0.000989294 -0.063228624 0.003078117
v 0.000989294 -0.065715079 0.001433913
v -0.001837954 -0.067077400 0.002784595
v -0.005014190 -0.068383143 0.002784595
v -0.008271100 -0.068383143 0.001623535
v -0.006777254 -0.066148446 0.002784595
v -0.006566955 -0.066359469 0.003077814
v 0.000989294 -0.065244381 0.003078117
v -0.007917581 -0.068383143 0.003077814
v 0.000989294 -0.065715079 0.002784595
v -0.001950355 -0.066805840 0.003077814
v -0.005321480 -0.068383143 0.003077814
v -0.005266186 -0.068383143 0.003025107
v -0.008269287 -0.068383143 0.002784595
v -0.008057176 -0.068383143 0.002962404
v 0.000989294 -0.065253432 0.003076905
f 1 2 7
f 1 7 19
f 1 19 26
f 1 26 34
f 1 34 28
f 1 28 20
f 1 20 8
f 1 8 3
f 1 3 4
f 1 4 5
f 1 5 2
f 2 5 6
f 2 6 7
f 3 8 9
f 3 9 10
f 3 10 11
f 3 11 12
f 3 12 4
f 4 12 13
f 4 13 14
f 4 14 15
f 4 15 16
f 4 16 17
f 4 17 5
f 5 17 6
f 6 17 7
f 7 17 18
f 7 18 19
f 8 20 9
f 9 20 10
f 10 20 28
f 10 28 21
f 10 21 22
f 10 22 11
f 11 22 31
f 11 31 30
f 11 30 27
f 11 27 33
f 11 33 32
f 11 32 23
f 11 23 12
f 12 23 13
f 13 24 14
f 13 23 24
f 14 24 15
f 15 24 17
f 15 17 16
f 17 24 25
f 17 25 18
f 18 25 19
f 19 25 27
f 19 27 26
f 21 28 29
f 21 29 30
f 21 30 31
f 21 31 22
f 23 32 24
f 24 32 33
f 24 33 25
f 25 33 27
f 26 27 30
f 26 30 29
f 26 29 34
f 28 34 29
