# Converted from RoboDojo wrench/00001; source geometry preserved.
v 0.011699363 -0.073926863 0.003078133
v 0.011998316 -0.073926863 0.002784663
v 0.011873834 -0.073300296 0.002784663
v 0.011827766 -0.073300296 0.002829859
v 0.011574880 -0.073300296 0.003077530
v 0.009348410 -0.073300296 0.003077530
v 0.006992557 -0.080108910 0.003077530
v 0.006992557 -0.082543778 0.003077530
v 0.008565740 -0.081492612 0.003077530
v 0.010884837 -0.078021612 0.003077530
v 0.011161247 -0.078135273 0.002784663
v 0.011998316 -0.073926863 -0.000026500
v 0.011998807 -0.073924044 -0.002784635
v 0.011874324 -0.073300296 -0.002375464
v 0.009275388 -0.073300296 0.003013051
v 0.006992557 -0.079539644 0.002784663
v 0.009017111 -0.073300296 0.002784663
v 0.007848251 -0.076763785 0.002784663
v 0.006992557 -0.082709108 0.002940136
v 0.008776968 -0.081703975 0.002784663
v 0.011161247 -0.078135273 -0.000026500
v 0.011699853 -0.073924044 -0.003077502
v 0.011575861 -0.073300296 -0.003077502
v 0.011874324 -0.073300296 -0.002784635
v 0.011161247 -0.078132459 -0.002784635
v 0.010885327 -0.078018792 -0.003077502
v 0.006992557 -0.079539644 -0.002785237
v 0.007848251 -0.076760966 -0.002784635
v 0.009017111 -0.073300296 -0.000418798
v 0.006992557 -0.082896042 0.002784663
v 0.006992557 -0.082896983 -0.000026500
v 0.008776968 -0.081703975 -0.000026500
v 0.008777458 -0.081701156 -0.002784635
v 0.006992557 -0.082540959 -0.003078104
v 0.006992557 -0.080106090 -0.003078104
v 0.009350371 -0.073300296 -0.003077502
v 0.008566230 -0.081489793 -0.003077502
v 0.009018581 -0.073300296 -0.002784635
v 0.006992557 -0.082894164 -0.002784635
v 0.006992557 -0.082723200 -0.002926850
f 1 2 3
f 1 3 4
f 1 4 5
f 1 5 6
f 1 6 7
f 1 7 8
f 1 8 9
f 1 9 10
f 1 10 11
f 1 11 2
f 2 12 13
f 2 13 3
f 2 11 21
f 2 21 12
f 3 13 14
f 3 14 24
f 3 24 23
f 3 23 36
f 3 36 38
f 3 38 29
f 3 29 17
f 3 17 15
f 3 15 6
f 3 6 5
f 3 5 4
f 6 15 7
f 7 16 27
f 7 27 35
f 7 35 34
f 7 34 40
f 7 40 39
f 7 39 31
f 7 31 30
f 7 30 19
f 7 19 8
f 7 15 17
f 7 17 18
f 7 18 16
f 8 19 20
f 8 20 9
f 9 20 10
f 10 20 11
f 11 20 32
f 11 32 21
f 12 21 13
f 13 22 23
f 13 23 24
f 13 24 14
f 13 21 25
f 13 25 26
f 13 26 22
f 16 18 28
f 16 28 27
f 17 29 28
f 17 28 18
f 19 30 20
f 20 30 31
f 20 31 32
f 21 32 33
f 21 33 25
f 22 26 34
f 22 34 35
f 22 35 23
f 23 35 36
f 25 33 26
f 26 33 37
f 26 37 34
f 27 28 35
f 28 29 38
f 28 38 35
f 31 39 33
f 31 33 32
f 33 39 40
f 33 40 37
f 34 37 40
f 35 38 36
