# Converted from RoboDojo wrench/00001; source geometry preserved.
v 0.001000136 -0.062927497 0.002784940
v 0.001000136 -0.062927497 0.000268351
v 0.000990198 -0.062929602 0.000268351
v 0.000990198 -0.062930655 0.002785490
v 0.000990198 -0.063228786 0.003077854
v 0.001000136 -0.063226680 0.003077854
v 0.005095018 -0.064041006 0.003077854
v 0.005208865 -0.063765001 0.002784940
v 0.005208865 -0.063765001 0.000268351
v 0.000990198 -0.065714958 0.000268351
v 0.000990198 -0.065244062 0.003077854
v 0.009866657 -0.068308585 0.003078129
v 0.008565548 -0.066360203 0.003077854
v 0.008776075 -0.066148987 0.002784940
v 0.008780593 -0.066154252 0.000268351
v 0.000990198 -0.065714958 0.002784940
v 0.003836375 -0.067078139 0.000268351
v 0.000990198 -0.065253543 0.003077029
v 0.003949319 -0.066805820 0.003077854
v 0.010071763 -0.068308585 0.002907881
v 0.007296966 -0.068308585 0.003077854
v 0.010219042 -0.068308585 0.002784940
v 0.010219042 -0.068308585 0.000268351
v 0.003836375 -0.067078139 0.002784940
v 0.006988856 -0.068303316 0.000268351
v 0.006990663 -0.068308585 0.002785490
v 0.007094571 -0.068308585 0.000268351
f 1 2 3
f 1 3 4
f 1 4 5
f 1 5 6
f 1 6 7
f 1 7 8
f 1 8 9
f 1 9 2
f 2 9 15
f 2 15 23
f 2 23 27
f 2 27 25
f 2 25 17
f 2 17 10
f 2 10 3
f 3 10 16
f 3 16 18
f 3 18 11
f 3 11 5
f 3 5 4
f 5 11 12
f 5 12 6
f 6 12 7
f 7 12 13
f 7 13 8
f 8 13 14
f 8 14 9
f 9 14 15
f 10 17 24
f 10 24 16
f 11 18 19
f 11 19 12
f 12 20 13
f 12 19 21
f 12 21 26
f 12 26 27
f 12 27 23
f 12 23 22
f 12 22 20
f 13 20 14
f 14 20 22
f 14 22 15
f 15 22 23
f 16 24 19
f 16 19 18
f 17 25 26
f 17 26 24
f 19 24 21
f 21 24 26
f 25 27 26
