# Palette-baked from RoboTwin texture for mujoco-react
v 0.034487486 6.9048838e-09 -0.414478
v -0.94780153 6.9048838e-09 -0.39613998
v -0.94772851 6.9048838e-09 -0.42321798
v -0.94777453 0.022200007 -0.42234999
v -0.94768548 6.9048838e-09 -0.44943899
v -0.94782948 0.020570006 -0.395587
v -0.9478305 0.043913007 -0.42057699
v -0.94787347 0.065106004 -0.41703901
v -0.94792253 0.060198005 -0.39130399
v -0.9478935 0.084794007 -0.41185001
v -0.9479025 0.10218701 -0.40421399
v -0.94794953 0.095813006 -0.38158998
v -0.94791949 0.060247008 -0.07573799
v -0.94791651 0.059632007 -0.051406994
v -0.94794548 0.07992401 -0.051828992
v -0.94785953 0.039632007 -0.050982993
v -0.94792449 0.058990005 -0.027119992
v -0.94795853 0.078957006 -0.027920993
v -0.94793153 0.10062101 -0.052103993
v -0.54595453 0.020641007 -0.069208995
v -0.53104448 0.036374006 -0.089022994
v -0.54633349 0.041047007 -0.076230995
v -0.53100652 0.053884007 -0.098444991
v -0.91419351 0.243514 -0.018746993
v -0.91369748 0.24411501 -0.044796992
v -0.9133895 0.244468 -0.070801996
v -0.89338148 0.25473899 -0.043024994
v -0.89297253 0.254888 -0.069520995
v -0.89271349 0.254969 -0.095963992
v -0.87015247 0.26171803 -0.09477599
v -0.87007451 0.261724 -0.121617
v -0.51202053 0.017105008 -0.090821996
v -0.49131951 0.033349007 -0.100724
v -0.51250249 0.034127008 -0.096764997
v -0.49165249 0.050316006 -0.10835499
v -0.51283848 0.051064007 -0.10524099
v -0.65375352 0.227769 0.144509
v -0.67758751 0.242007 0.11704501
v -0.6778425 0.22788301 0.14383
v -0.70364249 0.22827801 0.14311901
v -0.93372953 0.18135701 0.124402
v -0.94521248 0.167438 0.10856
v -0.93356049 0.19885701 0.10437301
v -0.9449895 0.18294001 0.091191009
v -0.91524351 0.24228501 0.007493007
v -0.8954705 0.25378501 0.011025007
v -0.89411253 0.25461704 -0.016266994
v -0.87302351 0.25970203 0.014683006
v -0.87174147 0.26110399 -0.013386993
v -0.87080252 0.26148802 -0.040840995
v -0.44225448 0.017245008 -0.096156992
v -0.46696651 0.016828006 -0.096264996
v -0.44227749 0.034276009 -0.102033
v -0.46713251 0.033584006 -0.10205299
v -0.44229847 0.051318008 -0.10950899
v -0.46726549 0.050644007 -0.109423
v -0.70339251 0.25374001 0.088046007
v -0.70336151 0.24253301 0.11625201
v -0.72879553 0.25440699 0.08711601
v -0.75424647 0.243247 0.11394801
v -0.75465453 0.22919901 0.14122701
v -0.7796995 0.22964101 0.14008
v -0.8741585 0.256199 0.043411005
v -0.85090351 0.26011002 0.047227006
v -0.84980452 0.26325899 0.018121006
v -0.82695651 0.26028103 0.050167006
v -0.39288348 0.017990006 -0.09482199
v -0.41756451 0.017697006 -0.095562994
v -0.39267451 0.035520006 -0.10089699
v -0.41746151 0.035002008 -0.10154499
v -0.39252651 0.052666008 -0.10846899
v -0.4173885 0.052070007 -0.10904999
v -0.7287305 0.25973898 0.057685006
v -0.75361949 0.25987303 0.056306008
v -0.75390249 0.25476801 0.085782006
v -0.77827853 0.25999302 0.054652005
v -0.77876252 0.25504303 0.084231004
v -0.77922249 0.24380501 0.11259801
v -0.80341351 0.25555503 0.082374007
v -0.80456251 0.23011701 0.13888501
v -0.82847053 0.24478301 0.10911201
v -0.8527115 0.244615 0.10675601
v -0.82781547 0.25612301 0.08008901
v -0.80272847 0.26007199 0.052625008
v -0.36832148 6.9048838e-09 -0.089883991
v -0.36822647 0.018161006 -0.093945995
v -0.44320649 0.094632007 -0.361689
v -0.44367152 0.085090004 -0.37397701
v -0.4678835 0.087766007 -0.37788698
v -0.4675895 0.097711004 -0.36646399
v -0.4919115 0.09050601 -0.38254899
v -0.49162951 0.10116901 -0.37138599
v -0.53575653 0.10251201 -0.398341
v -0.5512625 0.11523101 -0.41295099
v -0.55087048 0.12846701 -0.398743
v -0.56038749 0.13146201 -0.43107
v -0.5503965 0.021460006 -0.45737898
v -0.54925448 6.9048838e-09 -0.45985499
v -0.54925448 6.9048838e-09 -0.45985499
v -0.53429449 6.9048838e-09 -0.44233999
v -0.33170348 0.10101101 -0.335511
v -0.35444349 0.10082701 -0.336007
v -0.33117253 0.090346009 -0.34963098
v -0.35362047 0.090144008 -0.35014099
v -0.35348451 0.079624005 -0.365686
v -0.4221735 0.072206005 -0.383376
v -0.40091354 0.058956008 -0.39133999
v -0.42419153 0.059159007 -0.39228699
v -0.44746155 0.059850007 -0.39361599
v -0.44544047 0.073847003 -0.38526198
v -0.53639853 0.088464007 -0.40948999
v -0.55151749 0.08224801 -0.43607301
v -0.55164552 0.099759005 -0.42541498
v -0.53534448 0.018073007 -0.43970901
v -0.53534448 0.018073007 -0.43970901
v -0.51589352 0.015826007 -0.42682099
v -0.51522052 6.9048838e-09 -0.43007699
v -0.49443752 0.014682007 -0.41817299
v -0.49409851 6.9048838e-09 -0.42070401
v -0.47192851 6.9048838e-09 -0.41566798
v -0.33101648 0.079769008 -0.36530599
v -0.33130151 0.070647009 -0.379246
v -0.3540085 0.070502006 -0.37972
v -0.33173352 0.060585007 -0.39030498
v -0.35474151 0.059834007 -0.39038798
v -0.3777715 0.059112009 -0.390652
v -0.35536849 0.045784008 -0.39572001
v -0.37874949 0.045095008 -0.395953
v -0.40223151 0.044594008 -0.396575
v -0.37940949 0.030700007 -0.40159398
v -0.40288949 0.029997006 -0.402271
v -0.42617851 0.029584007 -0.403492
v -0.42553753 0.044469006 -0.397854
v -0.44921049 0.029436007 -0.40548199
v -0.44865349 0.044698007 -0.39978698
v -0.4720895 0.014264007 -0.41292998
v -0.4492965 0.014546007 -0.41027498
v -0.44924551 6.9048838e-09 -0.412958
v -0.42634052 0.014897007 -0.40845901
v -0.42634147 6.9048838e-09 -0.41157299
v -0.40319246 6.9048838e-09 -0.410622
v -0.37975651 6.9048838e-09 -0.41043898
v -0.35628754 6.9048838e-09 -0.410353
v -0.33208054 0.046536006 -0.39576298
v -0.33244246 0.032012008 -0.4014
v -0.35589051 0.031420007 -0.40134299
v -0.33267254 0.016308008 -0.40689299
v -0.35613853 0.015917007 -0.40669599
v -0.37964147 0.015469007 -0.406791
v -0.40310651 0.015095007 -0.40723699
v -0.33274454 6.9048838e-09 -0.41083899
v -0.30921954 0.016612006 -0.407222
v -0.30936849 6.9048838e-09 -0.41122699
v -0.28593951 6.9048838e-09 -0.41219699
v -0.28576046 0.016876006 -0.407617
v 0.080542505 6.9048838e-09 -0.41329399
v 0.10440248 6.9048838e-09 -0.412628
v 0.20579153 0.11181401 -0.30647901
v 0.18054253 0.11179201 -0.305787
v 0.20535654 0.11102801 -0.32131299
v 0.12806755 6.9048838e-09 -0.41198
v 0.15138048 6.9048838e-09 -0.41126999
v 0.17396349 6.9048838e-09 -0.410254
v 0.20769948 0.053699005 -0.025721993
v 0.20934647 0.062453005 -0.024951993
v 0.21166247 0.071279004 -0.024421994
v 0.23364145 0.064575009 -0.028361993
v 0.23504549 0.073886007 -0.027562993
v 0.23532146 0.08380501 -0.029797994
v 0.21244949 0.081469007 -0.026664993
v 0.23491746 0.091488004 -0.036865994
v 0.21175843 0.089646004 -0.032514993
v 0.25668555 0.11164301 -0.29325798
v 0.23144847 0.11158701 -0.29075
v 0.2567485 0.11158801 -0.309495
v 0.23108548 0.11162701 -0.307659
v 0.25673753 0.10891701 -0.32358199
v 0.23077649 0.11020001 -0.32232299
v 0.24982446 0.088211007 -0.35151899
v 0.24495953 0.07764101 -0.36798298
v 0.22348255 0.079972006 -0.36462799
v 0.2417205 0.069829009 -0.38159698
v 0.22066849 0.07131701 -0.37851998
v 0.19593245 6.9048838e-09 -0.409309
v 0.21718651 6.9048838e-09 -0.40884501
v 0.23761255 6.9048838e-09 -0.409219
v 0.23172456 0.051161006 -0.025955994
v 0.23176855 0.057117008 -0.031217992
v 0.25552648 0.049909007 -0.031453993
v 0.25783747 0.067088008 -0.030099994
v 0.25880247 0.076607004 -0.029953994
v 0.25891954 0.08616101 -0.033532992
v 0.30536944 0.100141 -0.33286798
v 0.28212351 0.105321 -0.32636899
v 0.30039054 0.092045009 -0.34965399
v 0.27803653 0.095202006 -0.33974898
v 0.2912305 0.083573006 -0.367091
v 0.27124447 0.085223004 -0.356426
v 0.28501946 0.076535009 -0.38261598
v 0.26515454 0.076095007 -0.37376499
v 0.28168255 0.070000008 -0.394301
v 0.26172954 0.069244005 -0.38672999
v 0.25805956 0.015907006 -0.4086
v 0.23806447 0.016858008 -0.40563399
v 0.25730151 6.9048838e-09 -0.411865
v 0.2772035 0.014976007 -0.414767
v 0.27590257 6.9048838e-09 -0.41780099
v 0.29249054 6.9048838e-09 -0.428657
v 0.32726651 0.099800006 -0.344533
v 0.34126848 0.097516008 -0.378903
v 0.32039148 0.093364008 -0.36398301
v 0.33363551 0.089240007 -0.39702499
v 0.31182951 0.08598201 -0.38157699
v 0.32730752 0.081622005 -0.409798
v 0.30590647 0.07937301 -0.39455399
v 0.32174355 0.07306201 -0.42012998
v 0.30202156 0.071649007 -0.40504
v 0.31734854 0.060702007 -0.42890298
v 0.29959852 0.059987009 -0.412646
v 0.31476849 0.044993006 -0.43405598
v 0.31205148 0.028850008 -0.43845201
v 0.30891544 0.014056006 -0.442516
v 0.29442853 0.014191007 -0.42594299
v 0.30642253 6.9048838e-09 -0.44485301
v 0.30642253 6.9048838e-09 -0.44485301
v 0.30642253 6.9048838e-09 -0.44485301
v 0.32247645 0.014268007 -0.462906
v 0.32004744 6.9048838e-09 -0.464816
v 0.32004744 6.9048838e-09 -0.464816
v 0.3341015 6.9048838e-09 -0.48896199
v 0.36929148 0.10841801 -0.37166399
v 0.38377744 0.10459401 -0.407664
v 0.36283654 0.10075901 -0.39346099
v 0.37544256 0.095506005 -0.430462
v 0.35512549 0.09192501 -0.41349399
v 0.3651585 0.087295003 -0.448313
v 0.34670955 0.083964005 -0.428783
v 0.35491449 0.077867009 -0.46281201
v 0.33855945 0.075015008 -0.43998501
v 0.34754747 0.063931003 -0.47267199
v 0.33204943 0.061733007 -0.44881299
v 0.34366351 0.047045007 -0.47870898
v 0.32899052 0.045129009 -0.45457301
v 0.34046656 0.029991006 -0.483767
v 0.32576448 0.029136008 -0.459346
v 0.33689052 0.014447007 -0.487165
v 0.35233051 0.033445008 -0.51129997
v 0.34865457 0.016176008 -0.51465702
v 0.34591752 6.9048838e-09 -0.51633
v 0.35445052 0.019560007 -0.544671
v 0.36123651 0.069346003 -0.49776798
v 0.35562855 0.051981006 -0.50573498
v 0.50139743 6.9048838e-09 0.13368601
v 0.49810749 6.9048838e-09 0.12165201
v 0.49522549 6.9048838e-09 0.109685
v 0.49221653 6.9048838e-09 0.10030801
v 0.52130252 0.088773005 0.12480401
v 0.54356152 0.12655801 0.11978801
v 0.55639058 0.13563101 -0.74399197
v 0.52896553 0.11071501 -0.74941897
v 0.50913447 6.9048838e-09 0.17098701
v 0.50421351 6.9048838e-09 0.150462
v 0.51081949 0.046849009 0.148753
v 0.52823359 0.087711006 0.166775
v 0.52519852 0.088211007 0.14535901
v 0.54817051 0.124892 0.161584
v 0.54603845 0.125588 0.14010201
v 0.57365853 0.15567201 0.15471001
v 0.68133956 0.207451 -0.57229
v 0.67457753 0.20901801 -0.59317601
v 0.69076151 0.20020801 -0.60375202
v 0.67651051 0.20016401 -0.62240797
v 0.69218045 0.18567801 -0.63721997
v 0.67312747 0.185174 -0.65415698
v 0.65248352 0.18428901 -0.66757298
v 0.68563753 0.167693 -0.67025697
v 0.66238958 0.16725001 -0.68511397
v 0.61910254 0.13012601 -0.737845
v 0.58746248 0.13374601 -0.744479
v 0.62291342 0.106777 -0.75085199
v 0.5901975 0.10973901 -0.75805199
v 0.55795652 0.11113801 -0.75793201
v 0.59267253 0.083660007 -0.769674
v 0.55965549 0.084814005 -0.77045798
v 0.52955848 0.084169008 -0.76198602
v 0.56019956 0.056885008 -0.778988
v 0.52978355 0.056330007 -0.76999897
v 0.50143057 0.056229006 -0.75889999
v 0.52802449 6.9048838e-09 0.21293201
v 0.51671654 6.9048838e-09 0.192699
v 0.53412551 0.085598007 0.18870001
v 0.56327647 0.11470101 0.20350401
v 0.55376846 0.12142201 0.18349601
v 0.58691651 0.14243901 0.19729501
v 0.57884449 0.15063301 0.17667101
v 0.74777657 0.20830801 -0.083558992
v 0.68832248 0.20664801 -0.52819997
v 0.68502551 0.20682101 -0.550466
v 0.70844346 0.196833 -0.53544801
v 0.70491749 0.19730401 -0.55875099
v 0.69964248 0.19885701 -0.58151001
v 0.72759551 0.182448 -0.56971097
v 0.72073156 0.18453 -0.593427
v 0.70875448 0.185644 -0.61679399
v 0.62627345 0.08136601 -0.76143301
v 0.59428746 0.056279007 -0.77788699
v 0.56057149 0.028429007 -0.78412598
v 0.55135947 6.9048838e-09 0.251724
v 0.54010648 6.9048838e-09 0.23195401
v 0.6259535 0.148752 0.23580301
v 0.61928946 0.15667401 0.21387301
v 0.65134746 0.16512801 0.23333901
v 0.69710749 0.209947 0.160044
v 0.69572252 0.21291301 0.135518
v 0.72926241 0.21387801 0.159418
v 0.72813147 0.216122 0.135671
v 0.81450647 0.170221 -0.095494993
v 0.79275757 0.18623501 -0.09095899
v 0.76974648 0.199331 -0.086716995
v 0.78903157 0.185799 -0.11366499
v 0.76616746 0.19912201 -0.10939699
v 0.74586755 0.207699 -0.10631199
v 0.76211947 0.199008 -0.13254999
v 0.74279147 0.20767401 -0.12941599
v 0.7285195 0.21258001 -0.12727599
v 0.73043853 0.21271901 -0.104381
v 0.68033057 0.21288401 -0.42304599
v 0.69236141 0.210712 -0.426272
v 0.68720657 0.21125601 -0.45177901
v 0.69968349 0.20611101 -0.45550099
v 0.69516951 0.20658001 -0.480349
v 0.69170243 0.206586 -0.50479901
v 0.71338254 0.197455 -0.48556098
v 0.71074849 0.19705001 -0.51093799
v 0.73531848 0.18278001 -0.491041
v 0.73371059 0.181912 -0.51792002
v 0.73148257 0.18149501 -0.54438597
v 0.75447446 0.053389005 -0.695261
v 0.57180744 6.9048838e-09 0.29253399
v 0.5619145 6.9048838e-09 0.27186802
v 0.63192946 0.14166901 0.258064
v 0.68905252 0.15659401 0.27570599
v 0.68425649 0.16499801 0.25331801
v 0.83390349 0.15104301 -0.099800996
v 0.82963449 0.150608 -0.122656
v 0.81051952 0.169789 -0.118265
v 0.82540756 0.150341 -0.14581299
v 0.80639452 0.169393 -0.14141899
v 0.78517348 0.18562801 -0.13687299
v 0.8022415 0.169155 -0.16485299
v 0.78111655 0.18547601 -0.160266
v 0.75807744 0.19898301 -0.155782
v 0.7769205 0.185367 -0.18386699
v 0.75428551 0.198916 -0.17930999
v 0.73657256 0.20728701 -0.17604199
v 0.73943251 0.20759201 -0.152568
v 0.72371155 0.21207301 -0.17389899
v 0.72582442 0.21259601 -0.15038499
v 0.69454449 0.212813 -0.31943798
v 0.69058543 0.212245 -0.345449
v 0.6866315 0.21180201 -0.37125701
v 0.70250756 0.21092801 -0.34791699
v 0.69895154 0.21062201 -0.37394199
v 0.69595152 0.210682 -0.40020999
v 0.7117855 0.20570101 -0.37676901
v 0.70793849 0.205577 -0.40311798
v 0.70423657 0.205731 -0.429654
v 0.72283345 0.19768001 -0.406562
v 0.71923751 0.197779 -0.433382
v 0.71598655 0.197778 -0.45979199
v 0.73950547 0.18448001 -0.43749198
v 0.73707658 0.18374501 -0.464241
v 0.75905758 0.16731201 -0.44052899
v 0.77667648 0.053631008 -0.66667598
v 0.77972049 0.026987007 -0.66887802
v 0.75724453 0.026848007 -0.69797301
v 0.78121752 6.9048838e-09 -0.67015702
v 0.75851041 6.9048838e-09 -0.69944602
v 0.59059149 6.9048838e-09 0.33536902
v 0.58135444 6.9048838e-09 0.31374201
v 0.61535054 0.080928005 0.32881001
v 0.64964253 0.12429101 0.32441902
v 0.64395744 0.12919301 0.302448
v 0.67240745 0.13689601 0.32201001
v 0.66720849 0.142588 0.30026501
v 0.69827443 0.14377901 0.31958699
v 0.69369441 0.14941201 0.29777402
v 0.72418958 0.15027101 0.31921899
v 0.71608847 0.16397201 0.27508
v 0.75367242 0.15021601 0.341858
v 0.72827452 0.14551401 0.34087402
v 0.73251551 0.141562 0.36267802
v 0.73649353 0.137308 0.38426501
v 0.70321041 0.139201 0.34139201
v 0.70821959 0.13552201 0.36272299
v 0.71320647 0.131547 0.38423902
v 0.71711642 0.12593001 0.405036
v 0.73969048 0.131972 0.405074
v 0.68423659 0.12891401 0.364757
v 0.69026858 0.12585501 0.38589901
v 0.69531649 0.11792801 0.40507001
v 0.69203049 0.12585801 0.422425
v 0.71459943 0.13569 0.42172402
v 0.66849858 0.11318701 0.38710201
v 0.67574948 0.10592001 0.40506801
v 0.67139655 0.11191401 0.42294002
v 0.67109543 0.113717 0.44293401
v 0.69146544 0.12894401 0.441807
v 0.65880543 0.089741006 0.405074
v 0.65363842 0.094572008 0.42308402
v 0.65401751 0.095327005 0.44348601
v 0.6578055 0.094220005 0.46526501
v 0.67429644 0.11241501 0.46400902
v 0.63993055 0.073688008 0.42275602
v 0.64051157 0.073987007 0.44330001
v 0.64484245 0.073251009 0.46556902
v 0.6492855 0.07287401 0.488895
v 0.6622625 0.093166009 0.48805299
v 0.63082951 0.050330006 0.44261602
v 0.63519949 0.050244007 0.465451
v 0.64030749 0.050067008 0.48886901
v 0.64671046 0.049449008 0.51217902
v 0.65510446 0.071772009 0.51233399
v 0.62965256 0.025376007 0.465152
v 0.63644153 0.025397006 0.48869002
v 0.64058548 0.025108008 0.51179802
v 0.63566142 6.9048838e-09 0.488491
v 0.63566142 6.9048838e-09 0.488491
v 0.66087943 0.070407011 0.53565603
v 0.66734153 0.092165008 0.51165903
v 0.68280345 0.11027501 0.50957203
v 0.67843443 0.11092201 0.48624602
v 0.69793648 0.12589601 0.48370701
v 0.69424444 0.12759 0.46216202
v 0.71410948 0.14035401 0.44031
v 0.88011748 0.054605007 -0.135491
v 0.8674745 0.080813006 -0.15656699
v 0.8562265 0.10568301 -0.153552
v 0.84217054 0.12899901 -0.149931
v 0.85161144 0.10556701 -0.17700399
v 0.83768851 0.12883601 -0.17334899
v 0.82119149 0.15020101 -0.16925099
v 0.83303553 0.12863301 -0.196962
v 0.81674951 0.15001401 -0.192913
v 0.79792351 0.168934 -0.188513
v 0.8124215 0.15003601 -0.21680099
v 0.79350954 0.16872601 -0.21236899
v 0.77254158 0.18531601 -0.207681
v 0.78898555 0.16844501 -0.23647
v 0.76857144 0.18517201 -0.23183699
v 0.74675757 0.19882101 -0.22723699
v 0.75044256 0.19893201 -0.20317499
v 0.73031551 0.20686901 -0.22402199
v 0.73383242 0.20691001 -0.200013
v 0.7182855 0.21163 -0.221784
v 0.72114247 0.21174401 -0.19770299
v 0.70581549 0.213411 -0.219552
v 0.70830542 0.212383 -0.19556899
v 0.71573752 0.211172 -0.246445
v 0.70358151 0.21248901 -0.244259
v 0.71309549 0.21090901 -0.27140799
v 0.70110852 0.212254 -0.269086
v 0.70978147 0.210942 -0.29638699
v 0.69781142 0.21293601 -0.29398701
v 0.70627552 0.21098101 -0.321834
v 0.72136241 0.20620701 -0.29883999
v 0.71838647 0.205998 -0.324489
v 0.71530348 0.20559201 -0.35051501
v 0.73255545 0.198355 -0.32745999
v 0.72950047 0.19798401 -0.35347798
v 0.72637254 0.197868 -0.37996998
v 0.74875242 0.184889 -0.35744098
v 0.74554151 0.184834 -0.38382098
v 0.7424255 0.184798 -0.41059399
v 0.76477057 0.16787501 -0.38743898
v 0.76156741 0.16761801 -0.41386598
v 0.88196248 6.9048838e-09 -0.16113099
v 0.88734347 6.9048838e-09 -0.13798699
v 0.92901045 6.9048838e-09 0.048870008
v 0.93598551 6.9048838e-09 0.071460009
v 0.93929058 6.9048838e-09 0.093301006
v 0.60815948 6.9048838e-09 0.37877402
v 0.59945256 6.9048838e-09 0.35788
v 0.6081025 0.054111008 0.35435802
v 0.62976748 0.076158009 0.36971602
v 0.62253958 0.077827007 0.349727
v 0.6456185 0.097452007 0.36715701
v 0.63902348 0.10001101 0.346701
v 0.66197354 0.11749501 0.367098
v 0.65580755 0.12029 0.34576601
v 0.67786342 0.132467 0.34347799
v 0.65224451 0.094289005 0.38643199
v 0.63738948 0.07437101 0.38778201
v 0.64503652 0.070895009 0.40507001
v 0.62650949 0.051212005 0.39088002
v 0.63578552 0.048604008 0.40507001
v 0.6294995 0.050397009 0.422254
v 0.63084847 0.024428006 0.40506601
v 0.62368447 0.025368007 0.42192501
v 0.62447852 0.025372006 0.441827
v 0.62097555 6.9048838e-09 0.422133
v 0.62240452 6.9048838e-09 0.441818
v 0.62675947 6.9048838e-09 0.465442
v 0.62675947 6.9048838e-09 0.465442
v 0.62881249 6.9048838e-09 0.40507001
v 0.62881249 6.9048838e-09 0.40507001
v 0.6204235 6.9048838e-09 0.39190501
v 0.62178856 0.025774008 0.39184302
v 0.80916351 6.9048838e-09 0.78548104
v 0.79945856 6.9048838e-09 0.78407198
v 0.80896252 0.0080930069 0.78471899
v 0.80716258 0.018051008 0.78201103
v 0.81709844 0.0095140068 0.78481603
v 0.8129825 0.023672007 0.78011501
v 0.82597142 0.010370007 0.78442502
v 0.82351643 0.024237007 0.780173
v 0.82651955 6.9048838e-09 0.78536701
v 0.81781846 6.9048838e-09 0.78576499
v 0.88475257 0.027466007 -0.13697599
v 0.87961656 0.027419006 -0.16026799
v 0.87525648 0.054556008 -0.15880799
v 0.87437445 0.027299007 -0.18360399
v 0.87042958 0.054380007 -0.18225199
v 0.86242849 0.080532007 -0.17996499
v 0.86529046 0.054216009 -0.20576599
v 0.85751754 0.080349006 -0.20351799
v 0.84672552 0.10529001 -0.20055699
v 0.85282642 0.08023601 -0.22726999
v 0.84189349 0.10506801 -0.22428799
v 0.8283245 0.128415 -0.22074699
v 0.83730251 0.10496901 -0.24824099
v 0.82368749 0.12826 -0.244737
v 0.8077305 0.14972101 -0.240844
v 0.81917852 0.12817901 -0.268942
v 0.80312043 0.14950301 -0.265127
v 0.7846505 0.168439 -0.260892
v 0.79863745 0.149351 -0.28965399
v 0.78017253 0.16824801 -0.28553998
v 0.76001447 0.184983 -0.281106
v 0.76442152 0.18517101 -0.256329
v 0.73950654 0.19867401 -0.27683198
v 0.74315554 0.198844 -0.251753
v 0.72485143 0.206294 -0.27381799
v 0.72772342 0.206622 -0.24871199
v 0.73584753 0.19860601 -0.301898
v 0.75592953 0.18502401 -0.30612999
v 0.75207049 0.185054 -0.331505
v 0.77586049 0.16808301 -0.31044099
v 0.77191049 0.16803601 -0.335648
v 0.76826948 0.167996 -0.36134398
v 0.78990346 0.148872 -0.339405
v 0.78608757 0.148773 -0.36476198
v 0.80583555 0.127422 -0.34278199
v 0.81535047 0.10353301 -0.37083098
v 0.84691554 6.9048838e-09 -0.328051
v 0.85204154 6.9048838e-09 -0.303747
v 0.84954244 0.026799006 -0.30279198
v 0.85463148 0.026953006 -0.27864999
v 0.85941344 0.027036007 -0.254619
v 0.86462241 0.027153008 -0.23083
v 0.86717552 6.9048838e-09 -0.23177399
v 0.85037452 0.053702008 -0.27726299
v 0.85538942 0.053913008 -0.25328499
v 0.86032945 0.054078005 -0.22944899
v 0.86993247 0.027283007 -0.20724
v 0.84775645 0.079966009 -0.25110298
v 0.84272248 0.079687007 -0.27509099
v 0.83239442 0.10470901 -0.27229598
v 0.83804947 0.079454005 -0.29932499
v 0.82758743 0.10439101 -0.296547
v 0.81466049 0.12802 -0.29334
v 0.8230775 0.10412001 -0.32104298
v 0.81015545 0.12775201 -0.31793401
v 0.79416543 0.14909801 -0.314394
v 0.81896251 0.103824 -0.34580898
v 0.83322853 0.079025008 -0.32373598
v 0.82892042 0.078612007 -0.34844199
v 0.82534558 0.078282006 -0.37354198
v 0.83630949 0.052745007 -0.35065198
v 0.83251244 0.052398007 -0.375889
v 0.84048551 0.053069007 -0.32583401
v 0.84534556 0.053419005 -0.301424
v 0.87731558 6.9048838e-09 -0.184599
v 0.87227947 6.9048838e-09 -0.20810099
v -0.39298552 6.9048838e-09 -0.090872996
v 0.42211348 -0.16297899 -0.56337702
v 0.40639347 -0.040114991 0.057697006
v 0.49939746 -0.09122099 0.078469008
v 0.41748554 -0.060419992 0.082392007
v 0.44898945 -0.18175299 -0.54820001
v 0.44121951 -0.18117599 -0.58327001
v 0.42711455 -0.16054799 -0.600214
v 0.40334553 -0.13462299 -0.59312302
v 0.39600152 -0.12456799 -0.56371897
v 0.41335255 -0.14310899 -0.53829497
v 0.59062451 -0.205992 -0.61473697
v 0.59497148 -0.20199299 -0.604572
v -0.94781649 -0.13138999 -0.41715801
v 0.39870554 -0.036174994 0.055238008
v 0.40334445 -0.048989993 0.041615006
v 0.39818054 -0.044840991 0.042643007
v 0.41355354 -0.042301994 0.071739011
v 0.41436046 -0.057902992 0.072455004
v 0.41039652 -0.054684993 0.057114005
v 0.40635353 -0.057088993 0.040773008
v 0.48114151 -0.078481995 0.081218004
v 0.49452347 -0.048965994 0.092468008
v 0.50051945 -0.048837993 0.10291101
v 0.51085848 -0.089462996 0.092237003
v 0.50147551 -0.10762499 0.058894008
v 0.47910947 -0.09244699 0.069114007
v 0.41673654 -0.046232995 0.084000006
v 0.42042249 -0.050670993 0.09309601
v 0.42043847 -0.066990994 0.086024009
v 0.41643053 -0.068547994 0.073504008
v 0.91441852 -0.092266992 0.135848
v 0.79416651 -0.016274992 0.78007001
v -0.94777453 -0.022200992 -0.42234999
v -0.94789052 -0.040562995 -0.39412698
v -0.9478305 -0.043912992 -0.42057699
v -0.94787347 -0.06510599 -0.41703901
v -0.94777751 -0.048274994 -0.44658399
v -0.9479025 -0.10218699 -0.40421399
v -0.94783348 -0.11440099 -0.42779198
v -0.94784248 -0.094252996 -0.43636298
v -0.9445135 -0.195603 -0.410216
v -0.94498849 -0.18273099 -0.43514401
v -0.94759452 -0.163939 -0.41951799
v -0.94533253 -0.16414599 -0.45541799
v -0.94768047 -0.148012 -0.43705699
v -0.94776052 -0.12808399 -0.450019
v -0.9182995 -0.23036699 -0.43057001
v -0.93267351 -0.21324699 -0.420647
v -0.93347752 -0.19916999 -0.448515
v -0.8026225 -0.26369101 -0.38358298
v -0.80325949 -0.25991899 -0.41711599
v -0.82718951 -0.25996602 -0.41496798
v -0.82792151 -0.25192499 -0.44967398
v -0.58889252 -0.22706099 0.145052
v -0.82453048 -0.267156 -0.20304599
v -0.75520653 -0.26322001 -0.38617501
v -0.7789045 -0.26334798 -0.38513699
v -0.75547749 -0.25971502 -0.419958
v -0.77937549 -0.25980598 -0.41880998
v -0.75597149 -0.250642 -0.45407599
v -0.77996951 -0.25081897 -0.45294899
v -0.59222549 -0.25384402 0.08936201
v -0.59136748 -0.241046 0.11742001
v -0.60345048 -0.25385702 0.08950901
v -0.60259551 -0.241266 0.11747501
v -0.60025549 -0.22722599 0.14506601
v -0.61475152 -0.24149999 0.11743401
v -0.61495149 -0.22734699 0.14513601
v -0.63272852 -0.22759899 0.144878
v -0.82434648 -0.26724398 -0.175127
v -0.80118048 -0.26717502 -0.17477199
v -0.70859051 -0.26700902 -0.35505098
v -0.70794249 -0.26259696 -0.38676
v -0.73158151 -0.26305097 -0.38669899
v -0.70748949 -0.25927001 -0.420854
v -0.73152047 -0.25963098 -0.42065001
v -0.70744449 -0.250467 -0.45554098
v -0.73179448 -0.25048 -0.45495999
v -0.49203449 -0.081032991 -0.12932399
v -0.5132665 -0.081848994 -0.127848
v -0.4918355 -0.094025992 -0.14164399
v -0.51320249 -0.094566993 -0.14148
v -0.61687452 -0.25372499 0.089556009
v -0.6337055 -0.25362498 0.089441009
v -0.6334675 -0.24154699 0.11753801
v -0.65397352 -0.25356501 0.089294009
v -0.65380448 -0.241698 0.117355
v -0.65375352 -0.22776899 0.144509
v -0.67758751 -0.24200699 0.11704501
v -0.82452548 -0.26753896 -0.036127992
v -0.66119349 -0.26310498 -0.38624498
v -0.68441051 -0.26130098 -0.386323
v -0.65989149 -0.25938797 -0.420237
v -0.68345147 -0.25835097 -0.420371
v -0.65927547 -0.25057697 -0.45513201
v -0.68292648 -0.24953599 -0.455075
v -0.4421975 -0.08193399 -0.12904599
v -0.46725249 -0.081329994 -0.129511
v -0.4418515 -0.094457991 -0.14052999
v -0.46709049 -0.094166994 -0.14127199
v -0.65685749 -0.26666397 0.0021790068
v -0.65536952 -0.260966 0.030696008
v -0.65462053 -0.25945902 0.059986006
v -0.67935848 -0.25909197 0.029882006
v -0.6785965 -0.258587 0.059412006
v -0.67785448 -0.25289398 0.088755004
v -0.85497153 -0.18361299 0.178847
v -0.8790825 -0.18143 0.17507701
v -0.9022755 -0.17826 0.169392
v -0.87864751 -0.207442 0.15642701
v -0.9016875 -0.20334099 0.15052301
v -0.82609248 -0.262582 0.020809006
v -0.82519352 -0.26723599 -0.0076599931
v -0.80144453 -0.267156 -0.0053279931
v -0.6248045 -0.26712596 -0.35139599
v -0.62323451 -0.26370597 -0.38415098
v -0.64016348 -0.26347399 -0.38528898
v -0.62311047 -0.259826 -0.41836599
v -0.6391505 -0.25975698 -0.419395
v -0.6235615 -0.25123197 -0.45393899
v -0.6392495 -0.25082201 -0.454449
v -0.39252651 -0.052666992 -0.10846899
v -0.39236552 -0.068908989 -0.117323
v -0.41730946 -0.068340994 -0.11788099
v -0.39208251 -0.083172992 -0.1274
v -0.4171105 -0.082589991 -0.12829199
v -0.39157552 -0.095117994 -0.13865499
v -0.4166435 -0.094808996 -0.13957299
v -0.6803965 -0.265885 0.0014540069
v -0.60122252 -0.26471299 -0.38230398
v -0.6107375 -0.264256 -0.383194
v -0.60020351 -0.25993299 -0.41654798
v -0.6104815 -0.25989997 -0.41744301
v -0.60031152 -0.25191098 -0.45286599
v -0.61096251 -0.25161898 -0.45343199
v -0.34363753 -0.018304992 -0.093005992
v -0.3433665 -0.036043994 -0.099474996
v -0.36797553 -0.035849992 -0.10018099
v -0.34308851 -0.053362992 -0.10716599
v -0.36775547 -0.053074993 -0.107853
v -0.34278852 -0.069747992 -0.11603499
v -0.36752051 -0.069371991 -0.11674699
v -0.34242648 -0.083983995 -0.125662
v -0.36719751 -0.083632991 -0.12652099
v -0.34187454 -0.095658995 -0.137007
v -0.36665052 -0.095357992 -0.137805
v -0.5679425 -0.25031 -0.37579098
v -0.56902349 -0.25704598 -0.376912
v -0.57306248 -0.26171601 -0.37812498
v -0.58597648 -0.26486599 -0.38023201
v -0.59330148 -0.265019 -0.38128099
v -0.5849005 -0.25981396 -0.414823
v -0.59236449 -0.25993502 -0.41571099
v -0.58425653 -0.25213999 -0.45196599
v -0.5918135 -0.25209302 -0.45246199
v -0.31855351 -0.053561993 -0.10641599
v -0.56785148 -0.246281 -0.40936899
v -0.56846148 -0.24305199 -0.44670698
v -0.56826049 -0.25332999 -0.41120699
v -0.5692445 -0.24902999 -0.44972798
v -0.57107252 -0.25862998 -0.412862
v -0.57660949 -0.25195897 -0.45148
v -0.57809651 -0.25957197 -0.41387999
v -0.57890248 -0.26403201 -0.37921
v -0.56777251 -0.16788 -0.52677101
v -0.56743348 -0.16422699 -0.51989198
v -0.56761152 -0.130889 -0.53250897
v -0.5672515 -0.128281 -0.52520502
v -0.56708848 -0.09421999 -0.52778
v -0.56729048 -0.156261 -0.505081
v -0.56713748 -0.12549399 -0.51768202
v -0.56724352 -0.14987899 -0.494663
v -0.56713748 -0.12151299 -0.507824
v -0.56708348 -0.11547899 -0.49452898
v -0.56696349 -0.087520994 -0.50409997
v -0.56536752 -0.081425995 -0.486682
v -0.56515849 -0.055143993 -0.49361598
v -0.56015551 -0.049591992 -0.47280899
v -0.5503965 -0.021460993 -0.45737898
v -0.3991825 -0.071099997 -0.381816
v -0.4221735 -0.072206996 -0.383376
v -0.40091354 -0.058955994 -0.39133999
v -0.42419153 -0.059158992 -0.39228699
v -0.44544047 -0.073847994 -0.38526198
v -0.56060952 -0.094652995 -0.45649299
v -0.56550151 -0.10663399 -0.47718298
v -0.56037849 -0.072802991 -0.46576798
v -0.51589352 -0.015825992 -0.42682099
v -0.49443752 -0.014682993 -0.41817299
v -0.33130151 -0.070646994 -0.379246
v -0.3540085 -0.070501991 -0.37972
v -0.33173352 -0.060584992 -0.39030498
v -0.35474151 -0.059834994 -0.39038798
v -0.3777715 -0.059112992 -0.390652
v -0.35536849 -0.045783993 -0.39572001
v -0.37874949 -0.045094993 -0.395953
v -0.40223151 -0.044593994 -0.396575
v -0.37940949 -0.030700993 -0.40159398
v -0.40288949 -0.029996993 -0.402271
v -0.42617851 -0.029584993 -0.403492
v -0.42553753 -0.044469994 -0.397854
v -0.4720895 -0.014263993 -0.41292998
v -0.4492965 -0.014545993 -0.41027498
v -0.42634052 -0.014896994 -0.40845901
v -0.30864549 -0.061102994 -0.39034599
v -0.30882549 -0.047205992 -0.39602
v -0.33208054 -0.046535995 -0.39576298
v -0.30904347 -0.032557994 -0.40163299
v -0.33244246 -0.032011993 -0.4014
v -0.35589051 -0.031420995 -0.40134299
v -0.33267254 -0.016307993 -0.40689299
v -0.35613853 -0.015916994 -0.40669599
v -0.37964147 -0.015469993 -0.406791
v -0.40310651 -0.015095993 -0.40723699
v -0.30921954 -0.016611993 -0.407222
v -0.19075549 -0.061301991 -0.39284399
v -0.21466249 -0.061328992 -0.392308
v -0.2383725 -0.061390992 -0.39175898
v -0.21467948 -0.048085991 -0.397782
v -0.23842752 -0.047980994 -0.39727399
v -0.093983471 -0.070625991 -0.38385698
v -0.11819547 -0.061296992 -0.39395899
v -0.14239752 -0.048564993 -0.399295
v -0.16665852 -0.048390992 -0.398783
v -0.1907385 -0.048178993 -0.39824501
v -0.16663951 -0.033800993 -0.40409899
v -0.1907565 -0.033601992 -0.40379098
v -0.21473247 -0.033482995 -0.40338901
v -0.19082952 -0.017208993 -0.409823
v -0.019742489 -0.070588991 -0.385124
v -0.044680476 -0.070669994 -0.384574
v -0.06942749 -0.070664994 -0.38420001
v -0.044202507 -0.060792994 -0.39479199
v -0.069062531 -0.061096992 -0.39451
v -0.093719482 -0.061246995 -0.39422899
v -0.068731487 -0.048149992 -0.40046299
v -0.0934605 -0.048538994 -0.40006298
v -0.093240499 -0.033673994 -0.40529299
v -0.11785352 -0.033964992 -0.40471798
v -0.14233547 -0.033982992 -0.40436199
v -0.11792552 -0.017175993 -0.411154
v -0.14245254 -0.017251993 -0.41075099
v -0.093214512 -0.016972993 -0.41152999
v 0.030355513 -0.069741994 -0.386677
v 0.0052984953 -0.070265993 -0.385809
v 0.030978501 -0.058315992 -0.39536899
v 0.0059434772 -0.059503995 -0.39532501
v -0.019169509 -0.060293995 -0.39509198
v 0.0065515041 -0.045761991 -0.40091598
v -0.018671513 -0.046769992 -0.40095899
v -0.043784499 -0.047511995 -0.40082198
v -0.043438494 -0.032342993 -0.40615299
v -0.043245494 -0.016208993 -0.41187599
v -0.068324506 -0.016632993 -0.41172299
v 0.0566625 -0.024446992 -0.40761
v 0.032679498 -0.027525993 -0.40710899
v 0.080517471 -0.022015993 -0.40776101
v 0.12794644 -0.019803993 -0.40693399
v 0.10432655 -0.020534992 -0.40743598
v 0.15115649 -0.019334992 -0.40631798
v 0.19606847 -0.018427992 -0.405186
v 0.17394251 -0.018933993 -0.40570998
v 0.21743649 -0.017727993 -0.40495598
v 0.30536944 -0.100141 -0.33286798
v 0.30039054 -0.092044994 -0.34965399
v 0.2912305 -0.083572991 -0.367091
v 0.27124447 -0.085222997 -0.356426
v 0.28501946 -0.076534994 -0.38261598
v 0.26515454 -0.076094992 -0.37376499
v 0.28168255 -0.070000991 -0.394301
v 0.26172954 -0.06924399 -0.38672999
v 0.2786395 -0.030582992 -0.41074499
v 0.25805956 -0.015907994 -0.4086
v 0.23806447 -0.016857993 -0.40563399
v 0.2772035 -0.014975993 -0.414767
v 0.35276443 -0.109772 -0.337502
v 0.34797651 -0.10465999 -0.35835499
v 0.32726651 -0.099799991 -0.344533
v 0.34126848 -0.097515993 -0.378903
v 0.32039148 -0.093363993 -0.36398301
v 0.33363551 -0.089240991 -0.39702499
v 0.31182951 -0.085982993 -0.38157699
v 0.32730752 -0.08162199 -0.409798
v 0.30590647 -0.079372995 -0.39455399
v 0.32174355 -0.073061995 -0.42012998
v 0.30202156 -0.071648993 -0.40504
v 0.31734854 -0.060701992 -0.42890298
v 0.29959852 -0.059987992 -0.412646
v 0.31476849 -0.044992995 -0.43405598
v 0.31205148 -0.028849993 -0.43845201
v 0.2971155 -0.029214993 -0.42123199
v 0.30891544 -0.014055993 -0.442516
v 0.30891544 -0.014055993 -0.442516
v 0.29442853 -0.014190993 -0.42594299
v 0.29442853 -0.014190993 -0.42594299
v 0.32247645 -0.014267993 -0.462906
v 0.41082948 -0.085414991 0.017663008
v 0.41800457 -0.088654995 0.013767007
v 0.40513247 -0.080354996 0.020304007
v 0.41251653 -0.078721993 0.039174005
v 0.4178105 -0.08320199 0.037235007
v 0.40148145 -0.073880993 0.021746008
v 0.40871555 -0.072593994 0.040402006
v 0.41402155 -0.073399991 0.058348008
v 0.41816145 -0.07880199 0.057752006
v 0.40118343 -0.066696994 0.022688007
v 0.40714055 -0.065147996 0.040740006
v 0.41169149 -0.06531699 0.058199007
v 0.41968757 -0.074369997 0.074050009
v 0.42354554 -0.070547991 0.088716008
v 0.42813045 -0.073088996 0.089665011
v 0.42340654 -0.078410991 0.074441008
v 0.43407947 -0.075441994 0.089710005
v 0.42853457 -0.080696993 0.073870003
v 0.42343456 -0.082212992 0.056537006
v 0.43469852 -0.082492992 0.072542004
v 0.42940146 -0.084593996 0.054967009
v 0.42403346 -0.086858995 0.034718007
v 0.43609351 -0.087221995 0.052783009
v 0.43104547 -0.089570992 0.031448007
v 0.44192547 -0.092972994 0.025908006
v 0.41522247 -0.12696199 -0.372628
v 0.39503151 -0.11927799 -0.36063999
v 0.37426847 -0.11397599 -0.349096
v 0.39016849 -0.11244699 -0.384157
v 0.36929148 -0.10841899 -0.37166399
v 0.38377744 -0.10459499 -0.407664
v 0.36283654 -0.10075899 -0.39346099
v 0.37544256 -0.095506996 -0.430462
v 0.35512549 -0.091924995 -0.41349399
v 0.3651585 -0.087294996 -0.448313
v 0.34670955 -0.08396399 -0.428783
v 0.35491449 -0.077866994 -0.46281201
v 0.33855945 -0.075015992 -0.43998501
v 0.34754747 -0.063930996 -0.47267199
v 0.33204943 -0.061732993 -0.44881299
v 0.32899052 -0.045128994 -0.45457301
v 0.32576448 -0.029136993 -0.459346
v 0.38285357 -0.041715994 0.046417005
v 0.39160448 -0.042966992 0.044055007
v 0.38880652 -0.045583993 0.030759007
v 0.39548749 -0.047276992 0.028504007
v 0.39167446 -0.047304992 0.014319007
v 0.40160948 -0.060139991 0.024430007
v 0.40004748 -0.052612994 0.026281007
v 0.41937143 -0.027579993 0.095500007
v 0.42507654 -0.029969994 0.10305901
v 0.42554146 -0.053985994 0.098451003
v 0.44105345 -0.077330992 0.088754006
v 0.46759051 -0.087312996 0.074099004
v 0.45791954 -0.083818994 0.079453006
v 0.44904751 -0.08035899 0.084841006
v 0.45171243 -0.088518992 0.065275006
v 0.44176155 -0.084716991 0.07006301
v 0.44666344 -0.09087199 0.048143007
v 0.46368748 -0.092751995 0.059533007
v 0.46100849 -0.096843995 0.040495008
v 0.47977847 -0.10037799 0.051638007
v 0.46361452 -0.16669799 -0.40438199
v 0.44814748 -0.15201999 -0.395165
v 0.43297154 -0.137998 -0.38444498
v 0.4393695 -0.14892399 -0.42416701
v 0.42524153 -0.13362299 -0.41181999
v 0.4098205 -0.12010799 -0.39770299
v 0.41627949 -0.12703499 -0.43862298
v 0.40238243 -0.11154399 -0.42198101
v 0.40613943 -0.118738 -0.46473598
v 0.39322251 -0.10314599 -0.446448
v 0.39429647 -0.10861599 -0.48950601
v 0.3822785 -0.094308995 -0.46861699
v 0.38192052 -0.095309995 -0.50937301
v 0.37062556 -0.08366999 -0.48504201
v 0.37102348 -0.078988992 -0.52450502
v 0.36123651 -0.069346994 -0.49776798
v 0.50410551 -0.048378993 0.115816
v 0.50710946 -0.047670994 0.12973
v 0.52130252 -0.08877299 0.12480401
v 0.51710945 -0.08915399 0.10755201
v 0.54059345 -0.12779999 0.101303
v 0.49857253 -0.19367099 -0.41588101
v 0.47994143 -0.180465 -0.410842
v 0.48964649 -0.19179299 -0.44458699
v 0.47065049 -0.178085 -0.44051799
v 0.45428652 -0.16390999 -0.434167
v 0.45944053 -0.17463499 -0.47213098
v 0.44338149 -0.15989199 -0.46561998
v 0.42915553 -0.14386199 -0.45371699
v 0.43025857 -0.15377499 -0.50125098
v 0.41735548 -0.13648999 -0.48403698
v 0.40402848 -0.12553999 -0.51280898
v 0.39011854 -0.11005899 -0.53558302
v 0.37767345 -0.090663992 -0.55244797
v 0.51250547 -0.172712 -0.685269
v 0.48595947 -0.19268799 -0.63483
v 0.50143653 -0.19134299 -0.65257698
v 0.51902753 -0.18999 -0.66776401
v 0.53758949 -0.19149199 -0.68203199
v 0.53277642 -0.17540799 -0.70092797
v 0.51036149 -0.204025 -0.637429
v 0.52589041 -0.20349599 -0.65223801
v 0.54344648 -0.20356399 -0.66436899
v 0.56291753 -0.202971 -0.672005
v 0.56291753 -0.202971 -0.672005
v 0.55985552 -0.19079 -0.69050002
v 0.53296953 -0.211742 -0.63915896
v 0.54867154 -0.21132199 -0.649351
v 0.56557256 -0.21077199 -0.655523
v 0.56557256 -0.21077199 -0.655523
v 0.5831005 -0.20977899 -0.65766001
v 0.55345148 -0.21502799 -0.63585901
v 0.56759745 -0.214929 -0.64168698
v 0.58228952 -0.21455599 -0.64328802
v 0.59606844 -0.21416399 -0.64154202
v 0.5701105 -0.21502499 -0.62785101
v 0.58169252 -0.21442799 -0.62869501
v 0.57248348 -0.207895 -0.61508602
v 0.58211046 -0.206993 -0.615408
v 0.57585245 -0.20207 -0.601924
v 0.58560449 -0.20174599 -0.602754
v 0.59294754 -0.20109899 -0.59250998
v 0.58105356 -0.20124599 -0.59017301
v 0.59009451 -0.20084399 -0.57719398
v 0.60420948 -0.20089199 -0.58083397
v 0.56596047 -0.20248699 -0.60096198
v 0.58427852 -0.200738 -0.55949599
v 0.60017353 -0.20064099 -0.56246299
v 0.53908259 -0.21324599 -0.42262298
v 0.51548558 -0.208887 -0.47514698
v 0.52190751 -0.20896 -0.44837898
v 0.52781945 -0.20896 -0.42097899
v 0.53381747 -0.20905399 -0.39351198
v 0.54479748 -0.213028 -0.395657
v 0.50897247 -0.202915 -0.44722399
v 0.51630253 -0.20359299 -0.41925198
v 0.5540325 -0.21242499 -0.341232
v 0.54998249 -0.212743 -0.36854699
v 0.54998249 -0.212743 -0.36854699
v 0.56335551 -0.21190299 -0.28738299
v 0.55795747 -0.21153499 -0.31397799
v 0.57345849 -0.212295 -0.29114899
v 0.58060652 -0.20607899 -0.29379898
v 0.57590753 -0.20566499 -0.31971899
v 0.56794745 -0.211588 -0.317074
v 0.57254845 -0.20567799 -0.346515
v 0.56453949 -0.21193299 -0.34408501
v 0.56044751 -0.21196899 -0.37108201
v 0.65129644 -0.21479899 -0.60271299
v 0.64836651 -0.20882499 -0.62580699
v 0.64159352 -0.198744 -0.65007997
v 0.63082248 -0.18421799 -0.67809498
v 0.6121425 -0.17022999 -0.70581001
v 0.55731052 -0.17525499 -0.7094
v 0.58560747 -0.15493999 -0.72868097
v 0.51484448 -0.046004992 0.16972201
v 0.51081949 -0.046848994 0.148753
v 0.52823359 -0.08771199 0.166775
v 0.52519852 -0.088211991 0.14535901
v 0.54817051 -0.12489299 0.161584
v 0.54603845 -0.125588 0.14010201
v 0.59939653 -0.19986099 -0.29914001
v 0.58887547 -0.20106199 -0.29625198
v 0.59603852 -0.199727 -0.32498699
v 0.58496243 -0.20094 -0.32218701
v 0.5927065 -0.19972199 -0.35123098
v 0.58160549 -0.20094599 -0.34873798
v 0.66770655 -0.21254399 -0.56636798
v 0.68133956 -0.207452 -0.57229
v 0.67457753 -0.20901899 -0.59317601
v 0.66297847 -0.20932099 -0.61107099
v 0.67651051 -0.20016399 -0.62240797
v 0.65954643 -0.19945399 -0.63782102
v 0.65248352 -0.18428899 -0.66757298
v 0.63791543 -0.16735899 -0.69616598
v 0.61543947 -0.15117399 -0.72249597
v 0.53303152 -0.041813992 0.21121101
v 0.52218252 -0.044331994 0.19117601
v 0.54399449 -0.081239991 0.208838
v 0.53412551 -0.08559899 0.18870001
v 0.56327647 -0.11470199 0.20350401
v 0.55376846 -0.12142299 0.18349601
v 0.60871655 -0.19958399 -0.32818198
v 0.60585243 -0.19960999 -0.354166
v 0.67883652 -0.21197699 -0.50065899
v 0.67464358 -0.21228799 -0.52369297
v 0.68832248 -0.20664799 -0.52819997
v 0.68502551 -0.20682099 -0.550466
v 0.5559625 -0.036606994 0.25012201
v 0.54469258 -0.039206993 0.23030101
v 0.56462246 -0.071611993 0.24854101
v 0.55435258 -0.076304995 0.22833301
v 0.58278853 -0.10079499 0.243505
v 0.57318956 -0.10750899 0.223176
v 0.60304648 -0.12701899 0.239307
v 0.59503943 -0.134491 0.21812201
v 0.68371052 -0.212552 -0.397264
v 0.68033057 -0.21288399 -0.42304599
v 0.69236141 -0.21071199 -0.426272
v 0.68720657 -0.211256 -0.45177901
v 0.68242949 -0.21178 -0.47634098
v 0.69968349 -0.206112 -0.45550099
v 0.69516951 -0.20658 -0.480349
v 0.69170243 -0.20658599 -0.50479901
v 0.71338254 -0.19745599 -0.48556098
v 0.71074849 -0.19705099 -0.51093799
v 0.57588452 -0.032190993 0.291237
v 0.56629544 -0.034261994 0.27040002
v 0.58397347 -0.063098989 0.289639
v 0.57435042 -0.067193992 0.26901102
v 0.60008746 -0.089496993 0.28566301
v 0.59147853 -0.095004991 0.26449102
v 0.6179325 -0.11377999 0.282478
v 0.61063451 -0.12010899 0.26071301
v 0.63778549 -0.13517499 0.28039202
v 0.63192946 -0.14166899 0.258064
v 0.90811449 -0.11492899 0.093883008
v 0.9028365 -0.11215899 0.074505009
v 0.89811951 -0.11031 0.052916005
v 0.89369446 -0.10931899 0.030060006
v 0.88902456 -0.108514 0.0070860069
v 0.84659058 -0.12922899 -0.12673199
v 0.82540756 -0.15034099 -0.14581299
v 0.69058543 -0.21224599 -0.345449
v 0.6866315 -0.21180199 -0.37125701
v 0.69895154 -0.210623 -0.37394199
v 0.69595152 -0.21068199 -0.40020999
v 0.70793849 -0.20557699 -0.40311798
v 0.70423657 -0.20573099 -0.429654
v 0.71923751 -0.19778 -0.433382
v 0.59364945 -0.028791994 0.33428001
v 0.58494347 -0.030349992 0.312442
v 0.60030049 -0.056672994 0.33266902
v 0.59251243 -0.059572995 0.310891
v 0.61535054 -0.080928996 0.32881001
v 0.60817951 -0.084635995 0.30712101
v 0.63239843 -0.103485 0.32571802
v 0.62545151 -0.10800499 0.30419099
v 0.64964253 -0.12429199 0.32441902
v 0.64395744 -0.12919299 0.302448
v 0.71711642 -0.12593099 0.405036
v 0.68423659 -0.128914 0.364757
v 0.69026858 -0.125855 0.38589901
v 0.69531649 -0.11792799 0.40507001
v 0.66849858 -0.11318699 0.38710201
v 0.67574948 -0.10591999 0.40506801
v 0.67109543 -0.113718 0.44293401
v 0.65401751 -0.095327996 0.44348601
v 0.6578055 -0.094220996 0.46526501
v 0.67429644 -0.11241599 0.46400902
v 0.64051157 -0.073986992 0.44330001
v 0.64484245 -0.073251992 0.46556902
v 0.6622625 -0.093165994 0.48805299
v 0.62965256 -0.025376992 0.465152
v 0.63644153 -0.025396993 0.48869002
v 0.88035852 -0.099267989 0.300549
v 0.88091248 -0.10169899 0.27714601
v 0.89983946 -0.087592997 0.27831501
v 0.92654651 -0.031130994 0.138712
v 0.92272455 -0.062876992 0.137775
v 0.92980748 -0.029959993 0.114764
v 0.92513543 -0.060620993 0.11484601
v 0.91651446 -0.089555994 0.11380301
v 0.93009251 -0.060354993 0.094515003
v 0.9205125 -0.089293994 0.094336011
v 0.92604047 -0.059181992 0.073326007
v 0.91550952 -0.086826995 0.074161008
v 0.9207595 -0.058093995 0.050738007
v 0.9111895 -0.085296996 0.051782008
v 0.91558558 -0.057235993 0.027228007
v 0.9062795 -0.08411599 0.028599007
v 0.91062552 -0.056592993 0.0037500067
v 0.90147358 -0.083271995 0.0052630068
v 0.90567452 -0.056057993 -0.019643994
v 0.89664847 -0.082612991 -0.017958993
v 0.84217054 -0.12899999 -0.149931
v 0.83768851 -0.12883599 -0.17334899
v 0.83303553 -0.12863299 -0.196962
v 0.8124215 -0.15003699 -0.21680099
v 0.93566042 -0.030234993 0.093702003
v 0.85019141 -0.11813799 0.40506899
v 0.86701542 -0.10708499 0.40507001
v 0.85599548 -0.12842199 0.414745
v 0.61066943 -0.026955994 0.37754402
v 0.60249847 -0.027563993 0.35658902
v 0.61606556 -0.052919991 0.37478399
v 0.6081025 -0.054110993 0.35435802
v 0.62976748 -0.076157995 0.36971602
v 0.62253958 -0.07782799 0.349727
v 0.6456185 -0.097452991 0.36715701
v 0.63902348 -0.10001099 0.346701
v 0.66197354 -0.11749499 0.367098
v 0.65580755 -0.12029 0.34576601
v 0.67786342 -0.13246699 0.34347799
v 0.65224451 -0.09428899 0.38643199
v 0.63738948 -0.074370995 0.38778201
v 0.64503652 -0.070894994 0.40507001
v 0.62650949 -0.051211994 0.39088002
v 0.63578552 -0.048603993 0.40507001
v 0.63084847 -0.024428993 0.40506601
v 0.62178856 -0.025773993 0.39184302
v 0.79940552 -0.0071939933 0.78344798
v 0.80896252 -0.0080939932 0.78471899
v 0.80716258 -0.018050993 0.78201103
v 0.81709844 -0.0095139928 0.78481603
v 0.93137842 -0.029663993 0.072661005
v 0.92718452 -0.029413993 0.049591009
v 0.92094749 -0.028881993 0.026204007
v 0.84189349 -0.105069 -0.22428799
v 0.8283245 -0.12841599 -0.22074699
v 0.83730251 -0.10496999 -0.24824099
v 0.82368749 -0.12825999 -0.244737
v 0.8077305 -0.149721 -0.240844
v 0.81917852 -0.128179 -0.268942
v 0.80312043 -0.14950399 -0.265127
v 0.79863745 -0.149352 -0.28965399
v 0.84954244 -0.026799994 -0.30279198
v 0.83239442 -0.10470899 -0.27229598
v 0.50014347 -0.20157599 -0.47506601
v 0.47878951 -0.18896899 -0.474114
v 0.48910743 -0.19919999 -0.50407201
v 0.46572548 -0.185206 -0.50772101
v 0.44477755 -0.16918099 -0.51116699
v 0.47484857 -0.19585799 -0.53602201
v 0.49729747 -0.206001 -0.52922601
v 0.46172351 -0.19642499 -0.56776696
v 0.48147851 -0.20500599 -0.58126599
v 0.46337146 -0.19322599 -0.59364098
v 0.44992453 -0.177655 -0.60800701
v 0.48651749 -0.20438699 -0.60115898
v 0.4970265 -0.20455299 -0.62027097
v 0.50086957 -0.21142699 -0.59139502
v 0.50817353 -0.211844 -0.60922897
v 0.51922256 -0.211964 -0.62549502
v 0.51917249 -0.21456999 -0.60089898
v 0.52832943 -0.21515599 -0.61560798
v 0.54020554 -0.215342 -0.62713599
v 0.51462847 -0.21435699 -0.58512902
v 0.51500255 -0.214525 -0.56779802
v 0.49928051 -0.21122299 -0.57278001
v 0.50426155 -0.211137 -0.55082202
v 0.52061158 -0.215241 -0.54740101
v 0.51368958 -0.212598 -0.52595198
v 0.78771645 -0.0067719929 0.78007001
v 0.80447251 -0.021678993 0.78007001
f 3 6 4
f 6 7 4
f 7 9 8
f 9 10 8
f 10 12 11
f 13 14 15
f 13 16 14
f 16 17 14
f 18 19 15
f 18 15 14
f 20 21 22
f 26 27 28
f 29 30 31
f 32 33 34
f 32 34 21
f 34 33 35
f 34 35 36
f 34 36 23
f 34 23 21
f 37 38 39
f 42 41 43
f 42 43 44
f 45 47 24
f 47 46 48
f 47 48 49
f 47 49 50
f 47 50 27
f 47 27 25
f 52 53 54
f 52 54 33
f 54 53 55
f 54 55 56
f 54 56 35
f 54 35 33
f 58 40 39
f 58 39 38
f 58 57 59
f 63 64 65
f 63 65 48
f 65 64 66
f 68 67 69
f 68 69 70
f 68 70 53
f 68 53 51
f 70 69 71
f 70 72 55
f 70 55 53
f 73 74 75
f 73 75 59
f 75 74 76
f 75 77 78
f 75 78 60
f 78 61 60
f 78 80 62
f 82 81 83
f 83 79 84
f 83 66 64
f 85 86 67
f 85 67 585
f 86 69 67
f 87 88 89
f 87 89 90
f 90 89 91
f 90 91 92
f 95 94 96
f 102 101 103
f 102 103 104
f 106 108 109
f 106 110 88
f 110 89 88
f 111 112 113
f 111 113 94
f 111 94 93
f 115 117 100
f 114 98 97
f 117 116 118
f 117 118 119
f 121 122 123
f 121 123 105
f 121 105 104
f 121 104 103
f 123 122 124
f 123 124 125
f 123 125 126
f 126 125 127
f 126 127 128
f 126 128 129
f 129 128 130
f 129 130 131
f 129 131 132
f 129 132 133
f 129 133 108
f 129 108 107
f 133 132 134
f 133 134 135
f 133 135 109
f 133 109 108
f 136 137 138
f 136 138 120
f 136 120 119
f 136 119 118
f 138 137 139
f 138 139 140
f 144 145 146
f 144 146 127
f 144 127 125
f 144 125 124
f 146 145 147
f 146 147 148
f 146 148 149
f 146 149 130
f 146 130 128
f 146 128 127
f 149 148 143
f 149 143 142
f 149 142 141
f 149 141 150
f 149 150 131
f 149 131 130
f 150 141 140
f 150 140 139
f 150 139 132
f 150 132 131
f 148 147 151
f 148 151 143
f 151 147 152
f 151 152 153
f 155 153 152
f 159 158 160
f 166 165 167
f 166 167 168
f 166 168 169
f 166 169 170
f 170 169 171
f 170 171 172
f 174 173 175
f 174 175 176
f 174 176 158
f 176 175 177
f 176 177 178
f 176 178 160
f 176 160 158
f 181 180 182
f 181 182 183
f 188 187 189
f 188 190 167
f 188 167 165
f 188 165 164
f 190 168 167
f 191 169 168
f 192 171 169
f 194 193 195
f 194 195 196
f 196 195 197
f 196 197 198
f 198 197 199
f 198 199 200
f 198 200 180
f 198 180 179
f 200 199 201
f 200 201 202
f 200 202 182
f 200 182 180
f 204 203 205
f 204 205 186
f 204 186 185
f 205 203 206
f 205 206 207
f 209 210 211
f 209 211 195
f 211 210 212
f 211 212 213
f 211 213 197
f 211 197 195
f 213 212 214
f 213 214 215
f 213 215 199
f 213 199 197
f 215 214 216
f 215 216 217
f 215 217 201
f 215 201 199
f 217 216 218
f 217 218 219
f 223 208 207
f 223 207 206
f 224 222 227
f 224 227 228
f 231 232 233
f 231 233 210
f 233 232 234
f 233 234 235
f 233 235 212
f 233 212 210
f 235 234 236
f 235 236 237
f 235 237 214
f 235 214 212
f 237 236 238
f 237 238 239
f 237 239 216
f 237 216 214
f 239 238 240
f 239 240 241
f 239 241 218
f 239 218 216
f 241 240 242
f 241 242 243
f 241 243 220
f 241 220 218
f 243 242 244
f 243 244 245
f 243 245 221
f 243 221 220
f 245 244 246
f 245 246 227
f 245 227 222
f 245 222 221
f 246 244 247
f 246 247 248
f 246 248 249
f 246 249 230
f 246 230 228
f 246 228 227
f 249 248 250
f 251 242 240
f 252 244 242
f 263 264 265
f 265 264 266
f 265 266 267
f 265 258 257
f 275 274 276
f 275 276 277
f 279 278 280
f 279 280 281
f 279 281 282
f 279 282 259
f 282 281 283
f 282 283 284
f 282 284 285
f 282 285 260
f 285 284 286
f 285 286 287
f 285 287 288
f 291 293 266
f 293 292 294
f 293 294 295
f 293 295 268
f 293 268 266
f 298 297 299
f 298 299 300
f 298 300 301
f 298 301 269
f 301 300 302
f 301 302 303
f 301 303 304
f 301 304 271
f 301 271 270
f 301 270 269
f 304 273 272
f 305 283 281
f 305 281 280
f 306 286 284
f 306 284 283
f 307 287 286
f 311 310 312
f 314 313 315
f 314 315 316
f 319 318 320
f 319 320 321
f 319 321 322
f 319 322 296
f 322 321 323
f 322 323 324
f 322 324 325
f 322 325 326
f 332 331 333
f 332 333 334
f 332 334 299
f 332 299 297
f 334 333 335
f 334 335 336
f 334 336 337
f 334 337 299
f 337 302 300
f 337 300 299
f 341 312 310
f 344 345 346
f 344 346 317
f 346 345 347
f 346 347 348
f 346 348 349
f 346 349 320
f 346 320 318
f 346 318 317
f 349 348 350
f 349 350 351
f 349 351 352
f 349 352 323
f 349 323 321
f 349 321 320
f 352 351 353
f 352 353 354
f 352 354 355
f 352 355 356
f 352 356 324
f 352 324 323
f 356 355 357
f 356 357 358
f 356 358 325
f 356 325 324
f 361 360 362
f 361 362 363
f 361 363 364
f 364 363 365
f 364 365 366
f 364 366 367
f 364 367 328
f 364 328 327
f 367 366 368
f 367 368 369
f 367 369 370
f 367 370 330
f 367 330 329
f 367 329 328
f 370 369 371
f 370 371 372
f 370 372 335
f 370 335 333
f 370 333 331
f 370 331 330
f 372 371 373
f 374 375 376
f 374 376 338
f 376 377 378
f 383 382 384
f 383 384 385
f 385 384 386
f 385 386 387
f 387 386 388
f 389 343 342
f 390 388 391
f 390 391 392
f 392 391 394
f 392 394 395
f 392 395 396
f 392 396 393
f 396 397 398
f 396 398 393
f 396 395 399
f 396 399 400
f 396 400 401
f 396 401 397
f 401 402 403
f 401 403 397
f 401 400 404
f 401 404 405
f 401 405 406
f 401 406 402
f 406 407 408
f 406 408 402
f 406 405 409
f 406 409 410
f 406 410 411
f 406 411 407
f 411 412 413
f 411 413 407
f 411 410 414
f 411 414 415
f 411 415 416
f 411 416 412
f 416 417 418
f 416 418 412
f 416 415 419
f 416 419 420
f 416 420 421
f 416 421 417
f 421 422 423
f 421 423 417
f 421 420 424
f 421 424 425
f 421 425 426
f 421 426 422
f 429 423 422
f 430 431 432
f 430 432 418
f 430 418 417
f 430 417 423
f 432 433 434
f 432 434 413
f 432 413 412
f 432 412 418
f 434 435 408
f 434 408 407
f 434 407 413
f 435 403 402
f 435 402 408
f 439 438 440
f 439 440 441
f 439 441 442
f 439 442 347
f 439 347 345
f 442 441 443
f 442 443 444
f 442 444 445
f 442 445 350
f 442 350 348
f 442 348 347
f 445 444 446
f 445 446 447
f 445 447 448
f 445 448 353
f 445 353 351
f 445 351 350
f 448 447 449
f 448 449 450
f 448 450 451
f 448 451 452
f 448 452 354
f 448 354 353
f 452 451 453
f 452 453 454
f 452 454 355
f 452 355 354
f 454 453 455
f 454 455 456
f 454 456 357
f 454 357 355
f 456 455 457
f 456 457 458
f 457 455 459
f 457 459 460
f 460 459 461
f 460 461 462
f 462 461 463
f 462 463 464
f 464 463 465
f 464 465 359
f 465 463 466
f 465 466 467
f 465 467 468
f 465 468 362
f 465 362 360
f 465 360 359
f 468 467 469
f 468 469 470
f 468 470 471
f 468 471 365
f 468 365 363
f 468 363 362
f 471 470 472
f 471 472 473
f 471 473 474
f 471 474 368
f 471 368 366
f 471 366 365
f 474 473 475
f 474 475 476
f 474 476 373
f 474 373 371
f 474 371 369
f 474 369 368
f 484 486 381
f 486 487 488
f 488 487 489
f 488 489 490
f 490 489 399
f 490 399 491
f 490 491 384
f 490 384 382
f 491 399 395
f 491 395 394
f 491 394 386
f 491 386 384
f 489 404 400
f 489 400 399
f 489 487 492
f 489 492 404
f 492 409 405
f 492 405 404
f 492 487 485
f 492 485 493
f 492 493 494
f 492 494 409
f 494 414 410
f 494 410 409
f 494 493 495
f 494 495 496
f 494 496 497
f 494 497 414
f 497 419 415
f 497 415 414
f 497 496 498
f 497 498 499
f 497 499 500
f 497 500 419
f 500 424 420
f 500 420 419
f 500 499 501
f 500 501 502
f 500 502 503
f 500 503 424
f 503 427 425
f 503 425 424
f 508 498 496
f 508 496 495
f 505 501 499
f 505 499 498
f 512 511 513
f 512 513 514
f 514 513 515
f 514 515 516
f 515 513 518
f 515 518 517
f 518 513 511
f 518 511 509
f 495 493 485
f 519 478 477
f 519 477 520
f 519 520 521
f 519 521 436
f 521 520 522
f 521 522 523
f 521 523 524
f 521 524 437
f 524 523 525
f 524 525 526
f 524 526 527
f 524 527 440
f 524 440 438
f 524 438 437
f 527 526 528
f 527 528 529
f 527 530 443
f 527 443 441
f 527 441 440
f 530 529 531
f 530 531 532
f 530 532 533
f 530 533 446
f 530 446 444
f 530 444 443
f 533 532 534
f 533 534 535
f 533 535 536
f 533 536 449
f 533 449 447
f 533 447 446
f 536 535 537
f 536 537 538
f 536 538 539
f 536 539 540
f 536 540 450
f 536 450 449
f 540 539 541
f 540 541 542
f 540 542 451
f 540 451 450
f 542 541 543
f 542 543 544
f 542 544 453
f 542 453 451
f 544 543 461
f 544 461 459
f 544 459 455
f 544 455 453
f 543 541 545
f 543 545 466
f 543 466 463
f 543 463 461
f 545 541 539
f 545 539 546
f 545 546 547
f 545 547 469
f 545 469 467
f 545 467 466
f 547 546 548
f 547 548 549
f 547 549 550
f 547 550 472
f 547 472 470
f 547 470 469
f 550 549 551
f 550 551 552
f 550 475 473
f 550 473 472
f 559 560 561
f 559 558 562
f 559 562 563
f 559 563 564
f 559 564 560
f 564 525 565
f 564 565 560
f 564 563 566
f 564 566 528
f 564 528 526
f 564 526 525
f 566 563 562
f 566 562 567
f 566 567 568
f 566 568 531
f 566 531 529
f 566 529 528
f 568 567 569
f 568 569 570
f 568 570 571
f 568 571 534
f 568 534 532
f 568 532 531
f 571 570 572
f 571 573 574
f 571 574 537
f 571 537 535
f 571 535 534
f 574 553 551
f 574 551 549
f 574 549 548
f 574 548 538
f 574 538 537
f 575 572 576
f 575 576 577
f 575 577 578
f 575 578 554
f 578 577 579
f 578 579 580
f 581 582 557
f 581 579 577
f 581 577 576
f 581 576 569
f 581 569 582
f 582 562 558
f 582 558 557
f 582 569 567
f 582 567 562
f 576 572 570
f 576 570 569
f 565 522 583
f 565 583 584
f 565 584 561
f 565 561 560
f 565 525 523
f 565 523 522
f 583 522 520
f 583 520 477
f 548 546 539
f 548 539 538
f 394 391 388
f 394 388 386
f 152 147 145
f 139 137 134
f 139 134 132
f 592 591 590
f 592 590 586
f 595 594 593
f 595 593 586
f 599 601 600
f 599 600 587
f 604 603 602
f 604 602 587
f 600 605 604
f 600 604 587
f 609 608 607
f 609 607 588
f 606 611 610
f 606 610 588
f 612 602 603
f 612 603 589
f 614 613 612
f 614 612 589
f 603 615 614
f 603 614 589
f 5 618 3
f 618 2 3
f 618 620 619
f 622 621 620
f 618 622 620
f 625 624 623
f 630 629 627
f 630 627 628
f 598 624 631
f 598 631 630
f 634 632 633
f 626 627 634
f 626 634 633
f 637 636 635
f 638 636 637
f 644 643 641
f 644 641 642
f 635 636 644
f 635 644 642
f 646 645 643
f 646 643 644
f 636 646 644
f 650 649 647
f 650 647 648
f 639 651 650
f 639 650 648
f 653 652 650
f 653 650 651
f 640 656 655
f 661 660 658
f 661 658 659
f 641 643 661
f 641 661 659
f 663 662 660
f 663 660 661
f 643 645 663
f 643 663 661
f 667 666 664
f 667 664 665
f 649 650 652
f 649 652 668
f 652 670 669
f 652 669 668
f 652 653 654
f 652 654 670
f 672 671 669
f 672 669 670
f 654 673 672
f 654 672 670
f 657 658 677
f 679 678 676
f 679 676 677
f 658 660 679
f 658 679 677
f 681 680 678
f 681 678 679
f 660 662 681
f 660 681 679
f 685 684 682
f 685 682 683
f 664 666 685
f 664 685 683
f 690 689 687
f 690 687 688
f 671 691 690
f 671 690 688
f 671 672 674
f 671 674 691
f 696 695 693
f 696 693 694
f 699 697 698
f 675 699 698
f 702 701 700
f 704 703 701
f 704 701 702
f 676 678 704
f 676 704 702
f 706 705 703
f 706 703 704
f 678 680 706
f 678 706 704
f 711 710 708
f 711 708 709
f 713 712 710
f 713 710 711
f 682 684 713
f 682 713 711
f 686 687 689
f 686 689 714
f 692 693 695
f 718 717 715
f 718 715 716
f 701 703 718
f 701 718 716
f 720 719 717
f 720 717 718
f 703 705 720
f 703 720 718
f 723 722 721
f 725 724 722
f 725 722 723
f 727 726 724
f 727 724 725
f 707 727 725
f 708 710 729
f 731 730 728
f 710 712 731
f 738 737 735
f 738 735 736
f 715 717 738
f 715 738 736
f 740 739 737
f 740 737 738
f 717 719 740
f 717 740 738
f 722 724 741
f 732 733 744
f 732 744 742
f 746 745 743
f 746 743 744
f 733 734 746
f 733 746 744
f 748 747 745
f 748 745 746
f 734 749 748
f 734 748 746
f 735 737 748
f 735 748 749
f 737 739 747
f 737 747 748
f 752 751 750
f 753 756 755
f 758 757 755
f 758 755 756
f 754 758 756
f 760 759 758
f 768 765 766
f 769 768 766
f 761 772 770
f 761 770 771
f 759 760 761
f 761 762 763
f 761 763 772
f 100 117 773
f 764 99 100
f 119 774 773
f 119 773 117
f 778 777 775
f 778 775 776
f 781 780 778
f 781 778 779
f 767 782 781
f 767 781 779
f 784 783 781
f 784 781 782
f 786 785 784
f 786 784 782
f 767 768 786
f 120 138 788
f 120 788 787
f 774 119 120
f 774 120 787
f 140 789 788
f 140 788 138
f 777 792 791
f 777 791 790
f 794 793 791
f 794 791 792
f 780 795 794
f 780 794 792
f 777 778 780
f 777 780 792
f 797 796 794
f 797 794 795
f 783 798 797
f 783 797 795
f 780 781 783
f 780 783 795
f 142 143 797
f 142 797 798
f 799 141 142
f 799 142 798
f 783 784 799
f 783 799 798
f 789 140 141
f 789 141 799
f 784 785 789
f 784 789 799
f 143 151 796
f 143 796 797
f 153 800 796
f 153 796 151
f 805 804 802
f 805 802 803
f 800 153 154
f 801 810 809
f 812 811 809
f 812 809 810
f 804 813 812
f 804 812 810
f 801 802 804
f 801 804 810
f 819 818 816
f 819 816 817
f 806 820 819
f 806 819 817
f 822 821 819
f 822 819 820
f 807 822 820
f 824 823 822
f 808 825 824
f 827 824 825
f 811 827 825
f 808 811 825
f 832 831 829
f 832 829 830
f 815 833 832
f 815 832 830
f 835 834 832
f 835 832 833
f 818 836 835
f 818 835 833
f 815 816 818
f 815 818 833
f 818 819 821
f 818 821 836
f 839 838 837
f 823 828 839
f 821 822 823
f 831 832 834
f 1 840 841
f 156 842 840
f 157 161 843
f 157 843 844
f 842 156 157
f 842 157 844
f 162 845 843
f 162 843 161
f 163 184 846
f 163 846 847
f 845 162 163
f 845 163 847
f 185 848 846
f 185 846 184
f 854 853 851
f 854 851 852
f 856 855 853
f 856 853 854
f 186 205 858
f 186 858 859
f 848 185 186
f 848 186 859
f 207 860 858
f 207 858 205
f 849 850 865
f 849 865 863
f 867 866 864
f 867 864 865
f 850 851 867
f 850 867 865
f 869 868 866
f 869 866 867
f 851 853 869
f 851 869 867
f 871 870 868
f 871 868 869
f 853 855 871
f 853 871 869
f 873 872 870
f 873 870 871
f 879 877 875
f 879 875 876
f 857 860 880
f 208 226 878
f 208 878 880
f 860 207 208
f 860 208 880
f 229 881 877
f 229 877 225
f 882 886 885
f 882 885 884
f 885 888 887
f 885 887 884
f 885 890 889
f 885 889 888
f 892 891 887
f 892 887 888
f 889 893 892
f 889 892 888
f 889 894 615
f 889 615 893
f 604 605 892
f 604 892 893
f 615 603 604
f 615 604 893
f 897 896 895
f 897 895 894
f 889 890 897
f 889 897 894
f 895 614 615
f 895 615 894
f 899 898 896
f 899 896 897
f 890 900 899
f 890 899 897
f 902 901 899
f 902 899 900
f 886 903 902
f 886 902 900
f 890 885 886
f 890 886 900
f 905 904 902
f 905 902 903
f 883 905 903
f 886 882 883
f 886 883 903
f 911 910 908
f 911 908 909
f 861 862 911
f 861 911 909
f 913 912 910
f 913 910 911
f 862 864 913
f 862 913 911
f 915 914 912
f 915 912 913
f 864 866 915
f 864 915 913
f 917 916 914
f 917 914 915
f 866 868 917
f 866 917 915
f 919 918 916
f 919 916 917
f 868 870 919
f 868 919 917
f 921 920 918
f 921 918 919
f 870 872 921
f 870 921 919
f 922 920 921
f 872 874 922
f 872 922 921
f 874 875 923
f 874 923 922
f 875 877 881
f 875 881 923
f 926 925 924
f 928 927 926
f 929 605 600
f 929 600 930
f 600 601 927
f 600 927 930
f 891 892 605
f 891 605 929
f 601 925 926
f 601 926 927
f 612 613 931
f 613 614 895
f 613 895 933
f 932 613 933
f 939 938 936
f 939 936 937
f 934 901 939
f 934 939 937
f 904 940 938
f 904 938 939
f 901 902 904
f 901 904 939
f 942 941 938
f 942 938 940
f 906 942 940
f 904 905 906
f 904 906 940
f 948 947 945
f 948 945 946
f 907 949 948
f 907 948 946
f 951 950 948
f 951 948 949
f 910 912 951
f 910 951 949
f 907 908 910
f 907 910 949
f 953 952 950
f 953 950 951
f 912 914 953
f 912 953 951
f 955 954 952
f 955 952 953
f 914 916 955
f 914 955 953
f 957 956 954
f 957 954 955
f 916 918 957
f 916 957 955
f 959 958 956
f 959 956 957
f 918 920 959
f 918 959 957
f 608 960 254
f 608 254 255
f 256 607 608
f 256 608 255
f 963 962 961
f 963 961 960
f 608 609 963
f 608 963 960
f 961 253 254
f 961 254 960
f 964 962 963
f 968 967 965
f 968 965 966
f 944 969 968
f 944 968 966
f 971 970 968
f 971 968 969
f 947 972 971
f 947 971 969
f 944 945 947
f 944 947 969
f 974 973 971
f 974 971 972
f 950 952 974
f 950 974 972
f 947 948 950
f 947 950 972
f 975 595 973
f 975 973 974
f 952 954 975
f 952 975 974
f 976 594 595
f 976 595 975
f 954 956 976
f 954 976 975
f 977 594 976
f 956 958 977
f 956 977 976
f 978 981 980
f 978 983 982
f 978 982 981
f 985 984 980
f 985 980 981
f 982 986 985
f 982 985 981
f 982 989 987
f 982 987 986
f 991 990 985
f 991 985 986
f 987 992 991
f 987 991 986
f 988 994 993
f 994 997 996
f 994 996 993
f 994 998 997
f 998 1000 997
f 1002 1001 999
f 1004 1003 1001
f 1004 1001 1002
f 596 597 1004
f 596 1004 1002
f 1005 1006 1003
f 1005 1008 1007
f 1005 1007 1006
f 1007 1011 1010
f 1012 1015 1014
f 1012 1017 1016
f 1012 1016 1015
f 1019 1014 1015
f 1016 1019 1015
f 1016 1017 1021
f 1028 1027 1026
f 1028 1026 1025
f 1023 1024 1028
f 1023 1028 1025
f 1030 1029 1027
f 1030 1027 1028
f 1024 1020 1030
f 1024 1030 1028
f 1031 1029 1030
f 1020 1022 1031
f 1020 1031 1030
f 989 982 983
f 989 983 1037
f 1040 1039 261
f 1040 261 262
f 253 961 1040
f 253 1040 262
f 1042 1041 1039
f 1042 1039 1040
f 961 962 1042
f 961 1042 1040
f 1044 1043 1041
f 1044 1041 1042
f 962 1044 1042
f 1048 1047 1045
f 1048 1045 1046
f 1026 1027 1048
f 1026 1048 1046
f 1050 1049 1047
f 1050 1047 1048
f 1027 1029 1050
f 1027 1050 1048
f 1053 1052 1051
f 1032 1054 1053
f 1055 1053 1054
f 1033 1056 1055
f 1033 1055 1054
f 1033 1034 1056
f 1034 1035 1057
f 1035 1036 1058
f 1036 1038 1059
f 1061 1060 289
f 1061 289 290
f 261 1039 1061
f 261 1061 290
f 1063 1062 1060
f 1063 1060 1061
f 1039 1041 1063
f 1039 1063 1061
f 1065 1064 1062
f 1065 1062 1063
f 1041 1043 1065
f 1041 1065 1063
f 1045 1047 1066
f 1047 1049 1067
f 1047 1067 1066
f 1071 1070 1069
f 1051 1052 1071
f 1073 1072 308
f 1073 308 309
f 289 1060 1073
f 289 1073 309
f 1075 1074 1072
f 1075 1072 1073
f 1060 1062 1075
f 1060 1075 1073
f 1077 1076 1074
f 1077 1074 1075
f 1062 1064 1077
f 1062 1077 1075
f 1079 1078 1076
f 1079 1076 1077
f 1064 1079 1077
f 1086 1085 1083
f 1086 1083 1084
f 1068 1087 1086
f 1089 1086 1087
f 1070 1089 1087
f 1068 1070 1087
f 1091 1090 339
f 1091 339 340
f 308 1072 1091
f 308 1091 340
f 1093 1092 1090
f 1093 1090 1091
f 1072 1074 1093
f 1072 1093 1091
f 1095 1094 1092
f 1095 1092 1093
f 1074 1076 1095
f 1074 1095 1093
f 1097 1096 1094
f 1097 1094 1095
f 1076 1078 1097
f 1076 1097 1095
f 1099 1096 1097
f 1109 1107 1108
f 1080 1110 1109
f 1080 1109 1108
f 1111 1109 1110
f 1082 1112 1111
f 1082 1111 1110
f 1080 1081 1082
f 1080 1082 1110
f 1085 1113 1112
f 1082 1083 1085
f 1082 1085 1112
f 1085 1086 1088
f 1115 1114 379
f 1115 379 380
f 339 1090 1115
f 339 1115 380
f 1117 1116 1114
f 1117 1114 1115
f 1090 1092 1117
f 1090 1117 1115
f 1119 1118 1116
f 1119 1116 1117
f 1092 1094 1119
f 1092 1119 1117
f 1121 1120 1118
f 1121 1118 1119
f 1094 1096 1121
f 1094 1121 1119
f 1123 1122 1120
f 1123 1120 1121
f 1096 1098 1123
f 1096 1123 1121
f 1124 1127 1126
f 1129 1126 1127
f 1130 1133 1132
f 1130 1132 1131
f 1132 1135 1134
f 1132 1134 1131
f 1136 1132 1133
f 1145 1144 1142
f 1145 1142 1143
f 616 1145 1143
f 1148 1147 1145
f 1148 1145 1146
f 1150 1149 1147
f 1150 1147 1148
f 1100 1101 1150
f 1100 1150 1148
f 1152 1151 1149
f 1152 1149 1150
f 1101 1102 1152
f 1101 1152 1150
f 1154 1153 1151
f 1154 1151 1152
f 1102 1103 1154
f 1102 1154 1152
f 1156 1155 1153
f 1156 1153 1154
f 1103 1104 1156
f 1103 1156 1154
f 1158 1157 1155
f 1158 1155 1156
f 1104 1158 1156
f 1106 1160 1159
f 1105 1106 1159
f 1139 1140 1141
f 1166 1164 1165
f 1168 1167 482
f 1168 482 483
f 379 1114 1168
f 379 1168 483
f 1170 1169 1167
f 1170 1167 1168
f 1114 1116 1170
f 1114 1170 1168
f 1172 1171 1169
f 1172 1169 1170
f 1116 1118 1172
f 1116 1172 1170
f 1174 1173 1171
f 1174 1171 1172
f 1118 1120 1174
f 1118 1174 1172
f 1176 1175 1173
f 1176 1173 1174
f 1120 1122 1176
f 1120 1176 1174
f 1177 1125 1175
f 1177 1175 1176
f 1122 1177 1176
f 1125 1126 1128
f 1125 1128 1175
f 1128 1173 1175
f 1179 1171 1173
f 1179 1173 1178
f 1182 1181 1179
f 1182 1179 1180
f 1137 1138 428
f 1137 428 504
f 1184 506 507
f 482 1167 1184
f 482 1184 507
f 1181 1182 1183
f 1181 1183 1184
f 1167 1169 1181
f 1167 1181 1184
f 1186 509 510
f 1186 510 1185
f 617 1187 1186
f 617 1186 1185
f 509 1186 1188
f 509 1188 518
f 1169 1171 1179
f 1169 1179 1181
f 1189 480 481
f 1189 481 1163
f 1147 1149 1189
f 1147 1189 1163
f 1144 1145 1147
f 1144 1147 1163
f 1190 479 480
f 1190 480 1189
f 1149 1151 1190
f 1149 1190 1189
f 1151 1153 1191
f 1151 1191 1190
f 1161 1193 1192
f 1195 1194 1192
f 1195 1192 1193
f 1162 1195 1193
f 1198 1197 1195
f 1198 1195 1196
f 1200 555 556
f 1194 1195 1197
f 1194 1197 1201
f 1197 1198 1199
f 965 967 1018
f 965 1018 1019
f 967 1203 1202
f 967 1202 1018
f 1205 1204 1202
f 1205 1202 1203
f 970 1206 1205
f 970 1205 1203
f 967 968 970
f 967 970 1203
f 586 590 1205
f 586 1205 1206
f 973 595 586
f 973 586 1206
f 970 971 973
f 970 973 1206
f 590 1207 1204
f 590 1204 1205
f 590 591 1209
f 590 1209 1207
f 591 1212 1211
f 591 1211 1209
f 979 980 984
f 979 984 1214
f 1216 1215 1213
f 1216 1213 1214
f 984 1217 1216
f 984 1216 1214
f 984 985 990
f 984 990 1217
f 1219 1218 1216
f 1219 1216 1217
f 990 1220 1219
f 990 1219 1217
f 990 991 995
f 990 995 1220
f 1001 1003 1009
f 1215 1216 1218
f 1215 1218 1221
f 1222 1223 1215
f 1222 1215 1221
f 1222 1225 1224
f 1222 1224 1223
f 1210 1215 1223
f 1224 1210 1223
f 1208 1224 1226
f 1013 1202 1204
f 611 935 941
f 611 941 943
f 935 936 938
f 935 938 941
f 898 899 901
f 898 901 934
f 823 824 826
f 811 812 814
f 793 794 796
f 793 796 800
f 617 1228 1187
f 1185 1227 617
