# Converted from RoboDojo wrench/00001; source geometry preserved.
v 0.006992068 -0.080109239 0.003078125
v 0.003948814 -0.081047340 0.003077523
v 0.001008642 -0.084615273 0.003077523
v 0.006992068 -0.082544077 0.003078125
v 0.006992068 -0.079540059 0.002784656
v 0.001008642 -0.082600468 0.003076920
v 0.003836361 -0.080775395 0.002784656
v 0.001008642 -0.082138800 0.002784656
v 0.001008642 -0.084624759 0.003077523
v 0.005093841 -0.083812093 0.003077523
v 0.006992068 -0.082709563 0.002940731
v 0.006992068 -0.079540059 0.002774411
v 0.003836361 -0.080772758 -0.002784642
v 0.001008642 -0.082135636 -0.002784642
v 0.001008642 -0.084923051 0.002785258
v 0.005208051 -0.084088250 0.002784656
v 0.006992068 -0.082896654 0.002784656
v 0.006992068 -0.079540586 -0.002785245
v 0.003949399 -0.081044177 -0.003077509
v 0.001008642 -0.082598888 -0.003078112
v 0.001008642 -0.084923578 -0.000026508
v 0.005208051 -0.084088250 -0.000026508
v 0.006992068 -0.082896654 -0.000026508
v 0.006992068 -0.080106606 -0.003077509
v 0.001008642 -0.084612636 -0.003078112
v 0.001008642 -0.084920946 -0.002784642
v 0.005208637 -0.084085617 -0.002784642
v 0.006992068 -0.082895601 -0.001405877
v 0.006992068 -0.082541445 -0.003077509
v 0.005094427 -0.083809456 -0.003077509
v 0.001008642 -0.084622653 -0.003076907
v 0.006992068 -0.082894022 -0.002784642
v 0.006992068 -0.082723266 -0.002926858
f 1 2 3
f 1 3 9
f 1 9 4
f 1 4 11
f 1 11 17
f 1 17 23
f 1 23 28
f 1 28 32
f 1 32 33
f 1 33 29
f 1 29 24
f 1 24 18
f 1 18 12
f 1 12 5
f 1 5 2
f 2 6 3
f 2 5 7
f 2 7 8
f 2 8 6
f 3 6 8
f 3 8 14
f 3 14 20
f 3 20 25
f 3 25 31
f 3 31 26
f 3 26 21
f 3 21 15
f 3 15 9
f 4 9 10
f 4 10 11
f 5 12 13
f 5 13 7
f 7 13 14
f 7 14 8
f 9 15 10
f 10 15 16
f 10 16 11
f 11 16 17
f 12 18 13
f 13 18 19
f 13 19 14
f 14 19 20
f 15 21 16
f 16 22 23
f 16 23 17
f 16 21 22
f 18 24 19
f 19 24 20
f 20 24 29
f 20 29 25
f 21 26 27
f 21 27 22
f 22 27 28
f 22 28 23
f 25 29 30
f 25 30 31
f 26 31 30
f 26 30 27
f 27 32 28
f 27 30 33
f 27 33 32
f 29 33 30
