# Converted from RoboDojo wrench/00001; source geometry preserved.
v -0.013628268 0.069921626 -0.000319987
v -0.013627574 0.069923980 -0.002784815
v -0.012656261 0.065500061 -0.002784815
v -0.012656261 0.065497703 -0.000319987
v -0.012394700 0.065674563 -0.000026968
v -0.013332711 0.069954641 -0.000026968
v -0.012677075 0.075982114 -0.000319987
v -0.012394006 0.065679281 -0.003077834
v -0.012676381 0.075984473 -0.002784815
v -0.013332017 0.069956994 -0.003078133
v -0.006540455 0.056939912 -0.002784815
v -0.006540455 0.056935194 -0.000319987
v -0.006540455 0.057661512 -0.000026669
v -0.012389149 0.075953818 -0.000026968
v -0.006540455 0.068353445 -0.000026669
v -0.010443747 0.080766836 -0.000319987
v -0.006540455 0.057666230 -0.003077834
v -0.006540455 0.056994151 -0.002807217
v -0.012389149 0.075956176 -0.003077834
v -0.010443053 0.080769194 -0.002784815
v -0.010157209 0.080736180 -0.003077834
v -0.009248338 0.080703166 -0.003077834
v -0.006540455 0.069931057 -0.003077834
v -0.010157904 0.080733821 -0.000026968
v -0.006540455 0.069928698 -0.000026968
v -0.009248338 0.080700807 -0.000026968
v -0.010027470 0.081021519 -0.000319987
v -0.010027470 0.081023878 -0.002784815
v -0.009314248 0.080997935 -0.002784815
v -0.008961107 0.080700807 -0.002784815
v -0.006540455 0.070143290 -0.002951486
v -0.006540455 0.070416840 -0.000319987
v -0.008961107 0.080698448 -0.000319987
v -0.009314248 0.080995576 -0.000319987
v -0.006540455 0.070419199 -0.002784815
v -0.006540455 0.070419199 -0.001968184
f 1 2 3
f 1 3 4
f 1 4 5
f 1 5 6
f 1 6 7
f 1 7 9
f 1 9 2
f 2 8 3
f 2 9 10
f 2 10 8
f 3 8 11
f 3 11 12
f 3 12 4
f 4 12 5
f 5 12 13
f 5 13 6
f 6 14 7
f 6 13 15
f 6 15 14
f 7 14 16
f 7 16 20
f 7 20 9
f 8 17 18
f 8 18 11
f 8 10 17
f 9 19 10
f 9 20 19
f 10 19 21
f 10 21 22
f 10 22 23
f 10 23 17
f 11 18 17
f 11 17 23
f 11 23 31
f 11 31 35
f 11 35 36
f 11 36 32
f 11 32 25
f 11 25 15
f 11 15 13
f 11 13 12
f 14 24 16
f 14 15 24
f 15 25 26
f 15 26 24
f 16 24 27
f 16 27 28
f 16 28 20
f 19 20 21
f 20 28 21
f 21 28 22
f 22 28 29
f 22 29 30
f 22 30 23
f 23 30 31
f 24 26 27
f 25 32 33
f 25 33 26
f 26 33 34
f 26 34 27
f 27 34 29
f 27 29 28
f 29 34 33
f 29 33 30
f 30 35 31
f 30 33 36
f 30 36 35
f 32 36 33
