# Converted from RoboDojo wrench/00001; source geometry preserved.
v -0.005064565 -0.063139801 -0.003078121
v -0.005284869 -0.063139801 -0.002785647
v -0.005286086 -0.060521137 -0.002784448
v -0.005249571 -0.060521137 -0.002818610
v -0.004967192 -0.060521137 -0.003077522
v 0.000988323 -0.060521137 -0.003077522
v 0.006829427 -0.060521395 -0.003077522
v 0.006398555 -0.062589974 -0.003077522
v 0.000988323 -0.063139801 -0.003077522
v -0.005286086 -0.063139801 -0.002723616
v -0.005287303 -0.063139801 -0.000320290
v -0.005287303 -0.060521137 -0.000320290
v 0.000988323 -0.060521137 -0.000027216
v 0.007147103 -0.060521395 -0.002784748
v 0.007147103 -0.062589974 -0.002784748
v 0.006833078 -0.062589974 -0.003073327
v 0.000988323 -0.063139801 -0.000016727
v -0.005062131 -0.063139801 -0.000027216
v -0.005001273 -0.060521137 -0.000058081
v 0.000988323 -0.062603049 -0.000016727
v 0.006829427 -0.060521395 -0.000027216
v 0.007109371 -0.060521395 -0.000286128
v 0.007145885 -0.060521395 -0.000319990
v -0.004967192 -0.060521137 -0.000027216
v 0.007145885 -0.062589974 -0.002212684
v -0.001710099 -0.063139801 -0.000016727
v 0.007137365 -0.062589974 -0.000312199
v 0.006829427 -0.062589974 -0.000027216
f 1 2 3
f 1 3 4
f 1 4 5
f 1 5 6
f 1 6 7
f 1 7 8
f 1 8 9
f 1 9 17
f 1 17 26
f 1 26 18
f 1 18 11
f 1 11 10
f 1 10 2
f 2 10 3
f 3 10 11
f 3 11 12
f 3 12 19
f 3 19 24
f 3 24 13
f 3 13 6
f 3 6 5
f 3 5 4
f 6 13 14
f 6 14 7
f 7 14 15
f 7 15 16
f 7 16 8
f 8 16 9
f 9 16 15
f 9 15 17
f 11 18 12
f 12 18 19
f 13 20 21
f 13 21 22
f 13 22 23
f 13 23 14
f 13 24 20
f 14 23 15
f 15 23 25
f 15 25 17
f 17 25 27
f 17 27 28
f 17 28 21
f 17 21 20
f 17 20 26
f 18 26 24
f 18 24 19
f 20 24 26
f 21 28 22
f 22 28 27
f 22 27 23
f 23 27 25
