# Converted from RoboDojo wrench/00001; source geometry preserved.
v -0.007880907 -0.079521937 -0.003077522
v -0.006565981 -0.081490259 -0.003077522
v -0.008024797 -0.079521937 -0.002958206
v -0.005304449 -0.079521937 -0.003077522
v -0.006777745 -0.081701849 -0.002784655
v -0.003095411 -0.083809289 -0.003077522
v -0.008233846 -0.079521937 -0.002784655
v -0.005253771 -0.079521937 -0.003029917
v -0.001837498 -0.080772966 -0.002784655
v -0.001950620 -0.081044328 -0.003077522
v -0.003210342 -0.084085415 -0.002784655
v -0.003210342 -0.084088589 -0.000026519
v -0.006777745 -0.081704492 -0.000026519
v -0.008234752 -0.079521937 -0.001712013
v 0.000999592 -0.084623914 -0.003077522
v 0.000998687 -0.084922783 -0.002784655
v -0.004997663 -0.079521937 -0.002784655
v -0.004997663 -0.079521937 -0.002759948
v -0.004998568 -0.079521937 0.000001201
v -0.001837498 -0.080775613 0.002784647
v 0.001008642 -0.082135611 -0.002784655
v 0.001008642 -0.082598989 -0.003077522
v 0.000998687 -0.084925957 -0.000026519
v -0.003210342 -0.084088589 0.002784647
v -0.006777745 -0.081704492 0.002784647
v -0.008236561 -0.079521937 0.002784647
v -0.008235657 -0.079521937 -0.000026519
v 0.001008642 -0.084612803 -0.003077522
v 0.001008642 -0.084622324 -0.003076920
v 0.001008642 -0.084921199 -0.002784655
v -0.005002188 -0.079521937 0.002787660
v -0.001950620 -0.081047502 0.003077514
v 0.001008642 -0.082138784 0.002784647
v -0.005305354 -0.079521937 0.003077514
v 0.001008642 -0.084923841 -0.000026519
v 0.000998687 -0.084925957 0.002784647
v -0.003096315 -0.083812463 0.003077514
v -0.006566886 -0.081493432 0.003077514
v -0.008090861 -0.079521937 0.002905770
v 0.000998687 -0.082606395 0.003077514
v 0.001008642 -0.082600579 0.003076912
v -0.007883622 -0.079521937 0.003077514
v 0.001008642 -0.084923315 0.002785249
v 0.000998687 -0.084627088 0.003077514
v 0.001008642 -0.084615450 0.003077514
v 0.001008642 -0.084624972 0.003077514
f 1 2 3
f 1 3 7
f 1 7 14
f 1 14 27
f 1 27 26
f 1 26 39
f 1 39 42
f 1 42 34
f 1 34 31
f 1 31 19
f 1 19 18
f 1 18 17
f 1 17 8
f 1 8 4
f 1 4 10
f 1 10 22
f 1 22 28
f 1 28 15
f 1 15 6
f 1 6 2
f 2 5 3
f 2 6 5
f 3 5 7
f 4 8 9
f 4 9 10
f 5 6 11
f 5 11 12
f 5 12 13
f 5 13 14
f 5 14 7
f 6 15 16
f 6 16 11
f 8 17 9
f 9 17 18
f 9 18 19
f 9 19 20
f 9 20 21
f 9 21 10
f 10 21 22
f 11 16 23
f 11 23 12
f 12 23 36
f 12 36 24
f 12 24 25
f 12 25 13
f 13 25 26
f 13 26 27
f 13 27 14
f 15 28 29
f 15 29 30
f 15 30 16
f 16 30 23
f 19 31 20
f 20 32 33
f 20 33 21
f 20 31 34
f 20 34 32
f 21 33 41
f 21 41 45
f 21 45 46
f 21 46 43
f 21 43 35
f 21 35 30
f 21 30 29
f 21 29 28
f 21 28 22
f 23 30 35
f 23 35 36
f 24 36 37
f 24 37 38
f 24 38 25
f 25 38 26
f 26 38 39
f 32 40 41
f 32 41 33
f 32 34 42
f 32 42 38
f 32 38 37
f 32 37 44
f 32 44 46
f 32 46 45
f 32 45 40
f 35 43 36
f 36 44 37
f 36 43 44
f 38 42 39
f 40 45 41
f 43 46 44
