# Converted from RoboDojo wrench/00001; source geometry preserved.
v -0.005287308 0.034428852 -0.000319969
v -0.004974500 0.034428852 -0.000026949
v -0.004974500 0.052682967 -0.000026949
v -0.005286090 0.052682967 -0.000319371
v -0.005286090 0.052682967 -0.002784802
v -0.005286090 -0.002801721 -0.002784802
v -0.005286090 -0.002801721 -0.000319969
v -0.004973283 -0.002801721 -0.000026949
v 0.006834293 -0.002801721 -0.000026650
v 0.006835510 0.034428852 -0.000026650
v 0.004294100 0.052682967 -0.000026949
v -0.004975717 0.052682967 -0.003077225
v -0.005130295 -0.002801721 -0.002931462
v 0.006991305 -0.002801721 -0.000173309
v 0.006837945 0.052682967 -0.000027248
v -0.002434307 0.052682967 -0.003077822
v -0.004973283 0.034434284 -0.003078121
v -0.004972066 -0.002801721 -0.003078121
v 0.007145883 -0.002801721 -0.000319969
v 0.007145883 0.052682967 -0.000319969
v 0.006837945 0.052682967 -0.003077822
v 0.006834293 -0.002801721 -0.003077822
v 0.007147100 -0.002801721 -0.002784802
v 0.007145883 0.052682967 -0.002785400
f 1 2 3
f 1 3 4
f 1 4 5
f 1 5 6
f 1 6 7
f 1 7 8
f 1 8 2
f 2 8 9
f 2 9 3
f 3 10 11
f 3 11 15
f 3 15 20
f 3 20 24
f 3 24 21
f 3 21 16
f 3 16 12
f 3 12 5
f 3 5 4
f 3 9 10
f 5 12 6
f 6 12 13
f 6 13 18
f 6 18 22
f 6 22 23
f 6 23 19
f 6 19 14
f 6 14 9
f 6 9 8
f 6 8 7
f 9 14 15
f 9 15 10
f 10 15 11
f 12 16 17
f 12 17 18
f 12 18 13
f 14 19 15
f 15 19 20
f 16 21 17
f 17 21 18
f 18 21 22
f 19 23 20
f 20 23 24
f 21 24 23
f 21 23 22
