# Palette-baked from RoboTwin texture for mujoco-react
v -0.5650295 0.11191001 -0.014754993
v -0.56687552 0.150985 0.10334401
v 0.60604447 0.207164 -0.60909498
v 0.61486346 0.21452801 -0.617589
v 0.59497148 0.20199201 -0.604572
v -0.56337851 0.13087401 -0.042441994
v -0.56509948 0.15231101 -0.031742994
v -0.56643653 0.14278601 -0.0051449933
v -0.5669995 0.135728 0.013196006
v -0.56661052 0.10798401 0.011570007
v -0.56605649 0.070817009 0.011483007
v -0.56442648 0.070552006 -0.0089019928
v -0.94761652 0.15194501 0.091469005
v -0.56684852 0.16128601 0.093363009
v -0.56684351 0.18032801 0.108472
v -0.56684852 0.16319901 0.12075001
v -0.56693351 0.144453 0.13031301
v -0.56692952 0.13653401 0.10557301
v -0.56692648 0.13971101 0.083890006
v -0.56695747 0.12404801 0.084661007
v -0.56697851 0.13124001 0.067591004
v -0.5669415 0.15171501 0.070317008
v -0.56684351 0.17530301 0.08097101
v -0.56698751 0.12142 0.10905301
v -0.56704152 0.10202101 0.11082701
v -0.56699049 0.10456701 0.087490007
v -0.56703949 0.12401301 0.13397901
v -0.56713247 0.10213601 0.13493
v -0.56719649 0.078313008 0.133899
v -0.56707448 0.07935901 0.11166201
v -0.56712949 0.12797301 0.154632
v -0.56728548 0.10298701 0.15498501
v -0.56744349 0.077700004 0.15409601
v -0.56757748 0.052104007 0.15283601
v -0.56723052 0.053068008 0.13277
v -0.56763649 0.10343501 0.169247
v -0.56820852 0.076996006 0.16870201
v -0.56857252 0.051259007 0.16811401
v -0.56867051 0.025603008 0.167904
v -0.56756949 0.026114007 0.15170701
v -0.57017452 0.07676401 0.18124701
v -0.57203251 0.050961006 0.18153501
v -0.57290548 0.025464008 0.181959
v -0.5729785 6.9048838e-09 0.18211401
v -0.56858951 6.9048838e-09 0.167852
v -0.57785553 0.051345006 0.19296201
v -0.57931352 0.025770007 0.19410901
v -0.5674085 6.9048838e-09 0.15102501
v -0.56713849 6.9048838e-09 0.13124801
v -0.56719649 0.026769007 0.13184801
v -0.5670225 6.9048838e-09 0.111054
v -0.56705749 0.027527006 0.11134601
v -0.56708252 0.054281007 0.11169401
v -0.56695449 0.028463006 0.09079501
v -0.56699049 0.056042008 0.090532005
v -0.56700552 0.081675008 0.089576006
v -0.56690848 0.058533005 0.069945008
v -0.56696451 0.085606009 0.068876006
v -0.56698853 0.10978401 0.067511007
v -0.56695348 0.091271006 0.049334008
v -0.5670315 0.11755801 0.048808008
v -0.56706053 0.141213 0.050327007
v -0.5671075 0.12698001 0.031278007
v -0.56717551 0.151077 0.033681005
v -0.56711549 0.17558701 0.038650006
v -0.5670045 0.16430901 0.056035008
v -0.56703752 0.197923 0.044934008
v -0.56691349 0.18758801 0.064605005
v -0.56712151 0.215966 0.050001007
v -0.56698751 0.20695001 0.07218001
v -0.56689149 0.19515501 0.092103004
v -0.5671705 0.22147201 0.077532008
v -0.56705451 0.20997401 0.10020701
v -0.5669415 0.19489601 0.12059901
v -0.56684953 0.17586601 0.13658501
v -0.56731051 0.21969001 0.10547501
v -0.56712252 0.20557001 0.12849301
v -0.56693852 0.185275 0.14792901
v -0.56703752 0.159465 0.16135901
v -0.56693453 0.152877 0.14867
v -0.56762052 0.214083 0.135066
v -0.56714851 0.191851 0.15573601
v -0.56731349 0.16425601 0.1709
v -0.56760448 0.134229 0.17861101
v -0.5673095 0.131521 0.16875
v -0.56945348 0.19812901 0.16325401
v -0.5688175 0.16893101 0.18002601
v -0.56850749 0.10431901 0.180758
v -0.57646149 0.17247 0.18586901
v -0.57552952 0.077337004 0.19141001
v -0.94718152 0.187222 -0.27750498
v -0.94098151 0.20812601 -0.279102
v -0.56693852 6.9048838e-09 0.090756007
v -0.56678849 6.9048838e-09 0.070584007
v -0.56682551 0.029565006 0.070516005
v -0.56653351 6.9048838e-09 0.050893009
v -0.56663549 0.031140007 0.050712008
v -0.56681049 0.061783008 0.050062008
v -0.56632352 0.032995008 0.031375006
v -0.56662053 0.066280007 0.030652005
v -0.5669415 0.098961011 0.030587006
v -0.5655635 0.034455005 0.012511007
v -0.56523848 6.9048838e-09 0.013069007
v -0.56332451 6.9048838e-09 -0.0058849934
v -0.56377852 0.033639006 -0.0066429931
v -0.56613451 6.9048838e-09 0.031676006
v -0.94051951 0.208627 -0.253232
v -0.94774753 6.9048838e-09 -0.025572993
v -0.94772148 6.9048838e-09 -0.00023499317
v -0.94778353 6.9048838e-09 0.025646007
v -0.94782847 0.019563006 0.025054008
v -0.94781852 6.9048838e-09 0.052426007
v -0.9478755 6.9048838e-09 0.079215005
v -0.55964649 6.9048838e-09 -0.025848994
v -0.55464453 6.9048838e-09 -0.047261994
v -0.55500853 0.024667006 -0.050102994
v -0.5601235 0.029464006 -0.028378993
v -0.55505049 0.048729006 -0.057590995
v -0.5603205 0.059080008 -0.034740992
v -0.55472249 0.071038008 -0.069190994
v -0.56040049 0.087907009 -0.045106992
v -0.55404752 0.089341007 -0.084805995
v -0.55922347 0.10749701 -0.064553991
v -0.55320251 0.10482801 -0.10293299
v -0.55837649 0.12267601 -0.086883992
v -0.56201249 0.144187 -0.07062199
v -0.55822349 0.135086 -0.11000299
v -0.56194049 0.15554601 -0.097289994
v -0.56412047 0.17535801 -0.088251993
v -0.5639115 0.164167 -0.060556993
v -0.56575948 0.194231 -0.08301799
v -0.56538647 0.184384 -0.055479992
v -0.56614351 0.17481801 -0.028024994
v -0.56698048 0.16686401 -0.003703993
v -0.56666851 0.20519501 -0.052432992
v -0.56688148 0.19825801 -0.026240993
v -0.56720549 0.19155 -0.002288993
v -0.56723452 0.18424201 0.019268006
v -0.56722349 0.159462 0.015692007
v -0.56732953 0.21878301 -0.024948994
v -0.56727648 0.21300101 -0.00043099315
v -0.56716651 0.20614101 0.022965007
v -0.56738549 0.22897001 0.0008010068
v -0.5672515 0.22307901 0.025722006
v -0.56754351 0.239618 0.0014820069
v -0.5674175 0.234611 0.027375007
v -0.56733853 0.22928701 0.053013008
v -0.56777751 0.24387401 0.028487006
v -0.56762248 0.239106 0.055111006
v -0.56744349 0.23161101 0.081186004
v -0.56860149 0.24875201 0.057060007
v -0.56820548 0.241457 0.084701009
v -0.56828648 0.22929901 0.11062901
v -0.57227552 0.25034702 0.087702006
v -0.57192451 0.237379 0.11504401
v -0.57010651 0.22180101 0.14122301
v -0.5810855 0.2404 0.11690201
v -0.57906049 0.22613901 0.14444301
v -0.57802051 0.20139301 0.166912
v -0.54501349 6.9048838e-09 -0.066715993
v -0.54595453 0.020641007 -0.069208995
v -0.53104448 0.036374006 -0.089022994
v -0.54633349 0.041047007 -0.076230995
v -0.53100652 0.053884007 -0.098444991
v -0.54570848 0.060067005 -0.086908996
v -0.53102052 0.070202008 -0.11013199
v -0.5451805 0.077252008 -0.100004
v -0.53080851 0.085005008 -0.12369999
v -0.5446465 0.092363007 -0.115527
v -0.53028351 0.097509004 -0.13923599
v -0.54399848 0.10541101 -0.13301399
v -0.5528205 0.11800601 -0.12290999
v -0.54309851 0.116092 -0.152109
v -0.55254751 0.12910901 -0.14430599
v -0.5589205 0.14569601 -0.13363399
v -0.55212551 0.13793801 -0.16632599
v -0.5642395 0.17384301 -0.14895499
v -0.56299549 0.165269 -0.12292799
v -0.56638551 0.19312701 -0.142455
v -0.56519151 0.184816 -0.11539499
v -0.5672965 0.210362 -0.138991
v -0.5666495 0.203344 -0.11068399
v -0.56750351 0.224922 -0.13750599
v -0.5673185 0.219133 -0.10849499
v -0.56692648 0.21235101 -0.08016099
v -0.56758553 0.23205 -0.10803299
v -0.56741351 0.22749601 -0.079165995
v -0.56731248 0.22277701 -0.051112995
v -0.5676415 0.238608 -0.079437993
v -0.56758648 0.236192 -0.051299993
v -0.56750548 0.23335701 -0.024610993
v -0.56783652 0.24555101 -0.051775992
v -0.56770748 0.242964 -0.024650993
v -0.56866252 0.254435 -0.052165993
v -0.5682745 0.25197399 -0.024668993
v -0.56794453 0.248638 0.0019620068
v -0.57061851 0.26006103 -0.024761993
v -0.5698365 0.25751698 0.0024260068
v -0.56930751 0.252886 0.029526006
v -0.57583451 0.26437002 0.002965007
v -0.5753125 0.25941503 0.030431006
v -0.57402748 0.25693202 0.058703005
v -0.58427352 0.26114702 0.030815005
v -0.58321548 0.25895602 0.059467006
v -0.58200347 0.253299 0.088985004
v -0.94672549 0.078167006 0.14784701
v -0.93567652 0.11021201 0.16053301
v -0.94625551 0.10327901 0.14156701
v -0.9479025 0.095361009 0.11971801
v -0.94585651 0.12714301 0.13354501
v -0.94781351 0.116882 0.11236601
v -0.94771349 0.13567801 0.102883
v -0.5132665 0.08184801 -0.127848
v -0.51320249 0.094567008 -0.14148
v -0.52937949 0.10735101 -0.156445
v -0.5670085 0.20011601 -0.17001699
v -0.56738353 0.21599101 -0.167606
v -0.56753248 0.22962901 -0.166623
v -0.56769049 0.23572101 -0.13732399
v -0.56798053 0.246923 -0.166833
v -0.5679515 0.24425401 -0.137603
v -0.5678795 0.24133901 -0.10838399
v -0.56858051 0.25245702 -0.137917
v -0.56868649 0.249997 -0.10885999
v -0.5680595 0.247839 -0.080028996
v -0.57048851 0.25810498 -0.109309
v -0.56923151 0.25646102 -0.080541991
v -0.5755015 0.26404601 -0.10971499
v -0.57362449 0.26309699 -0.080937997
v -0.57185149 0.26193601 -0.052482992
v -0.58104849 0.26596999 -0.081339993
v -0.57905447 0.26567799 -0.052813992
v -0.57741952 0.264961 -0.024835993
v -0.58734453 0.26675403 -0.053128995
v -0.58589453 0.26644301 -0.024974992
v -0.5848105 0.26609802 0.0029950067
v -0.9234075 0.11649301 0.17931001
v -0.92256552 0.14464201 0.17081201
v -0.9351185 0.13626 0.15215601
v -0.92182553 0.17112501 0.15779401
v -0.93442053 0.16020201 0.14047301
v -0.94558048 0.148598 0.12262901
v -0.93372953 0.18135701 0.124402
v -0.5688765 0.25464302 -0.167073
v -0.57118249 0.25978398 -0.138238
v -0.57781649 0.26548404 -0.16762799
v -0.57712853 0.26427901 -0.138579
v -0.58544451 0.26647002 -0.16797699
v -0.5846355 0.26609904 -0.13895199
v -0.58306849 0.26626003 -0.110085
v -0.58926648 0.266702 -0.081688993
v -0.19865549 6.9048838e-09 -0.083441995
v -0.1748085 6.9048838e-09 -0.082233995
v -0.10403353 6.9048838e-09 -0.080192991
v -0.057742476 6.9048838e-09 -0.07899899
v -0.080731511 6.9048838e-09 -0.079720996
v -0.035222471 6.9048838e-09 -0.078656994
v 0.3058725 0.08996401 -0.036918994
v 0.30649954 0.095093004 -0.045890994
v 0.30737144 0.09773501 -0.056173991
v 0.32943755 0.095744006 -0.046469994
v 0.33116943 0.098129004 -0.057010993
v 0.33299154 0.101009 -0.07058499
v 0.30832952 0.10020801 -0.068006992
v 0.32772857 0.091903009 -0.036397994
v 0.59294754 0.20109901 -0.59250998
v 0.60541147 0.20177701 -0.59658498
v 0.58105356 0.20124501 -0.59017301
v 0.59009451 0.200844 -0.57719398
v 0.60420948 0.200892 -0.58083397
v 0.57594448 0.20106401 -0.57536197
v 0.58427852 0.20073801 -0.55949599
v 0.60017353 0.20064101 -0.56246299
v 0.56235451 0.20131801 -0.57525897
v 0.56856853 0.200956 -0.55911702
v 0.57588059 0.20074201 -0.54102701
v 0.59283251 0.20050101 -0.54255801
v 0.55397755 0.201967 -0.55994397
v 0.56044751 0.20140801 -0.54137498
v 0.56679052 0.200945 -0.52144498
v 0.58281451 0.200468 -0.52206302
v 0.57234842 0.20062901 -0.50036097
v 0.5360505 0.21515901 -0.54501897
v 0.54269248 0.214147 -0.52323002
v 0.52844948 0.21611701 -0.524342
v 0.53533655 0.21572301 -0.50037998
v 0.54123849 0.215312 -0.475916
v 0.52162749 0.213422 -0.500772
v 0.52821547 0.21354601 -0.47533
v 0.51548558 0.20888601 -0.47514698
v 0.58329254 0.200091 -0.429324
v 0.58008951 0.20023601 -0.45405799
v 0.57661051 0.20045301 -0.477916
v 0.59643549 0.199945 -0.45609498
v 0.59326845 0.20009601 -0.47951898
v 0.58867949 0.20025101 -0.50158101
v 0.61090046 0.200082 -0.48226699
v 0.60629052 0.20019701 -0.50419402
v 0.60020643 0.200302 -0.524351
v 0.62210447 0.20042101 -0.50766897
v 0.61627346 0.200461 -0.52803302
v 0.60901743 0.20049201 -0.54634798
v 0.62945348 0.20121501 -0.53186101
v 0.62257451 0.201168 -0.55062199
v 0.61441249 0.20107201 -0.56708902
v 0.63395053 0.202672 -0.554501
v 0.62659448 0.20253401 -0.57147998
v 0.61728841 0.202113 -0.58554602
v 0.63499242 0.210995 -0.57447499
v 0.62624246 0.21106 -0.58881998
v 0.61611444 0.20885101 -0.60124999
v 0.63865751 0.21681501 -0.59484398
v 0.62719756 0.216423 -0.60818601
v 0.63863951 0.21435401 -0.616988
v 0.62421948 0.21384901 -0.62819302
v 0.59898549 0.19985001 -0.43167898
v 0.61823255 0.199798 -0.40954599
v 0.61652642 0.19989201 -0.43475801
v 0.61424953 0.19996901 -0.45905399
v 0.63221246 0.20005901 -0.437888
v 0.62987953 0.200183 -0.462266
v 0.62644953 0.20031601 -0.48552698
v 0.64312547 0.20059501 -0.46524498
v 0.63995343 0.20089 -0.488866
v 0.63520449 0.20110601 -0.511186
v 0.65110749 0.20236701 -0.49195901
v 0.64621454 0.20265801 -0.51456702
v 0.64037949 0.20272401 -0.53549302
v 0.65227944 0.21199501 -0.51663697
v 0.64145046 0.21178201 -0.55734402
v 0.65839058 0.21487901 -0.54120499
v 0.65398949 0.21484901 -0.56148702
v 0.64794952 0.21548501 -0.57944
v 0.81120044 0.190797 0.040795006
v 0.63448554 0.19992501 -0.41277298
v 0.64549249 0.20037301 -0.44072199
v 0.65426952 0.20196001 -0.46784499
v 0.66373247 0.20932201 -0.44488499
v 0.65962547 0.210051 -0.46968699
v 0.65694851 0.21154201 -0.49407399
v 0.67025143 0.21386701 -0.47272998
v 0.66724747 0.21382801 -0.497177
v 0.66281658 0.214376 -0.51994199
v 0.84343749 0.17811601 0.07916601
v 0.83914047 0.17563801 0.059552006
v 0.86696547 0.15764001 0.07588201
v 0.86230546 0.156066 0.056297008
v 0.85844857 0.15533 0.034525007
v 0.83592552 0.17481501 0.037707008
v 0.85455352 0.154568 0.012090007
v 0.83240253 0.17367601 0.015287006
v 0.85048753 0.15367401 -0.010285993
v 0.67493945 0.21365601 -0.448048
v 0.72746354 0.053236008 -0.72026896
v 0.69677454 0.053291008 -0.740973
v 0.72994047 0.026783006 -0.72325498
v 0.8694945 0.153696 0.129379
v 0.8708505 0.15643901 0.11017701
v 0.87262148 0.16032201 0.092447005
v 0.88979751 0.13364901 0.11043901
v 0.89237744 0.13739201 0.092814006
v 0.88691849 0.13523501 0.074795008
v 0.88212353 0.133889 0.054241005
v 0.87784058 0.13323201 0.031922005
v 0.87360448 0.132651 0.0092810066
v 0.66295558 6.9048838e-09 0.649979
v 0.66714746 6.9048838e-09 0.67082298
v 0.67058653 6.9048838e-09 0.69120002
v 0.67705947 6.9048838e-09 0.71049899
v 0.68860847 6.9048838e-09 0.725999
v 0.70053846 6.9048838e-09 0.73873502
v 0.86717552 6.9048838e-09 -0.23177399
v 0.87227947 6.9048838e-09 -0.20810099
v 0.50784248 0.20830001 -0.50179297
v 0.49729747 0.206 -0.52922601
v 0.52061158 0.21524 -0.54740101
v 0.51368958 0.21259801 -0.52595198
v -0.5650295 -0.11190999 -0.014754993
v -0.56687552 -0.15098499 0.10334401
v 0.15018052 -0.10606499 -0.17572099
v -0.56337851 -0.13087399 -0.042441994
v -0.56509948 -0.152311 -0.031742994
v -0.56643653 -0.142786 -0.0051449933
v -0.5669995 -0.13572799 0.013196006
v -0.56661052 -0.10798399 0.011570007
v -0.56605649 -0.070816994 0.011483007
v -0.56442648 -0.070551991 -0.0089019928
v -0.56684852 -0.161286 0.093363009
v -0.56684852 -0.16319899 0.12075001
v -0.56693351 -0.14445299 0.13031301
v -0.56692952 -0.13653399 0.10557301
v -0.56692648 -0.13971099 0.083890006
v -0.56695747 -0.12404899 0.084661007
v -0.56697851 -0.13124099 0.067591004
v -0.5669415 -0.151715 0.070317008
v -0.56684351 -0.175303 0.08097101
v -0.56698751 -0.12142099 0.10905301
v -0.56704152 -0.10202099 0.11082701
v -0.56699049 -0.10456799 0.087490007
v -0.56703949 -0.12401399 0.13397901
v -0.56713247 -0.10213599 0.13493
v -0.56719649 -0.078313991 0.133899
v -0.56707448 -0.079359993 0.11166201
v -0.56728548 -0.10298699 0.15498501
v -0.56744349 -0.077700995 0.15409601
v -0.56757748 -0.052104995 0.15283601
v -0.56723052 -0.053068992 0.13277
v -0.56820852 -0.076995991 0.16870201
v -0.56857252 -0.051258992 0.16811401
v -0.56867051 -0.025603993 0.167904
v -0.56756949 -0.026113993 0.15170701
v -0.57203251 -0.050960992 0.18153501
v -0.57290548 -0.025463993 0.181959
v -0.57931352 -0.025770994 0.19410901
v -0.56719649 -0.026768994 0.13184801
v -0.56705749 -0.027527994 0.11134601
v -0.56708252 -0.054280993 0.11169401
v -0.56695449 -0.028462993 0.09079501
v -0.56699049 -0.056041993 0.090532005
v -0.56700552 -0.081674993 0.089576006
v -0.56690848 -0.058532994 0.069945008
v -0.56696451 -0.085605994 0.068876006
v -0.56698853 -0.10978499 0.067511007
v -0.56695348 -0.091271996 0.049334008
v -0.5670315 -0.117558 0.048808008
v -0.56706053 -0.141214 0.050327007
v -0.5671075 -0.12697999 0.031278007
v -0.56717551 -0.15107799 0.033681005
v -0.56711549 -0.175588 0.038650006
v -0.5670045 -0.164309 0.056035008
v -0.56691349 -0.18758799 0.064605005
v -0.56682551 -0.029565994 0.070516005
v -0.56663549 -0.031139992 0.050712008
v -0.56681049 -0.061782993 0.050062008
v -0.56632352 -0.032994993 0.031375006
v -0.56662053 -0.066279992 0.030652005
v -0.5669415 -0.098960996 0.030587006
v -0.5655635 -0.034454994 0.012511007
v -0.56377852 -0.033638991 -0.0066429931
v -0.89408553 -0.25432199 -0.31219798
v -0.87157148 -0.26121801 -0.31472901
v -0.9149605 -0.242662 -0.33776799
v -0.91430652 -0.243369 -0.309811
v -0.91381049 -0.24386199 -0.28251699
v -0.89352852 -0.25446796 -0.28420198
v -0.94786447 -0.039244995 -0.026406992
v -0.94792449 -0.058989994 -0.027119992
v -0.94779152 -0.019580994 -0.025850993
v -0.9477905 -0.019471994 -0.00072899315
v -0.9478665 -0.038992994 -0.0015709931
v -0.94782847 -0.019562993 0.025054008
v -0.94791752 -0.020983994 0.078530006
v -0.94787151 -0.020010993 0.051575005
v -0.94796848 -0.041706994 0.076801009
v -0.9479335 -0.039996993 0.049946006
v -0.94789749 -0.039064992 0.023913007
v -0.94798052 -0.059343994 0.047827005
v -0.94795448 -0.058388993 0.022179008
v -0.94793153 -0.058457993 -0.0027409932
v -0.94798553 -0.077301994 0.019947007
v -0.94797248 -0.077943996 -0.0041389931
v -0.94797051 -0.097807996 -0.0054329932
v -0.89277148 -0.25477099 -0.229546
v -0.89309251 -0.25459701 -0.25671399
v -0.8703745 -0.261549 -0.230205
v -0.8706575 -0.26146299 -0.25786999
v -0.87109548 -0.26134402 -0.28593698
v -0.84808648 -0.26678598 -0.258975
v -0.84833848 -0.26674497 -0.28768501
v -0.84875047 -0.26685601 -0.31705499
v -0.55500853 -0.024667993 -0.050102994
v -0.5601235 -0.029463993 -0.028378993
v -0.55505049 -0.048728991 -0.057590995
v -0.5603205 -0.059079994 -0.034740992
v -0.55472249 -0.071037993 -0.069190994
v -0.56040049 -0.087906994 -0.045106992
v -0.55922347 -0.10749699 -0.064553991
v -0.56698048 -0.16686399 -0.003703993
v -0.56723452 -0.184242 0.019268006
v -0.56722349 -0.15946299 0.015692007
v -0.9478575 -0.024285993 0.13106501
v -0.94794452 -0.022403993 0.10528401
v -0.9479295 -0.048584994 0.12871701
v -0.94798952 -0.044696994 0.10332201
v -0.9479475 -0.072338991 0.125054
v -0.94801849 -0.066523992 0.099982008
v -0.94800448 -0.062017992 0.074027009
v -0.9480235 -0.087558992 0.095020004
v -0.94801652 -0.081548996 0.069888003
v -0.94800651 -0.078111991 0.044798005
v -0.94800353 -0.099551991 0.06412901
v -0.9480055 -0.09648899 0.040792007
v -0.94798648 -0.09645199 0.017517006
v -0.94798648 -0.115178 0.036872007
v -0.94796753 -0.11629999 0.015686007
v -0.89246649 -0.25496697 -0.148987
v -0.89245951 -0.25491601 -0.17568099
v -0.87018251 -0.26174599 -0.175587
v -0.84767449 -0.26657498 -0.20296299
v -0.84790748 -0.26685297 -0.230783
v -0.54595453 -0.020640993 -0.069208995
v -0.94679248 -0.052455992 0.15187801
v -0.94672549 -0.078166991 0.14784701
v -0.94625551 -0.10327899 0.14156701
v -0.9479025 -0.095360994 0.11971801
v -0.94585651 -0.127143 0.13354501
v -0.94781351 -0.116882 0.11236601
v -0.94798648 -0.10668499 0.08856301
v -0.94771349 -0.13567799 0.102883
v -0.94793451 -0.12312299 0.080359004
v -0.9479785 -0.116396 0.057536006
v -0.87864751 -0.207442 0.15642701
v -0.9016875 -0.20334099 0.15052301
v -0.92086852 -0.194686 0.139759
v -0.90050048 -0.22348799 0.126127
v -0.92000049 -0.213884 0.117102
v -0.9188565 -0.22776599 0.090738006
v -0.87634748 -0.24214099 0.10291301
v -0.85360652 -0.23030999 0.13520801
v -0.85451752 -0.20980999 0.16005901
v -0.87760651 -0.22826 0.13155201
v -0.56691551 -0.212707 -0.366934
v -0.56726348 -0.228065 -0.37103298
v -0.5674125 -0.236369 -0.37320098
v -0.56737852 -0.238143 -0.34210399
v -0.56758451 -0.24338299 -0.37460199
v -0.56753749 -0.24528399 -0.34318799
v -0.5679425 -0.25031 -0.37579098
v -0.56807548 -0.25214797 -0.34412998
v -0.56508052 -0.17787199 -0.410335
v -0.56666249 -0.196486 -0.42247099
v -0.56679851 -0.20699799 -0.39569899
v -0.56723851 -0.22244599 -0.401941
v -0.56745851 -0.232217 -0.40525699
v -0.15097147 -0.018301994 -0.086000994
v -0.17467147 -0.018156992 -0.086793996
v -0.1039235 -0.018555993 -0.084416993
v -0.1273765 -0.018478993 -0.08516299
v -0.10369951 -0.036841992 -0.091120996
v -0.12711948 -0.036664993 -0.09173499
v -0.12675649 -0.054679994 -0.09973599
v -0.057793498 -0.018623993 -0.083281994
v -0.08070749 -0.018566994 -0.083805993
v -0.057537496 -0.037193991 -0.089860991
v -0.080506504 -0.037005994 -0.090482995
v -0.035130501 -0.018633993 -0.082768992
v -0.03480351 -0.037348993 -0.089311995
v 0.094309509 -0.10616399 -0.182339
v 0.098148525 -0.10651399 -0.20324899
v 0.12139648 -0.106126 -0.179969
v 0.15415245 -0.10645899 -0.19941999
v 0.12564749 -0.106659 -0.201786
v 0.12811655 -0.108238 -0.22319899
v 0.30819052 -0.106842 -0.182136
v 0.30784649 -0.10799299 -0.20666099
v 0.33390146 -0.109814 -0.21334599
v 0.86650258 -0.109088 0.37751901
v 0.88114244 -0.095168993 0.377415
v 0.85019141 -0.11813799 0.40506899
v 0.86701542 -0.10708499 0.40507001
v 0.85599548 -0.12842199 0.414745
v 0.69082552 -0.088931993 0.62352502
v 0.67178255 -0.049296994 0.64816999
v 0.68143255 -0.070430994 0.64725304
v 0.66614753 -0.025317993 0.64909202
v 0.67003149 -0.025521994 0.67028403
v 0.67660552 -0.049406994 0.66969699
v 0.67386252 -0.025963994 0.69086999
v 0.69111353 -0.024171993 0.72491801
v 0.67936748 -0.025739994 0.70974702
v 0.69752556 -0.046826992 0.72396499
v 0.68571144 -0.049955994 0.70912099
v 0.67971951 -0.050210994 0.690543
v 0.69576448 -0.071075991 0.70814699
v 0.69000548 -0.07187999 0.69014698
v 0.68614048 -0.07075499 0.66922903
v 0.70307046 -0.090289995 0.68937999
v 0.69880658 -0.089860991 0.66886598
v 0.6947965 -0.089258991 0.64641201
v 0.71520752 -0.10611099 0.66830301
v 0.71123558 -0.10604399 0.64586699
v 0.70654947 -0.107256 0.62330699
v 0.73120242 -0.11992199 0.64500302
v 0.72752959 -0.12066399 0.62236202
v 0.72357148 -0.122219 0.59972
v 0.74901253 -0.13147199 0.62100101
v 0.74484354 -0.13262099 0.59777904
v 0.76779157 -0.138421 0.595824
v 0.85917455 -0.13234499 0.43064502
v 0.87999946 -0.119643 0.44901001
v 0.87802845 -0.11940099 0.430123
v 0.87433153 -0.115996 0.41426802
v 0.89487559 -0.10429399 0.42989501
v 0.89060956 -0.101312 0.41429701
v 0.88119751 -0.09311799 0.405092
v 0.71383351 -0.020004993 0.74948204
v 0.7029745 -0.022145994 0.737894
v 0.71933252 -0.039151993 0.74919099
v 0.70890647 -0.043250993 0.73681802
v 0.72795445 -0.056393992 0.74799502
v 0.71802956 -0.061573993 0.73570299
v 0.70717746 -0.066495992 0.722799
v 0.72966152 -0.076924995 0.73474103
v 0.71914452 -0.083207995 0.72174799
v 0.70865756 -0.088995993 0.70732003
v 0.73382252 -0.097671993 0.72111899
v 0.72423548 -0.104582 0.70667303
v 0.71917254 -0.10602999 0.68867302
v 0.7443375 -0.11784799 0.70535499
v 0.73943645 -0.11965999 0.68779904
v 0.73529452 -0.11963099 0.66755998
v 0.76336151 -0.128757 0.68625998
v 0.75841349 -0.12878299 0.66581899
v 0.75326759 -0.12982899 0.64375502
v 0.78263742 -0.13245299 0.66393799
v 0.77728158 -0.13410999 0.64220899
v 0.77236754 -0.13609099 0.61937803
v 0.80080444 -0.13400999 0.64047301
v 0.79561144 -0.13649699 0.61773002
v 0.79058248 -0.139772 0.59395802
v 0.81809741 -0.13755099 0.61630303
v 0.81294352 -0.14095399 0.59262103
v 0.7224645 -0.018209994 0.75852799
v 0.72744256 -0.035881992 0.75802398
v 0.74262351 -0.048190992 0.76420903
v 0.73551351 -0.052191991 0.75738603
v 0.75312251 -0.061487991 0.764346
v 0.74657148 -0.065993994 0.75709999
v 0.73903447 -0.070931993 0.74743503
v 0.76026756 -0.076998994 0.75689
v 0.75291544 -0.083024994 0.74676698
v 0.7438615 -0.090101995 0.733922
v 0.76918846 -0.091896996 0.74629998
v 0.7606805 -0.100844 0.73290801
v 0.7519905 -0.10988099 0.71983498
v 0.78015453 -0.108252 0.731341
v 0.77318841 -0.11879899 0.71797901
v 0.76761049 -0.12677099 0.70368701
v 0.79559642 -0.12335099 0.71664
v 0.79116541 -0.13140699 0.70254499
v 0.78731948 -0.13283199 0.68478799
v 0.81422359 -0.13315199 0.70122498
v 0.81028348 -0.13445699 0.68344301
v 0.80595142 -0.133426 0.66247499
v 0.82806045 -0.13497199 0.66121602
v 0.82336348 -0.13514499 0.63898599
v 0.76660949 -0.071523994 0.76435399
v 0.78175253 -0.077858992 0.76409501
v 0.7760095 -0.084604993 0.75683302
v 0.7929545 -0.089070991 0.75659603
v 0.78714651 -0.097853996 0.74549502
v 0.80976552 -0.090791993 0.75603598
v 0.80579454 -0.10044799 0.74476498
v 0.80073744 -0.111954 0.73041499
v 0.8178665 -0.12431999 0.716187
v 0.86529046 -0.054216992 -0.20576599
v 0.85751754 -0.080349997 -0.20351799
v 0.85282642 -0.080236994 -0.22726999
v 0.84189349 -0.105069 -0.22428799
v 0.83730251 -0.10496999 -0.24824099
v 0.84954244 -0.026799994 -0.30279198
v 0.85463148 -0.026952993 -0.27864999
v 0.85941344 -0.027035993 -0.254619
v 0.86462241 -0.027152993 -0.23083
v 0.85037452 -0.053701993 -0.27726299
v 0.85538942 -0.053913992 -0.25328499
v 0.86032945 -0.054078992 -0.22944899
v 0.86993247 -0.027283993 -0.20724
v 0.84775645 -0.079966992 -0.25110298
v 0.84272248 -0.079686992 -0.27509099
v 0.83804947 -0.079454996 -0.29932499
f 1 6 7
f 1 7 8
f 1 8 9
f 1 9 10
f 1 10 11
f 1 11 12
f 2 14 15
f 2 15 16
f 2 16 17
f 2 17 18
f 2 18 19
f 2 19 14
f 19 20 21
f 19 21 22
f 19 22 23
f 19 23 14
f 19 18 24
f 19 24 20
f 24 25 26
f 24 26 20
f 24 18 17
f 24 17 27
f 24 27 28
f 24 28 25
f 28 29 30
f 28 30 25
f 28 27 31
f 28 31 32
f 28 32 33
f 28 33 29
f 33 34 35
f 33 35 29
f 33 32 36
f 33 36 37
f 33 37 38
f 33 38 34
f 38 39 40
f 38 40 34
f 38 37 41
f 38 41 42
f 38 42 43
f 38 43 39
f 43 44 45
f 43 45 39
f 43 42 46
f 43 46 47
f 48 49 50
f 48 50 40
f 48 40 39
f 48 39 45
f 50 49 51
f 50 51 52
f 50 52 53
f 50 53 35
f 50 35 34
f 50 34 40
f 53 52 54
f 53 54 55
f 53 55 56
f 53 56 30
f 53 30 29
f 53 29 35
f 56 55 57
f 56 57 58
f 56 58 59
f 56 59 26
f 56 26 25
f 56 25 30
f 59 58 60
f 59 60 61
f 59 61 62
f 59 62 21
f 59 21 20
f 59 20 26
f 62 61 63
f 62 63 64
f 62 64 65
f 62 65 66
f 62 66 22
f 62 22 21
f 66 65 67
f 66 67 68
f 66 68 23
f 66 23 22
f 68 67 69
f 68 69 70
f 68 70 71
f 68 71 23
f 71 15 14
f 71 14 23
f 71 70 72
f 71 72 73
f 71 73 74
f 71 74 15
f 74 75 16
f 74 16 15
f 74 73 76
f 74 76 77
f 74 77 78
f 74 78 75
f 78 79 80
f 78 80 75
f 78 77 81
f 78 81 82
f 78 82 83
f 78 83 79
f 83 84 85
f 83 85 79
f 83 82 86
f 83 86 87
f 93 94 95
f 93 95 54
f 93 54 52
f 93 52 51
f 95 94 96
f 95 96 97
f 95 97 98
f 95 98 57
f 95 57 55
f 95 55 54
f 98 97 99
f 98 99 100
f 98 100 101
f 98 101 60
f 98 60 58
f 98 58 57
f 101 100 11
f 101 11 10
f 101 10 9
f 101 9 63
f 101 63 61
f 101 61 60
f 100 99 102
f 100 102 11
f 102 103 104
f 102 104 105
f 102 105 12
f 102 12 11
f 102 99 106
f 102 106 103
f 106 99 97
f 106 97 96
f 107 92 91
f 112 111 110
f 114 115 116
f 114 116 117
f 114 117 105
f 114 105 104
f 117 116 118
f 117 118 119
f 117 119 12
f 117 12 105
f 119 118 120
f 119 120 121
f 119 121 1
f 119 1 12
f 121 120 122
f 121 122 123
f 121 123 6
f 121 6 1
f 123 122 124
f 123 124 125
f 123 125 126
f 123 126 6
f 126 125 127
f 126 127 128
f 126 128 129
f 126 129 130
f 126 130 7
f 126 7 6
f 130 129 131
f 130 131 132
f 130 132 133
f 130 133 7
f 133 134 8
f 133 8 7
f 133 132 135
f 133 135 136
f 133 136 137
f 133 137 134
f 137 138 139
f 137 139 134
f 137 136 140
f 137 140 141
f 137 141 142
f 137 142 138
f 142 67 65
f 142 65 138
f 142 141 143
f 142 143 144
f 142 144 69
f 142 69 67
f 144 143 145
f 144 145 146
f 144 146 147
f 144 147 69
f 147 72 70
f 147 70 69
f 147 146 148
f 147 148 149
f 147 149 150
f 147 150 72
f 150 76 73
f 150 73 72
f 150 149 151
f 150 151 152
f 150 152 153
f 150 153 76
f 153 81 77
f 153 77 76
f 153 152 154
f 153 154 155
f 153 155 156
f 153 156 81
f 156 86 82
f 156 82 81
f 156 155 157
f 156 157 158
f 156 158 159
f 156 159 86
f 159 89 87
f 159 87 86
f 160 161 116
f 160 116 115
f 161 163 118
f 161 118 116
f 163 162 164
f 163 164 165
f 163 165 120
f 163 120 118
f 165 164 166
f 165 166 167
f 165 167 122
f 165 122 120
f 167 166 168
f 167 168 169
f 167 169 124
f 167 124 122
f 169 168 170
f 169 170 171
f 169 171 172
f 169 172 124
f 172 171 173
f 172 173 174
f 172 174 175
f 172 175 127
f 172 127 125
f 172 125 124
f 175 174 176
f 175 177 178
f 175 178 128
f 175 128 127
f 178 177 179
f 178 179 180
f 178 180 129
f 178 129 128
f 180 179 181
f 180 181 182
f 180 182 131
f 180 131 129
f 182 181 183
f 182 183 184
f 182 184 185
f 182 185 131
f 185 135 132
f 185 132 131
f 185 184 186
f 185 186 187
f 185 187 188
f 185 188 135
f 188 140 136
f 188 136 135
f 188 187 189
f 188 189 190
f 188 190 191
f 188 191 140
f 191 143 141
f 191 141 140
f 191 190 192
f 191 192 193
f 191 193 145
f 191 145 143
f 193 192 194
f 193 194 195
f 193 195 196
f 193 196 145
f 196 148 146
f 196 146 145
f 196 195 197
f 196 197 198
f 196 198 199
f 196 199 148
f 199 151 149
f 199 149 148
f 199 198 200
f 199 200 201
f 199 201 202
f 199 202 151
f 202 154 152
f 202 152 151
f 202 201 203
f 202 203 204
f 202 204 205
f 202 205 154
f 205 157 155
f 205 155 154
f 206 207 208
f 209 208 210
f 209 210 211
f 213 214 170
f 213 170 168
f 214 215 170
f 215 171 170
f 216 181 179
f 217 183 181
f 218 219 183
f 219 186 184
f 219 184 183
f 219 220 221
f 219 221 222
f 219 222 186
f 222 189 187
f 222 187 186
f 222 221 223
f 222 223 224
f 222 224 225
f 222 225 189
f 225 192 190
f 225 190 189
f 225 224 226
f 225 226 227
f 225 227 194
f 225 194 192
f 227 226 228
f 227 228 229
f 227 229 230
f 227 230 194
f 230 197 195
f 230 195 194
f 230 229 231
f 230 231 232
f 230 232 233
f 230 233 197
f 233 200 198
f 233 198 197
f 233 232 234
f 233 234 235
f 233 235 236
f 233 236 200
f 236 203 201
f 236 201 200
f 237 238 239
f 237 239 207
f 239 238 240
f 239 240 241
f 239 241 242
f 239 242 210
f 239 210 208
f 239 208 207
f 242 241 243
f 242 13 212
f 242 212 211
f 242 211 210
f 244 223 221
f 244 245 223
f 245 226 224
f 245 224 223
f 245 246 247
f 245 247 228
f 245 228 226
f 247 248 249
f 247 249 250
f 247 250 228
f 250 231 229
f 250 229 228
f 251 234 232
f 251 232 231
f 260 259 261
f 260 261 262
f 260 262 263
f 260 263 264
f 265 259 258
f 268 269 270
f 268 270 266
f 268 271 269
f 271 272 273
f 271 273 269
f 271 274 275
f 271 275 272
f 275 276 277
f 275 277 272
f 275 278 279
f 275 279 276
f 279 280 281
f 279 281 276
f 287 286 288
f 287 288 289
f 293 292 294
f 293 294 295
f 293 295 296
f 293 296 282
f 296 295 297
f 296 297 298
f 296 298 299
f 296 299 281
f 296 281 280
f 296 280 282
f 299 298 300
f 299 300 301
f 299 301 302
f 299 302 277
f 299 277 276
f 299 276 281
f 302 301 303
f 302 303 304
f 302 304 305
f 302 305 273
f 302 273 272
f 302 272 277
f 305 304 306
f 305 306 307
f 305 307 308
f 305 308 270
f 305 270 269
f 305 269 273
f 308 307 309
f 308 309 310
f 308 310 311
f 308 311 267
f 308 267 266
f 308 266 270
f 311 310 312
f 311 312 313
f 311 313 4
f 311 4 3
f 311 3 5
f 311 5 267
f 313 314 315
f 313 315 4
f 316 317 318
f 316 318 319
f 316 319 294
f 316 294 292
f 316 292 291
f 319 318 320
f 319 320 321
f 319 321 322
f 319 322 297
f 319 297 295
f 319 295 294
f 322 321 323
f 322 323 324
f 322 324 325
f 322 325 300
f 322 300 298
f 322 298 297
f 325 324 326
f 325 301 300
f 328 330 306
f 328 306 304
f 328 304 303
f 330 331 332
f 330 332 333
f 330 333 309
f 330 309 307
f 330 307 306
f 333 312 310
f 333 310 309
f 335 320 318
f 336 337 323
f 336 323 321
f 337 338 339
f 337 339 340
f 337 340 326
f 337 326 324
f 337 324 323
f 340 339 341
f 340 341 342
f 340 342 343
f 340 343 329
f 340 329 327
f 340 327 326
f 345 344 346
f 345 346 347
f 345 347 348
f 345 348 349
f 345 349 334
f 349 348 350
f 349 350 351
f 353 341 339
f 353 339 338
f 355 354 356
f 359 358 360
f 359 360 361
f 359 361 362
f 359 362 346
f 359 346 344
f 362 347 346
f 363 364 348
f 363 348 347
f 364 350 348
f 365 352 350
f 360 358 357
f 376 285 284
f 376 284 283
f 376 377 285
f 377 288 286
f 377 286 285
f 377 375 374
f 377 374 288
f 374 290 289
f 374 289 288
f 139 64 63
f 139 63 9
f 139 9 8
f 139 8 134
f 139 138 65
f 139 65 64
f 90 46 42
f 88 41 37
f 88 37 36
f 88 36 85
f 88 85 84
f 85 36 32
f 85 32 31
f 85 31 80
f 85 80 79
f 80 31 27
f 80 27 17
f 80 17 16
f 80 16 75
f 383 382 381
f 383 381 378
f 385 384 383
f 385 383 378
f 387 386 385
f 387 385 378
f 391 390 389
f 391 389 379
f 388 392 391
f 388 391 379
f 395 394 393
f 395 393 392
f 388 396 395
f 388 395 392
f 393 397 391
f 393 391 392
f 393 399 398
f 393 398 397
f 400 390 391
f 400 391 397
f 398 401 400
f 398 400 397
f 398 403 402
f 398 402 401
f 404 400 401
f 402 405 404
f 402 404 401
f 402 407 406
f 402 406 405
f 408 404 405
f 406 409 408
f 406 408 405
f 406 411 410
f 406 410 409
f 412 408 409
f 410 413 412
f 410 412 409
f 410 45 44
f 410 44 413
f 414 412 413
f 44 414 413
f 411 415 49
f 411 49 48
f 45 410 411
f 45 411 48
f 416 51 49
f 416 49 415
f 407 417 416
f 407 416 415
f 411 406 407
f 411 407 415
f 419 418 416
f 419 416 417
f 403 420 419
f 403 419 417
f 407 402 403
f 407 403 417
f 422 421 419
f 422 419 420
f 399 423 422
f 399 422 420
f 403 398 399
f 403 399 420
f 425 424 422
f 425 422 423
f 394 426 425
f 394 425 423
f 399 393 394
f 399 394 423
f 428 427 425
f 428 425 426
f 430 429 428
f 430 428 426
f 394 395 430
f 394 430 426
f 431 429 430
f 395 396 431
f 395 431 430
f 418 432 94
f 418 94 93
f 51 416 418
f 51 418 93
f 433 96 94
f 433 94 432
f 421 434 433
f 421 433 432
f 418 419 421
f 418 421 432
f 436 435 433
f 436 433 434
f 424 437 436
f 424 436 434
f 421 422 424
f 421 424 434
f 385 386 436
f 385 436 437
f 427 384 385
f 427 385 437
f 424 425 427
f 424 427 437
f 386 438 435
f 386 435 436
f 439 104 103
f 439 103 438
f 386 387 439
f 386 439 438
f 103 106 435
f 103 435 438
f 96 433 435
f 96 435 106
f 440 443 442
f 440 444 443
f 446 450 449
f 446 449 448
f 449 109 108
f 449 108 448
f 449 451 110
f 449 110 109
f 453 452 113
f 453 113 112
f 110 451 453
f 110 453 112
f 455 454 452
f 455 452 453
f 451 456 455
f 451 455 453
f 458 457 455
f 458 455 456
f 450 459 458
f 450 458 456
f 451 449 450
f 451 450 456
f 461 460 458
f 461 458 459
f 447 461 459
f 450 446 447
f 450 447 459
f 466 465 463
f 466 463 464
f 445 467 466
f 445 466 464
f 469 468 466
f 469 466 467
f 441 470 469
f 441 469 467
f 445 440 441
f 445 441 467
f 472 471 115
f 472 115 114
f 104 439 472
f 104 472 114
f 474 473 471
f 474 471 472
f 439 387 474
f 439 474 472
f 476 475 473
f 476 473 474
f 387 378 476
f 387 476 474
f 477 475 476
f 378 381 477
f 378 477 476
f 113 452 482
f 484 483 481
f 484 481 482
f 452 454 484
f 452 484 482
f 486 485 483
f 486 483 484
f 454 487 486
f 454 486 484
f 489 488 486
f 489 486 487
f 457 490 489
f 457 489 487
f 454 455 457
f 454 457 487
f 492 491 489
f 492 489 490
f 460 493 492
f 460 492 490
f 457 458 460
f 457 460 490
f 495 492 493
f 460 461 462
f 460 462 493
f 498 496 497
f 465 500 499
f 465 466 468
f 465 468 500
f 115 471 501
f 481 483 502
f 483 485 503
f 485 505 504
f 485 504 503
f 507 506 504
f 507 504 505
f 488 508 507
f 488 507 505
f 485 486 488
f 485 488 505
f 510 509 507
f 510 507 508
f 491 511 510
f 491 510 508
f 488 489 491
f 488 491 508
f 491 492 494
f 491 494 511
f 516 515 513
f 516 513 514
f 517 515 516
f 512 521 519
f 512 519 520
f 515 518 521
f 512 513 515
f 512 515 521
f 525 524 523
f 527 526 524
f 527 524 525
f 529 528 526
f 529 526 527
f 532 531 530
f 522 523 533
f 523 524 534
f 523 534 533
f 252 536 253
f 540 539 537
f 540 537 538
f 535 540 538
f 541 539 540
f 543 542 255
f 543 255 256
f 254 537 543
f 545 544 542
f 545 542 543
f 537 539 545
f 537 545 543
f 255 542 546
f 255 546 257
f 542 544 547
f 542 547 546
f 552 380 550
f 548 552 550
f 553 551 552
f 549 553 552
f 554 555 556
f 557 560 559
f 563 567 566
f 563 566 565
f 566 367 366
f 566 366 565
f 566 568 368
f 566 368 367
f 570 569 370
f 570 370 369
f 368 568 570
f 368 570 369
f 572 571 569
f 572 569 570
f 568 573 572
f 568 572 570
f 575 574 572
f 575 572 573
f 567 576 575
f 567 575 573
f 568 566 567
f 568 567 573
f 578 577 575
f 578 575 576
f 564 579 578
f 564 578 576
f 567 563 564
f 567 564 576
f 581 580 578
f 581 578 579
f 562 582 581
f 562 581 579
f 564 562 579
f 584 583 581
f 584 581 582
f 587 586 584
f 587 584 585
f 561 592 591
f 561 591 589
f 594 591 592
f 560 557 558
f 560 558 595
f 370 569 597
f 370 597 371
f 599 598 596
f 599 596 597
f 569 571 599
f 569 599 597
f 601 600 598
f 601 598 599
f 571 602 601
f 571 601 599
f 604 603 601
f 604 601 602
f 574 605 604
f 574 604 602
f 571 572 574
f 571 574 602
f 607 606 604
f 607 604 605
f 577 608 607
f 577 607 605
f 574 575 577
f 574 577 605
f 610 609 607
f 610 607 608
f 580 611 610
f 580 610 608
f 577 578 580
f 577 580 608
f 613 612 610
f 613 610 611
f 583 614 613
f 583 613 611
f 580 581 583
f 580 583 611
f 616 615 613
f 616 613 614
f 586 617 616
f 586 616 614
f 583 584 586
f 583 586 614
f 588 620 619
f 588 619 617
f 586 587 588
f 586 588 617
f 622 621 619
f 622 619 620
f 590 591 593
f 596 598 624
f 596 624 623
f 598 600 626
f 598 626 624
f 628 627 625
f 628 625 626
f 600 629 628
f 600 628 626
f 631 630 628
f 631 628 629
f 603 632 631
f 603 631 629
f 600 601 603
f 600 603 629
f 634 633 631
f 634 631 632
f 606 635 634
f 606 634 632
f 603 604 606
f 603 606 632
f 637 636 634
f 637 634 635
f 609 638 637
f 609 637 635
f 606 607 609
f 606 609 635
f 640 639 637
f 640 637 638
f 612 641 640
f 612 640 638
f 609 610 612
f 609 612 638
f 643 642 640
f 643 640 641
f 615 644 643
f 615 643 641
f 612 613 615
f 612 615 641
f 618 646 645
f 618 645 644
f 618 619 621
f 618 621 646
f 630 649 648
f 630 648 647
f 627 628 630
f 627 630 647
f 633 651 650
f 633 650 649
f 630 631 633
f 630 633 649
f 653 652 650
f 653 650 651
f 636 654 653
f 636 653 651
f 633 634 636
f 633 636 651
f 636 637 639
f 636 639 654
f 639 640 642
f 639 642 655
f 659 658 657
f 666 665 662
f 666 662 663
f 664 667 666
f 664 666 663
f 664 668 656
f 664 656 667
f 658 669 666
f 658 666 667
f 656 657 658
f 656 658 667
f 670 665 666
f 670 666 669
f 660 670 669
f 658 660 669
f 661 662 665
f 665 670 671
f 664 372 373
f 664 373 668
f 384 427 428
f 384 428 480
f 478 383 384
f 478 384 480
f 428 429 479
f 428 479 480
