# Converted from RoboDojo wrench/00001; source geometry preserved.
v 0.000989294 -0.063139801 0.000020847
v 0.000989294 -0.065264133 0.000020847
v 0.000989294 -0.063139801 -0.003077822
v -0.001493927 -0.063139801 0.000020847
v 0.000984761 -0.065715282 0.000020847
v 0.000989294 -0.065715282 -0.000026778
v 0.000989294 -0.065249250 -0.003077822
v -0.007920019 -0.068383143 -0.003078125
v -0.005064179 -0.063139801 -0.003077822
v -0.002372437 -0.063314308 0.000020847
v -0.005063273 -0.063139801 -0.000026778
v -0.001837534 -0.067077952 0.000020847
v 0.000989294 -0.065714254 -0.001352092
v -0.001837534 -0.067077952 -0.000026778
v 0.000989294 -0.065712715 -0.002784791
v -0.001949954 -0.066802853 -0.003077822
v -0.005321659 -0.068383143 -0.003077822
v -0.008272693 -0.068383143 -0.002784791
v -0.005285394 -0.063139801 -0.002785701
v -0.003131275 -0.063465201 0.000020847
v -0.005287207 -0.063139801 -0.000319809
v -0.008270879 -0.068383143 0.000020847
v -0.006941781 -0.066393795 0.000020847
v -0.006777683 -0.066148972 0.000020847
v -0.005767713 -0.065225641 0.000020847
v -0.005014315 -0.068383143 0.000020847
v -0.001837534 -0.067074874 -0.002784791
v -0.005014315 -0.068383143 -0.000105648
v -0.005015222 -0.068383143 -0.002784791
v -0.005024288 -0.068383143 -0.002793891
v -0.005286300 -0.063139801 -0.002723818
f 1 2 6
f 1 6 13
f 1 13 15
f 1 15 7
f 1 7 3
f 1 3 9
f 1 9 19
f 1 19 31
f 1 31 21
f 1 21 11
f 1 11 4
f 1 4 10
f 1 10 20
f 1 20 25
f 1 25 24
f 1 24 23
f 1 23 22
f 1 22 26
f 1 26 12
f 1 12 5
f 1 5 2
f 2 5 6
f 3 7 8
f 3 8 9
f 4 11 10
f 5 12 6
f 6 12 14
f 6 14 13
f 7 15 16
f 7 16 8
f 8 17 30
f 8 30 29
f 8 29 28
f 8 28 26
f 8 26 22
f 8 22 18
f 8 18 9
f 8 16 17
f 9 18 19
f 10 11 20
f 11 21 22
f 11 22 23
f 11 23 24
f 11 24 25
f 11 25 20
f 12 26 28
f 12 28 14
f 13 14 15
f 14 27 15
f 14 28 29
f 14 29 27
f 15 27 16
f 16 27 17
f 17 27 30
f 18 22 21
f 18 21 31
f 18 31 19
f 27 29 30
