# Palette-baked from RoboTwin texture for mujoco-react
v 0.70011804 0.0028154999 -0.23147149
v -0.74630198 0.1237045 -0.069899499
v -0.55803099 0.1200405 -0.11557849
v -0.70731798 0.1192785 -0.083251499
v -0.60979196 0.1216545 -0.078669496
v -0.61484799 0.12897851 -0.069032498
v -0.60152397 0.1272305 -0.081236497
v -0.59268197 0.1214395 -0.071231499
v -0.59613499 0.1240125 -0.066662498
v -0.59270898 0.1207705 -0.065769494
v -0.707176 0.1168885 -0.061029498
v -0.70383498 0.1235255 -0.050057497
v -0.56839499 0.13328651 -0.0011224968
v -0.5465 0.13325851 -0.0017014968
v -0.48577198 0.1294935 -0.049265496
v -0.48165998 0.13182651 -0.042260498
v -0.062191989 0.1270045 -0.056835495
v 0.16964 0.1261545 -0.0085404972
v 0.17030302 0.1264385 0.0018505033
v 0.26630601 0.1354835 0.064338505
v 0.17345302 0.1328195 0.011225503
v 0.31820601 0.13572749 0.1898005
v 0.69753399 4.9984919e-07 -0.2163125
v 0.70763901 0.0016044999 -0.23846449
v 0.69449899 0.014623499 -0.20992249
v 0.694433 0.013825499 -0.2339665
v 0.70295098 0.0049004997 -0.2439945
v -0.362122 0.1113965 -0.14286549
v -0.72570297 0.1267495 -0.0641395
v -0.75821397 0.1074615 -0.089940496
v -0.73032501 0.1184385 -0.0869065
v -0.73951802 0.1046965 -0.1007585
v -0.718806 0.1217445 -0.076420493
v -0.573845 0.13018949 -0.099173494
v -0.558018 0.1213715 -0.10428949
v -0.54156098 0.1245635 -0.095264494
v -0.53498396 0.1315055 -0.096401498
v -0.71211496 0.1121925 -0.066418499
v -0.70827201 0.1150495 -0.069889493
v -0.70883498 0.1154415 -0.075593494
v -0.71293601 0.1162065 -0.071339495
v -0.702741 0.1237125 -0.073888496
v -0.684414 0.1274505 -0.079790495
v -0.68902299 0.1250985 -0.093553498
v -0.71385798 0.1139155 -0.097852498
v -0.69364497 0.1162055 -0.10991149
v -0.61235496 0.1216835 -0.060744498
v -0.60663196 0.1169855 -0.072406493
v -0.58569899 0.1263465 -0.1060385
v -0.60349301 0.1270525 -0.094986498
v -0.61693498 0.12979449 -0.088158496
v -0.62680897 0.13308249 -0.048519496
v -0.61748096 0.1275705 -0.045772497
v -0.606114 0.1200655 -0.064780496
v -0.592316 0.1210745 -0.059990495
v -0.59164998 0.1267245 -0.075781494
v -0.58935496 0.12804151 -0.067255497
v -0.598232 0.1249095 -0.052651498
v -0.59191397 0.1236405 -0.048808496
v -0.60543302 0.1219025 -0.053713497
v -0.58811501 0.1293125 -0.057969496
v -0.577795 0.1331135 -0.083304495
v -0.041870989 0.1337585 -0.067627497
v -0.03293699 0.1336375 -0.051019497
v -0.0073229889 0.13239349 -0.065331496
v -0.712387 0.1131405 -0.057809498
v -0.70112696 0.1256005 -0.062484495
v -0.68444297 0.13074151 -0.050957497
v -0.682713 0.1290575 -0.066079497
v -0.54764602 0.1290015 -0.028055497
v -0.55805001 0.1233075 -0.025761496
v -0.585031 0.13310149 -0.0088204965
v -0.60366198 0.1298635 -0.0085154967
v -0.55000398 0.13355049 0.011799503
v -0.56768999 0.1331995 -0.0079294969
v -0.52474597 0.1335905 -0.012239497
v -0.54047498 0.1332805 -0.010804497
v -0.552488 0.1302315 -0.0044354969
v -0.55981198 0.1304335 -0.0077604968
v -0.49157298 0.1324155 -0.057537496
v -0.474868 0.1263065 -0.059103496
v -0.47360998 0.1327585 -0.059208497
v -0.501964 0.13324849 -0.046232495
v -0.50400099 0.13336051 -0.036664497
v -0.50270298 0.1332245 -0.057066496
v -0.49059999 0.1334115 -0.025865497
v -0.47081998 0.1335125 -0.028502496
v -0.464618 0.1335225 -0.044049498
v -0.46160299 0.13357051 -0.058560498
v -0.075591989 0.1229385 -0.048963498
v -0.053486988 0.1247395 -0.048956499
v -0.06022599 0.1335825 -0.071044497
v 0.16994801 0.1233915 -0.019602496
v 0.16799001 0.1303765 -0.022075497
v 0.15619501 0.1334835 -0.022577496
v 0.16903101 0.1285315 -0.0061244969
v 0.17001201 0.1279245 0.0030655032
v 0.16728202 0.1330065 0.0025615031
v 0.18761601 0.13089851 -0.0024404968
v 0.18774101 0.1296145 -0.0060094967
v 0.16266201 0.1332545 -0.006932497
v 0.15446101 0.1334725 -0.006810497
v 0.227547 0.1352915 0.052612502
v 0.21840802 0.13510349 0.078895502
v 0.24596801 0.1353775 0.091495506
v 0.26811501 0.13525949 0.032339502
v 0.23317002 0.1351335 0.027716503
v 0.30514002 0.13550951 0.055553503
v 0.30279303 0.1353205 0.029908502
v 0.26678601 0.1356165 0.1117745
v 0.28606001 0.1357335 0.094373502
v 0.31362 0.1351615 0.083731502
v 0.16545001 0.1348515 0.042288505
v 0.19355601 0.1347145 0.045207504
v 0.20110202 0.1345095 0.019370504
v 0.21236701 0.1347025 0.0016885032
v 0.19585101 0.13386451 -0.00057249679
v 0.31048301 0.13601349 0.17699951
v 0.30205601 0.13563751 0.1840225
v 0.315083 0.1352255 0.1977015
v 0.32689703 0.1352195 0.1896905
v 0.321302 0.13571151 0.1705835
v 0.326325 0.1342475 0.20070951
v 0.50423202 0.089033499 0.1727085
v 0.50429198 0.084581502 0.1790525
v 0.487111 0.0843255 0.1787495
v 0.50335601 0.091092497 0.1466345
v 0.50403103 0.090959497 0.15725851
v 0.50424299 0.090559497 0.16516851
v 0.48539701 0.091009498 0.1578975
v 0.48625302 0.0904935 0.16596851
v 0.48690403 0.088776499 0.17302451
v 0.46881202 0.095104501 0.1694845
v 0.46989402 0.092170499 0.17750651
v 0.45100802 0.0912835 0.1817885
v 0.52505603 0.093720503 0.1122995
v 0.49982601 0.091002502 0.090560503
v 0.50085703 0.091119498 0.11314651
v 0.50207201 0.091140501 0.1314605
v 0.48247501 0.092824496 0.1152035
v 0.483179 0.0922435 0.1336305
v 0.48413402 0.091527499 0.1482255
v 0.46728602 0.096913502 0.13633451
v 0.46743602 0.096445501 0.1511845
v 0.467949 0.096221499 0.1610335
v 0.44909501 0.095036499 0.15537851
v 0.449404 0.094571501 0.1653955
v 0.45012403 0.093959503 0.17383251
v 0.43052 0.092597499 0.1702825
v 0.431407 0.091718502 0.17882851
v 0.432354 0.088850498 0.1858715
v 0.414455 0.091100499 0.1837015
v 0.41527402 0.088641502 0.1902345
v 0.400244 0.092531502 0.1946805
v 0.49738002 0.0907555 0.039569505
v 0.49849501 0.090953499 0.065244503
v 0.48363101 0.092270501 0.040209502
v 0.48299101 0.0924225 0.066296503
v 0.48245201 0.093009502 0.092398502
v 0.473436 0.099400498 0.067268506
v 0.470433 0.0985175 0.093922503
v 0.46821102 0.097446501 0.1174985
v 0.45693901 0.097755499 0.0951965
v 0.45253602 0.096486501 0.1198815
v 0.44989002 0.095645502 0.14009151
v 0.434825 0.094857499 0.1223955
v 0.43139401 0.093853503 0.1441485
v 0.43014801 0.0930885 0.1602115
v 0.414913 0.092496499 0.14626351
v 0.41364002 0.092185497 0.16358951
v 0.41369301 0.0919175 0.1752705
v 0.399275 0.096181497 0.1669175
v 0.399443 0.095815502 0.17930651
v 0.399937 0.094789498 0.18793951
v 0.384817 0.1061245 0.1850515
v 0.38488302 0.1051695 0.1941005
v 0.384536 0.1029285 0.2017325
v 0.36478201 0.1160435 0.20291451
v 0.36216301 0.1120505 0.2109075
v 0.34877402 0.1221095 0.2073455
v 0.34595102 0.1174535 0.21531551
v 0.33624002 0.1275765 0.2093955
v 0.332636 0.1228435 0.2170485
v 0.327663 0.1174625 0.2254345
v 0.318295 0.1265665 0.2163545
v 0.31211701 0.1201305 0.2240815
v 0.304005 0.1096025 0.23343851
v 0.31893402 0.1085545 0.2367115
v 0.29417002 0.0932955 0.24383651
v 0.30720702 0.092512503 0.24970251
v 0.69249901 0.1022145 -0.15072949
v 0.68788901 0.1026345 -0.13924649
v 0.67855003 0.1017405 -0.1310335
v 0.66339204 0.099845499 -0.1286985
v 0.47691402 0.099901497 0.040948503
v 0.467673 0.1018035 0.015449503
v 0.46570301 0.1006345 0.041433502
v 0.46177602 0.099234499 0.068013504
v 0.451626 0.0987055 0.041887503
v 0.44634101 0.097471498 0.068900503
v 0.439832 0.0960605 0.096705504
v 0.426772 0.095561497 0.0702525
v 0.42126802 0.094455503 0.0982235
v 0.41739401 0.093323499 0.1244445
v 0.403023 0.095581502 0.0997205
v 0.401133 0.095805503 0.12639651
v 0.39991102 0.096085496 0.1485675
v 0.38626701 0.1055275 0.1287805
v 0.38556802 0.1060215 0.1530185
v 0.384918 0.1064425 0.17237951
v 0.36742601 0.1177865 0.15792951
v 0.36711302 0.1183195 0.1789825
v 0.36631301 0.1180855 0.19245251
v 0.35134003 0.12738051 0.1830395
v 0.35092801 0.1259975 0.1971145
v 0.33827803 0.1333525 0.1864035
v 0.33843601 0.1311945 0.19976451
v 0.323226 0.1314345 0.2091555
v 0.30941001 0.1336305 0.20403451
v 0.303186 0.1284395 0.21077551
v 0.29421902 0.13383549 0.1917295
v 0.28787002 0.1275335 0.1989205
v 0.282132 0.1185295 0.20641351
v 0.29686701 0.1206915 0.2177595
v 0.28980902 0.1089785 0.2262295
v 0.70139304 0.1100415 -0.1808075
v 0.69332901 0.1003555 -0.19928549
v 0.69495204 0.1000525 -0.1801745
v 0.694747 0.1010935 -0.1642345
v 0.68976602 0.089214496 -0.17887649
v 0.69028398 0.0911505 -0.1630075
v 0.68973103 0.092455499 -0.1500075
v 0.68896404 0.078681499 -0.1613555
v 0.68932703 0.080302499 -0.1490075
v 0.68616703 0.0806145 -0.1381155
v 0.68671003 0.092718497 -0.13943049
v 0.677246 0.080394499 -0.1313545
v 0.67757699 0.0923765 -0.13206549
v 0.66308603 0.079118498 -0.1292415
v 0.66315702 0.091073498 -0.12910549
v 0.45524001 0.0996975 0.015736504
v 0.43180001 0.096535496 0.042896502
v 0.411661 0.095235497 0.017912503
v 0.409181 0.095249496 0.044530503
v 0.40574902 0.095231503 0.0718235
v 0.38860801 0.1042035 0.046494503
v 0.387521 0.1049305 0.073624507
v 0.386823 0.1052485 0.1015715
v 0.366236 0.1173375 0.0754425
v 0.36713701 0.1173815 0.10364851
v 0.367504 0.1172305 0.1318725
v 0.34476402 0.1275215 0.1064975
v 0.348129 0.1272075 0.1351835
v 0.350108 0.1274175 0.1620395
v 0.329638 0.1342155 0.1395245
v 0.334755 0.1340535 0.1655875
v 0.311997 0.1358135 0.1467665
v 0.3224 0.13460851 0.1121905
v 0.30073202 0.13584051 0.1218345
v 0.28379402 0.1358415 0.13450751
v 0.298208 0.13604251 0.1563995
v 0.27182001 0.1351275 0.1469605
v 0.287893 0.13552549 0.1660455
v 0.262905 0.1305445 0.1581845
v 0.278887 0.1329865 0.17535551
v 0.25678602 0.1202175 0.1693795
v 0.27274102 0.1246935 0.18381751
v 0.25167102 0.1082865 0.18304351
v 0.26752102 0.1141975 0.1934475
v 0.24810702 0.097610503 0.19521751
v 0.26239502 0.1022645 0.20388751
v 0.68737701 0.088260502 -0.1982355
v 0.68340299 0.073104501 -0.2203185
v 0.68596801 0.073969498 -0.1979885
v 0.68784103 0.076141499 -0.17753349
v 0.68821201 0.057604499 -0.1992735
v 0.68979999 0.060037501 -0.17708449
v 0.69083402 0.062092502 -0.1606815
v 0.69284102 0.039353501 -0.1784575
v 0.69344398 0.0421695 -0.16100749
v 0.69300303 0.044671498 -0.14717349
v 0.69073299 0.063977502 -0.1479055
v 0.689841 0.046673499 -0.1350995
v 0.68729499 0.065778501 -0.13622649
v 0.67823103 0.047225501 -0.12931649
v 0.676698 0.065890498 -0.13027249
v 0.66306201 0.065114498 -0.1292295
v 0.38933 0.1036485 0.020030504
v 0.363372 0.1146085 -0.0030134968
v 0.36453801 0.1158935 0.022298504
v 0.36540201 0.1168525 0.048382502
v 0.33441702 0.1260515 0.025120502
v 0.33685002 0.1270995 0.050654504
v 0.34053901 0.1275775 0.0779735
v 0.333058 0.1246645 -0.00029949681
v 0.302773 0.1345765 0.0034485031
v 0.27125001 0.13510551 0.0061715031
v 0.24491601 0.13491049 -0.018166497
v 0.23943602 0.1349865 0.0049675032
v 0.22097401 0.1348215 -0.018067496
v 0.20674701 0.1343165 -0.018140497
v 0.19809902 0.1338065 -0.017275497
v 0.19181401 0.13319451 -0.017317496
v 0.18873802 0.1292405 -0.035744496
v 0.18844701 0.1305795 -0.016127497
v 0.16264701 0.13332149 -0.041184496
v 0.14518902 0.1333295 -0.023127496
v 0.11586001 0.1167455 -0.042125497
v 0.134385 0.1246245 -0.022693496
v 0.12579001 0.1219055 -0.022029497
v 0.14529902 0.13336749 -0.0072334968
v 0.11447601 0.1260985 -0.024654496
v 0.13235301 0.1303415 -0.0063854968
v 0.14951502 0.1335865 0.0020305032
v 0.10892801 0.13314851 -0.026874498
v 0.12233801 0.1316925 -0.0085524973
v 0.14311402 0.1335685 0.0050185034
v 0.097771011 0.1337125 -0.026868496
v 0.10923301 0.13357151 -0.008272497
v 0.12132201 0.13412251 0.0086875036
v 0.09386301 0.1340455 -0.0073804967
v 0.10076501 0.1347405 0.010899503
v 0.10597101 0.1353005 0.029526504
v 0.13404702 0.1345485 0.024485502
v 0.10715401 0.13515949 0.051187504
v 0.13479601 0.13494051 0.047026504
v 0.10692401 0.1339545 0.074612506
v 0.13283701 0.1343955 0.0717915
v 0.15999901 0.1345035 0.070691504
v 0.13070601 0.1275965 0.0963955
v 0.15597501 0.1296815 0.096319504
v 0.182225 0.1306535 0.0976445
v 0.18769901 0.1339725 0.072280504
v 0.20872501 0.1329495 0.10330451
v 0.17781201 0.1192795 0.1201765
v 0.20171201 0.1216095 0.1240445
v 0.22426401 0.1241115 0.13129351
v 0.23251601 0.1338965 0.1137195
v 0.24451602 0.1274575 0.1430995
v 0.25346401 0.13457149 0.1285895
v 0.21811301 0.1121195 0.1499005
v 0.23851001 0.1160445 0.1582385
v 0.21384701 0.1002865 0.1699955
v 0.23345001 0.1036515 0.1756435
v 0.21243802 0.091443501 0.1837115
v 0.23094501 0.094401501 0.18896151
v 0.21215801 0.0817855 0.1943205
v 0.23041701 0.083717503 0.20000951
v 0.68629602 0.055279501 -0.2230065
v 0.68719599 0.035846502 -0.2469715
v 0.69074199 0.033169501 -0.2285195
v 0.69186702 0.036289498 -0.20289649
v 0.69483098 0.0181155 -0.18071949
v 0.69569001 4.9984919e-07 -0.18276849
v 0.69590703 4.9984919e-07 -0.1613725
v 0.69532201 0.0203215 -0.1612215
v 0.69526801 4.9984919e-07 -0.14680749
v 0.69478002 0.0220035 -0.1470605
v 0.69103304 4.9984919e-07 -0.1346485
v 0.69138601 0.023464499 -0.1347225
v 0.67944399 4.9984919e-07 -0.12918949
v 0.67962202 0.0241585 -0.1291835
v 0.015843011 0.1336405 -0.068558499
v 0.029213011 0.1288145 -0.068790495
v 0.037618011 0.1285235 -0.066801496
v 0.073839009 0.1298555 -0.046330497
v 0.086006008 0.1307555 -0.046707496
v 0.09760201 0.13351551 -0.046714496
v 0.10786601 0.1332365 -0.046213496
v 0.084272012 0.13318551 -0.026729496
v 0.05965801 0.1332265 -0.046961498
v 0.068147011 0.1332165 -0.026642498
v 0.075872011 0.1336935 -0.0067674969
v 0.050446011 0.13375451 -0.026259497
v 0.054993011 0.1341055 -0.0060934969
v 0.058209009 0.1345185 0.014364503
v 0.08041501 0.13446949 0.012772503
v 0.059294011 0.1348875 0.035359502
v 0.082129009 0.13502149 0.032710504
v 0.05938201 0.1346315 0.057875503
v 0.082748011 0.13490149 0.054689504
v 0.059409011 0.1305455 0.081710503
v 0.082625009 0.1328305 0.078125507
v 0.059934013 0.1234155 0.1065485
v 0.082827009 0.1242275 0.1020925
v 0.10628701 0.12601849 0.098415501
v 0.083867013 0.1132095 0.1260585
v 0.10646701 0.1144205 0.1221705
v 0.12948 0.1162145 0.1199525
v 0.10761701 0.1026935 0.1462605
v 0.12968001 0.1041215 0.14329651
v 0.15189601 0.1062925 0.14193851
v 0.15342902 0.1181315 0.1192905
v 0.17450701 0.1082175 0.1427895
v 0.15193 0.0950955 0.1634195
v 0.17282601 0.0964415 0.1633475
v 0.19360901 0.0977915 0.16557251
v 0.19639401 0.1095965 0.1448175
v 0.17283101 0.0880135 0.1780155
v 0.19282801 0.088861503 0.1795295
v 0.17336801 0.078075498 0.1886275
v 0.19293301 0.079281501 0.18929051
v -0.072400987 0.1225205 -0.034621496
v -0.070789985 0.1223565 -0.017711496
v -0.049088988 0.1224645 -0.022677496
v -0.049471989 0.1240125 -0.039299496
v -0.037762988 0.1316285 -0.026974497
v -0.051394988 0.1223335 -0.0032914968
v -0.03698799 0.1273995 -0.0075924969
v -0.022865988 0.13384651 -0.013301496
v -0.016653989 0.1339485 -0.035992496
v -0.0023269888 0.1344225 -0.019639498
v 0.0057360111 0.1341285 -0.042762496
v 0.017294012 0.1341835 -0.023603497
v 0.02241601 0.13363349 -0.045757499
v 0.033884011 0.13345949 -0.025551496
v 0.031291012 0.1298355 -0.045582496
v 0.043907013 0.13325951 -0.047028497
v 0.015373011 0.1344575 -0.0033094969
v 0.03491101 0.1337405 -0.0050314968
v 0.014529011 0.1345785 0.017132504
v 0.036405012 0.13410451 0.015798504
v 0.014766011 0.1349825 0.038917504
v 0.03675301 0.13462751 0.037419502
v 0.015411011 0.1341335 0.062802501
v 0.03693201 0.1339425 0.060590502
v 0.01607101 0.1328875 0.088328503
v 0.037000012 0.1295035 0.085109502
v 0.016200012 0.1234785 0.1148025
v 0.03755901 0.1227795 0.1109185
v 0.017067011 0.1126265 0.1419415
v 0.039000012 0.1125605 0.1368265
v 0.061257012 0.1127165 0.13115351
v 0.041634012 0.1023835 0.16292651
v 0.063969009 0.1025045 0.15663651
v 0.085920013 0.1021905 0.15075551
v 0.067273013 0.091612503 0.1784395
v 0.088789009 0.0914625 0.17236151
v 0.10976901 0.0915915 0.1676195
v 0.090808012 0.083513498 0.1855765
v 0.11152601 0.0842425 0.1813325
v 0.13236901 0.0856665 0.17913051
v 0.13102101 0.093590498 0.1653365
v 0.15265001 0.087094501 0.1780315
v 0.13355902 0.0752865 0.1893535
v 0.15357101 0.076552503 0.1884875
v -0.12873299 0.1278915 0.015134504
v -0.10184999 0.1278635 0.014841503
v -0.076263987 0.12734149 0.014465503
v -0.072634988 0.1220335 -0.0001304968
v -0.05543299 0.1261345 0.013033504
v -0.079050988 0.1340775 0.026526503
v -0.058703989 0.13380951 0.024673503
v -0.041597988 0.1335175 0.021421503
v -0.038135991 0.1274665 0.0093775028
v -0.026199989 0.1339685 0.019475503
v -0.025722988 0.1334635 0.003372503
v -0.0066089886 0.13437051 0.018357502
v -0.0061509889 0.13435949 -0.00044249679
v -0.025124989 0.1346965 0.039850503
v -0.0059569888 0.1347205 0.039700504
v -0.024343988 0.13425151 0.064395502
v -0.0050459886 0.1340795 0.064149506
v -0.024269989 0.1332175 0.0911185
v -0.0044499887 0.1329115 0.090194501
v -0.02476899 0.1244265 0.1183525
v -0.0045019886 0.1236155 0.1169605
v -0.025811989 0.1126945 0.14729351
v -0.0044769887 0.1125585 0.1456465
v -0.026556989 0.1024915 0.1763255
v -0.0035939887 0.1024585 0.17356451
v 0.019160012 0.1022195 0.1690845
v -0.0019809888 0.093004502 0.19780751
v 0.021962011 0.0918165 0.1921435
v 0.045056012 0.091592498 0.1853255
v 0.024106011 0.084880501 0.2064195
v 0.047672011 0.084843501 0.19933851
v 0.069953009 0.084952503 0.1923745
v 0.049661011 0.076258503 0.20969151
v 0.072043009 0.076119497 0.2031455
v 0.092680015 0.074732497 0.1963875
v 0.11317301 0.075209498 0.1923885
v -0.331002 0.0749145 -0.1845015
v -0.33765098 0.0950495 -0.1753885
v -0.34248298 0.1111345 -0.1640335
v -0.35309398 0.093815498 -0.17353949
v -0.35563698 0.1052985 -0.16088849
v -0.35657299 0.1154595 -0.14437149
v -0.36182499 0.099987499 -0.15716049
v -0.362066 0.089925498 -0.1691895
v -0.49334499 0.1327405 -0.072692499
v -0.50277999 0.13308451 -0.093208499
v -0.50324896 0.1332515 -0.072710499
v -0.51296696 0.13312849 -0.0940715
v -0.51398799 0.1332965 -0.0730685
v -0.51532498 0.1332815 -0.057019498
v -0.52481201 0.1332095 -0.073934495
v -0.52753296 0.1331985 -0.056799497
v -0.53076699 0.1331615 -0.043454498
v -0.51762399 0.1332905 -0.044876497
v -0.53548697 0.1331615 -0.031526497
v -0.52260599 0.13333049 -0.033480495
v -0.54148898 0.1330695 -0.020361496
v -0.52988902 0.1333275 -0.022134496
v -0.51194498 0.1335225 -0.024102496
v -0.499358 0.1337375 -0.012661497
v -0.51012102 0.13393749 0.0011355032
v -0.48183799 0.1338795 0.0009555032
v -0.47717798 0.1336575 -0.013721497
v -0.455064 0.13431551 0.0011655032
v -0.45056099 0.1339695 -0.030923497
v -0.12877199 0.13426749 0.026735503
v -0.12873699 0.1349795 0.040118504
v -0.10338699 0.1349335 0.040661503
v -0.10272899 0.1342245 0.026758503
v -0.080309987 0.1347965 0.040454503
v -0.10402099 0.1343205 0.057455502
v -0.081434987 0.1343295 0.059319504
v -0.061190989 0.1344755 0.060938504
v -0.060008988 0.13474751 0.039870504
v -0.042715989 0.1342065 0.063342504
v -0.042327989 0.1345515 0.039580502
v -0.06290099 0.1336275 0.088168502
v -0.043457989 0.13339449 0.090241507
v -0.064637989 0.12513749 0.1166805
v -0.044732988 0.1249295 0.1181175
v -0.067193992 0.1131065 0.1455515
v -0.046798989 0.1132175 0.1473235
v -0.070973992 0.1013595 0.17527251
v -0.049433988 0.1026445 0.1777975
v -0.074833989 0.0901675 0.20002951
v -0.05123299 0.091424502 0.20274051
v -0.026358988 0.092120498 0.2008135
v -0.051469989 0.083293498 0.2183615
v -0.025714988 0.084117502 0.2160105
v -0.00058798876 0.0856345 0.2126655
v -0.025110988 0.074655503 0.2275645
v 0.00089601125 0.076409496 0.22392951
v 0.025961012 0.076378502 0.2170465
v -0.344769 0.0517365 -0.18838349
v -0.34797198 0.075524502 -0.18229949
v -0.36276999 0.0529605 -0.1829875
v -0.361633 0.074985497 -0.1797615
v -0.52356401 0.13302051 -0.0950865
v -0.535642 0.1330245 -0.075145498
v -0.54282001 0.1289815 -0.075149499
v -0.54480901 0.1292475 -0.055826496
v -0.53804198 0.13302951 -0.056528497
v -0.54601297 0.1292315 -0.041171499
v -0.54086897 0.1329475 -0.042154498
v -0.54442999 0.13290749 -0.029785497
v -0.54792598 0.1308815 -0.019328497
v -0.55008897 0.12747949 -0.011236497
v -0.54939499 0.13072149 -0.011538497
v -0.55301598 0.12737051 -0.0046734968
v -0.55764499 0.12741449 -0.0069004968
v -0.55982599 0.12745249 -0.016088497
v -0.56184098 0.13190649 -0.017059498
v -0.57436296 0.1332995 -0.018588496
v -0.57405999 0.1333385 -0.031234497
v -0.589039 0.13053951 -0.034508497
v -0.59814098 0.1256855 -0.037299495
v -0.58963999 0.13220149 -0.021392496
v -0.60506997 0.1229185 -0.039222497
v -0.602492 0.1279465 -0.022643497
v -0.61289099 0.1196315 -0.041256499
v -0.613718 0.1195455 -0.023504497
v -0.62001696 0.1270975 -0.026620496
v -0.619553 0.1276015 -0.0077934968
v -0.63132998 0.1330405 -0.029314497
v -0.51640901 0.1341465 0.015788503
v -0.48443699 0.13399149 0.017357504
v -0.15549099 0.1345395 0.055341505
v -0.15587099 0.13255849 0.076041505
v -0.12934698 0.1330135 0.078340501
v -0.12886199 0.13451549 0.056143504
v -0.10519299 0.13255151 0.081800506
v -0.131157 0.1237455 0.1042075
v -0.10710099 0.1229435 0.1084015
v -0.085234992 0.1238995 0.11302751
v -0.083110988 0.13293751 0.0853815
v -0.11000099 0.1128005 0.1351925
v -0.088137992 0.1131735 0.1410715
v -0.11433399 0.1020045 0.1614905
v -0.092193991 0.1015175 0.16981751
v -0.11947199 0.091526501 0.18163151
v -0.097357988 0.090396501 0.19236751
v -0.12389799 0.085136503 0.1945665
v -0.10191099 0.083164498 0.2069425
v -0.077773988 0.082108498 0.2161755
v -0.10574599 0.075064503 0.2176315
v -0.080193989 0.0745745 0.22781551
v -0.051819988 0.074108496 0.2294265
v -0.57808802 0.1213755 -0.12480149
v -0.60106596 0.1134095 -0.13096349
v -0.599511 0.1233775 -0.1139505
v -0.62242201 0.1166055 -0.12691949
v -0.61811998 0.1263665 -0.1063395
v -0.644178 0.1159745 -0.12110449
v -0.63817897 0.1263985 -0.1030935
v -0.63545397 0.1311315 -0.086147495
v -0.63612601 0.1329935 -0.068996496
v -0.66397801 0.1240195 -0.098759495
v -0.65962002 0.1285345 -0.083703496
v -0.65902302 0.1323065 -0.068145499
v -0.66249296 0.1321135 -0.050372496
v -0.64261898 0.1330715 -0.049366497
v -0.66587499 0.1316305 -0.031572497
v -0.64703801 0.1331135 -0.030459497
v -0.18326899 0.1213815 0.098939501
v -0.15825899 0.1117165 0.1241505
v -0.15680499 0.1229595 0.1002965
v -0.13375999 0.1129495 0.12909551
v -0.16035599 0.1011835 0.1477235
v -0.13727199 0.1023685 0.1536795
v -0.16274999 0.092034496 0.16561051
v -0.14131799 0.092862502 0.1726535
v -0.16455099 0.085443497 0.1766115
v -0.14445499 0.086110502 0.18377151
v -0.16613799 0.076241501 0.1848245
v -0.14758798 0.076798499 0.19294751
v -0.12743498 0.076496497 0.20407051
v -0.60352597 0.099118501 -0.1446635
v -0.62643597 0.1009055 -0.1423755
v -0.64861301 0.1006695 -0.1361395
v -0.67256799 0.0999915 -0.1294245
v -0.66866401 0.1142845 -0.1147255
v -0.697566 0.1020675 -0.1233885
v -0.719946 0.1009355 -0.1115535
v -0.18403299 0.091092497 0.16265151
v -0.18351099 0.099660501 0.14516351
v -0.204276 0.0846745 0.17550451
v -0.18433198 0.085155502 0.17441951
v -0.18448199 0.075590499 0.18175951
v -0.714865 0.1198515 -0.059585497
v -0.61155298 0.1146575 -0.053448498
v -0.58658001 0.1324845 -0.046755496
v -0.56077299 0.1312975 -0.028271496
v -0.56947002 0.1334575 -0.043057498
v -0.57484499 0.1335475 -0.057014495
v -0.55793098 0.1272815 -0.039933495
v -0.56138799 0.1330215 -0.055343498
v -0.56367901 0.13331249 -0.070589498
v -0.57779798 0.13346849 -0.069664493
v -0.56361201 0.13291951 -0.0874945
v 0.68546799 0.026518499 -0.26949951
v 0.69133499 0.020327499 -0.25084549
v 0.69128403 0.0150975 -0.27259549
v 0.69768301 0.0100265 -0.25540349
v 0.67836604 0.1413385 -0.46373451
v 0.67180702 0.1426065 -0.45824748
v 0.64721903 0.1421665 -0.50523952
v 0.66308102 0.1418855 -0.48562351
v 0.64186302 0.14555851 -0.49995151
v 0.65689799 0.14358149 -0.4799535
v 0.63548502 0.1467685 -0.49414548
v 0.65037504 0.14420749 -0.47407749
v 0.62900302 0.14723951 -0.48855349
v 0.62150201 0.14761551 -0.4825235
v 0.61655501 0.14495049 -0.54445949
v 0.63239101 0.1440175 -0.52450749
v 0.61167803 0.1497785 -0.54005548
v 0.62715504 0.1485955 -0.51983348
v 0.60546902 0.1511905 -0.53485247
v 0.62061599 0.1497425 -0.5143455
v 0.59880504 0.1515705 -0.52952752
v 0.61397204 0.1499155 -0.50896052
v 0.59197101 0.1516785 -0.52429947
v 0.60687903 0.1500165 -0.50351349
v 0.58338901 0.15177649 -0.51818952
v 0.59829202 0.1500925 -0.49745351
v 0.57403401 0.1513685 -0.51199052
v 0.56469199 0.14906751 -0.50616148
v 0.60055104 0.14555649 -0.56432149
v 0.58151701 0.15335649 -0.58047047
v 0.59601304 0.15055551 -0.56009051
v 0.575515 0.1561735 -0.57533148
v 0.59013 0.1528665 -0.55496451
v 0.56872603 0.1568315 -0.5701085
v 0.58353302 0.1533675 -0.54965648
v 0.56144503 0.15698551 -0.56499049
v 0.57663003 0.1535285 -0.54445753
v 0.55329999 0.1570825 -0.55960551
v 0.56831804 0.1537995 -0.53868249
v 0.54425803 0.15669949 -0.55400649
v 0.559194 0.1535845 -0.53280851
v 0.53568801 0.1524995 -0.5491555
v 0.55022302 0.1504875 -0.52748647
v 0.55073902 0.1567945 -0.62063453
v 0.56636903 0.1553625 -0.6010575
v 0.54501501 0.1596145 -0.6155645
v 0.56032398 0.15814351 -0.59598652
v 0.53856203 0.16037349 -0.61031547
v 0.55367401 0.1587255 -0.59085748
v 0.53144303 0.1605105 -0.60507748
v 0.54626903 0.1587415 -0.58556852
v 0.523693 0.1604145 -0.60000852
v 0.53829303 0.15870149 -0.58025852
v 0.51520202 0.15935551 -0.59526148
v 0.52944103 0.1580115 -0.5748705
v 0.507521 0.1549335 -0.59162048
v 0.52135798 0.1535835 -0.57056847
v 0.52224502 0.1615485 -0.65583351
v 0.53553799 0.1588065 -0.63892147
v 0.51712903 0.1641795 -0.65111747
v 0.530211 0.1618925 -0.63400748
v 0.511273 0.1650745 -0.64659652
v 0.52408299 0.1630695 -0.62888947
v 0.50522801 0.1652275 -0.6426045
v 0.51747599 0.1633115 -0.62412748
v 0.49875602 0.1649195 -0.63914648
v 0.510093 0.1627645 -0.61968848
v 0.49212202 0.1634105 -0.63649449
v 0.50266704 0.16086049 -0.61602649
v 0.48641101 0.15877751 -0.63509551
v 0.49553001 0.15672749 -0.61303052
v 0.50750801 0.16565751 -0.66376552
v 0.50224903 0.1660915 -0.65988848
v 0.49688002 0.1660575 -0.65668252
v 0.49167103 0.1654665 -0.65417448
v 0.48620102 0.1638605 -0.65252748
v 0.481821 0.15942951 -0.65185252
v 0.70011804 -0.0028155001 -0.23147149
v -0.74630198 -0.1237035 -0.069899499
v -0.55803099 -0.1200395 -0.11557849
v -0.70731798 -0.1192785 -0.083251499
v -0.60979196 -0.1216535 -0.078669496
v -0.61484799 -0.12897751 -0.069032498
v -0.60152397 -0.1272305 -0.081236497
v -0.59268197 -0.1214385 -0.071231499
v -0.59613499 -0.1240115 -0.066662498
v -0.59270898 -0.1207705 -0.065769494
v -0.48590699 -0.1219705 -0.060486495
v -0.5465 -0.13325851 -0.0017014968
v -0.48577198 -0.12949251 -0.049265496
v -0.48165998 -0.13182651 -0.042260498
v 0.70763901 -0.0016035001 -0.23846449
v 0.69449899 -0.0146225 -0.20992249
v 0.694433 -0.0138245 -0.2339665
v 0.70295098 -0.0048994999 -0.2439945
v -0.72570297 -0.1267495 -0.0641395
v -0.75821397 -0.1074605 -0.089940496
v -0.73032501 -0.1184385 -0.0869065
v -0.73951802 -0.1046955 -0.1007585
v -0.718806 -0.1217435 -0.076420493
v -0.573845 -0.13018849 -0.099173494
v -0.558018 -0.1213715 -0.10428949
v -0.55240896 -0.1111215 -0.11793949
v -0.55474296 -0.1179485 -0.1278175
v -0.54156098 -0.1245625 -0.095264494
v -0.53498396 -0.1315055 -0.096401498
v -0.71211496 -0.1121915 -0.066418499
v -0.70827201 -0.1150495 -0.069889493
v -0.70883498 -0.1154405 -0.075593494
v -0.71293601 -0.1162065 -0.071339495
v -0.702741 -0.1237125 -0.073888496
v -0.684414 -0.1274505 -0.079790495
v -0.68902299 -0.1250975 -0.093553498
v -0.71385798 -0.1139145 -0.097852498
v -0.69364497 -0.1162045 -0.10991149
v -0.61235496 -0.1216825 -0.060744498
v -0.60663196 -0.1169855 -0.072406493
v -0.58569899 -0.1263465 -0.1060385
v -0.60349301 -0.1270515 -0.094986498
v -0.61693498 -0.12979449 -0.088158496
v -0.62680897 -0.1330815 -0.048519496
v -0.61748096 -0.1275695 -0.045772497
v -0.606114 -0.1200645 -0.064780496
v -0.592316 -0.1210745 -0.059990495
v -0.59164998 -0.1267235 -0.075781494
v -0.58935496 -0.12804051 -0.067255497
v -0.598232 -0.1249085 -0.052651498
v -0.59191397 -0.1236405 -0.048808496
v -0.60543302 -0.1219015 -0.053713497
v -0.58811501 -0.1293115 -0.057969496
v -0.577795 -0.1331135 -0.083304495
v -0.01805299 -0.1331605 -0.0897085
v -0.04048299 -0.1337475 -0.088198498
v -0.041870989 -0.1337585 -0.067627497
v -0.03293699 -0.1336375 -0.051019497
v -0.70112696 -0.1256005 -0.062484495
v -0.68444297 -0.13074049 -0.050957497
v -0.682713 -0.1290575 -0.066079497
v -0.54764602 -0.1290005 -0.028055497
v -0.55805001 -0.1233065 -0.025761496
v -0.55000398 -0.1335495 0.011799503
v -0.56768999 -0.1331985 -0.0079294969
v -0.52474597 -0.1335905 -0.012239497
v -0.54047498 -0.1332805 -0.010804497
v -0.552488 -0.1302315 -0.0044354969
v -0.55981198 -0.1304325 -0.0077604968
v -0.49157298 -0.1324145 -0.057537496
v -0.47360998 -0.1327575 -0.059208497
v -0.501964 -0.13324749 -0.046232495
v -0.50400099 -0.13335951 -0.036664497
v -0.50270298 -0.1332235 -0.057066496
v -0.49059999 -0.1334105 -0.025865497
v -0.47081998 -0.1335115 -0.028502496
v -0.464618 -0.1335225 -0.044049498
v -0.46160299 -0.13357051 -0.058560498
v -0.053486988 -0.1247385 -0.048956499
v 0.70126 -0.1096565 -0.1641375
v 0.69906399 -0.1099385 -0.1495205
v 0.692682 -0.1098835 -0.13580249
v 0.69249901 -0.1022145 -0.15072949
v 0.68788901 -0.1026335 -0.13924649
v 0.67855003 -0.1017395 -0.1310335
v 0.68092999 -0.1086605 -0.12609449
v 0.66339204 -0.0998445 -0.1286985
v 0.70051703 -0.1109675 -0.2000445
v 0.70139304 -0.1100415 -0.1808075
v 0.69332901 -0.1003555 -0.19928549
v 0.69495204 -0.1000515 -0.1801745
v 0.694747 -0.1010935 -0.1642345
v 0.68976602 -0.089213498 -0.17887649
v 0.69028398 -0.091149502 -0.1630075
v 0.68973103 -0.092455499 -0.1500075
v 0.68896404 -0.0786805 -0.1613555
v 0.68932703 -0.080301501 -0.1490075
v 0.68616703 -0.0806145 -0.1381155
v 0.68671003 -0.092718497 -0.13943049
v 0.677246 -0.080394499 -0.1313545
v 0.67757699 -0.092375502 -0.13206549
v 0.66308603 -0.079117499 -0.1292415
v 0.66315702 -0.091073498 -0.12910549
v 0.83770201 -0.1269505 -0.2465775
v 0.82687303 -0.12835249 -0.2397625
v 0.815074 -0.1287435 -0.2328655
v 0.80456802 -0.12970451 -0.25625551
v 0.79143801 -0.13005251 -0.24895449
v 0.780642 -0.1314735 -0.27204651
v 0.76605102 -0.1320595 -0.26454249
v 0.69850102 -0.1124785 -0.2208425
v 0.69054899 -0.1013335 -0.2202165
v 0.68441501 -0.088375501 -0.2195935
v 0.68737701 -0.088260502 -0.1982355
v 0.68340299 -0.073103502 -0.2203185
v 0.68596801 -0.073969498 -0.1979885
v 0.68784103 -0.076141499 -0.17753349
v 0.68821201 -0.057603501 -0.1992735
v 0.68979999 -0.060037501 -0.17708449
v 0.69083402 -0.0620915 -0.1606815
v 0.69284102 -0.039353501 -0.1784575
v 0.69344398 -0.042168502 -0.16100749
v 0.69300303 -0.0446705 -0.14717349
v 0.69073299 -0.063977502 -0.1479055
v 0.689841 -0.046673499 -0.1350995
v 0.68729499 -0.065777503 -0.13622649
v 0.67823103 -0.047225501 -0.12931649
v 0.676698 -0.065890498 -0.13027249
v 0.66306201 -0.065114498 -0.1292295
v 0.811775 -0.12717649 -0.29207349
v 0.82516399 -0.12741651 -0.26978651
v 0.80266502 -0.13054851 -0.28582251
v 0.81518903 -0.1294205 -0.2631245
v 0.79253402 -0.1310945 -0.27916849
v 0.789314 -0.13261449 -0.3086105
v 0.77950802 -0.1330685 -0.30208048
v 0.76840201 -0.1332195 -0.29526249
v 0.76513001 -0.1340865 -0.3248325
v 0.75487599 -0.13431551 -0.31797048
v 0.74258903 -0.1344485 -0.3104715
v 0.75498304 -0.13344251 -0.28783649
v 0.728798 -0.1345575 -0.3029415
v 0.739687 -0.13366149 -0.28021449
v 0.71501902 -0.1346055 -0.29642048
v 0.72417 -0.1335485 -0.27346951
v 0.70252201 -0.1342245 -0.2912015
v 0.71101502 -0.1323085 -0.26849249
v 0.69135204 -0.1296695 -0.28718349
v 0.68629602 -0.055279501 -0.2230065
v 0.69074199 -0.033169501 -0.2285195
v 0.69186702 -0.0362885 -0.20289649
v 0.69483098 -0.0181145 -0.18071949
v 0.69532201 -0.020320499 -0.1612215
v 0.69478002 -0.0220025 -0.1470605
v 0.69138601 -0.023463501 -0.1347225
v 0.67962202 -0.0241585 -0.1291835
v 0.059409011 -0.1305445 0.081710503
v 0.059934013 -0.1234145 0.1065485
v -0.049088988 -0.1224645 -0.022677496
v -0.049471989 -0.1240115 -0.039299496
v -0.037762988 -0.1316285 -0.026974497
v -0.051394988 -0.1223325 -0.0032914968
v -0.03698799 -0.12739851 -0.0075924969
v -0.022865988 -0.13384651 -0.013301496
v -0.016653989 -0.1339485 -0.035992496
v -0.0023269888 -0.1344225 -0.019639498
v 0.015373011 -0.1344565 -0.0033094969
v 0.03491101 -0.1337405 -0.0050314968
v 0.014529011 -0.1345775 0.017132504
v 0.036405012 -0.13410451 0.015798504
v 0.014766011 -0.1349815 0.038917504
v 0.03675301 -0.13462649 0.037419502
v 0.015411011 -0.1341325 0.062802501
v 0.03693201 -0.1339425 0.060590502
v 0.01607101 -0.1328875 0.088328503
v 0.037000012 -0.1295035 0.085109502
v 0.016200012 -0.1234775 0.1148025
v 0.03755901 -0.1227795 0.1109185
v 0.017067011 -0.1126255 0.1419415
v 0.039000012 -0.1125605 0.1368265
v 0.061257012 -0.1127155 0.13115351
v 0.041634012 -0.1023825 0.16292651
v 0.063969009 -0.1025045 0.15663651
v 0.067273013 -0.091611497 0.1784395
v -0.076263987 -0.1273405 0.014465503
v -0.05543299 -0.1261335 0.013033504
v -0.079050988 -0.13407651 0.026526503
v -0.058703989 -0.13380951 0.024673503
v -0.041597988 -0.13351651 0.021421503
v -0.038135991 -0.1274665 0.0093775028
v -0.026199989 -0.1339675 0.019475503
v -0.025722988 -0.1334635 0.003372503
v -0.0066089886 -0.13436951 0.018357502
v -0.0061509889 -0.1343585 -0.00044249679
v -0.025124989 -0.1346965 0.039850503
v -0.0059569888 -0.1347205 0.039700504
v -0.024343988 -0.13425051 0.064395502
v -0.0050459886 -0.1340785 0.064149506
v -0.024269989 -0.1332165 0.0911185
v -0.0044499887 -0.1329115 0.090194501
v -0.02476899 -0.1244255 0.1183525
v -0.0045019886 -0.1236145 0.1169605
v -0.025811989 -0.1126945 0.14729351
v -0.0044769887 -0.1125585 0.1456465
v -0.026556989 -0.1024905 0.1763255
v -0.0035939887 -0.1024575 0.17356451
v 0.019160012 -0.1022195 0.1690845
v -0.0019809888 -0.093004502 0.19780751
v 0.021962011 -0.091815501 0.1921435
v 0.045056012 -0.0915915 0.1853255
v 0.024106011 -0.084879503 0.2064195
v 0.047672011 -0.084843501 0.19933851
v 0.049661011 -0.076257497 0.20969151
v -0.458112 -0.1334085 -0.089932494
v -0.471984 -0.13288251 -0.074281499
v -0.46011299 -0.13353451 -0.0736515
v -0.48732299 -0.12662651 -0.072758496
v -0.493166 -0.1317015 -0.092959493
v -0.49334499 -0.1327405 -0.072692499
v -0.50277999 -0.13308351 -0.093208499
v -0.50324896 -0.1332505 -0.072710499
v -0.51296696 -0.1331275 -0.0940715
v -0.51398799 -0.13329551 -0.0730685
v -0.51532498 -0.1332805 -0.057019498
v -0.52481201 -0.1332085 -0.073934495
v -0.52753296 -0.1331985 -0.056799497
v -0.53076699 -0.1331605 -0.043454498
v -0.51762399 -0.1332905 -0.044876497
v -0.53548697 -0.1331615 -0.031526497
v -0.52260599 -0.13333049 -0.033480495
v -0.54148898 -0.1330695 -0.020361496
v -0.52988902 -0.1333275 -0.022134496
v -0.51194498 -0.1335225 -0.024102496
v -0.499358 -0.1337375 -0.012661497
v -0.51012102 -0.13393749 0.0011355032
v -0.48183799 -0.1338785 0.0009555032
v -0.47717798 -0.1336575 -0.013721497
v -0.455064 -0.13431451 0.0011655032
v -0.453253 -0.13413949 -0.015223497
v -0.45056099 -0.1339685 -0.030923497
v -0.44894299 -0.1338255 -0.044974498
v -0.433642 -0.1338405 -0.016756497
v -0.43375099 -0.1336785 -0.032760497
v -0.433348 -0.1335375 -0.046344496
v -0.43241698 -0.13348851 -0.059055496
v -0.44802397 -0.13369051 -0.058478497
v -0.419467 -0.1315975 -0.034681495
v -0.419072 -0.1318865 -0.048119497
v -0.415602 -0.1329565 -0.060441498
v -0.43118 -0.1334005 -0.072518498
v -0.39710298 -0.12575249 -0.052976497
v -0.10338699 -0.1349325 0.040661503
v -0.080309987 -0.1347955 0.040454503
v -0.10402099 -0.1343195 0.057455502
v -0.081434987 -0.1343285 0.059319504
v -0.061190989 -0.1344755 0.060938504
v -0.060008988 -0.13474651 0.039870504
v -0.042715989 -0.13420551 0.063342504
v -0.042327989 -0.1345505 0.039580502
v -0.06290099 -0.1336275 0.088168502
v -0.043457989 -0.13339449 0.090241507
v -0.064637989 -0.12513649 0.1166805
v -0.044732988 -0.1249295 0.1181175
v -0.067193992 -0.1131065 0.1455515
v -0.046798989 -0.1132165 0.1473235
v -0.070973992 -0.1013585 0.17527251
v -0.049433988 -0.1026445 0.1777975
v -0.074833989 -0.090166502 0.20002951
v -0.05123299 -0.091424502 0.20274051
v -0.026358988 -0.0921195 0.2008135
v -0.051469989 -0.083293498 0.2183615
v -0.025714988 -0.084116504 0.2160105
v -0.00058798876 -0.085633501 0.2126655
v -0.025110988 -0.074655503 0.2275645
v 0.00089601125 -0.076409504 0.22392951
v 0.025961012 -0.076377504 0.2170465
v -0.52293798 -0.1280615 -0.1155625
v -0.52356401 -0.13301951 -0.0950865
v -0.535642 -0.1330235 -0.075145498
v -0.54282001 -0.1289805 -0.075149499
v -0.54480901 -0.1292465 -0.055826496
v -0.53804198 -0.13302951 -0.056528497
v -0.54601297 -0.1292305 -0.041171499
v -0.54086897 -0.1329475 -0.042154498
v -0.54442999 -0.1329065 -0.029785497
v -0.54792598 -0.1308805 -0.019328497
v -0.55008897 -0.12747949 -0.011236497
v -0.54939499 -0.1307205 -0.011538497
v -0.55301598 -0.12737051 -0.0046734968
v -0.55764499 -0.12741449 -0.0069004968
v -0.55982599 -0.12745149 -0.016088497
v -0.56184098 -0.13190649 -0.017059498
v -0.57436296 -0.1332985 -0.018588496
v -0.57405999 -0.1333375 -0.031234497
v -0.589039 -0.13053849 -0.034508497
v -0.59814098 -0.1256855 -0.037299495
v -0.58963999 -0.13220149 -0.021392496
v -0.60506997 -0.1229185 -0.039222497
v -0.602492 -0.1279465 -0.022643497
v -0.61289099 -0.1196305 -0.041256499
v -0.613718 -0.1195455 -0.023504497
v -0.62001696 -0.1270965 -0.026620496
v -0.51640901 -0.1341455 0.015788503
v -0.48621899 -0.1343995 0.035178505
v -0.48443699 -0.1339905 0.017357504
v -0.457663 -0.1345205 0.036512502
v -0.45582297 -0.1342915 0.018510504
v -0.43360299 -0.1340805 0.019023504
v -0.433323 -0.13398349 0.0011945032
v -0.41529799 -0.1331815 0.019141503
v -0.41753697 -0.1328285 0.00076350325
v -0.419112 -0.1316615 -0.018070497
v -0.39964598 -0.1217295 -0.020076497
v -0.10519299 -0.13255151 0.081800506
v -0.131157 -0.1237455 0.1042075
v -0.10710099 -0.1229435 0.1084015
v -0.085234992 -0.1238995 0.11302751
v -0.083110988 -0.13293751 0.0853815
v -0.11000099 -0.1127995 0.1351925
v -0.088137992 -0.1131735 0.1410715
v -0.11433399 -0.1020035 0.1614905
v -0.092193991 -0.1015165 0.16981751
v -0.11947199 -0.091526501 0.18163151
v -0.097357988 -0.090396501 0.19236751
v -0.12389799 -0.085136503 0.1945665
v -0.10191099 -0.0831635 0.2069425
v -0.077773988 -0.082108498 0.2161755
v -0.10574599 -0.075064503 0.2176315
v -0.080193989 -0.0745745 0.22781551
v -0.051819988 -0.074107498 0.2294265
v -0.57884797 -0.1121685 -0.1383905
v -0.57808802 -0.1213745 -0.12480149
v -0.60106596 -0.1134085 -0.13096349
v -0.599511 -0.1233765 -0.1139505
v -0.62242201 -0.1166045 -0.12691949
v -0.61811998 -0.1263665 -0.1063395
v -0.644178 -0.1159745 -0.12110449
v -0.63817897 -0.12639751 -0.1030935
v -0.63545397 -0.1311315 -0.086147495
v -0.63612601 -0.1329935 -0.068996496
v -0.66397801 -0.1240185 -0.098759495
v -0.65962002 -0.1285345 -0.083703496
v -0.65902302 -0.1323055 -0.068145499
v -0.66249296 -0.1321125 -0.050372496
v -0.64261898 -0.1330705 -0.049366497
v -0.64703801 -0.13311251 -0.030459497
v -0.13727199 -0.1023685 0.1536795
v -0.14131799 -0.092861503 0.1726535
v -0.14445499 -0.086109497 0.18377151
v -0.14758798 -0.0767975 0.19294751
v -0.12743498 -0.076495498 0.20407051
v -0.60352597 -0.099118501 -0.1446635
v -0.62643597 -0.1009045 -0.1423755
v -0.64861301 -0.1006685 -0.1361395
v -0.67256799 -0.099990502 -0.1294245
v -0.66866401 -0.1142845 -0.1147255
v -0.697566 -0.1020665 -0.1233885
v -0.719946 -0.1009355 -0.1115535
v -0.61155298 -0.1146565 -0.053448498
v -0.58658001 -0.1324845 -0.046755496
v -0.56077299 -0.1312975 -0.028271496
v -0.56947002 -0.1334565 -0.043057498
v -0.57484499 -0.1335475 -0.057014495
v -0.55793098 -0.1272815 -0.039933495
v -0.56138799 -0.13302051 -0.055343498
v -0.56367901 -0.13331249 -0.070589498
v -0.57779798 -0.13346849 -0.069664493
v -0.56361201 -0.13291951 -0.0874945
v -0.44699198 -0.1335575 -0.0728205
v 0.78178599 -0.12916151 -0.3370145
v 0.79772702 -0.1283045 -0.3145605
v 0.77409503 -0.1333975 -0.3312555
v 0.764972 -0.1298255 -0.3589865
v 0.75791201 -0.1344965 -0.35341251
v 0.74952802 -0.1353025 -0.34689549
v 0.741559 -0.1352495 -0.37487251
v 0.73368004 -0.1366055 -0.3685655
v 0.72564903 -0.13670149 -0.3623195
v 0.74051502 -0.13542651 -0.34026849
v 0.715772 -0.1366365 -0.35528448
v 0.72924599 -0.13548949 -0.3328315
v 0.70491698 -0.13661849 -0.34848249
v 0.71700999 -0.13555349 -0.3256405
v 0.69369003 -0.1369115 -0.34238648
v 0.70454803 -0.1356585 -0.3192845
v 0.68248704 -0.1368705 -0.3368285
v 0.69306502 -0.1353845 -0.31400549
v 0.67214504 -0.1329625 -0.33209449
v 0.68235603 -0.1315235 -0.30968049
v 0.748261 -0.1308365 -0.38053951
v 0.73128703 -0.1319575 -0.40117249
v 0.72517702 -0.1368835 -0.39590248
v 0.71443501 -0.13295449 -0.42170149
v 0.70904502 -0.13794149 -0.41702551
v 0.70224503 -0.1402725 -0.4117285
v 0.71794501 -0.13845649 -0.38989949
v 0.69496199 -0.14092749 -0.40633449
v 0.71041003 -0.1386575 -0.38404348
v 0.68701199 -0.1410825 -0.40076149
v 0.70181701 -0.1385795 -0.3778865
v 0.67813602 -0.1411985 -0.39482549
v 0.692238 -0.1386635 -0.37161151
v 0.66873804 -0.14125749 -0.3888115
v 0.68210301 -0.13910951 -0.3656095
v 0.65848199 -0.14110149 -0.38274249
v 0.67111298 -0.13885149 -0.35966349
v 0.64866903 -0.1383715 -0.37730148
v 0.66112503 -0.13517851 -0.3547405
v 0.68679699 -0.1417045 -0.43483248
v 0.67950204 -0.1421085 -0.42941248
v 0.65738401 -0.14325251 -0.44659251
v 0.67175302 -0.1422585 -0.4237625
v 0.649295 -0.14345451 -0.4404285
v 0.66330203 -0.1423575 -0.41779551
v 0.64040104 -0.1436525 -0.4339295
v 0.65427598 -0.1423935 -0.41166449
v 0.63110301 -0.1434935 -0.4274435
v 0.64501402 -0.14210451 -0.4056375
v 0.62217501 -0.1415945 -0.42149851
v 0.635878 -0.1400605 -0.39972249
v 0.61555299 -0.1338485 -0.41751549
v 0.62936398 -0.13179751 -0.39614451
v 0.603138 -0.1481505 -0.46976751
v 0.61717799 -0.14501449 -0.44870451
v 0.59410599 -0.1455055 -0.46411851
v 0.60805902 -0.1427125 -0.44286549
v 0.58738402 -0.1374035 -0.46051449
v 0.60129198 -0.13541751 -0.43899348
f 26 27 24
f 26 24 1
f 1 23 25
f 1 25 26
f 2 31 32
f 2 32 30
f 2 29 33
f 2 33 31
f 3 34 35
f 4 33 41
f 4 41 40
f 4 42 43
f 4 43 44
f 4 45 31
f 4 31 33
f 4 44 46
f 4 46 45
f 5 7 49
f 5 49 50
f 5 50 51
f 5 51 6
f 6 52 53
f 6 53 47
f 7 48 54
f 7 54 9
f 8 9 55
f 8 55 10
f 8 56 7
f 8 7 9
f 9 58 59
f 9 59 55
f 9 54 60
f 9 60 58
f 7 34 3
f 7 3 49
f 7 56 62
f 7 62 34
f 11 39 38
f 11 38 66
f 12 68 69
f 12 69 67
f 13 72 73
f 13 74 14
f 13 14 75
f 13 75 72
f 14 76 77
f 14 77 78
f 15 16 82
f 15 82 81
f 15 83 84
f 15 84 16
f 15 80 85
f 15 85 83
f 16 86 87
f 16 87 88
f 16 88 89
f 16 89 82
f 17 90 91
f 17 91 63
f 17 63 92
f 18 94 95
f 18 95 96
f 19 101 102
f 19 102 97
f 20 103 104
f 20 104 105
f 20 106 107
f 20 107 103
f 20 108 109
f 20 109 106
f 20 105 110
f 20 110 111
f 20 111 112
f 20 112 108
f 21 113 114
f 21 114 115
f 21 115 116
f 21 116 117
f 22 118 119
f 22 119 120
f 22 121 122
f 22 122 118
f 22 120 123
f 22 123 121
f 129 128 130
f 129 130 131
f 129 131 132
f 129 132 124
f 132 131 133
f 132 133 134
f 132 126 125
f 136 137 138
f 136 138 139
f 139 138 140
f 139 140 141
f 139 141 142
f 139 142 127
f 142 141 143
f 142 143 144
f 142 144 145
f 142 145 130
f 142 130 128
f 142 128 127
f 145 144 146
f 145 146 147
f 145 147 148
f 145 148 133
f 145 133 131
f 145 131 130
f 148 147 149
f 148 149 150
f 148 150 151
f 148 151 135
f 148 135 134
f 148 134 133
f 151 150 152
f 151 152 153
f 156 155 157
f 156 157 158
f 156 158 159
f 156 159 137
f 159 158 160
f 159 160 161
f 159 161 162
f 159 162 140
f 159 140 138
f 159 138 137
f 162 161 163
f 162 163 164
f 162 164 165
f 162 165 143
f 162 143 141
f 162 141 140
f 165 164 166
f 165 166 167
f 165 167 168
f 165 168 146
f 165 146 144
f 165 144 143
f 168 167 169
f 168 169 170
f 168 170 171
f 168 171 149
f 168 149 147
f 168 147 146
f 171 170 172
f 171 172 173
f 171 173 174
f 171 174 152
f 171 152 150
f 171 150 149
f 174 173 175
f 174 175 176
f 174 176 177
f 174 177 154
f 174 154 153
f 174 153 152
f 177 176 178
f 177 178 179
f 179 178 180
f 179 180 181
f 184 183 185
f 184 185 186
f 184 186 187
f 184 187 188
f 188 187 189
f 188 189 190
f 195 196 197
f 195 197 198
f 195 198 160
f 195 160 158
f 195 158 157
f 198 197 199
f 198 199 200
f 198 200 201
f 198 201 163
f 198 163 161
f 198 161 160
f 201 200 202
f 201 202 203
f 201 203 204
f 201 204 166
f 201 166 164
f 201 164 163
f 204 203 205
f 204 205 206
f 204 206 207
f 204 207 169
f 204 169 167
f 204 167 166
f 207 206 208
f 207 208 209
f 207 209 210
f 207 210 172
f 207 172 170
f 207 170 169
f 210 209 211
f 210 211 212
f 210 212 213
f 210 213 175
f 210 175 173
f 210 173 172
f 213 212 214
f 213 214 215
f 213 215 180
f 213 180 178
f 213 178 176
f 213 176 175
f 215 214 216
f 215 216 217
f 215 217 182
f 215 182 180
f 217 216 121
f 217 121 123
f 217 123 218
f 217 218 182
f 218 123 120
f 218 120 219
f 218 219 220
f 218 220 185
f 218 185 183
f 218 183 182
f 220 219 221
f 220 221 222
f 220 222 223
f 220 223 224
f 220 224 186
f 220 186 185
f 224 225 187
f 224 187 186
f 226 228 229
f 229 228 230
f 229 230 231
f 229 231 232
f 229 232 191
f 232 231 233
f 232 233 234
f 232 234 235
f 232 235 236
f 232 236 192
f 232 192 191
f 236 235 237
f 236 237 238
f 236 238 193
f 236 193 192
f 238 237 239
f 238 239 240
f 238 240 194
f 238 194 193
f 241 242 199
f 241 199 197
f 242 243 244
f 242 244 245
f 242 245 202
f 242 202 200
f 242 200 199
f 245 244 246
f 245 246 247
f 245 247 248
f 245 248 205
f 245 205 203
f 245 203 202
f 248 247 249
f 248 249 250
f 248 250 251
f 248 251 208
f 248 208 206
f 248 206 205
f 251 250 252
f 251 252 253
f 251 253 254
f 251 254 211
f 251 211 209
f 251 209 208
f 254 253 255
f 254 255 256
f 254 256 216
f 254 216 214
f 254 214 212
f 254 212 211
f 256 255 257
f 256 257 122
f 256 122 121
f 256 121 216
f 257 255 258
f 257 258 259
f 257 259 260
f 257 260 261
f 257 261 118
f 257 118 122
f 261 260 262
f 261 262 263
f 261 263 119
f 261 119 118
f 263 262 264
f 263 264 265
f 263 265 221
f 263 221 119
f 265 264 266
f 265 266 267
f 265 267 222
f 265 222 221
f 267 266 268
f 267 268 269
f 267 269 223
f 267 223 222
f 269 268 270
f 269 270 271
f 272 274 275
f 272 275 230
f 272 230 228
f 272 228 227
f 275 274 276
f 275 276 277
f 275 277 278
f 275 278 233
f 275 233 231
f 275 231 230
f 278 277 279
f 278 279 280
f 278 280 281
f 278 281 282
f 278 282 234
f 278 234 233
f 282 281 283
f 282 283 284
f 282 284 235
f 282 235 234
f 284 283 285
f 284 285 286
f 284 286 237
f 284 237 235
f 286 287 239
f 286 239 237
f 288 289 290
f 288 290 291
f 288 291 246
f 288 246 244
f 288 244 243
f 291 290 292
f 291 292 293
f 291 293 294
f 291 294 249
f 291 249 247
f 291 247 246
f 294 293 108
f 294 108 112
f 294 112 258
f 294 258 252
f 294 252 250
f 294 250 249
f 293 292 109
f 293 109 108
f 292 290 289
f 292 295 296
f 292 296 109
f 296 297 106
f 296 106 109
f 297 298 299
f 297 299 107
f 297 107 106
f 299 300 116
f 299 116 115
f 299 115 107
f 300 301 117
f 300 117 116
f 301 302 99
f 301 99 117
f 302 303 100
f 302 100 99
f 303 304 305
f 306 94 93
f 307 308 309
f 307 309 102
f 307 102 101
f 307 101 96
f 307 96 95
f 309 308 310
f 309 310 311
f 309 311 102
f 311 310 312
f 311 312 313
f 311 313 314
f 311 314 98
f 311 98 102
f 98 97 102
f 313 316 317
f 313 317 314
f 316 315 318
f 316 318 319
f 316 319 320
f 316 320 317
f 320 319 321
f 320 321 322
f 320 322 323
f 320 323 324
f 320 324 21
f 320 21 317
f 324 323 325
f 324 325 326
f 324 326 113
f 324 113 21
f 326 325 327
f 326 327 328
f 326 328 329
f 326 329 113
f 329 328 330
f 329 330 331
f 329 331 332
f 329 332 333
f 329 333 114
f 329 114 113
f 333 332 334
f 333 334 104
f 333 104 103
f 333 103 114
f 334 332 335
f 334 335 336
f 334 336 337
f 334 337 338
f 334 338 105
f 334 105 104
f 338 337 339
f 338 339 340
f 338 340 110
f 338 110 105
f 340 339 264
f 340 264 262
f 340 262 260
f 340 260 110
f 339 337 341
f 339 341 342
f 339 342 266
f 339 266 264
f 342 341 343
f 342 343 344
f 342 344 268
f 342 268 266
f 344 343 345
f 344 345 346
f 344 346 270
f 344 270 268
f 346 345 347
f 346 347 348
f 349 351 352
f 349 352 276
f 349 276 274
f 349 274 273
f 352 351 26
f 352 26 25
f 352 25 353
f 352 353 279
f 352 279 277
f 352 277 276
f 353 25 23
f 353 23 354
f 353 354 355
f 353 355 356
f 353 356 280
f 353 280 279
f 356 355 357
f 356 357 358
f 356 358 281
f 356 281 280
f 358 357 359
f 358 359 360
f 358 360 283
f 358 283 281
f 360 359 361
f 360 361 362
f 360 362 285
f 360 285 283
f 369 315 312
f 369 312 310
f 368 318 315
f 367 366 370
f 367 370 318
f 370 366 371
f 370 371 372
f 370 372 373
f 370 373 321
f 370 321 319
f 370 319 318
f 373 372 374
f 373 374 375
f 373 375 376
f 373 376 377
f 373 377 322
f 373 322 321
f 377 376 378
f 377 378 379
f 377 379 323
f 377 323 322
f 379 378 380
f 379 380 381
f 379 381 325
f 379 325 323
f 381 380 382
f 381 382 383
f 381 383 327
f 381 327 325
f 383 382 384
f 383 384 385
f 383 385 386
f 383 386 327
f 386 385 387
f 386 387 388
f 386 388 389
f 386 389 330
f 386 330 328
f 386 328 327
f 389 388 390
f 389 390 391
f 389 391 392
f 389 392 393
f 389 393 331
f 389 331 330
f 393 392 394
f 393 394 335
f 393 335 332
f 393 332 331
f 394 392 395
f 394 395 396
f 394 396 397
f 394 397 398
f 394 398 336
f 394 336 335
f 398 397 343
f 398 343 341
f 398 341 337
f 398 337 336
f 397 396 399
f 397 399 400
f 397 400 345
f 397 345 343
f 400 399 401
f 400 401 402
f 400 402 347
f 400 347 345
f 403 404 405
f 403 405 406
f 403 406 91
f 406 405 407
f 406 407 64
f 406 64 63
f 406 63 91
f 407 405 408
f 407 408 409
f 407 409 410
f 407 410 411
f 407 411 65
f 407 65 64
f 411 410 412
f 411 412 413
f 411 413 363
f 411 363 65
f 413 412 414
f 413 414 415
f 413 415 364
f 415 414 416
f 415 416 417
f 417 416 374
f 417 374 418
f 417 418 365
f 418 374 372
f 418 372 371
f 416 414 419
f 416 419 420
f 416 420 375
f 416 375 374
f 420 419 421
f 420 421 422
f 420 422 376
f 420 376 375
f 422 421 423
f 422 423 424
f 422 424 378
f 422 378 376
f 424 423 425
f 424 425 426
f 424 426 380
f 424 380 378
f 426 425 427
f 426 427 428
f 426 428 382
f 426 382 380
f 428 427 429
f 428 429 430
f 428 430 384
f 428 384 382
f 430 429 431
f 430 431 432
f 430 432 433
f 430 433 384
f 433 432 434
f 433 434 435
f 433 435 436
f 433 436 387
f 433 387 385
f 433 385 384
f 436 435 437
f 436 437 438
f 436 438 439
f 436 439 390
f 436 390 388
f 436 388 387
f 439 438 440
f 439 440 441
f 439 441 442
f 439 442 443
f 439 443 391
f 439 391 390
f 443 442 444
f 443 444 395
f 443 395 392
f 443 392 391
f 444 442 445
f 444 445 446
f 444 446 401
f 444 401 399
f 444 399 396
f 444 396 395
f 450 449 451
f 450 451 408
f 450 408 405
f 450 405 404
f 451 449 452
f 451 452 453
f 451 453 454
f 451 454 455
f 451 455 409
f 451 409 408
f 455 454 456
f 455 456 457
f 455 457 410
f 455 410 409
f 457 456 458
f 457 458 459
f 457 459 412
f 457 412 410
f 459 458 421
f 459 421 419
f 459 419 414
f 459 414 412
f 458 456 460
f 458 460 461
f 458 461 423
f 458 423 421
f 461 460 462
f 461 462 463
f 461 463 425
f 461 425 423
f 463 462 464
f 463 464 465
f 463 465 427
f 463 427 425
f 465 464 466
f 465 466 467
f 465 467 429
f 465 429 427
f 467 466 468
f 467 468 469
f 467 469 431
f 467 431 429
f 469 468 470
f 469 470 471
f 469 471 472
f 469 472 431
f 472 471 473
f 472 473 474
f 472 474 475
f 472 475 434
f 472 434 432
f 472 432 431
f 475 474 476
f 475 476 477
f 475 477 478
f 475 478 437
f 475 437 435
f 475 435 434
f 478 477 479
f 478 479 480
f 478 480 481
f 478 481 440
f 478 440 438
f 478 438 437
f 481 482 441
f 481 441 440
f 482 445 442
f 482 442 441
f 485 484 486
f 485 486 487
f 488 487 489
f 488 489 28
f 489 487 486
f 489 486 490
f 491 492 493
f 491 493 85
f 491 85 80
f 493 494 495
f 493 495 496
f 493 496 85
f 496 495 497
f 496 497 498
f 496 498 499
f 496 499 500
f 496 500 83
f 496 83 85
f 500 499 501
f 500 501 502
f 500 502 84
f 500 84 83
f 502 501 503
f 502 503 504
f 502 504 505
f 502 505 84
f 505 76 506
f 505 506 86
f 505 86 16
f 505 16 84
f 505 504 77
f 505 77 76
f 506 76 14
f 506 14 507
f 506 507 508
f 506 508 509
f 506 509 87
f 506 87 86
f 509 508 510
f 509 511 87
f 511 88 87
f 512 513 514
f 512 514 515
f 512 515 448
f 512 448 447
f 515 514 516
f 515 516 452
f 515 452 449
f 515 449 448
f 516 514 517
f 516 517 518
f 516 518 519
f 516 519 520
f 516 520 453
f 516 453 452
f 520 519 521
f 520 521 522
f 520 522 454
f 520 454 453
f 522 521 462
f 522 462 460
f 522 460 456
f 522 456 454
f 521 519 523
f 521 523 524
f 521 524 464
f 521 464 462
f 524 523 525
f 524 525 526
f 524 526 466
f 524 466 464
f 526 525 527
f 526 527 528
f 526 528 468
f 526 468 466
f 528 527 529
f 528 529 530
f 528 530 470
f 528 470 468
f 530 529 531
f 530 531 532
f 530 532 533
f 530 533 470
f 533 532 534
f 533 534 535
f 533 535 536
f 533 536 473
f 533 473 471
f 533 471 470
f 536 535 537
f 536 537 538
f 536 538 539
f 536 539 476
f 536 476 474
f 536 474 473
f 539 479 477
f 541 486 484
f 541 484 483
f 541 540 542
f 541 542 543
f 541 543 490
f 541 490 486
f 544 37 545
f 544 545 497
f 544 497 495
f 544 495 494
f 545 37 36
f 545 36 546
f 545 546 547
f 545 547 548
f 545 548 498
f 545 498 497
f 548 547 549
f 548 549 550
f 548 550 499
f 548 499 498
f 550 549 70
f 550 70 551
f 550 551 501
f 550 501 499
f 551 552 503
f 551 503 501
f 552 553 554
f 552 554 503
f 554 555 78
f 554 78 77
f 554 77 504
f 554 504 503
f 556 558 79
f 558 559 79
f 559 558 560
f 559 560 561
f 559 561 562
f 559 562 563
f 559 563 75
f 559 75 79
f 563 562 564
f 563 564 565
f 563 565 72
f 563 72 75
f 565 564 566
f 565 566 567
f 565 567 73
f 565 73 72
f 567 568 569
f 569 568 570
f 571 507 14
f 571 14 74
f 571 572 508
f 571 508 507
f 573 575 576
f 573 576 513
f 576 575 577
f 576 577 517
f 576 517 514
f 576 514 513
f 577 575 578
f 577 578 579
f 577 579 580
f 577 580 581
f 577 581 518
f 577 518 517
f 581 580 525
f 581 525 523
f 581 523 519
f 581 519 518
f 580 579 582
f 580 582 583
f 580 583 527
f 580 527 525
f 583 582 584
f 583 584 585
f 583 585 529
f 583 529 527
f 585 584 586
f 585 586 587
f 585 587 531
f 585 531 529
f 587 586 588
f 587 588 589
f 587 589 590
f 587 590 531
f 590 589 591
f 590 591 592
f 590 592 593
f 590 593 534
f 590 534 532
f 590 532 531
f 593 537 535
f 593 535 534
f 594 595 596
f 594 596 50
f 594 50 49
f 596 595 597
f 596 597 598
f 596 598 51
f 596 51 50
f 598 597 599
f 598 599 600
f 598 600 601
f 598 601 51
f 601 602 6
f 601 6 51
f 601 600 603
f 601 603 604
f 601 604 605
f 601 605 602
f 605 604 43
f 605 43 69
f 605 69 68
f 605 68 606
f 605 606 607
f 605 607 602
f 607 606 608
f 607 609 570
f 607 570 52
f 607 52 6
f 607 6 602
f 610 611 612
f 612 611 613
f 612 613 578
f 612 578 575
f 612 575 574
f 613 611 614
f 613 614 615
f 613 615 584
f 613 584 582
f 613 582 579
f 613 579 578
f 615 614 616
f 615 616 617
f 615 617 586
f 615 586 584
f 617 616 618
f 617 618 619
f 617 619 588
f 617 588 586
f 619 618 620
f 619 620 621
f 619 621 622
f 619 622 588
f 622 591 589
f 622 589 588
f 623 624 597
f 624 625 599
f 624 599 597
f 625 626 627
f 625 627 599
f 627 603 600
f 627 600 599
f 627 626 628
f 627 628 46
f 627 46 44
f 627 44 603
f 628 629 45
f 628 45 46
f 629 32 31
f 629 31 45
f 631 630 616
f 631 616 614
f 631 614 611
f 630 632 633
f 630 633 618
f 630 618 616
f 633 634 620
f 633 620 618
f 635 41 33
f 635 33 29
f 608 606 68
f 604 603 44
f 604 44 43
f 570 568 53
f 570 53 52
f 566 564 60
f 566 60 636
f 564 562 58
f 564 58 60
f 562 561 59
f 562 59 58
f 561 560 637
f 561 637 59
f 637 560 638
f 637 638 639
f 637 639 640
f 637 640 61
f 640 639 641
f 640 641 642
f 640 642 643
f 640 643 644
f 640 644 57
f 640 57 61
f 644 643 645
f 644 645 62
f 644 62 56
f 644 56 57
f 645 35 34
f 645 34 62
f 641 639 638
f 641 638 71
f 638 560 558
f 638 558 557
f 647 646 648
f 647 648 649
f 647 649 27
f 647 27 26
f 647 26 351
f 647 351 350
f 653 652 654
f 653 654 655
f 653 655 651
f 653 651 650
f 655 654 656
f 655 656 657
f 661 660 662
f 661 662 663
f 661 663 654
f 661 654 652
f 663 662 664
f 663 664 665
f 663 665 656
f 663 656 654
f 665 664 666
f 665 666 667
f 665 667 658
f 665 658 656
f 667 666 668
f 667 668 669
f 667 669 659
f 669 668 670
f 669 670 671
f 671 670 672
f 674 676 662
f 674 662 660
f 676 675 677
f 676 677 678
f 676 678 664
f 676 664 662
f 678 677 679
f 678 679 680
f 678 680 666
f 678 666 664
f 680 679 681
f 680 681 682
f 680 682 668
f 680 668 666
f 682 681 683
f 682 683 684
f 682 684 670
f 682 670 668
f 684 683 685
f 684 685 686
f 684 686 672
f 684 672 670
f 686 685 687
f 686 687 688
f 686 688 673
f 686 673 672
f 690 689 691
f 690 691 692
f 690 692 677
f 690 677 675
f 692 691 693
f 692 693 694
f 692 694 679
f 692 679 677
f 694 693 695
f 694 695 696
f 694 696 681
f 694 681 679
f 696 695 697
f 696 697 698
f 696 698 683
f 696 683 681
f 698 697 699
f 698 699 700
f 698 700 685
f 698 685 683
f 700 699 701
f 700 701 702
f 700 702 687
f 700 687 685
f 704 703 705
f 704 705 706
f 704 706 691
f 704 691 689
f 706 705 707
f 706 707 708
f 706 708 693
f 706 693 691
f 708 707 709
f 708 709 710
f 708 710 695
f 708 695 693
f 710 709 711
f 710 711 712
f 710 712 697
f 710 697 695
f 712 711 713
f 712 713 714
f 712 714 699
f 712 699 697
f 714 713 715
f 714 715 716
f 714 716 701
f 714 701 699
f 717 707 705
f 718 709 707
f 719 711 709
f 720 713 711
f 721 722 715
f 721 715 713
f 260 259 111
f 260 111 110
f 259 258 112
f 259 112 111
f 258 255 253
f 258 253 252
f 221 219 120
f 221 120 119
f 115 114 103
f 115 103 107
f 21 117 99
f 21 99 98
f 314 317 21
f 314 21 98
f 69 43 42
f 69 42 67
f 38 39 40
f 38 40 41
f 723 737 740
f 723 740 739
f 739 738 23
f 739 23 723
f 742 744 743
f 742 743 724
f 743 745 741
f 748 747 746
f 748 746 725
f 754 755 745
f 754 745 726
f 758 757 756
f 758 756 726
f 745 743 759
f 745 759 726
f 759 760 758
f 759 758 726
f 764 763 729
f 764 729 727
f 728 765 764
f 728 764 727
f 761 767 766
f 761 766 728
f 731 768 762
f 731 762 729
f 732 769 731
f 732 731 730
f 731 729 770
f 731 770 730
f 769 773 772
f 769 772 731
f 772 774 768
f 772 768 731
f 763 725 746
f 763 746 729
f 746 776 770
f 746 770 729
f 779 778 777
f 781 783 782
f 790 789 788
f 790 788 734
f 736 795 794
f 736 794 735
f 794 796 792
f 794 792 735
f 799 798 797
f 799 797 736
f 793 800 799
f 793 799 736
f 806 805 803
f 806 803 804
f 808 807 806
f 808 806 804
f 813 812 810
f 813 810 811
f 802 814 813
f 802 813 811
f 816 815 813
f 816 813 814
f 805 817 816
f 805 816 814
f 802 803 805
f 802 805 814
f 819 818 816
f 819 816 817
f 821 820 819
f 821 819 817
f 805 806 821
f 805 821 817
f 823 822 820
f 823 820 821
f 806 807 823
f 806 823 821
f 825 824 822
f 825 822 823
f 807 809 825
f 807 825 823
f 810 812 834
f 810 834 833
f 812 836 835
f 812 835 834
f 838 837 835
f 838 835 836
f 815 839 838
f 815 838 836
f 812 813 815
f 812 815 836
f 841 840 838
f 841 838 839
f 818 842 841
f 818 841 839
f 815 816 818
f 815 818 839
f 844 843 841
f 844 841 842
f 846 845 844
f 846 844 842
f 818 819 846
f 818 846 842
f 848 847 845
f 848 845 846
f 819 820 848
f 819 848 846
f 850 849 847
f 850 847 848
f 820 822 850
f 820 850 848
f 822 824 851
f 822 851 850
f 855 854 852
f 855 852 853
f 826 827 855
f 826 855 853
f 829 856 854
f 829 854 855
f 827 828 829
f 827 829 855
f 858 857 854
f 858 854 856
f 831 859 858
f 831 858 856
f 829 830 831
f 829 831 856
f 861 860 858
f 861 858 859
f 863 862 861
f 863 861 859
f 831 832 863
f 831 863 859
f 865 864 862
f 865 862 863
f 832 865 863
f 867 866 864
f 867 864 865
f 869 868 866
f 840 873 872
f 840 872 871
f 837 838 840
f 837 840 871
f 738 739 872
f 738 872 873
f 843 874 738
f 843 738 873
f 840 841 843
f 840 843 873
f 354 23 738
f 354 738 874
f 875 355 354
f 875 354 874
f 843 844 875
f 843 875 874
f 876 357 355
f 876 355 875
f 844 845 876
f 844 876 875
f 877 359 357
f 877 357 876
f 845 847 877
f 845 877 876
f 878 361 359
f 878 359 877
f 847 849 878
f 847 878 877
f 780 881 882
f 801 779 780
f 885 884 881
f 885 881 883
f 887 886 885
f 887 885 883
f 892 891 889
f 892 889 890
f 894 893 891
f 894 891 892
f 896 895 893
f 898 897 895
f 900 899 897
f 900 897 898
f 879 880 900
f 879 900 898
f 902 901 899
f 902 899 900
f 880 903 902
f 880 902 900
f 905 904 902
f 884 908 907
f 910 907 908
f 912 911 910
f 912 910 908
f 884 885 912
f 884 912 908
f 914 913 911
f 914 911 912
f 885 886 914
f 885 914 912
f 916 915 913
f 916 913 914
f 886 888 916
f 886 916 914
f 889 891 915
f 889 915 916
f 888 889 916
f 918 917 913
f 918 913 915
f 891 893 918
f 891 918 915
f 920 919 917
f 920 917 918
f 893 895 920
f 893 920 918
f 922 921 919
f 922 919 920
f 895 897 922
f 895 922 920
f 924 923 921
f 924 921 922
f 897 899 924
f 897 924 922
f 926 925 923
f 926 923 924
f 899 901 926
f 899 926 924
f 928 927 925
f 928 925 926
f 901 929 928
f 901 928 926
f 931 930 928
f 931 928 929
f 904 932 931
f 904 931 929
f 901 902 904
f 901 904 929
f 934 933 931
f 934 931 932
f 906 934 932
f 936 938 937
f 939 941 940
f 943 942 940
f 943 940 941
f 792 796 943
f 792 943 941
f 939 733 792
f 939 792 941
f 945 944 942
f 945 942 943
f 796 946 945
f 796 945 943
f 948 947 945
f 948 945 946
f 950 949 948
f 950 948 946
f 796 794 950
f 796 950 946
f 952 951 949
f 952 949 950
f 794 795 952
f 794 952 950
f 954 953 951
f 954 951 952
f 795 955 954
f 795 954 952
f 797 956 788
f 797 788 955
f 795 736 797
f 795 797 955
f 788 789 954
f 788 954 955
f 957 734 788
f 957 788 956
f 959 958 957
f 959 957 956
f 797 798 959
f 797 959 956
f 961 960 958
f 961 958 959
f 798 962 961
f 798 961 959
f 798 799 963
f 798 963 962
f 965 964 961
f 965 961 962
f 963 966 965
f 963 965 962
f 963 968 967
f 963 967 966
f 970 969 965
f 970 965 966
f 967 971 970
f 967 970 966
f 977 974 975
f 979 978 977
f 979 977 975
f 909 910 979
f 981 980 978
f 981 978 979
f 910 911 981
f 910 981 979
f 917 919 980
f 917 980 981
f 911 913 917
f 911 917 981
f 983 982 978
f 983 978 980
f 919 921 983
f 919 983 980
f 985 984 982
f 985 982 983
f 921 923 985
f 921 985 983
f 987 986 984
f 987 984 985
f 923 925 987
f 923 987 985
f 989 988 986
f 989 986 987
f 925 927 989
f 925 989 987
f 991 990 988
f 991 988 989
f 927 992 991
f 927 991 989
f 994 993 991
f 994 991 992
f 930 995 994
f 930 994 992
f 927 928 930
f 927 930 992
f 997 996 994
f 997 994 995
f 933 998 997
f 933 997 995
f 930 931 933
f 930 933 995
f 933 934 935
f 933 935 998
f 944 1000 999
f 751 999 1000
f 947 1001 751
f 947 751 1000
f 944 945 947
f 944 947 1000
f 1002 750 751
f 1002 751 1001
f 1004 1003 1002
f 1004 1002 1001
f 947 948 1004
f 947 1004 1001
f 1006 1005 1003
f 1006 1003 1004
f 948 949 1006
f 948 1006 1004
f 1007 784 1005
f 1007 1005 1006
f 949 951 1007
f 949 1007 1006
f 951 953 1008
f 951 1008 1007
f 953 1010 1009
f 953 1009 1008
f 789 790 1011
f 789 1011 1010
f 953 954 789
f 953 789 1010
f 791 1015 1014
f 791 1014 1012
f 1017 1016 1014
f 1017 1014 1015
f 1019 1018 1017
f 1019 1017 1015
f 791 787 1019
f 791 1019 1015
f 1021 1020 1018
f 1021 1018 1019
f 787 1021 1019
f 1023 1022 1020
f 1023 1020 1021
f 1024 767 1022
f 786 734 957
f 786 957 1025
f 957 958 1027
f 957 1027 1025
f 1029 1026 1027
f 958 960 1029
f 958 1029 1027
f 1030 1028 1029
f 960 1031 1030
f 960 1030 1029
f 960 961 964
f 960 964 1031
f 1033 1032 1030
f 1033 1030 1031
f 964 1034 1033
f 964 1033 1031
f 964 965 969
f 964 969 1034
f 1035 1033 1034
f 969 1035 1034
f 969 970 973
f 1040 1039 1038
f 1040 1038 1036
f 976 977 1040
f 982 984 1039
f 982 1039 1040
f 977 978 982
f 977 982 1040
f 1042 1041 1038
f 1042 1038 1039
f 984 986 1042
f 984 1042 1039
f 1044 1043 1041
f 1044 1041 1042
f 986 988 1044
f 986 1044 1042
f 1046 1045 1043
f 1046 1043 1044
f 988 990 1046
f 988 1046 1044
f 1048 1047 1045
f 1048 1045 1046
f 990 1049 1048
f 990 1048 1046
f 1051 1050 1048
f 1051 1048 1049
f 993 1052 1051
f 993 1051 1049
f 990 991 993
f 990 993 1049
f 993 994 996
f 993 996 1052
f 749 725 763
f 749 763 1054
f 1056 1055 1053
f 1056 1053 1054
f 763 764 1056
f 763 1056 1054
f 1058 1057 1055
f 1058 1055 1056
f 764 765 1058
f 764 1058 1056
f 1060 1059 1057
f 1060 1057 1058
f 765 1061 1060
f 765 1060 1058
f 765 728 1062
f 765 1062 1061
f 1064 1063 1060
f 1064 1060 1061
f 1062 1065 1064
f 1062 1064 1061
f 783 757 1064
f 783 1064 1065
f 1066 782 783
f 1066 783 1065
f 1062 1067 1066
f 1062 1066 1065
f 1068 1066 1067
f 766 1068 1067
f 1062 728 766
f 1062 766 1067
f 1041 1043 1069
f 1037 1038 1041
f 1043 1045 1070
f 1043 1070 1069
f 1045 1047 1071
f 1045 1071 1070
f 1047 1073 1072
f 1047 1072 1071
f 1047 1048 1050
f 1047 1050 1073
f 1055 1057 1075
f 1055 1075 1074
f 1057 1059 1076
f 1057 1076 1075
f 1059 1078 1077
f 1059 1077 1076
f 1059 1060 1063
f 1059 1063 1078
f 760 1079 1077
f 760 1077 1078
f 1063 758 760
f 1063 760 1078
f 760 759 1080
f 760 1080 1079
f 759 743 744
f 759 744 1080
f 741 745 755
f 757 758 1063
f 757 1063 1064
f 766 767 1024
f 1081 774 1020
f 1081 1020 1022
f 774 772 1018
f 774 1018 1020
f 772 773 1017
f 772 1017 1018
f 773 1082 1016
f 773 1016 1017
f 1084 1083 1016
f 1084 1016 1082
f 775 1085 1084
f 775 1084 1082
f 1087 1086 1084
f 1087 1084 1085
f 1089 1088 1087
f 1089 1087 1085
f 775 771 1089
f 775 1089 1085
f 776 1090 1088
f 776 1088 1089
f 771 770 776
f 771 776 1089
f 776 746 747
f 776 747 1090
f 785 1083 1084
f 785 1084 1086
f 1013 1014 1016
f 1013 1016 1083
f 972 967 968
f 972 968 1091
f 968 800 938
f 968 938 1091
f 963 799 800
f 963 800 968
f 800 793 937
f 800 937 938
f 857 1094 1092
f 857 1092 1093
f 852 854 857
f 852 857 1093
f 1096 1095 1092
f 1096 1092 1094
f 860 1097 1096
f 860 1096 1094
f 857 858 860
f 857 860 1094
f 1099 1098 1096
f 1099 1096 1097
f 1101 1100 1099
f 1101 1099 1097
f 860 861 1101
f 860 1101 1097
f 1103 1102 1100
f 1103 1100 1101
f 861 862 1103
f 861 1103 1101
f 1105 1104 1102
f 1105 1102 1103
f 862 864 1105
f 862 1105 1103
f 1107 1106 1104
f 1107 1104 1105
f 864 866 1107
f 864 1107 1105
f 1109 1108 1106
f 1109 1106 1107
f 866 868 1109
f 866 1109 1107
f 1111 1110 1108
f 1111 1108 1109
f 868 870 1111
f 868 1111 1109
f 1098 1114 1113
f 1098 1113 1112
f 1095 1096 1098
f 1095 1098 1112
f 1116 1115 1113
f 1116 1113 1114
f 1118 1117 1116
f 1118 1116 1114
f 1098 1099 1118
f 1098 1118 1114
f 1120 1119 1117
f 1120 1117 1118
f 1099 1100 1120
f 1099 1120 1118
f 1122 1121 1119
f 1122 1119 1120
f 1100 1102 1122
f 1100 1122 1120
f 1124 1123 1121
f 1124 1121 1122
f 1102 1104 1124
f 1102 1124 1122
f 1126 1125 1123
f 1126 1123 1124
f 1104 1106 1126
f 1104 1126 1124
f 1128 1127 1125
f 1128 1125 1126
f 1106 1108 1128
f 1106 1128 1126
f 1130 1129 1127
f 1130 1127 1128
f 1108 1110 1130
f 1108 1130 1128
f 1116 1117 1131
f 1117 1119 1132
f 1117 1132 1131
f 1119 1121 1134
f 1119 1134 1132
f 1136 1133 1134
f 1121 1123 1136
f 1121 1136 1134
f 1138 1135 1136
f 1123 1125 1138
f 1123 1138 1136
f 1140 1139 1137
f 1140 1137 1138
f 1125 1127 1140
f 1125 1140 1138
f 1142 1141 1139
f 1142 1139 1140
f 1127 1129 1142
f 1127 1142 1140
f 1144 1143 1141
f 1144 1141 1142
f 1148 1147 1145
f 1139 1141 1148
f 1139 1148 1146
f 1150 1149 1147
f 1150 1147 1148
f 1141 1143 1150
f 1141 1150 1148
f 781 756 757
f 781 757 783
f 755 754 753
f 755 753 752
