# Converted from RoboDojo wrench/00001; source geometry preserved.
v 0.012652480 0.077654593 -0.002784787
v 0.012847327 0.077205225 -0.000319959
v 0.012847327 0.077207625 -0.002784787
v 0.012499551 0.077513004 -0.003077807
v 0.012580284 0.077654593 -0.002882759
v 0.012650927 0.077654593 -0.000319959
v 0.013320083 0.071922030 -0.000026641
v 0.013627491 0.071841636 -0.000319959
v 0.013628268 0.071844035 -0.002784787
v 0.012581837 0.077654593 -0.000225572
v 0.012498775 0.077510002 -0.000026940
v 0.013320083 0.071925027 -0.003077807
v 0.012210774 0.077654593 -0.003077807
v 0.012392424 0.077654593 -0.003070638
v 0.006082795 0.071526062 -0.003078106
v 0.013250994 0.071526062 -0.000026940
v 0.013572375 0.071526062 -0.000319959
v 0.012381556 0.077654593 -0.000026940
v 0.006572629 0.077654593 -0.000026940
v 0.006084347 0.071526062 -0.000026940
v 0.013572375 0.071526062 -0.002784787
v 0.013548310 0.071526062 -0.002807190
v 0.013250994 0.071526062 -0.003077807
v 0.006573406 0.077654593 -0.003077807
v 0.005698535 0.071526062 -0.002784787
v 0.006320337 0.077654593 -0.000308907
v 0.005700863 0.071526062 -0.000319959
v 0.006564090 0.077654593 -0.003067651
v 0.006311022 0.077654593 -0.002784787
v 0.006311022 0.077654593 -0.000319959
f 1 2 3
f 1 3 4
f 1 4 5
f 1 5 14
f 1 14 13
f 1 13 24
f 1 24 28
f 1 28 29
f 1 29 30
f 1 30 26
f 1 26 19
f 1 19 18
f 1 18 10
f 1 10 6
f 1 6 2
f 2 7 8
f 2 8 9
f 2 9 3
f 2 6 10
f 2 10 11
f 2 11 7
f 3 9 12
f 3 12 4
f 4 13 14
f 4 14 5
f 4 12 15
f 4 15 13
f 7 16 17
f 7 17 8
f 7 11 18
f 7 18 19
f 7 19 20
f 7 20 16
f 8 17 9
f 9 17 21
f 9 21 22
f 9 22 23
f 9 23 12
f 10 18 11
f 12 23 15
f 13 15 24
f 15 25 24
f 15 23 22
f 15 22 21
f 15 21 17
f 15 17 16
f 15 16 20
f 15 20 27
f 15 27 25
f 19 26 27
f 19 27 20
f 24 25 28
f 25 29 28
f 25 27 30
f 25 30 29
f 26 30 27
