# Converted from RoboDojo wrench/00001; source geometry preserved.
v -0.009576351 -0.073299816 -0.003078127
v -0.008885974 -0.069829027 -0.003077525
v -0.007920112 -0.068383148 -0.003077525
v -0.005322753 -0.068383148 -0.003077525
v -0.006121135 -0.070974083 -0.003077525
v -0.007351063 -0.073299816 -0.003077525
v -0.009875625 -0.073299816 -0.002784658
v -0.009161935 -0.069714956 -0.002784658
v -0.008088068 -0.068383148 -0.002938323
v -0.005015866 -0.068383148 -0.002784658
v -0.007278266 -0.073299816 -0.003013648
v -0.005848982 -0.071086712 -0.002784658
v -0.009875150 -0.073299816 0.002784638
v -0.009162411 -0.069717841 0.002784638
v -0.008272676 -0.068383148 -0.002784658
v -0.005015390 -0.068383148 -0.000105466
v -0.007019435 -0.073299816 -0.002784658
v -0.005849458 -0.071089603 -0.000026525
v -0.009576351 -0.073299816 0.003077505
v -0.008886450 -0.069831918 0.003077505
v -0.008057141 -0.068383148 0.002962407
v -0.008270772 -0.068383148 0.002784638
v -0.005015390 -0.068383148 0.002784638
v -0.007018483 -0.073299816 -0.000026525
v -0.005849458 -0.071089603 0.002784638
v -0.007349635 -0.073299816 0.003077505
v -0.005321802 -0.068383148 0.003078108
v -0.007918209 -0.068383148 0.003077505
v -0.007018483 -0.073299816 0.002784638
v -0.006121611 -0.070976974 0.003077505
v -0.007063683 -0.073299816 0.002825013
f 1 2 3
f 1 3 4
f 1 4 5
f 1 5 6
f 1 6 11
f 1 11 17
f 1 17 24
f 1 24 29
f 1 29 31
f 1 31 26
f 1 26 19
f 1 19 13
f 1 13 7
f 1 7 8
f 1 8 2
f 2 9 3
f 2 8 9
f 3 9 15
f 3 15 22
f 3 22 21
f 3 21 28
f 3 28 27
f 3 27 23
f 3 23 16
f 3 16 10
f 3 10 4
f 4 10 5
f 5 11 6
f 5 10 12
f 5 12 11
f 7 13 14
f 7 14 8
f 8 15 9
f 8 14 15
f 10 16 12
f 11 12 17
f 12 16 18
f 12 18 17
f 13 19 20
f 13 20 14
f 14 20 21
f 14 21 22
f 14 22 15
f 16 23 25
f 16 25 18
f 17 18 24
f 18 25 29
f 18 29 24
f 19 26 27
f 19 27 20
f 20 27 28
f 20 28 21
f 23 27 25
f 25 27 30
f 25 30 26
f 25 26 31
f 25 31 29
f 26 30 27
