# Converted from RoboDojo wrench/00001; source geometry preserved.
v -0.000671473 0.052684810 -0.003078115
v 0.006836961 0.052684810 -0.003077816
v -0.000671473 0.052684810 -0.000026940
v -0.000671473 0.067912738 -0.003078115
v 0.013250850 0.071526052 -0.003077816
v 0.012584363 0.067680338 -0.003077816
v 0.007145106 0.052684810 -0.002785393
v 0.012861834 0.067460845 -0.002784796
v 0.004295108 0.052684810 -0.000026940
v -0.000671473 0.067909053 -0.000026940
v -0.000671473 0.068289011 -0.002784796
v 0.006082631 0.071526052 -0.003077816
v 0.013547842 0.071526052 -0.002807198
v 0.007146500 0.052684810 -0.000319960
v 0.012861834 0.067457155 -0.000319960
v 0.013571544 0.071526052 -0.002784796
v 0.013572939 0.071526052 -0.000319960
v 0.006838355 0.052684810 -0.000027238
v 0.006836961 0.052719854 -0.000026940
v 0.006084026 0.071526052 -0.000026940
v -0.000671473 0.068287168 -0.000319960
v 0.005700587 0.071526052 -0.000319960
v 0.005697798 0.071526052 -0.002784796
v 0.012584363 0.067678495 -0.000026940
v 0.013250850 0.071526052 -0.000026940
f 1 2 7
f 1 7 14
f 1 14 18
f 1 18 9
f 1 9 3
f 1 3 10
f 1 10 21
f 1 21 11
f 1 11 4
f 1 4 5
f 1 5 6
f 1 6 2
f 2 6 8
f 2 8 7
f 3 9 19
f 3 19 24
f 3 24 25
f 3 25 20
f 3 20 10
f 4 11 12
f 4 12 5
f 5 12 23
f 5 23 22
f 5 22 20
f 5 20 25
f 5 25 17
f 5 17 16
f 5 16 13
f 5 13 6
f 6 13 8
f 7 8 15
f 7 15 14
f 8 13 16
f 8 16 17
f 8 17 15
f 9 18 19
f 10 20 21
f 11 21 22
f 11 22 23
f 11 23 12
f 14 15 18
f 15 17 24
f 15 24 18
f 17 25 24
f 18 24 19
f 20 22 21
