# https://github.com/mikedh/trimesh
v 0.00516830 -0.03916666 0.03695038
v 0.00952351 -0.05250000 0.03875437
v 0.01440710 -0.03916666 0.03312355
v 0.01339567 -0.04083333 0.02632655
v 0.00134147 -0.04250000 0.02771159
v 0.01350510 -0.05416667 0.03530115
v 0.00351379 -0.03867402 0.02638291
v 0.01196530 -0.03916666 0.03593896
v 0.00516830 -0.05083333 0.03695038
v 0.01440710 -0.05083333 0.03312355
v 0.00941408 -0.05416667 0.02977976
v 0.01004291 -0.03867962 0.02521839
v 0.00274984 -0.03877207 0.02815701
v 0.00734591 -0.03916666 0.03785238
v 0.01260311 -0.05083333 0.03747876
v 0.01467128 -0.03916666 0.02940614
v 0.01249368 -0.05083333 0.02850415
v 0.00607029 -0.05583333 0.03477278
v 0.00840266 -0.04083333 0.02298276
v 0.00224346 -0.04083333 0.02553398
v 0.01350510 -0.04250000 0.03530115
v 0.01260311 -0.05250000 0.03747876
v 0.00952351 -0.05083333 0.03875437
v 0.01467128 -0.04083333 0.02940614
v 0.01204777 -0.03888928 0.02723178
v 0.00840266 -0.03916666 0.02298276
v 0.01005189 -0.05583333 0.03131956
v 0.00389269 -0.05083333 0.03387078
v 0.00415688 -0.05083333 0.03015338
v 0.00734591 -0.05583333 0.03785238
v 0.01031607 -0.05083333 0.02760216
v 0.01058026 -0.04250000 0.02388475
v 0.01159169 -0.05416667 0.03068176
v 0.00633448 -0.05416667 0.03105537
v 0.00197927 -0.04583333 0.02925139
v 0.01196530 -0.05583333 0.03593896
v 0.01121807 -0.04583333 0.02542455
v 0.00697229 -0.05583333 0.03259517
f 9 1 5
f 10 3 6
f 12 8 3
f 13 5 1
f 14 1 9
f 14 13 1
f 14 7 13
f 14 12 7
f 14 8 12
f 15 6 3
f 15 8 14
f 16 3 10
f 17 10 6
f 17 4 10
f 20 13 7
f 20 5 13
f 20 19 11
f 21 15 3
f 21 3 8
f 21 8 15
f 22 15 2
f 22 6 15
f 23 15 14
f 23 14 2
f 23 2 15
f 24 16 10
f 24 10 4
f 24 4 16
f 25 16 12
f 25 12 3
f 25 3 16
f 26 16 4
f 26 12 16
f 26 7 12
f 26 20 7
f 26 19 20
f 28 18 9
f 28 9 5
f 29 5 20
f 29 18 28
f 30 9 18
f 30 14 9
f 30 2 14
f 30 22 2
f 30 18 27
f 31 17 11
f 31 11 19
f 32 31 19
f 32 26 4
f 32 19 26
f 33 17 6
f 33 6 27
f 33 27 11
f 33 11 17
f 34 11 27
f 34 18 29
f 34 29 20
f 34 20 11
f 35 29 28
f 35 28 5
f 35 5 29
f 36 6 22
f 36 22 30
f 36 30 27
f 36 27 6
f 37 32 4
f 37 4 17
f 37 17 31
f 37 31 32
f 38 34 27
f 38 27 18
f 38 18 34

