# https://github.com/mikedh/trimesh
v -0.01337339 0.04583333 0.01396282
v -0.00901818 0.03750000 0.01576681
v -0.00939180 0.04916667 0.01050961
v -0.01101081 0.04863020 0.00658304
v -0.01464900 0.04250000 0.01088323
v -0.00712065 0.03774900 0.01398056
v -0.01438482 0.04916667 0.00716582
v -0.00747838 0.04083333 0.01512901
v -0.01337339 0.04083333 0.01396282
v -0.01066741 0.04250000 0.00743001
v -0.01093160 0.04916667 0.01114741
v -0.01464900 0.04583333 0.01088323
v -0.00901818 0.04083333 0.01576681
v -0.01247140 0.03916667 0.01178522
v -0.01130522 0.04583333 0.00589021
v -0.01401120 0.04083333 0.01242302
v -0.01220721 0.04250000 0.00806781
v -0.01029379 0.03750000 0.01268721
v -0.01310920 0.04083333 0.01024542
v -0.01438482 0.04583333 0.00716582
v -0.00805631 0.03818928 0.01258903
f 6 4 3
f 7 3 4
f 8 6 3
f 8 2 6
f 9 2 1
f 9 1 5
f 11 7 1
f 11 3 7
f 11 8 3
f 12 7 5
f 12 5 1
f 12 1 7
f 13 1 2
f 13 2 8
f 13 11 1
f 13 8 11
f 14 2 9
f 15 4 6
f 15 6 10
f 15 7 4
f 16 14 9
f 16 9 5
f 16 5 14
f 17 10 14
f 17 15 10
f 18 14 10
f 18 6 2
f 18 2 14
f 19 17 14
f 19 14 5
f 20 5 7
f 20 7 15
f 20 15 17
f 20 19 5
f 20 17 19
f 21 18 10
f 21 10 6
f 21 6 18

