# https://github.com/mikedh/trimesh
v 0.00877628 -0.01750000 0.02823996
v 0.00877628 -0.02583333 0.02823996
v 0.01493547 -0.02583333 0.02568874
v 0.01174644 -0.01750000 0.01798974
v 0.00553070 -0.02613525 0.01985365
v 0.01493547 -0.01750000 0.02568874
v 0.00558725 -0.01750000 0.02054097
v 0.01020664 -0.02583333 0.01862755
v 0.00558725 -0.02083333 0.02054097
v 0.01174644 -0.02083333 0.01798974
v 0.01302206 -0.02583333 0.02106934
v 0.01238425 -0.02416667 0.01952954
f 1 2 3
f 5 3 2
f 6 1 3
f 6 3 4
f 6 4 1
f 7 2 1
f 7 1 4
f 7 4 5
f 9 7 5
f 9 5 2
f 9 2 7
f 10 8 5
f 10 5 4
f 10 4 3
f 11 3 5
f 11 5 8
f 11 10 3
f 12 11 8
f 12 8 10
f 12 10 11

