# https://github.com/mikedh/trimesh
v -0.00503601 0.01584829 0.02295523
v -0.00479406 0.00914704 0.02306709
v 0.01418824 0.01083333 0.01517433
v 0.01061749 0.01593358 0.00960495
v -0.00838038 0.00916667 0.01730661
v 0.01255769 0.01581834 0.01542113
v -0.00720321 0.01590229 0.01709354
v 0.01163701 0.00916667 0.00901514
v 0.01231475 0.00917822 0.01586370
v 0.01355043 0.00916667 0.01363453
f 1 2 3
f 5 2 1
f 6 1 3
f 6 3 4
f 6 4 1
f 7 5 1
f 7 1 4
f 7 4 5
f 8 2 5
f 8 5 4
f 8 4 3
f 9 3 2
f 10 8 3
f 10 3 9
f 10 9 2
f 10 2 8

