# https://github.com/mikedh/trimesh
v -0.00046252 -0.00416666 0.03206680
v 0.00697229 -0.00750000 0.03259517
v 0.01249368 -0.00416666 0.02850415
v 0.00919522 -0.00416666 0.01183055
v -0.00376098 -0.01083333 0.01539319
v 0.01268279 -0.01087309 0.02404278
v 0.00341372 -0.00363824 0.01216457
v 0.00171509 -0.00416666 0.03296879
v -0.00046252 -0.01083333 0.03206680
v 0.01159169 -0.01083333 0.03068176
v 0.01429767 -0.00416666 0.02414894
v 0.00765542 -0.01083333 0.01246835
v -0.00530078 -0.00416666 0.01603100
v 0.00171509 -0.00583333 0.03296879
v 0.00653340 -0.01101301 0.03151856
v 0.01005189 -0.00750000 0.03131956
v 0.01047083 -0.01083333 0.01491014
v 0.00330021 -0.00583333 0.01066437
v -0.00556497 -0.00416666 0.01974840
v -0.00492716 -0.01083333 0.02128820
v 0.00393802 -0.01083333 0.01220416
v 0.01159169 -0.00916667 0.03068176
v 0.00983303 -0.00916667 0.01337034
v 0.00701762 -0.00416666 0.01092855
v -0.00439878 -0.00416666 0.01385339
v -0.00466297 -0.01083333 0.01757080
v -0.00556497 -0.00750000 0.01974840
v 0.00547782 -0.00916667 0.01156636
v -0.00285899 -0.00750000 0.01321559
v 0.00919522 -0.00583333 0.01183055
v -0.00530078 -0.00750000 0.01603100
v 0.00701762 -0.00583333 0.01092855
v 0.00176041 -0.00750000 0.01130217
v -0.00439878 -0.00583333 0.01385339
f 8 2 3
f 8 7 1
f 8 3 7
f 9 8 1
f 11 10 6
f 11 7 3
f 11 4 7
f 14 9 2
f 14 2 8
f 14 8 9
f 15 6 10
f 15 10 2
f 15 2 9
f 16 3 2
f 16 2 10
f 17 11 6
f 17 4 11
f 17 15 12
f 17 6 15
f 19 1 7
f 19 7 13
f 19 9 1
f 20 15 9
f 20 9 19
f 21 15 5
f 21 12 15
f 22 16 10
f 22 3 16
f 22 11 3
f 22 10 11
f 23 17 12
f 23 4 17
f 24 18 7
f 24 7 4
f 25 13 7
f 25 7 18
f 26 5 15
f 26 15 20
f 27 20 19
f 27 19 13
f 28 12 21
f 29 21 5
f 29 25 18
f 30 23 12
f 30 4 23
f 30 24 4
f 31 13 25
f 31 5 26
f 31 27 13
f 31 26 20
f 31 20 27
f 32 12 28
f 32 30 12
f 32 24 30
f 32 28 18
f 32 18 24
f 33 29 18
f 33 21 29
f 33 28 21
f 33 18 28
f 34 29 5
f 34 5 31
f 34 31 25
f 34 25 29

