# https://github.com/mikedh/trimesh
v -0.00046252 -0.01083333 0.03206680
v -0.00046252 -0.02250000 0.03206680
v 0.00569668 -0.01083333 0.02951557
v 0.00378326 -0.01083333 0.02489618
v -0.00237594 -0.02083333 0.02744740
v 0.00378326 -0.02083333 0.02489618
v -0.00170243 -0.01074225 0.02722254
v 0.00569668 -0.02083333 0.02951557
v -0.00173813 -0.02250000 0.02898720
v 0.00006806 -0.02246393 0.02826236
v 0.00119384 -0.02249401 0.03135448
f 1 2 3
f 5 2 1
f 6 4 3
f 6 5 4
f 7 1 3
f 7 3 4
f 7 5 1
f 7 4 5
f 8 6 3
f 8 3 2
f 9 2 5
f 9 5 6
f 10 6 8
f 10 9 6
f 11 10 8
f 11 8 2
f 11 2 9
f 11 9 10

