# https://github.com/mikedh/trimesh
v -0.00965599 0.02583333 0.01422701
v -0.00644315 0.00922482 0.01665622
v -0.00472931 0.02788020 0.01591788
v -0.00532354 0.02511276 0.01010732
v -0.00785200 0.01250000 0.00987180
v -0.00482845 0.00954323 0.01150953
v -0.00875399 0.02750000 0.01204941
v -0.00684058 0.02916667 0.01666880
v -0.00901818 0.01083333 0.01576681
v -0.00484499 0.02678924 0.01259538
v -0.00631220 0.01250000 0.00923400
v -0.00785200 0.02583333 0.00987180
v -0.00686621 0.02533238 0.01686447
v -0.00747838 0.02916667 0.01512901
v -0.00965599 0.01750000 0.01422701
v -0.00838038 0.01083333 0.01730661
v -0.00721419 0.00916667 0.01141160
v -0.00593858 0.02916667 0.01449120
v -0.00875399 0.01250000 0.01204941
v -0.00811619 0.00916667 0.01358921
v -0.00520441 0.00909957 0.01217288
v -0.00510898 0.02619226 0.01127783
v -0.00638124 0.00897751 0.01586066
f 6 3 2
f 7 5 1
f 10 6 4
f 10 3 6
f 11 4 6
f 12 5 7
f 12 11 5
f 12 4 11
f 13 2 3
f 13 3 8
f 14 7 1
f 14 1 8
f 15 9 1
f 15 1 5
f 16 8 1
f 16 1 9
f 16 13 8
f 16 2 13
f 17 11 6
f 17 5 11
f 18 12 7
f 18 7 14
f 18 3 10
f 18 14 8
f 18 8 3
f 19 15 5
f 19 9 15
f 19 5 17
f 20 16 9
f 20 2 16
f 20 19 17
f 20 9 19
f 21 17 6
f 21 6 2
f 22 18 10
f 22 10 4
f 22 4 12
f 22 12 18
f 23 20 17
f 23 17 21
f 23 21 2
f 23 2 20

