# https://github.com/mikedh/trimesh
v 0.00299070 -0.02583333 0.03604839
v 0.00516830 -0.03916666 0.03695038
v 0.01132750 -0.02916666 0.03439916
v 0.00877628 -0.02583333 0.02823996
v 0.00107728 -0.03916666 0.03142899
v 0.01018752 -0.02594452 0.03221624
v 0.00516830 -0.02916666 0.03695038
v 0.00299070 -0.03750000 0.03604839
v 0.00133231 -0.02582475 0.03132810
v 0.00877628 -0.03916666 0.02823996
v 0.00978770 -0.02750000 0.03503696
v 0.00235289 -0.03916666 0.03450859
v 0.01101188 -0.03923234 0.03406430
v 0.00670810 -0.02750000 0.03631258
f 6 3 4
f 6 4 1
f 7 1 2
f 7 2 3
f 8 2 1
f 8 1 5
f 9 5 1
f 9 1 4
f 9 4 5
f 10 5 4
f 10 4 3
f 11 6 1
f 11 3 6
f 11 7 3
f 12 8 5
f 12 2 8
f 13 10 3
f 13 3 2
f 13 5 10
f 13 12 5
f 13 2 12
f 14 11 1
f 14 1 7
f 14 7 11

