# https://github.com/mikedh/trimesh
v -0.00312317 0.03416667 0.01693299
v 0.00068300 0.02814839 0.01736973
v 0.00983303 0.03583333 0.01337034
v 0.00855742 0.03416667 0.01029075
v -0.00413460 0.03250000 0.01013599
v 0.00685701 0.02805808 0.01481292
v 0.00213403 0.03583333 0.01655937
v -0.00503659 0.03083333 0.01231359
v 0.00202460 0.03583333 0.00758477
v 0.00983303 0.03416667 0.01337034
v 0.00059423 0.03416667 0.01719718
v -0.00312317 0.03083333 0.01693299
v -0.00446231 0.03463990 0.01259828
v -0.00349679 0.02916667 0.01167579
v 0.00796417 0.03654349 0.01146254
v 0.00829323 0.03083333 0.01400815
v -0.00100659 0.03615291 0.00938402
v 0.00566429 0.02803548 0.01162611
v -0.00163506 0.02799778 0.01633138
v 0.00048480 0.03250000 0.00822257
v -0.00315835 0.03476052 0.01081308
v 0.00701762 0.03083333 0.01092855
v -0.00041719 0.02916667 0.01040018
v 0.00202460 0.03416667 0.00758477
v 0.00266241 0.03083333 0.00912457
f 6 3 2
f 7 2 3
f 10 4 3
f 10 3 6
f 11 7 1
f 11 1 2
f 11 2 7
f 12 2 1
f 12 1 8
f 13 8 1
f 13 5 8
f 13 1 7
f 14 8 5
f 15 3 4
f 15 4 9
f 15 7 3
f 16 10 6
f 16 4 10
f 17 9 5
f 17 13 7
f 17 15 9
f 17 7 15
f 18 16 6
f 19 12 8
f 19 8 14
f 19 2 12
f 19 14 18
f 19 18 6
f 19 6 2
f 20 14 5
f 20 5 9
f 21 17 5
f 21 5 13
f 21 13 17
f 22 4 16
f 22 16 18
f 23 18 14
f 23 14 20
f 24 20 9
f 24 9 4
f 24 4 22
f 25 23 20
f 25 18 23
f 25 20 24
f 25 24 22
f 25 22 18

