# https://github.com/mikedh/trimesh
v 0.00235289 -0.02083333 0.03450859
v 0.00299070 -0.02583333 0.03604839
v 0.01068969 -0.01750000 0.03285936
v 0.00686286 -0.01750000 0.02362056
v 0.00010601 -0.02572834 0.02670137
v 0.00761009 -0.01750000 0.03413497
v -0.00056211 -0.02080817 0.02674476
v 0.01018752 -0.02594452 0.03221624
v 0.00453050 -0.02083333 0.03541058
v 0.00686286 -0.02583333 0.02362056
v 0.00378326 -0.01750000 0.02489618
v 0.00299070 -0.02416667 0.03604839
f 6 3 4
f 6 2 3
f 7 5 2
f 7 2 1
f 8 3 2
f 8 2 5
f 9 6 1
f 9 2 6
f 10 5 7
f 10 8 5
f 10 4 3
f 10 3 8
f 11 6 4
f 11 10 7
f 11 4 10
f 11 7 1
f 11 1 6
f 12 9 1
f 12 1 2
f 12 2 9

