# https://github.com/mikedh/trimesh
v -0.00747838 0.04083333 0.01512901
v 0.00059423 0.03416667 0.01719718
v -0.00068842 0.04203439 0.00961848
v -0.00248370 0.04307883 0.00552229
v -0.00721419 0.03416667 0.01141160
v -0.00169280 0.03583333 0.00732058
v -0.00961301 0.04309580 0.00965012
v 0.00213403 0.03583333 0.01655937
v -0.00530078 0.03416667 0.01603100
v -0.00296842 0.04083333 0.00424098
v 0.00192421 0.03385004 0.01556779
v -0.00833976 0.04188242 0.01269441
v -0.00875399 0.03583333 0.01204941
v 0.00059423 0.03583333 0.01719718
v -0.00687815 0.04322030 0.00716673
v -0.00695001 0.03750000 0.00769420
v -0.00083550 0.03477333 0.01009541
v -0.01002961 0.04083333 0.00896981
v -0.00747838 0.03583333 0.01512901
v -0.00530078 0.03916667 0.01603100
v -0.00387041 0.03750000 0.00641859
v -0.00939180 0.03750000 0.01050961
v -0.00758781 0.04083333 0.00615440
f 7 3 4
f 8 3 1
f 10 4 3
f 11 9 5
f 11 2 9
f 11 8 2
f 11 3 8
f 11 10 3
f 11 6 10
f 12 7 1
f 12 1 3
f 12 3 7
f 13 5 9
f 14 2 8
f 14 9 2
f 15 7 4
f 15 4 10
f 16 6 5
f 17 11 5
f 17 5 6
f 17 6 11
f 18 13 1
f 18 1 7
f 19 13 9
f 19 9 1
f 19 1 13
f 20 1 9
f 20 9 14
f 20 14 8
f 20 8 1
f 21 16 10
f 21 10 6
f 21 6 16
f 22 16 5
f 22 5 13
f 22 18 16
f 22 13 18
f 23 18 7
f 23 7 15
f 23 15 10
f 23 10 16
f 23 16 18

