# https://github.com/mikedh/trimesh
v 0.00096785 0.03083333 0.02245438
v 0.00314545 0.03083333 0.02335638
v 0.00208261 0.03107709 0.01627832
v 0.00739123 0.03083333 0.01618576
v 0.00804535 0.02832706 0.01906758
v 0.00776485 0.03083333 0.02144296
v 0.00308327 0.02837111 0.02259522
v 0.00462294 0.02918368 0.01509677
v 0.00866684 0.03083333 0.01926535
v 0.00105539 0.02860987 0.02214683
v 0.00703509 0.02833676 0.02079599
v 0.00516260 0.03084933 0.01517776
v 0.00719814 0.02850268 0.01639508
v -0.00030776 0.03083333 0.01937478
v -0.00019359 0.02877787 0.01942643
v 0.00216789 0.02893687 0.01629291
f 1 2 3
f 6 3 2
f 7 6 2
f 9 4 3
f 9 3 6
f 9 6 5
f 10 7 2
f 10 2 1
f 11 7 5
f 11 5 6
f 11 6 7
f 12 8 3
f 12 3 4
f 12 4 8
f 13 8 4
f 13 5 7
f 13 9 5
f 13 4 9
f 14 1 3
f 15 10 1
f 15 1 14
f 15 13 7
f 15 7 10
f 16 8 13
f 16 13 15
f 16 3 8
f 16 15 14
f 16 14 3

