# https://github.com/mikedh/trimesh
v -0.01194302 0.05583333 0.00435041
v -0.00851905 0.04485138 0.00758716
v 0.00074899 0.05083334 0.00450517
v 0.00101318 0.04916667 0.00078776
v -0.01167884 0.05083334 0.00063301
v -0.00149989 0.04468093 0.00449467
v -0.00705944 0.05583333 -0.00128041
v -0.00695001 0.05083334 0.00769420
v -0.01130522 0.04583333 0.00589021
v 0.00102078 0.04773433 0.00321241
v -0.00206642 0.04416667 0.00206338
v -0.00578383 0.05583333 0.00179919
v -0.00334203 0.05416667 -0.00101622
v -0.01321863 0.05583333 0.00127081
v -0.01066741 0.05083334 0.00743001
v 0.00025162 0.04864040 0.00435987
v 0.00101318 0.04750000 0.00078776
v -0.00976542 0.04416667 0.00525240
v -0.00206642 0.05416667 0.00206338
v -0.00551964 0.05083334 -0.00191822
v -0.01258083 0.04916667 0.00281061
v -0.01130522 0.05416667 0.00589021
v -0.01047461 0.04608685 0.00775824
v -0.00551964 0.05416667 -0.00191822
v -0.00116443 0.04750000 -0.00011423
v -0.01321863 0.05250000 0.00127081
f 6 3 2
f 8 2 3
f 10 4 3
f 12 7 1
f 13 7 12
f 14 7 5
f 14 1 7
f 14 9 1
f 15 1 9
f 16 10 3
f 16 3 6
f 16 6 10
f 17 10 6
f 17 6 11
f 17 4 10
f 17 13 4
f 18 5 11
f 18 11 6
f 18 6 2
f 19 3 4
f 19 4 13
f 19 13 12
f 19 12 1
f 19 8 3
f 20 11 5
f 20 5 7
f 21 9 14
f 21 18 9
f 21 5 18
f 22 15 8
f 22 1 15
f 22 19 1
f 22 8 19
f 23 2 8
f 23 8 15
f 23 15 9
f 23 18 2
f 23 9 18
f 24 20 7
f 24 7 13
f 24 13 20
f 25 17 11
f 25 11 20
f 25 20 13
f 25 13 17
f 26 21 14
f 26 14 5
f 26 5 21

