# https://github.com/mikedh/trimesh
v 0.00171509 -0.00583333 0.03296879
v 0.00453050 -0.02083333 0.03541058
v 0.00697229 -0.00750000 0.03259517
v 0.00621774 -0.00556335 0.03071295
v 0.00119379 -0.02083672 0.03134212
v 0.00569668 -0.02083333 0.02951557
v 0.00389269 -0.00916667 0.03387078
v 0.00235289 -0.02083333 0.03450859
v 0.00145202 -0.00585843 0.03063186
v 0.00761009 -0.01750000 0.03413497
v 0.00710837 -0.02098454 0.03294661
v 0.00235289 -0.01583333 0.03450859
v 0.00543249 -0.00750000 0.03323298
v 0.00453050 -0.01916667 0.03541058
v 0.00607029 -0.01750000 0.03477278
f 1 3 4
f 8 1 5
f 9 5 1
f 9 1 4
f 9 6 5
f 9 4 6
f 10 6 4
f 10 4 3
f 11 5 6
f 11 8 5
f 11 2 8
f 11 10 2
f 11 6 10
f 12 7 1
f 12 8 2
f 12 1 8
f 13 3 1
f 13 1 7
f 13 10 3
f 14 2 10
f 14 12 2
f 14 7 12
f 14 13 7
f 15 14 10
f 15 10 13
f 15 13 14

