# https://github.com/mikedh/trimesh
v -0.00646696 0.02750000 0.02192601
v -0.00547290 0.02386810 0.02122628
v 0.01201063 0.02750000 0.01427234
v 0.01036140 0.02583333 0.00593554
v -0.00541021 0.02416667 0.00705639
v 0.01149874 0.02396719 0.01426344
v 0.00574200 0.02916667 0.00784895
v -0.00838038 0.02750000 0.01730661
v 0.01291263 0.02583333 0.01209473
v 0.00600619 0.02416667 0.00413155
v -0.00492716 0.02916667 0.02128820
v 0.00791961 0.02916667 0.00875095
v -0.00715837 0.02389368 0.01700716
v -0.00631220 0.02750000 0.00923400
v 0.01036140 0.02416667 0.00593554
v 0.00446639 0.02750000 0.00476936
v 0.01047083 0.02916667 0.01491014
v -0.00572792 0.02391902 0.00974321
v -0.00684058 0.02916667 0.01666880
v 0.01132946 0.02380134 0.01236954
v 0.00600619 0.02583333 0.00413155
v 0.00882160 0.02750000 0.00657334
v -0.00541021 0.02583333 0.00705639
v 0.00228879 0.02416667 0.00386736
v 0.00266241 0.02916667 0.00912457
v 0.00228879 0.02583333 0.00386736
f 6 1 2
f 6 3 1
f 8 2 1
f 9 4 3
f 9 3 6
f 11 1 3
f 11 8 1
f 12 3 4
f 12 7 11
f 13 8 5
f 13 2 8
f 14 5 8
f 15 4 9
f 15 10 4
f 16 7 12
f 16 14 7
f 17 12 11
f 17 11 3
f 17 3 12
f 18 13 5
f 19 11 7
f 19 14 8
f 19 8 11
f 20 15 9
f 20 9 6
f 20 10 15
f 20 6 2
f 20 2 13
f 20 13 18
f 21 16 4
f 21 4 10
f 22 16 12
f 22 12 4
f 22 4 16
f 23 5 14
f 23 14 16
f 24 18 5
f 24 20 18
f 24 10 20
f 24 21 10
f 24 5 23
f 25 19 7
f 25 7 14
f 25 14 19
f 26 24 23
f 26 23 16
f 26 16 21
f 26 21 24

