# https://github.com/mikedh/trimesh
v -0.00593858 0.02916667 0.01449120
v -0.00638124 0.00897751 0.01586066
v -0.00472931 0.02788020 0.01591788
v 0.00085497 0.02895604 0.01302998
v -0.00092686 0.00879367 0.00923063
v 0.00085842 0.00916667 0.01347978
v 0.00031069 0.02962175 0.01276291
v -0.00596092 0.00934329 0.01322585
v -0.00042682 0.02655232 0.01060923
v -0.00591631 0.02654904 0.01329204
f 1 2 3
f 6 3 2
f 6 4 3
f 6 5 4
f 6 2 5
f 7 1 3
f 7 3 4
f 8 5 2
f 9 1 7
f 9 7 4
f 9 4 5
f 10 8 2
f 10 2 1
f 10 5 8
f 10 9 5
f 10 1 9

