# https://github.com/mikedh/trimesh
v -0.00105500 0.04750000 0.00886038
v 0.00059575 0.03624695 0.01262417
v 0.00442169 0.04507635 0.01034570
v 0.00643429 0.04723604 0.00827449
v -0.00142862 0.04083333 0.00360317
v 0.00291746 0.03589732 0.01093760
v 0.00658783 0.04728600 0.00926074
v -0.00296842 0.04083333 0.00424098
v 0.00061460 0.04837250 0.00306287
v 0.00228879 0.04250000 0.00386736
v 0.00622830 0.04386825 0.00870876
v -0.00169280 0.03583333 0.00732058
v 0.00292659 0.04916667 0.00540716
v -0.00292704 0.04959245 0.00431765
v 0.00165098 0.04416667 0.00232756
v 0.00202460 0.03583333 0.00758477
v -0.00015301 0.03583333 0.00668277
v 0.00138679 0.03750000 0.00604497
f 1 2 3
f 7 1 3
f 7 3 2
f 7 2 6
f 11 7 6
f 11 4 7
f 12 2 1
f 12 1 8
f 12 6 2
f 12 8 5
f 13 7 4
f 13 1 7
f 14 8 1
f 14 13 9
f 14 1 13
f 15 11 10
f 15 4 11
f 15 13 4
f 15 9 13
f 15 14 9
f 15 5 8
f 15 8 14
f 16 11 6
f 16 10 11
f 16 6 12
f 17 16 12
f 17 12 5
f 18 16 17
f 18 15 10
f 18 10 16
f 18 17 5
f 18 5 15

