# https://github.com/mikedh/trimesh
v 0.00043947 0.01416667 0.02988919
v 0.00415688 0.00916667 0.03015338
v 0.01121807 0.01583334 0.02542455
v 0.01482604 0.01583334 0.01671413
v -0.00274956 0.00916667 0.02219019
v 0.01275787 0.00916667 0.02478675
v -0.00274956 0.01583334 0.02219019
v 0.00415688 0.01083333 0.03015338
v 0.00060432 0.00896880 0.02839179
v 0.01365986 0.01583334 0.02260914
v 0.01231475 0.00917822 0.01586370
v 0.00197927 0.01583334 0.02925139
v 0.01031607 0.01083333 0.02760216
v 0.01031607 0.00916667 0.02760216
v 0.01456185 0.00916667 0.02043154
v 0.01255769 0.01581834 0.01542113
v 0.00003873 0.01567671 0.02714868
v 0.01275787 0.01250000 0.02478675
v 0.01456185 0.01583334 0.02043154
v 0.01418824 0.01250000 0.01517433
v 0.01482604 0.01250000 0.01671413
f 7 3 4
f 7 5 1
f 8 1 2
f 9 2 1
f 9 1 5
f 10 4 3
f 11 9 5
f 12 3 7
f 12 8 3
f 12 1 8
f 13 3 8
f 13 8 2
f 14 9 6
f 14 2 9
f 14 13 2
f 14 6 13
f 15 6 9
f 15 9 11
f 16 7 4
f 16 11 5
f 16 5 7
f 17 12 7
f 17 7 1
f 17 1 12
f 18 10 3
f 18 3 13
f 18 13 6
f 18 6 15
f 19 15 4
f 19 4 10
f 19 18 15
f 19 10 18
f 20 15 11
f 20 16 4
f 20 11 16
f 21 20 4
f 21 4 15
f 21 15 20

