# https://github.com/mikedh/trimesh
v -0.00080997 -0.01749820 0.02680106
v 0.00010601 -0.02572834 0.02670137
v 0.00686286 -0.01750000 0.02362056
v 0.00893103 -0.01750000 0.01554795
v -0.00248537 -0.01916667 0.01847279
v 0.01020664 -0.02416667 0.01862755
v 0.00999181 -0.01745903 0.01884532
v -0.00211175 -0.02583333 0.02372999
v -0.00248537 -0.01750000 0.01847279
v 0.00686286 -0.02583333 0.02362056
v 0.00431163 -0.02583333 0.01746137
v 0.00675343 -0.01750000 0.01464596
v -0.00338736 -0.01750000 0.02065040
v -0.00030776 -0.02583333 0.01937478
v 0.00802904 -0.02583333 0.01772556
v 0.00521363 -0.02083333 0.01528376
v -0.00338736 -0.01916667 0.02065040
v 0.00838170 -0.02563332 0.02000645
v 0.00956884 -0.02416667 0.01708775
v -0.00094557 -0.02083333 0.01783499
v -0.00184756 -0.02416667 0.02001259
v 0.00675343 -0.01916667 0.01464596
v 0.00893103 -0.01916667 0.01554795
f 1 2 3
f 7 1 3
f 7 6 4
f 7 3 6
f 8 2 1
f 10 6 3
f 10 3 2
f 10 2 8
f 11 10 8
f 12 5 9
f 12 9 7
f 12 7 4
f 13 1 7
f 13 7 9
f 13 8 1
f 13 9 5
f 14 11 8
f 15 10 11
f 16 5 12
f 16 11 14
f 16 15 11
f 17 13 5
f 17 8 13
f 18 15 6
f 18 6 10
f 18 10 15
f 19 4 6
f 19 6 15
f 19 15 16
f 20 16 14
f 20 14 5
f 20 5 16
f 21 14 8
f 21 8 17
f 21 17 5
f 21 5 14
f 22 12 4
f 22 19 16
f 22 16 12
f 23 22 4
f 23 4 19
f 23 19 22

