# https://github.com/mikedh/trimesh
v -0.00391574 0.00916667 0.02808520
v 0.00171509 -0.00416666 0.03296879
v 0.01031607 0.00916667 0.02760216
v 0.01227482 0.00916667 0.01055493
v -0.00439878 -0.00416666 0.01385339
v 0.01429767 -0.00416666 0.02414894
v 0.00415688 0.00916667 0.03015338
v -0.00646696 -0.00083333 0.02192601
v -0.00721419 0.00916667 0.01141160
v 0.01095388 -0.00083333 0.02914196
v 0.01456185 0.00916667 0.02043154
v 0.00919522 -0.00416666 0.01183055
v 0.00987483 -0.00452401 0.02809315
v -0.00110033 0.00750000 0.03052700
v -0.00620277 -0.00416666 0.01820860
v -0.00391574 -0.00083333 0.02808520
v -0.00838038 0.00916667 0.01730661
v 0.00479468 0.00250000 0.03169318
v 0.01456185 -0.00083333 0.02043154
v 0.01429767 0.00250000 0.02414894
v 0.00510420 0.00750000 0.00630916
v 0.01328624 -0.00416666 0.01735194
v 0.00484001 -0.00416666 0.01002656
v -0.00044275 -0.00426416 0.02934591
v -0.00593858 -0.00250000 0.01449120
v -0.00710476 0.00083333 0.02038621
v 0.00325488 0.00083333 0.03233098
v 0.00941408 0.00250000 0.02977976
v 0.01355043 0.00916667 0.01363453
v 0.01275787 0.00916667 0.02478675
v 0.00510420 0.00916667 0.00630916
v 0.00945941 0.00583334 0.00811314
v -0.00413460 0.00416667 0.01013599
v 0.01201063 -0.00416666 0.01427234
v -0.00811619 0.00750000 0.01358921
v 0.00171509 -0.00250000 0.03296879
v 0.00261708 0.00750000 0.03079119
v 0.01185587 0.00750000 0.02696435
v 0.01227482 0.00750000 0.01055493
v 0.01355043 0.00750000 0.01363453
v 0.00791961 0.00083333 0.00875095
v 0.00945941 0.00916667 0.00811314
v -0.00503659 -0.00083333 0.01231359
v 0.00112261 -0.00250000 0.00976237
v -0.00811619 0.00916667 0.01358921
v -0.00747838 0.00250000 0.01512901
v 0.01009721 0.00250000 0.00965294
v 0.00637981 -0.00250000 0.00938875
v 0.00728180 0.00583334 0.00721115
v -0.00721419 0.00750000 0.01141160
v 0.00202460 0.00416667 0.00758477
v -0.00195699 -0.00250000 0.01103798
v -0.00838038 0.00750000 0.01730661
v 0.01137283 -0.00250000 0.01273254
v 0.00855742 -0.00250000 0.01029075
f 1 3 4
f 7 3 1
f 9 1 4
f 11 4 3
f 13 10 2
f 13 6 10
f 14 7 1
f 15 5 13
f 16 1 8
f 16 14 1
f 16 2 14
f 16 8 15
f 17 8 1
f 17 1 9
f 18 2 10
f 18 3 7
f 19 11 6
f 20 10 6
f 20 6 11
f 22 6 13
f 22 19 6
f 23 13 5
f 23 12 13
f 24 15 13
f 24 13 2
f 24 16 15
f 24 2 16
f 25 5 15
f 26 15 8
f 26 8 17
f 27 2 18
f 27 18 7
f 28 18 10
f 28 3 18
f 29 4 11
f 29 11 19
f 30 20 11
f 30 11 3
f 31 21 9
f 31 9 4
f 32 21 31
f 33 9 21
f 34 22 13
f 34 13 12
f 36 14 2
f 36 2 27
f 37 27 7
f 37 7 14
f 37 36 27
f 37 14 36
f 38 28 10
f 38 3 28
f 38 30 3
f 38 10 20
f 38 20 30
f 39 4 29
f 39 22 34
f 39 32 4
f 40 29 19
f 40 19 22
f 40 39 29
f 40 22 39
f 42 32 31
f 42 31 4
f 42 4 32
f 43 5 25
f 44 23 5
f 45 35 17
f 45 17 9
f 45 9 35
f 46 25 15
f 46 15 26
f 47 32 39
f 47 41 32
f 48 21 41
f 48 12 23
f 49 41 21
f 49 21 32
f 49 32 41
f 50 9 33
f 50 33 43
f 50 35 9
f 50 43 25
f 50 46 35
f 50 25 46
f 51 44 33
f 51 33 21
f 51 21 48
f 51 48 23
f 51 23 44
f 52 43 33
f 52 33 44
f 52 44 5
f 52 5 43
f 53 46 26
f 53 26 17
f 53 17 35
f 53 35 46
f 54 47 39
f 54 39 34
f 55 48 41
f 55 12 48
f 55 41 47
f 55 47 54
f 55 54 34
f 55 34 12

