# https://github.com/mikedh/trimesh
v -0.01119579 0.04416667 0.01486482
v -0.01119579 0.04250000 0.01486482
v -0.00041719 0.04416667 0.01040018
v -0.00292704 0.04959245 0.00431765
v -0.01069311 0.04891105 0.00742100
v -0.01066741 0.04250000 0.00743001
v -0.00939180 0.04916667 0.01050961
v -0.01180548 0.04375514 0.01263393
v -0.00068842 0.04203439 0.00961848
v -0.00259480 0.04750000 0.00949818
v -0.01178201 0.04249392 0.01309181
v -0.00248370 0.04307883 0.00552229
v -0.00201644 0.04833578 0.00618408
v -0.00105500 0.04750000 0.00886038
f 1 2 3
f 6 5 4
f 7 5 1
f 7 4 5
f 8 1 5
f 8 5 6
f 9 3 2
f 10 7 1
f 10 1 3
f 11 2 1
f 11 1 8
f 11 8 6
f 11 9 2
f 11 6 9
f 12 9 6
f 12 6 4
f 13 3 9
f 13 12 4
f 13 9 12
f 14 4 7
f 14 7 10
f 14 13 4
f 14 10 3
f 14 3 13

