# https://github.com/mikedh/trimesh
v -0.00503659 0.02416667 0.01231359
v 0.00085842 0.00916667 0.01347978
v 0.00085842 0.02416667 0.01347978
v 0.01036140 0.02416667 0.00593554
v 0.00074899 0.01416667 0.00450517
v 0.01045115 0.01282349 0.01006798
v -0.00631220 0.01083333 0.00923400
v -0.00695001 0.02416667 0.00769420
v 0.01041582 0.02389155 0.00944352
v 0.00818380 0.01416667 0.00503354
v -0.00520441 0.00909957 0.01217288
v 0.00382859 0.02416667 0.00322956
v -0.00695001 0.01583334 0.00769420
v 0.01099921 0.01250000 0.00747534
v 0.00382859 0.01916667 0.00322956
v -0.00541021 0.01416667 0.00705639
v 0.01036140 0.01583334 0.00593554
v 0.00955947 0.00935286 0.01030395
v 0.00446639 0.01250000 0.00476936
v -0.00477240 0.00916667 0.00859619
v 0.00600619 0.01583334 0.00413155
v 0.00228879 0.01583334 0.00386736
v 0.00664400 0.01083333 0.00567135
v 0.00138679 0.00916667 0.00604497
v 0.00882160 0.01083333 0.00657334
v 0.00945941 0.00916667 0.00811314
v 0.00510420 0.00916667 0.00630916
f 1 2 3
f 1 3 4
f 6 3 2
f 8 1 4
f 9 4 3
f 9 3 6
f 11 2 1
f 11 1 8
f 12 8 4
f 12 5 8
f 12 4 10
f 13 8 5
f 13 11 8
f 13 7 11
f 14 9 6
f 14 4 9
f 15 12 10
f 15 5 12
f 16 13 5
f 16 7 13
f 17 14 10
f 17 10 4
f 17 4 14
f 18 14 6
f 18 6 2
f 20 16 5
f 20 7 16
f 20 11 7
f 21 15 10
f 21 10 19
f 22 19 5
f 22 5 15
f 22 21 19
f 22 15 21
f 23 19 10
f 24 20 5
f 24 5 19
f 24 19 23
f 24 11 20
f 25 23 10
f 25 10 14
f 26 18 2
f 26 2 11
f 26 23 25
f 26 25 14
f 26 14 18
f 27 26 11
f 27 11 24
f 27 24 23
f 27 23 26

