# https://github.com/mikedh/trimesh
v 0.00133231 -0.02582475 0.03132810
v 0.00107728 -0.03916666 0.03142899
v 0.01493547 -0.02750000 0.02568874
v 0.01365986 -0.02583333 0.02260914
v -0.00120976 -0.02583333 0.02155239
v 0.00994246 -0.03916666 0.02234495
v 0.01493547 -0.02583333 0.02568874
v 0.01204777 -0.03888928 0.02723178
v -0.00147394 -0.02916666 0.02526979
v 0.00003236 -0.02547618 0.02539054
v 0.01275787 -0.03916666 0.02478675
v 0.00802904 -0.02583333 0.01772556
v 0.00070366 -0.03916666 0.02617179
v 0.01020664 -0.02750000 0.01862755
v 0.01365986 -0.02750000 0.02260914
v 0.00250765 -0.03416667 0.02181658
v 0.01020664 -0.02583333 0.01862755
v -0.00120976 -0.02750000 0.02155239
v 0.00043947 -0.03916666 0.02988919
v 0.01212006 -0.03750000 0.02324695
v 0.00802904 -0.02750000 0.01772556
v 0.00160565 -0.03750000 0.02399418
v 0.00006586 -0.03583333 0.02463199
v 0.00930465 -0.03583333 0.02080515
v 0.00648924 -0.02916666 0.01836336
v 0.00776485 -0.03750000 0.02144296
v 0.00033004 -0.02916666 0.02091458
v 0.00558725 -0.03416667 0.02054097
f 7 3 4
f 8 1 2
f 8 7 1
f 8 3 7
f 9 2 1
f 9 1 5
f 10 5 1
f 10 7 4
f 10 1 7
f 11 3 8
f 11 8 2
f 11 2 6
f 12 5 10
f 13 6 2
f 15 4 3
f 15 3 11
f 15 14 4
f 17 12 10
f 17 10 4
f 17 14 12
f 17 4 14
f 18 9 5
f 18 5 12
f 19 13 2
f 19 2 9
f 19 9 13
f 20 11 6
f 20 6 14
f 20 15 11
f 20 14 15
f 21 12 14
f 21 18 12
f 22 6 13
f 23 13 9
f 23 9 18
f 23 22 13
f 23 18 22
f 24 21 14
f 24 14 6
f 25 18 21
f 25 21 24
f 26 22 16
f 26 6 22
f 26 24 6
f 26 25 24
f 27 22 18
f 27 16 22
f 27 25 16
f 27 18 25
f 28 26 16
f 28 16 25
f 28 25 26

