# https://github.com/mikedh/trimesh
v -0.00519135 0.02416667 0.02500561
v -0.00058113 0.00090389 0.02891277
v -0.00173813 0.01583334 0.02898720
v -0.00154622 0.02681999 0.02289411
v -0.00574085 0.01585665 0.02157622
v 0.00003873 0.01567671 0.02714868
v -0.00301374 0.02583333 0.02590760
v -0.00391574 0.00916667 0.02808520
v -0.00646696 0.02583333 0.02192601
v -0.00274956 0.00916667 0.02219019
v -0.00237594 0.02250000 0.02744740
v -0.00455354 0.02083333 0.02654540
v -0.00225349 0.00083347 0.02735497
v -0.00329128 0.02735395 0.02056847
v -0.00365155 0.02750000 0.02436780
v -0.00050723 0.02209167 0.02545975
v -0.00391574 0.01250000 0.02808520
v -0.00479406 0.00914704 0.02306709
v -0.00125851 0.00081979 0.02843034
v -0.00427159 0.02661702 0.02066983
v -0.00338736 0.01583334 0.02065040
v -0.00582915 0.02583333 0.02346581
v -0.00104316 0.02528825 0.02405945
v -0.00200124 0.00083207 0.02768912
f 6 3 2
f 8 2 3
f 9 8 1
f 9 5 8
f 10 6 2
f 10 4 6
f 11 7 1
f 11 3 6
f 12 1 8
f 12 11 1
f 12 3 11
f 13 10 2
f 15 1 7
f 15 14 9
f 15 7 4
f 15 4 14
f 16 11 6
f 17 12 8
f 17 8 3
f 17 3 12
f 18 13 8
f 18 8 5
f 18 5 10
f 18 10 13
f 19 13 2
f 19 2 8
f 20 5 9
f 20 9 14
f 21 10 5
f 21 20 14
f 21 5 20
f 21 14 4
f 21 4 10
f 22 15 9
f 22 9 1
f 22 1 15
f 23 16 6
f 23 6 4
f 23 4 7
f 23 7 11
f 23 11 16
f 24 19 8
f 24 8 13
f 24 13 19

