# https://github.com/mikedh/trimesh
v -0.00173813 0.01750000 0.02898720
v 0.00197927 0.01583334 0.02925139
v 0.00840266 0.02916667 0.02298276
v 0.01355043 0.02250000 0.01363453
v -0.00338736 0.01583334 0.02065040
v 0.01121807 0.01583334 0.02542455
v 0.00288127 0.02583333 0.02707378
v -0.00173813 0.01583334 0.02898720
v -0.00279563 0.02783142 0.02020976
v 0.01392405 0.02250000 0.01889174
v 0.01224275 0.01592562 0.01393478
v 0.01244985 0.01567550 0.01868496
v 0.00197927 0.01750000 0.02925139
v 0.00904046 0.02583333 0.02452256
v 0.01047083 0.02916667 0.01491014
v -0.00211175 0.02916667 0.02372999
v 0.01418824 0.02250000 0.01517433
v 0.01255769 0.01581834 0.01542113
v -0.00176761 0.01572226 0.02638943
v 0.00134147 0.02416667 0.02771159
v 0.01084445 0.02916667 0.02016735
v 0.01212006 0.02250000 0.02324695
v 0.00967827 0.01916667 0.02606236
v 0.01201063 0.02750000 0.01427234
v 0.00378326 0.02916667 0.02489618
v -0.00083614 0.02583333 0.02680959
v 0.01328624 0.02583333 0.01735194
v 0.01121807 0.01750000 0.02542455
v 0.00351907 0.01916667 0.02861358
v 0.01264844 0.02750000 0.01581214
v 0.00006586 0.02916667 0.02463199
v 0.01110864 0.02916667 0.01644994
v 0.00070366 0.02750000 0.02617179
f 8 2 1
f 8 1 5
f 11 5 9
f 12 6 2
f 12 10 6
f 13 1 2
f 13 2 6
f 14 3 7
f 15 11 9
f 16 15 9
f 16 3 15
f 16 9 5
f 16 5 1
f 17 11 4
f 17 10 12
f 18 12 5
f 18 5 11
f 18 17 12
f 18 11 17
f 19 8 5
f 19 5 12
f 19 12 2
f 19 2 8
f 20 13 7
f 20 1 13
f 21 3 14
f 21 15 3
f 22 21 14
f 22 10 21
f 23 13 6
f 23 22 14
f 23 14 7
f 24 4 11
f 24 11 15
f 24 17 4
f 25 7 3
f 25 3 16
f 26 16 1
f 26 1 20
f 26 20 7
f 27 21 10
f 27 10 17
f 28 23 6
f 28 22 23
f 28 6 10
f 28 10 22
f 29 23 7
f 29 7 13
f 29 13 23
f 30 24 15
f 30 21 27
f 30 27 17
f 30 17 24
f 31 25 16
f 31 16 26
f 32 30 15
f 32 15 21
f 32 21 30
f 33 31 26
f 33 26 7
f 33 7 25
f 33 25 31

