# https://github.com/mikedh/trimesh
v 0.00987271 -0.01064618 0.02940963
v 0.00877628 -0.01750000 0.02823996
v 0.01493547 -0.01750000 0.02568874
v 0.01047083 -0.01083333 0.01491014
v 0.00306963 -0.01070515 0.01465443
v 0.01493547 -0.01250000 0.02568874
v 0.00312226 -0.01228914 0.01517551
v 0.00589280 -0.01032013 0.01466519
v 0.01268279 -0.01087309 0.02404278
v 0.00675343 -0.01750000 0.01464596
v 0.01227093 -0.01098750 0.02586118
v 0.00383134 -0.01717365 0.01681538
v 0.01174644 -0.01750000 0.01798974
v 0.00303602 -0.01583333 0.01438177
v 0.00829323 -0.01583333 0.01400815
v 0.00893103 -0.01750000 0.01554795
v 0.01110864 -0.01583333 0.01644994
v 0.00611562 -0.01416667 0.01310616
v 0.01047083 -0.01250000 0.01491014
v 0.00457582 -0.01583333 0.01374396
f 1 2 3
f 6 1 3
f 6 3 4
f 7 2 1
f 7 1 5
f 8 5 1
f 9 6 4
f 9 8 1
f 9 4 8
f 10 3 2
f 11 9 1
f 11 1 6
f 11 6 9
f 12 10 2
f 12 2 7
f 13 4 3
f 13 3 10
f 14 7 5
f 14 12 7
f 14 10 12
f 16 13 10
f 16 10 15
f 17 4 13
f 17 16 15
f 17 13 16
f 18 15 10
f 18 14 5
f 18 5 8
f 18 8 4
f 18 4 15
f 19 17 15
f 19 15 4
f 19 4 17
f 20 18 10
f 20 10 14
f 20 14 18

