# https://github.com/mikedh/trimesh
v 0.00918459 -0.00404802 0.02864262
v 0.00987271 -0.01064618 0.02940963
v 0.01339567 -0.00083333 0.02632655
v 0.00980358 0.00077954 0.02705584
v 0.00813847 -0.01083333 0.02670016
v 0.00813847 -0.00416666 0.02670016
v 0.01257861 -0.01084502 0.02475283
v 0.01227093 -0.01098750 0.02586118
v 0.01194305 -0.00078413 0.02420915
v 0.01113078 0.00081791 0.02537473
v 0.01024570 0.00096698 0.02657864
f 1 2 3
f 1 3 4
f 5 2 1
f 6 5 1
f 6 1 4
f 8 7 3
f 8 3 2
f 8 2 5
f 8 5 7
f 9 7 5
f 9 5 6
f 9 3 7
f 10 9 6
f 10 3 9
f 11 10 6
f 11 6 4
f 11 4 3
f 11 3 10

