# https://github.com/mikedh/trimesh
v 0.00213403 0.03750000 0.01655937
v 0.00213403 0.03583333 0.01655937
v 0.00983303 0.03583333 0.01337034
v 0.01344100 0.04583333 0.00465993
v 0.00000735 0.03878764 0.01126988
v 0.01317681 0.05083334 0.00837733
v 0.00085842 0.03916667 0.01347978
v 0.00791961 0.03583333 0.00875095
v 0.00829323 0.04250000 0.01400815
v 0.01471661 0.04583333 0.00773952
v 0.00664400 0.05083334 0.00567135
v 0.00059575 0.03624695 0.01262417
v 0.01227482 0.03916667 0.01055493
v 0.00457582 0.04583333 0.01374396
v 0.01471661 0.04916667 0.00773952
v 0.01126340 0.05083334 0.00375793
v 0.01099921 0.03916667 0.00747534
v 0.00765542 0.04750000 0.01246835
v 0.00521363 0.04250000 0.01528376
v 0.00303602 0.04250000 0.01438177
v 0.01227482 0.04750000 0.01055493
v 0.00972360 0.04583333 0.00439574
v 0.00855742 0.05083334 0.01029075
v 0.00367383 0.04083333 0.01592157
v 0.00983303 0.04083333 0.01337034
v 0.01126340 0.04750000 0.00375793
v 0.00664400 0.04583333 0.00567135
v 0.01190120 0.04250000 0.00529773
f 1 2 3
f 7 5 2
f 7 2 1
f 8 3 2
f 9 1 3
f 12 8 2
f 12 2 5
f 12 5 8
f 13 3 8
f 14 11 5
f 14 5 7
f 15 10 4
f 15 13 10
f 16 11 6
f 16 15 4
f 16 6 15
f 17 13 8
f 19 1 9
f 19 18 14
f 19 9 18
f 20 14 7
f 20 7 1
f 20 1 14
f 21 15 6
f 21 3 13
f 21 13 15
f 21 18 9
f 21 6 18
f 22 11 16
f 23 18 6
f 23 6 11
f 23 11 14
f 23 14 18
f 24 19 14
f 24 14 1
f 24 1 19
f 25 21 9
f 25 9 3
f 25 3 21
f 26 22 16
f 26 16 4
f 27 22 8
f 27 8 5
f 27 5 11
f 27 11 22
f 28 17 8
f 28 8 22
f 28 22 26
f 28 26 4
f 28 13 17
f 28 4 10
f 28 10 13

