# https://github.com/mikedh/trimesh
v -0.00170243 -0.01074225 0.02722254
v -0.00237594 -0.01750000 0.02744740
v 0.00378326 -0.01750000 0.02489618
v 0.00306963 -0.01070515 0.01465443
v -0.00222118 -0.01083333 0.01475539
v 0.00378326 -0.01083333 0.02489618
v -0.00428935 -0.01416667 0.02282800
v 0.00128103 -0.01022578 0.01480694
v 0.00149622 -0.01750000 0.01501957
v 0.00431163 -0.01083333 0.01746137
v -0.00275030 -0.01055379 0.02274116
v 0.00085842 -0.01250000 0.01347978
v 0.00422963 -0.01768942 0.01693177
v -0.00312317 -0.01583333 0.01693299
v -0.00277204 -0.01059436 0.01936729
v -0.00338736 -0.01750000 0.02065040
v 0.00303602 -0.01583333 0.01438177
v -0.00402517 -0.01583333 0.01911060
v -0.00158337 -0.01750000 0.01629519
v -0.00301374 -0.01750000 0.02590760
v -0.00222118 -0.01250000 0.01475539
f 1 2 3
f 6 1 3
f 7 2 1
f 8 1 6
f 10 6 3
f 10 8 6
f 10 4 8
f 11 7 1
f 11 1 8
f 12 8 4
f 12 5 8
f 13 3 2
f 13 10 3
f 13 4 10
f 15 5 7
f 15 7 11
f 15 11 8
f 15 8 5
f 17 12 4
f 17 4 13
f 17 13 9
f 17 9 12
f 18 7 5
f 18 16 7
f 18 14 16
f 19 12 9
f 19 16 14
f 19 9 13
f 19 13 16
f 20 16 13
f 20 13 2
f 20 2 7
f 20 7 16
f 21 19 14
f 21 5 12
f 21 12 19
f 21 18 5
f 21 14 18

