# https://github.com/mikedh/trimesh
v 0.00914021 -0.01111238 0.03017048
v 0.01101188 -0.03923234 0.03406430
v 0.01286730 -0.03083333 0.03376135
v 0.01403348 -0.01083333 0.02786634
v 0.00877628 -0.03916666 0.02823996
v 0.01159169 -0.01083333 0.03068176
v 0.01132750 -0.03083333 0.03439916
v 0.01227093 -0.01098750 0.02586118
v 0.01467128 -0.03916666 0.02940614
v 0.01467128 -0.01916667 0.02940614
v 0.01440710 -0.03916666 0.03312355
v 0.00987271 -0.01064618 0.02940963
v 0.01204777 -0.03888928 0.02723178
v 0.01376929 -0.02416667 0.03158375
v 0.01313148 -0.01416667 0.03004395
v 0.01440710 -0.03583333 0.03312355
f 5 2 1
f 7 1 2
f 7 6 1
f 7 3 6
f 8 5 1
f 9 2 5
f 9 8 4
f 10 9 4
f 11 7 2
f 11 3 7
f 11 2 9
f 11 9 10
f 12 6 4
f 12 4 8
f 12 8 1
f 12 1 6
f 13 9 5
f 13 5 8
f 13 8 9
f 14 6 3
f 15 10 4
f 15 4 6
f 15 14 10
f 15 6 14
f 16 11 10
f 16 10 14
f 16 14 3
f 16 3 11

