# https://github.com/mikedh/trimesh
v 0.00003585 -0.03101277 -0.00043051
v 0.00003585 -0.03101277 -0.00043051
v 0.00003585 -0.03101277 -0.00043051
v 0.00003585 -0.03101277 -0.00043051
v 0.00003585 -0.03101277 -0.00043051
v 0.00003585 -0.03101277 -0.00043051
v 0.00003585 -0.03101277 -0.00043051
v 0.03564900 -0.00015626 -0.00055182
v 0.03564900 -0.00015626 -0.00055182
v 0.03564900 -0.00015626 -0.00055182
v 0.03564900 -0.00015626 -0.00055182
v 0.03564900 -0.00237986 -0.00057981
v 0.03564900 -0.00237986 -0.00057981
v 0.03564900 -0.00237986 -0.00057981
v 0.03564900 -0.00237986 -0.00057981
v 0.03564900 -0.00237986 -0.00057981
v 0.03564900 -0.00237986 -0.00057981
v 0.03564900 -0.00237986 -0.00057981
v 0.03564900 -0.00396216 -0.00058915
v 0.03564900 -0.00396216 -0.00058915
v 0.03564900 -0.00396216 -0.00058915
v 0.03564900 -0.00396216 -0.00058915
v 0.03564900 -0.00396216 -0.00058915
v 0.03564900 -0.00871552 -0.00059848
v 0.03564900 -0.00871552 -0.00059848
v 0.03564900 -0.00871552 -0.00059848
v 0.03564900 -0.00871552 -0.00059848
v 0.03564900 -0.02931123 -0.00061714
v 0.03564900 -0.02931123 -0.00061714
v 0.03564900 -0.02931123 -0.00061714
v 0.03564900 -0.02931123 -0.00061714
v 0.03564900 -0.02931123 -0.00061714
v 0.03564900 -0.02931123 -0.00061714
v 0.03564900 -0.02931123 -0.00061714
v 0.03564900 -0.02931123 -0.00061714
v 0.03564900 -0.02931123 -0.00061714
v 0.03564900 -0.02931123 -0.00061714
v 0.03564900 -0.02931123 -0.00061714
v 0.00003585 -0.03220192 -0.00043051
v 0.00003585 -0.03220192 -0.00043051
v 0.00003585 -0.03220192 -0.00043051
v 0.00003585 -0.03220192 -0.00043051
v 0.00003585 -0.03220192 -0.00043051
v 0.00003585 -0.00015626 0.00134249
v 0.00003585 -0.00015626 0.00134249
v 0.00003585 -0.00015626 0.00134249
v 0.03664634 -0.00015626 -0.00023455
v 0.03664634 -0.00015626 -0.00023455
v 0.03664634 -0.00015626 -0.00023455
v 0.03664634 -0.00015626 -0.00023455
v 0.03666090 -0.00237986 -0.00025321
v 0.03666090 -0.00237986 -0.00025321
v 0.03666090 -0.00237986 -0.00025321
v 0.03666090 -0.00237986 -0.00025321
v 0.03666818 -0.00396216 -0.00026254
v 0.03666818 -0.00396216 -0.00026254
v 0.03666818 -0.00396216 -0.00026254
v 0.03666818 -0.00396216 -0.00026254
v 0.03666818 -0.00396216 -0.00026254
v 0.03667182 -0.00554769 -0.00027187
v 0.03667182 -0.00554769 -0.00027187
v 0.03667182 -0.00554769 -0.00027187
v 0.03667182 -0.00554769 -0.00027187
v 0.03667182 -0.00554769 -0.00027187
v 0.03668274 -0.01030104 -0.00028120
v 0.03668274 -0.01030104 -0.00028120
v 0.03668274 -0.01030104 -0.00028120
v 0.03668274 -0.01030104 -0.00028120
v 0.03668274 -0.01030104 -0.00028120
v 0.03668274 -0.01030104 -0.00028120
v 0.03668274 -0.01030104 -0.00028120
v 0.03668274 -0.01030104 -0.00028120
v 0.01030047 -0.03220836 -0.00043051
v 0.01030047 -0.03220836 -0.00043051
v 0.01030047 -0.03220836 -0.00043051
v 0.01030047 -0.03220836 -0.00043051
v 0.01030047 -0.03220836 -0.00043051
v 0.00237997 -0.03220514 -0.00043051
v 0.00237997 -0.03220514 -0.00043051
v 0.00237997 -0.03220514 -0.00043051
v 0.00237997 -0.03220514 -0.00043051
v 0.00237997 -0.03220514 -0.00043051
v 0.03668274 -0.02772893 -0.00028120
v 0.03668274 -0.02772893 -0.00028120
v 0.03668274 -0.02772893 -0.00028120
v 0.03668274 -0.02772893 -0.00028120
v 0.03668274 -0.02772893 -0.00028120
v 0.03667182 -0.02931123 -0.00027187
v 0.03667182 -0.02931123 -0.00027187
v 0.03667182 -0.02931123 -0.00027187
v 0.03667182 -0.02931123 -0.00027187
v 0.03667182 -0.02931123 -0.00027187
v 0.03667182 -0.02931123 -0.00027187
v 0.03580188 -0.03104500 -0.00041185
v 0.03580188 -0.03104500 -0.00041185
v 0.03580188 -0.03104500 -0.00041185
v 0.03580188 -0.03104500 -0.00041185
v 0.03580188 -0.03104500 -0.00041185
v 0.03580188 -0.03104500 -0.00041185
v 0.03406563 -0.03217936 -0.00042117
v 0.03406563 -0.03217936 -0.00042117
v 0.03406563 -0.03217936 -0.00042117
v 0.03406563 -0.03217936 -0.00042117
v 0.03406563 -0.03217936 -0.00042117
v 0.03406563 -0.03217936 -0.00042117
v 0.03248225 -0.03221159 -0.00042117
v 0.03248225 -0.03221159 -0.00042117
v 0.03248225 -0.03221159 -0.00042117
v 0.03248225 -0.03221159 -0.00042117
v 0.03248225 -0.03221159 -0.00042117
v 0.03248225 -0.03221159 -0.00042117
v 0.01822462 -0.03287867 0.00080126
v 0.01822462 -0.03287867 0.00080126
v 0.01822462 -0.03287867 0.00080126
v 0.01822462 -0.03287867 0.00080126
v 0.01822462 -0.03287867 0.00080126
v 0.01822462 -0.03287867 0.00080126
v 0.01822462 -0.03287867 0.00080126
v 0.01822462 -0.03287867 0.00080126
v 0.01822462 -0.03287867 0.00080126
v 0.01822462 -0.03287867 0.00080126
v 0.00003585 -0.03253707 0.00021337
v 0.00003585 -0.03253707 0.00021337
v 0.00003585 -0.03253707 0.00021337
v 0.00003585 -0.00015626 0.09283854
v 0.00003585 -0.00015626 0.09283854
v 0.00003585 -0.00015626 0.09283854
v 0.03699577 -0.00015626 0.00080126
v 0.03699577 -0.00015626 0.00080126
v 0.03699577 -0.00015626 0.00080126
v 0.03699577 -0.00015626 0.00080126
v 0.03699577 -0.00015626 0.00080126
v 0.03699942 -0.00079434 0.00080126
v 0.03699942 -0.00079434 0.00080126
v 0.03699942 -0.00079434 0.00080126
v 0.03699942 -0.00079434 0.00080126
v 0.03699942 -0.00079434 0.00080126
v 0.03699942 -0.00079434 0.00080126
v 0.03699942 -0.00079434 0.00080126
v 0.03702126 -0.00871552 0.00080126
v 0.03702126 -0.00871552 0.00080126
v 0.03702126 -0.00871552 0.00080126
v 0.03702126 -0.00871552 0.00080126
v 0.03702853 -0.01188657 0.00080126
v 0.03702853 -0.01188657 0.00080126
v 0.03702853 -0.01188657 0.00080126
v 0.03702853 -0.01188657 0.00080126
v 0.01822462 -0.03222125 -0.00042117
v 0.01822462 -0.03222125 -0.00042117
v 0.01822462 -0.03222125 -0.00042117
v 0.01822462 -0.03222125 -0.00042117
v 0.03089524 -0.03221481 -0.00042117
v 0.03089524 -0.03221481 -0.00042117
v 0.03089524 -0.03221481 -0.00042117
v 0.03089524 -0.03221481 -0.00042117
v 0.03089524 -0.03221481 -0.00042117
v 0.03702853 -0.02455788 0.00080126
v 0.03702853 -0.02455788 0.00080126
v 0.03702853 -0.02455788 0.00080126
v 0.03702853 -0.02455788 0.00080126
v 0.03702126 -0.02772893 0.00080126
v 0.03702126 -0.02772893 0.00080126
v 0.03702126 -0.02772893 0.00080126
v 0.03702126 -0.02772893 0.00080126
v 0.03702126 -0.02772893 0.00080126
v 0.03702126 -0.02772893 0.00080126
v 0.03658810 -0.03061639 -0.00016923
v 0.03658810 -0.03061639 -0.00016923
v 0.03658810 -0.03061639 -0.00016923
v 0.03658810 -0.03061639 -0.00016923
v 0.03658810 -0.03061639 -0.00016923
v 0.03698849 -0.02931123 0.00080126
v 0.03698849 -0.02931123 0.00080126
v 0.03698849 -0.02931123 0.00080126
v 0.03698849 -0.02931123 0.00080126
v 0.03698849 -0.02931123 0.00080126
v 0.03698849 -0.02931123 0.00080126
v 0.03698849 -0.02931123 0.00080126
v 0.03643523 -0.03167019 0.00007340
v 0.03643523 -0.03167019 0.00007340
v 0.03643523 -0.03167019 0.00007340
v 0.03643523 -0.03167019 0.00007340
v 0.03643523 -0.03167019 0.00007340
v 0.03643523 -0.03167019 0.00007340
v 0.03643523 -0.03167019 0.00007340
v 0.03537600 -0.03199889 -0.00027187
v 0.03537600 -0.03199889 -0.00027187
v 0.03537600 -0.03199889 -0.00027187
v 0.03537600 -0.03199889 -0.00027187
v 0.03537600 -0.03199889 -0.00027187
v 0.03406563 -0.03275621 0.00080126
v 0.03406563 -0.03275621 0.00080126
v 0.03406563 -0.03275621 0.00080126
v 0.03406563 -0.03275621 0.00080126
v 0.03406563 -0.03275621 0.00080126
v 0.03406563 -0.03275621 0.00080126
v 0.03406563 -0.03275621 0.00080126
v 0.03248225 -0.03284000 0.00080126
v 0.03248225 -0.03284000 0.00080126
v 0.03248225 -0.03284000 0.00080126
v 0.03248225 -0.03284000 0.00080126
v 0.03248225 -0.03284000 0.00080126
v 0.03248225 -0.03284000 0.00080126
v 0.03089524 -0.03286255 0.00080126
v 0.03089524 -0.03286255 0.00080126
v 0.03089524 -0.03286255 0.00080126
v 0.03089524 -0.03286255 0.00080126
v 0.03089524 -0.03286255 0.00080126
v 0.03089524 -0.03286255 0.00080126
v 0.00003585 -0.03284000 0.00080126
v 0.00003585 -0.03284000 0.00080126
v 0.00003585 -0.03284000 0.00080126
v 0.02931187 -0.03302369 0.00237830
v 0.02931187 -0.03302369 0.00237830
v 0.02931187 -0.03302369 0.00237830
v 0.02931187 -0.03302369 0.00237830
v 0.02931187 -0.03302369 0.00237830
v 0.02931187 -0.03302369 0.00237830
v 0.01822462 -0.03303335 0.00237830
v 0.01822462 -0.03303335 0.00237830
v 0.01822462 -0.03303335 0.00237830
v 0.01822462 -0.03303335 0.00237830
v 0.01822462 -0.03303335 0.00237830
v 0.01822462 -0.03303335 0.00237830
v 0.00003585 -0.03300435 0.00237830
v 0.00003585 -0.03300435 0.00237830
v 0.00003585 -0.03300435 0.00237830
v 0.00003585 -0.03300435 0.00237830
v 0.00003585 -0.01130650 0.09360374
v 0.00003585 -0.01130650 0.09360374
v 0.00003585 -0.01130650 0.09360374
v 0.00464765 -0.00015626 0.09424762
v 0.00464765 -0.00015626 0.09424762
v 0.00464765 -0.00015626 0.09424762
v 0.00464765 -0.00015626 0.09424762
v 0.03706858 -0.00015626 0.00143581
v 0.03706858 -0.00015626 0.00143581
v 0.03706858 -0.00015626 0.00143581
v 0.03717413 -0.00015626 0.00237830
v 0.03717413 -0.00015626 0.00237830
v 0.03717413 -0.00015626 0.00237830
v 0.03717413 -0.00015626 0.00237830
v 0.03717413 -0.00015626 0.00237830
v 0.03717413 -0.00015626 0.00237830
v 0.03717413 -0.00015626 0.00237830
v 0.03717413 -0.02455788 0.00237830
v 0.03717413 -0.02455788 0.00237830
v 0.03717413 -0.02455788 0.00237830
v 0.03717413 -0.02455788 0.00237830
v 0.03717049 -0.02614340 0.00237830
v 0.03717049 -0.02614340 0.00237830
v 0.03717049 -0.02614340 0.00237830
v 0.03717049 -0.02614340 0.00237830
v 0.03716321 -0.02772893 0.00237830
v 0.03716321 -0.02772893 0.00237830
v 0.03716321 -0.02772893 0.00237830
v 0.03716321 -0.02772893 0.00237830
v 0.03716321 -0.02772893 0.00237830
v 0.03716321 -0.02772893 0.00237830
v 0.03667182 -0.03104500 0.00067995
v 0.03667182 -0.03104500 0.00067995
v 0.03667182 -0.03104500 0.00067995
v 0.03667182 -0.03104500 0.00067995
v 0.03711589 -0.02931123 0.00237830
v 0.03711589 -0.02931123 0.00237830
v 0.03711589 -0.02931123 0.00237830
v 0.03711589 -0.02931123 0.00237830
v 0.03711589 -0.02931123 0.00237830
v 0.03683562 -0.03089676 0.00237830
v 0.03683562 -0.03089676 0.00237830
v 0.03683562 -0.03089676 0.00237830
v 0.03683562 -0.03089676 0.00237830
v 0.03683562 -0.03089676 0.00237830
v 0.03683562 -0.03089676 0.00237830
v 0.03683562 -0.03089676 0.00237830
v 0.03647890 -0.03173464 0.00112787
v 0.03647890 -0.03173464 0.00112787
v 0.03647890 -0.03173464 0.00112787
v 0.03647890 -0.03173464 0.00112787
v 0.03647890 -0.03173464 0.00112787
v 0.03580188 -0.03211491 0.00067995
v 0.03580188 -0.03211491 0.00067995
v 0.03580188 -0.03211491 0.00067995
v 0.03580188 -0.03211491 0.00067995
v 0.03580188 -0.03211491 0.00067995
v 0.03564900 -0.03232438 0.00237830
v 0.03564900 -0.03232438 0.00237830
v 0.03564900 -0.03232438 0.00237830
v 0.03564900 -0.03232438 0.00237830
v 0.03564900 -0.03232438 0.00237830
v 0.03564900 -0.03232438 0.00237830
v 0.03564900 -0.03232438 0.00237830
v 0.03406563 -0.03286255 0.00237830
v 0.03406563 -0.03286255 0.00237830
v 0.03406563 -0.03286255 0.00237830
v 0.03406563 -0.03286255 0.00237830
v 0.03406563 -0.03286255 0.00237830
v 0.03248225 -0.03297856 0.00237830
v 0.03248225 -0.03297856 0.00237830
v 0.03248225 -0.03297856 0.00237830
v 0.03248225 -0.03297856 0.00237830
v 0.03248225 -0.03297856 0.00237830
v 0.03248225 -0.03297856 0.00237830
v 0.03089524 -0.03301402 0.00237830
v 0.03089524 -0.03301402 0.00237830
v 0.03089524 -0.03301402 0.00237830
v 0.03089524 -0.03301402 0.00237830
v 0.03089524 -0.03301402 0.00237830
v 0.02931187 -0.03306235 0.00396466
v 0.02931187 -0.03306235 0.00396466
v 0.02931187 -0.03306235 0.00396466
v 0.02931187 -0.03306235 0.00396466
v 0.02931187 -0.03306235 0.00396466
v 0.02614148 -0.03306558 0.00396466
v 0.02614148 -0.03306558 0.00396466
v 0.02614148 -0.03306558 0.00396466
v 0.02614148 -0.03306558 0.00396466
v 0.02614148 -0.03306558 0.00396466
v 0.02614148 -0.03306558 0.00396466
v 0.02614148 -0.03306558 0.00396466
v 0.02614148 -0.03306558 0.00396466
v 0.01663761 -0.03306235 0.00396466
v 0.01663761 -0.03306235 0.00396466
v 0.01663761 -0.03306235 0.00396466
v 0.01663761 -0.03306235 0.00396466
v 0.00003585 -0.03305591 0.00396466
v 0.00003585 -0.03305591 0.00396466
v 0.00003585 -0.03305591 0.00396466
v 0.00003585 -0.03305591 0.00396466
v 0.00003585 -0.01188657 0.09364106
v 0.00003585 -0.01188657 0.09364106
v 0.00003585 -0.01188657 0.09364106
v 0.00003585 -0.01188657 0.09364106
v 0.00554672 -0.00015626 0.09449024
v 0.00554672 -0.00015626 0.09449024
v 0.00554672 -0.00015626 0.09449024
v 0.00554672 -0.00015626 0.09449024
v 0.03720325 -0.00015626 0.00396466
v 0.03720325 -0.00015626 0.00396466
v 0.03720325 -0.00015626 0.00396466
v 0.03720689 -0.01980453 0.00396466
v 0.03720689 -0.01980453 0.00396466
v 0.03720689 -0.01980453 0.00396466
v 0.03720689 -0.01980453 0.00396466
v 0.03720689 -0.02614340 0.00396466
v 0.03720689 -0.02614340 0.00396466
v 0.03720689 -0.02614340 0.00396466
v 0.03720689 -0.02614340 0.00396466
v 0.03720689 -0.02614340 0.00396466
v 0.03720689 -0.02614340 0.00396466
v 0.03720689 -0.02614340 0.00396466
v 0.03719961 -0.02772893 0.00396466
v 0.03719961 -0.02772893 0.00396466
v 0.03719961 -0.02772893 0.00396466
v 0.03719961 -0.02772893 0.00396466
v 0.03719961 -0.02772893 0.00396466
v 0.03715593 -0.02931123 0.00396466
v 0.03715593 -0.02931123 0.00396466
v 0.03715593 -0.02931123 0.00396466
v 0.03715593 -0.02931123 0.00396466
v 0.03715593 -0.02931123 0.00396466
v 0.03715593 -0.02931123 0.00396466
v 0.03689022 -0.03089676 0.00396466
v 0.03689022 -0.03089676 0.00396466
v 0.03689022 -0.03089676 0.00396466
v 0.03689022 -0.03089676 0.00396466
v 0.03689022 -0.03089676 0.00396466
v 0.03689022 -0.03089676 0.00396466
v 0.03651530 -0.03177975 0.00237830
v 0.03651530 -0.03177975 0.00237830
v 0.03651530 -0.03177975 0.00237830
v 0.03651530 -0.03177975 0.00237830
v 0.03651530 -0.03177975 0.00237830
v 0.03655170 -0.03181843 0.00396466
v 0.03655170 -0.03181843 0.00396466
v 0.03655170 -0.03181843 0.00396466
v 0.03655170 -0.03181843 0.00396466
v 0.03655170 -0.03181843 0.00396466
v 0.03655170 -0.03181843 0.00396466
v 0.03564900 -0.03237916 0.00396466
v 0.03564900 -0.03237916 0.00396466
v 0.03564900 -0.03237916 0.00396466
v 0.03564900 -0.03237916 0.00396466
v 0.03564900 -0.03237916 0.00396466
v 0.03564900 -0.03237916 0.00396466
v 0.03406563 -0.03289800 0.00396466
v 0.03406563 -0.03289800 0.00396466
v 0.03406563 -0.03289800 0.00396466
v 0.03406563 -0.03289800 0.00396466
v 0.03406563 -0.03289800 0.00396466
v 0.03406563 -0.03289800 0.00396466
v 0.03248225 -0.03301402 0.00396466
v 0.03248225 -0.03301402 0.00396466
v 0.03248225 -0.03301402 0.00396466
v 0.03248225 -0.03301402 0.00396466
v 0.03089524 -0.03305269 0.00396466
v 0.03089524 -0.03305269 0.00396466
v 0.03089524 -0.03305269 0.00396466
v 0.03089524 -0.03305269 0.00396466
v 0.03089524 -0.03305269 0.00396466
v 0.03089524 -0.03305269 0.00396466
v 0.02931187 -0.03306880 0.00713740
v 0.02931187 -0.03306880 0.00713740
v 0.02931187 -0.03306880 0.00713740
v 0.02931187 -0.03306880 0.00713740
v 0.02772849 -0.03306880 0.00555103
v 0.02772849 -0.03306880 0.00555103
v 0.02772849 -0.03306880 0.00555103
v 0.01663761 -0.03306880 0.00555103
v 0.01663761 -0.03306880 0.00555103
v 0.01663761 -0.03306880 0.00555103
v 0.01663761 -0.03306880 0.00555103
v 0.00003585 -0.03306558 0.00555103
v 0.00003585 -0.03306558 0.00555103
v 0.00003585 -0.03306558 0.00555103
v 0.00003585 -0.03306558 0.00555103
v 0.00003585 -0.03306235 0.00479517
v 0.00003585 -0.03306235 0.00479517
v 0.00003585 -0.03306235 0.00479517
v 0.00003585 -0.03306235 0.00479517
v 0.00003585 -0.01663670 0.09378104
v 0.00003585 -0.01663670 0.09378104
v 0.00003585 -0.01663670 0.09378104
v 0.00003585 -0.01663670 0.09378104
v 0.01505423 -0.00015626 0.09466753
v 0.01505423 -0.00015626 0.09466753
v 0.01505423 -0.00015626 0.09466753
v 0.01505423 -0.00015626 0.09466753
v 0.03720689 -0.00015626 0.00555103
v 0.03720689 -0.00015626 0.00555103
v 0.03720689 -0.00015626 0.00555103
v 0.03720689 -0.00015626 0.00555103
v 0.03720689 -0.00015626 0.00555103
v 0.03720689 -0.00015626 0.00555103
v 0.03721053 -0.01980453 0.00555103
v 0.03721053 -0.01980453 0.00555103
v 0.03721053 -0.01980453 0.00555103
v 0.03721053 -0.01980453 0.00555103
v 0.03721053 -0.02455788 0.00555103
v 0.03721053 -0.02455788 0.00555103
v 0.03721053 -0.02455788 0.00555103
v 0.03721053 -0.02455788 0.00555103
v 0.03721053 -0.02455788 0.00555103
v 0.03721053 -0.02614340 0.00713740
v 0.03721053 -0.02614340 0.00713740
v 0.03721053 -0.02614340 0.00713740
v 0.03721053 -0.02614340 0.00713740
v 0.03721053 -0.02614340 0.00713740
v 0.03720325 -0.02772893 0.00555103
v 0.03720325 -0.02772893 0.00555103
v 0.03720325 -0.02772893 0.00555103
v 0.03720325 -0.02772893 0.00555103
v 0.03720325 -0.02772893 0.00555103
v 0.03720325 -0.02772893 0.00555103
v 0.03717049 -0.02931123 0.00713740
v 0.03717049 -0.02931123 0.00713740
v 0.03717049 -0.02931123 0.00713740
v 0.03717049 -0.02931123 0.00713740
v 0.03717049 -0.02931123 0.00713740
v 0.03717049 -0.02931123 0.00713740
v 0.03717049 -0.02931123 0.00713740
v 0.03717049 -0.02931123 0.00713740
v 0.03717049 -0.02931123 0.00713740
v 0.03691206 -0.03089676 0.00555103
v 0.03691206 -0.03089676 0.00555103
v 0.03691206 -0.03089676 0.00555103
v 0.03691206 -0.03089676 0.00555103
v 0.03691206 -0.03089676 0.00555103
v 0.03691206 -0.03089676 0.00555103
v 0.03691206 -0.03089676 0.00555103
v 0.03656626 -0.03183776 0.00555103
v 0.03656626 -0.03183776 0.00555103
v 0.03656626 -0.03183776 0.00555103
v 0.03656626 -0.03183776 0.00555103
v 0.03656626 -0.03183776 0.00555103
v 0.03564900 -0.03239850 0.00555103
v 0.03564900 -0.03239850 0.00555103
v 0.03564900 -0.03239850 0.00555103
v 0.03564900 -0.03239850 0.00555103
v 0.03564900 -0.03239850 0.00555103
v 0.03564900 -0.03239850 0.00555103
v 0.03406563 -0.03290445 0.00555103
v 0.03406563 -0.03290445 0.00555103
v 0.03406563 -0.03290445 0.00555103
v 0.03406563 -0.03290445 0.00555103
v 0.03406563 -0.03290445 0.00555103
v 0.03406563 -0.03290445 0.00555103
v 0.03248225 -0.03302369 0.00555103
v 0.03248225 -0.03302369 0.00555103
v 0.03248225 -0.03302369 0.00555103
v 0.03248225 -0.03302369 0.00555103
v 0.03248225 -0.03302369 0.00555103
v 0.03089524 -0.03306235 0.00872376
v 0.03089524 -0.03306235 0.00872376
v 0.03089524 -0.03306235 0.00872376
v 0.03089524 -0.03306235 0.00872376
v 0.03089524 -0.03306235 0.00872376
v 0.03089524 -0.03306235 0.00872376
v 0.02931187 -0.03307202 0.01030080
v 0.02931187 -0.03307202 0.01030080
v 0.02931187 -0.03307202 0.01030080
v 0.02931187 -0.03307202 0.01030080
v 0.02931187 -0.03307202 0.01030080
v 0.02931187 -0.03307202 0.01030080
v 0.02772849 -0.03307202 0.00713740
v 0.02772849 -0.03307202 0.00713740
v 0.02772849 -0.03307202 0.00713740
v 0.02772849 -0.03307202 0.00713740
v 0.02772849 -0.03307202 0.00713740
v 0.02138772 -0.03307202 0.00713740
v 0.02138772 -0.03307202 0.00713740
v 0.02138772 -0.03307202 0.00713740
v 0.02138772 -0.03307202 0.00713740
v 0.02138772 -0.03307202 0.00713740
v 0.00003585 -0.03306880 0.00713740
v 0.00003585 -0.03306880 0.00713740
v 0.00003585 -0.03306880 0.00713740
v 0.00003585 -0.03306880 0.00713740
v 0.00003585 -0.01739079 0.09375304
v 0.00003585 -0.01739079 0.09375304
v 0.00003585 -0.01739079 0.09375304
v 0.00003585 -0.01739079 0.09375304
v 0.01663761 -0.00015626 0.09469553
v 0.01663761 -0.00015626 0.09469553
v 0.01663761 -0.00015626 0.09469553
v 0.01663761 -0.00015626 0.09469553
v 0.01663761 -0.00015626 0.09469553
v 0.01663761 -0.00015626 0.09469553
v 0.01663761 -0.00015626 0.09469553
v 0.01663761 -0.00015626 0.09469553
v 0.01663761 -0.00015626 0.09469553
v 0.03721417 -0.02297558 0.00872376
v 0.03721417 -0.02297558 0.00872376
v 0.03721417 -0.02297558 0.00872376
v 0.03721417 -0.02297558 0.00872376
v 0.03721417 -0.02297558 0.00872376
v 0.03721053 -0.00015626 0.01252171
v 0.03721053 -0.00015626 0.01252171
v 0.03721053 -0.00015626 0.01252171
v 0.03721053 -0.00015626 0.01252171
v 0.03721781 -0.01980453 0.01505990
v 0.03721781 -0.01980453 0.01505990
v 0.03721781 -0.01980453 0.01505990
v 0.03721781 -0.01980453 0.01505990
v 0.03721781 -0.02297558 0.01347353
v 0.03721781 -0.02297558 0.01347353
v 0.03721781 -0.02297558 0.01347353
v 0.03721781 -0.02297558 0.01347353
v 0.03721781 -0.02297558 0.01347353
v 0.03721781 -0.02455788 0.01347353
v 0.03721781 -0.02455788 0.01347353
v 0.03721781 -0.02455788 0.01347353
v 0.03721781 -0.02455788 0.01347353
v 0.03721781 -0.02455788 0.01347353
v 0.03721781 -0.02455788 0.01347353
v 0.03721417 -0.02614340 0.01188717
v 0.03721417 -0.02614340 0.01188717
v 0.03721781 -0.02614340 0.01664627
v 0.03721781 -0.02614340 0.01664627
v 0.03721781 -0.02614340 0.01664627
v 0.03721781 -0.02614340 0.01664627
v 0.03721781 -0.02614340 0.01664627
v 0.03721781 -0.02614340 0.01664627
v 0.03721781 -0.02614340 0.01664627
v 0.03720689 -0.02772893 0.01188717
v 0.03720689 -0.02772893 0.01188717
v 0.03720689 -0.02772893 0.01188717
v 0.03720689 -0.02772893 0.01188717
v 0.03692662 -0.03089676 0.01505990
v 0.03692662 -0.03089676 0.01505990
v 0.03692662 -0.03089676 0.01505990
v 0.03692662 -0.03089676 0.01505990
v 0.03721053 -0.02772893 0.03724104
v 0.03721053 -0.02772893 0.03724104
v 0.03721053 -0.02772893 0.03724104
v 0.03721053 -0.02772893 0.03724104
v 0.03721053 -0.02772893 0.03724104
v 0.03717777 -0.02931123 0.06099923
v 0.03717777 -0.02931123 0.06099923
v 0.03717777 -0.02931123 0.06099923
v 0.03717777 -0.02931123 0.06099923
v 0.03693754 -0.03089676 0.06417196
v 0.03693754 -0.03089676 0.06417196
v 0.03693754 -0.03089676 0.06417196
v 0.03693754 -0.03089676 0.06417196
v 0.03693754 -0.03089676 0.06417196
v 0.03693754 -0.03089676 0.06417196
v 0.03693754 -0.03089676 0.06417196
v 0.03693754 -0.03089676 0.06417196
v 0.03693754 -0.03089676 0.06417196
v 0.03693754 -0.03089676 0.06417196
v 0.03658082 -0.03185387 0.01505990
v 0.03658082 -0.03185387 0.01505990
v 0.03658082 -0.03185387 0.01505990
v 0.03658082 -0.03185387 0.01505990
v 0.03658082 -0.03185387 0.01505990
v 0.03658082 -0.03185387 0.01505990
v 0.03658082 -0.03185387 0.01505990
v 0.03658082 -0.03185387 0.01505990
v 0.03564900 -0.03241783 0.01505990
v 0.03564900 -0.03241783 0.01505990
v 0.03564900 -0.03241783 0.01505990
v 0.03564900 -0.03241783 0.01505990
v 0.03564900 -0.03241783 0.01505990
v 0.03564900 -0.03241783 0.01505990
v 0.03406563 -0.03290767 0.00872376
v 0.03406563 -0.03290767 0.00872376
v 0.03406563 -0.03290767 0.00872376
v 0.03406563 -0.03290767 0.00872376
v 0.03248225 -0.03303013 0.01030080
v 0.03248225 -0.03303013 0.01030080
v 0.03248225 -0.03303013 0.01030080
v 0.03248225 -0.03303013 0.01030080
v 0.03248225 -0.03303013 0.01030080
v 0.03248225 -0.03303013 0.01030080
v 0.03248225 -0.03303013 0.01030080
v 0.03248225 -0.03302691 0.00713740
v 0.03248225 -0.03302691 0.00713740
v 0.03248225 -0.03302691 0.00713740
v 0.03248225 -0.03302691 0.00713740
v 0.03089524 -0.03306558 0.02456877
v 0.03089524 -0.03306558 0.02456877
v 0.03089524 -0.03306558 0.02456877
v 0.03089524 -0.03306558 0.02456877
v 0.03089524 -0.03306558 0.02456877
v 0.03089524 -0.03306558 0.02456877
v 0.02772849 -0.03307525 0.01980967
v 0.02772849 -0.03307525 0.01980967
v 0.02772849 -0.03307525 0.01980967
v 0.02772849 -0.03307525 0.01980967
v 0.02772849 -0.03307525 0.01980967
v 0.02931187 -0.03307525 0.05941286
v 0.02931187 -0.03307525 0.05941286
v 0.02931187 -0.03307525 0.05941286
v 0.02931187 -0.03307525 0.05941286
v 0.02614148 -0.03307525 0.01980967
v 0.02614148 -0.03307525 0.01980967
v 0.02614148 -0.03307525 0.01980967
v 0.02614148 -0.03307525 0.01980967
v 0.00003585 -0.03307202 0.01113131
v 0.00003585 -0.03307202 0.01113131
v 0.00003585 -0.03307202 0.01113131
v 0.00003585 -0.03307202 0.01113131
v 0.00003585 -0.02056184 0.09362240
v 0.00003585 -0.02056184 0.09362240
v 0.00003585 -0.02056184 0.09362240
v 0.01822462 -0.00079434 0.09466753
v 0.01822462 -0.00079434 0.09466753
v 0.01822462 -0.00079434 0.09466753
v 0.03248225 -0.00015626 0.09471419
v 0.03248225 -0.00015626 0.09471419
v 0.03248225 -0.00015626 0.09471419
v 0.03248225 -0.00015626 0.09471419
v 0.03248225 -0.00015626 0.09471419
v 0.03248225 -0.00015626 0.09471419
v 0.00003585 -0.02214414 0.09355708
v 0.00003585 -0.02214414 0.09355708
v 0.00003585 -0.02214414 0.09355708
v 0.00003585 -0.02531520 0.09341711
v 0.00003585 -0.02531520 0.09341711
v 0.00003585 -0.02531520 0.09341711
v 0.00003585 -0.02848302 0.09327713
v 0.00003585 -0.02848302 0.09327713
v 0.00003585 -0.02848302 0.09327713
v 0.00003585 -0.02931123 0.09323981
v 0.00003585 -0.02931123 0.09323981
v 0.00003585 -0.02931123 0.09323981
v 0.00003585 -0.02931123 0.09323981
v 0.00003585 -0.02931123 0.09323981
v 0.00003585 -0.02931123 0.09323981
v 0.00003585 -0.02931123 0.09323981
v 0.03721417 -0.00015626 0.03153946
v 0.03721417 -0.00015626 0.03153946
v 0.03721417 -0.00015626 0.03153946
v 0.03721417 -0.00015626 0.03153946
v 0.03721417 -0.00015626 0.03153946
v 0.03721781 -0.01821900 0.01664627
v 0.03721781 -0.01821900 0.01664627
v 0.03721781 -0.01821900 0.01664627
v 0.03721781 -0.01821900 0.01664627
v 0.03721781 -0.01821900 0.01664627
v 0.03722145 -0.02297558 0.04674992
v 0.03722145 -0.02297558 0.04674992
v 0.03722145 -0.02297558 0.04674992
v 0.03722145 -0.02297558 0.04674992
v 0.03722145 -0.02297558 0.04674992
v 0.03722145 -0.02297558 0.04674992
v 0.03722145 -0.02297558 0.04674992
v 0.03722145 -0.02297558 0.04674992
v 0.03722145 -0.02297558 0.04674992
v 0.03722145 -0.02297558 0.04674992
v 0.03721781 -0.02614340 0.06733536
v 0.03721781 -0.02614340 0.06733536
v 0.03721781 -0.02614340 0.06733536
v 0.03721781 -0.02614340 0.06733536
v 0.03721781 -0.02614340 0.06733536
v 0.03721781 -0.02614340 0.06733536
v 0.03721053 -0.02772893 0.04357718
v 0.03721053 -0.02772893 0.04357718
v 0.03721053 -0.02772893 0.04357718
v 0.03721053 -0.02772893 0.04357718
v 0.03717777 -0.02931123 0.06417196
v 0.03717777 -0.02931123 0.06417196
v 0.03717777 -0.02931123 0.06417196
v 0.03717777 -0.02931123 0.06417196
v 0.03717777 -0.02931123 0.06417196
v 0.03717413 -0.02931123 0.07209446
v 0.03717413 -0.02931123 0.07209446
v 0.03717413 -0.02931123 0.07209446
v 0.03717413 -0.02931123 0.07209446
v 0.03717413 -0.02931123 0.07209446
v 0.03717413 -0.02931123 0.07209446
v 0.03693390 -0.03089676 0.06733536
v 0.03693390 -0.03089676 0.06733536
v 0.03693390 -0.03089676 0.06733536
v 0.03693390 -0.03089676 0.06733536
v 0.03693390 -0.03089676 0.06733536
v 0.03658082 -0.03185387 0.06733536
v 0.03658082 -0.03185387 0.06733536
v 0.03658082 -0.03185387 0.06733536
v 0.03658082 -0.03185387 0.06733536
v 0.03658082 -0.03185387 0.06733536
v 0.03658082 -0.03185387 0.06733536
v 0.03658082 -0.03185387 0.06733536
v 0.03658446 -0.03186032 0.05782649
v 0.03658446 -0.03186032 0.05782649
v 0.03658446 -0.03186032 0.05782649
v 0.03658446 -0.03186032 0.05782649
v 0.03658446 -0.03186032 0.05782649
v 0.03658446 -0.03186032 0.05624946
v 0.03658446 -0.03186032 0.05624946
v 0.03658446 -0.03186032 0.05624946
v 0.03658446 -0.03186032 0.05624946
v 0.03564900 -0.03243717 0.06258559
v 0.03564900 -0.03243717 0.06258559
v 0.03564900 -0.03243717 0.06258559
v 0.03564900 -0.03243717 0.06258559
v 0.03564900 -0.03243717 0.06258559
v 0.03564900 -0.03243717 0.06258559
v 0.03406563 -0.03291411 0.01664627
v 0.03406563 -0.03291411 0.01664627
v 0.03406563 -0.03291411 0.01664627
v 0.03406563 -0.03291411 0.01664627
v 0.03406563 -0.03291411 0.01664627
v 0.03406563 -0.03292700 0.06417196
v 0.03406563 -0.03292700 0.06417196
v 0.03406563 -0.03292700 0.06417196
v 0.03406563 -0.03292700 0.06417196
v 0.03406563 -0.03292700 0.06417196
v 0.03406563 -0.03292700 0.06417196
v 0.03406563 -0.03292700 0.06417196
v 0.03248225 -0.03303335 0.05782649
v 0.03248225 -0.03303335 0.05782649
v 0.03248225 -0.03303335 0.05782649
v 0.03248225 -0.03303335 0.05782649
v 0.03248225 -0.03303335 0.05782649
v 0.03089524 -0.03306558 0.06099923
v 0.03089524 -0.03306558 0.06099923
v 0.03089524 -0.03306558 0.06099923
v 0.03089524 -0.03306558 0.06099923
v 0.03089524 -0.03306558 0.06099923
v 0.00079296 -0.03307847 0.06574900
v 0.00079296 -0.03307847 0.06574900
v 0.00079296 -0.03307847 0.06574900
v 0.02931187 -0.03307525 0.06099923
v 0.02931187 -0.03307525 0.06099923
v 0.02931187 -0.03307525 0.06099923
v 0.02931187 -0.03307525 0.06099923
v 0.00003585 -0.03307847 0.06574900
v 0.00003585 -0.03307847 0.06574900
v 0.00003585 -0.03307847 0.06574900
v 0.00003585 -0.03307525 0.02773218
v 0.00003585 -0.03307525 0.02773218
v 0.00003585 -0.03307525 0.02773218
v 0.03406563 -0.00871552 0.09428494
v 0.03406563 -0.00871552 0.09428494
v 0.03406563 -0.00871552 0.09428494
v 0.03406563 -0.00871552 0.09428494
v 0.03406563 -0.00871552 0.09428494
v 0.03406563 -0.00871552 0.09428494
v 0.03406563 -0.00554769 0.09444358
v 0.03406563 -0.00554769 0.09444358
v 0.03406563 -0.00554769 0.09444358
v 0.03406563 -0.00554769 0.09444358
v 0.03406563 -0.00554769 0.09444358
v 0.03311560 -0.00015626 0.09470486
v 0.03311560 -0.00015626 0.09470486
v 0.03311560 -0.00015626 0.09470486
v 0.00003585 -0.03089676 0.09312783
v 0.00003585 -0.03089676 0.09312783
v 0.00003585 -0.03089676 0.09312783
v 0.02614148 -0.02931123 0.09323981
v 0.02614148 -0.02931123 0.09323981
v 0.02614148 -0.02931123 0.09323981
v 0.02614148 -0.02931123 0.09323981
v 0.03721781 -0.01663670 0.01980967
v 0.03721781 -0.01663670 0.01980967
v 0.03721781 -0.01663670 0.01980967
v 0.03721417 -0.00015626 0.07525787
v 0.03721417 -0.00015626 0.07525787
v 0.03721417 -0.00015626 0.07525787
v 0.03721417 -0.00015626 0.07525787
v 0.03721417 -0.00015626 0.07525787
v 0.03721417 -0.00015626 0.07525787
v 0.03721781 -0.01188657 0.06733536
v 0.03721781 -0.01188657 0.06733536
v 0.03721781 -0.01188657 0.06733536
v 0.03721781 -0.01505440 0.07209446
v 0.03721781 -0.01505440 0.07209446
v 0.03721781 -0.01505440 0.07209446
v 0.03721781 -0.01821900 0.07367150
v 0.03721781 -0.01821900 0.07367150
v 0.03721781 -0.01821900 0.07367150
v 0.03721781 -0.01821900 0.07367150
v 0.03721781 -0.02455788 0.07367150
v 0.03721781 -0.02455788 0.07367150
v 0.03721781 -0.02455788 0.07367150
v 0.03721781 -0.02455788 0.07367150
v 0.03721417 -0.02614340 0.07525787
v 0.03721417 -0.02614340 0.07525787
v 0.03721417 -0.02614340 0.07525787
v 0.03721417 -0.02614340 0.07525787
v 0.03721417 -0.02614340 0.07525787
v 0.03721417 -0.02614340 0.07525787
v 0.03720689 -0.02772893 0.07367150
v 0.03720689 -0.02772893 0.07367150
v 0.03720689 -0.02772893 0.07367150
v 0.03720689 -0.02772893 0.07367150
v 0.03720689 -0.02772893 0.07367150
v 0.03720689 -0.02772893 0.07367150
v 0.03720325 -0.02772893 0.07525787
v 0.03720325 -0.02772893 0.07525787
v 0.03720325 -0.02772893 0.07525787
v 0.03720325 -0.02772893 0.07525787
v 0.03717049 -0.02931123 0.07367150
v 0.03717049 -0.02931123 0.07367150
v 0.03717049 -0.02931123 0.07367150
v 0.03717049 -0.02931123 0.07367150
v 0.03691570 -0.03089676 0.07525787
v 0.03691570 -0.03089676 0.07525787
v 0.03691570 -0.03089676 0.07525787
v 0.03691570 -0.03089676 0.07525787
v 0.03691570 -0.03089676 0.07525787
v 0.03691570 -0.03089676 0.07525787
v 0.03693025 -0.03089676 0.06892173
v 0.03693025 -0.03089676 0.06892173
v 0.03656990 -0.03184421 0.07684423
v 0.03656990 -0.03184421 0.07684423
v 0.03656990 -0.03184421 0.07684423
v 0.03656990 -0.03184421 0.07684423
v 0.03656990 -0.03184421 0.07684423
v 0.03656990 -0.03184421 0.07684423
v 0.03656990 -0.03184421 0.07684423
v 0.03656990 -0.03184421 0.07684423
v 0.03564900 -0.03243717 0.06417196
v 0.03564900 -0.03243717 0.06417196
v 0.03564900 -0.03243717 0.06417196
v 0.03564900 -0.03243717 0.06417196
v 0.03564900 -0.03243717 0.06417196
v 0.03564900 -0.03243717 0.06417196
v 0.03564900 -0.03243717 0.06417196
v 0.03564900 -0.03243717 0.06417196
v 0.03564900 -0.03243717 0.06417196
v 0.03658082 -0.03185710 0.06417196
v 0.03658082 -0.03185710 0.06417196
v 0.03658082 -0.03185710 0.06417196
v 0.03656990 -0.03184743 0.07525787
v 0.03656990 -0.03184743 0.07525787
v 0.03656990 -0.03184743 0.07525787
v 0.03406563 -0.03291411 0.07525787
v 0.03406563 -0.03291411 0.07525787
v 0.03406563 -0.03291411 0.07525787
v 0.03406563 -0.03291411 0.07525787
v 0.03248225 -0.03303013 0.07525787
v 0.03248225 -0.03303013 0.07525787
v 0.03248225 -0.03303013 0.07525787
v 0.03248225 -0.03303013 0.07525787
v 0.03248225 -0.03303013 0.07525787
v 0.03248225 -0.03303013 0.07525787
v 0.03089524 -0.03306235 0.07525787
v 0.03089524 -0.03306235 0.07525787
v 0.03089524 -0.03306235 0.07525787
v 0.03089524 -0.03306235 0.07525787
v 0.02772849 -0.03307525 0.07367150
v 0.02772849 -0.03307525 0.07367150
v 0.02772849 -0.03307525 0.07367150
v 0.02772849 -0.03307525 0.07367150
v 0.01347086 -0.03307525 0.07525787
v 0.01347086 -0.03307525 0.07525787
v 0.01347086 -0.03307525 0.07525787
v 0.01347086 -0.03307525 0.07525787
v 0.01347086 -0.03307525 0.07525787
v 0.02931187 -0.03307202 0.07525787
v 0.02931187 -0.03307202 0.07525787
v 0.02931187 -0.03307202 0.07525787
v 0.02931187 -0.03307202 0.07525787
v 0.02931187 -0.03307202 0.07525787
v 0.02931187 -0.03307202 0.07525787
v 0.02931187 -0.03307202 0.07525787
v 0.00003585 -0.03307525 0.07525787
v 0.00003585 -0.03307525 0.07525787
v 0.00003585 -0.03307525 0.07525787
v 0.03485913 -0.02377479 0.09348243
v 0.03485913 -0.02377479 0.09348243
v 0.03485913 -0.02377479 0.09348243
v 0.03485913 -0.02377479 0.09348243
v 0.03485913 -0.02377479 0.09348243
v 0.03485913 -0.02377479 0.09348243
v 0.03485913 -0.02377479 0.09348243
v 0.03485913 -0.02377479 0.09348243
v 0.03485913 -0.02377479 0.09348243
v 0.03248225 -0.02931123 0.09323047
v 0.03248225 -0.02931123 0.09323047
v 0.03248225 -0.02931123 0.09323047
v 0.03248225 -0.02931123 0.09323047
v 0.03248225 -0.02931123 0.09323047
v 0.03248225 -0.02931123 0.09323047
v 0.03406563 -0.00015626 0.09468620
v 0.03406563 -0.00015626 0.09468620
v 0.03406563 -0.00015626 0.09468620
v 0.03406563 -0.00015626 0.09468620
v 0.03406563 -0.00015626 0.09468620
v 0.03406563 -0.00015626 0.09468620
v 0.03406563 -0.00015626 0.09468620
v 0.03406563 -0.00015626 0.09468620
v 0.03406563 -0.00015626 0.09468620
v 0.03406563 -0.00015626 0.09468620
v 0.03406563 -0.00015626 0.09468620
v 0.03406563 -0.00015626 0.09468620
v 0.03089524 -0.03089676 0.09312783
v 0.03089524 -0.03089676 0.09312783
v 0.03089524 -0.03089676 0.09312783
v 0.03089524 -0.03089676 0.09312783
v 0.03089524 -0.03089676 0.09312783
v 0.03089524 -0.03089676 0.09312783
v 0.03089524 -0.03089676 0.09312783
v 0.03089524 -0.03089676 0.09312783
v 0.00003585 -0.03150261 0.09281989
v 0.00003585 -0.03150261 0.09281989
v 0.00003585 -0.03150261 0.09281989
v 0.00003585 -0.03150261 0.09281989
v 0.03720689 -0.00015626 0.07684423
v 0.03720689 -0.00015626 0.07684423
v 0.03720689 -0.00015626 0.07684423
v 0.03720689 -0.00015626 0.07684423
v 0.03721053 -0.01821900 0.07684423
v 0.03721053 -0.01821900 0.07684423
v 0.03721053 -0.01821900 0.07684423
v 0.03721053 -0.01821900 0.07684423
v 0.03721053 -0.01980453 0.07684423
v 0.03721053 -0.01980453 0.07684423
v 0.03721053 -0.01980453 0.07684423
v 0.03721053 -0.01980453 0.07684423
v 0.03720689 -0.02614340 0.07684423
v 0.03720689 -0.02614340 0.07684423
v 0.03720689 -0.02614340 0.07684423
v 0.03720689 -0.02614340 0.07684423
v 0.03720689 -0.02614340 0.07684423
v 0.03719597 -0.02772893 0.07684423
v 0.03719597 -0.02772893 0.07684423
v 0.03719597 -0.02772893 0.07684423
v 0.03719597 -0.02772893 0.07684423
v 0.03719597 -0.02772893 0.07684423
v 0.03719597 -0.02772893 0.07684423
v 0.03716321 -0.02931123 0.07525787
v 0.03716321 -0.02931123 0.07525787
v 0.03716321 -0.02931123 0.07525787
v 0.03716321 -0.02931123 0.07525787
v 0.03716321 -0.02931123 0.07525787
v 0.03690478 -0.03089676 0.07684423
v 0.03690478 -0.03089676 0.07684423
v 0.03690478 -0.03089676 0.07684423
v 0.03690478 -0.03089676 0.07684423
v 0.03690478 -0.03089676 0.07684423
v 0.03690478 -0.03089676 0.07684423
v 0.03690478 -0.03089676 0.07684423
v 0.03653714 -0.03180554 0.07843060
v 0.03653714 -0.03180554 0.07843060
v 0.03653714 -0.03180554 0.07843060
v 0.03653714 -0.03180554 0.07843060
v 0.03653714 -0.03180554 0.07843060
v 0.03653714 -0.03180554 0.07843060
v 0.03564900 -0.03235338 0.07843060
v 0.03564900 -0.03235338 0.07843060
v 0.03564900 -0.03235338 0.07843060
v 0.03564900 -0.03235338 0.07843060
v 0.03564900 -0.03241139 0.07684423
v 0.03564900 -0.03241139 0.07684423
v 0.03564900 -0.03241139 0.07684423
v 0.03564900 -0.03241139 0.07684423
v 0.03564900 -0.03241139 0.07684423
v 0.03564900 -0.03241139 0.07684423
v 0.03564900 -0.03241139 0.07684423
v 0.03406563 -0.03291089 0.07684423
v 0.03406563 -0.03291089 0.07684423
v 0.03406563 -0.03291089 0.07684423
v 0.03406563 -0.03291089 0.07684423
v 0.03406563 -0.03291089 0.07684423
v 0.03406563 -0.03291089 0.07684423
v 0.03248225 -0.03302691 0.07684423
v 0.03248225 -0.03302691 0.07684423
v 0.03248225 -0.03302691 0.07684423
v 0.03248225 -0.03302691 0.07684423
v 0.03248225 -0.03302691 0.07684423
v 0.03089524 -0.03305913 0.07684423
v 0.03089524 -0.03305913 0.07684423
v 0.03089524 -0.03305913 0.07684423
v 0.03089524 -0.03305913 0.07684423
v 0.03089524 -0.03305913 0.07684423
v 0.03089524 -0.03305913 0.07684423
v 0.02455811 -0.03306880 0.07684423
v 0.02455811 -0.03306880 0.07684423
v 0.02455811 -0.03306880 0.07684423
v 0.02455811 -0.03306880 0.07684423
v 0.02455811 -0.03306880 0.07684423
v 0.02455811 -0.03306880 0.07684423
v 0.02455811 -0.03306880 0.07684423
v 0.00079296 -0.03307202 0.07684423
v 0.00079296 -0.03307202 0.07684423
v 0.00079296 -0.03307202 0.07684423
v 0.00079296 -0.03307202 0.07684423
v 0.02931187 -0.03306558 0.07684423
v 0.02931187 -0.03306558 0.07684423
v 0.02931187 -0.03306558 0.07684423
v 0.02931187 -0.03306558 0.07684423
v 0.00003585 -0.03307202 0.07684423
v 0.00003585 -0.03307202 0.07684423
v 0.00003585 -0.03307202 0.07684423
v 0.03505569 -0.02139005 0.09354775
v 0.03505569 -0.02139005 0.09354775
v 0.03505569 -0.02139005 0.09354775
v 0.03505569 -0.02139005 0.09354775
v 0.03505569 -0.02139005 0.09354775
v 0.03406563 -0.02931123 0.09319314
v 0.03406563 -0.02931123 0.09319314
v 0.03406563 -0.02931123 0.09319314
v 0.03406563 -0.02931123 0.09319314
v 0.03406563 -0.03089676 0.09306251
v 0.03406563 -0.03089676 0.09306251
v 0.03406563 -0.03089676 0.09306251
v 0.03406563 -0.03089676 0.09306251
v 0.03406563 -0.03089676 0.09306251
v 0.03406563 -0.03089676 0.09306251
v 0.03406563 -0.03089676 0.09306251
v 0.03544516 -0.03089676 0.09245595
v 0.03544516 -0.03089676 0.09245595
v 0.03544516 -0.03089676 0.09245595
v 0.03544516 -0.03089676 0.09245595
v 0.03544516 -0.03089676 0.09245595
v 0.03544516 -0.03089676 0.09245595
v 0.03555072 -0.02931123 0.09253060
v 0.03555072 -0.02931123 0.09253060
v 0.03555072 -0.02931123 0.09253060
v 0.03555072 -0.02931123 0.09253060
v 0.03555072 -0.02931123 0.09253060
v 0.03555072 -0.02931123 0.09253060
v 0.03555072 -0.02931123 0.09253060
v 0.03555072 -0.02931123 0.09253060
v 0.03555072 -0.02931123 0.09253060
v 0.03248225 -0.03089676 0.09311849
v 0.03248225 -0.03089676 0.09311849
v 0.03248225 -0.03089676 0.09311849
v 0.03248225 -0.03089676 0.09311849
v 0.03248225 -0.03089676 0.09311849
v 0.03559440 -0.00015626 0.09407032
v 0.03559440 -0.00015626 0.09407032
v 0.03559440 -0.00015626 0.09407032
v 0.03559440 -0.00015626 0.09407032
v 0.03528500 -0.01821900 0.09363173
v 0.03528500 -0.01821900 0.09363173
v 0.03528500 -0.01821900 0.09363173
v 0.03528500 -0.01821900 0.09363173
v 0.03528500 -0.01821900 0.09363173
v 0.03528500 -0.01821900 0.09363173
v 0.03545608 -0.01505440 0.09371572
v 0.03545608 -0.01505440 0.09371572
v 0.03545608 -0.01505440 0.09371572
v 0.03545608 -0.01505440 0.09371572
v 0.03545608 -0.01505440 0.09371572
v 0.03545608 -0.01505440 0.09371572
v 0.03550704 -0.01346887 0.09376237
v 0.03550704 -0.01346887 0.09376237
v 0.03550704 -0.01346887 0.09376237
v 0.03550704 -0.01346887 0.09376237
v 0.03550704 -0.01346887 0.09376237
v 0.03555800 -0.01030104 0.09384636
v 0.03555800 -0.01030104 0.09384636
v 0.03555800 -0.01030104 0.09384636
v 0.03559076 -0.00871552 0.09388368
v 0.03559076 -0.00871552 0.09388368
v 0.03559076 -0.00871552 0.09388368
v 0.03559076 -0.00871552 0.09388368
v 0.03559076 -0.00871552 0.09388368
v 0.03559076 -0.00871552 0.09388368
v 0.03561988 -0.00237986 0.09401432
v 0.03561988 -0.00237986 0.09401432
v 0.03561988 -0.00237986 0.09401432
v 0.03561988 -0.00237986 0.09401432
v 0.03561260 -0.00079434 0.09405165
v 0.03561260 -0.00079434 0.09405165
v 0.03561260 -0.00079434 0.09405165
v 0.03561260 -0.00079434 0.09405165
v 0.02931187 -0.03216324 0.09247462
v 0.02931187 -0.03216324 0.09247462
v 0.02931187 -0.03216324 0.09247462
v 0.02931187 -0.03216324 0.09247462
v 0.02931187 -0.03216324 0.09247462
v 0.02931187 -0.03216324 0.09247462
v 0.03089524 -0.03215680 0.09247462
v 0.03089524 -0.03215680 0.09247462
v 0.03089524 -0.03215680 0.09247462
v 0.03089524 -0.03215680 0.09247462
v 0.03248225 -0.03214391 0.09247462
v 0.03248225 -0.03214391 0.09247462
v 0.03248225 -0.03214391 0.09247462
v 0.03248225 -0.03214391 0.09247462
v 0.03248225 -0.03214391 0.09247462
v 0.03248225 -0.03214391 0.09247462
v 0.03248225 -0.03214391 0.09247462
v 0.00003585 -0.03216324 0.09247462
v 0.00003585 -0.03216324 0.09247462
v 0.00003585 -0.03216324 0.09247462
v 0.03717049 -0.00015626 0.07843060
v 0.03717049 -0.00015626 0.07843060
v 0.03717049 -0.00015626 0.07843060
v 0.03717413 -0.01663670 0.07843060
v 0.03717413 -0.01663670 0.07843060
v 0.03717413 -0.01663670 0.07843060
v 0.03717413 -0.01663670 0.07843060
v 0.03717413 -0.01663670 0.07843060
v 0.03717413 -0.02297558 0.07843060
v 0.03717413 -0.02297558 0.07843060
v 0.03717413 -0.02297558 0.07843060
v 0.03717413 -0.02297558 0.07843060
v 0.03717413 -0.02297558 0.07843060
v 0.03717049 -0.02614340 0.07843060
v 0.03717049 -0.02614340 0.07843060
v 0.03717049 -0.02614340 0.07843060
v 0.03717049 -0.02614340 0.07843060
v 0.03717049 -0.02614340 0.07843060
v 0.03714865 -0.02931123 0.07684423
v 0.03714865 -0.02931123 0.07684423
v 0.03714865 -0.02931123 0.07684423
v 0.03714865 -0.02931123 0.07684423
v 0.03714865 -0.02931123 0.07684423
v 0.03715593 -0.02772893 0.07843060
v 0.03715593 -0.02772893 0.07843060
v 0.03715593 -0.02772893 0.07843060
v 0.03715593 -0.02772893 0.07843060
v 0.03715593 -0.02772893 0.07843060
v 0.03715593 -0.02772893 0.07843060
v 0.03710497 -0.02931123 0.07843060
v 0.03710497 -0.02931123 0.07843060
v 0.03710497 -0.02931123 0.07843060
v 0.03710497 -0.02931123 0.07843060
v 0.03710497 -0.02931123 0.07843060
v 0.03710497 -0.02931123 0.07843060
v 0.03710497 -0.02931123 0.07843060
v 0.03685018 -0.03089676 0.07843060
v 0.03685018 -0.03089676 0.07843060
v 0.03685018 -0.03089676 0.07843060
v 0.03685018 -0.03089676 0.07843060
v 0.03685018 -0.03089676 0.07843060
v 0.03685018 -0.03089676 0.07843060
v 0.03646798 -0.03171853 0.08127673
v 0.03646798 -0.03171853 0.08127673
v 0.03646798 -0.03171853 0.08127673
v 0.03646798 -0.03171853 0.08127673
v 0.03534688 -0.03202468 0.09110287
v 0.03534688 -0.03202468 0.09110287
v 0.03534688 -0.03202468 0.09110287
v 0.03534688 -0.03202468 0.09110287
v 0.03534688 -0.03202468 0.09110287
v 0.03534688 -0.03202468 0.09110287
v 0.03534688 -0.03202468 0.09110287
v 0.03534688 -0.03202468 0.09110287
v 0.03534688 -0.03202468 0.09110287
v 0.03534688 -0.03202468 0.09110287
v 0.03406563 -0.03247584 0.09110287
v 0.03406563 -0.03247584 0.09110287
v 0.03406563 -0.03247584 0.09110287
v 0.03406563 -0.03247584 0.09110287
v 0.03406563 -0.03247584 0.09110287
v 0.03406563 -0.03247584 0.09110287
v 0.03406563 -0.03287867 0.07843060
v 0.03406563 -0.03287867 0.07843060
v 0.03406563 -0.03287867 0.07843060
v 0.03406563 -0.03287867 0.07843060
v 0.03406563 -0.03287867 0.07843060
v 0.03406563 -0.03287867 0.07843060
v 0.03248225 -0.03300112 0.07843060
v 0.03248225 -0.03300112 0.07843060
v 0.03248225 -0.03300112 0.07843060
v 0.03248225 -0.03300112 0.07843060
v 0.03248225 -0.03300112 0.07843060
v 0.03248225 -0.03300112 0.07843060
v 0.03089524 -0.03303657 0.07843060
v 0.03089524 -0.03303657 0.07843060
v 0.03089524 -0.03303657 0.07843060
v 0.03089524 -0.03303657 0.07843060
v 0.03089524 -0.03303657 0.07843060
v 0.02931187 -0.03304624 0.07843060
v 0.02931187 -0.03304624 0.07843060
v 0.02931187 -0.03304624 0.07843060
v 0.02931187 -0.03304624 0.07843060
v 0.02931187 -0.03304624 0.07843060
v 0.02931187 -0.03304624 0.07843060
v 0.02931187 -0.03304624 0.07843060
v 0.00079296 -0.03305269 0.07843060
v 0.00079296 -0.03305269 0.07843060
v 0.00079296 -0.03305269 0.07843060
v 0.00079296 -0.03305269 0.07843060
v 0.00079296 -0.03305269 0.07843060
v 0.00079296 -0.03305269 0.07843060
v 0.00003585 -0.03306235 0.07767474
v 0.00003585 -0.03306235 0.07767474
v 0.00003585 -0.03306235 0.07767474
v 0.00003585 -0.03306235 0.07767474
v 0.00003585 -0.03306235 0.07767474
v 0.03517945 -0.01980453 0.09358507
v 0.03517945 -0.01980453 0.09358507
v 0.03517945 -0.01980453 0.09358507
v 0.03406563 -0.03207624 0.09243729
v 0.03406563 -0.03207624 0.09243729
v 0.03406563 -0.03207624 0.09243729
v 0.03406563 -0.03207624 0.09243729
v 0.03406563 -0.03207624 0.09243729
v 0.03519037 -0.03191188 0.09223199
v 0.03519037 -0.03191188 0.09223199
v 0.03519037 -0.03191188 0.09223199
v 0.03519037 -0.03191188 0.09223199
v 0.03519037 -0.03191188 0.09223199
v 0.03519037 -0.03191188 0.09223199
v 0.03615131 -0.03079686 0.09106554
v 0.03615131 -0.03079686 0.09106554
v 0.03615131 -0.03079686 0.09106554
v 0.03615131 -0.03079686 0.09106554
v 0.03615131 -0.03079686 0.09106554
v 0.03615131 -0.03079686 0.09106554
v 0.03615131 -0.03079686 0.09106554
v 0.03634422 -0.02931123 0.09149480
v 0.03634422 -0.02931123 0.09149480
v 0.03634422 -0.02931123 0.09149480
v 0.03634422 -0.02931123 0.09149480
v 0.03634422 -0.02931123 0.09149480
v 0.03634422 -0.02931123 0.09149480
v 0.03634422 -0.02931123 0.09149480
v 0.03638427 -0.00871552 0.09317449
v 0.03638427 -0.00871552 0.09317449
v 0.03638427 -0.00871552 0.09317449
v 0.03638427 -0.00871552 0.09317449
v 0.03638427 -0.00871552 0.09317449
v 0.03638427 -0.00871552 0.09317449
v 0.03638427 -0.00871552 0.09317449
v 0.03638427 -0.00871552 0.09317449
v 0.03537600 -0.01663670 0.09366906
v 0.03537600 -0.01663670 0.09366906
v 0.03537600 -0.01663670 0.09366906
v 0.03641339 -0.00237986 0.09332379
v 0.03641339 -0.00237986 0.09332379
v 0.03641339 -0.00237986 0.09332379
v 0.03641339 -0.00237986 0.09332379
v 0.03641339 -0.00237986 0.09332379
v 0.03641339 -0.00237986 0.09332379
v 0.03641339 -0.00237986 0.09332379
v 0.03641339 -0.00237986 0.09332379
v 0.03641339 -0.00237986 0.09332379
v 0.03641339 -0.00237986 0.09332379
v 0.03641339 -0.00237986 0.09332379
v 0.03606759 -0.00015626 0.09361307
v 0.03606759 -0.00015626 0.09361307
v 0.03606759 -0.00015626 0.09361307
v 0.03606759 -0.00015626 0.09361307
v 0.00003585 -0.03239850 0.09182141
v 0.00003585 -0.03239850 0.09182141
v 0.00003585 -0.03239850 0.09182141
v 0.00003585 -0.03239850 0.09182141
v 0.02931187 -0.03265631 0.09110287
v 0.02931187 -0.03265631 0.09110287
v 0.02931187 -0.03265631 0.09110287
v 0.02931187 -0.03265631 0.09110287
v 0.02931187 -0.03265631 0.09110287
v 0.02931187 -0.03265631 0.09110287
v 0.02931187 -0.03265631 0.09110287
v 0.02931187 -0.03265631 0.09110287
v 0.02931187 -0.03265631 0.09110287
v 0.03089524 -0.03264341 0.09110287
v 0.03089524 -0.03264341 0.09110287
v 0.03089524 -0.03264341 0.09110287
v 0.03089524 -0.03264341 0.09110287
v 0.03248225 -0.03261441 0.09110287
v 0.03248225 -0.03261441 0.09110287
v 0.03248225 -0.03261441 0.09110287
v 0.03248225 -0.03261441 0.09110287
v 0.03248225 -0.03261441 0.09110287
v 0.03248225 -0.03261441 0.09110287
v 0.03248225 -0.03261441 0.09110287
v 0.03710861 -0.00015626 0.08001697
v 0.03710861 -0.00015626 0.08001697
v 0.03710861 -0.00015626 0.08001697
v 0.03710861 -0.00015626 0.08001697
v 0.03710861 -0.00015626 0.08001697
v 0.03710861 -0.02297558 0.08001697
v 0.03710861 -0.02297558 0.08001697
v 0.03710861 -0.02297558 0.08001697
v 0.03710861 -0.02297558 0.08001697
v 0.03710497 -0.02614340 0.08001697
v 0.03710497 -0.02614340 0.08001697
v 0.03710497 -0.02614340 0.08001697
v 0.03710497 -0.02614340 0.08001697
v 0.03676282 -0.02772893 0.08793947
v 0.03676282 -0.02772893 0.08793947
v 0.03676282 -0.02772893 0.08793947
v 0.03676282 -0.02772893 0.08793947
v 0.03676282 -0.02772893 0.08793947
v 0.03672278 -0.02931123 0.08793947
v 0.03672278 -0.02931123 0.08793947
v 0.03672278 -0.02931123 0.08793947
v 0.03672278 -0.02931123 0.08793947
v 0.03672278 -0.02931123 0.08793947
v 0.03672278 -0.02931123 0.08793947
v 0.03652258 -0.03033603 0.08952584
v 0.03652258 -0.03033603 0.08952584
v 0.03652258 -0.03033603 0.08952584
v 0.03652258 -0.03033603 0.08952584
v 0.03652258 -0.03033603 0.08952584
v 0.03652258 -0.03033603 0.08952584
v 0.03652258 -0.03033603 0.08952584
v 0.03652258 -0.03033603 0.08952584
v 0.03652258 -0.03033603 0.08952584
v 0.03656626 -0.03046815 0.08793947
v 0.03656626 -0.03046815 0.08793947
v 0.03656626 -0.03046815 0.08793947
v 0.03656626 -0.03046815 0.08793947
v 0.03643886 -0.03167985 0.08233120
v 0.03643886 -0.03167985 0.08233120
v 0.03643886 -0.03167985 0.08233120
v 0.03643886 -0.03167985 0.08233120
v 0.03643886 -0.03167985 0.08233120
v 0.03643886 -0.03167985 0.08233120
v 0.03621683 -0.03126091 0.08793947
v 0.03621683 -0.03126091 0.08793947
v 0.03621683 -0.03126091 0.08793947
v 0.03621683 -0.03126091 0.08793947
v 0.03615495 -0.03112879 0.08952584
v 0.03615495 -0.03112879 0.08952584
v 0.03615495 -0.03112879 0.08952584
v 0.03615495 -0.03112879 0.08952584
v 0.03248225 -0.03290445 0.08160334
v 0.03248225 -0.03290445 0.08160334
v 0.03248225 -0.03290445 0.08160334
v 0.03248225 -0.03290445 0.08160334
v 0.03089524 -0.03299146 0.08001697
v 0.03089524 -0.03299146 0.08001697
v 0.03089524 -0.03299146 0.08001697
v 0.03089524 -0.03299146 0.08001697
v 0.02931187 -0.03300112 0.08001697
v 0.02931187 -0.03300112 0.08001697
v 0.02931187 -0.03300112 0.08001697
v 0.02931187 -0.03300112 0.08001697
v 0.02931187 -0.03300112 0.08001697
v 0.02772849 -0.03300435 0.08001697
v 0.02772849 -0.03300435 0.08001697
v 0.02772849 -0.03300435 0.08001697
v 0.02772849 -0.03300435 0.08001697
v 0.02772849 -0.03300435 0.08001697
v 0.00003585 -0.03305269 0.07843060
v 0.00003585 -0.03305269 0.07843060
v 0.00003585 -0.03305269 0.07843060
v 0.00396334 -0.03300757 0.08001697
v 0.00396334 -0.03300757 0.08001697
v 0.00396334 -0.03300757 0.08001697
v 0.00396334 -0.03300757 0.08001697
v 0.03647526 -0.03020068 0.09050565
v 0.03647526 -0.03020068 0.09050565
v 0.03647526 -0.03020068 0.09050565
v 0.03647526 -0.03020068 0.09050565
v 0.03647526 -0.03020068 0.09050565
v 0.03651894 -0.02931123 0.09070162
v 0.03651894 -0.02931123 0.09070162
v 0.03651894 -0.02931123 0.09070162
v 0.03651894 -0.02931123 0.09070162
v 0.03651894 -0.02931123 0.09070162
v 0.03654806 -0.02772893 0.09079493
v 0.03654806 -0.02772893 0.09079493
v 0.03654806 -0.02772893 0.09079493
v 0.03654806 -0.02772893 0.09079493
v 0.03654806 -0.02772893 0.09079493
v 0.03649347 -0.00871552 0.09238130
v 0.03649347 -0.00871552 0.09238130
v 0.03649347 -0.00871552 0.09238130
v 0.03649347 -0.00871552 0.09238130
v 0.03649347 -0.00871552 0.09238130
v 0.03650802 -0.00237986 0.09253060
v 0.03650802 -0.00237986 0.09253060
v 0.03650802 -0.00237986 0.09253060
v 0.03650802 -0.00237986 0.09253060
v 0.03651166 -0.00079434 0.09249328
v 0.03651166 -0.00079434 0.09249328
v 0.03651166 -0.00079434 0.09249328
v 0.03651166 -0.00079434 0.09249328
v 0.03651166 -0.00079434 0.09249328
v 0.03651166 -0.00079434 0.09249328
v 0.03640611 -0.00079434 0.09328646
v 0.03640611 -0.00079434 0.09328646
v 0.03640611 -0.00079434 0.09328646
v 0.03640611 -0.00079434 0.09328646
v 0.03640611 -0.00079434 0.09328646
v 0.03640611 -0.00079434 0.09328646
v 0.03651530 -0.00554769 0.09236264
v 0.03651530 -0.00554769 0.09236264
v 0.03651530 -0.00554769 0.09236264
v 0.03651530 -0.00554769 0.09236264
v 0.03651530 -0.00554769 0.09236264
v 0.03651530 -0.00554769 0.09236264
v 0.03638427 -0.00015626 0.09322114
v 0.03638427 -0.00015626 0.09322114
v 0.03638427 -0.00015626 0.09322114
v 0.00003585 -0.03265631 0.09110287
v 0.00003585 -0.03265631 0.09110287
v 0.00003585 -0.03265631 0.09110287
v 0.03089524 -0.03294312 0.08160334
v 0.03089524 -0.03294312 0.08160334
v 0.03089524 -0.03294312 0.08160334
v 0.03089524 -0.03294312 0.08160334
v 0.03089524 -0.03294312 0.08160334
v 0.03089524 -0.03294312 0.08160334
v 0.03669366 -0.00015626 0.08952584
v 0.03669366 -0.00015626 0.08952584
v 0.03669366 -0.00015626 0.08952584
v 0.03669366 -0.00015626 0.08952584
v 0.03669366 -0.00015626 0.08952584
v 0.03677010 -0.02455788 0.08793947
v 0.03677010 -0.02455788 0.08793947
v 0.03677010 -0.02455788 0.08793947
v 0.03677010 -0.02455788 0.08793947
v 0.03677010 -0.02614340 0.08793947
v 0.03677010 -0.02614340 0.08793947
v 0.03677010 -0.02614340 0.08793947
v 0.03677010 -0.02614340 0.08793947
v 0.03677010 -0.02614340 0.08793947
v 0.03669366 -0.02772893 0.08952584
v 0.03669366 -0.02772893 0.08952584
v 0.03669366 -0.02772893 0.08952584
v 0.03669366 -0.02772893 0.08952584
v 0.03669366 -0.02772893 0.08952584
v 0.03669366 -0.02772893 0.08952584
v 0.03669366 -0.02772893 0.08952584
v 0.03669366 -0.02772893 0.08952584
v 0.03664270 -0.02931123 0.08952584
v 0.03664270 -0.02931123 0.08952584
v 0.03664270 -0.02931123 0.08952584
v 0.03664270 -0.02931123 0.08952584
v 0.03664270 -0.02931123 0.08952584
v 0.00003585 -0.03300757 0.08001697
v 0.00003585 -0.03300757 0.08001697
v 0.00003585 -0.03300757 0.08001697
v 0.03662450 -0.00554769 0.09110287
v 0.03662450 -0.00554769 0.09110287
v 0.03662450 -0.00554769 0.09110287
v 0.03662450 -0.00554769 0.09110287
v 0.03662450 -0.00554769 0.09110287
v 0.03662450 -0.00554769 0.09110287
v 0.03662450 -0.00554769 0.09110287
v 0.03662086 -0.00015626 0.09110287
v 0.03662086 -0.00015626 0.09110287
v 0.03662086 -0.00015626 0.09110287
v 0.03662086 -0.00015626 0.09110287
v 0.03651166 -0.00015626 0.09242796
v 0.03651166 -0.00015626 0.09242796
v 0.03651166 -0.00015626 0.09242796
v 0.03651166 -0.00015626 0.09242796
v 0.03644615 -0.00015626 0.09290386
v 0.03644615 -0.00015626 0.09290386
v 0.03644615 -0.00015626 0.09290386
v 0.03670094 -0.02614340 0.08952584
v 0.03670094 -0.02614340 0.08952584
v 0.03670094 -0.02614340 0.08952584
v 0.03670094 -0.02614340 0.08952584
v 0.03670094 -0.02614340 0.08952584
v 0.03670094 -0.02614340 0.08952584
v 0.03666454 -0.00015626 0.09016038
v 0.03666454 -0.00015626 0.09016038
v 0.03666454 -0.00015626 0.09016038
f 5 10 18
f 4 17 23
f 3 22 27
f 2 26 38
f 1 37 42
f 7 43 124
f 7 124 212
f 7 212 228
f 7 228 329
f 7 329 420
f 7 420 416
f 7 416 518
f 7 518 643
f 7 643 774
f 7 774 771
f 7 771 902
f 7 902 1028
f 7 1028 1219
f 7 1219 1369
f 7 1369 1457
f 7 1457 1421
f 7 1421 1277
f 7 1277 1122
f 7 1122 941
f 7 941 791
f 7 791 671
f 7 671 664
f 7 664 661
f 7 661 658
f 7 658 646
f 7 646 522
f 7 522 424
f 7 424 333
f 7 333 231
f 7 231 127
f 7 127 46
f 6 45 11
f 9 48 12
f 8 44 125
f 8 125 232
f 8 232 334
f 8 334 425
f 8 425 523
f 8 523 650
f 8 650 786
f 8 786 918
f 8 918 1065
f 8 1065 1270
f 8 1270 1416
f 8 1416 1473
f 8 1473 1469
f 8 1469 1465
f 8 1465 1482
f 8 1482 1428
f 8 1428 1298
f 8 1298 1123
f 8 1123 942
f 8 942 799
f 8 799 672
f 8 672 537
f 8 537 429
f 8 429 338
f 8 338 239
f 8 239 236
f 8 236 128
f 8 128 47
f 15 49 51
f 16 52 56
f 14 55 62
f 13 61 21
f 20 60 67
f 19 66 25
f 24 65 32
f 28 73 78
f 36 79 39
f 33 68 83
f 35 84 89
f 34 88 96
f 31 94 103
f 30 100 108
f 29 107 76
f 40 82 117
f 41 119 122
f 50 129 53
f 54 130 57
f 58 131 133
f 59 134 63
f 64 135 70
f 71 136 140
f 72 141 145
f 69 144 157
f 69 157 85
f 77 150 80
f 75 106 153
f 74 152 148
f 81 151 116
f 87 158 162
f 86 161 91
f 90 167 97
f 93 163 173
f 92 172 169
f 99 168 181
f 98 180 190
f 95 186 104
f 105 187 194
f 102 191 202
f 101 200 111
f 110 198 208
f 109 206 156
f 120 210 123
f 112 149 154
f 114 155 204
f 115 205 216
f 113 214 220
f 118 224 226
f 121 227 211
f 126 230 235
f 132 237 137
f 138 238 240
f 139 241 142
f 143 242 146
f 147 243 247
f 147 247 160
f 159 246 250
f 159 250 165
f 166 251 255
f 164 254 177
f 171 174 262
f 170 261 185
f 178 256 267
f 176 264 274
f 175 273 263
f 184 260 272
f 183 271 280
f 182 277 285
f 179 283 189
f 188 281 195
f 197 282 288
f 196 286 296
f 193 293 302
f 192 301 203
f 201 298 307
f 199 306 209
f 207 305 218
f 217 304 397
f 217 397 313
f 215 310 317
f 213 315 219
f 221 321 323
f 222 325 327
f 223 328 225
f 229 332 234
f 233 331 337
f 245 339 342
f 244 341 347
f 244 347 249
f 248 346 253
f 252 345 354
f 252 354 259
f 258 352 361
f 257 360 268
f 266 357 367
f 265 366 275
f 270 365 373
f 269 372 279
f 278 369 291
f 276 289 284
f 292 370 376
f 290 374 384
f 287 382 297
f 295 380 390
f 294 386 394
f 294 394 303
f 300 392 400
f 299 399 308
f 312 396 495
f 312 495 405
f 311 402 508
f 311 508 408
f 309 407 316
f 314 406 506
f 314 506 512
f 314 512 409
f 318 410 413
f 320 415 418
f 319 417 322
f 324 419 326
f 330 423 336
f 335 422 428
f 340 430 436
f 340 436 344
f 343 435 439
f 343 439 350
f 351 440 447
f 349 445 454
f 348 452 356
f 355 449 460
f 353 459 362
f 359 456 470
f 358 468 368
f 363 377 371
f 364 465 379
f 378 464 474
f 375 473 385
f 383 471 480
f 381 478 391
f 389 477 487
f 388 482 491
f 387 490 395
f 393 489 401
f 398 488 617
f 398 617 496
f 404 493 503
f 403 501 509
f 412 513 516
f 411 515 414
f 421 521 427
f 426 520 531
f 431 534 438
f 434 539 543
f 432 541 545
f 433 547 536
f 437 532 442
f 443 533 552
f 441 551 448
f 446 550 557
f 444 556 453
f 453 556 561
f 451 559 568
f 450 566 463
f 455 571 469
f 462 565 574
f 461 573 580
f 458 578 589
f 457 588 572
f 467 569 598
f 466 596 475
f 472 594 481
f 479 592 604
f 476 603 486
f 485 602 609
f 484 606 615
f 484 615 620
f 483 619 492
f 498 618 611
f 497 610 625
f 494 622 504
f 499 630 507
f 502 621 634
f 500 633 631
f 505 628 638
f 505 638 511
f 510 637 640
f 514 642 517
f 519 645 530
f 524 648 655
f 529 644 657
f 528 656 660
f 527 659 663
f 526 662 670
f 525 669 649
f 535 546 553
f 540 676 681
f 538 677 542
f 544 678 689
f 544 689 549
f 548 687 554
f 555 688 564
f 550 562 557
f 558 576 567
f 563 682 696
f 560 694 701
f 560 701 577
f 570 586 599
f 575 698 705
f 575 705 581
f 579 703 591
f 590 702 710
f 587 709 717
f 583 714 724
f 582 722 728
f 584 729 732
f 585 733 597
f 595 730 738
f 593 737 605
f 600 743 608
f 601 736 744
f 607 741 616
f 614 740 748
f 613 746 756
f 612 754 626
f 624 752 759
f 623 757 767
f 623 767 635
f 629 632 764
f 627 763 770
f 627 770 636
f 632 765 764
f 636 770 772
f 639 773 641
f 647 668 654
f 651 776 781
f 652 782 787
f 653 667 780
f 665 790 931
f 665 931 792
f 666 793 775
f 675 798 680
f 673 802 683
f 674 691 797
f 679 796 690
f 683 802 805
f 686 806 808
f 686 808 813
f 684 812 817
f 685 818 697
f 695 816 824
f 693 821 830
f 692 829 700
f 699 827 706
f 704 826 712
f 711 825 832
f 711 832 838
f 708 835 842
f 707 841 846
f 707 846 716
f 715 845 852
f 713 851 723
f 719 862 864
f 721 866 727
f 720 850 869
f 718 868 861
f 726 865 863
f 725 860 739
f 725 739 731
f 735 856 751
f 734 749 742
f 750 855 872
f 747 871 879
f 745 877 755
f 753 876 761
f 760 875 883
f 758 881 899
f 758 899 768
f 764 765 885
f 762 884 888
f 762 888 900
f 762 900 769
f 766 896 887
f 779 905 784
f 777 794 912
f 778 915 903
f 783 919 788
f 785 906 920
f 789 939 930
f 795 933 913
f 800 945 948
f 801 949 953
f 801 953 823
f 801 823 815
f 801 815 811
f 804 814 810
f 803 809 807
f 822 952 958
f 819 957 964
f 819 964 833
f 820 834 828
f 831 962 969
f 831 969 837
f 836 966 844
f 843 965 975
f 840 971 854
f 839 852 845
f 853 970 980
f 849 978 986
f 847 984 992
f 848 993 859
f 848 859 867
f 858 988 999
f 857 997 873
f 870 995 1004
f 870 1004 878
f 874 1000 1009
f 874 1009 882
f 880 1007 898
f 886 894 892
f 891 893 1013
f 890 1011 1020
f 889 1018 1026
f 889 1026 901
f 897 1005 1024
f 895 1022 1016
f 907 1029 921
f 904 916 1034
f 908 1037 1041
f 909 1044 1046
f 910 1047 1051
f 911 1052 1032
f 914 937 1061
f 917 1062 1035
f 922 1030 1069
f 923 1070 1075
f 924 1076 1081
f 925 1082 1086
f 926 1087 1089
f 927 1090 1095
f 928 1096 1099
f 929 1100 1066
f 932 940 1106
f 934 1107 1109
f 935 1110 1113
f 936 1114 1060
f 938 1121 1105
f 943 1125 1129
f 944 1130 947
f 946 1128 1134
f 946 1134 950
f 951 1135 956
f 955 1133 1140
f 954 1139 963
f 960 1145 968
f 961 1138 1151
f 959 1150 1144
f 967 1142 976
f 974 1141 1154
f 973 1153 1164
f 972 1160 982
f 981 1159 1167
f 979 1165 1173
f 977 1172 985
f 983 1171 991
f 990 1170 1184
f 989 1182 1190
f 987 1189 998
f 996 1186 1196
f 994 1194 1003
f 1002 1191 1200
f 1001 1199 1010
f 1008 1198 1208
f 1006 1206 1025
f 1017 1023 1204
f 1014 1202 1212
f 1015 1213 1218
f 1012 1217 1021
f 1019 1215 1027
f 1031 1220 1071
f 1033 1053 1221
f 1036 1064 1039
f 1038 1063 1117
f 1040 1118 1223
f 1042 1227 1229
f 1043 1231 1045
f 1049 1233 1236
f 1050 1237 1243
f 1048 1241 1058
f 1059 1242 1252
f 1057 1251 1080
f 1056 1078 1258
f 1055 1257 1074
f 1054 1072 1222
f 1068 1263 1271
f 1067 1102 1262
f 1073 1256 1077
f 1079 1250 1085
f 1083 1091 1088
f 1084 1248 1093
f 1094 1249 1261
f 1092 1260 1098
f 1097 1259 1101
f 1104 1120 1276
f 1103 1275 1280
f 1108 1283 1111
f 1112 1285 1115
f 1115 1285 1287
f 1116 1289 1291
f 1119 1294 1224
f 1124 1302 1127
f 1126 1301 1306
f 1126 1306 1132
f 1131 1305 1310
f 1131 1310 1137
f 1136 1308 1149
f 1143 1148 1158
f 1149 1308 1315
f 1147 1312 1321
f 1146 1319 1157
f 1156 1316 1328
f 1155 1327 1334
f 1152 1333 1163
f 1162 1332 1340
f 1161 1339 1168
f 1166 1335 1174
f 1175 1336 1341
f 1176 1342 1345
f 1178 1346 1235
f 1177 1234 1232
f 1169 1230 1183
f 1181 1228 1226
f 1179 1225 1296
f 1180 1297 1188
f 1187 1295 1352
f 1185 1351 1195
f 1193 1350 1427
f 1193 1427 1356
f 1192 1355 1201
f 1197 1353 1360
f 1197 1360 1207
f 1205 1357 1365
f 1203 1364 1214
f 1209 1367 1216
f 1211 1362 1372
f 1210 1370 1455
f 1210 1455 1368
f 1240 1375 1244
f 1238 1347 1322
f 1239 1325 1374
f 1246 1376 1379
f 1247 1380 1385
f 1245 1384 1253
f 1254 1386 1389
f 1255 1390 1265
f 1269 1395 1400
f 1266 1399 1409
f 1264 1404 1272
f 1267 1391 1410
f 1268 1411 1394
f 1273 1405 1417
f 1274 1420 1279
f 1278 1419 1456
f 1278 1456 1371
f 1281 1373 1363
f 1282 1366 1358
f 1284 1359 1422
f 1286 1424 1288
f 1290 1425 1292
f 1293 1426 1349
f 1299 1432 1434
f 1300 1436 1439
f 1300 1439 1303
f 1304 1441 1309
f 1307 1440 1314
f 1313 1437 1479
f 1313 1479 1449
f 1311 1448 1320
f 1318 1447 1454
f 1317 1452 1330
f 1329 1450 1377
f 1323 1348 1343
f 1324 1344 1337
f 1326 1338 1331
f 1354 1423 1361
f 1378 1451 1381
f 1383 1453 1445
f 1382 1442 1387
f 1388 1443 1392
f 1393 1444 1412
f 1396 1415 1459
f 1397 1460 1402
f 1403 1461 1467
f 1401 1466 1472
f 1398 1471 1408
f 1407 1470 1475
f 1406 1474 1418
f 1413 1446 1476
f 1414 1477 1458
f 1429 1484 1463
f 1430 1464 1478
f 1431 1480 1433
f 1435 1481 1438
f 1462 1483 1468

