# https://github.com/mikedh/trimesh
v -0.03721968 0.02455759 0.04516559
v -0.03721968 0.02455759 0.04516559
v -0.03721968 0.02455759 0.04516559
v -0.03721968 0.02455759 0.04516559
v -0.03721968 0.02455759 0.04516559
v -0.03721968 0.02455759 0.04516559
v -0.03721968 0.02455759 0.04516559
v -0.03721968 0.02455759 0.04516559
v -0.03721603 0.02614466 0.01506017
v -0.03721603 0.02614466 0.01506017
v -0.03721603 0.02614466 0.01506017
v -0.03721603 0.02614466 0.01506017
v -0.03721603 0.02614466 0.01506017
v -0.03721603 0.02455759 0.01347268
v -0.03721603 0.02455759 0.01347268
v -0.03721603 0.02455759 0.01347268
v -0.03721603 0.02455759 0.01347268
v -0.03721603 0.02297377 0.01347268
v -0.03721603 0.02297377 0.01347268
v -0.03721603 0.02297377 0.01347268
v -0.03721603 0.02297377 0.01347268
v -0.03721603 0.02297377 0.01347268
v -0.03721603 0.01980615 0.01506017
v -0.03721603 0.01980615 0.01506017
v -0.03721603 0.01980615 0.01506017
v -0.03721603 0.01821908 0.01663820
v -0.03721603 0.01821908 0.01663820
v -0.03721603 0.01821908 0.01663820
v -0.03721603 0.01663526 0.01981316
v -0.03721239 -0.00014602 0.01758312
v -0.03721239 -0.00014602 0.01758312
v -0.03721239 -0.00014602 0.01758312
v -0.03721239 -0.00014602 0.01758312
v -0.03721603 -0.00014602 0.06575559
v -0.03721603 -0.00014602 0.06575559
v -0.03721603 -0.00014602 0.06575559
v -0.03721603 -0.00014602 0.07303154
v -0.03721603 -0.00014602 0.07303154
v -0.03721603 -0.00014602 0.07303154
v -0.03721603 -0.00014602 0.07303154
v -0.03721603 0.01980615 0.07526157
v -0.03721603 0.01980615 0.07526157
v -0.03721603 0.01980615 0.07526157
v -0.03721603 0.01980615 0.07526157
v -0.03721603 0.01980615 0.07526157
v -0.03721603 0.02455759 0.07526157
v -0.03721603 0.02455759 0.07526157
v -0.03721603 0.02455759 0.07526157
v -0.03721603 0.02455759 0.07526157
v -0.03721603 0.02455759 0.07526157
v -0.03721603 0.02614466 0.07209606
v -0.03721603 0.02614466 0.07209606
v -0.03721603 0.02614466 0.07209606
v -0.03721603 0.02614466 0.07209606
v -0.03721603 0.02614466 0.07209606
v -0.03721603 0.02614466 0.07209606
v -0.03720874 0.02772847 0.01347268
v -0.03720874 0.02772847 0.01347268
v -0.03720874 0.02772847 0.01347268
v -0.03720874 0.02772847 0.01347268
v -0.03720874 0.02772847 0.01347268
v -0.03720874 0.02772847 0.01347268
v -0.03721239 0.02614466 0.00871969
v -0.03721239 0.02614466 0.00871969
v -0.03721239 0.02614466 0.00871969
v -0.03721239 0.02614466 0.00871969
v -0.03721239 0.02614466 0.00871969
v -0.03721239 0.02614466 0.00871969
v -0.03721239 0.02455759 0.00713221
v -0.03721239 0.02455759 0.00713221
v -0.03721239 0.02455759 0.00713221
v -0.03721239 0.02455759 0.00713221
v -0.03721239 0.02297377 0.00713221
v -0.03721239 0.02297377 0.00713221
v -0.03721239 0.02297377 0.00713221
v -0.03721239 0.02297377 0.00713221
v -0.03721239 0.02297377 0.00713221
v -0.03721239 0.01821908 0.00871969
v -0.03720874 -0.00014602 0.00871969
v -0.03720874 -0.00014602 0.00871969
v -0.03720874 -0.00014602 0.00871969
v -0.03720874 -0.00014602 0.00871969
v -0.03721239 -0.00014602 0.07526157
v -0.03721239 -0.00014602 0.07526157
v -0.03721239 -0.00014602 0.07526157
v -0.03720874 -0.00014602 0.07619705
v -0.03720874 -0.00014602 0.07619705
v -0.03720874 -0.00014602 0.07619705
v -0.03720510 -0.00014602 0.07684905
v -0.03720510 -0.00014602 0.07684905
v -0.03720510 -0.00014602 0.07684905
v -0.03720510 -0.00014602 0.07684905
v -0.03720510 0.02455759 0.07684905
v -0.03720510 0.02455759 0.07684905
v -0.03720510 0.02455759 0.07684905
v -0.03720510 0.02455759 0.07684905
v -0.03720510 0.02455759 0.07684905
v -0.03720510 0.02455759 0.07684905
v -0.03721239 0.02614466 0.07526157
v -0.03721239 0.02614466 0.07526157
v -0.03721239 0.02614466 0.07526157
v -0.03721239 0.02614466 0.07526157
v -0.03720510 0.02772847 0.07526157
v -0.03720510 0.02772847 0.07526157
v -0.03720510 0.02772847 0.07526157
v -0.03720510 0.02772847 0.07526157
v -0.03720510 0.02772847 0.07526157
v -0.03720510 0.02772847 0.07526157
v -0.03720874 0.02772847 0.06892110
v -0.03720874 0.02772847 0.06892110
v -0.03720874 0.02772847 0.06892110
v -0.03720874 0.02772847 0.06892110
v -0.03717957 0.02931229 0.03565961
v -0.03717957 0.02931229 0.03565961
v -0.03717957 0.02931229 0.03565961
v -0.03717957 0.02931229 0.03565961
v -0.03717592 0.02931229 0.01981316
v -0.03717592 0.02931229 0.01981316
v -0.03717592 0.02931229 0.01981316
v -0.03717592 0.02931229 0.01981316
v -0.03717592 0.02931229 0.01981316
v -0.03720510 0.02772847 0.00871969
v -0.03720510 0.02772847 0.00871969
v -0.03720510 0.02772847 0.00871969
v -0.03720510 0.02772847 0.00871969
v -0.03720510 0.02772847 0.00871969
v -0.03720874 0.02614466 0.00555418
v -0.03720874 0.02614466 0.00555418
v -0.03720874 0.02614466 0.00555418
v -0.03720874 0.02614466 0.00555418
v -0.03720874 0.02455759 0.00396670
v -0.03720874 0.02455759 0.00396670
v -0.03720874 0.02455759 0.00396670
v -0.03720874 0.02455759 0.00396670
v -0.03720874 0.02455759 0.00396670
v -0.03720874 0.02455759 0.00396670
v -0.03720874 0.02297377 0.00396670
v -0.03720874 0.02297377 0.00396670
v -0.03720874 0.02297377 0.00396670
v -0.03720874 0.02297377 0.00396670
v -0.03720874 0.02297377 0.00396670
v -0.03720874 0.02297377 0.00396670
v -0.03720510 -0.00014602 0.00490218
v -0.03720510 -0.00014602 0.00490218
v -0.03720510 -0.00014602 0.00490218
v -0.03720510 -0.00014602 0.00490218
v -0.03718686 -0.00014602 0.07778453
v -0.03718686 -0.00014602 0.07778453
v -0.03718686 -0.00014602 0.07778453
v -0.03718686 -0.00014602 0.07778453
v -0.03717228 0.01980615 0.07842708
v -0.03717228 0.01980615 0.07842708
v -0.03717228 0.01980615 0.07842708
v -0.03717228 0.01980615 0.07842708
v -0.03717228 0.01980615 0.07842708
v -0.03716862 0.02614466 0.07842708
v -0.03716862 0.02614466 0.07842708
v -0.03716862 0.02614466 0.07842708
v -0.03716862 0.02614466 0.07842708
v -0.03716862 0.02614466 0.07842708
v -0.03716862 0.02614466 0.07842708
v -0.03716862 0.02614466 0.07842708
v -0.03716862 0.02614466 0.07842708
v -0.03720145 0.02614466 0.07684905
v -0.03720145 0.02614466 0.07684905
v -0.03720145 0.02614466 0.07684905
v -0.03720145 0.02614466 0.07684905
v -0.03719415 0.02772847 0.07684905
v -0.03719415 0.02772847 0.07684905
v -0.03719415 0.02772847 0.07684905
v -0.03719415 0.02772847 0.07684905
v -0.03719415 0.02772847 0.07684905
v -0.03719415 0.02772847 0.07684905
v -0.03719415 0.02772847 0.07684905
v -0.03716498 0.02931229 0.07526157
v -0.03716498 0.02931229 0.07526157
v -0.03716498 0.02931229 0.07526157
v -0.03716498 0.02931229 0.07526157
v -0.03716498 0.02931229 0.07526157
v -0.03716498 0.02931229 0.07526157
v -0.03717228 0.02931229 0.07209606
v -0.03717228 0.02931229 0.07209606
v -0.03717957 0.02931229 0.06892110
v -0.03717957 0.02931229 0.06892110
v -0.03717957 0.02931229 0.06892110
v -0.03717957 0.02931229 0.06892110
v -0.03717957 0.02931229 0.06892110
v -0.03717957 0.02931229 0.06892110
v -0.03717957 0.02931229 0.06892110
v -0.03690242 0.03089610 0.01030717
v -0.03690242 0.03089610 0.01030717
v -0.03690242 0.03089610 0.01030717
v -0.03690242 0.03089610 0.01030717
v -0.03690242 0.03089610 0.01030717
v -0.03690242 0.03089610 0.01030717
v -0.03690242 0.03089610 0.01030717
v -0.03690242 0.03089610 0.01030717
v -0.03716498 0.02931229 0.00871969
v -0.03716498 0.02931229 0.00871969
v -0.03716498 0.02931229 0.00871969
v -0.03716498 0.02931229 0.00871969
v -0.03716498 0.02931229 0.00871969
v -0.03720145 0.02772847 0.00555418
v -0.03720145 0.02772847 0.00555418
v -0.03720145 0.02772847 0.00555418
v -0.03720145 0.02772847 0.00555418
v -0.03720510 0.02614466 0.00396670
v -0.03720510 0.02614466 0.00396670
v -0.03720510 0.02614466 0.00396670
v -0.03720510 0.02614466 0.00396670
v -0.03717228 0.02614466 0.00237922
v -0.03717228 0.02614466 0.00237922
v -0.03717228 0.02614466 0.00237922
v -0.03717228 0.02614466 0.00237922
v -0.03717228 0.02614466 0.00237922
v -0.03717228 0.02614466 0.00237922
v -0.03717228 0.02614466 0.00237922
v -0.03717228 0.02614466 0.00237922
v -0.03717228 -0.00014602 0.00237922
v -0.03717228 -0.00014602 0.00237922
v -0.03717228 -0.00014602 0.00237922
v -0.03717228 -0.00014602 0.00237922
v -0.03717228 -0.00014602 0.00237922
v -0.03719051 -0.00014602 0.00332415
v -0.03719051 -0.00014602 0.00332415
v -0.03719051 -0.00014602 0.00332415
v -0.03720145 -0.00014602 0.00396670
v -0.03720145 -0.00014602 0.00396670
v -0.03720145 -0.00014602 0.00396670
v -0.03717228 -0.00014602 0.07842708
v -0.03717228 -0.00014602 0.07842708
v -0.03717228 -0.00014602 0.07842708
v -0.03717228 -0.00014602 0.07842708
v -0.03717228 -0.00014602 0.07842708
v -0.03711028 0.02138996 0.08001456
v -0.03711028 0.02138996 0.08001456
v -0.03711028 0.02138996 0.08001456
v -0.03711028 0.02138996 0.08001456
v -0.03711028 0.02138996 0.08001456
v -0.03710663 0.02614466 0.08001456
v -0.03710663 0.02614466 0.08001456
v -0.03710663 0.02614466 0.08001456
v -0.03649762 0.02931229 0.09515232
v -0.03649762 0.02931229 0.09515232
v -0.03649762 0.02931229 0.09515232
v -0.03649762 0.02931229 0.09515232
v -0.03649762 0.02931229 0.09515232
v -0.03649762 0.02931229 0.09515232
v -0.03649762 0.02931229 0.09515232
v -0.03715404 0.02772847 0.07842708
v -0.03715404 0.02772847 0.07842708
v -0.03715404 0.02772847 0.07842708
v -0.03715404 0.02772847 0.07842708
v -0.03715404 0.02772847 0.07842708
v -0.03711028 0.02931229 0.07842708
v -0.03711028 0.02931229 0.07842708
v -0.03711028 0.02931229 0.07842708
v -0.03711028 0.02931229 0.07842708
v -0.03711028 0.02931229 0.07842708
v -0.03714675 0.02931229 0.07684905
v -0.03714675 0.02931229 0.07684905
v -0.03714675 0.02931229 0.07684905
v -0.03714675 0.02931229 0.07684905
v -0.03714675 0.02931229 0.07684905
v -0.03688418 0.03089610 0.07526157
v -0.03688418 0.03089610 0.07526157
v -0.03688418 0.03089610 0.07526157
v -0.03688418 0.03089610 0.07526157
v -0.03688418 0.03089610 0.07526157
v -0.03689147 0.03089610 0.07367409
v -0.03689147 0.03089610 0.07367409
v -0.03689147 0.03089610 0.07367409
v -0.03689147 0.03089610 0.07367409
v -0.03689147 0.03089610 0.07367409
v -0.03689512 0.03089610 0.07050858
v -0.03689512 0.03089610 0.07050858
v -0.03689512 0.03089610 0.07050858
v -0.03689512 0.03089610 0.07050858
v -0.03689512 0.03089610 0.07050858
v -0.03689512 0.03089610 0.07050858
v -0.03655597 0.03182622 0.01188521
v -0.03655597 0.03182622 0.01188521
v -0.03655597 0.03182622 0.01188521
v -0.03655597 0.03182622 0.01188521
v -0.03655597 0.03182622 0.01188521
v -0.03655597 0.03182622 0.00871969
v -0.03655597 0.03182622 0.00871969
v -0.03655597 0.03182622 0.00871969
v -0.03655597 0.03182622 0.00871969
v -0.03655597 0.03182622 0.00871969
v -0.03689512 0.03089610 0.00713221
v -0.03689512 0.03089610 0.00713221
v -0.03689512 0.03089610 0.00713221
v -0.03689512 0.03089610 0.00713221
v -0.03689512 0.03089610 0.00713221
v -0.03689512 0.03089610 0.00713221
v -0.03716133 0.02931229 0.00713221
v -0.03716133 0.02931229 0.00713221
v -0.03719780 0.02772847 0.00396670
v -0.03719780 0.02772847 0.00396670
v -0.03719780 0.02772847 0.00396670
v -0.03719780 0.02772847 0.00396670
v -0.03719780 0.02772847 0.00396670
v -0.03719780 0.02772847 0.00396670
v -0.03716133 0.02772847 0.00237922
v -0.03716133 0.02772847 0.00237922
v -0.03716133 0.02772847 0.00237922
v -0.03716133 0.02772847 0.00237922
v -0.03716133 0.02772847 0.00237922
v -0.03701182 0.02772847 0.00080119
v -0.03701182 0.02772847 0.00080119
v -0.03701182 0.02772847 0.00080119
v -0.03701182 0.02772847 0.00080119
v -0.03701182 0.02772847 0.00080119
v -0.03701911 0.02614466 0.00080119
v -0.03701911 0.02614466 0.00080119
v -0.03701911 0.02614466 0.00080119
v -0.03701911 0.02614466 0.00080119
v -0.03701911 0.02614466 0.00080119
v -0.03702276 0.01505470 0.00080119
v -0.03702276 0.01505470 0.00080119
v -0.03702276 0.01505470 0.00080119
v -0.03702276 0.01505470 0.00080119
v -0.03702276 0.01347089 0.00080119
v -0.03702276 0.01347089 0.00080119
v -0.03702276 0.01347089 0.00080119
v -0.03702276 0.01347089 0.00080119
v -0.03699723 -0.00014602 0.00080119
v -0.03699723 -0.00014602 0.00080119
v -0.03699723 -0.00014602 0.00080119
v -0.03699723 -0.00014602 0.00080119
v -0.03699723 -0.00014602 0.00080119
v -0.03711028 0.01663526 0.08001456
v -0.03711028 0.01663526 0.08001456
v -0.03711028 0.01663526 0.08001456
v -0.03710663 -0.00014602 0.08001456
v -0.03710663 -0.00014602 0.08001456
v -0.03710663 -0.00014602 0.08001456
v -0.03649762 0.02772847 0.09515232
v -0.03649762 0.02772847 0.09515232
v -0.03649762 0.02772847 0.09515232
v -0.03649762 0.02772847 0.09515232
v -0.03649762 0.02772847 0.09515232
v -0.03649762 0.02772847 0.09515232
v -0.03649762 0.02772847 0.09515232
v -0.03649762 0.02772847 0.09515232
v -0.03649762 0.02772847 0.09515232
v -0.03649762 0.02772847 0.09515232
v -0.03565156 0.02931229 0.09556808
v -0.03565156 0.02931229 0.09556808
v -0.03565156 0.02931229 0.09556808
v -0.03565156 0.02931229 0.09556808
v -0.03565156 0.02931229 0.09556808
v -0.03565156 0.02931229 0.09556808
v -0.03565156 0.02931229 0.09556808
v -0.03565156 0.02931229 0.09556808
v -0.03647574 0.03024566 0.09511452
v -0.03647574 0.03024566 0.09511452
v -0.03647574 0.03024566 0.09511452
v -0.03647574 0.03024566 0.09511452
v -0.03647574 0.03024566 0.09511452
v -0.03647574 0.03024566 0.09511452
v -0.03647574 0.03024566 0.09511452
v -0.03647574 0.03024566 0.09511452
v -0.03647574 0.03024566 0.09511452
v -0.03683312 0.03089610 0.07842708
v -0.03683312 0.03089610 0.07842708
v -0.03683312 0.03089610 0.07842708
v -0.03683312 0.03089610 0.07842708
v -0.03683312 0.03089610 0.07842708
v -0.03683312 0.03089610 0.07842708
v -0.03683312 0.03089610 0.07842708
v -0.03686594 0.03089610 0.07684905
v -0.03686594 0.03089610 0.07684905
v -0.03686594 0.03089610 0.07684905
v -0.03686594 0.03089610 0.07684905
v -0.03686594 0.03089610 0.07684905
v -0.03654138 0.03181322 0.07526157
v -0.03654138 0.03181322 0.07526157
v -0.03654138 0.03181322 0.07526157
v -0.03654138 0.03181322 0.07526157
v -0.03654138 0.03181322 0.07526157
v -0.03654138 0.03181322 0.07526157
v -0.03654138 0.03181322 0.07526157
v -0.03653409 0.03180346 0.07684905
v -0.03653409 0.03180346 0.07684905
v -0.03653409 0.03180346 0.07684905
v -0.03653409 0.03180346 0.07684905
v -0.03653409 0.03180346 0.07684905
v -0.03653409 0.03180346 0.07684905
v -0.03654138 0.03181647 0.07367409
v -0.03654138 0.03181647 0.07367409
v -0.03654138 0.03181647 0.07367409
v -0.03654138 0.03181647 0.07367409
v -0.03654138 0.03181647 0.07367409
v -0.03565156 0.03240186 0.01188521
v -0.03565156 0.03240186 0.01188521
v -0.03565156 0.03240186 0.01188521
v -0.03565156 0.03240186 0.01188521
v -0.03565156 0.03240186 0.01188521
v -0.03565156 0.03240186 0.00713221
v -0.03565156 0.03240186 0.00713221
v -0.03565156 0.03240186 0.00713221
v -0.03565156 0.03240186 0.00713221
v -0.03565156 0.03240186 0.00713221
v -0.03565156 0.03240186 0.00713221
v -0.03565156 0.03240186 0.00713221
v -0.03565156 0.03240186 0.00713221
v -0.03655232 0.03182297 0.00713221
v -0.03655232 0.03182297 0.00713221
v -0.03655232 0.03182297 0.00713221
v -0.03655232 0.03182297 0.00713221
v -0.03655232 0.03182297 0.00713221
v -0.03654867 0.03181647 0.00555418
v -0.03654867 0.03181647 0.00555418
v -0.03654867 0.03181647 0.00555418
v -0.03654867 0.03181647 0.00555418
v -0.03654867 0.03181647 0.00555418
v -0.03688782 0.03089610 0.00555418
v -0.03688782 0.03089610 0.00555418
v -0.03688782 0.03089610 0.00555418
v -0.03688782 0.03089610 0.00555418
v -0.03688782 0.03089610 0.00555418
v -0.03715404 0.02931229 0.00396670
v -0.03715404 0.02931229 0.00396670
v -0.03715404 0.02931229 0.00396670
v -0.03715404 0.02931229 0.00396670
v -0.03715404 0.02931229 0.00396670
v -0.03715404 0.02931229 0.00396670
v -0.03715404 0.02931229 0.00396670
v -0.03712122 0.02931229 0.00237922
v -0.03712122 0.02931229 0.00237922
v -0.03712122 0.02931229 0.00237922
v -0.03712122 0.02931229 0.00237922
v -0.03712122 0.02931229 0.00237922
v -0.03698629 0.02931229 0.00080119
v -0.03698629 0.02931229 0.00080119
v -0.03698629 0.02931229 0.00080119
v -0.03698629 0.02931229 0.00080119
v -0.03698629 0.02931229 0.00080119
v -0.03698629 0.02931229 0.00080119
v -0.03698629 0.02931229 0.00080119
v -0.03666173 0.02931229 -0.00026657
v -0.03666173 0.02931229 -0.00026657
v -0.03666173 0.02931229 -0.00026657
v -0.03666173 0.02931229 -0.00026657
v -0.03666173 0.02931229 -0.00026657
v -0.03666173 0.02931229 -0.00026657
v -0.03666902 0.02772847 -0.00026657
v -0.03666902 0.02772847 -0.00026657
v -0.03666902 0.02772847 -0.00026657
v -0.03666902 0.02772847 -0.00026657
v -0.03667996 0.01505470 -0.00027603
v -0.03667996 0.01505470 -0.00027603
v -0.03667996 0.01505470 -0.00027603
v -0.03667996 0.01505470 -0.00027603
v -0.03667996 0.01505470 -0.00027603
v -0.03667996 0.01347089 -0.00027603
v -0.03667996 0.01347089 -0.00027603
v -0.03667996 0.01347089 -0.00027603
v -0.03667996 0.01347089 -0.00027603
v -0.03667996 0.01347089 -0.00027603
v -0.03667996 0.01347089 -0.00027603
v -0.03667996 0.01347089 -0.00027603
v -0.03665808 0.00396149 -0.00025713
v -0.03665808 0.00396149 -0.00025713
v -0.03665808 0.00396149 -0.00025713
v -0.03665808 0.00396149 -0.00025713
v -0.03665808 0.00396149 -0.00025713
v -0.03665808 0.00396149 -0.00025713
v -0.03685136 -0.00014602 0.00037597
v -0.03685136 -0.00014602 0.00037597
v -0.03685136 -0.00014602 0.00037597
v -0.03706652 -0.00014602 0.08095004
v -0.03706652 -0.00014602 0.08095004
v -0.03706652 -0.00014602 0.08095004
v -0.03672372 -0.00014602 0.08887799
v -0.03672372 -0.00014602 0.08887799
v -0.03672372 -0.00014602 0.08887799
v -0.03669455 -0.00014602 0.08952054
v -0.03669455 -0.00014602 0.08952054
v -0.03669455 -0.00014602 0.08952054
v -0.03662161 -0.00014602 0.09110802
v -0.03662161 -0.00014602 0.09110802
v -0.03662161 -0.00014602 0.09110802
v -0.03662161 -0.00014602 0.09110802
v -0.03662161 -0.00014602 0.09110802
v -0.03649397 0.02614466 0.09514287
v -0.03649397 0.02614466 0.09514287
v -0.03649397 0.02614466 0.09514287
v -0.03649397 0.02614466 0.09514287
v -0.03649397 0.02614466 0.09514287
v -0.03649397 0.02614466 0.09514287
v -0.03565156 0.02772847 0.09554918
v -0.03565156 0.02772847 0.09554918
v -0.03565156 0.02772847 0.09554918
v -0.03565156 0.02772847 0.09554918
v -0.03565156 0.02772847 0.09554918
v -0.03565156 0.02772847 0.09554918
v -0.03406522 0.02931229 0.09590826
v -0.03406522 0.02931229 0.09590826
v -0.03406522 0.02931229 0.09590826
v -0.03406522 0.02931229 0.09590826
v -0.03406522 0.02931229 0.09590826
v -0.03406522 0.02931229 0.09590826
v -0.03406522 0.02931229 0.09590826
v -0.03406522 0.02931229 0.09590826
v -0.03406522 0.02931229 0.09590826
v -0.03406522 0.03089610 0.09579487
v -0.03406522 0.03089610 0.09579487
v -0.03406522 0.03089610 0.09579487
v -0.03406522 0.03089610 0.09579487
v -0.03406522 0.03089610 0.09579487
v -0.03406522 0.03089610 0.09579487
v -0.03406522 0.03089610 0.09579487
v -0.03568074 0.03082130 0.09536965
v -0.03568074 0.03082130 0.09536965
v -0.03568074 0.03082130 0.09536965
v -0.03568074 0.03082130 0.09536965
v -0.03517384 0.03183273 0.09524680
v -0.03517384 0.03183273 0.09524680
v -0.03517384 0.03183273 0.09524680
v -0.03517384 0.03183273 0.09524680
v -0.03517384 0.03183273 0.09524680
v -0.03517384 0.03183273 0.09524680
v -0.03517384 0.03183273 0.09524680
v -0.03611471 0.03106521 0.09427353
v -0.03611471 0.03106521 0.09427353
v -0.03611471 0.03106521 0.09427353
v -0.03611471 0.03106521 0.09427353
v -0.03645750 0.03170915 0.08110123
v -0.03645750 0.03170915 0.08110123
v -0.03645750 0.03170915 0.08110123
v -0.03645750 0.03170915 0.08110123
v -0.03645750 0.03170915 0.08110123
v -0.03648303 0.03174167 0.08001456
v -0.03648303 0.03174167 0.08001456
v -0.03648303 0.03174167 0.08001456
v -0.03648303 0.03174167 0.08001456
v -0.03651585 0.03178069 0.07842708
v -0.03651585 0.03178069 0.07842708
v -0.03651585 0.03178069 0.07842708
v -0.03651585 0.03178069 0.07842708
v -0.03651585 0.03178069 0.07842708
v -0.03651585 0.03178069 0.07842708
v -0.03651585 0.03178069 0.07842708
v -0.03565156 0.03237585 0.07526157
v -0.03565156 0.03237585 0.07526157
v -0.03565156 0.03237585 0.07526157
v -0.03565156 0.03237585 0.07526157
v -0.03565156 0.03237585 0.07526157
v -0.03565156 0.03237585 0.07526157
v -0.03565156 0.03238235 0.07367409
v -0.03565156 0.03238235 0.07367409
v -0.03565156 0.03238235 0.07367409
v -0.03565156 0.03238235 0.07367409
v -0.03565156 0.03238235 0.07367409
v -0.03565156 0.03238235 0.07367409
v -0.03565156 0.03235958 0.07684905
v -0.03565156 0.03235958 0.07684905
v -0.03565156 0.03235958 0.07684905
v -0.03565156 0.03235958 0.07684905
v -0.03565156 0.03235958 0.07684905
v -0.03565156 0.03235958 0.07684905
v -0.03406522 0.03293847 0.05624961
v -0.03406522 0.03293847 0.05624961
v -0.03406522 0.03293847 0.05624961
v -0.03406522 0.03293847 0.05624961
v -0.03406522 0.03293847 0.05624961
v -0.03406522 0.03292221 0.00713221
v -0.03406522 0.03292221 0.00713221
v -0.03406522 0.03292221 0.00713221
v -0.03406522 0.03292221 0.00713221
v -0.03406522 0.03291896 0.00555418
v -0.03406522 0.03291896 0.00555418
v -0.03406522 0.03291896 0.00555418
v -0.03406522 0.03291896 0.00555418
v -0.03406522 0.03291896 0.00555418
v -0.03406522 0.03291896 0.00555418
v -0.03565156 0.03239536 0.00555418
v -0.03565156 0.03239536 0.00555418
v -0.03565156 0.03239536 0.00555418
v -0.03565156 0.03239536 0.00555418
v -0.03565156 0.03239536 0.00555418
v -0.03565156 0.03239536 0.00555418
v -0.03565156 0.03239536 0.00555418
v -0.03406522 0.03293847 0.05466213
v -0.03406522 0.03293847 0.05466213
v -0.03406522 0.03293847 0.05466213
v -0.03406522 0.03293847 0.05466213
v -0.03406522 0.03293847 0.05466213
v -0.03406522 0.03293197 0.01981316
v -0.03406522 0.03293197 0.01981316
v -0.03406522 0.03293197 0.01981316
v -0.03406522 0.03293197 0.01981316
v -0.03406522 0.03293197 0.01981316
v -0.03654138 0.03180671 0.00396670
v -0.03654138 0.03180671 0.00396670
v -0.03654138 0.03180671 0.00396670
v -0.03654138 0.03180671 0.00396670
v -0.03654138 0.03180671 0.00396670
v -0.03654138 0.03180671 0.00396670
v -0.03687689 0.03089610 0.00396670
v -0.03687689 0.03089610 0.00396670
v -0.03687689 0.03089610 0.00396670
v -0.03687689 0.03089610 0.00396670
v -0.03687689 0.03089610 0.00396670
v -0.03684771 0.03089610 0.00237922
v -0.03684771 0.03089610 0.00237922
v -0.03684771 0.03089610 0.00237922
v -0.03684771 0.03089610 0.00237922
v -0.03684771 0.03089610 0.00237922
v -0.03684771 0.03089610 0.00237922
v -0.03684771 0.03089610 0.00237922
v -0.03667996 0.03103269 0.00070670
v -0.03667996 0.03103269 0.00070670
v -0.03667996 0.03103269 0.00070670
v -0.03667996 0.03103269 0.00070670
v -0.03667996 0.03103269 0.00070670
v -0.03658514 0.03059365 -0.00017209
v -0.03658514 0.03059365 -0.00017209
v -0.03658514 0.03059365 -0.00017209
v -0.03658514 0.03059365 -0.00017209
v -0.03658514 0.03059365 -0.00017209
v -0.03579744 0.03103269 -0.00041776
v -0.03579744 0.03103269 -0.00041776
v -0.03579744 0.03103269 -0.00041776
v -0.03579744 0.03103269 -0.00041776
v -0.03579744 0.03103269 -0.00041776
v -0.03579744 0.03103269 -0.00041776
v -0.03565156 0.02931229 -0.00061620
v -0.03565156 0.02931229 -0.00061620
v -0.03565156 0.02931229 -0.00061620
v -0.03565156 0.02931229 -0.00061620
v -0.03565156 0.02931229 -0.00061620
v -0.03565156 0.02931229 -0.00061620
v -0.03565156 0.02931229 -0.00061620
v -0.03565156 0.02931229 -0.00061620
v -0.03565156 0.02931229 -0.00061620
v -0.03565156 0.02931229 -0.00061620
v -0.03565156 0.02931229 -0.00061620
v -0.03565156 0.02931229 -0.00061620
v -0.03565156 0.01347089 -0.00059731
v -0.03565156 0.01347089 -0.00059731
v -0.03565156 0.01347089 -0.00059731
v -0.03565156 0.01347089 -0.00059731
v -0.03565156 0.00396149 -0.00057840
v -0.03565156 0.00396149 -0.00057840
v -0.03565156 0.00396149 -0.00057840
v -0.03565156 0.00396149 -0.00057840
v -0.03565156 0.00396149 -0.00057840
v -0.03565156 -0.00014602 -0.00055006
v -0.03565156 -0.00014602 -0.00055006
v -0.03565156 -0.00014602 -0.00055006
v -0.03565156 -0.00014602 -0.00055006
v -0.03565156 -0.00014602 -0.00055006
v -0.03664349 -0.00014602 -0.00022878
v -0.03664349 -0.00014602 -0.00022878
v -0.03664349 -0.00014602 -0.00022878
v -0.03655597 -0.00014602 0.09193011
v -0.03655597 -0.00014602 0.09193011
v -0.03655597 -0.00014602 0.09193011
v -0.03644657 0.01881423 0.09506727
v -0.03644657 0.01881423 0.09506727
v -0.03644657 0.01881423 0.09506727
v -0.03644657 0.01881423 0.09506727
v -0.03644657 0.01881423 0.09506727
v -0.03644657 0.01881423 0.09506727
v -0.03644657 0.01881423 0.09506727
v -0.03644657 0.01881423 0.09506727
v -0.03644657 0.01881423 0.09506727
v -0.03644657 0.01881423 0.09506727
v -0.03644657 0.01881423 0.09506727
v -0.03644657 0.01881423 0.09506727
v -0.03644657 0.01881423 0.09506727
v -0.03646115 0.02138996 0.09509562
v -0.03646115 0.02138996 0.09509562
v -0.03646115 0.02138996 0.09509562
v -0.03565156 0.02614466 0.09552084
v -0.03565156 0.02614466 0.09552084
v -0.03565156 0.02614466 0.09552084
v -0.03565156 0.02614466 0.09552084
v -0.03565156 0.02614466 0.09552084
v -0.03565156 0.02614466 0.09552084
v -0.02931346 0.02931229 0.09591771
v -0.02931346 0.02931229 0.09591771
v -0.02931346 0.02931229 0.09591771
v -0.02931346 0.02931229 0.09591771
v -0.02931346 0.02931229 0.09591771
v -0.02931346 0.02931229 0.09591771
v -0.02931346 0.02931229 0.09591771
v -0.02931346 0.02931229 0.09591771
v -0.02772711 0.03089610 0.09586101
v -0.02772711 0.03089610 0.09586101
v -0.02772711 0.03089610 0.09586101
v -0.02772711 0.03089610 0.09586101
v -0.02772711 0.03089610 0.09586101
v -0.02772711 0.03089610 0.09586101
v -0.02772711 0.03089610 0.09586101
v -0.02931346 0.03089610 0.09585156
v -0.02931346 0.03089610 0.09585156
v -0.02931346 0.03089610 0.09585156
v -0.03248251 0.03089610 0.09583266
v -0.03248251 0.03089610 0.09583266
v -0.03248251 0.03089610 0.09583266
v -0.03248251 0.03089610 0.09583266
v -0.03248251 0.03089610 0.09583266
v -0.03406522 0.02772847 0.09587047
v -0.03406522 0.02772847 0.09587047
v -0.03406522 0.02772847 0.09587047
v -0.03406522 0.02772847 0.09587047
v -0.03406522 0.02772847 0.09587047
v -0.03406522 0.02772847 0.09587047
v -0.03406522 0.02772847 0.09587047
v -0.03248251 0.03200510 0.09540744
v -0.03248251 0.03200510 0.09540744
v -0.03248251 0.03200510 0.09540744
v -0.03248251 0.03200510 0.09540744
v -0.03248251 0.03200510 0.09540744
v -0.03248251 0.03200510 0.09540744
v -0.03406522 0.03194981 0.09536965
v -0.03406522 0.03194981 0.09536965
v -0.03406522 0.03194981 0.09536965
v -0.03406522 0.03194981 0.09536965
v -0.03406522 0.03194981 0.09536965
v -0.03406522 0.03228804 0.09427353
v -0.03406522 0.03228804 0.09427353
v -0.03406522 0.03228804 0.09427353
v -0.03406522 0.03228804 0.09427353
v -0.03406522 0.03228804 0.09427353
v -0.03406522 0.03228804 0.09427353
v -0.03532335 0.03193680 0.09427353
v -0.03532335 0.03193680 0.09427353
v -0.03532335 0.03193680 0.09427353
v -0.03532335 0.03193680 0.09427353
v -0.03532335 0.03193680 0.09427353
v -0.03532335 0.03193680 0.09427353
v -0.03532335 0.03193680 0.09427353
v -0.03532335 0.03193680 0.09427353
v -0.03532335 0.03193680 0.09427353
v -0.03565156 0.03232056 0.07842708
v -0.03565156 0.03232056 0.07842708
v -0.03565156 0.03232056 0.07842708
v -0.03565156 0.03232056 0.07842708
v -0.03565156 0.03232056 0.07842708
v -0.03406522 0.03290921 0.07526157
v -0.03406522 0.03290921 0.07526157
v -0.03406522 0.03290921 0.07526157
v -0.03406522 0.03290921 0.07526157
v -0.03406522 0.03290921 0.07526157
v -0.03406522 0.03289945 0.07684905
v -0.03406522 0.03289945 0.07684905
v -0.03406522 0.03289945 0.07684905
v -0.03406522 0.03289945 0.07684905
v -0.03406522 0.03289945 0.07684905
v -0.03406522 0.03289945 0.07684905
v -0.03406522 0.03286367 0.07842708
v -0.03406522 0.03286367 0.07842708
v -0.03406522 0.03286367 0.07842708
v -0.03406522 0.03286367 0.07842708
v -0.03406522 0.03286367 0.07842708
v -0.03406522 0.03286367 0.07842708
v -0.03248251 0.03302628 0.07526157
v -0.03248251 0.03302628 0.07526157
v -0.03248251 0.03302628 0.07526157
v -0.03248251 0.03302628 0.07526157
v -0.03248251 0.03302628 0.07526157
v -0.03248251 0.03302628 0.07526157
v -0.03248251 0.03301978 0.00713221
v -0.03248251 0.03301978 0.00713221
v -0.03248251 0.03301978 0.00713221
v -0.03248251 0.03301978 0.00713221
v -0.03248251 0.03301978 0.00713221
v -0.03248251 0.03301978 0.00713221
v -0.03248251 0.03301653 0.00555418
v -0.03248251 0.03301653 0.00555418
v -0.03248251 0.03301653 0.00555418
v -0.03248251 0.03301653 0.00555418
v -0.03248251 0.03301002 0.00396670
v -0.03248251 0.03301002 0.00396670
v -0.03248251 0.03301002 0.00396670
v -0.03248251 0.03301002 0.00396670
v -0.03248251 0.03301002 0.00396670
v -0.03406522 0.03290595 0.00396670
v -0.03406522 0.03290595 0.00396670
v -0.03406522 0.03290595 0.00396670
v -0.03406522 0.03290595 0.00396670
v -0.03406522 0.03290595 0.00396670
v -0.03406522 0.03290595 0.00396670
v -0.03565156 0.03237585 0.00396670
v -0.03565156 0.03237585 0.00396670
v -0.03565156 0.03237585 0.00396670
v -0.03565156 0.03237585 0.00396670
v -0.03565156 0.03237585 0.00396670
v -0.03248251 0.03302628 0.03882512
v -0.03248251 0.03302628 0.03882512
v -0.03248251 0.03302628 0.03882512
v -0.03248251 0.03302628 0.03882512
v -0.03248251 0.03302303 0.01188521
v -0.03248251 0.03302303 0.01188521
v -0.03248251 0.03302303 0.01188521
v -0.03248251 0.03302303 0.01188521
v -0.03248251 0.03302303 0.01188521
v -0.03248251 0.03302303 0.01188521
v -0.03652315 0.03178720 0.00237922
v -0.03652315 0.03178720 0.00237922
v -0.03652315 0.03178720 0.00237922
v -0.03652315 0.03178720 0.00237922
v -0.03652315 0.03178720 0.00237922
v -0.03652315 0.03178720 0.00237922
v -0.03649032 0.03174492 0.00116971
v -0.03649032 0.03174492 0.00116971
v -0.03649032 0.03174492 0.00116971
v -0.03649032 0.03174492 0.00116971
v -0.03649032 0.03174492 0.00116971
v -0.03649032 0.03174492 0.00116971
v -0.03642104 0.03164735 0.00011139
v -0.03642104 0.03164735 0.00011139
v -0.03642104 0.03164735 0.00011139
v -0.03642104 0.03164735 0.00011139
v -0.03642104 0.03164735 0.00011139
v -0.03642104 0.03164735 0.00011139
v -0.03406522 0.03217421 -0.00042721
v -0.03406522 0.03217421 -0.00042721
v -0.03406522 0.03217421 -0.00042721
v -0.03406522 0.03217421 -0.00042721
v -0.03406522 0.03217421 -0.00042721
v -0.03406522 0.03217421 -0.00042721
v -0.03536712 0.03199859 -0.00027603
v -0.03536712 0.03199859 -0.00027603
v -0.03536712 0.03199859 -0.00027603
v -0.03536712 0.03199859 -0.00027603
v -0.03536712 0.03199859 -0.00027603
v -0.03248251 0.03220348 -0.00042721
v -0.03248251 0.03220348 -0.00042721
v -0.03248251 0.03220348 -0.00042721
v -0.03248251 0.03220348 -0.00042721
v -0.03248251 0.03220348 -0.00042721
v -0.03089616 0.03220998 -0.00042721
v -0.03089616 0.03220998 -0.00042721
v -0.03089616 0.03220998 -0.00042721
v -0.03089616 0.03220998 -0.00042721
v -0.03089616 0.03220998 -0.00042721
v -0.03089616 0.03220998 -0.00042721
v -0.01664089 0.03221323 -0.00042721
v -0.01664089 0.03221323 -0.00042721
v -0.01664089 0.03221323 -0.00042721
v -0.01664089 0.03221323 -0.00042721
v 0.00003585 0.03220348 -0.00042721
v 0.00003585 0.03220348 -0.00042721
v 0.00003585 0.03220348 -0.00042721
v 0.00003585 0.03220348 -0.00042721
v 0.00003585 0.03220348 -0.00042721
v 0.00003585 0.03103920 -0.00042721
v 0.00003585 0.03103920 -0.00042721
v 0.00003585 0.03103920 -0.00042721
v 0.00003585 0.03103920 -0.00042721
v 0.00003585 0.03103920 -0.00042721
v 0.00003585 0.03103920 -0.00042721
v 0.00003585 -0.00014602 0.00134925
v 0.00003585 -0.00014602 0.00134925
v 0.00003585 -0.00014602 0.00134925
v -0.03651221 -0.00014602 0.09243092
v -0.03651221 -0.00014602 0.09243092
v -0.03651221 -0.00014602 0.09243092
v -0.03535618 0.01188707 0.09517121
v -0.03535618 0.01188707 0.09517121
v -0.03535618 0.01188707 0.09517121
v -0.03535618 0.01188707 0.09517121
v -0.03535618 0.01188707 0.09517121
v -0.03535618 0.01188707 0.09517121
v -0.03545464 0.01347089 0.09520901
v -0.03545464 0.01347089 0.09520901
v -0.03545464 0.01347089 0.09520901
v -0.03545464 0.01347089 0.09520901
v -0.03552393 0.01505470 0.09524680
v -0.03552393 0.01505470 0.09524680
v -0.03552393 0.01505470 0.09524680
v -0.03552393 0.01505470 0.09524680
v -0.03552393 0.01505470 0.09524680
v -0.03552393 0.01505470 0.09524680
v -0.03552393 0.01505470 0.09524680
v -0.03579744 0.01825810 0.09526571
v -0.03579744 0.01825810 0.09526571
v -0.03579744 0.01825810 0.09526571
v -0.03579744 0.01825810 0.09526571
v -0.03579744 0.01825810 0.09526571
v -0.03579744 0.01825810 0.09526571
v -0.03638457 -0.00014602 0.09321522
v -0.03638457 -0.00014602 0.09321522
v -0.03638457 -0.00014602 0.09321522
v -0.03559322 -0.00014602 0.09407510
v -0.03559322 -0.00014602 0.09407510
v -0.03559322 -0.00014602 0.09407510
v -0.03559322 -0.00014602 0.09407510
v -0.03559322 -0.00014602 0.09407510
v -0.03559322 -0.00014602 0.09407510
v -0.03565156 0.02297377 0.09543579
v -0.03565156 0.02297377 0.09543579
v -0.03565156 0.02297377 0.09543579
v 0.00003585 0.02772847 0.09587047
v 0.00003585 0.02772847 0.09587047
v 0.00003585 0.02772847 0.09587047
v 0.00003585 0.02772847 0.09587047
v 0.00003585 0.02931229 0.09590826
v 0.00003585 0.02931229 0.09590826
v 0.00003585 0.02931229 0.09590826
v 0.00003585 0.02931229 0.09590826
v -0.01188548 0.03089610 0.09587992
v -0.01188548 0.03089610 0.09587992
v -0.01188548 0.03089610 0.09587992
v -0.01188548 0.03089610 0.09587992
v -0.01188548 0.03089610 0.09587992
v -0.01188548 0.03089610 0.09587992
v -0.01188548 0.03089610 0.09587992
v -0.01347183 0.03089610 0.09587992
v -0.01347183 0.03089610 0.09587992
v -0.01347183 0.03089610 0.09587992
v -0.01347183 0.03089610 0.09587992
v -0.01347183 0.03089610 0.09587992
v -0.00237832 0.00713238 0.09527516
v -0.00237832 0.00713238 0.09527516
v -0.00237832 0.00713238 0.09527516
v -0.00237832 0.00713238 0.09527516
v -0.00237832 0.00713238 0.09527516
v -0.00237832 0.00713238 0.09527516
v -0.00237832 0.00713238 0.09527516
v -0.00237832 0.00713238 0.09527516
v -0.00237832 0.00713238 0.09527516
v -0.00237832 0.00713238 0.09527516
v -0.00237832 0.00713238 0.09527516
v -0.00237832 0.00713238 0.09527516
v -0.00237832 0.00713238 0.09527516
v -0.00237832 0.00713238 0.09527516
v -0.00237832 0.00713238 0.09527516
v -0.00237832 0.00713238 0.09527516
v -0.00237832 0.00713238 0.09527516
v -0.00237832 0.00713238 0.09527516
v -0.02455805 0.03204738 0.09543579
v -0.02455805 0.03204738 0.09543579
v -0.02455805 0.03204738 0.09543579
v -0.02455805 0.03204738 0.09543579
v -0.02455805 0.03204738 0.09543579
v -0.02455805 0.03204738 0.09543579
v -0.02455805 0.03204738 0.09543579
v -0.02455805 0.03204738 0.09543579
v -0.02772711 0.03203762 0.09542635
v -0.02772711 0.03203762 0.09542635
v -0.02772711 0.03203762 0.09542635
v -0.02772711 0.03203762 0.09542635
v -0.02772711 0.03203762 0.09542635
v -0.03089616 0.03201810 0.09541690
v -0.03089616 0.03201810 0.09541690
v -0.03089616 0.03201810 0.09541690
v -0.03089616 0.03201810 0.09541690
v -0.03089616 0.03201810 0.09541690
v -0.03406522 0.02614466 0.09582322
v -0.03406522 0.02614466 0.09582322
v -0.03406522 0.02614466 0.09582322
v -0.03406522 0.02614466 0.09582322
v -0.03406522 0.02614466 0.09582322
v -0.03406522 0.02614466 0.09582322
v -0.03565156 0.01980615 0.09535075
v -0.03565156 0.01980615 0.09535075
v -0.03565156 0.01980615 0.09535075
v -0.03565156 0.01980615 0.09535075
v -0.03565156 0.01980615 0.09535075
v -0.03089616 0.03243438 0.09427353
v -0.03089616 0.03243438 0.09427353
v -0.03089616 0.03243438 0.09427353
v -0.03089616 0.03243438 0.09427353
v -0.03248251 0.03240837 0.09427353
v -0.03248251 0.03240837 0.09427353
v -0.03248251 0.03240837 0.09427353
v -0.03248251 0.03240837 0.09427353
v -0.03248251 0.03240837 0.09427353
v -0.03248251 0.03252870 0.09268605
v -0.03248251 0.03252870 0.09268605
v -0.03248251 0.03252870 0.09268605
v -0.03248251 0.03252870 0.09268605
v -0.03248251 0.03252870 0.09268605
v -0.03248251 0.03252870 0.09268605
v -0.03248251 0.03252870 0.09268605
v -0.03248251 0.03252870 0.09268605
v -0.03406522 0.03239211 0.09268605
v -0.03406522 0.03239211 0.09268605
v -0.03406522 0.03239211 0.09268605
v -0.03406522 0.03239211 0.09268605
v -0.03406522 0.03281489 0.08001456
v -0.03406522 0.03281489 0.08001456
v -0.03406522 0.03281489 0.08001456
v -0.03406522 0.03281489 0.08001456
v -0.03406522 0.03281489 0.08001456
v -0.03406522 0.03281489 0.08001456
v -0.03406522 0.03281489 0.08001456
v -0.03248251 0.03299051 0.07842708
v -0.03248251 0.03299051 0.07842708
v -0.03248251 0.03299051 0.07842708
v -0.03248251 0.03299051 0.07842708
v -0.03248251 0.03299051 0.07842708
v -0.03248251 0.03299051 0.07842708
v -0.03248251 0.03301653 0.07684905
v -0.03248251 0.03301653 0.07684905
v -0.03248251 0.03301653 0.07684905
v -0.03248251 0.03301653 0.07684905
v -0.03248251 0.03301653 0.07684905
v -0.03248251 0.03294498 0.08001456
v -0.03248251 0.03294498 0.08001456
v -0.03248251 0.03294498 0.08001456
v -0.03248251 0.03294498 0.08001456
v -0.03248251 0.03294498 0.08001456
v -0.03089616 0.03305230 0.07684905
v -0.03089616 0.03305230 0.07684905
v -0.03089616 0.03305230 0.07684905
v -0.03089616 0.03305230 0.07684905
v -0.03089616 0.03305230 0.07684905
v -0.03089616 0.03305881 0.07526157
v -0.03089616 0.03305881 0.07526157
v -0.03089616 0.03305881 0.07526157
v -0.03089616 0.03305881 0.07526157
v -0.03089616 0.03305881 0.07526157
v -0.03089616 0.03305230 0.00713221
v -0.03089616 0.03305230 0.00713221
v -0.03089616 0.03304905 0.00396670
v -0.03089616 0.03304905 0.00396670
v -0.03089616 0.03304905 0.00396670
v -0.03089616 0.03304905 0.00396670
v -0.03089616 0.03304905 0.00396670
v -0.03089616 0.03304905 0.00396670
v -0.03089616 0.03304905 0.00396670
v -0.03089616 0.03304905 0.00396670
v -0.03089616 0.03305555 0.01030717
v -0.03089616 0.03305555 0.01030717
v -0.03089616 0.03305555 0.01030717
v -0.03089616 0.03305555 0.01030717
v -0.03089616 0.03305555 0.01030717
v -0.03248251 0.03297425 0.00237922
v -0.03248251 0.03297425 0.00237922
v -0.03248251 0.03297425 0.00237922
v -0.03248251 0.03297425 0.00237922
v -0.03248251 0.03297425 0.00237922
v -0.03248251 0.03297425 0.00237922
v -0.03406522 0.03286693 0.00237922
v -0.03406522 0.03286693 0.00237922
v -0.03406522 0.03286693 0.00237922
v -0.03406522 0.03286693 0.00237922
v -0.03565156 0.03233682 0.00237922
v -0.03565156 0.03233682 0.00237922
v -0.03565156 0.03233682 0.00237922
v -0.03565156 0.03233682 0.00237922
v -0.03565156 0.03233682 0.00237922
v -0.03565156 0.03233682 0.00237922
v -0.03089616 0.03305881 0.01822567
v -0.03089616 0.03305881 0.01822567
v -0.03089616 0.03305881 0.01822567
v -0.03089616 0.03305881 0.01822567
v -0.03089616 0.03305881 0.01822567
v -0.03089616 0.03305881 0.01822567
v -0.03579744 0.03212218 0.00070670
v -0.03579744 0.03212218 0.00070670
v -0.03579744 0.03212218 0.00070670
v -0.03579744 0.03212218 0.00070670
v -0.03579744 0.03212218 0.00070670
v -0.03406522 0.03274659 0.00080119
v -0.03406522 0.03274659 0.00080119
v -0.03406522 0.03274659 0.00080119
v -0.03406522 0.03274659 0.00080119
v -0.03406522 0.03274659 0.00080119
v -0.03406522 0.03274659 0.00080119
v -0.03406522 0.03274659 0.00080119
v -0.03248251 0.03283115 0.00080119
v -0.03248251 0.03283115 0.00080119
v -0.03248251 0.03283115 0.00080119
v -0.03248251 0.03283115 0.00080119
v -0.03248251 0.03283115 0.00080119
v -0.03248251 0.03283115 0.00080119
v -0.03089616 0.03285717 0.00080119
v -0.03089616 0.03285717 0.00080119
v -0.03089616 0.03285717 0.00080119
v -0.03089616 0.03285717 0.00080119
v -0.03089616 0.03285717 0.00080119
v -0.03089616 0.03285717 0.00080119
v -0.02931346 0.03286042 0.00080119
v -0.02931346 0.03286042 0.00080119
v -0.02931346 0.03286042 0.00080119
v -0.02931346 0.03286042 0.00080119
v -0.01822359 0.03287993 0.00080119
v -0.01822359 0.03287993 0.00080119
v -0.01822359 0.03287993 0.00080119
v -0.01822359 0.03287993 0.00080119
v -0.01822359 0.03287993 0.00080119
v -0.01822359 0.03287993 0.00080119
v -0.01822359 0.03287993 0.00080119
v -0.01822359 0.03287993 0.00080119
v -0.01822359 0.03287993 0.00080119
v -0.01822359 0.03287993 0.00080119
v 0.00003585 0.03284091 0.00080119
v 0.00003585 0.03284091 0.00080119
v 0.00003585 0.03284091 0.00080119
v 0.00003585 -0.00014602 0.09283724
v 0.00003585 -0.00014602 0.09283724
v 0.00003585 -0.00014602 0.09283724
v -0.03517019 0.01030000 0.09514287
v -0.03517019 0.01030000 0.09514287
v -0.03517019 0.01030000 0.09514287
v -0.03517019 0.01030000 0.09514287
v -0.03517019 0.01030000 0.09514287
v -0.03406522 0.02297377 0.09571928
v -0.03406522 0.02297377 0.09571928
v -0.03406522 0.02297377 0.09571928
v -0.03406522 0.02297377 0.09571928
v -0.03406522 0.02297377 0.09571928
v -0.03559322 0.01663526 0.09527516
v -0.03559322 0.01663526 0.09527516
v -0.03559322 0.01663526 0.09527516
v -0.03498056 -0.00014602 0.09433023
v -0.03498056 -0.00014602 0.09433023
v -0.03498056 -0.00014602 0.09433023
v -0.03489303 0.00764947 0.09507673
v -0.03489303 0.00764947 0.09507673
v -0.03489303 0.00764947 0.09507673
v -0.03489303 0.00764947 0.09507673
v -0.03489303 0.00764947 0.09507673
v -0.03489303 0.00764947 0.09507673
v -0.03489303 0.00764947 0.09507673
v -0.03489303 0.00764947 0.09507673
v -0.03489303 0.00764947 0.09507673
v -0.03489303 0.00764947 0.09507673
v -0.03489303 0.00764947 0.09507673
v -0.03489303 0.00764947 0.09507673
v 0.00003585 0.02380308 0.09574762
v 0.00003585 0.02380308 0.09574762
v 0.00003585 0.02380308 0.09574762
v 0.00003585 0.03014160 0.09588935
v 0.00003585 0.03014160 0.09588935
v 0.00003585 0.03014160 0.09588935
v 0.00003585 0.03089610 0.09587047
v 0.00003585 0.03089610 0.09587047
v 0.00003585 0.03089610 0.09587047
v 0.00003585 0.03089610 0.09587047
v -0.00237832 0.03203436 0.09544525
v -0.00237832 0.03203436 0.09544525
v -0.00237832 0.03203436 0.09544525
v -0.00237832 0.03203436 0.09544525
v -0.00237832 0.03203436 0.09544525
v -0.00237832 0.03203436 0.09544525
v -0.00237832 0.03203436 0.09544525
v -0.00237832 0.03203436 0.09544525
v -0.01347183 0.03205388 0.09544525
v -0.01347183 0.03205388 0.09544525
v -0.01347183 0.03205388 0.09544525
v -0.01347183 0.03205388 0.09544525
v -0.01347183 0.03205388 0.09544525
v -0.00474144 0.00468998 0.09507673
v -0.00474144 0.00468998 0.09507673
v -0.00474144 0.00468998 0.09507673
v -0.00474144 0.00468998 0.09507673
v -0.00474144 0.00468998 0.09507673
v 0.00003585 0.00700879 0.09519956
v 0.00003585 0.00700879 0.09519956
v 0.00003585 0.00700879 0.09519956
v 0.00003585 0.00700879 0.09519956
v 0.00003585 0.00700879 0.09519956
v 0.00003585 0.00700879 0.09519956
v -0.03406522 0.01821908 0.09554918
v -0.03406522 0.01821908 0.09554918
v -0.03406522 0.01821908 0.09554918
v -0.03406522 0.01821908 0.09554918
v -0.03406522 0.01821908 0.09554918
v -0.03406522 0.01663526 0.09548304
v -0.03406522 0.01663526 0.09548304
v -0.03406522 0.01663526 0.09548304
v -0.03406522 0.01663526 0.09548304
v -0.03406522 0.01188707 0.09528461
v -0.03406522 0.01188707 0.09528461
v -0.03406522 0.01188707 0.09528461
v -0.03406522 0.01188707 0.09528461
v -0.03406522 0.00871619 0.09514287
v -0.03406522 0.00871619 0.09514287
v -0.03406522 0.00871619 0.09514287
v -0.03406522 0.00871619 0.09514287
v -0.03406522 0.00749987 0.09508617
v -0.03406522 0.00749987 0.09508617
v -0.03406522 0.00749987 0.09508617
v -0.03406522 0.00749987 0.09508617
v -0.03406522 0.00670634 0.09504837
v -0.03406522 0.00670634 0.09504837
v -0.03406522 0.00670634 0.09504837
v -0.03406522 0.00670634 0.09504837
v -0.03406522 0.00396149 0.09491609
v -0.03406522 0.00396149 0.09491609
v -0.03406522 0.00396149 0.09491609
v -0.03406522 0.00396149 0.09491609
v -0.03406522 0.00396149 0.09491609
v -0.03248251 -0.00014602 0.09470820
v -0.03248251 -0.00014602 0.09470820
v -0.03248251 -0.00014602 0.09470820
v -0.03248251 -0.00014602 0.09470820
v -0.03248251 -0.00014602 0.09470820
v -0.03025068 -0.00014602 0.09470820
v -0.03025068 -0.00014602 0.09470820
v -0.03025068 -0.00014602 0.09470820
v -0.01664089 -0.00014602 0.09469875
v -0.01664089 -0.00014602 0.09469875
v -0.01664089 -0.00014602 0.09469875
v -0.01664089 -0.00014602 0.09469875
v -0.01505454 0.03206363 0.09543579
v -0.01505454 0.03206363 0.09543579
v -0.01505454 0.03206363 0.09543579
v -0.01505454 0.03206363 0.09543579
v -0.02455805 0.03247016 0.09427353
v -0.02455805 0.03247016 0.09427353
v -0.02455805 0.03247016 0.09427353
v -0.02455805 0.03247016 0.09427353
v -0.02614440 0.03246691 0.09427353
v -0.02614440 0.03246691 0.09427353
v -0.02614440 0.03246691 0.09427353
v -0.02614440 0.03246691 0.09427353
v -0.02772711 0.03246040 0.09427353
v -0.02772711 0.03246040 0.09427353
v -0.02772711 0.03246040 0.09427353
v -0.02772711 0.03246040 0.09427353
v -0.02772711 0.03246040 0.09427353
v -0.02931346 0.03245065 0.09427353
v -0.02931346 0.03245065 0.09427353
v -0.02931346 0.03245065 0.09427353
v -0.02931346 0.03245065 0.09427353
v -0.02931346 0.03245065 0.09427353
v -0.03089616 0.03255472 0.09268605
v -0.03089616 0.03255472 0.09268605
v -0.03089616 0.03255472 0.09268605
v -0.03089616 0.03255472 0.09268605
v -0.03089616 0.03255472 0.09268605
v -0.03089616 0.03261325 0.09110802
v -0.03089616 0.03261325 0.09110802
v -0.03089616 0.03261325 0.09110802
v -0.03089616 0.03261325 0.09110802
v -0.03089616 0.03261325 0.09110802
v -0.03089616 0.03261325 0.09110802
v -0.03089616 0.03288319 0.08318007
v -0.03089616 0.03288319 0.08318007
v -0.03089616 0.03288319 0.08318007
v -0.03089616 0.03288319 0.08318007
v -0.03089616 0.03288319 0.08318007
v -0.03248251 0.03284416 0.08318007
v -0.03248251 0.03284416 0.08318007
v -0.03248251 0.03284416 0.08318007
v -0.03248251 0.03284416 0.08318007
v -0.03248251 0.03284416 0.08318007
v -0.03248251 0.03284416 0.08318007
v -0.03089616 0.03298725 0.08001456
v -0.03089616 0.03298725 0.08001456
v -0.03089616 0.03298725 0.08001456
v -0.03089616 0.03298725 0.08001456
v -0.03089616 0.03298725 0.08001456
v -0.03089616 0.03298725 0.08001456
v -0.03089616 0.03298725 0.08001456
v -0.03089616 0.03302954 0.07842708
v -0.03089616 0.03302954 0.07842708
v -0.03089616 0.03302954 0.07842708
v -0.03089616 0.03302954 0.07842708
v -0.03089616 0.03302954 0.07842708
v -0.02931346 0.03306206 0.07684905
v -0.02931346 0.03306206 0.07684905
v -0.02931346 0.03306206 0.07684905
v -0.02931346 0.03306206 0.07684905
v -0.02931346 0.03306206 0.07684905
v -0.02931346 0.03306206 0.07684905
v -0.02931346 0.03306206 0.07684905
v -0.02931346 0.03306856 0.07526157
v -0.02931346 0.03306856 0.07526157
v -0.02931346 0.03306856 0.07526157
v -0.02931346 0.03306856 0.07526157
v -0.02931346 0.03307181 0.06892110
v -0.02931346 0.03307181 0.06892110
v -0.02931346 0.03307181 0.06892110
v -0.02931346 0.03307181 0.06892110
v -0.02931346 0.03307181 0.06892110
v -0.02931346 0.03306531 0.00713221
v -0.02931346 0.03306531 0.00713221
v -0.02931346 0.03306531 0.00713221
v -0.02931346 0.03306531 0.00713221
v -0.02931346 0.03306531 0.00713221
v -0.02931346 0.03305881 0.00396670
v -0.02931346 0.03305881 0.00396670
v -0.02931346 0.03305881 0.00396670
v -0.02931346 0.03305881 0.00396670
v -0.02931346 0.03302628 0.00237922
v -0.02931346 0.03302628 0.00237922
v -0.02931346 0.03302628 0.00237922
v -0.02931346 0.03302628 0.00237922
v -0.02931346 0.03302628 0.00237922
v -0.02931346 0.03302628 0.00237922
v -0.02931346 0.03302628 0.00237922
v -0.02931346 0.03302628 0.00237922
v -0.03089616 0.03301328 0.00237922
v -0.03089616 0.03301328 0.00237922
v -0.03089616 0.03301328 0.00237922
v -0.03089616 0.03301328 0.00237922
v -0.03089616 0.03301328 0.00237922
v -0.02931346 0.03307181 0.02773166
v -0.02931346 0.03307181 0.02773166
v -0.02931346 0.03307181 0.02773166
v -0.02931346 0.03307181 0.02773166
v -0.02931346 0.03307181 0.02773166
v -0.02931346 0.03306856 0.01506017
v -0.02931346 0.03306856 0.01506017
v -0.02931346 0.03306856 0.01506017
v -0.02931346 0.03306856 0.01506017
v -0.02931346 0.03306856 0.01506017
v -0.01822359 0.03303278 0.00237922
v -0.01822359 0.03303278 0.00237922
v -0.01822359 0.03303278 0.00237922
v -0.01822359 0.03303278 0.00237922
v -0.01664089 0.03303278 0.00237922
v -0.01664089 0.03303278 0.00237922
v -0.01664089 0.03303278 0.00237922
v -0.01664089 0.03303278 0.00237922
v -0.01664089 0.03303278 0.00237922
v -0.01664089 0.03303278 0.00237922
v 0.00003585 0.03301002 0.00237922
v 0.00003585 0.03301002 0.00237922
v 0.00003585 0.03301002 0.00237922
v 0.00003585 0.03301002 0.00237922
v 0.00003585 0.03292221 0.00155713
v 0.00003585 0.03292221 0.00155713
v 0.00003585 0.03292221 0.00155713
v 0.00003585 0.00639738 0.09503893
v 0.00003585 0.00639738 0.09503893
v 0.00003585 0.00639738 0.09503893
v -0.00554737 -0.00014602 0.09449087
v -0.00554737 -0.00014602 0.09449087
v -0.00554737 -0.00014602 0.09449087
v -0.00554737 -0.00014602 0.09449087
v -0.00554737 -0.00014602 0.09449087
v -0.00554737 -0.00014602 0.09449087
v -0.03406522 -0.00014602 0.09468930
v -0.03406522 -0.00014602 0.09468930
v -0.03406522 -0.00014602 0.09468930
v -0.03406522 -0.00014602 0.09468930
v -0.03406522 0.00237768 0.09483104
v -0.03406522 0.00237768 0.09483104
v -0.03406522 0.00237768 0.09483104
v -0.03406522 0.00237768 0.09483104
v -0.03406522 0.00237768 0.09483104
v 0.00003585 0.03203111 0.09543579
v 0.00003585 0.03203111 0.09543579
v 0.00003585 0.03203111 0.09543579
v 0.00003585 0.03225226 0.09483104
v 0.00003585 0.03225226 0.09483104
v 0.00003585 0.03225226 0.09483104
v 0.00003585 0.03225226 0.09483104
v -0.00079562 0.03245715 0.09427353
v -0.00079562 0.03245715 0.09427353
v -0.00079562 0.03245715 0.09427353
v -0.00079562 0.03245715 0.09427353
v -0.00079562 0.03245715 0.09427353
v -0.01505454 0.03248642 0.09427353
v -0.01505454 0.03248642 0.09427353
v -0.01505454 0.03248642 0.09427353
v -0.01505454 0.03248642 0.09427353
v -0.01505454 0.03248642 0.09427353
v -0.01505454 0.03248642 0.09427353
v -0.01505454 0.03248642 0.09427353
v -0.01599176 -0.00014602 0.09468930
v -0.01599176 -0.00014602 0.09468930
v -0.01599176 -0.00014602 0.09468930
v -0.01599176 -0.00014602 0.09468930
v -0.00554737 0.00079386 0.09463260
v -0.00554737 0.00079386 0.09463260
v -0.00554737 0.00079386 0.09463260
v -0.00554737 0.00079386 0.09463260
v 0.00003585 0.00655674 0.09508617
v 0.00003585 0.00655674 0.09508617
v 0.00003585 0.00655674 0.09508617
v -0.03341974 -0.00014602 0.09469875
v -0.03341974 -0.00014602 0.09469875
v -0.03341974 -0.00014602 0.09469875
v -0.02931346 0.03256447 0.09268605
v -0.02931346 0.03256447 0.09268605
v -0.02931346 0.03256447 0.09268605
v -0.02931346 0.03256447 0.09268605
v -0.02931346 0.03256447 0.09268605
v -0.02931346 0.03256447 0.09268605
v -0.02931346 0.03256447 0.09268605
v -0.02931346 0.03262301 0.09110802
v -0.02931346 0.03262301 0.09110802
v -0.02931346 0.03262301 0.09110802
v -0.02931346 0.03262301 0.09110802
v -0.02931346 0.03262301 0.09110802
v -0.02931346 0.03267830 0.08952054
v -0.02931346 0.03267830 0.08952054
v -0.02931346 0.03267830 0.08952054
v -0.02931346 0.03267830 0.08952054
v -0.02931346 0.03267830 0.08952054
v -0.02931346 0.03267830 0.08952054
v -0.02931346 0.03267830 0.08952054
v -0.02931346 0.03294823 0.08160204
v -0.02931346 0.03294823 0.08160204
v -0.02931346 0.03294823 0.08160204
v -0.02931346 0.03294823 0.08160204
v -0.02931346 0.03294823 0.08160204
v -0.02931346 0.03294823 0.08160204
v -0.02931346 0.03294823 0.08160204
v -0.02931346 0.03294823 0.08160204
v -0.02931346 0.03294823 0.08160204
v -0.02931346 0.03294823 0.08160204
v -0.03089616 0.03293522 0.08160204
v -0.03089616 0.03293522 0.08160204
v -0.03089616 0.03293522 0.08160204
v -0.03089616 0.03293522 0.08160204
v -0.02931346 0.03299701 0.08001456
v -0.02931346 0.03299701 0.08001456
v -0.02931346 0.03299701 0.08001456
v -0.02931346 0.03299701 0.08001456
v -0.02931346 0.03303929 0.07842708
v -0.02931346 0.03303929 0.07842708
v -0.02931346 0.03303929 0.07842708
v -0.02931346 0.03303929 0.07842708
v -0.02931346 0.03303929 0.07842708
v -0.02772711 0.03307181 0.07526157
v -0.02772711 0.03307181 0.07526157
v -0.02772711 0.03307181 0.07526157
v -0.02772711 0.03307181 0.07526157
v -0.02772711 0.03307181 0.07526157
v -0.02772711 0.03307181 0.07526157
v -0.02772711 0.03307181 0.07526157
v -0.02772711 0.03307181 0.07526157
v -0.02772711 0.03307181 0.07526157
v -0.01664089 0.03304254 0.07842708
v -0.01664089 0.03304254 0.07842708
v -0.01664089 0.03304254 0.07842708
v -0.01664089 0.03304254 0.07842708
v -0.00079562 0.03304580 0.07842708
v -0.00079562 0.03304580 0.07842708
v -0.00079562 0.03304580 0.07842708
v -0.00079562 0.03304580 0.07842708
v -0.00079562 0.03304580 0.07842708
v -0.00079562 0.03304580 0.07842708
v -0.00237832 0.03306531 0.07684905
v -0.00237832 0.03306531 0.07684905
v -0.00237832 0.03306531 0.07684905
v -0.00237832 0.03306531 0.07684905
v -0.02614440 0.03307506 0.06892110
v -0.02614440 0.03307506 0.06892110
v -0.02614440 0.03307506 0.06892110
v -0.02614440 0.03307506 0.06892110
v -0.02614440 0.03307506 0.06892110
v -0.02772711 0.03306856 0.00713221
v -0.02772711 0.03306856 0.00713221
v -0.02772711 0.03306856 0.00713221
v -0.02772711 0.03306856 0.00713221
v -0.02772711 0.03306856 0.00713221
v -0.02772711 0.03306856 0.00713221
v -0.02772711 0.03306206 0.00396670
v -0.02772711 0.03306206 0.00396670
v -0.02772711 0.03306206 0.00396670
v -0.02772711 0.03306206 0.00396670
v -0.02772711 0.03306206 0.00396670
v -0.02772711 0.03306206 0.00396670
v -0.02772711 0.03306206 0.00396670
v -0.02772711 0.03306206 0.00396670
v -0.02772711 0.03307181 0.01663820
v -0.02772711 0.03307181 0.01663820
v -0.02772711 0.03307181 0.01663820
v -0.02772711 0.03307181 0.01663820
v -0.02772711 0.03307181 0.01663820
v -0.02772711 0.03307181 0.01663820
v -0.02614440 0.03307506 0.06416811
v -0.02614440 0.03307506 0.06416811
v -0.02614440 0.03307506 0.06416811
v -0.02614440 0.03307506 0.06416811
v 0.00003585 0.03305555 0.00396670
v 0.00003585 0.03305555 0.00396670
v 0.00003585 0.03305555 0.00396670
v 0.00003585 0.03305555 0.00396670
v 0.00003585 0.03303278 0.00313517
v 0.00003585 0.03303278 0.00313517
v 0.00003585 0.03303278 0.00313517
v 0.00003585 0.03245390 0.09427353
v 0.00003585 0.03245390 0.09427353
v 0.00003585 0.03245390 0.09427353
v 0.00003585 0.03256772 0.09268605
v 0.00003585 0.03256772 0.09268605
v 0.00003585 0.03256772 0.09268605
v 0.00003585 0.03256772 0.09268605
v 0.00003585 0.03256772 0.09268605
v -0.02138900 0.03256772 0.09268605
v -0.02138900 0.03256772 0.09268605
v -0.02138900 0.03256772 0.09268605
v -0.02138900 0.03256772 0.09268605
v -0.02138900 0.03256772 0.09268605
v 0.00003585 0.03259699 0.09186397
v 0.00003585 0.03259699 0.09186397
v 0.00003585 0.03259699 0.09186397
v 0.00003585 0.03259699 0.09186397
v 0.00003585 0.03259699 0.09186397
v 0.00003585 0.03259699 0.09186397
v -0.02614440 0.03267830 0.08952054
v -0.02614440 0.03267830 0.08952054
v -0.00079562 0.03295148 0.08160204
v -0.00079562 0.03295148 0.08160204
v -0.00079562 0.03295148 0.08160204
v -0.00079562 0.03295148 0.08160204
v -0.00079562 0.03295148 0.08160204
v -0.02772711 0.03284091 0.08476755
v -0.02772711 0.03284091 0.08476755
v -0.02772711 0.03284091 0.08476755
v -0.00079562 0.03300352 0.08001456
v -0.00079562 0.03300352 0.08001456
v -0.00079562 0.03300352 0.08001456
v -0.00079562 0.03300352 0.08001456
v -0.00079562 0.03300352 0.08001456
v -0.02772711 0.03300026 0.08001456
v -0.02772711 0.03300026 0.08001456
v -0.02772711 0.03300026 0.08001456
v -0.02772711 0.03300026 0.08001456
v -0.02772711 0.03300026 0.08001456
v -0.02772711 0.03300026 0.08001456
v -0.02772711 0.03300026 0.08001456
v 0.00003585 0.03307181 0.07526157
v 0.00003585 0.03307181 0.07526157
v 0.00003585 0.03307181 0.07526157
v -0.00079562 0.03307506 0.07367409
v -0.00079562 0.03307506 0.07367409
v -0.00079562 0.03307506 0.07367409
v -0.01822359 0.03307506 0.07209606
v -0.01822359 0.03307506 0.07209606
v -0.01822359 0.03307506 0.07209606
v -0.01822359 0.03307506 0.07209606
v 0.00003585 0.03302628 0.07918302
v 0.00003585 0.03302628 0.07918302
v 0.00003585 0.03302628 0.07918302
v 0.00003585 0.03302628 0.07918302
v 0.00003585 0.03302628 0.07918302
v 0.00003585 0.03304580 0.07842708
v 0.00003585 0.03304580 0.07842708
v 0.00003585 0.03304580 0.07842708
v 0.00003585 0.03306531 0.07684905
v 0.00003585 0.03306531 0.07684905
v 0.00003585 0.03306531 0.07684905
v -0.00079562 0.03307832 0.06575559
v -0.00079562 0.03307832 0.06575559
v -0.00079562 0.03307832 0.06575559
v -0.00079562 0.03307832 0.06575559
v -0.00079562 0.03307832 0.06575559
v -0.01980630 0.03307181 0.01347268
v -0.01980630 0.03307181 0.01347268
v -0.01980630 0.03307181 0.01347268
v -0.02455805 0.03306856 0.00713221
v -0.02455805 0.03306856 0.00713221
v -0.02455805 0.03306856 0.00713221
v -0.02455805 0.03306856 0.00713221
v -0.02455805 0.03306856 0.00713221
v -0.02138900 0.03306531 0.00555418
v -0.02138900 0.03306531 0.00555418
v -0.02138900 0.03306531 0.00555418
v -0.02138900 0.03306531 0.00555418
v 0.00003585 0.03305881 0.00472264
v 0.00003585 0.03305881 0.00472264
v 0.00003585 0.03305881 0.00472264
v 0.00003585 0.03305881 0.00472264
v 0.00003585 0.03295148 0.08160204
v 0.00003585 0.03295148 0.08160204
v 0.00003585 0.03295148 0.08160204
v 0.00003585 0.03300352 0.08001456
v 0.00003585 0.03300352 0.08001456
v 0.00003585 0.03300352 0.08001456
v 0.00003585 0.03307506 0.07367409
v 0.00003585 0.03307506 0.07367409
v 0.00003585 0.03307506 0.07367409
v 0.00003585 0.03307506 0.07367409
v 0.00003585 0.03307832 0.06575559
v 0.00003585 0.03307832 0.06575559
v 0.00003585 0.03307832 0.06575559
v -0.01822359 0.03307181 0.01347268
v -0.01822359 0.03307181 0.01347268
v -0.01822359 0.03307181 0.01347268
v -0.01822359 0.03307181 0.01347268
v -0.01822359 0.03307181 0.01347268
v 0.00003585 0.03306856 0.01264115
v 0.00003585 0.03306856 0.01264115
v 0.00003585 0.03306856 0.01264115
v 0.00003585 0.03306856 0.01264115
v 0.00003585 0.03306206 0.00631013
v 0.00003585 0.03306206 0.00631013
v 0.00003585 0.03306206 0.00631013
v 0.00003585 0.03306206 0.00631013
v 0.00003585 0.03307506 0.04274657
v 0.00003585 0.03307506 0.04274657
v 0.00003585 0.03307506 0.04274657
v -0.01505454 0.03307181 0.01506017
v -0.01505454 0.03307181 0.01506017
v 0.00003585 0.03307181 0.02456615
v 0.00003585 0.03307181 0.02456615
v 0.00003585 0.03307181 0.02456615
f 8 13 17
f 5 16 20
f 6 21 23
f 6 23 26
f 7 27 29
f 7 29 31
f 7 31 36
f 2 35 39
f 3 40 45
f 3 45 49
f 4 50 56
f 1 55 11
f 10 62 65
f 12 68 71
f 12 71 14
f 9 53 112
f 9 112 61
f 15 72 76
f 15 76 18
f 19 77 78
f 19 78 81
f 22 82 25
f 24 32 28
f 25 82 33
f 27 31 29
f 30 79 143
f 30 143 227
f 30 227 224
f 30 224 219
f 30 219 328
f 30 328 471
f 30 471 657
f 30 657 652
f 30 652 860
f 30 860 1100
f 30 1100 1331
f 30 1331 1365
f 30 1365 1203
f 30 1203 1200
f 30 1200 1195
f 30 1195 1376
f 30 1376 1337
f 30 1337 1116
f 30 1116 892
f 30 892 889
f 30 889 863
f 30 863 660
f 30 660 483
f 30 483 480
f 30 480 477
f 30 477 474
f 30 474 336
f 30 336 230
f 30 230 147
f 30 147 89
f 30 89 86
f 30 86 83
f 30 83 37
f 30 37 34
f 38 85 44
f 43 84 88
f 42 87 92
f 41 91 98
f 41 98 47
f 46 97 167
f 46 167 100
f 48 102 54
f 52 101 108
f 51 107 111
f 58 115 121
f 57 120 124
f 60 126 64
f 59 110 189
f 59 189 116
f 63 125 206
f 63 206 128
f 66 130 134
f 67 135 69
f 70 136 141
f 70 141 73
f 77 81 78
f 74 142 145
f 75 146 80
f 90 150 96
f 94 149 155
f 93 154 161
f 95 163 165
f 99 166 174
f 99 174 106
f 103 172 179
f 104 180 182
f 104 182 187
f 105 188 109
f 114 195 117
f 113 186 194
f 118 197 199
f 119 202 123
f 122 201 204
f 129 210 133
f 127 205 304
f 127 304 209
f 132 208 218
f 131 216 222
f 131 222 137
f 138 223 225
f 139 226 228
f 140 229 144
f 148 234 153
f 151 233 335
f 151 335 238
f 152 239 159
f 158 237 242
f 156 241 248
f 157 249 252
f 160 254 171
f 162 173 164
f 169 253 259
f 168 258 263
f 170 264 178
f 175 261 377
f 175 377 268
f 176 269 273
f 177 274 181
f 181 274 185
f 184 272 280
f 183 279 193
f 190 284 288
f 192 290 294
f 196 296 297
f 196 297 198
f 191 278 285
f 200 298 301
f 200 301 203
f 207 303 217
f 215 302 309
f 213 306 314
f 211 312 318
f 212 319 322
f 214 323 327
f 214 327 221
f 220 326 332
f 231 338 346
f 232 347 333
f 235 334 348
f 235 348 246
f 236 247 240
f 244 340 356
f 243 355 358
f 245 365 251
f 250 364 257
f 256 372 262
f 255 363 371
f 260 370 376
f 266 384 271
f 267 374 390
f 265 388 383
f 270 382 277
f 276 381 395
f 275 394 283
f 282 400 406
f 282 406 286
f 281 393 399
f 287 408 410
f 289 413 292
f 291 412 416
f 293 418 420
f 295 423 427
f 296 428 297
f 298 430 301
f 299 429 434
f 300 435 308
f 307 433 442
f 305 441 313
f 311 437 448
f 310 446 452
f 310 452 316
f 315 451 455
f 317 456 320
f 321 457 464
f 321 464 325
f 324 463 331
f 330 462 470
f 329 469 473
f 337 476 345
f 343 478 482
f 342 481 487
f 341 486 493
f 339 490 354
f 344 475 479
f 350 495 508
f 349 507 513
f 351 515 517
f 352 518 357
f 353 489 499
f 359 519 524
f 360 526 529
f 361 530 533
f 362 535 369
f 368 534 539
f 366 538 545
f 367 546 375
f 373 544 389
f 379 552 556
f 380 557 391
f 378 387 551
f 385 542 563
f 386 564 550
f 392 558 398
f 397 555 569
f 396 568 591
f 396 591 405
f 401 572 577
f 403 579 581
f 407 584 409
f 404 590 596
f 402 595 573
f 411 586 415
f 414 585 599
f 417 601 419
f 421 602 604
f 422 607 425
f 424 606 613
f 426 614 432
f 431 612 440
f 438 618 624
f 436 622 447
f 439 611 619
f 445 620 628
f 443 627 640
f 444 642 450
f 449 641 454
f 453 639 461
f 459 638 646
f 458 645 649
f 460 651 466
f 465 650 655
f 467 656 658
f 468 659 472
f 484 662 674
f 485 675 492
f 491 670 678
f 488 677 498
f 497 676 668
f 496 666 684
f 494 681 506
f 500 691 695
f 502 699 701
f 503 702 704
f 504 707 510
f 505 680 714
f 501 710 692
f 509 706 718
f 511 719 721
f 512 725 521
f 514 522 516
f 520 724 729
f 523 730 732
f 525 739 527
f 528 740 532
f 531 738 537
f 536 737 543
f 540 736 744
f 541 745 562
f 547 749 554
f 549 560 756
f 548 754 750
f 553 748 567
f 561 742 762
f 559 760 755
f 566 747 768
f 565 766 797
f 565 797 587
f 570 773 778
f 570 778 575
f 571 594 774
f 574 777 781
f 576 783 785
f 578 787 580
f 582 789 791
f 583 794 598
f 588 798 802
f 589 803 592
f 593 804 772
f 597 793 807
f 600 808 603
f 605 810 609
f 608 809 814
f 610 816 616
f 615 815 821
f 617 822 623
f 621 819 630
f 625 826 637
f 629 818 833
f 626 829 827
f 636 823 835
f 635 834 841
f 631 839 845
f 632 846 849
f 633 852 854
f 634 855 643
f 644 856 647
f 648 857 653
f 654 858 861
f 661 865 673
f 667 869 875
f 665 874 882
f 664 881 888
f 663 887 683
f 672 864 891
f 671 890 897
f 669 896 871
f 682 886 900
f 679 898 713
f 688 902 906
f 687 905 911
f 686 910 917
f 690 920 694
f 689 708 928
f 685 922 901
f 693 919 941
f 696 946 948
f 697 949 952
f 698 953 700
f 700 953 703
f 705 955 715
f 709 957 929
f 713 898 964
f 712 963 878
f 711 877 962
f 716 956 968
f 717 970 972
f 720 974 722
f 723 975 726
f 727 976 981
f 728 983 985
f 731 987 733
f 734 988 993
f 735 995 743
f 741 994 761
f 746 751 1005
f 746 1005 767
f 753 758 1001
f 752 999 1006
f 759 989 1010
f 757 1009 1000
f 765 1002 1015
f 763 1014 1020
f 764 1021 1056
f 764 1056 795
f 769 1023 1028
f 771 1029 775
f 770 800 1036
f 769 1034 1023
f 776 1030 779
f 780 1031 1300
f 780 1300 1038
f 782 1040 784
f 786 1042 1044
f 788 1046 1048
f 788 1048 790
f 792 1052 806
f 796 1058 801
f 799 1057 1035
f 805 1051 813
f 812 1063 820
f 811 1050 1062
f 817 1061 832
f 828 830 1067
f 825 1064 1075
f 824 1073 838
f 831 1059 1068
f 837 1071 1081
f 836 1079 844
f 843 1077 1085
f 842 1083 1095
f 840 1093 848
f 847 1088 850
f 851 1090 1097
f 853 1099 1327
f 853 1327 1324
f 853 1324 1479
f 853 1479 1476
f 853 1476 1562
f 853 1562 1588
f 853 1588 1584
f 853 1584 1596
f 853 1596 1591
f 853 1591 1575
f 853 1575 1572
f 853 1572 1523
f 853 1523 1541
f 853 1541 1538
f 853 1538 1533
f 853 1533 1568
f 853 1568 1565
f 853 1565 1498
f 853 1498 1487
f 853 1487 1482
f 853 1482 1352
f 853 1352 1348
f 853 1348 1140
f 853 1140 1136
f 853 1136 908
f 853 908 904
f 853 904 1133
f 853 1133 1164
f 853 1164 1375
f 853 1375 1330
f 853 1330 1102
f 853 1102 862
f 853 862 859
f 866 1105 1111
f 867 1112 959
f 868 960 872
f 870 895 1107
f 873 961 876
f 879 965 1113
f 880 1115 884
f 883 1114 966
f 885 967 899
f 893 1118 1129
f 894 1130 1106
f 903 925 1131
f 907 1134 913
f 915 1135 1138
f 914 1137 1142
f 912 1141 1150
f 909 1149 916
f 918 1152 939
f 926 1157 1159
f 927 1160 1132
f 930 958 1108
f 931 1109 1165
f 934 1166 1171
f 933 1170 1174
f 935 1175 1178
f 936 1179 1182
f 938 1183 1187
f 937 1186 1191
f 932 1190 1197
f 921 1196 1201
f 923 1202 1204
f 924 1205 1154
f 940 1153 1209
f 942 1210 1363
f 942 1363 1211
f 943 1213 1215
f 944 1217 1219
f 945 1220 947
f 950 1222 1224
f 951 1226 954
f 956 1227 968
f 969 1228 1231
f 971 1233 978
f 971 978 973
f 977 1232 1238
f 979 1239 1242
f 980 1244 1246
f 982 1250 991
f 984 992 986
f 990 1249 1011
f 998 1007 1256
f 997 1254 1262
f 996 1261 1004
f 1003 1260 1016
f 1008 1248 1257
f 1013 1258 1419
f 1013 1419 1269
f 1012 1268 1272
f 1012 1272 1017
f 1018 1273 1277
f 1019 1278 1305
f 1019 1305 1055
f 1022 1033 1283
f 1022 1283 1026
f 1024 1286 1293
f 1027 1295 1297
f 1025 1281 1287
f 1032 1054 1282
f 1037 1299 1074
f 1039 1076 1065
f 1041 1066 1043
f 1045 1069 1047
f 1049 1070 1060
f 1053 1304 1309
f 1054 1310 1282
f 1072 1298 1082
f 1080 1296 1294
f 1078 1292 1086
f 1084 1290 1096
f 1094 1289 1314
f 1087 1312 1316
f 1089 1319 1321
f 1092 1323 1326
f 1091 1325 1098
f 1101 1329 1336
f 1103 1127 1168
f 1104 1169 1110
f 1117 1340 1128
f 1125 1344 1194
f 1121 1193 1189
f 1120 1188 1185
f 1119 1184 1180
f 1122 1181 1176
f 1123 1177 1172
f 1124 1173 1167
f 1126 1339 1345
f 1139 1347 1148
f 1147 1346 1350
f 1146 1349 1355
f 1145 1353 1360
f 1144 1359 1208
f 1143 1207 1151
f 1155 1206 1366
f 1156 1367 1369
f 1158 1371 1161
f 1162 1372 1333
f 1163 1334 1373
f 1192 1341 1198
f 1199 1342 1377
f 1212 1364 1381
f 1214 1382 1216
f 1218 1383 1221
f 1223 1384 1225
f 1225 1384 1229
f 1230 1385 1390
f 1230 1390 1235
f 1234 1389 1396
f 1236 1397 1404
f 1237 1405 1240
f 1241 1406 1408
f 1243 1410 1245
f 1247 1411 1255
f 1253 1409 1407
f 1251 1403 1414
f 1252 1415 1420
f 1252 1420 1259
f 1267 1428 1270
f 1266 1417 1433
f 1265 1431 1439
f 1264 1436 1443
f 1263 1442 1424
f 1271 1429 1276
f 1275 1427 1448
f 1274 1447 1472
f 1274 1472 1302
f 1279 1453 1462
f 1279 1462 1285
f 1280 1308 1454
f 1284 1461 1291
f 1288 1460 1313
f 1303 1468 1307
f 1301 1471 1466
f 1306 1467 1452
f 1311 1456 1315
f 1317 1457 1473
f 1318 1475 1477
f 1320 1478 1322
f 1328 1374 1335
f 1332 1370 1368
f 1338 1378 1343
f 1351 1480 1356
f 1357 1481 1486
f 1354 1485 1361
f 1358 1484 1490
f 1362 1491 1379
f 1380 1492 1388
f 1387 1488 1496
f 1386 1495 1393
f 1391 1499 1564
f 1391 1564 1502
f 1394 1504 1506
f 1395 1508 1401
f 1392 1494 1500
f 1400 1507 1505
f 1398 1503 1511
f 1399 1512 1514
f 1402 1519 1412
f 1413 1520 1418
f 1416 1518 1432
f 1423 1440 1539
f 1423 1539 1522
f 1422 1521 1571
f 1421 1570 1525
f 1425 1526 1528
f 1426 1530 1446
f 1430 1517 1438
f 1437 1516 1535
f 1435 1531 1537
f 1434 1536 1540
f 1434 1540 1441
f 1445 1529 1545
f 1444 1544 1469
f 1449 1548 1577
f 1449 1577 1550
f 1450 1551 1455
f 1451 1465 1549
f 1455 1551 1555
f 1459 1556 1560
f 1458 1559 1474
f 1464 1470 1546
f 1463 1543 1547
f 1483 1497 1489
f 1493 1564 1499
f 1501 1563 1567
f 1501 1567 1510
f 1509 1566 1532
f 1513 1534 1515
f 1524 1569 1573
f 1524 1573 1542
f 1524 1542 1527
f 1543 1574 1576
f 1543 1576 1547
f 1554 1582 1587
f 1553 1586 1558
f 1552 1578 1581
f 1557 1585 1561
f 1574 1589 1576
f 1579 1590 1592
f 1580 1593 1583
f 1583 1593 1595
f 1590 1594 1592

