# https://github.com/mikedh/trimesh
v 0.00003585 0.03220321 -0.00042591
v 0.00003585 0.03220321 -0.00042591
v 0.00003585 0.03220321 -0.00042591
v 0.00003585 0.03220321 -0.00042591
v 0.00003585 0.03220321 -0.00042591
v 0.00003585 0.03220321 -0.00042591
v 0.01822376 0.03221622 -0.00042591
v 0.01822376 0.03221622 -0.00042591
v 0.01822376 0.03221622 -0.00042591
v 0.01822376 0.03221622 -0.00042591
v 0.03565097 0.02931112 -0.00061488
v 0.03565097 0.02931112 -0.00061488
v 0.03565097 0.02931112 -0.00061488
v 0.03565097 0.02931112 -0.00061488
v 0.03565097 0.02931112 -0.00061488
v 0.03565097 0.02931112 -0.00061488
v 0.03565097 0.02931112 -0.00061488
v 0.03565097 0.02931112 -0.00061488
v 0.03565097 0.02931112 -0.00061488
v 0.03565097 0.02931112 -0.00061488
v 0.03565097 0.02931112 -0.00061488
v 0.03565097 0.02931112 -0.00061488
v 0.00003585 0.03103857 -0.00042591
v 0.00003585 0.03103857 -0.00042591
v 0.00003585 0.03103857 -0.00042591
v 0.00003585 0.03103857 -0.00042591
v 0.00003585 0.03103857 -0.00042591
v 0.00003585 0.03103857 -0.00042591
v 0.00003585 0.03284084 0.00079304
v 0.00003585 0.03284084 0.00079304
v 0.00003585 0.03284084 0.00079304
v 0.01664046 0.03287662 0.00079304
v 0.01664046 0.03287662 0.00079304
v 0.01664046 0.03287662 0.00079304
v 0.01664046 0.03287662 0.00079304
v 0.01664046 0.03287662 0.00079304
v 0.01822376 0.03287987 0.00079304
v 0.01822376 0.03287987 0.00079304
v 0.01822376 0.03287987 0.00079304
v 0.01822376 0.03287987 0.00079304
v 0.01822376 0.03287987 0.00079304
v 0.01822376 0.03287987 0.00079304
v 0.01822376 0.03287987 0.00079304
v 0.01822376 0.03287987 0.00079304
v 0.01822376 0.03287987 0.00079304
v 0.03089743 0.03220972 -0.00042591
v 0.03089743 0.03220972 -0.00042591
v 0.03089743 0.03220972 -0.00042591
v 0.03089743 0.03220972 -0.00042591
v 0.03089743 0.03220972 -0.00042591
v 0.03089743 0.03220972 -0.00042591
v 0.03565097 0.00554658 -0.00058654
v 0.03565097 0.00554658 -0.00058654
v 0.03565097 0.00554658 -0.00058654
v 0.03565097 0.00554658 -0.00058654
v 0.03565097 0.00554658 -0.00058654
v 0.03248073 0.03220321 -0.00042591
v 0.03248073 0.03220321 -0.00042591
v 0.03248073 0.03220321 -0.00042591
v 0.03248073 0.03220321 -0.00042591
v 0.03248073 0.03220321 -0.00042591
v 0.03406403 0.03217393 -0.00042591
v 0.03406403 0.03217393 -0.00042591
v 0.03406403 0.03217393 -0.00042591
v 0.03406403 0.03217393 -0.00042591
v 0.03406403 0.03217393 -0.00042591
v 0.03406403 0.03217393 -0.00042591
v 0.03579656 0.03103206 -0.00041646
v 0.03579656 0.03103206 -0.00041646
v 0.03579656 0.03103206 -0.00041646
v 0.03579656 0.03103206 -0.00041646
v 0.03579656 0.03103206 -0.00041646
v 0.03579656 0.03103206 -0.00041646
v 0.03666282 0.02931112 -0.00026527
v 0.03666282 0.02931112 -0.00026527
v 0.03666282 0.02931112 -0.00026527
v 0.03666282 0.02931112 -0.00026527
v 0.03666282 0.02931112 -0.00026527
v 0.03666282 0.02931112 -0.00026527
v 0.03666282 0.02931112 -0.00026527
v 0.03666282 0.02931112 -0.00026527
v 0.03666282 0.02931112 -0.00026527
v 0.03667374 0.01663670 -0.00027472
v 0.03667374 0.01663670 -0.00027472
v 0.03667374 0.01663670 -0.00027472
v 0.03667738 0.01505565 -0.00027472
v 0.03667738 0.01505565 -0.00027472
v 0.03667738 0.01505565 -0.00027472
v 0.03667738 0.01505565 -0.00027472
v 0.03667738 0.01505565 -0.00027472
v 0.03667738 0.01505565 -0.00027472
v 0.03667738 0.01505565 -0.00027472
v 0.03667738 0.01347135 -0.00027472
v 0.03667738 0.01347135 -0.00027472
v 0.03667738 0.01347135 -0.00027472
v 0.03667738 0.01347135 -0.00027472
v 0.03667738 0.01347135 -0.00027472
v 0.03667738 0.01347135 -0.00027472
v 0.03565097 0.00396228 -0.00057709
v 0.03565097 0.00396228 -0.00057709
v 0.03565097 0.00396228 -0.00057709
v 0.03565097 0.00396228 -0.00057709
v 0.03565097 0.00396228 -0.00057709
v 0.03565097 -0.00015626 -0.00054874
v 0.03565097 -0.00015626 -0.00054874
v 0.03565097 -0.00015626 -0.00054874
v 0.03565097 -0.00015626 -0.00054874
v 0.00003585 -0.00015626 0.00134109
v 0.00003585 -0.00015626 0.00134109
v 0.00003585 -0.00015626 0.00134109
v 0.00003585 0.03292216 0.00154898
v 0.00003585 0.03292216 0.00154898
v 0.00003585 0.03292216 0.00154898
v 0.00003585 0.03301000 0.00238051
v 0.00003585 0.03301000 0.00238051
v 0.00003585 0.03301000 0.00238051
v 0.00003585 0.03301000 0.00238051
v 0.00003585 0.03301000 0.00238051
v 0.02931049 0.03286035 0.00079304
v 0.02931049 0.03286035 0.00079304
v 0.02931049 0.03286035 0.00079304
v 0.02931049 0.03286035 0.00079304
v 0.01664046 0.03303277 0.00238051
v 0.01664046 0.03303277 0.00238051
v 0.01664046 0.03303277 0.00238051
v 0.01664046 0.03303277 0.00238051
v 0.01664046 0.03303277 0.00238051
v 0.01664046 0.03303277 0.00238051
v 0.01822376 0.03303277 0.00238051
v 0.01822376 0.03303277 0.00238051
v 0.01822376 0.03303277 0.00238051
v 0.01822376 0.03303277 0.00238051
v 0.02931049 0.03302627 0.00238051
v 0.02931049 0.03302627 0.00238051
v 0.02931049 0.03302627 0.00238051
v 0.02931049 0.03302627 0.00238051
v 0.02931049 0.03302627 0.00238051
v 0.02931049 0.03302627 0.00238051
v 0.02931049 0.03302627 0.00238051
v 0.02931049 0.03302627 0.00238051
v 0.03089743 0.03285710 0.00079304
v 0.03089743 0.03285710 0.00079304
v 0.03089743 0.03285710 0.00079304
v 0.03089743 0.03285710 0.00079304
v 0.03089743 0.03285710 0.00079304
v 0.03089743 0.03285710 0.00079304
v 0.03665918 0.00396228 -0.00025582
v 0.03665918 0.00396228 -0.00025582
v 0.03665918 0.00396228 -0.00025582
v 0.03665918 0.00396228 -0.00025582
v 0.03665918 0.00396228 -0.00025582
v 0.03665918 0.00396228 -0.00025582
v 0.03665918 0.00396228 -0.00025582
v 0.03248073 0.03283108 0.00079304
v 0.03248073 0.03283108 0.00079304
v 0.03248073 0.03283108 0.00079304
v 0.03248073 0.03283108 0.00079304
v 0.03248073 0.03283108 0.00079304
v 0.03248073 0.03283108 0.00079304
v 0.03536707 0.03199826 -0.00028416
v 0.03536707 0.03199826 -0.00028416
v 0.03536707 0.03199826 -0.00028416
v 0.03536707 0.03199826 -0.00028416
v 0.03536707 0.03199826 -0.00028416
v 0.03406403 0.03274975 0.00079304
v 0.03406403 0.03274975 0.00079304
v 0.03406403 0.03274975 0.00079304
v 0.03406403 0.03274975 0.00079304
v 0.03406403 0.03274975 0.00079304
v 0.03406403 0.03274975 0.00079304
v 0.03406403 0.03274975 0.00079304
v 0.03642260 0.03165017 0.00011270
v 0.03642260 0.03165017 0.00011270
v 0.03642260 0.03165017 0.00011270
v 0.03642260 0.03165017 0.00011270
v 0.03642260 0.03165017 0.00011270
v 0.03642260 0.03165017 0.00011270
v 0.03658639 0.03059288 -0.00017077
v 0.03658639 0.03059288 -0.00017077
v 0.03658639 0.03059288 -0.00017077
v 0.03658639 0.03059288 -0.00017077
v 0.03658639 0.03059288 -0.00017077
v 0.03667010 0.02614252 -0.00026527
v 0.03667010 0.02614252 -0.00026527
v 0.03667010 0.02614252 -0.00026527
v 0.03698312 0.02931112 0.00079304
v 0.03698312 0.02931112 0.00079304
v 0.03698312 0.02931112 0.00079304
v 0.03698312 0.02931112 0.00079304
v 0.03698312 0.02931112 0.00079304
v 0.03698312 0.02931112 0.00079304
v 0.03698312 0.02931112 0.00079304
v 0.03700860 0.02772682 0.00079304
v 0.03700860 0.02772682 0.00079304
v 0.03700860 0.02772682 0.00079304
v 0.03700860 0.02772682 0.00079304
v 0.03700860 0.02772682 0.00079304
v 0.03701952 0.02614252 0.00079304
v 0.03701952 0.02614252 0.00079304
v 0.03701952 0.02614252 0.00079304
v 0.03701952 0.02614252 0.00079304
v 0.03701952 0.02614252 0.00079304
v 0.03701952 0.02614252 0.00079304
v 0.03702316 0.01505565 0.00079304
v 0.03702316 0.01505565 0.00079304
v 0.03702316 0.01505565 0.00079304
v 0.03702316 0.01505565 0.00079304
v 0.03702316 0.01347135 0.00079304
v 0.03702316 0.01347135 0.00079304
v 0.03702316 0.01347135 0.00079304
v 0.03702316 0.01347135 0.00079304
v 0.03702316 0.01347135 0.00079304
v 0.03699768 -0.00015626 0.00079304
v 0.03699768 -0.00015626 0.00079304
v 0.03699768 -0.00015626 0.00079304
v 0.03699768 -0.00015626 0.00079304
v 0.03699768 -0.00015626 0.00079304
v 0.03624789 -0.00015626 -0.00035976
v 0.03624789 -0.00015626 -0.00035976
v 0.03624789 -0.00015626 -0.00035976
v 0.03624789 -0.00015626 -0.00035976
v 0.00003585 -0.00015626 0.09283764
v 0.00003585 -0.00015626 0.09283764
v 0.00003585 -0.00015626 0.09283764
v 0.00003585 0.03303277 0.00313644
v 0.00003585 0.03303277 0.00313644
v 0.00003585 0.03303277 0.00313644
v 0.00003585 0.03305554 0.00396797
v 0.00003585 0.03305554 0.00396797
v 0.00003585 0.03305554 0.00396797
v 0.00003585 0.03305554 0.00396797
v 0.02772720 0.03306205 0.00396797
v 0.02772720 0.03306205 0.00396797
v 0.02772720 0.03306205 0.00396797
v 0.02772720 0.03306205 0.00396797
v 0.02772720 0.03306205 0.00396797
v 0.02772720 0.03306205 0.00396797
v 0.02772720 0.03306205 0.00396797
v 0.02772720 0.03306205 0.00396797
v 0.02931049 0.03305880 0.00396797
v 0.02931049 0.03305880 0.00396797
v 0.02931049 0.03305880 0.00396797
v 0.02931049 0.03305880 0.00396797
v 0.03089743 0.03304904 0.00396797
v 0.03089743 0.03304904 0.00396797
v 0.03089743 0.03304904 0.00396797
v 0.03089743 0.03304904 0.00396797
v 0.03089743 0.03304904 0.00396797
v 0.03089743 0.03304904 0.00396797
v 0.03089743 0.03301325 0.00238051
v 0.03089743 0.03301325 0.00238051
v 0.03089743 0.03301325 0.00238051
v 0.03089743 0.03301325 0.00238051
v 0.03089743 0.03301325 0.00238051
v 0.03664463 -0.00015626 -0.00022747
v 0.03664463 -0.00015626 -0.00022747
v 0.03664463 -0.00015626 -0.00022747
v 0.03678657 -0.00015626 0.00017884
v 0.03678657 -0.00015626 0.00017884
v 0.03678657 -0.00015626 0.00017884
v 0.03248073 0.03297422 0.00238051
v 0.03248073 0.03297422 0.00238051
v 0.03248073 0.03297422 0.00238051
v 0.03248073 0.03297422 0.00238051
v 0.03248073 0.03297422 0.00238051
v 0.03248073 0.03297422 0.00238051
v 0.03579656 0.03212188 0.00070800
v 0.03579656 0.03212188 0.00070800
v 0.03579656 0.03212188 0.00070800
v 0.03579656 0.03212188 0.00070800
v 0.03579656 0.03212188 0.00070800
v 0.03406403 0.03286686 0.00238051
v 0.03406403 0.03286686 0.00238051
v 0.03406403 0.03286686 0.00238051
v 0.03406403 0.03286686 0.00238051
v 0.03565097 0.03233659 0.00238051
v 0.03565097 0.03233659 0.00238051
v 0.03565097 0.03233659 0.00238051
v 0.03565097 0.03233659 0.00238051
v 0.03565097 0.03233659 0.00238051
v 0.03565097 0.03233659 0.00238051
v 0.03648811 0.03174451 0.00117101
v 0.03648811 0.03174451 0.00117101
v 0.03648811 0.03174451 0.00117101
v 0.03648811 0.03174451 0.00117101
v 0.03648811 0.03174451 0.00117101
v 0.03648811 0.03174451 0.00117101
v 0.03667738 0.03103206 0.00070800
v 0.03667738 0.03103206 0.00070800
v 0.03667738 0.03103206 0.00070800
v 0.03667738 0.03103206 0.00070800
v 0.03667738 0.03103206 0.00070800
v 0.03684481 0.03089543 0.00238051
v 0.03684481 0.03089543 0.00238051
v 0.03684481 0.03089543 0.00238051
v 0.03684481 0.03089543 0.00238051
v 0.03684481 0.03089543 0.00238051
v 0.03684481 0.03089543 0.00238051
v 0.03684481 0.03089543 0.00238051
v 0.03711779 0.02931112 0.00238051
v 0.03711779 0.02931112 0.00238051
v 0.03711779 0.02931112 0.00238051
v 0.03711779 0.02931112 0.00238051
v 0.03711779 0.02931112 0.00238051
v 0.03715783 0.02772682 0.00238051
v 0.03715783 0.02772682 0.00238051
v 0.03715783 0.02772682 0.00238051
v 0.03715783 0.02772682 0.00238051
v 0.03715783 0.02772682 0.00238051
v 0.03717239 0.02614252 0.00238051
v 0.03717239 0.02614252 0.00238051
v 0.03717239 0.02614252 0.00238051
v 0.03717239 0.02614252 0.00238051
v 0.03717239 0.02614252 0.00238051
v 0.03717239 0.02614252 0.00238051
v 0.03717239 0.02614252 0.00238051
v 0.03717239 0.02614252 0.00238051
v 0.03717239 -0.00015626 0.00238051
v 0.03717239 -0.00015626 0.00238051
v 0.03717239 -0.00015626 0.00238051
v 0.03717239 -0.00015626 0.00238051
v 0.03717239 -0.00015626 0.00238051
v 0.03707048 -0.00015626 0.00143559
v 0.03707048 -0.00015626 0.00143559
v 0.03707048 -0.00015626 0.00143559
v 0.00464743 -0.00015626 0.09424556
v 0.00464743 -0.00015626 0.09424556
v 0.00464743 -0.00015626 0.09424556
v 0.00003585 0.00639891 0.09503930
v 0.00003585 0.00639891 0.09503930
v 0.00003585 0.00639891 0.09503930
v 0.00003585 0.00639891 0.09503930
v 0.00003585 0.03305880 0.00472391
v 0.00003585 0.03305880 0.00472391
v 0.00003585 0.03305880 0.00472391
v 0.00003585 0.03305880 0.00472391
v 0.02139036 0.03306531 0.00554599
v 0.02139036 0.03306531 0.00554599
v 0.02139036 0.03306531 0.00554599
v 0.02139036 0.03306531 0.00554599
v 0.02139036 0.03306531 0.00554599
v 0.02772720 0.03306531 0.00554599
v 0.02772720 0.03306531 0.00554599
v 0.02772720 0.03306531 0.00554599
v 0.02931049 0.03306205 0.00554599
v 0.02931049 0.03306205 0.00554599
v 0.02931049 0.03306205 0.00554599
v 0.02931049 0.03306205 0.00554599
v 0.03248073 0.03301000 0.00396797
v 0.03248073 0.03301000 0.00396797
v 0.03248073 0.03301000 0.00396797
v 0.03248073 0.03301000 0.00396797
v 0.03248073 0.03301000 0.00396797
v 0.03089743 0.03305229 0.00554599
v 0.03089743 0.03305229 0.00554599
v 0.03089743 0.03305229 0.00554599
v 0.03089743 0.03305229 0.00554599
v 0.03089743 0.03305229 0.00554599
v 0.03089743 0.03305229 0.00554599
v 0.03248073 0.03301651 0.00554599
v 0.03248073 0.03301651 0.00554599
v 0.03248073 0.03301651 0.00554599
v 0.03248073 0.03301651 0.00554599
v 0.03248073 0.03301651 0.00554599
v 0.03406403 0.03290590 0.00396797
v 0.03406403 0.03290590 0.00396797
v 0.03406403 0.03290590 0.00396797
v 0.03406403 0.03290590 0.00396797
v 0.03406403 0.03290590 0.00396797
v 0.03406403 0.03290590 0.00396797
v 0.03565097 0.03237563 0.00396797
v 0.03565097 0.03237563 0.00396797
v 0.03565097 0.03237563 0.00396797
v 0.03565097 0.03237563 0.00396797
v 0.03565097 0.03237563 0.00396797
v 0.03652451 0.03178680 0.00238051
v 0.03652451 0.03178680 0.00238051
v 0.03652451 0.03178680 0.00238051
v 0.03652451 0.03178680 0.00238051
v 0.03652451 0.03178680 0.00238051
v 0.03652451 0.03178680 0.00238051
v 0.03687757 0.03089543 0.00396797
v 0.03687757 0.03089543 0.00396797
v 0.03687757 0.03089543 0.00396797
v 0.03687757 0.03089543 0.00396797
v 0.03687757 0.03089543 0.00396797
v 0.03687757 0.03089543 0.00396797
v 0.03715419 0.02931112 0.00396797
v 0.03715419 0.02931112 0.00396797
v 0.03715419 0.02931112 0.00396797
v 0.03715419 0.02931112 0.00396797
v 0.03715419 0.02931112 0.00396797
v 0.03715419 0.02931112 0.00396797
v 0.03715419 0.02931112 0.00396797
v 0.03719787 0.02772682 0.00396797
v 0.03719787 0.02772682 0.00396797
v 0.03719787 0.02772682 0.00396797
v 0.03719787 0.02772682 0.00396797
v 0.03719787 0.02772682 0.00396797
v 0.03719787 0.02772682 0.00396797
v 0.03720515 0.02614252 0.00396797
v 0.03720515 0.02614252 0.00396797
v 0.03720515 0.02614252 0.00396797
v 0.03720515 0.02614252 0.00396797
v 0.03720879 0.02455822 0.00396797
v 0.03720879 0.02455822 0.00396797
v 0.03720879 0.02455822 0.00396797
v 0.03720879 0.02455822 0.00396797
v 0.03720879 0.02455822 0.00396797
v 0.03720879 0.02297391 0.00396797
v 0.03720879 0.02297391 0.00396797
v 0.03720879 0.02297391 0.00396797
v 0.03720879 0.02297391 0.00396797
v 0.03720879 0.02297391 0.00396797
v 0.03720151 -0.00015626 0.00396797
v 0.03720151 -0.00015626 0.00396797
v 0.03720151 -0.00015626 0.00396797
v 0.00554646 -0.00015626 0.09448180
v 0.00554646 -0.00015626 0.09448180
v 0.00554646 -0.00015626 0.09448180
v 0.00554646 -0.00015626 0.09448180
v 0.00554646 -0.00015626 0.09448180
v 0.00554646 -0.00015626 0.09448180
v 0.00003585 0.00655507 0.09508654
v 0.00003585 0.00655507 0.09508654
v 0.00003585 0.00655507 0.09508654
v 0.00003585 0.03306205 0.00631137
v 0.00003585 0.03306205 0.00631137
v 0.00003585 0.03306205 0.00631137
v 0.00003585 0.03306205 0.00631137
v 0.02455696 0.03306856 0.00713345
v 0.02455696 0.03306856 0.00713345
v 0.02455696 0.03306856 0.00713345
v 0.02455696 0.03306856 0.00713345
v 0.02455696 0.03306856 0.00713345
v 0.02772720 0.03306856 0.00713345
v 0.02772720 0.03306856 0.00713345
v 0.02772720 0.03306856 0.00713345
v 0.02772720 0.03306856 0.00713345
v 0.02772720 0.03306856 0.00713345
v 0.02772720 0.03306856 0.00713345
v 0.02772720 0.03306856 0.00713345
v 0.02931049 0.03306531 0.00713345
v 0.02931049 0.03306531 0.00713345
v 0.02931049 0.03306531 0.00713345
v 0.02931049 0.03306531 0.00713345
v 0.02931049 0.03306531 0.00713345
v 0.03406403 0.03291891 0.00554599
v 0.03406403 0.03291891 0.00554599
v 0.03406403 0.03291891 0.00554599
v 0.03406403 0.03291891 0.00554599
v 0.03406403 0.03291891 0.00554599
v 0.03406403 0.03291891 0.00554599
v 0.03248073 0.03301976 0.00713345
v 0.03248073 0.03301976 0.00713345
v 0.03248073 0.03301976 0.00713345
v 0.03248073 0.03301976 0.00713345
v 0.03248073 0.03301976 0.00713345
v 0.03089743 0.03305554 0.01030838
v 0.03089743 0.03305554 0.01030838
v 0.03089743 0.03305554 0.01030838
v 0.03089743 0.03305554 0.01030838
v 0.03089743 0.03305554 0.01030838
v 0.03248073 0.03302301 0.01188639
v 0.03248073 0.03302301 0.01188639
v 0.03248073 0.03302301 0.01188639
v 0.03248073 0.03302301 0.01188639
v 0.03248073 0.03302301 0.01188639
v 0.03248073 0.03302301 0.01188639
v 0.03565097 0.03239515 0.00554599
v 0.03565097 0.03239515 0.00554599
v 0.03565097 0.03239515 0.00554599
v 0.03565097 0.03239515 0.00554599
v 0.03565097 0.03239515 0.00554599
v 0.03565097 0.03239515 0.00554599
v 0.03565097 0.03239515 0.00554599
v 0.03653907 0.03180632 0.00396797
v 0.03653907 0.03180632 0.00396797
v 0.03653907 0.03180632 0.00396797
v 0.03653907 0.03180632 0.00396797
v 0.03653907 0.03180632 0.00396797
v 0.03654999 0.03181608 0.00554599
v 0.03654999 0.03181608 0.00554599
v 0.03654999 0.03181608 0.00554599
v 0.03654999 0.03181608 0.00554599
v 0.03654999 0.03181608 0.00554599
v 0.03654999 0.03181608 0.00554599
v 0.03688849 0.03089543 0.00554599
v 0.03688849 0.03089543 0.00554599
v 0.03688849 0.03089543 0.00554599
v 0.03688849 0.03089543 0.00554599
v 0.03689577 0.03089543 0.00713345
v 0.03689577 0.03089543 0.00713345
v 0.03689577 0.03089543 0.00713345
v 0.03689577 0.03089543 0.00713345
v 0.03689577 0.03089543 0.00713345
v 0.03689577 0.03089543 0.00713345
v 0.03715783 0.02931112 0.00554599
v 0.03715783 0.02931112 0.00554599
v 0.03720151 0.02772682 0.00554599
v 0.03720151 0.02772682 0.00554599
v 0.03720151 0.02772682 0.00554599
v 0.03720151 0.02772682 0.00554599
v 0.03720879 0.02614252 0.00554599
v 0.03720879 0.02614252 0.00554599
v 0.03720879 0.02614252 0.00554599
v 0.03720879 0.02614252 0.00554599
v 0.03721243 0.02455822 0.00713345
v 0.03721243 0.02455822 0.00713345
v 0.03721243 0.02455822 0.00713345
v 0.03721243 0.02455822 0.00713345
v 0.03721243 0.02297391 0.00713345
v 0.03721243 0.02297391 0.00713345
v 0.03721243 0.02297391 0.00713345
v 0.03721243 0.02297391 0.00713345
v 0.03721243 0.02297391 0.00713345
v 0.03720515 -0.00015626 0.00460107
v 0.03720515 -0.00015626 0.00460107
v 0.03720515 -0.00015626 0.00460107
v 0.03720515 -0.00015626 0.00460107
v 0.01505353 -0.00015626 0.09467078
v 0.01505353 -0.00015626 0.09467078
v 0.01505353 -0.00015626 0.09467078
v 0.00554646 0.00079367 0.09463298
v 0.00554646 0.00079367 0.09463298
v 0.00554646 0.00079367 0.09463298
v 0.00554646 0.00079367 0.09463298
v 0.00554646 0.00079367 0.09463298
v 0.00003585 0.00700726 0.09519993
v 0.00003585 0.00700726 0.09519993
v 0.00003585 0.00700726 0.09519993
v 0.00003585 0.00700726 0.09519993
v 0.00003585 0.00700726 0.09519993
v 0.00003585 0.00700726 0.09519993
v 0.00003585 0.03306856 0.01264233
v 0.00003585 0.03306856 0.01264233
v 0.00003585 0.03306856 0.01264233
v 0.00003585 0.03306856 0.01264233
v 0.01822376 0.03307181 0.01347386
v 0.01822376 0.03307181 0.01347386
v 0.01822376 0.03307181 0.01347386
v 0.01822376 0.03307181 0.01347386
v 0.01822376 0.03307181 0.01347386
v 0.01980342 0.03307181 0.01347386
v 0.01980342 0.03307181 0.01347386
v 0.01980342 0.03307181 0.01347386
v 0.02772720 0.03307181 0.01663934
v 0.02772720 0.03307181 0.01663934
v 0.02772720 0.03307181 0.01663934
v 0.02772720 0.03307181 0.01663934
v 0.02772720 0.03307181 0.01663934
v 0.02772720 0.03307181 0.01663934
v 0.02931049 0.03306856 0.01347386
v 0.02931049 0.03306856 0.01347386
v 0.02931049 0.03306856 0.01347386
v 0.02931049 0.03306856 0.01347386
v 0.02931049 0.03306856 0.01347386
v 0.02931049 0.03306856 0.01347386
v 0.03406403 0.03292216 0.00713345
v 0.03406403 0.03292216 0.00713345
v 0.03406403 0.03292216 0.00713345
v 0.03406403 0.03292216 0.00713345
v 0.03565097 0.03240165 0.00713345
v 0.03565097 0.03240165 0.00713345
v 0.03565097 0.03240165 0.00713345
v 0.03565097 0.03240165 0.00713345
v 0.03565097 0.03240165 0.00713345
v 0.03406403 0.03293192 0.01981427
v 0.03406403 0.03293192 0.01981427
v 0.03406403 0.03293192 0.01981427
v 0.03406403 0.03293192 0.01981427
v 0.03406403 0.03293192 0.01981427
v 0.03089743 0.03305880 0.01822680
v 0.03089743 0.03305880 0.01822680
v 0.03089743 0.03305880 0.01822680
v 0.03089743 0.03305880 0.01822680
v 0.03089743 0.03305880 0.01822680
v 0.03089743 0.03305880 0.01822680
v 0.03248073 0.03302627 0.04041351
v 0.03248073 0.03302627 0.04041351
v 0.03248073 0.03302627 0.04041351
v 0.03248073 0.03302627 0.04041351
v 0.03406403 0.03293843 0.05466290
v 0.03406403 0.03293843 0.05466290
v 0.03406403 0.03293843 0.05466290
v 0.03406403 0.03293843 0.05466290
v 0.03406403 0.03293843 0.05466290
v 0.03655363 0.03182259 0.00713345
v 0.03655363 0.03182259 0.00713345
v 0.03655363 0.03182259 0.00713345
v 0.03655363 0.03182259 0.00713345
v 0.03655363 0.03182259 0.00713345
v 0.03655727 0.03182584 0.00872092
v 0.03655727 0.03182584 0.00872092
v 0.03655727 0.03182584 0.00872092
v 0.03655727 0.03182584 0.00872092
v 0.03655727 0.03182584 0.00872092
v 0.03655727 0.03182584 0.00872092
v 0.03689941 0.03089543 0.00872092
v 0.03689941 0.03089543 0.00872092
v 0.03689941 0.03089543 0.00872092
v 0.03689941 0.03089543 0.00872092
v 0.03689941 0.03089543 0.00872092
v 0.03689941 0.03089543 0.00872092
v 0.03716511 0.02931112 0.00872092
v 0.03716511 0.02931112 0.00872092
v 0.03716511 0.02931112 0.00872092
v 0.03716511 0.02931112 0.00872092
v 0.03716511 0.02931112 0.00872092
v 0.03720879 0.02772682 0.01188639
v 0.03720879 0.02772682 0.01188639
v 0.03720879 0.02772682 0.01188639
v 0.03720879 0.02772682 0.01188639
v 0.03720879 0.02772682 0.01188639
v 0.03720879 0.02772682 0.01188639
v 0.03720879 0.02772682 0.01188639
v 0.03721243 0.02614252 0.00872092
v 0.03721243 0.02614252 0.00872092
v 0.03721243 0.02614252 0.00872092
v 0.03721243 0.02614252 0.00872092
v 0.03721606 0.02455822 0.01347386
v 0.03721606 0.02455822 0.01347386
v 0.03721606 0.02455822 0.01347386
v 0.03721606 0.02455822 0.01347386
v 0.03721606 0.02297391 0.01347386
v 0.03721606 0.02297391 0.01347386
v 0.03721606 0.02297391 0.01347386
v 0.03721606 0.02297391 0.01347386
v 0.03721606 0.02297391 0.01347386
v 0.03721243 0.01822100 0.00872092
v 0.03720879 -0.00015626 0.00872092
v 0.03720879 -0.00015626 0.00872092
v 0.03720879 -0.00015626 0.00872092
v 0.03720879 -0.00015626 0.00872092
v 0.01664046 -0.00015626 0.09469913
v 0.01664046 -0.00015626 0.09469913
v 0.01664046 -0.00015626 0.09469913
v 0.01664046 -0.00015626 0.09469913
v 0.01664046 -0.00015626 0.09469913
v 0.00473479 0.00467147 0.09507710
v 0.00473479 0.00467147 0.09507710
v 0.00473479 0.00467147 0.09507710
v 0.00473479 0.00467147 0.09507710
v 0.00237986 0.00713088 0.09527553
v 0.00237986 0.00713088 0.09527553
v 0.00237986 0.00713088 0.09527553
v 0.00237986 0.00713088 0.09527553
v 0.00237986 0.00713088 0.09527553
v 0.00237986 0.00713088 0.09527553
v 0.00237986 0.00713088 0.09527553
v 0.00237986 0.00713088 0.09527553
v 0.00237986 0.00713088 0.09527553
v 0.00237986 0.00713088 0.09527553
v 0.00237986 0.00713088 0.09527553
v 0.00237986 0.00713088 0.09527553
v 0.00237986 0.00713088 0.09527553
v 0.00237986 0.00713088 0.09527553
v 0.00237986 0.00713088 0.09527553
v 0.00237986 0.00713088 0.09527553
v 0.00237986 0.00713088 0.09527553
v 0.00237986 0.00713088 0.09527553
v 0.00003585 0.02380348 0.09574798
v 0.00003585 0.02380348 0.09574798
v 0.00003585 0.02380348 0.09574798
v 0.00003585 0.03307181 0.02456721
v 0.00003585 0.03307181 0.02456721
v 0.00003585 0.03307181 0.02456721
v 0.01505353 0.03307181 0.01506132
v 0.01505353 0.03307181 0.01506132
v 0.00003585 0.03307506 0.04274746
v 0.00003585 0.03307506 0.04274746
v 0.00003585 0.03307506 0.04274746
v 0.00003585 0.03307832 0.06575625
v 0.00003585 0.03307832 0.06575625
v 0.00003585 0.03307832 0.06575625
v 0.00003585 0.03307832 0.06575625
v 0.00003585 0.03307832 0.06575625
v 0.00003585 0.03307832 0.06575625
v 0.02931049 0.03307181 0.02773269
v 0.02931049 0.03307181 0.02773269
v 0.02931049 0.03307181 0.02773269
v 0.02931049 0.03307181 0.02773269
v 0.02931049 0.03307181 0.02773269
v 0.02614390 0.03307506 0.06416878
v 0.02614390 0.03307506 0.06416878
v 0.02614390 0.03307506 0.06416878
v 0.02614390 0.03307506 0.06416878
v 0.03565097 0.03240491 0.00872092
v 0.03565097 0.03240491 0.00872092
v 0.03565097 0.03240491 0.00872092
v 0.03565097 0.03240491 0.00872092
v 0.03565097 0.03240491 0.00872092
v 0.03565097 0.03240491 0.00872092
v 0.03089743 0.03305880 0.07526214
v 0.03089743 0.03305880 0.07526214
v 0.03089743 0.03305880 0.07526214
v 0.03089743 0.03305880 0.07526214
v 0.03089743 0.03305880 0.07526214
v 0.03089743 0.03305880 0.07526214
v 0.03248073 0.03302627 0.07526214
v 0.03248073 0.03302627 0.07526214
v 0.03248073 0.03302627 0.07526214
v 0.03248073 0.03302627 0.07526214
v 0.03248073 0.03302627 0.07526214
v 0.03248073 0.03302627 0.07526214
v 0.03406403 0.03293843 0.05782837
v 0.03406403 0.03293843 0.05782837
v 0.03406403 0.03293843 0.05782837
v 0.03406403 0.03293843 0.05782837
v 0.03406403 0.03293843 0.05782837
v 0.03655727 0.03182584 0.01030838
v 0.03655727 0.03182584 0.01030838
v 0.03655727 0.03182584 0.01030838
v 0.03655727 0.03182584 0.01030838
v 0.03655727 0.03182584 0.01030838
v 0.03689941 0.03089543 0.01030838
v 0.03689941 0.03089543 0.01030838
v 0.03689941 0.03089543 0.01030838
v 0.03689941 0.03089543 0.01030838
v 0.03717967 0.02931112 0.03566056
v 0.03717967 0.02931112 0.03566056
v 0.03717967 0.02931112 0.03566056
v 0.03717967 0.02931112 0.03566056
v 0.03717603 0.02931112 0.01981427
v 0.03717603 0.02931112 0.01981427
v 0.03717603 0.02931112 0.01981427
v 0.03717603 0.02931112 0.01981427
v 0.03721606 0.02614252 0.01506132
v 0.03721606 0.02614252 0.01506132
v 0.03721606 0.02614252 0.01506132
v 0.03721606 0.02614252 0.01506132
v 0.03721606 0.02614252 0.01506132
v 0.03720879 0.02772682 0.06733426
v 0.03720879 0.02772682 0.06733426
v 0.03720879 0.02772682 0.06733426
v 0.03720879 0.02772682 0.06733426
v 0.03721971 0.02455822 0.04516645
v 0.03721971 0.02455822 0.04516645
v 0.03721971 0.02455822 0.04516645
v 0.03721971 0.02455822 0.04516645
v 0.03721971 0.02455822 0.04516645
v 0.03721971 0.02455822 0.04516645
v 0.03721971 0.02455822 0.04516645
v 0.03721971 0.02455822 0.04516645
v 0.03721606 0.01980531 0.01506132
v 0.03721606 0.01980531 0.01506132
v 0.03721606 0.01980531 0.01506132
v 0.03721243 -0.00015626 0.01728188
v 0.03721243 -0.00015626 0.01728188
v 0.03721243 -0.00015626 0.01728188
v 0.03721243 -0.00015626 0.01728188
v 0.03089743 -0.00015626 0.09470858
v 0.03089743 -0.00015626 0.09470858
v 0.03089743 -0.00015626 0.09470858
v 0.03406403 0.00396228 0.09491646
v 0.03406403 0.00396228 0.09491646
v 0.03406403 0.00396228 0.09491646
v 0.03406403 0.00396228 0.09491646
v 0.03406403 0.00396228 0.09491646
v 0.03406403 0.00671447 0.09504875
v 0.03406403 0.00671447 0.09504875
v 0.03406403 0.00671447 0.09504875
v 0.03406403 0.00671447 0.09504875
v 0.03406403 0.00750500 0.09508654
v 0.03406403 0.00750500 0.09508654
v 0.03406403 0.00750500 0.09508654
v 0.03406403 0.00750500 0.09508654
v 0.03406403 0.00871519 0.09514324
v 0.03406403 0.00871519 0.09514324
v 0.03406403 0.00871519 0.09514324
v 0.03406403 0.00871519 0.09514324
v 0.03406403 0.01188704 0.09528498
v 0.03406403 0.01188704 0.09528498
v 0.03406403 0.01188704 0.09528498
v 0.03406403 0.01188704 0.09528498
v 0.03406403 0.01663670 0.09548342
v 0.03406403 0.01663670 0.09548342
v 0.03406403 0.01663670 0.09548342
v 0.03406403 0.01822100 0.09554956
v 0.03406403 0.01822100 0.09554956
v 0.03406403 0.01822100 0.09554956
v 0.03406403 0.01822100 0.09554956
v 0.03406403 0.01822100 0.09554956
v 0.03406403 0.02297391 0.09571964
v 0.03406403 0.02297391 0.09571964
v 0.03406403 0.02297391 0.09571964
v 0.03406403 0.02297391 0.09571964
v 0.03406403 0.02297391 0.09571964
v 0.03406403 0.02614252 0.09582358
v 0.03406403 0.02614252 0.09582358
v 0.03406403 0.02614252 0.09582358
v 0.03406403 0.02614252 0.09582358
v 0.03406403 0.02614252 0.09582358
v 0.03406403 0.02614252 0.09582358
v 0.03406403 0.02772682 0.09587083
v 0.03406403 0.02772682 0.09587083
v 0.03406403 0.02772682 0.09587083
v 0.03406403 0.02772682 0.09587083
v 0.03406403 0.02772682 0.09587083
v 0.03406403 0.02772682 0.09587083
v 0.03406403 0.02772682 0.09587083
v 0.03406403 0.02772682 0.09587083
v 0.02931049 0.02931112 0.09591808
v 0.02931049 0.02931112 0.09591808
v 0.02931049 0.02931112 0.09591808
v 0.02931049 0.02931112 0.09591808
v 0.02931049 0.02931112 0.09591808
v 0.02931049 0.02931112 0.09591808
v 0.02931049 0.02931112 0.09591808
v 0.02931049 0.02931112 0.09591808
v 0.02931049 0.02931112 0.09591808
v 0.01822376 0.02772682 0.09587083
v 0.01822376 0.02772682 0.09587083
v 0.01822376 0.02772682 0.09587083
v 0.00003585 0.02855639 0.09588973
v 0.00003585 0.02855639 0.09588973
v 0.00003585 0.02855639 0.09588973
v 0.00003585 0.02855639 0.09588973
v 0.00003585 0.02855639 0.09588973
v 0.03248073 -0.00015626 0.09470858
v 0.03248073 -0.00015626 0.09470858
v 0.03248073 -0.00015626 0.09470858
v 0.03248073 -0.00015626 0.09470858
v 0.00003585 0.03307506 0.07367467
v 0.00003585 0.03307506 0.07367467
v 0.00003585 0.03307506 0.07367467
v 0.00003585 0.03307506 0.07367467
v 0.00079292 0.03307506 0.07367467
v 0.00079292 0.03307506 0.07367467
v 0.00079292 0.03307506 0.07367467
v 0.01822376 0.03307506 0.07208720
v 0.01822376 0.03307506 0.07208720
v 0.01822376 0.03307506 0.07208720
v 0.01822376 0.03307506 0.07208720
v 0.02614390 0.03307506 0.06892173
v 0.02614390 0.03307506 0.06892173
v 0.02614390 0.03307506 0.06892173
v 0.02614390 0.03307506 0.06892173
v 0.02614390 0.03307506 0.06892173
v 0.02931049 0.03307181 0.06892173
v 0.02931049 0.03307181 0.06892173
v 0.02931049 0.03307181 0.06892173
v 0.02931049 0.03307181 0.06892173
v 0.02931049 0.03307181 0.06892173
v 0.03565097 0.03240491 0.01030838
v 0.03565097 0.03240491 0.01030838
v 0.03565097 0.03240491 0.01030838
v 0.03565097 0.03240491 0.01030838
v 0.03565097 0.03240491 0.01030838
v 0.02931049 0.03306856 0.07526214
v 0.02931049 0.03306856 0.07526214
v 0.02931049 0.03306856 0.07526214
v 0.02931049 0.03306856 0.07526214
v 0.03089743 0.03305229 0.07684960
v 0.03089743 0.03305229 0.07684960
v 0.03089743 0.03305229 0.07684960
v 0.03089743 0.03305229 0.07684960
v 0.03089743 0.03305229 0.07684960
v 0.03248073 0.03301651 0.07684960
v 0.03248073 0.03301651 0.07684960
v 0.03248073 0.03301651 0.07684960
v 0.03248073 0.03301651 0.07684960
v 0.03248073 0.03301651 0.07684960
v 0.03406403 0.03290915 0.07526214
v 0.03406403 0.03290915 0.07526214
v 0.03406403 0.03290915 0.07526214
v 0.03406403 0.03290915 0.07526214
v 0.03565097 0.03238214 0.07526214
v 0.03565097 0.03238214 0.07526214
v 0.03565097 0.03238214 0.07526214
v 0.03565097 0.03238214 0.07526214
v 0.03565097 0.03238214 0.07526214
v 0.03565097 0.03238214 0.07526214
v 0.03565097 0.03238214 0.07526214
v 0.03654271 0.03181608 0.07526214
v 0.03654271 0.03181608 0.07526214
v 0.03654271 0.03181608 0.07526214
v 0.03654271 0.03181608 0.07526214
v 0.03654271 0.03181608 0.07526214
v 0.03654271 0.03181608 0.07526214
v 0.03689577 0.03089543 0.06892173
v 0.03689577 0.03089543 0.06892173
v 0.03689577 0.03089543 0.06892173
v 0.03689577 0.03089543 0.06892173
v 0.03689577 0.03089543 0.06892173
v 0.03717967 0.02931112 0.06892173
v 0.03717967 0.02931112 0.06892173
v 0.03717967 0.02931112 0.06892173
v 0.03717967 0.02931112 0.06892173
v 0.03717967 0.02931112 0.06892173
v 0.03717967 0.02931112 0.06892173
v 0.03717967 0.02931112 0.06892173
v 0.03721606 0.02614252 0.07208720
v 0.03721606 0.02614252 0.07208720
v 0.03721606 0.02614252 0.07208720
v 0.03721606 0.02614252 0.07208720
v 0.03721606 0.02614252 0.07208720
v 0.03721606 0.02614252 0.07208720
v 0.03720515 0.02772682 0.07526214
v 0.03720515 0.02772682 0.07526214
v 0.03720515 0.02772682 0.07526214
v 0.03720515 0.02772682 0.07526214
v 0.03720515 0.02772682 0.07526214
v 0.03720515 0.02772682 0.07526214
v 0.03720515 0.02772682 0.07526214
v 0.03720515 0.02772682 0.07526214
v 0.03720515 0.02772682 0.07526214
v 0.03721606 0.01663670 0.01981427
v 0.03721606 0.01822100 0.01663934
v 0.03721606 0.01822100 0.01663934
v 0.03721606 0.01822100 0.01663934
v 0.03721606 0.02297391 0.07526214
v 0.03721606 0.02297391 0.07526214
v 0.03721606 0.02297391 0.07526214
v 0.03721606 0.02297391 0.07526214
v 0.03721606 0.02297391 0.07526214
v 0.03721606 0.01980531 0.07526214
v 0.03721606 0.01980531 0.07526214
v 0.03721606 0.01980531 0.07526214
v 0.03721606 0.01980531 0.07526214
v 0.03721606 -0.00015626 0.07272975
v 0.03721606 -0.00015626 0.07272975
v 0.03721606 -0.00015626 0.07272975
v 0.03721606 -0.00015626 0.07272975
v 0.03721606 -0.00015626 0.06575625
v 0.03721606 -0.00015626 0.06575625
v 0.03721606 -0.00015626 0.06575625
v 0.03489753 0.00764489 0.09507710
v 0.03489753 0.00764489 0.09507710
v 0.03489753 0.00764489 0.09507710
v 0.03489753 0.00764489 0.09507710
v 0.03489753 0.00764489 0.09507710
v 0.03489753 0.00764489 0.09507710
v 0.03489753 0.00764489 0.09507710
v 0.03489753 0.00764489 0.09507710
v 0.03489753 0.00764489 0.09507710
v 0.03489753 0.00764489 0.09507710
v 0.03489753 0.00764489 0.09507710
v 0.03406403 -0.00015626 0.09468968
v 0.03406403 -0.00015626 0.09468968
v 0.03406403 -0.00015626 0.09468968
v 0.03406403 -0.00015626 0.09468968
v 0.03517052 0.01029949 0.09514324
v 0.03517052 0.01029949 0.09514324
v 0.03517052 0.01029949 0.09514324
v 0.03517052 0.01029949 0.09514324
v 0.03535978 0.01188704 0.09517159
v 0.03535978 0.01188704 0.09517159
v 0.03535978 0.01188704 0.09517159
v 0.03535978 0.01188704 0.09517159
v 0.03535978 0.01188704 0.09517159
v 0.03535978 0.01188704 0.09517159
v 0.03535978 0.01188704 0.09517159
v 0.03545442 0.01347135 0.09520938
v 0.03545442 0.01347135 0.09520938
v 0.03545442 0.01347135 0.09520938
v 0.03545442 0.01347135 0.09520938
v 0.03552721 0.01505565 0.09524718
v 0.03552721 0.01505565 0.09524718
v 0.03552721 0.01505565 0.09524718
v 0.03552721 0.01505565 0.09524718
v 0.03552721 0.01505565 0.09524718
v 0.03552721 0.01505565 0.09524718
v 0.03552721 0.01505565 0.09524718
v 0.03406403 0.02931112 0.09590862
v 0.03406403 0.02931112 0.09590862
v 0.03406403 0.02931112 0.09590862
v 0.03406403 0.02931112 0.09590862
v 0.03406403 0.02931112 0.09590862
v 0.03406403 0.02931112 0.09590862
v 0.03406403 0.02931112 0.09590862
v 0.03406403 0.02931112 0.09590862
v 0.03565097 0.01980531 0.09535112
v 0.03565097 0.01980531 0.09535112
v 0.03565097 0.01980531 0.09535112
v 0.03565097 0.01980531 0.09535112
v 0.03565097 0.01980531 0.09535112
v 0.03565097 0.02297391 0.09543617
v 0.03565097 0.02297391 0.09543617
v 0.03565097 0.02297391 0.09543617
v 0.03565097 0.02297391 0.09543617
v 0.03565097 0.02297391 0.09543617
v 0.02772720 0.03089543 0.09586138
v 0.02772720 0.03089543 0.09586138
v 0.02772720 0.03089543 0.09586138
v 0.02772720 0.03089543 0.09586138
v 0.02772720 0.03089543 0.09586138
v 0.02772720 0.03089543 0.09586138
v 0.01347023 0.03089543 0.09588028
v 0.01347023 0.03089543 0.09588028
v 0.01347023 0.03089543 0.09588028
v 0.01347023 0.03089543 0.09588028
v 0.01188693 0.03089543 0.09588028
v 0.01188693 0.03089543 0.09588028
v 0.01188693 0.03089543 0.09588028
v 0.01188693 0.03089543 0.09588028
v 0.01188693 0.03089543 0.09588028
v 0.01188693 0.03089543 0.09588028
v 0.00003585 0.02931112 0.09590862
v 0.00003585 0.02931112 0.09590862
v 0.00003585 0.02931112 0.09590862
v 0.00003585 0.02931112 0.09590862
v 0.00003585 0.03307181 0.07526214
v 0.00003585 0.03307181 0.07526214
v 0.00003585 0.03307181 0.07526214
v 0.02772720 0.03307181 0.07526214
v 0.02772720 0.03307181 0.07526214
v 0.02772720 0.03307181 0.07526214
v 0.02772720 0.03307181 0.07526214
v 0.02772720 0.03307181 0.07526214
v 0.02772720 0.03307181 0.07526214
v 0.02772720 0.03307181 0.07526214
v 0.02772720 0.03307181 0.07526214
v 0.02772720 0.03307181 0.07526214
v 0.02931049 0.03306205 0.07684960
v 0.02931049 0.03306205 0.07684960
v 0.02931049 0.03306205 0.07684960
v 0.02931049 0.03306205 0.07684960
v 0.02931049 0.03306205 0.07684960
v 0.02931049 0.03306205 0.07684960
v 0.02931049 0.03306205 0.07684960
v 0.02931049 0.03306205 0.07684960
v 0.03089743 0.03302952 0.07842761
v 0.03089743 0.03302952 0.07842761
v 0.03089743 0.03302952 0.07842761
v 0.03089743 0.03302952 0.07842761
v 0.03089743 0.03302952 0.07842761
v 0.03089743 0.03302952 0.07842761
v 0.03248073 0.03299048 0.07842761
v 0.03248073 0.03299048 0.07842761
v 0.03248073 0.03299048 0.07842761
v 0.03248073 0.03299048 0.07842761
v 0.03248073 0.03299048 0.07842761
v 0.03248073 0.03299048 0.07842761
v 0.03406403 0.03289939 0.07684960
v 0.03406403 0.03289939 0.07684960
v 0.03406403 0.03289939 0.07684960
v 0.03406403 0.03289939 0.07684960
v 0.03406403 0.03289939 0.07684960
v 0.03406403 0.03289939 0.07684960
v 0.03565097 0.03236912 0.07684960
v 0.03565097 0.03236912 0.07684960
v 0.03565097 0.03236912 0.07684960
v 0.03565097 0.03236912 0.07684960
v 0.03565097 0.03236912 0.07684960
v 0.03565097 0.03236912 0.07684960
v 0.03653907 0.03180957 0.07684960
v 0.03653907 0.03180957 0.07684960
v 0.03653907 0.03180957 0.07684960
v 0.03653907 0.03180957 0.07684960
v 0.03653907 0.03180957 0.07684960
v 0.03653907 0.03180957 0.07684960
v 0.03688849 0.03089543 0.07526214
v 0.03688849 0.03089543 0.07526214
v 0.03688849 0.03089543 0.07526214
v 0.03688849 0.03089543 0.07526214
v 0.03688849 0.03089543 0.07526214
v 0.03688849 0.03089543 0.07526214
v 0.03688849 0.03089543 0.07526214
v 0.03717603 0.02931112 0.07050919
v 0.03717603 0.02931112 0.07050919
v 0.03717603 0.02931112 0.07050919
v 0.03721243 0.02614252 0.07526214
v 0.03721243 0.02614252 0.07526214
v 0.03721243 0.02614252 0.07526214
v 0.03721243 0.02614252 0.07526214
v 0.03721243 0.02614252 0.07526214
v 0.03716875 0.02931112 0.07367467
v 0.03716875 0.02931112 0.07367467
v 0.03716875 0.02931112 0.07367467
v 0.03716875 0.02931112 0.07367467
v 0.03716147 0.02931112 0.07526214
v 0.03716147 0.02931112 0.07526214
v 0.03716147 0.02931112 0.07526214
v 0.03716147 0.02931112 0.07526214
v 0.03719059 0.02772682 0.07684960
v 0.03719059 0.02772682 0.07684960
v 0.03719059 0.02772682 0.07684960
v 0.03719059 0.02772682 0.07684960
v 0.03719059 0.02772682 0.07684960
v 0.03719059 0.02772682 0.07684960
v 0.03720151 0.02614252 0.07684960
v 0.03720151 0.02614252 0.07684960
v 0.03720151 0.02614252 0.07684960
v 0.03720151 0.02614252 0.07684960
v 0.03720151 0.02614252 0.07684960
v 0.03720515 0.02455822 0.07684960
v 0.03720515 0.02455822 0.07684960
v 0.03720515 0.02455822 0.07684960
v 0.03720515 0.02455822 0.07684960
v 0.03720515 0.02455822 0.07684960
v 0.03720515 0.02455822 0.07684960
v 0.03721243 -0.00015626 0.07526214
v 0.03721243 -0.00015626 0.07526214
v 0.03721243 -0.00015626 0.07526214
v 0.03720515 -0.00015626 0.07684960
v 0.03720515 -0.00015626 0.07684960
v 0.03720515 -0.00015626 0.07684960
v 0.03720515 -0.00015626 0.07684960
v 0.03559273 -0.00015626 0.09407548
v 0.03559273 -0.00015626 0.09407548
v 0.03559273 -0.00015626 0.09407548
v 0.03559273 -0.00015626 0.09407548
v 0.03559273 -0.00015626 0.09407548
v 0.03644443 0.01881308 0.09506765
v 0.03644443 0.01881308 0.09506765
v 0.03644443 0.01881308 0.09506765
v 0.03644443 0.01881308 0.09506765
v 0.03644443 0.01881308 0.09506765
v 0.03644443 0.01881308 0.09506765
v 0.03644443 0.01881308 0.09506765
v 0.03644443 0.01881308 0.09506765
v 0.03644443 0.01881308 0.09506765
v 0.03644443 0.01881308 0.09506765
v 0.03644443 0.01881308 0.09506765
v 0.03644443 0.01881308 0.09506765
v 0.03644443 0.01881308 0.09506765
v 0.03644443 0.01881308 0.09506765
v 0.03579656 0.01826004 0.09526609
v 0.03579656 0.01826004 0.09526609
v 0.03579656 0.01826004 0.09526609
v 0.03579656 0.01826004 0.09526609
v 0.03579656 0.01826004 0.09526609
v 0.03559273 0.01663670 0.09527553
v 0.03559273 0.01663670 0.09527553
v 0.03559273 0.01663670 0.09527553
v 0.03565097 0.02772682 0.09554956
v 0.03565097 0.02772682 0.09554956
v 0.03565097 0.02772682 0.09554956
v 0.03565097 0.02772682 0.09554956
v 0.03565097 0.02772682 0.09554956
v 0.03565097 0.02772682 0.09554956
v 0.03565097 0.02931112 0.09556845
v 0.03565097 0.02931112 0.09556845
v 0.03565097 0.02931112 0.09556845
v 0.03565097 0.02931112 0.09556845
v 0.03565097 0.02931112 0.09556845
v 0.03565097 0.02931112 0.09556845
v 0.03565097 0.02931112 0.09556845
v 0.03565097 0.02931112 0.09556845
v 0.03406403 0.03089543 0.09578578
v 0.03406403 0.03089543 0.09578578
v 0.03406403 0.03089543 0.09578578
v 0.03406403 0.03089543 0.09578578
v 0.03406403 0.03089543 0.09578578
v 0.03406403 0.03089543 0.09578578
v 0.03406403 0.03089543 0.09578578
v 0.03248073 0.03089543 0.09584248
v 0.03248073 0.03089543 0.09584248
v 0.03248073 0.03089543 0.09584248
v 0.03248073 0.03089543 0.09584248
v 0.03248073 0.03089543 0.09584248
v 0.03248073 0.03089543 0.09584248
v 0.03089743 0.03089543 0.09585193
v 0.03089743 0.03089543 0.09585193
v 0.03089743 0.03089543 0.09585193
v 0.03089743 0.03089543 0.09585193
v 0.03089743 0.03089543 0.09585193
v 0.02455696 0.03204706 0.09543617
v 0.02455696 0.03204706 0.09543617
v 0.02455696 0.03204706 0.09543617
v 0.02455696 0.03204706 0.09543617
v 0.02455696 0.03204706 0.09543617
v 0.02455696 0.03204706 0.09543617
v 0.01505353 0.03206332 0.09544562
v 0.01505353 0.03206332 0.09544562
v 0.01505353 0.03206332 0.09544562
v 0.01505353 0.03206332 0.09544562
v 0.01505353 0.03206332 0.09544562
v 0.01505353 0.03206332 0.09544562
v 0.01505353 0.03206332 0.09544562
v 0.01505353 0.03206332 0.09544562
v 0.01505353 0.03206332 0.09544562
v 0.01505353 0.03206332 0.09544562
v 0.00003585 0.03014069 0.09588973
v 0.00003585 0.03014069 0.09588973
v 0.00003585 0.03014069 0.09588973
v 0.00003585 0.03089543 0.09587083
v 0.00003585 0.03089543 0.09587083
v 0.00003585 0.03089543 0.09587083
v 0.00003585 0.03089543 0.09587083
v 0.00003585 0.03089543 0.09587083
v 0.00003585 0.03306531 0.07684960
v 0.00003585 0.03306531 0.07684960
v 0.00003585 0.03306531 0.07684960
v 0.00237986 0.03306531 0.07684960
v 0.00237986 0.03306531 0.07684960
v 0.00237986 0.03306531 0.07684960
v 0.00237986 0.03306531 0.07684960
v 0.00079292 0.03304578 0.07842761
v 0.00079292 0.03304578 0.07842761
v 0.00079292 0.03304578 0.07842761
v 0.00079292 0.03304578 0.07842761
v 0.00079292 0.03304578 0.07842761
v 0.00079292 0.03304578 0.07842761
v 0.01664046 0.03304253 0.07842761
v 0.01664046 0.03304253 0.07842761
v 0.01664046 0.03304253 0.07842761
v 0.01664046 0.03304253 0.07842761
v 0.02931049 0.03303928 0.07842761
v 0.02931049 0.03303928 0.07842761
v 0.02931049 0.03303928 0.07842761
v 0.02931049 0.03303928 0.07842761
v 0.02931049 0.03300024 0.08001508
v 0.02931049 0.03300024 0.08001508
v 0.02931049 0.03300024 0.08001508
v 0.02931049 0.03300024 0.08001508
v 0.02931049 0.03300024 0.08001508
v 0.02931049 0.03300024 0.08001508
v 0.02931049 0.03300024 0.08001508
v 0.02931049 0.03300024 0.08001508
v 0.03089743 0.03298723 0.08001508
v 0.03089743 0.03298723 0.08001508
v 0.03089743 0.03298723 0.08001508
v 0.03089743 0.03298723 0.08001508
v 0.03089743 0.03298723 0.08001508
v 0.03089743 0.03298723 0.08001508
v 0.03248073 0.03294494 0.08001508
v 0.03248073 0.03294494 0.08001508
v 0.03248073 0.03294494 0.08001508
v 0.03248073 0.03294494 0.08001508
v 0.03406403 0.03286361 0.07842761
v 0.03406403 0.03286361 0.07842761
v 0.03406403 0.03286361 0.07842761
v 0.03406403 0.03286361 0.07842761
v 0.03406403 0.03286361 0.07842761
v 0.03406403 0.03286361 0.07842761
v 0.03565097 0.03232358 0.07842761
v 0.03565097 0.03232358 0.07842761
v 0.03565097 0.03232358 0.07842761
v 0.03565097 0.03232358 0.07842761
v 0.03565097 0.03232358 0.07842761
v 0.03651723 0.03178355 0.07842761
v 0.03651723 0.03178355 0.07842761
v 0.03651723 0.03178355 0.07842761
v 0.03651723 0.03178355 0.07842761
v 0.03651723 0.03178355 0.07842761
v 0.03651723 0.03178355 0.07842761
v 0.03651723 0.03178355 0.07842761
v 0.03651723 0.03178355 0.07842761
v 0.03687393 0.03089543 0.07684960
v 0.03687393 0.03089543 0.07684960
v 0.03687393 0.03089543 0.07684960
v 0.03687393 0.03089543 0.07684960
v 0.03687393 0.03089543 0.07684960
v 0.03714691 0.02931112 0.07684960
v 0.03714691 0.02931112 0.07684960
v 0.03714691 0.02931112 0.07684960
v 0.03714691 0.02931112 0.07684960
v 0.03715055 0.02772682 0.07842761
v 0.03715055 0.02772682 0.07842761
v 0.03715055 0.02772682 0.07842761
v 0.03715055 0.02772682 0.07842761
v 0.03715055 0.02772682 0.07842761
v 0.03715055 0.02772682 0.07842761
v 0.03716875 0.02614252 0.07842761
v 0.03716875 0.02614252 0.07842761
v 0.03716875 0.02614252 0.07842761
v 0.03716875 0.02614252 0.07842761
v 0.03716875 0.02614252 0.07842761
v 0.03716875 0.02614252 0.07842761
v 0.03716875 0.02614252 0.07842761
v 0.03716875 0.02614252 0.07842761
v 0.03717239 0.02138961 0.07842761
v 0.03717239 0.02138961 0.07842761
v 0.03717239 0.02138961 0.07842761
v 0.03717239 0.02138961 0.07842761
v 0.03717239 -0.00015626 0.07842761
v 0.03717239 -0.00015626 0.07842761
v 0.03717239 -0.00015626 0.07842761
v 0.03717239 -0.00015626 0.07842761
v 0.03606954 -0.00015626 0.09361247
v 0.03606954 -0.00015626 0.09361247
v 0.03606954 -0.00015626 0.09361247
v 0.03645172 0.01980531 0.09507710
v 0.03645172 0.01980531 0.09507710
v 0.03645172 0.01980531 0.09507710
v 0.03648447 0.02455822 0.09512435
v 0.03648447 0.02455822 0.09512435
v 0.03648447 0.02455822 0.09512435
v 0.03648447 0.02455822 0.09512435
v 0.03648447 0.02455822 0.09512435
v 0.03649175 0.02614252 0.09514324
v 0.03649175 0.02614252 0.09514324
v 0.03649175 0.02614252 0.09514324
v 0.03649175 0.02614252 0.09514324
v 0.03649175 0.02614252 0.09514324
v 0.03649175 0.02614252 0.09514324
v 0.03638620 -0.00015626 0.09322505
v 0.03638620 -0.00015626 0.09322505
v 0.03638620 -0.00015626 0.09322505
v 0.03644807 -0.00015626 0.09290378
v 0.03644807 -0.00015626 0.09290378
v 0.03644807 -0.00015626 0.09290378
v 0.03651359 -0.00015626 0.09243132
v 0.03651359 -0.00015626 0.09243132
v 0.03651359 -0.00015626 0.09243132
v 0.03651359 -0.00015626 0.09243132
v 0.03651359 -0.00015626 0.09243132
v 0.03649903 0.02772682 0.09515269
v 0.03649903 0.02772682 0.09515269
v 0.03649903 0.02772682 0.09515269
v 0.03649903 0.02772682 0.09515269
v 0.03649903 0.02772682 0.09515269
v 0.03649903 0.02772682 0.09515269
v 0.03649903 0.02772682 0.09515269
v 0.03649903 0.02772682 0.09515269
v 0.03649903 0.02772682 0.09515269
v 0.03649903 0.02772682 0.09515269
v 0.03649903 0.02772682 0.09515269
v 0.03649539 0.02931112 0.09515269
v 0.03649539 0.02931112 0.09515269
v 0.03649539 0.02931112 0.09515269
v 0.03649539 0.02931112 0.09515269
v 0.03649539 0.02931112 0.09515269
v 0.03649539 0.02931112 0.09515269
v 0.03647720 0.03024479 0.09511490
v 0.03647720 0.03024479 0.09511490
v 0.03647720 0.03024479 0.09511490
v 0.03647720 0.03024479 0.09511490
v 0.03647720 0.03024479 0.09511490
v 0.03647720 0.03024479 0.09511490
v 0.03647720 0.03024479 0.09511490
v 0.03647720 0.03024479 0.09511490
v 0.03647720 0.03024479 0.09511490
v 0.03647720 0.03024479 0.09511490
v 0.03567644 0.03082060 0.09537002
v 0.03567644 0.03082060 0.09537002
v 0.03567644 0.03082060 0.09537002
v 0.03567644 0.03082060 0.09537002
v 0.03516688 0.03182259 0.09523773
v 0.03516688 0.03182259 0.09523773
v 0.03516688 0.03182259 0.09523773
v 0.03516688 0.03182259 0.09523773
v 0.03516688 0.03182259 0.09523773
v 0.03516688 0.03182259 0.09523773
v 0.03516688 0.03182259 0.09523773
v 0.03406403 0.03193970 0.09536057
v 0.03406403 0.03193970 0.09536057
v 0.03406403 0.03193970 0.09536057
v 0.03406403 0.03193970 0.09536057
v 0.03406403 0.03193970 0.09536057
v 0.03248073 0.03200802 0.09540782
v 0.03248073 0.03200802 0.09540782
v 0.03248073 0.03200802 0.09540782
v 0.03248073 0.03200802 0.09540782
v 0.03248073 0.03200802 0.09540782
v 0.03248073 0.03200802 0.09540782
v 0.03089743 0.03202428 0.09541726
v 0.03089743 0.03202428 0.09541726
v 0.03089743 0.03202428 0.09541726
v 0.03089743 0.03202428 0.09541726
v 0.02931049 0.03203079 0.09542671
v 0.02931049 0.03203079 0.09542671
v 0.02931049 0.03203079 0.09542671
v 0.02931049 0.03203079 0.09542671
v 0.02931049 0.03203079 0.09542671
v 0.02931049 0.03203079 0.09542671
v 0.02931049 0.03245370 0.09427391
v 0.02931049 0.03245370 0.09427391
v 0.02931049 0.03245370 0.09427391
v 0.02931049 0.03245370 0.09427391
v 0.02931049 0.03245370 0.09427391
v 0.02614390 0.03246672 0.09427391
v 0.02614390 0.03246672 0.09427391
v 0.02614390 0.03246672 0.09427391
v 0.02614390 0.03246672 0.09427391
v 0.02614390 0.03246672 0.09427391
v 0.00237986 0.03203405 0.09544562
v 0.00237986 0.03203405 0.09544562
v 0.00237986 0.03203405 0.09544562
v 0.00237986 0.03203405 0.09544562
v 0.00237986 0.03203405 0.09544562
v 0.02455696 0.03246997 0.09427391
v 0.02455696 0.03246997 0.09427391
v 0.02455696 0.03246997 0.09427391
v 0.02455696 0.03246997 0.09427391
v 0.01505353 0.03248624 0.09427391
v 0.01505353 0.03248624 0.09427391
v 0.01505353 0.03248624 0.09427391
v 0.01505353 0.03248624 0.09427391
v 0.01505353 0.03248624 0.09427391
v 0.01505353 0.03248624 0.09427391
v 0.00003585 0.03245696 0.09427391
v 0.00003585 0.03245696 0.09427391
v 0.00003585 0.03245696 0.09427391
v 0.00003585 0.03245696 0.09427391
v 0.00003585 0.03245696 0.09427391
v 0.00003585 0.03149076 0.09564404
v 0.00003585 0.03149076 0.09564404
v 0.00003585 0.03149076 0.09564404
v 0.00003585 0.03304578 0.07842761
v 0.00003585 0.03304578 0.07842761
v 0.00003585 0.03304578 0.07842761
v 0.00003585 0.03302627 0.07918355
v 0.00003585 0.03302627 0.07918355
v 0.00003585 0.03302627 0.07918355
v 0.00003585 0.03302627 0.07918355
v 0.00003585 0.03302627 0.07918355
v 0.02931049 0.03294819 0.08160254
v 0.02931049 0.03294819 0.08160254
v 0.02931049 0.03294819 0.08160254
v 0.02931049 0.03294819 0.08160254
v 0.02931049 0.03294819 0.08160254
v 0.02931049 0.03294819 0.08160254
v 0.02931049 0.03294819 0.08160254
v 0.00079292 0.03300349 0.08001508
v 0.00079292 0.03300349 0.08001508
v 0.00079292 0.03300349 0.08001508
v 0.00079292 0.03300349 0.08001508
v 0.03089743 0.03293518 0.08160254
v 0.03089743 0.03293518 0.08160254
v 0.03089743 0.03293518 0.08160254
v 0.03089743 0.03293518 0.08160254
v 0.03248073 0.03289614 0.08160254
v 0.03248073 0.03289614 0.08160254
v 0.03248073 0.03289614 0.08160254
v 0.03248073 0.03289614 0.08160254
v 0.03248073 0.03289614 0.08160254
v 0.03406403 0.03281481 0.08001508
v 0.03406403 0.03281481 0.08001508
v 0.03406403 0.03281481 0.08001508
v 0.03406403 0.03281481 0.08001508
v 0.03406403 0.03281481 0.08001508
v 0.03406403 0.03281481 0.08001508
v 0.03532339 0.03198524 0.09268645
v 0.03532339 0.03198524 0.09268645
v 0.03532339 0.03198524 0.09268645
v 0.03532339 0.03198524 0.09268645
v 0.03532339 0.03198524 0.09268645
v 0.03531975 0.03192669 0.09427391
v 0.03531975 0.03192669 0.09427391
v 0.03531975 0.03192669 0.09427391
v 0.03531975 0.03192669 0.09427391
v 0.03531975 0.03192669 0.09427391
v 0.03531975 0.03192669 0.09427391
v 0.03531975 0.03192669 0.09427391
v 0.03531975 0.03192669 0.09427391
v 0.03648447 0.03174126 0.08001508
v 0.03648447 0.03174126 0.08001508
v 0.03648447 0.03174126 0.08001508
v 0.03648447 0.03174126 0.08001508
v 0.03683389 0.03089543 0.07842761
v 0.03683389 0.03089543 0.07842761
v 0.03683389 0.03089543 0.07842761
v 0.03683389 0.03089543 0.07842761
v 0.03683389 0.03089543 0.07842761
v 0.03683389 0.03089543 0.07842761
v 0.03710687 0.02931112 0.07842761
v 0.03710687 0.02931112 0.07842761
v 0.03710687 0.02931112 0.07842761
v 0.03710687 0.02931112 0.07842761
v 0.03710687 0.02931112 0.07842761
v 0.03652815 0.02931112 0.09427391
v 0.03652815 0.02931112 0.09427391
v 0.03652815 0.02931112 0.09427391
v 0.03711051 0.02138961 0.08001508
v 0.03711051 0.02138961 0.08001508
v 0.03711051 0.02138961 0.08001508
v 0.03711051 0.02138961 0.08001508
v 0.03711051 0.01663670 0.08001508
v 0.03711051 0.01663670 0.08001508
v 0.03711051 0.01663670 0.08001508
v 0.03711051 0.01663670 0.08001508
v 0.03714691 -0.00015626 0.07907016
v 0.03714691 -0.00015626 0.07907016
v 0.03714691 -0.00015626 0.07907016
v 0.03714691 -0.00015626 0.07907016
v 0.03661914 -0.00015626 0.09110844
v 0.03661914 -0.00015626 0.09110844
v 0.03661914 -0.00015626 0.09110844
v 0.03661914 -0.00015626 0.09110844
v 0.03661914 -0.00015626 0.09110844
v 0.03666646 -0.00015626 0.09015406
v 0.03666646 -0.00015626 0.09015406
v 0.03666646 -0.00015626 0.09015406
v 0.03669558 -0.00015626 0.08952097
v 0.03669558 -0.00015626 0.08952097
v 0.03669558 -0.00015626 0.08952097
v 0.03710687 -0.00015626 0.08001508
v 0.03710687 -0.00015626 0.08001508
v 0.03710687 -0.00015626 0.08001508
v 0.03610958 0.03106460 0.09427391
v 0.03610958 0.03106460 0.09427391
v 0.03610958 0.03106460 0.09427391
v 0.03610958 0.03106460 0.09427391
v 0.03645899 0.03170873 0.08109229
v 0.03645899 0.03170873 0.08109229
v 0.03645899 0.03170873 0.08109229
v 0.03645899 0.03170873 0.08109229
v 0.03645899 0.03170873 0.08109229
v 0.03406403 0.03227803 0.09427391
v 0.03406403 0.03227803 0.09427391
v 0.03406403 0.03227803 0.09427391
v 0.03406403 0.03227803 0.09427391
v 0.03406403 0.03227803 0.09427391
v 0.03248073 0.03241141 0.09427391
v 0.03248073 0.03241141 0.09427391
v 0.03248073 0.03241141 0.09427391
v 0.03248073 0.03241141 0.09427391
v 0.03248073 0.03241141 0.09427391
v 0.03089743 0.03244394 0.09427391
v 0.03089743 0.03244394 0.09427391
v 0.03089743 0.03244394 0.09427391
v 0.03089743 0.03244394 0.09427391
v 0.03089743 0.03244394 0.09427391
v 0.03089743 0.03244394 0.09427391
v 0.03089743 0.03244394 0.09427391
v 0.02931049 0.03256432 0.09268645
v 0.02931049 0.03256432 0.09268645
v 0.02931049 0.03256432 0.09268645
v 0.02931049 0.03256432 0.09268645
v 0.02931049 0.03256432 0.09268645
v 0.02931049 0.03256432 0.09268645
v 0.02931049 0.03256432 0.09268645
v 0.00003585 0.03203079 0.09543617
v 0.00003585 0.03203079 0.09543617
v 0.00003585 0.03203079 0.09543617
v 0.02139036 0.03256757 0.09268645
v 0.02139036 0.03256757 0.09268645
v 0.02139036 0.03256757 0.09268645
v 0.02139036 0.03256757 0.09268645
v 0.02139036 0.03256757 0.09268645
v 0.00003585 0.03256757 0.09268645
v 0.00003585 0.03256757 0.09268645
v 0.00003585 0.03256757 0.09268645
v 0.00003585 0.03256757 0.09268645
v 0.00003585 0.03300349 0.08001508
v 0.00003585 0.03300349 0.08001508
v 0.00003585 0.03300349 0.08001508
v 0.00079292 0.03295144 0.08160254
v 0.00079292 0.03295144 0.08160254
v 0.00079292 0.03295144 0.08160254
v 0.00079292 0.03295144 0.08160254
v 0.00079292 0.03295144 0.08160254
v 0.02772720 0.03284084 0.08476803
v 0.02772720 0.03284084 0.08476803
v 0.02772720 0.03284084 0.08476803
v 0.02931049 0.03267817 0.08952097
v 0.02931049 0.03267817 0.08952097
v 0.02931049 0.03267817 0.08952097
v 0.02931049 0.03267817 0.08952097
v 0.02931049 0.03267817 0.08952097
v 0.02931049 0.03267817 0.08952097
v 0.02931049 0.03267817 0.08952097
v 0.03089743 0.03261311 0.09110844
v 0.03089743 0.03261311 0.09110844
v 0.03089743 0.03261311 0.09110844
v 0.03089743 0.03261311 0.09110844
v 0.03089743 0.03261311 0.09110844
v 0.03089743 0.03261311 0.09110844
v 0.03089743 0.03288313 0.08318056
v 0.03089743 0.03288313 0.08318056
v 0.03089743 0.03288313 0.08318056
v 0.03089743 0.03288313 0.08318056
v 0.03089743 0.03288313 0.08318056
v 0.03248073 0.03284409 0.08318056
v 0.03248073 0.03284409 0.08318056
v 0.03248073 0.03284409 0.08318056
v 0.03248073 0.03284409 0.08318056
v 0.03248073 0.03284409 0.08318056
v 0.03406403 0.03239515 0.09268645
v 0.03406403 0.03239515 0.09268645
v 0.03406403 0.03239515 0.09268645
v 0.03406403 0.03239515 0.09268645
v 0.03406403 0.03239515 0.09268645
v 0.03406403 0.03239515 0.09268645
v 0.03248073 0.03252853 0.09268645
v 0.03248073 0.03252853 0.09268645
v 0.03248073 0.03252853 0.09268645
v 0.03248073 0.03252853 0.09268645
v 0.03248073 0.03252853 0.09268645
v 0.03248073 0.03252853 0.09268645
v 0.03248073 0.03252853 0.09268645
v 0.03089743 0.03255455 0.09268645
v 0.03089743 0.03255455 0.09268645
v 0.03089743 0.03255455 0.09268645
v 0.03089743 0.03255455 0.09268645
v 0.02931049 0.03262287 0.09110844
v 0.02931049 0.03262287 0.09110844
v 0.02931049 0.03262287 0.09110844
v 0.02931049 0.03262287 0.09110844
v 0.02931049 0.03262287 0.09110844
v 0.00003585 0.03259684 0.09186437
v 0.00003585 0.03259684 0.09186437
v 0.00003585 0.03259684 0.09186437
v 0.00003585 0.03259684 0.09186437
v 0.00003585 0.03259684 0.09186437
v 0.00003585 0.03259684 0.09186437
v 0.00003585 0.03295144 0.08160254
v 0.00003585 0.03295144 0.08160254
v 0.00003585 0.03295144 0.08160254
v 0.02614390 0.03267817 0.08952097
v 0.02614390 0.03267817 0.08952097
f 1 8 12
f 5 21 23
f 6 28 110
f 6 110 224
f 6 224 332
f 6 332 426
f 6 426 534
f 6 534 664
f 6 664 819
f 6 819 1002
f 6 1002 1177
f 6 1177 1182
f 6 1182 1391
f 6 1391 1518
f 6 1518 1388
f 6 1388 1527
f 6 1527 1589
f 6 1589 1592
f 6 1592 1530
f 6 1530 1399
f 6 1399 1394
f 6 1394 1185
f 6 1185 1005
f 6 1005 827
f 6 827 678
f 6 678 672
f 6 672 667
f 6 667 538
f 6 538 430
f 6 430 336
f 6 336 231
f 6 231 227
f 6 227 118
f 6 118 113
f 6 113 31
f 4 29 33
f 3 32 44
f 2 42 10
f 7 46 11
f 9 38 48
f 22 55 24
f 13 47 57
f 14 58 62
f 15 65 68
f 19 70 74
f 20 75 84
f 18 83 87
f 17 86 95
f 16 93 52
f 25 56 102
f 26 103 106
f 27 107 109
f 30 111 35
f 36 112 117
f 34 116 45
f 40 119 49
f 43 114 127
f 37 124 130
f 39 132 134
f 41 135 120
f 50 121 141
f 51 143 59
f 54 94 149
f 53 148 101
f 60 145 154
f 61 156 63
f 66 160 69
f 64 158 165
f 67 168 161
f 72 164 173
f 73 174 179
f 71 178 76
f 78 183 89
f 77 88 85
f 81 180 186
f 82 187 194
f 80 193 201
f 79 198 184
f 90 185 199
f 92 200 205
f 91 204 209
f 91 209 98
f 97 208 216
f 96 215 153
f 100 147 220
f 99 219 105
f 104 218 255
f 104 255 258
f 104 258 213
f 104 213 323
f 104 323 318
f 104 318 415
f 104 415 517
f 104 517 631
f 104 631 748
f 104 748 925
f 104 925 921
f 104 921 1093
f 104 1093 1096
f 104 1096 1268
f 104 1268 1465
f 104 1465 1480
f 104 1480 1477
f 104 1477 1474
f 104 1474 1469
f 104 1469 1295
f 104 1295 1292
f 104 1292 1289
f 104 1289 1272
f 104 1272 1100
f 104 1100 939
f 104 939 820
f 104 820 752
f 104 752 635
f 104 635 521
f 104 521 418
f 104 418 326
f 104 326 222
f 104 222 108
f 115 226 128
f 122 136 142
f 126 225 230
f 125 228 237
f 123 233 129
f 131 234 133
f 137 235 240
f 138 242 244
f 140 246 251
f 139 250 144
f 146 252 155
f 150 256 221
f 152 214 260
f 151 259 257
f 157 253 261
f 159 263 166
f 162 170 267
f 163 269 172
f 167 265 272
f 169 274 276
f 171 278 268
f 175 271 283
f 176 286 288
f 177 290 181
f 182 291 188
f 189 292 296
f 190 297 300
f 192 302 307
f 191 305 196
f 197 306 312
f 195 310 202
f 203 311 206
f 207 313 320
f 207 320 212
f 211 319 325
f 210 324 217
f 223 328 331
f 229 333 238
f 239 334 339
f 232 338 342
f 236 343 345
f 236 345 241
f 243 347 354
f 243 354 245
f 249 350 262
f 249 262 254
f 247 358 360
f 248 362 349
f 264 352 365
f 266 367 273
f 270 279 282
f 275 369 371
f 275 371 277
f 281 373 377
f 280 376 284
f 285 380 293
f 287 295 289
f 294 381 385
f 298 386 388
f 299 390 301
f 303 393 395
f 304 396 308
f 309 398 314
f 316 399 401
f 317 402 406
f 315 405 410
f 315 410 321
f 322 411 416
f 327 423 330
f 329 422 425
f 335 427 340
f 341 428 434
f 337 432 437
f 338 438 342
f 344 441 443
f 344 443 346
f 348 445 355
f 351 363 448
f 353 450 366
f 359 455 361
f 356 447 461
f 357 463 465
f 357 465 454
f 364 457 559
f 364 559 449
f 368 452 470
f 370 472 372
f 374 477 378
f 375 473 478
f 379 480 382
f 383 481 484
f 384 486 488
f 387 490 389
f 391 491 496
f 392 497 498
f 394 499 500
f 394 500 397
f 400 502 504
f 400 504 403
f 404 506 407
f 408 507 508
f 409 509 512
f 409 512 413
f 414 513 519
f 412 518 417
f 419 523 526
f 420 528 532
f 421 533 424
f 429 536 435
f 433 535 541
f 431 540 545
f 431 545 436
f 439 546 549
f 440 551 553
f 442 555 444
f 446 557 459
f 451 562 689
f 451 689 563
f 453 564 471
f 456 469 569
f 458 570 560
f 460 558 574
f 462 577 464
f 466 578 580
f 467 582 584
f 468 585 568
f 474 566 588
f 476 590 483
f 475 482 479
f 485 591 492
f 487 494 489
f 495 597 599
f 497 603 605
f 497 605 498
f 493 592 596
f 499 607 500
f 501 609 611
f 503 614 505
f 505 614 617
f 507 619 508
f 510 620 731
f 510 731 621
f 511 622 625
f 511 625 515
f 516 626 630
f 516 630 633
f 514 632 520
f 522 639 525
f 524 638 641
f 527 643 531
f 529 642 660
f 530 661 663
f 537 666 669
f 537 669 543
f 542 668 671
f 539 670 674
f 539 674 544
f 544 674 547
f 552 681 554
f 548 677 685
f 550 686 679
f 556 682 573
f 561 571 688
f 565 692 593
f 567 595 589
f 572 586 690
f 575 683 844
f 575 844 697
f 576 699 701
f 576 701 579
f 581 703 706
f 581 706 583
f 587 709 845
f 587 845 691
f 594 693 848
f 594 848 711
f 598 714 716
f 598 716 600
f 601 719 888
f 601 888 720
f 602 721 724
f 604 725 606
f 608 726 610
f 616 729 618
f 612 727 722
f 613 723 891
f 613 891 733
f 615 736 895
f 615 895 728
f 624 732 744
f 623 741 627
f 628 742 745
f 629 747 634
f 626 633 630
f 634 747 751
f 636 754 657
f 637 658 640
f 653 756 760
f 654 761 765
f 652 764 769
f 651 768 773
f 650 772 776
f 650 776 780
f 648 779 785
f 647 784 790
f 646 789 796
f 645 795 804
f 655 808 812
f 656 814 817
f 659 818 662
f 644 753 821
f 649 822 755
f 665 671 668
f 673 824 828
f 673 828 831
f 676 833 836
f 675 835 684
f 680 687 838
f 680 838 840
f 695 843 853
f 694 852 1020
f 696 1022 855
f 698 856 700
f 702 857 859
f 704 862 1035
f 704 1035 864
f 705 865 707
f 708 867 869
f 710 871 846
f 712 849 877
f 713 878 881
f 715 883 717
f 718 885 887
f 730 896 737
f 734 892 903
f 735 906 893
f 743 749 908
f 743 908 910
f 742 909 745
f 740 898 916
f 739 915 920
f 739 920 924
f 738 923 926
f 743 927 749
f 746 911 750
f 749 910 908
f 758 930 763
f 757 823 940
f 759 941 934
f 762 929 767
f 766 928 770
f 771 931 774
f 775 932 777
f 778 933 781
f 782 935 943
f 783 944 786
f 787 945 947
f 788 948 791
f 792 949 954
f 793 955 958
f 794 959 798
f 797 966 807
f 799 960 973
f 800 974 978
f 801 979 1127
f 802 1128 970
f 806 965 986
f 805 984 992
f 803 990 994
f 811 995 1000
f 810 999 816
f 809 815 813
f 826 1003 1007
f 825 1006 829
f 830 1010 832
f 834 1011 837
f 839 1012 841
f 842 1014 851
f 847 874 876
f 850 1013 1019
f 854 1021 1202
f 854 1202 1023
f 858 1026 860
f 861 1027 1029
f 863 1032 1036
f 866 1038 868
f 870 1040 1042
f 872 1046 1048
f 873 1049 875
f 879 1050 1053
f 880 1054 882
f 884 1056 886
f 889 1057 1060
f 890 1062 902
f 894 907 1066
f 897 1067 914
f 900 1070 1075
f 899 1074 1249
f 899 1249 1078
f 904 1081 1084
f 905 1085 1063
f 901 1061 1071
f 913 1065 1092
f 912 1091 1098
f 912 1098 917
f 919 1095 922
f 918 1099 1094
f 937 951 946
f 936 942 1101
f 938 1102 952
f 953 1103 1111
f 950 1109 957
f 956 1108 964
f 963 1106 1123
f 962 1120 1126
f 961 1124 975
f 972 1129 1134
f 971 1133 1145
f 969 1142 1153
f 968 1149 1158
f 967 1155 988
f 976 1125 1119
f 977 1121 980
f 981 1122 1105
f 982 1107 1130
f 987 1154 1161
f 985 1159 1167
f 983 1166 991
f 989 1165 993
f 997 1175 1001
f 996 1171 1178
f 998 1180 1176
f 1004 1183 1186
f 1004 1186 1008
f 1009 1188 1015
f 1016 1189 1192
f 1017 1195 1197
f 1018 1198 1200
f 1024 1203 1209
f 1025 1210 1212
f 1028 1215 1030
f 1031 1217 1219
f 1033 1220 1222
f 1034 1223 1037
f 1039 1225 1041
f 1043 1227 1229
f 1044 1232 1234
f 1045 1236 1047
f 1051 1238 1241
f 1052 1242 1055
f 1058 1245 1247
f 1058 1247 1072
f 1059 1073 1069
f 1057 1068 1060
f 1064 1086 1090
f 1076 1248 1452
f 1077 1453 1254
f 1079 1255 1260
f 1080 1262 1082
f 1083 1263 1088
f 1087 1261 1266
f 1089 1267 1271
f 1089 1271 1097
f 1104 1273 1114
f 1113 1275 1279
f 1112 1278 1286
f 1110 1283 1131
f 1115 1274 1290
f 1116 1291 1293
f 1117 1294 1296
f 1118 1297 1276
f 1132 1284 1137
f 1140 1301 1312
f 1139 1311 1318
f 1136 1317 1329
f 1135 1328 1147
f 1138 1285 1300
f 1146 1327 1333
f 1144 1332 1342
f 1143 1338 1347
f 1141 1346 1152
f 1151 1343 1351
f 1150 1350 1358
f 1148 1355 1157
f 1156 1353 1162
f 1164 1354 1360
f 1163 1359 1367
f 1160 1365 1170
f 1172 1369 1179
f 1169 1364 1376
f 1168 1374 1380
f 1173 1382 1384
f 1174 1386 1370
f 1181 1372 1389
f 1184 1392 1190
f 1184 1190 1187
f 1191 1393 1395
f 1193 1398 1206
f 1194 1207 1196
f 1199 1208 1201
f 1211 1406 1412
f 1211 1412 1213
f 1205 1397 1410
f 1204 1409 1533
f 1204 1533 1400
f 1214 1414 1416
f 1216 1417 1218
f 1221 1418 1420
f 1221 1420 1224
f 1226 1424 1228
f 1230 1425 1428
f 1231 1429 1233
f 1235 1430 1434
f 1237 1435 1439
f 1239 1441 1443
f 1240 1444 1243
f 1244 1448 1450
f 1244 1450 1246
f 1250 1451 1324
f 1251 1326 1455
f 1252 1456 1314
f 1253 1316 1258
f 1259 1459 1264
f 1257 1315 1310
f 1256 1309 1458
f 1265 1460 1464
f 1265 1464 1270
f 1269 1463 1468
f 1277 1298 1280
f 1281 1299 1470
f 1282 1471 1287
f 1288 1472 1302
f 1303 1473 1475
f 1304 1476 1478
f 1305 1479 1481
f 1306 1482 1466
f 1308 1467 1462
f 1307 1461 1457
f 1313 1454 1325
f 1320 1485 1337
f 1319 1335 1330
f 1323 1449 1447
f 1322 1446 1491
f 1321 1489 1486
f 1336 1483 1437
f 1334 1431 1495
f 1331 1494 1341
f 1340 1492 1500
f 1339 1499 1348
f 1345 1497 1507
f 1344 1505 1352
f 1349 1503 1357
f 1356 1502 1362
f 1363 1504 1575
f 1363 1575 1514
f 1361 1513 1368
f 1366 1512 1377
f 1373 1517 1390
f 1371 1387 1516
f 1375 1511 1381
f 1379 1509 1522
f 1378 1521 1525
f 1383 1526 1385
f 1396 1528 1407
f 1401 1535 1537
f 1402 1538 1543
f 1403 1545 1548
f 1404 1549 1552
f 1405 1553 1411
f 1408 1529 1590
f 1408 1590 1531
f 1413 1555 1557
f 1413 1557 1415
f 1419 1560 1421
f 1422 1561 1564
f 1423 1567 1427
f 1426 1566 1433
f 1432 1565 1496
f 1438 1484 1488
f 1436 1487 1440
f 1442 1490 1445
f 1493 1562 1573
f 1493 1573 1501
f 1498 1571 1508
f 1506 1569 1578
f 1515 1576 1547
f 1515 1547 1583
f 1510 1581 1523
f 1519 1580 1587
f 1520 1588 1524
f 1532 1591 1593
f 1532 1593 1539
f 1534 1542 1536
f 1540 1594 1585
f 1541 1586 1579
f 1544 1582 1546
f 1550 1577 1568
f 1551 1570 1554
f 1556 1572 1558
f 1559 1574 1563
f 1584 1593 1591

