# https://github.com/mikedh/trimesh
v -0.03722142 -0.02297566 0.04675148
v -0.03722142 -0.02297566 0.04675148
v -0.03722142 -0.02297566 0.04675148
v -0.03722142 -0.02297566 0.04675148
v -0.03722142 -0.02297566 0.04675148
v -0.03722142 -0.02297566 0.04675148
v -0.03722142 -0.02297566 0.04675148
v -0.03722142 -0.02297566 0.04675148
v -0.03722142 -0.02297566 0.04675148
v -0.03722142 -0.02297566 0.04675148
v -0.03721413 -0.00014602 0.03090684
v -0.03721413 -0.00014602 0.03090684
v -0.03721413 -0.00014602 0.03090684
v -0.03721413 -0.00014602 0.03090684
v -0.03721413 -0.00014602 0.03090684
v -0.03721778 -0.01663481 0.01981187
v -0.03721778 -0.01663481 0.01981187
v -0.03721778 -0.01663481 0.01981187
v -0.03721778 -0.01822083 0.01663921
v -0.03721778 -0.01822083 0.01663921
v -0.03721778 -0.01822083 0.01663921
v -0.03721778 -0.01822083 0.01663921
v -0.03721778 -0.01822083 0.01663921
v -0.03721778 -0.01980362 0.01506221
v -0.03721778 -0.01980362 0.01506221
v -0.03721778 -0.01980362 0.01506221
v -0.03721778 -0.01980362 0.01506221
v -0.03721778 -0.02297566 0.01347588
v -0.03721778 -0.02297566 0.01347588
v -0.03721778 -0.02297566 0.01347588
v -0.03721778 -0.02297566 0.01347588
v -0.03721778 -0.02297566 0.01347588
v -0.03721778 -0.02455845 0.01347588
v -0.03721778 -0.02455845 0.01347588
v -0.03721778 -0.02455845 0.01347588
v -0.03721778 -0.02455845 0.01347588
v -0.03721778 -0.02455845 0.01347588
v -0.03721778 -0.02455845 0.01347588
v -0.03721778 -0.02614447 0.01663921
v -0.03721778 -0.02614447 0.01663921
v -0.03721778 -0.02614447 0.01663921
v -0.03721778 -0.02614447 0.01663921
v -0.03721778 -0.02614447 0.01663921
v -0.03721778 -0.02614447 0.01663921
v -0.03721778 -0.02614447 0.01663921
v -0.03721778 -0.02614447 0.06733644
v -0.03721778 -0.02614447 0.06733644
v -0.03721778 -0.02614447 0.06733644
v -0.03721778 -0.02614447 0.06733644
v -0.03721778 -0.02614447 0.06733644
v -0.03721778 -0.02614447 0.06733644
v -0.03721778 -0.02455845 0.07367243
v -0.03721778 -0.02455845 0.07367243
v -0.03721778 -0.02455845 0.07367243
v -0.03721778 -0.02455845 0.07367243
v -0.03721778 -0.01822083 0.07367243
v -0.03721778 -0.01822083 0.07367243
v -0.03721778 -0.01822083 0.07367243
v -0.03721778 -0.01822083 0.07367243
v -0.03721778 -0.01505524 0.07209542
v -0.03721778 -0.01505524 0.07209542
v -0.03721778 -0.01505524 0.07209542
v -0.03721778 -0.01188642 0.06733644
v -0.03721778 -0.01188642 0.06733644
v -0.03721778 -0.01188642 0.06733644
v -0.03721413 -0.00014602 0.07525875
v -0.03721413 -0.00014602 0.07525875
v -0.03721413 -0.00014602 0.07525875
v -0.03721413 -0.00014602 0.07525875
v -0.03721413 -0.00014602 0.07525875
v -0.03721413 -0.00014602 0.07525875
v -0.03721049 -0.00014602 0.01282269
v -0.03721049 -0.00014602 0.01282269
v -0.03721049 -0.00014602 0.01282269
v -0.03721049 -0.00014602 0.01282269
v -0.03720684 -0.00014602 0.00555357
v -0.03720684 -0.00014602 0.00555357
v -0.03720684 -0.00014602 0.00555357
v -0.03720684 -0.00014602 0.00555357
v -0.03720684 -0.00014602 0.00555357
v -0.03720684 -0.00014602 0.00555357
v -0.03721413 -0.02297566 0.00871689
v -0.03721413 -0.02297566 0.00871689
v -0.03721413 -0.02297566 0.00871689
v -0.03721413 -0.02297566 0.00871689
v -0.03721413 -0.02297566 0.00871689
v -0.03721049 -0.02455845 0.00555357
v -0.03721049 -0.02455845 0.00555357
v -0.03721049 -0.02455845 0.00555357
v -0.03721049 -0.02455845 0.00555357
v -0.03721049 -0.02455845 0.00555357
v -0.03721049 -0.02614447 0.00713056
v -0.03721049 -0.02614447 0.00713056
v -0.03721049 -0.02614447 0.00713056
v -0.03721049 -0.02614447 0.00713056
v -0.03721049 -0.02614447 0.00713056
v -0.03720319 -0.02772727 0.00555357
v -0.03720319 -0.02772727 0.00555357
v -0.03720319 -0.02772727 0.00555357
v -0.03720319 -0.02772727 0.00555357
v -0.03720319 -0.02772727 0.00555357
v -0.03720319 -0.02772727 0.00555357
v -0.03720684 -0.02772727 0.01188955
v -0.03720684 -0.02772727 0.01188955
v -0.03720684 -0.02772727 0.01188955
v -0.03720684 -0.02772727 0.01188955
v -0.03721049 -0.02772727 0.03724283
v -0.03721049 -0.02772727 0.03724283
v -0.03721049 -0.02772727 0.03724283
v -0.03721049 -0.02772727 0.03724283
v -0.03721049 -0.02772727 0.03724283
v -0.03720684 -0.02772727 0.07367243
v -0.03720684 -0.02772727 0.07367243
v -0.03720684 -0.02772727 0.07367243
v -0.03720684 -0.02772727 0.07367243
v -0.03720684 -0.02772727 0.07367243
v -0.03720684 -0.02772727 0.07367243
v -0.03721413 -0.02614447 0.07525875
v -0.03721413 -0.02614447 0.07525875
v -0.03721413 -0.02614447 0.07525875
v -0.03721413 -0.02614447 0.07525875
v -0.03721413 -0.02614447 0.07525875
v -0.03721413 -0.02614447 0.07525875
v -0.03721049 -0.02772727 0.04357882
v -0.03721049 -0.02772727 0.04357882
v -0.03721049 -0.02772727 0.04357882
v -0.03721049 -0.02772727 0.04357882
v -0.03721049 -0.01822083 0.07684509
v -0.03721049 -0.01822083 0.07684509
v -0.03721049 -0.01822083 0.07684509
v -0.03721049 -0.01822083 0.07684509
v -0.03720684 -0.00014602 0.07684509
v -0.03720684 -0.00014602 0.07684509
v -0.03720684 -0.00014602 0.07684509
v -0.03720684 -0.00014602 0.07684509
v -0.03721049 -0.01980362 0.00555357
v -0.03721049 -0.01980362 0.00555357
v -0.03721049 -0.01980362 0.00555357
v -0.03721049 -0.01980362 0.00555357
v -0.03720319 -0.00014602 0.00396724
v -0.03720319 -0.00014602 0.00396724
v -0.03720319 -0.00014602 0.00396724
v -0.03720684 -0.02614447 0.00396724
v -0.03720684 -0.02614447 0.00396724
v -0.03720684 -0.02614447 0.00396724
v -0.03720684 -0.02614447 0.00396724
v -0.03720684 -0.02614447 0.00396724
v -0.03720684 -0.02614447 0.00396724
v -0.03720684 -0.02614447 0.00396724
v -0.03719954 -0.02772727 0.00396724
v -0.03719954 -0.02772727 0.00396724
v -0.03719954 -0.02772727 0.00396724
v -0.03719954 -0.02772727 0.00396724
v -0.03719954 -0.02772727 0.00396724
v -0.03717037 -0.02931329 0.00713056
v -0.03717037 -0.02931329 0.00713056
v -0.03717037 -0.02931329 0.00713056
v -0.03717037 -0.02931329 0.00713056
v -0.03717037 -0.02931329 0.00713056
v -0.03717037 -0.02931329 0.00713056
v -0.03717037 -0.02931329 0.00713056
v -0.03717037 -0.02931329 0.00713056
v -0.03717037 -0.02931329 0.00713056
v -0.03717766 -0.02931329 0.06100045
v -0.03717766 -0.02931329 0.06100045
v -0.03717766 -0.02931329 0.06100045
v -0.03717766 -0.02931329 0.06100045
v -0.03717766 -0.02931329 0.06417311
v -0.03717766 -0.02931329 0.06417311
v -0.03717766 -0.02931329 0.06417311
v -0.03717766 -0.02931329 0.06417311
v -0.03717766 -0.02931329 0.06417311
v -0.03717402 -0.02931329 0.07209542
v -0.03717402 -0.02931329 0.07209542
v -0.03717402 -0.02931329 0.07209542
v -0.03717402 -0.02931329 0.07209542
v -0.03717402 -0.02931329 0.07209542
v -0.03720319 -0.02772727 0.07525875
v -0.03720319 -0.02772727 0.07525875
v -0.03720319 -0.02772727 0.07525875
v -0.03720319 -0.02772727 0.07525875
v -0.03720684 -0.02614447 0.07684509
v -0.03720684 -0.02614447 0.07684509
v -0.03720684 -0.02614447 0.07684509
v -0.03720684 -0.02614447 0.07684509
v -0.03720684 -0.02614447 0.07684509
v -0.03721049 -0.01980362 0.07684509
v -0.03721049 -0.01980362 0.07684509
v -0.03721049 -0.01980362 0.07684509
v -0.03721049 -0.01980362 0.07684509
v -0.03717402 -0.01030041 0.07843141
v -0.03717402 -0.01030041 0.07843141
v -0.03717402 -0.01030041 0.07843141
v -0.03717402 -0.01030041 0.07843141
v -0.03717402 -0.01030041 0.07843141
v -0.03717037 -0.00014602 0.07843141
v -0.03717037 -0.00014602 0.07843141
v -0.03717037 -0.00014602 0.07843141
v -0.03720684 -0.01980362 0.00396724
v -0.03720684 -0.01980362 0.00396724
v -0.03720684 -0.01980362 0.00396724
v -0.03720684 -0.01980362 0.00396724
v -0.03720684 -0.01980362 0.00396724
v -0.03719225 -0.00014602 0.00332337
v -0.03719225 -0.00014602 0.00332337
v -0.03719225 -0.00014602 0.00332337
v -0.03717402 -0.02455845 0.00238091
v -0.03717402 -0.02455845 0.00238091
v -0.03717402 -0.02455845 0.00238091
v -0.03717402 -0.02455845 0.00238091
v -0.03717037 -0.02614447 0.00238091
v -0.03717037 -0.02614447 0.00238091
v -0.03717037 -0.02614447 0.00238091
v -0.03717037 -0.02614447 0.00238091
v -0.03715578 -0.02931329 0.00396724
v -0.03715578 -0.02931329 0.00396724
v -0.03715578 -0.02931329 0.00396724
v -0.03715578 -0.02931329 0.00396724
v -0.03715578 -0.02931329 0.00396724
v -0.03715578 -0.02931329 0.00396724
v -0.03716307 -0.02772727 0.00238091
v -0.03716307 -0.02772727 0.00238091
v -0.03716307 -0.02772727 0.00238091
v -0.03716307 -0.02772727 0.00238091
v -0.03716307 -0.02772727 0.00238091
v -0.03716307 -0.02772727 0.00238091
v -0.03691143 -0.03089608 0.00555357
v -0.03691143 -0.03089608 0.00555357
v -0.03691143 -0.03089608 0.00555357
v -0.03691143 -0.03089608 0.00555357
v -0.03691143 -0.03089608 0.00555357
v -0.03691143 -0.03089608 0.00555357
v -0.03691143 -0.03089608 0.00555357
v -0.03692602 -0.03089608 0.01506221
v -0.03692602 -0.03089608 0.01506221
v -0.03692602 -0.03089608 0.01506221
v -0.03692602 -0.03089608 0.01506221
v -0.03693697 -0.03089608 0.05782779
v -0.03693697 -0.03089608 0.05782779
v -0.03693697 -0.03089608 0.05782779
v -0.03693697 -0.03089608 0.05782779
v -0.03693697 -0.03089608 0.05782779
v -0.03693697 -0.03089608 0.05782779
v -0.03693697 -0.03089608 0.05782779
v -0.03693697 -0.03089608 0.06417311
v -0.03693697 -0.03089608 0.06417311
v -0.03693697 -0.03089608 0.06417311
v -0.03693697 -0.03089608 0.06417311
v -0.03693697 -0.03089608 0.06417311
v -0.03693697 -0.03089608 0.06417311
v -0.03717037 -0.02931329 0.07367243
v -0.03717037 -0.02931329 0.07367243
v -0.03717037 -0.02931329 0.07367243
v -0.03717037 -0.02931329 0.07367243
v -0.03717037 -0.02931329 0.07367243
v -0.03693331 -0.03089608 0.06892277
v -0.03693331 -0.03089608 0.06892277
v -0.03693331 -0.03089608 0.06892277
v -0.03693331 -0.03089608 0.06892277
v -0.03693331 -0.03089608 0.06892277
v -0.03693331 -0.03089608 0.06892277
v -0.03719589 -0.02772727 0.07684509
v -0.03719589 -0.02772727 0.07684509
v -0.03719589 -0.02772727 0.07684509
v -0.03719589 -0.02772727 0.07684509
v -0.03719589 -0.02772727 0.07684509
v -0.03719589 -0.02772727 0.07684509
v -0.03717037 -0.02614447 0.07843141
v -0.03717037 -0.02614447 0.07843141
v -0.03717037 -0.02614447 0.07843141
v -0.03717037 -0.02614447 0.07843141
v -0.03717037 -0.02614447 0.07843141
v -0.03717037 -0.02614447 0.07843141
v -0.03717037 -0.02614447 0.07843141
v -0.03717037 -0.02614447 0.07843141
v -0.03717037 -0.02614447 0.07843141
v -0.03717402 -0.02297566 0.07843141
v -0.03717402 -0.02297566 0.07843141
v -0.03717402 -0.02297566 0.07843141
v -0.03717402 -0.02297566 0.07843141
v -0.03717402 -0.02297566 0.07843141
v -0.03710837 -0.00014602 0.08001775
v -0.03710837 -0.00014602 0.08001775
v -0.03710837 -0.00014602 0.08001775
v -0.03710837 -0.00014602 0.08001775
v -0.03710837 -0.00014602 0.08001775
v -0.03710837 -0.00014602 0.08001775
v -0.03717402 -0.00014602 0.00238091
v -0.03717402 -0.00014602 0.00238091
v -0.03717402 -0.00014602 0.00238091
v -0.03717402 -0.00014602 0.00238091
v -0.03717402 -0.00014602 0.00238091
v -0.03717402 -0.00014602 0.00238091
v -0.03717402 -0.00014602 0.00238091
v -0.03717402 -0.00014602 0.00238091
v -0.03702814 -0.02614447 0.00079458
v -0.03702814 -0.02614447 0.00079458
v -0.03702814 -0.02614447 0.00079458
v -0.03702814 -0.02614447 0.00079458
v -0.03702814 -0.02614447 0.00079458
v -0.03702814 -0.02614447 0.00079458
v -0.03688955 -0.03089608 0.00396724
v -0.03688955 -0.03089608 0.00396724
v -0.03688955 -0.03089608 0.00396724
v -0.03688955 -0.03089608 0.00396724
v -0.03688955 -0.03089608 0.00396724
v -0.03688955 -0.03089608 0.00396724
v -0.03711567 -0.02931329 0.00238091
v -0.03711567 -0.02931329 0.00238091
v -0.03711567 -0.02931329 0.00238091
v -0.03711567 -0.02931329 0.00238091
v -0.03711567 -0.02931329 0.00238091
v -0.03702084 -0.02772727 0.00079458
v -0.03702084 -0.02772727 0.00079458
v -0.03702084 -0.02772727 0.00079458
v -0.03702084 -0.02772727 0.00079458
v -0.03702084 -0.02772727 0.00079458
v -0.03698802 -0.02931329 0.00079458
v -0.03698802 -0.02931329 0.00079458
v -0.03698802 -0.02931329 0.00079458
v -0.03698802 -0.02931329 0.00079458
v -0.03698802 -0.02931329 0.00079458
v -0.03698802 -0.02931329 0.00079458
v -0.03698802 -0.02931329 0.00079458
v -0.03655039 -0.03182126 0.00396724
v -0.03655039 -0.03182126 0.00396724
v -0.03655039 -0.03182126 0.00396724
v -0.03655039 -0.03182126 0.00396724
v -0.03655039 -0.03182126 0.00396724
v -0.03655039 -0.03182126 0.00396724
v -0.03656497 -0.03183738 0.00555357
v -0.03656497 -0.03183738 0.00555357
v -0.03656497 -0.03183738 0.00555357
v -0.03656497 -0.03183738 0.00555357
v -0.03656497 -0.03183738 0.00555357
v -0.03657956 -0.03185349 0.01506221
v -0.03657956 -0.03185349 0.01506221
v -0.03657956 -0.03185349 0.01506221
v -0.03657956 -0.03185349 0.01506221
v -0.03657956 -0.03185349 0.01506221
v -0.03657956 -0.03185349 0.01506221
v -0.03657956 -0.03185349 0.01506221
v -0.03657956 -0.03185349 0.01506221
v -0.03657956 -0.03185349 0.01506221
v -0.03658321 -0.03185994 0.05149180
v -0.03658321 -0.03185994 0.05149180
v -0.03658321 -0.03185994 0.05149180
v -0.03658321 -0.03185994 0.05149180
v -0.03658321 -0.03185994 0.05149180
v -0.03658321 -0.03185672 0.03882916
v -0.03658321 -0.03185672 0.03882916
v -0.03658321 -0.03185672 0.03882916
v -0.03658321 -0.03185672 0.06575011
v -0.03658321 -0.03185672 0.06575011
v -0.03658321 -0.03185672 0.06575011
v -0.03658321 -0.03185672 0.06575011
v -0.03658321 -0.03185672 0.06575011
v -0.03658321 -0.03185672 0.06575011
v -0.03658321 -0.03185994 0.05782779
v -0.03658321 -0.03185994 0.05782779
v -0.03658321 -0.03185994 0.05782779
v -0.03658321 -0.03185994 0.05782779
v -0.03691508 -0.03089608 0.07525875
v -0.03691508 -0.03089608 0.07525875
v -0.03691508 -0.03089608 0.07525875
v -0.03691508 -0.03089608 0.07525875
v -0.03691508 -0.03089608 0.07525875
v -0.03716307 -0.02931329 0.07525875
v -0.03716307 -0.02931329 0.07525875
v -0.03716307 -0.02931329 0.07525875
v -0.03716307 -0.02931329 0.07525875
v -0.03716307 -0.02931329 0.07525875
v -0.03657227 -0.03184383 0.07684509
v -0.03657227 -0.03184383 0.07684509
v -0.03657227 -0.03184383 0.07684509
v -0.03657227 -0.03184383 0.07684509
v -0.03657227 -0.03184383 0.07684509
v -0.03657227 -0.03184383 0.07684509
v -0.03657227 -0.03184383 0.07684509
v -0.03657227 -0.03184383 0.07684509
v -0.03714849 -0.02931329 0.07684509
v -0.03714849 -0.02931329 0.07684509
v -0.03714849 -0.02931329 0.07684509
v -0.03714849 -0.02931329 0.07684509
v -0.03714849 -0.02931329 0.07684509
v -0.03715578 -0.02772727 0.07843141
v -0.03715578 -0.02772727 0.07843141
v -0.03715578 -0.02772727 0.07843141
v -0.03715578 -0.02772727 0.07843141
v -0.03715578 -0.02772727 0.07843141
v -0.03715578 -0.02772727 0.07843141
v -0.03709014 -0.02772727 0.08001775
v -0.03709014 -0.02772727 0.08001775
v -0.03709014 -0.02772727 0.08001775
v -0.03709014 -0.02772727 0.08001775
v -0.03676191 -0.02772727 0.08794006
v -0.03676191 -0.02772727 0.08794006
v -0.03676191 -0.02772727 0.08794006
v -0.03676191 -0.02772727 0.08794006
v -0.03669626 -0.02772727 0.08951706
v -0.03669626 -0.02772727 0.08951706
v -0.03669626 -0.02772727 0.08951706
v -0.03669626 -0.02772727 0.08951706
v -0.03669626 -0.02772727 0.08951706
v -0.03669626 -0.02772727 0.08951706
v -0.03669626 -0.02772727 0.08951706
v -0.03669626 -0.02772727 0.08951706
v -0.03669626 -0.02772727 0.08951706
v -0.03669626 -0.02772727 0.08951706
v -0.03669626 -0.02772727 0.08951706
v -0.03669626 -0.02772727 0.08951706
v -0.03676920 -0.02614447 0.08794006
v -0.03676920 -0.02614447 0.08794006
v -0.03676920 -0.02614447 0.08794006
v -0.03676920 -0.02614447 0.08794006
v -0.03676920 -0.02614447 0.08794006
v -0.03710837 -0.02297566 0.08001775
v -0.03710837 -0.02297566 0.08001775
v -0.03710837 -0.02297566 0.08001775
v -0.03710837 -0.02297566 0.08001775
v -0.03676920 -0.02297566 0.08794006
v -0.03676920 -0.02297566 0.08794006
v -0.03676920 -0.02297566 0.08794006
v -0.03676920 -0.02297566 0.08794006
v -0.03669626 -0.00079396 0.08951706
v -0.03669626 -0.00079396 0.08951706
v -0.03669626 -0.00079396 0.08951706
v -0.03669626 -0.00079396 0.08951706
v -0.03669626 -0.00079396 0.08951706
v -0.03669626 -0.00079396 0.08951706
v -0.03669626 -0.00079396 0.08951706
v -0.03669626 -0.00079396 0.08951706
v -0.03679109 -0.00014602 0.08728687
v -0.03679109 -0.00014602 0.08728687
v -0.03679109 -0.00014602 0.08728687
v -0.03699532 -0.00014602 0.00079458
v -0.03699532 -0.00014602 0.00079458
v -0.03699532 -0.00014602 0.00079458
v -0.03699532 -0.00014602 0.00079458
v -0.03699532 -0.00014602 0.00079458
v -0.03699896 -0.00079396 0.00079458
v -0.03699896 -0.00079396 0.00079458
v -0.03699896 -0.00079396 0.00079458
v -0.03699896 -0.00079396 0.00079458
v -0.03699896 -0.00079396 0.00079458
v -0.03699896 -0.00079396 0.00079458
v -0.03702084 -0.00871761 0.00079458
v -0.03702084 -0.00871761 0.00079458
v -0.03702084 -0.00871761 0.00079458
v -0.03702084 -0.00871761 0.00079458
v -0.03702449 -0.01030041 0.00079458
v -0.03702449 -0.01030041 0.00079458
v -0.03702449 -0.01030041 0.00079458
v -0.03702814 -0.01188642 0.00079458
v -0.03702814 -0.01188642 0.00079458
v -0.03702814 -0.01188642 0.00079458
v -0.03702814 -0.01188642 0.00079458
v -0.03668532 -0.01188642 -0.00027853
v -0.03668532 -0.01188642 -0.00027853
v -0.03668532 -0.01188642 -0.00027853
v -0.03668532 -0.01188642 -0.00027853
v -0.03668532 -0.01188642 -0.00027853
v -0.03668532 -0.01188642 -0.00027853
v -0.03668168 -0.02772727 -0.00027853
v -0.03668168 -0.02772727 -0.00027853
v -0.03668168 -0.02772727 -0.00027853
v -0.03668168 -0.02772727 -0.00027853
v -0.03668168 -0.02772727 -0.00027853
v -0.03683485 -0.03089608 0.00238091
v -0.03683485 -0.03089608 0.00238091
v -0.03683485 -0.03089608 0.00238091
v -0.03683485 -0.03089608 0.00238091
v -0.03683485 -0.03089608 0.00238091
v -0.03683485 -0.03089608 0.00238091
v -0.03683485 -0.03089608 0.00238091
v -0.03651757 -0.03177935 0.00238091
v -0.03651757 -0.03177935 0.00238091
v -0.03651757 -0.03177935 0.00238091
v -0.03651757 -0.03177935 0.00238091
v -0.03651757 -0.03177935 0.00238091
v -0.03667074 -0.02931329 -0.00026920
v -0.03667074 -0.02931329 -0.00026920
v -0.03667074 -0.02931329 -0.00026920
v -0.03667074 -0.02931329 -0.00026920
v -0.03667074 -0.02931329 -0.00026920
v -0.03667074 -0.02931329 -0.00026920
v -0.03658321 -0.03061563 -0.00016656
v -0.03658321 -0.03061563 -0.00016656
v -0.03658321 -0.03061563 -0.00016656
v -0.03658321 -0.03061563 -0.00016656
v -0.03658321 -0.03061563 -0.00016656
v -0.03667074 -0.03104437 0.00067327
v -0.03667074 -0.03104437 0.00067327
v -0.03667074 -0.03104437 0.00067327
v -0.03667074 -0.03104437 0.00067327
v -0.03564959 -0.03237895 0.00396724
v -0.03564959 -0.03237895 0.00396724
v -0.03564959 -0.03237895 0.00396724
v -0.03564959 -0.03237895 0.00396724
v -0.03564959 -0.03237895 0.00396724
v -0.03564959 -0.03237895 0.00396724
v -0.03564959 -0.03232737 0.00238091
v -0.03564959 -0.03232737 0.00238091
v -0.03564959 -0.03232737 0.00238091
v -0.03564959 -0.03232737 0.00238091
v -0.03564959 -0.03232737 0.00238091
v -0.03564959 -0.03232737 0.00238091
v -0.03564959 -0.03232737 0.00238091
v -0.03564959 -0.03239829 0.00555357
v -0.03564959 -0.03239829 0.00555357
v -0.03564959 -0.03239829 0.00555357
v -0.03564959 -0.03239829 0.00555357
v -0.03564959 -0.03239829 0.00555357
v -0.03564959 -0.03239829 0.00555357
v -0.03564959 -0.03241440 0.01347588
v -0.03564959 -0.03241440 0.01347588
v -0.03564959 -0.03241763 0.01506221
v -0.03564959 -0.03241763 0.01506221
v -0.03564959 -0.03241763 0.01506221
v -0.03564959 -0.03241763 0.01506221
v -0.03564959 -0.03241763 0.01506221
v -0.03564959 -0.03241763 0.01506221
v -0.03564959 -0.03241763 0.01506221
v -0.03564959 -0.03243697 0.06258678
v -0.03564959 -0.03243697 0.06258678
v -0.03564959 -0.03243697 0.06258678
v -0.03564959 -0.03243697 0.06258678
v -0.03564959 -0.03243697 0.06258678
v -0.03564959 -0.03243697 0.06258678
v -0.03564959 -0.03243697 0.06417311
v -0.03564959 -0.03243697 0.06417311
v -0.03564959 -0.03243697 0.06417311
v -0.03564959 -0.03243697 0.06417311
v -0.03564959 -0.03243697 0.06417311
v -0.03564959 -0.03243697 0.06417311
v -0.03564959 -0.03243697 0.06417311
v -0.03657227 -0.03184705 0.07525875
v -0.03657227 -0.03184705 0.07525875
v -0.03657227 -0.03184705 0.07525875
v -0.03690414 -0.03089608 0.07684509
v -0.03690414 -0.03089608 0.07684509
v -0.03690414 -0.03089608 0.07684509
v -0.03690414 -0.03089608 0.07684509
v -0.03690414 -0.03089608 0.07684509
v -0.03690414 -0.03089608 0.07684509
v -0.03690414 -0.03089608 0.07684509
v -0.03564959 -0.03241118 0.07684509
v -0.03564959 -0.03241118 0.07684509
v -0.03564959 -0.03241118 0.07684509
v -0.03564959 -0.03241118 0.07684509
v -0.03564959 -0.03241118 0.07684509
v -0.03564959 -0.03241118 0.07684509
v -0.03564959 -0.03241118 0.07684509
v -0.03564959 -0.03235316 0.07843141
v -0.03564959 -0.03235316 0.07843141
v -0.03564959 -0.03235316 0.07843141
v -0.03564959 -0.03235316 0.07843141
v -0.03653944 -0.03180514 0.07843141
v -0.03653944 -0.03180514 0.07843141
v -0.03653944 -0.03180514 0.07843141
v -0.03653944 -0.03180514 0.07843141
v -0.03653944 -0.03180514 0.07843141
v -0.03653944 -0.03180514 0.07843141
v -0.03710472 -0.02931329 0.07843141
v -0.03710472 -0.02931329 0.07843141
v -0.03710472 -0.02931329 0.07843141
v -0.03710472 -0.02931329 0.07843141
v -0.03710472 -0.02931329 0.07843141
v -0.03710472 -0.02931329 0.07843141
v -0.03672544 -0.02931329 0.08794006
v -0.03672544 -0.02931329 0.08794006
v -0.03672544 -0.02931329 0.08794006
v -0.03672544 -0.02931329 0.08794006
v -0.03672544 -0.02931329 0.08794006
v -0.03672544 -0.02931329 0.08794006
v -0.03672544 -0.02931329 0.08794006
v -0.03672544 -0.02931329 0.08794006
v -0.03664521 -0.02931329 0.08951706
v -0.03664521 -0.02931329 0.08951706
v -0.03664521 -0.02931329 0.08951706
v -0.03664521 -0.02931329 0.08951706
v -0.03664521 -0.02931329 0.08951706
v -0.03652121 -0.02931329 0.09070214
v -0.03652121 -0.02931329 0.09070214
v -0.03652121 -0.02931329 0.09070214
v -0.03652121 -0.02931329 0.09070214
v -0.03652121 -0.02931329 0.09070214
v -0.03655039 -0.02772727 0.09079545
v -0.03655039 -0.02772727 0.09079545
v -0.03655039 -0.02772727 0.09079545
v -0.03655039 -0.02772727 0.09079545
v -0.03655039 -0.02772727 0.09079545
v -0.03655039 -0.02772727 0.09079545
v -0.03650662 -0.00713159 0.09236312
v -0.03650662 -0.00713159 0.09236312
v -0.03650662 -0.00713159 0.09236312
v -0.03650662 -0.00713159 0.09236312
v -0.03650662 -0.00713159 0.09236312
v -0.03650662 -0.00713159 0.09236312
v -0.03651392 -0.00554880 0.09236312
v -0.03651392 -0.00554880 0.09236312
v -0.03651392 -0.00554880 0.09236312
v -0.03651027 -0.00237998 0.09253109
v -0.03651027 -0.00237998 0.09253109
v -0.03651027 -0.00237998 0.09253109
v -0.03651027 -0.00237998 0.09253109
v -0.03651027 -0.00237998 0.09253109
v -0.03651027 -0.00237998 0.09253109
v -0.03651027 -0.00237998 0.09253109
v -0.03662332 -0.00554880 0.09110339
v -0.03662332 -0.00554880 0.09110339
v -0.03662332 -0.00554880 0.09110339
v -0.03662332 -0.00554880 0.09110339
v -0.03662332 -0.00554880 0.09110339
v -0.03662332 -0.00554880 0.09110339
v -0.03669991 -0.02614447 0.08951706
v -0.03669991 -0.02614447 0.08951706
v -0.03669991 -0.02614447 0.08951706
v -0.03669991 -0.02614447 0.08951706
v -0.03669991 -0.02614447 0.08951706
v -0.03661968 -0.00014602 0.09110339
v -0.03661968 -0.00014602 0.09110339
v -0.03661968 -0.00014602 0.09110339
v -0.03661968 -0.00014602 0.09110339
v -0.03669262 -0.00014602 0.08951706
v -0.03669262 -0.00014602 0.08951706
v -0.03669262 -0.00014602 0.08951706
v -0.03672179 -0.00014602 0.08887320
v -0.03672179 -0.00014602 0.08887320
v -0.03672179 -0.00014602 0.08887320
v -0.03664521 -0.00014602 -0.00023187
v -0.03664521 -0.00014602 -0.00023187
v -0.03664521 -0.00014602 -0.00023187
v -0.03664521 -0.00014602 -0.00023187
v -0.03664521 -0.00014602 -0.00023187
v -0.03665980 -0.00237998 -0.00025054
v -0.03665980 -0.00237998 -0.00025054
v -0.03665980 -0.00237998 -0.00025054
v -0.03665980 -0.00237998 -0.00025054
v -0.03666709 -0.00396278 -0.00025986
v -0.03666709 -0.00396278 -0.00025986
v -0.03666709 -0.00396278 -0.00025986
v -0.03666709 -0.00396278 -0.00025986
v -0.03666709 -0.00396278 -0.00025986
v -0.03667074 -0.00554880 -0.00026920
v -0.03667074 -0.00554880 -0.00026920
v -0.03667074 -0.00554880 -0.00026920
v -0.03667074 -0.00554880 -0.00026920
v -0.03667074 -0.00554880 -0.00026920
v -0.03667803 -0.00871761 -0.00027853
v -0.03667803 -0.00871761 -0.00027853
v -0.03667803 -0.00871761 -0.00027853
v -0.03667803 -0.00871761 -0.00027853
v -0.03667803 -0.00871761 -0.00027853
v -0.03667803 -0.00871761 -0.00027853
v -0.03668168 -0.01030041 -0.00027853
v -0.03668168 -0.01030041 -0.00027853
v -0.03564959 -0.01030041 -0.00060513
v -0.03564959 -0.01030041 -0.00060513
v -0.03564959 -0.01030041 -0.00060513
v -0.03564959 -0.01030041 -0.00060513
v -0.03564959 -0.01030041 -0.00060513
v -0.03564959 -0.02931329 -0.00061445
v -0.03564959 -0.02931329 -0.00061445
v -0.03564959 -0.02931329 -0.00061445
v -0.03564959 -0.02931329 -0.00061445
v -0.03564959 -0.02931329 -0.00061445
v -0.03564959 -0.02931329 -0.00061445
v -0.03564959 -0.02931329 -0.00061445
v -0.03564959 -0.02931329 -0.00061445
v -0.03564959 -0.02931329 -0.00061445
v -0.03564959 -0.02931329 -0.00061445
v -0.03643368 -0.03167298 0.00006673
v -0.03643368 -0.03167298 0.00006673
v -0.03643368 -0.03167298 0.00006673
v -0.03643368 -0.03167298 0.00006673
v -0.03643368 -0.03167298 0.00006673
v -0.03643368 -0.03167298 0.00006673
v -0.03643368 -0.03167298 0.00006673
v -0.03648109 -0.03173422 0.00112117
v -0.03648109 -0.03173422 0.00112117
v -0.03648109 -0.03173422 0.00112117
v -0.03648109 -0.03173422 0.00112117
v -0.03648109 -0.03173422 0.00112117
v -0.03580276 -0.03104437 -0.00040917
v -0.03580276 -0.03104437 -0.00040917
v -0.03580276 -0.03104437 -0.00040917
v -0.03580276 -0.03104437 -0.00040917
v -0.03580276 -0.03104437 -0.00040917
v -0.03580276 -0.03104437 -0.00040917
v -0.03406681 -0.03286571 0.00238091
v -0.03406681 -0.03286571 0.00238091
v -0.03406681 -0.03286571 0.00238091
v -0.03406681 -0.03286571 0.00238091
v -0.03406681 -0.03286571 0.00238091
v -0.03406681 -0.03286571 0.00238091
v -0.03406681 -0.03289795 0.00396724
v -0.03406681 -0.03289795 0.00396724
v -0.03406681 -0.03289795 0.00396724
v -0.03406681 -0.03289795 0.00396724
v -0.03406681 -0.03289795 0.00396724
v -0.03406681 -0.03289795 0.00396724
v -0.03580276 -0.03211783 0.00067327
v -0.03580276 -0.03211783 0.00067327
v -0.03580276 -0.03211783 0.00067327
v -0.03580276 -0.03211783 0.00067327
v -0.03580276 -0.03211783 0.00067327
v -0.03406681 -0.03275933 0.00079458
v -0.03406681 -0.03275933 0.00079458
v -0.03406681 -0.03275933 0.00079458
v -0.03406681 -0.03275933 0.00079458
v -0.03406681 -0.03275933 0.00079458
v -0.03406681 -0.03275933 0.00079458
v -0.03406681 -0.03275933 0.00079458
v -0.03406681 -0.03290439 0.00555357
v -0.03406681 -0.03290439 0.00555357
v -0.03406681 -0.03290439 0.00555357
v -0.03406681 -0.03290439 0.00555357
v -0.03406681 -0.03290439 0.00555357
v -0.03406681 -0.03290439 0.00555357
v -0.03406681 -0.03290762 0.00871689
v -0.03406681 -0.03290762 0.00871689
v -0.03406681 -0.03290762 0.00871689
v -0.03406681 -0.03290762 0.00871689
v -0.03406681 -0.03291084 0.01347588
v -0.03406681 -0.03291084 0.01347588
v -0.03406681 -0.03291084 0.01347588
v -0.03406681 -0.03291084 0.01347588
v -0.03406681 -0.03291729 0.02614785
v -0.03406681 -0.03291729 0.02614785
v -0.03406681 -0.03291729 0.02614785
v -0.03406681 -0.03291729 0.02614785
v -0.03406681 -0.03291729 0.02614785
v -0.03406681 -0.03292696 0.06417311
v -0.03406681 -0.03292696 0.06417311
v -0.03406681 -0.03292696 0.06417311
v -0.03406681 -0.03292696 0.06417311
v -0.03406681 -0.03292696 0.06417311
v -0.03406681 -0.03292696 0.06417311
v -0.03406681 -0.03292696 0.06417311
v -0.03406681 -0.03291407 0.07525875
v -0.03406681 -0.03291407 0.07525875
v -0.03406681 -0.03291407 0.07525875
v -0.03406681 -0.03291407 0.07525875
v -0.03406681 -0.03291084 0.07684509
v -0.03406681 -0.03291084 0.07684509
v -0.03406681 -0.03291084 0.07684509
v -0.03406681 -0.03291084 0.07684509
v -0.03406681 -0.03291084 0.07684509
v -0.03684944 -0.03089608 0.07843141
v -0.03684944 -0.03089608 0.07843141
v -0.03684944 -0.03089608 0.07843141
v -0.03684944 -0.03089608 0.07843141
v -0.03684944 -0.03089608 0.07843141
v -0.03684944 -0.03089608 0.07843141
v -0.03406681 -0.03287860 0.07843141
v -0.03406681 -0.03287860 0.07843141
v -0.03406681 -0.03287860 0.07843141
v -0.03406681 -0.03287860 0.07843141
v -0.03406681 -0.03287860 0.07843141
v -0.03406681 -0.03247566 0.09110339
v -0.03406681 -0.03247566 0.09110339
v -0.03406681 -0.03247566 0.09110339
v -0.03406681 -0.03247566 0.09110339
v -0.03406681 -0.03247566 0.09110339
v -0.03406681 -0.03247566 0.09110339
v -0.03534689 -0.03202757 0.09110339
v -0.03534689 -0.03202757 0.09110339
v -0.03534689 -0.03202757 0.09110339
v -0.03534689 -0.03202757 0.09110339
v -0.03534689 -0.03202757 0.09110339
v -0.03534689 -0.03202757 0.09110339
v -0.03534689 -0.03202757 0.09110339
v -0.03534689 -0.03202757 0.09110339
v -0.03534689 -0.03202757 0.09110339
v -0.03534689 -0.03202757 0.09110339
v -0.03646651 -0.03171811 0.08126814
v -0.03646651 -0.03171811 0.08126814
v -0.03646651 -0.03171811 0.08126814
v -0.03646651 -0.03171811 0.08126814
v -0.03656862 -0.03047701 0.08794006
v -0.03656862 -0.03047701 0.08794006
v -0.03656862 -0.03047701 0.08794006
v -0.03656862 -0.03047701 0.08794006
v -0.03656862 -0.03047701 0.08794006
v -0.03652121 -0.03034162 0.08951706
v -0.03652121 -0.03034162 0.08951706
v -0.03652121 -0.03034162 0.08951706
v -0.03652121 -0.03034162 0.08951706
v -0.03652121 -0.03034162 0.08951706
v -0.03652121 -0.03034162 0.08951706
v -0.03652121 -0.03034162 0.08951706
v -0.03652121 -0.03034162 0.08951706
v -0.03647380 -0.03020300 0.09050618
v -0.03647380 -0.03020300 0.09050618
v -0.03647380 -0.03020300 0.09050618
v -0.03647380 -0.03020300 0.09050618
v -0.03647380 -0.03020300 0.09050618
v -0.03634251 -0.02931329 0.09149530
v -0.03634251 -0.02931329 0.09149530
v -0.03634251 -0.02931329 0.09149530
v -0.03634251 -0.02931329 0.09149530
v -0.03634251 -0.02931329 0.09149530
v -0.03634251 -0.02931329 0.09149530
v -0.03634251 -0.02931329 0.09149530
v -0.03638263 -0.00871761 0.09317495
v -0.03638263 -0.00871761 0.09317495
v -0.03638263 -0.00871761 0.09317495
v -0.03638263 -0.00871761 0.09317495
v -0.03638263 -0.00871761 0.09317495
v -0.03638263 -0.00871761 0.09317495
v -0.03638263 -0.00871761 0.09317495
v -0.03638263 -0.00871761 0.09317495
v -0.03649204 -0.00871761 0.09238178
v -0.03649204 -0.00871761 0.09238178
v -0.03649204 -0.00871761 0.09238178
v -0.03649204 -0.00871761 0.09238178
v -0.03641180 -0.00237998 0.09332425
v -0.03641180 -0.00237998 0.09332425
v -0.03641180 -0.00237998 0.09332425
v -0.03641180 -0.00237998 0.09332425
v -0.03641180 -0.00237998 0.09332425
v -0.03641180 -0.00237998 0.09332425
v -0.03641180 -0.00237998 0.09332425
v -0.03641180 -0.00237998 0.09332425
v -0.03641180 -0.00237998 0.09332425
v -0.03641180 -0.00237998 0.09332425
v -0.03651027 -0.00079396 0.09249376
v -0.03651027 -0.00079396 0.09249376
v -0.03651027 -0.00079396 0.09249376
v -0.03651027 -0.00079396 0.09249376
v -0.03651027 -0.00079396 0.09249376
v -0.03655768 -0.00014602 0.09193388
v -0.03655768 -0.00014602 0.09193388
v -0.03655768 -0.00014602 0.09193388
v -0.03655768 -0.00014602 0.09193388
v -0.03655768 -0.00014602 0.09193388
v -0.03564959 -0.00014602 -0.00054914
v -0.03564959 -0.00014602 -0.00054914
v -0.03564959 -0.00014602 -0.00054914
v -0.03564959 -0.00014602 -0.00054914
v -0.03564959 -0.00079396 -0.00055847
v -0.03564959 -0.00079396 -0.00055847
v -0.03564959 -0.00079396 -0.00055847
v -0.03564959 -0.00079396 -0.00055847
v -0.03564959 -0.00237998 -0.00057713
v -0.03564959 -0.00237998 -0.00057713
v -0.03564959 -0.00237998 -0.00057713
v -0.03564959 -0.00237998 -0.00057713
v -0.03564959 -0.00237998 -0.00057713
v -0.03564959 -0.00237998 -0.00057713
v -0.03564959 -0.00237998 -0.00057713
v -0.03564959 -0.00396278 -0.00058646
v -0.03564959 -0.00396278 -0.00058646
v -0.03564959 -0.00396278 -0.00058646
v -0.03564959 -0.00396278 -0.00058646
v -0.03564959 -0.00396278 -0.00058646
v 0.00003585 -0.03101213 -0.00042783
v 0.00003585 -0.03101213 -0.00042783
v 0.00003585 -0.03101213 -0.00042783
v 0.00003585 -0.03101213 -0.00042783
v 0.00003585 -0.03101213 -0.00042783
v 0.00003585 -0.03101213 -0.00042783
v 0.00003585 -0.03101213 -0.00042783
v 0.00003585 -0.03101213 -0.00042783
v 0.00003585 -0.03220487 -0.00042783
v 0.00003585 -0.03220487 -0.00042783
v 0.00003585 -0.03220487 -0.00042783
v 0.00003585 -0.03220487 -0.00042783
v 0.00003585 -0.03220487 -0.00042783
v -0.02139000 -0.03221454 -0.00042783
v -0.02139000 -0.03221454 -0.00042783
v -0.02139000 -0.03221454 -0.00042783
v -0.02139000 -0.03221454 -0.00042783
v -0.02772841 -0.03221132 -0.00042783
v -0.02772841 -0.03221132 -0.00042783
v -0.02772841 -0.03221132 -0.00042783
v -0.02772841 -0.03221132 -0.00042783
v -0.02772841 -0.03221132 -0.00042783
v -0.02772841 -0.03221132 -0.00042783
v -0.03406681 -0.03218231 -0.00041850
v -0.03406681 -0.03218231 -0.00041850
v -0.03406681 -0.03218231 -0.00041850
v -0.03406681 -0.03218231 -0.00041850
v -0.03406681 -0.03218231 -0.00041850
v -0.03406681 -0.03218231 -0.00041850
v -0.03406681 -0.03218231 -0.00041850
v -0.03537971 -0.03200178 -0.00027853
v -0.03537971 -0.03200178 -0.00027853
v -0.03537971 -0.03200178 -0.00027853
v -0.03537971 -0.03200178 -0.00027853
v -0.03537971 -0.03200178 -0.00027853
v -0.03248039 -0.03297854 0.00238091
v -0.03248039 -0.03297854 0.00238091
v -0.03248039 -0.03297854 0.00238091
v -0.03248039 -0.03297854 0.00238091
v -0.03248039 -0.03297854 0.00238091
v -0.03248039 -0.03297854 0.00238091
v -0.03248039 -0.03301400 0.00396724
v -0.03248039 -0.03301400 0.00396724
v -0.03248039 -0.03301400 0.00396724
v -0.03248039 -0.03301400 0.00396724
v -0.03248039 -0.03301400 0.00396724
v -0.03248039 -0.03302367 0.00555357
v -0.03248039 -0.03302367 0.00555357
v -0.03248039 -0.03302367 0.00555357
v -0.03248039 -0.03302367 0.00555357
v -0.03248039 -0.03302367 0.00555357
v -0.03248039 -0.03284315 0.00079458
v -0.03248039 -0.03284315 0.00079458
v -0.03248039 -0.03284315 0.00079458
v -0.03248039 -0.03284315 0.00079458
v -0.03248039 -0.03284315 0.00079458
v -0.03248039 -0.03284315 0.00079458
v -0.03248039 -0.03302689 0.00713056
v -0.03248039 -0.03302689 0.00713056
v -0.03248039 -0.03302689 0.00713056
v -0.03248039 -0.03302689 0.00713056
v -0.03248039 -0.03303012 0.01030322
v -0.03248039 -0.03303012 0.01030322
v -0.03248039 -0.03303012 0.01030322
v -0.03248039 -0.03303012 0.01030322
v -0.03248039 -0.03303012 0.01030322
v -0.03248039 -0.03303012 0.01030322
v -0.03248039 -0.03303012 0.01030322
v -0.03248039 -0.03303012 0.01030322
v -0.03248039 -0.03303334 0.05782779
v -0.03248039 -0.03303334 0.05782779
v -0.03248039 -0.03303334 0.05782779
v -0.03248039 -0.03303334 0.05782779
v -0.03248039 -0.03303334 0.05782779
v -0.03248039 -0.03303012 0.07525875
v -0.03248039 -0.03303012 0.07525875
v -0.03248039 -0.03303012 0.07525875
v -0.03248039 -0.03303012 0.07525875
v -0.03248039 -0.03303012 0.07525875
v -0.03248039 -0.03303012 0.07525875
v -0.03248039 -0.03302689 0.07684509
v -0.03248039 -0.03302689 0.07684509
v -0.03248039 -0.03302689 0.07684509
v -0.03248039 -0.03302689 0.07684509
v -0.03248039 -0.03302689 0.07684509
v -0.03248039 -0.03300110 0.07843141
v -0.03248039 -0.03300110 0.07843141
v -0.03248039 -0.03300110 0.07843141
v -0.03248039 -0.03300110 0.07843141
v -0.03248039 -0.03300110 0.07843141
v -0.03248039 -0.03300110 0.07843141
v -0.03643733 -0.03167942 0.08233192
v -0.03643733 -0.03167942 0.08233192
v -0.03643733 -0.03167942 0.08233192
v -0.03643733 -0.03167942 0.08233192
v -0.03643733 -0.03167942 0.08233192
v -0.03643733 -0.03167942 0.08233192
v -0.03248039 -0.03295275 0.08001775
v -0.03248039 -0.03295275 0.08001775
v -0.03248039 -0.03261427 0.09110339
v -0.03248039 -0.03261427 0.09110339
v -0.03248039 -0.03261427 0.09110339
v -0.03248039 -0.03261427 0.09110339
v -0.03248039 -0.03261427 0.09110339
v -0.03248039 -0.03261427 0.09110339
v -0.03248039 -0.03261427 0.09110339
v -0.03406681 -0.03207592 0.09243777
v -0.03406681 -0.03207592 0.09243777
v -0.03406681 -0.03207592 0.09243777
v -0.03406681 -0.03207592 0.09243777
v -0.03406681 -0.03207592 0.09243777
v -0.03519007 -0.03191152 0.09223248
v -0.03519007 -0.03191152 0.09223248
v -0.03519007 -0.03191152 0.09223248
v -0.03519007 -0.03191152 0.09223248
v -0.03519007 -0.03191152 0.09223248
v -0.03519007 -0.03191152 0.09223248
v -0.03615651 -0.03079615 0.09105673
v -0.03615651 -0.03079615 0.09105673
v -0.03615651 -0.03079615 0.09105673
v -0.03615651 -0.03079615 0.09105673
v -0.03615651 -0.03079615 0.09105673
v -0.03615651 -0.03079615 0.09105673
v -0.03615651 -0.03079615 0.09105673
v -0.03616381 -0.03113463 0.08951706
v -0.03616381 -0.03113463 0.08951706
v -0.03616381 -0.03113463 0.08951706
v -0.03616381 -0.03113463 0.08951706
v -0.03622216 -0.03127002 0.08794006
v -0.03622216 -0.03127002 0.08794006
v -0.03622216 -0.03127002 0.08794006
v -0.03622216 -0.03127002 0.08794006
v -0.03544536 -0.03089608 0.09245643
v -0.03544536 -0.03089608 0.09245643
v -0.03544536 -0.03089608 0.09245643
v -0.03544536 -0.03089608 0.09245643
v -0.03544536 -0.03089608 0.09245643
v -0.03544536 -0.03089608 0.09245643
v -0.03555112 -0.02931329 0.09253109
v -0.03555112 -0.02931329 0.09253109
v -0.03555112 -0.02931329 0.09253109
v -0.03555112 -0.02931329 0.09253109
v -0.03555112 -0.02931329 0.09253109
v -0.03555112 -0.02931329 0.09253109
v -0.03555112 -0.02931329 0.09253109
v -0.03555112 -0.02931329 0.09253109
v -0.03555112 -0.02931329 0.09253109
v -0.03545630 -0.01505524 0.09371616
v -0.03545630 -0.01505524 0.09371616
v -0.03545630 -0.01505524 0.09371616
v -0.03545630 -0.01505524 0.09371616
v -0.03545630 -0.01505524 0.09371616
v -0.03545630 -0.01505524 0.09371616
v -0.03550736 -0.01346922 0.09376282
v -0.03550736 -0.01346922 0.09376282
v -0.03550736 -0.01346922 0.09376282
v -0.03550736 -0.01346922 0.09376282
v -0.03550736 -0.01346922 0.09376282
v -0.03559124 -0.00871761 0.09388413
v -0.03559124 -0.00871761 0.09388413
v -0.03559124 -0.00871761 0.09388413
v -0.03559124 -0.00871761 0.09388413
v -0.03559124 -0.00871761 0.09388413
v -0.03559124 -0.00871761 0.09388413
v -0.03559124 -0.00871761 0.09388413
v -0.03562041 -0.00237998 0.09401477
v -0.03562041 -0.00237998 0.09401477
v -0.03562041 -0.00237998 0.09401477
v -0.03562041 -0.00237998 0.09401477
v -0.03561312 -0.00079396 0.09405209
v -0.03561312 -0.00079396 0.09405209
v -0.03561312 -0.00079396 0.09405209
v -0.03561312 -0.00079396 0.09405209
v -0.03559488 -0.00014602 0.09407076
v -0.03559488 -0.00014602 0.09407076
v -0.03559488 -0.00014602 0.09407076
v -0.03559488 -0.00014602 0.09407076
v -0.03559488 -0.00014602 0.09407076
v -0.03640451 -0.00079396 0.09328692
v -0.03640451 -0.00079396 0.09328692
v -0.03640451 -0.00079396 0.09328692
v -0.03640451 -0.00079396 0.09328692
v -0.03640451 -0.00079396 0.09328692
v -0.03651027 -0.00014602 0.09242844
v -0.03651027 -0.00014602 0.09242844
v -0.03651027 -0.00014602 0.09242844
v -0.03651027 -0.00014602 0.09242844
v 0.00003585 -0.00014602 0.00134513
v 0.00003585 -0.00014602 0.00134513
v 0.00003585 -0.00014602 0.00134513
v 0.00003585 -0.03283992 0.00079458
v 0.00003585 -0.03283992 0.00079458
v 0.00003585 -0.03283992 0.00079458
v -0.01822444 -0.03287860 0.00079458
v -0.01822444 -0.03287860 0.00079458
v -0.01822444 -0.03287860 0.00079458
v -0.01822444 -0.03287860 0.00079458
v -0.01822444 -0.03287860 0.00079458
v -0.01822444 -0.03287860 0.00079458
v -0.01822444 -0.03287860 0.00079458
v -0.01822444 -0.03287860 0.00079458
v -0.01822444 -0.03287860 0.00079458
v -0.01822444 -0.03287860 0.00079458
v -0.03089761 -0.03221454 -0.00041850
v -0.03089761 -0.03221454 -0.00041850
v -0.03089761 -0.03221454 -0.00041850
v -0.03089761 -0.03221454 -0.00041850
v -0.03248039 -0.03221132 -0.00041850
v -0.03248039 -0.03221132 -0.00041850
v -0.03248039 -0.03221132 -0.00041850
v -0.03248039 -0.03221132 -0.00041850
v -0.03248039 -0.03221132 -0.00041850
v -0.03089761 -0.03301400 0.00238091
v -0.03089761 -0.03301400 0.00238091
v -0.03089761 -0.03301400 0.00238091
v -0.03089761 -0.03301400 0.00238091
v -0.03089761 -0.03301400 0.00238091
v -0.03089761 -0.03305268 0.00396724
v -0.03089761 -0.03305268 0.00396724
v -0.03089761 -0.03305268 0.00396724
v -0.03089761 -0.03305268 0.00396724
v -0.03089761 -0.03305268 0.00396724
v -0.03089761 -0.03305268 0.00396724
v -0.03089761 -0.03286249 0.00079458
v -0.03089761 -0.03286249 0.00079458
v -0.03089761 -0.03286249 0.00079458
v -0.03089761 -0.03286249 0.00079458
v -0.03089761 -0.03286249 0.00079458
v -0.03089761 -0.03286249 0.00079458
v -0.03089761 -0.03305913 0.00713056
v -0.03089761 -0.03305913 0.00713056
v -0.03089761 -0.03306235 0.00871689
v -0.03089761 -0.03306235 0.00871689
v -0.03089761 -0.03306235 0.00871689
v -0.03089761 -0.03306235 0.00871689
v -0.03089761 -0.03306235 0.00871689
v -0.03089761 -0.03306235 0.00871689
v -0.03089761 -0.03306558 0.02456153
v -0.03089761 -0.03306558 0.02456153
v -0.03089761 -0.03306558 0.02456153
v -0.03089761 -0.03306558 0.02456153
v -0.03089761 -0.03306558 0.02456153
v -0.03089761 -0.03306558 0.02456153
v -0.03089761 -0.03306558 0.06100045
v -0.03089761 -0.03306558 0.06100045
v -0.03089761 -0.03306558 0.06100045
v -0.03089761 -0.03306558 0.06100045
v -0.03089761 -0.03306558 0.06100045
v -0.03089761 -0.03306235 0.07525875
v -0.03089761 -0.03306235 0.07525875
v -0.03089761 -0.03306235 0.07525875
v -0.03089761 -0.03306235 0.07525875
v -0.03089761 -0.03305913 0.07684509
v -0.03089761 -0.03305913 0.07684509
v -0.03089761 -0.03305913 0.07684509
v -0.03089761 -0.03305913 0.07684509
v -0.03089761 -0.03305913 0.07684509
v -0.03089761 -0.03305913 0.07684509
v -0.03089761 -0.03303657 0.07843141
v -0.03089761 -0.03303657 0.07843141
v -0.03089761 -0.03303657 0.07843141
v -0.03089761 -0.03303657 0.07843141
v -0.03089761 -0.03303657 0.07843141
v -0.03089761 -0.03299465 0.08001775
v -0.03089761 -0.03299465 0.08001775
v -0.03089761 -0.03299465 0.08001775
v -0.03089761 -0.03299465 0.08001775
v -0.03089761 -0.03299465 0.08001775
v -0.03089761 -0.03299465 0.08001775
v -0.03089761 -0.03299465 0.08001775
v -0.03089761 -0.03264651 0.09110339
v -0.03089761 -0.03264651 0.09110339
v -0.03089761 -0.03264651 0.09110339
v -0.03089761 -0.03264651 0.09110339
v -0.03089761 -0.03264651 0.09110339
v -0.03248039 -0.03214362 0.09247510
v -0.03248039 -0.03214362 0.09247510
v -0.03248039 -0.03214362 0.09247510
v -0.03248039 -0.03214362 0.09247510
v -0.03248039 -0.03214362 0.09247510
v -0.03248039 -0.03214362 0.09247510
v -0.03248039 -0.03214362 0.09247510
v -0.03406681 -0.03089608 0.09306297
v -0.03406681 -0.03089608 0.09306297
v -0.03406681 -0.03089608 0.09306297
v -0.03406681 -0.03089608 0.09306297
v -0.03406681 -0.03089608 0.09306297
v -0.03406681 -0.03089608 0.09306297
v -0.03406681 -0.03089608 0.09306297
v -0.03485820 -0.02377512 0.09348288
v -0.03485820 -0.02377512 0.09348288
v -0.03485820 -0.02377512 0.09348288
v -0.03485820 -0.02377512 0.09348288
v -0.03485820 -0.02377512 0.09348288
v -0.03485820 -0.02377512 0.09348288
v -0.03485820 -0.02377512 0.09348288
v -0.03485820 -0.02377512 0.09348288
v -0.03485820 -0.02377512 0.09348288
v -0.03505514 -0.02138964 0.09354820
v -0.03505514 -0.02138964 0.09354820
v -0.03505514 -0.02138964 0.09354820
v -0.03505514 -0.02138964 0.09354820
v -0.03505514 -0.02138964 0.09354820
v -0.03517913 -0.01980362 0.09358553
v -0.03517913 -0.01980362 0.09358553
v -0.03517913 -0.01980362 0.09358553
v -0.03528124 -0.01822083 0.09363219
v -0.03528124 -0.01822083 0.09363219
v -0.03528124 -0.01822083 0.09363219
v -0.03528124 -0.01822083 0.09363219
v -0.03528124 -0.01822083 0.09363219
v -0.03528124 -0.01822083 0.09363219
v -0.03537607 -0.01663481 0.09366951
v -0.03537607 -0.01663481 0.09366951
v -0.03537607 -0.01663481 0.09366951
v -0.03406681 -0.00014602 0.09468663
v -0.03406681 -0.00014602 0.09468663
v -0.03406681 -0.00014602 0.09468663
v -0.03406681 -0.00014602 0.09468663
v -0.03406681 -0.00014602 0.09468663
v -0.03406681 -0.00014602 0.09468663
v -0.03406681 -0.00014602 0.09468663
v -0.03406681 -0.00014602 0.09468663
v -0.03406681 -0.00014602 0.09468663
v -0.03406681 -0.00014602 0.09468663
v -0.03555841 -0.01030041 0.09384680
v -0.03555841 -0.01030041 0.09384680
v -0.03555841 -0.01030041 0.09384680
v -0.03498220 -0.00014602 0.09433203
v -0.03498220 -0.00014602 0.09433203
v -0.03498220 -0.00014602 0.09433203
v -0.03498220 -0.00014602 0.09433203
v -0.03498220 -0.00014602 0.09433203
v -0.03638627 -0.00014602 0.09322160
v -0.03638627 -0.00014602 0.09322160
v -0.03638627 -0.00014602 0.09322160
v 0.00003585 -0.00014602 0.09283902
v 0.00003585 -0.00014602 0.09283902
v 0.00003585 -0.00014602 0.09283902
v 0.00003585 -0.03300433 0.00238091
v 0.00003585 -0.03300433 0.00238091
v 0.00003585 -0.03300433 0.00238091
v 0.00003585 -0.03300433 0.00238091
v -0.01663802 -0.03303334 0.00238091
v -0.01663802 -0.03303334 0.00238091
v -0.01663802 -0.03303334 0.00238091
v -0.01663802 -0.03303334 0.00238091
v -0.01663802 -0.03303334 0.00238091
v -0.01822444 -0.03303334 0.00238091
v -0.01822444 -0.03303334 0.00238091
v -0.01822444 -0.03303334 0.00238091
v -0.01822444 -0.03303334 0.00238091
v -0.02931118 -0.03302367 0.00238091
v -0.02931118 -0.03302367 0.00238091
v -0.02931118 -0.03302367 0.00238091
v -0.02931118 -0.03302367 0.00238091
v -0.02931118 -0.03302367 0.00238091
v -0.02931118 -0.03306235 0.00396724
v -0.02931118 -0.03306235 0.00396724
v -0.02931118 -0.03306235 0.00396724
v -0.02931118 -0.03306235 0.00396724
v -0.02931118 -0.03306235 0.00396724
v -0.02931118 -0.03306235 0.00396724
v -0.02931118 -0.03306880 0.00713056
v -0.02931118 -0.03306880 0.00713056
v -0.02931118 -0.03306880 0.00713056
v -0.02931118 -0.03306880 0.00713056
v -0.02931118 -0.03307202 0.01030322
v -0.02931118 -0.03307202 0.01030322
v -0.02931118 -0.03307202 0.01030322
v -0.02931118 -0.03307202 0.01030322
v -0.02931118 -0.03307202 0.01030322
v -0.02931118 -0.03307202 0.01030322
v -0.02931118 -0.03307525 0.05941412
v -0.02931118 -0.03307525 0.05941412
v -0.02931118 -0.03307525 0.05941412
v -0.02931118 -0.03307525 0.05941412
v -0.02931118 -0.03307525 0.06100045
v -0.02931118 -0.03307525 0.06100045
v -0.02931118 -0.03307525 0.06100045
v -0.02931118 -0.03307525 0.06100045
v -0.02931118 -0.03307202 0.07525875
v -0.02931118 -0.03307202 0.07525875
v -0.02931118 -0.03307202 0.07525875
v -0.02931118 -0.03307202 0.07525875
v -0.02931118 -0.03307202 0.07525875
v -0.02931118 -0.03307202 0.07525875
v -0.02931118 -0.03307202 0.07525875
v -0.02931118 -0.03306558 0.07684509
v -0.02931118 -0.03306558 0.07684509
v -0.02931118 -0.03306558 0.07684509
v -0.02931118 -0.03306558 0.07684509
v -0.02931118 -0.03304623 0.07843141
v -0.02931118 -0.03304623 0.07843141
v -0.02931118 -0.03304623 0.07843141
v -0.02931118 -0.03304623 0.07843141
v -0.02931118 -0.03304623 0.07843141
v -0.02931118 -0.03304623 0.07843141
v -0.02931118 -0.03304623 0.07843141
v -0.02931118 -0.03304623 0.07843141
v -0.02931118 -0.03300110 0.08001775
v -0.02931118 -0.03300110 0.08001775
v -0.02931118 -0.03300110 0.08001775
v -0.02931118 -0.03300110 0.08001775
v -0.02931118 -0.03265617 0.09110339
v -0.02931118 -0.03265617 0.09110339
v -0.02931118 -0.03265617 0.09110339
v -0.02931118 -0.03265617 0.09110339
v -0.02931118 -0.03265617 0.09110339
v -0.02931118 -0.03265617 0.09110339
v -0.02931118 -0.03265617 0.09110339
v -0.02931118 -0.03265617 0.09110339
v -0.02931118 -0.03265617 0.09110339
v -0.03089761 -0.03215652 0.09247510
v -0.03089761 -0.03215652 0.09247510
v -0.03089761 -0.03215652 0.09247510
v -0.03089761 -0.03215652 0.09247510
v -0.03089761 -0.03215652 0.09247510
v -0.03089761 -0.03089608 0.09312829
v -0.03089761 -0.03089608 0.09312829
v -0.03089761 -0.03089608 0.09312829
v -0.03089761 -0.03089608 0.09312829
v -0.03089761 -0.03089608 0.09312829
v -0.03089761 -0.03089608 0.09312829
v -0.03089761 -0.03089608 0.09312829
v -0.03089761 -0.03089608 0.09312829
v -0.03248039 -0.03089608 0.09311896
v -0.03248039 -0.03089608 0.09311896
v -0.03248039 -0.03089608 0.09311896
v -0.03248039 -0.03089608 0.09311896
v -0.03248039 -0.03089608 0.09311896
v -0.03406681 -0.02931329 0.09319361
v -0.03406681 -0.02931329 0.09319361
v -0.03406681 -0.02931329 0.09319361
v -0.03406681 -0.02931329 0.09319361
v -0.03406681 -0.01030041 0.09420140
v -0.03406681 -0.01030041 0.09420140
v -0.03406681 -0.01030041 0.09420140
v -0.03406681 -0.01030041 0.09420140
v -0.03406681 -0.00554880 0.09444401
v -0.03406681 -0.00554880 0.09444401
v -0.03406681 -0.00554880 0.09444401
v -0.03406681 -0.00554880 0.09444401
v -0.03406681 -0.00554880 0.09444401
v -0.03406681 -0.00554880 0.09444401
v -0.03248039 -0.02931329 0.09323093
v -0.03248039 -0.02931329 0.09323093
v -0.03248039 -0.02931329 0.09323093
v -0.03248039 -0.02931329 0.09323093
v -0.03248039 -0.02931329 0.09323093
v -0.03248039 -0.02931329 0.09323093
v -0.03248039 -0.00014602 0.09471462
v -0.03248039 -0.00014602 0.09471462
v -0.03248039 -0.00014602 0.09471462
v -0.03248039 -0.00014602 0.09471462
v -0.03248039 -0.00014602 0.09471462
v -0.00554764 -0.00014602 0.09449067
v -0.00554764 -0.00014602 0.09449067
v -0.00554764 -0.00014602 0.09449067
v -0.00554764 -0.00014602 0.09449067
v -0.00554764 -0.00014602 0.09449067
v 0.00003585 -0.01130617 0.09360419
v 0.00003585 -0.01130617 0.09360419
v 0.00003585 -0.01130617 0.09360419
v 0.00003585 -0.03305590 0.00396724
v 0.00003585 -0.03305590 0.00396724
v 0.00003585 -0.03305590 0.00396724
v 0.00003585 -0.03305590 0.00396724
v -0.01663802 -0.03306235 0.00396724
v -0.01663802 -0.03306235 0.00396724
v -0.01663802 -0.03306235 0.00396724
v -0.01663802 -0.03306235 0.00396724
v -0.01663802 -0.03306235 0.00396724
v -0.01663802 -0.03306235 0.00396724
v -0.02772841 -0.03306880 0.00555357
v -0.02772841 -0.03306880 0.00555357
v -0.02772841 -0.03306880 0.00555357
v -0.02772841 -0.03307202 0.00713056
v -0.02772841 -0.03307202 0.00713056
v -0.02772841 -0.03307202 0.00713056
v -0.02772841 -0.03307202 0.00713056
v -0.02772841 -0.03307202 0.00713056
v -0.02772841 -0.03307525 0.01981187
v -0.02772841 -0.03307525 0.01981187
v -0.02772841 -0.03307525 0.01981187
v -0.02772841 -0.03307525 0.01981187
v -0.02772841 -0.03307525 0.01981187
v -0.00079566 -0.03307847 0.06575011
v -0.00079566 -0.03307847 0.06575011
v -0.00079566 -0.03307847 0.06575011
v -0.00079566 -0.03307847 0.06575011
v -0.02772841 -0.03307525 0.07367243
v -0.02772841 -0.03307525 0.07367243
v -0.02772841 -0.03307525 0.07367243
v -0.02772841 -0.03307525 0.07367243
v -0.01346882 -0.03307525 0.07525875
v -0.01346882 -0.03307525 0.07525875
v -0.01346882 -0.03307525 0.07525875
v -0.01346882 -0.03307525 0.07525875
v -0.01346882 -0.03307525 0.07525875
v -0.01346882 -0.03307525 0.07525875
v -0.02614198 -0.03306880 0.07684509
v -0.02614198 -0.03306880 0.07684509
v -0.02614198 -0.03306880 0.07684509
v -0.02614198 -0.03306880 0.07684509
v -0.02614198 -0.03306880 0.07684509
v -0.02614198 -0.03306880 0.07684509
v -0.02614198 -0.03306880 0.07684509
v -0.00079566 -0.03305268 0.07843141
v -0.00079566 -0.03305268 0.07843141
v -0.00079566 -0.03305268 0.07843141
v -0.00079566 -0.03305268 0.07843141
v -0.00079566 -0.03305268 0.07843141
v -0.00079566 -0.03305268 0.07843141
v -0.02772841 -0.03300433 0.08001775
v -0.02772841 -0.03300433 0.08001775
v -0.02772841 -0.03300433 0.08001775
v -0.02772841 -0.03300433 0.08001775
v -0.02772841 -0.03300433 0.08001775
v 0.00003585 -0.03265617 0.09110339
v 0.00003585 -0.03265617 0.09110339
v 0.00003585 -0.03265617 0.09110339
v 0.00003585 -0.03239829 0.09182190
v 0.00003585 -0.03239829 0.09182190
v 0.00003585 -0.03239829 0.09182190
v 0.00003585 -0.03239829 0.09182190
v -0.02931118 -0.03216296 0.09247510
v -0.02931118 -0.03216296 0.09247510
v -0.02931118 -0.03216296 0.09247510
v -0.02931118 -0.03216296 0.09247510
v -0.02931118 -0.03216296 0.09247510
v -0.02931118 -0.03216296 0.09247510
v -0.00396486 -0.03300755 0.08001775
v -0.00396486 -0.03300755 0.08001775
v -0.00396486 -0.03300755 0.08001775
v -0.00396486 -0.03300755 0.08001775
v 0.00003585 -0.03150212 0.09282035
v 0.00003585 -0.03150212 0.09282035
v 0.00003585 -0.03150212 0.09282035
v 0.00003585 -0.03150212 0.09282035
v 0.00003585 -0.03089608 0.09312829
v 0.00003585 -0.03089608 0.09312829
v 0.00003585 -0.03089608 0.09312829
v -0.02297278 -0.02931329 0.09324027
v -0.02297278 -0.02931329 0.09324027
v -0.02297278 -0.02931329 0.09324027
v -0.02297278 -0.02931329 0.09324027
v -0.02297278 -0.02931329 0.09324027
v 0.00003585 -0.02931329 0.09324027
v 0.00003585 -0.02931329 0.09324027
v 0.00003585 -0.02931329 0.09324027
v 0.00003585 -0.02931329 0.09324027
v 0.00003585 -0.02931329 0.09324027
v 0.00003585 -0.02931329 0.09324027
v 0.00003585 -0.02931329 0.09324027
v -0.01822444 -0.00079396 0.09466797
v -0.01822444 -0.00079396 0.09466797
v -0.01822444 -0.00079396 0.09466797
v -0.01663802 -0.00014602 0.09469596
v -0.01663802 -0.00014602 0.09469596
v -0.01663802 -0.00014602 0.09469596
v -0.01663802 -0.00014602 0.09469596
v -0.01663802 -0.00014602 0.09469596
v -0.01663802 -0.00014602 0.09469596
v -0.01663802 -0.00014602 0.09469596
v -0.01663802 -0.00014602 0.09469596
v -0.01663802 -0.00014602 0.09469596
v -0.01599251 -0.00014602 0.09468663
v -0.01599251 -0.00014602 0.09468663
v -0.01599251 -0.00014602 0.09468663
v -0.01599251 -0.00014602 0.09468663
v 0.00003585 -0.01663481 0.09378148
v 0.00003585 -0.01663481 0.09378148
v 0.00003585 -0.01663481 0.09378148
v 0.00003585 -0.01663481 0.09378148
v 0.00003585 -0.01188642 0.09364151
v 0.00003585 -0.01188642 0.09364151
v 0.00003585 -0.01188642 0.09364151
v 0.00003585 -0.03306235 0.00479773
v 0.00003585 -0.03306235 0.00479773
v 0.00003585 -0.03306235 0.00479773
v 0.00003585 -0.03306558 0.00555357
v 0.00003585 -0.03306558 0.00555357
v 0.00003585 -0.03306558 0.00555357
v 0.00003585 -0.03306558 0.00555357
v -0.01663802 -0.03306880 0.00555357
v -0.01663802 -0.03306880 0.00555357
v -0.01663802 -0.03306880 0.00555357
v -0.01663802 -0.03306880 0.00555357
v -0.01663802 -0.03306880 0.00555357
v -0.02139000 -0.03307202 0.00713056
v -0.02139000 -0.03307202 0.00713056
v -0.02139000 -0.03307202 0.00713056
v -0.02139000 -0.03307202 0.00713056
v -0.02139000 -0.03307202 0.00713056
v -0.02614198 -0.03307525 0.01981187
v -0.02614198 -0.03307525 0.01981187
v -0.02614198 -0.03307525 0.01981187
v -0.02614198 -0.03307525 0.01981187
v 0.00003585 -0.03307525 0.07525875
v 0.00003585 -0.03307525 0.07525875
v 0.00003585 -0.03307525 0.07525875
v 0.00003585 -0.03307525 0.07525875
v 0.00003585 -0.03307525 0.02773418
v 0.00003585 -0.03307525 0.02773418
v 0.00003585 -0.03307525 0.02773418
v 0.00003585 -0.03307525 0.02773418
v -0.00079566 -0.03307202 0.07684509
v -0.00079566 -0.03307202 0.07684509
v -0.00079566 -0.03307202 0.07684509
v -0.00079566 -0.03307202 0.07684509
v 0.00003585 -0.03306235 0.07767558
v 0.00003585 -0.03306235 0.07767558
v 0.00003585 -0.03306235 0.07767558
v 0.00003585 -0.03306235 0.07767558
v 0.00003585 -0.03306235 0.07767558
v 0.00003585 -0.03305268 0.07843141
v 0.00003585 -0.03305268 0.07843141
v 0.00003585 -0.03305268 0.07843141
v 0.00003585 -0.03300755 0.08001775
v 0.00003585 -0.03300755 0.08001775
v 0.00003585 -0.03300755 0.08001775
v 0.00003585 -0.03216296 0.09247510
v 0.00003585 -0.03216296 0.09247510
v 0.00003585 -0.03216296 0.09247510
v 0.00003585 -0.02848482 0.09327759
v 0.00003585 -0.02848482 0.09327759
v 0.00003585 -0.02848482 0.09327759
v 0.00003585 -0.02531600 0.09341756
v 0.00003585 -0.02531600 0.09341756
v 0.00003585 -0.02531600 0.09341756
v 0.00003585 -0.02214397 0.09355753
v 0.00003585 -0.02214397 0.09355753
v 0.00003585 -0.02214397 0.09355753
v 0.00003585 -0.01897838 0.09368817
v 0.00003585 -0.01897838 0.09368817
v 0.00003585 -0.01897838 0.09368817
v 0.00003585 -0.01739236 0.09375349
v 0.00003585 -0.01739236 0.09375349
v 0.00003585 -0.01739236 0.09375349
v 0.00003585 -0.01739236 0.09375349
v 0.00003585 -0.03306880 0.00713056
v 0.00003585 -0.03306880 0.00713056
v 0.00003585 -0.03306880 0.00713056
v 0.00003585 -0.03306880 0.00713056
v 0.00003585 -0.03307202 0.01113371
v 0.00003585 -0.03307202 0.01113371
v 0.00003585 -0.03307202 0.01113371
v 0.00003585 -0.03307202 0.01113371
v 0.00003585 -0.03307202 0.07684509
v 0.00003585 -0.03307202 0.07684509
v 0.00003585 -0.03307202 0.07684509
v 0.00003585 -0.03307202 0.07684509
f 10 13 17
f 9 16 21
f 8 20 27
f 8 27 32
f 6 31 37
f 7 38 45
f 1 44 50
f 4 51 55
f 3 54 57
f 5 58 60
f 5 60 64
f 2 63 69
f 2 69 12
f 15 75 23
f 14 22 18
f 11 66 132
f 11 132 196
f 11 196 282
f 11 282 433
f 11 433 628
f 11 628 625
f 11 625 621
f 11 621 833
f 11 833 1041
f 11 1041 1191
f 11 1191 1031
f 11 1031 1186
f 11 1186 1173
f 11 1173 1309
f 11 1309 1416
f 11 1416 1425
f 11 1425 1314
f 11 1314 1194
f 11 1194 1045
f 11 1045 838
f 11 838 631
f 11 631 436
f 11 436 288
f 11 288 204
f 11 204 140
f 11 140 76
f 11 76 72
f 19 73 25
f 26 74 81
f 24 79 28
f 30 80 86
f 29 85 36
f 35 83 91
f 34 89 96
f 33 94 43
f 42 92 101
f 40 99 106
f 39 105 110
f 41 111 127
f 41 127 48
f 47 117 120
f 49 123 53
f 46 126 116
f 52 122 190
f 52 190 131
f 52 131 68
f 52 68 56
f 59 71 62
f 61 70 65
f 67 130 135
f 78 139 84
f 77 142 203
f 77 203 137
f 82 138 90
f 87 136 202
f 87 202 148
f 88 149 95
f 93 147 102
f 100 146 154
f 97 153 160
f 98 163 104
f 103 162 108
f 107 161 166
f 109 167 171
f 109 171 124
f 113 170 177
f 112 176 179
f 115 181 119
f 114 125 172
f 118 180 267
f 118 267 185
f 121 186 189
f 128 187 280
f 128 280 194
f 129 195 134
f 133 193 198
f 141 206 201
f 145 199 294
f 145 294 210
f 144 209 214
f 143 213 226
f 143 226 152
f 151 220 159
f 150 225 219
f 156 217 233
f 155 232 236
f 157 237 242
f 158 244 165
f 164 243 250
f 164 250 169
f 168 249 175
f 176 255 179
f 174 248 261
f 173 260 253
f 178 254 372
f 178 372 265
f 182 266 275
f 183 276 279
f 184 281 188
f 191 278 420
f 191 420 286
f 192 287 197
f 200 205 295
f 207 293 457
f 207 457 299
f 208 301 212
f 211 300 317
f 211 317 222
f 216 307 231
f 218 224 312
f 215 310 306
f 221 316 323
f 223 324 311
f 229 303 330
f 227 328 334
f 228 335 341
f 230 343 234
f 235 344 241
f 238 348 362
f 238 362 247
f 240 342 352
f 239 351 349
f 246 358 257
f 245 361 357
f 252 367 369
f 251 259 365
f 256 356 377
f 258 378 363
f 262 384 390
f 264 391 274
f 263 371 385
f 271 389 395
f 268 394 398
f 270 399 411
f 269 410 415
f 272 416 418
f 273 419 277
f 285 417 414
f 285 414 424
f 284 423 432
f 283 431 435
f 289 440 445
f 290 446 449
f 291 450 452
f 292 453 456
f 297 455 463
f 296 461 466
f 298 468 314
f 305 309 475
f 304 470 480
f 302 478 329
f 308 322 474
f 313 467 484
f 315 486 319
f 318 485 489
f 320 491 494
f 321 495 473
f 326 501 333
f 327 477 508
f 325 506 500
f 331 499 513
f 332 514 338
f 336 512 516
f 336 516 522
f 337 523 527
f 339 528 345
f 340 347 350
f 346 529 534
f 346 534 359
f 353 535 538
f 355 539 376
f 354 360 536
f 364 380 541
f 366 544 368
f 370 546 382
f 373 552 555
f 375 557 559
f 379 561 540
f 374 537 533
f 374 533 553
f 381 545 566
f 383 569 388
f 386 568 574
f 387 576 392
f 393 577 397
f 396 575 408
f 407 573 582
f 402 581 587
f 400 586 592
f 401 593 597
f 403 599 601
f 404 602 606
f 405 608 610
f 406 612 616
f 409 619 412
f 413 620 422
f 421 618 429
f 426 617 615
f 425 614 623
f 427 624 626
f 428 627 629
f 430 630 434
f 437 635 638
f 438 639 642
f 439 643 441
f 442 644 648
f 443 649 653
f 444 654 447
f 448 655 657
f 448 657 451
f 451 657 462
f 451 462 454
f 459 656 662
f 458 661 669
f 460 670 464
f 465 672 482
f 472 492 678
f 471 677 684
f 469 683 479
f 476 682 507
f 481 671 687
f 483 688 487
f 490 679 493
f 488 690 675
f 498 503 696
f 496 694 701
f 497 702 511
f 505 680 706
f 504 704 714
f 502 713 695
f 509 700 719
f 510 720 515
f 515 720 521
f 520 718 724
f 518 723 728
f 517 727 732
f 519 733 526
f 525 740 531
f 524 731 738
f 530 739 743
f 532 744 748
f 532 748 547
f 542 563 751
f 543 755 565
f 548 749 759
f 549 760 764
f 550 766 768
f 551 769 554
f 556 770 558
f 560 771 777
f 562 779 750
f 564 754 783
f 567 785 571
f 570 784 791
f 572 793 579
f 578 792 797
f 580 798 585
f 583 796 804
f 584 805 589
f 588 803 811
f 590 812 814
f 591 817 595
f 598 605 600
f 594 816 824
f 596 826 603
f 607 832 835
f 609 836 611
f 604 827 830
f 613 837 622
f 632 841 844
f 633 845 849
f 634 851 636
f 637 852 641
f 640 850 647
f 646 848 857
f 645 856 651
f 650 855 660
f 652 662 656
f 659 853 860
f 658 859 666
f 665 858 869
f 664 866 872
f 663 871 875
f 667 879 881
f 668 885 685
f 674 689 892
f 673 891 705
f 676 707 681
f 686 886 888
f 692 898 901
f 693 902 697
f 691 710 897
f 698 903 906
f 699 907 715
f 703 890 712
f 711 889 887
f 708 884 913
f 709 914 896
f 716 908 917
f 717 918 721
f 721 918 924
f 722 926 726
f 725 925 730
f 729 923 737
f 734 930 935
f 736 937 742
f 735 922 931
f 741 936 942
f 741 942 746
f 745 941 946
f 747 948 757
f 752 780 953
f 753 954 782
f 756 947 956
f 756 956 961
f 758 963 762
f 761 962 966
f 763 967 969
f 765 971 767
f 775 973 975
f 776 976 983
f 774 982 987
f 773 986 950
f 772 949 778
f 781 952 790
f 786 984 979
f 789 980 794
f 788 951 989
f 787 988 985
f 795 981 802
f 801 978 995
f 799 993 1003
f 800 1004 810
f 809 1002 1010
f 808 1009 1015
f 806 1014 1021
f 807 1022 820
f 813 823 815
f 818 1020 1025
f 819 1026 1029
f 821 1030 1033
f 822 1034 1036
f 825 1040 829
f 831 1044 834
f 828 1039 1043
f 839 863 843
f 840 1046 864
f 842 862 847
f 846 861 854
f 865 1047 1196
f 865 1196 1321
f 865 1321 1435
f 865 1435 1432
f 865 1432 1498
f 865 1498 1494
f 865 1494 1491
f 865 1491 1488
f 865 1488 1485
f 865 1485 1412
f 865 1412 1400
f 865 1400 1396
f 865 1396 1482
f 865 1482 1383
f 865 1383 1379
f 865 1379 1479
f 865 1479 1476
f 865 1476 1471
f 865 1471 1510
f 865 1510 1460
f 865 1460 1464
f 865 1464 1506
f 865 1506 1502
f 865 1502 1442
f 865 1442 1438
f 865 1438 1325
f 865 1325 1200
f 865 1200 1050
f 865 1050 870
f 868 1048 1054
f 867 1052 873
f 874 1056 876
f 877 1057 1061
f 878 1063 1065
f 880 1067 882
f 883 1069 911
f 894 1074 1078
f 895 1079 899
f 893 912 1073
f 900 1080 905
f 904 1077 915
f 909 1068 1085
f 910 1086 1072
f 915 1077 1088
f 915 1088 1092
f 916 1094 920
f 919 1093 1099
f 921 1100 929
f 928 1105 934
f 927 1098 1103
f 932 1108 1114
f 932 1114 938
f 933 1104 1109
f 939 1115 1118
f 940 1120 944
f 943 1119 1126
f 945 1127 955
f 955 1127 959
f 958 1125 1132
f 957 1131 1136
f 960 1139 965
f 964 1138 1142
f 968 1144 970
f 972 1145 990
f 974 994 977
f 991 1146 1153
f 992 1154 996
f 997 1155 1159
f 998 1160 1162
f 999 1163 1168
f 1000 1169 1171
f 1001 1172 1008
f 1007 1170 1167
f 1005 1165 1178
f 1006 1179 1011
f 1012 1180 1183
f 1013 1185 1019
f 1016 1184 1181
f 1017 1182 1187
f 1018 1188 1023
f 1024 1189 1027
f 1028 1190 1032
f 1035 1192 1037
f 1038 1193 1042
f 1049 1199 1055
f 1059 1081 1062
f 1053 1198 1205
f 1051 1202 1207
f 1058 1208 1210
f 1060 1212 1082
f 1064 1083 1066
f 1071 1214 1220
f 1071 1220 1076
f 1070 1084 1213
f 1075 1219 1224
f 1075 1224 1087
f 1087 1224 1091
f 1089 1223 1229
f 1090 1230 1096
f 1095 1228 1233
f 1097 1234 1237
f 1097 1237 1101
f 1102 1238 1245
f 1102 1245 1107
f 1106 1244 1112
f 1111 1249 1255
f 1113 1256 1116
f 1110 1243 1248
f 1117 1257 1124
f 1121 1254 1260
f 1122 1261 1268
f 1123 1270 1129
f 1128 1269 1274
f 1130 1275 1135
f 1133 1272 1281
f 1134 1282 1284
f 1137 1287 1140
f 1141 1288 1291
f 1143 1292 1152
f 1149 1296 1301
f 1150 1302 1175
f 1151 1176 1156
f 1148 1289 1307
f 1147 1306 1295
f 1157 1177 1164
f 1158 1166 1161
f 1174 1300 1313
f 1195 1318 1320
f 1197 1324 1204
f 1203 1323 1331
f 1201 1327 1216
f 1201 1216 1206
f 1209 1217 1211
f 1215 1326 1444
f 1215 1444 1333
f 1218 1334 1338
f 1218 1338 1221
f 1222 1339 1227
f 1225 1337 1343
f 1226 1344 1232
f 1231 1348 1235
f 1231 1342 1348
f 1235 1348 1350
f 1236 1352 1242
f 1240 1351 1358
f 1239 1357 1361
f 1241 1364 1246
f 1247 1365 1252
f 1250 1362 1369
f 1251 1371 1374
f 1253 1375 1258
f 1259 1376 1266
f 1263 1378 1380
f 1264 1381 1384
f 1267 1389 1273
f 1265 1373 1393
f 1262 1391 1478
f 1262 1478 1377
f 1271 1388 1280
f 1278 1387 1397
f 1276 1395 1398
f 1277 1399 1406
f 1277 1406 1401
f 1279 1405 1304
f 1283 1305 1285
f 1286 1308 1290
f 1294 1303 1404
f 1293 1403 1299
f 1298 1408 1310
f 1297 1402 1407
f 1312 1414 1417
f 1311 1409 1413
f 1315 1428 1430
f 1316 1431 1433
f 1317 1434 1319
f 1322 1437 1330
f 1328 1436 1439
f 1329 1440 1445
f 1332 1443 1450
f 1332 1450 1336
f 1335 1449 1455
f 1335 1455 1341
f 1340 1453 1346
f 1345 1457 1353
f 1345 1353 1349
f 1346 1453 1461
f 1347 1463 1459
f 1354 1458 1507
f 1355 1508 1465
f 1356 1467 1359
f 1360 1468 1472
f 1363 1473 1370
f 1366 1470 1474
f 1367 1475 1477
f 1367 1477 1390
f 1368 1392 1372
f 1382 1480 1385
f 1386 1481 1394
f 1411 1483 1419
f 1410 1418 1415
f 1420 1484 1486
f 1421 1487 1489
f 1422 1490 1492
f 1423 1493 1495
f 1424 1496 1426
f 1427 1497 1429
f 1441 1499 1446
f 1447 1500 1451
f 1452 1501 1505
f 1448 1503 1454
f 1456 1504 1462
f 1466 1509 1469

