# https://github.com/mikedh/trimesh
v 0.07764640 -0.00083921 0.10291190
v 0.06393166 0.00017491 0.01192705
v 0.05811644 -0.02637219 0.01192705
v 0.07358910 -0.02645825 0.10362885
v 0.07720635 0.00017491 0.06832670
v 0.07959770 -0.00083921 0.10516740
v 0.08263450 -0.00083921 0.10748010
v 0.07541755 -0.00901479 0.02388653
v 0.07210125 0.00017491 0.01192705
v 0.07655440 0.00017491 0.02712892
v 0.07687095 -0.00980597 0.03016832
v 0.07527650 -0.01114601 0.02438209
v 0.08317530 0.00017491 0.06832670
v 0.08848970 -0.00083921 0.10798060
v 0.08950110 -0.00083921 0.10628150
v 0.06721715 -0.02637219 0.01192705
v 0.07184320 -0.02637219 0.02588768
v 0.08555105 -0.02645825 0.10628150
v 0.07700355 -0.02637219 0.05026918
v 0.08750495 -0.01914036 0.10561135
v 0.07864870 -0.02645825 0.10754640
v 0.08111935 -0.02645825 0.10818795
v 0.08626735 -0.00083921 0.10830170
v 0.08110375 0.00017491 0.04963673
v 0.08080540 -0.00901479 0.04963673
v 0.07205835 -0.02556145 0.02535904
v 0.08021260 -0.01238952 0.04880610
v 0.07535905 -0.02645825 0.10536565
v 0.08766875 -0.01867632 0.10768810
v 0.08530860 -0.02645825 0.10783890
v 0.08626735 -0.01351968 0.10831340
v 0.07150975 -0.01032350 0.01192705
v 0.08875100 -0.01159048 0.10628150
v 0.08942700 -0.00386594 0.10628150
f 1 2 3
f 4 1 3
f 1 5 2
f 6 1 4
f 6 5 1
f 5 6 7
f 8 9 10
f 8 11 12
f 11 8 10
f 13 14 15
f 16 17 18
f 16 4 3
f 16 18 4
f 17 19 18
f 19 20 18
f 21 22 7
f 22 23 7
f 23 5 7
f 23 13 5
f 13 23 14
f 24 13 15
f 24 11 10
f 11 24 25
f 16 26 17
f 11 26 12
f 26 19 17
f 19 27 20
f 27 11 25
f 27 26 11
f 26 27 19
f 28 6 4
f 6 28 7
f 28 21 7
f 29 30 18
f 20 29 18
f 30 31 22
f 31 23 22
f 29 31 30
f 23 31 14
f 31 29 14
f 26 32 12
f 32 26 16
f 32 8 12
f 8 32 9
f 33 29 20
f 33 27 25
f 27 33 20
f 34 33 25
f 34 24 15
f 24 34 25
f 33 34 29
f 14 34 15
f 29 34 14
f 9 24 10
f 24 9 2
f 5 24 2
f 13 24 5
f 30 28 18
f 18 28 4
f 21 28 22
f 28 30 22
f 9 32 2
f 2 32 3
f 32 16 3

