# https://github.com/mikedh/trimesh
v -0.12611300 -0.01673107 0.09535630
v -0.12598170 -0.01673107 0.09975810
v -0.12632360 -0.02092870 0.09727510
v -0.09120995 -0.02277048 0.09139325
v -0.11717875 -0.01673107 0.09347910
v -0.09120995 -0.02462987 0.09008350
v -0.11277695 -0.01673107 0.09796280
v -0.09189440 -0.02286499 0.09510410
v -0.10863385 -0.03102327 0.09459385
v -0.09120995 -0.03188172 0.09073610
v -0.09120995 -0.03306524 0.09339850
v -0.11914890 -0.02632754 0.09444110
v -0.12438140 -0.02034175 0.10052445
v -0.12103325 -0.01673107 0.10174515
v -0.12288640 -0.02504710 0.09804080
v -0.11767535 -0.02730806 0.09996090
v -0.12232025 -0.01673906 0.09355580
v -0.12232025 -0.01931436 0.09370725
v -0.09120995 -0.02981251 0.09009000
v -0.12371775 -0.02208661 0.09466275
v -0.11622455 -0.01673107 0.10070905
v -0.11331515 -0.01673107 0.09472450
v -0.09120995 -0.03185767 0.09541805
v -0.11897730 -0.02861294 0.09725755
v -0.09979320 -0.02575177 0.09862060
v -0.11717160 -0.02446490 0.10116990
v -0.11022310 -0.02863374 0.10002070
v -0.11134110 -0.03107774 0.09757670
v -0.12288640 -0.02504710 0.09654060
v -0.09578855 -0.02435401 0.09731735
v -0.09511190 -0.03098641 0.09732775
v -0.10708620 -0.02575177 0.10004670
v -0.10236785 -0.03235096 0.09599200
v -0.10043735 -0.03158545 0.09787375
f 2 1 3
f 5 4 6
f 4 7 8
f 9 10 11
f 10 9 12
f 2 13 14
f 13 15 16
f 13 2 3
f 15 13 3
f 17 5 6
f 17 1 5
f 17 18 1
f 19 10 12
f 18 19 12
f 19 17 6
f 17 19 18
f 20 18 12
f 1 20 3
f 18 20 1
f 7 21 8
f 22 4 5
f 22 7 4
f 23 4 8
f 15 24 16
f 9 24 12
f 25 21 14
f 27 26 16
f 13 26 14
f 26 13 16
f 28 24 9
f 28 27 16
f 24 28 16
f 29 24 15
f 29 15 3
f 20 29 3
f 29 20 12
f 24 29 12
f 21 30 8
f 25 30 21
f 30 25 31
f 30 23 8
f 23 30 31
f 32 26 27
f 32 27 31
f 25 32 31
f 32 25 14
f 26 32 14
f 33 9 11
f 33 28 9
f 33 34 28
f 27 34 31
f 28 34 27
f 34 23 31
f 23 34 11
f 34 33 11
f 22 2 14
f 1 22 5
f 22 1 2
f 21 22 14
f 22 21 7
f 23 19 6
f 10 23 11
f 4 23 6
f 19 23 10

