# https://github.com/mikedh/trimesh
v 0.06951490 0.01669648 0.00977977
v 0.06859320 0.02275734 0.01192705
v 0.07215195 0.00579481 0.01192705
v 0.06591845 0.02275734 0.00666919
v 0.05552118 0.02275734 -0.00141638
v 0.02407398 0.02275734 -0.00141638
v 0.02407398 -0.02255266 -0.00141638
v 0.06902740 0.00386933 0.00542122
v 0.07009470 -0.00793137 0.00807918
v 0.06662370 -0.00643773 0.00234528
v 0.06953635 -0.01558375 0.00966615
v 0.06854120 -0.02255266 0.01192705
v 0.07171385 -0.00901446 0.01192705
v 0.07056855 0.00643193 0.00843187
v 0.06680765 -0.01094704 0.00337941
v 0.05695319 -0.02255266 -0.00132256
v 0.06243835 -0.00901446 -0.00098405
v 0.05943587 -0.02255266 -0.00072953
v 0.06253293 0.02275734 0.00198273
v 0.06196820 0.01424715 -0.00071270
v 0.06050129 0.00772031 -0.00140201
v 0.06389467 0.00386933 -0.00026829
v 0.07126860 0.00386933 0.00953290
v 0.06347757 -0.01257523 0.00036584
v 0.06693505 -0.02221837 0.00808087
v 0.06436131 0.01802736 0.00199785
v 0.06048718 -0.01030283 -0.00135565
v 0.06253735 0.00579481 -0.00099058
v 0.06457874 -0.02255266 0.00423092
v 0.06669455 0.00643193 0.00227736
v 0.06679335 0.00386933 0.00216111
v 0.06671535 0.01838128 0.00559526
v 0.02407398 -0.02255266 0.01192705
v 0.02407398 0.02275734 0.01192705
f 1 2 3
f 2 1 4
f 6 5 7
f 8 9 10
f 12 11 13
f 11 9 13
f 14 1 3
f 9 15 10
f 11 15 9
f 16 17 18
f 19 20 5
f 20 21 5
f 5 21 7
f 17 22 10
f 23 14 3
f 13 23 3
f 9 23 13
f 8 23 9
f 14 23 8
f 24 17 10
f 15 24 10
f 17 24 18
f 25 11 12
f 19 26 20
f 26 19 4
f 27 16 7
f 21 27 7
f 16 27 17
f 27 21 17
f 28 21 20
f 22 28 20
f 21 28 17
f 28 22 17
f 29 25 12
f 24 29 18
f 29 24 15
f 29 15 11
f 25 29 11
f 30 22 20
f 26 30 20
f 30 14 8
f 22 31 10
f 30 31 22
f 31 8 10
f 31 30 8
f 14 32 1
f 30 32 14
f 32 30 26
f 1 32 4
f 32 26 4
f 6 33 34
f 33 6 7
f 2 12 3
f 12 13 3
f 12 2 34
f 33 12 34
f 2 19 34
f 19 2 4
f 19 6 34
f 19 5 6
f 29 33 7
f 29 12 33
f 16 29 7
f 29 16 18

