# https://github.com/mikedh/trimesh
v 0.08950110 -0.00083253 0.10629190
v 0.08314280 -0.00083253 0.06833450
v 0.08952840 0.02498008 0.08926645
v 0.08952840 0.03219898 0.09461205
v 0.08325850 0.00515528 0.06833450
v 0.08952840 0.03360883 0.09156160
v 0.07483775 0.03681931 0.06833450
v 0.08027305 0.03681931 0.08486660
v 0.08926905 0.00644351 0.10629190
v 0.06992180 0.03681931 0.10465065
v 0.08263450 -0.00083253 0.10748725
v 0.07444255 0.03681931 0.10767900
v 0.08849100 -0.00083253 0.10798450
v 0.07725250 -0.00043444 0.10244520
v 0.06875115 0.03681931 0.10170095
v 0.06891430 0.03681931 0.10350665
v 0.07717710 -0.00083253 0.06833450
v 0.06816810 0.03681931 0.06833450
v 0.08952840 0.03126090 0.08938735
v 0.08286850 0.00901628 0.06833450
v 0.08008390 0.02384479 0.06833450
v 0.08170175 0.03681931 0.10629190
v 0.08626865 -0.00083253 0.10830560
v 0.08626865 0.01352422 0.10832055
v 0.08240635 0.02832323 0.10833290
v 0.07854665 0.03681931 0.10831730
v 0.08800805 0.01416922 0.10795330
v 0.08504730 0.02852226 0.10764780
v 0.07764965 -0.00083253 0.10291905
v 0.08079695 0.03681931 0.10798450
v 0.08268065 0.03421333 0.10780835
v 0.08392020 -0.00083253 0.10789805
v 0.08767785 0.01859604 0.10770240
v 0.07959640 -0.00083253 0.10517195
f 1 2 3
f 4 1 3
f 2 5 3
f 6 7 8
f 4 9 1
f 10 11 12
f 9 13 1
f 15 14 16
f 17 14 18
f 14 15 18
f 19 5 20
f 5 19 3
f 19 20 21
f 7 19 21
f 6 19 7
f 6 22 4
f 22 6 8
f 23 13 24
f 25 23 24
f 23 25 26
f 23 26 12
f 13 27 24
f 25 27 28
f 27 25 24
f 27 13 9
f 29 14 17
f 14 29 16
f 25 30 26
f 4 31 28
f 22 31 4
f 30 31 22
f 31 25 28
f 31 30 25
f 11 32 12
f 32 23 12
f 33 4 28
f 27 33 28
f 33 9 4
f 33 27 9
f 10 34 11
f 34 10 16
f 29 34 16
f 5 17 18
f 7 5 18
f 20 5 21
f 5 7 21
f 17 5 2
f 19 6 4
f 19 4 3
f 30 7 18
f 26 30 12
f 15 30 18
f 7 30 8
f 30 10 12
f 30 15 16
f 10 30 16
f 30 22 8
f 34 17 2
f 1 34 2
f 34 29 17
f 13 34 1
f 23 34 13
f 34 32 11
f 32 34 23

