# https://github.com/mikedh/trimesh
v -0.00037770 0.07749982 0.06833450
v -0.00037770 0.07882453 0.10366525
v -0.04358848 0.06422182 0.06833450
v -0.04358848 0.06584403 0.10364575
v -0.01673984 0.08806752 0.10796565
v -0.00037770 0.09019563 0.10764845
v -0.01545388 0.08626963 0.10834395
v -0.01471782 0.08233322 0.06833450
v -0.02088112 0.08761187 0.10494185
v -0.02961212 0.07813552 0.06833450
v -0.00037770 0.08626963 0.10827115
v -0.00037770 0.08421498 0.10787205
v -0.04358848 0.07153347 0.10764845
v -0.00037770 0.08292863 0.10732345
v -0.03064003 0.08491438 0.10585445
v -0.00637602 0.09000258 0.10642255
v -0.00037770 0.08348567 0.06833450
v -0.04358848 0.06950677 0.10650510
v -0.04358848 0.06712583 0.10486775
v -0.00037770 0.07988468 0.10495355
v -0.04358848 0.07487318 0.10826725
v -0.03090230 0.08498327 0.10757825
v -0.03639727 0.08255618 0.10559640
v -0.00037770 0.09010137 0.10541960
v -0.01673984 0.08850237 0.10628930
v -0.00547500 0.09014753 0.10759385
v -0.03210155 0.07720343 0.06833450
v -0.03733847 0.07983008 0.10829910
v -0.04358848 0.07828307 0.10796175
v -0.02120684 0.08768337 0.10770760
v -0.04179065 0.08009332 0.10628930
v -0.04358848 0.07112787 0.06833450
v -0.04358848 0.07909168 0.10628930
v -0.04168489 0.08005042 0.10777000
f 1 2 3
f 2 4 3
f 6 5 7
f 9 8 10
f 12 11 13
f 11 6 7
f 14 12 13
f 15 9 10
f 8 16 17
f 18 14 13
f 14 18 19
f 20 14 19
f 20 19 4
f 20 4 2
f 21 11 7
f 11 21 13
f 15 22 9
f 23 22 15
f 16 24 17
f 25 8 9
f 25 16 8
f 26 5 6
f 24 26 6
f 26 24 16
f 25 26 16
f 27 15 10
f 27 23 15
f 21 28 29
f 28 21 7
f 5 28 7
f 30 28 5
f 28 30 22
f 26 30 5
f 30 26 25
f 22 30 9
f 30 25 9
f 31 32 33
f 31 27 32
f 27 31 23
f 31 22 23
f 28 34 29
f 34 28 22
f 31 34 22
f 29 34 33
f 34 31 33
f 19 21 4
f 4 21 3
f 21 18 13
f 21 32 3
f 32 21 33
f 21 29 33
f 18 21 19
f 17 24 1
f 1 24 2
f 24 20 2
f 11 24 6
f 24 11 12
f 14 24 12
f 20 24 14
f 8 27 10
f 27 1 3
f 27 17 1
f 27 8 17
f 32 27 3

