# https://github.com/mikedh/trimesh
v -0.06048783 0.00643193 -0.00141638
v -0.02407470 0.02286940 -0.00141638
v -0.05743946 0.02286940 -0.00127692
v -0.02407470 -0.02243664 -0.00141638
v -0.05619302 -0.02243664 -0.00140809
v -0.06200071 -0.01355211 -0.00073458
v -0.06434786 -0.01790568 0.00201875
v -0.06677970 -0.00386095 0.00217157
v -0.06214215 0.01262605 -0.00083188
v -0.06253098 0.00257387 -0.00099254
v -0.06942390 -0.01743846 0.01001748
v -0.06952660 -0.01974271 0.01192705
v -0.07213830 -0.00572981 0.01192705
v -0.06858280 -0.02243664 0.01192705
v -0.06355785 -0.02243664 0.00317686
v -0.05918165 -0.02243664 -0.00080575
v -0.06050193 -0.01030283 -0.00134128
v -0.06389539 -0.00386095 -0.00026045
v -0.05944113 0.02286940 -0.00074098
v -0.06571565 0.01094125 0.00202103
v -0.06457607 0.02286940 0.00423278
v -0.06727435 0.01158547 0.00405239
v -0.06981260 0.01363836 0.00919074
v -0.07175675 0.00900867 0.01192705
v -0.06854445 0.02286940 0.01192705
v -0.07126210 -0.00386095 0.00953290
v -0.06939530 -0.00643773 0.00652229
v -0.06669520 -0.01673061 0.00499411
v -0.06663865 0.00643193 0.00233875
v -0.06981975 0.00956793 0.00768930
v -0.06837740 -0.00386095 0.00444815
v -0.06449631 0.00900867 0.00058135
v -0.02407470 -0.02243664 0.01192705
v -0.02407470 0.02286940 0.01192705
f 2 1 3
f 1 2 4
f 5 1 4
f 6 7 8
f 1 9 3
f 9 1 10
f 11 12 13
f 12 11 14
f 11 15 14
f 16 15 7
f 6 16 7
f 17 1 5
f 16 17 5
f 17 16 6
f 1 17 10
f 17 6 10
f 18 6 8
f 6 18 10
f 9 19 3
f 21 20 22
f 19 20 21
f 20 19 9
f 23 24 25
f 21 23 25
f 23 21 22
f 24 26 13
f 26 11 13
f 11 26 27
f 15 28 7
f 11 28 15
f 28 11 27
f 7 28 8
f 20 29 22
f 30 23 22
f 23 30 24
f 30 26 24
f 29 30 22
f 26 31 27
f 28 31 8
f 31 28 27
f 31 29 8
f 30 31 26
f 31 30 29
f 32 18 8
f 29 32 8
f 32 9 10
f 18 32 10
f 32 20 9
f 32 29 20
f 33 2 34
f 2 33 4
f 12 24 13
f 24 33 34
f 25 24 34
f 33 24 14
f 24 12 14
f 33 16 4
f 16 5 4
f 16 33 14
f 15 16 14
f 19 25 34
f 19 2 3
f 2 19 34
f 19 21 25

