# https://github.com/mikedh/trimesh
v 0.06730490 0.02275734 0.00891475
v 0.06429059 0.03330385 0.01192705
v 0.06859320 0.02275734 0.01192705
v 0.06064266 0.03368612 0.00567003
v 0.05922878 0.03095358 0.00197695
v 0.06246500 0.02275734 0.00192095
v 0.05686753 0.02877329 -0.00074372
v 0.05429418 0.04659817 0.00939055
v 0.04573998 0.05608408 0.01192705
v 0.04387357 0.05673532 0.00957469
v 0.05799209 0.02275734 -0.00107889
v 0.03774426 0.06151366 0.01192705
v 0.05702307 0.04441788 0.01192705
v 0.06180213 0.03607883 0.00969618
v 0.03117660 0.06450808 0.00946238
v 0.02407398 0.06806702 0.01192705
v 0.04987924 0.03604341 -0.00128430
v 0.02407398 0.02275734 -0.00141638
v 0.02407398 0.06736177 0.00990320
v 0.02877290 0.05693356 -0.00078160
v 0.02407398 0.05891444 -0.00067618
v 0.02407398 0.05547210 -0.00141638
v 0.03529461 0.05656547 0.00206968
v 0.03663433 0.05189327 -0.00082862
v 0.02407398 0.06223321 0.00205809
v 0.03604049 0.04891302 -0.00140527
v 0.04896372 0.04124646 -0.00061180
v 0.03068176 0.06169065 0.00472897
v 0.05119770 0.04339849 0.00223164
v 0.05401844 0.04241451 0.00465060
v 0.05121187 0.04607434 0.00491705
v 0.04249505 0.05149690 0.00201940
v 0.04271416 0.05361707 0.00433191
v 0.02407398 0.02275734 0.01192705
f 1 2 3
f 1 4 2
f 4 1 5
f 5 6 7
f 1 6 5
f 9 8 10
f 6 11 7
f 12 9 10
f 13 8 9
f 4 14 2
f 14 13 2
f 13 14 8
f 12 15 16
f 15 12 10
f 17 11 18
f 11 17 7
f 15 19 16
f 21 20 22
f 20 23 24
f 20 21 25
f 20 26 22
f 26 20 24
f 26 18 22
f 26 17 18
f 27 5 7
f 17 27 7
f 27 26 24
f 26 27 17
f 19 28 25
f 28 19 15
f 28 20 25
f 20 28 23
f 28 15 10
f 27 29 5
f 30 4 5
f 29 30 5
f 30 14 4
f 14 30 8
f 8 31 10
f 30 31 8
f 31 30 29
f 32 27 24
f 32 29 27
f 23 32 24
f 33 31 29
f 32 33 29
f 31 33 10
f 33 32 23
f 33 28 10
f 28 33 23
f 34 11 3
f 18 11 34
f 11 1 3
f 11 6 1
f 13 34 3
f 2 13 3
f 34 13 16
f 13 12 16
f 12 13 9
f 19 34 16
f 18 19 22
f 19 18 34
f 19 21 22
f 21 19 25

