# https://github.com/mikedh/trimesh
v -0.12643540 0.02393631 0.09676160
v -0.12415650 0.02446047 0.09443525
v -0.12444510 0.02446047 0.10064340
v -0.11391770 0.02446047 0.10029565
v -0.11185330 0.02446047 0.09844380
v -0.11036415 0.00386470 0.09783735
v -0.11275875 0.02446047 0.09444630
v -0.11460020 0.00257949 0.09352850
v -0.11717355 0.02446047 0.09334260
v -0.12681500 0.01673503 0.10060570
v -0.12892295 -0.01094503 0.09769565
v -0.12881310 0.00557430 0.09992190
v -0.12939810 0.00386470 0.09621560
v -0.12232350 0.01673503 0.09335755
v -0.11911380 -0.01673107 0.09347585
v -0.11331840 -0.01673107 0.09472450
v -0.12623910 0.00595735 0.10246015
v -0.11146980 0.02446047 0.09599395
v -0.12886705 0.01373112 0.09700015
v -0.12838085 0.00515093 0.09496240
v -0.12898600 -0.00997737 0.09675640
v -0.12585885 -0.00900965 0.09408100
v -0.11528075 -0.01673107 0.10027420
v -0.11278280 -0.01673107 0.09796215
v -0.12360920 0.00016479 0.09346155
v -0.11717355 0.02446047 0.10156965
v -0.12717575 -0.00900965 0.10092160
v -0.12232155 -0.01673107 0.10181145
v -0.11085425 0.00386470 0.09483175
v -0.12613965 0.01981752 0.09476285
v -0.12596935 -0.01673107 0.09488115
v -0.11717355 0.00451084 0.10190635
v -0.12686375 -0.01673107 0.09874280
v -0.11975145 0.00515093 0.10232300
f 2 1 3
f 5 4 6
f 7 8 9
f 1 10 3
f 11 12 13
f 14 2 9
f 16 15 8
f 8 15 9
f 15 14 9
f 10 17 3
f 17 10 12
f 18 5 6
f 10 19 12
f 19 10 1
f 12 19 13
f 19 20 13
f 21 11 13
f 20 21 13
f 21 20 22
f 23 24 6
f 25 15 22
f 15 25 14
f 20 25 22
f 14 25 20
f 17 26 3
f 11 27 12
f 27 17 12
f 17 27 28
f 29 18 6
f 29 24 16
f 24 29 6
f 18 29 7
f 29 16 8
f 7 29 8
f 19 30 20
f 14 30 2
f 30 14 20
f 30 1 2
f 30 19 1
f 21 31 11
f 15 31 22
f 31 21 22
f 23 32 28
f 26 32 4
f 4 32 6
f 32 23 6
f 31 33 11
f 27 33 28
f 33 27 11
f 34 17 28
f 32 34 28
f 34 26 17
f 34 32 26
f 2 26 9
f 26 2 3
f 18 26 5
f 26 4 5
f 26 7 9
f 26 18 7
f 24 33 16
f 33 23 28
f 33 15 16
f 23 33 24
f 33 31 15

