# https://github.com/mikedh/trimesh
v -0.07720765 0.00017491 0.06833450
v -0.06392789 0.00017491 0.01192705
v -0.04193703 -0.04817625 0.01192705
v -0.06043284 -0.04817625 0.06833450
v -0.05683652 -0.04441834 0.01192705
v -0.05367356 -0.04817625 0.01192705
v -0.05962079 -0.04817625 0.02689850
v -0.08019830 -0.01254591 0.05061316
v -0.08002995 -0.02369777 0.06833450
v -0.08319285 -0.00644163 0.06833450
v -0.06707870 -0.03625408 0.02480862
v -0.06918860 -0.02096218 0.01192705
v -0.06426400 -0.03305939 0.01192705
v -0.07016880 -0.04002148 0.04722575
v -0.07197710 -0.03835436 0.05098997
v -0.07271225 -0.04066277 0.06833450
v -0.07431580 -0.03774973 0.06833450
v -0.06766175 -0.04817625 0.06833450
v -0.07775430 -0.02468694 0.05206253
v -0.07744230 -0.02363621 0.04771715
v -0.07655440 0.00017491 0.02714283
v -0.08087040 0.00017491 0.04834661
v -0.07731685 -0.00557081 0.03000985
v -0.08134230 -0.00515431 0.05092236
v -0.08317270 0.00017491 0.06833450
v -0.07850570 -0.02188979 0.05092236
v -0.06527430 -0.04817625 0.05049857
v -0.07011485 -0.03462303 0.03444077
v -0.07366255 -0.02285829 0.02902497
v -0.07273435 -0.01984756 0.02202304
v -0.07214480 -0.00573173 0.01192705
v -0.07566130 -0.00549981 0.02355386
v -0.07209670 0.00017491 0.01192705
v -0.07461350 -0.02021201 0.02936382
f 2 1 3
f 1 4 3
f 5 6 7
f 8 9 10
f 11 12 13
f 11 14 15
f 14 11 7
f 5 11 13
f 11 5 7
f 15 16 17
f 16 15 18
f 9 19 17
f 19 15 17
f 15 19 20
f 22 21 23
f 25 24 10
f 22 24 25
f 24 8 10
f 24 22 23
f 8 24 23
f 8 26 9
f 19 26 20
f 26 19 9
f 27 14 7
f 15 27 18
f 14 27 15
f 28 15 20
f 28 11 15
f 29 28 20
f 28 29 11
f 30 31 12
f 11 30 12
f 29 30 11
f 30 32 31
f 21 32 23
f 32 21 33
f 31 32 33
f 34 30 29
f 32 34 23
f 34 32 30
f 34 8 23
f 34 26 8
f 26 34 20
f 34 29 20
f 16 4 1
f 16 25 10
f 25 16 1
f 16 18 4
f 9 16 10
f 16 9 17
f 21 25 1
f 33 21 2
f 21 1 2
f 21 22 25
f 31 33 2
f 31 2 3
f 31 5 13
f 6 31 3
f 5 31 6
f 12 31 13
f 27 6 3
f 4 27 3
f 6 27 7
f 18 27 4

