# https://github.com/mikedh/trimesh
v 0.05072256 -0.06581413 0.06833450
v 0.06097806 -0.06581413 0.10629125
v 0.08955375 -0.03887059 0.09172410
v 0.07203495 -0.02815703 0.10255960
v 0.07272980 -0.02646579 0.06833450
v 0.04025470 -0.06581413 0.06833450
v 0.07358390 -0.02646579 0.10362820
v 0.07165340 -0.04255732 0.06833840
v 0.07786480 -0.02975960 0.06833450
v 0.06159823 -0.05604846 0.06833450
v 0.05888350 -0.05893011 0.06833450
v 0.08955375 -0.03882047 0.09495850
v 0.07982910 -0.04121286 0.10757565
v 0.07488715 -0.04924511 0.10774400
v 0.07982910 -0.03476779 0.10832965
v 0.08530665 -0.02646579 0.10784215
v 0.07871890 -0.02646579 0.10759515
v 0.04262915 -0.06581413 0.10366785
v 0.04490948 -0.06581413 0.10503610
v 0.06978075 -0.04549097 0.06833840
v 0.06566690 -0.05793808 0.10826465
v 0.05651146 -0.06581413 0.10825880
v 0.04357503 -0.06423872 0.10265320
v 0.08505055 -0.02857693 0.10765430
v 0.07903285 -0.02646579 0.06833450
v 0.08955375 -0.02826486 0.09196265
v 0.08955375 -0.02966334 0.09525620
v 0.07535775 -0.02646579 0.10537085
v 0.08111740 -0.02646579 0.10819835
v 0.05063688 -0.06581413 0.10753340
v 0.06961695 -0.05675345 0.10765040
v 0.08955375 -0.02954003 0.09070620
v 0.06466519 -0.06210835 0.10777520
v 0.08955375 -0.03731806 0.09065485
f 2 1 3
f 4 5 6
f 4 7 5
f 9 8 10
f 8 9 3
f 11 10 3
f 1 11 3
f 12 2 3
f 14 13 15
f 13 16 15
f 12 13 14
f 17 18 19
f 10 20 3
f 20 8 3
f 8 20 10
f 21 14 15
f 22 21 15
f 18 23 6
f 23 4 6
f 4 23 7
f 23 18 7
f 24 12 16
f 13 24 16
f 24 13 12
f 26 25 16
f 12 27 16
f 27 26 16
f 18 28 7
f 17 28 18
f 16 29 15
f 29 22 15
f 30 17 19
f 30 29 17
f 29 30 22
f 21 31 14
f 31 12 14
f 32 25 26
f 33 22 2
f 12 33 2
f 31 33 12
f 33 21 22
f 33 31 21
f 32 34 25
f 25 34 9
f 9 34 3
f 11 25 10
f 5 25 6
f 25 9 10
f 25 1 6
f 25 11 1
f 29 25 5
f 7 29 5
f 28 29 7
f 25 29 16
f 29 28 17
f 1 30 6
f 30 1 2
f 22 30 2
f 30 18 6
f 18 30 19
f 34 27 12
f 34 12 3
f 27 34 26
f 34 32 26

