# https://github.com/mikedh/trimesh
v -0.02885233 -0.07146198 0.06833450
v -0.00007851 -0.07720928 0.06833450
v -0.02885233 -0.05707280 0.01192705
v -0.00007851 -0.06387992 0.01192705
v -0.00007851 -0.08146093 0.05221158
v -0.00007851 -0.07883493 0.03804632
v -0.00128963 -0.08073748 0.04706007
v -0.00007851 -0.08319253 0.06833450
v -0.00386394 -0.08321072 0.06833450
v -0.00386394 -0.08147393 0.05221158
v -0.02200250 -0.08028053 0.06833450
v -0.01931274 -0.08102998 0.06833450
v -0.01931274 -0.07888238 0.04963309
v -0.01599904 -0.07974688 0.05165121
v -0.02188706 -0.07830258 0.05092236
v -0.02885233 -0.07780728 0.06833450
v -0.00349498 -0.08028183 0.04494815
v -0.02885233 -0.07577603 0.05085333
v -0.02885233 -0.07511043 0.04706007
v -0.02061111 -0.07726062 0.04317853
v -0.02885233 -0.07124358 0.02896075
v -0.01814950 -0.07471783 0.02759699
v -0.01673841 -0.07889018 0.04706007
v -0.01887756 -0.07277823 0.02172216
v -0.01669330 -0.07019448 0.01192705
v -0.02885233 -0.06601953 0.01192705
v -0.00304433 -0.07731978 0.03000985
v -0.00007851 -0.07608023 0.02517580
v -0.00386394 -0.07642668 0.02646508
v -0.02885233 -0.06995073 0.02406872
v -0.00264438 -0.07468988 0.01999387
v -0.00007851 -0.07208273 0.01192705
v -0.00325276 -0.07213408 0.01192705
v -0.01673841 -0.07450202 0.02587423
f 1 2 3
f 2 4 3
f 6 5 7
f 5 8 9
f 10 5 9
f 5 10 7
f 12 11 13
f 12 14 9
f 14 10 9
f 14 12 13
f 15 11 16
f 11 15 13
f 10 17 7
f 18 15 16
f 15 18 19
f 20 15 19
f 21 20 19
f 20 21 22
f 20 22 13
f 15 20 13
f 14 23 10
f 23 17 10
f 23 14 13
f 22 23 13
f 25 24 26
f 27 28 6
f 28 27 29
f 27 6 7
f 17 27 7
f 29 27 22
f 27 23 22
f 23 27 17
f 24 30 26
f 21 30 22
f 30 24 22
f 28 31 32
f 31 33 32
f 31 28 29
f 33 34 25
f 31 34 33
f 24 34 22
f 34 24 25
f 34 29 22
f 34 31 29
f 11 8 2
f 1 11 2
f 8 11 9
f 16 11 1
f 11 12 9
f 8 28 2
f 28 4 2
f 4 28 32
f 5 28 8
f 28 5 6
f 33 4 32
f 4 33 3
f 33 26 3
f 33 25 26
f 26 30 3
f 30 16 1
f 30 1 3
f 30 18 16
f 30 21 19
f 18 30 19

