# https://github.com/mikedh/trimesh
v 0.05631229 -0.02255266 -0.00140708
v 0.02407398 -0.05554660 -0.00141001
v 0.02407398 -0.02255266 -0.00141638
v 0.04125784 -0.05927539 0.01192705
v 0.02992529 -0.06452804 0.00947739
v 0.02407398 -0.06786293 0.01192705
v 0.03993580 -0.05921169 0.00981377
v 0.02539368 -0.06683593 0.01000051
v 0.02407398 -0.06306495 0.00335399
v 0.06046950 -0.02761811 0.00204095
v 0.06457874 -0.02255266 0.00423092
v 0.05933967 -0.02255266 -0.00077464
v 0.05916515 -0.03466171 0.00465386
v 0.06684990 -0.02556522 0.00992479
v 0.06854120 -0.02255266 0.01192705
v 0.06149104 -0.03792510 0.01192705
v 0.04411394 -0.05564390 0.00933114
v 0.05419518 -0.03366357 -0.00067189
v 0.04891426 -0.03733756 -0.00124789
v 0.03475381 -0.05020015 -0.00138373
v 0.03650705 -0.05188495 -0.00081425
v 0.05170672 -0.04915242 0.00940102
v 0.05227937 -0.04966923 0.01192705
v 0.05953981 -0.03902945 0.00927037
v 0.06175969 -0.03598550 0.00978763
v 0.02407398 -0.05889163 -0.00062774
v 0.03864211 -0.05667032 0.00453435
v 0.04636209 -0.04380071 -0.00060005
v 0.04858198 -0.04598107 0.00224993
v 0.05645750 -0.03575897 0.00215719
v 0.04943029 -0.04690134 0.00396358
v 0.02702674 -0.06182384 0.00322169
v 0.03715751 -0.05527574 0.00208666
v 0.02407398 -0.02255266 0.01192705
f 1 2 3
f 5 4 6
f 4 5 7
f 8 6 9
f 8 5 6
f 11 10 12
f 10 11 13
f 14 11 15
f 16 14 15
f 11 14 13
f 17 4 7
f 18 1 12
f 18 19 1
f 10 18 12
f 1 20 2
f 19 20 1
f 20 21 2
f 22 16 23
f 22 24 16
f 4 22 23
f 17 22 4
f 24 25 16
f 25 14 16
f 25 24 13
f 14 25 13
f 21 26 2
f 5 27 7
f 27 17 7
f 27 22 17
f 18 28 19
f 28 20 19
f 20 28 21
f 21 28 29
f 30 10 13
f 30 18 10
f 24 30 13
f 28 30 29
f 30 28 18
f 22 31 24
f 30 31 29
f 31 30 24
f 31 27 29
f 27 31 22
f 26 32 9
f 32 27 5
f 32 8 9
f 8 32 5
f 33 26 21
f 33 32 26
f 32 33 27
f 33 21 29
f 27 33 29
f 34 11 3
f 11 34 15
f 11 1 3
f 1 11 12
f 16 34 6
f 34 16 15
f 4 16 6
f 16 4 23
f 6 26 9
f 26 34 3
f 34 26 6
f 2 26 3

