# https://github.com/mikedh/trimesh
v -0.02407470 -0.02394646 -0.00141638
v 0.02407398 -0.05551449 -0.00141133
v 0.02407398 -0.02394646 -0.00141638
v -0.02407470 -0.05550896 -0.00141099
v 0.01029301 -0.06050714 -0.00135368
v 0.02407398 -0.05889163 -0.00062774
v 0.01029301 -0.06230523 -0.00093441
v -0.00128701 -0.06258837 -0.00099711
v -0.00128701 -0.06675078 0.00220030
v -0.01555346 -0.06183801 -0.00061180
v -0.02407470 -0.06275074 0.00310690
v -0.01594938 -0.06451387 0.00185940
v -0.00355635 -0.06050005 -0.00140135
v 0.01287338 -0.07087438 0.01169753
v 0.02407398 -0.06786293 0.01192705
v -0.00325235 -0.07211653 0.01192705
v 0.01157969 -0.06997868 0.00888771
v 0.01485289 -0.06963938 0.00949176
v 0.02407398 -0.06420343 0.00482472
v -0.00128701 -0.06983048 0.00695987
v -0.02407470 -0.05725311 -0.00112161
v -0.00386034 -0.06669423 0.00227475
v -0.01541910 -0.07038233 0.01192705
v -0.01575139 -0.06958218 0.00960999
v -0.02407470 -0.06774268 0.01192705
v 0.01157969 -0.06495288 0.00147801
v 0.02407398 -0.06206213 0.00203514
v -0.01672704 -0.06666563 0.00502938
v -0.00386034 -0.07055913 0.00843187
v 0.01329049 -0.06706213 0.00437501
v -0.01495962 -0.06687817 0.00468978
v 0.01029301 -0.06728183 0.00403476
v 0.02407398 -0.02394646 0.01192705
v -0.02407470 -0.02394646 0.01192705
f 2 1 3
f 1 2 4
f 5 2 6
f 7 5 6
f 8 7 9
f 5 7 8
f 11 10 12
f 2 13 4
f 5 13 2
f 13 5 8
f 10 13 8
f 14 15 16
f 17 14 16
f 18 19 15
f 14 18 15
f 18 14 17
f 20 17 16
f 21 10 11
f 13 21 4
f 21 13 10
f 22 8 9
f 22 10 8
f 10 22 12
f 20 22 9
f 23 24 16
f 24 23 25
f 27 26 6
f 26 7 6
f 7 26 9
f 28 11 12
f 11 28 25
f 28 24 25
f 29 22 20
f 24 29 16
f 29 20 16
f 30 27 19
f 30 26 27
f 18 30 19
f 30 18 17
f 29 31 22
f 22 31 12
f 31 28 12
f 28 31 24
f 31 29 24
f 26 32 9
f 30 32 26
f 32 20 9
f 20 32 17
f 32 30 17
f 3 1 33
f 1 34 33
f 27 3 33
f 2 27 6
f 15 27 33
f 27 2 3
f 19 27 15
f 21 25 34
f 21 1 4
f 1 21 34
f 21 11 25
f 23 15 33
f 34 23 33
f 15 23 16
f 25 23 34

