# https://github.com/mikedh/trimesh
v -0.04358848 0.06584077 0.10364380
v -0.06680505 0.04095286 0.10267270
v -0.04358848 0.06421571 0.06833840
v -0.06650215 0.03974737 0.06833840
v -0.04644029 0.06958868 0.06833840
v -0.04358848 0.07112527 0.06833840
v -0.04358848 0.07909363 0.10629060
v -0.07231640 0.05437523 0.10774725
v -0.07235020 0.05442918 0.10629060
v -0.06551935 0.06227942 0.10629060
v -0.06496399 0.06240552 0.10785710
v -0.04358848 0.07167192 0.10770825
v -0.07733960 0.03974737 0.10822890
v -0.07362810 0.03974737 0.10748335
v -0.06963060 0.03974737 0.10491260
v -0.06839495 0.03974737 0.10365160
v -0.05273600 0.07335738 0.10561525
v -0.07716800 0.04363736 0.08569145
v -0.07879495 0.04425746 0.10778235
v -0.08061040 0.03974737 0.10795460
v -0.08127405 0.03974737 0.10629060
v -0.07081880 0.05279612 0.10828805
v -0.05021809 0.07210417 0.10829585
v -0.04358848 0.07486862 0.10826790
v -0.04358848 0.07828112 0.10796305
v -0.04660630 0.07739907 0.10770825
v -0.07955480 0.03974737 0.08826025
v -0.07319455 0.03974737 0.06833840
v -0.06989840 0.04564592 0.06833840
v -0.07751510 0.04681482 0.10629060
v -0.05429470 0.07226537 0.10770825
v -0.06159569 0.05638568 0.06833840
v -0.05907226 0.05909332 0.06833840
v -0.05851892 0.06889123 0.10629060
f 1 2 3
f 2 4 3
f 6 5 7
f 9 8 10
f 8 11 10
f 12 13 14
f 15 12 14
f 12 15 1
f 16 4 2
f 1 16 2
f 15 16 1
f 5 17 7
f 18 9 10
f 20 19 21
f 22 13 23
f 11 22 23
f 22 11 8
f 13 22 20
f 22 19 20
f 19 22 8
f 24 25 23
f 13 24 23
f 12 24 13
f 26 25 7
f 17 26 7
f 27 18 28
f 18 29 28
f 19 30 21
f 30 27 21
f 27 30 18
f 18 30 9
f 30 8 9
f 30 19 8
f 31 26 17
f 31 11 23
f 25 31 23
f 26 31 25
f 32 29 18
f 32 10 33
f 32 18 10
f 34 31 17
f 10 34 33
f 11 34 10
f 31 34 11
f 34 5 33
f 34 17 5
f 6 24 3
f 24 1 3
f 24 6 7
f 25 24 7
f 24 12 1
f 27 20 21
f 27 15 14
f 27 28 4
f 13 27 14
f 16 27 4
f 27 13 20
f 27 16 15
f 32 6 3
f 4 32 3
f 5 32 33
f 32 5 6
f 28 32 4
f 29 32 28

