# https://github.com/mikedh/trimesh
v 0.08955570 -0.03731312 0.09065810
v 0.08955570 -0.03226015 0.09020245
v 0.08793070 -0.03893929 0.09333935
v 0.08955570 -0.02826324 0.09196655
v 0.08955570 -0.02965937 0.09526400
v 0.12334465 -0.02447926 0.10109580
v 0.11974300 -0.02961654 0.10131810
v 0.11715600 -0.02447926 0.10157875
v 0.11459565 -0.03218872 0.10115625
v 0.10588955 -0.03181146 0.10015395
v 0.10524345 -0.03615560 0.09990890
v 0.12367680 -0.02846045 0.09992125
v 0.12583675 -0.02447926 0.09848475
v 0.12368395 -0.03098550 0.09710740
v 0.11909950 -0.02897206 0.09369165
v 0.11506690 -0.03581552 0.09495330
v 0.09448465 -0.03041961 0.09751300
v 0.08955570 -0.02953932 0.09071530
v 0.09012770 -0.02832466 0.09471150
v 0.09025900 -0.03885109 0.09188595
v 0.10343190 -0.03868352 0.09463545
v 0.12564760 -0.02447926 0.09610250
v 0.11864450 -0.03364628 0.09996415
v 0.09268805 -0.03607702 0.09728615
v 0.09743110 -0.03871927 0.09738495
v 0.11157510 -0.02447926 0.09719450
v 0.11363235 -0.02447926 0.09406930
v 0.11845665 -0.02447926 0.09339200
v 0.12321075 -0.02447926 0.09415445
v 0.12352470 -0.02807890 0.09476805
v 0.11659180 -0.03633851 0.09725755
v 0.11283415 -0.03595839 0.09973405
v 0.08955570 -0.03882073 0.09496630
v 0.10642320 -0.03870068 0.09741550
f 2 1 3
f 5 4 3
f 7 6 8
f 9 7 8
f 10 9 8
f 9 10 11
f 6 12 13
f 12 6 7
f 12 14 13
f 1 15 16
f 15 1 2
f 17 10 8
f 18 2 3
f 4 18 3
f 19 4 5
f 19 17 8
f 17 19 5
f 20 1 16
f 21 20 16
f 1 20 3
f 20 21 3
f 14 22 13
f 23 12 7
f 23 14 12
f 9 23 7
f 10 24 11
f 17 24 10
f 24 25 11
f 24 17 5
f 26 19 8
f 19 26 4
f 26 27 4
f 18 28 2
f 28 18 4
f 27 28 4
f 28 15 2
f 15 28 29
f 22 30 29
f 30 22 14
f 30 15 29
f 30 14 16
f 15 30 16
f 14 31 16
f 23 31 14
f 31 21 16
f 32 9 11
f 32 23 9
f 32 31 23
f 25 33 3
f 24 33 25
f 33 5 3
f 33 24 5
f 31 34 21
f 34 25 3
f 21 34 3
f 32 34 31
f 25 34 11
f 34 32 11
f 28 6 13
f 22 28 13
f 6 28 8
f 28 26 8
f 28 22 29
f 26 28 27

