# https://github.com/mikedh/trimesh
v -0.07720570 0.00017491 0.06833450
v -0.06393082 0.00017491 0.01192705
v -0.04857255 0.04180956 0.01192705
v -0.06525155 0.04180956 0.06833450
v -0.06157996 0.03822318 0.01192705
v -0.05889715 0.04180956 0.01192705
v -0.06460656 0.04180956 0.02727394
v -0.07669025 0.02598264 0.04750869
v -0.07208045 0.02567084 0.02525036
v -0.07336875 0.02826284 0.03557405
v -0.07001280 0.04172708 0.05044059
v -0.07219225 0.04180956 0.06833450
v -0.08288670 0.00901452 0.06833450
v -0.08127600 0.00017491 0.05092236
v -0.08317465 0.00017491 0.06833450
v -0.06829225 0.03358329 0.02502396
v -0.06730490 0.02649816 0.01192705
v -0.06881875 0.02196220 0.01192705
v -0.07136285 0.01165541 0.01192705
v -0.07725640 0.02834026 0.05602695
v -0.08244600 0.01303289 0.06833450
v -0.07832890 0.02875086 0.06833450
v -0.07537400 0.01010165 0.02412118
v -0.07209410 0.00017491 0.01192705
v -0.07673315 0.00017491 0.02778744
v -0.07643870 0.00901452 0.02775429
v -0.07732465 0.01065694 0.03256078
v -0.08086325 0.01030237 0.05092236
v -0.06691685 0.03982894 0.03177948
v -0.08017555 0.01452048 0.05122604
v -0.07993635 0.01330192 0.04784416
v -0.07540130 0.03001732 0.04856885
v -0.07328685 0.02446450 0.02904356
v -0.08012745 0.00987850 0.04623184
f 1 2 3
f 4 1 3
f 6 5 7
f 9 8 10
f 11 12 7
f 13 14 15
f 16 9 10
f 5 16 7
f 16 5 17
f 9 16 17
f 18 9 17
f 9 18 19
f 20 21 22
f 12 20 22
f 11 20 12
f 23 19 24
f 25 23 24
f 23 25 26
f 23 9 19
f 23 27 9
f 27 23 26
f 13 28 14
f 28 13 21
f 29 16 10
f 29 11 7
f 16 29 7
f 20 30 21
f 28 30 31
f 30 28 21
f 30 8 31
f 30 20 8
f 32 20 11
f 32 29 10
f 29 32 11
f 8 32 10
f 20 32 8
f 33 27 31
f 27 33 9
f 8 33 31
f 33 8 9
f 28 34 14
f 34 27 26
f 27 34 31
f 34 28 31
f 34 25 14
f 25 34 26
f 6 12 3
f 12 4 3
f 12 6 7
f 1 13 15
f 4 13 1
f 12 13 4
f 13 12 22
f 21 13 22
f 24 18 2
f 2 18 3
f 18 6 3
f 5 18 17
f 19 18 24
f 18 5 6
f 1 25 2
f 25 1 15
f 25 24 2
f 14 25 15

