# https://github.com/mikedh/trimesh
v -0.09062235 0.02876159 0.09341735
v -0.11367590 0.02446047 0.09409335
v -0.09062235 0.02979678 0.09107215
v -0.09062235 0.03894507 0.09169355
v -0.10575175 0.03865895 0.09467315
v -0.09914775 0.03937576 0.09599330
v -0.11544975 0.03592439 0.09481940
v -0.09062235 0.03730844 0.09080955
v -0.11165830 0.02446047 0.09721920
v -0.11717030 0.03316352 0.09412260
v -0.11974495 0.02832797 0.09363250
v -0.09062235 0.03218969 0.09038900
v -0.09525230 0.03545061 0.09800700
v -0.09451650 0.03049462 0.09750650
v -0.11717030 0.02446047 0.10156965
v -0.09062235 0.02986243 0.09557275
v -0.11459500 0.02446047 0.10068955
v -0.12356305 0.02818491 0.09473945
v -0.12378080 0.03109320 0.09727770
v -0.12589915 0.02446047 0.09730175
v -0.11845730 0.02446047 0.09338485
v -0.09062235 0.03901807 0.09526140
v -0.09733295 0.03844360 0.09763715
v -0.11849240 0.03607909 0.09727575
v -0.12147590 0.03130348 0.10014810
v -0.11526255 0.03593460 0.09971845
v -0.10511800 0.03621780 0.09993490
v -0.11996140 0.03238463 0.09462245
v -0.12323740 0.02446047 0.09412650
v -0.10863840 0.03873337 0.09747725
v -0.12371515 0.02855866 0.09996090
v -0.12338300 0.02446047 0.10114520
v -0.11974495 0.02961569 0.10139805
v -0.11459500 0.03218969 0.10118355
f 1 2 3
f 4 5 6
f 7 4 8
f 5 4 7
f 1 9 2
f 10 7 8
f 11 10 8
f 12 11 8
f 14 13 15
f 16 13 14
f 17 9 1
f 16 17 1
f 17 14 15
f 17 16 14
f 19 18 20
f 21 12 3
f 2 21 3
f 12 21 11
f 22 13 16
f 13 22 23
f 23 22 6
f 22 4 6
f 24 5 7
f 25 24 19
f 24 25 26
f 27 13 23
f 13 27 15
f 28 10 11
f 18 28 11
f 10 28 7
f 28 24 7
f 28 18 19
f 24 28 19
f 18 29 20
f 29 18 11
f 21 29 11
f 5 30 6
f 24 30 5
f 30 24 26
f 30 23 6
f 30 27 23
f 27 30 26
f 31 25 19
f 32 31 20
f 31 19 20
f 33 32 15
f 25 33 26
f 33 31 32
f 31 33 25
f 27 34 15
f 34 33 15
f 34 27 26
f 33 34 26
f 22 1 3
f 22 16 1
f 4 22 8
f 22 12 8
f 12 22 3
f 29 17 15
f 29 32 20
f 9 29 2
f 32 29 15
f 17 29 9
f 29 21 2

