# https://github.com/mikedh/trimesh
v -0.06042966 -0.04817625 0.06833450
v -0.02979463 -0.05624548 0.01192705
v -0.02885233 -0.07146133 0.06833450
v -0.04193391 -0.04817625 0.01192705
v -0.02885233 -0.05707215 0.01192705
v -0.04443582 -0.05694455 0.01192705
v -0.05366660 -0.04817625 0.01192705
v -0.04652739 -0.05937516 0.02220803
v -0.05675176 -0.05160175 0.02746445
v -0.02885233 -0.07565708 0.05024461
v -0.03565341 -0.07530608 0.06833450
v -0.02885233 -0.07780793 0.06833450
v -0.06007625 -0.04817625 0.02845277
v -0.06516380 -0.04817625 0.04963309
v -0.06188104 -0.05159889 0.04545886
v -0.04892485 -0.05922722 0.02776261
v -0.04611711 -0.06165497 0.02838102
v -0.04904263 -0.06446265 0.04799873
v -0.06129779 -0.05357703 0.05092236
v -0.06330584 -0.05423256 0.06833450
v -0.05215821 -0.06497628 0.06833450
v -0.03476811 -0.07339638 0.04963309
v -0.04954800 -0.06482814 0.05221158
v -0.04985767 -0.06669618 0.06833450
v -0.06315478 -0.05150750 0.05156697
v -0.06766760 -0.04817625 0.06833450
v -0.03328254 -0.06945153 0.02808839
v -0.05116943 -0.06409793 0.05605867
v -0.03675237 -0.07252993 0.05041575
v -0.02885233 -0.07094523 0.02771288
v -0.02885233 -0.06601758 0.01192705
v -0.03471682 -0.06693277 0.02266355
v -0.05187325 -0.06216256 0.04858399
v -0.03177414 -0.06481657 0.01192705
f 2 1 3
f 4 1 2
f 5 2 3
f 7 6 8
f 9 7 8
f 11 10 12
f 9 13 7
f 14 13 15
f 13 9 15
f 16 17 18
f 16 9 8
f 17 16 8
f 20 19 21
f 22 10 11
f 23 24 21
f 25 19 20
f 14 25 26
f 25 20 26
f 25 14 15
f 19 25 15
f 17 27 18
f 22 27 10
f 19 28 21
f 28 23 21
f 24 29 11
f 23 29 24
f 29 22 11
f 29 23 18
f 27 29 18
f 29 27 22
f 30 27 31
f 27 30 10
f 6 32 8
f 32 17 8
f 32 27 17
f 33 28 19
f 33 19 15
f 23 33 18
f 28 33 23
f 33 16 18
f 9 33 15
f 16 33 9
f 34 32 6
f 27 34 31
f 32 34 27
f 1 13 26
f 13 4 7
f 4 13 1
f 13 14 26
f 24 12 3
f 24 1 26
f 1 24 3
f 24 11 12
f 20 24 26
f 24 20 21
f 12 30 3
f 5 30 31
f 30 5 3
f 10 30 12
f 5 34 2
f 34 4 2
f 4 34 7
f 34 5 31
f 34 6 7

