# https://github.com/mikedh/trimesh
v 0.02786706 0.05776758 0.01192705
v 0.02786706 0.07214252 0.06833450
v 0.00007376 0.07752972 0.06833450
v 0.00007376 0.06421259 0.01192705
v 0.01931358 0.08135172 0.06833450
v 0.01773564 0.07979108 0.05129508
v 0.00386350 0.08353508 0.06833450
v 0.00128985 0.08152658 0.04963309
v 0.00007376 0.08137967 0.04963582
v 0.00007376 0.07716832 0.02818777
v 0.00255083 0.07983917 0.04058340
v 0.00007376 0.08351687 0.06833450
v 0.02076367 0.07988987 0.05813061
v 0.02786706 0.07848587 0.06833450
v 0.00386350 0.08098252 0.04706007
v 0.00257668 0.07242527 0.01192705
v 0.00386350 0.07603277 0.02388653
v 0.01687322 0.07047527 0.01192705
v 0.00007376 0.07604513 0.02388653
v 0.00007376 0.07240252 0.01192705
v 0.00386350 0.07716312 0.02820435
v 0.02786706 0.07057667 0.02389758
v 0.01899254 0.06991108 0.01192705
v 0.02786706 0.06670657 0.01192705
v 0.01931358 0.07920672 0.04963309
v 0.02786706 0.07647998 0.05099965
v 0.02139755 0.07790543 0.04615455
v 0.02786706 0.07163357 0.02775429
v 0.00386350 0.08179698 0.05221158
v 0.01673717 0.07921193 0.04706007
v 0.01752348 0.07460862 0.02544912
v 0.01791790 0.07208663 0.01750372
v 0.01673717 0.07555697 0.02903804
v 0.01848925 0.07482572 0.02716630
f 1 2 3
f 4 1 3
f 5 6 7
f 9 8 10
f 10 8 11
f 8 12 7
f 8 9 12
f 13 5 14
f 5 13 6
f 8 15 11
f 16 17 18
f 19 16 20
f 16 19 17
f 21 10 11
f 21 19 10
f 19 21 17
f 15 21 11
f 23 22 24
f 13 25 6
f 27 26 28
f 26 13 14
f 26 25 13
f 25 26 27
f 29 8 7
f 29 15 8
f 6 29 7
f 15 29 6
f 30 15 6
f 30 21 15
f 25 30 6
f 21 31 17
f 17 32 18
f 31 32 17
f 32 23 18
f 32 22 23
f 30 33 21
f 33 31 21
f 33 34 31
f 34 25 27
f 34 30 25
f 34 33 30
f 34 27 28
f 22 34 28
f 32 34 22
f 34 32 31
f 5 12 3
f 2 5 3
f 12 5 7
f 14 5 2
f 12 19 3
f 19 4 3
f 4 19 20
f 9 19 12
f 19 9 10
f 16 4 20
f 4 16 1
f 16 24 1
f 16 23 24
f 23 16 18
f 24 26 1
f 26 14 2
f 1 26 2
f 22 26 24
f 26 22 28

