# https://github.com/mikedh/trimesh
v -0.04305171 -0.06394148 0.06833450
v -0.00037347 -0.07882648 0.10366460
v -0.04305171 -0.06600848 0.10346505
v -0.00037347 -0.07723008 0.06833450
v -0.00037347 -0.07988533 0.10495355
v -0.00037347 -0.08292928 0.10732280
v -0.04305171 -0.07217828 0.10773815
v -0.00037347 -0.08421758 0.10787140
v -0.00037347 -0.08626898 0.10827115
v -0.04305171 -0.07597038 0.10831015
v -0.01545460 -0.08626898 0.10834330
v -0.04305171 -0.06728378 0.10472215
v -0.00037347 -0.08884493 0.10804755
v -0.00534898 -0.09014818 0.10759710
v -0.02128230 -0.08769833 0.10772255
v -0.00037347 -0.09019173 0.10764780
v -0.04305171 -0.07842803 0.10798905
v -0.04164388 -0.08005758 0.10776935
v -0.04305171 -0.07929188 0.10629255
v -0.03639473 -0.08253733 0.10560745
v -0.03074871 -0.08493713 0.10540010
v -0.03653468 -0.07494468 0.06833450
v -0.03099103 -0.08501448 0.10761660
v -0.00386593 -0.08321203 0.06833450
v -0.00037347 -0.09009683 0.10543910
v -0.00037347 -0.08321463 0.06833450
v -0.02116322 -0.08766843 0.10560940
v -0.02200088 -0.08028183 0.06833450
v -0.01931469 -0.08102933 0.06833450
v -0.02703902 -0.08369303 0.10832575
v -0.04173995 -0.08010438 0.10629255
v -0.04305171 -0.07096473 0.06833450
v -0.00386593 -0.09008642 0.10557235
v -0.01159028 -0.08921998 0.10629255
f 2 1 3
f 4 1 2
f 5 2 3
f 6 7 8
f 9 10 11
f 10 9 7
f 7 9 8
f 6 12 7
f 12 6 5
f 12 5 3
f 13 9 11
f 15 14 11
f 13 14 16
f 14 13 11
f 18 17 19
f 21 20 22
f 23 20 21
f 25 24 26
f 23 27 15
f 27 23 21
f 28 21 22
f 28 27 21
f 27 28 29
f 17 30 10
f 10 30 11
f 30 15 11
f 30 23 15
f 30 17 18
f 23 30 18
f 31 18 19
f 20 31 22
f 31 23 18
f 23 31 20
f 32 31 19
f 31 32 22
f 33 24 25
f 33 25 16
f 14 33 16
f 24 34 29
f 34 27 29
f 33 34 24
f 34 33 14
f 34 14 15
f 27 34 15
f 5 25 2
f 25 4 2
f 4 25 26
f 25 13 16
f 25 6 8
f 6 25 5
f 9 25 8
f 13 25 9
f 17 12 3
f 1 17 3
f 32 17 1
f 17 10 7
f 17 32 19
f 12 17 7
f 28 4 26
f 4 28 1
f 28 32 1
f 32 28 22
f 24 28 26
f 28 24 29

