# https://github.com/mikedh/trimesh
v 0.05811091 -0.02637882 0.01192705
v 0.07275905 -0.02637882 0.06833450
v 0.02894190 -0.07167583 0.06833450
v 0.02894190 -0.05681598 0.01192705
v 0.04127961 -0.05928761 0.01192705
v 0.05358301 -0.04829949 0.01192705
v 0.05411283 -0.05410691 0.02636569
v 0.06214825 -0.03677050 0.01192705
v 0.06432147 -0.04112232 0.02536073
v 0.07210645 -0.02637882 0.02693165
v 0.06721065 -0.02637882 0.01192705
v 0.02894190 -0.07028808 0.02460432
v 0.02894190 -0.07582543 0.04963309
v 0.03111023 -0.07477893 0.04787172
v 0.02894190 -0.06601498 0.01192705
v 0.03167684 -0.07707863 0.06833450
v 0.04616567 -0.06941643 0.06833450
v 0.02894190 -0.07800878 0.06833450
v 0.04640116 -0.06698543 0.05075948
v 0.05870943 -0.05907278 0.06833450
v 0.07700290 -0.02637882 0.05026255
v 0.06961955 -0.04137504 0.04793802
v 0.07193290 -0.04199923 0.06833450
v 0.06978140 -0.04548928 0.06833450
v 0.06694610 -0.04118803 0.03552023
v 0.05930301 -0.05673512 0.05549687
v 0.04403171 -0.06201689 0.02464300
v 0.07786090 -0.02976019 0.06833450
v 0.07905820 -0.02637882 0.06833450
v 0.06146147 -0.05621961 0.06833450
v 0.06773585 -0.04478669 0.04963309
v 0.05917548 -0.05535530 0.04834661
v 0.04387962 -0.06444802 0.03260491
v 0.05677172 -0.05166057 0.02737059
f 2 1 3
f 3 1 4
f 5 6 7
f 6 8 9
f 10 8 11
f 8 10 9
f 13 12 14
f 5 12 15
f 17 16 14
f 13 16 18
f 16 13 14
f 17 19 20
f 19 17 14
f 21 22 10
f 22 23 24
f 10 25 9
f 22 25 10
f 19 26 20
f 27 5 7
f 27 12 5
f 28 21 29
f 21 28 22
f 28 23 22
f 26 30 20
f 30 26 24
f 31 22 24
f 26 31 24
f 31 25 22
f 32 19 7
f 32 26 19
f 32 31 26
f 19 33 7
f 33 27 7
f 33 19 14
f 12 33 14
f 27 33 12
f 34 32 7
f 6 34 7
f 34 6 9
f 25 34 9
f 31 34 25
f 32 34 31
f 8 15 4
f 1 8 4
f 8 1 11
f 8 5 15
f 5 8 6
f 3 12 18
f 12 3 4
f 15 12 4
f 12 13 18
f 21 2 29
f 1 21 11
f 21 1 2
f 21 10 11
f 30 3 18
f 2 30 29
f 30 2 3
f 16 30 18
f 30 28 29
f 30 17 20
f 30 16 17
f 23 30 24
f 28 30 23

