# https://github.com/mikedh/trimesh
v 0.11046230 0.01969331 0.09586785
v 0.11046230 0.01991684 0.09810710
v 0.08952840 0.02294532 0.09291555
v 0.08952840 0.02296983 0.09112025
v 0.11046230 0.02184676 0.09973275
v 0.09759945 0.02308026 0.09736415
v 0.08954660 0.02507836 0.09495135
v 0.08952840 0.03165468 0.09508395
v 0.08952840 0.02370179 0.09011535
v 0.11046230 0.02076015 0.09448920
v 0.11046230 0.02395802 0.09351355
v 0.08952840 0.02498567 0.08926905
v 0.11046230 0.02703967 0.09347455
v 0.08952840 0.03126350 0.08939255
v 0.11046230 0.02964429 0.09413820
v 0.08952840 0.03259646 0.09027265
v 0.09280245 0.03349742 0.09210045
v 0.08952840 0.03361462 0.09219080
v 0.10416445 0.02378356 0.09923615
v 0.09207900 0.02296170 0.09499750
v 0.09508330 0.02550359 0.09734855
v 0.09914710 0.02703967 0.09858225
v 0.09243780 0.03352056 0.09477130
v 0.09509955 0.03100727 0.09733100
v 0.10107760 0.03173170 0.09797515
v 0.11046230 0.02446502 0.10050495
v 0.10300875 0.02961432 0.09916335
v 0.11046230 0.02882243 0.10011365
v 0.11046230 0.03086551 0.09476220
v 0.11046230 0.03134254 0.09606415
v 0.10719670 0.02785334 0.10002265
v 0.10687235 0.03161652 0.09820590
v 0.11046230 0.03132214 0.09789325
v 0.10300875 0.03265580 0.09599135
f 1 2 3
f 4 1 3
f 5 6 2
f 7 8 3
f 4 9 1
f 11 10 12
f 10 9 12
f 9 10 1
f 14 13 12
f 13 11 12
f 13 14 15
f 17 16 18
f 5 19 6
f 20 7 3
f 7 20 6
f 2 20 3
f 6 20 2
f 21 7 6
f 21 19 22
f 19 21 6
f 7 21 8
f 8 23 18
f 23 17 18
f 24 21 22
f 21 24 8
f 24 23 8
f 23 24 25
f 26 19 5
f 19 26 22
f 27 24 22
f 25 27 28
f 24 27 25
f 30 29 17
f 29 16 17
f 16 29 14
f 14 29 15
f 31 26 28
f 27 31 28
f 26 31 22
f 31 27 22
f 33 32 28
f 32 25 28
f 32 23 25
f 32 34 23
f 34 32 33
f 34 33 30
f 23 34 17
f 34 30 17
f 8 16 3
f 9 16 12
f 16 14 12
f 16 8 18
f 16 4 3
f 16 9 4
f 10 29 1
f 1 29 2
f 29 13 15
f 29 5 2
f 29 33 28
f 29 10 11
f 13 29 11
f 26 29 28
f 29 26 5
f 33 29 30

