# https://github.com/mikedh/trimesh
v 0.02894190 -0.07168038 0.06833450
v 0.02894190 -0.05681943 0.01192705
v -0.00007851 -0.07720797 0.06833450
v -0.00007851 -0.06387810 0.01192705
v 0.02894190 -0.07582413 0.04963309
v 0.01560773 -0.07987753 0.05064352
v 0.02894190 -0.07800813 0.06833450
v 0.02894190 -0.06976223 0.02270496
v 0.02744417 -0.07182078 0.02816983
v 0.02894190 -0.06601823 0.01192705
v 0.02635978 -0.06718043 0.01192705
v 0.01673835 -0.08153763 0.06833450
v 0.01417890 -0.08208233 0.06833450
v 0.02703870 -0.07591968 0.04706007
v 0.01159099 -0.08061853 0.05221158
v 0.02750027 -0.07011193 0.02212516
v 0.01529814 -0.07464178 0.02532212
v 0.01733062 -0.07484718 0.02851349
v 0.01197736 -0.08232283 0.06833450
v -0.00007851 -0.08146288 0.05221158
v -0.00007851 -0.08319253 0.06833450
v 0.01416467 -0.07073008 0.01192705
v 0.01673835 -0.07889928 0.04706007
v 0.01263639 -0.07208598 0.01493629
v 0.01162798 -0.07120263 0.01192705
v -0.00007851 -0.07208338 0.01192705
v 0.01159099 -0.07497977 0.02419573
v -0.00007851 -0.07572338 0.02388653
v -0.00007851 -0.07643578 0.02646508
v 0.01159099 -0.07617773 0.02903804
v -0.00007851 -0.08088438 0.04834661
v 0.01358233 -0.07484848 0.02462090
v 0.01198515 -0.08001273 0.04831619
v 0.01362498 -0.07654563 0.03215491
f 1 2 3
f 2 4 3
f 6 5 7
f 8 5 9
f 11 10 8
f 12 6 7
f 12 13 6
f 5 14 9
f 14 5 6
f 13 15 6
f 16 11 8
f 16 8 9
f 17 16 9
f 18 17 9
f 14 18 9
f 19 15 13
f 20 19 21
f 19 20 15
f 16 22 11
f 22 16 17
f 23 14 6
f 23 18 14
f 25 24 26
f 24 27 26
f 22 24 25
f 24 22 17
f 27 28 26
f 28 27 29
f 29 30 31
f 27 30 29
f 32 24 17
f 24 32 27
f 32 30 27
f 30 33 31
f 33 20 31
f 20 33 15
f 15 33 6
f 34 23 6
f 33 34 6
f 34 33 30
f 32 34 30
f 34 32 17
f 18 34 17
f 23 34 18
f 7 10 1
f 1 10 2
f 10 5 8
f 5 10 7
f 21 19 3
f 19 1 3
f 19 7 1
f 19 12 7
f 12 19 13
f 22 26 4
f 22 4 2
f 10 22 2
f 22 10 11
f 22 25 26
f 28 21 3
f 4 28 3
f 26 28 4
f 28 20 21
f 28 29 31
f 20 28 31

