# https://github.com/mikedh/trimesh
v -0.03223928 0.07041612 0.06833450
v 0.00007376 0.07753037 0.06833450
v -0.03223928 0.05530603 0.01192705
v 0.00007376 0.06421291 0.01192705
v -0.02831088 0.06952693 0.02003807
v -0.03223928 0.06932542 0.02583698
v -0.02800720 0.07201252 0.02819330
v -0.01319812 0.07219452 0.01458288
v -0.02446464 0.06808198 0.01192705
v -0.03223928 0.06462163 0.01192705
v -0.02703935 0.07624077 0.04706007
v -0.01549125 0.07984178 0.04829689
v -0.02961400 0.07612312 0.05092236
v -0.01159132 0.08094092 0.05221158
v -0.01471951 0.08233322 0.06833450
v 0.00007376 0.08351818 0.06833450
v -0.01693361 0.07473668 0.02626631
v -0.01159132 0.07153738 0.01192705
v -0.03093929 0.07469962 0.04568525
v -0.03223928 0.07480948 0.05001685
v -0.03090133 0.07725672 0.06379561
v -0.02961400 0.07813487 0.06833450
v -0.03223928 0.07713518 0.06833450
v -0.01679763 0.08007383 0.05246007
v 0.00007376 0.08178332 0.05221158
v -0.01416597 0.08064322 0.05221158
v -0.01226504 0.07530868 0.02450767
v 0.00007376 0.07240188 0.01192705
v -0.01159132 0.08059577 0.04963309
v 0.00007376 0.08097407 0.04706007
v 0.00007376 0.07640327 0.02517580
v 0.00007376 0.07716832 0.02818777
v -0.01255286 0.07723202 0.03301903
v -0.01416597 0.07582087 0.02775156
f 2 1 3
f 4 2 3
f 5 6 7
f 5 8 9
f 5 10 6
f 10 5 9
f 11 12 7
f 11 13 12
f 14 15 16
f 12 17 7
f 17 5 7
f 5 17 8
f 8 18 9
f 19 11 7
f 11 19 13
f 19 20 13
f 20 19 6
f 6 19 7
f 22 21 23
f 21 20 23
f 20 21 13
f 24 22 15
f 24 21 22
f 13 24 12
f 21 24 13
f 25 14 16
f 14 26 15
f 24 26 12
f 26 24 15
f 18 27 28
f 27 18 8
f 26 29 12
f 29 26 14
f 29 25 30
f 25 29 14
f 27 31 28
f 31 27 32
f 32 33 30
f 33 29 30
f 27 33 32
f 29 33 12
f 34 33 27
f 17 34 8
f 34 27 8
f 34 17 12
f 33 34 12
f 23 20 1
f 1 20 3
f 20 10 3
f 10 20 6
f 22 1 2
f 16 22 2
f 22 23 1
f 15 22 16
f 18 28 4
f 18 4 3
f 10 18 3
f 18 10 9
f 31 16 2
f 4 31 2
f 28 31 4
f 31 25 16
f 31 32 30
f 25 31 30

