# https://github.com/mikedh/trimesh
v -0.03223928 0.07041417 0.06833450
v -0.06524960 0.04181301 0.06833450
v -0.03223928 0.05530622 0.01192705
v -0.04857619 0.04181301 0.01192705
v -0.06406823 0.04181301 0.02552361
v -0.06987630 0.04181301 0.04963309
v -0.06835855 0.04385153 0.04834661
v -0.05658621 0.05141942 0.02538835
v -0.05888987 0.04181301 0.01192705
v -0.05213533 0.05020652 0.01192705
v -0.05407525 0.05408208 0.02517853
v -0.04334694 0.06929747 0.05221158
v -0.04644068 0.06958802 0.06833450
v -0.03223928 0.07713322 0.06833450
v -0.03223928 0.07457743 0.04834661
v -0.06159251 0.05638509 0.06833450
v -0.05914408 0.05656495 0.05143860
v -0.05906979 0.05909274 0.06833450
v -0.06697795 0.04638796 0.05080361
v -0.05969951 0.05468723 0.04706007
v -0.05661747 0.05404406 0.03301350
v -0.05711810 0.05771213 0.04834661
v -0.06959095 0.04386707 0.05559073
v -0.06945770 0.04626694 0.06833450
v -0.07219550 0.04181301 0.06833450
v -0.03223928 0.06955682 0.02646508
v -0.04121930 0.06438692 0.02515650
v -0.03223928 0.06461865 0.01192705
v -0.04242492 0.06918763 0.04856469
v -0.04146961 0.05944542 0.01192705
v -0.04372635 0.06434545 0.03046258
v -0.04630379 0.06691457 0.04852881
v -0.04416048 0.06212193 0.02437240
v -0.04661865 0.06716353 0.05122878
f 1 2 3
f 2 4 3
f 5 6 7
f 5 8 9
f 8 10 9
f 10 8 11
f 12 13 14
f 15 12 14
f 17 16 18
f 19 20 7
f 19 17 20
f 19 16 17
f 21 17 22
f 17 21 20
f 8 21 11
f 21 8 5
f 21 5 7
f 20 21 7
f 23 19 7
f 6 23 7
f 16 23 24
f 19 23 16
f 23 6 25
f 24 23 25
f 27 26 28
f 29 12 15
f 30 27 28
f 30 10 11
f 26 31 15
f 31 29 15
f 31 26 27
f 21 31 11
f 31 21 22
f 29 32 12
f 31 32 29
f 32 31 22
f 30 33 27
f 33 31 27
f 33 30 11
f 31 33 11
f 12 34 13
f 32 34 12
f 13 34 18
f 34 17 18
f 17 34 22
f 34 32 22
f 5 2 25
f 4 5 9
f 5 4 2
f 6 5 25
f 2 16 25
f 16 1 14
f 1 16 2
f 13 16 14
f 16 13 18
f 16 24 25
f 1 26 14
f 26 1 3
f 28 26 3
f 26 15 14
f 30 28 3
f 4 30 3
f 30 4 9
f 10 30 9

