# https://github.com/mikedh/trimesh
v 0.02407398 0.02426632 -0.00141638
v -0.02407470 0.05550870 -0.00141593
v -0.02407470 0.02426632 -0.00141638
v 0.02407398 0.05590396 -0.00139565
v -0.01261247 0.06726883 0.00406088
v -0.01285993 0.06562627 0.00211148
v -0.02407470 0.06238537 0.00207757
v 0.00127219 0.06915188 0.00520963
v -0.01285993 0.07002287 0.00882758
v -0.01028657 0.06050135 -0.00139287
v 0.01500135 0.06205166 -0.00077442
v 0.00191906 0.06334360 -0.00067907
v 0.00256593 0.06687947 0.00205989
v 0.01792817 0.07017822 0.01192705
v 0.01797062 0.06950613 0.00974454
v 0.00256593 0.07241552 0.01192705
v 0.02407398 0.06806702 0.01192705
v 0.02407398 0.06736177 0.00990320
v 0.00127219 0.07191243 0.01022645
v -0.01284582 0.07128972 0.01192705
v -0.02407470 0.06743977 0.00972147
v -0.02407470 0.06817557 0.01192705
v -0.00900699 0.06657528 0.00243018
v -0.01156623 0.06235606 -0.00095531
v 0.02407398 0.05899595 -0.00066425
v 0.02407398 0.06223321 0.00205809
v 0.00385966 0.06845118 0.00434496
v 0.01560936 0.06698607 0.00450170
v 0.01522053 0.06473461 0.00166674
v 0.02407398 0.06429403 0.00476761
v -0.02407470 0.05915162 -0.00072151
v 0.00385966 0.07137488 0.00941603
v -0.02407470 0.02426632 0.01192705
v 0.02407398 0.02426632 0.01192705
f 2 1 3
f 1 2 4
f 5 6 7
f 8 5 9
f 2 10 4
f 10 11 4
f 11 10 12
f 11 12 13
f 14 15 16
f 15 14 17
f 18 15 17
f 19 8 9
f 19 20 16
f 20 19 9
f 21 5 7
f 5 21 9
f 20 21 22
f 21 20 9
f 23 8 13
f 23 5 8
f 5 23 6
f 10 24 12
f 23 24 6
f 12 24 13
f 24 23 13
f 24 10 2
f 11 25 4
f 25 11 26
f 8 27 13
f 27 28 13
f 11 29 26
f 29 28 26
f 29 11 13
f 28 29 13
f 28 30 26
f 18 30 15
f 30 28 15
f 6 31 7
f 24 31 6
f 31 24 2
f 19 32 8
f 32 27 8
f 15 32 16
f 32 19 16
f 28 32 15
f 27 32 28
f 1 33 3
f 33 1 34
f 20 33 34
f 17 20 34
f 20 14 16
f 20 22 33
f 14 20 17
f 1 30 34
f 30 1 4
f 30 17 34
f 30 18 17
f 25 30 4
f 30 25 26
f 31 2 3
f 31 21 7
f 33 31 3
f 22 31 33
f 21 31 22

