# https://github.com/mikedh/trimesh
v -0.06728865 0.02649380 0.01192705
v -0.06736080 0.02286940 0.00897234
v -0.06854445 0.02286940 0.01192705
v -0.05615415 0.02286940 -0.00141224
v -0.02407470 0.02286940 -0.00141638
v -0.02407470 0.05547659 -0.00141638
v -0.03350314 0.06309940 0.00968968
v -0.04145648 0.05942534 0.01192705
v -0.02407470 0.06817557 0.01192705
v -0.03878414 0.05676365 0.00439590
v -0.02574780 0.06178978 0.00199393
v -0.02407470 0.06437996 0.00455856
v -0.05179219 0.04925993 0.00928473
v -0.06154831 0.03821668 0.01192705
v -0.05117008 0.05121369 0.01192705
v -0.05278195 0.03218533 -0.00130928
v -0.05914357 0.02286940 -0.00085791
v -0.06290674 0.02286940 0.00223713
v -0.06429833 0.02434178 0.00466823
v -0.06180278 0.03610711 0.00968181
v -0.02407470 0.05915162 -0.00072151
v -0.03660670 0.05196412 -0.00084168
v -0.02574780 0.06695747 0.00970925
v -0.04869573 0.04872192 0.00481779
v -0.04868162 0.04608851 0.00216765
v -0.03990116 0.04633629 -0.00133932
v -0.03732781 0.05537616 0.00199458
v -0.04647591 0.04392232 -0.00066797
v -0.05426655 0.03375690 -0.00071890
v -0.05959707 0.03913695 0.00915414
v -0.05428781 0.04146590 0.00430383
v -0.05654298 0.03589476 0.00208275
v -0.05920115 0.03477623 0.00457811
v -0.02407470 0.02286940 0.01192705
f 1 2 3
f 5 4 6
f 7 8 9
f 8 7 10
f 7 11 10
f 7 12 11
f 13 14 15
f 8 13 15
f 13 8 10
f 16 4 17
f 19 18 2
f 20 1 14
f 1 20 2
f 20 19 2
f 12 21 11
f 22 21 6
f 12 23 9
f 23 7 9
f 23 12 7
f 25 24 10
f 24 13 10
f 4 26 6
f 16 26 4
f 26 22 6
f 27 25 10
f 27 22 25
f 11 27 10
f 21 27 11
f 27 21 22
f 22 28 25
f 28 26 16
f 26 28 22
f 18 29 17
f 29 16 17
f 29 28 16
f 13 30 14
f 30 20 14
f 31 30 13
f 31 24 25
f 24 31 13
f 32 31 25
f 28 32 25
f 29 32 28
f 32 18 19
f 32 29 18
f 31 32 30
f 30 33 20
f 32 33 30
f 20 33 19
f 33 32 19
f 8 34 9
f 34 8 3
f 8 1 3
f 14 8 15
f 1 8 14
f 18 34 3
f 18 5 34
f 2 18 3
f 18 4 5
f 4 18 17
f 34 21 9
f 21 5 6
f 5 21 34
f 21 12 9

