# https://github.com/mikedh/trimesh
v -0.07408635 0.02681627 0.10324405
v -0.07413380 -0.02216026 0.06833450
v -0.07269405 0.02681627 0.06833840
v -0.07628075 -0.02216026 0.10388625
v -0.08330595 -0.00386118 0.06833450
v -0.07904130 0.02681627 0.06833840
v -0.09016865 -0.00809439 0.10495940
v -0.09055995 0.00257490 0.10628930
v -0.09015305 0.01052590 0.10759970
v -0.09008285 0.00973485 0.10553530
v -0.08244795 0.01303321 0.06833840
v -0.07589400 0.02681627 0.10511605
v -0.09014395 -0.01040033 0.10759190
v -0.08288930 0.00901095 0.06833840
v -0.08755695 0.02317750 0.10499840
v -0.08629400 0.02681627 0.10628735
v -0.08040045 -0.02216026 0.10728640
v -0.07961590 0.02681627 0.10767835
v -0.08774805 -0.02216026 0.10776025
v -0.08772855 -0.02216026 0.10549045
v -0.08884330 0.00257969 0.10823410
v -0.08319610 -0.00643559 0.06833450
v -0.09006530 -0.00981065 0.10568805
v -0.08042515 -0.02216026 0.06833450
v -0.08278400 -0.00915863 0.06833450
v -0.08762520 0.02341722 0.10765040
v -0.08569860 0.02681627 0.10797150
v -0.07814625 -0.02216026 0.10566855
v -0.08166145 -0.02216026 0.10783890
v -0.08626800 -0.01802054 0.10833420
v -0.08369335 -0.02216026 0.10823800
v -0.08369335 0.02681627 0.10833615
v -0.08122985 0.02681627 0.10805405
v -0.08626800 0.01931351 0.10832445
f 1 2 3
f 1 4 2
f 2 5 3
f 5 6 3
f 5 7 8
f 9 10 8
f 11 6 5
f 12 4 1
f 7 13 8
f 13 9 8
f 14 11 5
f 11 14 10
f 14 5 8
f 10 14 8
f 6 15 16
f 11 15 6
f 15 11 10
f 9 15 10
f 17 12 18
f 19 13 20
f 13 21 9
f 22 7 5
f 23 24 20
f 23 25 24
f 13 23 20
f 23 13 7
f 23 22 25
f 22 23 7
f 15 26 16
f 26 15 9
f 26 27 16
f 12 28 4
f 17 28 12
f 29 17 18
f 30 19 31
f 32 30 31
f 19 30 13
f 30 21 13
f 33 32 31
f 29 33 31
f 33 29 18
f 30 34 21
f 34 30 32
f 34 32 27
f 21 34 9
f 34 26 9
f 26 34 27
f 24 22 2
f 22 5 2
f 25 22 24
f 29 24 2
f 4 29 2
f 24 29 20
f 29 19 20
f 28 29 4
f 19 29 31
f 29 28 17
f 6 33 3
f 33 1 3
f 33 6 16
f 33 12 1
f 12 33 18
f 27 33 16
f 32 33 27

