# https://github.com/mikedh/trimesh
v 0.04123269 -0.07984568 0.10498735
v 0.04615721 -0.06942098 0.06833450
v 0.03110737 -0.07735032 0.06833450
v 0.03596586 -0.08237743 0.10534030
v 0.03875540 -0.08118338 0.10764390
v -0.00036746 -0.08626898 0.10827050
v -0.00036746 -0.08357278 0.10759645
v 0.05521354 -0.06581803 0.10825100
v 0.02875626 -0.08511198 0.10560420
v 0.02056171 -0.08755013 0.10508940
v 0.01417787 -0.08208168 0.06833450
v 0.00505551 -0.08997723 0.10621195
v -0.00036746 -0.08321528 0.06833450
v 0.04261998 -0.06581803 0.10367110
v -0.00036746 -0.07723073 0.06833450
v -0.00036746 -0.07882713 0.10366330
v 0.04024176 -0.06581803 0.06833450
v 0.05669684 -0.06956658 0.10497175
v 0.05071541 -0.06581803 0.06833450
v 0.06097877 -0.06581803 0.10629190
v 0.01545401 -0.08626898 0.10833875
v -0.00036746 -0.09019173 0.10764780
v 0.02087404 -0.08761513 0.10764390
v -0.00036746 -0.09009618 0.10543780
v 0.01674224 -0.08153763 0.06833450
v 0.05307257 -0.07229658 0.10773165
v 0.06025812 -0.06581803 0.10791755
v 0.05026196 -0.06581803 0.10747100
v -0.00036746 -0.07988663 0.10495225
v 0.05007880 -0.07454883 0.10629190
v 0.03476324 -0.08047488 0.10827635
v 0.05778988 -0.06581803 0.10828220
v 0.02883133 -0.08514057 0.10773360
v 0.00524768 -0.09013907 0.10758865
f 2 1 3
f 1 4 3
f 1 5 4
f 7 6 8
f 4 9 3
f 9 10 3
f 11 12 13
f 12 11 10
f 14 15 16
f 14 17 15
f 19 18 2
f 18 19 20
f 21 6 22
f 9 23 10
f 12 24 13
f 10 25 3
f 11 25 10
f 27 26 20
f 26 18 20
f 29 28 16
f 28 14 16
f 28 29 7
f 28 7 8
f 30 1 2
f 18 30 2
f 26 30 18
f 1 30 5
f 30 26 5
f 26 31 5
f 6 32 8
f 21 32 6
f 31 32 21
f 32 26 27
f 32 31 26
f 33 23 9
f 5 33 4
f 33 9 4
f 31 33 5
f 23 33 21
f 33 31 21
f 34 12 10
f 23 34 10
f 24 34 22
f 34 24 12
f 34 21 22
f 34 23 21
f 15 24 16
f 6 24 22
f 13 24 15
f 24 29 16
f 29 24 7
f 24 6 7
f 25 13 15
f 17 25 15
f 25 2 3
f 25 19 2
f 25 11 13
f 19 25 17
f 32 27 20
f 32 19 17
f 32 28 8
f 14 32 17
f 19 32 20
f 28 32 14

