# https://github.com/mikedh/trimesh
v -0.04305646 -0.06599938 0.10346505
v -0.07413445 -0.02216026 0.06833450
v -0.04305646 -0.06392991 0.06833450
v -0.07627425 -0.02216026 0.10388365
v -0.08042255 -0.02216026 0.06833450
v -0.08774740 -0.02216026 0.10776025
v -0.09120735 -0.02266355 0.09364030
v -0.09120735 -0.02276983 0.09138935
v -0.09120735 -0.02463208 0.09007765
v -0.04658706 -0.07737373 0.10561070
v -0.04305646 -0.07095953 0.06833450
v -0.04305646 -0.07929253 0.10628800
v -0.07468565 -0.05151478 0.10758410
v -0.06988735 -0.05712395 0.10781485
v -0.09120735 -0.03307103 0.09339395
v -0.07081360 -0.05279541 0.10825165
v -0.09120735 -0.03189381 0.09073935
v -0.07351175 -0.03921431 0.06833450
v -0.06360016 -0.05386219 0.06833450
v -0.04305646 -0.07217308 0.10773685
v -0.08102575 -0.02216026 0.10756070
v -0.08368880 -0.02216026 0.10823800
v -0.04305646 -0.07596453 0.10830430
v -0.04986072 -0.06669228 0.06833450
v -0.08138195 -0.03923667 0.10779340
v -0.04664361 -0.07740753 0.10771735
v -0.05432700 -0.07226798 0.10771735
v -0.06257140 -0.06515178 0.10628800
v -0.05216341 -0.06496978 0.06833450
v -0.05279508 -0.07081392 0.10826920
v -0.08175895 -0.03219301 0.10832510
v -0.08507980 -0.03120878 0.10767380
v -0.05419973 -0.07217893 0.10492950
v -0.09120735 -0.03186307 0.09541415
f 2 1 3
f 4 1 2
f 6 5 7
f 5 8 7
f 9 8 5
f 10 11 12
f 14 13 15
f 16 13 14
f 17 18 19
f 15 17 19
f 18 17 5
f 17 9 5
f 21 20 4
f 20 1 4
f 22 20 21
f 20 22 23
f 10 24 11
f 16 25 13
f 23 26 12
f 26 10 12
f 26 27 10
f 29 28 19
f 28 15 19
f 28 14 15
f 28 27 14
f 30 26 23
f 26 30 27
f 27 30 14
f 30 16 14
f 22 31 23
f 31 30 23
f 30 31 16
f 31 25 16
f 31 22 6
f 31 6 32
f 25 31 32
f 24 33 29
f 33 28 29
f 28 33 27
f 27 33 10
f 33 24 10
f 13 34 15
f 25 34 13
f 34 25 32
f 6 34 32
f 34 6 7
f 5 22 2
f 22 4 2
f 22 5 6
f 22 21 4
f 20 11 3
f 1 20 3
f 11 20 12
f 20 23 12
f 11 24 3
f 24 2 3
f 24 5 2
f 24 29 19
f 18 24 19
f 24 18 5
f 34 17 15
f 8 34 7
f 9 34 8
f 17 34 9

