# https://github.com/mikedh/trimesh
v 0.11046360 0.02881879 0.10011430
v 0.11046360 0.03086239 0.09476220
v 0.11037195 -0.00450526 0.09700340
v 0.11046360 0.02574526 0.10047635
v 0.12885145 -0.01362069 0.09703135
v 0.12880140 -0.00546830 0.09990435
v 0.12937990 -0.00257507 0.09623185
v 0.12679420 -0.01673523 0.10058035
v 0.12438400 -0.02447783 0.10059595
v 0.12623130 -0.00582893 0.10245885
v 0.11046360 0.02523982 0.09342320
v 0.11267620 -0.02447783 0.09441965
v 0.11717420 -0.02447783 0.09334780
v 0.11138010 -0.02447783 0.09591660
v 0.12837630 -0.00321847 0.09496565
v 0.12410125 -0.02447783 0.09446125
v 0.12639965 -0.02382764 0.09681490
v 0.11176750 -0.02447783 0.09847760
v 0.11974755 0.00321821 0.09323145
v 0.12360920 0.01480479 0.09373650
v 0.11809265 0.02815761 0.09483240
v 0.12424295 0.02143271 0.09477520
v 0.12743445 0.00965490 0.09487725
v 0.11388520 -0.02447783 0.10034375
v 0.12232090 -0.01094197 0.09331855
v 0.12232090 0.01931130 0.10164310
v 0.11846250 -0.00418356 0.10211955
v 0.12707760 0.01029827 0.10083125
v 0.12364105 0.02320175 0.09987770
v 0.11913200 0.02871498 0.09727120
v 0.11717420 -0.02447783 0.10158135
v 0.11783590 0.02817405 0.09971000
v 0.12893595 0.01104415 0.09772750
v 0.12635285 0.02104888 0.09727965
f 1 2 3
f 4 1 3
f 6 5 7
f 9 8 10
f 8 6 10
f 8 5 6
f 12 11 13
f 14 11 12
f 2 11 3
f 11 14 3
f 5 15 7
f 15 5 16
f 16 17 9
f 5 17 16
f 17 8 9
f 8 17 5
f 18 4 3
f 14 18 3
f 11 19 13
f 19 11 20
f 21 11 2
f 11 21 20
f 21 22 20
f 23 15 20
f 22 23 20
f 15 23 7
f 18 24 4
f 25 19 20
f 15 25 20
f 25 15 16
f 25 16 13
f 19 25 13
f 26 27 10
f 27 26 4
f 26 1 4
f 6 28 10
f 28 26 10
f 26 28 29
f 30 21 2
f 31 9 10
f 27 31 10
f 31 27 4
f 24 31 4
f 26 32 1
f 32 26 29
f 30 32 29
f 1 32 2
f 32 30 2
f 33 6 7
f 33 28 6
f 23 33 7
f 34 23 22
f 34 33 23
f 34 30 29
f 28 34 29
f 33 34 28
f 21 34 22
f 30 34 21
f 31 12 13
f 31 16 9
f 16 31 13
f 31 14 12
f 31 18 14
f 31 24 18

