# https://github.com/mikedh/trimesh
v -0.05019449 -0.03476792 -0.00135499
v -0.05918165 -0.02243664 -0.00080575
v -0.02407470 -0.02243664 -0.00141638
v -0.03604114 -0.04891881 -0.00138568
v -0.02407470 -0.05550896 -0.00141099
v -0.05681162 -0.02867995 -0.00071368
v -0.06256776 -0.02243664 0.00201720
v -0.02861807 -0.05684023 -0.00071499
v -0.02407470 -0.05851866 -0.00076551
v -0.02407470 -0.06278747 0.00319755
v -0.02937805 -0.05977446 0.00210952
v -0.04882300 -0.04111068 -0.00053474
v -0.03650777 -0.05181417 -0.00078552
v -0.03097933 -0.06440063 0.00963872
v -0.02407470 -0.06685283 0.00953160
v -0.03239327 -0.06445725 0.01192705
v -0.02407470 -0.06774268 0.01192705
v -0.06436196 -0.03090276 0.00971971
v -0.06424886 -0.03305478 0.01192705
v -0.06858280 -0.02243664 0.01192705
v -0.04152713 -0.05180000 0.00178625
v -0.04148475 -0.05430594 0.00425354
v -0.05108526 -0.04329104 0.00232830
v -0.03204682 -0.06045761 0.00464864
v -0.06692855 -0.02243664 0.00829257
v -0.05918705 -0.03086025 0.00201614
v -0.05423834 -0.04145050 0.00433583
v -0.06173206 -0.03597133 0.00985160
v -0.04373291 -0.05662787 0.00974454
v -0.04960774 -0.05206897 0.01192705
v -0.05600569 -0.04547134 0.01192705
v -0.06116650 -0.03155399 0.00519297
v -0.05419590 -0.04647656 0.00952900
v -0.02407470 -0.02243664 0.01192705
f 1 2 3
f 4 3 5
f 4 1 3
f 1 6 2
f 6 7 2
f 8 4 5
f 9 8 5
f 9 10 11
f 8 9 11
f 4 12 1
f 12 6 1
f 8 13 4
f 13 12 4
f 15 14 10
f 16 14 17
f 14 15 17
f 18 19 20
f 21 22 23
f 12 21 23
f 13 21 12
f 22 21 11
f 21 8 11
f 21 13 8
f 24 22 11
f 10 24 11
f 14 24 10
f 25 18 20
f 26 7 6
f 27 26 23
f 12 26 6
f 26 12 23
f 18 28 19
f 30 29 16
f 29 14 16
f 24 29 22
f 29 24 14
f 28 31 19
f 32 28 18
f 25 32 18
f 32 26 27
f 28 32 27
f 32 25 7
f 26 32 7
f 33 28 27
f 33 31 28
f 33 27 23
f 22 33 23
f 29 33 22
f 31 33 30
f 33 29 30
f 34 15 3
f 3 15 5
f 15 34 17
f 15 9 5
f 9 15 10
f 25 34 3
f 34 25 20
f 2 25 3
f 7 25 2
f 34 31 17
f 31 34 20
f 31 16 17
f 19 31 20
f 31 30 16

