# https://github.com/mikedh/trimesh
v 0.04709634 0.06295776 0.10391355
v 0.04709634 0.06161720 0.06833450
v -0.00037347 0.07882583 0.10366265
v -0.00037347 0.07749918 0.06833450
v -0.00037347 0.08626768 0.10826920
v -0.00037347 0.09019432 0.10765040
v 0.01545290 0.08626768 0.10833420
v -0.00037347 0.08052753 0.10549435
v 0.02189311 0.08064517 0.06833450
v 0.01931885 0.08135302 0.06833450
v 0.02068495 0.08757743 0.10497500
v 0.00386424 0.08353312 0.06833450
v -0.00037347 0.09009877 0.10541765
v -0.00037347 0.08348307 0.06833450
v 0.00266541 0.09008903 0.10568025
v 0.01159158 0.08912507 0.10629125
v 0.02094521 0.08764437 0.10766990
v 0.04709634 0.07656773 0.10629125
v 0.04709634 0.06877358 0.06833450
v 0.03681334 0.07510652 0.06833450
v 0.00329735 0.09018588 0.10763870
v 0.04709634 0.06878202 0.10771735
v -0.00037347 0.08357278 0.10759775
v 0.04709634 0.07081653 0.10810475
v 0.02914528 0.08501057 0.10559380
v 0.03476421 0.07599377 0.06833450
v 0.04709634 0.06509594 0.10560160
v 0.02889555 0.08515098 0.10774465
v 0.03347474 0.08111838 0.10825945
v 0.03595371 0.08238002 0.10535915
v 0.04709634 0.07339637 0.10829715
v 0.04709634 0.07566942 0.10795980
v 0.04119512 0.07982812 0.10503415
v 0.03873935 0.08117297 0.10763285
f 2 1 3
f 4 2 3
f 6 5 7
f 1 8 3
f 9 10 11
f 13 12 14
f 12 13 15
f 16 17 11
f 16 12 15
f 12 16 10
f 10 16 11
f 18 19 20
f 16 21 17
f 21 6 7
f 17 21 7
f 21 16 15
f 21 13 6
f 13 21 15
f 22 5 23
f 22 24 5
f 25 26 9
f 25 9 11
f 17 25 11
f 27 22 23
f 8 27 23
f 27 8 1
f 28 25 17
f 28 17 7
f 29 28 7
f 26 30 20
f 25 30 26
f 28 30 25
f 29 31 32
f 31 29 7
f 5 31 7
f 24 31 5
f 33 18 20
f 30 33 20
f 34 30 28
f 34 32 18
f 33 34 18
f 34 33 30
f 34 29 32
f 34 28 29
f 8 13 3
f 13 5 6
f 13 4 3
f 4 13 14
f 5 13 23
f 13 8 23
f 26 4 14
f 4 26 2
f 26 19 2
f 19 26 20
f 12 26 14
f 9 26 10
f 26 12 10
f 19 31 2
f 31 1 2
f 18 31 19
f 31 27 1
f 22 31 24
f 32 31 18
f 27 31 22

