# https://github.com/mikedh/trimesh
v 0.07208175 0.02774518 0.06832865
v 0.02786706 0.07213928 0.06833450
v 0.07852845 0.02774518 0.06833450
v 0.05761633 0.02774518 0.01192705
v 0.02786706 0.05776511 0.01192705
v 0.07438795 0.03791742 0.06833450
v 0.07209150 0.03861279 0.05098035
v 0.06408785 0.05371210 0.06833450
v 0.07614100 0.02774518 0.04904367
v 0.04516167 0.05662520 0.01192705
v 0.05489874 0.04721048 0.01192705
v 0.05662703 0.05019553 0.02267733
v 0.02786953 0.07144117 0.02711657
v 0.02786706 0.07604577 0.04842110
v 0.02786706 0.06670073 0.01192705
v 0.03354513 0.06956137 0.02761902
v 0.06399120 0.05021419 0.04988984
v 0.06683495 0.03846375 0.02823191
v 0.05922553 0.04892153 0.02645403
v 0.07156890 0.02774518 0.02776534
v 0.03201777 0.06499688 0.01192705
v 0.03476999 0.07371878 0.04963309
v 0.02786706 0.07848197 0.06833450
v 0.05011825 0.06685932 0.06833450
v 0.04903717 0.05933466 0.02744235
v 0.05816551 0.05173031 0.03161795
v 0.05173240 0.06333047 0.05221158
v 0.06713785 0.03636275 0.02460432
v 0.06655740 0.02774518 0.01192705
v 0.04523110 0.06190503 0.02621658
v 0.06127609 0.05358425 0.04963446
v 0.04826107 0.06572962 0.05060627
v 0.04904712 0.06446544 0.04668190
v 0.03698299 0.07243827 0.04893876
f 2 1 3
f 4 2 5
f 4 1 2
f 7 6 3
f 6 7 8
f 9 7 3
f 11 10 12
f 14 13 15
f 13 16 15
f 13 14 16
f 7 17 8
f 18 17 7
f 19 11 12
f 19 17 18
f 9 20 7
f 16 21 15
f 22 14 23
f 24 22 23
f 14 22 16
f 10 25 12
f 25 19 12
f 19 25 26
f 27 24 8
f 28 20 29
f 11 28 29
f 28 18 7
f 20 28 7
f 19 28 11
f 28 19 18
f 30 25 10
f 21 30 10
f 30 21 16
f 17 31 8
f 31 27 8
f 31 19 26
f 19 31 17
f 25 31 26
f 27 32 24
f 33 31 25
f 31 33 27
f 33 32 27
f 30 33 25
f 33 30 16
f 34 22 24
f 32 34 24
f 33 34 32
f 22 34 16
f 34 33 16
f 14 2 23
f 2 14 5
f 14 15 5
f 2 24 23
f 24 2 3
f 6 24 3
f 24 6 8
f 20 4 29
f 1 20 3
f 4 20 1
f 20 9 3
f 15 21 5
f 21 4 5
f 4 21 29
f 21 11 29
f 21 10 11

