# https://github.com/mikedh/trimesh
v 0.06816745 0.03682302 0.06833840
v 0.06874725 0.03682302 0.10170095
v 0.04709634 0.06161382 0.06833840
v 0.04819393 0.06120530 0.10307570
v 0.04709634 0.06295217 0.10391355
v 0.07981480 0.03859713 0.08569535
v 0.06952985 0.05665718 0.10500165
v 0.06409572 0.05371593 0.06833840
v 0.05076519 0.06643032 0.06833840
v 0.04709634 0.06877227 0.06833840
v 0.04709634 0.07656902 0.10628995
v 0.08026330 0.03683953 0.08485425
v 0.07483450 0.03682302 0.06833840
v 0.08170175 0.03682302 0.10628995
v 0.07235800 0.04158121 0.06833840
v 0.07447895 0.04997902 0.10628995
v 0.06961110 0.05676222 0.10765235
v 0.06218167 0.06474572 0.10628995
v 0.05233027 0.06514254 0.06833840
v 0.04709634 0.06655317 0.10653760
v 0.07443800 0.03682302 0.10767965
v 0.04709634 0.06979733 0.10791300
v 0.06890975 0.03682302 0.10350600
v 0.07983820 0.04122326 0.10758605
v 0.08079695 0.03682302 0.10798515
v 0.05944952 0.06715963 0.10772515
v 0.05527418 0.07075283 0.10563605
v 0.04709634 0.07339052 0.10829455
v 0.04709634 0.07566682 0.10795785
v 0.06991920 0.03682302 0.10464935
v 0.07488520 0.04927286 0.10775050
v 0.04931186 0.07493492 0.10777390
v 0.07854405 0.03682302 0.10831795
v 0.06373660 0.05987371 0.10828090
f 1 2 3
f 4 5 3
f 2 4 3
f 7 6 8
f 9 10 11
f 13 12 14
f 12 6 14
f 6 12 13
f 6 15 8
f 15 6 13
f 16 6 7
f 17 16 7
f 18 17 7
f 19 18 8
f 18 7 8
f 20 21 22
f 23 4 2
f 4 23 5
f 6 24 14
f 16 24 6
f 24 25 14
f 18 26 17
f 9 27 19
f 27 18 19
f 27 9 11
f 27 26 18
f 28 26 29
f 30 20 5
f 23 30 5
f 20 30 21
f 31 16 17
f 31 24 16
f 24 31 25
f 29 32 11
f 26 32 29
f 32 27 11
f 27 32 26
f 33 28 22
f 21 33 22
f 31 33 25
f 33 34 28
f 34 33 31
f 34 31 17
f 26 34 17
f 28 34 26
f 10 15 3
f 15 1 3
f 15 13 1
f 9 15 10
f 15 19 8
f 15 9 19
f 28 10 3
f 5 28 3
f 10 28 11
f 28 29 11
f 20 28 5
f 28 20 22
f 13 33 1
f 33 13 14
f 1 33 2
f 25 33 14
f 30 33 21
f 33 23 2
f 33 30 23

