# https://github.com/mikedh/trimesh
v -0.06948045 0.03595891 0.10252385
v -0.07269145 0.02681750 0.06833840
v -0.06650605 0.03974737 0.06833840
v -0.07319910 0.03974737 0.06833840
v -0.07768215 0.03046355 0.06833840
v -0.09062235 0.03894488 0.09169095
v -0.09062235 0.03730824 0.09080630
v -0.09062235 0.03933598 0.09341410
v -0.08061235 0.03974737 0.10795590
v -0.07926100 0.03974737 0.08703890
v -0.06839690 0.03974737 0.10365160
v -0.07408440 0.02681750 0.10324795
v -0.07903740 0.02681750 0.06833840
v -0.09062235 0.03901833 0.09525880
v -0.08510775 0.03122996 0.10770500
v -0.09062235 0.03720821 0.09625785
v -0.07201415 0.03067811 0.10260965
v -0.08629530 0.02681750 0.10629125
v -0.09062235 0.02876172 0.09341410
v -0.09062235 0.02979710 0.09106825
v -0.08369335 0.02961614 0.10825750
v -0.07854665 0.03974737 0.10831600
v -0.08369335 0.02681750 0.10833940
v -0.07605325 0.03974737 0.10813010
v -0.08264490 0.03669178 0.10778365
v -0.07961395 0.02681750 0.10768160
v -0.07299110 0.03974737 0.10717265
v -0.07420465 0.03974737 0.10775180
v -0.06963385 0.03974737 0.10491260
v -0.08569795 0.02681750 0.10797540
v -0.09062235 0.02986171 0.09557210
v -0.09062235 0.03219073 0.09038705
v -0.07522970 0.02681750 0.10457785
v -0.09062235 0.03223629 0.09615970
f 1 2 3
f 4 5 6
f 5 7 6
f 8 9 10
f 4 8 10
f 8 4 6
f 11 1 3
f 11 12 1
f 13 7 5
f 8 14 9
f 15 14 16
f 17 12 2
f 1 17 2
f 12 17 1
f 13 18 19
f 20 13 19
f 21 22 9
f 22 21 23
f 24 22 23
f 14 25 9
f 25 14 15
f 25 21 9
f 21 25 15
f 26 27 28
f 27 26 29
f 24 26 28
f 26 24 23
f 21 30 23
f 30 21 15
f 30 15 16
f 18 31 19
f 30 31 18
f 13 32 7
f 20 32 13
f 26 33 29
f 33 11 29
f 33 12 11
f 34 30 16
f 34 31 30
f 13 4 3
f 2 13 3
f 4 13 5
f 4 24 3
f 22 24 9
f 9 24 10
f 24 4 10
f 24 11 3
f 11 24 29
f 24 27 29
f 27 24 28
f 33 13 2
f 12 33 2
f 33 26 23
f 33 18 13
f 30 33 23
f 33 30 18
f 14 34 16
f 7 34 6
f 31 34 19
f 34 8 6
f 34 14 8
f 34 20 19
f 32 34 7
f 34 32 20

