# https://github.com/mikedh/trimesh
v 0.07720700 0.00017492 0.06833450
v 0.06393042 0.00017492 0.01192705
v 0.05761762 0.02774518 0.01192705
v 0.07208565 0.02774388 0.06833125
v 0.07852715 0.02774518 0.06833450
v 0.07780760 0.02449999 0.05101070
v 0.07635875 0.02774518 0.05032053
v 0.07215910 0.00579368 0.01192705
v 0.07567105 0.00549615 0.02355522
v 0.07209865 0.00017492 0.01192705
v 0.07691060 0.00818070 0.02980276
v 0.07463495 0.02029937 0.02926443
v 0.07927075 0.01409700 0.04650659
v 0.07208565 0.02048832 0.02008780
v 0.06933030 0.02095788 0.01192705
v 0.07643740 0.00017492 0.02646508
v 0.08143720 0.00515139 0.05156697
v 0.08317790 0.00017492 0.06833450
v 0.08325850 0.00515139 0.06833450
v 0.08087365 0.00017492 0.04834661
v 0.08286850 0.00901595 0.06833450
v 0.07983430 0.02318433 0.06376799
v 0.08056555 0.02188894 0.06833450
v 0.07859605 0.02188894 0.05092236
v 0.07729280 0.02326798 0.04559692
v 0.07187700 0.02774518 0.02902146
v 0.07525700 0.01069256 0.02476858
v 0.07050940 0.02774518 0.02394724
v 0.06656520 0.02774518 0.01192705
v 0.07719205 0.00474523 0.02935829
v 0.08038420 0.01222474 0.05093478
v 0.07293195 0.02280518 0.02548221
v 0.08099325 0.00386409 0.04834661
v 0.08028020 0.00608515 0.04496746
f 2 1 3
f 1 4 3
f 5 4 1
f 4 5 3
f 6 7 5
f 8 9 10
f 11 12 13
f 14 8 15
f 9 16 10
f 18 17 19
f 20 17 18
f 17 21 19
f 21 22 23
f 22 24 6
f 23 22 5
f 22 6 5
f 24 25 6
f 12 25 13
f 25 24 13
f 25 26 7
f 6 25 7
f 27 11 9
f 11 27 12
f 27 14 12
f 8 27 9
f 14 27 8
f 29 28 15
f 11 30 9
f 30 16 9
f 16 30 20
f 17 31 21
f 31 22 21
f 22 31 24
f 24 31 13
f 32 14 15
f 28 32 15
f 14 32 12
f 32 28 26
f 32 25 12
f 25 32 26
f 33 17 20
f 30 33 20
f 34 30 11
f 34 33 30
f 33 34 17
f 34 31 17
f 34 11 13
f 31 34 13
f 18 21 1
f 21 18 19
f 21 5 1
f 21 23 5
f 8 10 2
f 8 2 3
f 29 8 3
f 8 29 15
f 16 18 1
f 10 16 2
f 16 1 2
f 16 20 18
f 28 29 3
f 5 28 3
f 7 28 5
f 26 28 7

