# https://github.com/mikedh/trimesh
v -0.18991270 0.18121789 0.00013300
v -0.18993690 -0.18122790 0.00005920
v -0.18992710 -0.18123150 0.02583620
v -0.18993130 0.18124509 0.02580860
v 0.18173150 -0.18121991 0.02588100
v 0.18993210 0.18117409 0.02033540
v 0.19002990 0.18121490 0.00482680
v 0.18994650 -0.18121850 0.02033980
v 0.18995870 -0.18124270 0.00479740
v -0.19000570 0.18123409 0.00116600
v -0.18559310 0.18068010 0.00003240
v -0.18548170 0.17925250 0.00001960
v -0.18992090 0.17799310 0.00013940
v -0.18994110 -0.17924051 0.00007540
v -0.18502110 -0.18046350 0.00001120
v -0.18484310 -0.18123410 0.00076920
v -0.19003670 -0.18046450 0.01598580
v -0.18995930 -0.18091311 0.02464480
v -0.18906590 -0.18125010 0.02474220
v -0.18906291 -0.18086650 0.02585680
v -0.18995070 -0.17922451 0.02559900
v -0.18998970 -0.17924570 0.02455040
v -0.19000330 0.18123910 0.02483840
v -0.18807590 0.18054749 0.02584360
v -0.18807310 0.18124669 0.02512660
v -0.18419130 0.18125530 0.01492980
v 0.17676970 0.18083389 0.00001860
v 0.17776430 0.18123890 0.00098260
v 0.18174570 0.18016350 0.00070420
v 0.17796830 0.17993110 0.00000860
v 0.18129770 0.17804310 0.02584140
v 0.17979050 0.17994689 0.02586620
v 0.18691651 0.18122550 0.01858340
v 0.19000649 0.18121629 0.01537000
v 0.18691450 0.18123310 0.01503820
v 0.19001610 0.17850509 0.01539300
v 0.18677170 0.18123630 0.01034000
v 0.19001991 0.18120210 0.01027600
v 0.18705690 -0.18123190 0.02033540
v 0.18998330 -0.18122490 0.01427840
v 0.18999810 -0.17685511 0.01456080
v 0.17846330 -0.17999391 0.00001680
v 0.17897850 -0.17868190 0.00001640
v 0.18174210 -0.17923810 0.00043380
v 0.17953550 -0.18125530 0.00049400
v 0.19000430 -0.17689890 0.00940240
v 0.18999110 -0.18121970 0.00918200
v 0.18668110 -0.18125210 0.00475600
v 0.18127390 -0.17319410 0.00005780
v 0.17525949 -0.18077270 0.00002660
v 0.17825609 -0.17622370 0.00001440
v 0.18063771 -0.17645890 0.00002980
v 0.15068970 -0.18102071 0.00001660
v 0.15560390 -0.18124370 0.00034120
v 0.16053290 -0.18013670 0.00001440
v 0.17841650 -0.15929731 0.00000840
v 0.17842010 -0.14939510 0.00000540
v 0.19002950 -0.14904150 0.00499040
v 0.17850710 -0.14446370 0.00000520
v 0.18055230 -0.14442610 0.00000660
v 0.19003490 -0.13929231 0.00501020
v 0.17776591 -0.18123390 0.02539160
v 0.17778670 -0.18123590 0.02472960
v 0.17386709 -0.18123570 0.02532880
v 0.16963730 -0.18123531 0.02560500
v 0.15567930 -0.18124331 0.02498880
v 0.13621550 -0.18123730 0.02561320
v 0.09721710 -0.18078330 0.00000880
v 0.19003570 -0.09027750 0.00501040
v 0.07296010 -0.18123991 0.00025600
v 0.18080111 -0.04618770 0.00001100
v 0.17888830 -0.02657130 0.00000000
v 0.18115250 0.03719930 0.00002740
v -0.04392010 -0.18124190 0.00026840
v 0.17942110 0.07631209 0.00000160
v 0.18099730 0.08118750 0.00001160
v 0.18157470 0.09627030 0.02582220
v -0.14684790 -0.18097311 0.00001760
v -0.16173290 -0.18055671 0.02587320
v -0.15688610 -0.18050610 0.02587400
v -0.16151590 -0.18123870 0.00023880
v -0.15669010 -0.18100690 0.00002480
v 0.19003670 0.15867010 0.00499340
v 0.18147870 0.17410609 0.02582560
v 0.17998050 0.18122689 0.02543060
v 0.17748210 0.18031790 0.02585940
v 0.18127390 0.17461370 0.00005780
v 0.17828931 0.18123910 0.01342860
v 0.18399230 0.18123650 0.01456400
v 0.17099990 0.18123890 0.02555340
v 0.17460630 0.18123670 0.02526460
v 0.17452050 0.18062310 0.02585820
v -0.17126210 -0.18124231 0.00033060
v 0.18083950 0.17870889 0.00001120
v 0.17362850 0.18093830 0.00002600
v 0.17349370 0.18124309 0.00112660
v 0.16729031 0.18085609 0.02585320
v 0.15019690 0.18041189 0.02586420
v -0.17564631 -0.18087150 0.02586740
v 0.15044030 0.18097430 0.00002400
v 0.15975831 0.18124589 0.00122040
v 0.15982471 0.18096029 0.00001880
v 0.16446550 0.18095170 0.00002040
v -0.18835330 -0.18123930 0.00666720
v -0.18999690 -0.17238091 0.00320420
v 0.09261110 0.18078529 0.00001700
v 0.02413130 0.18085089 0.02586800
v -0.18999890 -0.16877710 0.00329800
v -0.18998810 -0.16460330 0.00176160
v -0.18998630 -0.16881210 0.00173540
v -0.18998070 -0.17241550 0.00166060
v -0.18994510 -0.17725311 0.00009180
v -0.18508110 -0.03835790 0.00001160
v -0.18999870 -0.12152870 0.00183640
v -0.00508830 0.18123990 0.00028960
v -0.01488230 0.18124929 0.00035200
v -0.06364230 0.18123949 0.00006920
v -0.18793790 0.14267810 0.02586340
v -0.08324750 0.18100650 0.00002680
v -0.08804330 0.18096170 0.00001960
v -0.15200750 0.18091210 0.02587600
v -0.18507969 0.02035730 0.00001300
v -0.18785270 0.17051830 0.02585780
v -0.18426970 0.18093529 0.02586840
v -0.18619230 0.18124669 0.02542760
v -0.18625610 0.18011549 0.02585880
v -0.12233030 0.18072850 0.00001740
v -0.19000310 0.18124530 0.02262640
v -0.13709410 0.18077829 0.00001860
v -0.18787270 0.18125109 0.02035060
v -0.19000090 0.18124970 0.02036340
v -0.19000310 0.18124830 0.02152040
v -0.15705930 0.18124990 0.00089180
v -0.16722910 0.18124949 0.00087880
v -0.19002590 0.18123229 0.00457800
v -0.19002490 0.18122390 0.00575240
v -0.18999350 0.18125350 0.01687140
v -0.18999850 0.18125109 0.01919940
v -0.17660730 0.18089749 0.00002580
v -0.18124030 0.18124869 0.00054280
v -0.19001390 0.18123850 0.00229060
v -0.19002169 0.18124149 0.00341880
v -0.18993630 0.09376470 0.00015040
v -0.18111930 0.18003170 0.00001900
v -0.18993230 0.16697790 0.00014500
v -0.18993109 0.17124270 0.00014080
v -0.18992630 0.17500749 0.00014160
v 0.15937130 0.18124170 0.02515820
v 0.10220850 0.18064290 0.02586700
v -0.18451170 -0.18025650 0.02586780
v -0.18997869 -0.16538810 0.02510400
v -0.18770370 -0.17911931 0.02587120
v -0.18617131 -0.17893730 0.02587280
v -0.18766069 -0.18066050 0.02586080
v -0.18999770 -0.18085651 0.02085660
v -0.19000450 -0.18089650 0.01958340
v -0.18999749 -0.17928731 0.02333700
v -0.19000010 -0.17730910 0.02322960
v -0.18999150 -0.17725731 0.02444660
v -0.18996350 -0.17500331 0.02547100
v -0.18997350 -0.16913270 0.02527300
v -0.18995910 -0.17721850 0.02552420
f 4 3 118
f 17 2 156
f 2 3 156
f 5 3 67
f 44 45 42
f 2 1 12
f 19 67 3
f 66 67 19
f 19 3 2
f 19 45 66
f 19 93 45
f 4 148 125
f 90 148 4
f 130 148 26
f 130 125 148
f 105 2 17
f 17 108 105
f 109 105 108
f 54 53 45
f 42 45 50
f 50 53 42
f 45 53 50
f 5 67 65
f 65 67 66
f 66 45 48
f 48 63 66
f 23 160 4
f 99 3 5
f 5 32 121
f 104 19 2
f 93 19 104
f 148 90 96
f 4 125 25
f 125 130 25
f 114 109 108
f 114 108 17
f 114 112 109
f 66 63 64
f 64 65 66
f 45 44 9
f 9 48 45
f 63 48 39
f 39 8 5
f 48 9 39
f 39 9 8
f 45 93 81
f 81 74 45
f 81 93 2
f 2 74 81
f 70 54 45
f 45 74 70
f 70 74 2
f 2 53 70
f 53 54 70
f 7 27 28
f 83 7 36
f 36 7 38
f 78 53 2
f 3 22 18
f 21 22 3
f 17 156 155
f 155 22 17
f 155 18 22
f 155 156 3
f 3 18 155
f 137 140 142
f 4 25 137
f 137 25 130
f 137 130 26
f 26 140 137
f 151 23 22
f 158 23 17
f 17 23 136
f 135 136 23
f 17 136 135
f 135 114 17
f 142 114 135
f 5 121 80
f 80 121 153
f 20 118 3
f 20 152 118
f 3 99 20
f 153 152 150
f 124 121 4
f 153 121 124
f 118 152 124
f 124 152 153
f 77 84 5
f 31 32 5
f 5 84 31
f 85 32 31
f 2 93 16
f 16 104 2
f 93 104 16
f 86 32 85
f 85 92 86
f 86 92 32
f 85 90 97
f 97 92 85
f 97 90 4
f 4 121 97
f 149 121 32
f 92 97 149
f 91 90 85
f 85 35 91
f 28 96 37
f 37 7 28
f 26 148 101
f 148 96 101
f 145 112 143
f 112 14 111
f 2 105 111
f 111 14 2
f 2 14 146
f 146 1 2
f 146 112 145
f 146 14 112
f 146 13 1
f 147 13 146
f 62 64 63
f 62 39 5
f 63 39 62
f 5 65 62
f 65 64 62
f 40 9 47
f 8 9 40
f 10 140 1
f 1 13 10
f 10 13 147
f 112 114 10
f 147 146 10
f 10 143 112
f 10 146 145
f 145 143 10
f 27 7 29
f 49 7 9
f 49 9 44
f 49 76 73
f 8 36 6
f 5 8 6
f 6 77 5
f 84 77 6
f 85 31 6
f 6 31 84
f 41 36 8
f 8 40 41
f 41 40 47
f 2 12 113
f 53 78 68
f 27 29 94
f 94 29 7
f 160 22 162
f 22 21 162
f 162 21 3
f 162 3 4
f 4 160 162
f 142 135 132
f 132 135 23
f 161 22 160
f 161 151 22
f 160 23 161
f 23 151 161
f 17 22 157
f 157 158 17
f 22 158 157
f 22 23 159
f 159 158 22
f 23 158 159
f 79 150 99
f 79 99 5
f 5 80 79
f 79 80 153
f 153 150 79
f 152 20 154
f 154 150 152
f 154 20 99
f 99 150 154
f 4 118 123
f 118 124 123
f 32 92 98
f 98 149 32
f 92 149 98
f 107 97 121
f 121 149 107
f 107 149 97
f 88 96 90
f 88 37 96
f 109 112 110
f 112 111 110
f 105 109 110
f 110 111 105
f 47 9 46
f 46 41 47
f 1 139 11
f 11 139 144
f 11 12 1
f 144 12 11
f 142 140 141
f 140 10 141
f 141 114 142
f 141 10 114
f 28 27 95
f 95 102 28
f 52 44 42
f 52 49 44
f 76 49 71
f 33 35 85
f 85 6 33
f 57 68 15
f 2 113 15
f 15 68 78
f 122 12 144
f 122 113 12
f 113 122 75
f 75 122 144
f 87 94 7
f 87 49 73
f 7 49 87
f 73 76 87
f 76 94 87
f 138 137 142
f 4 137 138
f 128 23 4
f 4 132 128
f 128 132 23
f 24 124 4
f 4 123 24
f 89 88 90
f 37 88 89
f 90 91 89
f 89 91 35
f 35 37 89
f 134 140 26
f 26 133 134
f 134 133 140
f 28 102 100
f 100 115 28
f 28 115 116
f 140 133 116
f 116 96 28
f 116 101 96
f 26 101 116
f 116 133 26
f 27 102 103
f 103 95 27
f 102 95 103
f 144 139 129
f 129 127 144
f 35 33 34
f 34 37 35
f 7 37 34
f 38 7 34
f 34 33 6
f 34 36 38
f 34 6 36
f 36 41 61
f 82 78 2
f 2 15 82
f 82 15 78
f 55 51 42
f 68 51 55
f 42 53 55
f 53 68 55
f 56 68 57
f 56 51 68
f 57 15 72
f 72 15 113
f 113 75 72
f 94 75 30
f 127 106 30
f 144 127 30
f 30 75 144
f 27 94 30
f 30 102 27
f 30 106 102
f 76 71 60
f 60 94 76
f 60 75 94
f 60 72 75
f 60 71 49
f 49 52 60
f 60 56 57
f 142 132 131
f 131 138 142
f 131 132 4
f 4 138 131
f 126 123 124
f 124 24 126
f 126 24 123
f 115 100 117
f 117 116 115
f 1 140 117
f 140 116 117
f 117 139 1
f 117 119 139
f 102 119 117
f 117 100 102
f 139 119 120
f 120 129 139
f 120 119 102
f 127 129 120
f 102 106 120
f 120 106 127
f 41 46 58
f 58 61 41
f 58 46 9
f 9 7 58
f 7 61 58
f 83 36 69
f 36 61 69
f 69 7 83
f 69 61 7
f 57 72 59
f 59 60 57
f 72 60 59
f 51 56 43
f 56 60 43
f 42 51 43
f 43 52 42
f 43 60 52
