# https://github.com/mikedh/trimesh
v 0.00144449 -0.02869405 0.06668993
v 0.00144449 -0.02869405 0.06668993
v 0.00144449 -0.02869405 0.06668993
v 0.00144449 -0.02869405 0.06668993
v 0.00144449 -0.02869405 0.06668993
v 0.00144449 -0.02869405 0.06668993
v -0.00144176 -0.02869405 0.06668486
v -0.00144176 -0.02869405 0.06668486
v -0.00144176 -0.02869405 0.06668486
v -0.00144176 -0.02869405 0.06668486
v -0.00144176 -0.02869405 0.06668486
v 0.00257105 -0.02869405 0.06653774
v 0.00257105 -0.02869405 0.06653774
v 0.00257105 -0.02869405 0.06653774
v 0.00257105 -0.02869405 0.06653774
v 0.00173876 -0.01470388 0.06898303
v 0.00173876 -0.01470388 0.06898303
v 0.00173876 -0.01470388 0.06898303
v 0.00173876 -0.01470388 0.06898303
v 0.00173876 -0.01470388 0.06898303
v 0.00173876 -0.01470388 0.06898303
v 0.00173876 -0.01470388 0.06898303
v 0.00005338 -0.01520494 0.06905913
v 0.00005338 -0.01520494 0.06905913
v 0.00005338 -0.01520494 0.06905913
v 0.00005338 -0.01520494 0.06905913
v 0.00005338 -0.01520494 0.06905913
v 0.00005338 -0.01520494 0.06905913
v 0.00005338 -0.01520494 0.06905913
v 0.00005338 -0.01520494 0.06905913
v -0.00005363 -0.01520494 0.06905913
v -0.00005363 -0.01520494 0.06905913
v -0.00005363 -0.01520494 0.06905913
v -0.00005363 -0.01520494 0.06905913
v -0.00005363 -0.01520494 0.06905913
v -0.00005363 -0.01520494 0.06905913
v -0.00005363 -0.01520494 0.06905913
v -0.00005363 -0.01520494 0.06905913
v -0.00005363 -0.01520494 0.06905913
v -0.00221460 -0.02869405 0.06656818
v -0.00221460 -0.02869405 0.06656818
v -0.00221460 -0.02869405 0.06656818
v -0.00173901 -0.01470059 0.06898303
v -0.00173901 -0.01470059 0.06898303
v -0.00173901 -0.01470059 0.06898303
v -0.00173901 -0.01470059 0.06898303
v -0.00173901 -0.01470059 0.06898303
v -0.00173901 -0.01470059 0.06898303
v -0.00275261 -0.01301280 0.06911494
v -0.00275261 -0.01301280 0.06911494
v -0.00275261 -0.01301280 0.06911494
v -0.00275261 -0.01301280 0.06911494
v -0.00275261 -0.01301280 0.06911494
v -0.00275261 -0.01301280 0.06911494
v -0.00275261 -0.01301280 0.06911494
v -0.00275261 -0.01301280 0.06911494
v -0.00275261 -0.01301280 0.06911494
v -0.00275261 -0.01301280 0.06911494
v -0.00275261 -0.01301280 0.06911494
v -0.00275261 -0.01301280 0.06911494
v 0.00347764 -0.02869405 0.06636018
v 0.00347764 -0.02869405 0.06636018
v 0.00347764 -0.02869405 0.06636018
v 0.00347764 -0.02869405 0.06636018
v 0.00275236 -0.01301610 0.06911494
v 0.00275236 -0.01301610 0.06911494
v 0.00275236 -0.01301610 0.06911494
v 0.00275236 -0.01301610 0.06911494
v 0.00275236 -0.01301610 0.06911494
v 0.00275236 -0.01301610 0.06911494
v 0.00275236 -0.01301610 0.06911494
v 0.00275236 -0.01301610 0.06911494
v 0.00275236 -0.01301610 0.06911494
v 0.00275236 -0.01301610 0.06911494
v 0.00275236 -0.01301610 0.06911494
v 0.00275236 -0.01301610 0.06911494
v 0.00126317 -0.00885597 0.06992665
v 0.00126317 -0.00885597 0.06992665
v 0.00126317 -0.00885597 0.06992665
v 0.00126317 -0.00885597 0.06992665
v 0.00126317 -0.00885597 0.06992665
v 0.00126317 -0.01138435 0.06954109
v 0.00126317 -0.01138435 0.06954109
v 0.00126317 -0.01138435 0.06954109
v 0.00126317 -0.01138435 0.06954109
v 0.00104321 -0.01387977 0.06917582
v 0.00104321 -0.01387977 0.06917582
v 0.00104321 -0.01387977 0.06917582
v 0.00126317 -0.00632429 0.07029700
v 0.00126317 -0.00632429 0.07029700
v 0.00126317 -0.00632429 0.07029700
v 0.00126317 -0.00632429 0.07029700
v 0.00126317 -0.00632429 0.07029700
v 0.00126317 -0.00632429 0.07029700
v 0.00020200 0.00238825 0.07160589
v 0.00020200 0.00238825 0.07160589
v 0.00020200 0.00238825 0.07160589
v 0.00020200 0.00238825 0.07160589
v 0.00020200 0.00238825 0.07160589
v 0.00020200 0.00238825 0.07160589
v -0.00020522 0.00238825 0.07160589
v -0.00020522 0.00238825 0.07160589
v -0.00020522 0.00238825 0.07160589
v -0.00020522 0.00238825 0.07160589
v -0.00020522 0.00238825 0.07160589
v -0.00020522 0.00238825 0.07160589
v -0.00126342 -0.00632429 0.07029700
v -0.00126342 -0.00632429 0.07029700
v -0.00126342 -0.00632429 0.07029700
v -0.00126342 -0.00632429 0.07029700
v -0.00126342 -0.00632429 0.07029700
v -0.00126342 -0.00632429 0.07029700
v -0.00126342 -0.00885597 0.06992665
v -0.00126342 -0.00885597 0.06992665
v -0.00126342 -0.00885597 0.06992665
v -0.00126342 -0.00885597 0.06992665
v -0.00126342 -0.00885597 0.06992665
v -0.00126342 -0.01138435 0.06954109
v -0.00126342 -0.01138435 0.06954109
v -0.00126342 -0.01138435 0.06954109
v -0.00126342 -0.01138435 0.06954109
v -0.00104345 -0.01387977 0.06917582
v -0.00104345 -0.01387977 0.06917582
v -0.00104345 -0.01387977 0.06917582
v -0.00291610 -0.02869405 0.06645149
v -0.00291610 -0.02869405 0.06645149
v -0.00291610 -0.02869405 0.06645149
v -0.00189060 0.00313325 0.07152472
v -0.00189060 0.00313325 0.07152472
v -0.00189060 0.00313325 0.07152472
v -0.00189060 0.00313325 0.07152472
v -0.00189060 0.00313325 0.07152472
v -0.00189060 0.00313325 0.07152472
v -0.00271397 0.00498256 0.07162618
v -0.00271397 0.00498256 0.07162618
v -0.00271397 0.00498256 0.07162618
v -0.00271397 0.00498256 0.07162618
v -0.00271397 0.00498256 0.07162618
v -0.00271397 0.00498256 0.07162618
v -0.00271397 0.00498256 0.07162618
v -0.00271397 0.00498256 0.07162618
v -0.00322523 -0.01138435 0.06924177
v -0.00322523 -0.01138435 0.06924177
v -0.00322523 -0.01138435 0.06924177
v -0.00322523 -0.01138435 0.06924177
v -0.00322523 -0.01138435 0.06924177
v -0.00322523 -0.01138435 0.06924177
v -0.00449150 -0.01138435 0.06889678
v -0.00449150 -0.01138435 0.06889678
v -0.00449150 -0.01138435 0.06889678
v -0.00449150 -0.01138435 0.06889678
v -0.00449150 -0.01138435 0.06889678
v -0.00367407 -0.01387977 0.06872430
v -0.00367407 -0.01387977 0.06872430
v -0.00367407 -0.01387977 0.06872430
v -0.00372460 -0.02869405 0.06629423
v -0.00372460 -0.02869405 0.06629423
v -0.00372460 -0.02869405 0.06629423
v -0.00372460 -0.02869405 0.06629423
v -0.00372460 -0.02869405 0.06629423
v -0.00372460 -0.02869405 0.06629423
v -0.00372460 -0.02869405 0.06629423
v 0.00373030 -0.02869405 0.06629423
v 0.00373030 -0.02869405 0.06629423
v 0.00373030 -0.02869405 0.06629423
v 0.00373030 -0.02869405 0.06629423
v 0.00373030 -0.02869405 0.06629423
v 0.00373030 -0.02869405 0.06629423
v 0.00373030 -0.02869405 0.06629423
v 0.00367382 -0.01387977 0.06872430
v 0.00367382 -0.01387977 0.06872430
v 0.00367382 -0.01387977 0.06872430
v 0.00449125 -0.01138435 0.06889678
v 0.00449125 -0.01138435 0.06889678
v 0.00449125 -0.01138435 0.06889678
v 0.00449125 -0.01138435 0.06889678
v 0.00449125 -0.01138435 0.06889678
v 0.00322796 -0.01138435 0.06924177
v 0.00322796 -0.01138435 0.06924177
v 0.00322796 -0.01138435 0.06924177
v 0.00322796 -0.01138435 0.06924177
v 0.00322796 -0.01138435 0.06924177
v 0.00322796 -0.01138435 0.06924177
v 0.00359654 0.00498256 0.07145369
v 0.00359654 0.00498256 0.07145369
v 0.00359654 0.00498256 0.07145369
v 0.00359654 0.00498256 0.07145369
v 0.00359654 0.00498256 0.07145369
v 0.00359654 0.00498256 0.07145369
v 0.00271372 0.00498256 0.07162618
v 0.00271372 0.00498256 0.07162618
v 0.00271372 0.00498256 0.07162618
v 0.00271372 0.00498256 0.07162618
v 0.00188738 0.00313654 0.07152472
v 0.00188738 0.00313654 0.07152472
v 0.00188738 0.00313654 0.07152472
v 0.00188738 0.00313654 0.07152472
v 0.00188738 0.00313654 0.07152472
v 0.00126317 -0.00379591 0.07065212
v 0.00126317 -0.00379591 0.07065212
v 0.00126317 -0.00379591 0.07065212
v 0.00126317 -0.00379591 0.07065212
v 0.00119183 0.00498256 0.07187477
v 0.00119183 0.00498256 0.07187477
v 0.00119183 0.00498256 0.07187477
v 0.00119183 0.00498256 0.07187477
v 0.00119183 0.00498256 0.07187477
v -0.00006552 0.00498256 0.07187984
v -0.00006552 0.00498256 0.07187984
v -0.00006552 0.00498256 0.07187984
v -0.00006552 0.00498256 0.07187984
v -0.00119208 0.00498256 0.07187477
v -0.00119208 0.00498256 0.07187477
v -0.00119208 0.00498256 0.07187477
v -0.00119208 0.00498256 0.07187477
v -0.00119208 0.00498256 0.07187477
v -0.00119208 0.00498256 0.07187477
v -0.00126342 -0.00379591 0.07065212
v -0.00126342 -0.00379591 0.07065212
v -0.00126342 -0.00379591 0.07065212
v -0.00126342 -0.00379591 0.07065212
v -0.00247617 0.00498256 0.07166677
v -0.00247617 0.00498256 0.07166677
v -0.00247617 0.00498256 0.07166677
v -0.00399510 0.00498256 0.07131671
v -0.00399510 0.00498256 0.07131671
v -0.00399510 0.00498256 0.07131671
v -0.00399510 0.00498256 0.07131671
v -0.00399510 0.00498256 0.07131671
v -0.00379297 0.00126416 0.07088042
v -0.00379297 0.00126416 0.07088042
v -0.00379297 0.00126416 0.07088042
v -0.00379297 0.00126416 0.07088042
v -0.00379297 -0.00632429 0.06982519
v -0.00379297 -0.00632429 0.06982519
v -0.00379297 -0.00632429 0.06982519
v -0.00379297 -0.00632429 0.06982519
v -0.00379297 -0.00632429 0.06982519
v -0.00396240 -0.00894827 0.06940411
v -0.00396240 -0.00894827 0.06940411
v -0.00396240 -0.00894827 0.06940411
v -0.00491953 -0.00985479 0.06901855
v -0.00491953 -0.00985479 0.06901855
v -0.00491953 -0.00985479 0.06901855
v -0.00491953 -0.00985479 0.06901855
v -0.00491953 -0.00985479 0.06901855
v -0.00491953 -0.00985479 0.06901855
v -0.00491953 -0.00985479 0.06901855
v -0.00491953 -0.00985479 0.06901855
v -0.00491953 -0.00985479 0.06901855
v -0.00491953 -0.00985479 0.06901855
v -0.00491953 -0.00985479 0.06901855
v -0.00491358 -0.02507783 0.06648701
v -0.00491358 -0.02507783 0.06648701
v -0.00491358 -0.02507783 0.06648701
v -0.00601339 -0.02869405 0.06549773
v -0.00601339 -0.02869405 0.06549773
v -0.00601339 -0.02869405 0.06549773
v -0.00601339 -0.02869405 0.06549773
v 0.00632228 -0.02869405 0.06537597
v 0.00632228 -0.02869405 0.06537597
v 0.00632228 -0.02869405 0.06537597
v 0.00632228 -0.02869405 0.06537597
v 0.00632228 -0.02869405 0.06537597
v 0.00632228 -0.02869405 0.06537597
v 0.00632228 -0.02869405 0.06537597
v 0.00632228 -0.02869405 0.06537597
v 0.00491334 -0.02507783 0.06648701
v 0.00491334 -0.02507783 0.06648701
v 0.00491334 -0.02507783 0.06648701
v 0.00491334 -0.02507783 0.06648701
v 0.00492225 -0.00985479 0.06901855
v 0.00492225 -0.00985479 0.06901855
v 0.00492225 -0.00985479 0.06901855
v 0.00492225 -0.00985479 0.06901855
v 0.00492225 -0.00985479 0.06901855
v 0.00492225 -0.00985479 0.06901855
v 0.00492225 -0.00985479 0.06901855
v 0.00492225 -0.00985479 0.06901855
v 0.00492225 -0.00985479 0.06901855
v 0.00492225 -0.00985479 0.06901855
v 0.00492225 -0.00985479 0.06901855
v 0.00396512 -0.00894827 0.06940411
v 0.00396512 -0.00894827 0.06940411
v 0.00396512 -0.00894827 0.06940411
v 0.00379272 -0.00632429 0.06982519
v 0.00379272 -0.00632429 0.06982519
v 0.00379272 -0.00632429 0.06982519
v 0.00379272 -0.00632429 0.06982519
v 0.00399485 0.00498256 0.07131671
v 0.00399485 0.00498256 0.07131671
v 0.00399485 0.00498256 0.07131671
v 0.00399485 0.00498256 0.07131671
v -0.00515138 0.00498256 0.07088549
v -0.00515138 0.00498256 0.07088549
v -0.00515138 0.00498256 0.07088549
v -0.00523164 -0.00816701 0.06913523
v -0.00523164 -0.00816701 0.06913523
v -0.00523164 -0.00816701 0.06913523
v -0.00523164 -0.00816701 0.06913523
v -0.00523164 -0.00816701 0.06913523
v -0.00523164 -0.00816701 0.06913523
v -0.00523164 -0.00816701 0.06913523
v -0.00523164 -0.00816701 0.06913523
v -0.00523164 -0.00816701 0.06913523
v -0.00632252 -0.02869405 0.06537597
v -0.00632252 -0.02869405 0.06537597
v -0.00632252 -0.02869405 0.06537597
v -0.00632252 -0.02869405 0.06537597
v -0.00632252 -0.02869405 0.06537597
v -0.00632252 -0.02869405 0.06537597
v 0.00529084 -0.02339334 0.06663413
v 0.00529084 -0.02339334 0.06663413
v 0.00529084 -0.02339334 0.06663413
v 0.00815628 -0.02869405 0.06439177
v 0.00815628 -0.02869405 0.06439177
v 0.00815628 -0.02869405 0.06439177
v 0.00815628 -0.02869405 0.06439177
v 0.00815628 -0.02869405 0.06439177
v 0.00815628 -0.02869405 0.06439177
v 0.00752612 -0.01750257 0.06649208
v 0.00752612 -0.01750257 0.06649208
v 0.00752612 -0.01750257 0.06649208
v 0.00752612 -0.01750257 0.06649208
v 0.00752612 -0.01750257 0.06649208
v 0.00632228 -0.01138435 0.06808507
v 0.00632228 -0.01138435 0.06808507
v 0.00632228 -0.01138435 0.06808507
v 0.00632228 -0.01138435 0.06808507
v 0.00632228 -0.01138435 0.06808507
v 0.00632228 -0.01138435 0.06808507
v 0.00523139 -0.00816701 0.06913523
v 0.00523139 -0.00816701 0.06913523
v 0.00523139 -0.00816701 0.06913523
v 0.00523139 -0.00816701 0.06913523
v 0.00523139 -0.00816701 0.06913523
v 0.00523139 -0.00816701 0.06913523
v 0.00523139 -0.00816701 0.06913523
v 0.00523139 -0.00816701 0.06913523
v 0.00523139 -0.00816701 0.06913523
v 0.00622121 0.00498256 0.07047456
v 0.00622121 0.00498256 0.07047456
v 0.00622121 0.00498256 0.07047456
v 0.00622121 0.00498256 0.07047456
v 0.00622121 0.00498256 0.07047456
v 0.00622121 0.00498256 0.07047456
v 0.00622121 0.00498256 0.07047456
v -0.00622146 0.00498256 0.07047456
v -0.00622146 0.00498256 0.07047456
v -0.00622146 0.00498256 0.07047456
v -0.00622146 0.00498256 0.07047456
v -0.00622146 0.00498256 0.07047456
v -0.00622146 0.00498256 0.07047456
v -0.00622146 0.00498256 0.07047456
v -0.00549321 -0.00632429 0.06926713
v -0.00549321 -0.00632429 0.06926713
v -0.00549321 -0.00632429 0.06926713
v -0.00549321 -0.00632429 0.06926713
v -0.00761257 -0.00012036 0.06907435
v -0.00761257 -0.00012036 0.06907435
v -0.00761257 -0.00012036 0.06907435
v -0.00761257 -0.00012036 0.06907435
v -0.00761257 -0.00012036 0.06907435
v -0.00761257 -0.00012036 0.06907435
v -0.00761257 -0.00012036 0.06907435
v -0.00761257 -0.00012036 0.06907435
v -0.00761257 -0.00012036 0.06907435
v -0.00761257 -0.00012036 0.06907435
v -0.00761257 -0.00012036 0.06907435
v -0.00617390 -0.00894827 0.06852644
v -0.00617390 -0.00894827 0.06852644
v -0.00617390 -0.00894827 0.06852644
v -0.00632252 -0.01138435 0.06808507
v -0.00632252 -0.01138435 0.06808507
v -0.00632252 -0.01138435 0.06808507
v -0.00632252 -0.01138435 0.06808507
v -0.00632252 -0.01138435 0.06808507
v -0.00752637 -0.01749928 0.06649208
v -0.00752637 -0.01749928 0.06649208
v -0.00752637 -0.01749928 0.06649208
v -0.00752637 -0.01749928 0.06649208
v -0.00752637 -0.01749928 0.06649208
v -0.00752637 -0.01749928 0.06649208
v -0.00785631 -0.02869405 0.06456426
v -0.00785631 -0.02869405 0.06456426
v -0.00785631 -0.02869405 0.06456426
v 0.00922339 -0.02869405 0.06358005
v 0.00922339 -0.02869405 0.06358005
v 0.00922339 -0.02869405 0.06358005
v 0.00819492 -0.01138435 0.06697911
v 0.00819492 -0.01138435 0.06697911
v 0.00819492 -0.01138435 0.06697911
v 0.00819492 -0.01138435 0.06697911
v 0.00819492 -0.01138435 0.06697911
v 0.00819492 -0.01138435 0.06697911
v 0.00819492 -0.01138435 0.06697911
v 0.00794226 -0.01391273 0.06678125
v 0.00794226 -0.01391273 0.06678125
v 0.00794226 -0.01391273 0.06678125
v 0.00794226 -0.01391273 0.06678125
v 0.00773419 -0.01581479 0.06662906
v 0.00773419 -0.01581479 0.06662906
v 0.00773419 -0.01581479 0.06662906
v 0.00773419 -0.01581479 0.06662906
v 0.00761232 -0.00012365 0.06907435
v 0.00761232 -0.00012365 0.06907435
v 0.00761232 -0.00012365 0.06907435
v 0.00761232 -0.00012365 0.06907435
v 0.00761232 -0.00012365 0.06907435
v 0.00761232 -0.00012365 0.06907435
v 0.00761232 -0.00012365 0.06907435
v 0.00761232 -0.00012365 0.06907435
v 0.00761232 -0.00012365 0.06907435
v 0.00761232 -0.00012365 0.06907435
v 0.00761232 -0.00012365 0.06907435
v 0.00675923 -0.00632429 0.06860761
v 0.00675923 -0.00632429 0.06860761
v 0.00675923 -0.00632429 0.06860761
v 0.00675923 -0.00632429 0.06860761
v 0.00617365 -0.00894827 0.06852644
v 0.00617365 -0.00894827 0.06852644
v 0.00617365 -0.00894827 0.06852644
v 0.00549296 -0.00632429 0.06926713
v 0.00549296 -0.00632429 0.06926713
v 0.00549296 -0.00632429 0.06926713
v 0.00549296 -0.00632429 0.06926713
v 0.00806116 0.00498256 0.06941933
v 0.00806116 0.00498256 0.06941933
v 0.00806116 0.00498256 0.06941933
v 0.00806116 0.00498256 0.06941933
v 0.00632228 0.00126416 0.06991143
v 0.00632228 0.00126416 0.06991143
v 0.00632228 0.00126416 0.06991143
v 0.00775797 0.00126416 0.06917582
v 0.00775797 0.00126416 0.06917582
v 0.00775797 0.00126416 0.06917582
v 0.00775797 0.00126416 0.06917582
v 0.00775797 0.00126416 0.06917582
v 0.00775797 0.00126416 0.06917582
v -0.00714589 0.00498256 0.06997231
v -0.00714589 0.00498256 0.06997231
v -0.00714589 0.00498256 0.06997231
v -0.00775525 0.00126416 0.06917582
v -0.00775525 0.00126416 0.06917582
v -0.00775525 0.00126416 0.06917582
v -0.00775525 0.00126416 0.06917582
v -0.00775525 0.00126416 0.06917582
v -0.00775525 0.00126416 0.06917582
v -0.00632252 0.00126416 0.06991143
v -0.00632252 0.00126416 0.06991143
v -0.00632252 0.00126416 0.06991143
v -0.00819220 -0.01138435 0.06697911
v -0.00819220 -0.01138435 0.06697911
v -0.00819220 -0.01138435 0.06697911
v -0.00819220 -0.01138435 0.06697911
v -0.00819220 -0.01138435 0.06697911
v -0.00819220 -0.01138435 0.06697911
v -0.00794251 -0.01391273 0.06678125
v -0.00794251 -0.01391273 0.06678125
v -0.00794251 -0.01391273 0.06678125
v -0.00794251 -0.01391273 0.06678125
v -0.00773444 -0.01581479 0.06662906
v -0.00773444 -0.01581479 0.06662906
v -0.00773444 -0.01581479 0.06662906
v -0.00773444 -0.01581479 0.06662906
v -0.00815653 -0.02869405 0.06439684
v -0.00815653 -0.02869405 0.06439684
v -0.00815653 -0.02869405 0.06439684
v -0.00815653 -0.02869405 0.06439684
v -0.00815653 -0.02869405 0.06439684
v -0.00815653 -0.02869405 0.06439684
v 0.00942254 -0.02869405 0.06342278
v 0.00942254 -0.02869405 0.06342278
v 0.00942254 -0.02869405 0.06342278
v 0.00942254 -0.02869405 0.06342278
v 0.00942254 -0.02869405 0.06342278
v 0.00942254 -0.02869405 0.06342278
v 0.00968115 -0.00885597 0.06612174
v 0.00968115 -0.00885597 0.06612174
v 0.00968115 -0.00885597 0.06612174
v 0.00968115 -0.00885597 0.06612174
v 0.00968115 -0.00885597 0.06612174
v 0.00968115 -0.00885597 0.06612174
v 0.00902126 0.00126416 0.06813073
v 0.00902126 0.00126416 0.06813073
v 0.00902126 0.00126416 0.06813073
v 0.00902126 0.00126416 0.06813073
v 0.00902126 0.00126416 0.06813073
v 0.00902126 0.00126416 0.06813073
v 0.00902126 0.00126416 0.06813073
v 0.00902126 0.00126416 0.06813073
v 0.00902126 0.00126416 0.06813073
v 0.00873293 0.00498256 0.06885113
v 0.00873293 0.00498256 0.06885113
v 0.00873293 0.00498256 0.06885113
v -0.00806141 0.00498256 0.06941933
v -0.00806141 0.00498256 0.06941933
v -0.00806141 0.00498256 0.06941933
v -0.00806141 0.00498256 0.06941933
v -0.00902151 0.00126416 0.06813073
v -0.00902151 0.00126416 0.06813073
v -0.00902151 0.00126416 0.06813073
v -0.00902151 0.00126416 0.06813073
v -0.00902151 0.00126416 0.06813073
v -0.00902151 0.00126416 0.06813073
v -0.00902151 0.00126416 0.06813073
v -0.00902151 0.00126416 0.06813073
v -0.00902151 0.00126416 0.06813073
v -0.00902151 0.00126416 0.06813073
v -0.00945846 -0.01138435 0.06593402
v -0.00945846 -0.01138435 0.06593402
v -0.00945846 -0.01138435 0.06593402
v -0.00945846 -0.01138435 0.06593402
v -0.00942279 -0.02869405 0.06342278
v -0.00942279 -0.02869405 0.06342278
v -0.00942279 -0.02869405 0.06342278
v -0.00942279 -0.02869405 0.06342278
v -0.00942279 -0.02869405 0.06342278
v -0.00942279 -0.02869405 0.06342278
v -0.00942279 -0.02869405 0.06342278
v 0.01002892 -0.00449476 0.06644135
v 0.01002892 -0.00449476 0.06644135
v 0.01002892 -0.00449476 0.06644135
v 0.01002892 -0.00449476 0.06644135
v 0.01002892 -0.00449476 0.06644135
v 0.01002892 -0.00449476 0.06644135
v 0.00988625 -0.00632429 0.06630437
v 0.00988625 -0.00632429 0.06630437
v 0.00988625 -0.00632429 0.06630437
v 0.01076312 -0.02869405 0.06215448
v 0.01076312 -0.02869405 0.06215448
v 0.01076312 -0.02869405 0.06215448
v 0.01076312 -0.02869405 0.06215448
v 0.01076312 -0.02869405 0.06215448
v 0.01076312 -0.02869405 0.06215448
v 0.00932742 0.00498256 0.06834381
v 0.00932742 0.00498256 0.06834381
v 0.00932742 0.00498256 0.06834381
v 0.00932742 0.00498256 0.06834381
v 0.01015377 -0.00280697 0.06656311
v 0.01015377 -0.00280697 0.06656311
v 0.01015377 -0.00280697 0.06656311
v 0.01015377 -0.00280697 0.06656311
v 0.01026077 -0.00126752 0.06667979
v 0.01026077 -0.00126752 0.06667979
v 0.01026077 -0.00126752 0.06667979
v 0.01026077 -0.00126752 0.06667979
v 0.01042723 0.00126416 0.06686750
v 0.01042723 0.00126416 0.06686750
v 0.01042723 0.00126416 0.06686750
v 0.01042723 0.00126416 0.06686750
v 0.01042723 0.00126416 0.06686750
v 0.01042723 0.00126416 0.06686750
v 0.01042723 0.00126416 0.06686750
v 0.01042723 0.00126416 0.06686750
v 0.01042723 0.00126416 0.06686750
v -0.00932767 0.00498256 0.06834381
v -0.00932767 0.00498256 0.06834381
v -0.00932767 0.00498256 0.06834381
v -0.00932767 0.00498256 0.06834381
v -0.01042748 0.00126416 0.06686750
v -0.01042748 0.00126416 0.06686750
v -0.01042748 0.00126416 0.06686750
v -0.01042748 0.00126416 0.06686750
v -0.01042748 0.00126416 0.06686750
v -0.01042748 0.00126416 0.06686750
v -0.01042748 0.00126416 0.06686750
v -0.01042748 0.00126416 0.06686750
v -0.01026102 -0.00126752 0.06667979
v -0.01026102 -0.00126752 0.06667979
v -0.01026102 -0.00126752 0.06667979
v -0.01026102 -0.00126752 0.06667979
v -0.01015401 -0.00281027 0.06656311
v -0.01015401 -0.00281027 0.06656311
v -0.01015401 -0.00281027 0.06656311
v -0.01015401 -0.00281027 0.06656311
v -0.01002917 -0.00449805 0.06644135
v -0.01002917 -0.00449805 0.06644135
v -0.01002917 -0.00449805 0.06644135
v -0.01002917 -0.00449805 0.06644135
v -0.01002917 -0.00449805 0.06644135
v -0.01002917 -0.00449805 0.06644135
v -0.00988649 -0.00632429 0.06630437
v -0.00988649 -0.00632429 0.06630437
v -0.00988649 -0.00632429 0.06630437
v -0.00988649 -0.00632429 0.06630437
v -0.00968139 -0.00885597 0.06611666
v -0.00968139 -0.00885597 0.06611666
v -0.00968139 -0.00885597 0.06611666
v -0.00968139 -0.00885597 0.06611666
v -0.01056421 -0.02869405 0.06235233
v -0.01056421 -0.02869405 0.06235233
v -0.01056421 -0.02869405 0.06235233
v 0.01183023 -0.02869405 0.06084052
v 0.01183023 -0.02869405 0.06084052
v 0.01183023 -0.02869405 0.06084052
v 0.01061450 0.00498256 0.06708057
v 0.01061450 0.00498256 0.06708057
v 0.01061450 0.00498256 0.06708057
v 0.01163404 0.00126416 0.06525929
v 0.01163404 0.00126416 0.06525929
v 0.01163404 0.00126416 0.06525929
v 0.01163404 0.00126416 0.06525929
v 0.01163404 0.00126416 0.06525929
v 0.01163404 0.00126416 0.06525929
v 0.01131897 0.00498256 0.06614203
v 0.01131897 0.00498256 0.06614203
v 0.01131897 0.00498256 0.06614203
v 0.01131897 0.00498256 0.06614203
v 0.01202938 -0.02869405 0.06058685
v 0.01202938 -0.02869405 0.06058685
v 0.01202938 -0.02869405 0.06058685
v 0.01202938 -0.02869405 0.06058685
v 0.01202938 -0.02869405 0.06058685
v -0.01002917 0.00498256 0.06767414
v -0.01002917 0.00498256 0.06767414
v -0.01002917 0.00498256 0.06767414
v -0.01061474 0.00498256 0.06708057
v -0.01061474 0.00498256 0.06708057
v -0.01061474 0.00498256 0.06708057
v -0.01061474 0.00498256 0.06708057
v -0.01163429 0.00126416 0.06525929
v -0.01163429 0.00126416 0.06525929
v -0.01163429 0.00126416 0.06525929
v -0.01163429 0.00126416 0.06525929
v -0.01163429 0.00126416 0.06525929
v -0.01163429 0.00126416 0.06525929
v -0.01202963 -0.02869405 0.06058685
v -0.01202963 -0.02869405 0.06058685
v -0.01202963 -0.02869405 0.06058685
v -0.01202963 -0.02869405 0.06058685
v -0.01202963 -0.02869405 0.06058685
v -0.01076337 -0.02869405 0.06215448
v -0.01076337 -0.02869405 0.06215448
v -0.01076337 -0.02869405 0.06215448
v -0.01076337 -0.02869405 0.06215448
v -0.01076337 -0.02869405 0.06215448
v -0.01076337 -0.02869405 0.06215448
v 0.01259117 0.00126416 0.06388444
v 0.01259117 0.00126416 0.06388444
v 0.01259117 0.00126416 0.06388444
v 0.01259117 0.00126416 0.06388444
v 0.01264171 0.00258933 0.06399098
v 0.01264171 0.00258933 0.06399098
v 0.01264171 0.00258933 0.06399098
v 0.01264171 0.00258933 0.06399098
v 0.01264171 0.00258933 0.06399098
v 0.01264171 0.00258933 0.06399098
v 0.01264171 0.00258933 0.06399098
v 0.01264171 0.00258933 0.06399098
v 0.01196696 0.00498256 0.06526943
v 0.01196696 0.00498256 0.06526943
v 0.01196696 0.00498256 0.06526943
v 0.01196696 0.00498256 0.06526943
v 0.01287653 -0.02869405 0.05931855
v 0.01287653 -0.02869405 0.05931855
v 0.01287653 -0.02869405 0.05931855
v 0.01287653 -0.02869405 0.05931855
v -0.01196721 0.00498256 0.06527451
v -0.01196721 0.00498256 0.06527451
v -0.01196721 0.00498256 0.06527451
v -0.01196721 0.00498256 0.06527451
v -0.01264195 0.00257944 0.06399098
v -0.01264195 0.00257944 0.06399098
v -0.01264195 0.00257944 0.06399098
v -0.01264195 0.00257944 0.06399098
v -0.01264195 0.00257944 0.06399098
v -0.01264195 0.00257944 0.06399098
v -0.01264195 0.00257944 0.06399098
v -0.01264195 0.00257944 0.06399098
v -0.01259142 0.00126416 0.06388444
v -0.01259142 0.00126416 0.06388444
v -0.01259142 0.00126416 0.06388444
v -0.01259142 0.00126416 0.06388444
v -0.01275193 -0.02869405 0.05952148
v -0.01275193 -0.02869405 0.05952148
v -0.01275193 -0.02869405 0.05952148
v -0.01275193 -0.02869405 0.05952148
v 0.01351263 -0.02869405 0.05792849
v 0.01351263 -0.02869405 0.05792849
v 0.01351263 -0.02869405 0.05792849
v 0.01362559 -0.02869405 0.05767482
v 0.01362559 -0.02869405 0.05767482
v 0.01362559 -0.02869405 0.05767482
v 0.01362559 -0.02869405 0.05767482
v 0.01362559 -0.02869405 0.05767482
v 0.01362559 -0.02869405 0.05767482
v 0.01293895 0.00498256 0.06361049
v 0.01293895 0.00498256 0.06361049
v 0.01293895 0.00498256 0.06361049
v 0.01293895 0.00498256 0.06361049
v 0.01293895 0.00498256 0.06361049
v 0.01271602 0.00498256 0.06412289
v 0.01271602 0.00498256 0.06412289
v 0.01271602 0.00498256 0.06412289
v -0.01243983 0.00498256 0.06456426
v -0.01243983 0.00498256 0.06456426
v -0.01243983 0.00498256 0.06456426
v -0.01271924 0.00498256 0.06412796
v -0.01271924 0.00498256 0.06412796
v -0.01271924 0.00498256 0.06412796
v -0.01271924 0.00498256 0.06412796
v -0.01271924 0.00498256 0.06412796
v -0.01362583 -0.02869405 0.05767482
v -0.01362583 -0.02869405 0.05767482
v -0.01362583 -0.02869405 0.05767482
v -0.01362583 -0.02869405 0.05767482
v -0.01362583 -0.02869405 0.05767482
v -0.01362583 -0.02869405 0.05767482
v -0.01287975 -0.02869405 0.05932362
v -0.01287975 -0.02869405 0.05932362
v -0.01287975 -0.02869405 0.05932362
v 0.01430331 -0.02869405 0.05553900
v 0.01430331 -0.02869405 0.05553900
v 0.01430331 -0.02869405 0.05553900
v 0.01396742 0.00126416 0.06020129
v 0.01396742 0.00126416 0.06020129
v 0.01396742 0.00126416 0.06020129
v 0.01396742 0.00126416 0.06020129
v 0.01396742 0.00126416 0.06020129
v 0.01396742 0.00126416 0.06020129
v 0.01396742 0.00126416 0.06020129
v 0.01312324 0.00357497 0.06298141
v 0.01312324 0.00357497 0.06298141
v 0.01312324 0.00357497 0.06298141
v 0.01312324 0.00357497 0.06298141
v 0.01321539 0.00498256 0.06285458
v 0.01321539 0.00498256 0.06285458
v 0.01321539 0.00498256 0.06285458
v 0.01321539 0.00498256 0.06285458
v -0.01321861 0.00498256 0.06285458
v -0.01321861 0.00498256 0.06285458
v -0.01321861 0.00498256 0.06285458
v -0.01321861 0.00498256 0.06285458
v -0.01321861 0.00498256 0.06285458
v -0.01312349 0.00357168 0.06298141
v -0.01312349 0.00357168 0.06298141
v -0.01312349 0.00357168 0.06298141
v -0.01312349 0.00357168 0.06298141
v -0.01396767 0.00126416 0.06020129
v -0.01396767 0.00126416 0.06020129
v -0.01396767 0.00126416 0.06020129
v -0.01396767 0.00126416 0.06020129
v -0.01396767 0.00126416 0.06020129
v -0.01441948 -0.02869405 0.05514328
v -0.01441948 -0.02869405 0.05514328
v -0.01441948 -0.02869405 0.05514328
v -0.01441948 -0.02869405 0.05514328
v -0.01441948 -0.02869405 0.05514328
v 0.01442220 -0.02869405 0.05514328
v 0.01442220 -0.02869405 0.05514328
v 0.01442220 -0.02869405 0.05514328
v 0.01442220 -0.02869405 0.05514328
v 0.01442220 -0.02869405 0.05514328
v 0.01404767 0.00379254 0.06020129
v 0.01404767 0.00379254 0.06020129
v 0.01404767 0.00379254 0.06020129
v 0.01404767 0.00379254 0.06020129
v 0.01404767 0.00379254 0.06020129
v 0.01404767 0.00379254 0.06020129
v 0.01404767 0.00379254 0.06020129
v 0.01369990 0.00498256 0.06138842
v 0.01369990 0.00498256 0.06138842
v 0.01369990 0.00498256 0.06138842
v 0.01369990 0.00498256 0.06138842
v -0.01403603 0.00498256 0.06020129
v -0.01403603 0.00498256 0.06020129
v -0.01403603 0.00498256 0.06020129
v -0.01404792 0.00379254 0.06020129
v -0.01404792 0.00379254 0.06020129
v -0.01404792 0.00379254 0.06020129
v -0.01404792 0.00379254 0.06020129
v -0.01404792 0.00379254 0.06020129
v -0.01404792 0.00379254 0.06020129
v -0.01404792 0.00379254 0.06020129
v -0.01404792 0.00379254 0.06020129
v -0.01445515 0.00126416 0.05767482
v -0.01445515 0.00126416 0.05767482
v -0.01445515 0.00126416 0.05767482
v -0.01445515 0.00126416 0.05767482
v -0.01483562 -0.02869405 0.05261175
v -0.01483562 -0.02869405 0.05261175
v -0.01483562 -0.02869405 0.05261175
v -0.01483562 -0.02869405 0.05261175
v -0.01483562 -0.02869405 0.05261175
v -0.01483562 -0.02869405 0.05261175
v 0.01445490 0.00126416 0.05767482
v 0.01445490 0.00126416 0.05767482
v 0.01445490 0.00126416 0.05767482
v 0.01445490 0.00126416 0.05767482
v 0.01477890 -0.02869405 0.05300746
v 0.01477890 -0.02869405 0.05300746
v 0.01477890 -0.02869405 0.05300746
v 0.01477890 -0.02869405 0.05300746
v 0.01403578 0.00498256 0.06020129
v 0.01403578 0.00498256 0.06020129
v 0.01403578 0.00498256 0.06020129
v 0.01449057 0.00379254 0.05767482
v 0.01449057 0.00379254 0.05767482
v 0.01449057 0.00379254 0.05767482
v 0.01449057 0.00379254 0.05767482
v 0.01449057 0.00379254 0.05767482
v 0.01449057 0.00379254 0.05767482
v 0.01449057 0.00498256 0.05767482
v 0.01449057 0.00498256 0.05767482
v 0.01449057 0.00498256 0.05767482
v 0.01449057 0.00498256 0.05767482
v -0.01425599 0.00498256 0.05901415
v -0.01425599 0.00498256 0.05901415
v -0.01425599 0.00498256 0.05901415
v -0.01449082 0.00498256 0.05767482
v -0.01449082 0.00498256 0.05767482
v -0.01449082 0.00498256 0.05767482
v -0.01449082 0.00498256 0.05767482
v -0.01449082 0.00379254 0.05767482
v -0.01449082 0.00379254 0.05767482
v -0.01449082 0.00379254 0.05767482
v -0.01449082 0.00379254 0.05767482
v -0.01449082 0.00379254 0.05767482
v -0.01473159 0.00498256 0.05514328
v -0.01473159 0.00498256 0.05514328
v -0.01473159 0.00498256 0.05514328
v -0.01473159 0.00498256 0.05514328
v -0.01502586 -0.02869405 0.05018675
v -0.01502586 -0.02869405 0.05018675
v -0.01502586 -0.02869405 0.05018675
v -0.01502586 -0.02869405 0.05018675
v -0.01460674 0.00498256 0.05648262
v -0.01460674 0.00498256 0.05648262
v -0.01460674 0.00498256 0.05648262
v -0.01460674 0.00498256 0.05648262
v 0.01483537 -0.02869405 0.05261175
v 0.01483537 -0.02869405 0.05261175
v 0.01483537 -0.02869405 0.05261175
v 0.01483537 -0.02869405 0.05261175
v 0.01473134 0.00498256 0.05514328
v 0.01473134 0.00498256 0.05514328
v 0.01473134 0.00498256 0.05514328
v 0.01473134 0.00498256 0.05514328
v 0.01473134 0.00498256 0.05514328
v 0.01473134 0.00498256 0.05514328
v -0.01482968 0.00498256 0.05261175
v -0.01482968 0.00498256 0.05261175
v -0.01482968 0.00498256 0.05261175
v -0.01482968 0.00498256 0.05261175
v -0.01482968 0.00498256 0.05261175
v -0.01482968 0.00498256 0.05261175
v -0.01504072 -0.02869405 0.04972002
v -0.01504072 -0.02869405 0.04972002
v -0.01504072 -0.02869405 0.04972002
v 0.01499291 -0.02869405 0.05064334
v 0.01499291 -0.02869405 0.05064334
v 0.01499291 -0.02869405 0.05064334
v 0.01502264 -0.02869405 0.05017153
v 0.01502264 -0.02869405 0.05017153
v 0.01502264 -0.02869405 0.05017153
v 0.01502264 -0.02869405 0.05017153
v 0.01502264 -0.02869405 0.05017153
v 0.01478484 0.00498256 0.05380396
v 0.01478484 0.00498256 0.05380396
v 0.01478484 0.00498256 0.05380396
v -0.01510314 -0.02869405 0.04755375
v -0.01510314 -0.02869405 0.04755375
v -0.01510314 -0.02869405 0.04755375
v -0.01487426 0.00498256 0.05008529
v -0.01487426 0.00498256 0.05008529
v -0.01487426 0.00498256 0.05008529
v -0.01487426 0.00498256 0.05008529
v -0.01487426 0.00498256 0.05008529
v -0.01515367 -0.02869405 0.04502728
v -0.01515367 -0.02869405 0.04502728
v -0.01515367 -0.02869405 0.04502728
v -0.01515367 -0.02869405 0.04502728
v 0.01482943 0.00498256 0.05261175
v 0.01482943 0.00498256 0.05261175
v 0.01482943 0.00498256 0.05261175
v 0.01482943 0.00498256 0.05261175
v 0.01482943 0.00498256 0.05261175
v 0.01482943 0.00498256 0.05261175
v 0.01509992 -0.02869405 0.04755375
v 0.01509992 -0.02869405 0.04755375
v 0.01509992 -0.02869405 0.04755375
v -0.01488615 0.00498256 0.04755375
v -0.01488615 0.00498256 0.04755375
v -0.01488615 0.00498256 0.04755375
v -0.01488615 0.00498256 0.04755375
v -0.01488615 0.00498256 0.04755375
v -0.01488615 0.00498256 0.04755375
v -0.01488615 0.00498256 0.04755375
v -0.01488615 0.00498256 0.04755375
v -0.01517745 -0.02869405 0.04250082
v -0.01517745 -0.02869405 0.04250082
v -0.01517745 -0.02869405 0.04250082
v -0.01517745 -0.02869405 0.04250082
v -0.01517151 -0.02869405 0.04331761
v -0.01517151 -0.02869405 0.04331761
v -0.01517151 -0.02869405 0.04331761
v 0.01510884 -0.02869405 0.04720877
v 0.01510884 -0.02869405 0.04720877
v 0.01510884 -0.02869405 0.04720877
v 0.01515640 -0.02869405 0.04502728
v 0.01515640 -0.02869405 0.04502728
v 0.01515640 -0.02869405 0.04502728
v 0.01515640 -0.02869405 0.04502728
v 0.01515640 -0.02869405 0.04502728
v 0.01485321 0.00498256 0.05127242
v 0.01485321 0.00498256 0.05127242
v 0.01485321 0.00498256 0.05127242
v -0.01466916 0.00498256 0.04502728
v -0.01466916 0.00498256 0.04502728
v -0.01466916 0.00498256 0.04502728
v -0.01466916 0.00498256 0.04502728
v -0.01466916 0.00498256 0.04502728
v -0.01477320 0.00379254 0.04502728
v -0.01477320 0.00379254 0.04502728
v -0.01477320 0.00379254 0.04502728
v -0.01475536 -0.00632429 0.03491128
v -0.01475536 -0.00632429 0.03491128
v -0.01475536 -0.00632429 0.03491128
v -0.01475536 -0.00632429 0.03491128
v -0.01475536 -0.00632429 0.03491128
v -0.01475536 -0.00632429 0.03491128
v -0.01475536 -0.00632429 0.03491128
v -0.01475536 -0.00632429 0.03491128
v -0.01475536 -0.00632429 0.03491128
v -0.01489507 -0.00632429 0.03744282
v -0.01489507 -0.00632429 0.03744282
v -0.01489507 -0.00632429 0.03744282
v -0.01489507 -0.00632429 0.03744282
v -0.01489507 -0.00632429 0.03744282
v -0.01489507 -0.00632429 0.03744282
v -0.01518042 -0.02869405 0.03996928
v -0.01518042 -0.02869405 0.03996928
v -0.01518042 -0.02869405 0.03996928
v -0.01518042 -0.02869405 0.03996928
v -0.01518340 -0.02869405 0.04085710
v -0.01518340 -0.02869405 0.04085710
v -0.01518340 -0.02869405 0.04085710
v 0.01487402 0.00498256 0.05008529
v 0.01487402 0.00498256 0.05008529
v 0.01487402 0.00498256 0.05008529
v 0.01487402 0.00498256 0.05008529
v 0.01518018 -0.02869405 0.04250082
v 0.01518018 -0.02869405 0.04250082
v 0.01518018 -0.02869405 0.04250082
v 0.01518018 -0.02869405 0.04250082
v 0.01518018 -0.02869405 0.04250082
v -0.01375662 0.00498256 0.04239429
v -0.01375662 0.00498256 0.04239429
v -0.01375662 0.00498256 0.04239429
v -0.01375662 0.00498256 0.04239429
v -0.01418763 -0.00379591 0.03491128
v -0.01418763 -0.00379591 0.03491128
v -0.01418763 -0.00379591 0.03491128
v -0.01418763 -0.00379591 0.03491128
v -0.01418763 -0.00379591 0.03491128
v -0.01400036 -0.00632429 0.03237975
v -0.01400036 -0.00632429 0.03237975
v -0.01400036 -0.00632429 0.03237975
v -0.01400036 -0.00632429 0.03237975
v -0.01400036 -0.00632429 0.03237975
v -0.01400036 -0.00632429 0.03237975
v -0.01400036 -0.00632429 0.03237975
v -0.01394686 -0.02869405 0.02982792
v -0.01394686 -0.02869405 0.02982792
v -0.01394686 -0.02869405 0.02982792
v -0.01394686 -0.02869405 0.02982792
v -0.01464241 -0.02869405 0.03237975
v -0.01464241 -0.02869405 0.03237975
v -0.01464241 -0.02869405 0.03237975
v -0.01499911 -0.02869405 0.03482504
v -0.01499911 -0.02869405 0.03482504
v -0.01499911 -0.02869405 0.03482504
v -0.01499911 -0.02869405 0.03482504
v -0.01513881 -0.02869405 0.03744282
v -0.01513881 -0.02869405 0.03744282
v -0.01513881 -0.02869405 0.03744282
v -0.01515070 -0.02869405 0.03807697
v -0.01515070 -0.02869405 0.03807697
v -0.01515070 -0.02869405 0.03807697
v 0.01488293 0.00498256 0.04874088
v 0.01488293 0.00498256 0.04874088
v 0.01488293 0.00498256 0.04874088
v 0.01518315 -0.02869405 0.03996928
v 0.01518315 -0.02869405 0.03996928
v 0.01518315 -0.02869405 0.03996928
v 0.01518315 -0.02869405 0.03996928
v 0.01488591 0.00498256 0.04755375
v 0.01488591 0.00498256 0.04755375
v 0.01488591 0.00498256 0.04755375
v 0.01488591 0.00498256 0.04755375
v 0.01488591 0.00498256 0.04755375
v -0.01100413 0.00498256 0.03668184
v -0.01100413 0.00498256 0.03668184
v -0.01100413 0.00498256 0.03668184
v -0.01318888 -0.00393106 0.03251672
v -0.01318888 -0.00393106 0.03251672
v -0.01318888 -0.00393106 0.03251672
v -0.01318888 -0.00393106 0.03251672
v -0.01318888 -0.00393106 0.03251672
v -0.01318888 -0.00393106 0.03251672
v -0.01278463 -0.00486066 0.03095925
v -0.01278463 -0.00486066 0.03095925
v -0.01278463 -0.00486066 0.03095925
v -0.01278463 -0.00486066 0.03095925
v -0.01278463 -0.00486066 0.03095925
v -0.01278463 -0.00486066 0.03095925
v -0.01278463 -0.00486066 0.03095925
v -0.01278463 -0.00486066 0.03095925
v -0.01278463 -0.00486066 0.03095925
v -0.01278463 -0.00486066 0.03095925
v -0.01278463 -0.00486066 0.03095925
v -0.01301351 -0.00632429 0.03068529
v -0.01301351 -0.00632429 0.03068529
v -0.01301351 -0.00632429 0.03068529
v -0.01301351 -0.00632429 0.03068529
v -0.01301351 -0.00632429 0.03068529
v -0.01301351 -0.00632429 0.03068529
v -0.01301351 -0.00632429 0.03068529
v -0.01301351 -0.00632429 0.03068529
v -0.01303432 -0.02869405 0.02758048
v -0.01303432 -0.02869405 0.02758048
v -0.01303432 -0.02869405 0.02758048
v -0.01303432 -0.02869405 0.02758048
v 0.01513856 -0.02869405 0.03744282
v 0.01513856 -0.02869405 0.03744282
v 0.01513856 -0.02869405 0.03744282
v 0.01489482 -0.00632429 0.03744282
v 0.01489482 -0.00632429 0.03744282
v 0.01489482 -0.00632429 0.03744282
v 0.01489482 -0.00632429 0.03744282
v 0.01489482 -0.00632429 0.03744282
v 0.01489482 -0.00632429 0.03744282
v 0.01489482 -0.00632429 0.03744282
v 0.01482348 0.00498256 0.04621442
v 0.01482348 0.00498256 0.04621442
v 0.01482348 0.00498256 0.04621442
v 0.01482348 0.00498256 0.04621442
v -0.01045126 0.00498256 0.03558095
v -0.01045126 0.00498256 0.03558095
v -0.01045126 0.00498256 0.03558095
v -0.01045126 0.00498256 0.03558095
v -0.01005889 0.00498256 0.03491128
v -0.01005889 0.00498256 0.03491128
v -0.01005889 0.00498256 0.03491128
v -0.00968734 0.00498256 0.03431772
v -0.00968734 0.00498256 0.03431772
v -0.00968734 0.00498256 0.03431772
v -0.00909285 0.00498256 0.03352122
v -0.00909285 0.00498256 0.03352122
v -0.00909285 0.00498256 0.03352122
v -0.00832893 0.00498256 0.03257760
v -0.00832893 0.00498256 0.03257760
v -0.00832893 0.00498256 0.03257760
v -0.00757393 0.00498256 0.03185213
v -0.00757393 0.00498256 0.03185213
v -0.00757393 0.00498256 0.03185213
v -0.00712509 0.00498256 0.03144120
v -0.00712509 0.00498256 0.03144120
v -0.00712509 0.00498256 0.03144120
v -0.00712509 0.00498256 0.03144120
v -0.00712509 0.00498256 0.03144120
v -0.01128057 -0.00624517 0.02930537
v -0.01128057 -0.00624517 0.02930537
v -0.01128057 -0.00624517 0.02930537
v -0.01128057 -0.00624517 0.02930537
v -0.01128057 -0.00624517 0.02930537
v -0.01128057 -0.00624517 0.02930537
v -0.00916419 -0.02869405 0.02325810
v -0.00916419 -0.02869405 0.02325810
v -0.00916419 -0.02869405 0.02325810
v -0.00916419 -0.02869405 0.02325810
v -0.00916419 -0.02869405 0.02325810
v -0.01118545 -0.02869405 0.02504894
v -0.01118545 -0.02869405 0.02504894
v -0.01118545 -0.02869405 0.02504894
v -0.01202666 -0.02869405 0.02603822
v -0.01202666 -0.02869405 0.02603822
v -0.01202666 -0.02869405 0.02603822
v -0.01254089 -0.02869405 0.02677384
v -0.01254089 -0.02869405 0.02677384
v -0.01254089 -0.02869405 0.02677384
v 0.01512667 -0.02869405 0.03710799
v 0.01512667 -0.02869405 0.03710799
v 0.01512667 -0.02869405 0.03710799
v 0.01503750 -0.02869405 0.03523597
v 0.01503750 -0.02869405 0.03523597
v 0.01503750 -0.02869405 0.03523597
v 0.01503750 -0.02869405 0.03523597
v 0.01475809 -0.00632429 0.03491128
v 0.01475809 -0.00632429 0.03491128
v 0.01475809 -0.00632429 0.03491128
v 0.01475809 -0.00632429 0.03491128
v 0.01475809 -0.00632429 0.03491128
v 0.01475809 -0.00632429 0.03491128
v 0.01475809 -0.00632429 0.03491128
v 0.01475809 -0.00632429 0.03491128
v 0.01475809 -0.00632429 0.03491128
v 0.01475809 -0.00632429 0.03491128
v 0.01466892 0.00498256 0.04502728
v 0.01466892 0.00498256 0.04502728
v 0.01466892 0.00498256 0.04502728
v 0.01466892 0.00498256 0.04502728
v -0.00671489 0.00498256 0.03118754
v -0.00671489 0.00498256 0.03118754
v -0.00671489 0.00498256 0.03118754
v -0.00977057 -0.00535183 0.02867630
v -0.00977057 -0.00535183 0.02867630
v -0.00977057 -0.00535183 0.02867630
v -0.00977057 -0.00535183 0.02867630
v -0.00977057 -0.00535183 0.02867630
v -0.00977057 -0.00535183 0.02867630
v -0.00977057 -0.00535183 0.02867630
v -0.01037100 -0.00703632 0.02844800
v -0.01037100 -0.00703632 0.02844800
v -0.01037100 -0.00703632 0.02844800
v -0.01037100 -0.00703632 0.02844800
v -0.01037100 -0.00703632 0.02844800
v -0.01037100 -0.00703632 0.02844800
v -0.01037100 -0.00703632 0.02844800
v -0.00837352 -0.02869405 0.02277107
v -0.00837352 -0.02869405 0.02277107
v -0.00837352 -0.02869405 0.02277107
v 0.01500480 -0.02869405 0.03480475
v 0.01500480 -0.02869405 0.03480475
v 0.01500480 -0.02869405 0.03480475
v 0.01472539 -0.02869405 0.03277546
v 0.01472539 -0.02869405 0.03277546
v 0.01472539 -0.02869405 0.03277546
v 0.01465108 -0.02869405 0.03237975
v 0.01465108 -0.02869405 0.03237975
v 0.01465108 -0.02869405 0.03237975
v 0.01410415 -0.02869405 0.03024899
v 0.01410415 -0.02869405 0.03024899
v 0.01410415 -0.02869405 0.03024899
v 0.01410415 -0.02869405 0.03024899
v 0.01400606 -0.00632429 0.03237975
v 0.01400606 -0.00632429 0.03237975
v 0.01400606 -0.00632429 0.03237975
v 0.01400606 -0.00632429 0.03237975
v 0.01400606 -0.00632429 0.03237975
v 0.01400606 -0.00632429 0.03237975
v 0.01400606 -0.00632429 0.03237975
v 0.01400606 -0.00632429 0.03237975
v 0.01400606 -0.00632429 0.03237975
v 0.01419035 -0.00379591 0.03491128
v 0.01419035 -0.00379591 0.03491128
v 0.01419035 -0.00379591 0.03491128
v 0.01419035 -0.00379591 0.03491128
v 0.01419035 -0.00379591 0.03491128
v 0.01419035 -0.00379591 0.03491128
v 0.01428547 0.00498256 0.04368795
v 0.01428547 0.00498256 0.04368795
v 0.01428547 0.00498256 0.04368795
v -0.00598961 0.00498256 0.03076646
v -0.00598961 0.00498256 0.03076646
v -0.00598961 0.00498256 0.03076646
v -0.00464904 0.00498256 0.03041134
v -0.00464904 0.00498256 0.03041134
v -0.00464904 0.00498256 0.03041134
v -0.00464904 0.00498256 0.03041134
v -0.00464904 0.00498256 0.03041134
v -0.00372163 -0.02869405 0.02066061
v -0.00372163 -0.02869405 0.02066061
v -0.00372163 -0.02869405 0.02066061
v -0.00372163 -0.02869405 0.02066061
v -0.00372163 -0.02869405 0.02066061
v -0.00623038 -0.02869405 0.02171076
v -0.00623038 -0.02869405 0.02171076
v -0.00623038 -0.02869405 0.02171076
v -0.00632252 -0.02869405 0.02175135
v -0.00632252 -0.02869405 0.02175135
v -0.00632252 -0.02869405 0.02175135
v 0.01395553 -0.02869405 0.02982792
v 0.01395553 -0.02869405 0.02982792
v 0.01395553 -0.02869405 0.02982792
v 0.01278438 -0.00486726 0.03096432
v 0.01278438 -0.00486726 0.03096432
v 0.01278438 -0.00486726 0.03096432
v 0.01278438 -0.00486726 0.03096432
v 0.01278438 -0.00486726 0.03096432
v 0.01278438 -0.00486726 0.03096432
v 0.01278438 -0.00486726 0.03096432
v 0.01278438 -0.00486726 0.03096432
v 0.01318864 -0.00393106 0.03252180
v 0.01318864 -0.00393106 0.03252180
v 0.01318864 -0.00393106 0.03252180
v 0.01318864 -0.00393106 0.03252180
v 0.01318864 -0.00393106 0.03252180
v 0.01318864 -0.00393106 0.03252180
v 0.01313810 -0.02869405 0.02780370
v 0.01313810 -0.02869405 0.02780370
v 0.01313810 -0.02869405 0.02780370
v 0.01303407 -0.02869405 0.02758048
v 0.01303407 -0.02869405 0.02758048
v 0.01303407 -0.02869405 0.02758048
v 0.01303407 -0.02869405 0.02758048
v 0.01301326 -0.00632429 0.03068529
v 0.01301326 -0.00632429 0.03068529
v 0.01301326 -0.00632429 0.03068529
v 0.01301326 -0.00632429 0.03068529
v 0.01301326 -0.00632429 0.03068529
v 0.01301326 -0.00632429 0.03068529
v 0.01301326 -0.00632429 0.03068529
v 0.01301326 -0.00632429 0.03068529
v 0.01301326 -0.00632429 0.03068529
v 0.01375638 0.00498256 0.04239429
v 0.01375638 0.00498256 0.04239429
v 0.01375638 0.00498256 0.04239429
v 0.01375638 0.00498256 0.04239429
v -0.00379297 0.00498256 0.03023885
v -0.00379297 0.00498256 0.03023885
v -0.00379297 0.00498256 0.03023885
v -0.00379297 0.00498256 0.03023885
v -0.00131395 -0.02869405 0.02010763
v -0.00131395 -0.02869405 0.02010763
v -0.00131395 -0.02869405 0.02010763
v -0.00131395 -0.02869405 0.02010763
v 0.00712781 0.00498256 0.03144627
v 0.00712781 0.00498256 0.03144627
v 0.00712781 0.00498256 0.03144627
v 0.00712781 0.00498256 0.03144627
v 0.00712781 0.00498256 0.03144627
v 0.00832868 0.00498256 0.03257760
v 0.00832868 0.00498256 0.03257760
v 0.00832868 0.00498256 0.03257760
v 0.00968709 0.00498256 0.03431772
v 0.00968709 0.00498256 0.03431772
v 0.00968709 0.00498256 0.03431772
v 0.01045398 0.00498256 0.03558095
v 0.01045398 0.00498256 0.03558095
v 0.01045398 0.00498256 0.03558095
v 0.01045398 0.00498256 0.03558095
v 0.01128330 -0.00628143 0.02932060
v 0.01128330 -0.00628143 0.02932060
v 0.01128330 -0.00628143 0.02932060
v 0.01128330 -0.00628143 0.02932060
v 0.01128330 -0.00628143 0.02932060
v 0.01128330 -0.00628143 0.02932060
v 0.01137544 0.00498256 0.03744282
v 0.01137544 0.00498256 0.03744282
v 0.01137544 0.00498256 0.03744282
v 0.01235932 -0.02869405 0.02645422
v 0.01235932 -0.02869405 0.02645422
v 0.01235932 -0.02869405 0.02645422
v 0.01203830 -0.02869405 0.02606359
v 0.01203830 -0.02869405 0.02606359
v 0.01203830 -0.02869405 0.02606359
v 0.01140517 -0.02869405 0.02530260
v 0.01140517 -0.02869405 0.02530260
v 0.01140517 -0.02869405 0.02530260
v 0.01118223 -0.02869405 0.02505402
v 0.01118223 -0.02869405 0.02505402
v 0.01118223 -0.02869405 0.02505402
v 0.00976437 -0.02869405 0.02369439
v 0.00976437 -0.02869405 0.02369439
v 0.00976437 -0.02869405 0.02369439
v 0.00976437 -0.02869405 0.02369439
v 0.00976437 -0.02869405 0.02369439
v -0.00126342 0.00498256 0.03015768
v -0.00126342 0.00498256 0.03015768
v -0.00126342 0.00498256 0.03015768
v -0.00126342 0.00498256 0.03015768
v -0.00110885 -0.02869405 0.02008226
v -0.00110885 -0.02869405 0.02008226
v -0.00110885 -0.02869405 0.02008226
v -0.00110885 -0.02869405 0.02008226
v 0.00970790 -0.00540787 0.02869659
v 0.00970790 -0.00540787 0.02869659
v 0.00970790 -0.00540787 0.02869659
v 0.00970790 -0.00540787 0.02869659
v 0.00970790 -0.00540787 0.02869659
v 0.00599234 0.00498256 0.03076139
v 0.00599234 0.00498256 0.03076139
v 0.00599234 0.00498256 0.03076139
v 0.00599234 0.00498256 0.03076139
v 0.01037076 -0.00709236 0.02844800
v 0.01037076 -0.00709236 0.02844800
v 0.01037076 -0.00709236 0.02844800
v 0.01037076 -0.00709236 0.02844800
v 0.01037076 -0.00709236 0.02844800
v 0.01037076 -0.00709236 0.02844800
v 0.01037076 -0.00709236 0.02844800
v 0.01037076 -0.00709236 0.02844800
v 0.01037076 -0.00709236 0.02844800
v 0.00916691 -0.02869405 0.02325810
v 0.00916691 -0.02869405 0.02325810
v 0.00916691 -0.02869405 0.02325810
v 0.00126317 0.00498256 0.03015768
v 0.00126317 0.00498256 0.03015768
v 0.00126317 0.00498256 0.03015768
v 0.00120372 -0.02869405 0.02005182
v 0.00120372 -0.02869405 0.02005182
v 0.00120372 -0.02869405 0.02005182
v 0.00120372 -0.02869405 0.02005182
v 0.00120372 -0.02869405 0.02005182
v 0.00276128 -0.02869405 0.02036129
v 0.00276128 -0.02869405 0.02036129
v 0.00276128 -0.02869405 0.02036129
v 0.00276128 -0.02869405 0.02036129
v 0.00276128 -0.02869405 0.02036129
v 0.00276128 -0.02869405 0.02036129
v 0.00379272 0.00498256 0.03023377
v 0.00379272 0.00498256 0.03023377
v 0.00379272 0.00498256 0.03023377
v 0.00379272 0.00498256 0.03023377
v 0.00870915 -0.02869405 0.02292834
v 0.00870915 -0.02869405 0.02292834
v 0.00870915 -0.02869405 0.02292834
v 0.00813547 -0.02869405 0.02253770
v 0.00813547 -0.02869405 0.02253770
v 0.00813547 -0.02869405 0.02253770
v 0.00632228 -0.02869405 0.02174628
v 0.00632228 -0.02869405 0.02174628
v 0.00632228 -0.02869405 0.02174628
v 0.00371841 -0.02869405 0.02066568
v 0.00371841 -0.02869405 0.02066568
v 0.00371841 -0.02869405 0.02066568
f 3 11 42
f 3 42 127
f 3 127 162
f 3 162 259
f 3 259 311
f 3 311 386
f 3 386 471
f 3 471 520
f 3 520 593
f 3 593 638
f 3 638 632
f 3 632 678
f 3 678 712
f 3 712 709
f 3 709 749
f 3 749 786
f 3 786 827
f 3 827 850
f 3 850 864
f 3 864 873
f 3 873 897
f 3 897 894
f 3 894 938
f 3 938 935
f 3 935 980
f 3 980 977
f 3 977 974
f 3 974 970
f 3 970 967
f 3 967 1024
f 3 1024 1082
f 3 1082 1079
f 3 1079 1076
f 3 1076 1073
f 3 1073 1123
f 3 1123 1173
f 3 1173 1170
f 3 1170 1167
f 3 1167 1218
f 3 1218 1267
f 3 1267 1294
f 3 1294 1297
f 3 1297 1316
f 3 1316 1313
f 3 1313 1310
f 3 1310 1307
f 3 1307 1286
f 3 1286 1255
f 3 1255 1252
f 3 1252 1249
f 3 1249 1246
f 3 1246 1243
f 3 1243 1194
f 3 1194 1191
f 3 1191 1174
f 3 1174 1133
f 3 1133 1130
f 3 1130 1127
f 3 1127 1124
f 3 1124 1086
f 3 1086 1083
f 3 1083 1025
f 3 1025 984
f 3 984 943
f 3 943 901
f 3 901 898
f 3 898 880
f 3 880 854
f 3 854 851
f 3 851 832
f 3 832 791
f 3 791 750
f 3 750 713
f 3 713 682
f 3 682 679
f 3 679 655
f 3 655 610
f 3 610 594
f 3 594 530
f 3 530 472
f 3 472 387
f 3 387 315
f 3 315 260
f 3 260 163
f 3 163 62
f 2 61 12
f 6 13 21
f 5 18 30
f 4 23 38
f 1 37 10
f 9 31 46
f 8 43 58
f 7 57 41
f 15 63 70
f 14 67 22
f 20 65 80
f 19 79 85
f 17 84 88
f 16 87 29
f 28 86 83
f 27 82 78
f 26 77 90
f 25 89 98
f 24 95 105
f 24 105 39
f 36 103 112
f 35 111 117
f 34 116 121
f 33 120 124
f 32 123 48
f 40 55 126
f 47 122 119
f 45 118 115
f 44 114 60
f 59 113 109
f 56 107 130
f 54 128 138
f 52 137 147
f 50 142 151
f 49 150 154
f 51 155 160
f 53 161 125
f 64 164 73
f 76 171 175
f 75 173 182
f 72 178 186
f 71 185 193
f 69 192 198
f 68 196 94
f 66 92 81
f 74 165 170
f 93 195 202
f 91 199 99
f 100 200 205
f 97 204 211
f 96 210 106
f 104 208 215
f 101 214 220
f 102 221 110
f 108 218 132
f 133 219 213
f 131 212 223
f 129 222 139
f 141 224 217
f 140 216 209
f 140 209 203
f 140 203 190
f 140 190 184
f 140 184 290
f 140 290 341
f 140 341 427
f 140 427 493
f 140 493 536
f 140 536 597
f 140 597 606
f 140 606 651
f 140 651 693
f 140 693 688
f 140 688 727
f 140 727 762
f 140 762 795
f 140 795 804
f 140 804 836
f 140 836 859
f 140 859 874
f 140 874 906
f 140 906 939
f 140 939 981
f 140 981 988
f 140 988 1035
f 140 1035 1100
f 140 1100 1152
f 140 1152 1207
f 140 1207 1240
f 140 1240 1230
f 140 1230 1227
f 140 1227 1224
f 140 1224 1219
f 140 1219 1273
f 140 1273 1303
f 140 1303 1290
f 140 1290 1263
f 140 1263 1214
f 140 1214 1162
f 140 1162 1157
f 140 1157 1106
f 140 1106 1062
f 140 1062 1057
f 140 1057 1054
f 140 1054 1051
f 140 1051 1048
f 140 1048 1045
f 140 1045 1042
f 140 1042 995
f 140 995 951
f 140 951 913
f 140 913 890
f 140 890 869
f 140 869 847
f 140 847 823
f 140 823 831
f 140 831 814
f 140 814 810
f 140 810 768
f 140 768 735
f 140 735 703
f 140 703 698
f 140 698 662
f 140 662 621
f 140 621 617
f 140 617 560
f 140 560 499
f 140 499 442
f 140 442 354
f 140 354 296
f 140 296 229
f 134 228 232
f 135 233 237
f 136 238 146
f 145 236 241
f 144 240 252
f 143 250 152
f 148 248 158
f 149 159 153
f 156 254 258
f 157 246 255
f 169 261 270
f 168 268 278
f 167 276 177
f 166 176 172
f 174 274 183
f 180 283 287
f 179 286 187
f 181 272 284
f 188 289 275
f 189 277 291
f 191 207 197
f 194 206 201
f 225 295 304
f 226 305 245
f 227 247 230
f 231 249 234
f 235 251 239
f 242 301 309
f 243 310 256
f 244 257 253
f 262 313 271
f 267 316 322
f 266 321 328
f 265 326 336
f 264 335 282
f 263 281 314
f 269 312 280
f 279 332 292
f 273 288 285
f 293 333 342
f 294 353 303
f 302 352 358
f 299 355 367
f 297 366 371
f 298 372 376
f 300 377 308
f 306 382 385
f 307 375 383
f 320 388 393
f 319 392 400
f 318 398 404
f 317 402 325
f 324 401 412
f 323 411 331
f 330 410 419
f 329 418 422
f 327 420 338
f 340 421 417
f 339 416 408
f 337 407 426
f 334 423 343
f 344 424 431
f 345 433 406
f 346 409 434
f 347 435 428
f 348 441 447
f 349 448 364
f 350 368 449
f 351 451 357
f 356 450 369
f 365 374 370
f 359 445 456
f 360 457 459
f 361 461 463
f 362 465 379
f 363 381 373
f 378 464 469
f 380 470 384
f 389 473 394
f 396 474 479
f 395 478 437
f 391 436 415
f 390 414 399
f 397 413 403
f 405 432 425
f 429 439 485
f 430 486 494
f 438 480 484
f 440 498 446
f 443 497 507
f 444 509 512
f 444 512 452
f 453 513 518
f 454 519 466
f 455 467 458
f 460 468 462
f 476 524 529
f 475 528 483
f 477 531 525
f 482 527 523
f 481 521 488
f 487 537 495
f 489 522 540
f 490 541 544
f 491 545 548
f 492 549 538
f 496 559 506
f 500 558 567
f 501 568 571
f 502 572 575
f 503 576 581
f 504 582 585
f 505 586 588
f 508 590 511
f 510 589 517
f 516 587 584
f 515 583 580
f 514 579 592
f 526 532 542
f 535 595 552
f 534 551 547
f 533 546 543
f 539 550 598
f 556 601 608
f 555 607 599
f 553 596 611
f 554 612 600
f 557 616 566
f 565 615 620
f 561 619 626
f 562 627 630
f 563 631 633
f 564 634 569
f 570 635 573
f 574 636 577
f 578 637 591
f 605 640 644
f 603 643 653
f 602 652 609
f 604 613 639
f 614 656 641
f 618 661 625
f 624 660 670
f 622 669 673
f 623 674 629
f 628 672 677
f 642 657 645
f 647 658 680
f 648 681 683
f 650 684 690
f 649 689 695
f 646 694 654
f 659 697 667
f 665 696 702
f 663 701 707
f 664 708 710
f 666 711 675
f 668 676 671
f 687 714 720
f 686 716 725
f 685 723 691
f 692 724 728
f 699 734 738
f 700 739 706
f 704 741 748
f 705 737 744
f 715 751 721
f 722 752 757
f 719 755 764
f 718 763 730
f 717 729 726
f 731 767 775
f 732 776 742
f 733 743 736
f 740 774 747
f 746 772 780
f 745 778 785
f 753 787 759
f 754 792 789
f 756 796 765
f 760 788 798
f 761 799 806
f 758 805 797
f 766 809 773
f 769 808 812
f 770 813 818
f 771 819 779
f 777 817 784
f 781 821 826
f 783 815 829
f 782 828 822
f 790 793 800
f 794 833 801
f 803 834 838
f 802 837 807
f 811 830 816
f 820 846 825
f 824 845 849
f 835 852 839
f 840 853 855
f 841 856 860
f 844 863 848
f 842 868 871
f 843 872 862
f 857 875 861
f 858 881 876
f 865 884 892
f 866 893 895
f 867 896 870
f 877 882 899
f 879 900 904
f 878 903 908
f 889 909 915
f 888 914 919
f 887 918 931
f 885 926 932
f 886 933 937
f 883 936 891
f 902 940 907
f 905 945 942
f 912 948 954
f 911 952 924
f 910 920 916
f 925 953 958
f 923 957 965
f 922 964 969
f 921 968 973
f 917 972 930
f 929 971 976
f 927 975 978
f 928 979 934
f 941 944 982
f 946 987 991
f 947 992 983
f 950 993 999
f 949 998 956
f 955 996 960
f 962 997 1002
f 963 1003 1015
f 961 1013 1022
f 959 1021 966
f 985 1027 1033
f 986 1034 990
f 989 1029 1038
f 994 1039 1000
f 1001 1040 1004
f 1005 1041 1043
f 1006 1044 1046
f 1007 1047 1049
f 1008 1050 1052
f 1009 1053 1055
f 1010 1056 1058
f 1012 1059 1066
f 1011 1064 1020
f 1019 1063 1070
f 1018 1069 1075
f 1017 1074 1078
f 1016 1077 1081
f 1014 1080 1023
f 1026 1085 1032
f 1031 1084 1089
f 1030 1088 1099
f 1028 1098 1037
f 1036 1095 1103
f 1061 1104 1109
f 1060 1107 1067
f 1068 1108 1116
f 1065 1114 1071
f 1072 1115 1121
f 1087 1126 1097
f 1096 1125 1129
f 1094 1128 1132
f 1093 1131 1136
f 1092 1135 1145
f 1090 1143 1150
f 1091 1151 1102
f 1101 1149 1154
f 1105 1155 1110
f 1112 1156 1158
f 1113 1159 1165
f 1111 1164 1120
f 1119 1163 1169
f 1118 1168 1172
f 1117 1171 1122
f 1134 1176 1144
f 1138 1184 1189
f 1140 1190 1147
f 1142 1175 1193
f 1141 1192 1197
f 1139 1196 1206
f 1137 1204 1183
f 1146 1188 1209
f 1148 1210 1153
f 1161 1211 1216
f 1160 1215 1166
f 1179 1223 1225
f 1180 1226 1228
f 1181 1229 1231
f 1182 1232 1185
f 1178 1198 1237
f 1177 1236 1222
f 1186 1233 1241
f 1187 1242 1208
f 1195 1245 1205
f 1203 1244 1248
f 1202 1247 1251
f 1201 1250 1254
f 1200 1253 1259
f 1199 1258 1239
f 1213 1260 1265
f 1212 1264 1217
f 1221 1235 1272
f 1220 1270 1276
f 1238 1257 1285
f 1234 1281 1271
f 1256 1288 1284
f 1262 1289 1293
f 1261 1292 1266
f 1269 1277 1301
f 1268 1300 1275
f 1274 1299 1306
f 1283 1287 1309
f 1282 1308 1312
f 1280 1311 1315
f 1279 1314 1318
f 1278 1317 1302
f 1291 1304 1295
f 1296 1305 1298

