# https://github.com/mikedh/trimesh
v -0.01438464 -0.03252151 0.05658562
v -0.01438464 -0.03252151 0.05658562
v -0.01438464 -0.03252151 0.05658562
v -0.02926618 -0.03262211 0.05658562
v -0.02926618 -0.03262211 0.05658562
v -0.02926618 -0.03262211 0.05658562
v -0.02926618 -0.03262211 0.05658562
v -0.02926618 -0.03262211 0.05658562
v -0.02926618 -0.03262211 0.05658562
v -0.02926618 -0.03262211 0.05658562
v -0.02926618 -0.03262211 0.05658562
v -0.02926618 -0.03262211 0.05658562
v -0.02926618 -0.03262211 0.05658562
v -0.01438464 -0.03238067 0.04552347
v -0.01438464 -0.03238067 0.04552347
v -0.01438464 -0.03238067 0.04552347
v -0.01438464 -0.03238067 0.04552347
v -0.01438464 -0.03238067 0.04552347
v -0.01438464 -0.03211241 0.06765535
v -0.01438464 -0.03211241 0.06765535
v -0.01438464 -0.03211241 0.06765535
v -0.01438464 -0.03211241 0.06765535
v -0.01438464 -0.03211241 0.06765535
v -0.01438464 -0.03211241 0.06765535
v -0.01438464 -0.03211241 0.06765535
v -0.01438464 -0.03211241 0.06765535
v -0.03559216 -0.03258187 0.05658562
v -0.03559216 -0.03258187 0.05658562
v -0.03559216 -0.03258187 0.05658562
v -0.03559216 -0.03258187 0.05658562
v -0.04192144 -0.03234714 0.04552347
v -0.04192144 -0.03234714 0.04552347
v -0.04192144 -0.03234714 0.04552347
v -0.04192144 -0.03234714 0.04552347
v -0.04192144 -0.03234714 0.04552347
v -0.03875515 -0.03236055 0.04552347
v -0.03875515 -0.03236055 0.04552347
v -0.03875515 -0.03236055 0.04552347
v -0.01819408 -0.03238067 0.04552347
v -0.01819408 -0.03238067 0.04552347
v -0.01819408 -0.03238067 0.04552347
v -0.01503109 -0.03211241 0.06765535
v -0.01503109 -0.03211241 0.06765535
v -0.01503109 -0.03211241 0.06765535
v -0.01503109 -0.03211241 0.06765535
v -0.03242917 -0.03209900 0.06765535
v -0.03242917 -0.03209900 0.06765535
v -0.03242917 -0.03209900 0.06765535
v -0.04033829 -0.03209229 0.06765535
v -0.04033829 -0.03209229 0.06765535
v -0.04033829 -0.03209229 0.06765535
v -0.04033829 -0.03209229 0.06765535
v -0.04192144 -0.03208558 0.06765535
v -0.04192144 -0.03208558 0.06765535
v -0.04350128 -0.03207888 0.06765535
v -0.04350128 -0.03207888 0.06765535
v -0.04350128 -0.03207888 0.06765535
v -0.04350128 -0.03207888 0.06765535
v -0.04350128 -0.03207888 0.06765535
v -0.04350128 -0.03207888 0.06765535
v -0.04350128 -0.03207888 0.06765535
v -0.04350128 -0.03207888 0.06765535
v -0.01438464 0.03535582 0.04552347
v -0.01438464 0.03535582 0.04552347
v -0.01438464 0.03535582 0.04552347
v -0.01438464 0.03535582 0.04552347
v -0.01438464 0.03535582 0.04552347
v -0.01438464 -0.03185756 0.06911415
v -0.01438464 -0.03185756 0.06911415
v -0.01438464 -0.03185756 0.06911415
v -0.01438464 -0.03185756 0.06911415
v -0.01438464 -0.03185756 0.06911415
v -0.01438464 -0.03185756 0.06911415
v -0.01438464 -0.03185756 0.06911415
v -0.02926618 -0.03191121 0.06923782
v -0.02926618 -0.03191121 0.06923782
v -0.02926618 -0.03191121 0.06923782
v -0.02926618 -0.03191121 0.06923782
v -0.03084933 -0.03191792 0.06923782
v -0.03084933 -0.03191792 0.06923782
v -0.03084933 -0.03191792 0.06923782
v -0.03084933 -0.03191792 0.06923782
v -0.03084933 -0.03191792 0.06923782
v -0.04033829 -0.03192463 0.06923782
v -0.04033829 -0.03192463 0.06923782
v -0.04033829 -0.03192463 0.06923782
v -0.04033829 -0.03192463 0.06923782
v -0.03717530 -0.03256846 0.05658562
v -0.03717530 -0.03256846 0.05658562
v -0.03717530 -0.03256846 0.05658562
v -0.03717530 -0.03256846 0.05658562
v -0.03717530 -0.03256846 0.05658562
v -0.03717530 -0.03256846 0.05658562
v -0.03717530 -0.03256846 0.05658562
v -0.04350128 -0.03232031 0.04552347
v -0.04350128 -0.03232031 0.04552347
v -0.04350128 -0.03232031 0.04552347
v -0.04350128 -0.03232031 0.04552347
v -0.04350128 -0.03232031 0.04552347
v -0.04192144 -0.03192463 0.06923782
v -0.04192144 -0.03192463 0.06923782
v -0.04192144 -0.03192463 0.06923782
v -0.04192144 -0.03192463 0.06923782
v -0.04192144 -0.03192463 0.06923782
v -0.04192144 -0.03192463 0.06923782
v -0.04192144 -0.03192463 0.06923782
v -0.04192144 -0.03192463 0.06923782
v -0.04350128 -0.03191792 0.06923782
v -0.04350128 -0.03191792 0.06923782
v -0.04350128 -0.03191792 0.06923782
v -0.04350128 -0.03191792 0.06923782
v -0.04350128 -0.03191792 0.06923782
v -0.04507783 -0.03176367 0.06916211
v -0.04507783 -0.03176367 0.06916211
v -0.04507783 -0.03176367 0.06916211
v -0.04507783 -0.03176367 0.06916211
v -0.04507783 -0.03176367 0.06916211
v -0.04508442 -0.03188439 0.06765535
v -0.04508442 -0.03188439 0.06765535
v -0.04508442 -0.03188439 0.06765535
v -0.04508442 -0.03188439 0.06765535
v -0.04508442 -0.03188439 0.06765535
v -0.04508442 -0.03188439 0.06765535
v -0.04508442 -0.03188439 0.06765535
v -0.04508442 -0.03188439 0.06765535
v -0.04350128 -0.03211912 0.06607540
v -0.04350128 -0.03211912 0.06607540
v -0.04350128 -0.03211912 0.06607540
v -0.04350128 -0.03211912 0.06607540
v -0.04350128 -0.03211912 0.06607540
v -0.01503109 0.03536252 0.04552347
v -0.01503109 0.03536252 0.04552347
v -0.01503109 0.03536252 0.04552347
v -0.02768634 0.03584540 0.05658562
v -0.02768634 0.03584540 0.05658562
v -0.02768634 0.03584540 0.05658562
v -0.02768634 0.03584540 0.05658562
v -0.02768634 0.03584540 0.05658562
v -0.02768634 0.03584540 0.05658562
v -0.02768634 0.03584540 0.05658562
v -0.02768634 0.03584540 0.05658562
v -0.02768634 0.03584540 0.05658562
v -0.02768634 0.03584540 0.05658562
v -0.02610319 0.03582528 0.05658562
v -0.02610319 0.03582528 0.05658562
v -0.02610319 0.03582528 0.05658562
v -0.02610319 0.03582528 0.05658562
v -0.01438464 0.03567103 0.05658562
v -0.01438464 0.03567103 0.05658562
v -0.01438464 0.03567103 0.05658562
v -0.01438464 0.03567103 0.05658562
v -0.01438464 -0.03151552 0.06990412
v -0.01438464 -0.03151552 0.06990412
v -0.01438464 -0.03151552 0.06990412
v -0.01438464 -0.03151552 0.06990412
v -0.02483668 -0.03164966 0.07004041
v -0.02483668 -0.03164966 0.07004041
v -0.02483668 -0.03164966 0.07004041
v -0.02483668 -0.03164966 0.07004041
v -0.02483668 -0.03164966 0.07004041
v -0.02610319 -0.03166307 0.07005304
v -0.02610319 -0.03166307 0.07005304
v -0.02610319 -0.03166307 0.07005304
v -0.02610319 -0.03166307 0.07005304
v -0.02926618 -0.03168990 0.07008584
v -0.02926618 -0.03168990 0.07008584
v -0.02926618 -0.03168990 0.07008584
v -0.02926618 -0.03168990 0.07008584
v -0.02926618 -0.03168990 0.07008584
v -0.03084933 -0.03169660 0.07009594
v -0.03084933 -0.03169660 0.07009594
v -0.03084933 -0.03169660 0.07009594
v -0.03084933 -0.03169660 0.07009594
v -0.03084933 -0.03169660 0.07009594
v -0.03084933 -0.03169660 0.07009594
v -0.03084933 -0.03169660 0.07009594
v -0.04033829 -0.03171001 0.07011108
v -0.04033829 -0.03171001 0.07011108
v -0.04033829 -0.03171001 0.07011108
v -0.04033829 -0.03171001 0.07011108
v -0.04033829 -0.03171001 0.07011108
v -0.04033829 -0.03171001 0.07011108
v -0.04192144 -0.03234714 0.05816810
v -0.04192144 -0.03234714 0.05816810
v -0.04192144 -0.03234714 0.05816810
v -0.04192144 -0.03234714 0.05816810
v -0.04192144 -0.03237397 0.05658562
v -0.04192144 -0.03237397 0.05658562
v -0.04192144 -0.03237397 0.05658562
v -0.04192144 -0.03237397 0.05658562
v -0.04350128 -0.03230690 0.05658562
v -0.04350128 -0.03230690 0.05658562
v -0.04350128 -0.03230690 0.05658562
v -0.04350128 -0.03230690 0.05658562
v -0.04350128 -0.03230690 0.05658562
v -0.04350128 -0.03230690 0.05658562
v -0.04350128 -0.03230690 0.05658562
v -0.04508442 -0.03204534 0.04552347
v -0.04508442 -0.03204534 0.04552347
v -0.04508442 -0.03204534 0.04552347
v -0.04508442 -0.03204534 0.04552347
v -0.04508442 -0.03204534 0.04552347
v -0.04192144 -0.03171001 0.07011108
v -0.04192144 -0.03171001 0.07011108
v -0.04192144 -0.03171001 0.07011108
v -0.04192144 -0.03171001 0.07011108
v -0.04350128 -0.03171001 0.07010604
v -0.04350128 -0.03171001 0.07010604
v -0.04350128 -0.03171001 0.07010604
v -0.04350128 -0.03171001 0.07010604
v -0.04350128 -0.03171001 0.07010604
v -0.04454681 -0.03168319 0.07008332
v -0.04454681 -0.03168319 0.07008332
v -0.04454681 -0.03168319 0.07008332
v -0.04454681 -0.03168319 0.07008332
v -0.04454681 -0.03168319 0.07008332
v -0.04454681 -0.03168319 0.07008332
v -0.04454681 -0.03168319 0.07008332
v -0.04454681 -0.03168319 0.07008332
v -0.04589578 -0.03165636 0.06858666
v -0.04589578 -0.03165636 0.06858666
v -0.04589578 -0.03165636 0.06858666
v -0.04589578 -0.03165636 0.06858666
v -0.04589578 -0.03165636 0.06858666
v -0.04589578 -0.03165636 0.06858666
v -0.04589578 -0.03165636 0.06858666
v -0.04589578 -0.03165636 0.06858666
v -0.04589578 -0.03165636 0.06858666
v -0.04508442 -0.03193133 0.06291046
v -0.04508442 -0.03193133 0.06291046
v -0.04508442 -0.03193133 0.06291046
v -0.04508442 -0.03193133 0.06291046
v -0.04350128 -0.03228007 0.05816810
v -0.04350128 -0.03228007 0.05816810
v -0.04350128 -0.03228007 0.05816810
v -0.04350128 -0.03228007 0.05816810
v -0.04590567 -0.03166307 0.06765535
v -0.04590567 -0.03166307 0.06765535
v -0.04590567 -0.03166307 0.06765535
v -0.04590567 -0.03166307 0.06765535
v -0.04590567 -0.03166307 0.06765535
v -0.04590567 -0.03166307 0.06765535
v -0.04590567 -0.03166307 0.06765535
v -0.04590567 -0.03166307 0.06765535
v -0.02926618 0.03550336 0.04552347
v -0.02926618 0.03550336 0.04552347
v -0.02926618 0.03550336 0.04552347
v -0.03717530 0.03557042 0.04552347
v -0.03717530 0.03557042 0.04552347
v -0.03717530 0.03557042 0.04552347
v -0.04033829 0.03559055 0.04552347
v -0.04033829 0.03559055 0.04552347
v -0.04033829 0.03559055 0.04552347
v -0.04033829 0.03559055 0.04552347
v -0.04033829 0.03559055 0.04552347
v -0.02926618 0.03585210 0.05658562
v -0.02926618 0.03585210 0.05658562
v -0.02926618 0.03585210 0.05658562
v -0.03717530 0.03588564 0.05816810
v -0.03717530 0.03588564 0.05816810
v -0.03717530 0.03588564 0.05816810
v -0.03717530 0.03588564 0.05816810
v -0.03084933 0.03584540 0.05816810
v -0.03084933 0.03584540 0.05816810
v -0.03084933 0.03584540 0.05816810
v -0.03084933 0.03584540 0.05816810
v -0.02926618 0.03583198 0.05816810
v -0.02926618 0.03583198 0.05816810
v -0.02768634 0.03581857 0.05816810
v -0.02768634 0.03581857 0.05816810
v -0.02768634 0.03581857 0.05816810
v -0.02768634 0.03581857 0.05816810
v -0.02768634 0.03581857 0.05816810
v -0.02768634 0.03581857 0.05816810
v -0.02768634 0.03581857 0.05816810
v -0.02768634 0.03581857 0.05816810
v -0.03400902 0.03554360 0.04552347
v -0.03400902 0.03554360 0.04552347
v -0.01438464 0.03527534 0.06700924
v -0.01438464 0.03527534 0.06700924
v -0.01438464 0.03527534 0.06700924
v -0.01438464 0.03527534 0.06700924
v -0.01438464 -0.03118690 0.07005556
v -0.01438464 -0.03118690 0.07005556
v -0.01438464 -0.03118690 0.07005556
v -0.01503109 -0.03152223 0.06991422
v -0.01503109 -0.03152223 0.06991422
v -0.01503109 -0.03152223 0.06991422
v -0.01503109 -0.03152223 0.06991422
v -0.01438464 -0.03072415 0.07026756
v -0.01438464 -0.03072415 0.07026756
v -0.01438464 -0.03072415 0.07026756
v -0.01438464 -0.03072415 0.07026756
v -0.01438464 -0.03072415 0.07026756
v -0.01438464 -0.03072415 0.07026756
v -0.01438464 -0.03072415 0.07026756
v -0.03084933 -0.03084487 0.07043666
v -0.03084933 -0.03084487 0.07043666
v -0.03084933 -0.03084487 0.07043666
v -0.03084933 -0.03084487 0.07043666
v -0.03084933 -0.03084487 0.07043666
v -0.03084933 -0.03084487 0.07043666
v -0.03084933 -0.03084487 0.07043666
v -0.03084933 -0.03084487 0.07043666
v -0.04033829 -0.03084487 0.07048714
v -0.04033829 -0.03084487 0.07048714
v -0.04033829 -0.03084487 0.07048714
v -0.04033829 -0.03084487 0.07048714
v -0.04033829 -0.03084487 0.07048714
v -0.04192144 -0.03084487 0.07048966
v -0.04192144 -0.03084487 0.07048966
v -0.04192144 -0.03084487 0.07048966
v -0.04192144 -0.03084487 0.07048966
v -0.04192144 -0.03084487 0.07048966
v -0.04192144 -0.03084487 0.07048966
v -0.04508442 -0.03194475 0.06132799
v -0.04508442 -0.03194475 0.06132799
v -0.04508442 -0.03194475 0.06132799
v -0.04508442 -0.03194475 0.06132799
v -0.04594196 -0.03171672 0.04552347
v -0.04594196 -0.03171672 0.04552347
v -0.04594196 -0.03171672 0.04552347
v -0.04350128 -0.03084487 0.07048461
v -0.04350128 -0.03084487 0.07048461
v -0.04350128 -0.03084487 0.07048461
v -0.04350128 -0.03084487 0.07048461
v -0.04350128 -0.03084487 0.07048461
v -0.04350128 -0.03084487 0.07048461
v -0.04507783 -0.03089852 0.07028523
v -0.04507783 -0.03089852 0.07028523
v -0.04507783 -0.03089852 0.07028523
v -0.04507783 -0.03089852 0.07028523
v -0.04507783 -0.03089852 0.07028523
v -0.04605739 -0.03040894 0.07015147
v -0.04605739 -0.03040894 0.07015147
v -0.04605739 -0.03040894 0.07015147
v -0.04605739 -0.03040894 0.07015147
v -0.04605739 -0.03040894 0.07015147
v -0.04605739 -0.03040894 0.07015147
v -0.04605739 -0.03040894 0.07015147
v -0.04605739 -0.03040894 0.07015147
v -0.04559894 -0.03146187 0.06963912
v -0.04559894 -0.03146187 0.06963912
v -0.04559894 -0.03146187 0.06963912
v -0.04559894 -0.03146187 0.06963912
v -0.04623220 -0.03089852 0.06916211
v -0.04623220 -0.03089852 0.06916211
v -0.04623220 -0.03089852 0.06916211
v -0.04623220 -0.03089852 0.06916211
v -0.04623220 -0.03089852 0.06916211
v -0.04728433 -0.02966451 0.06765535
v -0.04728433 -0.02966451 0.06765535
v -0.04728433 -0.02966451 0.06765535
v -0.04728433 -0.02966451 0.06765535
v -0.04728433 -0.02966451 0.06765535
v -0.04728433 -0.02966451 0.06765535
v -0.04728433 -0.02966451 0.06765535
v -0.04652244 -0.03084487 0.06765535
v -0.04652244 -0.03084487 0.06765535
v -0.04652244 -0.03084487 0.06765535
v -0.04652244 -0.03084487 0.06765535
v -0.04652244 -0.03084487 0.06765535
v -0.04748552 -0.03008032 0.05766079
v -0.04748552 -0.03008032 0.05766079
v -0.04748552 -0.03008032 0.05766079
v -0.04748552 -0.03008032 0.05766079
v -0.04748552 -0.03008032 0.05766079
v -0.04748552 -0.03008032 0.05766079
v -0.04748552 -0.03008032 0.05766079
v -0.04748552 -0.03008032 0.05766079
v -0.04748552 -0.03008032 0.05766079
v -0.04748552 -0.03008032 0.05766079
v -0.04594855 -0.03171001 0.04552347
v -0.04594855 -0.03171001 0.04552347
v -0.04594855 -0.03171001 0.04552347
v -0.04594855 -0.03171001 0.04552347
v -0.04594855 -0.03171001 0.04552347
v -0.04351447 0.03559055 0.04552347
v -0.04351447 0.03559055 0.04552347
v -0.04351447 0.03559055 0.04552347
v -0.04351447 0.03559055 0.04552347
v -0.04351447 0.03559055 0.04552347
v -0.04351447 0.03559055 0.04552347
v -0.03875515 0.03589234 0.05816810
v -0.03875515 0.03589234 0.05816810
v -0.03875515 0.03589234 0.05816810
v -0.03875515 0.03589234 0.05816810
v -0.03875515 0.03589234 0.05816810
v -0.03875515 0.03589234 0.05816810
v -0.03875515 0.03558384 0.06765535
v -0.03875515 0.03558384 0.06765535
v -0.03875515 0.03558384 0.06765535
v -0.03875515 0.03558384 0.06765535
v -0.03875515 0.03558384 0.06765535
v -0.03717530 0.03557042 0.06765535
v -0.03717530 0.03557042 0.06765535
v -0.03717530 0.03557042 0.06765535
v -0.03717530 0.03557042 0.06765535
v -0.03400902 0.03553689 0.06765535
v -0.03400902 0.03553689 0.06765535
v -0.03400902 0.03553689 0.06765535
v -0.03400902 0.03553689 0.06765535
v -0.03400902 0.03553689 0.06765535
v -0.02926618 0.03547653 0.06765535
v -0.02926618 0.03547653 0.06765535
v -0.02926618 0.03547653 0.06765535
v -0.02926618 0.03547653 0.06765535
v -0.02926618 0.03547653 0.06765535
v -0.01438464 0.03524851 0.06765535
v -0.01438464 0.03524851 0.06765535
v -0.01438464 0.03524851 0.06765535
v -0.01438464 0.03524851 0.06765535
v -0.01438464 -0.03013397 0.07045686
v -0.01438464 -0.03013397 0.07045686
v -0.01438464 -0.03013397 0.07045686
v -0.01438464 -0.03013397 0.07045686
v -0.03242917 -0.02926211 0.07095406
v -0.03242917 -0.02926211 0.07095406
v -0.03242917 -0.02926211 0.07095406
v -0.03242917 -0.02926211 0.07095406
v -0.03242917 -0.02926211 0.07095406
v -0.03400902 -0.02926211 0.07097173
v -0.03400902 -0.02926211 0.07097173
v -0.03400902 -0.02926211 0.07097173
v -0.03400902 -0.02926211 0.07097173
v -0.04033829 -0.02926211 0.07102977
v -0.04033829 -0.02926211 0.07102977
v -0.04033829 -0.02926211 0.07102977
v -0.04033829 -0.02926211 0.07102977
v -0.04033829 -0.02926211 0.07102977
v -0.04033829 -0.02926211 0.07102977
v -0.04033829 -0.02926211 0.07102977
v -0.04192144 -0.02926211 0.07102977
v -0.04192144 -0.02926211 0.07102977
v -0.04192144 -0.02926211 0.07102977
v -0.04192144 -0.02926211 0.07102977
v -0.04192144 -0.02926211 0.07102977
v -0.04350128 -0.02926211 0.07100453
v -0.04350128 -0.02926211 0.07100453
v -0.04350128 -0.02926211 0.07100453
v -0.04350128 -0.02926211 0.07100453
v -0.04350128 -0.02926211 0.07100453
v -0.04350128 -0.02926211 0.07100453
v -0.04508442 -0.02926211 0.07080515
v -0.04508442 -0.02926211 0.07080515
v -0.04508442 -0.02926211 0.07080515
v -0.04508442 -0.02926211 0.07080515
v -0.04508442 -0.02926211 0.07080515
v -0.04637072 -0.02926211 0.07032813
v -0.04637072 -0.02926211 0.07032813
v -0.04637072 -0.02926211 0.07032813
v -0.04637072 -0.02926211 0.07032813
v -0.04637072 -0.02926211 0.07032813
v -0.04741626 -0.02767936 0.06991422
v -0.04741626 -0.02767936 0.06991422
v -0.04741626 -0.02767936 0.06991422
v -0.04741626 -0.02767936 0.06991422
v -0.04741626 -0.02767936 0.06991422
v -0.04741626 -0.02767936 0.06991422
v -0.04741626 -0.02767936 0.06991422
v -0.04713921 -0.02923529 0.06931354
v -0.04713921 -0.02923529 0.06931354
v -0.04713921 -0.02923529 0.06931354
v -0.04713921 -0.02923529 0.06931354
v -0.04713921 -0.02923529 0.06931354
v -0.04732721 -0.02976511 0.06607540
v -0.04732721 -0.02976511 0.06607540
v -0.04732721 -0.02976511 0.06607540
v -0.04732721 -0.02976511 0.06607540
v -0.04732721 -0.02976511 0.06607540
v -0.04732721 -0.02976511 0.06607540
v -0.04753499 -0.02869205 0.06883652
v -0.04753499 -0.02869205 0.06883652
v -0.04753499 -0.02869205 0.06883652
v -0.04753499 -0.02869205 0.06883652
v -0.04753499 -0.02869205 0.06883652
v -0.04753499 -0.02869205 0.06883652
v -0.04759766 -0.02887313 0.06765535
v -0.04759766 -0.02887313 0.06765535
v -0.04759766 -0.02887313 0.06765535
v -0.04759766 -0.02887313 0.06765535
v -0.04759766 -0.02887313 0.06765535
v -0.04759766 -0.02887313 0.06765535
v -0.04738327 -0.02989253 0.06291046
v -0.04738327 -0.02989253 0.06291046
v -0.04738327 -0.02989253 0.06291046
v -0.04763394 -0.02897373 0.06607540
v -0.04763394 -0.02897373 0.06607540
v -0.04763394 -0.02897373 0.06607540
v -0.04763394 -0.02897373 0.06607540
v -0.04763394 -0.02897373 0.06607540
v -0.04763394 -0.02897373 0.06607540
v -0.04767682 -0.02910115 0.06291046
v -0.04767682 -0.02910115 0.06291046
v -0.04767682 -0.02910115 0.06291046
v -0.04767682 -0.02910115 0.06291046
v -0.04767682 -0.02910115 0.06291046
v -0.04770320 -0.02938954 0.05818071
v -0.04770320 -0.02938954 0.05818071
v -0.04770320 -0.02938954 0.05818071
v -0.04770320 -0.02938954 0.05818071
v -0.04770320 -0.02938954 0.05818071
v -0.04770320 -0.02938954 0.05818071
v -0.04770320 -0.02938954 0.05818071
v -0.04748552 -0.03008032 0.05707526
v -0.04748552 -0.03008032 0.05707526
v -0.04748552 -0.03008032 0.05707526
v -0.04748552 -0.03008032 0.05707526
v -0.04748552 -0.03008032 0.05707526
v -0.04673353 -0.03087169 0.04552347
v -0.04673353 -0.03087169 0.04552347
v -0.04673353 -0.03087169 0.04552347
v -0.04350128 0.03574480 0.05816810
v -0.04350128 0.03574480 0.05816810
v -0.04350128 0.03574480 0.05816810
v -0.04350128 0.03574480 0.05816810
v -0.04350128 0.03574480 0.05816810
v -0.04350128 0.03574480 0.05816810
v -0.04192144 0.03583198 0.05816810
v -0.04192144 0.03583198 0.05816810
v -0.04192144 0.03583198 0.05816810
v -0.04192144 0.03583198 0.05816810
v -0.04192144 0.03583198 0.05816810
v -0.04033829 0.03587893 0.05816810
v -0.04033829 0.03587893 0.05816810
v -0.04033829 0.03587893 0.05816810
v -0.04033829 0.03587893 0.05816810
v -0.04033829 0.03587893 0.05816810
v -0.04508442 0.03524851 0.04552347
v -0.04508442 0.03524851 0.04552347
v -0.04508442 0.03524851 0.04552347
v -0.04508442 0.03524851 0.04552347
v -0.04192144 0.03559725 0.06765535
v -0.04192144 0.03559725 0.06765535
v -0.04192144 0.03559725 0.06765535
v -0.04192144 0.03559725 0.06765535
v -0.04192144 0.03559725 0.06765535
v -0.04033829 0.03543629 0.06923782
v -0.04033829 0.03543629 0.06923782
v -0.04033829 0.03543629 0.06923782
v -0.04033829 0.03543629 0.06923782
v -0.04033829 0.03543629 0.06923782
v -0.04033829 0.03543629 0.06923782
v -0.03559216 0.03539605 0.06923782
v -0.03559216 0.03539605 0.06923782
v -0.03559216 0.03539605 0.06923782
v -0.03559216 0.03539605 0.06923782
v -0.03559216 0.03539605 0.06923782
v -0.03400902 0.03537593 0.06923782
v -0.03400902 0.03537593 0.06923782
v -0.03400902 0.03537593 0.06923782
v -0.03400902 0.03537593 0.06923782
v -0.03400902 0.03537593 0.06923782
v -0.03400902 0.03537593 0.06923782
v -0.03400902 0.03537593 0.06923782
v -0.03400902 0.03537593 0.06923782
v -0.03400902 0.03537593 0.06923782
v -0.01438464 0.03510767 0.06846046
v -0.01438464 0.03510767 0.06846046
v -0.01438464 0.03510767 0.06846046
v -0.01438464 -0.02926211 0.07072943
v -0.01438464 -0.02926211 0.07072943
v -0.01438464 -0.02926211 0.07072943
v -0.01438464 -0.02926211 0.07072943
v -0.04033829 -0.02767936 0.07127964
v -0.04033829 -0.02767936 0.07127964
v -0.04033829 -0.02767936 0.07127964
v -0.04033829 -0.02767936 0.07127964
v -0.04033829 -0.02767936 0.07127964
v -0.04033829 -0.02767936 0.07127964
v -0.04033829 -0.02767936 0.07127964
v -0.04033829 -0.02767936 0.07127964
v -0.04033829 -0.02767936 0.07127964
v -0.04192144 -0.02767936 0.07128721
v -0.04192144 -0.02767936 0.07128721
v -0.04192144 -0.02767936 0.07128721
v -0.04192144 -0.02767936 0.07128721
v -0.04192144 -0.02767936 0.07128721
v -0.04192144 -0.02767936 0.07128721
v -0.04350128 -0.02767936 0.07126197
v -0.04350128 -0.02767936 0.07126197
v -0.04350128 -0.02767936 0.07126197
v -0.04350128 -0.02767936 0.07126197
v -0.04350128 -0.02767936 0.07126197
v -0.04508442 -0.02767936 0.07106511
v -0.04508442 -0.02767936 0.07106511
v -0.04508442 -0.02767936 0.07106511
v -0.04508442 -0.02767936 0.07106511
v -0.04508442 -0.02767936 0.07106511
v -0.04508442 -0.02767936 0.07106511
v -0.04662469 -0.02767936 0.07045938
v -0.04662469 -0.02767936 0.07045938
v -0.04662469 -0.02767936 0.07045938
v -0.04662469 -0.02767936 0.07045938
v -0.04662469 -0.02767936 0.07045938
v -0.04662469 -0.02767936 0.07045938
v -0.04758777 -0.02767936 0.06912172
v -0.04758777 -0.02767936 0.06912172
v -0.04758777 -0.02767936 0.06912172
v -0.04758777 -0.02767936 0.06912172
v -0.04758777 -0.02767936 0.06912172
v -0.04744594 -0.02609661 0.06999751
v -0.04744594 -0.02609661 0.06999751
v -0.04744594 -0.02609661 0.06999751
v -0.04744594 -0.02609661 0.06999751
v -0.04744594 -0.02609661 0.06999751
v -0.04744594 -0.02609661 0.06999751
v -0.04744594 -0.02609661 0.06999751
v -0.04744594 -0.02609661 0.06999751
v -0.04744594 -0.02609661 0.06999751
v -0.04775598 -0.02767936 0.06765535
v -0.04775598 -0.02767936 0.06765535
v -0.04775598 -0.02767936 0.06765535
v -0.04775598 -0.02767936 0.06765535
v -0.04775598 -0.02767936 0.06765535
v -0.04775598 -0.02767936 0.06765535
v -0.04781864 -0.02767936 0.06607540
v -0.04781864 -0.02767936 0.06607540
v -0.04781864 -0.02767936 0.06607540
v -0.04781864 -0.02767936 0.06607540
v -0.04781864 -0.02767936 0.06607540
v -0.04781864 -0.02767936 0.06607540
v -0.04781864 -0.02767936 0.06607540
v -0.04781864 -0.02767936 0.06607540
v -0.04805611 -0.02767936 0.05816810
v -0.04805611 -0.02767936 0.05816810
v -0.04805611 -0.02767936 0.05816810
v -0.04805611 -0.02767936 0.05816810
v -0.04805611 -0.02767936 0.05816810
v -0.04805611 -0.02767936 0.05816810
v -0.04805611 -0.02767936 0.05816810
v -0.04805611 -0.02767936 0.05816810
v -0.04769660 -0.02916152 0.06132799
v -0.04769660 -0.02916152 0.06132799
v -0.04769660 -0.02916152 0.06132799
v -0.04770650 -0.02927552 0.04552347
v -0.04770650 -0.02927552 0.04552347
v -0.04770650 -0.02927552 0.04552347
v -0.04770650 -0.02927552 0.04552347
v -0.04747233 -0.03006690 0.04552347
v -0.04747233 -0.03006690 0.04552347
v -0.04747233 -0.03006690 0.04552347
v -0.04747233 -0.03006690 0.04552347
v -0.04508442 0.03536252 0.05816810
v -0.04508442 0.03536252 0.05816810
v -0.04508442 0.03536252 0.05816810
v -0.04508442 0.03536252 0.05816810
v -0.04508442 0.03536252 0.05816810
v -0.04508442 0.03536252 0.05816810
v -0.04508442 0.03528204 0.06607540
v -0.04508442 0.03528204 0.06607540
v -0.04508442 0.03528204 0.06607540
v -0.04508442 0.03528204 0.06607540
v -0.04508442 0.03528204 0.06607540
v -0.04508442 0.03528204 0.06607540
v -0.04508442 0.03528204 0.06607540
v -0.04508442 0.03528204 0.06607540
v -0.04350128 0.03565090 0.06449293
v -0.04350128 0.03565090 0.06449293
v -0.04350128 0.03565090 0.06449293
v -0.04350128 0.03565090 0.06449293
v -0.04350128 0.03562408 0.06607540
v -0.04350128 0.03562408 0.06607540
v -0.04350128 0.03562408 0.06607540
v -0.04350128 0.03562408 0.06607540
v -0.04350128 0.03562408 0.06607540
v -0.04350128 0.03558384 0.06765535
v -0.04350128 0.03558384 0.06765535
v -0.04350128 0.03558384 0.06765535
v -0.04350128 0.03558384 0.06765535
v -0.04350128 0.03558384 0.06765535
v -0.04350128 0.03558384 0.06765535
v -0.04592217 0.03485282 0.04552347
v -0.04592217 0.03485282 0.04552347
v -0.04592217 0.03485282 0.04552347
v -0.04592217 0.03485282 0.04552347
v -0.04592217 0.03485282 0.04552347
v -0.04192144 0.03544300 0.06923782
v -0.04192144 0.03544300 0.06923782
v -0.04192144 0.03544300 0.06923782
v -0.04192144 0.03544300 0.06923782
v -0.04192144 0.03506073 0.07029028
v -0.04192144 0.03506073 0.07029028
v -0.04192144 0.03506073 0.07029028
v -0.04192144 0.03506073 0.07029028
v -0.04192144 0.03506073 0.07029028
v -0.04192144 0.03506073 0.07029028
v -0.04192144 0.03506073 0.07029028
v -0.03559216 0.03502719 0.07026504
v -0.03559216 0.03502719 0.07026504
v -0.03559216 0.03502719 0.07026504
v -0.03559216 0.03502719 0.07026504
v -0.03559216 0.03502719 0.07026504
v -0.03400902 0.03502049 0.07025242
v -0.03400902 0.03502049 0.07025242
v -0.03400902 0.03502049 0.07025242
v -0.03400902 0.03502049 0.07025242
v -0.03400902 0.03502049 0.07025242
v -0.03400902 0.03502049 0.07025242
v -0.03400902 0.03502049 0.07025242
v -0.03242917 0.03500037 0.07023223
v -0.03242917 0.03500037 0.07023223
v -0.03242917 0.03500037 0.07023223
v -0.03242917 0.03500037 0.07023223
v -0.03242917 0.03500037 0.07023223
v -0.03242917 0.03500037 0.07023223
v -0.03242917 0.03500037 0.07023223
v -0.03242917 0.03534240 0.06923782
v -0.03242917 0.03534240 0.06923782
v -0.03242917 0.03534240 0.06923782
v -0.01438464 0.03500707 0.06900310
v -0.01438464 0.03500707 0.06900310
v -0.01438464 0.03500707 0.06900310
v -0.01438464 0.03500707 0.06900310
v -0.01438464 0.03500707 0.06900310
v -0.01438464 0.03500707 0.06900310
v -0.01438464 0.03500707 0.06900310
v -0.01438464 0.03500707 0.06900310
v -0.01438464 0.03500707 0.06900310
v -0.01438464 -0.02861828 0.07082029
v -0.01438464 -0.02861828 0.07082029
v -0.01438464 -0.02861828 0.07082029
v -0.01438464 -0.02861828 0.07082029
v -0.01438464 -0.02861828 0.07082029
v -0.03875515 -0.02767936 0.07125944
v -0.03875515 -0.02767936 0.07125944
v -0.03875515 -0.02767936 0.07125944
v -0.04192144 0.03084228 0.07130740
v -0.04192144 0.03084228 0.07130740
v -0.04192144 0.03084228 0.07130740
v -0.04192144 0.03084228 0.07130740
v -0.04192144 0.03084228 0.07130740
v -0.04192144 0.03084228 0.07130740
v -0.04192144 0.03084228 0.07130740
v -0.04192144 0.03084228 0.07130740
v -0.04192144 0.03084228 0.07130740
v -0.04192144 0.03084228 0.07130740
v -0.04192144 0.03084228 0.07130740
v -0.04192144 0.03084228 0.07130740
v -0.04192144 -0.02609661 0.07129731
v -0.04192144 -0.02609661 0.07129731
v -0.04192144 -0.02609661 0.07129731
v -0.04192144 -0.02609661 0.07129731
v -0.04350128 -0.02609661 0.07129478
v -0.04350128 -0.02609661 0.07129478
v -0.04350128 -0.02609661 0.07129478
v -0.04350128 -0.02609661 0.07129478
v -0.04350128 -0.02609661 0.07129478
v -0.04350128 -0.02609661 0.07129478
v -0.04350128 -0.02609661 0.07129478
v -0.04508442 -0.02609661 0.07110296
v -0.04508442 -0.02609661 0.07110296
v -0.04508442 -0.02609661 0.07110296
v -0.04508442 -0.02609661 0.07110296
v -0.04508442 -0.02609661 0.07110296
v -0.04508442 -0.02609661 0.07110296
v -0.04665437 -0.02609661 0.07047704
v -0.04665437 -0.02609661 0.07047704
v -0.04665437 -0.02609661 0.07047704
v -0.04665437 -0.02609661 0.07047704
v -0.04665437 -0.02609661 0.07047704
v -0.04665437 -0.02609661 0.07047704
v -0.04760096 -0.02609661 0.06920754
v -0.04760096 -0.02609661 0.06920754
v -0.04760096 -0.02609661 0.06920754
v -0.04760096 -0.02609661 0.06920754
v -0.04760096 -0.02609661 0.06920754
v -0.04760096 -0.02609661 0.06920754
v -0.04759766 -0.02135505 0.06915453
v -0.04759766 -0.02135505 0.06915453
v -0.04759766 -0.02135505 0.06915453
v -0.04759766 -0.02135505 0.06915453
v -0.04759766 -0.02135505 0.06915453
v -0.04759766 -0.02135505 0.06915453
v -0.04759766 -0.02135505 0.06915453
v -0.04760096 -0.02293781 0.06916968
v -0.04760096 -0.02293781 0.06916968
v -0.04760096 -0.02293781 0.06916968
v -0.04760096 -0.02293781 0.06916968
v -0.04760096 -0.02293781 0.06916968
v -0.04652574 0.02925953 0.07043414
v -0.04652574 0.02925953 0.07043414
v -0.04652574 0.02925953 0.07043414
v -0.04652574 0.02925953 0.07043414
v -0.04652574 0.02925953 0.07043414
v -0.04652574 0.02925953 0.07043414
v -0.04652574 0.02925953 0.07043414
v -0.04731732 0.02925953 0.06935897
v -0.04731732 0.02925953 0.06935897
v -0.04731732 0.02925953 0.06935897
v -0.04731732 0.02925953 0.06935897
v -0.04731732 0.02925953 0.06935897
v -0.04731732 0.02925953 0.06935897
v -0.04731732 0.02925953 0.06935897
v -0.04731732 0.02925953 0.06935897
v -0.04777576 -0.02609661 0.06765535
v -0.04777576 -0.02609661 0.06765535
v -0.04777576 -0.02609661 0.06765535
v -0.04777576 -0.02609661 0.06765535
v -0.04777576 -0.02609661 0.06765535
v -0.04782853 -0.02609661 0.06607540
v -0.04782853 -0.02609661 0.06607540
v -0.04782853 -0.02609661 0.06607540
v -0.04782853 -0.02609661 0.06607540
v -0.04787801 -0.02609661 0.06449293
v -0.04787801 -0.02609661 0.06449293
v -0.04787801 -0.02609661 0.06449293
v -0.04787801 -0.02609661 0.06449293
v -0.04807260 -0.02609661 0.05816810
v -0.04807260 -0.02609661 0.05816810
v -0.04807260 -0.02609661 0.05816810
v -0.04807260 -0.02609661 0.05816810
v -0.04807260 -0.02609661 0.05816810
v -0.04807260 -0.02609661 0.05816810
v -0.04807260 -0.02609661 0.05816810
v -0.04793078 -0.02769277 0.04552347
v -0.04793078 -0.02769277 0.04552347
v -0.04793078 -0.02769277 0.04552347
v -0.04793078 -0.02769277 0.04552347
v -0.04597824 0.03491318 0.05816810
v -0.04597824 0.03491318 0.05816810
v -0.04597824 0.03491318 0.05816810
v -0.04597824 0.03491318 0.05816810
v -0.04597824 0.03491318 0.05816810
v -0.04597824 0.03491318 0.05816810
v -0.04594196 0.03487965 0.06607540
v -0.04594196 0.03487965 0.06607540
v -0.04594196 0.03487965 0.06607540
v -0.04594196 0.03487965 0.06607540
v -0.04594196 0.03487965 0.06607540
v -0.04594196 0.03487965 0.06607540
v -0.04594196 0.03487965 0.06607540
v -0.04590897 0.03483941 0.06765535
v -0.04590897 0.03483941 0.06765535
v -0.04590897 0.03483941 0.06765535
v -0.04590897 0.03483941 0.06765535
v -0.04590897 0.03483941 0.06765535
v -0.04590897 0.03483941 0.06765535
v -0.04508442 0.03522168 0.06765535
v -0.04508442 0.03522168 0.06765535
v -0.04508442 0.03522168 0.06765535
v -0.04508442 0.03522168 0.06765535
v -0.04508442 0.03522168 0.06765535
v -0.04508442 0.03522168 0.06765535
v -0.04350128 0.03542959 0.06923782
v -0.04350128 0.03542959 0.06923782
v -0.04350128 0.03542959 0.06923782
v -0.04350128 0.03542959 0.06923782
v -0.04350128 0.03542959 0.06923782
v -0.04350128 0.03542959 0.06923782
v -0.04350128 0.03542959 0.06923782
v -0.04350128 0.03542959 0.06923782
v -0.04592877 0.03484612 0.04552347
v -0.04592877 0.03484612 0.04552347
v -0.04592877 0.03484612 0.04552347
v -0.04592877 0.03484612 0.04552347
v -0.04350128 0.03504731 0.07028018
v -0.04350128 0.03504731 0.07028018
v -0.04350128 0.03504731 0.07028018
v -0.04350128 0.03504731 0.07028018
v -0.04350128 0.03400779 0.07073196
v -0.04350128 0.03400779 0.07073196
v -0.04350128 0.03400779 0.07073196
v -0.04350128 0.03400779 0.07073196
v -0.04350128 0.03400779 0.07073196
v -0.04350128 0.03400779 0.07073196
v -0.04350128 0.03400779 0.07073196
v -0.04350128 0.03400779 0.07073196
v -0.04192144 0.03400779 0.07074205
v -0.04192144 0.03400779 0.07074205
v -0.04192144 0.03400779 0.07074205
v -0.04192144 0.03400779 0.07074205
v -0.04192144 0.03400779 0.07074205
v -0.03559216 0.03400779 0.07069915
v -0.03559216 0.03400779 0.07069915
v -0.03559216 0.03400779 0.07069915
v -0.03559216 0.03400779 0.07069915
v -0.03559216 0.03400779 0.07069915
v -0.03559216 0.03400779 0.07069915
v -0.03400902 0.03400779 0.07067896
v -0.03400902 0.03400779 0.07067896
v -0.03400902 0.03400779 0.07067896
v -0.03400902 0.03400779 0.07067896
v -0.03400902 0.03400779 0.07067896
v -0.03400902 0.03400779 0.07067896
v -0.03400902 0.03400779 0.07067896
v -0.03400902 0.03400779 0.07067896
v -0.03400902 0.03400779 0.07067896
v -0.02610319 0.03488635 0.07011613
v -0.02610319 0.03488635 0.07011613
v -0.02610319 0.03488635 0.07011613
v -0.02610319 0.03488635 0.07011613
v -0.02610319 0.03488635 0.07011613
v -0.03242917 0.03400779 0.07064362
v -0.03242917 0.03400779 0.07064362
v -0.03242917 0.03400779 0.07064362
v -0.03242917 0.03400779 0.07064362
v -0.03242917 0.03400779 0.07064362
v -0.03242917 0.03400779 0.07064362
v -0.02452335 0.03485282 0.07008080
v -0.02452335 0.03485282 0.07008080
v -0.02452335 0.03485282 0.07008080
v -0.02452335 0.03485282 0.07008080
v -0.02332610 0.03481929 0.07005051
v -0.02332610 0.03481929 0.07005051
v -0.02332610 0.03481929 0.07005051
v -0.02332610 0.03481929 0.07005051
v -0.02332610 0.03481929 0.07005051
v -0.01977722 0.03471869 0.06994956
v -0.01977722 0.03471869 0.06994956
v -0.01977722 0.03471869 0.06994956
v -0.01819408 0.03467174 0.06990665
v -0.01819408 0.03467174 0.06990665
v -0.01819408 0.03467174 0.06990665
v -0.01819408 0.03467174 0.06990665
v -0.01819408 0.03467174 0.06990665
v -0.01438464 0.03474552 0.06947002
v -0.01438464 0.03474552 0.06947002
v -0.01438464 0.03474552 0.06947002
v -0.01438464 -0.02767936 0.07094649
v -0.01438464 -0.02767936 0.07094649
v -0.01438464 -0.02767936 0.07094649
v -0.01438464 -0.02767936 0.07094649
v -0.01438464 -0.02767936 0.07094649
v -0.01438464 -0.02767936 0.07094649
v -0.03400902 -0.02767936 0.07119887
v -0.03400902 -0.02767936 0.07119887
v -0.03400902 -0.02767936 0.07119887
v -0.03400902 -0.02767936 0.07119887
v -0.03084933 0.03084228 0.07113830
v -0.03084933 0.03084228 0.07113830
v -0.03084933 0.03084228 0.07113830
v -0.03084933 0.03084228 0.07113830
v -0.03242917 0.03242504 0.07100706
v -0.03242917 0.03242504 0.07100706
v -0.03242917 0.03242504 0.07100706
v -0.03242917 0.03242504 0.07100706
v -0.03242917 0.03242504 0.07100706
v -0.03242917 0.03242504 0.07100706
v -0.03242917 0.03242504 0.07100706
v -0.03400902 0.03242504 0.07102977
v -0.03400902 0.03242504 0.07102977
v -0.03400902 0.03242504 0.07102977
v -0.03400902 0.03242504 0.07102977
v -0.03400902 0.03242504 0.07102977
v -0.04192144 0.03242504 0.07112063
v -0.04192144 0.03242504 0.07112063
v -0.04192144 0.03242504 0.07112063
v -0.04192144 0.03242504 0.07112063
v -0.04192144 0.03242504 0.07112063
v -0.04192144 0.03242504 0.07112063
v -0.04350128 0.03242504 0.07110296
v -0.04350128 0.03242504 0.07110296
v -0.04350128 0.03242504 0.07110296
v -0.04350128 0.03242504 0.07110296
v -0.04350128 0.03242504 0.07110296
v -0.04350128 0.03242504 0.07110296
v -0.04350128 0.03084228 0.07128469
v -0.04350128 0.03084228 0.07128469
v -0.04350128 0.03084228 0.07128469
v -0.04350128 0.03084228 0.07128469
v -0.04350128 0.03084228 0.07128469
v -0.04350128 0.02925953 0.07129226
v -0.04350128 0.02925953 0.07129226
v -0.04350128 0.02925953 0.07129226
v -0.04350128 0.02925953 0.07129226
v -0.04350128 0.02925953 0.07129226
v -0.04350128 0.02925953 0.07129226
v -0.04508442 -0.02293781 0.07110296
v -0.04508442 -0.02293781 0.07110296
v -0.04508442 -0.02293781 0.07110296
v -0.04508442 -0.02293781 0.07110296
v -0.04508442 -0.02293781 0.07110296
v -0.04508442 0.02768348 0.07106259
v -0.04508442 0.02768348 0.07106259
v -0.04508442 0.02768348 0.07106259
v -0.04508442 0.02768348 0.07106259
v -0.04508442 0.02768348 0.07106259
v -0.04777576 -0.02451385 0.06765535
v -0.04777576 -0.02451385 0.06765535
v -0.04777576 -0.02451385 0.06765535
v -0.04777576 -0.02451385 0.06765535
v -0.04777576 -0.02451385 0.06765535
v -0.04777247 -0.02293781 0.06765535
v -0.04777247 -0.02293781 0.06765535
v -0.04777247 -0.02293781 0.06765535
v -0.04777247 -0.02293781 0.06765535
v -0.04777247 -0.02293781 0.06765535
v -0.04777247 -0.02293781 0.06765535
v -0.04777247 -0.02293781 0.06765535
v -0.04777247 -0.02293781 0.06765535
v -0.04747563 0.02768348 0.06859171
v -0.04747563 0.02768348 0.06859171
v -0.04747563 0.02768348 0.06859171
v -0.04747563 0.02768348 0.06859171
v -0.04747563 0.02768348 0.06859171
v -0.04747563 0.02768348 0.06859171
v -0.04749212 0.02135247 0.06865985
v -0.04749212 0.02135247 0.06865985
v -0.04749212 0.02135247 0.06865985
v -0.04748882 0.02293522 0.06863714
v -0.04748882 0.02293522 0.06863714
v -0.04748882 0.02293522 0.06863714
v -0.04748882 0.02293522 0.06863714
v -0.04508442 0.02925953 0.07105753
v -0.04508442 0.02925953 0.07105753
v -0.04508442 0.02925953 0.07105753
v -0.04508442 0.02925953 0.07105753
v -0.04508442 0.02925953 0.07105753
v -0.04508442 0.03084228 0.07104239
v -0.04508442 0.03084228 0.07104239
v -0.04508442 0.03084228 0.07104239
v -0.04508442 0.03084228 0.07104239
v -0.04508442 0.03084228 0.07104239
v -0.04508442 0.03084228 0.07104239
v -0.04646638 0.03084228 0.07042909
v -0.04646638 0.03084228 0.07042909
v -0.04646638 0.03084228 0.07042909
v -0.04646638 0.03084228 0.07042909
v -0.04646638 0.03084228 0.07042909
v -0.04646638 0.03084228 0.07042909
v -0.04729423 0.03087582 0.06911920
v -0.04729423 0.03087582 0.06911920
v -0.04729423 0.03087582 0.06911920
v -0.04729423 0.03087582 0.06911920
v -0.04729423 0.03087582 0.06911920
v -0.04729423 0.03087582 0.06911920
v -0.04746573 0.03037283 0.06851346
v -0.04746573 0.03037283 0.06851346
v -0.04746573 0.03037283 0.06851346
v -0.04746573 0.03037283 0.06851346
v -0.04746573 0.03037283 0.06851346
v -0.04746573 0.03037283 0.06851346
v -0.04746573 0.03037283 0.06851346
v -0.04747233 0.02925953 0.06856647
v -0.04747233 0.02925953 0.06856647
v -0.04747233 0.02925953 0.06856647
v -0.04747233 0.02925953 0.06856647
v -0.04747233 0.02925953 0.06856647
v -0.04747233 0.02925953 0.06856647
v -0.04747233 0.02925953 0.06856647
v -0.04782853 -0.02451385 0.06607540
v -0.04782853 -0.02451385 0.06607540
v -0.04782853 -0.02451385 0.06607540
v -0.04782853 -0.02451385 0.06607540
v -0.04782853 -0.02451385 0.06607540
v -0.04782853 -0.02451385 0.06607540
v -0.04793078 -0.02767936 0.04552347
v -0.04793078 -0.02767936 0.04552347
v -0.04793078 -0.02767936 0.04552347
v -0.04793078 -0.02767936 0.04552347
v -0.04806271 -0.01818954 0.05816810
v -0.04806271 -0.01818954 0.05816810
v -0.04806271 -0.01818954 0.05816810
v -0.04806271 -0.01818954 0.05816810
v -0.04806271 -0.01818954 0.05816810
v -0.04806271 -0.01818954 0.05816810
v -0.04806271 -0.01818954 0.05816810
v -0.04806271 -0.01818954 0.05816810
v -0.04806271 -0.01818954 0.05816810
v -0.04806271 -0.01818954 0.05816810
v -0.04806271 -0.01818954 0.05816810
v -0.04666427 0.03400109 0.04552347
v -0.04666427 0.03400109 0.04552347
v -0.04666427 0.03400109 0.04552347
v -0.04666427 0.03400109 0.04552347
v -0.04666427 0.03400109 0.04552347
v -0.04666427 0.03400109 0.04552347
v -0.04670714 0.03400779 0.05816810
v -0.04670714 0.03400779 0.05816810
v -0.04670714 0.03400779 0.05816810
v -0.04670714 0.03400779 0.05816810
v -0.04670714 0.03400779 0.05816810
v -0.04670714 0.03400779 0.05816810
v -0.04661150 0.03400779 0.06449293
v -0.04661150 0.03400779 0.06449293
v -0.04661150 0.03400779 0.06449293
v -0.04661150 0.03400779 0.06449293
v -0.04658181 0.03400779 0.06607540
v -0.04658181 0.03400779 0.06607540
v -0.04658181 0.03400779 0.06607540
v -0.04658181 0.03400779 0.06607540
v -0.04658181 0.03400779 0.06607540
v -0.04658181 0.03400779 0.06607540
v -0.04658181 0.03400779 0.06607540
v -0.04658181 0.03400779 0.06607540
v -0.04587599 0.03479917 0.06845289
v -0.04587599 0.03479917 0.06845289
v -0.04587599 0.03479917 0.06845289
v -0.04587599 0.03479917 0.06845289
v -0.04587599 0.03479917 0.06845289
v -0.04587599 0.03479917 0.06845289
v -0.04647957 0.03400779 0.06765535
v -0.04647957 0.03400779 0.06765535
v -0.04647957 0.03400779 0.06765535
v -0.04647957 0.03400779 0.06765535
v -0.04647957 0.03400779 0.06765535
v -0.04647957 0.03400779 0.06765535
v -0.04515368 0.03504731 0.06908386
v -0.04515368 0.03504731 0.06908386
v -0.04515368 0.03504731 0.06908386
v -0.04515368 0.03504731 0.06908386
v -0.04515368 0.03504731 0.06908386
v -0.04467544 0.03496013 0.07019437
v -0.04467544 0.03496013 0.07019437
v -0.04467544 0.03496013 0.07019437
v -0.04467544 0.03496013 0.07019437
v -0.04467544 0.03496013 0.07019437
v -0.04467544 0.03496013 0.07019437
v -0.04467544 0.03496013 0.07019437
v -0.04515368 0.03406144 0.07038871
v -0.04515368 0.03406144 0.07038871
v -0.04515368 0.03406144 0.07038871
v -0.04515368 0.03406144 0.07038871
v -0.04508442 0.03242504 0.07085563
v -0.04508442 0.03242504 0.07085563
v -0.04508442 0.03242504 0.07085563
v -0.04508442 0.03242504 0.07085563
v -0.04508442 0.03242504 0.07085563
v -0.04508442 0.03242504 0.07085563
v -0.04508442 0.03242504 0.07085563
v -0.03084933 0.03242504 0.07097678
v -0.03084933 0.03242504 0.07097678
v -0.03084933 0.03242504 0.07097678
v -0.03084933 0.03242504 0.07097678
v -0.02926618 0.03242504 0.07094396
v -0.02926618 0.03242504 0.07094396
v -0.02926618 0.03242504 0.07094396
v -0.02926618 0.03242504 0.07094396
v -0.02294021 0.03242504 0.07081272
v -0.02294021 0.03242504 0.07081272
v -0.02294021 0.03242504 0.07081272
v -0.02294021 0.03242504 0.07081272
v -0.02294021 0.03242504 0.07081272
v -0.02294021 0.03242504 0.07081272
v -0.01438464 0.03375965 0.07023475
v -0.01438464 0.03375965 0.07023475
v -0.01438464 0.03375965 0.07023475
v -0.01438464 0.03375965 0.07023475
v -0.01438464 0.03375965 0.07023475
v -0.01438464 0.03375965 0.07023475
v -0.01438464 0.03375965 0.07023475
v -0.01438464 0.03242504 0.07062091
v -0.01438464 0.03242504 0.07062091
v -0.01438464 0.03242504 0.07062091
v -0.01438464 0.03242504 0.07062091
v -0.01438464 0.03455102 0.06979308
v -0.01438464 0.03455102 0.06979308
v -0.01438464 0.03455102 0.06979308
v -0.01438464 0.02925953 0.07084301
v -0.01438464 0.02925953 0.07084301
v -0.01438464 0.02925953 0.07084301
v -0.02926618 0.03084228 0.07111054
v -0.02926618 0.03084228 0.07111054
v -0.02926618 0.03084228 0.07111054
v -0.02926618 0.03084228 0.07111054
v -0.02926618 0.03084228 0.07111054
v -0.02926618 0.03084228 0.07111054
v -0.02294021 0.03084228 0.07098939
v -0.02294021 0.03084228 0.07098939
v -0.02294021 0.03084228 0.07098939
v -0.02294021 0.03084228 0.07098939
v -0.04782524 -0.02293781 0.06607540
v -0.04782524 -0.02293781 0.06607540
v -0.04782524 -0.02293781 0.06607540
v -0.04782524 -0.02293781 0.06607540
v -0.04776587 -0.02135505 0.06765535
v -0.04776587 -0.02135505 0.06765535
v -0.04776587 -0.02135505 0.06765535
v -0.04776587 -0.02135505 0.06765535
v -0.04625859 0.03242504 0.07033066
v -0.04625859 0.03242504 0.07033066
v -0.04625859 0.03242504 0.07033066
v -0.04625859 0.03242504 0.07033066
v -0.04625859 0.03242504 0.07033066
v -0.04745254 0.03142576 0.06831408
v -0.04745254 0.03142576 0.06831408
v -0.04745254 0.03142576 0.06831408
v -0.04745254 0.03142576 0.06831408
v -0.04745254 0.03142576 0.06831408
v -0.04745254 0.03142576 0.06831408
v -0.04745254 0.03142576 0.06831408
v -0.04691163 0.03242504 0.06923782
v -0.04691163 0.03242504 0.06923782
v -0.04691163 0.03242504 0.06923782
v -0.04691163 0.03242504 0.06923782
v -0.04691163 0.03242504 0.06923782
v -0.04691163 0.03242504 0.06923782
v -0.04748552 0.03087582 0.06773359
v -0.04748552 0.03087582 0.06773359
v -0.04748552 0.03087582 0.06773359
v -0.04748552 0.03087582 0.06773359
v -0.04751190 0.02925953 0.06765535
v -0.04751190 0.02925953 0.06765535
v -0.04751190 0.02925953 0.06765535
v -0.04751190 0.02925953 0.06765535
v -0.04751190 0.02925953 0.06765535
v -0.04752510 0.02768348 0.06765535
v -0.04752510 0.02768348 0.06765535
v -0.04752510 0.02768348 0.06765535
v -0.04752510 0.02768348 0.06765535
v -0.04752510 0.02768348 0.06765535
v -0.04752510 0.02768348 0.06765535
v -0.04752510 0.02768348 0.06765535
v -0.04773618 -0.01502404 0.06765535
v -0.04773618 -0.01502404 0.06765535
v -0.04773618 -0.01502404 0.06765535
v -0.04773618 -0.01502404 0.06765535
v -0.04773618 -0.01502404 0.06765535
v -0.04792748 -0.02609661 0.04552347
v -0.04792748 -0.02609661 0.04552347
v -0.04792748 -0.02609661 0.04552347
v -0.04797036 -0.00395147 0.05658562
v -0.04797036 -0.00395147 0.05658562
v -0.04797036 -0.00395147 0.05658562
v -0.04765043 0.03084228 0.04552347
v -0.04765043 0.03084228 0.04552347
v -0.04765043 0.03084228 0.04552347
v -0.04765043 0.03084228 0.04552347
v -0.04765043 0.03084228 0.04552347
v -0.04765043 0.03084228 0.04552347
v -0.04765043 0.03084228 0.04552347
v -0.04765043 0.03084228 0.04552347
v -0.04765043 0.03084228 0.04552347
v -0.04781864 -0.02135505 0.06607540
v -0.04781864 -0.02135505 0.06607540
v -0.04781864 -0.02135505 0.06607540
v -0.04781864 -0.02135505 0.06607540
v -0.04785492 0.02293522 0.05816810
v -0.04785492 0.02293522 0.05816810
v -0.04785492 0.02293522 0.05816810
v -0.04785492 0.02293522 0.05816810
v -0.04785492 0.02293522 0.05816810
v -0.04785492 0.02293522 0.05816810
v -0.04740307 0.03297498 0.04552347
v -0.04740307 0.03297498 0.04552347
v -0.04740307 0.03297498 0.04552347
v -0.04741296 0.03300180 0.04709332
v -0.04741296 0.03300180 0.04709332
v -0.04741296 0.03300180 0.04709332
v -0.04741296 0.03300180 0.04709332
v -0.04741626 0.03300851 0.04867579
v -0.04741626 0.03300851 0.04867579
v -0.04741626 0.03300851 0.04867579
v -0.04741626 0.03300851 0.04867579
v -0.04741626 0.03300851 0.04867579
v -0.04741626 0.03300851 0.04867579
v -0.04739317 0.03298168 0.05816810
v -0.04739317 0.03298168 0.05816810
v -0.04739317 0.03298168 0.05816810
v -0.04739317 0.03298168 0.05816810
v -0.04739317 0.03298168 0.05816810
v -0.04739317 0.03298168 0.05816810
v -0.04735689 0.03280731 0.06291046
v -0.04735689 0.03280731 0.06291046
v -0.04735689 0.03280731 0.06291046
v -0.04735689 0.03280731 0.06291046
v -0.04735689 0.03280731 0.06291046
v -0.04733710 0.03273354 0.06449293
v -0.04733710 0.03273354 0.06449293
v -0.04733710 0.03273354 0.06449293
v -0.04733710 0.03273354 0.06449293
v -0.04733710 0.03273354 0.06449293
v -0.04730412 0.03261282 0.06607540
v -0.04730412 0.03261282 0.06607540
v -0.04730412 0.03261282 0.06607540
v -0.04730412 0.03261282 0.06607540
v -0.04730412 0.03261282 0.06607540
v -0.04730412 0.03261282 0.06607540
v -0.04617943 0.03406144 0.06908386
v -0.04617943 0.03406144 0.06908386
v -0.04617943 0.03406144 0.06908386
v -0.04617943 0.03406144 0.06908386
v -0.04617943 0.03406144 0.06908386
v -0.04617943 0.03406144 0.06908386
v -0.04572757 0.03462480 0.06950787
v -0.04572757 0.03462480 0.06950787
v -0.04572757 0.03462480 0.06950787
v -0.04572757 0.03462480 0.06950787
v -0.04572757 0.03462480 0.06950787
v -0.04727774 0.03231773 0.06773359
v -0.04727774 0.03231773 0.06773359
v -0.04727774 0.03231773 0.06773359
v -0.04727774 0.03231773 0.06773359
v -0.04727774 0.03231773 0.06773359
v -0.04727774 0.03231773 0.06773359
v -0.04602771 0.03357186 0.07016913
v -0.04602771 0.03357186 0.07016913
v -0.04602771 0.03357186 0.07016913
v -0.04602771 0.03357186 0.07016913
v -0.04602771 0.03357186 0.07016913
v -0.04602771 0.03357186 0.07016913
v -0.04602771 0.03357186 0.07016913
v -0.01438464 0.03084228 0.07082534
v -0.01438464 0.03084228 0.07082534
v -0.01438464 0.03084228 0.07082534
v -0.01438464 0.03084228 0.07082534
v -0.01438464 0.03084228 0.07082534
v -0.01438464 0.03084228 0.07082534
v -0.01438464 0.03149282 0.07074205
v -0.01438464 0.03149282 0.07074205
v -0.01438464 0.03149282 0.07074205
v -0.01438464 0.02991007 0.07083796
v -0.01438464 0.02991007 0.07083796
v -0.01438464 0.02991007 0.07083796
v -0.01438464 0.02991007 0.07083796
v -0.04747233 0.03171414 0.06725910
v -0.04747233 0.03171414 0.06725910
v -0.04747233 0.03171414 0.06725910
v -0.04747233 0.03171414 0.06725910
v -0.04747233 0.03171414 0.06725910
v -0.04747233 0.03171414 0.06725910
v -0.04754159 0.03084228 0.06607540
v -0.04754159 0.03084228 0.06607540
v -0.04754159 0.03084228 0.06607540
v -0.04754159 0.03084228 0.06607540
v -0.04754159 0.03084228 0.06607540
v -0.04754159 0.03084228 0.06607540
v -0.04754159 0.03084228 0.06607540
v -0.04756138 0.02925953 0.06607540
v -0.04756138 0.02925953 0.06607540
v -0.04756138 0.02925953 0.06607540
v -0.04756138 0.02925953 0.06607540
v -0.04757457 0.02768348 0.06607540
v -0.04757457 0.02768348 0.06607540
v -0.04757457 0.02768348 0.06607540
v -0.04757457 0.02768348 0.06607540
v -0.04784173 0.02451798 0.05816810
v -0.04784173 0.02451798 0.05816810
v -0.04784173 0.02451798 0.05816810
v -0.04784173 0.02451798 0.05816810
v -0.04784173 0.02451798 0.05816810
v -0.04782193 0.02610073 0.05816810
v -0.04782193 0.02610073 0.05816810
v -0.04782193 0.02610073 0.05816810
v -0.04782193 0.02610073 0.05816810
v -0.04782193 0.02610073 0.05816810
v -0.04779555 0.02768348 0.05816810
v -0.04779555 0.02768348 0.05816810
v -0.04776917 0.02925953 0.05816810
v -0.04776917 0.02925953 0.05816810
v -0.04776917 0.02925953 0.05816810
v -0.04776917 0.02925953 0.05816810
v -0.04773289 0.03084228 0.05816810
v -0.04773289 0.03084228 0.05816810
v -0.04773289 0.03084228 0.05816810
v -0.04773289 0.03084228 0.05816810
v -0.04773289 0.03084228 0.05816810
v -0.04773289 0.03084228 0.05816810
v -0.04773289 0.03084228 0.05816810
v -0.04755148 0.03218360 0.04552347
v -0.04755148 0.03218360 0.04552347
v -0.04755148 0.03218360 0.04552347
v -0.04755148 0.03218360 0.04552347
v -0.04755148 0.03218360 0.04552347
v -0.04755148 0.03218360 0.04552347
v -0.04758447 0.03219031 0.05816810
v -0.04758447 0.03219031 0.05816810
v -0.04758447 0.03219031 0.05816810
v -0.04758447 0.03219031 0.05816810
v -0.04758447 0.03219031 0.05816810
v -0.04758447 0.03219031 0.05816810
v -0.04751521 0.03194216 0.06449293
v -0.04751521 0.03194216 0.06449293
v -0.04751521 0.03194216 0.06449293
v -0.04751521 0.03194216 0.06449293
v -0.04751521 0.03194216 0.06449293
v -0.04749542 0.03182144 0.06607540
v -0.04749542 0.03182144 0.06607540
v -0.04749542 0.03182144 0.06607540
v -0.04749542 0.03182144 0.06607540
v -0.04749542 0.03182144 0.06607540
v -0.04749542 0.03182144 0.06607540
v -0.04758447 0.03084228 0.06449293
v -0.04758447 0.03084228 0.06449293
v -0.04758447 0.03084228 0.06449293
v -0.04758447 0.03084228 0.06449293
v -0.04758447 0.03084228 0.06449293
v -0.04758447 0.03084228 0.06449293
f 2 7 16
f 3 17 67
f 3 67 151
f 3 151 282
f 3 282 412
f 3 412 560
f 3 560 719
f 3 719 919
f 3 919 1149
f 3 1149 1142
f 3 1142 1146
f 3 1146 1302
f 3 1302 1299
f 3 1299 1306
f 3 1306 1152
f 3 1152 925
f 3 925 724
f 3 724 564
f 3 564 416
f 3 416 296
f 3 296 285
f 3 285 155
f 3 155 74
f 3 74 26
f 1 25 6
f 12 27 33
f 10 32 38
f 9 37 41
f 5 39 14
f 4 19 42
f 8 45 47
f 8 47 49
f 11 52 54
f 11 54 56
f 13 57 28
f 15 40 36
f 15 36 31
f 15 31 95
f 15 95 198
f 15 198 320
f 15 320 373
f 15 373 510
f 15 510 640
f 15 640 636
f 15 636 816
f 15 816 1048
f 15 1048 1210
f 15 1210 1216
f 15 1216 1351
f 15 1351 1235
f 15 1235 1063
f 15 1063 853
f 18 854 674
f 15 673 529
f 15 529 379
f 15 379 252
f 15 252 248
f 15 248 277
f 15 277 245
f 15 245 131
f 15 131 63
f 24 68 77
f 23 76 83
f 22 80 87
f 20 84 100
f 21 101 43
f 30 89 34
f 29 58 88
f 35 90 96
f 44 103 46
f 48 105 50
f 51 107 53
f 53 107 109
f 53 109 55
f 60 111 113
f 61 115 118
f 62 119 129
f 59 126 91
f 64 133 141
f 65 143 145
f 66 147 149
f 73 152 158
f 72 157 164
f 71 161 167
f 70 165 175
f 69 174 78
f 75 172 82
f 81 170 181
f 79 179 86
f 85 177 203
f 85 203 102
f 94 184 188
f 93 187 97
f 92 127 183
f 98 190 192
f 99 194 199
f 104 205 207
f 106 209 108
f 110 210 212
f 112 214 114
f 117 216 222
f 116 220 122
f 123 229 195
f 121 193 236
f 120 235 130
f 124 221 237
f 125 238 231
f 128 234 186
f 132 247 140
f 137 249 255
f 135 254 258
f 134 257 387
f 134 387 260
f 136 261 263
f 138 266 268
f 138 268 270
f 142 272 144
f 139 246 278
f 139 278 250
f 146 274 148
f 150 276 281
f 154 284 289
f 153 288 160
f 159 286 294
f 156 293 163
f 162 292 169
f 168 291 304
f 166 299 176
f 173 297 308
f 171 307 182
f 180 306 313
f 178 310 204
f 185 233 191
f 185 191 189
f 196 230 316
f 197 317 200
f 201 319 240
f 202 241 321
f 206 314 323
f 206 323 208
f 211 326 213
f 215 327 329
f 218 333 335
f 219 337 343
f 217 342 223
f 225 344 346
f 228 349 353
f 227 351 361
f 226 358 366
f 224 365 244
f 232 239 318
f 242 374 322
f 243 363 375
f 251 378 384
f 253 385 256
f 259 386 390
f 262 392 264
f 265 394 267
f 267 394 396
f 267 396 269
f 271 398 400
f 273 403 405
f 275 406 279
f 280 408 410
f 283 295 287
f 290 415 303
f 302 413 419
f 301 417 424
f 300 422 431
f 298 430 309
f 305 428 312
f 311 426 433
f 315 435 324
f 325 436 438
f 328 440 330
f 331 441 444
f 332 446 334
f 339 347 345
f 336 447 449
f 338 453 456
f 340 457 461
f 341 462 348
f 350 463 354
f 352 467 362
f 355 464 472
f 356 474 478
f 357 479 468
f 360 466 485
f 359 484 367
f 368 486 469
f 369 471 488
f 370 489 493
f 371 494 498
f 372 499 508
f 364 505 376
f 377 506 511
f 382 514 523
f 381 520 528
f 380 524 388
f 383 530 515
f 389 525 536
f 386 533 390
f 391 534 679
f 391 679 539
f 393 543 545
f 393 545 395
f 397 546 399
f 401 548 550
f 402 551 404
f 407 552 409
f 411 555 558
f 414 561 420
f 421 562 570
f 418 569 425
f 423 567 432
f 429 565 575
f 427 574 434
f 437 578 580
f 437 580 439
f 442 583 585
f 443 586 445
f 448 588 450
f 451 589 591
f 452 595 454
f 459 597 475
f 458 473 465
f 455 596 604
f 460 606 598
f 470 480 487
f 477 600 612
f 476 611 481
f 483 613 619
f 482 617 491
f 492 618 629
f 490 628 497
f 496 627 635
f 495 633 501
f 502 637 643
f 500 642 509
f 503 634 625
f 504 626 638
f 507 641 512
f 518 531 645
f 517 644 654
f 516 652 661
f 513 659 522
f 521 658 664
f 519 663 527
f 526 662 669
f 525 668 536
f 532 675 647
f 535 667 846
f 537 847 681
f 538 678 682
f 540 684 691
f 541 692 694
f 542 695 544
f 547 698 549
f 553 699 701
f 554 703 708
f 557 709 712
f 556 711 559
f 563 720 571
f 572 721 725
f 573 727 730
f 568 728 741
f 566 740 576
f 577 742 744
f 579 747 581
f 582 749 751
f 584 753 587
f 590 754 592
f 593 755 757
f 594 761 602
f 599 609 763
f 601 765 614
f 608 770 776
f 610 777 764
f 603 762 785
f 605 787 789
f 607 792 769
f 615 767 796
f 616 798 620
f 621 799 801
f 622 803 805
f 624 806 810
f 623 809 631
f 632 813 818
f 630 817 639
f 649 821 828
f 646 827 657
f 648 676 820
f 656 826 835
f 655 834 844
f 653 840 672
f 651 670 666
f 650 665 660
f 671 839 850
f 677 855 822
f 680 845 686
f 687 857 863
f 685 861 872
f 683 869 689
f 688 848 858
f 690 870 874
f 693 876 696
f 697 878 880
f 700 883 702
f 706 889 714
f 705 713 710
f 704 887 894
f 707 897 890
f 715 892 900
f 716 903 905
f 717 907 909
f 718 910 913
f 718 913 917
f 723 920 927
f 722 926 726
f 727 928 730
f 733 930 936
f 732 935 945
f 729 942 948
f 737 951 953
f 738 954 958
f 739 959 964
f 736 963 746
f 735 745 743
f 731 929 921
f 734 922 931
f 750 970 752
f 748 965 969
f 756 972 758
f 759 973 976
f 760 978 783
f 768 981 797
f 766 778 979
f 774 984 779
f 771 793 992
f 772 994 998
f 773 1000 1002
f 775 1003 986
f 780 985 980
f 782 977 1009
f 781 1008 1013
f 784 1015 1017
f 786 1019 788
f 790 1021 1023
f 791 1026 1028
f 794 1030 1035
f 795 1036 993
f 800 983 1043
f 800 1043 802
f 804 1045 807
f 808 1046 811
f 815 1051 819
f 812 1047 1057
f 814 1062 1050
f 823 856 1064
f 825 1065 1070
f 824 1069 829
f 830 1072 1075
f 832 1076 1080
f 831 1079 836
f 833 1088 843
f 838 1081 1094
f 837 1093 1090
f 842 1087 1101
f 841 1099 851
f 852 1100 1107
f 849 1104 859
f 860 1105 865
f 868 1112 1117
f 866 1115 956
f 864 952 950
f 862 949 873
f 867 1106 1111
f 871 946 875
f 877 947 941
f 879 943 881
f 882 944 934
f 884 938 1122
f 885 1124 1126
f 886 1127 1130
f 888 1132 895
f 891 899 1137
f 893 1138 901
f 896 1133 1143
f 898 1145 1136
f 902 1139 904
f 906 1140 912
f 908 914 911
f 916 1148 918
f 915 1141 1147
f 924 1150 1155
f 923 1154 933
f 932 1153 937
f 939 1157 1159
f 940 1160 1123
f 957 1116 1012
f 955 1010 961
f 962 1011 1007
f 960 1005 967
f 968 1006 975
f 966 974 971
f 982 991 1164
f 982 1164 1042
f 987 1004 996
f 988 997 1037
f 989 1038 1167
f 990 1170 1226
f 990 1226 1163
f 995 1001 999
f 1014 1120 1016
f 1018 1121 1172
f 1020 1174 1022
f 1027 1179 1029
f 1024 1175 1184
f 1025 1187 1176
f 1033 1181 1189
f 1034 1191 1194
f 1032 1193 1200
f 1031 1199 1041
f 1040 1198 1206
f 1039 1205 1168
f 1044 1166 1056
f 1049 1061 1212
f 1059 1213 1222
f 1058 1221 1211
f 1054 1165 1228
f 1052 1227 1208
f 1053 1209 1201
f 1055 1202 1229
f 1060 1233 1215
f 1068 1236 1239
f 1067 1238 1243
f 1066 1242 1071
f 1074 1244 1249
f 1073 1248 1077
f 1078 1250 1082
f 1083 1251 1254
f 1084 1255 1259
f 1086 1260 1265
f 1085 1264 1096
f 1092 1095 1272
f 1091 1270 1279
f 1089 1277 1103
f 1098 1266 1283
f 1097 1281 1274
f 1102 1276 1109
f 1110 1278 1290
f 1108 1289 1114
f 1113 1287 1118
f 1119 1288 1171
f 1123 1160 1294
f 1125 1297 1129
f 1128 1296 1131
f 1134 1298 1300
f 1135 1301 1144
f 1151 1303 1156
f 1158 1304 1161
f 1162 1305 1295
f 1169 1207 1225
f 1173 1291 1183
f 1177 1188 1284
f 1178 1286 1308
f 1180 1312 1314
f 1182 1315 1190
f 1185 1293 1273
f 1186 1275 1282
f 1192 1316 1195
f 1196 1317 1320
f 1197 1321 1324
f 1197 1324 1203
f 1204 1325 1230
f 1214 1232 1223
f 1224 1234 1332
f 1220 1331 1337
f 1219 1336 1339
f 1219 1339 1343
f 1218 1342 1350
f 1217 1347 1356
f 1231 1327 1329
f 1237 1352 1240
f 1241 1353 1246
f 1245 1358 1253
f 1247 1354 1360
f 1252 1357 1256
f 1258 1359 1365
f 1257 1364 1263
f 1262 1363 1370
f 1261 1369 1269
f 1268 1368 1309
f 1267 1307 1285
f 1271 1292 1280
f 1310 1373 1375
f 1311 1376 1313
f 1319 1378 1334
f 1318 1333 1330
f 1318 1330 1323
f 1322 1328 1326
f 1335 1379 1338
f 1338 1379 1341
f 1340 1377 1349
f 1348 1374 1372
f 1346 1371 1367
f 1344 1366 1361
f 1345 1362 1355

