# https://github.com/mikedh/trimesh
v -0.01437910 0.03535625 0.04552347
v -0.01437910 0.03535625 0.04552347
v -0.01437910 0.03535625 0.04552347
v -0.01437910 0.03535625 0.04552347
v -0.01437910 0.03535625 0.04552347
v -0.01437910 0.03535625 0.04552347
v -0.01437910 0.03567149 0.05658552
v -0.01437910 0.03567149 0.05658552
v -0.01437910 0.03567149 0.05658552
v -0.01186244 0.03568550 0.05658552
v -0.01186244 0.03568550 0.05658552
v -0.01186244 0.03568550 0.05658552
v -0.01186244 0.03568550 0.05658552
v -0.00553611 0.03571352 0.05658552
v -0.00553611 0.03571352 0.05658552
v -0.00553611 0.03571352 0.05658552
v -0.00553611 0.03571352 0.05658552
v 0.00846997 0.03570652 0.05658552
v 0.00846997 0.03570652 0.05658552
v 0.00846997 0.03570652 0.05658552
v 0.00846997 0.03570652 0.05658552
v 0.00846997 0.03570652 0.05658552
v 0.00846997 0.03533524 0.04552347
v 0.00846997 0.03533524 0.04552347
v 0.00846997 0.03533524 0.04552347
v -0.01437910 -0.03238488 0.04552347
v -0.01437910 -0.03238488 0.04552347
v -0.01437910 -0.03238488 0.04552347
v -0.01437910 -0.03238488 0.04552347
v -0.01437910 -0.03238488 0.04552347
v -0.01437910 -0.03238488 0.04552347
v -0.01437910 -0.03238488 0.04552347
v -0.01437910 -0.03238488 0.04552347
v -0.01437910 -0.03238488 0.04552347
v -0.01437910 0.03525117 0.06765504
v -0.01437910 0.03525117 0.06765504
v -0.01437910 0.03525117 0.06765504
v -0.01437910 0.03525117 0.06765504
v -0.01437910 0.03525117 0.06765504
v -0.01437910 0.03525117 0.06765504
v -0.01437910 0.03525117 0.06765504
v 0.00846997 0.03522315 0.06765504
v 0.00846997 0.03522315 0.06765504
v 0.00846997 0.03522315 0.06765504
v 0.00846997 -0.03239188 0.04552347
v 0.00846997 -0.03239188 0.04552347
v 0.00846997 -0.03239188 0.04552347
v 0.00846997 -0.03239188 0.04552347
v 0.00846997 -0.03239188 0.04552347
v 0.00846997 -0.03239188 0.04552347
v 0.00846997 -0.03239188 0.04552347
v 0.00846997 -0.03239188 0.04552347
v 0.00846997 -0.03239188 0.04552347
v -0.00079136 -0.03244092 0.04552347
v -0.00079136 -0.03244092 0.04552347
v -0.00079136 -0.03244092 0.04552347
v 0.00079023 -0.03471064 0.04814153
v 0.00079023 -0.03471064 0.04814153
v 0.00079023 -0.03471064 0.04814153
v 0.00079023 -0.03471064 0.04814153
v 0.00079023 -0.03471064 0.04814153
v 0.00079023 -0.03471064 0.04814153
v 0.00079023 -0.03471064 0.04814153
v -0.00079136 -0.03470363 0.04815397
v -0.00079136 -0.03470363 0.04815397
v -0.00079136 -0.03470363 0.04815397
v -0.00079136 -0.03539716 0.05025688
v -0.00079136 -0.03539716 0.05025688
v -0.00079136 -0.03539716 0.05025688
v -0.00079136 -0.03539716 0.05025688
v -0.00079136 -0.03539716 0.05025688
v -0.00079136 -0.03583849 0.05183966
v -0.00079136 -0.03583849 0.05183966
v -0.00079136 -0.03583849 0.05183966
v -0.00079136 -0.03583849 0.05183966
v -0.00079136 -0.03583849 0.05183966
v -0.00079136 -0.03583849 0.05183966
v -0.00079136 -0.03583849 0.05183966
v -0.00237294 -0.03561432 0.05341995
v -0.00237294 -0.03561432 0.05341995
v -0.00237294 -0.03561432 0.05341995
v -0.00237294 -0.03566336 0.05500274
v -0.00237294 -0.03566336 0.05500274
v -0.00237294 -0.03566336 0.05500274
v -0.00237294 -0.03566336 0.05500274
v -0.00237294 -0.03566336 0.05500274
v -0.00237294 -0.03566336 0.05500274
v -0.01437910 -0.03252499 0.05658552
v -0.01437910 -0.03252499 0.05658552
v -0.01437910 -0.03252499 0.05658552
v -0.01437910 -0.03252499 0.05658552
v -0.01437910 -0.03252499 0.05658552
v -0.01437910 -0.03252499 0.05658552
v -0.01437910 0.03500599 0.06900140
v -0.01437910 0.03500599 0.06900140
v -0.01437910 0.03500599 0.06900140
v 0.00846997 0.03499197 0.06893669
v 0.00846997 0.03499197 0.06893669
v 0.00846997 0.03499197 0.06893669
v 0.00846997 0.03499197 0.06893669
v 0.00846997 0.03499197 0.06893669
v 0.00846997 0.03499197 0.06893669
v 0.00846997 -0.03262306 0.05658552
v 0.00846997 -0.03262306 0.05658552
v 0.00846997 -0.03262306 0.05658552
v 0.00846997 -0.03262306 0.05658552
v 0.00846997 -0.03262306 0.05658552
v 0.00846997 -0.03262306 0.05658552
v 0.00369390 -0.03518000 0.05500274
v 0.00369390 -0.03518000 0.05500274
v 0.00369390 -0.03518000 0.05500274
v 0.00369390 -0.03518000 0.05500274
v 0.00369390 -0.03518000 0.05500274
v 0.00369390 -0.03518000 0.05500274
v 0.00370508 -0.03511694 0.05341995
v 0.00370508 -0.03511694 0.05341995
v 0.00370508 -0.03511694 0.05341995
v 0.00370508 -0.03511694 0.05341995
v 0.00237181 -0.03542518 0.05183966
v 0.00237181 -0.03542518 0.05183966
v 0.00237181 -0.03542518 0.05183966
v 0.00237181 -0.03542518 0.05183966
v 0.00079023 -0.03583849 0.05183966
v 0.00079023 -0.03583849 0.05183966
v 0.00079023 -0.03583849 0.05183966
v 0.00079023 -0.03583849 0.05183966
v 0.00079023 -0.03583849 0.05183966
v 0.00079023 -0.03583849 0.05183966
v 0.00079023 -0.03583849 0.05183966
v 0.00079023 -0.03539716 0.05025688
v 0.00079023 -0.03539716 0.05025688
v 0.00079023 -0.03539716 0.05025688
v 0.00079023 -0.03539716 0.05025688
v 0.00080365 -0.03244092 0.04552347
v 0.00080365 -0.03244092 0.04552347
v 0.00080365 -0.03244092 0.04552347
v 0.00079023 -0.03585250 0.05341995
v 0.00079023 -0.03585250 0.05341995
v 0.00079023 -0.03585250 0.05341995
v 0.00079023 -0.03585250 0.05341995
v 0.00079023 -0.03585250 0.05341995
v 0.00079023 -0.03585250 0.05341995
v 0.00079023 -0.03585250 0.05341995
v 0.00079023 -0.03585250 0.05341995
v -0.00079136 -0.03584549 0.05341995
v -0.00079136 -0.03584549 0.05341995
v -0.00079136 -0.03584549 0.05341995
v -0.00079136 -0.03584549 0.05341995
v -0.00079136 -0.03584549 0.05341995
v -0.00079136 -0.03584549 0.05341995
v -0.00079136 -0.03584549 0.05341995
v -0.00237294 -0.03566336 0.05658552
v -0.00237294 -0.03566336 0.05658552
v -0.00237294 -0.03566336 0.05658552
v -0.00237294 -0.03566336 0.05658552
v -0.00237294 -0.03564935 0.05816581
v -0.00237294 -0.03564935 0.05816581
v -0.00237294 -0.03564935 0.05816581
v -0.00237294 -0.03564935 0.05816581
v -0.00237294 -0.03560731 0.05974610
v -0.00237294 -0.03560731 0.05974610
v -0.00237294 -0.03560731 0.05974610
v -0.00237294 -0.03560731 0.05974610
v -0.00237294 -0.03560731 0.05974610
v -0.00237294 -0.03560731 0.05974610
v -0.00237294 -0.03560731 0.05974610
v -0.01437910 -0.03211167 0.06765504
v -0.01437910 -0.03211167 0.06765504
v -0.01437910 -0.03211167 0.06765504
v -0.01437910 -0.03211167 0.06765504
v -0.01437910 0.03474679 0.06946927
v -0.01437910 0.03474679 0.06946927
v -0.01437910 0.03474679 0.06946927
v -0.01437910 0.03455064 0.06979279
v -0.01437910 0.03455064 0.06979279
v -0.01437910 0.03455064 0.06979279
v -0.01437910 0.03455064 0.06979279
v -0.01437910 0.03455064 0.06979279
v -0.01437910 0.03455064 0.06979279
v 0.00846997 0.03446658 0.06972808
v 0.00846997 0.03446658 0.06972808
v 0.00846997 0.03446658 0.06972808
v 0.00364692 -0.03517299 0.05974610
v 0.00364692 -0.03517299 0.05974610
v 0.00364692 -0.03517299 0.05974610
v 0.00364692 -0.03517299 0.05974610
v 0.00364692 -0.03517299 0.05974610
v 0.00364692 -0.03517299 0.05974610
v 0.00368271 -0.03520101 0.05816581
v 0.00368271 -0.03520101 0.05816581
v 0.00368271 -0.03520101 0.05816581
v 0.00368271 -0.03520101 0.05816581
v 0.00368271 -0.03520101 0.05816581
v 0.00368271 -0.03520101 0.05816581
v 0.00368495 -0.03519400 0.05658552
v 0.00368495 -0.03519400 0.05658552
v 0.00368495 -0.03519400 0.05658552
v 0.00368495 -0.03519400 0.05658552
v 0.00846997 -0.03211167 0.06765504
v 0.00846997 -0.03211167 0.06765504
v 0.00846997 -0.03211167 0.06765504
v 0.00846997 -0.03211167 0.06765504
v 0.00846997 -0.03211167 0.06765504
v 0.00846997 -0.03211167 0.06765504
v 0.00237181 -0.03566336 0.05500274
v 0.00237181 -0.03566336 0.05500274
v 0.00237181 -0.03566336 0.05500274
v 0.00237181 -0.03566336 0.05500274
v 0.00237181 -0.03566336 0.05500274
v 0.00237181 -0.03566336 0.05500274
v 0.00237181 -0.03566336 0.05500274
v 0.00237181 -0.03561432 0.05341995
v 0.00237181 -0.03561432 0.05341995
v 0.00237181 -0.03561432 0.05341995
v 0.00237181 -0.03561432 0.05341995
v 0.00237181 -0.03561432 0.05341995
v -0.00079136 -0.03565635 0.05974610
v -0.00079136 -0.03565635 0.05974610
v -0.00079136 -0.03565635 0.05974610
v -0.00079136 -0.03565635 0.05974610
v -0.00079136 -0.03565635 0.05974610
v 0.00237181 -0.03566336 0.05658552
v 0.00237181 -0.03566336 0.05658552
v 0.00237181 -0.03566336 0.05658552
v 0.00237181 -0.03566336 0.05658552
v 0.00237181 -0.03564935 0.05816581
v 0.00237181 -0.03564935 0.05816581
v 0.00237181 -0.03564935 0.05816581
v 0.00237181 -0.03564935 0.05816581
v 0.00237181 -0.03564935 0.05816581
v 0.00079023 -0.03565635 0.05974610
v 0.00079023 -0.03565635 0.05974610
v 0.00079023 -0.03565635 0.05974610
v 0.00079023 -0.03565635 0.05974610
v 0.00079023 -0.03565635 0.05974610
v -0.00079136 -0.03550924 0.06290918
v -0.00079136 -0.03550924 0.06290918
v -0.00079136 -0.03550924 0.06290918
v -0.00079136 -0.03550924 0.06290918
v -0.00079136 -0.03550924 0.06290918
v -0.00079136 -0.03550924 0.06290918
v -0.00079136 -0.03550924 0.06290918
v -0.00237294 -0.03543919 0.06290918
v -0.00237294 -0.03543919 0.06290918
v -0.00237294 -0.03543919 0.06290918
v -0.00237294 -0.03543919 0.06290918
v -0.00237294 -0.03543919 0.06290918
v -0.00237294 -0.03543919 0.06290918
v -0.01437910 -0.03185949 0.06911339
v -0.01437910 -0.03185949 0.06911339
v -0.01437910 -0.03185949 0.06911339
v -0.01437910 -0.03185949 0.06911339
v -0.01437910 -0.03185949 0.06911339
v -0.01437910 0.03375905 0.07023577
v -0.01437910 0.03375905 0.07023577
v -0.01437910 0.03375905 0.07023577
v -0.01437910 0.03375905 0.07023577
v -0.01437910 0.03375905 0.07023577
v 0.00846997 0.03368199 0.07020342
v 0.00846997 0.03368199 0.07020342
v 0.00846997 0.03368199 0.07020342
v 0.00846997 0.03368199 0.07020342
v 0.00846997 0.03435450 0.06979777
v 0.00846997 0.03435450 0.06979777
v 0.00846997 0.03435450 0.06979777
v 0.00356639 -0.03513096 0.06132889
v 0.00356639 -0.03513096 0.06132889
v 0.00356639 -0.03513096 0.06132889
v 0.00356639 -0.03513096 0.06132889
v 0.00356639 -0.03513096 0.06132889
v 0.00237181 -0.03560031 0.05974610
v 0.00237181 -0.03560031 0.05974610
v 0.00237181 -0.03560031 0.05974610
v 0.00237181 -0.03560031 0.05974610
v 0.00237181 -0.03560031 0.05974610
v 0.00237181 -0.03560031 0.05974610
v 0.00846997 -0.03185949 0.06908104
v 0.00846997 -0.03185949 0.06908104
v 0.00846997 -0.03185949 0.06908104
v 0.00846997 -0.03185949 0.06908104
v 0.00332926 -0.03496283 0.06394944
v 0.00332926 -0.03496283 0.06394944
v 0.00332926 -0.03496283 0.06394944
v 0.00332926 -0.03496283 0.06394944
v 0.00332926 -0.03496283 0.06394944
v 0.00345901 -0.03507491 0.06290918
v 0.00345901 -0.03507491 0.06290918
v 0.00345901 -0.03507491 0.06290918
v 0.00345901 -0.03507491 0.06290918
v 0.00079023 -0.03550224 0.06290918
v 0.00079023 -0.03550224 0.06290918
v 0.00079023 -0.03550224 0.06290918
v 0.00079023 -0.03550224 0.06290918
v 0.00079023 -0.03550224 0.06290918
v -0.00079136 -0.03521502 0.06439739
v -0.00079136 -0.03521502 0.06439739
v -0.00079136 -0.03521502 0.06439739
v -0.00079136 -0.03521502 0.06439739
v -0.00079136 -0.03521502 0.06439739
v -0.00079136 -0.03521502 0.06439739
v -0.00079136 -0.03521502 0.06439739
v 0.00079023 -0.03521502 0.06439739
v 0.00079023 -0.03521502 0.06439739
v 0.00079023 -0.03521502 0.06439739
v 0.00079023 -0.03521502 0.06439739
v 0.00079023 -0.03521502 0.06439739
v 0.00079023 -0.03521502 0.06439739
v 0.00079023 -0.03521502 0.06439739
v 0.00079023 -0.03521502 0.06439739
v -0.00237294 -0.03513096 0.06423066
v -0.00237294 -0.03513096 0.06423066
v -0.00237294 -0.03513096 0.06423066
v -0.01437910 -0.03150922 0.06990478
v -0.01437910 -0.03150922 0.06990478
v -0.01437910 -0.03150922 0.06990478
v -0.01437910 -0.03150922 0.06990478
v -0.01437910 -0.03150922 0.06990478
v -0.01437910 -0.03150922 0.06990478
v -0.01437910 -0.03150922 0.06990478
v -0.01437910 0.03242804 0.07062151
v -0.01437910 0.03242804 0.07062151
v -0.01437910 0.03242804 0.07062151
v -0.01437910 0.03242804 0.07062151
v -0.01186244 0.03242804 0.07062649
v -0.01186244 0.03242804 0.07062649
v -0.01186244 0.03242804 0.07062649
v -0.01186244 0.03242804 0.07062649
v -0.01186244 0.03242804 0.07062649
v 0.00846997 0.03242804 0.07060907
v 0.00846997 0.03242804 0.07060907
v 0.00846997 0.03242804 0.07060907
v 0.00846997 0.03242804 0.07060907
v 0.00237181 -0.03543919 0.06290918
v 0.00237181 -0.03543919 0.06290918
v 0.00237181 -0.03543919 0.06290918
v 0.00237181 -0.03543919 0.06290918
v 0.00237181 -0.03543919 0.06290918
v 0.00237181 -0.03543919 0.06290918
v 0.00237181 -0.03543919 0.06290918
v 0.00237181 -0.03513096 0.06423066
v 0.00237181 -0.03513096 0.06423066
v 0.00237181 -0.03513096 0.06423066
v 0.00237181 -0.03513096 0.06423066
v 0.00237181 -0.03513096 0.06423066
v 0.00846997 -0.03153024 0.06975795
v 0.00846997 -0.03153024 0.06975795
v 0.00846997 -0.03153024 0.06975795
v 0.00846997 -0.03153024 0.06975795
v -0.00079136 -0.03470363 0.06518878
v -0.00079136 -0.03470363 0.06518878
v -0.00079136 -0.03470363 0.06518878
v 0.00079023 -0.03470363 0.06518878
v 0.00079023 -0.03470363 0.06518878
v 0.00079023 -0.03470363 0.06518878
v 0.00079023 -0.03470363 0.06518878
v 0.00846997 -0.03146719 0.06987243
v 0.00846997 -0.03146719 0.06987243
v 0.00846997 -0.03146719 0.06987243
v 0.00846997 -0.03146719 0.06987243
v 0.00846997 -0.03146719 0.06987243
v 0.00846997 -0.03067559 0.07024572
v 0.00846997 -0.03067559 0.07024572
v 0.00846997 -0.03067559 0.07024572
v 0.00846997 -0.03067559 0.07024572
v 0.00846997 -0.03067559 0.07024572
v 0.00846997 -0.03067559 0.07024572
v -0.01437910 -0.03118698 0.07005659
v -0.01437910 -0.03118698 0.07005659
v -0.01437910 -0.03118698 0.07005659
v -0.01437910 0.03148933 0.07074345
v -0.01437910 0.03148933 0.07074345
v -0.01437910 0.03148933 0.07074345
v -0.01028086 0.03084485 0.07083802
v -0.01028086 0.03084485 0.07083802
v -0.01028086 0.03084485 0.07083802
v -0.01028086 0.03084485 0.07083802
v -0.01028086 0.03084485 0.07083802
v -0.01028086 0.03084485 0.07083802
v -0.01028086 0.03084485 0.07083802
v 0.00846997 0.03084485 0.07083553
v 0.00846997 0.03084485 0.07083553
v 0.00846997 0.03084485 0.07083553
v 0.00846997 0.03084485 0.07083553
v 0.00846997 0.03084485 0.07083553
v 0.00846997 0.03084485 0.07083553
v 0.00846997 -0.02946368 0.07062400
v 0.00846997 -0.02946368 0.07062400
v 0.00846997 -0.02946368 0.07062400
v -0.01437910 -0.02926053 0.07073101
v -0.01437910 -0.02926053 0.07073101
v -0.01437910 -0.02926053 0.07073101
v -0.01437910 -0.02926053 0.07073101
v -0.01437910 -0.02926053 0.07073101
v -0.01437910 -0.02926053 0.07073101
v -0.01437910 -0.03072463 0.07026563
v -0.01437910 -0.03072463 0.07026563
v -0.01437910 -0.03072463 0.07026563
v -0.01437910 0.03084485 0.07082558
v -0.01437910 0.03084485 0.07082558
v -0.01437910 0.03084485 0.07082558
v -0.01437910 0.02991314 0.07083802
v -0.01437910 0.02991314 0.07083802
v -0.01437910 0.02991314 0.07083802
v -0.01437910 0.02926165 0.07084300
v -0.01437910 0.02926165 0.07084300
v -0.01437910 0.02926165 0.07084300
v -0.01437910 0.02926165 0.07084300
v -0.01437910 -0.02767733 0.07094752
v -0.01437910 -0.02767733 0.07094752
v -0.01437910 -0.02767733 0.07094752
v -0.01437910 -0.02767733 0.07094752
v 0.00846997 -0.02767733 0.07091766
v 0.00846997 -0.02767733 0.07091766
v 0.00846997 -0.02767733 0.07091766
v 0.00846997 -0.02767733 0.07091766
v 0.00846997 -0.02767733 0.07091766
v 0.00846997 -0.02926053 0.07068622
v 0.00846997 -0.02926053 0.07068622
v 0.00846997 -0.02926053 0.07068622
v -0.01437910 -0.02861604 0.07082061
v -0.01437910 -0.02861604 0.07082061
v -0.01437910 -0.02861604 0.07082061
f 5 8 13
f 4 11 17
f 2 14 18
f 3 20 24
f 1 23 45
f 1 45 135
f 1 135 55
f 1 55 26
f 6 34 93
f 6 93 170
f 6 170 253
f 6 253 319
f 6 319 369
f 6 369 397
f 6 397 394
f 6 394 422
f 6 422 411
f 6 411 407
f 6 407 403
f 6 403 400
f 6 400 372
f 6 372 323
f 6 323 258
f 6 258 179
f 6 179 173
f 6 173 96
f 6 96 41
f 6 41 9
f 7 40 12
f 10 39 16
f 15 35 19
f 21 38 43
f 22 44 102
f 22 102 182
f 22 182 265
f 22 265 262
f 22 262 332
f 22 332 385
f 22 385 416
f 22 416 419
f 22 419 388
f 22 388 366
f 22 366 360
f 22 360 348
f 22 348 280
f 22 280 204
f 22 204 108
f 22 108 53
f 22 53 25
f 27 56 61
f 28 63 65
f 29 66 70
f 30 71 76
f 31 78 80
f 32 81 85
f 33 87 90
f 36 94 97
f 37 98 42
f 52 105 114
f 51 112 118
f 50 116 122
f 49 119 128
f 48 127 133
f 47 132 60
f 46 59 136
f 54 134 58
f 57 131 68
f 62 69 64
f 67 130 124
f 67 124 73
f 72 123 138
f 74 143 145
f 75 151 83
f 77 84 79
f 82 150 153
f 86 155 89
f 88 154 158
f 91 159 165
f 92 166 169
f 95 171 99
f 100 172 174
f 101 178 181
f 106 187 194
f 104 193 198
f 103 197 113
f 107 203 188
f 110 196 211
f 109 210 214
f 111 216 117
f 115 215 121
f 120 213 129
f 126 212 207
f 125 206 142
f 144 219 146
f 141 205 223
f 140 222 227
f 139 226 235
f 137 231 217
f 147 220 160
f 148 162 156
f 149 157 152
f 161 221 240
f 163 242 244
f 164 248 168
f 167 247 252
f 175 256 260
f 176 261 263
f 177 264 180
f 183 268 275
f 184 276 228
f 185 229 189
f 186 202 270
f 190 230 224
f 191 225 208
f 192 209 195
f 199 279 284
f 200 285 288
f 201 289 269
f 218 232 236
f 226 272 235
f 234 271 292
f 233 291 239
f 241 298 243
f 238 290 304
f 237 302 295
f 245 299 310
f 246 312 251
f 250 311 301
f 249 300 318
f 257 320 327
f 254 325 329
f 255 331 259
f 267 287 339
f 266 337 274
f 273 334 294
f 278 344 282
f 277 347 342
f 281 343 336
f 283 338 286
f 293 333 306
f 297 351 317
f 296 303 352
f 296 352 349
f 307 335 340
f 309 341 346
f 308 345 359
f 305 358 355
f 315 356 365
f 314 364 368
f 313 350 353
f 316 354 357
f 322 370 377
f 321 376 328
f 324 373 380
f 326 383 330
f 363 386 391
f 361 390 395
f 362 396 367
f 371 398 378
f 379 399 402
f 375 401 406
f 374 404 381
f 382 405 408
f 384 410 413
f 387 417 392
f 393 418 415
f 389 414 421
f 409 420 412

