# https://github.com/mikedh/trimesh
v 0.02452176 0.03182088 0.00035688
v 0.02452176 0.03182088 0.00035688
v 0.02452176 0.03182088 0.00035688
v 0.02452176 0.03182088 0.00035688
v 0.02440130 0.03182088 0.00036130
v 0.02440130 0.03182088 0.00036130
v 0.02440130 0.03182088 0.00036130
v 0.02440130 0.03188091 0.00037899
v 0.02440130 0.03188091 0.00037899
v 0.02440130 0.03188091 0.00037899
v 0.02440130 0.03188091 0.00037899
v 0.02440130 0.03188091 0.00037899
v 0.02610398 0.03181420 0.00036130
v 0.02610398 0.03181420 0.00036130
v 0.02610398 0.03181420 0.00036130
v 0.02610398 0.03181420 0.00036130
v 0.02610398 0.03181420 0.00036130
v 0.02610398 0.03181420 0.00036130
v 0.02452176 0.03151402 0.00035688
v 0.02452176 0.03151402 0.00035688
v 0.02452176 0.03151402 0.00035688
v 0.02452176 0.03151402 0.00035688
v 0.02452176 0.03151402 0.00035688
v 0.02440130 0.03151402 0.00036130
v 0.02440130 0.03151402 0.00036130
v 0.02440130 0.03151402 0.00036130
v 0.02440130 0.03260803 0.00065752
v 0.02440130 0.03260803 0.00065752
v 0.02440130 0.03260803 0.00065752
v 0.02440130 0.03260803 0.00065752
v 0.02440130 0.03260803 0.00065752
v 0.02610398 0.03260136 0.00066194
v 0.02610398 0.03260136 0.00066194
v 0.02610398 0.03260136 0.00066194
v 0.02610398 0.03260136 0.00066194
v 0.02610398 0.03260136 0.00066194
v 0.02610398 0.03260136 0.00066194
v 0.02610398 0.03260136 0.00066194
v 0.02610398 0.03260136 0.00066194
v 0.03084832 0.03247462 0.00067078
v 0.03084832 0.03247462 0.00067078
v 0.03084832 0.03247462 0.00067078
v 0.03084832 0.03247462 0.00067078
v 0.03084832 0.03247462 0.00067078
v 0.03327609 0.03164076 0.00042320
v 0.03327609 0.03164076 0.00042320
v 0.03327609 0.03164076 0.00042320
v 0.03327609 0.03164076 0.00042320
v 0.03327609 0.03164076 0.00042320
v 0.03327609 0.03164076 0.00042320
v 0.03327609 0.03164076 0.00042320
v 0.03327609 0.03164076 0.00042320
v 0.02610398 0.03152069 0.00036130
v 0.02610398 0.03152069 0.00036130
v 0.02610398 0.03152069 0.00036130
v 0.02610398 0.03152069 0.00036130
v 0.02610398 0.03152069 0.00036130
v 0.02610398 0.03152069 0.00036130
v 0.02610398 0.03152069 0.00036130
v 0.02768620 -0.02926365 0.00060447
v 0.02768620 -0.02926365 0.00060447
v 0.02768620 -0.02926365 0.00060447
v 0.02768620 -0.02926365 0.00060447
v 0.02768620 -0.02926365 0.00060447
v 0.02610398 -0.02926365 0.00060005
v 0.02610398 -0.02926365 0.00060005
v 0.02610398 -0.02926365 0.00060005
v 0.02610398 -0.02926365 0.00060005
v 0.02440130 -0.02926365 0.00060005
v 0.02440130 -0.02926365 0.00060005
v 0.02440130 -0.02926365 0.00060005
v 0.02440130 -0.02926365 0.00060005
v 0.02440130 0.03400890 0.00130743
v 0.02440130 0.03400890 0.00130743
v 0.02440130 0.03400890 0.00130743
v 0.02440130 0.03400890 0.00130743
v 0.02440130 0.03400890 0.00130743
v 0.02610398 0.03400890 0.00128975
v 0.02610398 0.03400890 0.00128975
v 0.02610398 0.03400890 0.00128975
v 0.02610398 0.03400890 0.00128975
v 0.02610398 0.03400890 0.00128975
v 0.03084832 0.03400890 0.00128533
v 0.03084832 0.03400890 0.00128533
v 0.03084832 0.03400890 0.00128533
v 0.03084832 0.03400890 0.00128533
v 0.03084832 0.03400890 0.00128533
v 0.03084832 0.03400890 0.00128533
v 0.03243054 0.03400890 0.00129417
v 0.03243054 0.03400890 0.00129417
v 0.03243054 0.03400890 0.00129417
v 0.03243054 0.03400890 0.00129417
v 0.03559498 0.03400890 0.00132512
v 0.03559498 0.03400890 0.00132512
v 0.03559498 0.03400890 0.00132512
v 0.03559498 0.03400890 0.00132512
v 0.04033932 0.03400890 0.00137375
v 0.04033932 0.03400890 0.00137375
v 0.04033932 0.03400890 0.00137375
v 0.04033932 0.03400890 0.00137375
v 0.04033932 0.03400890 0.00137375
v 0.03243054 0.03244793 0.00068847
v 0.03243054 0.03244793 0.00068847
v 0.03243054 0.03244793 0.00068847
v 0.04192154 0.03400890 0.00139585
v 0.04192154 0.03400890 0.00139585
v 0.04192154 0.03400890 0.00139585
v 0.04192154 0.03400890 0.00139585
v 0.04192154 0.03400890 0.00139585
v 0.04192154 0.03400890 0.00139585
v 0.04192154 0.03400890 0.00139585
v 0.03327609 0.03163409 0.00042320
v 0.03327609 0.03163409 0.00042320
v 0.03327609 0.03163409 0.00042320
v 0.03327609 0.03163409 0.00042320
v 0.04192154 0.03242792 0.00084763
v 0.04192154 0.03242792 0.00084763
v 0.04192154 0.03242792 0.00084763
v 0.04192154 0.03242792 0.00084763
v 0.04192154 0.03242792 0.00084763
v 0.04350144 0.03084694 0.00079458
v 0.04350144 0.03084694 0.00079458
v 0.04350144 0.03084694 0.00079458
v 0.04350144 0.03084694 0.00079458
v 0.04350144 0.03084694 0.00079458
v 0.04508366 0.02767831 0.00079016
v 0.04508366 0.02767831 0.00079016
v 0.04508366 0.02767831 0.00079016
v 0.04508366 0.02767831 0.00079016
v 0.04508366 0.02767831 0.00079016
v 0.04508366 0.02767831 0.00079016
v 0.04508366 0.02767831 0.00079016
v 0.04508366 0.02767831 0.00079016
v 0.04508366 -0.01660914 0.00069731
v 0.04508366 -0.01660914 0.00069731
v 0.04508366 -0.01660914 0.00069731
v 0.04508366 -0.01660914 0.00069731
v 0.03717488 -0.02926365 0.00065752
v 0.03717488 -0.02926365 0.00065752
v 0.03717488 -0.02926365 0.00065752
v 0.03717488 -0.02926365 0.00065752
v 0.03717488 -0.02926365 0.00065752
v 0.03717488 -0.02926365 0.00065752
v 0.03559498 -0.02926365 0.00064426
v 0.03559498 -0.02926365 0.00064426
v 0.03559498 -0.02926365 0.00064426
v 0.03559498 -0.02926365 0.00064426
v 0.03243054 -0.02926365 0.00062657
v 0.03243054 -0.02926365 0.00062657
v 0.03243054 -0.02926365 0.00062657
v 0.03243054 -0.02926365 0.00062657
v 0.02768620 -0.03084463 0.00104658
v 0.02768620 -0.03084463 0.00104658
v 0.02768620 -0.03084463 0.00104658
v 0.02768620 -0.03084463 0.00104658
v 0.02768620 -0.03084463 0.00104658
v 0.02768620 -0.03084463 0.00104658
v 0.02768620 -0.03084463 0.00104658
v 0.02768620 -0.03084463 0.00104658
v 0.02452176 -0.03084463 0.00103332
v 0.02452176 -0.03084463 0.00103332
v 0.02452176 -0.03084463 0.00103332
v 0.02452176 -0.03084463 0.00103332
v 0.02452176 -0.03084463 0.00103332
v 0.02440130 -0.03084463 0.00103332
v 0.02440130 -0.03084463 0.00103332
v 0.02440130 -0.03084463 0.00103332
v 0.02440130 0.03492947 0.00186450
v 0.02440130 0.03492947 0.00186450
v 0.02440130 0.03492947 0.00186450
v 0.02440130 0.03492947 0.00186450
v 0.02440130 0.03492947 0.00186450
v 0.02610398 0.03495615 0.00184239
v 0.02610398 0.03495615 0.00184239
v 0.02610398 0.03495615 0.00184239
v 0.02610398 0.03495615 0.00184239
v 0.02610398 0.03495615 0.00184239
v 0.02610398 0.03495615 0.00184239
v 0.02768620 0.03496949 0.00183355
v 0.02768620 0.03496949 0.00183355
v 0.02768620 0.03496949 0.00183355
v 0.02768620 0.03496949 0.00183355
v 0.02768620 0.03496949 0.00183355
v 0.03243054 0.03498951 0.00182471
v 0.03243054 0.03498951 0.00182471
v 0.03243054 0.03498951 0.00182471
v 0.03243054 0.03498951 0.00182471
v 0.03243054 0.03498951 0.00182471
v 0.03243054 0.03498951 0.00182471
v 0.03243054 0.03498951 0.00182471
v 0.03243054 0.03498951 0.00182471
v 0.03243054 0.03498951 0.00182471
v 0.04350144 0.03498284 0.00184239
v 0.04350144 0.03498284 0.00184239
v 0.04350144 0.03498284 0.00184239
v 0.04350144 0.03498284 0.00184239
v 0.04350144 0.03498284 0.00184239
v 0.04350144 0.03498284 0.00184239
v 0.04350144 0.03498284 0.00184239
v 0.04350144 0.03498284 0.00184239
v 0.04350144 0.03498284 0.00184239
v 0.04350144 0.03498284 0.00184239
v 0.04350144 0.03400890 0.00148870
v 0.04350144 0.03400890 0.00148870
v 0.04350144 0.03400890 0.00148870
v 0.04350144 0.03400890 0.00148870
v 0.04350144 0.03400890 0.00148870
v 0.04508366 -0.01819012 0.00069731
v 0.04508366 -0.01819012 0.00069731
v 0.04508366 -0.01819012 0.00069731
v 0.04508366 -0.01819012 0.00069731
v 0.04508366 -0.01819012 0.00069731
v 0.04508366 -0.01819012 0.00069731
v 0.04350144 0.03242792 0.00095816
v 0.04350144 0.03242792 0.00095816
v 0.04350144 0.03242792 0.00095816
v 0.04350144 0.03242792 0.00095816
v 0.04350144 0.03242792 0.00095816
v 0.04350144 0.03242792 0.00095816
v 0.04508366 0.02926596 0.00085205
v 0.04508366 0.02926596 0.00085205
v 0.04508366 0.02926596 0.00085205
v 0.04508366 0.02926596 0.00085205
v 0.04508366 0.02926596 0.00085205
v 0.04666588 0.02926596 0.00155944
v 0.04666588 0.02926596 0.00155944
v 0.04666588 0.02926596 0.00155944
v 0.04666588 0.02926596 0.00155944
v 0.04666588 0.02767831 0.00151080
v 0.04666588 0.02767831 0.00151080
v 0.04666588 0.02767831 0.00151080
v 0.04666588 0.02767831 0.00151080
v 0.04666588 0.02767831 0.00151080
v 0.04666588 0.02767831 0.00151080
v 0.04666588 -0.00869757 0.00136491
v 0.04666588 -0.00869757 0.00136491
v 0.04666588 -0.00869757 0.00136491
v 0.04666588 -0.00869757 0.00136491
v 0.04666588 -0.00869757 0.00136491
v 0.04666588 -0.02293306 0.00132954
v 0.04666588 -0.02293306 0.00132954
v 0.04666588 -0.02293306 0.00132954
v 0.04666588 -0.02293306 0.00132954
v 0.04666588 -0.02293306 0.00132954
v 0.04666588 -0.02293306 0.00132954
v 0.04666588 -0.02293306 0.00132954
v 0.04666588 -0.02293306 0.00132954
v 0.04666588 -0.02293306 0.00132954
v 0.04033932 -0.02926365 0.00068847
v 0.04033932 -0.02926365 0.00068847
v 0.04033932 -0.02926365 0.00068847
v 0.04033932 -0.02926365 0.00068847
v 0.04033932 -0.02926365 0.00068847
v 0.04033932 -0.02926365 0.00068847
v 0.04033932 -0.02926365 0.00068847
v 0.02926842 -0.03084463 0.00105985
v 0.02926842 -0.03084463 0.00105985
v 0.02926842 -0.03084463 0.00105985
v 0.02926842 -0.03084463 0.00105985
v 0.02926842 -0.03084463 0.00105985
v 0.02926842 -0.03195198 0.00173628
v 0.02926842 -0.03195198 0.00173628
v 0.02926842 -0.03195198 0.00173628
v 0.02926842 -0.03195198 0.00173628
v 0.02926842 -0.03195198 0.00173628
v 0.02926842 -0.03195198 0.00173628
v 0.02926842 -0.03195198 0.00173628
v 0.02452176 -0.03197200 0.00170976
v 0.02452176 -0.03197200 0.00170976
v 0.02452176 -0.03197200 0.00170976
v 0.02452176 -0.03197200 0.00170976
v 0.02452176 -0.03197200 0.00170976
v 0.02452176 -0.03197200 0.00170976
v 0.02440130 -0.03188527 0.00165670
v 0.02440130 -0.03188527 0.00165670
v 0.02440130 -0.03188527 0.00165670
v 0.02440130 -0.03188527 0.00165670
v 0.02440130 -0.03188527 0.00165670
v 0.02440130 0.03519630 0.00279736
v 0.02440130 0.03519630 0.00279736
v 0.02440130 0.03519630 0.00279736
v 0.02452176 0.03520297 0.00279736
v 0.02452176 0.03520297 0.00279736
v 0.02452176 0.03520297 0.00279736
v 0.02452176 0.03520297 0.00279736
v 0.02452176 0.03520297 0.00279736
v 0.02610398 0.03523633 0.00279736
v 0.02610398 0.03523633 0.00279736
v 0.02610398 0.03523633 0.00279736
v 0.02610398 0.03523633 0.00279736
v 0.02610398 0.03523633 0.00279736
v 0.02768620 0.03526301 0.00279736
v 0.02768620 0.03526301 0.00279736
v 0.02768620 0.03526301 0.00279736
v 0.02768620 0.03526301 0.00279736
v 0.02768620 0.03526301 0.00279736
v 0.02768620 0.03526301 0.00279736
v 0.02768620 0.03526301 0.00279736
v 0.03243054 0.03531637 0.00279736
v 0.03243054 0.03531637 0.00279736
v 0.03243054 0.03531637 0.00279736
v 0.03243054 0.03531637 0.00279736
v 0.03243054 0.03531637 0.00279736
v 0.03243054 0.03531637 0.00279736
v 0.03243054 0.03531637 0.00279736
v 0.03559498 0.03498951 0.00183355
v 0.03559498 0.03498951 0.00183355
v 0.03559498 0.03498951 0.00183355
v 0.03559498 0.03532971 0.00279736
v 0.03559498 0.03532971 0.00279736
v 0.03559498 0.03532971 0.00279736
v 0.03559498 0.03532971 0.00279736
v 0.04192154 0.03534306 0.00279736
v 0.04192154 0.03534306 0.00279736
v 0.04192154 0.03534306 0.00279736
v 0.04192154 0.03534306 0.00279736
v 0.04350144 0.03534306 0.00279736
v 0.04350144 0.03534306 0.00279736
v 0.04350144 0.03534306 0.00279736
v 0.04350144 0.03534306 0.00279736
v 0.04350144 0.03534306 0.00279736
v 0.04350144 0.03534306 0.00279736
v 0.04350144 0.03534306 0.00279736
v 0.04508366 0.03489611 0.00192197
v 0.04508366 0.03489611 0.00192197
v 0.04508366 0.03489611 0.00192197
v 0.04508366 0.03489611 0.00192197
v 0.04508366 0.03489611 0.00192197
v 0.04508366 0.03489611 0.00192197
v 0.04508366 -0.01977110 0.00070615
v 0.04508366 -0.01977110 0.00070615
v 0.04508366 -0.01977110 0.00070615
v 0.04508366 -0.01977110 0.00070615
v 0.04508366 -0.01977110 0.00070615
v 0.04508366 0.03084694 0.00101564
v 0.04508366 0.03084694 0.00101564
v 0.04508366 0.03084694 0.00101564
v 0.04508366 0.03084694 0.00101564
v 0.04508366 0.03084694 0.00101564
v 0.04508366 0.03084694 0.00101564
v 0.04588288 0.03480940 0.00200155
v 0.04588288 0.03480940 0.00200155
v 0.04588288 0.03480940 0.00200155
v 0.04588288 0.03480940 0.00200155
v 0.04588288 0.03480940 0.00200155
v 0.04588288 0.03480940 0.00200155
v 0.04588288 0.03480940 0.00200155
v 0.04588288 0.03480940 0.00200155
v 0.04588288 0.03480940 0.00200155
v 0.04588288 0.03480940 0.00200155
v 0.04747205 0.03016652 0.00199713
v 0.04747205 0.03016652 0.00199713
v 0.04747205 0.03016652 0.00199713
v 0.04747205 0.03016652 0.00199713
v 0.04747205 0.03016652 0.00199713
v 0.04747205 0.03016652 0.00199713
v 0.04747205 0.03016652 0.00199713
v 0.04747205 0.03016652 0.00199713
v 0.04747205 0.03016652 0.00199713
v 0.04747205 0.03016652 0.00199713
v 0.04747205 0.03016652 0.00199713
v 0.04747205 0.03016652 0.00199713
v 0.04748595 0.02926596 0.00197945
v 0.04748595 0.02926596 0.00197945
v 0.04748595 0.02926596 0.00197945
v 0.04748595 0.02926596 0.00197945
v 0.04748595 0.02926596 0.00197945
v 0.04748595 0.02926596 0.00197945
v 0.04749057 0.02767831 0.00197503
v 0.04749057 0.02767831 0.00197503
v 0.04749057 0.02767831 0.00197503
v 0.04749057 0.02767831 0.00197503
v 0.04749057 0.02767831 0.00197503
v 0.04759946 -0.02293306 0.00187334
v 0.04759946 -0.02293306 0.00187334
v 0.04759946 -0.02293306 0.00187334
v 0.04759946 -0.02293306 0.00187334
v 0.04759946 -0.02293306 0.00187334
v 0.04759946 -0.02293306 0.00187334
v 0.04758093 -0.02768267 0.00189545
v 0.04758093 -0.02768267 0.00189545
v 0.04758093 -0.02768267 0.00189545
v 0.04758093 -0.02768267 0.00189545
v 0.04758093 -0.02768267 0.00189545
v 0.04666588 -0.02768267 0.00139144
v 0.04666588 -0.02768267 0.00139144
v 0.04666588 -0.02768267 0.00139144
v 0.04666588 -0.02768267 0.00139144
v 0.04666588 -0.02768267 0.00139144
v 0.04666588 -0.02768267 0.00139144
v 0.04666588 -0.02768267 0.00139144
v 0.04508366 -0.02610169 0.00077247
v 0.04508366 -0.02610169 0.00077247
v 0.04508366 -0.02610169 0.00077247
v 0.04508366 -0.02610169 0.00077247
v 0.04508366 -0.02610169 0.00077247
v 0.04508366 -0.02610169 0.00077247
v 0.04192154 -0.02926365 0.00071500
v 0.04192154 -0.02926365 0.00071500
v 0.04192154 -0.02926365 0.00071500
v 0.04192154 -0.02926365 0.00071500
v 0.04192154 -0.02926365 0.00071500
v 0.04033932 -0.03084463 0.00117037
v 0.04033932 -0.03084463 0.00117037
v 0.04033932 -0.03084463 0.00117037
v 0.04033932 -0.03084463 0.00117037
v 0.04033932 -0.03084463 0.00117037
v 0.03243054 -0.03084463 0.00109080
v 0.03243054 -0.03084463 0.00109080
v 0.03243054 -0.03084463 0.00109080
v 0.03243054 -0.03084463 0.00109080
v 0.04192154 -0.03187193 0.00181144
v 0.04192154 -0.03187193 0.00181144
v 0.04192154 -0.03187193 0.00181144
v 0.04192154 -0.03187193 0.00181144
v 0.04192154 -0.03187193 0.00181144
v 0.04192154 -0.03187193 0.00181144
v 0.04192154 -0.03231221 0.00279736
v 0.04192154 -0.03231221 0.00279736
v 0.04192154 -0.03231221 0.00279736
v 0.04192154 -0.03231221 0.00279736
v 0.04192154 -0.03231221 0.00279736
v 0.04033932 -0.03232554 0.00279736
v 0.04033932 -0.03232554 0.00279736
v 0.04033932 -0.03232554 0.00279736
v 0.04033932 -0.03232554 0.00279736
v 0.02926842 -0.03240560 0.00279736
v 0.02926842 -0.03240560 0.00279736
v 0.02926842 -0.03240560 0.00279736
v 0.02926842 -0.03240560 0.00279736
v 0.02926842 -0.03240560 0.00279736
v 0.02440130 -0.03197200 0.00170976
v 0.02440130 -0.03197200 0.00170976
v 0.02440130 -0.03197200 0.00170976
v 0.02452176 -0.03242561 0.00279736
v 0.02452176 -0.03242561 0.00279736
v 0.02452176 -0.03242561 0.00279736
v 0.02452176 -0.03242561 0.00279736
v 0.02452176 -0.03242561 0.00279736
v 0.02452176 -0.03242561 0.00279736
v 0.02452176 -0.03242561 0.00279736
v 0.02440130 0.03520964 0.00291673
v 0.02440130 0.03520964 0.00291673
v 0.02440130 0.03520964 0.00291673
v 0.02440130 0.03534306 0.00438014
v 0.02440130 0.03534306 0.00438014
v 0.02440130 0.03534306 0.00438014
v 0.02440130 0.03534306 0.00438014
v 0.02440130 0.03534306 0.00438014
v 0.02440130 0.03534306 0.00438014
v 0.02610398 0.03536974 0.00438014
v 0.02610398 0.03536974 0.00438014
v 0.02610398 0.03536974 0.00438014
v 0.02610398 0.03536974 0.00438014
v 0.02926842 0.03541643 0.00438014
v 0.02926842 0.03541643 0.00438014
v 0.02926842 0.03541643 0.00438014
v 0.02926842 0.03541643 0.00438014
v 0.03084832 0.03543645 0.00438014
v 0.03084832 0.03543645 0.00438014
v 0.03084832 0.03543645 0.00438014
v 0.03243054 0.03545646 0.00438014
v 0.03243054 0.03545646 0.00438014
v 0.03243054 0.03545646 0.00438014
v 0.03243054 0.03545646 0.00438014
v 0.03243054 0.03545646 0.00438014
v 0.03243054 0.03545646 0.00438014
v 0.03717488 0.03549649 0.00438014
v 0.03717488 0.03549649 0.00438014
v 0.03875710 0.03550983 0.00438014
v 0.03875710 0.03550983 0.00438014
v 0.03875710 0.03550983 0.00438014
v 0.03875710 0.03550983 0.00438014
v 0.03875710 0.03550983 0.00438014
v 0.04192154 0.03552317 0.00438014
v 0.04192154 0.03552317 0.00438014
v 0.04192154 0.03552317 0.00438014
v 0.04192154 0.03552317 0.00438014
v 0.04192154 0.03552317 0.00438014
v 0.04192154 0.03552317 0.00438014
v 0.04508366 0.03514293 0.00279736
v 0.04508366 0.03514293 0.00279736
v 0.04508366 0.03514293 0.00279736
v 0.04508366 0.03514293 0.00279736
v 0.04508366 0.03514293 0.00279736
v 0.04508366 0.03514293 0.00279736
v 0.04350144 0.03552317 0.00438014
v 0.04350144 0.03552317 0.00438014
v 0.04350144 0.03552317 0.00438014
v 0.04350144 0.03552317 0.00438014
v 0.04350144 0.03552317 0.00438014
v 0.04631608 0.03242792 0.00181587
v 0.04631608 0.03242792 0.00181587
v 0.04631608 0.03242792 0.00181587
v 0.04631608 0.03242792 0.00181587
v 0.04675159 0.03075355 0.00174955
v 0.04675159 0.03075355 0.00174955
v 0.04675159 0.03075355 0.00174955
v 0.04594774 0.03487610 0.00279736
v 0.04594774 0.03487610 0.00279736
v 0.04594774 0.03487610 0.00279736
v 0.04594774 0.03487610 0.00279736
v 0.04594774 0.03487610 0.00279736
v 0.04746278 0.03322174 0.00357549
v 0.04746278 0.03322174 0.00357549
v 0.04746278 0.03322174 0.00357549
v 0.04746278 0.03322174 0.00357549
v 0.04746278 0.03322174 0.00357549
v 0.04746278 0.03322174 0.00357549
v 0.04746278 0.03322174 0.00357549
v 0.04746278 0.03322174 0.00357549
v 0.04746278 0.03322174 0.00357549
v 0.04710603 0.03242792 0.00250114
v 0.04710603 0.03242792 0.00250114
v 0.04710603 0.03242792 0.00250114
v 0.04733537 0.03122050 0.00214745
v 0.04733537 0.03122050 0.00214745
v 0.04733537 0.03122050 0.00214745
v 0.04733537 0.03122050 0.00214745
v 0.04733537 0.03122050 0.00214745
v 0.04755313 0.03242792 0.00328811
v 0.04755313 0.03242792 0.00328811
v 0.04755313 0.03242792 0.00328811
v 0.04755313 0.03242792 0.00328811
v 0.04755313 0.03242792 0.00328811
v 0.04755313 0.03242792 0.00328811
v 0.04762031 0.03075355 0.00272662
v 0.04762031 0.03075355 0.00272662
v 0.04762031 0.03075355 0.00272662
v 0.04762031 0.03075355 0.00272662
v 0.04768748 0.02926596 0.00279736
v 0.04768748 0.02926596 0.00279736
v 0.04768748 0.02926596 0.00279736
v 0.04768748 0.02926596 0.00279736
v 0.04768748 0.02926596 0.00279736
v 0.04768748 0.02926596 0.00279736
v 0.04769675 0.02767831 0.00279736
v 0.04769675 0.02767831 0.00279736
v 0.04769675 0.02767831 0.00279736
v 0.04769675 0.02767831 0.00279736
v 0.04769675 0.02767831 0.00279736
v 0.04789135 -0.02293306 0.00279736
v 0.04789135 -0.02293306 0.00279736
v 0.04789135 -0.02293306 0.00279736
v 0.04789135 -0.02293306 0.00279736
v 0.04789135 -0.02293306 0.00279736
v 0.04789135 -0.02293306 0.00279736
v 0.04789135 -0.02293306 0.00279736
v 0.04789135 -0.02293306 0.00279736
v 0.04789135 -0.02293306 0.00279736
v 0.04787976 -0.02768267 0.00279736
v 0.04787976 -0.02768267 0.00279736
v 0.04787976 -0.02768267 0.00279736
v 0.04787976 -0.02768267 0.00279736
v 0.04787976 -0.02768267 0.00279736
v 0.04787976 -0.02768267 0.00279736
v 0.04754386 -0.02926365 0.00193082
v 0.04754386 -0.02926365 0.00193082
v 0.04754386 -0.02926365 0.00193082
v 0.04754386 -0.02926365 0.00193082
v 0.04754386 -0.02926365 0.00193082
v 0.04748363 -0.03008416 0.00198387
v 0.04748363 -0.03008416 0.00198387
v 0.04748363 -0.03008416 0.00198387
v 0.04748363 -0.03008416 0.00198387
v 0.04748363 -0.03008416 0.00198387
v 0.04748363 -0.03008416 0.00198387
v 0.04748363 -0.03008416 0.00198387
v 0.04748363 -0.03008416 0.00198387
v 0.04748363 -0.03008416 0.00198387
v 0.04666588 -0.02926365 0.00157270
v 0.04666588 -0.02926365 0.00157270
v 0.04666588 -0.02926365 0.00157270
v 0.04666588 -0.02926365 0.00157270
v 0.04508366 -0.02768267 0.00079900
v 0.04508366 -0.02768267 0.00079900
v 0.04508366 -0.02768267 0.00079900
v 0.04508366 -0.02768267 0.00079900
v 0.04508366 -0.02768267 0.00079900
v 0.04350144 -0.02926365 0.00076805
v 0.04350144 -0.02926365 0.00076805
v 0.04350144 -0.02926365 0.00076805
v 0.04350144 -0.02926365 0.00076805
v 0.04350144 -0.02926365 0.00076805
v 0.04350144 -0.02926365 0.00076805
v 0.04350144 -0.02926365 0.00076805
v 0.04192154 -0.03084463 0.00119690
v 0.04192154 -0.03084463 0.00119690
v 0.04192154 -0.03084463 0.00119690
v 0.04192154 -0.03084463 0.00119690
v 0.04192154 -0.03084463 0.00119690
v 0.04350144 -0.03185859 0.00182913
v 0.04350144 -0.03185859 0.00182913
v 0.04350144 -0.03185859 0.00182913
v 0.04350144 -0.03185859 0.00182913
v 0.04350144 -0.03185859 0.00182913
v 0.04350144 -0.03185859 0.00182913
v 0.04350144 -0.03229220 0.00279736
v 0.04350144 -0.03229220 0.00279736
v 0.04350144 -0.03229220 0.00279736
v 0.04350144 -0.03229220 0.00279736
v 0.04350144 -0.03229220 0.00279736
v 0.04350144 -0.03229220 0.00279736
v 0.04192154 -0.03253235 0.00438014
v 0.04192154 -0.03253235 0.00438014
v 0.04192154 -0.03253235 0.00438014
v 0.04192154 -0.03253235 0.00438014
v 0.04192154 -0.03253235 0.00438014
v 0.04192154 -0.03253235 0.00438014
v 0.04192154 -0.03253235 0.00438014
v 0.02440130 -0.03242561 0.00279736
v 0.02440130 -0.03242561 0.00279736
v 0.02440130 -0.03242561 0.00279736
v 0.03875710 -0.03253902 0.00438014
v 0.03875710 -0.03253902 0.00438014
v 0.03875710 -0.03253902 0.00438014
v 0.03875710 -0.03253902 0.00438014
v 0.03875710 -0.03253902 0.00438014
v 0.03084832 -0.03254569 0.00438014
v 0.03084832 -0.03254569 0.00438014
v 0.03084832 -0.03254569 0.00438014
v 0.03084832 -0.03254569 0.00438014
v 0.03084832 -0.03254569 0.00438014
v 0.02440130 -0.03253902 0.00426077
v 0.02440130 -0.03253902 0.00426077
v 0.02440130 -0.03253902 0.00426077
v 0.02440130 -0.03253902 0.00426077
v 0.02440130 0.03536307 0.00912847
v 0.02440130 0.03536307 0.00912847
v 0.02440130 0.03536307 0.00912847
v 0.02440130 0.03536307 0.00912847
v 0.02440130 0.03536307 0.00912847
v 0.02610398 0.03537641 0.00596292
v 0.02610398 0.03537641 0.00596292
v 0.02610398 0.03537641 0.00596292
v 0.02926842 0.03542311 0.00596292
v 0.02926842 0.03542311 0.00596292
v 0.02926842 0.03542311 0.00596292
v 0.02926842 0.03542311 0.00596292
v 0.02926842 0.03542311 0.00596292
v 0.02926842 0.03542311 0.00596292
v 0.03084832 0.03544312 0.00596292
v 0.03084832 0.03544312 0.00596292
v 0.03084832 0.03544312 0.00596292
v 0.03084832 0.03544312 0.00596292
v 0.03243054 0.03546313 0.00596292
v 0.03243054 0.03546313 0.00596292
v 0.03243054 0.03546313 0.00596292
v 0.03243054 0.03546313 0.00596292
v 0.03243054 0.03546313 0.00596292
v 0.03243054 0.03546313 0.00596292
v 0.03243054 0.03546313 0.00596292
v 0.03243054 0.03546313 0.00596292
v 0.03559498 0.03549649 0.00596292
v 0.03559498 0.03549649 0.00596292
v 0.03559498 0.03549649 0.00596292
v 0.03559498 0.03549649 0.00596292
v 0.03559498 0.03549649 0.00596292
v 0.03717488 0.03550983 0.00596292
v 0.03717488 0.03550983 0.00596292
v 0.03717488 0.03550983 0.00596292
v 0.03717488 0.03550983 0.00596292
v 0.03717488 0.03550983 0.00596292
v 0.03717488 0.03550983 0.00596292
v 0.04033932 0.03552984 0.00596292
v 0.04033932 0.03552984 0.00596292
v 0.04033932 0.03552984 0.00596292
v 0.04033932 0.03552984 0.00596292
v 0.04033932 0.03552984 0.00596292
v 0.04033932 0.03552984 0.00596292
v 0.04033932 0.03552984 0.00596292
v 0.04033932 0.03552984 0.00596292
v 0.04350144 0.03553651 0.00596292
v 0.04350144 0.03553651 0.00596292
v 0.04350144 0.03553651 0.00596292
v 0.04350144 0.03553651 0.00596292
v 0.04350144 0.03553651 0.00596292
v 0.04350144 0.03553651 0.00596292
v 0.04508366 0.03530304 0.00438014
v 0.04508366 0.03530304 0.00438014
v 0.04508366 0.03530304 0.00438014
v 0.04508366 0.03530304 0.00438014
v 0.04508366 0.03530304 0.00438014
v 0.04508366 0.03530304 0.00438014
v 0.04601029 0.03494281 0.00438014
v 0.04601029 0.03494281 0.00438014
v 0.04601029 0.03494281 0.00438014
v 0.04601029 0.03494281 0.00438014
v 0.04601029 0.03494281 0.00438014
v 0.04601029 0.03494281 0.00438014
v 0.04601029 0.03494281 0.00438014
v 0.04601029 0.03494281 0.00438014
v 0.04680256 0.03403558 0.00438014
v 0.04680256 0.03403558 0.00438014
v 0.04680256 0.03403558 0.00438014
v 0.04680256 0.03403558 0.00438014
v 0.04747900 0.03324843 0.00438014
v 0.04747900 0.03324843 0.00438014
v 0.04747900 0.03324843 0.00438014
v 0.04747900 0.03324843 0.00438014
v 0.04747900 0.03324843 0.00438014
v 0.04767127 0.03242792 0.00438014
v 0.04767127 0.03242792 0.00438014
v 0.04767127 0.03242792 0.00438014
v 0.04767127 0.03242792 0.00438014
v 0.04767127 0.03242792 0.00438014
v 0.04785428 0.03084694 0.00438014
v 0.04785428 0.03084694 0.00438014
v 0.04785428 0.03084694 0.00438014
v 0.04785428 0.03084694 0.00438014
v 0.04785428 0.03084694 0.00438014
v 0.04785428 0.03084694 0.00438014
v 0.04785428 0.03084694 0.00438014
v 0.04786818 0.02926596 0.00438014
v 0.04786818 0.02926596 0.00438014
v 0.04786818 0.02926596 0.00438014
v 0.04786818 0.02926596 0.00438014
v 0.04786818 0.02926596 0.00438014
v 0.04786818 0.02926596 0.00438014
v 0.04787513 0.02767831 0.00438014
v 0.04787513 0.02767831 0.00438014
v 0.04787513 0.02767831 0.00438014
v 0.04787513 0.02767831 0.00438014
v 0.04787513 0.02767831 0.00438014
v 0.04787513 0.02767831 0.00438014
v 0.04805814 -0.02610169 0.00438014
v 0.04805814 -0.02610169 0.00438014
v 0.04805814 -0.02610169 0.00438014
v 0.04805814 -0.02610169 0.00438014
v 0.04806046 -0.02768267 0.00438014
v 0.04806046 -0.02768267 0.00438014
v 0.04806046 -0.02768267 0.00438014
v 0.04806046 -0.02768267 0.00438014
v 0.04806046 -0.02768267 0.00438014
v 0.04806046 -0.02768267 0.00438014
v 0.04806046 -0.02768267 0.00438014
v 0.04789135 0.02293537 0.00438014
v 0.04789135 0.02293537 0.00438014
v 0.04789135 0.02293537 0.00438014
v 0.04789135 0.02293537 0.00438014
v 0.04775930 -0.02926365 0.00279736
v 0.04775930 -0.02926365 0.00279736
v 0.04775930 -0.02926365 0.00279736
v 0.04775930 -0.02926365 0.00279736
v 0.04775930 -0.02926365 0.00279736
v 0.04775930 -0.02926365 0.00279736
v 0.04754155 -0.03014419 0.00279736
v 0.04754155 -0.03014419 0.00279736
v 0.04754155 -0.03014419 0.00279736
v 0.04754155 -0.03014419 0.00279736
v 0.04754155 -0.03014419 0.00279736
v 0.04754155 -0.03014419 0.00279736
v 0.04677244 -0.03093802 0.00279736
v 0.04677244 -0.03093802 0.00279736
v 0.04677244 -0.03093802 0.00279736
v 0.04677244 -0.03093802 0.00279736
v 0.04598249 -0.03174519 0.00279736
v 0.04598249 -0.03174519 0.00279736
v 0.04598249 -0.03174519 0.00279736
v 0.04598249 -0.03174519 0.00279736
v 0.04598249 -0.03174519 0.00279736
v 0.04598249 -0.03174519 0.00279736
v 0.04589214 -0.03165847 0.00199271
v 0.04589214 -0.03165847 0.00199271
v 0.04589214 -0.03165847 0.00199271
v 0.04589214 -0.03165847 0.00199271
v 0.04589214 -0.03165847 0.00199271
v 0.04589214 -0.03165847 0.00199271
v 0.04589214 -0.03165847 0.00199271
v 0.04508366 -0.02926365 0.00104658
v 0.04508366 -0.02926365 0.00104658
v 0.04508366 -0.02926365 0.00104658
v 0.04508366 -0.02926365 0.00104658
v 0.04508366 -0.02926365 0.00104658
v 0.04508366 -0.02926365 0.00104658
v 0.04508366 -0.03084463 0.00154617
v 0.04508366 -0.03084463 0.00154617
v 0.04508366 -0.03084463 0.00154617
v 0.04508366 -0.03084463 0.00154617
v 0.04350144 -0.03084463 0.00128091
v 0.04350144 -0.03084463 0.00128091
v 0.04350144 -0.03084463 0.00128091
v 0.04350144 -0.03084463 0.00128091
v 0.04350144 -0.03084463 0.00128091
v 0.04350144 -0.03084463 0.00128091
v 0.04508366 -0.03175853 0.00190871
v 0.04508366 -0.03175853 0.00190871
v 0.04508366 -0.03175853 0.00190871
v 0.04508366 -0.03175853 0.00190871
v 0.04508366 -0.03175853 0.00190871
v 0.04508366 -0.03207206 0.00279736
v 0.04508366 -0.03207206 0.00279736
v 0.04508366 -0.03207206 0.00279736
v 0.04508366 -0.03207206 0.00279736
v 0.04508366 -0.03207206 0.00279736
v 0.04508366 -0.03207206 0.00279736
v 0.04350144 -0.03251233 0.00438014
v 0.04350144 -0.03251233 0.00438014
v 0.04350144 -0.03251233 0.00438014
v 0.04350144 -0.03251233 0.00438014
v 0.04350144 -0.03251233 0.00438014
v 0.04350144 -0.03251233 0.00438014
v 0.04192154 -0.03253235 0.00596292
v 0.04192154 -0.03253235 0.00596292
v 0.04192154 -0.03253235 0.00596292
v 0.04192154 -0.03253235 0.00596292
v 0.04192154 -0.03253235 0.00596292
v 0.03875710 -0.03253902 0.00596292
v 0.03875710 -0.03253902 0.00596292
v 0.03875710 -0.03253902 0.00596292
v 0.03875710 -0.03253902 0.00596292
v 0.03875710 -0.03253902 0.00596292
v 0.03243054 -0.03254569 0.00596292
v 0.03243054 -0.03254569 0.00596292
v 0.03243054 -0.03254569 0.00596292
v 0.03243054 -0.03254569 0.00596292
v 0.02440130 -0.03255236 0.00596292
v 0.02440130 -0.03255236 0.00596292
v 0.02440130 -0.03255236 0.00596292
v 0.02440130 -0.03255236 0.00596292
v 0.02440130 -0.03255236 0.00596292
v 0.02440130 -0.03254569 0.00438014
v 0.02440130 -0.03254569 0.00438014
v 0.02440130 -0.03254569 0.00438014
v 0.02452176 0.03537641 0.01228960
v 0.02452176 0.03537641 0.01228960
v 0.02452176 0.03537641 0.01228960
v 0.02440130 0.03538975 0.01703793
v 0.02440130 0.03538975 0.01703793
v 0.02440130 0.03538975 0.01703793
v 0.02440130 0.03538975 0.01703793
v 0.02440130 0.03538975 0.01703793
v 0.02440130 0.03538975 0.01703793
v 0.02440130 0.03538975 0.01703793
v 0.03401276 0.03548315 0.00754569
v 0.03401276 0.03548315 0.00754569
v 0.03401276 0.03548315 0.00754569
v 0.03401276 0.03548315 0.00754569
v 0.02452176 0.03540976 0.02494296
v 0.02452176 0.03540976 0.02494296
v 0.02452176 0.03540976 0.02494296
v 0.02440130 0.03544312 0.04076188
v 0.02440130 0.03544312 0.04076188
v 0.02440130 0.03544312 0.04076188
v 0.02440130 0.03544312 0.04076188
v 0.02440130 0.03544979 0.04392743
v 0.02440130 0.03544979 0.04392743
v 0.02440130 0.03544979 0.04392743
v 0.02440130 0.03544979 0.04392743
v 0.02440130 0.03544979 0.04392743
v 0.02440130 0.03544979 0.04392743
v 0.02925452 0.03550316 0.04552347
v 0.02925452 0.03550316 0.04552347
v 0.02925452 0.03550316 0.04552347
v 0.02925452 0.03550316 0.04552347
v 0.02925452 0.03550316 0.04552347
v 0.02925452 0.03550316 0.04552347
v 0.02925452 0.03550316 0.04552347
v 0.02925452 0.03550316 0.04552347
v 0.03084832 0.03551650 0.04392743
v 0.03084832 0.03551650 0.04392743
v 0.03084832 0.03551650 0.04392743
v 0.03559498 0.03555652 0.04392743
v 0.03559498 0.03555652 0.04392743
v 0.03559498 0.03555652 0.04392743
v 0.03716098 0.03556986 0.04552347
v 0.03716098 0.03556986 0.04552347
v 0.03716098 0.03556986 0.04552347
v 0.03716098 0.03556986 0.04552347
v 0.03716098 0.03556986 0.04552347
v 0.03875710 0.03552317 0.00754569
v 0.03875710 0.03552317 0.00754569
v 0.03875710 0.03552317 0.00754569
v 0.03875710 0.03552317 0.00754569
v 0.04032542 0.03558988 0.04552347
v 0.04032542 0.03558988 0.04552347
v 0.04032542 0.03558988 0.04552347
v 0.04032542 0.03558988 0.04552347
v 0.04192154 0.03559655 0.04552347
v 0.04192154 0.03559655 0.04552347
v 0.04192154 0.03559655 0.04552347
v 0.04192154 0.03559655 0.04552347
v 0.04192154 0.03559655 0.04552347
v 0.04350144 0.03554318 0.00912847
v 0.04350144 0.03554318 0.00912847
v 0.04350144 0.03554318 0.00912847
v 0.04350144 0.03554318 0.00912847
v 0.04350144 0.03554318 0.00912847
v 0.04508366 0.03530971 0.00596292
v 0.04508366 0.03530971 0.00596292
v 0.04508366 0.03530971 0.00596292
v 0.04508366 0.03530971 0.00596292
v 0.04508366 0.03530971 0.00596292
v 0.04508366 0.03530971 0.00596292
v 0.04508366 0.03530971 0.00596292
v 0.04601029 0.03494281 0.00596292
v 0.04601029 0.03494281 0.00596292
v 0.04601029 0.03494281 0.00596292
v 0.04601029 0.03494281 0.00596292
v 0.04601029 0.03494281 0.00596292
v 0.04601029 0.03494281 0.00596292
v 0.04680256 0.03405559 0.00596292
v 0.04680256 0.03405559 0.00596292
v 0.04680256 0.03405559 0.00596292
v 0.04680256 0.03405559 0.00596292
v 0.04749753 0.03326844 0.00596292
v 0.04749753 0.03326844 0.00596292
v 0.04749753 0.03326844 0.00596292
v 0.04749753 0.03326844 0.00596292
v 0.04749753 0.03326844 0.00596292
v 0.04749753 0.03326844 0.00596292
v 0.04749753 0.03326844 0.00596292
v 0.04769907 0.03242792 0.00596292
v 0.04769907 0.03242792 0.00596292
v 0.04769907 0.03242792 0.00596292
v 0.04769907 0.03242792 0.00596292
v 0.04769907 0.03242792 0.00596292
v 0.04769907 0.03242792 0.00596292
v 0.04769907 0.03242792 0.00596292
v 0.04769907 0.03242792 0.00596292
v 0.04769907 0.03242792 0.00596292
v 0.04786355 0.03084694 0.00596292
v 0.04786355 0.03084694 0.00596292
v 0.04786355 0.03084694 0.00596292
v 0.04786355 0.03084694 0.00596292
v 0.04786355 0.03084694 0.00596292
v 0.04787281 0.02926596 0.00596292
v 0.04787281 0.02926596 0.00596292
v 0.04787281 0.02926596 0.00596292
v 0.04787281 0.02926596 0.00596292
v 0.04787281 0.02926596 0.00596292
v 0.04787281 0.02926596 0.00596292
v 0.04787281 0.02926596 0.00596292
v 0.04806509 -0.02610169 0.00596292
v 0.04806509 -0.02610169 0.00596292
v 0.04806509 -0.02610169 0.00596292
v 0.04806509 -0.02610169 0.00596292
v 0.04806509 -0.02610169 0.00596292
v 0.04806509 -0.02610169 0.00596292
v 0.04806509 -0.02610169 0.00596292
v 0.04806509 -0.02610169 0.00596292
v 0.04806509 -0.02610169 0.00596292
v 0.04806509 -0.02768267 0.00596292
v 0.04806509 -0.02768267 0.00596292
v 0.04806509 -0.02768267 0.00596292
v 0.04806509 -0.02768267 0.00596292
v 0.04790061 -0.02926365 0.00438014
v 0.04790061 -0.02926365 0.00438014
v 0.04790061 -0.02926365 0.00438014
v 0.04790061 -0.02926365 0.00438014
v 0.04790061 -0.02926365 0.00438014
v 0.04790061 -0.02926365 0.00438014
v 0.04790061 -0.02926365 0.00438014
v 0.04790061 -0.02926365 0.00438014
v 0.04790061 -0.02926365 0.00438014
v 0.04790061 -0.02926365 0.00438014
v 0.04759946 -0.03021091 0.00438014
v 0.04759946 -0.03021091 0.00438014
v 0.04759946 -0.03021091 0.00438014
v 0.04759946 -0.03021091 0.00438014
v 0.04759946 -0.03021091 0.00438014
v 0.04759946 -0.03021091 0.00438014
v 0.04605662 -0.03182524 0.00438014
v 0.04605662 -0.03182524 0.00438014
v 0.04605662 -0.03182524 0.00438014
v 0.04605662 -0.03182524 0.00438014
v 0.04605662 -0.03182524 0.00438014
v 0.04605662 -0.03182524 0.00438014
v 0.04508366 -0.03225217 0.00438014
v 0.04508366 -0.03225217 0.00438014
v 0.04508366 -0.03225217 0.00438014
v 0.04508366 -0.03225217 0.00438014
v 0.04508366 -0.03225217 0.00438014
v 0.04508366 -0.03225217 0.00438014
v 0.04508366 -0.03225217 0.00438014
v 0.04350144 -0.03248565 0.01071124
v 0.04350144 -0.03248565 0.01071124
v 0.04350144 -0.03248565 0.01071124
v 0.04033932 -0.03253235 0.00754569
v 0.04033932 -0.03253235 0.00754569
v 0.04033932 -0.03253235 0.00754569
v 0.04033932 -0.03253235 0.00754569
v 0.04192154 -0.03251233 0.01071124
v 0.04192154 -0.03251233 0.01071124
v 0.03559498 -0.03253902 0.00754569
v 0.03559498 -0.03253902 0.00754569
v 0.03559498 -0.03253902 0.00754569
v 0.02926842 -0.03254569 0.00754569
v 0.02926842 -0.03254569 0.00754569
v 0.02926842 -0.03254569 0.00754569
v 0.02926842 -0.03254569 0.00754569
v 0.02440130 -0.03253235 0.01071124
v 0.02440130 -0.03253235 0.01071124
v 0.02440130 0.03544979 0.04552347
v 0.02440130 0.03544979 0.04552347
v 0.02440130 0.03544979 0.04552347
v 0.02609008 0.03546980 0.04552347
v 0.02609008 0.03546980 0.04552347
v 0.02609008 0.03546980 0.04552347
v 0.03241664 0.03552984 0.04552347
v 0.03241664 0.03552984 0.04552347
v 0.04350144 0.03558988 0.04552347
v 0.04350144 0.03558988 0.04552347
v 0.04350144 0.03558988 0.04552347
v 0.04350144 0.03558988 0.04552347
v 0.04350144 0.03558988 0.04552347
v 0.04350144 0.03558988 0.04552347
v 0.04350144 0.03558988 0.04550578
v 0.04350144 0.03558988 0.04550578
v 0.04350144 0.03558988 0.04550578
v 0.04350144 0.03558988 0.04550578
v 0.04508366 0.03530971 0.00912847
v 0.04508366 0.03530971 0.00912847
v 0.04508366 0.03530971 0.00912847
v 0.04508366 0.03530971 0.00912847
v 0.04508366 0.03527635 0.03285242
v 0.04508366 0.03527635 0.03285242
v 0.04508366 0.03527635 0.03285242
v 0.04508366 0.03527635 0.03285242
v 0.04507208 0.03524967 0.04552347
v 0.04507208 0.03524967 0.04552347
v 0.04507208 0.03524967 0.04552347
v 0.04507208 0.03524967 0.04552347
v 0.04507208 0.03524967 0.04552347
v 0.04595933 0.03489611 0.03285242
v 0.04595933 0.03489611 0.03285242
v 0.04595933 0.03489611 0.03285242
v 0.04595933 0.03489611 0.03285242
v 0.04595933 0.03489611 0.03285242
v 0.04595933 0.03489611 0.03285242
v 0.04595933 0.03489611 0.03285242
v 0.04595933 0.03489611 0.03285242
v 0.04745815 0.03321507 0.02577414
v 0.04745815 0.03321507 0.02577414
v 0.04745815 0.03321507 0.02577414
v 0.04745815 0.03321507 0.02577414
v 0.04745815 0.03321507 0.02577414
v 0.04745815 0.03321507 0.02577414
v 0.04745815 0.03321507 0.02577414
v 0.04745815 0.03321507 0.02577414
v 0.04757629 0.03256800 0.02639310
v 0.04757629 0.03256800 0.02639310
v 0.04757629 0.03256800 0.02639310
v 0.04755313 0.03218110 0.04552347
v 0.04755313 0.03218110 0.04552347
v 0.04755313 0.03218110 0.04552347
v 0.04755313 0.03218110 0.04552347
v 0.04755313 0.03218110 0.04552347
v 0.04755313 0.03218110 0.04552347
v 0.04755313 0.03218110 0.04552347
v 0.04755313 0.03218110 0.04552347
v 0.04785428 0.03084694 0.00912847
v 0.04785428 0.03084694 0.00912847
v 0.04785428 0.03084694 0.00912847
v 0.04785428 0.03084694 0.00912847
v 0.04785428 0.03084694 0.00912847
v 0.04786355 0.02926596 0.00912847
v 0.04786355 0.02926596 0.00912847
v 0.04786355 0.02926596 0.00912847
v 0.04786355 0.02926596 0.00912847
v 0.04786355 0.02926596 0.00912847
v 0.04786355 0.02926596 0.00912847
v 0.04787513 0.02767831 0.00754569
v 0.04787513 0.02767831 0.00754569
v 0.04787513 0.02767831 0.00754569
v 0.04805814 -0.02451404 0.00754569
v 0.04805814 -0.02451404 0.00754569
v 0.04805814 -0.02451404 0.00754569
v 0.04806046 -0.02610169 0.00912847
v 0.04806046 -0.02610169 0.00912847
v 0.04806046 -0.02610169 0.00912847
v 0.04806046 -0.02610169 0.00912847
v 0.04806046 -0.02610169 0.00912847
v 0.04806509 -0.02768267 0.00754569
v 0.04806509 -0.02768267 0.00754569
v 0.04806509 -0.02768267 0.00754569
v 0.04806509 -0.02768267 0.00754569
v 0.04806277 -0.02768267 0.00912847
v 0.04806277 -0.02768267 0.00912847
v 0.04806277 -0.02768267 0.00912847
v 0.04806277 -0.02768267 0.00912847
v 0.04806277 -0.02768267 0.00912847
v 0.04793304 -0.02768267 0.04552347
v 0.04793304 -0.02768267 0.04552347
v 0.04793304 -0.02768267 0.04552347
v 0.04793304 -0.02768267 0.04552347
v 0.04793304 -0.02768267 0.04552347
v 0.04793304 -0.02768267 0.04552347
v 0.04787281 -0.02926365 0.01071124
v 0.04787281 -0.02926365 0.01071124
v 0.04787281 -0.02926365 0.01071124
v 0.04747205 -0.03007081 0.04552347
v 0.04747205 -0.03007081 0.04552347
v 0.04747205 -0.03007081 0.04552347
v 0.04747205 -0.03007081 0.04552347
v 0.04747205 -0.03007081 0.04552347
v 0.04747205 -0.03007081 0.04552347
v 0.04747205 -0.03007081 0.04552347
v 0.04747205 -0.03007081 0.04552347
v 0.04596396 -0.03172518 0.04392743
v 0.04596396 -0.03172518 0.04392743
v 0.04596396 -0.03172518 0.04392743
v 0.04596396 -0.03172518 0.04392743
v 0.04596396 -0.03172518 0.04392743
v 0.04596396 -0.03172518 0.04392743
v 0.04596396 -0.03172518 0.04392743
v 0.04596396 -0.03172518 0.04392743
v 0.04596396 -0.03172518 0.04392743
v 0.04596396 -0.03172518 0.04392743
v 0.04596396 -0.03172518 0.04392743
v 0.04601261 -0.03177854 0.02494296
v 0.04601261 -0.03177854 0.02494296
v 0.04601261 -0.03177854 0.02494296
v 0.04601261 -0.03177854 0.02494296
v 0.04508366 -0.03224550 0.00596292
v 0.04508366 -0.03224550 0.00596292
v 0.04508366 -0.03224550 0.00596292
v 0.04508366 -0.03224550 0.00596292
v 0.04508366 -0.03224550 0.00596292
v 0.04350144 -0.03245229 0.01862070
v 0.04350144 -0.03245229 0.01862070
v 0.04033932 -0.03251900 0.01071124
v 0.04033932 -0.03251900 0.01071124
v 0.03717488 -0.03253235 0.00912847
v 0.03717488 -0.03253235 0.00912847
v 0.03717488 -0.03253235 0.00912847
v 0.03717488 -0.03253235 0.00912847
v 0.04192154 -0.03247898 0.01862070
v 0.04192154 -0.03247898 0.01862070
v 0.04192154 -0.03247898 0.01862070
v 0.04192154 -0.03247898 0.01862070
v 0.04192154 -0.03247898 0.01862070
v 0.03084832 -0.03253902 0.00912847
v 0.03084832 -0.03253902 0.00912847
v 0.03084832 -0.03253902 0.00912847
v 0.02440130 -0.03249899 0.01862070
v 0.02440130 -0.03249899 0.01862070
v 0.03084832 -0.03253235 0.01071124
v 0.03084832 -0.03253235 0.01071124
v 0.02440130 -0.03099139 0.04552347
v 0.02440130 -0.03099139 0.04552347
v 0.02440130 -0.03099139 0.04552347
v 0.04591531 0.03485609 0.04552347
v 0.04591531 0.03485609 0.04552347
v 0.04591531 0.03485609 0.04552347
v 0.04592226 0.03484942 0.04552347
v 0.04592226 0.03484942 0.04552347
v 0.04592226 0.03484942 0.04552347
v 0.04664966 0.03401557 0.04552347
v 0.04664966 0.03401557 0.04552347
v 0.04664966 0.03401557 0.04552347
v 0.04664966 0.03401557 0.04552347
v 0.04739328 0.03298160 0.04552347
v 0.04739328 0.03298160 0.04552347
v 0.04739328 0.03298160 0.04552347
v 0.04740023 0.03296825 0.04552347
v 0.04740023 0.03296825 0.04552347
v 0.04740023 0.03296825 0.04552347
v 0.04765042 0.03085361 0.04552347
v 0.04765042 0.03085361 0.04552347
v 0.04765042 0.03085361 0.04552347
v 0.04768981 0.03084694 0.03917910
v 0.04768981 0.03084694 0.03917910
v 0.04768981 0.03084694 0.03917910
v 0.04768981 0.03084694 0.03917910
v 0.04769907 0.03084694 0.03759632
v 0.04769907 0.03084694 0.03759632
v 0.04769907 0.03084694 0.03759632
v 0.04769907 0.03084694 0.03759632
v 0.04769907 0.03084694 0.03759632
v 0.04792610 -0.02608835 0.04552347
v 0.04792610 -0.02608835 0.04552347
v 0.04792610 -0.02608835 0.04552347
v 0.04792610 -0.02608835 0.04552347
v 0.04792610 -0.02608835 0.04552347
v 0.04793304 -0.02766933 0.04552347
v 0.04793304 -0.02766933 0.04552347
v 0.04793304 -0.02766933 0.04552347
v 0.04793304 -0.02766933 0.04552347
v 0.04793304 -0.02766933 0.04552347
v 0.04793304 -0.02766933 0.04552347
v 0.04771065 -0.02925031 0.04552347
v 0.04771065 -0.02925031 0.04552347
v 0.04771065 -0.02925031 0.04552347
v 0.04771065 -0.02925031 0.04552347
v 0.04785197 -0.02926365 0.01545515
v 0.04785197 -0.02926365 0.01545515
v 0.04785197 -0.02926365 0.01545515
v 0.04785197 -0.02926365 0.01545515
v 0.04785197 -0.02926365 0.01545515
v 0.04675159 -0.03085130 0.04552347
v 0.04675159 -0.03085130 0.04552347
v 0.04675159 -0.03085130 0.04552347
v 0.04674232 -0.03086464 0.04550578
v 0.04674232 -0.03086464 0.04550578
v 0.04674232 -0.03086464 0.04550578
v 0.04674232 -0.03086464 0.04550578
v 0.04770834 -0.02926365 0.04552347
v 0.04770834 -0.02926365 0.04552347
v 0.04770834 -0.02926365 0.04552347
v 0.04770834 -0.02926365 0.04552347
v 0.04595933 -0.03170516 0.04552347
v 0.04595933 -0.03170516 0.04552347
v 0.04595933 -0.03170516 0.04552347
v 0.04595933 -0.03170516 0.04552347
v 0.04595933 -0.03170516 0.04552347
v 0.04595237 -0.03171183 0.04552347
v 0.04595237 -0.03171183 0.04552347
v 0.04595237 -0.03171183 0.04552347
v 0.04595237 -0.03171183 0.04552347
v 0.04509061 -0.03204538 0.04552347
v 0.04509061 -0.03204538 0.04552347
v 0.04509061 -0.03204538 0.04552347
v 0.04509061 -0.03204538 0.04552347
v 0.04508366 -0.03206539 0.04392743
v 0.04508366 -0.03206539 0.04392743
v 0.04508366 -0.03206539 0.04392743
v 0.04508366 -0.03206539 0.04392743
v 0.04508366 -0.03206539 0.04392743
v 0.04508366 -0.03206539 0.04392743
v 0.04508366 -0.03215210 0.02652574
v 0.04508366 -0.03215210 0.02652574
v 0.04508366 -0.03215210 0.02652574
v 0.04508366 -0.03215210 0.02652574
v 0.04508366 -0.03215210 0.02652574
v 0.04350144 -0.03243895 0.02178183
v 0.04350144 -0.03243895 0.02178183
v 0.04350144 -0.03243895 0.02178183
v 0.04350144 -0.03243895 0.02178183
v 0.04350144 -0.03243895 0.02178183
v 0.03717488 -0.03252567 0.01071124
v 0.03717488 -0.03252567 0.01071124
v 0.04033932 -0.03248565 0.01862070
v 0.04033932 -0.03248565 0.01862070
v 0.04033932 -0.03248565 0.01862070
v 0.04033932 -0.03248565 0.01862070
v 0.04033932 -0.03248565 0.01862070
v 0.04350144 -0.03237224 0.03601797
v 0.04350144 -0.03237224 0.03601797
v 0.04350144 -0.03237224 0.03601797
v 0.04350144 -0.03237224 0.03601797
v 0.04350144 -0.03237224 0.03601797
v 0.04350144 -0.03237224 0.03601797
v 0.04192154 -0.03235890 0.04392743
v 0.04192154 -0.03235890 0.04392743
v 0.04192154 -0.03235890 0.04392743
v 0.04192154 -0.03235890 0.04392743
v 0.04192154 -0.03235890 0.04392743
v 0.02926842 -0.03249899 0.01862070
v 0.02440130 -0.03248565 0.02178183
v 0.02440130 -0.03248565 0.02178183
v 0.03084832 -0.03250566 0.01703793
v 0.03084832 -0.03250566 0.01703793
v 0.03084832 -0.03250566 0.01703793
v 0.02440130 -0.03237224 0.04551904
v 0.02440130 -0.03237224 0.04551904
v 0.02440130 -0.03237224 0.04551904
v 0.02452176 -0.03237224 0.04552347
v 0.02452176 -0.03237224 0.04552347
v 0.02452176 -0.03237224 0.04552347
v 0.02452176 -0.03237224 0.04552347
v 0.04351534 -0.03231888 0.04552347
v 0.04351534 -0.03231888 0.04552347
v 0.04351534 -0.03231888 0.04552347
v 0.04351534 -0.03231888 0.04552347
v 0.04350144 -0.03233222 0.04392743
v 0.04350144 -0.03233222 0.04392743
v 0.04350144 -0.03233222 0.04392743
v 0.04350144 -0.03233222 0.04392743
v 0.03717488 -0.03249899 0.01703793
v 0.03717488 -0.03249899 0.01703793
v 0.03717488 -0.03249899 0.01703793
v 0.03717488 -0.03249899 0.01703793
v 0.03717488 -0.03249899 0.01703793
v 0.03875710 -0.03239892 0.03759632
v 0.03875710 -0.03239892 0.03759632
v 0.03875710 -0.03239892 0.03759632
v 0.03875710 -0.03239892 0.03759632
v 0.04033932 -0.03236557 0.04392743
v 0.04033932 -0.03236557 0.04392743
v 0.04033932 -0.03236557 0.04392743
v 0.04033932 -0.03236557 0.04392743
v 0.04033932 -0.03236557 0.04392743
v 0.04193312 -0.03234556 0.04552347
v 0.04193312 -0.03234556 0.04552347
v 0.04193312 -0.03234556 0.04552347
v 0.04035322 -0.03235223 0.04552347
v 0.04035322 -0.03235223 0.04552347
v 0.02926842 -0.03249232 0.02019905
v 0.02926842 -0.03249232 0.02019905
v 0.02926842 -0.03249232 0.02019905
v 0.02926842 -0.03249232 0.02019905
v 0.02926842 -0.03249232 0.02019905
v 0.02768620 -0.03248565 0.02178183
v 0.02768620 -0.03248565 0.02178183
v 0.02768620 -0.03248565 0.02178183
v 0.02768620 -0.03248565 0.02178183
v 0.02440130 -0.03247898 0.02336019
v 0.02440130 -0.03247898 0.02336019
v 0.02440130 -0.03247898 0.02336019
v 0.02440130 -0.03241894 0.03589860
v 0.02440130 -0.03241894 0.03589860
v 0.02440130 -0.03241894 0.03589860
v 0.02440130 -0.03241894 0.03589860
v 0.02611787 -0.03237224 0.04552347
v 0.02611787 -0.03237224 0.04552347
v 0.02611787 -0.03237224 0.04552347
v 0.02611787 -0.03237224 0.04552347
v 0.02611787 -0.03237224 0.04552347
v 0.02611787 -0.03237224 0.04552347
v 0.02611787 -0.03237224 0.04552347
v 0.03559498 -0.03248565 0.02019905
v 0.03559498 -0.03248565 0.02019905
v 0.03717488 -0.03238558 0.04076188
v 0.03717488 -0.03238558 0.04076188
v 0.03717488 -0.03238558 0.04076188
v 0.03717488 -0.03238558 0.04076188
v 0.03717488 -0.03238558 0.04076188
v 0.03877100 -0.03235890 0.04552347
v 0.03877100 -0.03235890 0.04552347
v 0.03877100 -0.03235890 0.04552347
v 0.03877100 -0.03235890 0.04552347
v 0.02440130 -0.03247231 0.02482359
v 0.02440130 -0.03247231 0.02482359
v 0.02440130 -0.03247231 0.02482359
v 0.02440130 -0.03247231 0.02482359
v 0.02440130 -0.03247231 0.02482359
v 0.02452176 -0.03247898 0.02336019
v 0.02452176 -0.03247898 0.02336019
v 0.02452176 -0.03247898 0.02336019
f 3 5 11
f 2 9 14
f 1 13 54
f 1 54 21
f 4 23 25
f 4 25 6
f 7 26 72
f 7 72 167
f 7 167 278
f 7 278 434
f 7 434 613
f 7 613 627
f 7 627 824
f 7 824 821
f 7 821 993
f 7 993 1137
f 7 1137 1251
f 7 1251 1300
f 7 1300 1327
f 7 1327 1304
f 7 1304 1257
f 7 1257 1142
f 7 1142 996
f 7 996 851
f 7 851 845
f 7 845 834
f 7 834 632
f 7 632 450
f 7 450 444
f 7 444 281
f 7 281 172
f 7 172 77
f 7 77 31
f 7 31 12
f 8 27 32
f 10 34 15
f 17 39 41
f 18 43 46
f 16 45 112
f 16 112 58
f 20 53 61
f 20 61 68
f 19 66 70
f 22 71 24
f 30 75 82
f 29 78 87
f 28 84 33
f 35 86 90
f 36 92 94
f 37 96 98
f 38 99 40
f 43 102 46
f 42 101 106
f 44 107 103
f 47 104 108
f 48 109 116
f 52 117 122
f 51 121 127
f 50 126 135
f 49 134 211
f 49 211 115
f 59 113 140
f 57 139 147
f 56 145 151
f 55 149 64
f 63 148 154
f 62 153 164
f 60 162 67
f 65 161 166
f 65 166 69
f 76 169 178
f 74 173 182
f 73 181 81
f 80 179 190
f 79 188 88
f 83 187 195
f 85 196 89
f 91 197 93
f 95 198 97
f 100 199 105
f 110 200 203
f 111 204 118
f 114 208 142
f 120 215 123
f 119 206 214
f 125 218 335
f 125 335 221
f 124 220 128
f 131 224 226
f 132 227 229
f 133 230 236
f 130 235 245
f 129 244 137
f 136 243 213
f 141 250 260
f 138 257 146
f 143 209 252
f 146 257 159
f 144 156 150
f 158 256 264
f 157 263 273
f 155 271 277
f 152 276 163
f 160 275 165
f 171 279 285
f 170 282 290
f 168 289 177
f 176 287 297
f 175 292 304
f 174 303 183
f 180 301 192
f 186 308 194
f 191 299 311
f 189 309 315
f 184 314 318
f 185 319 306
f 193 307 320
f 202 321 325
f 201 324 205
f 207 326 216
f 212 242 334
f 210 330 253
f 217 328 341
f 219 343 336
f 223 353 225
f 222 337 351
f 228 356 231
f 232 357 363
f 233 364 369
f 234 370 237
f 238 375 248
f 239 371 376
f 247 374 382
f 246 381 391
f 241 387 397
f 240 395 333
f 254 398 588
f 254 588 407
f 251 404 411
f 249 410 259
f 255 331 399
f 258 408 267
f 266 412 419
f 265 418 425
f 262 423 430
f 261 429 272
f 267 408 413
f 269 433 274
f 270 427 440
f 268 436 612
f 268 612 432
f 280 443 286
f 284 442 449
f 283 448 291
f 288 447 298
f 296 445 453
f 295 451 457
f 294 455 459
f 294 459 466
f 293 465 305
f 302 462 468
f 302 468 473
f 300 471 480
f 300 480 312
f 310 478 316
f 313 476 488
f 313 488 317
f 322 481 327
f 323 489 482
f 329 483 342
f 332 392 400
f 339 493 496
f 340 497 352
f 338 345 492
f 344 485 499
f 348 503 507
f 350 508 514
f 349 513 517
f 347 516 358
f 346 355 495
f 354 498 494
f 359 520 522
f 360 523 527
f 362 528 533
f 361 531 367
f 368 532 538
f 366 537 545
f 365 544 373
f 372 542 378
f 379 543 553
f 377 552 384
f 383 551 559
f 380 558 390
f 389 557 565
f 388 564 574
f 385 573 578
f 386 579 396
f 394 575 582
f 393 581 402
f 401 580 589
f 406 587 594
f 405 593 417
f 403 414 409
f 416 592 599
f 415 598 421
f 422 600 797
f 422 797 609
f 420 608 426
f 424 607 431
f 428 606 441
f 439 605 618
f 438 614 622
f 437 621 626
f 435 625 611
f 446 630 635
f 446 635 454
f 452 633 640
f 452 640 458
f 456 636 644
f 456 644 461
f 460 642 652
f 460 652 467
f 464 646 657
f 463 655 664
f 463 664 469
f 469 664 474
f 472 659 671
f 470 668 479
f 477 665 677
f 475 673 487
f 484 490 679
f 486 682 500
f 491 674 680
f 501 683 685
f 502 689 504
f 505 691 693
f 506 695 697
f 511 700 702
f 512 704 524
f 510 521 519
f 509 518 515
f 526 705 708
f 525 707 529
f 530 709 534
f 535 711 714
f 536 715 539
f 540 716 720
f 541 721 547
f 548 726 733
f 546 732 556
f 549 722 737
f 550 738 727
f 555 730 745
f 554 744 561
f 560 741 569
f 568 747 755
f 567 753 761
f 566 760 769
f 562 767 773
f 563 774 571
f 570 742 751
f 572 775 577
f 576 771 586
f 585 770 778
f 584 777 785
f 583 781 591
f 590 780 595
f 596 782 786
f 597 787 601
f 602 788 791
f 603 792 800
f 610 798 806
f 604 804 812
f 604 812 617
f 616 809 816
f 615 814 623
f 623 814 820
f 619 818 822
f 620 823 624
f 628 826 639
f 629 641 634
f 631 833 827
f 638 825 831
f 637 830 645
f 643 829 653
f 647 837 658
f 651 828 840
f 650 839 843
f 649 842 849
f 648 848 838
f 656 835 857
f 656 857 862
f 654 860 663
f 663 860 864
f 662 863 869
f 661 868 874
f 660 872 672
f 670 871 877
f 669 876 883
f 667 882 888
f 666 887 678
f 676 885 890
f 675 889 681
f 684 894 686
f 687 895 1014
f 687 1014 896
f 688 901 903
f 690 904 906
f 692 909 694
f 696 910 698
f 699 911 913
f 701 915 703
f 706 918 710
f 712 920 922
f 713 924 717
f 718 926 928
f 719 930 723
f 725 932 937
f 724 935 740
f 729 936 735
f 728 739 934
f 736 940 945
f 734 944 956
f 731 951 746
f 743 950 752
f 749 957 967
f 748 966 756
f 750 947 961
f 754 965 762
f 759 963 974
f 758 971 796
f 757 795 768
f 764 793 790
f 763 789 783
f 765 784 776
f 766 779 772
f 794 969 801
f 799 976 984
f 799 984 807
f 802 970 1115
f 802 1115 977
f 803 981 811
f 805 983 1123
f 805 1123 982
f 808 986 991
f 808 991 815
f 810 979 987
f 813 989 819
f 817 988 1133
f 817 1133 1138
f 817 1138 992
f 832 844 841
f 836 846 858
f 850 995 999
f 847 998 859
f 856 1001 861
f 852 997 994
f 852 994 1140
f 852 1140 1259
f 852 1259 1306
f 852 1306 1319
f 852 1319 1287
f 852 1287 1284
f 852 1284 1262
f 852 1262 1211
f 852 1211 1207
f 855 1210 1206
f 852 1202 1191
f 852 1191 1092
f 852 1092 1198
f 854 1199 1183
f 852 1182 1083
f 853 1084 1177
f 852 1176 1171
f 852 1171 1159
f 852 1159 1044
f 852 1044 1156
f 852 1156 1153
f 852 1153 1149
f 852 1149 1146
f 852 1146 1143
f 852 1143 1020
f 852 1020 1002
f 852 1002 879
f 852 879 875
f 852 875 866
f 852 866 1000
f 861 1001 870
f 861 870 865
f 867 878 873
f 881 1003 1009
f 880 1008 884
f 886 1010 891
f 893 1011 1005
f 892 1004 1012
f 897 1015 1018
f 898 1019 1022
f 899 1023 1025
f 900 1028 902
f 905 1029 907
f 908 1030 1033
f 912 1037 914
f 917 1043 1047
f 919 1048 1052
f 921 1053 923
f 916 1040 1042
f 925 1056 1060
f 925 1060 927
f 929 1061 1063
f 931 1065 1070
f 931 1070 1066
f 933 1067 938
f 939 1068 1072
f 941 1073 1082
f 941 1082 1076
f 942 1077 946
f 943 1075 955
f 954 1074 1079
f 953 1078 1087
f 952 1086 1091
f 949 1089 1097
f 948 1096 962
f 960 1095 1110
f 959 1107 1114
f 958 1113 968
f 964 1112 975
f 973 1111 1105
f 972 1104 1119
f 978 1116 1121
f 976 1120 1132
f 976 1132 984
f 980 1122 1232
f 980 1232 1127
f 979 1126 987
f 983 1129 1237
f 983 1237 1123
f 985 1125 1135
f 985 1135 990
f 992 1138 1249
f 992 1249 1136
f 1007 1021 1017
f 1006 1016 1013
f 1024 1144 1026
f 1027 1145 1147
f 1031 1148 1150
f 1032 1151 1034
f 1035 1152 1154
f 1036 1155 1157
f 1038 1158 1045
f 1039 1046 1041
f 1051 1160 1163
f 1050 1162 1167
f 1049 1166 1054
f 1055 1168 1057
f 1058 1170 1174
f 1059 1175 1178
f 1062 1179 1064
f 1064 1179 1069
f 1071 1180 1080
f 1081 1181 1088
f 1085 1185 1189
f 1086 1190 1091
f 1090 1186 1098
f 1093 1193 1195
f 1094 1197 1109
f 1099 1187 1200
f 1108 1196 1205
f 1106 1203 1209
f 1102 1208 1214
f 1101 1213 1220
f 1100 1219 1224
f 1103 1225 1118
f 1117 1222 1230
f 1116 1228 1121
f 1120 1227 1132
f 1122 1235 1232
f 1124 1231 1139
f 1124 1139 1134
f 1131 1226 1239
f 1130 1238 1246
f 1128 1245 1283
f 1128 1283 1236
f 1136 1249 1294
f 1136 1294 1250
f 1139 1231 1272
f 1139 1272 1254
f 1138 1252 1249
f 1141 1256 1261
f 1161 1172 1164
f 1165 1173 1169
f 1184 1201 1188
f 1192 1204 1194
f 1212 1265 1218
f 1215 1264 1268
f 1216 1269 1242
f 1217 1243 1223
f 1221 1241 1229
f 1232 1235 1274
f 1233 1277 1273
f 1234 1281 1278
f 1240 1267 1248
f 1247 1266 1263
f 1247 1263 1286
f 1244 1285 1288
f 1244 1288 1322
f 1244 1322 1282
f 1249 1252 1289
f 1249 1289 1294
f 1250 1294 1328
f 1250 1328 1298
f 1253 1271 1313
f 1253 1313 1293
f 1255 1303 1260
f 1258 1301 1305
f 1270 1275 1317
f 1270 1317 1312
f 1276 1280 1318
f 1279 1321 1316
f 1292 1312 1317
f 1291 1314 1310
f 1290 1309 1297
f 1295 1325 1330
f 1296 1308 1326
f 1299 1329 1323
f 1302 1324 1307
f 1311 1315 1320

