# https://github.com/mikedh/trimesh
v -0.02452151 0.03182752 0.00035688
v -0.02452151 0.03182752 0.00035688
v -0.02452151 0.03182752 0.00035688
v -0.02452151 0.03182752 0.00035688
v -0.02452151 0.03182752 0.00035688
v -0.02431692 0.03182085 0.00036130
v -0.02431692 0.03182085 0.00036130
v -0.02431692 0.03182085 0.00036130
v -0.02452151 0.03151399 0.00035688
v -0.02452151 0.03151399 0.00035688
v -0.02452151 0.03151399 0.00035688
v -0.02452151 0.03151399 0.00035688
v -0.02610240 0.03181418 0.00036130
v -0.02610240 0.03181418 0.00036130
v -0.02610240 0.03181418 0.00036130
v -0.02610240 0.03181418 0.00036130
v -0.02610240 0.03181418 0.00036130
v -0.02610240 0.03181418 0.00036130
v -0.02610240 0.03181418 0.00036130
v -0.02452151 0.03262134 0.00065310
v -0.02452151 0.03262134 0.00065310
v -0.02452151 0.03262134 0.00065310
v -0.02452151 0.03262134 0.00065310
v -0.02452151 0.03262134 0.00065310
v -0.02452151 0.03262134 0.00065310
v -0.02452151 0.03262134 0.00065310
v -0.02452151 0.03262134 0.00065310
v -0.02452151 0.03262134 0.00065310
v -0.02431692 0.03261467 0.00065310
v -0.02431692 0.03261467 0.00065310
v -0.02431692 0.03261467 0.00065310
v -0.02431692 0.03261467 0.00065310
v -0.02431692 0.03152066 0.00036130
v -0.02431692 0.03152066 0.00036130
v -0.02431692 0.03152066 0.00036130
v -0.02610240 0.03152066 0.00036130
v -0.02610240 0.03152066 0.00036130
v -0.02610240 0.03152066 0.00036130
v -0.02610240 0.03152066 0.00036130
v -0.02431692 0.00079495 0.00044531
v -0.02431692 0.00079495 0.00044531
v -0.02431692 0.00079495 0.00044531
v -0.02431692 0.00079495 0.00044531
v -0.02431692 0.00079495 0.00044531
v -0.02431692 0.00079495 0.00044531
v -0.02431692 0.00079495 0.00044531
v -0.02431692 0.00079495 0.00044531
v -0.02431692 0.00079495 0.00044531
v -0.03327683 0.03164073 0.00042320
v -0.03327683 0.03164073 0.00042320
v -0.03327683 0.03164073 0.00042320
v -0.03327683 0.03164073 0.00042320
v -0.03327683 0.03164073 0.00042320
v -0.03327683 0.03164073 0.00042320
v -0.03327683 0.03164073 0.00042320
v -0.04192055 0.03242789 0.00083879
v -0.04192055 0.03242789 0.00083879
v -0.04192055 0.03242789 0.00083879
v -0.04192055 0.03242789 0.00083879
v -0.04192055 0.03242789 0.00083879
v -0.04192055 0.03242789 0.00083879
v -0.04192055 0.03242789 0.00083879
v -0.03084970 0.03247458 0.00067078
v -0.03084970 0.03247458 0.00067078
v -0.03084970 0.03247458 0.00067078
v -0.03084970 0.03247458 0.00067078
v -0.02610240 0.03260133 0.00066194
v -0.02610240 0.03260133 0.00066194
v -0.02610240 0.03260133 0.00066194
v -0.02610240 0.03260133 0.00066194
v -0.02610240 0.03260133 0.00066194
v -0.02610240 0.03260133 0.00066194
v -0.03559469 0.03400887 0.00132512
v -0.03559469 0.03400887 0.00132512
v -0.03559469 0.03400887 0.00132512
v -0.03559469 0.03400887 0.00132512
v -0.03559469 0.03400887 0.00132512
v -0.03243059 0.03400887 0.00129417
v -0.03243059 0.03400887 0.00129417
v -0.03243059 0.03400887 0.00129417
v -0.03243059 0.03400887 0.00129417
v -0.03084970 0.03400887 0.00128533
v -0.03084970 0.03400887 0.00128533
v -0.03084970 0.03400887 0.00128533
v -0.03084970 0.03400887 0.00128533
v -0.03084970 0.03400887 0.00128533
v -0.03084970 0.03400887 0.00128533
v -0.02610240 0.03400887 0.00128533
v -0.02610240 0.03400887 0.00128533
v -0.02610240 0.03400887 0.00128533
v -0.02610240 0.03400887 0.00128533
v -0.02610240 0.03400887 0.00128533
v -0.02431692 0.03400887 0.00129859
v -0.02431692 0.03400887 0.00129859
v -0.02431692 0.03400887 0.00129859
v -0.02431692 0.03400887 0.00129859
v -0.02431692 0.03400887 0.00129859
v -0.02431692 0.03400887 0.00129859
v -0.03327683 0.03163406 0.00042320
v -0.03327683 0.03163406 0.00042320
v -0.03327683 0.03163406 0.00042320
v -0.03327683 0.03163406 0.00042320
v -0.03327683 0.03163406 0.00042320
v -0.02431692 -0.02926368 0.00060447
v -0.02431692 -0.02926368 0.00060447
v -0.02431692 -0.02926368 0.00060447
v -0.02768560 -0.02926368 0.00060447
v -0.02768560 -0.02926368 0.00060447
v -0.02768560 -0.02926368 0.00060447
v -0.02768560 -0.02926368 0.00060447
v -0.02768560 -0.02926368 0.00060447
v -0.02768560 -0.02926368 0.00060447
v -0.03243059 -0.02926368 0.00062657
v -0.03243059 -0.02926368 0.00062657
v -0.03243059 -0.02926368 0.00062657
v -0.03243059 -0.02926368 0.00062657
v -0.03401380 -0.02926368 0.00063541
v -0.03401380 -0.02926368 0.00063541
v -0.03559469 -0.02926368 0.00064426
v -0.03559469 -0.02926368 0.00064426
v -0.03559469 -0.02926368 0.00064426
v -0.03559469 -0.02926368 0.00064426
v -0.03717557 -0.02926368 0.00065752
v -0.03717557 -0.02926368 0.00065752
v -0.03717557 -0.02926368 0.00065752
v -0.03717557 -0.02926368 0.00065752
v -0.03717557 -0.02926368 0.00065752
v -0.03717557 -0.02926368 0.00065752
v -0.03717557 -0.02926368 0.00065752
v -0.03717557 -0.02926368 0.00065752
v -0.04508465 -0.01660917 0.00069731
v -0.04508465 -0.01660917 0.00069731
v -0.04508465 -0.01660917 0.00069731
v -0.04508465 -0.01660917 0.00069731
v -0.04508465 0.01186181 0.00075479
v -0.04508465 0.01186181 0.00075479
v -0.04508465 0.01186181 0.00075479
v -0.04508465 0.01186181 0.00075479
v -0.04508465 0.02767828 0.00079016
v -0.04508465 0.02767828 0.00079016
v -0.04508465 0.02767828 0.00079016
v -0.04508465 0.02767828 0.00079016
v -0.04508465 0.02767828 0.00079016
v -0.04508465 0.02767828 0.00079016
v -0.04508465 0.02767828 0.00079016
v -0.04508465 0.02767828 0.00079016
v -0.04350144 0.03084691 0.00079016
v -0.04350144 0.03084691 0.00079016
v -0.04350144 0.03084691 0.00079016
v -0.04350144 0.03084691 0.00079016
v -0.04350144 0.03084691 0.00079016
v -0.04350144 0.03084691 0.00079016
v -0.04350144 0.03242789 0.00096258
v -0.04350144 0.03242789 0.00096258
v -0.04350144 0.03242789 0.00096258
v -0.04350144 0.03242789 0.00096258
v -0.04350144 0.03242789 0.00096258
v -0.04350144 0.03242789 0.00096258
v -0.04350144 0.03400887 0.00148870
v -0.04350144 0.03400887 0.00148870
v -0.04350144 0.03400887 0.00148870
v -0.04350144 0.03400887 0.00148870
v -0.04350144 0.03400887 0.00148870
v -0.04192055 0.03400887 0.00139585
v -0.04192055 0.03400887 0.00139585
v -0.04192055 0.03400887 0.00139585
v -0.04192055 0.03400887 0.00139585
v -0.04192055 0.03400887 0.00139585
v -0.04192055 0.03400887 0.00139585
v -0.04033967 0.03400887 0.00137817
v -0.04033967 0.03400887 0.00137817
v -0.04033967 0.03400887 0.00137817
v -0.04033967 0.03400887 0.00137817
v -0.04350144 0.03498281 0.00184239
v -0.04350144 0.03498281 0.00184239
v -0.04350144 0.03498281 0.00184239
v -0.04350144 0.03498281 0.00184239
v -0.04350144 0.03498281 0.00184239
v -0.04350144 0.03498281 0.00184239
v -0.04350144 0.03498281 0.00184239
v -0.04350144 0.03498281 0.00184239
v -0.04350144 0.03498281 0.00184239
v -0.03717557 0.03498948 0.00183355
v -0.03717557 0.03498948 0.00183355
v -0.03717557 0.03498948 0.00183355
v -0.03717557 0.03498948 0.00183355
v -0.03243059 0.03498948 0.00182471
v -0.03243059 0.03498948 0.00182471
v -0.03243059 0.03498948 0.00182471
v -0.03243059 0.03498948 0.00182471
v -0.03243059 0.03498948 0.00182471
v -0.03243059 0.03498948 0.00182471
v -0.03243059 0.03498948 0.00182471
v -0.02768560 0.03496946 0.00183355
v -0.02768560 0.03496946 0.00183355
v -0.02768560 0.03496946 0.00183355
v -0.02768560 0.03496946 0.00183355
v -0.02768560 0.03496946 0.00183355
v -0.02610240 0.03495612 0.00184239
v -0.02610240 0.03495612 0.00184239
v -0.02610240 0.03495612 0.00184239
v -0.02610240 0.03495612 0.00184239
v -0.02610240 0.03495612 0.00184239
v -0.02610240 0.03495612 0.00184239
v -0.02610240 0.03495612 0.00184239
v -0.02431692 0.03481604 0.00179376
v -0.02431692 0.03481604 0.00179376
v -0.02431692 0.03481604 0.00179376
v -0.04508465 -0.01819015 0.00069731
v -0.04508465 -0.01819015 0.00069731
v -0.04508465 -0.01819015 0.00069731
v -0.04508465 -0.01819015 0.00069731
v -0.04508465 -0.01819015 0.00069731
v -0.04508465 -0.01819015 0.00069731
v -0.02431692 -0.02946381 0.00065752
v -0.02431692 -0.02946381 0.00065752
v -0.02431692 -0.02946381 0.00065752
v -0.02431692 -0.02946381 0.00065752
v -0.02610240 -0.03084466 0.00104216
v -0.02610240 -0.03084466 0.00104216
v -0.02610240 -0.03084466 0.00104216
v -0.02610240 -0.03084466 0.00104216
v -0.02610240 -0.03084466 0.00104216
v -0.02610240 -0.03084466 0.00104216
v -0.02768560 -0.03084466 0.00104658
v -0.02768560 -0.03084466 0.00104658
v -0.02768560 -0.03084466 0.00104658
v -0.02768560 -0.03084466 0.00104658
v -0.02768560 -0.03084466 0.00104658
v -0.02768560 -0.03084466 0.00104658
v -0.02768560 -0.03084466 0.00104658
v -0.02926649 -0.03084466 0.00105985
v -0.02926649 -0.03084466 0.00105985
v -0.02926649 -0.03084466 0.00105985
v -0.02926649 -0.03084466 0.00105985
v -0.03401380 -0.03084466 0.00110406
v -0.03401380 -0.03084466 0.00110406
v -0.03401380 -0.03084466 0.00110406
v -0.03401380 -0.03084466 0.00110406
v -0.03401380 -0.03084466 0.00110406
v -0.04192055 -0.03084466 0.00119690
v -0.04192055 -0.03084466 0.00119690
v -0.04192055 -0.03084466 0.00119690
v -0.04192055 -0.03084466 0.00119690
v -0.04192055 -0.03084466 0.00119690
v -0.04192055 -0.03084466 0.00119690
v -0.04192055 -0.03084466 0.00119690
v -0.04192055 -0.03084466 0.00119690
v -0.04033967 -0.02926368 0.00069731
v -0.04033967 -0.02926368 0.00069731
v -0.04033967 -0.02926368 0.00069731
v -0.04033967 -0.02926368 0.00069731
v -0.04033967 -0.02926368 0.00069731
v -0.04033967 -0.02926368 0.00069731
v -0.04033967 -0.02926368 0.00069731
v -0.04666554 -0.02293309 0.00132954
v -0.04666554 -0.02293309 0.00132954
v -0.04666554 -0.02293309 0.00132954
v -0.04666554 -0.02293309 0.00132954
v -0.04666554 -0.02293309 0.00132954
v -0.04666554 -0.02293309 0.00132954
v -0.04666554 -0.02293309 0.00132954
v -0.04666554 -0.02293309 0.00132954
v -0.04666554 -0.02293309 0.00132954
v -0.04666554 -0.02293309 0.00132954
v -0.04666554 -0.02293309 0.00132954
v -0.04666554 0.02767828 0.00151080
v -0.04666554 0.02767828 0.00151080
v -0.04666554 0.02767828 0.00151080
v -0.04666554 0.02767828 0.00151080
v -0.04666554 0.02767828 0.00151080
v -0.04666554 0.02767828 0.00151080
v -0.04666554 0.02926593 0.00155944
v -0.04666554 0.02926593 0.00155944
v -0.04666554 0.02926593 0.00155944
v -0.04666554 0.02926593 0.00155944
v -0.04508465 0.02926593 0.00085205
v -0.04508465 0.02926593 0.00085205
v -0.04508465 0.02926593 0.00085205
v -0.04508465 0.02926593 0.00085205
v -0.04508465 0.02926593 0.00085205
v -0.04666554 -0.00869760 0.00136491
v -0.04666554 -0.00869760 0.00136491
v -0.04666554 -0.00869760 0.00136491
v -0.04666554 -0.00869760 0.00136491
v -0.04666554 -0.00869760 0.00136491
v -0.04508465 0.03084691 0.00102005
v -0.04508465 0.03084691 0.00102005
v -0.04508465 0.03084691 0.00102005
v -0.04508465 0.03084691 0.00102005
v -0.04508465 0.03084691 0.00102005
v -0.04508465 0.03084691 0.00102005
v -0.04508465 0.03084691 0.00102005
v -0.04588207 0.03480936 0.00200155
v -0.04588207 0.03480936 0.00200155
v -0.04588207 0.03480936 0.00200155
v -0.04588207 0.03480936 0.00200155
v -0.04588207 0.03480936 0.00200155
v -0.04588207 0.03480936 0.00200155
v -0.04588207 0.03480936 0.00200155
v -0.04588207 0.03480936 0.00200155
v -0.04588207 0.03480936 0.00200155
v -0.04588207 0.03480936 0.00200155
v -0.04588207 0.03480936 0.00200155
v -0.04508465 0.03489608 0.00192197
v -0.04508465 0.03489608 0.00192197
v -0.04508465 0.03489608 0.00192197
v -0.04508465 0.03489608 0.00192197
v -0.04508465 0.03489608 0.00192197
v -0.04508465 0.03489608 0.00192197
v -0.04350144 0.03534303 0.00279736
v -0.04350144 0.03534303 0.00279736
v -0.04350144 0.03534303 0.00279736
v -0.04350144 0.03534303 0.00279736
v -0.04350144 0.03534303 0.00279736
v -0.04350144 0.03534303 0.00279736
v -0.04350144 0.03534303 0.00279736
v -0.04350144 0.03534303 0.00279736
v -0.03717557 0.03533636 0.00279736
v -0.03717557 0.03533636 0.00279736
v -0.03717557 0.03533636 0.00279736
v -0.03717557 0.03533636 0.00279736
v -0.03243059 0.03531635 0.00279736
v -0.03243059 0.03531635 0.00279736
v -0.03243059 0.03531635 0.00279736
v -0.03243059 0.03531635 0.00279736
v -0.03243059 0.03531635 0.00279736
v -0.03243059 0.03531635 0.00279736
v -0.03243059 0.03531635 0.00279736
v -0.02768560 0.03526298 0.00279736
v -0.02768560 0.03526298 0.00279736
v -0.02768560 0.03526298 0.00279736
v -0.02768560 0.03526298 0.00279736
v -0.02768560 0.03526298 0.00279736
v -0.02768560 0.03526298 0.00279736
v -0.02768560 0.03526298 0.00279736
v -0.02610240 0.03523630 0.00279736
v -0.02610240 0.03523630 0.00279736
v -0.02610240 0.03523630 0.00279736
v -0.02610240 0.03523630 0.00279736
v -0.02610240 0.03523630 0.00279736
v -0.02431692 0.03492944 0.00186450
v -0.02431692 0.03492944 0.00186450
v -0.02431692 0.03492944 0.00186450
v -0.02431692 0.03492944 0.00186450
v -0.02431692 0.03492944 0.00186450
v -0.04508465 -0.01977113 0.00070615
v -0.04508465 -0.01977113 0.00070615
v -0.04508465 -0.01977113 0.00070615
v -0.04508465 -0.01977113 0.00070615
v -0.02431692 -0.03084466 0.00104216
v -0.02431692 -0.03084466 0.00104216
v -0.02431692 -0.03084466 0.00104216
v -0.02431692 -0.03099142 0.00112616
v -0.02431692 -0.03099142 0.00112616
v -0.02431692 -0.03099142 0.00112616
v -0.02431692 -0.03099142 0.00112616
v -0.02452151 -0.03197203 0.00171418
v -0.02452151 -0.03197203 0.00171418
v -0.02452151 -0.03197203 0.00171418
v -0.02452151 -0.03197203 0.00171418
v -0.02452151 -0.03197203 0.00171418
v -0.02452151 -0.03197203 0.00171418
v -0.02452151 -0.03197203 0.00171418
v -0.02768560 -0.03195869 0.00172744
v -0.02768560 -0.03195869 0.00172744
v -0.02768560 -0.03195869 0.00172744
v -0.02768560 -0.03195869 0.00172744
v -0.02768560 -0.03195869 0.00172744
v -0.02768560 -0.03195869 0.00172744
v -0.02768560 -0.03195869 0.00172744
v -0.02768560 -0.03195869 0.00172744
v -0.04192055 -0.03187197 0.00181144
v -0.04192055 -0.03187197 0.00181144
v -0.04192055 -0.03187197 0.00181144
v -0.04192055 -0.03187197 0.00181144
v -0.04192055 -0.03187197 0.00181144
v -0.04192055 -0.03187197 0.00181144
v -0.04350144 -0.03185863 0.00182471
v -0.04350144 -0.03185863 0.00182471
v -0.04350144 -0.03185863 0.00182471
v -0.04350144 -0.03185863 0.00182471
v -0.04350144 -0.03185863 0.00182471
v -0.04350144 -0.03185863 0.00182471
v -0.04350144 -0.03084466 0.00128533
v -0.04350144 -0.03084466 0.00128533
v -0.04350144 -0.03084466 0.00128533
v -0.04350144 -0.03084466 0.00128533
v -0.04350144 -0.03084466 0.00128533
v -0.04350144 -0.03084466 0.00128533
v -0.04350144 -0.02926368 0.00081226
v -0.04350144 -0.02926368 0.00081226
v -0.04350144 -0.02926368 0.00081226
v -0.04350144 -0.02926368 0.00081226
v -0.04350144 -0.02926368 0.00081226
v -0.04350144 -0.02926368 0.00081226
v -0.04192055 -0.02926368 0.00074152
v -0.04192055 -0.02926368 0.00074152
v -0.04192055 -0.02926368 0.00074152
v -0.04192055 -0.02926368 0.00074152
v -0.04508465 -0.02610173 0.00078573
v -0.04508465 -0.02610173 0.00078573
v -0.04508465 -0.02610173 0.00078573
v -0.04508465 -0.02610173 0.00078573
v -0.04508465 -0.02610173 0.00078573
v -0.04508465 -0.02610173 0.00078573
v -0.04508465 -0.02610173 0.00078573
v -0.04508465 -0.02135212 0.00072384
v -0.04508465 -0.02135212 0.00072384
v -0.04508465 -0.02135212 0.00072384
v -0.04508465 -0.02135212 0.00072384
v -0.04759779 -0.02293309 0.00187334
v -0.04759779 -0.02293309 0.00187334
v -0.04759779 -0.02293309 0.00187334
v -0.04759779 -0.02293309 0.00187334
v -0.04759779 -0.02293309 0.00187334
v -0.04759779 -0.02293309 0.00187334
v -0.04666554 -0.02768271 0.00140028
v -0.04666554 -0.02768271 0.00140028
v -0.04666554 -0.02768271 0.00140028
v -0.04666554 -0.02768271 0.00140028
v -0.04666554 -0.02768271 0.00140028
v -0.04666554 -0.02768271 0.00140028
v -0.04666554 -0.02768271 0.00140028
v -0.04757919 -0.02768271 0.00189545
v -0.04757919 -0.02768271 0.00189545
v -0.04757919 -0.02768271 0.00189545
v -0.04757919 -0.02768271 0.00189545
v -0.04757919 -0.02768271 0.00189545
v -0.04749085 0.02767828 0.00197503
v -0.04749085 0.02767828 0.00197503
v -0.04749085 0.02767828 0.00197503
v -0.04749085 0.02767828 0.00197503
v -0.04749085 0.02767828 0.00197503
v -0.04748620 0.02926593 0.00197945
v -0.04748620 0.02926593 0.00197945
v -0.04748620 0.02926593 0.00197945
v -0.04748620 0.02926593 0.00197945
v -0.04748620 0.02926593 0.00197945
v -0.04748620 0.02926593 0.00197945
v -0.04747225 0.03016649 0.00199713
v -0.04747225 0.03016649 0.00199713
v -0.04747225 0.03016649 0.00199713
v -0.04747225 0.03016649 0.00199713
v -0.04747225 0.03016649 0.00199713
v -0.04747225 0.03016649 0.00199713
v -0.04747225 0.03016649 0.00199713
v -0.04747225 0.03016649 0.00199713
v -0.04747225 0.03016649 0.00199713
v -0.04747225 0.03016649 0.00199713
v -0.04747225 0.03016649 0.00199713
v -0.04674923 0.03075352 0.00175397
v -0.04674923 0.03075352 0.00175397
v -0.04674923 0.03075352 0.00175397
v -0.04674923 0.03075352 0.00175397
v -0.04631216 0.03242789 0.00182029
v -0.04631216 0.03242789 0.00182029
v -0.04631216 0.03242789 0.00182029
v -0.04746296 0.03322172 0.00357549
v -0.04746296 0.03322172 0.00357549
v -0.04746296 0.03322172 0.00357549
v -0.04746296 0.03322172 0.00357549
v -0.04746296 0.03322172 0.00357549
v -0.04746296 0.03322172 0.00357549
v -0.04746296 0.03322172 0.00357549
v -0.04746296 0.03322172 0.00357549
v -0.04746296 0.03322172 0.00357549
v -0.04594716 0.03487607 0.00279736
v -0.04594716 0.03487607 0.00279736
v -0.04594716 0.03487607 0.00279736
v -0.04594716 0.03487607 0.00279736
v -0.04594716 0.03487607 0.00279736
v -0.04508465 0.03514290 0.00279736
v -0.04508465 0.03514290 0.00279736
v -0.04508465 0.03514290 0.00279736
v -0.04508465 0.03514290 0.00279736
v -0.04508465 0.03514290 0.00279736
v -0.04508465 0.03514290 0.00279736
v -0.04733276 0.03122047 0.00214745
v -0.04733276 0.03122047 0.00214745
v -0.04733276 0.03122047 0.00214745
v -0.04733276 0.03122047 0.00214745
v -0.04733276 0.03122047 0.00214745
v -0.04710493 0.03242789 0.00250114
v -0.04710493 0.03242789 0.00250114
v -0.04710493 0.03242789 0.00250114
v -0.04350144 0.03552314 0.00438014
v -0.04350144 0.03552314 0.00438014
v -0.04350144 0.03552314 0.00438014
v -0.04350144 0.03552314 0.00438014
v -0.04350144 0.03552314 0.00438014
v -0.04192055 0.03552314 0.00438014
v -0.04192055 0.03552314 0.00438014
v -0.04192055 0.03552314 0.00438014
v -0.04192055 0.03552314 0.00438014
v -0.04192055 0.03552314 0.00438014
v -0.04192055 0.03552314 0.00438014
v -0.03875646 0.03550980 0.00438014
v -0.03875646 0.03550980 0.00438014
v -0.03875646 0.03550980 0.00438014
v -0.03875646 0.03550980 0.00438014
v -0.03875646 0.03550980 0.00438014
v -0.03243059 0.03545643 0.00438014
v -0.03243059 0.03545643 0.00438014
v -0.03243059 0.03545643 0.00438014
v -0.03243059 0.03545643 0.00438014
v -0.03243059 0.03545643 0.00438014
v -0.03243059 0.03545643 0.00438014
v -0.02926649 0.03541641 0.00438014
v -0.02926649 0.03541641 0.00438014
v -0.02926649 0.03541641 0.00438014
v -0.02926649 0.03541641 0.00438014
v -0.02926649 0.03541641 0.00438014
v -0.02926649 0.03541641 0.00438014
v -0.02610240 0.03536971 0.00438014
v -0.02610240 0.03536971 0.00438014
v -0.02610240 0.03536971 0.00438014
v -0.02610240 0.03536971 0.00438014
v -0.02431692 0.03534303 0.00438014
v -0.02431692 0.03534303 0.00438014
v -0.02431692 0.03534303 0.00438014
v -0.02431692 0.03534303 0.00438014
v -0.02431692 0.03534303 0.00438014
v -0.02431692 0.03534303 0.00438014
v -0.02452151 0.03520294 0.00279736
v -0.02452151 0.03520294 0.00279736
v -0.02452151 0.03520294 0.00279736
v -0.02452151 0.03520294 0.00279736
v -0.02431692 0.03519627 0.00279736
v -0.02431692 0.03519627 0.00279736
v -0.02431692 0.03519627 0.00279736
v -0.02431692 -0.03197203 0.00171418
v -0.02431692 -0.03197203 0.00171418
v -0.02431692 -0.03197203 0.00171418
v -0.02452151 -0.03242564 0.00279736
v -0.02452151 -0.03242564 0.00279736
v -0.02452151 -0.03242564 0.00279736
v -0.02452151 -0.03242564 0.00279736
v -0.02452151 -0.03242564 0.00279736
v -0.02452151 -0.03242564 0.00279736
v -0.02768560 -0.03241231 0.00279736
v -0.02768560 -0.03241231 0.00279736
v -0.02926649 -0.03240563 0.00279736
v -0.02926649 -0.03240563 0.00279736
v -0.02926649 -0.03240563 0.00279736
v -0.02926649 -0.03240563 0.00279736
v -0.02926649 -0.03240563 0.00279736
v -0.02926649 -0.03195202 0.00174071
v -0.02926649 -0.03195202 0.00174071
v -0.02926649 -0.03195202 0.00174071
v -0.04192055 -0.03231891 0.00279736
v -0.04192055 -0.03231891 0.00279736
v -0.04192055 -0.03231891 0.00279736
v -0.04192055 -0.03231891 0.00279736
v -0.04192055 -0.03231891 0.00279736
v -0.04192055 -0.03231891 0.00279736
v -0.04192055 -0.03231891 0.00279736
v -0.04192055 -0.03231891 0.00279736
v -0.04350144 -0.03229223 0.00279736
v -0.04350144 -0.03229223 0.00279736
v -0.04350144 -0.03229223 0.00279736
v -0.04350144 -0.03229223 0.00279736
v -0.04350144 -0.03229223 0.00279736
v -0.04508465 -0.03175856 0.00190871
v -0.04508465 -0.03175856 0.00190871
v -0.04508465 -0.03175856 0.00190871
v -0.04508465 -0.03175856 0.00190871
v -0.04508465 -0.03175856 0.00190871
v -0.04589369 -0.03165850 0.00199271
v -0.04589369 -0.03165850 0.00199271
v -0.04589369 -0.03165850 0.00199271
v -0.04589369 -0.03165850 0.00199271
v -0.04589369 -0.03165850 0.00199271
v -0.04589369 -0.03165850 0.00199271
v -0.04589369 -0.03165850 0.00199271
v -0.04508465 -0.03084466 0.00155060
v -0.04508465 -0.03084466 0.00155060
v -0.04508465 -0.03084466 0.00155060
v -0.04508465 -0.02926368 0.00107753
v -0.04508465 -0.02926368 0.00107753
v -0.04508465 -0.02926368 0.00107753
v -0.04508465 -0.02926368 0.00107753
v -0.04508465 -0.02926368 0.00107753
v -0.04508465 -0.02926368 0.00107753
v -0.04508465 -0.02768271 0.00083879
v -0.04508465 -0.02768271 0.00083879
v -0.04508465 -0.02768271 0.00083879
v -0.04508465 -0.02768271 0.00083879
v -0.04508465 -0.02768271 0.00083879
v -0.04787910 -0.02768271 0.00279736
v -0.04787910 -0.02768271 0.00279736
v -0.04787910 -0.02768271 0.00279736
v -0.04787910 -0.02768271 0.00279736
v -0.04787910 -0.02768271 0.00279736
v -0.04787910 -0.02768271 0.00279736
v -0.04789072 -0.02293309 0.00279736
v -0.04789072 -0.02293309 0.00279736
v -0.04789072 -0.02293309 0.00279736
v -0.04789072 -0.02293309 0.00279736
v -0.04789072 -0.02293309 0.00279736
v -0.04789072 -0.02293309 0.00279736
v -0.04789072 -0.02293309 0.00279736
v -0.04789072 -0.02293309 0.00279736
v -0.04789072 -0.02293309 0.00279736
v -0.04666554 -0.02926368 0.00158596
v -0.04666554 -0.02926368 0.00158596
v -0.04666554 -0.02926368 0.00158596
v -0.04666554 -0.02926368 0.00158596
v -0.04748388 -0.03008420 0.00198387
v -0.04748388 -0.03008420 0.00198387
v -0.04748388 -0.03008420 0.00198387
v -0.04748388 -0.03008420 0.00198387
v -0.04748388 -0.03008420 0.00198387
v -0.04748388 -0.03008420 0.00198387
v -0.04748388 -0.03008420 0.00198387
v -0.04748388 -0.03008420 0.00198387
v -0.04748388 -0.03008420 0.00198387
v -0.04748388 -0.03008420 0.00198387
v -0.04754432 -0.02926368 0.00193082
v -0.04754432 -0.02926368 0.00193082
v -0.04754432 -0.02926368 0.00193082
v -0.04754432 -0.02926368 0.00193082
v -0.04754432 -0.02926368 0.00193082
v -0.04768846 0.02926593 0.00279736
v -0.04768846 0.02926593 0.00279736
v -0.04768846 0.02926593 0.00279736
v -0.04768846 0.02926593 0.00279736
v -0.04768846 0.02926593 0.00279736
v -0.04768846 0.02926593 0.00279736
v -0.04769776 0.02767828 0.00279736
v -0.04769776 0.02767828 0.00279736
v -0.04769776 0.02767828 0.00279736
v -0.04769776 0.02767828 0.00279736
v -0.04769776 0.02767828 0.00279736
v -0.04761872 0.03075352 0.00272662
v -0.04761872 0.03075352 0.00272662
v -0.04761872 0.03075352 0.00272662
v -0.04761872 0.03075352 0.00272662
v -0.04755362 0.03242789 0.00328811
v -0.04755362 0.03242789 0.00328811
v -0.04755362 0.03242789 0.00328811
v -0.04755362 0.03242789 0.00328811
v -0.04755362 0.03242789 0.00328811
v -0.04755362 0.03242789 0.00328811
v -0.04747923 0.03324840 0.00438014
v -0.04747923 0.03324840 0.00438014
v -0.04747923 0.03324840 0.00438014
v -0.04747923 0.03324840 0.00438014
v -0.04747923 0.03324840 0.00438014
v -0.04680270 0.03403555 0.00438014
v -0.04680270 0.03403555 0.00438014
v -0.04680270 0.03403555 0.00438014
v -0.04680270 0.03403555 0.00438014
v -0.04600993 0.03494278 0.00438014
v -0.04600993 0.03494278 0.00438014
v -0.04600993 0.03494278 0.00438014
v -0.04600993 0.03494278 0.00438014
v -0.04600993 0.03494278 0.00438014
v -0.04600993 0.03494278 0.00438014
v -0.04600993 0.03494278 0.00438014
v -0.04600993 0.03494278 0.00438014
v -0.04767219 0.03242789 0.00438014
v -0.04767219 0.03242789 0.00438014
v -0.04767219 0.03242789 0.00438014
v -0.04767219 0.03242789 0.00438014
v -0.04767219 0.03242789 0.00438014
v -0.04508465 0.03530300 0.00438014
v -0.04508465 0.03530300 0.00438014
v -0.04508465 0.03530300 0.00438014
v -0.04508465 0.03530300 0.00438014
v -0.04508465 0.03530300 0.00438014
v -0.04508465 0.03530300 0.00438014
v -0.04350144 0.03553648 0.00596292
v -0.04350144 0.03553648 0.00596292
v -0.04350144 0.03553648 0.00596292
v -0.04350144 0.03553648 0.00596292
v -0.04350144 0.03553648 0.00596292
v -0.04350144 0.03553648 0.00596292
v -0.04033967 0.03552981 0.00596292
v -0.04033967 0.03552981 0.00596292
v -0.04033967 0.03552981 0.00596292
v -0.04033967 0.03552981 0.00596292
v -0.04033967 0.03552981 0.00596292
v -0.04033967 0.03552981 0.00596292
v -0.04033967 0.03552981 0.00596292
v -0.03717557 0.03550980 0.00596292
v -0.03717557 0.03550980 0.00596292
v -0.03717557 0.03550980 0.00596292
v -0.03717557 0.03550980 0.00596292
v -0.03717557 0.03550980 0.00596292
v -0.03559469 0.03549646 0.00596292
v -0.03559469 0.03549646 0.00596292
v -0.03559469 0.03549646 0.00596292
v -0.03559469 0.03549646 0.00596292
v -0.03559469 0.03549646 0.00596292
v -0.03559469 0.03549646 0.00596292
v -0.03243059 0.03546310 0.00596292
v -0.03243059 0.03546310 0.00596292
v -0.03243059 0.03546310 0.00596292
v -0.03243059 0.03546310 0.00596292
v -0.03243059 0.03546310 0.00596292
v -0.03243059 0.03546310 0.00596292
v -0.02926649 0.03542308 0.00596292
v -0.02926649 0.03542308 0.00596292
v -0.02926649 0.03542308 0.00596292
v -0.02926649 0.03542308 0.00596292
v -0.02926649 0.03542308 0.00596292
v -0.02431692 0.03534970 0.00575954
v -0.02431692 0.03534970 0.00575954
v -0.02431692 0.03534970 0.00575954
v -0.02431692 0.03534970 0.00575954
v -0.02431692 -0.03242564 0.00279736
v -0.02431692 -0.03242564 0.00279736
v -0.02431692 -0.03242564 0.00279736
v -0.03084970 -0.03254572 0.00438014
v -0.03084970 -0.03254572 0.00438014
v -0.03084970 -0.03254572 0.00438014
v -0.03084970 -0.03254572 0.00438014
v -0.03875646 -0.03253905 0.00438014
v -0.03875646 -0.03253905 0.00438014
v -0.03875646 -0.03253905 0.00438014
v -0.03875646 -0.03253905 0.00438014
v -0.03875646 -0.03253905 0.00438014
v -0.04192055 -0.03253238 0.00438014
v -0.04192055 -0.03253238 0.00438014
v -0.04192055 -0.03253238 0.00438014
v -0.04192055 -0.03253238 0.00438014
v -0.04192055 -0.03253238 0.00438014
v -0.04192055 -0.03253238 0.00438014
v -0.04350144 -0.03251237 0.00438014
v -0.04350144 -0.03251237 0.00438014
v -0.04350144 -0.03251237 0.00438014
v -0.04350144 -0.03251237 0.00438014
v -0.04350144 -0.03251237 0.00438014
v -0.04350144 -0.03251237 0.00438014
v -0.04350144 -0.03251237 0.00438014
v -0.04508465 -0.03207209 0.00279736
v -0.04508465 -0.03207209 0.00279736
v -0.04508465 -0.03207209 0.00279736
v -0.04508465 -0.03207209 0.00279736
v -0.04508465 -0.03207209 0.00279736
v -0.04508465 -0.03207209 0.00279736
v -0.04598203 -0.03174523 0.00279736
v -0.04598203 -0.03174523 0.00279736
v -0.04598203 -0.03174523 0.00279736
v -0.04598203 -0.03174523 0.00279736
v -0.04598203 -0.03174523 0.00279736
v -0.04598203 -0.03174523 0.00279736
v -0.04775821 -0.02926368 0.00279736
v -0.04775821 -0.02926368 0.00279736
v -0.04775821 -0.02926368 0.00279736
v -0.04775821 -0.02926368 0.00279736
v -0.04775821 -0.02926368 0.00279736
v -0.04806043 -0.02768271 0.00438014
v -0.04806043 -0.02768271 0.00438014
v -0.04806043 -0.02768271 0.00438014
v -0.04806043 -0.02768271 0.00438014
v -0.04806043 -0.02768271 0.00438014
v -0.04806043 -0.02768271 0.00438014
v -0.04805811 -0.02610173 0.00438014
v -0.04805811 -0.02610173 0.00438014
v -0.04805811 -0.02610173 0.00438014
v -0.04805811 -0.02610173 0.00438014
v -0.04789072 0.02293534 0.00438014
v -0.04789072 0.02293534 0.00438014
v -0.04789072 0.02293534 0.00438014
v -0.04789072 0.02293534 0.00438014
v -0.04787445 0.02767828 0.00438014
v -0.04787445 0.02767828 0.00438014
v -0.04787445 0.02767828 0.00438014
v -0.04787445 0.02767828 0.00438014
v -0.04787445 0.02767828 0.00438014
v -0.04787445 0.02767828 0.00438014
v -0.04677248 -0.03093806 0.00279736
v -0.04677248 -0.03093806 0.00279736
v -0.04677248 -0.03093806 0.00279736
v -0.04677248 -0.03093806 0.00279736
v -0.04754200 -0.03014423 0.00279736
v -0.04754200 -0.03014423 0.00279736
v -0.04754200 -0.03014423 0.00279736
v -0.04754200 -0.03014423 0.00279736
v -0.04754200 -0.03014423 0.00279736
v -0.04790002 -0.02926368 0.00438014
v -0.04790002 -0.02926368 0.00438014
v -0.04790002 -0.02926368 0.00438014
v -0.04790002 -0.02926368 0.00438014
v -0.04790002 -0.02926368 0.00438014
v -0.04790002 -0.02926368 0.00438014
v -0.04790002 -0.02926368 0.00438014
v -0.04786747 0.02926593 0.00438014
v -0.04786747 0.02926593 0.00438014
v -0.04786747 0.02926593 0.00438014
v -0.04786747 0.02926593 0.00438014
v -0.04786747 0.02926593 0.00438014
v -0.04786747 0.02926593 0.00438014
v -0.04785353 0.03084691 0.00438014
v -0.04785353 0.03084691 0.00438014
v -0.04785353 0.03084691 0.00438014
v -0.04785353 0.03084691 0.00438014
v -0.04785353 0.03084691 0.00438014
v -0.04785353 0.03084691 0.00438014
v -0.04785353 0.03084691 0.00438014
v -0.04769776 0.03242789 0.00596292
v -0.04769776 0.03242789 0.00596292
v -0.04769776 0.03242789 0.00596292
v -0.04769776 0.03242789 0.00596292
v -0.04769776 0.03242789 0.00596292
v -0.04769776 0.03242789 0.00596292
v -0.04769776 0.03242789 0.00596292
v -0.04769776 0.03242789 0.00596292
v -0.04769776 0.03242789 0.00596292
v -0.04769776 0.03242789 0.00596292
v -0.04749782 0.03326841 0.00596292
v -0.04749782 0.03326841 0.00596292
v -0.04749782 0.03326841 0.00596292
v -0.04749782 0.03326841 0.00596292
v -0.04749782 0.03326841 0.00596292
v -0.04749782 0.03326841 0.00596292
v -0.04749782 0.03326841 0.00596292
v -0.04600993 0.03494278 0.00596292
v -0.04600993 0.03494278 0.00596292
v -0.04600993 0.03494278 0.00596292
v -0.04600993 0.03494278 0.00596292
v -0.04600993 0.03494278 0.00596292
v -0.04508465 0.03530968 0.00596292
v -0.04508465 0.03530968 0.00596292
v -0.04508465 0.03530968 0.00596292
v -0.04508465 0.03530968 0.00596292
v -0.04508465 0.03530968 0.00596292
v -0.04508465 0.03530968 0.00596292
v -0.04680270 0.03405556 0.00596292
v -0.04680270 0.03405556 0.00596292
v -0.04680270 0.03405556 0.00596292
v -0.04680270 0.03405556 0.00596292
v -0.04350144 0.03554315 0.00912847
v -0.04350144 0.03554315 0.00912847
v -0.04350144 0.03554315 0.00912847
v -0.04350144 0.03554315 0.00912847
v -0.04350144 0.03554315 0.00912847
v -0.04350144 0.03554315 0.00912847
v -0.04350144 0.03554315 0.00912847
v -0.03875646 0.03552314 0.00754569
v -0.03875646 0.03552314 0.00754569
v -0.03875646 0.03552314 0.00754569
v -0.03875646 0.03552314 0.00754569
v -0.04033967 0.03558985 0.04550578
v -0.04033967 0.03558985 0.04550578
v -0.04033967 0.03558985 0.04550578
v -0.04033967 0.03558985 0.04550578
v -0.04033967 0.03558985 0.04550578
v -0.04033967 0.03558985 0.04550578
v -0.04033967 0.03558985 0.04550578
v -0.03717557 0.03556984 0.04550578
v -0.03717557 0.03556984 0.04550578
v -0.03717557 0.03556984 0.04550578
v -0.03717557 0.03556984 0.04550578
v -0.03559469 0.03555650 0.04392743
v -0.03559469 0.03555650 0.04392743
v -0.03559469 0.03555650 0.04392743
v -0.03243059 0.03552981 0.04392743
v -0.03243059 0.03552981 0.04392743
v -0.02453546 0.03545643 0.04552347
v -0.02453546 0.03545643 0.04552347
v -0.02453546 0.03545643 0.04552347
v -0.02453546 0.03545643 0.04552347
v -0.02453546 0.03545643 0.04552347
v -0.02453546 0.03545643 0.04552347
v -0.02453546 0.03545643 0.04552347
v -0.02453546 0.03545643 0.04552347
v -0.02453546 0.03545643 0.04552347
v -0.02453546 0.03545643 0.04552347
v -0.02453546 0.03545643 0.04552347
v -0.02453546 0.03545643 0.04552347
v -0.02453546 0.03545643 0.04552347
v -0.02453546 0.03545643 0.04552347
v -0.03401380 0.03548312 0.00754569
v -0.03401380 0.03548312 0.00754569
v -0.03401380 0.03548312 0.00754569
v -0.03084970 0.03551647 0.04392743
v -0.03084970 0.03551647 0.04392743
v -0.03084970 0.03551647 0.04392743
v -0.03084970 0.03551647 0.04392743
v -0.02452151 0.03540974 0.02494296
v -0.02452151 0.03540974 0.02494296
v -0.02431692 0.03539639 0.02019905
v -0.02431692 0.03539639 0.02019905
v -0.02431692 0.03539639 0.02019905
v -0.02431692 0.03539639 0.02019905
v -0.02431692 0.03539639 0.02019905
v -0.02431692 0.03539639 0.02019905
v -0.02431692 0.03538305 0.01525178
v -0.02431692 0.03538305 0.01525178
v -0.02431692 0.03538305 0.01525178
v -0.02431692 0.03535637 0.00734232
v -0.02431692 0.03535637 0.00734232
v -0.02431692 0.03535637 0.00734232
v -0.02431692 0.03535637 0.00734232
v -0.02431692 -0.03254572 0.00438014
v -0.02431692 -0.03254572 0.00438014
v -0.02431692 -0.03254572 0.00438014
v -0.03243059 -0.03254572 0.00596292
v -0.03243059 -0.03254572 0.00596292
v -0.03243059 -0.03254572 0.00596292
v -0.03243059 -0.03254572 0.00596292
v -0.03875646 -0.03253905 0.00596292
v -0.03875646 -0.03253905 0.00596292
v -0.03875646 -0.03253905 0.00596292
v -0.03875646 -0.03253905 0.00596292
v -0.03875646 -0.03253905 0.00596292
v -0.04192055 -0.03253238 0.00596292
v -0.04192055 -0.03253238 0.00596292
v -0.04192055 -0.03253238 0.00596292
v -0.04192055 -0.03253238 0.00596292
v -0.04192055 -0.03253238 0.00596292
v -0.04350144 -0.03248568 0.01071124
v -0.04350144 -0.03248568 0.01071124
v -0.04508465 -0.03225220 0.00438014
v -0.04508465 -0.03225220 0.00438014
v -0.04508465 -0.03225220 0.00438014
v -0.04508465 -0.03225220 0.00438014
v -0.04508465 -0.03225220 0.00438014
v -0.04508465 -0.03225220 0.00438014
v -0.04508465 -0.03225220 0.00438014
v -0.04605410 -0.03182527 0.00438014
v -0.04605410 -0.03182527 0.00438014
v -0.04605410 -0.03182527 0.00438014
v -0.04605410 -0.03182527 0.00438014
v -0.04605410 -0.03182527 0.00438014
v -0.04605410 -0.03182527 0.00438014
v -0.04806741 -0.02768271 0.00596292
v -0.04806741 -0.02768271 0.00596292
v -0.04806741 -0.02768271 0.00596292
v -0.04806741 -0.02768271 0.00596292
v -0.04806508 -0.02610173 0.00596292
v -0.04806508 -0.02610173 0.00596292
v -0.04806508 -0.02610173 0.00596292
v -0.04806508 -0.02610173 0.00596292
v -0.04806508 -0.02610173 0.00596292
v -0.04806508 -0.02610173 0.00596292
v -0.04806508 -0.02610173 0.00596292
v -0.04787212 0.02926593 0.00596292
v -0.04787212 0.02926593 0.00596292
v -0.04787212 0.02926593 0.00596292
v -0.04787212 0.02926593 0.00596292
v -0.04787212 0.02926593 0.00596292
v -0.04787212 0.02926593 0.00596292
v -0.04759779 -0.03021094 0.00438014
v -0.04759779 -0.03021094 0.00438014
v -0.04759779 -0.03021094 0.00438014
v -0.04759779 -0.03021094 0.00438014
v -0.04759779 -0.03021094 0.00438014
v -0.04759779 -0.03021094 0.00438014
v -0.04759779 -0.03021094 0.00438014
v -0.04759779 -0.03021094 0.00438014
v -0.04789770 -0.02926368 0.00596292
v -0.04789770 -0.02926368 0.00596292
v -0.04789770 -0.02926368 0.00596292
v -0.04789770 -0.02926368 0.00596292
v -0.04789770 -0.02926368 0.00596292
v -0.04789770 -0.02926368 0.00596292
v -0.04789770 -0.02926368 0.00596292
v -0.04789770 -0.02926368 0.00596292
v -0.04786282 0.03084691 0.00596292
v -0.04786282 0.03084691 0.00596292
v -0.04786282 0.03084691 0.00596292
v -0.04786282 0.03084691 0.00596292
v -0.04786282 0.03084691 0.00596292
v -0.04786050 0.03084691 0.00754569
v -0.04786050 0.03084691 0.00754569
v -0.04786050 0.03084691 0.00754569
v -0.04786050 0.03084691 0.00754569
v -0.04786050 0.03084691 0.00754569
v -0.04755362 0.03217440 0.04552347
v -0.04755362 0.03217440 0.04552347
v -0.04755362 0.03217440 0.04552347
v -0.04755362 0.03217440 0.04552347
v -0.04755362 0.03217440 0.04552347
v -0.04755362 0.03217440 0.04552347
v -0.04755362 0.03217440 0.04552347
v -0.04755130 0.03218774 0.04552347
v -0.04755130 0.03218774 0.04552347
v -0.04755130 0.03218774 0.04552347
v -0.04755130 0.03218774 0.04552347
v -0.04755130 0.03218774 0.04552347
v -0.04757919 0.03258132 0.02501812
v -0.04757919 0.03258132 0.02501812
v -0.04757919 0.03258132 0.02501812
v -0.04745830 0.03321504 0.02577414
v -0.04745830 0.03321504 0.02577414
v -0.04745830 0.03321504 0.02577414
v -0.04745830 0.03321504 0.02577414
v -0.04745830 0.03321504 0.02577414
v -0.04745830 0.03321504 0.02577414
v -0.04745830 0.03321504 0.02577414
v -0.04745830 0.03321504 0.02577414
v -0.04596576 0.03490275 0.03126964
v -0.04596576 0.03490275 0.03126964
v -0.04596576 0.03490275 0.03126964
v -0.04596576 0.03490275 0.03126964
v -0.04596576 0.03490275 0.03126964
v -0.04596576 0.03490275 0.03126964
v -0.04596576 0.03490275 0.03126964
v -0.04508465 0.03528299 0.03126964
v -0.04508465 0.03528299 0.03126964
v -0.04508465 0.03528299 0.03126964
v -0.04508465 0.03528299 0.03126964
v -0.04508465 0.03528299 0.03126964
v -0.04508465 0.03530968 0.00912847
v -0.04508465 0.03530968 0.00912847
v -0.04508465 0.03530968 0.00912847
v -0.04508465 0.03530968 0.00912847
v -0.04351539 0.03558985 0.04552347
v -0.04351539 0.03558985 0.04552347
v -0.04351539 0.03558985 0.04552347
v -0.04351539 0.03558985 0.04552347
v -0.04351539 0.03558985 0.04552347
v -0.04351539 0.03558985 0.04552347
v -0.04351539 0.03558985 0.04552347
v -0.04351539 0.03558985 0.04552347
v -0.04350144 0.03558985 0.04550578
v -0.04350144 0.03558985 0.04550578
v -0.04350144 0.03558985 0.04550578
v -0.04350144 0.03558985 0.04550578
v -0.04192055 0.03558985 0.04392743
v -0.04192055 0.03558985 0.04392743
v -0.04192055 0.03558985 0.04392743
v -0.04033967 0.03558985 0.04552347
v -0.04033967 0.03558985 0.04552347
v -0.04033967 0.03558985 0.04552347
v -0.03717557 0.03556984 0.04552347
v -0.03717557 0.03556984 0.04552347
v -0.03717557 0.03556984 0.04552347
v -0.02926649 0.03550313 0.04550578
v -0.02926649 0.03550313 0.04550578
v -0.02926649 0.03550313 0.04550578
v -0.02926649 0.03550313 0.04552347
v -0.02926649 0.03550313 0.04552347
v -0.02926649 0.03550313 0.04552347
v -0.02452151 0.03544976 0.04552347
v -0.02452151 0.03544976 0.04552347
v -0.02452151 0.03544976 0.04552347
v -0.02431692 0.03544976 0.04551904
v -0.02431692 0.03544976 0.04551904
v -0.02431692 0.03544976 0.04551904
v -0.02431692 0.03544976 0.04551904
v -0.02431692 0.03544976 0.04392743
v -0.02431692 0.03544976 0.04392743
v -0.02431692 0.03544976 0.04392743
v -0.02431692 0.03540306 0.02315681
v -0.02431692 0.03540306 0.02315681
v -0.02431692 0.03540306 0.02315681
v -0.02431692 -0.03254572 0.00774906
v -0.02431692 -0.03254572 0.00774906
v -0.02431692 -0.03254572 0.00774906
v -0.02431692 -0.03254572 0.00774906
v -0.02926649 -0.03254572 0.00754569
v -0.02926649 -0.03254572 0.00754569
v -0.02926649 -0.03254572 0.00754569
v -0.02926649 -0.03254572 0.00754569
v -0.03559469 -0.03253905 0.00754569
v -0.03559469 -0.03253905 0.00754569
v -0.03559469 -0.03253905 0.00754569
v -0.04033967 -0.03253238 0.00754569
v -0.04033967 -0.03253238 0.00754569
v -0.04033967 -0.03253238 0.00754569
v -0.04033967 -0.03253238 0.00754569
v -0.04192055 -0.03251237 0.01071124
v -0.04192055 -0.03251237 0.01071124
v -0.04350144 -0.03245233 0.01862070
v -0.04350144 -0.03245233 0.01862070
v -0.04508465 -0.03221218 0.01387237
v -0.04508465 -0.03221218 0.01387237
v -0.04508465 -0.03221218 0.01387237
v -0.04508465 -0.03221218 0.01387237
v -0.04596111 -0.03172521 0.04392743
v -0.04596111 -0.03172521 0.04392743
v -0.04596111 -0.03172521 0.04392743
v -0.04596111 -0.03172521 0.04392743
v -0.04596111 -0.03172521 0.04392743
v -0.04596111 -0.03172521 0.04392743
v -0.04596111 -0.03172521 0.04392743
v -0.04596111 -0.03172521 0.04392743
v -0.04596111 -0.03172521 0.04392743
v -0.04596111 -0.03172521 0.04392743
v -0.04596111 -0.03172521 0.04392743
v -0.04601226 -0.03177858 0.02494296
v -0.04601226 -0.03177858 0.02494296
v -0.04601226 -0.03177858 0.02494296
v -0.04601226 -0.03177858 0.02494296
v -0.04806508 -0.02768271 0.00754569
v -0.04806508 -0.02768271 0.00754569
v -0.04806508 -0.02768271 0.00754569
v -0.04806508 -0.02768271 0.00754569
v -0.04806043 -0.02610173 0.00912847
v -0.04806043 -0.02610173 0.00912847
v -0.04806043 -0.02610173 0.00912847
v -0.04806043 -0.02610173 0.00912847
v -0.04806043 -0.02610173 0.00912847
v -0.04806043 -0.02610173 0.00912847
v -0.04805811 -0.02451407 0.00754569
v -0.04805811 -0.02451407 0.00754569
v -0.04805811 -0.02451407 0.00754569
v -0.04805811 -0.02451407 0.00754569
v -0.04786980 0.02926593 0.00754569
v -0.04786980 0.02926593 0.00754569
v -0.04786980 0.02926593 0.00754569
v -0.04786980 0.02926593 0.00754569
v -0.04786980 0.02926593 0.00754569
v -0.04786980 0.02926593 0.00754569
v -0.04786980 0.02926593 0.00754569
v -0.04746760 -0.03007752 0.04552347
v -0.04746760 -0.03007752 0.04552347
v -0.04746760 -0.03007752 0.04552347
v -0.04746760 -0.03007752 0.04552347
v -0.04746760 -0.03007752 0.04552347
v -0.04747225 -0.03007085 0.04552347
v -0.04747225 -0.03007085 0.04552347
v -0.04747225 -0.03007085 0.04552347
v -0.04747225 -0.03007085 0.04552347
v -0.04747225 -0.03007085 0.04552347
v -0.04747225 -0.03007085 0.04552347
v -0.04786050 -0.02926368 0.01387237
v -0.04786050 -0.02926368 0.01387237
v -0.04786050 -0.02926368 0.01387237
v -0.04786050 -0.02926368 0.01387237
v -0.04793257 -0.02768271 0.04552347
v -0.04793257 -0.02768271 0.04552347
v -0.04793257 -0.02768271 0.04552347
v -0.04793257 -0.02768271 0.04552347
v -0.04793257 -0.02768271 0.04552347
v -0.04793954 -0.02768271 0.04392743
v -0.04793954 -0.02768271 0.04392743
v -0.04793954 -0.02768271 0.04392743
v -0.04793954 -0.02768271 0.04392743
v -0.04793954 -0.02768271 0.04392743
v -0.04793954 -0.02768271 0.04392743
v -0.04806043 -0.02768271 0.00912847
v -0.04806043 -0.02768271 0.00912847
v -0.04806043 -0.02768271 0.00912847
v -0.04806043 -0.02768271 0.00912847
v -0.04785353 0.03084691 0.00912847
v -0.04785353 0.03084691 0.00912847
v -0.04785353 0.03084691 0.00912847
v -0.04785353 0.03084691 0.00912847
v -0.04783725 0.03084691 0.01228960
v -0.04783725 0.03084691 0.01228960
v -0.04783725 0.03084691 0.01228960
v -0.04783725 0.03084691 0.01228960
v -0.04770706 0.03084691 0.03601797
v -0.04770706 0.03084691 0.03601797
v -0.04770706 0.03084691 0.03601797
v -0.04770706 0.03084691 0.03601797
v -0.04770706 0.03084691 0.03601797
v -0.04765127 0.03084691 0.04552347
v -0.04765127 0.03084691 0.04552347
v -0.04765127 0.03084691 0.04552347
v -0.04740251 0.03297490 0.04552347
v -0.04740251 0.03297490 0.04552347
v -0.04740251 0.03297490 0.04552347
v -0.04665856 0.03400887 0.04552347
v -0.04665856 0.03400887 0.04552347
v -0.04665856 0.03400887 0.04552347
v -0.04665856 0.03400887 0.04552347
v -0.04596344 0.03489608 0.03285242
v -0.04596344 0.03489608 0.03285242
v -0.04596344 0.03489608 0.03285242
v -0.04596344 0.03489608 0.03285242
v -0.04596344 0.03489608 0.03285242
v -0.04596344 0.03489608 0.03285242
v -0.04509162 0.03524297 0.04552347
v -0.04509162 0.03524297 0.04552347
v -0.04509162 0.03524297 0.04552347
v -0.04509162 0.03524297 0.04552347
v -0.04509162 0.03524297 0.04552347
v -0.02431692 0.03413561 0.04552347
v -0.02431692 0.03413561 0.04552347
v -0.02431692 0.03413561 0.04552347
v -0.02431692 0.03413561 0.04552347
v -0.02431692 -0.03253238 0.01091461
v -0.02431692 -0.03253238 0.01091461
v -0.03084970 -0.03253905 0.00912847
v -0.03084970 -0.03253905 0.00912847
v -0.03084970 -0.03253905 0.00912847
v -0.03084970 -0.03253905 0.00912847
v -0.03717557 -0.03253238 0.00912847
v -0.03717557 -0.03253238 0.00912847
v -0.03717557 -0.03253238 0.00912847
v -0.03717557 -0.03253238 0.00912847
v -0.04033967 -0.03251904 0.01071124
v -0.04033967 -0.03251904 0.01071124
v -0.04192055 -0.03247901 0.01862070
v -0.04192055 -0.03247901 0.01862070
v -0.04192055 -0.03247901 0.01862070
v -0.04192055 -0.03247901 0.01862070
v -0.04192055 -0.03247901 0.01862070
v -0.04350144 -0.03243899 0.02178183
v -0.04350144 -0.03243899 0.02178183
v -0.04350144 -0.03243899 0.02178183
v -0.04350144 -0.03243899 0.02178183
v -0.04508465 -0.03214547 0.02810851
v -0.04508465 -0.03214547 0.02810851
v -0.04508465 -0.03214547 0.02810851
v -0.04508465 -0.03214547 0.02810851
v -0.04508465 -0.03214547 0.02810851
v -0.04594949 -0.03171187 0.04552347
v -0.04594949 -0.03171187 0.04552347
v -0.04594949 -0.03171187 0.04552347
v -0.04673296 -0.03087135 0.04552347
v -0.04673296 -0.03087135 0.04552347
v -0.04673296 -0.03087135 0.04552347
v -0.04508465 -0.03211212 0.03443519
v -0.04508465 -0.03211212 0.03443519
v -0.04508465 -0.03211212 0.03443519
v -0.04508465 -0.03211212 0.03443519
v -0.04508465 -0.03205875 0.04392743
v -0.04508465 -0.03205875 0.04392743
v -0.04508465 -0.03205875 0.04392743
v -0.04508465 -0.03205875 0.04392743
v -0.04508465 -0.03204541 0.04552347
v -0.04508465 -0.03204541 0.04552347
v -0.04508465 -0.03204541 0.04552347
v -0.04508465 -0.03204541 0.04552347
v -0.04785585 0.02926593 0.01071124
v -0.04785585 0.02926593 0.01071124
v -0.04785585 0.02926593 0.01071124
v -0.04785585 0.02926593 0.01071124
v -0.04785585 0.02926593 0.01071124
v -0.04792792 -0.02611507 0.04552347
v -0.04792792 -0.02611507 0.04552347
v -0.04792792 -0.02611507 0.04552347
v -0.04792792 -0.02611507 0.04552347
v -0.04792792 -0.02611507 0.04552347
v -0.04792792 -0.02611507 0.04552347
v -0.04770939 -0.02926368 0.04552347
v -0.04770939 -0.02926368 0.04552347
v -0.04770939 -0.02926368 0.04552347
v -0.04592856 0.03484272 0.04552347
v -0.04592856 0.03484272 0.04552347
v -0.04592856 0.03484272 0.04552347
v -0.04592159 0.03484939 0.04552347
v -0.04592159 0.03484939 0.04552347
v -0.04592159 0.03484939 0.04552347
v -0.02431692 -0.03237228 0.04552347
v -0.02431692 -0.03237228 0.04552347
v -0.02431692 -0.03237228 0.04552347
v -0.02431692 -0.03249902 0.01882407
v -0.02431692 -0.03249902 0.01882407
v -0.03084970 -0.03253238 0.01071124
v -0.03084970 -0.03253238 0.01071124
v -0.03717557 -0.03252571 0.01071124
v -0.03717557 -0.03252571 0.01071124
v -0.04033967 -0.03248568 0.01862070
v -0.04033967 -0.03248568 0.01862070
v -0.04033967 -0.03248568 0.01862070
v -0.04033967 -0.03248568 0.01862070
v -0.04033967 -0.03248568 0.01862070
v -0.04350144 -0.03237228 0.03601797
v -0.04350144 -0.03237228 0.03601797
v -0.04350144 -0.03237228 0.03601797
v -0.04350144 -0.03237228 0.03601797
v -0.04350144 -0.03237228 0.03601797
v -0.04192055 -0.03235894 0.04392743
v -0.04192055 -0.03235894 0.04392743
v -0.04192055 -0.03235894 0.04392743
v -0.04192055 -0.03235894 0.04392743
v -0.04192055 -0.03235894 0.04392743
v -0.04350144 -0.03233225 0.04392743
v -0.04350144 -0.03233225 0.04392743
v -0.04350144 -0.03233225 0.04392743
v -0.04350144 -0.03233225 0.04392743
v -0.04350144 -0.03233225 0.04392743
v -0.04350144 -0.03233225 0.04392743
v -0.04350144 -0.03231891 0.04552347
v -0.04350144 -0.03231891 0.04552347
v -0.04350144 -0.03231891 0.04552347
v -0.02610240 -0.03237228 0.04552347
v -0.02610240 -0.03237228 0.04552347
v -0.02610240 -0.03237228 0.04552347
v -0.02610240 -0.03237228 0.04552347
v -0.02610240 -0.03237228 0.04552347
v -0.02610240 -0.03237228 0.04552347
v -0.02431692 -0.03248568 0.02198520
v -0.02431692 -0.03248568 0.02198520
v -0.02431692 -0.03248568 0.02198520
v -0.02431692 -0.03248568 0.02198520
v -0.02431692 -0.03248568 0.02198520
v -0.02431692 -0.03248568 0.02198520
v -0.03084970 -0.03250569 0.01703793
v -0.03084970 -0.03250569 0.01703793
v -0.03084970 -0.03250569 0.01703793
v -0.03084970 -0.03250569 0.01703793
v -0.03717557 -0.03249902 0.01703793
v -0.03717557 -0.03249902 0.01703793
v -0.03717557 -0.03249902 0.01703793
v -0.03717557 -0.03249902 0.01703793
v -0.03717557 -0.03249902 0.01703793
v -0.03875646 -0.03239896 0.03759632
v -0.03875646 -0.03239896 0.03759632
v -0.03875646 -0.03239896 0.03759632
v -0.03875646 -0.03239896 0.03759632
v -0.04033967 -0.03236561 0.04392743
v -0.04033967 -0.03236561 0.04392743
v -0.04033967 -0.03236561 0.04392743
v -0.04033967 -0.03236561 0.04392743
v -0.04033967 -0.03236561 0.04392743
v -0.04192055 -0.03234560 0.04552347
v -0.04192055 -0.03234560 0.04552347
v -0.04192055 -0.03234560 0.04552347
v -0.03243059 -0.03236561 0.04552347
v -0.03243059 -0.03236561 0.04552347
v -0.03717557 -0.03238562 0.04076188
v -0.03717557 -0.03238562 0.04076188
v -0.03717557 -0.03238562 0.04076188
v -0.03717557 -0.03238562 0.04076188
v -0.03717557 -0.03238562 0.04076188
v -0.02926649 -0.03249235 0.02019905
v -0.02926649 -0.03249235 0.02019905
v -0.02926649 -0.03249235 0.02019905
v -0.02926649 -0.03249235 0.02019905
v -0.02926649 -0.03249235 0.02019905
v -0.02926649 -0.03249235 0.02019905
v -0.02768560 -0.03248568 0.02178183
v -0.02768560 -0.03248568 0.02178183
v -0.02768560 -0.03248568 0.02178183
v -0.03559469 -0.03248568 0.02019905
v -0.03559469 -0.03248568 0.02019905
v -0.03875646 -0.03235894 0.04552347
v -0.03875646 -0.03235894 0.04552347
v -0.03875646 -0.03235894 0.04552347
v -0.03875646 -0.03235894 0.04552347
v -0.04033967 -0.03235227 0.04552347
v -0.04033967 -0.03235227 0.04552347
f 2 6 33
f 2 33 9
f 4 12 37
f 4 37 13
f 5 14 25
f 1 22 29
f 3 31 7
f 8 32 98
f 8 98 208
f 8 208 346
f 8 346 531
f 8 531 524
f 8 524 711
f 8 711 897
f 8 897 893
f 8 893 890
f 8 890 1051
f 8 1051 1048
f 8 1048 1045
f 8 1045 1178
f 8 1178 1245
f 8 1245 1283
f 8 1283 1246
f 8 1246 1179
f 8 1179 1053
f 8 1053 900
f 8 900 714
f 8 714 534
f 8 534 356
f 8 356 353
f 8 353 217
f 8 217 106
f 8 106 42
f 8 42 35
f 10 34 41
f 11 43 36
f 15 38 99
f 15 99 49
f 19 50 58
f 18 57 66
f 17 64 72
f 16 67 27
f 28 68 75
f 26 74 81
f 24 79 87
f 20 83 89
f 21 92 94
f 23 96 30
f 39 47 100
f 40 105 108
f 44 112 114
f 45 116 118
f 45 118 120
f 46 122 124
f 48 125 101
f 51 103 212
f 51 212 131
f 52 132 135
f 53 136 139
f 54 140 147
f 55 148 59
f 62 149 154
f 61 153 162
f 60 160 169
f 56 167 65
f 63 166 71
f 70 165 173
f 69 172 77
f 76 171 179
f 73 177 80
f 78 176 86
f 85 175 186
f 84 185 193
f 82 187 88
f 90 189 194
f 91 196 93
f 95 197 199
f 97 203 206
f 102 127 209
f 104 216 107
f 109 218 221
f 110 224 226
f 111 227 113
f 115 228 117
f 117 228 119
f 121 231 234
f 121 234 123
f 126 235 238
f 128 240 242
f 129 244 249
f 130 250 210
f 133 214 260
f 134 261 137
f 138 262 142
f 145 267 275
f 144 274 281
f 141 277 150
f 143 263 282
f 146 283 268
f 152 288 157
f 151 278 287
f 158 289 296
f 156 294 309
f 155 307 163
f 161 305 181
f 159 180 168
f 164 178 170
f 174 315 184
f 182 306 316
f 183 314 192
f 188 313 320
f 190 321 323
f 191 325 195
f 198 327 200
f 201 328 330
f 202 335 337
f 204 339 342
f 205 343 207
f 211 251 347
f 213 350 259
f 215 352 220
f 219 351 355
f 222 357 360
f 223 361 225
f 229 364 366
f 230 368 232
f 233 370 236
f 237 371 374
f 239 376 241
f 243 378 380
f 247 382 385
f 248 386 394
f 246 391 399
f 245 397 253
f 255 398 402
f 254 401 409
f 252 408 348
f 266 413 285
f 257 349 411
f 256 410 406
f 258 407 421
f 264 424 426
f 265 427 412
f 271 430 436
f 270 435 446
f 269 445 276
f 272 284 431
f 273 443 280
f 279 441 290
f 286 414 432
f 293 442 453
f 292 452 457
f 291 456 298
f 302 462 472
f 297 468 477
f 295 475 310
f 299 458 454
f 300 455 444
f 301 447 479
f 303 480 484
f 304 485 463
f 308 473 317
f 318 474 489
f 311 488 493
f 312 494 319
f 322 497 499
f 322 499 324
f 326 501 503
f 329 506 331
f 332 507 509
f 333 513 515
f 334 518 520
f 336 521 338
f 340 525 344
f 341 522 526
f 345 527 529
f 354 533 359
f 358 532 713
f 358 713 536
f 362 539 541
f 362 541 543
f 363 545 365
f 372 550 375
f 367 546 551
f 369 553 548
f 373 549 554
f 377 555 379
f 381 557 559
f 384 561 565
f 383 564 387
f 388 567 569
f 389 571 576
f 390 577 579
f 390 579 395
f 396 580 586
f 393 585 404
f 392 403 400
f 405 589 419
f 415 429 591
f 417 592 597
f 416 596 433
f 418 588 607
f 420 608 611
f 422 612 619
f 423 620 425
f 428 621 590
f 434 598 437
f 439 624 450
f 438 599 630
f 440 631 625
f 451 626 636
f 449 635 641
f 448 640 483
f 461 645 652
f 460 650 660
f 459 658 471
f 464 486 481
f 465 482 639
f 467 642 664
f 466 662 648
f 470 654 671
f 469 670 478
f 476 667 490
f 487 673 492
f 491 668 676
f 495 674 679
f 496 682 498
f 500 684 686
f 502 690 504
f 505 695 697
f 508 701 703
f 508 703 510
f 504 690 692
f 511 707 895
f 512 896 708
f 514 709 516
f 517 710 519
f 523 530 528
f 535 712 899
f 535 899 716
f 537 717 719
f 538 723 725
f 540 726 542
f 542 726 544
f 547 727 552
f 556 728 730
f 558 732 560
f 562 737 566
f 563 734 738
f 568 739 570
f 574 741 743
f 575 746 613
f 573 609 582
f 572 581 578
f 584 606 587
f 583 610 605
f 593 623 751
f 594 752 754
f 595 756 600
f 602 757 760
f 604 761 765
f 603 764 770
f 601 769 634
f 614 747 774
f 615 776 778
f 617 782 785
f 618 786 750
f 616 749 622
f 628 790 800
f 627 798 638
f 629 632 791
f 633 768 792
f 637 796 643
f 644 797 665
f 649 663 805
f 647 803 818
f 646 817 653
f 651 815 661
f 656 820 1010
f 656 1010 830
f 655 829 672
f 659 813 833
f 657 832 824
f 666 799 809
f 669 825 677
f 675 836 680
f 678 826 840
f 685 843 687
f 681 837 849
f 683 850 842
f 688 845 855
f 688 855 857
f 689 858 860
f 689 860 879
f 689 879 691
f 694 867 876
f 696 877 698
f 693 882 866
f 699 878 868
f 700 869 883
f 700 883 885
f 702 886 704
f 705 888 891
f 706 892 894
f 715 898 1052
f 715 1052 1056
f 715 1056 901
f 718 902 720
f 721 904 906
f 722 909 911
f 722 911 724
f 729 913 731
f 733 914 1068
f 733 1068 915
f 736 916 918
f 735 917 740
f 742 919 744
f 745 922 924
f 748 926 775
f 753 787 755
f 758 789 931
f 759 932 936
f 759 936 763
f 762 934 766
f 767 935 772
f 773 937 944
f 771 943 795
f 777 927 779
f 780 928 947
f 781 953 783
f 788 962 1091
f 788 1091 930
f 784 954 956
f 794 941 966
f 793 965 802
f 801 963 811
f 812 964 970
f 810 968 975
f 808 974 984
f 807 983 987
f 806 985 994
f 804 992 819
f 816 988 1001
f 814 1000 834
f 821 1005 1011
f 823 831 999
f 822 997 1007
f 828 1008 1017
f 827 1016 841
f 839 1015 1023
f 838 1022 1026
f 835 1025 848
f 844 851 853
f 846 1024 1020
f 847 1021 1013
f 846 1012 1027
f 852 1029 1031
f 852 1031 854
f 856 1032 1037
f 856 1037 1033
f 856 1033 861
f 856 861 859
f 861 1033 880
f 864 881 1034
f 865 1035 1038
f 862 1036 1030
f 862 1030 1028
f 862 1028 1014
f 862 1014 1170
f 862 1170 1240
f 862 1240 1237
f 862 1237 1160
f 862 1160 1157
f 862 1157 980
f 862 980 973
f 862 973 1154
f 862 1154 1228
f 862 1228 1126
f 862 1126 1234
f 862 1234 1116
f 875 1117 1112
f 862 1111 1208
f 862 1208 1205
f 862 1205 1219
f 862 1219 1273
f 862 1273 1306
f 862 1306 1331
f 862 1331 1327
f 862 1327 1309
f 862 1309 1277
f 862 1277 1244
f 862 1244 1175
f 863 1176 1039
f 873 1041 1043
f 874 1044 1047
f 872 1046 1050
f 871 1049 889
f 870 887 884
f 903 1059 1061
f 903 1061 905
f 907 1062 1063
f 908 1065 910
f 912 1066 1190
f 912 1190 1067
f 915 1068 1195
f 915 1195 1069
f 916 1070 1071
f 916 1071 918
f 920 1074 1080
f 921 1081 1086
f 923 1087 925
f 929 1088 948
f 933 1093 1099
f 933 1099 940
f 939 1097 1103
f 938 1102 946
f 942 1105 972
f 942 972 967
f 945 1101 1110
f 949 1089 1082
f 950 1085 1114
f 951 1115 1118
f 952 1119 955
f 958 1125 1128
f 959 1129 1131
f 960 1132 1137
f 961 1138 1090
f 957 1120 1122
f 971 1104 1226
f 971 1226 1144
f 969 1141 976
f 977 1142 1145
f 978 1146 1149
f 979 1150 1155
f 981 1159 993
f 982 995 986
f 990 1162 1169
f 989 1168 1002
f 991 1158 1163
f 998 1164 1173
f 996 1172 1006
f 1004 1171 1019
f 1003 1018 1009
f 1040 1177 1042
f 1054 1180 1248
f 1054 1248 1181
f 1055 1182 1057
f 1058 1184 1060
f 1060 1184 1186
f 1062 1187 1063
f 1064 1188 1251
f 1064 1251 1189
f 1067 1190 1256
f 1067 1256 1192
f 1070 1198 1071
f 1069 1195 1197
f 1073 1204 1079
f 1072 1199 1260
f 1072 1260 1200
f 1083 1207 1209
f 1084 1210 1113
f 1077 1203 1214
f 1076 1213 1218
f 1075 1217 1221
f 1078 1222 1206
f 1092 1140 1098
f 1096 1139 1136
f 1094 1135 1108
f 1095 1109 1100
f 1107 1134 1233
f 1106 1231 1227
f 1121 1235 1123
f 1124 1236 1127
f 1130 1232 1133
f 1143 1224 1148
f 1147 1223 1151
f 1153 1225 1230
f 1152 1229 1156
f 1161 1239 1167
f 1166 1238 1242
f 1165 1241 1174
f 1180 1247 1248
f 1183 1249 1250
f 1183 1250 1185
f 1189 1251 1254
f 1194 1258 1196
f 1191 1255 1305
f 1191 1305 1263
f 1193 1264 1257
f 1201 1261 1269
f 1202 1270 1211
f 1212 1272 1216
f 1215 1271 1275
f 1215 1275 1220
f 1243 1276 1282
f 1247 1284 1288
f 1247 1288 1248
f 1249 1291 1294
f 1249 1294 1250
f 1251 1296 1254
f 1252 1295 1299
f 1253 1300 1303
f 1259 1266 1268
f 1262 1304 1332
f 1262 1332 1307
f 1265 1308 1274
f 1265 1274 1267
f 1281 1310 1312
f 1280 1311 1319
f 1279 1318 1324
f 1278 1322 1286
f 1287 1323 1317
f 1285 1316 1289
f 1290 1321 1326
f 1290 1326 1293
f 1292 1325 1314
f 1292 1314 1297
f 1298 1315 1302
f 1304 1330 1332
f 1301 1313 1329
f 1310 1328 1312
f 1314 1325 1320

