# https://github.com/mikedh/trimesh
v 0.04807622 -0.02609777 0.05816811
v 0.04807622 -0.02609777 0.05816811
v 0.04807622 -0.02609777 0.05816811
v 0.04807622 -0.02609777 0.05816811
v 0.04807622 -0.02609777 0.05816811
v 0.04807622 -0.02609777 0.05816811
v 0.04807622 -0.02609777 0.05816811
v 0.04782811 -0.02451499 0.06607543
v 0.04782811 -0.02451499 0.06607543
v 0.04782811 -0.02451499 0.06607543
v 0.04782811 -0.02451499 0.06607543
v 0.04782811 -0.02451499 0.06607543
v 0.04782811 -0.02451499 0.06607543
v 0.04787851 -0.02609777 0.06449295
v 0.04787851 -0.02609777 0.06449295
v 0.04787851 -0.02609777 0.06449295
v 0.04787851 -0.02609777 0.06449295
v 0.04782036 -0.02768055 0.06607543
v 0.04782036 -0.02768055 0.06607543
v 0.04782036 -0.02768055 0.06607543
v 0.04782036 -0.02768055 0.06607543
v 0.04782036 -0.02768055 0.06607543
v 0.04782036 -0.02768055 0.06607543
v 0.04782036 -0.02768055 0.06607543
v 0.04805684 -0.02768055 0.05816811
v 0.04805684 -0.02768055 0.05816811
v 0.04805684 -0.02768055 0.05816811
v 0.04805684 -0.02768055 0.05816811
v 0.04805684 -0.02768055 0.05816811
v 0.04805684 -0.02768055 0.05816811
v 0.04805684 -0.02768055 0.05816811
v 0.04805684 -0.02768055 0.05816811
v 0.04793279 -0.02768055 0.04552347
v 0.04793279 -0.02768055 0.04552347
v 0.04793279 -0.02768055 0.04552347
v 0.04793279 -0.02768055 0.04552347
v 0.04793279 -0.02768055 0.04552347
v 0.04793279 -0.02768055 0.04552347
v 0.04793279 -0.02768055 0.04552347
v 0.04793279 -0.02766714 0.04552347
v 0.04793279 -0.02766714 0.04552347
v 0.04793279 -0.02766714 0.04552347
v 0.04793279 -0.02766714 0.04552347
v 0.04806459 -0.01819056 0.05816811
v 0.04806459 -0.01819056 0.05816811
v 0.04806459 -0.01819056 0.05816811
v 0.04806459 -0.01819056 0.05816811
v 0.04806459 -0.01819056 0.05816811
v 0.04806459 -0.01819056 0.05816811
v 0.04806459 -0.01819056 0.05816811
v 0.04806459 -0.01819056 0.05816811
v 0.04806459 -0.01819056 0.05816811
v 0.04806459 -0.01819056 0.05816811
v 0.04777384 -0.02451499 0.06765538
v 0.04777384 -0.02451499 0.06765538
v 0.04777384 -0.02451499 0.06765538
v 0.04777384 -0.02451499 0.06765538
v 0.04777384 -0.02451499 0.06765538
v 0.04782811 -0.02609777 0.06607543
v 0.04782811 -0.02609777 0.06607543
v 0.04782811 -0.02609777 0.06607543
v 0.04782811 -0.02609777 0.06607543
v 0.04782424 -0.02293220 0.06607543
v 0.04782424 -0.02293220 0.06607543
v 0.04782424 -0.02293220 0.06607543
v 0.04782424 -0.02293220 0.06607543
v 0.04776222 -0.02768055 0.06765538
v 0.04776222 -0.02768055 0.06765538
v 0.04776222 -0.02768055 0.06765538
v 0.04776222 -0.02768055 0.06765538
v 0.04776222 -0.02768055 0.06765538
v 0.04776222 -0.02768055 0.06765538
v 0.04760327 -0.02889447 0.06765538
v 0.04760327 -0.02889447 0.06765538
v 0.04760327 -0.02889447 0.06765538
v 0.04760327 -0.02889447 0.06765538
v 0.04760327 -0.02889447 0.06765538
v 0.04760327 -0.02889447 0.06765538
v 0.04760327 -0.02889447 0.06765538
v 0.04777384 -0.02609777 0.06765538
v 0.04777384 -0.02609777 0.06765538
v 0.04777384 -0.02609777 0.06765538
v 0.04777384 -0.02609777 0.06765538
v 0.04777384 -0.02609777 0.06765538
v 0.04763041 -0.02898836 0.06607543
v 0.04763041 -0.02898836 0.06607543
v 0.04763041 -0.02898836 0.06607543
v 0.04763041 -0.02898836 0.06607543
v 0.04763041 -0.02898836 0.06607543
v 0.04763041 -0.02898836 0.06607543
v 0.04769631 -0.02916274 0.06132801
v 0.04769631 -0.02916274 0.06132801
v 0.04769631 -0.02916274 0.06132801
v 0.04771182 -0.02939077 0.05820092
v 0.04771182 -0.02939077 0.05820092
v 0.04771182 -0.02939077 0.05820092
v 0.04771182 -0.02939077 0.05820092
v 0.04771182 -0.02939077 0.05820092
v 0.04771182 -0.02939077 0.05820092
v 0.04771182 -0.02939077 0.05820092
v 0.04771182 -0.02939077 0.05820092
v 0.04771182 -0.02924993 0.04552347
v 0.04771182 -0.02924993 0.04552347
v 0.04771182 -0.02924993 0.04552347
v 0.04771182 -0.02924993 0.04552347
v 0.04765754 0.02927953 0.04552347
v 0.04765754 0.02927953 0.04552347
v 0.04765754 0.02927953 0.04552347
v 0.04765754 0.02927953 0.04552347
v 0.04771957 -0.01185943 0.06765538
v 0.04771957 -0.01185943 0.06765538
v 0.04771957 -0.01185943 0.06765538
v 0.04771957 -0.01185943 0.06765538
v 0.04775833 -0.01977334 0.06765538
v 0.04775833 -0.01977334 0.06765538
v 0.04775833 -0.01977334 0.06765538
v 0.04775833 -0.01977334 0.06765538
v 0.04775833 -0.01977334 0.06765538
v 0.04775833 -0.01977334 0.06765538
v 0.04775833 -0.01977334 0.06765538
v 0.04764979 0.03085561 0.04552347
v 0.04764979 0.03085561 0.04552347
v 0.04764979 0.03085561 0.04552347
v 0.04764979 0.03085561 0.04552347
v 0.04764979 0.03085561 0.04552347
v 0.04764979 0.03085561 0.04552347
v 0.04764979 0.03085561 0.04552347
v 0.04764979 0.03085561 0.04552347
v 0.04764979 0.03085561 0.04552347
v 0.04785525 0.02293498 0.05816811
v 0.04785525 0.02293498 0.05816811
v 0.04785525 0.02293498 0.05816811
v 0.04785525 0.02293498 0.05816811
v 0.04751411 0.02926611 0.06765538
v 0.04751411 0.02926611 0.06765538
v 0.04751411 0.02926611 0.06765538
v 0.04751411 0.02926611 0.06765538
v 0.04751411 0.02926611 0.06765538
v 0.04751411 0.02926611 0.06765538
v 0.04751411 0.02926611 0.06765538
v 0.04751411 0.02926611 0.06765538
v 0.04760327 -0.02609777 0.06920504
v 0.04760327 -0.02609777 0.06920504
v 0.04760327 -0.02609777 0.06920504
v 0.04760327 -0.02609777 0.06920504
v 0.04760327 -0.02609777 0.06920504
v 0.04760327 -0.02609777 0.06920504
v 0.04776997 -0.02293220 0.06765538
v 0.04776997 -0.02293220 0.06765538
v 0.04776997 -0.02293220 0.06765538
v 0.04776997 -0.02293220 0.06765538
v 0.04776997 -0.02293220 0.06765538
v 0.04759939 -0.02293220 0.06917223
v 0.04759939 -0.02293220 0.06917223
v 0.04759939 -0.02293220 0.06917223
v 0.04759939 -0.02293220 0.06917223
v 0.04759939 -0.02293220 0.06917223
v 0.04759552 -0.02768055 0.06913185
v 0.04759552 -0.02768055 0.06913185
v 0.04759552 -0.02768055 0.06913185
v 0.04759552 -0.02768055 0.06913185
v 0.04759552 -0.02768055 0.06913185
v 0.04754512 -0.02869997 0.06884917
v 0.04754512 -0.02869997 0.06884917
v 0.04754512 -0.02869997 0.06884917
v 0.04754512 -0.02869997 0.06884917
v 0.04754512 -0.02869997 0.06884917
v 0.04754512 -0.02869997 0.06884917
v 0.04728538 -0.02967916 0.06765538
v 0.04728538 -0.02967916 0.06765538
v 0.04728538 -0.02967916 0.06765538
v 0.04728538 -0.02967916 0.06765538
v 0.04728538 -0.02967916 0.06765538
v 0.04728538 -0.02967916 0.06765538
v 0.04728538 -0.02967916 0.06765538
v 0.04733578 -0.02977975 0.06607543
v 0.04733578 -0.02977975 0.06607543
v 0.04733578 -0.02977975 0.06607543
v 0.04733578 -0.02977975 0.06607543
v 0.04733578 -0.02977975 0.06607543
v 0.04749472 -0.03009497 0.05769614
v 0.04749472 -0.03009497 0.05769614
v 0.04749472 -0.03009497 0.05769614
v 0.04749472 -0.03009497 0.05769614
v 0.04749472 -0.03009497 0.05769614
v 0.04749472 -0.03009497 0.05769614
v 0.04749472 -0.03009497 0.05769614
v 0.04749472 -0.03009497 0.05769614
v 0.04770794 -0.02926334 0.04552347
v 0.04770794 -0.02926334 0.04552347
v 0.04770794 -0.02926334 0.04552347
v 0.04770794 -0.02926334 0.04552347
v 0.04749472 -0.03009497 0.05703489
v 0.04749472 -0.03009497 0.05703489
v 0.04749472 -0.03009497 0.05703489
v 0.04749472 -0.03009497 0.05703489
v 0.04749472 -0.03009497 0.05703489
v 0.04747147 -0.03006814 0.04552347
v 0.04747147 -0.03006814 0.04552347
v 0.04747147 -0.03006814 0.04552347
v 0.04747147 -0.03006814 0.04552347
v 0.04747147 0.02926611 0.06856650
v 0.04747147 0.02926611 0.06856650
v 0.04747147 0.02926611 0.06856650
v 0.04747147 0.02926611 0.06856650
v 0.04747147 0.02926611 0.06856650
v 0.04747147 0.02926611 0.06856650
v 0.04759552 -0.02135613 0.06916466
v 0.04759552 -0.02135613 0.06916466
v 0.04759552 -0.02135613 0.06916466
v 0.04759552 -0.02135613 0.06916466
v 0.04759552 -0.02135613 0.06916466
v 0.04759552 -0.02135613 0.06916466
v 0.04747534 0.02768333 0.06859174
v 0.04747534 0.02768333 0.06859174
v 0.04747534 0.02768333 0.06859174
v 0.04747534 0.02768333 0.06859174
v 0.04755288 0.03218353 0.04552347
v 0.04755288 0.03218353 0.04552347
v 0.04755288 0.03218353 0.04552347
v 0.04755288 0.03218353 0.04552347
v 0.04755288 0.03218353 0.04552347
v 0.04755288 0.03218353 0.04552347
v 0.04773120 0.03084219 0.05816811
v 0.04773120 0.03084219 0.05816811
v 0.04773120 0.03084219 0.05816811
v 0.04773120 0.03084219 0.05816811
v 0.04773120 0.03084219 0.05816811
v 0.04773120 0.03084219 0.05816811
v 0.04773120 0.03084219 0.05816811
v 0.04773120 0.03084219 0.05816811
v 0.04773120 0.03084219 0.05816811
v 0.04776997 0.02926611 0.05816811
v 0.04776997 0.02926611 0.05816811
v 0.04776997 0.02926611 0.05816811
v 0.04776997 0.02926611 0.05816811
v 0.04782036 0.02610055 0.05816811
v 0.04782036 0.02610055 0.05816811
v 0.04782036 0.02610055 0.05816811
v 0.04782036 0.02610055 0.05816811
v 0.04782036 0.02610055 0.05816811
v 0.04782036 0.02610055 0.05816811
v 0.04783974 0.02451776 0.05816811
v 0.04783974 0.02451776 0.05816811
v 0.04783974 0.02451776 0.05816811
v 0.04783974 0.02451776 0.05816811
v 0.04756063 0.02926611 0.06607543
v 0.04756063 0.02926611 0.06607543
v 0.04756063 0.02926611 0.06607543
v 0.04756063 0.02926611 0.06607543
v 0.04754124 0.03084219 0.06607543
v 0.04754124 0.03084219 0.06607543
v 0.04754124 0.03084219 0.06607543
v 0.04754124 0.03084219 0.06607543
v 0.04754124 0.03084219 0.06607543
v 0.04745596 0.03151286 0.06836963
v 0.04745596 0.03151286 0.06836963
v 0.04745596 0.03151286 0.06836963
v 0.04745596 0.03151286 0.06836963
v 0.04745596 0.03151286 0.06836963
v 0.04745596 0.03151286 0.06836963
v 0.04745596 0.03151286 0.06836963
v 0.04745596 0.03151286 0.06836963
v 0.04745596 0.03151286 0.06836963
v 0.04746371 0.03045991 0.06851349
v 0.04746371 0.03045991 0.06851349
v 0.04746371 0.03045991 0.06851349
v 0.04746371 0.03045991 0.06851349
v 0.04744432 -0.02609777 0.06999502
v 0.04744432 -0.02609777 0.06999502
v 0.04744432 -0.02609777 0.06999502
v 0.04744432 -0.02609777 0.06999502
v 0.04744432 -0.02609777 0.06999502
v 0.04744432 -0.02609777 0.06999502
v 0.04744432 -0.02609777 0.06999502
v 0.04744432 -0.02609777 0.06999502
v 0.04744432 -0.02609777 0.06999502
v 0.04744432 -0.02609777 0.06999502
v 0.04741719 -0.02768055 0.06992434
v 0.04741719 -0.02768055 0.06992434
v 0.04741719 -0.02768055 0.06992434
v 0.04741719 -0.02768055 0.06992434
v 0.04741719 -0.02768055 0.06992434
v 0.04741719 -0.02768055 0.06992434
v 0.04741719 -0.02768055 0.06992434
v 0.04713032 -0.02924322 0.06932114
v 0.04713032 -0.02924322 0.06932114
v 0.04713032 -0.02924322 0.06932114
v 0.04713032 -0.02924322 0.06932114
v 0.04713032 -0.02924322 0.06932114
v 0.04622318 -0.03089978 0.06916214
v 0.04622318 -0.03089978 0.06916214
v 0.04622318 -0.03089978 0.06916214
v 0.04622318 -0.03089978 0.06916214
v 0.04622318 -0.03089978 0.06916214
v 0.04589754 -0.03165763 0.06858669
v 0.04589754 -0.03165763 0.06858669
v 0.04589754 -0.03165763 0.06858669
v 0.04589754 -0.03165763 0.06858669
v 0.04589754 -0.03165763 0.06858669
v 0.04589754 -0.03165763 0.06858669
v 0.04589754 -0.03165763 0.06858669
v 0.04589754 -0.03165763 0.06858669
v 0.04589754 -0.03165763 0.06858669
v 0.04589754 -0.03165763 0.06858669
v 0.04652556 -0.03084612 0.06765538
v 0.04652556 -0.03084612 0.06765538
v 0.04652556 -0.03084612 0.06765538
v 0.04652556 -0.03084612 0.06765538
v 0.04590529 -0.03166434 0.06765538
v 0.04590529 -0.03166434 0.06765538
v 0.04590529 -0.03166434 0.06765538
v 0.04590529 -0.03166434 0.06765538
v 0.04590529 -0.03166434 0.06765538
v 0.04590529 -0.03166434 0.06765538
v 0.04595181 -0.03171799 0.04552347
v 0.04595181 -0.03171799 0.04552347
v 0.04595181 -0.03171799 0.04552347
v 0.04595181 -0.03171799 0.04552347
v 0.04595181 -0.03171799 0.04552347
v 0.04675040 -0.03085283 0.04552347
v 0.04675040 -0.03085283 0.04552347
v 0.04675040 -0.03085283 0.04552347
v 0.04731640 0.02926611 0.06935899
v 0.04731640 0.02926611 0.06935899
v 0.04731640 0.02926611 0.06935899
v 0.04731640 0.02926611 0.06935899
v 0.04731640 0.02926611 0.06935899
v 0.04731640 0.02926611 0.06935899
v 0.04731640 0.02926611 0.06935899
v 0.04731640 0.02926611 0.06935899
v 0.04731640 0.02926611 0.06935899
v 0.04731640 0.02926611 0.06935899
v 0.04731640 0.02926611 0.06935899
v 0.04758389 0.03219024 0.05816811
v 0.04758389 0.03219024 0.05816811
v 0.04758389 0.03219024 0.05816811
v 0.04758389 0.03219024 0.05816811
v 0.04758389 0.03219024 0.05816811
v 0.04758389 0.03219024 0.05816811
v 0.04758389 0.03219024 0.05816811
v 0.04740169 0.03296822 0.04552347
v 0.04740169 0.03296822 0.04552347
v 0.04740169 0.03296822 0.04552347
v 0.04740943 0.03300175 0.04709332
v 0.04740943 0.03300175 0.04709332
v 0.04740943 0.03300175 0.04709332
v 0.04740943 0.03300175 0.04709332
v 0.04740943 0.03300175 0.04709332
v 0.04741719 0.03300846 0.04867579
v 0.04741719 0.03300846 0.04867579
v 0.04741719 0.03300846 0.04867579
v 0.04741719 0.03300846 0.04867579
v 0.04741719 0.03300846 0.04867579
v 0.04741719 0.03300846 0.04867579
v 0.04741719 0.03300846 0.04867579
v 0.04752961 0.03201587 0.06291048
v 0.04752961 0.03201587 0.06291048
v 0.04752961 0.03201587 0.06291048
v 0.04752961 0.03201587 0.06291048
v 0.04751411 0.03192868 0.06449295
v 0.04751411 0.03192868 0.06449295
v 0.04751411 0.03192868 0.06449295
v 0.04751411 0.03192868 0.06449295
v 0.04751411 0.03192868 0.06449295
v 0.04751411 0.03192868 0.06449295
v 0.04749085 0.03180125 0.06607543
v 0.04749085 0.03180125 0.06607543
v 0.04749085 0.03180125 0.06607543
v 0.04747147 0.03170736 0.06731465
v 0.04747147 0.03170736 0.06731465
v 0.04747147 0.03170736 0.06731465
v 0.04747147 0.03170736 0.06731465
v 0.04747147 0.03170736 0.06731465
v 0.04747147 0.03170736 0.06731465
v 0.04747147 0.03170736 0.06731465
v 0.04747147 0.03170736 0.06731465
v 0.04758389 0.03084219 0.06449295
v 0.04758389 0.03084219 0.06449295
v 0.04758389 0.03084219 0.06449295
v 0.04758389 0.03084219 0.06449295
v 0.04758389 0.03084219 0.06449295
v 0.04758389 0.03084219 0.06449295
v 0.04728151 0.03231096 0.06776643
v 0.04728151 0.03231096 0.06776643
v 0.04728151 0.03231096 0.06776643
v 0.04728151 0.03231096 0.06776643
v 0.04728151 0.03231096 0.06776643
v 0.04728151 0.03231096 0.06776643
v 0.04690935 0.03242498 0.06923785
v 0.04690935 0.03242498 0.06923785
v 0.04690935 0.03242498 0.06923785
v 0.04690935 0.03242498 0.06923785
v 0.04690935 0.03242498 0.06923785
v 0.04690935 0.03242498 0.06923785
v 0.04728926 0.03092938 0.06911923
v 0.04728926 0.03092938 0.06911923
v 0.04728926 0.03092938 0.06911923
v 0.04728926 0.03092938 0.06911923
v 0.04728926 0.03092938 0.06911923
v 0.04742882 -0.02135613 0.06995463
v 0.04742882 -0.02135613 0.06995463
v 0.04742882 -0.02135613 0.06995463
v 0.04742882 -0.02135613 0.06995463
v 0.04652556 0.02926611 0.07043417
v 0.04652556 0.02926611 0.07043417
v 0.04652556 0.02926611 0.07043417
v 0.04652556 0.02926611 0.07043417
v 0.04652556 0.02926611 0.07043417
v 0.04652556 0.02926611 0.07043417
v 0.04652556 0.02926611 0.07043417
v 0.04652556 0.02926611 0.07043417
v 0.04652556 0.02926611 0.07043417
v 0.04665349 -0.02609777 0.07047707
v 0.04665349 -0.02609777 0.07047707
v 0.04665349 -0.02609777 0.07047707
v 0.04665349 -0.02609777 0.07047707
v 0.04665349 -0.02609777 0.07047707
v 0.04665349 -0.02609777 0.07047707
v 0.04662635 -0.02768055 0.07046193
v 0.04662635 -0.02768055 0.07046193
v 0.04662635 -0.02768055 0.07046193
v 0.04662635 -0.02768055 0.07046193
v 0.04662635 -0.02768055 0.07046193
v 0.04662635 -0.02768055 0.07046193
v 0.04636661 -0.02926334 0.07032564
v 0.04636661 -0.02926334 0.07032564
v 0.04636661 -0.02926334 0.07032564
v 0.04636661 -0.02926334 0.07032564
v 0.04636661 -0.02926334 0.07032564
v 0.04605260 -0.03040348 0.07014645
v 0.04605260 -0.03040348 0.07014645
v 0.04605260 -0.03040348 0.07014645
v 0.04605260 -0.03040348 0.07014645
v 0.04605260 -0.03040348 0.07014645
v 0.04605260 -0.03040348 0.07014645
v 0.04605260 -0.03040348 0.07014645
v 0.04605260 -0.03040348 0.07014645
v 0.04559903 -0.03145643 0.06963915
v 0.04559903 -0.03145643 0.06963915
v 0.04559903 -0.03145643 0.06963915
v 0.04559903 -0.03145643 0.06963915
v 0.04454458 -0.03168446 0.07008335
v 0.04454458 -0.03168446 0.07008335
v 0.04454458 -0.03168446 0.07008335
v 0.04454458 -0.03168446 0.07008335
v 0.04454458 -0.03168446 0.07008335
v 0.04454458 -0.03168446 0.07008335
v 0.04454458 -0.03168446 0.07008335
v 0.04454458 -0.03168446 0.07008335
v 0.04454458 -0.03168446 0.07008335
v 0.04507568 -0.03176495 0.06916214
v 0.04507568 -0.03176495 0.06916214
v 0.04507568 -0.03176495 0.06916214
v 0.04507568 -0.03176495 0.06916214
v 0.04507568 -0.03176495 0.06916214
v 0.04508344 -0.03188566 0.06765538
v 0.04508344 -0.03188566 0.06765538
v 0.04508344 -0.03188566 0.06765538
v 0.04508344 -0.03188566 0.06765538
v 0.04508344 -0.03188566 0.06765538
v 0.04508344 -0.03188566 0.06765538
v 0.04508344 -0.03188566 0.06765538
v 0.04508344 -0.03193261 0.06291048
v 0.04508344 -0.03193261 0.06291048
v 0.04508344 -0.03193261 0.06291048
v 0.04508344 -0.03193261 0.06291048
v 0.04508344 -0.03193261 0.06291048
v 0.04508344 -0.03194602 0.06132801
v 0.04508344 -0.03194602 0.06132801
v 0.04508344 -0.03194602 0.06132801
v 0.04508344 -0.03194602 0.06132801
v 0.04509119 -0.03204663 0.04552347
v 0.04509119 -0.03204663 0.04552347
v 0.04509119 -0.03204663 0.04552347
v 0.04509119 -0.03204663 0.04552347
v 0.04509119 -0.03204663 0.04552347
v 0.04645965 0.03084219 0.07042660
v 0.04645965 0.03084219 0.07042660
v 0.04645965 0.03084219 0.07042660
v 0.04645965 0.03084219 0.07042660
v 0.04645965 0.03084219 0.07042660
v 0.04645965 0.03084219 0.07042660
v 0.04742494 -0.01977334 0.06993696
v 0.04742494 -0.01977334 0.06993696
v 0.04742494 -0.01977334 0.06993696
v 0.04739393 0.03298163 0.05816811
v 0.04739393 0.03298163 0.05816811
v 0.04739393 0.03298163 0.05816811
v 0.04739393 0.03298163 0.05816811
v 0.04739393 0.03298163 0.05816811
v 0.04739393 0.03298163 0.05816811
v 0.04739393 0.03298163 0.05816811
v 0.04739393 0.03298163 0.05816811
v 0.04737067 0.03286091 0.06132801
v 0.04737067 0.03286091 0.06132801
v 0.04737067 0.03286091 0.06132801
v 0.04735516 0.03280726 0.06291048
v 0.04735516 0.03280726 0.06291048
v 0.04735516 0.03280726 0.06291048
v 0.04735516 0.03280726 0.06291048
v 0.04735516 0.03280726 0.06291048
v 0.04735516 0.03280726 0.06291048
v 0.04735516 0.03280726 0.06291048
v 0.04739393 0.03298163 0.04552347
v 0.04739393 0.03298163 0.04552347
v 0.04739393 0.03298163 0.04552347
v 0.04664961 0.03401446 0.04552347
v 0.04664961 0.03401446 0.04552347
v 0.04664961 0.03401446 0.04552347
v 0.04664961 0.03401446 0.04552347
v 0.04664961 0.03401446 0.04552347
v 0.04664961 0.03401446 0.04552347
v 0.04666512 0.03400776 0.04709332
v 0.04666512 0.03400776 0.04709332
v 0.04666512 0.03400776 0.04709332
v 0.04666512 0.03400776 0.04709332
v 0.04670388 0.03400776 0.05816811
v 0.04670388 0.03400776 0.05816811
v 0.04670388 0.03400776 0.05816811
v 0.04670388 0.03400776 0.05816811
v 0.04670388 0.03400776 0.05816811
v 0.04670388 0.03400776 0.05816811
v 0.04732803 0.03271336 0.06449295
v 0.04732803 0.03271336 0.06449295
v 0.04732803 0.03271336 0.06449295
v 0.04732803 0.03271336 0.06449295
v 0.04732803 0.03271336 0.06449295
v 0.04732803 0.03271336 0.06449295
v 0.04729314 0.03259264 0.06607543
v 0.04729314 0.03259264 0.06607543
v 0.04729314 0.03259264 0.06607543
v 0.04729314 0.03259264 0.06607543
v 0.04647904 0.03400776 0.06765538
v 0.04647904 0.03400776 0.06765538
v 0.04647904 0.03400776 0.06765538
v 0.04647904 0.03400776 0.06765538
v 0.04647904 0.03400776 0.06765538
v 0.04647904 0.03400776 0.06765538
v 0.04647904 0.03400776 0.06765538
v 0.04618054 0.03406141 0.06908641
v 0.04618054 0.03406141 0.06908641
v 0.04618054 0.03406141 0.06908641
v 0.04618054 0.03406141 0.06908641
v 0.04618054 0.03406141 0.06908641
v 0.04618054 0.03406141 0.06908641
v 0.04625419 0.03242498 0.07032816
v 0.04625419 0.03242498 0.07032816
v 0.04625419 0.03242498 0.07032816
v 0.04625419 0.03242498 0.07032816
v 0.04625419 0.03242498 0.07032816
v 0.04602934 0.03357182 0.07016916
v 0.04602934 0.03357182 0.07016916
v 0.04602934 0.03357182 0.07016916
v 0.04602934 0.03357182 0.07016916
v 0.04602934 0.03357182 0.07016916
v 0.04602934 0.03357182 0.07016916
v 0.04602934 0.03357182 0.07016916
v 0.04508344 0.03084219 0.07102981
v 0.04508344 0.03084219 0.07102981
v 0.04508344 0.03084219 0.07102981
v 0.04508344 0.03084219 0.07102981
v 0.04508344 0.03084219 0.07102981
v 0.04508344 0.02926611 0.07104999
v 0.04508344 0.02926611 0.07104999
v 0.04508344 0.02926611 0.07104999
v 0.04508344 0.02926611 0.07104999
v 0.04508344 0.02768333 0.07106261
v 0.04508344 0.02768333 0.07106261
v 0.04508344 0.02768333 0.07106261
v 0.04508344 0.02768333 0.07106261
v 0.04508344 0.02768333 0.07106261
v 0.04508344 0.02768333 0.07106261
v 0.04508344 0.02768333 0.07106261
v 0.04508344 -0.02293220 0.07110299
v 0.04508344 -0.02293220 0.07110299
v 0.04508344 -0.02293220 0.07110299
v 0.04508344 -0.02293220 0.07110299
v 0.04508344 -0.02293220 0.07110299
v 0.04508344 -0.02609777 0.07110299
v 0.04508344 -0.02609777 0.07110299
v 0.04508344 -0.02609777 0.07110299
v 0.04508344 -0.02609777 0.07110299
v 0.04508344 -0.02609777 0.07110299
v 0.04508344 -0.02609777 0.07110299
v 0.04508344 -0.02768055 0.07106261
v 0.04508344 -0.02768055 0.07106261
v 0.04508344 -0.02768055 0.07106261
v 0.04508344 -0.02768055 0.07106261
v 0.04508344 -0.02768055 0.07106261
v 0.04508344 -0.02768055 0.07106261
v 0.04508344 -0.02926334 0.07080013
v 0.04508344 -0.02926334 0.07080013
v 0.04508344 -0.02926334 0.07080013
v 0.04508344 -0.02926334 0.07080013
v 0.04508344 -0.02926334 0.07080013
v 0.04507568 -0.03089978 0.07028273
v 0.04507568 -0.03089978 0.07028273
v 0.04507568 -0.03089978 0.07028273
v 0.04507568 -0.03089978 0.07028273
v 0.04350176 -0.02926334 0.07100204
v 0.04350176 -0.02926334 0.07100204
v 0.04350176 -0.02926334 0.07100204
v 0.04350176 -0.02926334 0.07100204
v 0.04350176 -0.02926334 0.07100204
v 0.04350176 -0.02926334 0.07100204
v 0.04350176 -0.02926334 0.07100204
v 0.04350176 -0.03084612 0.07047455
v 0.04350176 -0.03084612 0.07047455
v 0.04350176 -0.03084612 0.07047455
v 0.04350176 -0.03084612 0.07047455
v 0.04350176 -0.03084612 0.07047455
v 0.04350176 -0.03084612 0.07047455
v 0.04350176 -0.03169788 0.07009597
v 0.04350176 -0.03169788 0.07009597
v 0.04350176 -0.03169788 0.07009597
v 0.04350176 -0.03169788 0.07009597
v 0.04350176 -0.03191249 0.06923785
v 0.04350176 -0.03191249 0.06923785
v 0.04350176 -0.03191249 0.06923785
v 0.04350176 -0.03191249 0.06923785
v 0.04350176 -0.03191249 0.06923785
v 0.04350176 -0.03191249 0.06923785
v 0.04350176 -0.03208016 0.06765538
v 0.04350176 -0.03208016 0.06765538
v 0.04350176 -0.03208016 0.06765538
v 0.04350176 -0.03208016 0.06765538
v 0.04350176 -0.03208016 0.06765538
v 0.04350176 -0.03208016 0.06765538
v 0.04350176 -0.03208016 0.06765538
v 0.04350176 -0.03208016 0.06765538
v 0.04350176 -0.03208016 0.06765538
v 0.04350176 -0.03211369 0.06607543
v 0.04350176 -0.03211369 0.06607543
v 0.04350176 -0.03211369 0.06607543
v 0.04350176 -0.03211369 0.06607543
v 0.04350176 -0.03228135 0.05816811
v 0.04350176 -0.03228135 0.05816811
v 0.04350176 -0.03228135 0.05816811
v 0.04350176 -0.03228135 0.05816811
v 0.04350176 -0.03230818 0.05658563
v 0.04350176 -0.03230818 0.05658563
v 0.04350176 -0.03230818 0.05658563
v 0.04350176 -0.03230818 0.05658563
v 0.04350176 -0.03230818 0.05658563
v 0.04350176 -0.03230818 0.05658563
v 0.04350176 -0.03230818 0.05658563
v 0.04351339 -0.03232160 0.04552347
v 0.04351339 -0.03232160 0.04552347
v 0.04351339 -0.03232160 0.04552347
v 0.04351339 -0.03232160 0.04552347
v 0.04351339 -0.03232160 0.04552347
v 0.04508344 0.03242498 0.07085313
v 0.04508344 0.03242498 0.07085313
v 0.04508344 0.03242498 0.07085313
v 0.04508344 0.03242498 0.07085313
v 0.04508344 0.03242498 0.07085313
v 0.04508344 0.03242498 0.07085313
v 0.04508344 0.03242498 0.07085313
v 0.04508344 0.03242498 0.07085313
v 0.04663023 0.03400776 0.06291048
v 0.04663023 0.03400776 0.06291048
v 0.04663023 0.03400776 0.06291048
v 0.04663023 0.03400776 0.06291048
v 0.04660309 0.03400776 0.06449295
v 0.04660309 0.03400776 0.06449295
v 0.04660309 0.03400776 0.06449295
v 0.04660309 0.03400776 0.06449295
v 0.04656820 0.03400776 0.06607543
v 0.04656820 0.03400776 0.06607543
v 0.04656820 0.03400776 0.06607543
v 0.04656820 0.03400776 0.06607543
v 0.04656820 0.03400776 0.06607543
v 0.04656820 0.03400776 0.06607543
v 0.04656820 0.03400776 0.06607543
v 0.04592080 0.03485281 0.04552347
v 0.04592080 0.03485281 0.04552347
v 0.04592080 0.03485281 0.04552347
v 0.04592080 0.03485281 0.04552347
v 0.04597895 0.03491316 0.05816811
v 0.04597895 0.03491316 0.05816811
v 0.04597895 0.03491316 0.05816811
v 0.04597895 0.03491316 0.05816811
v 0.04597895 0.03491316 0.05816811
v 0.04597895 0.03491316 0.05816811
v 0.04594018 0.03487963 0.06607543
v 0.04594018 0.03487963 0.06607543
v 0.04594018 0.03487963 0.06607543
v 0.04594018 0.03487963 0.06607543
v 0.04594018 0.03487963 0.06607543
v 0.04594018 0.03487963 0.06607543
v 0.04594018 0.03487963 0.06607543
v 0.04594018 0.03487963 0.06607543
v 0.04590917 0.03483939 0.06765538
v 0.04590917 0.03483939 0.06765538
v 0.04590917 0.03483939 0.06765538
v 0.04590917 0.03483939 0.06765538
v 0.04590917 0.03483939 0.06765538
v 0.04590917 0.03483939 0.06765538
v 0.04587428 0.03479915 0.06845797
v 0.04587428 0.03479915 0.06845797
v 0.04587428 0.03479915 0.06845797
v 0.04587428 0.03479915 0.06845797
v 0.04587428 0.03479915 0.06845797
v 0.04587428 0.03479915 0.06845797
v 0.04572697 0.03462477 0.06951295
v 0.04572697 0.03462477 0.06951295
v 0.04572697 0.03462477 0.06951295
v 0.04572697 0.03462477 0.06951295
v 0.04572697 0.03462477 0.06951295
v 0.04467251 0.03496011 0.07019440
v 0.04467251 0.03496011 0.07019440
v 0.04467251 0.03496011 0.07019440
v 0.04467251 0.03496011 0.07019440
v 0.04467251 0.03496011 0.07019440
v 0.04467251 0.03496011 0.07019440
v 0.04467251 0.03496011 0.07019440
v 0.04515322 0.03406141 0.07038874
v 0.04515322 0.03406141 0.07038874
v 0.04515322 0.03406141 0.07038874
v 0.04515322 0.03406141 0.07038874
v 0.04350176 0.03084219 0.07127715
v 0.04350176 0.03084219 0.07127715
v 0.04350176 0.03084219 0.07127715
v 0.04350176 0.03084219 0.07127715
v 0.04350176 0.03084219 0.07127715
v 0.04350176 0.03084219 0.07127715
v 0.04350176 0.03084219 0.07127715
v 0.04350176 0.02926611 0.07128724
v 0.04350176 0.02926611 0.07128724
v 0.04350176 0.02926611 0.07128724
v 0.04350176 0.02926611 0.07128724
v 0.04350176 0.02768333 0.07129229
v 0.04350176 0.02768333 0.07129229
v 0.04350176 0.02768333 0.07129229
v 0.04350176 0.02768333 0.07129229
v 0.04350176 0.02768333 0.07129229
v 0.04350176 -0.02609777 0.07129481
v 0.04350176 -0.02609777 0.07129481
v 0.04350176 -0.02609777 0.07129481
v 0.04350176 -0.02609777 0.07129481
v 0.04350176 -0.02609777 0.07129481
v 0.04350176 -0.02609777 0.07129481
v 0.04350176 -0.02609777 0.07129481
v 0.04350176 -0.02768055 0.07125948
v 0.04350176 -0.02768055 0.07125948
v 0.04350176 -0.02768055 0.07125948
v 0.04350176 -0.02768055 0.07125948
v 0.04350176 -0.02768055 0.07125948
v 0.04192008 -0.02926334 0.07102981
v 0.04192008 -0.02926334 0.07102981
v 0.04192008 -0.02926334 0.07102981
v 0.04192008 -0.02926334 0.07102981
v 0.04192008 -0.02926334 0.07102981
v 0.04033840 -0.03084612 0.07048464
v 0.04033840 -0.03084612 0.07048464
v 0.04033840 -0.03084612 0.07048464
v 0.04033840 -0.03084612 0.07048464
v 0.04033840 -0.03084612 0.07048464
v 0.04033840 -0.03084612 0.07048464
v 0.04033840 -0.03171129 0.07011111
v 0.04033840 -0.03171129 0.07011111
v 0.04033840 -0.03171129 0.07011111
v 0.04033840 -0.03171129 0.07011111
v 0.04033840 -0.03171129 0.07011111
v 0.04033840 -0.03171129 0.07011111
v 0.04033840 -0.03171129 0.07011111
v 0.04033840 -0.03192590 0.06923785
v 0.04033840 -0.03192590 0.06923785
v 0.04033840 -0.03192590 0.06923785
v 0.04033840 -0.03192590 0.06923785
v 0.04033840 -0.03192590 0.06923785
v 0.04033840 -0.03192590 0.06923785
v 0.04033840 -0.03192590 0.06923785
v 0.04033840 -0.03192590 0.06923785
v 0.04192008 -0.03208686 0.06765538
v 0.04192008 -0.03208686 0.06765538
v 0.04192008 -0.03208686 0.06765538
v 0.04192008 -0.03208686 0.06765538
v 0.02926276 -0.03261669 0.05658563
v 0.02926276 -0.03261669 0.05658563
v 0.02926276 -0.03261669 0.05658563
v 0.02926276 -0.03261669 0.05658563
v 0.02926276 -0.03261669 0.05658563
v 0.02926276 -0.03261669 0.05658563
v 0.02926276 -0.03261669 0.05658563
v 0.02926276 -0.03261669 0.05658563
v 0.02926276 -0.03261669 0.05658563
v 0.02926276 -0.03261669 0.05658563
v 0.03559336 -0.03258316 0.05658563
v 0.03559336 -0.03258316 0.05658563
v 0.03559336 -0.03258316 0.05658563
v 0.03559336 -0.03258316 0.05658563
v 0.03717504 -0.03256304 0.05658563
v 0.03717504 -0.03256304 0.05658563
v 0.03717504 -0.03256304 0.05658563
v 0.03717504 -0.03256304 0.05658563
v 0.03717504 -0.03256304 0.05658563
v 0.03717504 -0.03256304 0.05658563
v 0.04192008 -0.03234842 0.05816811
v 0.04192008 -0.03234842 0.05816811
v 0.04192008 -0.03234842 0.05816811
v 0.04192008 -0.03234842 0.05816811
v 0.04192008 -0.03234842 0.05816811
v 0.04192008 -0.03237525 0.05658563
v 0.04192008 -0.03237525 0.05658563
v 0.04192008 -0.03237525 0.05658563
v 0.04192008 -0.03237525 0.05658563
v 0.04193171 -0.03234842 0.04552347
v 0.04193171 -0.03234842 0.04552347
v 0.04193171 -0.03234842 0.04552347
v 0.04193171 -0.03234842 0.04552347
v 0.04193171 -0.03234842 0.04552347
v 0.04350176 0.03242498 0.07109795
v 0.04350176 0.03242498 0.07109795
v 0.04350176 0.03242498 0.07109795
v 0.04350176 0.03242498 0.07109795
v 0.04350176 0.03242498 0.07109795
v 0.04350176 0.03400776 0.07072946
v 0.04350176 0.03400776 0.07072946
v 0.04350176 0.03400776 0.07072946
v 0.04350176 0.03400776 0.07072946
v 0.04350176 0.03400776 0.07072946
v 0.04350176 0.03400776 0.07072946
v 0.04350176 0.03400776 0.07072946
v 0.04350176 0.03400776 0.07072946
v 0.04508344 0.03524850 0.04552347
v 0.04508344 0.03524850 0.04552347
v 0.04508344 0.03524850 0.04552347
v 0.04508344 0.03524850 0.04552347
v 0.04508344 0.03536251 0.05816811
v 0.04508344 0.03536251 0.05816811
v 0.04508344 0.03536251 0.05816811
v 0.04508344 0.03536251 0.05816811
v 0.04508344 0.03536251 0.05816811
v 0.04508344 0.03536251 0.05816811
v 0.04508344 0.03528203 0.06607543
v 0.04508344 0.03528203 0.06607543
v 0.04508344 0.03528203 0.06607543
v 0.04508344 0.03528203 0.06607543
v 0.04508344 0.03528203 0.06607543
v 0.04508344 0.03528203 0.06607543
v 0.04508344 0.03528203 0.06607543
v 0.04508344 0.03528203 0.06607543
v 0.04508344 0.03522168 0.06765538
v 0.04508344 0.03522168 0.06765538
v 0.04508344 0.03522168 0.06765538
v 0.04508344 0.03522168 0.06765538
v 0.04508344 0.03522168 0.06765538
v 0.04508344 0.03522168 0.06765538
v 0.04515322 0.03504730 0.06908641
v 0.04515322 0.03504730 0.06908641
v 0.04515322 0.03504730 0.06908641
v 0.04515322 0.03504730 0.06908641
v 0.04515322 0.03504730 0.06908641
v 0.04350176 0.03505400 0.07028273
v 0.04350176 0.03505400 0.07028273
v 0.04350176 0.03505400 0.07028273
v 0.04350176 0.03505400 0.07028273
v 0.04350176 0.03505400 0.07028273
v 0.04350176 0.03542958 0.06923785
v 0.04350176 0.03542958 0.06923785
v 0.04350176 0.03542958 0.06923785
v 0.04350176 0.03542958 0.06923785
v 0.04350176 0.03542958 0.06923785
v 0.04350176 0.03542958 0.06923785
v 0.04192008 0.03084219 0.07130743
v 0.04192008 0.03084219 0.07130743
v 0.04192008 0.03084219 0.07130743
v 0.04192008 0.03084219 0.07130743
v 0.04192008 0.03084219 0.07130743
v 0.04192008 0.03084219 0.07130743
v 0.04192008 0.03084219 0.07130743
v 0.04192008 0.03084219 0.07130743
v 0.04192008 0.03084219 0.07130743
v 0.04192008 0.03084219 0.07130743
v 0.04192008 0.03084219 0.07130743
v 0.04192008 0.03084219 0.07130743
v 0.04192008 -0.02609777 0.07129734
v 0.04192008 -0.02609777 0.07129734
v 0.04192008 -0.02609777 0.07129734
v 0.04192008 -0.02609777 0.07129734
v 0.04192008 -0.02768055 0.07128724
v 0.04192008 -0.02768055 0.07128724
v 0.04192008 -0.02768055 0.07128724
v 0.04192008 -0.02768055 0.07128724
v 0.04192008 -0.02768055 0.07128724
v 0.04192008 -0.02768055 0.07128724
v 0.04033840 -0.02926334 0.07102981
v 0.04033840 -0.02926334 0.07102981
v 0.04033840 -0.02926334 0.07102981
v 0.04033840 -0.02926334 0.07102981
v 0.04033840 -0.02926334 0.07102981
v 0.04033840 -0.02926334 0.07102981
v 0.03084445 -0.03084612 0.07043417
v 0.03084445 -0.03084612 0.07043417
v 0.03084445 -0.03084612 0.07043417
v 0.03084445 -0.03084612 0.07043417
v 0.03084445 -0.03084612 0.07043417
v 0.03084445 -0.03084612 0.07043417
v 0.03084445 -0.03084612 0.07043417
v 0.03084445 -0.03084612 0.07043417
v 0.03084445 -0.03169788 0.07009597
v 0.03084445 -0.03169788 0.07009597
v 0.03084445 -0.03169788 0.07009597
v 0.03084445 -0.03169788 0.07009597
v 0.03084445 -0.03169788 0.07009597
v 0.03084445 -0.03169788 0.07009597
v 0.03084445 -0.03191920 0.06923785
v 0.03084445 -0.03191920 0.06923785
v 0.03084445 -0.03191920 0.06923785
v 0.03084445 -0.03191920 0.06923785
v 0.03084445 -0.03191920 0.06923785
v 0.03084445 -0.03191920 0.06923785
v 0.00847221 -0.03211369 0.06765538
v 0.00847221 -0.03211369 0.06765538
v 0.00847221 -0.03211369 0.06765538
v 0.00847221 -0.03211369 0.06765538
v 0.00847221 -0.03211369 0.06765538
v 0.00847221 -0.03211369 0.06765538
v 0.01344984 -0.03211369 0.06765538
v 0.01344984 -0.03211369 0.06765538
v 0.01344984 -0.03211369 0.06765538
v 0.01344984 -0.03211369 0.06765538
v 0.01344984 -0.03211369 0.06765538
v 0.03084445 -0.03210028 0.06765538
v 0.03084445 -0.03210028 0.06765538
v 0.03084445 -0.03210028 0.06765538
v 0.03875672 -0.03209357 0.06765538
v 0.03875672 -0.03209357 0.06765538
v 0.03875672 -0.03209357 0.06765538
v 0.03875672 -0.03209357 0.06765538
v 0.00847221 -0.03262340 0.05658563
v 0.00847221 -0.03262340 0.05658563
v 0.00847221 -0.03262340 0.05658563
v 0.00847221 -0.03262340 0.05658563
v 0.00847221 -0.03262340 0.05658563
v 0.01187980 -0.03238867 0.04552347
v 0.01187980 -0.03238867 0.04552347
v 0.01187980 -0.03238867 0.04552347
v 0.01187980 -0.03238867 0.04552347
v 0.03718667 -0.03236184 0.04552347
v 0.03718667 -0.03236184 0.04552347
v 0.03718667 -0.03236184 0.04552347
v 0.04035003 -0.03235513 0.04552347
v 0.04035003 -0.03235513 0.04552347
v 0.04035003 -0.03235513 0.04552347
v 0.04192008 0.03242498 0.07111309
v 0.04192008 0.03242498 0.07111309
v 0.04192008 0.03242498 0.07111309
v 0.04192008 0.03242498 0.07111309
v 0.04192008 0.03242498 0.07111309
v 0.04192008 0.03242498 0.07111309
v 0.04192008 0.03242498 0.07111309
v 0.04192008 0.03506071 0.07029283
v 0.04192008 0.03506071 0.07029283
v 0.04192008 0.03506071 0.07029283
v 0.04192008 0.03506071 0.07029283
v 0.04192008 0.03506071 0.07029283
v 0.04192008 0.03506071 0.07029283
v 0.04192008 0.03400776 0.07073956
v 0.04192008 0.03400776 0.07073956
v 0.04192008 0.03400776 0.07073956
v 0.04192008 0.03400776 0.07073956
v 0.04350176 0.03559054 0.04552347
v 0.04350176 0.03559054 0.04552347
v 0.04350176 0.03559054 0.04552347
v 0.04350176 0.03559054 0.04552347
v 0.04350176 0.03559054 0.04552347
v 0.04350176 0.03559054 0.04552347
v 0.04350176 0.03574480 0.05816811
v 0.04350176 0.03574480 0.05816811
v 0.04350176 0.03574480 0.05816811
v 0.04350176 0.03574480 0.05816811
v 0.04350176 0.03574480 0.05816811
v 0.04350176 0.03574480 0.05816811
v 0.04350176 0.03565090 0.06449295
v 0.04350176 0.03565090 0.06449295
v 0.04350176 0.03565090 0.06449295
v 0.04350176 0.03565090 0.06449295
v 0.04350176 0.03562407 0.06607543
v 0.04350176 0.03562407 0.06607543
v 0.04350176 0.03562407 0.06607543
v 0.04350176 0.03562407 0.06607543
v 0.04350176 0.03562407 0.06607543
v 0.04350176 0.03558383 0.06765538
v 0.04350176 0.03558383 0.06765538
v 0.04350176 0.03558383 0.06765538
v 0.04350176 0.03558383 0.06765538
v 0.04350176 0.03558383 0.06765538
v 0.04350176 0.03558383 0.06765538
v 0.04350176 0.03558383 0.06765538
v 0.04350176 0.03558383 0.06765538
v 0.04192008 0.03544970 0.06923785
v 0.04192008 0.03544970 0.06923785
v 0.04192008 0.03544970 0.06923785
v 0.04192008 0.03544970 0.06923785
v 0.04192008 0.03544970 0.06923785
v 0.04192008 0.03544970 0.06923785
v 0.04192008 0.03544970 0.06923785
v 0.04192008 0.03544970 0.06923785
v 0.04192008 0.03544970 0.06923785
v 0.04033840 0.03242498 0.07110047
v 0.04033840 0.03242498 0.07110047
v 0.04033840 0.03242498 0.07110047
v 0.04033840 0.03242498 0.07110047
v 0.03401168 0.03242498 0.07103233
v 0.03401168 0.03242498 0.07103233
v 0.03401168 0.03242498 0.07103233
v 0.03401168 0.03242498 0.07103233
v 0.03401168 0.03242498 0.07103233
v 0.03401168 0.03242498 0.07103233
v 0.00847221 0.03084219 0.07083547
v 0.00847221 0.03084219 0.07083547
v 0.00847221 0.03084219 0.07083547
v 0.00847221 0.03084219 0.07083547
v 0.00847221 0.03084219 0.07083547
v 0.00847221 -0.02768055 0.07091623
v 0.00847221 -0.02768055 0.07091623
v 0.00847221 -0.02768055 0.07091623
v 0.00847221 -0.02768055 0.07091623
v 0.04033840 -0.02768055 0.07127967
v 0.04033840 -0.02768055 0.07127967
v 0.04033840 -0.02768055 0.07127967
v 0.04033840 -0.02768055 0.07127967
v 0.04033840 -0.02768055 0.07127967
v 0.04033840 -0.02768055 0.07127967
v 0.04033840 -0.02768055 0.07127967
v 0.04033840 -0.02768055 0.07127967
v 0.04033840 -0.02768055 0.07127967
v 0.03875672 -0.02926334 0.07101718
v 0.03875672 -0.02926334 0.07101718
v 0.03875672 -0.02926334 0.07101718
v 0.03875672 -0.02926334 0.07101718
v 0.03401168 -0.02926334 0.07097176
v 0.03401168 -0.02926334 0.07097176
v 0.03401168 -0.02926334 0.07097176
v 0.03401168 -0.02926334 0.07097176
v 0.03401168 -0.02926334 0.07097176
v 0.00847221 -0.03067845 0.07024488
v 0.00847221 -0.03067845 0.07024488
v 0.00847221 -0.03067845 0.07024488
v 0.00847221 -0.03067845 0.07024488
v 0.00847221 -0.03067845 0.07024488
v 0.00847221 -0.03067845 0.07024488
v 0.00847221 -0.03067845 0.07024488
v 0.00870093 -0.03068516 0.07024488
v 0.00870093 -0.03068516 0.07024488
v 0.00870093 -0.03068516 0.07024488
v 0.02926276 -0.03169117 0.07008587
v 0.02926276 -0.03169117 0.07008587
v 0.02926276 -0.03169117 0.07008587
v 0.02926276 -0.03169117 0.07008587
v 0.02926276 -0.03169117 0.07008587
v 0.02926276 -0.03169117 0.07008587
v 0.02926276 -0.03169117 0.07008587
v 0.00847221 -0.03185883 0.06908137
v 0.00847221 -0.03185883 0.06908137
v 0.00847221 -0.03185883 0.06908137
v 0.00847221 -0.03185883 0.06908137
v 0.00847221 -0.03185883 0.06908137
v 0.00847221 -0.03185883 0.06908137
v 0.00847221 -0.03185883 0.06908137
v 0.00847221 -0.03185883 0.06908137
v 0.00847221 -0.03189908 0.06887946
v 0.00847221 -0.03189908 0.06887946
v 0.00847221 -0.03189908 0.06887946
v 0.00847221 -0.03238867 0.04552347
v 0.00847221 -0.03238867 0.04552347
v 0.00847221 -0.03238867 0.04552347
v 0.04033840 0.03400776 0.07072946
v 0.04033840 0.03400776 0.07072946
v 0.04033840 0.03400776 0.07072946
v 0.04033840 0.03400776 0.07072946
v 0.04033840 0.03400776 0.07072946
v 0.03559336 0.03400776 0.07069665
v 0.03559336 0.03400776 0.07069665
v 0.03559336 0.03400776 0.07069665
v 0.03559336 0.03400776 0.07069665
v 0.03559336 0.03400776 0.07069665
v 0.03559336 0.03400776 0.07069665
v 0.03559336 0.03400776 0.07069665
v 0.03559336 0.03502718 0.07026507
v 0.03559336 0.03502718 0.07026507
v 0.03559336 0.03502718 0.07026507
v 0.03559336 0.03502718 0.07026507
v 0.03559336 0.03502718 0.07026507
v 0.04033840 0.03559054 0.04552347
v 0.04033840 0.03559054 0.04552347
v 0.04033840 0.03559054 0.04552347
v 0.04033840 0.03559054 0.04552347
v 0.04033840 0.03559054 0.04552347
v 0.03875672 0.03589234 0.05816811
v 0.03875672 0.03589234 0.05816811
v 0.03875672 0.03589234 0.05816811
v 0.03875672 0.03589234 0.05816811
v 0.03875672 0.03589234 0.05816811
v 0.03875672 0.03589234 0.05816811
v 0.03875672 0.03589234 0.05816811
v 0.04033840 0.03587222 0.05816811
v 0.04033840 0.03587222 0.05816811
v 0.04033840 0.03587222 0.05816811
v 0.04033840 0.03587222 0.05816811
v 0.04033840 0.03587222 0.05816811
v 0.04192008 0.03582528 0.05816811
v 0.04192008 0.03582528 0.05816811
v 0.04192008 0.03582528 0.05816811
v 0.04192008 0.03582528 0.05816811
v 0.04192008 0.03582528 0.05816811
v 0.04192008 0.03559725 0.06765538
v 0.04192008 0.03559725 0.06765538
v 0.04192008 0.03559725 0.06765538
v 0.04192008 0.03559725 0.06765538
v 0.03559336 0.03539605 0.06923785
v 0.03559336 0.03539605 0.06923785
v 0.03559336 0.03539605 0.06923785
v 0.03559336 0.03539605 0.06923785
v 0.03559336 0.03539605 0.06923785
v 0.03559336 0.03539605 0.06923785
v 0.03401168 0.03502047 0.07025245
v 0.03401168 0.03502047 0.07025245
v 0.03401168 0.03502047 0.07025245
v 0.03401168 0.03502047 0.07025245
v 0.03401168 0.03502047 0.07025245
v 0.03401168 0.03502047 0.07025245
v 0.03401168 0.03502047 0.07025245
v 0.03875672 0.03558383 0.06765538
v 0.03875672 0.03558383 0.06765538
v 0.03875672 0.03558383 0.06765538
v 0.03875672 0.03558383 0.06765538
v 0.03875672 0.03558383 0.06765538
v 0.03243000 0.03242498 0.07100961
v 0.03243000 0.03242498 0.07100961
v 0.03243000 0.03242498 0.07100961
v 0.03243000 0.03242498 0.07100961
v 0.03243000 0.03242498 0.07100961
v 0.03401168 0.03400776 0.07067899
v 0.03401168 0.03400776 0.07067899
v 0.03401168 0.03400776 0.07067899
v 0.03401168 0.03400776 0.07067899
v 0.03401168 0.03400776 0.07067899
v 0.03401168 0.03400776 0.07067899
v 0.03401168 0.03400776 0.07067899
v 0.00847221 0.03219694 0.07064113
v 0.00847221 0.03219694 0.07064113
v 0.00847221 0.03219694 0.07064113
v 0.00847221 -0.02790858 0.07088342
v 0.00847221 -0.02790858 0.07088342
v 0.00847221 -0.02790858 0.07088342
v 0.00847221 -0.02926334 0.07068655
v 0.00847221 -0.02926334 0.07068655
v 0.00847221 -0.02926334 0.07068655
v 0.00847221 -0.02926334 0.07068655
v 0.00847221 -0.03146985 0.06987134
v 0.00847221 -0.03146985 0.06987134
v 0.00847221 -0.03146985 0.06987134
v 0.00870093 -0.03147655 0.06987639
v 0.00870093 -0.03147655 0.06987639
v 0.00870093 -0.03147655 0.06987639
v 0.00870093 -0.03147655 0.06987639
v 0.00870093 -0.03147655 0.06987639
v 0.00870093 -0.03147655 0.06987639
v 0.02768496 -0.03167776 0.07006820
v 0.02768496 -0.03167776 0.07006820
v 0.02768496 -0.03167776 0.07006820
v 0.00847221 -0.03153021 0.06975777
v 0.00847221 -0.03153021 0.06975777
v 0.00847221 -0.03153021 0.06975777
v 0.00847221 0.03533568 0.04552347
v 0.00847221 0.03533568 0.04552347
v 0.00847221 0.03533568 0.04552347
v 0.03715953 0.03557042 0.04552347
v 0.03715953 0.03557042 0.04552347
v 0.03715953 0.03557042 0.04552347
v 0.03715953 0.03557042 0.04552347
v 0.02768496 0.03584540 0.05658563
v 0.02768496 0.03584540 0.05658563
v 0.02768496 0.03584540 0.05658563
v 0.02768496 0.03584540 0.05658563
v 0.02768496 0.03584540 0.05658563
v 0.02768496 0.03584540 0.05658563
v 0.02926276 0.03585210 0.05658563
v 0.02926276 0.03585210 0.05658563
v 0.02926276 0.03585210 0.05658563
v 0.03717504 0.03588564 0.05816811
v 0.03717504 0.03588564 0.05816811
v 0.03717504 0.03588564 0.05816811
v 0.03717504 0.03588564 0.05816811
v 0.03401168 0.03537593 0.06923785
v 0.03401168 0.03537593 0.06923785
v 0.03401168 0.03537593 0.06923785
v 0.03401168 0.03537593 0.06923785
v 0.03401168 0.03537593 0.06923785
v 0.03717504 0.03557042 0.06765538
v 0.03717504 0.03557042 0.06765538
v 0.03717504 0.03557042 0.06765538
v 0.03717504 0.03557042 0.06765538
v 0.03717504 0.03557042 0.06765538
v 0.03401168 0.03553689 0.06765538
v 0.03401168 0.03553689 0.06765538
v 0.03401168 0.03553689 0.06765538
v 0.03401168 0.03553689 0.06765538
v 0.00847221 0.03522168 0.06765538
v 0.00847221 0.03522168 0.06765538
v 0.00847221 0.03522168 0.06765538
v 0.00847221 0.03522168 0.06765538
v 0.00847221 0.03522168 0.06765538
v 0.03243000 0.03500035 0.07023225
v 0.03243000 0.03500035 0.07023225
v 0.03243000 0.03500035 0.07023225
v 0.03243000 0.03500035 0.07023225
v 0.03243000 0.03500035 0.07023225
v 0.03243000 0.03500035 0.07023225
v 0.03243000 0.03500035 0.07023225
v 0.03084445 0.03584540 0.05816811
v 0.03084445 0.03584540 0.05816811
v 0.03084445 0.03584540 0.05816811
v 0.03084445 0.03584540 0.05816811
v 0.03084445 0.03584540 0.05816811
v 0.00847221 0.03242498 0.07060832
v 0.00847221 0.03242498 0.07060832
v 0.00847221 0.03242498 0.07060832
v 0.00847221 0.03242498 0.07060832
v 0.00847221 0.03242498 0.07060832
v 0.03243000 0.03400776 0.07064618
v 0.03243000 0.03400776 0.07064618
v 0.03243000 0.03400776 0.07064618
v 0.03243000 0.03400776 0.07064618
v 0.03243000 0.03400776 0.07064618
v 0.00847221 0.03570455 0.05658563
v 0.00847221 0.03570455 0.05658563
v 0.00847221 0.03570455 0.05658563
v 0.00847221 0.03570455 0.05658563
v 0.00847221 0.03570455 0.05658563
v 0.00847221 0.03570455 0.05658563
v 0.00847221 0.03570455 0.05658563
v 0.00847221 0.03570455 0.05658563
v 0.00847221 0.03499364 0.06893751
v 0.00847221 0.03499364 0.06893751
v 0.00847221 0.03499364 0.06893751
v 0.00847221 0.03499364 0.06893751
v 0.00847221 0.03499364 0.06893751
v 0.00847221 0.03499364 0.06893751
v 0.02926276 0.03583198 0.05816811
v 0.02926276 0.03583198 0.05816811
v 0.02926276 0.03583198 0.05816811
v 0.02610328 0.03488634 0.07011616
v 0.02610328 0.03488634 0.07011616
v 0.02610328 0.03488634 0.07011616
v 0.02610328 0.03488634 0.07011616
v 0.00847221 0.03367913 0.07020197
v 0.00847221 0.03367913 0.07020197
v 0.00847221 0.03367913 0.07020197
v 0.00847221 0.03367913 0.07020197
v 0.00847221 0.03367913 0.07020197
v 0.00847221 0.03367913 0.07020197
v 0.00847221 0.03349805 0.07026255
v 0.00847221 0.03349805 0.07026255
v 0.00847221 0.03349805 0.07026255
v 0.00847221 0.03491987 0.06905108
v 0.00847221 0.03491987 0.06905108
v 0.00847221 0.03491987 0.06905108
v 0.02452160 0.03485281 0.07008082
v 0.02452160 0.03485281 0.07008082
v 0.02452160 0.03485281 0.07008082
v 0.02452160 0.03485281 0.07008082
v 0.02452160 0.03485281 0.07008082
v 0.02452160 0.03485281 0.07008082
v 0.00847221 0.03435650 0.06979815
v 0.00847221 0.03435650 0.06979815
v 0.00847221 0.03435650 0.06979815
v 0.00847221 0.03447052 0.06972748
v 0.00847221 0.03447052 0.06972748
v 0.00847221 0.03447052 0.06972748
f 3 12 17
f 2 16 24
f 1 22 31
f 5 32 36
f 7 37 42
f 6 41 53
f 4 49 13
f 9 58 84
f 9 84 60
f 11 62 15
f 10 48 66
f 8 64 152
f 8 152 57
f 14 61 23
f 19 69 79
f 18 78 29
f 21 59 83
f 20 82 72
f 28 76 90
f 27 89 93
f 25 92 100
f 26 101 103
f 30 104 35
f 38 105 192
f 33 189 198
f 33 198 321
f 33 321 316
f 33 316 473
f 33 473 648
f 33 648 809
f 33 809 945
f 33 945 942
f 33 942 939
f 33 939 1069
f 33 1069 1169
f 33 1169 1172
f 33 1172 1089
f 33 1089 966
f 33 966 827
f 33 827 676
f 33 676 508
f 33 508 505
f 33 505 342
f 33 342 218
f 33 218 121
f 34 122 106
f 39 109 43
f 40 107 50
f 44 112 119
f 46 120 65
f 51 108 127
f 52 129 133
f 47 130 139
f 45 138 113
f 56 147 81
f 55 149 157
f 54 155 145
f 63 118 151
f 71 80 146
f 70 144 162
f 68 161 168
f 67 167 77
f 73 165 174
f 74 175 178
f 75 179 85
f 86 180 186
f 87 187 94
f 88 99 91
f 98 191 102
f 95 188 196
f 96 197 200
f 97 201 190
f 111 135 207
f 110 205 117
f 115 213 150
f 116 204 217
f 114 216 212
f 123 223 229
f 124 232 235
f 125 236 241
f 126 242 245
f 128 246 132
f 131 243 248
f 131 248 141
f 140 247 253
f 137 252 264
f 136 263 268
f 134 267 206
f 142 277 160
f 143 154 278
f 148 211 156
f 153 209 276
f 159 274 285
f 158 284 166
f 164 283 290
f 163 289 173
f 172 288 295
f 171 294 305
f 169 304 308
f 170 309 177
f 176 307 185
f 184 306 303
f 183 301 315
f 181 314 318
f 182 319 193
f 194 320 322
f 195 323 199
f 202 266 333
f 203 334 215
f 210 214 332
f 208 331 275
f 222 341 226
f 219 344 348
f 220 349 355
f 221 356 339
f 224 340 359
f 225 360 365
f 227 366 368
f 228 369 375
f 230 376 378
f 231 381 233
f 234 383 240
f 239 382 255
f 237 254 249
f 238 250 244
f 251 380 262
f 261 379 377
f 258 371 389
f 257 387 395
f 256 394 399
f 259 400 329
f 260 330 265
f 272 401 410
f 270 409 419
f 269 418 423
f 271 425 280
f 273 328 404
f 279 424 429
f 281 430 435
f 282 437 286
f 287 438 293
f 292 436 442
f 291 441 302
f 300 439 449
f 299 448 456
f 296 455 461
f 297 463 466
f 298 467 310
f 311 468 471
f 312 472 476
f 313 477 317
f 326 397 483
f 324 481 412
f 325 413 485
f 327 486 403
f 336 354 494
f 335 493 496
f 337 497 502
f 338 504 358
f 343 507 347
f 346 506 513
f 345 512 352
f 351 511 517
f 350 516 520
f 353 523 488
f 357 503 363
f 364 374 367
f 362 501 529
f 361 528 373
f 372 527 533
f 370 532 388
f 386 531 540
f 384 537 545
f 385 546 393
f 391 551 398
f 392 544 558
f 390 556 550
f 396 549 482
f 402 484 411
f 408 479 563
f 405 561 566
f 406 567 573
f 407 574 417
f 415 578 585
f 414 584 422
f 416 572 579
f 421 583 591
f 420 590 428
f 427 589 596
f 426 595 432
f 433 600 450
f 434 451 440
f 431 594 599
f 447 597 604
f 446 603 613
f 444 611 617
f 443 616 621
f 445 623 453
f 452 622 630
f 454 631 457
f 458 632 635
f 459 636 639
f 460 640 643
f 462 645 464
f 465 646 469
f 470 647 475
f 474 644 652
f 480 548 660
f 478 658 562
f 492 499 495
f 487 522 663
f 489 664 667
f 490 668 672
f 491 673 498
f 500 674 524
f 509 679 682
f 510 683 514
f 515 685 519
f 521 690 661
f 518 684 689
f 525 675 538
f 526 539 530
f 535 671 699
f 534 698 703
f 536 705 543
f 541 704 709
f 542 710 557
f 547 553 659
f 555 708 717
f 554 715 721
f 552 720 657
f 559 655 727
f 560 728 565
f 564 725 571
f 570 724 732
f 568 731 736
f 569 737 577
f 576 744 581
f 575 735 742
f 580 743 747
f 582 749 587
f 586 748 606
f 588 607 593
f 592 605 598
f 602 745 885
f 602 885 754
f 601 753 612
f 608 756 761
f 610 764 615
f 609 752 757
f 614 763 620
f 618 762 772
f 619 773 779
f 619 779 625
f 624 778 786
f 626 788 790
f 627 792 794
f 628 797 800
f 629 802 633
f 634 804 638
f 637 803 807
f 637 807 641
f 642 808 651
f 650 806 799
f 649 796 813
f 654 818 726
f 656 719 826
f 653 824 817
f 662 691 665
f 666 693 670
f 669 692 697
f 677 830 834
f 678 835 680
f 681 836 688
f 686 843 696
f 687 833 844
f 695 842 850
f 694 849 701
f 700 848 853
f 702 855 707
f 706 854 716
f 711 859 823
f 713 825 718
f 714 852 866
f 712 863 860
f 722 816 871
f 723 872 730
f 729 870 734
f 733 869 740
f 738 879 884
f 741 886 746
f 739 867 880
f 751 883 890
f 750 889 755
f 759 895 906
f 758 904 767
f 760 892 896
f 766 903 911
f 765 910 775
f 774 909 917
f 768 916 922
f 769 924 926
f 770 928 930
f 771 932 777
f 776 931 785
f 780 935 940
f 783 941 943
f 784 944 946
f 787 947 810
f 789 811 791
f 782 929 927
f 782 927 925
f 781 923 936
f 793 812 795
f 798 805 801
f 815 950 868
f 814 822 949
f 821 857 957
f 819 955 961
f 820 962 948
f 828 970 973
f 829 976 832
f 831 975 841
f 839 974 980
f 837 979 984
f 838 985 991
f 840 993 846
f 845 992 864
f 847 865 851
f 858 861 996
f 856 994 956
f 862 989 997
f 873 954 1004
f 874 1006 1008
f 877 1011 1013
f 878 1014 1020
f 876 1019 1030
f 875 1027 882
f 881 1023 888
f 887 1022 891
f 894 1024 1032
f 893 1031 898
f 899 1033 1035
f 900 1037 1040
f 902 1041 1048
f 901 1047 1052
f 897 1051 908
f 907 1050 1059
f 905 1058 914
f 913 1057 1066
f 912 1065 918
f 915 933 921
f 920 1067 1064
f 919 1063 1168
f 919 1168 1156
f 919 1156 1046
f 919 1046 1153
f 919 1153 1149
f 919 1149 1021
f 919 1021 1017
f 919 1017 1146
f 919 1146 1224
f 919 1224 1259
f 919 1259 1256
f 919 1256 1271
f 919 1271 1274
f 919 1274 1262
f 919 1262 1243
f 919 1243 1207
f 919 1207 1237
f 919 1237 1171
f 919 1171 1070
f 919 1070 937
f 934 1068 938
f 951 964 1073
f 952 1075 1077
f 953 1078 1003
f 959 1083 1072
f 958 1071 963
f 960 999 1085
f 965 1088 1093
f 967 1096 1101
f 968 1104 1106
f 969 1109 972
f 971 1108 978
f 977 1107 983
f 982 1105 1103
f 981 1102 990
f 988 1100 1095
f 987 1094 1111
f 986 1110 995
f 1001 1114 1121
f 1000 1120 1086
f 998 1113 1128
f 1002 1130 1194
f 1002 1194 1115
f 1005 1081 1007
f 1012 1133 1015
f 1009 1082 1138
f 1010 1139 1132
f 1016 1136 1145
f 1018 1148 1029
f 1028 1147 1152
f 1026 1151 1039
f 1025 1036 1034
f 1038 1150 1042
f 1045 1154 1161
f 1044 1157 1055
f 1043 1053 1049
f 1056 1159 1165
f 1054 1163 1060
f 1061 1164 1158
f 1062 1160 1166
f 1074 1084 1076
f 1079 1087 1122
f 1080 1123 1137
f 1092 1173 1178
f 1091 1177 1184
f 1090 1182 1097
f 1099 1183 1186
f 1098 1185 1127
f 1098 1127 1112
f 1117 1189 1124
f 1116 1197 1199
f 1118 1202 1204
f 1119 1205 1190
f 1126 1209 1141
f 1125 1191 1208
f 1129 1188 1216
f 1131 1218 1244
f 1131 1244 1195
f 1135 1221 1144
f 1134 1140 1220
f 1142 1211 1225
f 1143 1226 1222
f 1155 1167 1162
f 1170 1232 1175
f 1174 1231 1181
f 1180 1230 1217
f 1179 1215 1187
f 1176 1186 1183
f 1192 1206 1238
f 1193 1239 1210
f 1196 1246 1234
f 1198 1235 1200
f 1201 1236 1203
f 1214 1240 1248
f 1213 1247 1253
f 1212 1252 1229
f 1219 1233 1245
f 1223 1227 1257
f 1228 1251 1258
f 1242 1260 1267
f 1241 1263 1249
f 1250 1264 1254
f 1255 1265 1269
f 1261 1273 1268
f 1266 1272 1270

