# https://github.com/mikedh/trimesh
v -0.00079101 -0.02135178 -0.00059115
v -0.00079101 -0.02135178 -0.00059115
v -0.00079101 -0.02135178 -0.00059115
v -0.00079101 -0.02135178 -0.00059115
v -0.00079101 -0.02135178 -0.00059115
v -0.00079101 -0.02135178 -0.00059115
v -0.00079101 -0.02135178 -0.00059115
v -0.00079101 -0.02135178 -0.00059115
v -0.00079101 -0.02135178 -0.00059115
v -0.00079101 -0.02135178 -0.00059115
v -0.00079101 -0.02135178 -0.00059115
v -0.00079101 -0.02135178 -0.00059115
v -0.00079101 -0.02135178 -0.00059115
v 0.00025277 -0.02135178 -0.00058664
v 0.00025277 -0.02135178 -0.00058664
v 0.00025277 -0.02135178 -0.00058664
v 0.00025277 -0.02926147 -0.00004045
v 0.00025277 -0.02926147 -0.00004045
v 0.00025277 -0.02926147 -0.00004045
v 0.00025277 -0.02926147 -0.00004045
v -0.00079101 -0.02926147 -0.00004045
v -0.00079101 -0.02926147 -0.00004045
v -0.00079101 -0.02926147 -0.00004045
v -0.00079101 -0.02926147 -0.00004045
v -0.00079101 -0.02926147 -0.00004045
v -0.00395601 -0.02926147 0.00000018
v -0.00395601 -0.02926147 0.00000018
v -0.00395601 -0.02926147 0.00000018
v -0.00395601 -0.02926147 0.00000018
v -0.00395601 -0.02926147 0.00000018
v -0.00395601 -0.02926147 0.00000018
v -0.00553852 -0.02926147 0.00002275
v -0.00553852 -0.02926147 0.00002275
v -0.00553852 -0.02926147 0.00002275
v -0.00553852 -0.02926147 0.00002275
v -0.00553852 -0.02926147 0.00002275
v -0.00553852 -0.02926147 0.00002275
v -0.00553852 -0.02926147 0.00002275
v -0.00553852 -0.02926147 0.00002275
v -0.00553852 -0.02926147 0.00002275
v -0.00553852 -0.02926147 0.00002275
v -0.00395601 -0.02135178 -0.00051441
v -0.00395601 -0.02135178 -0.00051441
v -0.00395601 -0.02135178 -0.00051441
v -0.00395601 -0.02135178 -0.00051441
v -0.00395601 -0.02135178 -0.00051441
v -0.00870112 -0.01977384 -0.00043768
v -0.00870112 -0.01977384 -0.00043768
v -0.00870112 -0.01977384 -0.00043768
v -0.00870112 -0.01977384 -0.00043768
v -0.00870112 -0.01977384 -0.00043768
v -0.01660883 -0.01344209 -0.00036997
v -0.01660883 -0.01344209 -0.00036997
v -0.01660883 -0.01344209 -0.00036997
v -0.01660883 -0.01344209 -0.00036997
v -0.01660883 -0.01344209 -0.00036997
v -0.01819133 -0.01186414 -0.00035191
v -0.01819133 -0.01186414 -0.00035191
v -0.01819133 -0.01186414 -0.00035191
v -0.01819133 -0.01186414 -0.00035191
v -0.01819133 -0.01186414 -0.00035191
v -0.01819133 -0.01186414 -0.00035191
v -0.01819133 -0.01186414 -0.00035191
v -0.01819133 -0.01186414 -0.00035191
v -0.00553852 0.02135257 -0.00051441
v -0.00553852 0.02135257 -0.00051441
v -0.00553852 0.02135257 -0.00051441
v -0.00553852 0.02135257 -0.00051441
v -0.00553852 0.02135257 -0.00051441
v -0.00553852 0.02135257 -0.00051441
v -0.00553852 0.02135257 -0.00051441
v -0.00553852 0.02135257 -0.00051441
v -0.00553852 0.02135257 -0.00051441
v -0.00553852 0.02135257 -0.00051441
v -0.00237351 0.00711779 -0.00055956
v -0.00237351 0.00711779 -0.00055956
v -0.00237351 0.00711779 -0.00055956
v -0.00079101 0.00711779 -0.00056407
v -0.00079101 0.00711779 -0.00056407
v -0.00079101 0.00711779 -0.00056407
v -0.00079101 0.00711779 -0.00056407
v 0.00025277 0.00711779 -0.00056407
v 0.00025277 0.00711779 -0.00056407
v 0.00025277 0.00711779 -0.00056407
v 0.00025277 0.00711779 -0.00056407
v 0.00025277 0.00711779 -0.00056407
v 0.00025277 -0.03000051 0.00013559
v 0.00025277 -0.03000051 0.00013559
v 0.00025277 -0.03000051 0.00013559
v 0.00025277 -0.03000051 0.00013559
v -0.00079101 -0.03037336 0.00022587
v -0.00079101 -0.03037336 0.00022587
v -0.00079101 -0.03037336 0.00022587
v -0.00079101 -0.03037336 0.00022587
v -0.00079101 -0.03037336 0.00022587
v -0.00079101 -0.03037336 0.00022587
v -0.00079101 -0.03037336 0.00022587
v -0.00395601 -0.03031344 0.00025296
v -0.00395601 -0.03031344 0.00025296
v -0.00395601 -0.03031344 0.00025296
v -0.00395601 -0.03031344 0.00025296
v -0.00553852 -0.03028014 0.00026650
v -0.00553852 -0.03028014 0.00026650
v -0.00553852 -0.03028014 0.00026650
v -0.00553852 -0.03028014 0.00026650
v -0.00553852 -0.03028014 0.00026650
v -0.00553852 -0.03028014 0.00026650
v -0.00553852 -0.03028014 0.00026650
v -0.01028363 -0.03019359 0.00032970
v -0.01028363 -0.03019359 0.00032970
v -0.01028363 -0.03019359 0.00032970
v -0.01028363 -0.03019359 0.00032970
v -0.01186613 -0.03016696 0.00035227
v -0.01186613 -0.03016696 0.00035227
v -0.01186613 -0.03016696 0.00035227
v -0.01186613 -0.03016696 0.00035227
v -0.01344623 -0.03012701 0.00037483
v -0.01344623 -0.03012701 0.00037483
v -0.01344623 -0.03012701 0.00037483
v -0.01344623 -0.03012701 0.00037483
v -0.01502633 -0.03009372 0.00040192
v -0.01502633 -0.03009372 0.00040192
v -0.01502633 -0.03009372 0.00040192
v -0.01502633 -0.03009372 0.00040192
v -0.01603884 -0.03006709 0.00041997
v -0.01603884 -0.03006709 0.00041997
v -0.01603884 -0.03006709 0.00041997
v -0.01603884 -0.03006709 0.00041997
v -0.01603884 -0.03006709 0.00041997
v -0.00712102 -0.02926147 0.00006337
v -0.00712102 -0.02926147 0.00006337
v -0.00712102 -0.02926147 0.00006337
v -0.00712102 -0.02926147 0.00006337
v -0.02431692 -0.02926147 0.00060053
v -0.02431692 -0.02926147 0.00060053
v -0.02431692 -0.02926147 0.00060053
v -0.02431692 -0.02926147 0.00060053
v -0.02431692 -0.02926147 0.00060053
v -0.02431692 -0.02926147 0.00060053
v -0.02431692 -0.02926147 0.00060053
v -0.02431692 -0.02926147 0.00060053
v -0.02431692 -0.02926147 0.00060053
v -0.02431692 -0.02926147 0.00060053
v -0.02431692 -0.02926147 0.00060053
v -0.02431692 -0.02926147 0.00060053
v -0.02431692 -0.02926147 0.00060053
v -0.01186613 -0.01818923 -0.00038803
v -0.01186613 -0.01818923 -0.00038803
v -0.01186613 -0.01818923 -0.00038803
v -0.01977384 -0.01027954 -0.00027066
v -0.01977384 -0.01027954 -0.00027066
v -0.01977384 -0.01027954 -0.00027066
v -0.02135634 -0.00553240 -0.00027066
v -0.02135634 -0.00553240 -0.00027066
v -0.02135634 -0.00553240 -0.00027066
v -0.02135634 -0.00553240 -0.00027066
v -0.02135634 -0.00553240 -0.00027066
v -0.02135634 -0.00395445 -0.00027517
v -0.02135634 -0.00395445 -0.00027517
v -0.02135634 -0.00395445 -0.00027517
v -0.02135634 -0.00395445 -0.00027517
v -0.02135634 0.00553318 -0.00028872
v -0.02135634 0.00553318 -0.00028872
v -0.02135634 0.00553318 -0.00028872
v -0.02135634 0.00553318 -0.00028872
v -0.02135634 0.00553318 -0.00028872
v -0.02135634 0.00553318 -0.00028872
v -0.02135634 0.00553318 -0.00028872
v -0.02431692 0.03181893 0.00036129
v -0.02431692 0.03181893 0.00036129
v -0.02431692 0.03181893 0.00036129
v -0.02431692 0.03181893 0.00036129
v -0.02431692 0.03181893 0.00036129
v -0.02431692 0.03181893 0.00036129
v -0.02431692 0.03181893 0.00036129
v -0.02431692 0.03181893 0.00036129
v -0.02431692 0.03181893 0.00036129
v -0.02431692 0.03181893 0.00036129
v -0.02431692 0.03181893 0.00036129
v -0.00079101 0.02293717 -0.00048282
v -0.00079101 0.02293717 -0.00048282
v -0.00079101 0.02293717 -0.00048282
v -0.00079101 0.02293717 -0.00048282
v -0.00079101 0.02293717 -0.00048282
v -0.00079101 0.02293717 -0.00048282
v 0.00025277 0.02293717 -0.00048282
v 0.00025277 0.02293717 -0.00048282
v 0.00025277 0.02293717 -0.00048282
v 0.00025277 0.02293717 -0.00048282
v -0.01977384 0.01028033 -0.00030226
v -0.01977384 0.01028033 -0.00030226
v -0.01977384 0.01028033 -0.00030226
v -0.01977384 0.01028033 -0.00030226
v -0.01660883 0.01502748 -0.00034288
v -0.01660883 0.01502748 -0.00034288
v -0.01660883 0.01502748 -0.00034288
v 0.00025277 -0.03037336 0.00022587
v 0.00025277 -0.03037336 0.00022587
v 0.00025277 -0.03037336 0.00022587
v 0.00025277 -0.03089934 0.00054185
v 0.00025277 -0.03089934 0.00054185
v 0.00025277 -0.03089934 0.00054185
v 0.00025277 -0.03089934 0.00054185
v -0.00079101 -0.03116566 0.00070435
v -0.00079101 -0.03116566 0.00070435
v -0.00079101 -0.03116566 0.00070435
v -0.00079101 -0.03116566 0.00070435
v -0.00079101 -0.03116566 0.00070435
v -0.00079101 -0.03116566 0.00070435
v -0.00079101 -0.03116566 0.00070435
v -0.00079101 -0.03116566 0.00070435
v -0.02431692 -0.03197127 0.00171548
v -0.02431692 -0.03197127 0.00171548
v -0.02431692 -0.03197127 0.00171548
v -0.02431692 -0.03197127 0.00171548
v -0.02431692 -0.03197127 0.00171548
v -0.02431692 -0.03084607 0.00103839
v -0.02431692 -0.03084607 0.00103839
v -0.02431692 -0.03084607 0.00103839
v -0.02431692 -0.03084607 0.00103839
v -0.02431692 -0.03084607 0.00103839
v -0.02431692 -0.03084607 0.00103839
v -0.02431692 -0.03084607 0.00103839
v -0.02431692 -0.03084607 0.00103839
v -0.02431692 0.00079270 0.00044254
v -0.02431692 0.00079270 0.00044254
v -0.02431692 0.00079270 0.00044254
v -0.02400186 0.00079270 0.00021233
v -0.02400186 0.00079270 0.00021233
v -0.02400186 0.00079270 0.00021233
v -0.02400186 0.00079270 0.00021233
v -0.02400186 0.00079270 0.00021233
v -0.02293644 0.00079270 -0.00014879
v -0.02293644 0.00079270 -0.00014879
v -0.02293644 0.00079270 -0.00014879
v -0.02293644 0.00079270 -0.00014879
v -0.02293644 0.00079270 -0.00014879
v -0.02293644 0.00079270 -0.00014879
v -0.02135634 0.00711779 -0.00026615
v -0.02135634 0.00711779 -0.00026615
v -0.02135634 0.00711779 -0.00026615
v -0.02431692 0.03151932 0.00036129
v -0.02431692 0.03151932 0.00036129
v -0.02431692 0.03151932 0.00036129
v -0.02431692 0.03261123 0.00065019
v -0.02431692 0.03261123 0.00065019
v -0.02431692 0.03261123 0.00065019
v -0.02431692 0.03261123 0.00065019
v -0.01028363 0.03213851 0.00019879
v -0.01028363 0.03213851 0.00019879
v -0.01028363 0.03213851 0.00019879
v -0.01028363 0.03213851 0.00019879
v -0.01028363 0.03213851 0.00019879
v -0.00870112 0.03215849 0.00018074
v -0.00870112 0.03215849 0.00018074
v -0.00870112 0.03215849 0.00018074
v -0.00079101 0.03228499 0.00009497
v -0.00079101 0.03228499 0.00009497
v -0.00079101 0.03228499 0.00009497
v -0.00079101 0.03228499 0.00009497
v -0.00079101 0.03228499 0.00009497
v -0.00079101 0.03228499 0.00009497
v -0.00079101 0.03228499 0.00009497
v 0.00025277 0.03228499 0.00009497
v 0.00025277 0.03228499 0.00009497
v 0.00025277 0.03228499 0.00009497
v 0.00025277 -0.03116566 0.00070435
v 0.00025277 -0.03116566 0.00070435
v 0.00025277 -0.03116566 0.00070435
v -0.00079101 -0.03205783 0.00149430
v -0.00079101 -0.03205783 0.00149430
v -0.00079101 -0.03205783 0.00149430
v -0.00079101 -0.03205783 0.00149430
v -0.00079101 -0.03205783 0.00149430
v -0.00079101 -0.03205783 0.00149430
v -0.00870112 -0.03204451 0.00157555
v -0.00870112 -0.03204451 0.00157555
v -0.00870112 -0.03204451 0.00157555
v -0.00870112 -0.03204451 0.00157555
v -0.00870112 -0.03204451 0.00157555
v -0.02431692 -0.03203119 0.00185541
v -0.02431692 -0.03203119 0.00185541
v -0.02431692 -0.03203119 0.00185541
v -0.02431692 0.03400941 0.00130020
v -0.02431692 0.03400941 0.00130020
v -0.02431692 0.03400941 0.00130020
v -0.02431692 0.03400941 0.00130020
v -0.02431692 0.03400941 0.00130020
v -0.00079101 0.03307063 0.00050123
v -0.00079101 0.03307063 0.00050123
v -0.00079101 0.03307063 0.00050123
v -0.00079101 0.03307063 0.00050123
v -0.00079101 0.03307063 0.00050123
v 0.00025277 0.03307063 0.00050123
v 0.00025277 0.03307063 0.00050123
v 0.00025277 0.03307063 0.00050123
v 0.00025277 -0.03205783 0.00149430
v 0.00025277 -0.03205783 0.00149430
v 0.00025277 -0.03205783 0.00149430
v -0.00079101 -0.03251723 0.00279883
v -0.00079101 -0.03251723 0.00279883
v -0.00079101 -0.03251723 0.00279883
v -0.00079101 -0.03251723 0.00279883
v -0.00079101 -0.03251723 0.00279883
v -0.00079101 -0.03251723 0.00279883
v -0.00870112 -0.03250391 0.00279883
v -0.00870112 -0.03250391 0.00279883
v -0.00870112 -0.03250391 0.00279883
v -0.00870112 -0.03250391 0.00279883
v -0.02431692 -0.03242402 0.00279883
v -0.02431692 -0.03242402 0.00279883
v -0.02431692 -0.03242402 0.00279883
v -0.02431692 -0.03242402 0.00279883
v -0.02431692 -0.03242402 0.00279883
v -0.02431692 0.03481503 0.00179222
v -0.02431692 0.03481503 0.00179222
v -0.02431692 0.03481503 0.00179222
v -0.02431692 0.03481503 0.00179222
v -0.01819133 0.03400941 0.00121894
v -0.01819133 0.03400941 0.00121894
v -0.01819133 0.03400941 0.00121894
v -0.01819133 0.03400941 0.00121894
v -0.00079101 0.03400941 0.00100228
v -0.00079101 0.03400941 0.00100228
v -0.00079101 0.03400941 0.00100228
v -0.00079101 0.03400941 0.00100228
v -0.00079101 0.03400941 0.00100228
v -0.00079101 0.03400941 0.00100228
v -0.00079101 0.03400941 0.00100228
v -0.00079101 0.03400941 0.00100228
v -0.00079101 0.03400941 0.00100228
v 0.00025277 0.03400941 0.00100228
v 0.00025277 0.03400941 0.00100228
v 0.00025277 0.03400941 0.00100228
v 0.00025277 -0.03251723 0.00279883
v 0.00025277 -0.03251723 0.00279883
v 0.00025277 -0.03251723 0.00279883
v 0.00025277 -0.03254386 0.00384155
v 0.00025277 -0.03254386 0.00384155
v 0.00025277 -0.03254386 0.00384155
v 0.00025277 -0.03254386 0.00384155
v -0.00237351 -0.03255717 0.00438323
v -0.00237351 -0.03255717 0.00438323
v -0.00237351 -0.03255717 0.00438323
v -0.00237351 -0.03255717 0.00438323
v -0.00237351 -0.03255717 0.00438323
v -0.02431692 -0.03255052 0.00438323
v -0.02431692 -0.03255052 0.00438323
v -0.02431692 -0.03255052 0.00438323
v -0.02431692 -0.03255052 0.00438323
v -0.02431692 -0.03255052 0.00438323
v -0.02431692 -0.03255052 0.00438323
v -0.02431692 0.03492821 0.00186444
v -0.02431692 0.03492821 0.00186444
v -0.02431692 0.03492821 0.00186444
v -0.02431692 0.03492821 0.00186444
v 0.00025277 0.03434231 0.00124603
v 0.00025277 0.03434231 0.00124603
v 0.00025277 0.03434231 0.00124603
v 0.00025277 0.03434231 0.00124603
v -0.01819133 0.03495484 0.00182382
v -0.01819133 0.03495484 0.00182382
v -0.01819133 0.03495484 0.00182382
v -0.01819133 0.03495484 0.00182382
v -0.01819133 0.03495484 0.00182382
v -0.01819133 0.03495484 0.00182382
v -0.00870112 0.03496816 0.00175611
v -0.00870112 0.03496816 0.00175611
v -0.00870112 0.03496816 0.00175611
v -0.00870112 0.03496816 0.00175611
v -0.00079101 0.03498147 0.00172000
v -0.00079101 0.03498147 0.00172000
v -0.00079101 0.03498147 0.00172000
v -0.00079101 0.03498147 0.00172000
v -0.00079101 0.03498147 0.00172000
v -0.00079101 0.03498147 0.00172000
v 0.00025277 -0.03255717 0.00438323
v 0.00025277 -0.03255717 0.00438323
v 0.00025277 -0.03255717 0.00438323
v 0.00025277 -0.03256384 0.00596312
v 0.00025277 -0.03256384 0.00596312
v 0.00025277 -0.03256384 0.00596312
v 0.00025277 -0.03256384 0.00596312
v 0.00025277 -0.03256384 0.00596312
v 0.00025277 -0.03256384 0.00596312
v -0.02431692 -0.03255052 0.00616625
v -0.02431692 -0.03255052 0.00616625
v -0.02431692 -0.03255052 0.00616625
v -0.02431692 -0.03255052 0.00616625
v -0.02431692 -0.03255052 0.00616625
v -0.02431692 0.03516790 0.00268147
v -0.02431692 0.03516790 0.00268147
v -0.02431692 0.03516790 0.00268147
v 0.00025277 0.03498147 0.00172000
v 0.00025277 0.03498147 0.00172000
v 0.00025277 0.03498147 0.00172000
v 0.00025277 0.03498147 0.00172000
v -0.02431692 0.03520119 0.00279883
v -0.02431692 0.03520119 0.00279883
v -0.02431692 0.03520119 0.00279883
v -0.02431692 0.03520119 0.00279883
v -0.02431692 0.03520119 0.00279883
v -0.02431692 0.03520119 0.00279883
v -0.02431692 0.03520119 0.00279883
v -0.02431692 0.03520119 0.00279883
v -0.01028363 0.03496816 0.00176965
v -0.01028363 0.03496816 0.00176965
v -0.01028363 0.03496816 0.00176965
v -0.01028363 0.03496816 0.00176965
v 0.00025277 -0.03255717 0.00859024
v 0.00025277 -0.03255717 0.00859024
v 0.00025277 -0.03255717 0.00859024
v 0.00025277 -0.03255717 0.00859024
v 0.00025277 -0.03255717 0.00859024
v -0.02135634 -0.03255052 0.00754752
v -0.02135634 -0.03255052 0.00754752
v -0.02135634 -0.03255052 0.00754752
v -0.02135634 -0.03255052 0.00754752
v -0.02135634 -0.03255052 0.00754752
v -0.02293644 -0.03254386 0.00912740
v -0.02293644 -0.03254386 0.00912740
v -0.02293644 -0.03254386 0.00912740
v -0.02293644 -0.03254386 0.00912740
v -0.02431692 -0.03253720 0.01070729
v -0.02431692 -0.03253720 0.01070729
v -0.02431692 -0.03253720 0.01070729
v -0.02431692 -0.03253720 0.01070729
v 0.00025277 0.03504805 0.00208563
v 0.00025277 0.03504805 0.00208563
v 0.00025277 0.03504805 0.00208563
v -0.02431692 0.03534101 0.00438323
v -0.02431692 0.03534101 0.00438323
v -0.02431692 0.03534101 0.00438323
v -0.02431692 0.03534101 0.00438323
v -0.02431692 0.03534101 0.00438323
v -0.02431692 0.03534101 0.00438323
v 0.00025277 0.03517455 0.00279883
v 0.00025277 0.03517455 0.00279883
v 0.00025277 0.03517455 0.00279883
v 0.00025277 0.03517455 0.00279883
v -0.00079101 -0.03244399 0.04552347
v -0.00079101 -0.03244399 0.04552347
v -0.00079101 -0.03244399 0.04552347
v -0.00079101 -0.03244399 0.04552347
v -0.00079101 -0.03244399 0.04552347
v -0.00079101 -0.03244399 0.04552347
v -0.00079101 -0.03244399 0.04552347
v -0.00079101 -0.03244399 0.04552347
v -0.00079101 -0.03244399 0.04552347
v 0.00025277 -0.03243733 0.04551444
v 0.00025277 -0.03243733 0.04551444
v 0.00025277 -0.03243733 0.04551444
v -0.00077417 -0.03244399 0.04552347
v -0.00077417 -0.03244399 0.04552347
v -0.00077417 -0.03244399 0.04552347
v -0.00077417 -0.03244399 0.04552347
v -0.02431692 -0.03253055 0.01249482
v -0.02431692 -0.03253055 0.01249482
v -0.02431692 -0.03253055 0.01249482
v -0.02431692 0.03534766 0.00575999
v -0.02431692 0.03534766 0.00575999
v -0.02431692 0.03534766 0.00575999
v 0.00025277 0.03527443 0.01282885
v 0.00025277 0.03527443 0.01282885
v 0.00025277 0.03527443 0.01282885
v 0.00025277 0.03527443 0.01282885
v 0.00025277 0.03527443 0.01282885
v 0.00025277 0.03527443 0.01282885
v 0.00025277 0.03527443 0.01282885
v 0.00025277 0.03527443 0.01282885
v 0.00025277 0.03527443 0.01282885
v 0.00025277 0.03520119 0.00492039
v 0.00025277 0.03520119 0.00492039
v 0.00025277 0.03520119 0.00492039
v 0.00025277 0.03519453 0.00438323
v 0.00025277 0.03519453 0.00438323
v 0.00025277 0.03519453 0.00438323
v -0.02431692 -0.03237075 0.04552347
v -0.02431692 -0.03237075 0.04552347
v -0.02431692 -0.03237075 0.04552347
v -0.02431692 -0.03241070 0.03759695
v -0.02431692 -0.03241070 0.03759695
v -0.02431692 -0.03241070 0.03759695
v -0.02431692 -0.03251057 0.01703586
v -0.02431692 -0.03251057 0.01703586
v -0.02431692 -0.03251057 0.01703586
v 0.00025277 -0.00901452 0.04552347
v 0.00025277 -0.00901452 0.04552347
v 0.00025277 -0.00901452 0.04552347
v -0.02431692 0.03535432 0.00733988
v -0.02431692 0.03535432 0.00733988
v -0.02431692 0.03536098 0.00892427
v -0.02431692 0.03536098 0.00892427
v -0.02431692 0.03536098 0.00892427
v -0.02431692 0.03536764 0.01070729
v -0.02431692 0.03536764 0.01070729
v -0.02431692 0.03536764 0.01070729
v -0.02431692 0.03538761 0.01683274
v -0.02431692 0.03538761 0.01683274
v -0.02431692 0.03538761 0.01683274
v -0.02431692 0.03540758 0.02474119
v -0.02431692 0.03540758 0.02474119
v -0.02431692 0.03540758 0.02474119
v -0.02431692 0.03545419 0.04551895
v -0.02431692 0.03545419 0.04551895
v -0.02431692 0.03545419 0.04551895
v -0.02431692 0.03545419 0.04551895
v -0.02431692 0.03545419 0.04551895
v -0.02431692 0.03545419 0.04551895
v -0.02431692 0.03545419 0.04551895
v 0.00025277 0.03532769 0.04446269
v 0.00025277 0.03532769 0.04446269
v 0.00025277 0.03532769 0.04446269
v -0.02431692 0.03413591 0.04552347
v -0.02431692 0.03413591 0.04552347
v -0.02431692 0.03413591 0.04552347
v 0.00025277 0.03532769 0.04552347
v 0.00025277 0.03532769 0.04552347
v 0.00025277 0.03532769 0.04552347
v 0.00025277 0.03532769 0.04552347
v -0.02295087 0.03543422 0.04552347
v -0.02295087 0.03543422 0.04552347
v -0.02295087 0.03543422 0.04552347
v -0.02293644 0.03543422 0.04552347
v -0.02293644 0.03543422 0.04552347
v -0.02293644 0.03543422 0.04552347
f 4 15 19
f 1 18 22
f 7 25 28
f 9 31 33
f 13 39 43
f 12 42 48
f 11 47 53
f 10 52 59
f 8 57 71
f 6 69 77
f 5 76 81
f 2 79 83
f 3 85 14
f 16 86 189
f 16 189 266
f 16 266 296
f 16 296 334
f 16 334 359
f 16 359 397
f 16 397 430
f 16 430 440
f 16 440 477
f 16 477 474
f 16 474 471
f 16 471 513
f 16 513 520
f 16 520 489
f 16 489 452
f 16 452 412
f 16 412 381
f 16 381 379
f 16 379 340
f 16 340 337
f 16 337 299
f 16 299 269
f 16 269 202
f 16 202 199
f 16 199 89
f 16 89 20
f 17 88 21
f 23 90 93
f 24 95 26
f 27 96 98
f 29 99 102
f 30 103 32
f 34 104 109
f 35 110 113
f 36 114 117
f 37 118 121
f 38 122 125
f 40 126 130
f 41 131 44
f 45 133 135
f 46 136 50
f 51 137 148
f 49 147 54
f 55 149 138
f 56 140 62
f 64 141 151
f 63 150 154
f 61 153 159
f 60 158 164
f 58 162 72
f 70 170 185
f 65 181 187
f 67 188 84
f 66 82 78
f 68 80 75
f 73 163 190
f 73 190 194
f 74 195 172
f 87 198 92
f 91 197 201
f 94 203 206
f 97 209 100
f 101 210 105
f 106 211 214
f 107 215 217
f 108 218 111
f 112 219 115
f 116 220 119
f 120 221 123
f 124 222 127
f 128 134 132
f 129 223 139
f 146 224 216
f 146 216 283
f 146 283 314
f 146 314 352
f 146 352 390
f 146 390 427
f 146 427 459
f 146 459 486
f 146 486 483
f 146 483 480
f 146 480 516
f 146 516 510
f 146 510 503
f 146 503 500
f 146 500 497
f 146 497 494
f 146 494 491
f 146 491 462
f 146 462 436
f 146 436 405
f 146 405 393
f 146 393 356
f 146 356 318
f 146 318 288
f 146 288 248
f 146 248 179
f 146 179 244
f 146 244 227
f 145 225 231
f 144 229 238
f 143 236 157
f 142 155 152
f 156 234 161
f 160 233 166
f 167 175 241
f 165 239 192
f 168 235 176
f 171 247 253
f 169 250 184
f 173 196 191
f 174 193 240
f 177 237 228
f 178 230 242
f 183 249 255
f 182 254 260
f 180 258 265
f 180 265 186
f 200 268 205
f 204 267 298
f 204 298 271
f 207 275 279
f 208 280 213
f 212 278 282
f 226 243 232
f 246 263 252
f 245 287 262
f 251 261 256
f 259 285 292
f 257 290 295
f 257 295 264
f 270 297 336
f 270 336 301
f 272 304 306
f 273 308 310
f 274 312 276
f 277 313 281
f 284 317 321
f 286 322 293
f 291 320 331
f 289 324 333
f 289 333 294
f 300 335 339
f 302 341 344
f 303 345 347
f 305 350 307
f 309 351 311
f 315 355 329
f 316 330 319
f 323 358 332
f 328 354 366
f 327 365 370
f 326 368 376
f 325 373 360
f 338 378 343
f 342 377 380
f 346 382 348
f 349 385 387
f 353 392 364
f 357 372 395
f 362 391 404
f 361 403 408
f 363 409 369
f 367 407 375
f 374 406 402
f 371 398 394
f 383 413 415
f 384 417 386
f 388 419 422
f 389 423 426
f 396 399 428
f 401 431 438
f 400 437 429
f 414 443 416
f 411 450 455
f 410 453 441
f 418 444 420
f 421 445 424
f 425 446 457
f 432 461 468
f 433 470 472
f 435 473 476
f 434 475 439
f 448 479 481
f 449 482 485
f 447 484 458
f 442 454 487
f 442 487 517
f 442 517 525
f 442 525 522
f 442 522 514
f 442 514 478
f 451 488 456
f 460 490 465
f 465 490 493
f 463 492 495
f 464 496 498
f 466 499 501
f 467 502 506
f 469 507 511
f 504 521 524
f 505 526 518
f 508 519 512
f 509 515 523

