# https://github.com/mikedh/trimesh
v 0.00025277 -0.02135168 -0.00059113
v 0.00025277 -0.02135168 -0.00059113
v 0.00025277 -0.02135168 -0.00059113
v 0.00025277 -0.02135168 -0.00059113
v 0.00025277 -0.02135168 -0.00059113
v 0.00025277 -0.02135168 -0.00059113
v 0.00079172 -0.02135168 -0.00058661
v 0.00079172 -0.02135168 -0.00058661
v 0.00079172 -0.02135168 -0.00058661
v 0.00079172 -0.02135168 -0.00058661
v 0.00079172 -0.02135168 -0.00058661
v 0.00079172 -0.02135168 -0.00058661
v 0.00079172 -0.02135168 -0.00058661
v 0.00079172 -0.02135168 -0.00058661
v 0.00079172 -0.02135168 -0.00058661
v 0.00079172 -0.02926149 -0.00004043
v 0.00079172 -0.02926149 -0.00004043
v 0.00079172 -0.02926149 -0.00004043
v 0.00079172 -0.02926149 -0.00004043
v 0.00079172 -0.02926149 -0.00004043
v 0.00025277 -0.02926149 -0.00004043
v 0.00025277 -0.02926149 -0.00004043
v 0.00025277 -0.02926149 -0.00004043
v 0.00025277 -0.02926149 -0.00004043
v 0.00025277 0.00711831 -0.00056404
v 0.00025277 0.00711831 -0.00056404
v 0.00025277 0.00711831 -0.00056404
v 0.00025277 0.00711831 -0.00056404
v 0.00079172 0.00711831 -0.00056404
v 0.00079172 0.00711831 -0.00056404
v 0.00079172 0.00711831 -0.00056404
v 0.00079172 0.00711831 -0.00056404
v 0.00237310 0.00711831 -0.00055953
v 0.00237310 0.00711831 -0.00055953
v 0.00237310 0.00711831 -0.00055953
v 0.00237310 0.00711831 -0.00055953
v 0.01819161 -0.01186390 -0.00035640
v 0.01819161 -0.01186390 -0.00035640
v 0.01819161 -0.01186390 -0.00035640
v 0.01819161 -0.01186390 -0.00035640
v 0.01819161 -0.01186390 -0.00035640
v 0.01819161 -0.01186390 -0.00035640
v 0.01661023 -0.01344187 -0.00036994
v 0.01661023 -0.01344187 -0.00036994
v 0.01661023 -0.01344187 -0.00036994
v 0.01661023 -0.01344187 -0.00036994
v 0.01661023 -0.01344187 -0.00036994
v 0.01661023 -0.01344187 -0.00036994
v 0.00395684 -0.02135168 -0.00052342
v 0.00395684 -0.02135168 -0.00052342
v 0.00395684 -0.02135168 -0.00052342
v 0.00395684 -0.02135168 -0.00052342
v 0.00395684 -0.02135168 -0.00052342
v 0.00395684 -0.02135168 -0.00052342
v 0.00553822 -0.02926149 0.00002277
v 0.00553822 -0.02926149 0.00002277
v 0.00553822 -0.02926149 0.00002277
v 0.00553822 -0.02926149 0.00002277
v 0.00553822 -0.02926149 0.00002277
v 0.00553822 -0.02926149 0.00002277
v 0.00553822 -0.02926149 0.00002277
v 0.00553822 -0.02926149 0.00002277
v 0.00553822 -0.02926149 0.00002277
v 0.00553822 -0.02926149 0.00002277
v 0.00553822 -0.02926149 0.00002277
v 0.00395684 -0.02926149 0.00000020
v 0.00395684 -0.02926149 0.00000020
v 0.00237310 -0.02926149 -0.00002237
v 0.00237310 -0.02926149 -0.00002237
v 0.00237310 -0.02926149 -0.00002237
v 0.00237310 -0.02926149 -0.00002237
v 0.00237310 -0.02926149 -0.00002237
v 0.00553822 0.02135330 -0.00051891
v 0.00553822 0.02135330 -0.00051891
v 0.00553822 0.02135330 -0.00051891
v 0.00553822 0.02135330 -0.00051891
v 0.00553822 0.02135330 -0.00051891
v 0.00553822 0.02135330 -0.00051891
v 0.00553822 0.02135330 -0.00051891
v 0.00553822 0.02135330 -0.00051891
v 0.00553822 0.02135330 -0.00051891
v 0.00553822 0.02135330 -0.00051891
v 0.00553822 0.02135330 -0.00051891
v 0.00553822 0.02135330 -0.00051891
v 0.00079172 -0.03038004 0.00022590
v 0.00079172 -0.03038004 0.00022590
v 0.00079172 -0.03038004 0.00022590
v 0.00079172 -0.03038004 0.00022590
v 0.00079172 -0.03038004 0.00022590
v 0.00079172 -0.03038004 0.00022590
v 0.00079172 -0.03038004 0.00022590
v 0.00079172 -0.03038004 0.00022590
v 0.00025277 -0.03000054 0.00013562
v 0.00025277 -0.03000054 0.00013562
v 0.00025277 -0.03000054 0.00013562
v 0.00025277 0.02293793 -0.00048279
v 0.00025277 0.02293793 -0.00048279
v 0.00025277 0.02293793 -0.00048279
v 0.00025277 0.02293793 -0.00048279
v 0.02135437 -0.00553206 -0.00027064
v 0.02135437 -0.00553206 -0.00027064
v 0.02135437 -0.00553206 -0.00027064
v 0.02135437 -0.00553206 -0.00027064
v 0.02440130 -0.02926149 0.00060056
v 0.02440130 -0.02926149 0.00060056
v 0.02440130 -0.02926149 0.00060056
v 0.02440130 -0.02926149 0.00060056
v 0.02440130 -0.02926149 0.00060056
v 0.02440130 -0.02926149 0.00060056
v 0.02440130 -0.02926149 0.00060056
v 0.02440130 -0.02926149 0.00060056
v 0.02440130 -0.02926149 0.00060056
v 0.02440130 -0.02926149 0.00060056
v 0.02440130 -0.02926149 0.00060056
v 0.02440130 -0.02926149 0.00060056
v 0.02135437 0.00553368 -0.00028869
v 0.02135437 0.00553368 -0.00028869
v 0.02135437 0.00553368 -0.00028869
v 0.02135437 0.00553368 -0.00028869
v 0.02135437 0.00553368 -0.00028869
v 0.02135437 0.00553368 -0.00028869
v 0.02135437 0.00553368 -0.00028869
v 0.01186609 -0.01818909 -0.00038800
v 0.01186609 -0.01818909 -0.00038800
v 0.01186609 -0.01818909 -0.00038800
v 0.00870097 -0.01977371 -0.00043765
v 0.00870097 -0.01977371 -0.00043765
v 0.00870097 -0.01977371 -0.00043765
v 0.00870097 -0.01977371 -0.00043765
v 0.00711959 -0.02926149 0.00006340
v 0.00711959 -0.02926149 0.00006340
v 0.00711959 -0.02926149 0.00006340
v 0.00711959 -0.02926149 0.00006340
v 0.01604055 -0.03006712 0.00042000
v 0.01604055 -0.03006712 0.00042000
v 0.01604055 -0.03006712 0.00042000
v 0.01604055 -0.03006712 0.00042000
v 0.01604055 -0.03006712 0.00042000
v 0.01502649 -0.03009375 0.00040194
v 0.01502649 -0.03009375 0.00040194
v 0.01502649 -0.03009375 0.00040194
v 0.01502649 -0.03009375 0.00040194
v 0.01344511 -0.03012704 0.00037486
v 0.01344511 -0.03012704 0.00037486
v 0.01344511 -0.03012704 0.00037486
v 0.01344511 -0.03012704 0.00037486
v 0.01186609 -0.03016699 0.00035229
v 0.01186609 -0.03016699 0.00035229
v 0.01186609 -0.03016699 0.00035229
v 0.01186609 -0.03016699 0.00035229
v 0.01028472 -0.03019362 0.00032972
v 0.01028472 -0.03019362 0.00032972
v 0.01028472 -0.03019362 0.00032972
v 0.01028472 -0.03019362 0.00032972
v 0.01028472 -0.03019362 0.00032972
v 0.00711959 -0.03024688 0.00028909
v 0.00711959 -0.03024688 0.00028909
v 0.00711959 -0.03024688 0.00028909
v 0.00395684 -0.03031346 0.00025298
v 0.00395684 -0.03031346 0.00025298
v 0.00395684 -0.03031346 0.00025298
v 0.00395684 -0.03031346 0.00025298
v 0.00395684 -0.03031346 0.00025298
v 0.00395684 -0.03031346 0.00025298
v 0.00395684 -0.03031346 0.00025298
v 0.00395684 -0.03031346 0.00025298
v 0.00079172 0.02293793 -0.00048279
v 0.00079172 0.02293793 -0.00048279
v 0.00079172 0.02293793 -0.00048279
v 0.00079172 0.02293793 -0.00048279
v 0.00079172 0.02293793 -0.00048279
v 0.01028472 0.03213274 0.00019882
v 0.01028472 0.03213274 0.00019882
v 0.01028472 0.03213274 0.00019882
v 0.01028472 0.03213274 0.00019882
v 0.01028472 0.03213274 0.00019882
v 0.01028472 0.03213274 0.00019882
v 0.02440130 0.03181982 0.00036132
v 0.02440130 0.03181982 0.00036132
v 0.02440130 0.03181982 0.00036132
v 0.02440130 0.03181982 0.00036132
v 0.02440130 0.03181982 0.00036132
v 0.02440130 0.03181982 0.00036132
v 0.02440130 0.03181982 0.00036132
v 0.02440130 0.03181982 0.00036132
v 0.02440130 0.03181982 0.00036132
v 0.02440130 0.03181982 0.00036132
v 0.01661023 0.01502812 -0.00034286
v 0.01661023 0.01502812 -0.00034286
v 0.01661023 0.01502812 -0.00034286
v 0.01977299 0.01028090 -0.00030223
v 0.01977299 0.01028090 -0.00030223
v 0.01977299 0.01028090 -0.00030223
v 0.01977299 0.01028090 -0.00030223
v 0.01977299 0.01028090 -0.00030223
v 0.00079172 -0.03116570 0.00070438
v 0.00079172 -0.03116570 0.00070438
v 0.00079172 -0.03116570 0.00070438
v 0.00079172 -0.03116570 0.00070438
v 0.00079172 -0.03116570 0.00070438
v 0.00079172 -0.03116570 0.00070438
v 0.00079172 -0.03116570 0.00070438
v 0.00079172 -0.03116570 0.00070438
v 0.00025277 -0.03089938 0.00054188
v 0.00025277 -0.03089938 0.00054188
v 0.00025277 -0.03089938 0.00054188
v 0.00025277 -0.03089938 0.00054188
v 0.00025277 -0.03037339 0.00022590
v 0.00025277 -0.03037339 0.00022590
v 0.00025277 -0.03037339 0.00022590
v 0.00025277 0.03228588 0.00009500
v 0.00025277 0.03228588 0.00009500
v 0.00025277 0.03228588 0.00009500
v 0.02293811 0.00079312 -0.00014876
v 0.02293811 0.00079312 -0.00014876
v 0.02293811 0.00079312 -0.00014876
v 0.02293811 0.00079312 -0.00014876
v 0.02293811 0.00079312 -0.00014876
v 0.02440130 -0.03084611 0.00103390
v 0.02440130 -0.03084611 0.00103390
v 0.02440130 -0.03084611 0.00103390
v 0.02440130 -0.03084611 0.00103390
v 0.02440130 -0.03084611 0.00103390
v 0.02440130 -0.03084611 0.00103390
v 0.02440130 -0.03084611 0.00103390
v 0.02440130 -0.03084611 0.00103390
v 0.02400182 0.00079312 0.00021235
v 0.02400182 0.00079312 0.00021235
v 0.02400182 0.00079312 0.00021235
v 0.02400182 0.00079312 0.00021235
v 0.02440130 0.03151354 0.00036132
v 0.02440130 0.03151354 0.00036132
v 0.02440130 0.03151354 0.00036132
v 0.02135437 0.00711831 -0.00026612
v 0.02135437 0.00711831 -0.00026612
v 0.02135437 0.00711831 -0.00026612
v 0.02440130 -0.03189144 0.00165682
v 0.02440130 -0.03189144 0.00165682
v 0.02440130 -0.03189144 0.00165682
v 0.02440130 -0.03189144 0.00165682
v 0.00079172 0.03228588 0.00009500
v 0.00079172 0.03228588 0.00009500
v 0.00079172 0.03228588 0.00009500
v 0.00079172 0.03228588 0.00009500
v 0.00079172 0.03228588 0.00009500
v 0.00079172 0.03228588 0.00009500
v 0.00079172 0.03228588 0.00009500
v 0.00870097 0.03215937 0.00018076
v 0.00870097 0.03215937 0.00018076
v 0.00870097 0.03215937 0.00018076
v 0.00870097 0.03215937 0.00018076
v 0.02440130 0.03261213 0.00065924
v 0.02440130 0.03261213 0.00065924
v 0.02440130 0.03261213 0.00065924
v 0.02440130 0.03261213 0.00065924
v 0.02440130 0.03261213 0.00065924
v 0.02440130 0.03187973 0.00037937
v 0.02440130 0.03187973 0.00037937
v 0.02440130 0.03187973 0.00037937
v 0.02440130 -0.03197133 0.00171099
v 0.02440130 -0.03197133 0.00171099
v 0.02440130 -0.03197133 0.00171099
v 0.02440130 -0.03197133 0.00171099
v 0.00870097 -0.03205123 0.00158009
v 0.00870097 -0.03205123 0.00158009
v 0.00870097 -0.03205123 0.00158009
v 0.00870097 -0.03205123 0.00158009
v 0.00870097 -0.03205123 0.00158009
v 0.00079172 -0.03205788 0.00149432
v 0.00079172 -0.03205788 0.00149432
v 0.00079172 -0.03205788 0.00149432
v 0.00079172 -0.03205788 0.00149432
v 0.00079172 -0.03205788 0.00149432
v 0.00079172 -0.03205788 0.00149432
v 0.00025277 -0.03116570 0.00070438
v 0.00025277 -0.03116570 0.00070438
v 0.00025277 -0.03116570 0.00070438
v 0.00025277 0.03307153 0.00050125
v 0.00025277 0.03307153 0.00050125
v 0.00025277 0.03307153 0.00050125
v 0.00079172 0.03307153 0.00050125
v 0.00079172 0.03307153 0.00050125
v 0.00079172 0.03307153 0.00050125
v 0.00079172 0.03307153 0.00050125
v 0.01977299 0.03401032 0.00124154
v 0.01977299 0.03401032 0.00124154
v 0.01977299 0.03401032 0.00124154
v 0.01977299 0.03401032 0.00124154
v 0.01977299 0.03401032 0.00124154
v 0.02440130 0.03401032 0.00130925
v 0.02440130 0.03401032 0.00130925
v 0.02440130 0.03401032 0.00130925
v 0.02440130 0.03401032 0.00130925
v 0.02440130 -0.03239745 0.00271760
v 0.02440130 -0.03239745 0.00271760
v 0.02440130 -0.03239745 0.00271760
v 0.02440130 -0.03243074 0.00279885
v 0.02440130 -0.03243074 0.00279885
v 0.02440130 -0.03243074 0.00279885
v 0.02440130 -0.03243074 0.00279885
v 0.02440130 -0.03243074 0.00279885
v 0.00025277 -0.03205788 0.00149432
v 0.00025277 -0.03205788 0.00149432
v 0.00025277 -0.03205788 0.00149432
v 0.00870097 -0.03250398 0.00279885
v 0.00870097 -0.03250398 0.00279885
v 0.00870097 -0.03250398 0.00279885
v 0.00870097 -0.03250398 0.00279885
v 0.00079172 -0.03251729 0.00279885
v 0.00079172 -0.03251729 0.00279885
v 0.00079172 -0.03251729 0.00279885
v 0.00079172 -0.03251729 0.00279885
v 0.00079172 -0.03251729 0.00279885
v 0.00079172 -0.03251729 0.00279885
v 0.00025277 0.03401032 0.00100230
v 0.00025277 0.03401032 0.00100230
v 0.00025277 0.03401032 0.00100230
v 0.00079172 0.03401032 0.00100230
v 0.00079172 0.03401032 0.00100230
v 0.00079172 0.03401032 0.00100230
v 0.00079172 0.03401032 0.00100230
v 0.00079172 0.03401032 0.00100230
v 0.00079172 0.03401032 0.00100230
v 0.00079172 0.03401032 0.00100230
v 0.02440130 0.03492914 0.00186447
v 0.02440130 0.03492914 0.00186447
v 0.02440130 0.03492914 0.00186447
v 0.02440130 0.03492914 0.00186447
v 0.02440130 0.03492914 0.00186447
v 0.02440130 0.03492914 0.00186447
v 0.02440130 -0.03255059 0.00438326
v 0.02440130 -0.03255059 0.00438326
v 0.02440130 -0.03255059 0.00438326
v 0.02440130 -0.03255059 0.00438326
v 0.02440130 -0.03255059 0.00438326
v 0.02440130 -0.03255059 0.00438326
v 0.00025277 -0.03251729 0.00279885
v 0.00025277 -0.03251729 0.00279885
v 0.00025277 -0.03251729 0.00279885
v 0.00237310 -0.03255724 0.00438326
v 0.00237310 -0.03255724 0.00438326
v 0.00237310 -0.03255724 0.00438326
v 0.00237310 -0.03255724 0.00438326
v 0.00237310 -0.03255724 0.00438326
v 0.00025277 -0.03254393 0.00384158
v 0.00025277 -0.03254393 0.00384158
v 0.00025277 -0.03254393 0.00384158
v 0.00025277 -0.03254393 0.00384158
v 0.00025277 0.03498241 0.00172002
v 0.00025277 0.03498241 0.00172002
v 0.00025277 0.03498241 0.00172002
v 0.00025277 0.03498241 0.00172002
v 0.00079172 0.03498241 0.00172002
v 0.00079172 0.03498241 0.00172002
v 0.00079172 0.03498241 0.00172002
v 0.00079172 0.03498241 0.00172002
v 0.00079172 0.03498241 0.00172002
v 0.00870097 0.03496909 0.00175613
v 0.00870097 0.03496909 0.00175613
v 0.00870097 0.03496909 0.00175613
v 0.01028472 0.03496909 0.00176967
v 0.01028472 0.03496909 0.00176967
v 0.01028472 0.03496909 0.00176967
v 0.01028472 0.03496909 0.00176967
v 0.01028472 0.03496909 0.00176967
v 0.01028472 0.03496909 0.00176967
v 0.01819161 0.03494912 0.00182835
v 0.01819161 0.03494912 0.00182835
v 0.01819161 0.03494912 0.00182835
v 0.02440130 0.03520212 0.00279885
v 0.02440130 0.03520212 0.00279885
v 0.02440130 0.03520212 0.00279885
v 0.02440130 0.03520212 0.00279885
v 0.02440130 0.03520212 0.00279885
v 0.02440130 0.03520212 0.00279885
v 0.02440130 0.03520212 0.00279885
v 0.02440130 0.03520212 0.00279885
v 0.02440130 -0.03255059 0.00596314
v 0.02440130 -0.03255059 0.00596314
v 0.02440130 -0.03255059 0.00596314
v 0.02440130 -0.03255059 0.00596314
v 0.00079172 -0.03256390 0.00596314
v 0.00079172 -0.03256390 0.00596314
v 0.00079172 -0.03256390 0.00596314
v 0.00079172 -0.03256390 0.00596314
v 0.00079172 -0.03256390 0.00596314
v 0.00079172 -0.03256390 0.00596314
v 0.00025277 -0.03255724 0.00438326
v 0.00025277 -0.03255724 0.00438326
v 0.00025277 -0.03255724 0.00438326
v 0.00025277 -0.03255724 0.00438326
v 0.00025277 0.03504899 0.00208565
v 0.00025277 0.03504899 0.00208565
v 0.00025277 0.03504899 0.00208565
v 0.02440130 0.03534194 0.00438326
v 0.02440130 0.03534194 0.00438326
v 0.02440130 0.03534194 0.00438326
v 0.02440130 0.03534194 0.00438326
v 0.02440130 0.03534194 0.00438326
v 0.00025277 0.03517549 0.00279885
v 0.00025277 0.03517549 0.00279885
v 0.00025277 0.03517549 0.00279885
v 0.00025277 0.03517549 0.00279885
v 0.02135437 -0.03255059 0.00754754
v 0.02135437 -0.03255059 0.00754754
v 0.02135437 -0.03255059 0.00754754
v 0.02135437 -0.03255059 0.00754754
v 0.02135437 -0.03255059 0.00754754
v 0.02440130 -0.03254393 0.00901006
v 0.02440130 -0.03254393 0.00901006
v 0.02440130 -0.03254393 0.00901006
v 0.02440130 -0.03254393 0.00901006
v 0.00025277 -0.03255724 0.00859026
v 0.00025277 -0.03255724 0.00859026
v 0.00025277 -0.03255724 0.00859026
v 0.00025277 -0.03255724 0.00859026
v 0.00025277 -0.03255724 0.00859026
v 0.00025277 0.03526871 0.01229171
v 0.00025277 0.03526871 0.01229171
v 0.00025277 0.03526871 0.01229171
v 0.02440130 0.03534860 0.00596314
v 0.02440130 0.03534860 0.00596314
v 0.00025277 0.03519546 0.00438326
v 0.00025277 0.03519546 0.00438326
v 0.00025277 0.03519546 0.00438326
v 0.00080590 -0.03243740 0.04551895
v 0.00080590 -0.03243740 0.04551895
v 0.00080590 -0.03243740 0.04551895
v 0.00080590 -0.03243740 0.04551895
v 0.00080590 -0.03243740 0.04551895
v 0.00080590 -0.03243740 0.04551895
v 0.00080590 -0.03243740 0.04551895
v 0.00080590 -0.03243740 0.04551895
v 0.00080590 -0.03243740 0.04551895
v 0.02440130 -0.03253727 0.01070731
v 0.02440130 -0.03253727 0.01070731
v 0.02440130 -0.03253727 0.01070731
v 0.00079172 -0.03243740 0.04551895
v 0.00079172 -0.03243740 0.04551895
v 0.00079172 -0.03243740 0.04551895
v 0.00025277 -0.03243740 0.04551444
v 0.00025277 -0.03243740 0.04551444
v 0.00025277 -0.03243740 0.04551444
v 0.00025277 0.03527536 0.01387159
v 0.00025277 0.03527536 0.01387159
v 0.00025277 0.03527536 0.01387159
v 0.00025277 0.03527536 0.01387159
v 0.00025277 0.03527536 0.01387159
v 0.00025277 0.03527536 0.01387159
v 0.00025277 0.03527536 0.01387159
v 0.02440130 0.03536858 0.01070731
v 0.02440130 0.03536858 0.01070731
v 0.02440130 0.03536858 0.01070731
v 0.02440130 -0.03253061 0.01229171
v 0.02440130 -0.03253061 0.01229171
v 0.02440130 -0.03251729 0.01545599
v 0.02440130 -0.03251729 0.01545599
v 0.02440130 -0.03251729 0.01545599
v 0.02440130 -0.03250398 0.01849840
v 0.02440130 -0.03250398 0.01849840
v 0.02440130 -0.03250398 0.01849840
v 0.02440130 -0.03240411 0.03905948
v 0.02440130 -0.03240411 0.03905948
v 0.02440130 -0.03240411 0.03905948
v 0.02440130 -0.03237081 0.04551895
v 0.02440130 -0.03237081 0.04551895
v 0.02440130 -0.03237081 0.04551895
v 0.00025277 -0.00902090 0.04551895
v 0.00025277 -0.00902090 0.04551895
v 0.00025277 -0.00902090 0.04551895
v 0.00025277 0.03532862 0.04550993
v 0.00025277 0.03532862 0.04550993
v 0.00025277 0.03532862 0.04550993
v 0.02440130 0.03545513 0.04551895
v 0.02440130 0.03545513 0.04551895
v 0.02440130 0.03545513 0.04551895
v 0.02440130 0.03545513 0.04551895
v 0.02440130 0.03545513 0.04551895
v 0.02440130 0.03540187 0.02190193
v 0.02440130 0.03540187 0.02190193
v 0.02440130 0.03540187 0.02190193
v 0.02440130 0.03538855 0.01703588
v 0.02440130 0.03538855 0.01703588
v 0.02440130 0.03538855 0.01703588
v 0.02440130 0.03537524 0.01240907
v 0.02440130 0.03537524 0.01240907
v 0.02440130 0.03537524 0.01240907
v 0.00025277 0.03532862 0.04551895
v 0.00025277 0.03532862 0.04551895
v 0.00025277 0.03532862 0.04551895
f 5 8 18
f 1 17 22
f 6 24 95
f 6 95 210
f 6 210 207
f 6 207 277
f 6 277 304
f 6 304 339
f 6 339 348
f 6 348 391
f 6 391 417
f 6 417 443
f 6 443 470
f 6 470 490
f 6 490 473
f 6 473 450
f 6 450 420
f 6 420 425
f 6 425 403
f 6 403 394
f 6 394 352
f 6 352 317
f 6 317 280
f 6 280 213
f 6 213 99
f 6 99 28
f 2 26 30
f 3 32 34
f 4 35 7
f 13 39 43
f 15 44 50
f 14 49 61
f 12 56 67
f 12 67 72
f 9 69 20
f 10 36 76
f 11 79 37
f 19 68 87
f 16 85 21
f 23 90 93
f 27 98 84
f 25 74 29
f 31 75 33
f 42 101 111
f 41 110 48
f 38 80 116
f 40 118 100
f 46 123 127
f 45 126 51
f 47 108 125
f 54 128 106
f 53 105 133
f 52 131 65
f 64 130 135
f 63 134 140
f 62 139 144
f 60 143 148
f 59 147 153
f 58 151 157
f 57 156 161
f 55 160 66
f 66 160 71
f 70 159 88
f 73 97 168
f 77 171 173
f 78 174 178
f 83 180 189
f 82 188 192
f 81 191 117
f 86 198 205
f 92 206 209
f 91 208 94
f 89 163 202
f 96 212 242
f 96 242 167
f 103 216 112
f 102 120 214
f 109 225 138
f 104 137 132
f 107 129 124
f 113 217 227
f 114 230 232
f 115 233 187
f 115 187 259
f 115 259 256
f 115 256 293
f 115 293 330
f 115 330 374
f 115 374 395
f 115 395 421
f 115 421 451
f 115 451 485
f 115 485 482
f 115 482 479
f 115 479 475
f 115 475 467
f 115 467 464
f 115 464 461
f 115 461 458
f 115 458 455
f 115 455 437
f 115 437 412
f 115 412 381
f 115 381 336
f 115 336 301
f 115 301 296
f 115 296 263
f 115 263 240
f 115 240 226
f 119 194 234
f 121 236 183
f 122 184 215
f 136 224 142
f 141 223 146
f 145 222 150
f 149 221 155
f 154 220 166
f 152 162 158
f 165 219 239
f 164 238 203
f 169 243 248
f 170 249 172
f 175 251 254
f 177 255 258
f 176 257 179
f 182 235 195
f 181 193 190
f 186 231 229
f 185 228 218
f 201 237 262
f 200 261 268
f 199 267 274
f 196 270 303
f 196 303 275
f 197 276 204
f 211 279 282
f 211 282 241
f 244 284 287
f 245 289 291
f 246 292 252
f 247 253 250
f 260 295 266
f 265 294 300
f 264 298 273
f 272 297 307
f 271 305 313
f 269 310 338
f 269 338 302
f 278 316 319
f 278 319 281
f 283 324 286
f 285 323 328
f 288 329 290
f 299 335 308
f 306 334 314
f 312 331 343
f 311 342 347
f 309 346 337
f 315 350 354
f 315 354 318
f 320 357 359
f 321 360 365
f 322 366 327
f 326 364 369
f 325 368 373
f 333 379 386
f 332 383 344
f 340 382 388
f 341 389 345
f 351 392 375
f 349 370 353
f 356 362 358
f 355 371 361
f 363 372 367
f 376 393 400
f 377 401 396
f 378 407 385
f 380 410 408
f 384 404 414
f 387 416 390
f 397 418 446
f 397 446 422
f 398 402 423
f 399 424 419
f 406 409 429
f 405 428 415
f 411 435 430
f 413 438 441
f 413 426 438
f 422 446 452
f 431 436 454
f 431 454 456
f 432 457 459
f 433 460 462
f 434 463 466
f 427 465 474
f 427 474 488
f 427 488 468
f 427 468 439
f 440 469 442
f 449 471 477
f 448 476 481
f 445 480 484
f 444 483 486
f 447 487 453
f 472 489 478

