# https://github.com/mikedh/trimesh
v 0.02356851 -0.01402532 0.02954545
v 0.02538669 -0.00947987 0.01681818
v 0.02356851 0.01233831 0.03045455
v -0.01188603 0.01233831 0.03045455
v -0.01188603 -0.01402532 0.01590909
v -0.01188603 0.01233831 0.01590909
v -0.01188603 -0.01402532 0.03045455
v 0.02629579 -0.00311623 0.02954545
v 0.02356851 -0.01402532 0.01590909
v 0.02356851 0.01142922 0.01590909
v 0.02356851 -0.01311623 0.03045455
v 0.02538669 -0.01038896 0.02681818
v 0.02356851 0.01233831 0.01772727
v 0.02629579 -0.00220714 0.01590909
v 0.02211780 -0.01373012 0.03027992
v 0.02538669 -0.00766169 0.03045455
v 0.02447760 -0.01311623 0.01863636
v 0.02196584 0.01186677 0.01613186
v 0.02538669 -0.00857078 0.01590909
v 0.02629579 -0.00675260 0.02045455
v 0.02629579 0.00597468 0.01954545
v 0.02538669 0.00779286 0.03045455
v 0.02629579 -0.00584351 0.02772727
v 0.02447760 -0.01129805 0.03045455
v 0.02447760 -0.01220714 0.01681818
v 0.02447760 -0.01311623 0.02681818
v 0.02629579 -0.00402532 0.01681818
v 0.02538669 -0.01038896 0.01863636
v 0.02629579 0.00324740 0.01590909
v 0.02538669 0.00870195 0.01863636
v 0.02629579 0.00597468 0.02681818
v 0.02538669 -0.00947987 0.02863636
v 0.02629579 -0.00493442 0.02863636
v 0.02629579 -0.00675260 0.02590909
v 0.02629579 -0.00584351 0.01863636
v 0.02447760 0.00961104 0.01590909
v 0.02447760 0.01142922 0.02227273
v 0.02538669 0.00779286 0.01681818
v 0.02629579 0.00324740 0.02954545
v 0.02447760 0.01052013 0.01772727
v 0.02447760 0.01142922 0.02681818
v 0.02629579 0.00415649 0.01681818
v 0.02538669 0.00688377 0.01590909
v 0.02538669 0.00870195 0.02863636
f 6 4 3
f 6 5 4
f 7 3 4
f 7 5 1
f 7 4 5
f 9 1 5
f 9 5 6
f 10 9 6
f 11 3 7
f 13 6 3
f 14 9 10
f 15 11 7
f 15 7 1
f 15 1 11
f 16 3 11
f 17 1 9
f 18 13 10
f 18 10 6
f 18 6 13
f 19 2 9
f 19 9 14
f 20 14 8
f 21 8 14
f 22 16 8
f 22 3 16
f 23 20 8
f 24 16 11
f 24 11 1
f 25 17 9
f 25 9 2
f 25 2 17
f 26 17 12
f 26 1 17
f 26 24 1
f 27 19 14
f 27 14 20
f 28 17 2
f 28 2 20
f 28 20 12
f 28 12 17
f 29 21 14
f 29 14 10
f 31 8 21
f 31 21 30
f 32 23 16
f 32 16 24
f 32 26 12
f 32 24 26
f 33 23 8
f 33 8 16
f 33 16 23
f 34 12 20
f 34 20 23
f 34 32 12
f 34 23 32
f 35 27 20
f 35 20 2
f 35 2 19
f 35 19 27
f 36 29 10
f 37 13 3
f 37 31 30
f 38 30 21
f 39 31 22
f 39 22 8
f 39 8 31
f 40 38 36
f 40 30 38
f 40 37 30
f 40 13 37
f 40 36 10
f 40 10 13
f 41 37 3
f 41 31 37
f 42 38 21
f 42 21 29
f 42 29 38
f 43 38 29
f 43 29 36
f 43 36 38
f 44 41 3
f 44 3 22
f 44 22 31
f 44 31 41

