# https://github.com/mikedh/trimesh
v 0.02230565 -0.01385196 0.01600375
v 0.02538669 -0.00675260 0.01409091
v 0.02196584 0.01186677 0.01613186
v 0.00084124 0.01233831 0.01590909
v 0.00084124 -0.01402532 0.00863636
v 0.00084124 -0.01402532 0.01590909
v 0.02538669 0.00688377 0.01590909
v 0.01993215 -0.01402532 0.00863636
v 0.02279613 -0.01279839 0.01612352
v 0.02356851 -0.01311623 0.01409091
v 0.02265942 -0.01402532 0.01318182
v 0.02356851 0.00324740 0.00863636
v 0.02538669 -0.00766169 0.01590909
v 0.02265942 -0.00857078 0.00863636
v 0.02447760 -0.01129805 0.01590909
v 0.02538669 0.00142922 0.01227273
v 0.02175033 0.01142922 0.01045455
v 0.02356851 -0.01038896 0.01136364
v 0.02447760 -0.01129805 0.01500000
v 0.02447760 0.00688377 0.01227273
v 0.02356851 -0.00402532 0.00863636
v 0.02265942 0.01233831 0.01409091
v 0.00084124 0.01233831 0.00863636
v 0.02175033 -0.01402532 0.01045455
v 0.02538669 -0.00766169 0.01500000
v 0.02447760 -0.00947987 0.01318182
v 0.02447760 0.00324740 0.01045455
v 0.02538669 0.00597468 0.01409091
v 0.02265942 0.00870195 0.00954545
v 0.02538669 -0.00220714 0.01227273
v 0.02447760 -0.00675260 0.01136364
v 0.02447760 0.00870195 0.01409091
v 0.01993215 0.01233831 0.00863636
v 0.02175033 -0.01129805 0.00863636
v 0.02538669 0.00415649 0.01318182
v 0.02356851 0.00597468 0.00954545
v 0.02356851 -0.00675260 0.00954545
v 0.02538669 -0.00493442 0.01318182
v 0.02447760 -0.00402532 0.01045455
v 0.02265942 0.01052013 0.01136364
v 0.02538669 0.00688377 0.01500000
v 0.02175033 0.01052013 0.00954545
v 0.02265942 0.00688377 0.00863636
v 0.02084124 -0.01311623 0.00863636
v 0.02265942 -0.01038896 0.00954545
f 6 3 4
f 6 4 5
f 8 6 5
f 9 6 1
f 9 3 6
f 9 7 3
f 11 1 6
f 11 6 8
f 11 10 1
f 12 8 5
f 13 2 7
f 13 7 9
f 14 8 12
f 15 9 1
f 15 1 10
f 15 13 9
f 16 7 2
f 19 15 10
f 19 13 15
f 21 14 12
f 21 12 16
f 22 3 7
f 22 4 3
f 23 12 5
f 23 5 4
f 23 4 22
f 24 18 10
f 24 10 11
f 24 11 8
f 25 19 2
f 25 2 13
f 25 13 19
f 26 2 19
f 26 19 10
f 26 10 18
f 27 16 12
f 28 7 16
f 30 21 16
f 30 16 2
f 31 18 14
f 31 26 18
f 31 2 26
f 32 20 29
f 32 28 20
f 32 22 7
f 33 23 22
f 33 22 17
f 33 12 23
f 34 8 14
f 35 28 16
f 35 16 27
f 35 27 28
f 36 27 12
f 36 29 20
f 36 28 27
f 36 20 28
f 37 31 14
f 37 14 21
f 37 21 31
f 38 31 30
f 38 30 2
f 38 2 31
f 39 31 21
f 39 21 30
f 39 30 31
f 40 17 22
f 40 22 32
f 40 32 29
f 41 32 7
f 41 7 28
f 41 28 32
f 42 33 17
f 42 40 29
f 42 17 40
f 43 12 33
f 43 36 12
f 43 29 36
f 43 42 29
f 43 33 42
f 44 34 24
f 44 24 8
f 44 8 34
f 45 34 14
f 45 14 18
f 45 18 24
f 45 24 34

