# https://github.com/mikedh/trimesh
v 0.00538670 -0.02675260 0.02863636
v 0.01265942 -0.02402532 0.03227273
v 0.00538670 -0.02311623 0.03863636
v -0.00985232 -0.01994377 0.03832420
v -0.00461330 -0.02129805 0.02772727
v 0.01243133 -0.01994073 0.03739123
v -0.00461330 -0.02493441 0.03500000
v 0.00811397 -0.02493441 0.03409091
v 0.01265942 -0.02038896 0.03045455
v 0.01175033 -0.02129805 0.03863636
v -0.00552240 -0.02220714 0.03954545
v -0.00468488 -0.02535490 0.02776908
v 0.01084124 -0.02493441 0.03136364
v 0.00356851 -0.02584351 0.03318182
v 0.00447760 -0.02129805 0.02772727
v 0.01265942 -0.02129805 0.03772727
v -0.00461330 -0.02038896 0.03045455
v 0.00993215 -0.02402532 0.03500000
v 0.00971574 -0.01987216 0.03910905
v -0.00006785 -0.02493441 0.03590909
v -0.01188603 -0.02129805 0.03681818
v -0.00097694 -0.02675260 0.02863636
v 0.00720488 -0.02584351 0.03136364
v 0.01233318 -0.02324437 0.03024414
v 0.00629579 -0.02493441 0.03500000
v -0.00090551 -0.02592949 0.02758684
v -0.01203634 -0.02067069 0.03512551
v 0.01147133 -0.01981858 0.03819974
v 0.00811397 -0.02311623 0.03772727
v 0.00081567 -0.02093403 0.03995534
v -0.00461330 -0.02311623 0.03863636
v -0.00097694 -0.02584351 0.03318182
v -0.01006785 -0.02129805 0.03863636
v -0.00461330 -0.02584351 0.03136364
v -0.00006785 -0.02675260 0.02954545
v 0.00629579 -0.02584351 0.03227273
v 0.01084124 -0.02493441 0.03045455
v 0.00712762 -0.02548740 0.02766529
v 0.00175033 -0.02493441 0.03590909
v 0.00538670 -0.02675260 0.02772727
v -0.01169764 -0.02007405 0.03663656
v -0.01097694 -0.02220714 0.03590909
v 0.00993215 -0.02311623 0.03681818
v 0.00720488 -0.02220714 0.03954545
v 0.00629579 -0.02402532 0.03681818
v -0.00541574 -0.02087242 0.03922566
v -0.00824967 -0.02220714 0.03863636
v -0.00370421 -0.02584351 0.03227273
v 0.00265942 -0.02675260 0.02954545
v -0.01170819 -0.02095655 0.03485942
v -0.00915876 -0.02311623 0.03590909
v 0.00993215 -0.02129805 0.03954545
v -0.00824967 -0.02311623 0.03681818
f 13 2 8
f 15 5 9
f 16 9 6
f 16 2 9
f 16 6 10
f 17 9 5
f 18 8 2
f 18 16 10
f 18 2 16
f 23 13 8
f 23 1 13
f 24 9 2
f 26 12 5
f 26 5 15
f 26 22 12
f 27 5 12
f 28 17 4
f 28 6 9
f 28 9 17
f 28 4 19
f 28 19 10
f 28 10 6
f 29 25 8
f 29 8 18
f 30 19 4
f 31 7 20
f 31 20 3
f 31 3 11
f 32 20 7
f 32 14 20
f 34 12 22
f 35 22 1
f 35 14 32
f 35 34 22
f 36 14 1
f 36 1 23
f 36 23 8
f 36 25 14
f 36 8 25
f 37 24 2
f 37 2 13
f 37 13 1
f 38 15 9
f 38 9 24
f 38 26 15
f 38 24 37
f 39 20 14
f 39 14 25
f 39 3 20
f 40 1 22
f 40 22 26
f 40 26 38
f 40 38 37
f 40 37 1
f 41 17 5
f 41 5 27
f 41 4 17
f 41 27 21
f 41 33 4
f 41 21 33
f 42 21 27
f 42 12 34
f 42 33 21
f 43 29 18
f 43 18 10
f 44 30 11
f 44 11 3
f 44 29 43
f 45 25 29
f 45 39 25
f 45 3 39
f 45 44 3
f 45 29 44
f 46 30 4
f 46 11 30
f 46 33 11
f 46 4 33
f 47 31 11
f 47 11 33
f 47 7 31
f 48 32 7
f 48 7 34
f 48 35 32
f 48 34 35
f 49 35 1
f 49 1 14
f 49 14 35
f 50 42 27
f 50 27 12
f 50 12 42
f 51 42 34
f 51 34 7
f 52 10 19
f 52 19 30
f 52 30 44
f 52 44 43
f 52 43 10
f 53 51 7
f 53 7 47
f 53 42 51
f 53 47 33
f 53 33 42

