# https://github.com/mikedh/trimesh
v 0.00084124 -0.00038896 0.04409091
v 0.00447749 0.00142914 0.04499967
v -0.01188603 0.00688377 0.04590909
v -0.01169748 0.01219008 0.04153086
v 0.00084124 0.01233831 0.03045455
v -0.00006785 0.01142922 0.04590909
v -0.00734058 -0.00038896 0.04590909
v 0.00084124 -0.00038896 0.03045455
v -0.01170281 0.00898457 0.04530127
v 0.00084124 0.01233831 0.04318182
v 0.00420618 0.00123597 0.04514482
v 0.00084124 0.00324740 0.04681818
v -0.01188603 0.01233831 0.03045455
v -0.00734058 0.01233831 0.04318182
v 0.00356851 0.00688377 0.04590909
v -0.00546198 -0.00038491 0.04574853
v -0.00370421 0.00324740 0.04681818
v -0.01188603 -0.00038896 0.03045455
v -0.00341385 0.01100612 0.04549748
v 0.00265942 0.00870195 0.04590909
v 0.00442185 0.00323755 0.04476899
v 0.00447760 0.00324740 0.04590909
v 0.00076460 0.00206840 0.04668063
v -0.00370421 0.00233831 0.04681818
v -0.01181557 -0.00039141 0.04277302
v 0.00355704 0.00687631 0.04490127
v -0.00824967 0.00052013 0.04590909
f 9 4 3
f 9 3 6
f 11 8 2
f 11 1 8
f 13 5 8
f 13 10 5
f 13 3 4
f 14 4 9
f 14 6 10
f 14 13 4
f 14 10 13
f 16 7 1
f 16 1 11
f 17 12 6
f 17 6 3
f 18 13 8
f 18 3 13
f 19 14 9
f 19 9 6
f 19 6 14
f 20 10 6
f 20 6 12
f 20 12 15
f 20 15 5
f 20 5 10
f 21 8 5
f 21 2 8
f 22 15 12
f 22 11 2
f 22 2 21
f 23 7 16
f 23 16 11
f 23 22 12
f 23 11 22
f 24 17 3
f 24 7 23
f 24 23 12
f 24 12 17
f 25 3 18
f 25 18 8
f 25 8 1
f 25 1 7
f 26 21 5
f 26 5 15
f 26 22 21
f 26 15 22
f 27 24 3
f 27 7 24
f 27 25 7
f 27 3 25

