# https://github.com/mikedh/trimesh
v 0.01811397 -0.01402532 0.04045454
v 0.02538669 -0.00675260 0.03136364
v 0.02175033 0.00415649 0.04045454
v 0.01360249 0.01229792 0.04416889
v 0.01356851 -0.01402532 0.03045455
v 0.02223869 0.01214226 0.03037608
v 0.01629579 0.00688377 0.04500000
v 0.02175033 -0.00675260 0.03954545
v 0.02356851 -0.01311623 0.03045455
v 0.01327396 -0.01196979 0.04248163
v 0.02538669 0.00688377 0.03136364
v 0.01993215 0.01233831 0.03954545
v 0.01356851 0.01233831 0.03045455
v 0.02447760 -0.00311623 0.03590909
v 0.01720488 -0.00766169 0.04318182
v 0.02265942 -0.01402532 0.03227273
v 0.02452494 -0.00659713 0.03024845
v 0.01336394 -0.01381720 0.04167512
v 0.01356851 0.00597468 0.04500000
v 0.02265942 0.01233831 0.03409091
v 0.01633753 0.01223097 0.04429916
v 0.02265942 -0.01129805 0.03590909
v 0.02175033 -0.00220714 0.04045454
v 0.02447760 0.00233831 0.03590909
v 0.02538669 0.00324740 0.03318182
v 0.01902306 -0.01038896 0.04136364
v 0.01538669 -0.01402532 0.04227273
v 0.02211780 -0.01373012 0.03027992
v 0.02538669 0.00688377 0.03045455
v 0.02447760 -0.01038896 0.03045455
v 0.01447760 -0.01220714 0.04318182
v 0.02265942 0.00961104 0.03681818
v 0.02084124 0.00415649 0.04136364
v 0.02175033 0.00779286 0.03954545
v 0.02356851 -0.00584351 0.03681818
v 0.02084124 -0.01402532 0.03681818
v 0.02356851 -0.01311623 0.03136364
v 0.02356851 0.00324740 0.03772727
v 0.02356851 -0.00311623 0.03772727
v 0.01993215 -0.00129805 0.04227273
v 0.02538669 -0.00402532 0.03318182
v 0.02084124 -0.00766169 0.04045454
v 0.01720488 -0.01129805 0.04227273
v 0.02356851 0.01142922 0.03227273
v 0.01538669 -0.01129805 0.04318182
v 0.01447760 -0.00402532 0.04409091
v 0.01356851 -0.00402532 0.04409091
v 0.02447760 0.00688377 0.03409091
v 0.02265942 -0.00766169 0.03772727
v 0.01993215 -0.01220714 0.03954545
v 0.02447760 -0.01038896 0.03136364
v 0.02265942 -0.01311623 0.03409091
v 0.02265942 0.00597468 0.03863636
v 0.01811397 -0.00311623 0.04318182
v 0.01902306 -0.00675260 0.04227273
v 0.01993215 0.00324740 0.04227273
v 0.02447760 -0.00766169 0.03409091
v 0.01811397 -0.00947987 0.04227273
v 0.01811397 -0.01220714 0.04136364
v 0.02447760 0.00961104 0.03045455
v 0.02356851 0.01142922 0.03045455
v 0.01447760 0.00597468 0.04500000
v 0.02356851 0.00597468 0.03681818
v 0.01902306 -0.01402532 0.03954545
f 13 4 12
f 13 10 4
f 13 5 10
f 16 1 5
f 17 13 6
f 18 10 5
f 19 4 10
f 20 13 12
f 20 6 13
f 21 12 4
f 21 19 7
f 21 4 19
f 25 2 11
f 25 24 14
f 27 18 5
f 27 5 1
f 28 16 5
f 28 9 16
f 28 17 9
f 28 5 13
f 28 13 17
f 29 17 6
f 29 11 2
f 29 2 17
f 30 17 2
f 30 9 17
f 31 10 18
f 31 18 27
f 32 20 12
f 33 3 21
f 34 21 3
f 34 12 21
f 34 32 12
f 36 1 16
f 37 16 9
f 37 9 30
f 38 3 23
f 38 14 24
f 39 23 8
f 39 38 23
f 39 14 38
f 39 35 14
f 39 8 35
f 40 23 3
f 41 25 14
f 41 2 25
f 42 8 23
f 44 20 11
f 45 15 7
f 45 43 15
f 45 31 27
f 45 27 43
f 46 45 7
f 46 31 45
f 47 19 10
f 47 10 31
f 47 46 19
f 47 31 46
f 48 25 11
f 48 11 20
f 48 20 32
f 49 35 8
f 49 8 22
f 50 36 22
f 50 42 26
f 50 22 8
f 50 8 42
f 51 37 30
f 51 30 2
f 52 36 16
f 52 16 37
f 52 22 36
f 53 34 3
f 53 3 38
f 54 40 7
f 54 7 15
f 55 26 42
f 55 42 23
f 55 23 40
f 55 54 15
f 55 40 54
f 56 7 40
f 56 33 21
f 56 21 7
f 56 40 3
f 56 3 33
f 57 41 14
f 57 14 35
f 57 2 41
f 57 51 2
f 57 22 52
f 57 52 37
f 57 37 51
f 57 49 22
f 57 35 49
f 58 43 26
f 58 15 43
f 58 55 15
f 58 26 55
f 59 43 27
f 59 27 1
f 59 1 26
f 59 26 43
f 60 44 11
f 60 11 29
f 60 29 6
f 61 6 20
f 61 20 44
f 61 60 6
f 61 44 60
f 62 46 7
f 62 7 19
f 62 19 46
f 63 38 24
f 63 24 25
f 63 25 48
f 63 53 38
f 63 48 32
f 63 32 34
f 63 34 53
f 64 1 36
f 64 36 50
f 64 50 26
f 64 26 1

