# https://github.com/mikedh/trimesh
v 0.01993215 0.01233831 0.03863636
v 0.02265942 0.01324740 0.01590909
v 0.02265942 0.01415649 0.03045455
v 0.01356851 0.02324740 0.03136364
v 0.01164404 0.01223823 0.00337407
v 0.01811397 0.01961104 0.01863636
v 0.01902306 0.01597468 0.03772727
v 0.02285113 0.01194293 0.02586790
v 0.01265942 0.01233831 0.03863636
v 0.02175033 0.01597468 0.02318182
v 0.01175033 0.02142922 0.01136364
v 0.02175033 0.01324740 0.03500000
v 0.01902306 0.01870195 0.03136364
v 0.02356851 0.01324740 0.02409091
v 0.02103597 0.01189408 0.01341423
v 0.01265942 0.01688377 0.03863636
v 0.02100357 0.01198191 0.03468662
v 0.02084124 0.01688377 0.02045455
v 0.01356851 0.02324740 0.01954545
v 0.01135604 0.02167915 0.01434751
v 0.01902306 0.01506558 0.01045455
v 0.01993215 0.01324740 0.03863636
v 0.02175033 0.01506558 0.03227273
v 0.01629579 0.02052013 0.03409091
v 0.02175033 0.01597468 0.02772727
v 0.01538669 0.02233831 0.02863636
v 0.02196584 0.01186677 0.01613186
v 0.02265942 0.01324740 0.03227273
v 0.02265942 0.01415649 0.01863636
v 0.01447760 0.02052013 0.01227273
v 0.01175033 0.01415649 0.00318182
v 0.01175033 0.01233831 0.01590909
v 0.01221302 0.02163102 0.03379237
v 0.01265942 0.02233831 0.01409091
v 0.01160680 0.02210331 0.01597885
v 0.01993215 0.01688377 0.01590909
v 0.01993215 0.01233831 0.00954545
v 0.01720488 0.01688377 0.03863636
v 0.02175033 0.01415649 0.03409091
v 0.01993215 0.01688377 0.03409091
v 0.02356851 0.01324740 0.02590909
v 0.02084124 0.01688377 0.02954545
v 0.01720488 0.02052013 0.03136364
v 0.01538669 0.02233831 0.02318182
v 0.02287914 0.01193484 0.02411909
v 0.02175033 0.01324740 0.01318182
v 0.02192526 0.01197931 0.03207128
v 0.01538669 0.02142922 0.01681818
v 0.01175033 0.01961104 0.00863636
v 0.01265942 0.02142922 0.01136364
v 0.01228587 0.02255959 0.01963914
v 0.01223303 0.02247509 0.03120696
v 0.01902306 0.01870195 0.01863636
v 0.01356851 0.01233831 0.00318182
v 0.01902306 0.01506558 0.03863636
v 0.01811397 0.01688377 0.03772727
v 0.01356851 0.02233831 0.03409091
v 0.01993215 0.01597468 0.03590909
v 0.01629579 0.02142922 0.03045455
v 0.01629579 0.02142922 0.02045455
v 0.01993215 0.01324740 0.00954545
v 0.02084124 0.01506558 0.01409091
v 0.01720488 0.01961104 0.01590909
v 0.01447760 0.02233831 0.01772727
f 16 9 1
f 17 1 9
f 22 1 12
f 22 16 1
f 25 14 10
f 25 23 3
f 26 19 4
f 26 25 10
f 27 2 14
f 27 8 17
f 27 17 9
f 27 9 5
f 27 5 15
f 29 14 2
f 29 10 14
f 29 18 10
f 31 5 20
f 32 20 5
f 32 5 9
f 32 9 20
f 33 20 9
f 33 9 16
f 35 19 34
f 35 34 11
f 35 11 20
f 36 29 2
f 38 16 22
f 39 12 28
f 39 28 3
f 39 3 23
f 40 23 13
f 40 39 23
f 40 13 24
f 41 25 3
f 41 14 25
f 41 3 28
f 41 28 8
f 42 25 13
f 42 13 23
f 42 23 25
f 43 24 13
f 44 19 26
f 44 26 10
f 45 27 14
f 45 8 27
f 45 41 8
f 45 14 41
f 46 27 15
f 46 2 27
f 46 15 37
f 47 17 8
f 47 8 28
f 47 1 17
f 47 28 12
f 47 12 1
f 49 31 20
f 49 20 11
f 49 21 31
f 50 11 34
f 50 49 11
f 50 30 21
f 50 21 49
f 50 48 30
f 51 4 19
f 51 19 35
f 52 33 4
f 52 51 35
f 52 4 51
f 52 35 20
f 52 20 33
f 53 18 29
f 53 29 36
f 53 10 18
f 54 37 15
f 54 15 5
f 54 5 31
f 55 38 22
f 55 7 38
f 55 22 12
f 55 39 7
f 55 12 39
f 56 38 7
f 56 7 24
f 57 33 16
f 57 16 38
f 57 4 33
f 57 24 4
f 57 56 24
f 57 38 56
f 58 7 39
f 58 39 40
f 58 40 24
f 58 24 7
f 59 26 4
f 59 4 24
f 59 24 43
f 59 43 13
f 59 13 25
f 59 25 26
f 60 19 44
f 60 6 48
f 60 44 10
f 60 53 6
f 60 10 53
f 61 46 37
f 61 21 46
f 61 37 54
f 61 54 31
f 61 31 21
f 62 36 2
f 62 2 46
f 62 46 21
f 63 30 48
f 63 36 62
f 63 62 21
f 63 21 30
f 63 48 6
f 63 53 36
f 63 6 53
f 64 34 19
f 64 60 48
f 64 19 60
f 64 50 34
f 64 48 50

