# https://github.com/mikedh/trimesh
v 0.01666684 0.01635528 0.03728529
v 0.01811397 0.01779286 0.03500000
v 0.00447760 0.02324740 0.03863636
v -0.00734058 0.02597468 0.03136364
v -0.01188603 0.01870195 0.03045455
v 0.00629579 0.02597468 0.03045455
v 0.01538669 0.01870195 0.03863636
v 0.01785172 0.01666257 0.03487768
v -0.01097694 0.01961104 0.04045454
v 0.00356851 0.02597468 0.03318182
v -0.01279512 0.02415649 0.03045455
v 0.01720488 0.01779286 0.03772727
v 0.01763278 0.01648749 0.03570311
v 0.00714132 0.02482804 0.03041422
v -0.00643149 0.02415649 0.03681818
v 0.00265942 0.01961104 0.04227273
v -0.01160053 0.01830103 0.03912899
v 0.00993215 0.02415649 0.03409091
v -0.00734058 0.02597468 0.03045455
v 0.01584337 0.01639502 0.03823713
v 0.01811397 0.01779286 0.03590909
v 0.00720488 0.01870195 0.03045455
v -0.01529607 0.02115207 0.03034828
v -0.01188603 0.02233831 0.03681818
v -0.00461330 0.02597468 0.03318182
v 0.00811397 0.02052013 0.04045454
v -0.00643149 0.02142922 0.04045454
v -0.00272067 0.01837818 0.04143922
v 0.00538670 0.02597468 0.03227273
v 0.01538669 0.02052013 0.03590909
v 0.00538670 0.02506558 0.03500000
v 0.01629579 0.01779286 0.03863636
v -0.01513439 0.02097808 0.03117535
v -0.00915876 0.02506558 0.03318182
v -0.00279512 0.02415649 0.03772727
v 0.00538670 0.02052013 0.04136364
v 0.00993215 0.02233831 0.03772727
v -0.00279512 0.01961104 0.04227273
v -0.00915876 0.02142922 0.03954545
v -0.01097694 0.01870195 0.04045454
v 0.00260912 0.01840282 0.04145935
v -0.00809396 0.01832597 0.04058795
v 0.00629579 0.02597468 0.03136364
v 0.01629579 0.01870195 0.03772727
v 0.01538669 0.02052013 0.03500000
v 0.00720488 0.02506558 0.03409091
v 0.00720488 0.01961104 0.04136364
v -0.01552240 0.02233831 0.03136364
v -0.00824967 0.02415649 0.03590909
v -0.01006785 0.02506558 0.03227273
v -0.00643149 0.02597468 0.03227273
v -0.00370421 0.02506558 0.03590909
v 0.00265942 0.02506558 0.03590909
v -0.00461330 0.02324740 0.03863636
v 0.00538670 0.02233831 0.03954545
v 0.00720488 0.02324740 0.03772727
v 0.01356851 0.02052013 0.03772727
v -0.00824967 0.01961104 0.04136364
v -0.01097694 0.02142922 0.03863636
v -0.00915876 0.02052013 0.04045454
v 0.01175033 0.02324740 0.03409091
v 0.00902306 0.02324740 0.03681818
v 0.00993215 0.01961104 0.04045454
v -0.01461330 0.02233831 0.03318182
f 10 6 4
f 13 1 5
f 13 5 8
f 13 12 1
f 14 6 2
f 14 2 8
f 17 5 1
f 19 11 4
f 19 4 6
f 19 6 14
f 20 1 12
f 20 17 1
f 21 13 8
f 21 8 2
f 21 12 13
f 22 14 8
f 22 8 5
f 23 19 14
f 23 11 19
f 23 22 5
f 23 14 22
f 25 10 4
f 29 6 10
f 30 21 2
f 32 20 12
f 32 12 7
f 33 23 5
f 33 5 17
f 37 30 18
f 38 16 27
f 39 27 15
f 40 28 38
f 41 28 20
f 41 20 16
f 41 38 28
f 41 16 38
f 42 17 20
f 42 20 28
f 42 40 17
f 42 28 40
f 43 18 6
f 43 6 29
f 44 30 7
f 44 7 12
f 44 12 21
f 44 21 30
f 45 30 2
f 45 2 6
f 46 29 10
f 46 10 31
f 46 43 29
f 46 18 43
f 47 16 20
f 47 20 32
f 47 36 16
f 47 26 36
f 48 33 17
f 48 11 23
f 48 23 33
f 48 17 40
f 49 34 24
f 49 15 25
f 49 25 34
f 49 39 15
f 49 24 39
f 50 34 4
f 50 4 11
f 50 24 34
f 51 34 25
f 51 25 4
f 51 4 34
f 52 25 15
f 52 15 35
f 52 10 25
f 53 35 3
f 53 52 35
f 53 31 10
f 53 10 52
f 54 35 15
f 54 15 27
f 54 27 35
f 55 36 26
f 55 27 16
f 55 16 36
f 55 35 27
f 55 3 35
f 55 26 37
f 56 55 37
f 56 3 55
f 56 53 3
f 56 31 53
f 56 46 31
f 57 7 30
f 57 30 37
f 57 37 26
f 58 38 27
f 58 40 38
f 58 9 40
f 59 39 24
f 59 24 9
f 59 9 39
f 60 39 9
f 60 27 39
f 60 58 27
f 60 9 58
f 61 45 6
f 61 6 18
f 61 18 30
f 61 30 45
f 62 37 18
f 62 18 46
f 62 56 37
f 62 46 56
f 63 47 32
f 63 32 7
f 63 26 47
f 63 57 26
f 63 7 57
f 64 9 24
f 64 24 50
f 64 50 11
f 64 11 48
f 64 48 40
f 64 40 9

