# https://github.com/mikedh/trimesh
v 0.01993215 -0.01402532 0.00863636
v 0.02265942 -0.00675260 0.00772727
v 0.02198505 0.00487287 0.00905583
v 0.01356851 0.01233831 0.00863636
v 0.01447760 -0.00766169 0.00045455
v 0.01356851 -0.01402532 0.00863636
v 0.02195858 -0.00658885 0.00905002
v 0.01720488 -0.01129805 0.00318182
v 0.01902306 0.00415649 0.00318182
v 0.01850042 0.01194227 0.00906660
v 0.01324038 -0.00749473 0.00124842
v 0.02084124 -0.01220714 0.00863636
v 0.01329532 -0.01377080 0.00356719
v 0.02265942 0.00142922 0.00681818
v 0.01720488 -0.00493442 0.00136364
v 0.01356851 0.00870195 0.00136364
v 0.02108731 0.00750664 0.00908661
v 0.01993215 -0.01129805 0.00590909
v 0.01447760 -0.01311623 0.00227273
v 0.01314726 -0.01276678 0.00298889
v 0.01538669 -0.01402532 0.00318182
v 0.02265942 0.00506558 0.00772727
v 0.01629579 -0.00766169 0.00136364
v 0.02175033 -0.00493442 0.00590909
v 0.01993215 0.01052013 0.00681818
v 0.01538669 0.01233831 0.00409091
v 0.01336135 0.01215675 0.00441039
v 0.01356851 0.00506558 0.00045455
v 0.02084124 -0.01220714 0.00772727
v 0.01356851 -0.01129805 0.00136364
v 0.01447760 -0.01129805 0.00136364
v 0.01720488 -0.01311623 0.00409091
v 0.02084124 0.00415649 0.00500000
v 0.01902306 -0.00675260 0.00318182
v 0.02265942 -0.00220714 0.00681818
v 0.01993215 -0.00947987 0.00500000
v 0.01993215 0.01142922 0.00863636
v 0.01902306 0.01233831 0.00772727
v 0.01720488 0.00870195 0.00318182
v 0.01356851 0.01052013 0.00227273
v 0.01538669 0.00233831 0.00045455
v 0.01538669 -0.01220714 0.00227273
v 0.01993215 -0.01402532 0.00772727
v 0.02175033 0.00324740 0.00590909
v 0.02084124 0.00688377 0.00590909
v 0.01811397 -0.00947987 0.00318182
v 0.01993215 -0.00675260 0.00409091
v 0.02175033 0.00779286 0.00772727
v 0.01993215 0.01142922 0.00772727
v 0.01720488 0.01052013 0.00409091
v 0.01538669 0.00961104 0.00227273
v 0.01538669 -0.00493442 0.00045455
v 0.01720488 0.00233831 0.00136364
v 0.01447760 0.00870195 0.00136364
v 0.01902306 -0.01311623 0.00590909
v 0.01811397 0.00688377 0.00318182
v 0.02084124 0.00870195 0.00681818
v 0.01447760 0.00506558 0.00045455
v 0.01447760 0.01052013 0.00227273
v 0.01629579 0.00506558 0.00136364
f 7 2 3
f 7 6 1
f 10 4 6
f 10 6 7
f 12 7 1
f 12 2 7
f 17 10 7
f 17 7 3
f 20 13 6
f 20 6 4
f 21 1 6
f 21 6 13
f 21 13 19
f 22 3 2
f 22 2 14
f 23 5 15
f 24 15 14
f 27 4 26
f 27 20 4
f 27 11 20
f 28 5 11
f 28 27 16
f 28 11 27
f 29 18 2
f 29 2 12
f 29 12 1
f 30 19 13
f 30 13 20
f 30 20 11
f 30 11 5
f 31 21 19
f 31 23 8
f 31 5 23
f 31 30 5
f 31 19 30
f 32 21 8
f 34 23 15
f 34 15 24
f 35 24 14
f 35 14 2
f 35 2 24
f 36 2 18
f 37 10 17
f 38 26 4
f 38 4 10
f 38 10 37
f 40 27 26
f 40 16 27
f 41 5 28
f 42 31 8
f 42 8 21
f 42 21 31
f 43 18 29
f 43 29 1
f 43 1 21
f 43 21 32
f 44 22 14
f 44 9 33
f 44 14 15
f 45 44 33
f 45 22 44
f 45 33 9
f 46 8 23
f 46 23 34
f 46 36 32
f 46 32 8
f 47 34 24
f 47 24 2
f 47 2 36
f 47 46 34
f 47 36 46
f 48 37 17
f 48 22 45
f 48 17 3
f 48 3 22
f 49 38 37
f 49 26 38
f 49 48 25
f 49 37 48
f 50 49 25
f 50 26 49
f 51 50 39
f 52 41 15
f 52 15 5
f 52 5 41
f 53 15 41
f 53 44 15
f 53 9 44
f 54 28 16
f 54 16 40
f 54 51 39
f 55 43 32
f 55 18 43
f 55 36 18
f 55 32 36
f 56 45 9
f 56 39 50
f 57 48 45
f 57 25 48
f 57 50 25
f 57 56 50
f 57 45 56
f 58 41 28
f 58 28 54
f 58 53 41
f 59 54 40
f 59 40 26
f 59 51 54
f 59 26 50
f 59 50 51
f 60 54 39
f 60 39 56
f 60 58 54
f 60 53 58
f 60 56 9
f 60 9 53

