# https://github.com/mikedh/trimesh
v 0.01265942 0.01870195 0.03500000
v 0.01158778 0.01846976 0.00882284
v 0.01084124 0.02506558 0.02136364
v -0.00461330 0.02688377 0.02954545
v -0.01500514 0.01902913 0.01084784
v 0.01084124 0.02415649 0.03318182
v 0.01265942 0.02324740 0.01681818
v -0.01188603 0.01870195 0.03045455
v -0.00370421 0.02597468 0.01318182
v 0.00538670 0.02688377 0.02590909
v 0.01265942 0.01870195 0.01590909
v 0.01265942 0.02324740 0.03318182
v 0.00720488 0.01870195 0.03500000
v -0.01188603 0.02506558 0.02863636
v 0.00447760 0.02597468 0.01500000
v -0.00824967 0.02324740 0.00863636
v 0.01084124 0.02506558 0.02863636
v 0.00084124 0.02688377 0.03045455
v -0.00370421 0.02688377 0.01681818
v 0.01175033 0.01961104 0.00863636
v 0.01244490 0.02102904 0.03480267
v 0.01265942 0.02415649 0.02863636
v -0.01552240 0.02233831 0.01590909
v -0.01097694 0.02506558 0.03045455
v 0.01084124 0.02415649 0.01590909
v 0.00447760 0.02688377 0.02045455
v -0.01218937 0.01919367 0.00825743
v 0.00447760 0.02324740 0.00863636
v 0.00811397 0.02597468 0.02954545
v 0.01175033 0.02415649 0.03136364
v -0.00734058 0.02688377 0.02318182
v -0.01006785 0.02506558 0.01409091
v 0.00084124 0.02688377 0.01681818
v 0.00720488 0.02142922 0.03500000
v 0.01265942 0.02415649 0.02227273
v -0.01552240 0.01961104 0.01590909
v -0.01552240 0.02052013 0.01045455
v -0.01006785 0.02597468 0.02772727
v -0.00824967 0.02597468 0.03045455
v -0.01155864 0.02349645 0.03027483
v 0.00629579 0.02597468 0.01681818
v 0.01175033 0.02142922 0.01045455
v 0.00811397 0.02597468 0.02045455
v -0.01418215 0.01905132 0.00993039
v -0.00643149 0.02415649 0.00954545
v 0.00265942 0.02506558 0.01136364
v 0.00720488 0.02233831 0.00863636
v 0.00811397 0.02506558 0.03318182
v 0.00265942 0.02688377 0.02954545
v 0.00993215 0.02506558 0.03136364
v -0.00643149 0.02597468 0.01409091
v 0.01175033 0.02415649 0.01863636
v -0.01188603 0.02142922 0.00863636
v -0.01461330 0.02324740 0.01500000
v -0.00643149 0.02688377 0.02681818
v -0.00188603 0.02688377 0.03045455
v -0.00915876 0.02597468 0.02954545
v 0.01175033 0.02233831 0.01227273
v 0.00538670 0.02688377 0.02409091
v 0.00993215 0.02506558 0.01863636
v -0.01461330 0.02052013 0.00954545
v -0.00824967 0.02415649 0.01045455
v 0.00084124 0.02597468 0.01318182
v 0.00265942 0.02415649 0.00954545
f 8 5 2
f 11 7 1
f 11 1 2
f 12 1 7
f 13 8 2
f 13 2 1
f 18 10 4
f 19 4 10
f 20 11 2
f 20 7 11
f 21 12 6
f 21 1 12
f 22 12 7
f 22 3 17
f 23 8 14
f 26 19 10
f 27 20 2
f 28 27 16
f 29 17 3
f 30 6 12
f 30 22 17
f 30 12 22
f 31 4 19
f 33 9 19
f 33 26 15
f 33 19 26
f 34 13 1
f 34 1 21
f 34 24 8
f 34 8 13
f 35 22 7
f 35 3 22
f 36 5 8
f 36 8 23
f 37 36 23
f 37 5 36
f 38 14 24
f 39 24 34
f 40 24 14
f 40 14 8
f 40 8 24
f 41 25 15
f 41 15 26
f 42 7 20
f 43 41 26
f 43 29 3
f 43 10 29
f 44 27 2
f 44 2 5
f 44 5 37
f 45 28 16
f 47 20 27
f 47 27 28
f 47 42 20
f 47 28 46
f 48 39 34
f 48 34 21
f 48 21 6
f 49 29 10
f 49 10 18
f 49 48 29
f 49 18 48
f 50 6 30
f 50 48 6
f 50 29 48
f 50 30 17
f 50 17 29
f 51 19 9
f 51 9 45
f 51 32 31
f 51 31 19
f 52 25 3
f 52 3 35
f 52 35 7
f 52 7 25
f 53 16 27
f 53 32 16
f 54 37 23
f 54 53 37
f 54 32 53
f 54 23 14
f 54 14 38
f 54 38 31
f 54 31 32
f 55 4 31
f 55 31 38
f 56 18 4
f 56 4 39
f 56 48 18
f 56 39 48
f 57 38 24
f 57 24 39
f 57 39 4
f 57 55 38
f 57 4 55
f 58 25 7
f 58 7 42
f 58 42 47
f 58 15 25
f 58 47 46
f 58 46 15
f 59 43 26
f 59 26 10
f 59 10 43
f 60 43 3
f 60 3 25
f 60 25 41
f 60 41 43
f 61 44 37
f 61 27 44
f 61 53 27
f 61 37 53
f 62 45 16
f 62 16 32
f 62 51 45
f 62 32 51
f 63 33 15
f 63 15 46
f 63 9 33
f 63 45 9
f 64 46 28
f 64 28 45
f 64 63 46
f 64 45 63

