# https://github.com/mikedh/trimesh
v -0.00552240 -0.02584351 0.03045455
v -0.00461330 -0.02038896 0.00863636
v -0.00461330 -0.01402532 0.03863636
v -0.01941401 -0.01186413 0.03724170
v -0.02097694 -0.01675260 0.01772727
v -0.01188603 -0.01220714 0.00590909
v -0.01188603 -0.02038896 0.03863636
v -0.00443016 -0.02500703 0.03025816
v -0.00915876 -0.02493441 0.01681818
v -0.00461330 -0.01402532 0.00863636
v -0.01188603 -0.01220714 0.03772727
v -0.02279512 -0.01220714 0.01500000
v -0.00476296 -0.02107516 0.03916761
v -0.01188603 -0.01402532 0.03863636
v -0.01643149 -0.02129805 0.02954545
v -0.00461330 -0.02584351 0.01590909
v -0.01461330 -0.01675260 0.00681818
v -0.01593873 -0.01182827 0.00646894
v -0.02370421 -0.01311623 0.02772727
v -0.00552240 -0.02493441 0.03409091
v -0.02006785 -0.01311623 0.03772727
v -0.00824967 -0.02584351 0.02590909
v -0.01643149 -0.02129805 0.01863636
v -0.01279512 -0.01675260 0.00590909
v -0.01006785 -0.02311623 0.01227273
v -0.02006785 -0.01493441 0.01136364
v -0.02290964 -0.01184020 0.01964789
v -0.02370421 -0.01311623 0.01954545
v -0.02188603 -0.01584351 0.02863636
v -0.00824967 -0.02402532 0.03500000
v -0.00461330 -0.02493441 0.03409091
v -0.01552240 -0.01947987 0.03681818
v -0.02279512 -0.01220714 0.03227273
v -0.00734058 -0.02584351 0.01863636
v -0.01552240 -0.02220714 0.02681818
v -0.01643149 -0.01311623 0.00590909
v -0.00552240 -0.02584351 0.01590909
v -0.01461330 -0.02220714 0.01681818
v -0.01097694 -0.02038896 0.00863636
v -0.01824967 -0.01947987 0.01681818
v -0.02006785 -0.01220714 0.00954545
v -0.02290277 -0.01181605 0.02760834
v -0.02279512 -0.01311623 0.01500000
v -0.02279512 -0.01493441 0.02136364
v -0.01097694 -0.02402532 0.03136364
v -0.00734058 -0.02493441 0.03318182
v -0.01915876 -0.01493441 0.03772727
v -0.02006785 -0.01675260 0.03318182
v -0.02097694 -0.01220714 0.03681818
v -0.01006785 -0.02493441 0.01954545
v -0.01734058 -0.01493441 0.00772727
v -0.01097694 -0.02311623 0.01318182
v -0.02097694 -0.01584351 0.01500000
v -0.01552240 -0.02038896 0.01318182
v -0.02188603 -0.01584351 0.01863636
v -0.02006785 -0.01311623 0.00954545
v -0.02279512 -0.01493441 0.02500000
v -0.01006785 -0.02493441 0.02863636
v -0.01370421 -0.02311623 0.02863636
v -0.01370421 -0.02220714 0.03318182
v -0.00915876 -0.02402532 0.03409091
v -0.00734058 -0.02584351 0.02863636
v -0.01461330 -0.01947987 0.03772727
v -0.02006785 -0.01766169 0.03045455
f 10 6 3
f 10 2 6
f 10 8 2
f 10 3 8
f 11 3 6
f 13 8 3
f 14 11 4
f 14 3 11
f 14 13 3
f 14 7 13
f 16 8 1
f 16 2 8
f 18 11 6
f 18 4 11
f 21 14 4
f 21 7 14
f 22 16 1
f 23 15 5
f 24 6 2
f 25 2 16
f 28 27 12
f 29 5 15
f 30 20 13
f 30 13 7
f 31 20 1
f 31 1 8
f 31 8 13
f 31 13 20
f 34 16 22
f 35 15 23
f 36 18 6
f 36 6 24
f 36 24 17
f 37 25 16
f 37 34 9
f 37 16 34
f 39 17 24
f 39 24 2
f 39 2 25
f 40 23 5
f 40 38 23
f 41 27 18
f 41 12 27
f 41 18 36
f 42 4 18
f 42 18 27
f 42 33 4
f 42 19 33
f 42 28 19
f 42 27 28
f 43 28 12
f 43 12 41
f 44 5 29
f 44 19 28
f 46 1 20
f 46 20 30
f 47 7 21
f 48 15 32
f 48 32 47
f 48 33 19
f 48 19 29
f 49 21 4
f 49 4 33
f 49 47 21
f 49 48 47
f 49 33 48
f 50 34 22
f 50 9 34
f 50 38 9
f 50 35 23
f 50 23 38
f 51 36 17
f 52 9 38
f 52 37 9
f 52 25 37
f 52 39 25
f 53 40 5
f 53 43 26
f 54 17 39
f 54 39 52
f 54 52 38
f 54 38 40
f 54 51 17
f 54 26 51
f 54 53 26
f 54 40 53
f 55 28 43
f 55 44 28
f 55 5 44
f 55 53 5
f 55 43 53
f 56 43 41
f 56 26 43
f 56 51 26
f 56 41 36
f 56 36 51
f 57 44 29
f 57 29 19
f 57 19 44
f 58 46 45
f 58 50 22
f 58 35 50
f 59 15 35
f 59 58 45
f 59 35 58
f 60 32 15
f 60 59 45
f 60 15 59
f 61 46 30
f 61 45 46
f 61 60 45
f 61 30 60
f 62 22 1
f 62 1 46
f 62 58 22
f 62 46 58
f 63 47 32
f 63 7 47
f 63 32 60
f 63 60 30
f 63 30 7
f 64 48 29
f 64 29 15
f 64 15 48

