# https://github.com/mikedh/trimesh
v 0.01265942 0.01233831 0.03863636
v 0.01175033 0.01233831 0.00863636
v 0.01265942 0.01870195 0.01590909
v -0.01188603 0.01870195 0.04045454
v -0.01169748 0.01219008 0.04153086
v -0.01218937 0.01919367 0.00825743
v 0.01255217 0.01850985 0.03846531
v 0.01265942 0.01233831 0.01590909
v 0.01158778 0.01846976 0.00882284
v -0.01188603 0.01415649 0.04227273
v -0.01188603 0.01233831 0.00863636
v -0.00552240 0.01870195 0.04227273
v 0.00084124 0.01233831 0.04318182
v -0.01006785 0.01870195 0.04136364
v -0.00006785 0.01233831 0.04318182
v 0.00084124 0.01506558 0.04318182
v -0.01188603 0.01688377 0.04136364
v -0.00915876 0.01688377 0.04227273
v 0.00082598 0.01843204 0.04152700
v -0.00006785 0.01506558 0.04318182
f 7 1 3
f 7 3 6
f 8 2 3
f 8 3 1
f 8 5 2
f 8 1 5
f 9 6 3
f 9 3 2
f 9 2 6
f 11 6 2
f 11 2 5
f 11 10 6
f 11 5 10
f 12 7 6
f 13 5 1
f 14 12 6
f 14 6 4
f 15 10 5
f 15 5 13
f 16 13 1
f 16 1 7
f 16 15 13
f 17 14 4
f 17 10 14
f 17 4 6
f 17 6 10
f 18 14 10
f 18 12 14
f 19 16 7
f 19 7 12
f 19 12 16
f 20 10 15
f 20 15 16
f 20 18 10
f 20 16 12
f 20 12 18

