# https://github.com/mikedh/trimesh
v 0.00811397 -0.02129805 0.04045454
v 0.01720488 -0.01493441 0.04045454
v 0.00993215 -0.01675260 0.04318182
v 0.00079766 -0.01397177 0.04389830
v -0.00461330 -0.01402532 0.03045455
v 0.01447760 -0.01402532 0.04227273
v 0.00158375 -0.01857110 0.04416824
v 0.01356851 -0.01766169 0.04136364
v 0.01265942 -0.02038896 0.03045455
v 0.00629579 -0.01402532 0.04409091
v 0.01672173 -0.01366566 0.03982361
v 0.00993215 -0.01857078 0.04227273
v -0.00461330 -0.02038896 0.03045455
v 0.01447760 -0.01493441 0.04227273
v 0.01265942 -0.02038896 0.03863636
v 0.00629579 -0.01493441 0.04409091
v -0.00461330 -0.01402532 0.03863636
v 0.01629579 -0.01402532 0.04136364
v 0.01265942 -0.01402532 0.03045455
v 0.00811397 -0.02038896 0.04136364
v 0.01265942 -0.01675260 0.04227273
v -0.00476296 -0.02107516 0.03916761
v 0.00265942 -0.02220714 0.04045454
v 0.01629579 -0.01493441 0.04136364
v 0.01175033 -0.02038896 0.03954545
v 0.01447760 -0.01766169 0.04045454
v 0.01706754 -0.01392335 0.03938718
v 0.00720488 -0.01947987 0.04227273
v 0.00175033 -0.02220714 0.04045454
v 0.00447760 -0.02129805 0.04136364
v 0.01683155 -0.01465080 0.03912968
v 0.00084124 -0.02129805 0.04136364
f 10 4 7
f 11 10 6
f 11 4 10
f 12 3 7
f 12 1 8
f 13 5 9
f 14 6 10
f 15 1 9
f 15 9 2
f 16 10 7
f 16 7 3
f 16 14 10
f 16 3 14
f 17 11 5
f 17 4 11
f 18 11 6
f 18 6 14
f 19 9 5
f 19 5 11
f 20 1 12
f 21 12 8
f 21 3 12
f 21 14 3
f 21 8 14
f 22 7 4
f 22 4 17
f 22 17 5
f 22 5 13
f 23 13 9
f 23 9 1
f 24 14 8
f 24 8 2
f 24 18 14
f 24 2 18
f 25 8 1
f 25 1 15
f 26 15 2
f 26 2 8
f 26 25 15
f 26 8 25
f 27 18 2
f 27 11 18
f 27 19 11
f 27 9 19
f 28 20 12
f 28 12 7
f 28 7 20
f 29 22 13
f 29 13 23
f 29 23 7
f 30 20 7
f 30 7 23
f 30 23 1
f 30 1 20
f 31 27 2
f 31 2 9
f 31 9 27
f 32 29 7
f 32 7 22
f 32 22 29

