# https://github.com/mikedh/trimesh
v -0.01170922 0.01136467 0.04168376
v -0.01185802 0.01140744 0.00232604
v -0.01152034 0.02430930 0.02496050
v -0.01279512 0.02415649 0.03045455
v -0.02461330 0.01233831 0.02500000
v -0.01188603 0.02233831 0.03590909
v -0.01151123 0.01741191 0.03979613
v -0.02378959 0.01106956 0.02057092
v -0.01824967 0.02142922 0.01954545
v -0.01155864 0.02349645 0.03027483
v -0.01915876 0.01870195 0.03227273
v -0.01246520 0.01129522 0.04146843
v -0.01279512 0.02506558 0.02227273
v -0.02279512 0.01415649 0.01500000
v -0.01279512 0.02506558 0.02500000
v -0.01552240 0.02142922 0.03409091
v -0.02006785 0.01961104 0.02590909
v -0.02188603 0.01142922 0.03500000
v -0.01279512 0.01324740 0.04227273
v -0.01188603 0.02052013 0.00772727
v -0.02461330 0.01233831 0.02045455
v -0.01915876 0.01142922 0.00681818
v -0.01734058 0.02233831 0.02409091
v -0.01279512 0.02233831 0.03590909
v -0.02188603 0.01597468 0.03045455
v -0.01824967 0.02052013 0.03045455
v -0.02370421 0.01142922 0.03045455
v -0.02384156 0.01110871 0.02494513
v -0.01915876 0.01415649 0.03772727
v -0.01188603 0.01324740 0.04227273
v -0.01824967 0.01142922 0.03954545
v -0.01162901 0.02353716 0.01607060
v -0.01734058 0.02052013 0.01318182
v -0.02279512 0.01597468 0.02500000
v -0.02201723 0.01115786 0.01345233
v -0.01279512 0.01415649 0.00227273
v -0.01461330 0.02415649 0.02500000
v -0.01461330 0.02324740 0.03045455
v -0.01370421 0.01870195 0.03954545
v -0.01915876 0.02052013 0.02681818
v -0.01915876 0.01961104 0.03045455
v -0.02370421 0.01233831 0.03045455
v -0.02279512 0.01142922 0.03318182
v -0.01643149 0.01870195 0.03681818
v -0.02097694 0.01506558 0.03409091
v -0.01159546 0.01569831 0.04057474
v -0.02006785 0.01142922 0.03772727
v -0.01153925 0.02431368 0.02228157
v -0.01188603 0.01688377 0.00409091
v -0.02006785 0.01870195 0.01590909
v -0.01370421 0.02415649 0.01681818
v -0.01915876 0.01597468 0.00954545
v -0.02006785 0.01961104 0.01954545
v -0.02188603 0.01688377 0.02772727
v -0.02279512 0.01506558 0.02863636
v -0.01643149 0.01142922 0.00409091
v -0.02370421 0.01233831 0.01590909
v -0.01461330 0.02415649 0.02136364
v -0.01370421 0.02415649 0.02863636
v -0.01643149 0.02233831 0.02954545
v -0.01279512 0.01779286 0.04045454
v -0.01552240 0.01506558 0.04045454
v -0.02097694 0.01688377 0.03136364
v -0.01824967 0.01870195 0.03409091
f 7 1 2
f 7 2 3
f 10 4 6
f 10 7 3
f 10 6 7
f 12 8 2
f 12 2 1
f 15 10 3
f 15 4 10
f 15 3 13
f 19 12 1
f 24 6 4
f 28 8 12
f 28 27 5
f 28 21 8
f 28 5 21
f 30 19 1
f 31 12 19
f 31 28 12
f 34 21 5
f 35 2 8
f 37 15 13
f 38 24 4
f 38 16 24
f 39 6 24
f 40 23 9
f 40 9 17
f 41 16 26
f 41 26 40
f 42 5 27
f 43 28 18
f 43 27 28
f 43 42 27
f 44 29 39
f 44 39 24
f 44 24 16
f 45 18 29
f 45 43 18
f 45 25 42
f 45 42 43
f 45 29 44
f 46 30 1
f 46 1 7
f 46 7 30
f 47 18 28
f 47 28 31
f 47 31 29
f 47 29 18
f 48 32 13
f 48 13 3
f 48 3 2
f 48 2 32
f 49 32 2
f 49 20 32
f 49 2 36
f 50 9 33
f 51 32 20
f 51 20 33
f 51 13 32
f 51 33 9
f 52 22 14
f 52 50 33
f 52 14 50
f 52 49 36
f 52 33 20
f 52 20 49
f 53 34 17
f 53 17 9
f 53 9 50
f 53 21 34
f 53 50 14
f 53 14 21
f 54 17 34
f 54 41 40
f 54 40 17
f 55 34 5
f 55 54 34
f 55 25 54
f 55 42 25
f 55 5 42
f 56 35 22
f 56 2 35
f 56 36 2
f 56 52 36
f 56 22 52
f 57 35 8
f 57 8 21
f 57 21 14
f 57 14 22
f 57 22 35
f 58 9 23
f 58 23 37
f 58 51 9
f 58 37 13
f 58 13 51
f 59 4 15
f 59 15 37
f 59 38 4
f 60 26 16
f 60 16 38
f 60 40 26
f 60 23 40
f 60 37 23
f 60 59 37
f 60 38 59
f 61 7 6
f 61 6 39
f 61 30 7
f 61 19 30
f 62 31 19
f 62 61 39
f 62 19 61
f 62 39 29
f 62 29 31
f 63 11 41
f 63 25 45
f 63 54 25
f 63 41 54
f 64 44 16
f 64 45 44
f 64 63 45
f 64 11 63
f 64 41 11
f 64 16 41

