# https://github.com/mikedh/trimesh
v 0.00084124 -0.01947987 0.00863636
v 0.01395807 -0.01439030 0.00441589
v 0.01356851 -0.00766169 0.00863636
v -0.00461330 -0.00766169 0.00863636
v -0.00444510 -0.01902576 0.00547305
v 0.00811397 -0.00766169 0.00500000
v 0.01356851 -0.01402532 0.00863636
v 0.00081845 -0.01969522 0.00480610
v -0.00461330 -0.01947987 0.00863636
v 0.01356851 -0.00766169 0.00500000
v -0.00461330 -0.00766169 0.00500000
f 1 3 4
f 6 4 3
f 7 1 2
f 7 2 3
f 7 3 1
f 8 2 1
f 9 1 4
f 9 8 1
f 9 5 8
f 10 6 3
f 10 3 2
f 10 2 6
f 11 4 6
f 11 9 4
f 11 5 9
f 11 8 5
f 11 6 2
f 11 2 8

