# https://github.com/mikedh/trimesh
v 0.01395807 -0.01439030 0.00441589
v 0.01356851 -0.01402532 0.00227273
v 0.01356851 -0.00766169 0.00500000
v -0.01188603 -0.00766169 0.00500000
v -0.01188603 -0.01402532 0.00318182
v 0.01084124 -0.00766169 -0.00045455
v -0.01186747 -0.01400491 0.00502831
v 0.01356851 -0.00947987 0.00045455
v -0.00370421 -0.01402532 0.00045455
v 0.01324038 -0.00749473 0.00124842
v 0.01356851 -0.01220714 0.00136364
v 0.01356851 -0.00766169 0.00318182
v 0.00902306 -0.01402532 0.00045455
v -0.01006785 -0.01402532 0.00227273
v -0.00643149 -0.00766169 -0.00045455
v 0.01175033 -0.01402532 0.00136364
v 0.00084124 -0.01220714 -0.00045455
v 0.01175033 -0.01220714 0.00045455
v -0.00734058 -0.01402532 0.00136364
v -0.00903751 -0.00754195 0.00097322
v -0.00915876 -0.01038896 0.00045455
v 0.00720488 -0.01129805 -0.00045455
v -0.00279512 -0.01129805 -0.00045455
v 0.01084124 -0.00857078 -0.00045455
v -0.01188603 -0.00766169 0.00318182
v -0.01188603 -0.01220714 0.00227273
v -0.01006785 -0.01220714 0.00136364
v -0.00824967 -0.01129805 0.00045455
v 0.00447760 -0.01220714 -0.00045455
v 0.00902306 -0.01038896 -0.00045455
v -0.00643149 -0.00857078 -0.00045455
v -0.01188603 -0.01129805 0.00227273
v -0.00552240 -0.01311623 0.00045455
v -0.00552240 -0.00947987 -0.00045455
f 7 1 3
f 7 3 4
f 7 5 1
f 7 4 5
f 10 4 3
f 10 8 6
f 11 8 1
f 11 1 2
f 12 3 1
f 12 1 8
f 12 10 3
f 12 8 10
f 13 1 9
f 14 1 5
f 15 10 6
f 16 2 1
f 16 1 13
f 16 11 2
f 17 13 9
f 17 15 6
f 18 8 11
f 18 16 13
f 18 11 16
f 19 9 1
f 19 1 14
f 20 4 10
f 20 10 15
f 21 20 15
f 22 17 6
f 23 17 9
f 23 15 17
f 24 6 8
f 24 8 18
f 24 22 6
f 25 5 4
f 25 4 20
f 26 5 25
f 27 19 14
f 27 26 21
f 27 14 5
f 27 5 26
f 28 27 21
f 28 19 27
f 29 22 13
f 29 13 17
f 29 17 22
f 30 18 13
f 30 13 22
f 30 24 18
f 30 22 24
f 31 21 15
f 31 15 23
f 31 28 21
f 32 25 20
f 32 20 21
f 32 26 25
f 32 21 26
f 33 9 19
f 33 19 28
f 33 23 9
f 34 31 23
f 34 28 31
f 34 33 28
f 34 23 33

