# https://github.com/mikedh/trimesh
v 0.00902306 -0.02584351 0.01409091
v 0.01265942 -0.02038896 0.00681818
v 0.01265942 -0.01402532 0.01590909
v -0.01188603 -0.01402532 0.00863636
v -0.00461330 -0.02129805 0.00590909
v 0.01084124 -0.01402532 0.00136364
v -0.00890306 -0.02336885 0.01609008
v 0.01249656 -0.02369326 0.01600020
v 0.00629579 -0.02220714 0.00590909
v 0.01265942 -0.01493441 0.00227273
v 0.01229436 -0.01365442 0.00296881
v -0.00643149 -0.01402532 0.00136364
v -0.00461330 -0.01402532 0.01590909
v -0.00188603 -0.02584351 0.01318182
v -0.01188603 -0.01947987 0.00772727
v 0.01265942 -0.02311623 0.01045455
v -0.00461330 -0.02584351 0.01590909
v 0.00878058 -0.02504429 0.01611525
v 0.00811397 -0.01675260 0.00136364
v -0.00177450 -0.01367876 0.00122491
v -0.00915876 -0.02038896 0.01590909
v 0.00538670 -0.02493441 0.01045455
v -0.00824967 -0.02311623 0.01045455
v -0.00734058 -0.01857078 0.00409091
v -0.01188603 -0.01493441 0.00409091
v 0.01175033 -0.02493441 0.01409091
v 0.01265942 -0.02402532 0.01318182
v 0.01084124 -0.02220714 0.00772727
v 0.01147261 -0.02413825 0.01608243
v 0.01084124 -0.01493441 0.00136364
v -0.00097694 -0.01857078 0.00227273
v 0.01265942 -0.01675260 0.00318182
v 0.00720488 -0.01402532 0.00045455
v -0.01158731 -0.01370135 0.00462737
v -0.01188603 -0.02129805 0.01136364
v 0.00720488 -0.02584351 0.01318182
v -0.00006785 -0.02402532 0.00863636
v -0.01006785 -0.02129805 0.00863636
v -0.00461330 -0.02584351 0.01500000
v -0.01188603 -0.01675260 0.00500000
v 0.00993215 -0.02493441 0.01227273
v 0.01265942 -0.02129805 0.00772727
v 0.00993215 -0.01947987 0.00409091
v 0.00811397 -0.02311623 0.00772727
v 0.00629579 -0.01857078 0.00227273
v -0.00188603 -0.01947987 0.00318182
v -0.00643149 -0.01493441 0.00136364
v 0.01084124 -0.01675260 0.00227273
v 0.00720488 -0.01493441 0.00045455
v -0.00188603 -0.01493441 0.00045455
v -0.01097694 -0.01402532 0.00318182
v -0.01175667 -0.02019264 0.01148827
v -0.00006785 -0.02493441 0.01045455
v 0.00538670 -0.02402532 0.00863636
v -0.00279512 -0.02311623 0.00772727
v -0.00734058 -0.02038896 0.00590909
v -0.01188603 -0.02129805 0.01045455
v -0.00552240 -0.02402532 0.01045455
v -0.00915876 -0.02402532 0.01409091
v -0.00915876 -0.01947987 0.00590909
v 0.00811397 -0.02493441 0.01136364
v 0.01175033 -0.01947987 0.00500000
v 0.00902306 -0.02220714 0.00681818
v 0.00993215 -0.02311623 0.00863636
f 10 3 2
f 11 10 6
f 11 3 10
f 13 7 3
f 16 2 3
f 17 14 1
f 18 3 7
f 18 7 17
f 18 17 1
f 21 13 4
f 21 7 13
f 25 15 4
f 26 18 1
f 27 16 3
f 27 3 8
f 27 26 16
f 27 8 26
f 29 8 3
f 29 3 18
f 29 26 8
f 29 18 26
f 30 6 10
f 32 10 2
f 32 30 10
f 33 20 11
f 33 11 6
f 33 6 30
f 34 20 12
f 34 4 13
f 34 11 20
f 34 13 3
f 34 3 11
f 34 25 4
f 35 7 21
f 35 4 15
f 36 1 14
f 36 14 22
f 39 14 17
f 40 15 25
f 41 26 1
f 41 16 26
f 42 2 16
f 42 16 28
f 42 32 2
f 45 31 19
f 45 9 31
f 45 43 9
f 45 19 43
f 46 5 24
f 46 24 31
f 46 31 9
f 47 31 24
f 47 24 40
f 47 40 25
f 48 19 30
f 48 30 32
f 48 43 19
f 48 32 43
f 49 33 30
f 49 30 19
f 50 12 20
f 50 20 33
f 50 47 12
f 50 33 49
f 50 31 47
f 50 49 19
f 50 19 31
f 51 34 12
f 51 25 34
f 51 47 25
f 51 12 47
f 52 35 21
f 52 21 4
f 52 4 35
f 53 37 22
f 53 22 14
f 54 37 9
f 54 22 37
f 54 9 44
f 55 5 46
f 55 46 9
f 55 9 37
f 55 38 5
f 56 24 5
f 56 5 38
f 57 35 15
f 57 15 38
f 57 38 23
f 58 39 23
f 58 14 39
f 58 23 38
f 58 38 55
f 58 53 14
f 58 55 37
f 58 37 53
f 59 39 17
f 59 17 7
f 59 7 35
f 59 35 57
f 59 57 23
f 59 23 39
f 60 40 24
f 60 15 40
f 60 24 56
f 60 56 38
f 60 38 15
f 61 36 22
f 61 54 44
f 61 22 54
f 61 41 1
f 61 1 36
f 62 42 28
f 62 28 43
f 62 43 32
f 62 32 42
f 63 43 28
f 63 28 44
f 63 44 9
f 63 9 43
f 64 44 28
f 64 28 16
f 64 16 41
f 64 61 44
f 64 41 61

