# https://github.com/mikedh/trimesh
v -0.02188603 -0.01220714 0.03590909
v -0.01824967 -0.00675260 0.03045455
v -0.01824967 -0.00675260 0.03681818
v -0.01915876 0.01142922 0.03863636
v -0.02552240 0.00506558 0.03045455
v -0.01798522 0.01128094 0.03833175
v -0.01824967 -0.00038896 0.03863636
v -0.02040336 -0.01192038 0.03561510
v -0.02552240 -0.00493442 0.03045455
v -0.02370421 0.00142922 0.03681818
v -0.02370421 0.01142922 0.03045455
v -0.02188603 -0.01038896 0.03681818
v -0.02121981 -0.01233705 0.03327519
v -0.02381344 0.00840705 0.03018365
v -0.02188603 0.00506558 0.03863636
v -0.02552240 -0.00311623 0.03227273
v -0.01824967 0.01142922 0.03045455
v -0.02062129 -0.01023391 0.03658462
v -0.02423002 -0.00667146 0.03037046
v -0.02279512 -0.01129805 0.03409091
v -0.02279512 0.01052013 0.03500000
v -0.02143561 -0.00041891 0.03831297
v -0.02370421 -0.00311623 0.03681818
v -0.02552240 0.00233831 0.03227273
v -0.02148915 -0.01200380 0.03303450
v -0.02461330 -0.00584351 0.03409091
v -0.02097694 0.01052013 0.03772727
v -0.02188603 0.01142922 0.03590909
v -0.02461330 0.00870195 0.03136364
v -0.02370421 0.00506558 0.03590909
v -0.02279512 -0.00857078 0.03681818
v -0.02461330 0.00052013 0.03500000
v -0.02552240 -0.00493442 0.03136364
v -0.02461330 -0.00220714 0.03500000
v -0.02279512 0.00688377 0.03681818
v -0.02006785 0.01052013 0.03863636
v -0.02370421 0.01142922 0.03136364
v -0.02552240 0.00506558 0.03136364
v -0.02279512 0.00415649 0.03772727
v -0.02461330 0.00415649 0.03409091
v -0.02461330 -0.00675260 0.03318182
v -0.02188603 0.00779286 0.03772727
v -0.02279512 0.01142922 0.03409091
v -0.02461330 0.00688377 0.03318182
f 6 3 2
f 7 6 4
f 7 3 6
f 8 2 3
f 13 8 1
f 13 2 8
f 14 9 5
f 14 5 11
f 15 7 4
f 16 5 9
f 17 11 4
f 17 4 6
f 17 6 2
f 17 14 11
f 17 2 14
f 18 3 7
f 18 7 12
f 18 8 3
f 18 12 1
f 18 1 8
f 19 14 2
f 19 9 14
f 20 13 1
f 20 9 19
f 22 12 7
f 22 7 15
f 23 15 10
f 24 5 16
f 25 19 2
f 25 2 13
f 25 20 19
f 25 13 20
f 28 4 11
f 28 27 4
f 28 21 27
f 29 11 5
f 31 22 15
f 31 15 23
f 31 12 22
f 31 23 26
f 31 1 12
f 31 20 1
f 32 23 10
f 32 24 16
f 32 10 30
f 33 26 16
f 33 16 9
f 33 9 20
f 34 26 23
f 34 16 26
f 34 32 16
f 34 23 32
f 35 21 30
f 36 27 15
f 36 15 4
f 36 4 27
f 37 28 11
f 37 11 29
f 38 29 5
f 38 5 24
f 39 30 10
f 39 10 15
f 39 35 30
f 40 32 30
f 40 24 32
f 40 38 24
f 41 33 20
f 41 26 33
f 41 31 26
f 41 20 31
f 42 15 27
f 42 27 21
f 42 21 35
f 42 39 15
f 42 35 39
f 43 21 28
f 43 28 37
f 44 30 21
f 44 29 38
f 44 21 43
f 44 43 37
f 44 37 29
f 44 40 30
f 44 38 40

