# https://github.com/mikedh/trimesh
v 0.00175033 -0.02129805 0.04409091
v 0.00175033 -0.02129805 0.04227273
v 0.00084124 -0.00038896 0.03863636
v -0.02006785 -0.00038896 0.04136364
v -0.01370421 -0.01947987 0.03863636
v 0.00084124 -0.00038896 0.04590909
v 0.00172811 -0.01839191 0.04203642
v -0.00915876 -0.02129805 0.03863636
v -0.00370421 -0.01584351 0.04681818
v -0.02245560 -0.00040244 0.03662562
v -0.00603058 -0.00027858 0.04541266
v 0.00175033 -0.01947987 0.04590909
v 0.00084069 -0.02174929 0.03896503
v -0.00188603 -0.02038896 0.04500000
v -0.01824967 -0.01129805 0.04136364
v -0.02038480 -0.01101024 0.03642394
v -0.00097694 -0.00947987 0.04772727
v -0.02188603 -0.00038896 0.03954545
v -0.01824967 -0.00038896 0.03681818
v -0.00097694 -0.02129805 0.04409091
v -0.00097694 -0.01947987 0.04590909
v -0.01824967 -0.00584351 0.04227273
v -0.01279512 -0.01766169 0.04136364
v -0.01370421 -0.01947987 0.03772727
v -0.01915876 -0.01402532 0.03863636
v -0.00734058 -0.00129805 0.04590909
v 0.00084124 -0.00947987 0.04772727
v -0.02279512 -0.00675260 0.03772727
v -0.00915876 -0.02129805 0.03954545
v 0.00084124 -0.01675260 0.04681818
v -0.00279512 -0.01857078 0.04590909
v -0.01734058 -0.00857078 0.04227273
v -0.01643149 -0.01402532 0.04136364
v -0.01181728 -0.01935773 0.03764421
v -0.01915876 -0.01402532 0.03772727
v -0.01824967 -0.00038896 0.04227273
v -0.00734058 -0.00311623 0.04590909
v -0.02279512 -0.00675260 0.03681818
v -0.02006785 -0.00947987 0.04045454
v -0.01279512 -0.01857078 0.04045454
v -0.00279512 -0.01675260 0.04681818
v 0.00084124 -0.01220714 0.04772727
v -0.01370421 -0.01220714 0.04318182
v -0.01461330 -0.01402532 0.04227273
v -0.01915876 -0.01311623 0.03954545
v -0.01973809 -0.01203509 0.03661851
v -0.02188603 -0.00947987 0.03772727
v -0.00097694 -0.01220714 0.04772727
v -0.02006785 -0.00493442 0.04136364
v -0.01097694 -0.02038896 0.03954545
v -0.01824967 -0.01311623 0.04045454
v -0.02097694 -0.01129805 0.03772727
v -0.02097694 -0.01038896 0.03863636
v -0.01915876 -0.00857078 0.04136364
v -0.02188603 -0.00493442 0.03954545
v -0.02188603 -0.00947987 0.03681818
v -0.02097694 -0.00584351 0.04045454
f 7 3 6
f 11 6 3
f 12 1 2
f 12 2 7
f 12 7 6
f 13 7 2
f 13 3 7
f 13 2 1
f 16 3 13
f 18 11 10
f 18 4 11
f 19 11 3
f 19 10 11
f 19 16 10
f 19 3 16
f 20 13 1
f 20 1 12
f 21 20 12
f 21 14 20
f 24 8 5
f 25 24 5
f 26 17 6
f 26 6 11
f 27 12 6
f 27 6 17
f 28 18 10
f 29 8 13
f 29 13 20
f 29 5 8
f 29 20 14
f 30 21 12
f 31 14 21
f 31 23 14
f 32 22 15
f 32 9 22
f 34 24 16
f 34 16 13
f 34 13 8
f 34 8 24
f 35 24 25
f 36 26 11
f 36 11 4
f 36 4 22
f 36 22 26
f 37 26 22
f 37 22 9
f 37 17 26
f 38 28 10
f 38 10 16
f 40 14 23
f 41 21 30
f 41 31 21
f 42 30 12
f 42 12 27
f 42 27 17
f 42 41 30
f 43 32 15
f 43 15 9
f 43 9 32
f 44 9 15
f 44 15 33
f 44 41 9
f 44 31 41
f 44 33 23
f 44 23 31
f 45 25 5
f 45 5 40
f 46 35 16
f 46 16 24
f 46 24 35
f 47 28 38
f 47 39 28
f 48 37 9
f 48 17 37
f 48 42 17
f 48 9 41
f 48 41 42
f 49 22 4
f 50 40 5
f 50 5 29
f 50 29 14
f 50 14 40
f 51 33 15
f 51 15 39
f 51 39 45
f 51 23 33
f 51 45 40
f 51 40 23
f 52 35 25
f 52 25 45
f 52 45 47
f 53 47 45
f 53 45 39
f 53 39 47
f 54 39 15
f 54 15 22
f 54 22 49
f 55 18 28
f 55 28 39
f 56 16 35
f 56 35 52
f 56 38 16
f 56 52 47
f 56 47 38
f 57 55 39
f 57 18 55
f 57 49 4
f 57 4 18
f 57 54 49
f 57 39 54

