# https://github.com/mikedh/trimesh
v -0.01173617 -0.01566313 0.00612420
v -0.01188603 -0.01584351 0.00500000
v -0.01156422 0.01116612 0.00209410
v -0.02006785 0.01142922 0.00772727
v -0.02188603 -0.00584351 0.00772727
v -0.01188603 0.01142922 0.00863636
v -0.01154241 -0.00567081 0.00125187
v -0.01915876 -0.01220714 0.00772727
v -0.01734058 0.00415649 0.00227273
v -0.01279512 0.01142922 0.00136364
v -0.02120725 0.00668006 0.00909801
v -0.01188603 -0.01311623 0.00318182
v -0.01279512 -0.01584351 0.00500000
v -0.01188603 -0.01220714 0.00863636
v -0.02188603 0.00415649 0.00681818
v -0.01734058 0.00870195 0.00318182
v -0.01279512 0.00870195 0.00045455
v -0.01947708 0.01124943 0.00903496
v -0.02041850 -0.00834126 0.00912724
v -0.01552240 -0.00493442 0.00136364
v -0.01242851 -0.01546588 0.00643296
v -0.01915876 -0.00493442 0.00409091
v -0.02188603 0.00688377 0.00772727
v -0.01461330 0.01142922 0.00227273
v -0.01824967 0.00597468 0.00318182
v -0.01160230 0.00848483 0.00127056
v -0.02128710 -0.00565798 0.00909584
v -0.02097694 -0.00857078 0.00772727
v -0.01858826 -0.01183137 0.00916440
v -0.01279512 -0.00947987 0.00136364
v -0.01370421 0.00688377 0.00045455
v -0.02188603 -0.00311623 0.00681818
v -0.01734058 -0.00311623 0.00227273
v -0.02006785 0.01052013 0.00681818
v -0.02097694 0.00961104 0.00772727
v -0.01370421 0.01052013 0.00136364
v -0.02006785 0.00597468 0.00500000
v -0.01824967 -0.00947987 0.00500000
v -0.02097694 -0.00675260 0.00681818
v -0.02031656 0.00934359 0.00912421
v -0.01188603 -0.00947987 0.00136364
v -0.01279512 -0.01311623 0.00318182
v -0.01279512 -0.00584351 0.00045455
v -0.01552240 0.00688377 0.00136364
v -0.01643149 0.01052013 0.00318182
v -0.02097694 0.00779286 0.00681818
v -0.01915876 0.00870195 0.00500000
v -0.02006785 -0.00947987 0.00681818
v -0.01734058 -0.00675260 0.00318182
v -0.01643149 -0.01220714 0.00500000
v -0.02006785 -0.00493442 0.00500000
v -0.01461330 -0.00675260 0.00136364
v -0.01370421 -0.00402532 0.00045455
v -0.01915876 -0.00766169 0.00500000
v -0.01461330 -0.00947987 0.00227273
v -0.01461330 -0.01129805 0.00318182
v -0.01643149 -0.00857078 0.00318182
f 6 1 3
f 7 3 1
f 10 6 3
f 10 4 6
f 12 7 1
f 12 1 2
f 13 2 1
f 13 12 2
f 14 1 6
f 17 10 3
f 18 6 4
f 21 13 1
f 21 8 13
f 21 1 14
f 23 15 5
f 24 4 10
f 25 22 15
f 26 17 3
f 26 3 7
f 26 7 17
f 27 19 11
f 27 5 19
f 27 23 5
f 27 11 23
f 28 19 5
f 28 8 19
f 29 19 8
f 29 14 6
f 29 21 14
f 29 8 21
f 32 5 15
f 32 15 22
f 33 9 20
f 33 20 22
f 33 25 9
f 33 22 25
f 34 4 24
f 35 18 4
f 35 4 34
f 36 24 10
f 36 10 17
f 36 17 31
f 37 25 15
f 39 28 5
f 39 5 32
f 40 29 6
f 40 6 18
f 40 11 19
f 40 19 29
f 40 18 35
f 40 35 23
f 40 23 11
f 41 7 12
f 41 12 30
f 42 30 12
f 42 12 13
f 43 41 30
f 43 31 17
f 43 17 7
f 43 7 41
f 44 9 25
f 44 25 16
f 44 36 31
f 44 31 20
f 44 20 9
f 45 34 24
f 45 16 34
f 45 24 36
f 45 44 16
f 45 36 44
f 46 35 34
f 46 23 35
f 46 37 15
f 46 15 23
f 47 34 16
f 47 16 25
f 47 25 37
f 47 46 34
f 47 37 46
f 48 38 8
f 48 8 28
f 48 28 39
f 49 22 20
f 50 13 8
f 50 8 38
f 50 42 13
f 51 39 32
f 51 32 22
f 52 43 30
f 52 49 20
f 53 20 31
f 53 31 43
f 53 52 20
f 53 43 52
f 54 38 48
f 54 49 38
f 54 22 49
f 54 51 22
f 54 48 39
f 54 39 51
f 55 30 42
f 55 52 30
f 56 55 42
f 56 42 50
f 56 50 38
f 57 38 49
f 57 49 52
f 57 52 55
f 57 56 38
f 57 55 56

