# https://github.com/mikedh/trimesh
v -0.00006785 -0.00584351 0.05954545
v 0.00365229 -0.00511684 0.04643120
v 0.00265942 0.00233831 0.04681818
v -0.00370421 0.00233831 0.04772727
v -0.00534829 -0.00483284 0.04559409
v -0.00006785 -0.00129805 0.06045454
v -0.00461330 -0.00584351 0.04681818
v 0.00084124 0.00233831 0.04409091
v 0.00175033 0.00324740 0.04681818
v -0.00461330 -0.00402532 0.05863636
v 0.00084124 -0.00402532 0.05954545
v -0.00448683 -0.00574199 0.04573024
v 0.00085511 -0.00592440 0.04641970
v 0.00355905 -0.00133648 0.04579535
v -0.00483164 0.00235343 0.04356784
v 0.00084124 -0.00038896 0.05772727
v -0.00370421 -0.00038896 0.05863636
v 0.00247288 0.00216002 0.04540072
v -0.00370421 -0.00402532 0.06045454
v -0.00370421 -0.00584351 0.05863636
v -0.00006785 -0.00402532 0.06045454
v 0.00084124 -0.00493442 0.05863636
v -0.00552240 -0.00493442 0.04681818
v 0.00084124 -0.00038896 0.04409091
v 0.00356851 -0.00129805 0.04681818
v 0.00153346 0.00306595 0.04543039
v 0.00084124 0.00324740 0.04681818
v -0.00541680 -0.00034838 0.04422054
v 0.00175033 0.00142922 0.05136364
v 0.00084124 -0.00129805 0.05954545
v 0.00084124 0.00142922 0.05318182
v -0.00549996 0.00139913 0.04566570
v -0.00461330 -0.00220714 0.05863636
v -0.00279512 -0.00129805 0.06045454
v -0.00279512 -0.00584351 0.05954545
v 0.00078578 0.00309491 0.04566889
v -0.00188603 0.00142922 0.05318182
v -0.00559992 0.00141394 0.04391971
v -0.00006785 -0.00038896 0.05863636
v -0.00458803 0.00224091 0.04547797
v -0.00552240 0.00052013 0.04681818
v -0.00370421 -0.00220714 0.06045454
v -0.00188603 0.00233831 0.04954545
f 13 2 1
f 13 7 12
f 18 9 3
f 18 14 8
f 18 3 14
f 20 19 10
f 20 7 13
f 21 11 6
f 21 1 11
f 21 19 1
f 21 6 19
f 22 11 1
f 22 1 2
f 22 2 11
f 23 12 7
f 23 5 12
f 23 7 20
f 23 20 10
f 24 13 12
f 24 2 13
f 24 14 2
f 24 8 14
f 24 15 8
f 25 2 14
f 25 14 3
f 26 8 15
f 26 18 8
f 26 9 18
f 27 15 4
f 27 9 26
f 28 12 5
f 28 24 12
f 28 15 24
f 29 3 9
f 29 9 16
f 30 16 6
f 30 6 11
f 30 11 2
f 30 2 25
f 30 25 3
f 30 29 16
f 30 3 29
f 31 16 9
f 31 9 27
f 33 10 19
f 33 17 32
f 33 23 10
f 34 19 6
f 34 6 17
f 35 1 19
f 35 19 20
f 35 20 13
f 35 13 1
f 36 27 26
f 36 26 15
f 36 15 27
f 37 4 17
f 37 31 27
f 37 17 31
f 38 28 5
f 38 5 23
f 38 32 15
f 38 15 28
f 39 31 17
f 39 17 6
f 39 6 16
f 39 16 31
f 40 32 17
f 40 17 4
f 40 4 15
f 40 15 32
f 41 33 32
f 41 23 33
f 41 38 23
f 41 32 38
f 42 33 19
f 42 19 34
f 42 34 17
f 42 17 33
f 43 37 27
f 43 27 4
f 43 4 37

