# https://github.com/mikedh/trimesh
v 0.01356851 -0.00038896 0.00863636
v 0.01343581 -0.00039211 0.00086183
v 0.01356851 0.01233831 0.00318182
v 0.00084124 0.01233831 0.00863636
v 0.00084124 -0.00038896 0.00863636
v 0.00084124 0.01233831 -0.00045455
v 0.01356851 0.01233831 0.00863636
v 0.01356851 0.00688377 0.00045455
v 0.00084280 -0.00039401 0.00000734
v 0.00811397 0.01233831 0.00045455
v 0.01265942 -0.00038896 -0.00045455
v 0.00993215 0.00688377 -0.00045455
v 0.01356851 0.00961104 0.00136364
v 0.00447760 0.01142922 -0.00045455
v 0.01265942 0.00233831 -0.00045455
v 0.01265942 0.01233831 0.00227273
v 0.00175033 0.01233831 -0.00045455
v 0.01175033 0.00415649 -0.00045455
v 0.01084124 0.01233831 0.00136364
v 0.01356851 0.01142922 0.00227273
f 5 1 4
f 6 4 3
f 6 5 4
f 7 1 3
f 7 3 4
f 7 4 1
f 8 1 2
f 8 3 1
f 9 5 6
f 9 2 1
f 9 1 5
f 10 6 3
f 11 8 2
f 11 2 9
f 11 9 6
f 12 10 8
f 12 11 6
f 13 3 8
f 13 8 10
f 14 12 6
f 14 10 12
f 15 8 11
f 15 11 12
f 16 10 3
f 17 14 6
f 17 6 10
f 17 10 14
f 18 15 12
f 18 12 8
f 18 8 15
f 19 13 10
f 19 10 16
f 20 16 3
f 20 3 13
f 20 19 16
f 20 13 19

