# https://github.com/mikedh/trimesh
v 0.00720488 -0.02675260 0.02681818
v 0.01265942 -0.02493441 0.01590909
v 0.01265942 -0.01402532 0.03045455
v -0.00461330 -0.01402532 0.03045455
v -0.00461330 -0.02584351 0.01590909
v 0.01265942 -0.01402532 0.01590909
v 0.00811397 -0.02584351 0.03045455
v 0.00447760 -0.02675260 0.01590909
v -0.00461330 -0.01402532 0.01590909
v -0.00370421 -0.02675260 0.02681818
v 0.01175033 -0.02584351 0.02500000
v -0.00188603 -0.02675260 0.02863636
v -0.00370421 -0.02675260 0.01954545
v -0.00443016 -0.02500703 0.03025816
v 0.00993215 -0.02584351 0.02863636
v 0.01265942 -0.02493441 0.02863636
v 0.00811397 -0.02675260 0.01863636
v 0.00629579 -0.02675260 0.02772727
v 0.00084124 -0.02675260 0.01590909
v 0.00811397 -0.02675260 0.02590909
v 0.01175033 -0.02493441 0.03045455
v 0.00993215 -0.02584351 0.01590909
v 0.01175033 -0.02584351 0.01863636
v -0.00097694 -0.02675260 0.02863636
v -0.00097694 -0.02675260 0.01681818
v 0.01233318 -0.02324437 0.03024414
v 0.00629579 -0.02675260 0.01681818
v 0.01084124 -0.02584351 0.01681818
f 6 3 2
f 6 4 3
f 6 2 5
f 7 3 4
f 8 5 2
f 9 6 5
f 9 5 4
f 9 4 6
f 10 8 1
f 12 10 1
f 13 10 5
f 13 8 10
f 14 4 5
f 14 5 10
f 14 10 12
f 14 12 7
f 14 7 4
f 15 7 1
f 16 11 2
f 16 2 3
f 16 15 11
f 17 1 8
f 18 12 1
f 18 1 7
f 19 5 8
f 19 8 13
f 20 15 1
f 20 11 15
f 20 17 11
f 20 1 17
f 21 3 7
f 21 7 15
f 21 15 16
f 22 8 2
f 23 2 11
f 23 11 17
f 24 18 7
f 24 7 12
f 24 12 18
f 25 19 13
f 25 13 5
f 25 5 19
f 26 21 16
f 26 16 3
f 26 3 21
f 27 22 17
f 27 17 8
f 27 8 22
f 28 22 2
f 28 2 23
f 28 23 17
f 28 17 22

