# https://github.com/mikedh/trimesh
v -0.01181557 -0.00039141 0.04277302
v -0.01188603 -0.00038896 0.03863636
v -0.01170922 0.01136467 0.04168376
v -0.01734058 0.01142922 0.04045454
v -0.02188603 -0.00038896 0.03954545
v -0.01188603 0.01142922 0.03863636
v -0.01370421 0.00961104 0.04590909
v -0.01162939 0.00817498 0.04521990
v -0.02143561 -0.00041891 0.03831297
v -0.01370421 0.01142922 0.04227273
v -0.01824967 -0.00038896 0.04227273
v -0.02006785 0.00779286 0.04227273
v -0.01370421 0.00779286 0.04590909
v -0.01170281 0.00898457 0.04530127
v -0.01951261 0.00848315 0.03809132
v -0.01461330 -0.00038896 0.04318182
v -0.02097694 -0.00038896 0.04045454
v -0.01643149 0.00961104 0.04409091
v -0.02006785 0.00597468 0.04227273
v -0.02122682 0.00223725 0.03816513
v -0.01798522 0.01128094 0.03833175
v -0.01824967 0.01142922 0.03954545
v -0.02188603 0.00233831 0.03954545
v -0.01868056 0.01030484 0.03815200
v -0.01915876 0.00870195 0.04227273
v -0.02006785 0.00870195 0.03954545
v -0.02040186 0.00579152 0.03815300
v -0.01915876 0.01052013 0.03954545
v -0.02097694 0.00597468 0.03954545
f 6 3 2
f 8 1 2
f 8 2 3
f 9 2 1
f 10 6 4
f 10 3 6
f 10 7 3
f 10 4 7
f 13 1 8
f 13 7 12
f 14 8 3
f 14 3 7
f 14 13 8
f 14 7 13
f 15 6 2
f 16 11 9
f 16 9 1
f 16 13 11
f 16 1 13
f 17 5 9
f 17 9 11
f 18 12 7
f 18 7 4
f 19 13 12
f 19 11 13
f 19 17 11
f 19 12 5
f 19 5 17
f 20 15 2
f 20 2 9
f 22 18 4
f 22 4 6
f 22 6 21
f 23 20 9
f 23 9 5
f 23 5 12
f 24 21 6
f 24 6 15
f 25 22 12
f 25 12 18
f 25 18 22
f 26 24 15
f 27 15 20
f 27 20 23
f 28 22 21
f 28 21 24
f 28 24 26
f 28 26 12
f 28 12 22
f 29 23 12
f 29 12 26
f 29 27 23
f 29 26 15
f 29 15 27

