# https://github.com/mikedh/trimesh
v 0.01175033 0.01233831 0.00863636
v 0.01175033 0.01233831 0.00227273
v 0.01175033 0.01961104 0.00863636
v -0.00552240 0.02324740 0.00772727
v -0.01188603 0.01233831 0.00863636
v 0.00447760 0.01870195 0.00318182
v -0.01063969 0.02078056 0.00913973
v 0.01084124 0.01779286 0.00500000
v 0.00175033 0.02324740 0.00772727
v -0.00915876 0.01233831 0.00045455
v 0.00782151 0.02073796 0.00913167
v 0.01175033 0.01597468 0.00409091
v 0.00629579 0.02142922 0.00681818
v 0.00166728 0.02255626 0.00905691
v 0.00538670 0.01415649 0.00045455
v -0.01188603 0.01324740 0.00136364
v 0.00538670 0.02233831 0.00772727
v 0.01175033 0.01961104 0.00772727
v 0.00993215 0.01506558 0.00227273
v 0.00720488 0.01961104 0.00500000
v 0.00447760 0.02052013 0.00500000
v -0.00538949 0.02252016 0.00905212
v -0.00552240 0.01688377 0.00136364
v 0.00720488 0.01233831 0.00045455
v -0.01188603 0.01233831 0.00136364
v -0.01188603 0.02052013 0.00772727
v 0.00811397 0.02142922 0.00772727
v 0.00515631 0.02169013 0.00908798
v 0.00538670 0.01597468 0.00136364
v 0.01175033 0.01324740 0.00227273
v 0.00720488 0.01870195 0.00409091
v 0.01084124 0.01870195 0.00590909
v -0.00915876 0.02233831 0.00863636
v -0.00552240 0.01506558 0.00045455
v 0.00993215 0.01324740 0.00136364
v -0.01163633 0.02009488 0.00894750
v -0.01006785 0.01870195 0.00409091
v 0.00175033 0.01688377 0.00136364
v 0.00811397 0.01597468 0.00227273
v 0.00902306 0.01779286 0.00409091
v 0.00902306 0.01961104 0.00590909
v -0.00915876 0.01324740 0.00045455
v 0.00720488 0.01324740 0.00045455
v 0.00993215 0.01233831 0.00136364
v -0.01097694 0.02142922 0.00772727
v -0.00915876 0.01506558 0.00136364
v -0.01188603 0.01870195 0.00500000
v -0.00734058 0.01870195 0.00318182
v 0.00356851 0.01779286 0.00227273
v 0.00175033 0.01506558 0.00045455
v 0.00902306 0.01415649 0.00136364
v -0.00915876 0.02233831 0.00772727
v -0.01097694 0.01688377 0.00318182
v -0.01006785 0.02052013 0.00590909
v -0.00734058 0.02142922 0.00590909
f 1 2 3
f 5 2 1
f 7 5 1
f 9 6 4
f 10 2 5
f 11 7 1
f 11 1 3
f 12 3 2
f 14 9 4
f 14 7 11
f 17 13 9
f 18 3 12
f 19 8 12
f 21 6 9
f 21 9 13
f 21 13 20
f 22 14 4
f 22 7 14
f 23 4 6
f 24 2 10
f 24 10 15
f 25 16 10
f 25 10 5
f 25 5 16
f 26 16 5
f 27 11 3
f 27 3 18
f 27 13 17
f 27 20 13
f 28 14 11
f 28 27 17
f 28 11 27
f 28 17 9
f 28 9 14
f 30 19 12
f 30 12 2
f 31 21 20
f 31 6 21
f 31 29 6
f 32 18 12
f 32 12 8
f 32 27 18
f 33 22 4
f 33 7 22
f 34 15 10
f 35 19 30
f 35 30 2
f 36 26 5
f 36 5 7
f 36 7 33
f 38 23 6
f 38 34 23
f 39 31 19
f 39 29 31
f 40 8 19
f 40 19 31
f 40 32 8
f 40 31 32
f 41 20 27
f 41 27 32
f 41 32 31
f 41 31 20
f 42 34 10
f 42 10 16
f 43 35 24
f 43 24 15
f 43 15 29
f 44 35 2
f 44 2 24
f 44 24 35
f 45 36 33
f 45 26 36
f 46 37 23
f 46 42 16
f 46 23 34
f 46 34 42
f 47 16 26
f 47 26 45
f 48 4 23
f 48 23 37
f 49 38 6
f 49 6 29
f 49 29 38
f 50 15 34
f 50 34 38
f 50 38 29
f 50 29 15
f 51 43 29
f 51 19 35
f 51 35 43
f 51 39 19
f 51 29 39
f 52 45 33
f 52 33 4
f 53 46 16
f 53 37 46
f 53 47 37
f 53 16 47
f 54 47 45
f 54 45 52
f 54 37 47
f 55 54 52
f 55 52 4
f 55 4 48
f 55 48 37
f 55 37 54

