# https://github.com/mikedh/trimesh
v 0.01356851 -0.00766169 0.00863636
v 0.01324038 -0.00749473 0.00124842
v 0.01356851 -0.00038896 0.00863636
v -0.00461330 -0.00038896 0.00863636
v -0.00461330 -0.00766169 0.00863636
v 0.01265942 -0.00038896 -0.00045455
v 0.01343581 -0.00039211 0.00086183
v 0.01175033 -0.00766169 -0.00045455
v 0.01265942 -0.00493442 -0.00045455
v -0.00460165 -0.00039531 0.00006686
v -0.00454236 -0.00758551 0.00025804
f 1 3 4
f 5 1 4
f 6 4 3
f 7 1 2
f 7 3 1
f 7 6 3
f 8 2 1
f 8 1 5
f 9 7 2
f 9 6 7
f 9 8 6
f 9 2 8
f 10 5 4
f 10 4 6
f 10 6 8
f 11 10 8
f 11 8 5
f 11 5 10

