# https://github.com/mikedh/trimesh
v 0.00084124 -0.01402532 0.01590909
v 0.00084124 -0.01402532 0.00863636
v 0.00084124 0.01233831 -0.00045455
v -0.01188603 0.01233831 0.01590909
v -0.01188603 -0.01402532 0.01590909
v 0.00084124 0.01233831 0.01590909
v -0.01188603 -0.01038896 0.00136364
v 0.00084280 -0.00039401 0.00000734
v -0.01186747 -0.01400491 0.00502831
v -0.01188603 0.01233831 0.00136364
v -0.01097694 -0.00220714 -0.00045455
v -0.00454236 -0.00758551 0.00025804
v -0.00461330 -0.01402532 0.00500000
v -0.00734058 -0.00766169 -0.00045455
v -0.00915876 0.00961104 -0.00045455
v -0.01188603 -0.00766169 0.00045455
v -0.01097694 -0.01129805 0.00136364
v -0.01188603 0.00961104 0.00045455
v -0.00461330 0.01233831 -0.00045455
v -0.00915876 -0.00584351 -0.00045455
v -0.01006785 -0.00947987 0.00045455
v -0.01097694 0.00506558 -0.00045455
v -0.01006785 0.01233831 0.00045455
v -0.01006785 0.00779286 -0.00045455
v -0.01097694 0.01142922 0.00045455
v -0.00824967 0.01052013 -0.00045455
f 5 2 1
f 5 1 4
f 6 3 4
f 6 4 1
f 7 5 4
f 8 1 2
f 8 6 1
f 8 3 6
f 9 5 7
f 10 7 4
f 10 4 3
f 12 8 2
f 13 2 5
f 13 5 9
f 13 12 2
f 14 11 3
f 14 3 8
f 14 8 12
f 14 12 13
f 15 3 11
f 16 7 10
f 17 13 9
f 17 9 7
f 17 14 13
f 17 7 16
f 18 16 10
f 18 11 16
f 19 10 3
f 19 3 15
f 20 16 11
f 20 11 14
f 20 14 16
f 21 17 16
f 21 16 14
f 21 14 17
f 22 15 11
f 22 11 18
f 23 10 19
f 24 22 18
f 24 15 22
f 25 18 10
f 25 10 23
f 25 24 18
f 25 15 24
f 26 23 19
f 26 19 15
f 26 25 23
f 26 15 25

