# https://github.com/mikedh/trimesh
v 0.01674539 0.01199552 0.04070371
v 0.01880357 0.01222892 0.03849697
v 0.01084124 0.02052013 0.03954545
v 0.00082598 0.01843204 0.04152700
v 0.00084124 0.01233831 0.03863636
v 0.01533767 0.01327832 0.04272395
v 0.01845231 0.01206242 0.03909175
v 0.00972563 0.02006105 0.03823220
v 0.00538670 0.01870195 0.04227273
v 0.00362613 0.01211333 0.04332805
v 0.01902306 0.01415649 0.03954545
v 0.01535571 0.01237722 0.04279190
v 0.01496897 0.01720753 0.03813121
v 0.00084124 0.01870195 0.03863636
v 0.00993215 0.01870195 0.04136364
v 0.00993215 0.02052013 0.03954545
v 0.00084124 0.01233831 0.04318182
v 0.00356851 0.01506558 0.04318182
v 0.01538669 0.01688377 0.04045454
v 0.01720488 0.01324740 0.04136364
v 0.01902306 0.01415649 0.03863636
v 0.01265942 0.01961104 0.03863636
v 0.01366192 0.01492160 0.04257621
v 0.01084124 0.01961104 0.04045454
v 0.01084124 0.02052013 0.03863636
v 0.00084124 0.01506558 0.04318182
v 0.01811397 0.01415649 0.04045454
v 0.01538669 0.01779286 0.03954545
v 0.01265942 0.01961104 0.03954545
v 0.01265942 0.01870195 0.04045454
v 0.01175033 0.01779286 0.04136364
f 7 5 2
f 7 1 5
f 10 5 1
f 11 7 2
f 12 1 7
f 12 10 1
f 13 2 5
f 13 5 8
f 14 8 5
f 14 5 4
f 16 9 3
f 16 4 9
f 16 14 4
f 17 4 5
f 17 5 10
f 18 12 6
f 18 10 12
f 20 6 12
f 20 12 7
f 20 7 11
f 21 11 2
f 21 2 13
f 22 21 13
f 23 15 9
f 23 6 19
f 23 18 6
f 23 9 18
f 24 3 9
f 24 9 15
f 25 16 3
f 25 8 14
f 25 14 16
f 25 3 22
f 25 22 13
f 25 13 8
f 26 17 10
f 26 10 18
f 26 4 17
f 26 18 9
f 26 9 4
f 27 19 6
f 27 11 19
f 27 20 11
f 27 6 20
f 28 11 21
f 28 21 22
f 28 19 11
f 29 3 24
f 29 19 28
f 29 28 22
f 29 22 3
f 30 23 19
f 30 29 24
f 30 19 29
f 30 24 15
f 31 30 15
f 31 15 23
f 31 23 30

