# https://github.com/mikedh/trimesh
v 0.00265942 -0.01857078 0.04590909
v 0.01799576 -0.00038166 0.04204710
v 0.01902306 0.01052013 0.04500000
v 0.01720488 0.01961104 0.04500000
v 0.00084374 0.01233737 0.04226040
v 0.02084124 0.01961104 0.04318182
v 0.00629579 -0.00129805 0.04681818
v 0.01356851 -0.01311623 0.04318182
v 0.02084124 0.01779286 0.04500000
v 0.01720488 0.01961104 0.04318182
v 0.01902306 0.01870195 0.04227273
v 0.00265942 -0.01675260 0.04681818
v 0.00084124 0.01233831 0.04500000
v 0.01811397 -0.00038896 0.04318182
v 0.00084124 -0.01402532 0.04227273
v 0.02084124 0.01779286 0.04318182
v 0.02084124 0.01961104 0.04500000
v 0.00356706 0.01415419 0.04224854
v 0.00629579 -0.00493442 0.04681818
v 0.01175033 -0.01220714 0.04409091
v 0.00356851 -0.00129805 0.04681818
v 0.01072167 -0.01567945 0.04190693
v 0.00084124 -0.01675260 0.04681818
v 0.01902306 0.01324740 0.04227273
v 0.01811397 0.01870195 0.04227273
v 0.00356851 0.01415649 0.04318182
v 0.01175033 -0.00038896 0.04590909
v 0.01342550 -0.01298652 0.04195186
v 0.01084124 -0.01584351 0.04318182
v 0.00114707 -0.01841681 0.04367388
v 0.00084006 -0.00490282 0.04673643
v 0.00265942 -0.01857078 0.04409091
v 0.00087749 -0.01827109 0.04522478
f 10 4 6
f 11 10 6
f 12 1 8
f 14 8 2
f 14 3 8
f 14 9 3
f 15 13 5
f 16 6 9
f 16 11 6
f 16 14 2
f 16 9 14
f 17 9 6
f 17 6 4
f 17 4 7
f 17 7 9
f 19 9 7
f 19 7 12
f 19 3 9
f 20 12 8
f 20 8 3
f 20 3 12
f 21 7 4
f 21 4 13
f 21 12 7
f 22 15 5
f 22 18 2
f 22 5 18
f 23 1 12
f 23 12 21
f 24 16 2
f 24 2 11
f 24 11 16
f 25 18 10
f 25 10 11
f 25 11 2
f 25 2 18
f 26 13 4
f 26 4 10
f 26 10 18
f 26 18 5
f 26 5 13
f 27 19 12
f 27 12 3
f 27 3 19
f 28 22 2
f 28 2 8
f 29 8 1
f 29 28 8
f 29 22 28
f 30 15 22
f 31 23 21
f 31 21 13
f 31 13 15
f 31 15 23
f 32 29 1
f 32 22 29
f 32 30 22
f 32 1 30
f 33 23 15
f 33 15 30
f 33 30 1
f 33 1 23

