# https://github.com/mikedh/trimesh
v -0.01188603 -0.01220714 0.03772727
v -0.01188603 -0.01220714 0.00863636
v -0.01188603 0.01142922 0.00863636
v -0.01798522 0.01128094 0.03833175
v -0.02552240 -0.00857078 0.02681818
v -0.01188603 0.01142922 0.03863636
v -0.02370421 -0.01220714 0.03045455
v -0.02370421 0.00324740 0.00954545
v -0.01869942 0.01163486 0.00826342
v -0.01824967 -0.00038896 0.03863636
v -0.02006785 -0.01220714 0.00863636
v -0.01859672 -0.01240437 0.03796174
v -0.02552240 0.00597468 0.03045455
v -0.02370421 0.01142922 0.03045455
v -0.01188603 -0.00038896 0.03863636
v -0.02370421 -0.01220714 0.01681818
v -0.02279512 -0.00493442 0.00863636
v -0.02370421 -0.00947987 0.03409091
v -0.02643149 0.00142922 0.01681818
v -0.02461330 0.00961104 0.03045455
v -0.02461330 -0.01129805 0.02590909
v -0.02279512 0.00597468 0.00863636
v -0.02097694 -0.01038896 0.00863636
v -0.02643149 -0.00220714 0.02863636
v -0.02461330 -0.01038896 0.02954545
v -0.02097694 -0.01220714 0.03681818
v -0.02141412 -0.00688583 0.03713453
v -0.02643149 -0.00402532 0.01863636
v -0.02461330 -0.00311623 0.01136364
v -0.02552240 0.00961104 0.02045455
v -0.02552240 0.00597468 0.01500000
v -0.02279512 -0.01129805 0.01227273
v -0.02370421 -0.01038896 0.03318182
v -0.02552240 -0.00766169 0.02863636
v -0.02279512 -0.01220714 0.03318182
v -0.02643149 -0.00493442 0.02590909
v -0.02552240 -0.00857078 0.01954545
v -0.02461330 0.00324740 0.01136364
v -0.02370421 -0.00220714 0.00954545
v -0.02552240 -0.00402532 0.01409091
v -0.02552240 0.00961104 0.02590909
v -0.02461330 0.01142922 0.01772727
v -0.02643149 0.00597468 0.02045455
v -0.02279512 -0.01038896 0.01136364
v -0.02279512 -0.01220714 0.01409091
v -0.02552240 -0.00584351 0.03045455
v -0.02643149 -0.00493442 0.02045455
v -0.02461330 -0.01129805 0.02045455
v -0.02552240 0.00415649 0.01409091
v -0.02461330 0.00597468 0.01227273
v -0.02643149 -0.00311623 0.01772727
v -0.02552240 -0.00675260 0.01590909
v -0.02552240 0.00870195 0.02772727
v -0.02461330 0.01142922 0.02772727
v -0.02097694 0.01142922 0.00863636
v -0.02552240 0.00779286 0.01681818
v -0.02643149 0.00324740 0.01772727
v -0.02370421 -0.00584351 0.01045455
v -0.02461330 -0.01038896 0.01772727
v -0.02370421 0.01052013 0.01318182
v -0.02643149 -0.00038896 0.01681818
v -0.02370421 -0.01129805 0.01500000
v -0.02643149 0.00597468 0.02500000
v -0.02461330 0.01052013 0.02954545
f 1 2 3
f 6 1 3
f 9 6 3
f 9 3 2
f 10 6 4
f 11 9 2
f 12 2 1
f 12 11 2
f 14 4 6
f 14 6 9
f 15 1 6
f 15 6 10
f 15 12 1
f 15 10 12
f 16 12 7
f 20 13 4
f 20 4 14
f 21 16 7
f 22 17 8
f 22 9 17
f 23 17 9
f 23 9 11
f 24 18 13
f 25 21 7
f 25 5 21
f 27 4 13
f 27 13 18
f 27 18 26
f 27 10 4
f 27 26 12
f 27 12 10
f 28 24 19
f 33 25 7
f 33 26 18
f 34 5 25
f 34 33 18
f 34 25 33
f 35 7 12
f 35 12 26
f 35 33 7
f 35 26 33
f 36 24 28
f 36 34 24
f 36 5 34
f 37 21 5
f 37 5 36
f 38 8 29
f 38 22 8
f 39 29 8
f 39 8 17
f 39 17 29
f 40 38 29
f 42 30 41
f 43 41 30
f 43 19 24
f 44 23 11
f 44 11 32
f 44 17 23
f 45 32 11
f 45 11 12
f 45 12 16
f 46 34 18
f 46 18 24
f 46 24 34
f 47 37 36
f 47 36 28
f 47 28 37
f 48 16 21
f 48 21 37
f 49 40 19
f 49 38 40
f 50 22 38
f 50 49 31
f 50 38 49
f 51 28 19
f 52 37 28
f 52 51 40
f 52 28 51
f 54 42 41
f 54 14 9
f 54 9 42
f 54 41 53
f 55 42 9
f 55 9 22
f 56 30 42
f 56 43 30
f 57 19 43
f 57 49 19
f 57 31 49
f 57 56 31
f 57 43 56
f 58 29 17
f 58 17 44
f 58 40 29
f 58 52 40
f 58 44 52
f 59 48 37
f 59 16 48
f 59 37 52
f 60 50 31
f 60 42 55
f 60 55 22
f 60 22 50
f 60 56 42
f 60 31 56
f 61 51 19
f 61 19 40
f 61 40 51
f 62 59 52
f 62 16 59
f 62 45 16
f 62 32 45
f 62 52 44
f 62 44 32
f 63 53 41
f 63 41 43
f 63 43 24
f 63 24 13
f 63 13 53
f 64 20 14
f 64 14 54
f 64 54 53
f 64 53 13
f 64 13 20

