# https://github.com/mikedh/trimesh
v 0.01356851 -0.02493441 0.02681818
v 0.02356851 -0.01493441 0.01772727
v 0.02084124 -0.01584351 0.03500000
v 0.01265942 -0.01402532 0.03954545
v 0.01260554 -0.01396771 0.00329081
v 0.02191921 -0.01360224 0.03110167
v 0.01356851 -0.02038896 0.03863636
v 0.01993215 -0.02038896 0.02772727
v 0.01356851 -0.02311623 0.01136364
v 0.01233858 -0.02413739 0.01785085
v 0.02356851 -0.01493441 0.02772727
v 0.01902306 -0.01402532 0.03863636
v 0.01758143 -0.01367975 0.03907100
v 0.02190239 -0.01361841 0.01437417
v 0.01629579 -0.02220714 0.03227273
v 0.01720488 -0.02311623 0.01954545
v 0.01248838 -0.01734331 0.04008718
v 0.01356851 -0.02493441 0.01772727
v 0.01265942 -0.02129805 0.00863636
v 0.02279396 -0.01362985 0.02757532
v 0.02175033 -0.01857078 0.02500000
v 0.02175033 -0.01675260 0.03136364
v 0.02175033 -0.01402532 0.03409091
v 0.01720488 -0.01675260 0.03954545
v 0.01902306 -0.01675260 0.00863636
v 0.01356851 -0.02220714 0.03590909
v 0.01811397 -0.02220714 0.02681818
v 0.01230189 -0.02326615 0.01434738
v 0.01811397 -0.01493441 0.03954545
v 0.01265942 -0.02493441 0.02681818
v 0.01629579 -0.02311623 0.01590909
v 0.02280443 -0.01365599 0.01787027
v 0.02084124 -0.01947987 0.01863636
v 0.02175033 -0.01766169 0.02863636
v 0.01993215 -0.01947987 0.03045455
v 0.02084124 -0.01402532 0.03590909
v 0.02175033 -0.01493441 0.03409091
v 0.01902306 -0.01766169 0.03590909
v 0.01356851 -0.01857078 0.04045454
v 0.02175033 -0.01493441 0.01136364
v 0.01447760 -0.01947987 0.00681818
v 0.01356851 -0.02402532 0.03045455
v 0.01265942 -0.02038896 0.03863636
v 0.01629579 -0.01857078 0.03863636
v 0.01629579 -0.02311623 0.02863636
v 0.01811397 -0.02129805 0.03045455
v 0.01720488 -0.02311623 0.02500000
v 0.01233318 -0.02324437 0.03024414
v 0.01265942 -0.01584351 0.00318182
v 0.01265942 -0.02311623 0.01136364
v 0.01902306 -0.01493441 0.03863636
v 0.01447760 -0.02402532 0.01500000
v 0.01538669 -0.02402532 0.01772727
v 0.01720488 -0.02129805 0.01227273
v 0.02175033 -0.01402532 0.01136364
v 0.02175033 -0.01857078 0.02045455
v 0.01902306 -0.02129805 0.01681818
v 0.02265942 -0.01675260 0.02681818
v 0.02084124 -0.01947987 0.02681818
v 0.02265942 -0.01493441 0.03136364
v 0.02084124 -0.01766169 0.03227273
v 0.01265942 -0.01857078 0.04045454
v 0.02175033 -0.01766169 0.01590909
v 0.01356851 -0.02129805 0.00863636
f 13 5 4
f 14 13 6
f 14 5 13
f 17 4 5
f 18 16 1
f 20 11 2
f 20 14 6
f 21 2 11
f 23 20 6
f 23 11 20
f 27 21 8
f 27 16 21
f 28 17 5
f 29 13 4
f 29 12 13
f 30 18 1
f 30 10 18
f 32 20 2
f 32 14 20
f 34 11 22
f 34 22 8
f 35 8 22
f 36 13 12
f 36 23 6
f 36 6 13
f 37 3 22
f 37 23 36
f 38 3 24
f 39 24 29
f 39 29 4
f 42 1 15
f 42 15 26
f 42 30 1
f 42 26 30
f 43 26 7
f 43 30 26
f 43 7 39
f 44 7 26
f 44 39 7
f 44 24 39
f 44 38 24
f 44 26 15
f 44 15 38
f 45 27 15
f 45 15 1
f 46 27 8
f 46 15 27
f 46 8 35
f 46 38 15
f 47 1 16
f 47 16 27
f 47 45 1
f 47 27 45
f 48 28 10
f 48 17 28
f 48 43 17
f 48 10 30
f 48 30 43
f 49 28 5
f 49 19 28
f 49 5 25
f 49 25 41
f 50 28 19
f 50 19 9
f 50 9 18
f 50 18 10
f 50 10 28
f 51 29 24
f 51 24 3
f 51 3 37
f 51 12 29
f 51 37 36
f 51 36 12
f 52 18 9
f 53 31 16
f 53 16 18
f 53 52 31
f 53 18 52
f 54 25 40
f 54 41 25
f 54 52 9
f 54 31 52
f 55 32 2
f 55 14 32
f 55 2 40
f 55 5 14
f 55 40 25
f 55 25 5
f 56 2 21
f 56 21 16
f 57 16 31
f 57 31 54
f 57 56 16
f 57 33 56
f 58 34 21
f 58 21 11
f 58 11 34
f 59 34 8
f 59 8 21
f 59 21 34
f 60 37 22
f 60 22 11
f 60 11 23
f 60 23 37
f 61 35 22
f 61 22 3
f 61 3 38
f 61 46 35
f 61 38 46
f 62 39 4
f 62 4 17
f 62 43 39
f 62 17 43
f 63 40 2
f 63 33 57
f 63 57 54
f 63 54 40
f 63 56 33
f 63 2 56
f 64 9 19
f 64 49 41
f 64 19 49
f 64 54 9
f 64 41 54

