# https://github.com/mikedh/trimesh
v -0.10387894 0.08870828 0.02760103
v -0.10387894 0.08870828 0.02760103
v -0.10387894 0.08870828 0.02760103
v -0.10387894 0.08870828 0.02760103
v -0.10387894 0.08870828 0.02760103
v -0.10387894 0.08870828 0.02760103
v -0.10387894 0.08870828 0.02760103
v -0.10387894 0.08870828 0.02760103
v -0.10387894 0.08870828 0.02760103
v -0.10387894 0.08870828 0.02760103
v -0.10387894 0.08870828 0.02760103
v -0.10387894 0.08870828 0.02760103
v -0.10387894 0.08870828 0.02760103
v -0.10387894 0.08870828 0.02760103
v -0.10387894 0.08870828 0.02760103
v -0.10387894 0.08870828 0.02760103
v -0.07349315 0.09248034 0.02546041
v -0.07349315 0.09248034 0.02546041
v -0.07349315 0.09248034 0.02546041
v -0.07349315 0.09248034 0.02546041
v -0.07349315 0.09248034 0.02546041
v -0.07349315 0.09248034 0.02546041
v -0.07349315 0.09248034 0.02546041
v -0.07856592 0.09244342 0.02544595
v -0.07856592 0.09244342 0.02544595
v -0.07856592 0.09244342 0.02544595
v -0.10387894 0.09230879 0.02533313
v -0.10387894 0.09230879 0.02533313
v -0.10387894 0.09230879 0.02533313
v -0.10387894 0.09230879 0.02533313
v -0.10387894 0.09230879 0.02533313
v -0.10387894 0.09230879 0.02533313
v -0.10387894 0.08509693 0.02531288
v -0.10387894 0.08509693 0.02531288
v -0.10387894 0.08509693 0.02531288
v -0.10387894 0.08509693 0.02531288
v -0.07349315 0.08870828 0.02737540
v -0.07349315 0.08870828 0.02737540
v -0.07349315 0.08870828 0.02737540
v -0.07349315 0.08870828 0.02737540
v -0.00003457 0.09284951 0.02544305
v -0.00003457 0.09284951 0.02544305
v -0.00003457 0.09284951 0.02544305
v -0.00003457 0.09284951 0.02544305
v -0.00003457 0.09284951 0.02544305
v -0.00003457 0.09284951 0.02544305
v -0.00253537 0.09286254 0.02544595
v -0.00253537 0.09286254 0.02544595
v -0.00253537 0.09286254 0.02544595
v -0.00253537 0.09286254 0.02544595
v -0.00760814 0.09288859 0.02544016
v -0.00760814 0.09288859 0.02544016
v -0.00760814 0.09288859 0.02544016
v -0.00760814 0.09288859 0.02544016
v -0.00760814 0.09288859 0.02544016
v -0.00760814 0.09288859 0.02544016
v -0.02281628 0.09277784 0.02548644
v -0.02281628 0.09277784 0.02548644
v -0.02281628 0.09277784 0.02548644
v -0.02281628 0.09277784 0.02548644
v -0.02788905 0.09274093 0.02548934
v -0.02788905 0.09274093 0.02548934
v -0.02788905 0.09274093 0.02548934
v -0.02788905 0.09274093 0.02548934
v -0.04815980 0.09257589 0.02550958
v -0.04815980 0.09257589 0.02550958
v -0.04815980 0.09257589 0.02550958
v -0.10387894 0.09231095 0.02529552
v -0.10387894 0.09231095 0.02529552
v -0.10387894 0.09231095 0.02529552
v -0.10387894 0.09231095 0.02529552
v -0.10387894 0.09231095 0.02529552
v -0.10387894 0.09231095 0.02529552
v -0.10387894 0.09231095 0.02529552
v -0.10387894 0.09231095 0.02529552
v -0.00760814 0.09342933 0.02049359
v -0.00760814 0.09342933 0.02049359
v -0.00760814 0.09342933 0.02049359
v -0.00760814 0.09342933 0.02049359
v -0.00760814 0.09342933 0.02049359
v -0.00760814 0.09342933 0.02049359
v -0.00760814 0.09342933 0.02049359
v -0.00760814 0.09342933 0.02049359
v -0.00760814 0.09342933 0.02049359
v -0.00760814 0.09342933 0.02049359
v -0.00760814 0.09342933 0.02049359
v -0.00760814 0.09342933 0.02049359
v -0.10387894 0.08507087 0.02529552
v -0.10387894 0.08507087 0.02529552
v -0.10387894 0.08507087 0.02529552
v -0.10387894 0.08507087 0.02529552
v -0.10387894 0.08507087 0.02529552
v -0.10387894 0.08507087 0.02529552
v -0.10387894 0.08507087 0.02529552
v -0.00003457 0.08870828 0.02661750
v -0.00003457 0.08870828 0.02661750
v -0.00003457 0.08870828 0.02661750
v -0.00003457 0.08870828 0.02661750
v -0.00003457 0.08870828 0.02661750
v -0.00003457 0.09338589 0.02049359
v -0.00003457 0.09338589 0.02049359
v -0.00003457 0.09338589 0.02049359
v -0.07349315 0.09272790 0.02049359
v -0.07349315 0.09272790 0.02049359
v -0.07349315 0.09272790 0.02049359
v -0.07349315 0.09272790 0.02049359
v -0.07349315 0.09272790 0.02049359
v -0.07349315 0.09272790 0.02049359
v -0.09884684 0.09242605 0.02049359
v -0.09884684 0.09242605 0.02049359
v -0.09884684 0.09242605 0.02049359
v -0.09884684 0.09242605 0.02049359
v -0.10387894 0.09236307 0.02049359
v -0.10387894 0.09236307 0.02049359
v -0.10387894 0.09236307 0.02049359
v -0.10387894 0.09236307 0.02049359
v -0.01268091 0.09338372 0.02049359
v -0.01268091 0.09338372 0.02049359
v -0.01268091 0.09338372 0.02049359
v -0.01268091 0.09338372 0.02049359
v -0.02281628 0.09329034 0.02049359
v -0.02281628 0.09329034 0.02049359
v -0.02281628 0.09329034 0.02049359
v -0.02281628 0.09329034 0.02049359
v -0.02281628 0.09329034 0.02049359
v -0.00003457 0.09011765 0.01035747
v -0.00003457 0.09011765 0.01035747
v -0.00003457 0.09011765 0.01035747
v -0.00003457 0.09011765 0.01035747
v -0.00003457 0.09011765 0.01035747
v -0.00760814 0.09011547 0.01035747
v -0.00760814 0.09011547 0.01035747
v -0.00760814 0.09011547 0.01035747
v -0.00760814 0.09011547 0.01035747
v -0.01268091 0.09011331 0.01035747
v -0.01268091 0.09011331 0.01035747
v -0.01268091 0.09011331 0.01035747
v -0.01268091 0.09011331 0.01035747
v -0.01268091 0.09011331 0.01035747
v -0.01774351 0.09010461 0.01035747
v -0.01774351 0.09010461 0.01035747
v -0.01774351 0.09010461 0.01035747
v -0.01774351 0.09010461 0.01035747
v -0.01774351 0.09010461 0.01035747
v -0.02281628 0.09007639 0.01035747
v -0.02281628 0.09007639 0.01035747
v -0.02281628 0.09007639 0.01035747
v -0.02281628 0.09007639 0.01035747
v -0.02281628 0.09007639 0.01035747
v -0.02281628 0.09007639 0.01035747
v -0.10387894 0.07125519 0.00720439
v -0.10387894 0.07125519 0.00720439
v -0.10387894 0.07125519 0.00720439
v -0.10387894 0.07125519 0.00720439
v -0.10387894 0.07125519 0.00720439
v -0.05828501 0.07124651 0.00717546
v -0.05828501 0.07124651 0.00717546
v -0.05828501 0.07124651 0.00717546
v -0.05828501 0.07124651 0.00717546
v -0.05828501 0.07124651 0.00717546
v -0.00003457 0.07124651 0.00714943
v -0.00003457 0.07124651 0.00714943
v -0.00003457 0.07124651 0.00714943
v -0.00003457 0.07124651 0.00714943
v -0.00003457 0.08568976 0.02420496
v -0.00003457 0.08568976 0.02420496
v -0.00003457 0.08568976 0.02420496
v -0.05322241 0.08979408 0.01035747
v -0.05322241 0.08979408 0.01035747
v -0.05322241 0.08979408 0.01035747
v -0.05322241 0.08979408 0.01035747
v -0.05322241 0.08979408 0.01035747
v -0.06335778 0.08968116 0.01035747
v -0.06335778 0.08968116 0.01035747
v -0.06335778 0.08968116 0.01035747
v -0.06335778 0.08968116 0.01035747
v -0.09884684 0.08928159 0.01035747
v -0.09884684 0.08928159 0.01035747
v -0.09884684 0.08928159 0.01035747
v -0.09884684 0.08928159 0.01035747
v -0.09884684 0.08928159 0.01035747
v -0.09884684 0.08928159 0.01035747
v -0.10387894 0.08912522 0.01035747
v -0.10387894 0.08912522 0.01035747
v -0.10387894 0.08912522 0.01035747
v -0.10387894 0.08912522 0.01035747
v -0.02788905 0.09003078 0.01035747
v -0.02788905 0.09003078 0.01035747
v -0.02788905 0.09003078 0.01035747
v -0.02788905 0.09003078 0.01035747
v -0.04815980 0.08984403 0.01035747
v -0.04815980 0.08984403 0.01035747
v -0.04815980 0.08984403 0.01035747
v -0.04815980 0.08984403 0.01035747
v -0.00003457 0.08922947 0.00784658
v -0.00003457 0.08922947 0.00784658
v -0.00003457 0.08922947 0.00784658
v -0.01268091 0.08832607 0.00528940
v -0.01268091 0.08832607 0.00528940
v -0.01268091 0.08832607 0.00528940
v -0.01268091 0.08832607 0.00528940
v -0.01268091 0.08832607 0.00528940
v -0.01268091 0.08832607 0.00528940
v -0.01268091 0.08832607 0.00528940
v -0.01268091 0.08832607 0.00528940
v -0.01268091 0.08832607 0.00528940
v -0.01774351 0.08832173 0.00528940
v -0.01774351 0.08832173 0.00528940
v -0.01774351 0.08832173 0.00528940
v -0.01774351 0.08832173 0.00528940
v -0.01774351 0.08832173 0.00528940
v -0.02281628 0.08830653 0.00528940
v -0.02281628 0.08830653 0.00528940
v -0.02281628 0.08830653 0.00528940
v -0.02281628 0.08830653 0.00528940
v -0.02281628 0.08830653 0.00528940
v -0.02281628 0.08830653 0.00528940
v -0.02281628 0.08830653 0.00528940
v -0.02788905 0.08827179 0.00528940
v -0.02788905 0.08827179 0.00528940
v -0.02788905 0.08827179 0.00528940
v -0.02788905 0.08827179 0.00528940
v -0.09884684 0.08765506 0.00528940
v -0.09884684 0.08765506 0.00528940
v -0.09884684 0.08765506 0.00528940
v -0.09884684 0.08765506 0.00528940
v -0.09884684 0.08765506 0.00528940
v -0.09884684 0.08765506 0.00528940
v -0.09884684 0.08765506 0.00528940
v -0.09884684 0.08765506 0.00528940
v -0.09884684 0.08765506 0.00528940
v -0.09884684 0.08765506 0.00528940
v -0.09884684 0.08765506 0.00528940
v -0.10387894 0.07124651 0.00710025
v -0.10387894 0.07124651 0.00710025
v -0.10387894 0.07124651 0.00710025
v -0.10387894 0.07124651 0.00710025
v -0.10387894 0.07124651 0.00710025
v -0.10029040 0.07124651 0.00717546
v -0.10029040 0.07124651 0.00717546
v -0.10029040 0.07124651 0.00717546
v -0.00003457 0.07124651 -0.00194242
v -0.00003457 0.07124651 -0.00194242
v -0.00003457 0.07124651 -0.00194242
v -0.10387894 0.08748134 0.00528940
v -0.10387894 0.08748134 0.00528940
v -0.10387894 0.08748134 0.00528940
v -0.00003457 0.08832391 0.00528940
v -0.00003457 0.08832391 0.00528940
v -0.00003457 0.08832391 0.00528940
v -0.00003457 0.08832391 0.00528940
v -0.00003457 0.08832391 0.00528940
v -0.01268091 0.08669739 0.00235618
v -0.01268091 0.08669739 0.00235618
v -0.01268091 0.08669739 0.00235618
v -0.01268091 0.08669739 0.00235618
v -0.01268091 0.08669739 0.00235618
v -0.01268091 0.08669739 0.00235618
v -0.01268091 0.08669739 0.00235618
v -0.01774351 0.08669739 0.00235618
v -0.01774351 0.08669739 0.00235618
v -0.01774351 0.08669739 0.00235618
v -0.01774351 0.08669739 0.00235618
v -0.01774351 0.08669739 0.00235618
v -0.02281628 0.08669522 0.00235907
v -0.02281628 0.08669522 0.00235907
v -0.02281628 0.08669522 0.00235907
v -0.02281628 0.08669522 0.00235907
v -0.02281628 0.08669522 0.00235907
v -0.02281628 0.08669522 0.00235907
v -0.02281628 0.08669522 0.00235907
v -0.02281628 0.08669522 0.00235907
v -0.02788905 0.08668219 0.00236486
v -0.02788905 0.08668219 0.00236486
v -0.02788905 0.08668219 0.00236486
v -0.02788905 0.08668219 0.00236486
v -0.09884684 0.08646286 0.00248056
v -0.09884684 0.08646286 0.00248056
v -0.09884684 0.08646286 0.00248056
v -0.09884684 0.08646286 0.00248056
v -0.09884684 0.08646286 0.00248056
v -0.09884684 0.08646286 0.00248056
v -0.09884684 0.08646286 0.00248056
v -0.09884684 0.08646286 0.00248056
v -0.10387894 0.08637599 0.00255867
v -0.10387894 0.08637599 0.00255867
v -0.10387894 0.08637599 0.00255867
v -0.10387894 0.08637599 0.00255867
v -0.10387894 0.08637599 0.00255867
v -0.10387894 0.07124651 -0.00193953
v -0.10387894 0.07124651 -0.00193953
v -0.10387894 0.07124651 -0.00193953
v -0.00003457 0.07350279 -0.00141884
v -0.00003457 0.07350279 -0.00141884
v -0.00003457 0.07350279 -0.00141884
v -0.00003457 0.07350279 -0.00141884
v -0.00003457 0.07350279 -0.00141884
v -0.07349315 0.07124651 -0.00195110
v -0.07349315 0.07124651 -0.00195110
v -0.07349315 0.07124651 -0.00195110
v -0.07349315 0.07124651 -0.00195110
v -0.07349315 0.07124651 -0.00195110
v -0.00003457 0.08669086 0.00236196
v -0.00003457 0.08669086 0.00236196
v -0.00003457 0.08669086 0.00236196
v -0.00003457 0.08669086 0.00236196
v -0.00760814 0.08669522 0.00235907
v -0.00760814 0.08669522 0.00235907
v -0.00760814 0.08669522 0.00235907
v -0.01774351 0.08363978 0.00130033
v -0.01774351 0.08363978 0.00130033
v -0.01774351 0.08363978 0.00130033
v -0.01774351 0.08363978 0.00130033
v -0.01774351 0.08363978 0.00130033
v -0.01774351 0.08363978 0.00130033
v -0.01774351 0.08363978 0.00130033
v -0.01774351 0.08363978 0.00130033
v -0.01774351 0.08363978 0.00130033
v -0.00003457 0.08517944 0.00183838
v -0.00003457 0.08517944 0.00183838
v -0.00003457 0.08517944 0.00183838
v -0.00003457 0.08517944 0.00183838
v -0.02281628 0.08363978 0.00130322
v -0.02281628 0.08363978 0.00130322
v -0.02281628 0.08363978 0.00130322
v -0.02281628 0.08363978 0.00130322
v -0.02281628 0.08363978 0.00130322
v -0.02281628 0.08363978 0.00130322
v -0.02281628 0.08363978 0.00130322
v -0.02788905 0.08363978 0.00131190
v -0.02788905 0.08363978 0.00131190
v -0.02788905 0.08363978 0.00131190
v -0.02788905 0.08363978 0.00131190
v -0.09884684 0.08363978 0.00145364
v -0.09884684 0.08363978 0.00145364
v -0.09884684 0.08363978 0.00145364
v -0.09884684 0.08363978 0.00145364
v -0.09884684 0.08363978 0.00145364
v -0.09884684 0.08363978 0.00145364
v -0.10387894 0.08363978 0.00153464
v -0.10387894 0.08363978 0.00153464
v -0.10387894 0.08363978 0.00153464
v -0.10387894 0.08363978 0.00153464
v -0.10387894 0.08635427 0.00254999
v -0.10387894 0.08635427 0.00254999
v -0.10387894 0.08635427 0.00254999
v -0.10387894 0.08635427 0.00254999
v -0.10387894 0.07347890 -0.00141305
v -0.10387894 0.07347890 -0.00141305
v -0.10387894 0.07347890 -0.00141305
v -0.10387894 0.07347890 -0.00141305
v -0.10387894 0.07347890 -0.00141305
v -0.09884684 0.07124651 -0.00194531
v -0.09884684 0.07124651 -0.00194531
v -0.09884684 0.07124651 -0.00194531
v -0.09884684 0.07124651 -0.00194531
v -0.00003457 0.08363978 0.00130901
v -0.00003457 0.08363978 0.00130901
v -0.00003457 0.08363978 0.00130901
v -0.04309720 0.07350279 -0.00142173
v -0.04309720 0.07350279 -0.00142173
v -0.04309720 0.07350279 -0.00142173
v -0.04309720 0.07350279 -0.00142173
v -0.09545145 0.07124651 -0.00194821
v -0.09545145 0.07124651 -0.00194821
v -0.09545145 0.07124651 -0.00194821
v -0.09545145 0.07124651 -0.00194821
v -0.09545145 0.07124651 -0.00194821
v -0.05322241 0.07350279 -0.00142173
v -0.05322241 0.07350279 -0.00142173
v -0.05322241 0.07350279 -0.00142173
v -0.05322241 0.07350279 -0.00142173
v -0.05322241 0.07350279 -0.00142173
v -0.09377407 0.07350279 -0.00141594
v -0.09377407 0.07350279 -0.00141594
v -0.09377407 0.07350279 -0.00141594
v -0.09377407 0.07350279 -0.00141594
v -0.09884684 0.07350279 -0.00141305
v -0.09884684 0.07350279 -0.00141305
v -0.09884684 0.07350279 -0.00141305
v -0.09884684 0.07350279 -0.00141305
v -0.09884684 0.07350279 -0.00141305
v -0.09884684 0.07350279 -0.00141305
v -0.10387894 0.07350279 -0.00140726
v -0.10387894 0.07350279 -0.00140726
v -0.10387894 0.07350279 -0.00140726
v -0.10387894 0.07350279 -0.00140726
v -0.10387894 0.07350279 -0.00140726
v -0.10387894 0.07853437 -0.00001297
v -0.10387894 0.07853437 -0.00001297
v -0.10387894 0.07853437 -0.00001297
v -0.10387894 0.07853437 -0.00001297
v -0.10387894 0.07853437 -0.00001297
f 8 18 26
f 7 25 30
f 2 27 68
f 3 69 113
f 3 113 183
f 3 183 245
f 3 245 285
f 5 286 345
f 3 344 340
f 3 340 389
f 3 389 385
f 1 384 348
f 3 349 290
f 3 290 234
f 4 235 152
f 3 151 88
f 6 89 33
f 15 34 37
f 16 38 44
f 14 41 48
f 13 47 55
f 12 54 60
f 11 59 64
f 10 63 67
f 9 66 23
f 17 29 24
f 22 65 62
f 21 61 58
f 20 57 53
f 19 52 32
f 31 51 79
f 28 77 75
f 36 92 96
f 35 95 39
f 40 97 45
f 46 99 167
f 46 167 164
f 46 164 244
f 46 244 297
f 46 297 359
f 46 359 322
f 46 322 306
f 46 306 252
f 46 252 197
f 46 197 130
f 46 130 102
f 43 101 87
f 42 85 50
f 49 84 56
f 71 103 111
f 70 109 115
f 74 76 118
f 73 117 124
f 72 121 105
f 86 100 129
f 83 127 134
f 82 132 139
f 81 136 144
f 80 141 150
f 78 145 189
f 78 189 120
f 90 155 159
f 91 160 162
f 93 163 165
f 94 166 98
f 107 169 176
f 106 174 182
f 104 180 112
f 108 122 170
f 110 179 116
f 114 178 186
f 119 187 193
f 119 193 125
f 123 192 172
f 128 195 205
f 126 202 133
f 131 201 138
f 137 198 210
f 135 209 143
f 142 207 217
f 140 214 149
f 148 212 221
f 147 219 232
f 146 231 190
f 153 236 239
f 154 241 158
f 157 240 238
f 156 237 292
f 156 292 356
f 156 356 368
f 156 368 300
f 156 300 242
f 156 242 161
f 168 228 175
f 171 191 229
f 173 227 181
f 177 225 185
f 184 223 246
f 188 230 194
f 196 249 206
f 203 254 264
f 200 261 272
f 199 271 211
f 204 248 255
f 208 266 218
f 216 265 274
f 215 273 283
f 213 282 222
f 220 281 233
f 226 277 288
f 224 287 247
f 243 301 293
f 250 305 308
f 251 309 259
f 253 314 263
f 258 307 304
f 257 303 321
f 256 319 316
f 262 311 329
f 260 327 270
f 269 324 333
f 267 331 338
f 268 339 276
f 275 336 284
f 280 335 343
f 279 341 347
f 278 346 289
f 291 351 354
f 296 317 357
f 294 302 362
f 295 363 315
f 298 367 370
f 299 372 360
f 318 320 358
f 313 361 373
f 312 371 377
f 310 375 383
f 310 383 328
f 326 380 388
f 325 386 393
f 323 392 332
f 330 391 337
f 334 390 342
f 352 387 379
f 350 378 353
f 355 381 364
f 365 382 374
f 366 376 369

