# https://github.com/mikedh/trimesh
v 0.13332811 0.06872056 0.02826268
v 0.13332811 0.06872056 0.02826268
v 0.13332811 0.06872056 0.02826268
v 0.13332811 0.06872056 0.02826268
v 0.13332811 0.06872056 0.02826268
v 0.13139616 0.06872056 0.02826268
v 0.13139616 0.06872056 0.02826268
v 0.13139616 0.06872056 0.02826268
v 0.13139616 0.06872056 0.02826268
v 0.13139616 0.06872056 0.02826268
v 0.13571747 0.06872056 0.02790728
v 0.13571747 0.06872056 0.02790728
v 0.13571747 0.06872056 0.02790728
v 0.13571747 0.06872056 0.02790728
v 0.13239824 0.07350347 0.02817607
v 0.13239824 0.07350347 0.02817607
v 0.13239824 0.07350347 0.02817607
v 0.13239824 0.07350347 0.02817607
v 0.12735169 0.08173210 0.02816711
v 0.12735169 0.08173210 0.02816711
v 0.12735169 0.08173210 0.02816711
v 0.12735169 0.08173210 0.02816711
v 0.12735169 0.08173210 0.02816711
v 0.12735169 0.08173210 0.02816711
v 0.12735169 0.08173210 0.02816711
v 0.12735169 0.08173210 0.02816711
v 0.11405672 0.08695380 0.02817905
v 0.11405672 0.08695380 0.02817905
v 0.11405672 0.08695380 0.02817905
v 0.11405672 0.08695380 0.02817905
v 0.11405672 0.08695380 0.02817905
v 0.11405672 0.08695380 0.02817905
v 0.11405672 0.08695380 0.02817905
v 0.11405672 0.08695380 0.02817905
v 0.13125170 0.06872056 0.02819697
v 0.13125170 0.06872056 0.02819697
v 0.13125170 0.06872056 0.02819697
v 0.13125170 0.06872056 0.02819697
v 0.11405672 0.08600924 0.02817905
v 0.11405672 0.08600924 0.02817905
v 0.11405672 0.08600924 0.02817905
v 0.11080669 0.08610854 0.02814023
v 0.11080669 0.08610854 0.02814023
v 0.11080669 0.08610854 0.02814023
v 0.11080669 0.08610854 0.02814023
v 0.11080669 0.08610854 0.02814023
v 0.11080669 0.08610854 0.02814023
v 0.13586192 0.06872056 0.02786845
v 0.13586192 0.06872056 0.02786845
v 0.13586192 0.06872056 0.02786845
v 0.13586192 0.06872056 0.02786845
v 0.13185055 0.07616167 0.02810738
v 0.13185055 0.07616167 0.02810738
v 0.13185055 0.07616167 0.02810738
v 0.13185055 0.07616167 0.02810738
v 0.13185055 0.07616167 0.02810738
v 0.13185055 0.07616167 0.02810738
v 0.13073110 0.07954041 0.02787144
v 0.13073110 0.07954041 0.02787144
v 0.13073110 0.07954041 0.02787144
v 0.13073110 0.07954041 0.02787144
v 0.13073110 0.07954041 0.02787144
v 0.13073110 0.07954041 0.02787144
v 0.13073110 0.07954041 0.02787144
v 0.12511579 0.08511316 0.02787144
v 0.12511579 0.08511316 0.02787144
v 0.12511579 0.08511316 0.02787144
v 0.12511579 0.08511316 0.02787144
v 0.12511579 0.08511316 0.02787144
v 0.12511579 0.08511316 0.02787144
v 0.12511579 0.08511316 0.02787144
v 0.12173939 0.08620785 0.02810140
v 0.12173939 0.08620785 0.02810140
v 0.12173939 0.08620785 0.02810140
v 0.12173939 0.08620785 0.02810140
v 0.12173939 0.08620785 0.02810140
v 0.11912433 0.08656119 0.02815217
v 0.11912433 0.08656119 0.02815217
v 0.11912433 0.08656119 0.02815217
v 0.11912433 0.08656119 0.02815217
v 0.11405672 0.08948729 0.02761161
v 0.11405672 0.08948729 0.02761161
v 0.11405672 0.08948729 0.02761161
v 0.11405672 0.08948729 0.02761161
v 0.11405672 0.08948729 0.02761161
v 0.11405672 0.08948729 0.02761161
v 0.11405672 0.08948729 0.02761161
v 0.11405672 0.08948729 0.02761161
v 0.11405672 0.08948729 0.02761161
v 0.11405672 0.08948729 0.02761161
v 0.10906432 0.08853580 0.02780275
v 0.10906432 0.08853580 0.02780275
v 0.10906432 0.08853580 0.02780275
v 0.10906432 0.08853580 0.02780275
v 0.11080669 0.08672979 0.02814023
v 0.11080669 0.08672979 0.02814023
v 0.11080669 0.08672979 0.02814023
v 0.11080669 0.08672979 0.02814023
v 0.10897705 0.08499076 0.02598395
v 0.10897705 0.08499076 0.02598395
v 0.10897705 0.08499076 0.02598395
v 0.10897705 0.08499076 0.02598395
v 0.10897705 0.08499076 0.02598395
v 0.10897705 0.08499076 0.02598395
v 0.10897705 0.08499076 0.02598395
v 0.10898608 0.06872056 0.00693878
v 0.10898608 0.06872056 0.00693878
v 0.10898608 0.06872056 0.00693878
v 0.10897705 0.08853810 0.02779678
v 0.10897705 0.08853810 0.02779678
v 0.10897705 0.08853810 0.02779678
v 0.10897705 0.08853810 0.02779678
v 0.10897705 0.08853810 0.02779678
v 0.10897705 0.08853810 0.02779678
v 0.13971680 0.06872056 0.02557180
v 0.13971680 0.06872056 0.02557180
v 0.13971680 0.06872056 0.02557180
v 0.13971680 0.06872056 0.02557180
v 0.13971680 0.06872056 0.02557180
v 0.13493206 0.07350347 0.02746527
v 0.13493206 0.07350347 0.02746527
v 0.13493206 0.07350347 0.02746527
v 0.13493206 0.07350347 0.02746527
v 0.13493206 0.07350347 0.02746527
v 0.13493206 0.07350347 0.02746527
v 0.13493206 0.07350347 0.02746527
v 0.13411653 0.07829562 0.02598096
v 0.13411653 0.07829562 0.02598096
v 0.13411653 0.07829562 0.02598096
v 0.13411653 0.07829562 0.02598096
v 0.13275936 0.08363972 0.02425773
v 0.13275936 0.08363972 0.02425773
v 0.13275936 0.08363972 0.02425773
v 0.13275936 0.08363972 0.02425773
v 0.13275936 0.08363972 0.02425773
v 0.12912716 0.08350808 0.02691874
v 0.12912716 0.08350808 0.02691874
v 0.12912716 0.08350808 0.02691874
v 0.12912716 0.08350808 0.02691874
v 0.12912716 0.08350808 0.02691874
v 0.12925957 0.08706928 0.02425773
v 0.12925957 0.08706928 0.02425773
v 0.12925957 0.08706928 0.02425773
v 0.12925957 0.08706928 0.02425773
v 0.12925957 0.08706928 0.02425773
v 0.12371648 0.08844572 0.02583761
v 0.12371648 0.08844572 0.02583761
v 0.12371648 0.08844572 0.02583761
v 0.12371648 0.08844572 0.02583761
v 0.11912433 0.08909699 0.02707105
v 0.11912433 0.08909699 0.02707105
v 0.11912433 0.08909699 0.02707105
v 0.11912433 0.08909699 0.02707105
v 0.11912433 0.08909699 0.02707105
v 0.11912433 0.08909699 0.02707105
v 0.11912433 0.09180600 0.02453846
v 0.11912433 0.09180600 0.02453846
v 0.11912433 0.09180600 0.02453846
v 0.11912433 0.09180600 0.02453846
v 0.11912433 0.09180600 0.02453846
v 0.11405672 0.09215241 0.02507604
v 0.11405672 0.09215241 0.02507604
v 0.11405672 0.09215241 0.02507604
v 0.11405672 0.09215241 0.02507604
v 0.10898608 0.09231177 0.02528510
v 0.10898608 0.09231177 0.02528510
v 0.10898608 0.09231177 0.02528510
v 0.10898608 0.09231177 0.02528510
v 0.10898608 0.09231177 0.02528510
v 0.10897705 0.09231177 0.02528510
v 0.10897705 0.09231177 0.02528510
v 0.10897705 0.09231177 0.02528510
v 0.10897705 0.09231177 0.02528510
v 0.10897705 0.06872056 0.00641315
v 0.10897705 0.06872056 0.00641315
v 0.10897705 0.06872056 0.00641315
v 0.13971680 0.06872056 0.02154595
v 0.13971680 0.06872056 0.02154595
v 0.13971680 0.06872056 0.02154595
v 0.13971680 0.06872056 0.02154595
v 0.13742072 0.07705312 0.02409347
v 0.13742072 0.07705312 0.02409347
v 0.13742072 0.07705312 0.02409347
v 0.13742072 0.07705312 0.02409347
v 0.13742072 0.07705312 0.02409347
v 0.13742072 0.07705312 0.02409347
v 0.13742072 0.07705312 0.02409347
v 0.13832049 0.07350347 0.02492970
v 0.13832049 0.07350347 0.02492970
v 0.13832049 0.07350347 0.02492970
v 0.13187162 0.08623787 0.02320348
v 0.13187162 0.08623787 0.02320348
v 0.13187162 0.08623787 0.02320348
v 0.13187162 0.08623787 0.02320348
v 0.13187162 0.08623787 0.02320348
v 0.13187162 0.08623787 0.02320348
v 0.12231416 0.09149652 0.02380079
v 0.12231416 0.09149652 0.02380079
v 0.12231416 0.09149652 0.02380079
v 0.12231416 0.09149652 0.02380079
v 0.12231416 0.09149652 0.02380079
v 0.12231416 0.09149652 0.02380079
v 0.11912433 0.09180600 0.02214923
v 0.11912433 0.09180600 0.02214923
v 0.11912433 0.09180600 0.02214923
v 0.11912433 0.09180600 0.02214923
v 0.11912433 0.09180600 0.02214923
v 0.11405672 0.09215241 0.02147427
v 0.11405672 0.09215241 0.02147427
v 0.11405672 0.09215241 0.02147427
v 0.11405672 0.09215241 0.02147427
v 0.11405672 0.09215241 0.02147427
v 0.11405672 0.09215241 0.02147427
v 0.10897705 0.09230715 0.02516564
v 0.10897705 0.09230715 0.02516564
v 0.10897705 0.09230715 0.02516564
v 0.10897705 0.09230715 0.02516564
v 0.10897705 0.06872056 0.00468095
v 0.10897705 0.06872056 0.00468095
v 0.10897705 0.06872056 0.00468095
v 0.13742072 0.07705312 0.02246282
v 0.13742072 0.07705312 0.02246282
v 0.13742072 0.07705312 0.02246282
v 0.13742072 0.07705312 0.02246282
v 0.13742072 0.07705312 0.02246282
v 0.12940401 0.06872056 0.00528125
v 0.12940401 0.06872056 0.00528125
v 0.12940401 0.06872056 0.00528125
v 0.12715909 0.07196305 0.00243508
v 0.12715909 0.07196305 0.00243508
v 0.12715909 0.07196305 0.00243508
v 0.12715909 0.07196305 0.00243508
v 0.12715909 0.07196305 0.00243508
v 0.12715909 0.07196305 0.00243508
v 0.12715909 0.07196305 0.00243508
v 0.12715909 0.07196305 0.00243508
v 0.12715909 0.07196305 0.00243508
v 0.13187162 0.08623787 0.02294962
v 0.13187162 0.08623787 0.02294962
v 0.13187162 0.08623787 0.02294962
v 0.13187162 0.08623787 0.02294962
v 0.13187162 0.08623787 0.02294962
v 0.12231416 0.09149652 0.02267486
v 0.12231416 0.09149652 0.02267486
v 0.12231416 0.09149652 0.02267486
v 0.12231416 0.09149652 0.02267486
v 0.12231416 0.09149652 0.02267486
v 0.12231416 0.09149652 0.02267486
v 0.12231416 0.09149652 0.02267486
v 0.12231416 0.09149652 0.02267486
v 0.10897705 0.08682678 0.00485716
v 0.10897705 0.08682678 0.00485716
v 0.10897705 0.08682678 0.00485716
v 0.10897705 0.08682678 0.00485716
v 0.10897705 0.08682678 0.00485716
v 0.10897705 0.08682678 0.00485716
v 0.10897705 0.08688684 0.00501843
v 0.10897705 0.08688684 0.00501843
v 0.10897705 0.08688684 0.00501843
v 0.10897705 0.08688684 0.00501843
v 0.10897705 0.08688684 0.00501843
v 0.10897705 0.09210623 0.02035432
v 0.10897705 0.09210623 0.02035432
v 0.10897705 0.09210623 0.02035432
v 0.10897705 0.06961664 -0.00213433
v 0.10897705 0.06961664 -0.00213433
v 0.10897705 0.06961664 -0.00213433
v 0.10897705 0.06961664 -0.00213433
v 0.10898307 0.06872056 -0.00224782
v 0.10898307 0.06872056 -0.00224782
v 0.10898307 0.06872056 -0.00224782
v 0.10898307 0.06872056 -0.00224782
v 0.12619010 0.07534181 0.00335194
v 0.12619010 0.07534181 0.00335194
v 0.12619010 0.07534181 0.00335194
v 0.12619010 0.07534181 0.00335194
v 0.12744196 0.06872056 0.00224394
v 0.12744196 0.06872056 0.00224394
v 0.12744196 0.06872056 0.00224394
v 0.12420398 0.06872056 0.00108516
v 0.12420398 0.06872056 0.00108516
v 0.12420398 0.06872056 0.00108516
v 0.12420398 0.06872056 0.00108516
v 0.12437552 0.07359123 0.00183777
v 0.12437552 0.07359123 0.00183777
v 0.12437552 0.07359123 0.00183777
v 0.12437552 0.07359123 0.00183777
v 0.12437552 0.07359123 0.00183777
v 0.12255491 0.07857275 0.00236937
v 0.12255491 0.07857275 0.00236937
v 0.12255491 0.07857275 0.00236937
v 0.12255491 0.07857275 0.00236937
v 0.12255491 0.07857275 0.00236937
v 0.12170027 0.08113626 0.00272477
v 0.12170027 0.08113626 0.00272477
v 0.12170027 0.08113626 0.00272477
v 0.12170027 0.08113626 0.00272477
v 0.12170027 0.08113626 0.00272477
v 0.12170027 0.08113626 0.00272477
v 0.12170027 0.08113626 0.00272477
v 0.12170027 0.08113626 0.00272477
v 0.12170027 0.08113626 0.00272477
v 0.12170027 0.08113626 0.00272477
v 0.11675002 0.08625866 0.00759880
v 0.11675002 0.08625866 0.00759880
v 0.11675002 0.08625866 0.00759880
v 0.11675002 0.08625866 0.00759880
v 0.11675002 0.08625866 0.00759880
v 0.11405672 0.08657274 0.00664012
v 0.11405672 0.08657274 0.00664012
v 0.11405672 0.08657274 0.00664012
v 0.11047567 0.08590761 0.00309211
v 0.11047567 0.08590761 0.00309211
v 0.11047567 0.08590761 0.00309211
v 0.11047567 0.08590761 0.00309211
v 0.11047567 0.08590761 0.00309211
v 0.11047567 0.08590761 0.00309211
v 0.11047567 0.08590761 0.00309211
v 0.11047567 0.08590761 0.00309211
v 0.11047567 0.08590761 0.00309211
v 0.11047567 0.08590761 0.00309211
v 0.10897705 0.08411547 0.00202592
v 0.10897705 0.08411547 0.00202592
v 0.10897705 0.08411547 0.00202592
v 0.10897705 0.07351501 -0.00125032
v 0.10897705 0.07351501 -0.00125032
v 0.10897705 0.07351501 -0.00125032
v 0.10897705 0.07351501 -0.00125032
v 0.10897705 0.07351501 -0.00125032
v 0.10898608 0.06960740 -0.00213732
v 0.10898608 0.06960740 -0.00213732
v 0.10898608 0.06960740 -0.00213732
v 0.10898608 0.06960740 -0.00213732
v 0.10898608 0.06960740 -0.00213732
v 0.10898608 0.06960740 -0.00213732
v 0.10975345 0.06872056 -0.00220302
v 0.10975345 0.06872056 -0.00220302
v 0.10975345 0.06872056 -0.00220302
v 0.10975345 0.06872056 -0.00220302
v 0.12390606 0.06872056 0.00100154
v 0.12390606 0.06872056 0.00100154
v 0.12390606 0.06872056 0.00100154
v 0.12390606 0.06872056 0.00100154
v 0.11912433 0.07350347 0.00035346
v 0.11912433 0.07350347 0.00035346
v 0.11912433 0.07350347 0.00035346
v 0.11912433 0.07350347 0.00035346
v 0.11912433 0.07350347 0.00035346
v 0.11912433 0.07350347 0.00035346
v 0.11912433 0.07350347 0.00035346
v 0.11912433 0.07857275 0.00141667
v 0.11912433 0.07857275 0.00141667
v 0.11912433 0.07857275 0.00141667
v 0.11912433 0.07857275 0.00141667
v 0.11912433 0.07857275 0.00141667
v 0.11912433 0.07857275 0.00141667
v 0.11912433 0.08169977 0.00241716
v 0.11912433 0.08169977 0.00241716
v 0.11912433 0.08169977 0.00241716
v 0.11912433 0.08169977 0.00241716
v 0.11912433 0.08169977 0.00241716
v 0.11405672 0.08527945 0.00410455
v 0.11405672 0.08527945 0.00410455
v 0.11405672 0.08527945 0.00410455
v 0.11405672 0.08274596 0.00199605
v 0.11405672 0.08274596 0.00199605
v 0.11405672 0.08274596 0.00199605
v 0.11405672 0.08274596 0.00199605
v 0.10897705 0.08396074 0.00194827
v 0.10897705 0.08396074 0.00194827
v 0.10897705 0.08396074 0.00194827
v 0.10897705 0.08396074 0.00194827
v 0.10897705 0.08396074 0.00194827
v 0.10897705 0.08396074 0.00194827
v 0.10897705 0.07858429 0.00015336
v 0.10897705 0.07858429 0.00015336
v 0.10897705 0.07858429 0.00015336
v 0.10897705 0.07858429 0.00015336
v 0.10898608 0.07350347 -0.00125330
v 0.10898608 0.07350347 -0.00125330
v 0.10898608 0.07350347 -0.00125330
v 0.10898608 0.07350347 -0.00125330
v 0.10898608 0.07350347 -0.00125330
v 0.11405672 0.07350347 -0.00067690
v 0.11405672 0.07350347 -0.00067690
v 0.11405672 0.07350347 -0.00067690
v 0.11405672 0.07350347 -0.00067690
v 0.11405672 0.07350347 -0.00067690
v 0.11405672 0.07350347 -0.00067690
v 0.11405672 0.07350347 -0.00067690
v 0.11373772 0.06872056 -0.00157585
v 0.11373772 0.06872056 -0.00157585
v 0.11373772 0.06872056 -0.00157585
v 0.11373772 0.06872056 -0.00157585
v 0.11912433 0.06872056 -0.00024982
v 0.11912433 0.06872056 -0.00024982
v 0.11912433 0.06872056 -0.00024982
v 0.11405672 0.07857275 0.00056550
v 0.11405672 0.07857275 0.00056550
v 0.11405672 0.07857275 0.00056550
v 0.11405672 0.07857275 0.00056550
v 0.11405672 0.07857275 0.00056550
v 0.11405672 0.07857275 0.00056550
v 0.11405672 0.07857275 0.00056550
v 0.11405672 0.07857275 0.00056550
v 0.11405672 0.07857275 0.00056550
v 0.10897705 0.08387298 0.00191840
v 0.10897705 0.08387298 0.00191840
v 0.10897705 0.08387298 0.00191840
v 0.10897705 0.08387298 0.00191840
v 0.10898608 0.07857275 0.00015037
v 0.10898608 0.07857275 0.00015037
v 0.10898608 0.07857275 0.00015037
v 0.10898608 0.07857275 0.00015037
f 1 9 38
f 1 38 108
f 1 108 176
f 1 176 220
f 1 220 271
f 1 271 336
f 1 336 391
f 1 391 395
f 1 395 340
f 1 340 280
f 1 280 277
f 1 277 226
f 1 226 177
f 1 177 115
f 1 115 48
f 1 48 11
f 5 12 17
f 4 15 22
f 3 19 32
f 2 31 10
f 8 29 41
f 7 39 46
f 6 44 37
f 14 49 55
f 13 54 18
f 16 52 23
f 25 53 58
f 26 59 67
f 24 65 74
f 21 72 79
f 20 77 33
f 34 78 85
f 30 83 94
f 27 93 97
f 28 98 47
f 28 47 40
f 36 43 105
f 35 104 107
f 45 95 111
f 42 110 103
f 51 116 122
f 50 120 56
f 57 121 60
f 63 123 127
f 64 128 133
f 62 132 140
f 61 136 69
f 71 137 143
f 70 141 148
f 68 147 155
f 66 152 76
f 75 150 89
f 73 87 80
f 90 151 159
f 88 158 164
f 86 162 169
f 84 166 173
f 81 171 112
f 82 114 92
f 91 113 96
f 100 109 170
f 100 170 214
f 100 214 262
f 100 262 258
f 99 257 251
f 100 252 322
f 100 322 369
f 101 370 408
f 100 407 375
f 100 375 325
f 100 325 266
f 100 266 219
f 100 219 174
f 102 175 106
f 119 180 225
f 119 225 187
f 118 186 190
f 117 189 126
f 125 188 183
f 124 181 129
f 130 182 134
f 135 184 195
f 131 194 139
f 138 192 145
f 144 191 201
f 142 200 149
f 146 199 154
f 153 198 160
f 156 203 212
f 156 212 163
f 157 197 243
f 157 243 204
f 161 210 168
f 165 215 172
f 167 209 217
f 179 228 237
f 178 235 223
f 185 224 242
f 185 242 196
f 193 239 250
f 193 250 202
f 206 254 261
f 205 260 213
f 207 244 255
f 211 259 264
f 208 263 216
f 218 265 269
f 222 234 276
f 221 275 241
f 227 279 236
f 231 278 283
f 229 282 287
f 230 288 292
f 232 293 299
f 233 302 273
f 240 274 303
f 238 301 249
f 248 300 308
f 247 304 310
f 246 309 317
f 245 315 256
f 253 312 323
f 268 326 331
f 267 330 270
f 272 333 337
f 281 343 286
f 285 342 350
f 284 349 291
f 290 348 356
f 289 355 296
f 294 353 360
f 295 361 318
f 297 321 363
f 298 364 307
f 306 362 320
f 305 319 311
f 316 359 368
f 314 366 374
f 313 373 324
f 329 376 412
f 328 411 380
f 327 379 332
f 334 383 385
f 335 386 338
f 339 387 392
f 341 397 347
f 346 396 394
f 345 393 390
f 344 389 354
f 352 388 406
f 351 405 358
f 357 404 367
f 365 402 372
f 371 401 410
f 377 409 398
f 378 399 413
f 381 414 400
f 382 403 384

