# https://github.com/mikedh/trimesh
v 0.10972613 -0.06948703 -0.00205819
v 0.10972613 -0.06948703 -0.00205819
v 0.10972613 -0.06948703 -0.00205819
v 0.10972613 -0.06948703 -0.00205819
v 0.10972613 -0.06948703 -0.00205819
v 0.11379477 -0.06948703 -0.00144389
v 0.11379477 -0.06948703 -0.00144389
v 0.11379477 -0.06948703 -0.00144389
v 0.11405709 -0.07350374 -0.00068418
v 0.11405709 -0.07350374 -0.00068418
v 0.11405709 -0.07350374 -0.00068418
v 0.11405709 -0.07350374 -0.00068418
v 0.11405709 -0.07350374 -0.00068418
v 0.11405709 -0.07350374 -0.00068418
v 0.11405709 -0.07350374 -0.00068418
v 0.11405709 -0.07350374 -0.00068418
v 0.11405709 -0.07350374 -0.00068418
v 0.10972613 -0.07021369 -0.00192762
v 0.10972613 -0.07021369 -0.00192762
v 0.10972613 -0.07021369 -0.00192762
v 0.10972613 -0.06948703 0.00724235
v 0.10972613 -0.06948703 0.00724235
v 0.10972613 -0.06948703 0.00724235
v 0.11500138 -0.06948703 -0.00119758
v 0.11500138 -0.06948703 -0.00119758
v 0.11500138 -0.06948703 -0.00119758
v 0.11500138 -0.06948703 -0.00119758
v 0.10972613 -0.07424378 -0.00099281
v 0.10972613 -0.07424378 -0.00099281
v 0.10972613 -0.07424378 -0.00099281
v 0.10972613 -0.07424378 -0.00099281
v 0.10972613 -0.07424378 -0.00099281
v 0.10972613 -0.07350374 -0.00117384
v 0.10972613 -0.07350374 -0.00117384
v 0.10972613 -0.07350374 -0.00117384
v 0.10972613 -0.07350374 -0.00117384
v 0.11912541 -0.07350374 0.00035152
v 0.11912541 -0.07350374 0.00035152
v 0.11912541 -0.07350374 0.00035152
v 0.11912541 -0.07350374 0.00035152
v 0.11912541 -0.07350374 0.00035152
v 0.11912541 -0.07350374 0.00035152
v 0.11912541 -0.07350374 0.00035152
v 0.11912541 -0.07857256 0.00141096
v 0.11912541 -0.07857256 0.00141096
v 0.11912541 -0.07857256 0.00141096
v 0.11912541 -0.07857256 0.00141096
v 0.11912541 -0.07857256 0.00141096
v 0.11912541 -0.07857256 0.00141096
v 0.11405709 -0.07857256 0.00056222
v 0.11405709 -0.07857256 0.00056222
v 0.11405709 -0.07857256 0.00056222
v 0.11405709 -0.07857256 0.00056222
v 0.11405709 -0.07857256 0.00056222
v 0.11405709 -0.07857256 0.00056222
v 0.11405709 -0.07857256 0.00056222
v 0.10972613 -0.08541569 0.02676637
v 0.10972613 -0.08541569 0.02676637
v 0.10972613 -0.08541569 0.02676637
v 0.10972613 -0.08541569 0.02676637
v 0.10972613 -0.08541569 0.02676637
v 0.12853343 -0.06948703 0.02555855
v 0.12853343 -0.06948703 0.02555855
v 0.12853343 -0.06948703 0.02555855
v 0.11912541 -0.06948703 -0.00015891
v 0.11912541 -0.06948703 -0.00015891
v 0.11912541 -0.06948703 -0.00015891
v 0.10972613 -0.07857256 0.00020314
v 0.10972613 -0.07857256 0.00020314
v 0.10972613 -0.07857256 0.00020314
v 0.12423161 -0.06948703 0.00120916
v 0.12423161 -0.06948703 0.00120916
v 0.12423161 -0.06948703 0.00120916
v 0.12423161 -0.06948703 0.00120916
v 0.12438317 -0.07359736 0.00184127
v 0.12438317 -0.07359736 0.00184127
v 0.12438317 -0.07359736 0.00184127
v 0.12438317 -0.07359736 0.00184127
v 0.12438317 -0.07359736 0.00184127
v 0.12256743 -0.07857256 0.00236951
v 0.12256743 -0.07857256 0.00236951
v 0.12256743 -0.07857256 0.00236951
v 0.12256743 -0.07857256 0.00236951
v 0.12256743 -0.07857256 0.00236951
v 0.12170765 -0.08114264 0.00271969
v 0.12170765 -0.08114264 0.00271969
v 0.12170765 -0.08114264 0.00271969
v 0.12170765 -0.08114264 0.00271969
v 0.12170765 -0.08114264 0.00271969
v 0.12170765 -0.08114264 0.00271969
v 0.12170765 -0.08114264 0.00271969
v 0.12170765 -0.08114264 0.00271969
v 0.12170765 -0.08114264 0.00271969
v 0.12170765 -0.08114264 0.00271969
v 0.11912541 -0.08170435 0.00241402
v 0.11912541 -0.08170435 0.00241402
v 0.11912541 -0.08170435 0.00241402
v 0.11912541 -0.08170435 0.00241402
v 0.11912541 -0.08170435 0.00241402
v 0.11405709 -0.08274307 0.00199262
v 0.11405709 -0.08274307 0.00199262
v 0.11405709 -0.08274307 0.00199262
v 0.11405709 -0.08274307 0.00199262
v 0.11405709 -0.08274307 0.00199262
v 0.10972613 -0.08377290 0.00195701
v 0.10972613 -0.08377290 0.00195701
v 0.10972613 -0.08377290 0.00195701
v 0.10972613 -0.08377290 0.00195701
v 0.10972613 -0.08788546 0.02792078
v 0.10972613 -0.08788546 0.02792078
v 0.10972613 -0.08788546 0.02792078
v 0.10972613 -0.08788546 0.02792078
v 0.11084821 -0.08610668 0.02814039
v 0.11084821 -0.08610668 0.02814039
v 0.11084821 -0.08610668 0.02814039
v 0.11084821 -0.08610668 0.02814039
v 0.11084821 -0.08610668 0.02814039
v 0.13131678 -0.06948703 0.02825909
v 0.13131678 -0.06948703 0.02825909
v 0.13131678 -0.06948703 0.02825909
v 0.13131678 -0.06948703 0.02825909
v 0.13131678 -0.06948703 0.02825909
v 0.13131678 -0.06948703 0.02825909
v 0.12507390 -0.06948703 0.00145845
v 0.12507390 -0.06948703 0.00145845
v 0.12507390 -0.06948703 0.00145845
v 0.12507390 -0.06948703 0.00145845
v 0.12715486 -0.07197017 0.00243479
v 0.12715486 -0.07197017 0.00243479
v 0.12715486 -0.07197017 0.00243479
v 0.12715486 -0.07197017 0.00243479
v 0.12715486 -0.07197017 0.00243479
v 0.12715486 -0.07197017 0.00243479
v 0.12715486 -0.07197017 0.00243479
v 0.12715486 -0.07197017 0.00243479
v 0.12715486 -0.07197017 0.00243479
v 0.11677340 -0.08627164 0.00756879
v 0.11677340 -0.08627164 0.00756879
v 0.11677340 -0.08627164 0.00756879
v 0.11677340 -0.08627164 0.00756879
v 0.11677340 -0.08627164 0.00756879
v 0.11405709 -0.08527749 0.00408480
v 0.11405709 -0.08527749 0.00408480
v 0.11405709 -0.08527749 0.00408480
v 0.11041396 -0.08590831 0.00309064
v 0.11041396 -0.08590831 0.00309064
v 0.11041396 -0.08590831 0.00309064
v 0.11041396 -0.08590831 0.00309064
v 0.11041396 -0.08590831 0.00309064
v 0.11041396 -0.08590831 0.00309064
v 0.11041396 -0.08590831 0.00309064
v 0.11041396 -0.08590831 0.00309064
v 0.11041396 -0.08590831 0.00309064
v 0.12619599 -0.07534938 0.00334586
v 0.12619599 -0.07534938 0.00334586
v 0.12619599 -0.07534938 0.00334586
v 0.12619599 -0.07534938 0.00334586
v 0.13186471 -0.08623151 0.02295891
v 0.13186471 -0.08623151 0.02295891
v 0.13186471 -0.08623151 0.02295891
v 0.13186471 -0.08623151 0.02295891
v 0.13186471 -0.08623151 0.02295891
v 0.13186471 -0.08623151 0.02295891
v 0.12233719 -0.09149649 0.02267105
v 0.12233719 -0.09149649 0.02267105
v 0.12233719 -0.09149649 0.02267105
v 0.12233719 -0.09149649 0.02267105
v 0.12233719 -0.09149649 0.02267105
v 0.12233719 -0.09149649 0.02267105
v 0.12233719 -0.09149649 0.02267105
v 0.12233719 -0.09149649 0.02267105
v 0.10972613 -0.08597517 0.00301052
v 0.10972613 -0.08597517 0.00301052
v 0.10972613 -0.08597517 0.00301052
v 0.10972613 -0.08597517 0.00301052
v 0.10972613 -0.08833572 0.02784659
v 0.10972613 -0.08833572 0.02784659
v 0.10972613 -0.08833572 0.02784659
v 0.10972613 -0.08833572 0.02784659
v 0.10972613 -0.08833572 0.02784659
v 0.11084821 -0.08673528 0.02814039
v 0.11084821 -0.08673528 0.02814039
v 0.11084821 -0.08673528 0.02814039
v 0.11084821 -0.08673528 0.02814039
v 0.11405709 -0.08600415 0.02818193
v 0.11405709 -0.08600415 0.02818193
v 0.11405709 -0.08600415 0.02818193
v 0.11405709 -0.08694926 0.02818193
v 0.11405709 -0.08694926 0.02818193
v 0.11405709 -0.08694926 0.02818193
v 0.11405709 -0.08694926 0.02818193
v 0.11405709 -0.08694926 0.02818193
v 0.11405709 -0.08694926 0.02818193
v 0.11405709 -0.08694926 0.02818193
v 0.11405709 -0.08694926 0.02818193
v 0.13325201 -0.06948703 0.02825909
v 0.13325201 -0.06948703 0.02825909
v 0.13325201 -0.06948703 0.02825909
v 0.13325201 -0.06948703 0.02825909
v 0.13325201 -0.06948703 0.02825909
v 0.12737053 -0.06948703 0.00229235
v 0.12737053 -0.06948703 0.00229235
v 0.12737053 -0.06948703 0.00229235
v 0.12878699 -0.06948703 0.00443794
v 0.12878699 -0.06948703 0.00443794
v 0.12878699 -0.06948703 0.00443794
v 0.13950070 -0.06948703 0.02159973
v 0.13950070 -0.06948703 0.02159973
v 0.13950070 -0.06948703 0.02159973
v 0.13950070 -0.06948703 0.02159973
v 0.13743723 -0.07709249 0.02244551
v 0.13743723 -0.07709249 0.02244551
v 0.13743723 -0.07709249 0.02244551
v 0.13743723 -0.07709249 0.02244551
v 0.13743723 -0.07709249 0.02244551
v 0.11405709 -0.08658593 0.00661915
v 0.11405709 -0.08658593 0.00661915
v 0.11405709 -0.08658593 0.00661915
v 0.10972613 -0.08633627 0.00391267
v 0.10972613 -0.08633627 0.00391267
v 0.10972613 -0.08633627 0.00391267
v 0.10972613 -0.08633627 0.00391267
v 0.10972613 -0.08633627 0.00391267
v 0.13186471 -0.08623151 0.02318445
v 0.13186471 -0.08623151 0.02318445
v 0.13186471 -0.08623151 0.02318445
v 0.13186471 -0.08623151 0.02318445
v 0.13186471 -0.08623151 0.02318445
v 0.13186471 -0.08623151 0.02318445
v 0.12233719 -0.09149649 0.02380172
v 0.12233719 -0.09149649 0.02380172
v 0.12233719 -0.09149649 0.02380172
v 0.12233719 -0.09149649 0.02380172
v 0.12233719 -0.09149649 0.02380172
v 0.12233719 -0.09149649 0.02380172
v 0.12233719 -0.09149649 0.02380172
v 0.11912541 -0.09180409 0.02213688
v 0.11912541 -0.09180409 0.02213688
v 0.11912541 -0.09180409 0.02213688
v 0.11912541 -0.09180409 0.02213688
v 0.11912541 -0.09180409 0.02213688
v 0.10972613 -0.08866116 0.02776943
v 0.10972613 -0.08866116 0.02776943
v 0.10972613 -0.08866116 0.02776943
v 0.11405709 -0.08948367 0.02759434
v 0.11405709 -0.08948367 0.02759434
v 0.11405709 -0.08948367 0.02759434
v 0.11405709 -0.08948367 0.02759434
v 0.11405709 -0.08948367 0.02759434
v 0.11405709 -0.08948367 0.02759434
v 0.11405709 -0.08948367 0.02759434
v 0.11405709 -0.08948367 0.02759434
v 0.11405709 -0.08948367 0.02759434
v 0.11912541 -0.08655472 0.02815226
v 0.11912541 -0.08655472 0.02815226
v 0.11912541 -0.08655472 0.02815226
v 0.11912541 -0.08655472 0.02815226
v 0.12735013 -0.08172887 0.02817006
v 0.12735013 -0.08172887 0.02817006
v 0.12735013 -0.08172887 0.02817006
v 0.12735013 -0.08172887 0.02817006
v 0.12735013 -0.08172887 0.02817006
v 0.12735013 -0.08172887 0.02817006
v 0.12735013 -0.08172887 0.02817006
v 0.12735013 -0.08172887 0.02817006
v 0.13247966 -0.07350374 0.02818490
v 0.13247966 -0.07350374 0.02818490
v 0.13247966 -0.07350374 0.02818490
v 0.13247966 -0.07350374 0.02818490
v 0.13578762 -0.06948703 0.02783769
v 0.13578762 -0.06948703 0.02783769
v 0.13578762 -0.06948703 0.02783769
v 0.13578762 -0.06948703 0.02783769
v 0.13578762 -0.06948703 0.02783769
v 0.13950070 -0.06948703 0.02551107
v 0.13950070 -0.06948703 0.02551107
v 0.13950070 -0.06948703 0.02551107
v 0.13950070 -0.06948703 0.02551107
v 0.13950070 -0.06948703 0.02551107
v 0.13743723 -0.07709249 0.02420531
v 0.13743723 -0.07709249 0.02420531
v 0.13743723 -0.07709249 0.02420531
v 0.13743723 -0.07709249 0.02420531
v 0.13743723 -0.07709249 0.02420531
v 0.13743723 -0.07709249 0.02420531
v 0.13743723 -0.07709249 0.02420531
v 0.10972613 -0.08684227 0.00526591
v 0.10972613 -0.08684227 0.00526591
v 0.10972613 -0.08684227 0.00526591
v 0.10972613 -0.08684227 0.00526591
v 0.13277111 -0.08363915 0.02424092
v 0.13277111 -0.08363915 0.02424092
v 0.13277111 -0.08363915 0.02424092
v 0.13277111 -0.08363915 0.02424092
v 0.13277111 -0.08363915 0.02424092
v 0.12912798 -0.08350763 0.02689992
v 0.12912798 -0.08350763 0.02689992
v 0.12912798 -0.08350763 0.02689992
v 0.12912798 -0.08350763 0.02689992
v 0.12912798 -0.08350763 0.02689992
v 0.12925913 -0.08707409 0.02423795
v 0.12925913 -0.08707409 0.02423795
v 0.12925913 -0.08707409 0.02423795
v 0.12925913 -0.08707409 0.02423795
v 0.12925913 -0.08707409 0.02423795
v 0.12373032 -0.08845386 0.02583454
v 0.12373032 -0.08845386 0.02583454
v 0.12373032 -0.08845386 0.02583454
v 0.12373032 -0.08845386 0.02583454
v 0.11912541 -0.08908914 0.02706314
v 0.11912541 -0.08908914 0.02706314
v 0.11912541 -0.08908914 0.02706314
v 0.11912541 -0.08908914 0.02706314
v 0.11912541 -0.08908914 0.02706314
v 0.11912541 -0.08908914 0.02706314
v 0.11912541 -0.09180409 0.02452878
v 0.11912541 -0.09180409 0.02452878
v 0.11912541 -0.09180409 0.02452878
v 0.11912541 -0.09180409 0.02452878
v 0.11912541 -0.09180409 0.02452878
v 0.11405709 -0.09213622 0.02146916
v 0.11405709 -0.09213622 0.02146916
v 0.11405709 -0.09213622 0.02146916
v 0.11405709 -0.09213622 0.02146916
v 0.11405709 -0.09213622 0.02146916
v 0.10972613 -0.09187097 0.02562680
v 0.10972613 -0.09187097 0.02562680
v 0.10972613 -0.09187097 0.02562680
v 0.10972613 -0.09187097 0.02562680
v 0.11405709 -0.09213622 0.02505999
v 0.11405709 -0.09213622 0.02505999
v 0.11405709 -0.09213622 0.02505999
v 0.11405709 -0.09213622 0.02505999
v 0.11405709 -0.09213622 0.02505999
v 0.12174554 -0.08620922 0.02810181
v 0.12174554 -0.08620922 0.02810181
v 0.12174554 -0.08620922 0.02810181
v 0.12174554 -0.08620922 0.02810181
v 0.12174554 -0.08620922 0.02810181
v 0.12512054 -0.08510809 0.02786440
v 0.12512054 -0.08510809 0.02786440
v 0.12512054 -0.08510809 0.02786440
v 0.12512054 -0.08510809 0.02786440
v 0.12512054 -0.08510809 0.02786440
v 0.12512054 -0.08510809 0.02786440
v 0.12512054 -0.08510809 0.02786440
v 0.13073097 -0.07960238 0.02786736
v 0.13073097 -0.07960238 0.02786736
v 0.13073097 -0.07960238 0.02786736
v 0.13073097 -0.07960238 0.02786736
v 0.13073097 -0.07960238 0.02786736
v 0.13073097 -0.07960238 0.02786736
v 0.13073097 -0.07960238 0.02786736
v 0.13190842 -0.07622316 0.02811071
v 0.13190842 -0.07622316 0.02811071
v 0.13190842 -0.07622316 0.02811071
v 0.13190842 -0.07622316 0.02811071
v 0.13190842 -0.07622316 0.02811071
v 0.13895278 -0.06948703 0.02592654
v 0.13895278 -0.06948703 0.02592654
v 0.13895278 -0.06948703 0.02592654
v 0.13501528 -0.07350374 0.02756170
v 0.13501528 -0.07350374 0.02756170
v 0.13501528 -0.07350374 0.02756170
v 0.13501528 -0.07350374 0.02756170
v 0.13501528 -0.07350374 0.02756170
v 0.13501528 -0.07350374 0.02756170
v 0.13501528 -0.07350374 0.02756170
v 0.13501528 -0.07350374 0.02756170
v 0.13833781 -0.07350374 0.02502735
v 0.13833781 -0.07350374 0.02502735
v 0.13833781 -0.07350374 0.02502735
v 0.13415550 -0.07834743 0.02603634
v 0.13415550 -0.07834743 0.02603634
v 0.13415550 -0.07834743 0.02603634
v 0.13415550 -0.07834743 0.02603634
v 0.10972613 -0.09209386 0.02051358
v 0.10972613 -0.09209386 0.02051358
v 0.10972613 -0.09209386 0.02051358
v 0.10972613 -0.09225658 0.02525585
v 0.10972613 -0.09225658 0.02525585
v 0.10972613 -0.09225658 0.02525585
v 0.10972613 -0.09225658 0.02525585
f 5 7 13
f 4 12 20
f 2 18 34
f 1 33 28
f 2 29 68
f 2 68 105
f 2 105 172
f 2 172 219
f 2 219 287
f 2 287 377
f 2 377 380
f 2 380 326
f 2 326 242
f 2 242 176
f 2 176 109
f 2 109 57
f 2 57 21
f 3 23 64
f 3 64 122
f 3 122 196
f 3 196 270
f 3 270 359
f 3 359 275
f 3 275 207
f 3 207 204
f 3 204 201
f 3 201 124
f 3 124 71
f 3 71 65
f 3 65 24
f 3 24 6
f 8 25 16
f 9 31 35
f 11 36 19
f 17 26 38
f 15 37 47
f 14 45 56
f 10 53 32
f 22 59 62
f 27 66 39
f 30 51 70
f 40 67 72
f 43 73 76
f 42 75 82
f 41 81 49
f 48 80 87
f 46 85 98
f 44 96 55
f 54 95 102
f 52 100 107
f 50 106 69
f 58 110 113
f 61 114 119
f 60 118 63
f 74 125 77
f 78 126 128
f 79 129 83
f 84 131 90
f 89 140 144
f 88 143 153
f 86 150 99
f 93 132 154
f 94 155 161
f 92 158 170
f 91 169 141
f 97 148 104
f 103 146 175
f 101 173 108
f 112 177 182
f 111 181 115
f 117 184 189
f 117 189 186
f 116 185 120
f 121 187 190
f 123 192 197
f 127 202 130
f 135 203 205
f 136 206 209
f 134 208 213
f 133 212 157
f 138 218 151
f 139 152 142
f 137 168 217
f 145 220 174
f 149 216 167
f 147 166 223
f 156 211 162
f 163 214 284
f 163 284 229
f 160 226 236
f 159 235 171
f 164 230 317
f 164 317 238
f 165 241 222
f 179 244 246
f 180 247 191
f 178 188 183
f 194 254 259
f 193 258 198
f 195 248 255
f 199 261 266
f 200 268 271
f 210 279 286
f 210 286 215
f 221 240 290
f 228 283 295
f 227 291 299
f 225 298 305
f 224 304 234
f 233 302 309
f 232 306 314
f 231 313 320
f 237 316 333
f 237 333 324
f 239 325 289
f 243 327 245
f 249 329 332
f 251 334 318
f 253 319 311
f 252 310 338
f 250 336 257
f 256 335 260
f 263 337 340
f 265 342 348
f 264 347 355
f 262 354 267
f 269 356 272
f 273 357 362
f 274 364 360
f 276 361 368
f 277 369 371
f 278 372 285
f 282 370 367
f 280 366 375
f 281 376 294
f 288 323 379
f 293 374 353
f 292 351 300
f 296 350 344
f 297 346 303
f 301 345 308
f 307 343 315
f 312 341 339
f 322 330 382
f 321 381 378
f 328 383 331
f 352 373 365
f 349 363 358

