# https://github.com/mikedh/trimesh
v 0.15344599 -0.01266715 0.02504375
v 0.15344599 -0.01266715 0.02504375
v 0.15344599 -0.01266715 0.02504375
v 0.15344599 -0.01266715 0.02504375
v 0.15344307 -0.01774035 0.02504972
v 0.15344307 -0.01774035 0.02504972
v 0.15344307 -0.01774035 0.02504972
v 0.15344307 -0.01774035 0.02504972
v 0.15344307 -0.01774035 0.02504972
v 0.15344307 -0.01774035 0.02504972
v 0.15344307 -0.01774035 0.02504972
v 0.15344307 -0.02281356 0.02504852
v 0.15344307 -0.02281356 0.02504852
v 0.15344307 -0.02281356 0.02504852
v 0.15344307 -0.02281356 0.02504852
v 0.15344307 -0.02281356 0.02504852
v 0.15344599 -0.01266715 0.02166016
v 0.15344599 -0.01266715 0.02166016
v 0.15344599 -0.01266715 0.02166016
v 0.15344599 -0.01266715 0.02166016
v 0.15344599 -0.01266715 0.02166016
v 0.15344599 0.01773148 0.02504256
v 0.15344599 0.01773148 0.02504256
v 0.15344599 0.01773148 0.02504256
v 0.15344599 0.01773148 0.02504256
v 0.15344599 0.01773148 0.02504256
v 0.14953482 -0.02281356 0.02749349
v 0.14953482 -0.02281356 0.02749349
v 0.14953482 -0.02281356 0.02749349
v 0.14953482 -0.02281356 0.02749349
v 0.14953482 -0.02281356 0.02749349
v 0.14953482 -0.02787323 0.02749349
v 0.14953482 -0.02787323 0.02749349
v 0.14953482 -0.02787323 0.02749349
v 0.14953482 -0.02787323 0.02749349
v 0.14953482 -0.02787323 0.02749349
v 0.14953482 -0.02787323 0.02749349
v 0.14953482 -0.02787323 0.02749349
v 0.14953482 -0.02787323 0.02749349
v 0.15344014 -0.02787323 0.02504972
v 0.15344014 -0.02787323 0.02504972
v 0.15344014 -0.02787323 0.02504972
v 0.15344014 -0.02787323 0.02504972
v 0.15344307 0.02280469 0.02504614
v 0.15344307 0.02280469 0.02504614
v 0.15344307 0.02280469 0.02504614
v 0.15344307 0.02280469 0.02504614
v 0.15344307 0.02280469 0.02504614
v 0.15344307 0.02280469 0.02504614
v 0.15344307 -0.02281356 0.02166016
v 0.15344307 -0.02281356 0.02166016
v 0.15344307 -0.02281356 0.02166016
v 0.15344307 -0.02281356 0.02166016
v 0.15344307 -0.02281356 0.02166016
v 0.15344307 -0.02281356 0.02166016
v 0.15343722 -0.03294643 0.02504375
v 0.15343722 -0.03294643 0.02504375
v 0.15343722 -0.03294643 0.02504375
v 0.15343722 -0.03294643 0.02504375
v 0.15344307 -0.01774035 0.02165897
v 0.15344307 -0.01774035 0.02165897
v 0.15344307 -0.01774035 0.02165897
v 0.14953482 -0.01774035 0.02027309
v 0.14953482 -0.01774035 0.02027309
v 0.14953482 -0.01774035 0.02027309
v 0.14953482 -0.01774035 0.02027309
v 0.14953482 -0.01774035 0.02027309
v 0.14953482 -0.01774035 0.02027309
v 0.14953482 -0.01774035 0.02027309
v 0.14953482 -0.01774035 0.02027309
v 0.14953482 -0.01774035 0.02027309
v 0.15344599 0.01773148 0.02166374
v 0.15344599 0.01773148 0.02166374
v 0.15344599 0.01773148 0.02166374
v 0.15344599 0.01773148 0.02166374
v 0.15344599 0.01773148 0.02166374
v 0.15344599 0.01773148 0.02166374
v 0.14646615 -0.00253427 0.02800872
v 0.14646615 -0.00253427 0.02800872
v 0.14646615 -0.00253427 0.02800872
v 0.14646615 -0.00253427 0.02800872
v 0.14646615 -0.00253427 0.02800872
v 0.14646615 -0.00253427 0.02800872
v 0.14646615 -0.00253427 0.02800872
v 0.14646615 -0.00253427 0.02800872
v 0.14646615 -0.00253427 0.02800872
v 0.14953482 0.03801077 0.02748394
v 0.14953482 0.03801077 0.02748394
v 0.14953482 0.03801077 0.02748394
v 0.14953482 0.03801077 0.02748394
v 0.14953482 0.03801077 0.02748394
v 0.14953482 0.03801077 0.02748394
v 0.14953482 0.03801077 0.02748394
v 0.14953482 0.03801077 0.02748394
v 0.14646029 -0.02787323 0.02800752
v 0.14646029 -0.02787323 0.02800752
v 0.14646029 -0.02787323 0.02800752
v 0.14646029 -0.02787323 0.02800752
v 0.14646029 -0.02787323 0.02800752
v 0.14646029 -0.02787323 0.02800752
v 0.14646029 -0.02787323 0.02800752
v 0.14646029 -0.02787323 0.02800752
v 0.14953482 -0.03294643 0.02748037
v 0.14953482 -0.03294643 0.02748037
v 0.14953482 -0.03294643 0.02748037
v 0.14953482 -0.03294643 0.02748037
v 0.14953482 -0.03294643 0.02748037
v 0.14953482 -0.03294643 0.02748037
v 0.15343428 -0.03800611 0.02503421
v 0.15343428 -0.03800611 0.02503421
v 0.15343428 -0.03800611 0.02503421
v 0.15343428 -0.03800611 0.02503421
v 0.15343428 -0.03800611 0.02503421
v 0.15343428 -0.03800611 0.02503421
v 0.15343428 -0.03800611 0.02503421
v 0.15344014 0.02787789 0.02504494
v 0.15344014 0.02787789 0.02504494
v 0.15344014 0.02787789 0.02504494
v 0.15343428 0.03801077 0.02504852
v 0.15343428 0.03801077 0.02504852
v 0.15343428 0.03801077 0.02504852
v 0.15343428 0.03801077 0.02504852
v 0.15343428 0.03801077 0.02504852
v 0.15343428 0.03801077 0.02504852
v 0.14953482 -0.02281356 0.02027548
v 0.14953482 -0.02281356 0.02027548
v 0.14953482 -0.02281356 0.02027548
v 0.14953482 -0.02281356 0.02027548
v 0.14953482 -0.02281356 0.02027548
v 0.15343722 -0.03294643 0.02166493
v 0.15343722 -0.03294643 0.02166493
v 0.15343722 -0.03294643 0.02166493
v 0.15343722 -0.03294643 0.02166493
v 0.13553124 -0.00000444 0.01630986
v 0.13553124 -0.00000444 0.01630986
v 0.13553124 -0.00000444 0.01630986
v 0.13553124 -0.00000444 0.01630986
v 0.13553124 -0.00000444 0.01630986
v 0.13553124 -0.00000444 0.01630986
v 0.13553124 -0.00000444 0.01630986
v 0.13553124 -0.00000444 0.01630986
v 0.13553124 -0.00000444 0.01630986
v 0.13553124 -0.00000444 0.01630986
v 0.13553124 -0.00000444 0.01630986
v 0.13553124 -0.00000444 0.01630986
v 0.13553124 -0.00000444 0.01630986
v 0.13553124 -0.00000444 0.01630986
v 0.13553124 -0.00000444 0.01630986
v 0.13553124 -0.00000444 0.01630986
v 0.13553124 -0.00000444 0.01630986
v 0.13554002 0.00759861 0.01630986
v 0.13554002 0.00759861 0.01630986
v 0.13554002 0.00759861 0.01630986
v 0.13554294 0.01267181 0.01630986
v 0.13554294 0.01267181 0.01630986
v 0.13554294 0.01267181 0.01630986
v 0.13554294 0.01267181 0.01630986
v 0.13554294 0.01267181 0.01630986
v 0.13554294 0.01267181 0.01630986
v 0.14953482 0.01773148 0.02027786
v 0.14953482 0.01773148 0.02027786
v 0.14953482 0.01773148 0.02027786
v 0.14953482 0.01773148 0.02027786
v 0.14953482 0.02280469 0.02027905
v 0.14953482 0.02280469 0.02027905
v 0.14953482 0.02280469 0.02027905
v 0.14953482 0.02280469 0.02027905
v 0.14953482 0.02280469 0.02027905
v 0.14953482 0.02280469 0.02027905
v 0.14953482 0.02280469 0.02027905
v 0.15344014 0.02787789 0.02166612
v 0.15344014 0.02787789 0.02166612
v 0.15344014 0.02787789 0.02166612
v 0.15344014 0.02787789 0.02166612
v 0.14392988 -0.00000444 0.02828422
v 0.14392988 -0.00000444 0.02828422
v 0.14392988 -0.00000444 0.02828422
v 0.14392988 -0.00000444 0.02828422
v 0.14392988 -0.00000444 0.02828422
v 0.14392988 -0.00253427 0.02828422
v 0.14392988 -0.00253427 0.02828422
v 0.14392403 -0.02787323 0.02828422
v 0.14392403 -0.02787323 0.02828422
v 0.14392403 -0.02787323 0.02828422
v 0.14392403 -0.02787323 0.02828422
v 0.14392403 -0.02787323 0.02828422
v 0.14646029 0.00759861 0.02800633
v 0.14646029 0.00759861 0.02800633
v 0.14646029 0.00759861 0.02800633
v 0.14646029 0.00759861 0.02800633
v 0.14387722 0.03801077 0.02828422
v 0.14387722 0.03801077 0.02828422
v 0.14387722 0.03801077 0.02828422
v 0.14387722 0.03801077 0.02828422
v 0.14387722 0.03801077 0.02828422
v 0.14387722 0.03801077 0.02828422
v 0.14387722 0.03801077 0.02828422
v 0.14387722 0.03801077 0.02828422
v 0.14392403 0.00759861 0.02828422
v 0.14392403 0.00759861 0.02828422
v 0.14392403 0.00759861 0.02828422
v 0.14392403 0.00759861 0.02828422
v 0.14953482 0.04308397 0.02743147
v 0.14953482 0.04308397 0.02743147
v 0.14953482 0.04308397 0.02743147
v 0.14953482 0.04308397 0.02743147
v 0.14953482 0.04308397 0.02743147
v 0.14953482 0.04308397 0.02743147
v 0.14953482 0.04308397 0.02743147
v 0.14636669 0.04308397 0.02799083
v 0.14636669 0.04308397 0.02799083
v 0.14636669 0.04308397 0.02799083
v 0.14636669 0.04308397 0.02799083
v 0.14636669 0.04308397 0.02799083
v 0.14636669 0.04308397 0.02799083
v 0.14636669 0.04308397 0.02799083
v 0.14641057 0.03801077 0.02799560
v 0.14641057 0.03801077 0.02799560
v 0.14641057 0.03801077 0.02799560
v 0.14641057 0.03801077 0.02799560
v 0.14388600 -0.03294643 0.02828422
v 0.14388600 -0.03294643 0.02828422
v 0.14388600 -0.03294643 0.02828422
v 0.14388600 -0.03294643 0.02828422
v 0.14383919 -0.03800611 0.02828422
v 0.14383919 -0.03800611 0.02828422
v 0.14383919 -0.03800611 0.02828422
v 0.14383919 -0.03800611 0.02828422
v 0.14375143 -0.04307931 0.02828422
v 0.14375143 -0.04307931 0.02828422
v 0.14375143 -0.04307931 0.02828422
v 0.14375143 -0.04307931 0.02828422
v 0.14375143 -0.04307931 0.02828422
v 0.14375143 -0.04307931 0.02828422
v 0.14375143 -0.04307931 0.02828422
v 0.14375143 -0.04307931 0.02828422
v 0.14641934 -0.03294643 0.02799918
v 0.14641934 -0.03294643 0.02799918
v 0.14641934 -0.03294643 0.02799918
v 0.14641934 -0.03294643 0.02799918
v 0.14637253 -0.03800611 0.02798964
v 0.14637253 -0.03800611 0.02798964
v 0.14637253 -0.03800611 0.02798964
v 0.14637253 -0.03800611 0.02798964
v 0.14637253 -0.03800611 0.02798964
v 0.14953482 -0.03800611 0.02746128
v 0.14953482 -0.03800611 0.02746128
v 0.14953482 -0.03800611 0.02746128
v 0.14953482 -0.03800611 0.02746128
v 0.14953482 -0.03800611 0.02746128
v 0.15343428 -0.03800611 0.02166851
v 0.15343428 -0.03800611 0.02166851
v 0.15343428 -0.03800611 0.02166851
v 0.15343428 -0.03800611 0.02166851
v 0.15343428 -0.03800611 0.02166851
v 0.14953482 -0.04307931 0.02740165
v 0.14953482 -0.04307931 0.02740165
v 0.14953482 -0.04307931 0.02740165
v 0.14953482 -0.04307931 0.02740165
v 0.14953482 -0.04307931 0.02740165
v 0.14953482 -0.04307931 0.02740165
v 0.14953482 -0.04307931 0.02740165
v 0.15336701 -0.04307931 0.02499485
v 0.15336701 -0.04307931 0.02499485
v 0.15336701 -0.04307931 0.02499485
v 0.15336701 -0.04307931 0.02499485
v 0.15336701 -0.04307931 0.02499485
v 0.15343428 0.03801077 0.02167567
v 0.15343428 0.03801077 0.02167567
v 0.15343428 0.03801077 0.02167567
v 0.15343428 0.03801077 0.02167567
v 0.15343428 0.03801077 0.02167567
v 0.15343428 0.03801077 0.02167567
v 0.15343428 0.03801077 0.02167567
v 0.15336115 0.04308397 0.02500201
v 0.15336115 0.04308397 0.02500201
v 0.15336115 0.04308397 0.02500201
v 0.15336115 0.04308397 0.02500201
v 0.15336115 0.04308397 0.02500201
v 0.14953482 -0.03800611 0.02028860
v 0.14953482 -0.03800611 0.02028860
v 0.14953482 -0.03800611 0.02028860
v 0.14953482 -0.03800611 0.02028860
v 0.14953482 -0.03800611 0.02028860
v 0.14953482 -0.03800611 0.02028860
v 0.14953482 -0.03800611 0.02028860
v 0.14953482 -0.03800611 0.02028860
v 0.14953482 -0.03800611 0.02028860
v 0.14953482 -0.03800611 0.02028860
v 0.14953482 -0.03800611 0.02028860
v 0.12686056 -0.00000444 0.01630986
v 0.12686056 -0.00000444 0.01630986
v 0.12686056 -0.00000444 0.01630986
v 0.13553710 -0.02787323 0.01634803
v 0.13553710 -0.02787323 0.01634803
v 0.13553710 -0.02787323 0.01634803
v 0.13550492 -0.03137712 0.01634803
v 0.13550492 -0.03137712 0.01634803
v 0.13550492 -0.03137712 0.01634803
v 0.13550492 -0.03137712 0.01634803
v 0.13549029 -0.03294643 0.01634803
v 0.13549029 -0.03294643 0.01634803
v 0.13549029 -0.03294643 0.01634803
v 0.13549029 -0.03294643 0.01634803
v 0.13542593 -0.03645033 0.01634803
v 0.13542593 -0.03645033 0.01634803
v 0.13542593 -0.03645033 0.01634803
v 0.13542593 -0.03645033 0.01634803
v 0.13539668 -0.03800611 0.01634803
v 0.13539668 -0.03800611 0.01634803
v 0.13539668 -0.03800611 0.01634803
v 0.13539668 -0.03800611 0.01634803
v 0.13524457 -0.04307931 0.01634803
v 0.13524457 -0.04307931 0.01634803
v 0.13524457 -0.04307931 0.01634803
v 0.13524457 -0.04307931 0.01634803
v 0.13524457 -0.04307931 0.01634803
v 0.13502223 -0.04815251 0.01634803
v 0.13502223 -0.04815251 0.01634803
v 0.13502223 -0.04815251 0.01634803
v 0.13502223 -0.04815251 0.01634803
v 0.13476773 -0.05321219 0.01634803
v 0.13476773 -0.05321219 0.01634803
v 0.13476773 -0.05321219 0.01634803
v 0.13476773 -0.05321219 0.01634803
v 0.13424117 -0.06334507 0.01634803
v 0.13424117 -0.06334507 0.01634803
v 0.13424117 -0.06334507 0.01634803
v 0.13424117 -0.06334507 0.01634803
v 0.13393693 -0.06843180 0.01634803
v 0.13393693 -0.06843180 0.01634803
v 0.13393693 -0.06843180 0.01634803
v 0.13393693 -0.06843180 0.01634803
v 0.13393693 -0.06843180 0.01634803
v 0.13374386 -0.06948703 0.01634803
v 0.13374386 -0.06948703 0.01634803
v 0.13374386 -0.06948703 0.01634803
v 0.13374386 -0.06948703 0.01634803
v 0.13374386 -0.06948703 0.01634803
v 0.13374386 -0.06948703 0.01634803
v 0.13374386 -0.06948703 0.01634803
v 0.13374386 -0.06948703 0.01634803
v 0.13374386 -0.06948703 0.01634803
v 0.13551955 0.02787789 0.01630986
v 0.13551955 0.02787789 0.01630986
v 0.13551955 0.02787789 0.01630986
v 0.13551955 0.02787789 0.01630986
v 0.13551955 0.02787789 0.01630986
v 0.13551955 0.02787789 0.01630986
v 0.14953482 0.02787789 0.02028383
v 0.14953482 0.02787789 0.02028383
v 0.14953482 0.02787789 0.02028383
v 0.14953482 0.02787789 0.02028383
v 0.15343722 0.03293756 0.02166851
v 0.15343722 0.03293756 0.02166851
v 0.15343722 0.03293756 0.02166851
v 0.15343722 0.03293756 0.02166851
v 0.15343722 0.03293756 0.02166851
v 0.13939854 -0.04307931 0.02847624
v 0.13939854 -0.04307931 0.02847624
v 0.13939854 -0.04307931 0.02847624
v 0.13939854 -0.04307931 0.02847624
v 0.13939854 -0.04307931 0.02847624
v 0.13939854 -0.04307931 0.02847624
v 0.13939854 -0.04307931 0.02847624
v 0.13939854 -0.04307931 0.02847624
v 0.13939854 -0.04307931 0.02847624
v 0.13939561 0.03801077 0.02847386
v 0.13939561 0.03801077 0.02847386
v 0.13939561 0.03801077 0.02847386
v 0.13939561 0.03801077 0.02847386
v 0.13939561 0.03801077 0.02847386
v 0.13939561 0.03801077 0.02847386
v 0.13939561 0.03801077 0.02847386
v 0.14383335 0.04308397 0.02827707
v 0.14383335 0.04308397 0.02827707
v 0.14383335 0.04308397 0.02827707
v 0.14383335 0.04308397 0.02827707
v 0.14383335 0.04308397 0.02827707
v 0.13939561 0.04308397 0.02846670
v 0.13939561 0.04308397 0.02846670
v 0.13939561 0.04308397 0.02846670
v 0.13939561 0.04308397 0.02846670
v 0.13939561 0.04308397 0.02846670
v 0.13939561 0.04308397 0.02846670
v 0.14953482 0.04814365 0.02632825
v 0.14953482 0.04814365 0.02632825
v 0.14953482 0.04814365 0.02632825
v 0.14953482 0.04814365 0.02632825
v 0.14953482 0.04814365 0.02632825
v 0.14953482 0.04814365 0.02632825
v 0.14953482 0.04814365 0.02632825
v 0.14953482 0.04814365 0.02632825
v 0.14422241 0.05324390 0.02765569
v 0.14422241 0.05324390 0.02765569
v 0.14422241 0.05324390 0.02765569
v 0.14422241 0.05324390 0.02765569
v 0.14422241 0.05324390 0.02765569
v 0.14422241 0.05324390 0.02765569
v 0.14422241 0.05324390 0.02765569
v 0.14569385 0.04814365 0.02786202
v 0.14569385 0.04814365 0.02786202
v 0.14569385 0.04814365 0.02786202
v 0.14569385 0.04814365 0.02786202
v 0.14569385 0.04814365 0.02786202
v 0.14569385 0.04814365 0.02786202
v 0.14569385 0.04814365 0.02786202
v 0.14315759 0.04814365 0.02821982
v 0.14315759 0.04814365 0.02821982
v 0.14315759 0.04814365 0.02821982
v 0.14315759 0.04814365 0.02821982
v 0.14315759 0.04814365 0.02821982
v 0.14315759 0.04814365 0.02821982
v 0.14315759 0.04814365 0.02821982
v 0.14315759 0.04814365 0.02821982
v 0.13939854 -0.04815251 0.02841780
v 0.13939854 -0.04815251 0.02841780
v 0.13939854 -0.04815251 0.02841780
v 0.13939854 -0.04815251 0.02841780
v 0.14311956 -0.04815251 0.02822459
v 0.14311956 -0.04815251 0.02822459
v 0.14311956 -0.04815251 0.02822459
v 0.14311956 -0.04815251 0.02822459
v 0.14311956 -0.04815251 0.02822459
v 0.14311956 -0.04815251 0.02822459
v 0.14311956 -0.04815251 0.02822459
v 0.14311956 -0.04815251 0.02822459
v 0.14628477 -0.04307931 0.02796936
v 0.14628477 -0.04307931 0.02796936
v 0.14628477 -0.04307931 0.02796936
v 0.14628477 -0.04307931 0.02796936
v 0.14628477 -0.04307931 0.02796936
v 0.14628477 -0.04307931 0.02796936
v 0.15336701 -0.04307931 0.02173053
v 0.15336701 -0.04307931 0.02173053
v 0.15336701 -0.04307931 0.02173053
v 0.15336701 -0.04307931 0.02173053
v 0.15336701 -0.04307931 0.02173053
v 0.15336701 -0.04307931 0.02173053
v 0.14953482 -0.04307931 0.02034465
v 0.14953482 -0.04307931 0.02034465
v 0.14953482 -0.04307931 0.02034465
v 0.14953482 -0.04307931 0.02034465
v 0.14953482 -0.04307931 0.02034465
v 0.14953482 -0.04307931 0.02034465
v 0.14953482 -0.04307931 0.02034465
v 0.14953482 -0.04307931 0.02034465
v 0.14565290 -0.04815251 0.02785248
v 0.14565290 -0.04815251 0.02785248
v 0.14565290 -0.04815251 0.02785248
v 0.14565290 -0.04815251 0.02785248
v 0.14565290 -0.04815251 0.02785248
v 0.14565290 -0.04815251 0.02785248
v 0.14565290 -0.04815251 0.02785248
v 0.14421072 -0.05319866 0.02765807
v 0.14421072 -0.05319866 0.02765807
v 0.14421072 -0.05319866 0.02765807
v 0.14421072 -0.05319866 0.02765807
v 0.14421072 -0.05319866 0.02765807
v 0.14953482 -0.04815251 0.02636284
v 0.14953482 -0.04815251 0.02636284
v 0.14953482 -0.04815251 0.02636284
v 0.14953482 -0.04815251 0.02636284
v 0.14953482 -0.04815251 0.02636284
v 0.14953482 -0.04815251 0.02636284
v 0.14953482 -0.04815251 0.02636284
v 0.14953482 -0.04815251 0.02636284
v 0.14953482 -0.04815251 0.02636284
v 0.15271760 -0.04815251 0.02407173
v 0.15271760 -0.04815251 0.02407173
v 0.15271760 -0.04815251 0.02407173
v 0.15271760 -0.04815251 0.02407173
v 0.15271760 -0.04815251 0.02407173
v 0.15271760 -0.04815251 0.02407173
v 0.14953482 0.03293756 0.02028979
v 0.14953482 0.03293756 0.02028979
v 0.14953482 0.03293756 0.02028979
v 0.14953482 0.03293756 0.02028979
v 0.14953482 0.03293756 0.02028979
v 0.14953482 0.03801077 0.02029814
v 0.14953482 0.03801077 0.02029814
v 0.14953482 0.03801077 0.02029814
v 0.14953482 0.03801077 0.02029814
v 0.14953482 0.03801077 0.02029814
v 0.14953482 0.03801077 0.02029814
v 0.14953482 0.03801077 0.02029814
v 0.14953482 0.03801077 0.02029814
v 0.14953482 0.03801077 0.02029814
v 0.14953482 0.03801077 0.02029814
v 0.14953482 0.04308397 0.02036970
v 0.14953482 0.04308397 0.02036970
v 0.14953482 0.04308397 0.02036970
v 0.14953482 0.04308397 0.02036970
v 0.14953482 0.04308397 0.02036970
v 0.14953482 0.04308397 0.02036970
v 0.14953482 0.04308397 0.02036970
v 0.14953482 0.04308397 0.02036970
v 0.14953482 0.04308397 0.02036970
v 0.15336115 0.04308397 0.02174603
v 0.15336115 0.04308397 0.02174603
v 0.15336115 0.04308397 0.02174603
v 0.15336115 0.04308397 0.02174603
v 0.15336115 0.04308397 0.02174603
v 0.15270003 0.04814365 0.02402999
v 0.15270003 0.04814365 0.02402999
v 0.15270003 0.04814365 0.02402999
v 0.15270003 0.04814365 0.02402999
v 0.15270003 0.04814365 0.02402999
v 0.15270003 0.04814365 0.02402999
v 0.12386208 0.06872056 0.01630986
v 0.12386208 0.06872056 0.01630986
v 0.12386208 0.06872056 0.01630986
v 0.12386208 0.06872056 0.01630986
v 0.12386208 0.06872056 0.01630986
v 0.12356370 -0.06948703 0.01634803
v 0.12356370 -0.06948703 0.01634803
v 0.12356370 -0.06948703 0.01634803
v 0.12356370 -0.06948703 0.01634803
v 0.14259300 -0.06717364 0.02240916
v 0.14259300 -0.06717364 0.02240916
v 0.14259300 -0.06717364 0.02240916
v 0.14259300 -0.06717364 0.02240916
v 0.14259300 -0.06717364 0.02240916
v 0.13949800 -0.06948703 0.02160291
v 0.13949800 -0.06948703 0.02160291
v 0.13949800 -0.06948703 0.02160291
v 0.15271760 -0.04815251 0.02236861
v 0.15271760 -0.04815251 0.02236861
v 0.15271760 -0.04815251 0.02236861
v 0.15271760 -0.04815251 0.02236861
v 0.15211204 -0.05076353 0.02297209
v 0.15211204 -0.05076353 0.02297209
v 0.15211204 -0.05076353 0.02297209
v 0.15211204 -0.05076353 0.02297209
v 0.15211204 -0.05076353 0.02297209
v 0.14779425 -0.05728428 0.02231732
v 0.14779425 -0.05728428 0.02231732
v 0.14779425 -0.05728428 0.02231732
v 0.13546981 0.03293756 0.01630986
v 0.13546981 0.03293756 0.01630986
v 0.13546981 0.03293756 0.01630986
v 0.13433478 -0.05321219 0.02849413
v 0.13433478 -0.05321219 0.02849413
v 0.13433478 -0.05321219 0.02849413
v 0.13433478 -0.05321219 0.02849413
v 0.13433478 -0.05321219 0.02849413
v 0.13433478 -0.05321219 0.02849413
v 0.13433478 -0.05321219 0.02849413
v 0.13433478 -0.05828540 0.02846193
v 0.13433478 -0.05828540 0.02846193
v 0.13433478 -0.05828540 0.02846193
v 0.13433478 -0.05828540 0.02846193
v 0.13433478 -0.05828540 0.02846193
v 0.13433478 -0.05828540 0.02846193
v 0.13433478 -0.05828540 0.02846193
v 0.13433478 -0.05828540 0.02846193
v 0.13433478 -0.05828540 0.02846193
v 0.13433478 0.05321685 0.02847863
v 0.13433478 0.05321685 0.02847863
v 0.13433478 0.05321685 0.02847863
v 0.13433478 0.05321685 0.02847863
v 0.13433478 0.05321685 0.02847863
v 0.13433478 0.05321685 0.02847863
v 0.13939561 0.04814365 0.02841065
v 0.13939561 0.04814365 0.02841065
v 0.13939561 0.04814365 0.02841065
v 0.13939561 0.04814365 0.02841065
v 0.13433478 0.05827652 0.02845000
v 0.13433478 0.05827652 0.02845000
v 0.13433478 0.05827652 0.02845000
v 0.13433478 0.05827652 0.02845000
v 0.13433478 0.05827652 0.02845000
v 0.13433478 0.05827652 0.02845000
v 0.13433478 0.05827652 0.02845000
v 0.13433478 0.05827652 0.02845000
v 0.13433478 0.05827652 0.02845000
v 0.14949972 0.05272983 0.02469192
v 0.14949972 0.05272983 0.02469192
v 0.14949972 0.05272983 0.02469192
v 0.14778255 0.05726188 0.02428522
v 0.14778255 0.05726188 0.02428522
v 0.14778255 0.05726188 0.02428522
v 0.14778255 0.05726188 0.02428522
v 0.14778255 0.05726188 0.02428522
v 0.14778255 0.05726188 0.02428522
v 0.14358761 0.06334972 0.02497458
v 0.14358761 0.06334972 0.02497458
v 0.14358761 0.06334972 0.02497458
v 0.14358761 0.06334972 0.02497458
v 0.14358761 0.06334972 0.02497458
v 0.13921132 0.06352560 0.02759486
v 0.13921132 0.06352560 0.02759486
v 0.13921132 0.06352560 0.02759486
v 0.13921132 0.06352560 0.02759486
v 0.13921132 0.06352560 0.02759486
v 0.13586473 0.06872056 0.02786798
v 0.13586473 0.06872056 0.02786798
v 0.13586473 0.06872056 0.02786798
v 0.13586473 0.06872056 0.02786798
v 0.13586473 0.06872056 0.02786798
v 0.13592031 0.06842293 0.02789303
v 0.13592031 0.06842293 0.02789303
v 0.13592031 0.06842293 0.02789303
v 0.13572139 0.06872056 0.02790734
v 0.13572139 0.06872056 0.02790734
v 0.13572139 0.06872056 0.02790734
v 0.13572139 0.06872056 0.02790734
v 0.13572139 0.06872056 0.02790734
v 0.13572139 0.06872056 0.02790734
v 0.13654633 0.06533842 0.02804211
v 0.13654633 0.06533842 0.02804211
v 0.13654633 0.06533842 0.02804211
v 0.13654633 0.06533842 0.02804211
v 0.13654633 0.06533842 0.02804211
v 0.14237067 0.05157990 0.02814468
v 0.14237067 0.05157990 0.02814468
v 0.14237067 0.05157990 0.02814468
v 0.14237067 0.05157990 0.02814468
v 0.14237067 0.05157990 0.02814468
v 0.13333139 0.06872056 0.02826156
v 0.13333139 0.06872056 0.02826156
v 0.13333139 0.06872056 0.02826156
v 0.13333139 0.06872056 0.02826156
v 0.13333139 0.06872056 0.02826156
v 0.13333139 0.06872056 0.02826156
v 0.13333139 0.06872056 0.02826156
v 0.13333139 0.06872056 0.02826156
v 0.13338697 0.06842293 0.02826633
v 0.13338697 0.06842293 0.02826633
v 0.13338697 0.06842293 0.02826633
v 0.14235019 -0.05150759 0.02814110
v 0.14235019 -0.05150759 0.02814110
v 0.14235019 -0.05150759 0.02814110
v 0.14235019 -0.05150759 0.02814110
v 0.13346010 -0.06843180 0.02827707
v 0.13346010 -0.06843180 0.02827707
v 0.13346010 -0.06843180 0.02827707
v 0.13325826 -0.06948703 0.02825799
v 0.13325826 -0.06948703 0.02825799
v 0.13325826 -0.06948703 0.02825799
v 0.13325826 -0.06948703 0.02825799
v 0.13325826 -0.06948703 0.02825799
v 0.13325826 -0.06948703 0.02825799
v 0.13325826 -0.06948703 0.02825799
v 0.13325826 -0.06948703 0.02825799
v 0.13659022 -0.06534729 0.02804927
v 0.13659022 -0.06534729 0.02804927
v 0.13659022 -0.06534729 0.02804927
v 0.13659022 -0.06534729 0.02804927
v 0.13599344 -0.06843180 0.02790973
v 0.13599344 -0.06843180 0.02790973
v 0.13599344 -0.06843180 0.02790973
v 0.13599344 -0.06843180 0.02790973
v 0.13599344 -0.06843180 0.02790973
v 0.13579160 -0.06948703 0.02783697
v 0.13579160 -0.06948703 0.02783697
v 0.13579160 -0.06948703 0.02783697
v 0.13579160 -0.06948703 0.02783697
v 0.13579160 -0.06948703 0.02783697
v 0.13895095 -0.06948703 0.02592752
v 0.13895095 -0.06948703 0.02592752
v 0.13895095 -0.06948703 0.02592752
v 0.13895095 -0.06948703 0.02592752
v 0.13895095 -0.06948703 0.02592752
v 0.14360224 -0.06334507 0.02498889
v 0.14360224 -0.06334507 0.02498889
v 0.14360224 -0.06334507 0.02498889
v 0.14360224 -0.06334507 0.02498889
v 0.14779425 -0.05728428 0.02429476
v 0.14779425 -0.05728428 0.02429476
v 0.14779425 -0.05728428 0.02429476
v 0.14779425 -0.05728428 0.02429476
v 0.14779425 -0.05728428 0.02429476
v 0.14779425 -0.05728428 0.02429476
v 0.14950556 -0.05275222 0.02473008
v 0.14950556 -0.05275222 0.02473008
v 0.14950556 -0.05275222 0.02473008
v 0.15211204 -0.05076353 0.02313549
v 0.15211204 -0.05076353 0.02313549
v 0.15211204 -0.05076353 0.02313549
v 0.15211204 -0.05076353 0.02313549
v 0.13537912 0.03801077 0.01630986
v 0.13537912 0.03801077 0.01630986
v 0.13537912 0.03801077 0.01630986
v 0.13533817 0.03941773 0.01630986
v 0.13533817 0.03941773 0.01630986
v 0.13533817 0.03941773 0.01630986
v 0.13522994 0.04308397 0.01630986
v 0.13522994 0.04308397 0.01630986
v 0.13522994 0.04308397 0.01630986
v 0.13518020 0.04443683 0.01630986
v 0.13518020 0.04443683 0.01630986
v 0.13518020 0.04443683 0.01630986
v 0.13495788 0.04946944 0.01630986
v 0.13495788 0.04946944 0.01630986
v 0.13495788 0.04946944 0.01630986
v 0.13495788 0.04946944 0.01630986
v 0.13469753 0.05448853 0.01630986
v 0.13469753 0.05448853 0.01630986
v 0.13469753 0.05448853 0.01630986
v 0.13443132 0.05953468 0.01630986
v 0.13443132 0.05953468 0.01630986
v 0.13443132 0.05953468 0.01630986
v 0.13415634 0.06456730 0.01630986
v 0.13415634 0.06456730 0.01630986
v 0.13415634 0.06456730 0.01630986
v 0.13389598 0.06842293 0.01630986
v 0.13389598 0.06842293 0.01630986
v 0.13389598 0.06842293 0.01630986
v 0.13386088 0.06872056 0.01630986
v 0.13386088 0.06872056 0.01630986
v 0.13386088 0.06872056 0.01630986
v 0.13386088 0.06872056 0.01630986
v 0.13386088 0.06872056 0.01630986
v 0.13386088 0.06872056 0.01630986
v 0.13386088 0.06872056 0.01630986
v 0.13386088 0.06872056 0.01630986
v 0.15270003 0.04814365 0.02239723
v 0.15270003 0.04814365 0.02239723
v 0.15270003 0.04814365 0.02239723
v 0.15270003 0.04814365 0.02239723
v 0.15270003 0.04814365 0.02239723
v 0.15209449 0.05072759 0.02308420
v 0.15209449 0.05072759 0.02308420
v 0.15209449 0.05072759 0.02308420
v 0.15209449 0.05072759 0.02308420
v 0.12538033 -0.06948703 0.02065713
v 0.12538033 -0.06948703 0.02065713
v 0.12538033 -0.06948703 0.02065713
v 0.12538033 -0.06948703 0.02065713
v 0.12572845 0.06872056 0.02071557
v 0.12572845 0.06872056 0.02071557
v 0.12572845 0.06872056 0.02071557
v 0.12572845 0.06872056 0.02071557
v 0.14259300 -0.06717364 0.02419457
v 0.14259300 -0.06717364 0.02419457
v 0.14259300 -0.06717364 0.02419457
v 0.14259300 -0.06717364 0.02419457
v 0.14259300 -0.06717364 0.02419457
v 0.14259300 -0.06717364 0.02419457
v 0.13949800 -0.06948703 0.02551128
v 0.13949800 -0.06948703 0.02551128
v 0.13949800 -0.06948703 0.02551128
v 0.13146210 -0.05828540 0.02832000
v 0.13146210 -0.05828540 0.02832000
v 0.13146210 -0.05828540 0.02832000
v 0.13142407 -0.06334507 0.02831762
v 0.13142407 -0.06334507 0.02831762
v 0.13142407 -0.06334507 0.02831762
v 0.13142407 -0.06334507 0.02831762
v 0.13142407 -0.06334507 0.02831762
v 0.13142407 -0.06334507 0.02831762
v 0.13142407 -0.06334507 0.02831762
v 0.13142407 -0.06334507 0.02831762
v 0.13147088 0.05827652 0.02831046
v 0.13147088 0.05827652 0.02831046
v 0.13147088 0.05827652 0.02831046
v 0.13147088 0.05827652 0.02831046
v 0.13147088 0.05827652 0.02831046
v 0.13142114 -0.06843180 0.02827707
v 0.13142114 -0.06843180 0.02827707
v 0.13142114 -0.06843180 0.02827707
v 0.13132169 -0.06948703 0.02825799
v 0.13132169 -0.06948703 0.02825799
v 0.13132169 -0.06948703 0.02825799
v 0.13132169 -0.06948703 0.02825799
v 0.13132169 -0.06948703 0.02825799
v 0.13132169 -0.06948703 0.02825799
v 0.13143870 0.06334972 0.02830450
v 0.13143870 0.06334972 0.02830450
v 0.13143870 0.06334972 0.02830450
v 0.13143870 0.06334972 0.02830450
v 0.13143870 0.06334972 0.02830450
v 0.13143870 0.06334972 0.02830450
v 0.13143870 0.06334972 0.02830450
v 0.13140067 0.06872056 0.02826156
v 0.13140067 0.06872056 0.02826156
v 0.13140067 0.06872056 0.02826156
v 0.13140067 0.06872056 0.02826156
v 0.13140067 0.06872056 0.02826156
v 0.13144163 0.06842293 0.02826633
v 0.13144163 0.06842293 0.02826633
v 0.13144163 0.06842293 0.02826633
v 0.14259007 0.06716478 0.02416953
v 0.14259007 0.06716478 0.02416953
v 0.14259007 0.06716478 0.02416953
v 0.14259007 0.06716478 0.02416953
v 0.14259007 0.06716478 0.02416953
v 0.14259007 0.06716478 0.02416953
v 0.13971447 0.06872056 0.02557330
v 0.13971447 0.06872056 0.02557330
v 0.13971447 0.06872056 0.02557330
v 0.13971447 0.06872056 0.02557330
v 0.13971447 0.06872056 0.02557330
v 0.13740346 0.06195628 0.02816019
v 0.13740346 0.06195628 0.02816019
v 0.13740346 0.06195628 0.02816019
v 0.13971447 0.06872056 0.02154805
v 0.13971447 0.06872056 0.02154805
v 0.13971447 0.06872056 0.02154805
v 0.13971447 0.06872056 0.02154805
v 0.14259007 0.06716478 0.02240558
v 0.14259007 0.06716478 0.02240558
v 0.14259007 0.06716478 0.02240558
v 0.14259007 0.06716478 0.02240558
v 0.14259007 0.06716478 0.02240558
v 0.14778255 0.05726188 0.02232805
v 0.14778255 0.05726188 0.02232805
v 0.14778255 0.05726188 0.02232805
v 0.14778255 0.05726188 0.02232805
v 0.15209449 0.05072759 0.02299953
v 0.15209449 0.05072759 0.02299953
v 0.15209449 0.05072759 0.02299953
v 0.15209449 0.05072759 0.02299953
v 0.12667626 -0.06948703 0.02311998
v 0.12667626 -0.06948703 0.02311998
v 0.12667626 -0.06948703 0.02311998
v 0.12667626 -0.06948703 0.02311998
v 0.12667626 -0.06948703 0.02311998
v 0.12590981 0.06872056 0.02101970
v 0.12590981 0.06872056 0.02101970
v 0.12590981 0.06872056 0.02101970
v 0.13125440 0.06872056 0.02819597
v 0.13125440 0.06872056 0.02819597
v 0.13125440 0.06872056 0.02819597
v 0.13125440 0.06872056 0.02819597
v 0.13125440 0.06872056 0.02819597
v 0.13125440 0.06872056 0.02819597
v 0.13125440 0.06872056 0.02819597
v 0.12853969 -0.06948703 0.02555779
v 0.12853969 -0.06948703 0.02555779
v 0.12853969 -0.06948703 0.02555779
v 0.12803946 -0.06948703 0.02506999
v 0.12803946 -0.06948703 0.02506999
v 0.12803946 -0.06948703 0.02506999
v 0.12803946 -0.06948703 0.02506999
v 0.12803946 -0.06948703 0.02506999
v 0.12835832 0.06872056 0.02499724
v 0.12835832 0.06872056 0.02499724
v 0.12835832 0.06872056 0.02499724
v 0.12835832 0.06872056 0.02499724
v 0.12856602 0.06872056 0.02528586
v 0.12856602 0.06872056 0.02528586
v 0.12856602 0.06872056 0.02528586
f 2 11 13
f 4 14 54
f 4 54 21
f 3 20 77
f 3 77 26
f 1 23 10
f 6 31 37
f 7 38 40
f 8 42 12
f 9 22 47
f 5 46 30
f 16 43 59
f 15 58 133
f 15 133 55
f 19 53 62
f 18 60 70
f 17 69 74
f 25 76 173
f 25 173 118
f 24 116 48
f 27 85 34
f 29 44 92
f 28 90 86
f 32 84 101
f 33 102 106
f 35 108 111
f 36 112 56
f 39 57 41
f 49 117 123
f 45 120 94
f 50 128 68
f 52 71 61
f 51 132 129
f 58 115 255
f 58 255 133
f 63 126 149
f 64 150 152
f 65 153 156
f 66 159 161
f 67 163 73
f 72 162 169
f 75 170 172
f 78 178 181
f 78 181 184
f 81 185 95
f 83 89 190
f 82 187 195
f 80 194 202
f 79 201 179
f 93 119 208
f 91 204 216
f 87 214 219
f 88 220 189
f 96 186 223
f 97 224 227
f 98 228 232
f 99 233 237
f 100 239 103
f 104 240 243
f 105 244 246
f 107 250 110
f 109 249 261
f 113 262 264
f 114 267 439
f 114 439 254
f 118 173 273
f 118 273 124
f 122 272 503
f 122 503 279
f 121 276 209
f 127 130 288
f 125 287 148
f 131 251 289
f 135 292 513
f 135 513 710
f 135 710 707
f 135 707 704
f 135 704 701
f 135 701 698
f 135 698 694
f 135 694 691
f 135 691 688
f 135 688 685
f 135 685 682
f 135 682 539
f 135 539 344
f 135 344 155
f 134 154 151
f 147 286 296
f 146 294 298
f 145 297 302
f 144 301 306
f 143 305 310
f 142 309 314
f 141 313 319
f 140 318 323
f 139 322 327
f 138 326 331
f 137 330 337
f 136 335 517
f 136 517 293
f 157 347 164
f 158 166 160
f 165 349 351
f 167 353 356
f 168 357 171
f 174 358 274
f 177 363 180
f 176 199 372
f 175 371 362
f 180 363 182
f 183 364 221
f 188 218 198
f 192 374 200
f 197 217 212
f 196 211 379
f 193 376 385
f 191 383 373
f 206 386 399
f 205 395 407
f 203 405 215
f 207 275 389
f 213 402 415
f 210 413 378
f 222 365 225
f 226 366 229
f 230 367 417
f 231 419 421
f 235 425 428
f 236 429 242
f 234 241 238
f 245 431 247
f 248 433 257
f 253 435 447
f 252 445 290
f 256 432 452
f 258 454 457
f 259 458 460
f 260 463 263
f 265 468 470
f 266 474 530
f 266 530 438
f 269 354 478
f 268 477 488
f 270 489 496
f 271 498 500
f 278 502 722
f 278 722 509
f 277 506 393
f 281 311 308
f 280 307 303
f 283 304 299
f 284 300 295
f 285 440 316
f 282 315 312
f 291 516 512
f 317 441 320
f 321 442 324
f 325 443 328
f 329 444 332
f 333 446 434
f 334 436 338
f 340 519 525
f 336 524 741
f 336 741 660
f 336 660 655
f 336 655 638
f 336 638 767
f 336 767 832
f 336 832 837
f 336 837 819
f 336 819 730
f 336 730 518
f 339 437 527
f 341 528 531
f 342 532 536
f 343 537 520
f 345 541 484
f 346 485 475
f 348 476 350
f 352 479 355
f 360 548 554
f 361 555 416
f 359 369 547
f 370 380 562
f 368 561 546
f 377 409 567
f 375 565 384
f 382 564 574
f 381 572 563
f 392 504 578
f 391 577 581
f 390 580 588
f 388 587 595
f 387 592 400
f 398 591 599
f 397 598 603
f 396 601 608
f 394 607 406
f 404 606 614
f 403 613 619
f 401 617 414
f 412 615 624
f 411 623 630
f 410 629 576
f 408 575 566
f 418 556 420
f 426 633 448
f 427 449 430
f 422 557 636
f 423 637 641
f 424 642 631
f 450 634 648
f 451 649 652
f 453 653 455
f 456 654 657
f 459 658 461
f 462 659 661
f 464 662 665
f 465 666 669
f 466 670 675
f 467 676 469
f 473 681 535
f 473 535 529
f 471 677 672
f 472 673 678
f 482 540 684
f 481 683 687
f 480 686 689
f 483 690 692
f 486 693 695
f 487 696 490
f 491 697 699
f 492 700 702
f 493 703 705
f 494 706 708
f 495 709 712
f 497 713 499
f 501 714 718
f 508 721 814
f 508 814 726
f 507 723 584
f 505 582 579
f 510 515 727
f 511 728 731
f 514 734 822
f 514 822 841
f 514 841 844
f 514 844 829
f 514 829 779
f 514 779 620
f 514 620 604
f 514 604 596
f 514 596 790
f 514 790 798
f 514 798 711
f 522 738 743
f 522 743 526
f 521 538 533
f 523 534 680
f 523 680 740
f 543 746 752
f 545 753 549
f 544 558 758
f 542 757 745
f 550 754 761
f 551 762 766
f 552 768 639
f 553 640 635
f 560 568 774
f 559 773 759
f 573 628 622
f 571 621 780
f 570 778 783
f 569 782 775
f 585 724 788
f 583 787 590
f 589 786 794
f 586 793 594
f 593 792 600
f 597 609 602
f 605 627 611
f 610 626 796
f 612 797 618
f 616 795 625
f 632 643 646
f 645 656 651
f 644 650 647
f 664 742 736
f 663 735 667
f 668 737 671
f 674 739 679
f 715 801 803
f 717 804 808
f 716 807 719
f 720 809 811
f 725 813 806
f 725 806 789
f 729 815 732
f 733 816 820
f 744 756 751
f 750 765 760
f 749 755 771
f 748 769 827
f 747 826 764
f 763 825 831
f 772 781 777
f 770 776 828
f 784 802 799
f 785 800 791
f 805 812 810
f 818 833 839
f 817 838 821
f 823 843 835
f 824 836 830
f 834 842 840

