# https://github.com/mikedh/trimesh
v -0.10892138 -0.00006975 0.00600156
v -0.10892138 -0.00006975 0.00600156
v -0.10892138 -0.00006975 0.00600156
v -0.10892138 -0.00006975 0.00600156
v -0.10892138 -0.00006975 0.00600156
v -0.12637808 -0.00006975 0.01508121
v -0.12637808 -0.00006975 0.01508121
v -0.12637808 -0.00006975 0.01508121
v -0.10892138 -0.00006975 -0.00268263
v -0.10892138 -0.00006975 -0.00268263
v -0.10892138 -0.00006975 -0.00268263
v -0.10892138 -0.00006975 -0.00268263
v -0.10892138 0.07124650 0.00750671
v -0.10892138 0.07124650 0.00750671
v -0.10892138 0.07124650 0.00750671
v -0.12232302 0.07124650 0.01508121
v -0.12232302 0.07124650 0.01508121
v -0.12232302 0.07124650 0.01508121
v -0.12232302 0.07124650 0.01508121
v -0.13506932 -0.00006975 0.01508121
v -0.13506932 -0.00006975 0.01508121
v -0.13506932 -0.00006975 0.01508121
v -0.13506932 -0.00006975 0.01508121
v -0.10898794 -0.00006975 -0.00268263
v -0.10898794 -0.00006975 -0.00268263
v -0.10898794 -0.00006975 -0.00268263
v -0.10898794 -0.00006975 -0.00268263
v -0.10898794 0.00760917 -0.00269134
v -0.10898794 0.00760917 -0.00269134
v -0.10898794 0.00760917 -0.00269134
v -0.10898794 0.00760917 -0.00269134
v -0.10898794 0.00760917 -0.00269134
v -0.10898794 0.00760917 -0.00269134
v -0.10892138 0.00754634 -0.00268960
v -0.10892138 0.00754634 -0.00268960
v -0.10892138 0.00754634 -0.00268960
v -0.10892138 0.07124650 -0.00161649
v -0.10892138 0.07124650 -0.00161649
v -0.10892138 0.07124650 -0.00161649
v -0.13276274 0.07124650 0.01508121
v -0.13276274 0.07124650 0.01508121
v -0.13276274 0.07124650 0.01508121
v -0.13227890 0.00760917 0.00628378
v -0.13227890 0.00760917 0.00628378
v -0.13227890 0.00760917 0.00628378
v -0.13227890 0.00760917 0.00628378
v -0.13227890 0.00760917 0.00628378
v -0.13227635 -0.00006975 0.00629423
v -0.13227635 -0.00006975 0.00629423
v -0.13227635 -0.00006975 0.00629423
v -0.13227635 -0.00006975 0.00629423
v -0.13507444 0.01267726 0.01508121
v -0.13507444 0.01267726 0.01508121
v -0.13507444 0.01267726 0.01508121
v -0.13507444 0.01267726 0.01508121
v -0.13507444 0.01267726 0.01508121
v -0.11063659 -0.00006975 -0.00259727
v -0.11063659 -0.00006975 -0.00259727
v -0.11063659 -0.00006975 -0.00259727
v -0.11240043 0.00760917 -0.00251540
v -0.11240043 0.00760917 -0.00251540
v -0.11240043 0.00760917 -0.00251540
v -0.11240043 0.00760917 -0.00251540
v -0.11240043 0.00760917 -0.00251540
v -0.11240043 0.00760917 -0.00251540
v -0.11240043 0.00760917 -0.00251540
v -0.11245931 0.04815389 -0.00254153
v -0.11245931 0.04815389 -0.00254153
v -0.11245931 0.04815389 -0.00254153
v -0.11245931 0.04815389 -0.00254153
v -0.11245931 0.04815389 -0.00254153
v -0.11245931 0.04815389 -0.00254153
v -0.11245931 0.04815389 -0.00254153
v -0.10898794 0.05322198 -0.00271573
v -0.10898794 0.05322198 -0.00271573
v -0.10898794 0.05322198 -0.00271573
v -0.10898794 0.05322198 -0.00271573
v -0.10898794 0.05322198 -0.00271573
v -0.10898794 0.05322198 -0.00271573
v -0.10892138 0.05315915 -0.00271399
v -0.10892138 0.05315915 -0.00271399
v -0.10892138 0.05315915 -0.00271399
v -0.10892138 0.07122556 -0.00177850
v -0.10892138 0.07122556 -0.00177850
v -0.10892138 0.07122556 -0.00177850
v -0.10898794 0.07124650 -0.00177328
v -0.10898794 0.07124650 -0.00177328
v -0.10898794 0.07124650 -0.00177328
v -0.10898794 0.07124650 -0.00177328
v -0.10898794 0.07124650 -0.00177328
v -0.13197171 0.07124650 0.01261793
v -0.13197171 0.07124650 0.01261793
v -0.13197171 0.07124650 0.01261793
v -0.13319026 0.06876133 0.01508121
v -0.13319026 0.06876133 0.01508121
v -0.13319026 0.06876133 0.01508121
v -0.13319026 0.06876133 0.01508121
v -0.13319026 0.06876133 0.01508121
v -0.13107058 0.00760917 0.00375081
v -0.13107058 0.00760917 0.00375081
v -0.13107058 0.00760917 0.00375081
v -0.13107058 0.00760917 0.00375081
v -0.13107058 0.00760917 0.00375081
v -0.13107058 0.00760917 0.00375081
v -0.13107058 0.00760917 0.00375081
v -0.13107058 0.00760917 0.00375081
v -0.13107058 0.00760917 0.00375081
v -0.13227890 0.01267726 0.00628378
v -0.13227890 0.01267726 0.00628378
v -0.13227890 0.01267726 0.00628378
v -0.13227890 0.01267726 0.00628378
v -0.13106290 -0.00006975 0.00376127
v -0.13106290 -0.00006975 0.00376127
v -0.13106290 -0.00006975 0.00376127
v -0.13506164 0.02315550 0.01508121
v -0.13506164 0.02315550 0.01508121
v -0.13506164 0.02315550 0.01508121
v -0.13506164 0.02315550 0.01508121
v -0.13227890 0.02788153 0.00628901
v -0.13227890 0.02788153 0.00628901
v -0.13227890 0.02788153 0.00628901
v -0.13227890 0.02788153 0.00628901
v -0.13227890 0.02788153 0.00628901
v -0.13227890 0.02788153 0.00628901
v -0.11237484 -0.00006975 -0.00250669
v -0.11237484 -0.00006975 -0.00250669
v -0.11237484 -0.00006975 -0.00250669
v -0.11367787 -0.00006975 -0.00220879
v -0.11367787 -0.00006975 -0.00220879
v -0.11367787 -0.00006975 -0.00220879
v -0.11490924 -0.00006975 -0.00192484
v -0.11490924 -0.00006975 -0.00192484
v -0.11490924 -0.00006975 -0.00192484
v -0.11490924 -0.00006975 -0.00192484
v -0.11493484 0.00760917 -0.00192658
v -0.11493484 0.00760917 -0.00192658
v -0.11493484 0.00760917 -0.00192658
v -0.11493484 0.00760917 -0.00192658
v -0.11493484 0.00760917 -0.00192658
v -0.11493484 0.00760917 -0.00192658
v -0.11499372 0.04815389 -0.00191613
v -0.11499372 0.04815389 -0.00191613
v -0.11499372 0.04815389 -0.00191613
v -0.11499372 0.04815389 -0.00191613
v -0.11499372 0.04815389 -0.00191613
v -0.11499372 0.04815389 -0.00191613
v -0.11243371 0.05322198 -0.00254501
v -0.11243371 0.05322198 -0.00254501
v -0.11243371 0.05322198 -0.00254501
v -0.11243371 0.05322198 -0.00254501
v -0.11243371 0.05322198 -0.00254501
v -0.11243371 0.05322198 -0.00254501
v -0.11496812 0.02788153 -0.00192832
v -0.11496812 0.02788153 -0.00192832
v -0.11496812 0.02788153 -0.00192832
v -0.11496812 0.02788153 -0.00192832
v -0.11496812 0.02788153 -0.00192832
v -0.11496812 0.02788153 -0.00192832
v -0.11496812 0.02788153 -0.00192832
v -0.10898794 0.05829007 -0.00270006
v -0.10898794 0.05829007 -0.00270006
v -0.10898794 0.05829007 -0.00270006
v -0.10898794 0.05829007 -0.00270006
v -0.10898794 0.05829007 -0.00270006
v -0.10898794 0.05829007 -0.00270006
v -0.10892138 0.05322198 -0.00271399
v -0.10892138 0.05322198 -0.00271399
v -0.10892138 0.05322198 -0.00271399
v -0.10892138 0.06961997 -0.00214259
v -0.10892138 0.06961997 -0.00214259
v -0.10892138 0.06961997 -0.00214259
v -0.10892138 0.06961997 -0.00214259
v -0.10892138 0.06961997 -0.00214259
v -0.10898794 0.06961298 -0.00214259
v -0.10898794 0.06961298 -0.00214259
v -0.10898794 0.06961298 -0.00214259
v -0.10898794 0.06961298 -0.00214259
v -0.10898794 0.06961298 -0.00214259
v -0.10898794 0.06961298 -0.00214259
v -0.10898794 0.06961298 -0.00214259
v -0.11111274 0.07124650 -0.00153113
v -0.11111274 0.07124650 -0.00153113
v -0.11111274 0.07124650 -0.00153113
v -0.11111274 0.07124650 -0.00153113
v -0.13189235 0.07124650 0.01238798
v -0.13189235 0.07124650 0.01238798
v -0.13189235 0.07124650 0.01238798
v -0.13189235 0.07124650 0.01238798
v -0.13189235 0.07124650 0.01238798
v -0.13323123 0.06842625 0.01508121
v -0.13323123 0.06842625 0.01508121
v -0.13323123 0.06842625 0.01508121
v -0.13323123 0.06842625 0.01508121
v -0.13323123 0.06842625 0.01508121
v -0.13323123 0.06842625 0.01508121
v -0.13129075 0.06842625 0.00944214
v -0.13129075 0.06842625 0.00944214
v -0.13129075 0.06842625 0.00944214
v -0.13129075 0.06842625 0.00944214
v -0.13129075 0.06842625 0.00944214
v -0.12853617 0.00760917 0.00197565
v -0.12853617 0.00760917 0.00197565
v -0.12853617 0.00760917 0.00197565
v -0.12853617 0.00760917 0.00197565
v -0.12853617 0.00760917 0.00197565
v -0.12853617 0.00760917 0.00197565
v -0.12852849 -0.00006975 0.00197739
v -0.12852849 -0.00006975 0.00197739
v -0.12852849 -0.00006975 0.00197739
v -0.12852849 -0.00006975 0.00197739
v -0.12852849 -0.00006975 0.00197739
v -0.13106802 0.02788153 0.00375604
v -0.13106802 0.02788153 0.00375604
v -0.13106802 0.02788153 0.00375604
v -0.13106802 0.02788153 0.00375604
v -0.13106802 0.02788153 0.00375604
v -0.12853362 0.02788153 0.00197042
v -0.12853362 0.02788153 0.00197042
v -0.12853362 0.02788153 0.00197042
v -0.12853362 0.02788153 0.00197042
v -0.12853362 0.02788153 0.00197042
v -0.13504628 0.02823057 0.01508121
v -0.13504628 0.02823057 0.01508121
v -0.13504628 0.02823057 0.01508121
v -0.13504628 0.02823057 0.01508121
v -0.13227378 0.03294962 0.00630120
v -0.13227378 0.03294962 0.00630120
v -0.13227378 0.03294962 0.00630120
v -0.13227378 0.03294962 0.00630120
v -0.13227378 0.03294962 0.00630120
v -0.11695725 -0.00006975 -0.00139525
v -0.11695725 -0.00006975 -0.00139525
v -0.11695725 -0.00006975 -0.00139525
v -0.11912557 -0.00006975 -0.00083430
v -0.11912557 -0.00006975 -0.00083430
v -0.11912557 -0.00006975 -0.00083430
v -0.11912557 -0.00006975 -0.00083430
v -0.11912557 0.00254108 -0.00083604
v -0.11912557 0.00254108 -0.00083604
v -0.11912557 0.00254108 -0.00083604
v -0.11912557 0.00254108 -0.00083604
v -0.11912557 0.00254108 -0.00083604
v -0.11912557 0.00254108 -0.00083604
v -0.11912557 0.03801771 -0.00084650
v -0.11912557 0.03801771 -0.00084650
v -0.11912557 0.03801771 -0.00084650
v -0.11912557 0.03801771 -0.00084650
v -0.11912557 0.03801771 -0.00084650
v -0.11912557 0.04308580 -0.00084475
v -0.11912557 0.04308580 -0.00084475
v -0.11912557 0.04308580 -0.00084475
v -0.11912557 0.04308580 -0.00084475
v -0.11912557 0.04308580 -0.00084475
v -0.11912557 0.04308580 -0.00084475
v -0.11912557 0.04308580 -0.00084475
v -0.11496812 0.05322198 -0.00189348
v -0.11496812 0.05322198 -0.00189348
v -0.11496812 0.05322198 -0.00189348
v -0.11496812 0.05322198 -0.00189348
v -0.11496812 0.05322198 -0.00189348
v -0.11496812 0.05322198 -0.00189348
v -0.11234667 0.05829007 -0.00252585
v -0.11234667 0.05829007 -0.00252585
v -0.11234667 0.05829007 -0.00252585
v -0.11234667 0.05829007 -0.00252585
v -0.11234667 0.05829007 -0.00252585
v -0.11234667 0.05829007 -0.00252585
v -0.11234667 0.05829007 -0.00252585
v -0.11912557 0.02281344 -0.00084475
v -0.11912557 0.02281344 -0.00084475
v -0.11912557 0.02281344 -0.00084475
v -0.11912557 0.02281344 -0.00084475
v -0.11912557 0.02788153 -0.00084650
v -0.11912557 0.02788153 -0.00084650
v -0.11912557 0.02788153 -0.00084650
v -0.11912557 0.02788153 -0.00084650
v -0.10892138 0.05829007 -0.00269831
v -0.10892138 0.05829007 -0.00269831
v -0.10892138 0.05829007 -0.00269831
v -0.10898794 0.06335816 -0.00263560
v -0.10898794 0.06335816 -0.00263560
v -0.10898794 0.06335816 -0.00263560
v -0.10898794 0.06335816 -0.00263560
v -0.10898794 0.06335816 -0.00263560
v -0.10898794 0.06335816 -0.00263560
v -0.10898794 0.06335816 -0.00263560
v -0.10892138 0.06335816 -0.00263560
v -0.10892138 0.06335816 -0.00263560
v -0.10892138 0.06335816 -0.00263560
v -0.10892138 0.06335816 -0.00263560
v -0.10892138 0.06959205 -0.00214608
v -0.10892138 0.06959205 -0.00214608
v -0.10892138 0.06959205 -0.00214608
v -0.10892138 0.06959205 -0.00214608
v -0.10892138 0.06708593 -0.00245268
v -0.10892138 0.06708593 -0.00245268
v -0.10892138 0.06708593 -0.00245268
v -0.10892138 0.06708593 -0.00245268
v -0.10892138 0.06708593 -0.00245268
v -0.10898794 0.06707895 -0.00245094
v -0.10898794 0.06707895 -0.00245094
v -0.10898794 0.06707895 -0.00245094
v -0.10898794 0.06707895 -0.00245094
v -0.11176811 0.06636690 -0.00237603
v -0.11176811 0.06636690 -0.00237603
v -0.11176811 0.06636690 -0.00237603
v -0.11176811 0.06636690 -0.00237603
v -0.11176811 0.06636690 -0.00237603
v -0.11176811 0.06636690 -0.00237603
v -0.11176811 0.06636690 -0.00237603
v -0.11176811 0.06636690 -0.00237603
v -0.11176811 0.06636690 -0.00237603
v -0.11176811 0.06636690 -0.00237603
v -0.11390316 0.07124650 -0.00110781
v -0.11390316 0.07124650 -0.00110781
v -0.11390316 0.07124650 -0.00110781
v -0.11390316 0.07124650 -0.00110781
v -0.12871792 0.07124650 0.00520544
v -0.12871792 0.07124650 0.00520544
v -0.12871792 0.07124650 0.00520544
v -0.12950386 0.06842625 0.00528732
v -0.12950386 0.06842625 0.00528732
v -0.12950386 0.06842625 0.00528732
v -0.12950386 0.06842625 0.00528732
v -0.12950386 0.06842625 0.00528732
v -0.12950386 0.06842625 0.00528732
v -0.12950386 0.06842625 0.00528732
v -0.12950386 0.06842625 0.00528732
v -0.12950386 0.06842625 0.00528732
v -0.12950386 0.06842625 0.00528732
v -0.12950386 0.06842625 0.00528732
v -0.12950386 0.06842625 0.00528732
v -0.13359475 0.06335816 0.01508121
v -0.13359475 0.06335816 0.01508121
v -0.13359475 0.06335816 0.01508121
v -0.13359475 0.06335816 0.01508121
v -0.13359475 0.06335816 0.01508121
v -0.13149298 0.06335816 0.00877319
v -0.13149298 0.06335816 0.00877319
v -0.13149298 0.06335816 0.00877319
v -0.13149298 0.06335816 0.00877319
v -0.13166194 0.05914173 0.00823489
v -0.13166194 0.05914173 0.00823489
v -0.13166194 0.05914173 0.00823489
v -0.13166194 0.05914173 0.00823489
v -0.13179506 0.05576301 0.00781854
v -0.13179506 0.05576301 0.00781854
v -0.13179506 0.05576301 0.00781854
v -0.13179506 0.05576301 0.00781854
v -0.13179506 0.05576301 0.00781854
v -0.12419183 -0.00006975 0.00053148
v -0.12419183 -0.00006975 0.00053148
v -0.12419183 -0.00006975 0.00053148
v -0.12419183 -0.00006975 0.00053148
v -0.12852849 0.00254108 0.00197565
v -0.12852849 0.00254108 0.00197565
v -0.12852849 0.00254108 0.00197565
v -0.12419183 0.03294962 0.00051580
v -0.12419183 0.03294962 0.00051580
v -0.12419183 0.03294962 0.00051580
v -0.12419183 0.03294962 0.00051580
v -0.12419183 0.03294962 0.00051580
v -0.12419183 0.03294962 0.00051580
v -0.12419183 0.03294962 0.00051580
v -0.12419183 0.03294962 0.00051580
v -0.12419183 0.02788153 0.00051754
v -0.12419183 0.02788153 0.00051754
v -0.12419183 0.02788153 0.00051754
v -0.12419183 0.02788153 0.00051754
v -0.12419183 0.02788153 0.00051754
v -0.12419183 0.02788153 0.00051754
v -0.13106290 0.03294962 0.00376824
v -0.13106290 0.03294962 0.00376824
v -0.13106290 0.03294962 0.00376824
v -0.13106290 0.03294962 0.00376824
v -0.13106290 0.03294962 0.00376824
v -0.13106290 0.03294962 0.00376824
v -0.12852849 0.03294962 0.00197042
v -0.12852849 0.03294962 0.00197042
v -0.12852849 0.03294962 0.00197042
v -0.12852849 0.03294962 0.00197042
v -0.12852849 0.03294962 0.00197042
v -0.12852849 0.03294962 0.00197042
v -0.12852849 0.03294962 0.00197042
v -0.13500020 0.03329866 0.01508121
v -0.13500020 0.03329866 0.01508121
v -0.13500020 0.03329866 0.01508121
v -0.13224819 0.03801771 0.00636391
v -0.13224819 0.03801771 0.00636391
v -0.13224819 0.03801771 0.00636391
v -0.13224819 0.03801771 0.00636391
v -0.13224819 0.03801771 0.00636391
v -0.13224819 0.03801771 0.00636391
v -0.13224819 0.03801771 0.00636391
v -0.12159087 -0.00006975 -0.00017058
v -0.12159087 -0.00006975 -0.00017058
v -0.12159087 -0.00006975 -0.00017058
v -0.12159087 -0.00006975 -0.00017058
v -0.12419183 0.03801771 0.00052102
v -0.12419183 0.03801771 0.00052102
v -0.12419183 0.03801771 0.00052102
v -0.12419183 0.03801771 0.00052102
v -0.12419183 0.04308580 0.00052799
v -0.12419183 0.04308580 0.00052799
v -0.12419183 0.04308580 0.00052799
v -0.12419183 0.04308580 0.00052799
v -0.12419183 0.04308580 0.00052799
v -0.12419183 0.04308580 0.00052799
v -0.12419183 0.04308580 0.00052799
v -0.11912557 0.04815389 -0.00080991
v -0.11912557 0.04815389 -0.00080991
v -0.11912557 0.04815389 -0.00080991
v -0.11912557 0.04815389 -0.00080991
v -0.11912557 0.04815389 -0.00080991
v -0.11488108 0.05829007 -0.00186386
v -0.11488108 0.05829007 -0.00186386
v -0.11488108 0.05829007 -0.00186386
v -0.11488108 0.05829007 -0.00186386
v -0.11488108 0.05829007 -0.00186386
v -0.11488108 0.05829007 -0.00186386
v -0.11488108 0.05829007 -0.00186386
v -0.11461996 0.06335816 -0.00180812
v -0.11461996 0.06335816 -0.00180812
v -0.11461996 0.06335816 -0.00180812
v -0.11461996 0.06335816 -0.00180812
v -0.11461996 0.06335816 -0.00180812
v -0.11461996 0.06335816 -0.00180812
v -0.11208555 0.06335816 -0.00245791
v -0.11208555 0.06335816 -0.00245791
v -0.11208555 0.06335816 -0.00245791
v -0.11208555 0.06335816 -0.00245791
v -0.12419183 0.06842625 0.00102274
v -0.12419183 0.06842625 0.00102274
v -0.12419183 0.06842625 0.00102274
v -0.12419183 0.06842625 0.00102274
v -0.12419183 0.06842625 0.00102274
v -0.12419183 0.06842625 0.00102274
v -0.12419183 0.06842625 0.00102274
v -0.12419183 0.06842625 0.00102274
v -0.12419183 0.06842625 0.00102274
v -0.11912557 0.06842625 -0.00030472
v -0.11912557 0.06842625 -0.00030472
v -0.11912557 0.06842625 -0.00030472
v -0.11912557 0.06842625 -0.00030472
v -0.11369835 0.06820984 -0.00167921
v -0.11369835 0.06820984 -0.00167921
v -0.11369835 0.06820984 -0.00167921
v -0.11369835 0.06820984 -0.00167921
v -0.11369835 0.06820984 -0.00167921
v -0.11681133 0.07124650 -0.00052422
v -0.11681133 0.07124650 -0.00052422
v -0.11681133 0.07124650 -0.00052422
v -0.12764529 0.07124650 0.00301218
v -0.12764529 0.07124650 0.00301218
v -0.12764529 0.07124650 0.00301218
v -0.12764529 0.07124650 0.00301218
v -0.12747633 0.06842625 0.00222302
v -0.12747633 0.06842625 0.00222302
v -0.12747633 0.06842625 0.00222302
v -0.12747633 0.06842625 0.00222302
v -0.12747633 0.06842625 0.00222302
v -0.12747633 0.06842625 0.00222302
v -0.12747633 0.06842625 0.00222302
v -0.12747633 0.06842625 0.00222302
v -0.12747633 0.06842625 0.00222302
v -0.13095794 0.04308580 0.00402258
v -0.13095794 0.04308580 0.00402258
v -0.13095794 0.04308580 0.00402258
v -0.13095794 0.04308580 0.00402258
v -0.13095794 0.04308580 0.00402258
v -0.13095794 0.04308580 0.00402258
v -0.13077362 0.04815389 0.00444590
v -0.13077362 0.04815389 0.00444590
v -0.13077362 0.04815389 0.00444590
v -0.13205106 0.04815389 0.00697886
v -0.13205106 0.04815389 0.00697886
v -0.13205106 0.04815389 0.00697886
v -0.13205106 0.04815389 0.00697886
v -0.13205106 0.04815389 0.00697886
v -0.13205106 0.04815389 0.00697886
v -0.13205106 0.04815389 0.00697886
v -0.13205106 0.04815389 0.00697886
v -0.13205106 0.04815389 0.00697886
v -0.13188211 0.05322198 0.00753807
v -0.13188211 0.05322198 0.00753807
v -0.13188211 0.05322198 0.00753807
v -0.13188211 0.05322198 0.00753807
v -0.13392243 0.05826215 0.01508121
v -0.13392243 0.05826215 0.01508121
v -0.13392243 0.05826215 0.01508121
v -0.13103730 0.03801771 0.00383095
v -0.13103730 0.03801771 0.00383095
v -0.13103730 0.03801771 0.00383095
v -0.13103730 0.03801771 0.00383095
v -0.13103730 0.03801771 0.00383095
v -0.13103730 0.03801771 0.00383095
v -0.13103730 0.03801771 0.00383095
v -0.12842353 0.04308580 0.00197739
v -0.12842353 0.04308580 0.00197739
v -0.12842353 0.04308580 0.00197739
v -0.12842353 0.04308580 0.00197739
v -0.12842353 0.04308580 0.00197739
v -0.12842353 0.04308580 0.00197739
v -0.12842353 0.04308580 0.00197739
v -0.12850289 0.03801771 0.00197217
v -0.12850289 0.03801771 0.00197217
v -0.12850289 0.03801771 0.00197217
v -0.12850289 0.03801771 0.00197217
v -0.13491827 0.03801771 0.01508121
v -0.13491827 0.03801771 0.01508121
v -0.13491827 0.03801771 0.01508121
v -0.13491060 0.03835977 0.01508121
v -0.13491060 0.03835977 0.01508121
v -0.13491060 0.03835977 0.01508121
v -0.13491060 0.03835977 0.01508121
v -0.13218162 0.04308580 0.00655554
v -0.13218162 0.04308580 0.00655554
v -0.13218162 0.04308580 0.00655554
v -0.13218162 0.04308580 0.00655554
v -0.13218162 0.04308580 0.00655554
v -0.13218162 0.04308580 0.00655554
v -0.13218162 0.04308580 0.00655554
v -0.13218162 0.04308580 0.00655554
v -0.12419183 0.04815389 0.00057677
v -0.12419183 0.04815389 0.00057677
v -0.12419183 0.04815389 0.00057677
v -0.12419183 0.04815389 0.00057677
v -0.12419183 0.04815389 0.00057677
v -0.12419183 0.04815389 0.00057677
v -0.11912557 0.05829007 -0.00068797
v -0.11912557 0.05829007 -0.00068797
v -0.11912557 0.05829007 -0.00068797
v -0.11912557 0.05829007 -0.00068797
v -0.11912557 0.06335816 -0.00059738
v -0.11912557 0.06335816 -0.00059738
v -0.11912557 0.06335816 -0.00059738
v -0.11912557 0.06335816 -0.00059738
v -0.11912557 0.06335816 -0.00059738
v -0.12655984 0.07124650 0.00214115
v -0.12655984 0.07124650 0.00214115
v -0.12655984 0.07124650 0.00214115
v -0.12655984 0.07124650 0.00214115
v -0.12429424 0.07124650 0.00145826
v -0.12429424 0.07124650 0.00145826
v -0.12429424 0.07124650 0.00145826
v -0.11912557 0.07124650 0.00004892
v -0.11912557 0.07124650 0.00004892
v -0.11912557 0.07124650 0.00004892
v -0.11912557 0.07124650 0.00004892
v -0.11912557 0.07124650 0.00004892
v -0.12419183 0.06335816 0.00083460
v -0.12419183 0.06335816 0.00083460
v -0.12419183 0.06335816 0.00083460
v -0.12419183 0.06335816 0.00083460
v -0.12419183 0.06335816 0.00083460
v -0.12419183 0.06335816 0.00083460
v -0.12419183 0.06335816 0.00083460
v -0.12723056 0.07124650 0.00238678
v -0.12723056 0.07124650 0.00238678
v -0.12723056 0.07124650 0.00238678
v -0.12823921 0.04815389 0.00200352
v -0.12823921 0.04815389 0.00200352
v -0.12823921 0.04815389 0.00200352
v -0.12823921 0.04815389 0.00200352
v -0.13451124 0.04815389 0.01508121
v -0.13451124 0.04815389 0.01508121
v -0.13451124 0.04815389 0.01508121
v -0.13451124 0.04815389 0.01508121
v -0.13422963 0.05322198 0.01508121
v -0.13422963 0.05322198 0.01508121
v -0.13422963 0.05322198 0.01508121
v -0.13475700 0.04308580 0.01508121
v -0.13475700 0.04308580 0.01508121
v -0.13475700 0.04308580 0.01508121
v -0.13474164 0.04342786 0.01508121
v -0.13474164 0.04342786 0.01508121
v -0.13474164 0.04342786 0.01508121
f 1 6 22
f 1 22 51
f 1 51 114
f 1 114 211
f 1 211 354
f 1 354 398
f 1 398 237
f 1 237 233
f 1 233 134
f 1 134 130
f 1 130 127
f 1 127 59
f 1 59 27
f 1 27 10
f 5 12 36
f 5 36 82
f 5 82 168
f 5 168 279
f 5 279 290
f 5 290 299
f 5 299 294
f 4 293 172
f 5 173 85
f 5 85 39
f 5 39 15
f 3 14 19
f 2 18 8
f 7 17 42
f 7 42 98
f 7 98 195
f 7 195 337
f 7 337 490
f 7 490 571
f 7 571 568
f 7 568 577
f 7 577 574
f 7 574 515
f 7 515 511
f 7 511 387
f 7 387 225
f 7 225 118
f 7 118 56
f 7 56 23
f 9 26 31
f 11 32 34
f 13 37 89
f 13 89 184
f 13 184 317
f 13 317 452
f 13 452 550
f 13 550 545
f 13 545 542
f 13 542 560
f 13 560 456
f 13 456 320
f 13 320 189
f 13 189 93
f 13 93 41
f 13 41 16
f 21 44 48
f 20 53 43
f 24 58 64
f 25 66 29
f 28 65 71
f 30 73 76
f 33 77 80
f 33 80 35
f 38 84 90
f 40 91 94
f 47 100 49
f 45 55 109
f 46 110 99
f 50 103 112
f 52 116 119
f 54 121 108
f 57 126 63
f 62 125 129
f 61 128 133
f 60 132 140
f 60 140 70
f 67 145 149
f 72 152 75
f 69 139 159
f 68 158 146
f 74 151 162
f 78 164 277
f 78 277 166
f 79 167 81
f 83 171 88
f 87 169 178
f 86 175 183
f 92 186 97
f 96 185 198
f 95 197 194
f 107 202 208
f 105 207 113
f 101 111 122
f 102 124 213
f 104 216 218
f 106 219 201
f 115 224 227
f 117 228 120
f 123 230 373
f 123 373 212
f 131 232 138
f 137 231 236
f 136 235 243
f 135 242 156
f 142 247 255
f 141 254 258
f 144 261 148
f 143 157 248
f 147 260 264
f 150 268 161
f 155 241 272
f 154 271 276
f 153 275 246
f 160 267 282
f 163 285 287
f 165 289 278
f 170 292 180
f 179 291 297
f 177 295 302
f 176 300 311
f 174 310 182
f 181 309 316
f 188 318 328
f 187 326 200
f 193 196 339
f 192 338 343
f 191 342 348
f 190 347 336
f 199 321 340
f 206 352 357
f 203 355 209
f 204 221 360
f 205 361 366
f 206 367 352
f 210 356 351
f 214 377 379
f 215 380 217
f 220 384 359
f 223 386 392
f 222 391 226
f 229 393 491
f 229 491 372
f 234 397 240
f 238 396 369
f 239 370 269
f 245 274 365
f 244 363 252
f 251 362 402
f 250 401 409
f 249 408 413
f 253 414 257
f 256 412 418
f 259 420 262
f 263 421 425
f 265 426 428
f 266 430 280
f 270 371 364
f 270 364 273
f 281 431 312
f 283 313 301
f 284 303 296
f 286 298 288
f 305 439 441
f 307 443 445
f 308 449 315
f 306 429 427
f 304 424 438
f 314 448 451
f 319 453 329
f 322 344 341
f 332 454 458
f 331 457 470
f 330 469 474
f 327 473 483
f 325 480 487
f 324 486 350
f 323 349 345
f 335 346 485
f 334 484 479
f 333 478 489
f 353 368 395
f 358 383 400
f 374 497 499
f 375 500 505
f 376 506 378
f 381 508 405
f 382 406 399
f 385 509 388
f 390 510 514
f 389 513 519
f 394 521 492
f 404 507 504
f 403 503 525
f 407 529 411
f 410 528 417
f 415 527 532
f 416 533 536
f 419 537 422
f 423 538 437
f 433 465 540
f 434 541 543
f 436 544 546
f 440 547 442
f 435 535 557
f 432 552 463
f 444 548 446
f 447 549 450
f 455 558 459
f 464 559 539
f 462 551 563
f 461 561 495
f 460 494 471
f 466 493 522
f 467 523 481
f 468 482 472
f 475 520 566
f 476 567 569
f 477 570 488
f 496 562 498
f 501 564 553
f 502 554 524
f 512 572 516
f 517 573 575
f 518 576 565
f 526 555 530
f 531 556 534

