# https://github.com/mikedh/trimesh
v 0.10972613 -0.08788542 0.02792266
v 0.10972613 -0.08788542 0.02792266
v 0.10972613 -0.08788542 0.02792266
v 0.10972613 -0.08788542 0.02792266
v 0.10972613 -0.08788542 0.02792266
v 0.08363138 -0.08870852 0.02750332
v 0.08363138 -0.08870852 0.02750332
v 0.08363138 -0.08870852 0.02750332
v 0.08363138 -0.08870852 0.02750332
v 0.08363138 -0.08870852 0.02750332
v 0.08363138 -0.08870852 0.02750332
v 0.08363138 -0.08870852 0.02750332
v 0.10972613 -0.08833519 0.02784478
v 0.10972613 -0.08833519 0.02784478
v 0.10972613 -0.08833519 0.02784478
v 0.10972613 -0.08833519 0.02784478
v 0.10972613 -0.08541615 0.02676649
v 0.10972613 -0.08541615 0.02676649
v 0.10972613 -0.08541615 0.02676649
v 0.10972613 -0.08541615 0.02676649
v 0.10972613 -0.08541615 0.02676649
v 0.10972613 -0.08541615 0.02676649
v -0.00002440 -0.08870852 0.02660475
v -0.00002440 -0.08870852 0.02660475
v -0.00002440 -0.08870852 0.02660475
v -0.00002440 -0.08870852 0.02660475
v -0.00002440 -0.08870852 0.02660475
v 0.10972613 -0.08865854 0.02776990
v 0.10972613 -0.08865854 0.02776990
v 0.10972613 -0.08865854 0.02776990
v 0.10972613 -0.08865854 0.02776990
v 0.10972613 -0.08865854 0.02776990
v 0.10972613 -0.08865854 0.02776990
v 0.10972613 -0.08865854 0.02776990
v 0.10972613 -0.08865854 0.02776990
v 0.10972613 -0.08865854 0.02776990
v 0.10972613 -0.08865854 0.02776990
v 0.10908154 -0.08853802 0.02779685
v 0.10908154 -0.08853802 0.02779685
v 0.10908154 -0.08853802 0.02779685
v -0.00002440 -0.09079858 0.02598772
v -0.00002440 -0.09079858 0.02598772
v -0.00002440 -0.09079858 0.02598772
v -0.00002440 -0.09284749 0.02537969
v -0.00002440 -0.09284749 0.02537969
v -0.00002440 -0.09284749 0.02537969
v -0.00002440 -0.09284749 0.02537969
v -0.00002440 -0.09284749 0.02537969
v -0.00002440 -0.09284749 0.02537969
v -0.00002440 -0.09284749 0.02537969
v 0.10972613 -0.06334846 0.00642872
v 0.10972613 -0.06334846 0.00642872
v 0.10972613 -0.06334846 0.00642872
v -0.00002440 -0.06334846 0.00600340
v -0.00002440 -0.06334846 0.00600340
v -0.00002440 -0.06334846 0.00600340
v -0.00002440 -0.06334846 0.00600340
v -0.00002440 -0.08567484 0.02425347
v -0.00002440 -0.08567484 0.02425347
v -0.00002440 -0.08567484 0.02425347
v -0.00002440 -0.08720637 0.02544259
v -0.00002440 -0.08720637 0.02544259
v -0.00002440 -0.08720637 0.02544259
v 0.06843002 -0.09245652 0.02547254
v 0.06843002 -0.09245652 0.02547254
v 0.06843002 -0.09245652 0.02547254
v 0.07350072 -0.09243594 0.02546655
v 0.07350072 -0.09243594 0.02546655
v 0.07350072 -0.09243594 0.02546655
v 0.07350072 -0.09243594 0.02546655
v 0.07350072 -0.09243594 0.02546655
v 0.08870207 -0.09233601 0.02544558
v 0.08870207 -0.09233601 0.02544558
v 0.08870207 -0.09233601 0.02544558
v 0.08870207 -0.09233601 0.02544558
v 0.08870207 -0.09233601 0.02544558
v 0.10972613 -0.09186860 0.02562530
v 0.10972613 -0.09186860 0.02562530
v 0.10972613 -0.09186860 0.02562530
v 0.10972613 -0.09186860 0.02562530
v 0.10972613 -0.09186860 0.02562530
v 0.10972613 -0.09186860 0.02562530
v 0.10972613 -0.09186860 0.02562530
v 0.01774453 -0.09277106 0.02542462
v 0.01774453 -0.09277106 0.02542462
v 0.01774453 -0.09277106 0.02542462
v 0.01774453 -0.09277106 0.02542462
v 0.02281523 -0.09275342 0.02543360
v 0.02281523 -0.09275342 0.02543360
v 0.02281523 -0.09275342 0.02543360
v 0.02281523 -0.09275342 0.02543360
v 0.02281523 -0.09275342 0.02543360
v 0.02281523 -0.09275342 0.02543360
v 0.02281523 -0.09275342 0.02543360
v 0.02281523 -0.09275342 0.02543360
v -0.00002440 -0.09337368 0.02049443
v -0.00002440 -0.09337368 0.02049443
v -0.00002440 -0.09337368 0.02049443
v 0.00761387 -0.09337663 0.02049443
v 0.00761387 -0.09337663 0.02049443
v 0.00761387 -0.09337663 0.02049443
v 0.00761387 -0.09337663 0.02049443
v 0.00761387 -0.09337663 0.02049443
v 0.00761387 -0.09337663 0.02049443
v 0.00761387 -0.09337663 0.02049443
v 0.00761387 -0.09337663 0.02049443
v 0.00761387 -0.09337663 0.02049443
v 0.00761387 -0.09337663 0.02049443
v 0.00761387 -0.09337663 0.02049443
v 0.00761387 -0.09284455 0.02537669
v 0.00761387 -0.09284455 0.02537669
v 0.00761387 -0.09284455 0.02537669
v 0.00761387 -0.09284455 0.02537669
v 0.00761387 -0.09284455 0.02537669
v 0.10972613 -0.06334846 -0.00258699
v 0.10972613 -0.06334846 -0.00258699
v 0.10972613 -0.06334846 -0.00258699
v -0.00002440 -0.06334846 -0.00264689
v -0.00002440 -0.06334846 -0.00264689
v -0.00002440 -0.06334846 -0.00264689
v 0.10898487 -0.09227721 0.02528983
v 0.10898487 -0.09227721 0.02528983
v 0.10898487 -0.09227721 0.02528983
v 0.10898487 -0.09227721 0.02528983
v 0.10898487 -0.09227721 0.02528983
v 0.10898487 -0.09227721 0.02528983
v 0.10898487 -0.09227721 0.02528983
v 0.10898487 -0.09227721 0.02528983
v 0.10898487 -0.09227721 0.02528983
v 0.10898487 -0.09227721 0.02528983
v 0.10898487 -0.09227721 0.02528983
v 0.10898487 -0.09227721 0.02528983
v 0.10898487 -0.09227721 0.02528983
v 0.10898487 -0.09227721 0.02528983
v 0.09377277 -0.09231248 0.02541862
v 0.09377277 -0.09231248 0.02541862
v 0.09377277 -0.09231248 0.02541862
v 0.09377277 -0.09231248 0.02541862
v 0.10391417 -0.09227427 0.02534674
v 0.10391417 -0.09227427 0.02534674
v 0.10391417 -0.09227427 0.02534674
v 0.10972613 -0.09225663 0.02525688
v 0.10972613 -0.09225663 0.02525688
v 0.10972613 -0.09225663 0.02525688
v 0.10972613 -0.09225663 0.02525688
v 0.10972613 -0.09225663 0.02525688
v 0.01267383 -0.09281516 0.02539466
v 0.01267383 -0.09281516 0.02539466
v 0.01267383 -0.09281516 0.02539466
v -0.00002440 -0.09010777 0.01035849
v -0.00002440 -0.09010777 0.01035849
v -0.00002440 -0.09010777 0.01035849
v 0.00761387 -0.09011071 0.01035849
v 0.00761387 -0.09011071 0.01035849
v 0.00761387 -0.09011071 0.01035849
v 0.00761387 -0.09011071 0.01035849
v 0.01267383 -0.09010777 0.01035849
v 0.01267383 -0.09010777 0.01035849
v 0.01267383 -0.09010777 0.01035849
v 0.01267383 -0.09010777 0.01035849
v 0.01774453 -0.09009895 0.01035849
v 0.01774453 -0.09009895 0.01035849
v 0.01774453 -0.09009895 0.01035849
v 0.01774453 -0.09009895 0.01035849
v 0.01774453 -0.09009895 0.01035849
v 0.02281523 -0.09007250 0.01035849
v 0.02281523 -0.09007250 0.01035849
v 0.02281523 -0.09007250 0.01035849
v 0.02281523 -0.09007250 0.01035849
v 0.02281523 -0.09007250 0.01035849
v 0.02281523 -0.09007250 0.01035849
v 0.02281523 -0.09007250 0.01035849
v 0.01267383 -0.09334135 0.02049443
v 0.01267383 -0.09334135 0.02049443
v 0.01267383 -0.09334135 0.02049443
v 0.01267383 -0.09334135 0.02049443
v 0.01267383 -0.09334135 0.02049443
v 0.10972613 -0.06336610 -0.00258699
v 0.10972613 -0.06336610 -0.00258699
v 0.10972613 -0.06336610 -0.00258699
v 0.10898487 -0.06334846 -0.00263192
v 0.10898487 -0.06334846 -0.00263192
v 0.10898487 -0.06334846 -0.00263192
v 0.10898487 -0.06334846 -0.00263192
v -0.00002440 -0.06336610 -0.00264689
v -0.00002440 -0.06336610 -0.00264689
v -0.00002440 -0.06336610 -0.00264689
v -0.00002440 -0.06336610 -0.00264689
v 0.05826714 -0.06334846 -0.00267085
v 0.05826714 -0.06334846 -0.00267085
v 0.05826714 -0.06334846 -0.00267085
v 0.05826714 -0.06334846 -0.00267085
v 0.07350072 -0.09268581 0.02049443
v 0.07350072 -0.09268581 0.02049443
v 0.07350072 -0.09268581 0.02049443
v 0.07350072 -0.09268581 0.02049443
v 0.09884346 -0.09239479 0.02049443
v 0.09884346 -0.09239479 0.02049443
v 0.09884346 -0.09239479 0.02049443
v 0.09884346 -0.09239479 0.02049443
v 0.10391417 -0.09233601 0.02049443
v 0.10391417 -0.09233601 0.02049443
v 0.10391417 -0.09233601 0.02049443
v 0.10391417 -0.09233601 0.02049443
v 0.10391417 -0.09233601 0.02049443
v 0.10391417 -0.09233601 0.02049443
v 0.10391417 -0.09233601 0.02049443
v 0.10391417 -0.09233601 0.02049443
v 0.02281523 -0.09325610 0.02049443
v 0.02281523 -0.09325610 0.02049443
v 0.02281523 -0.09325610 0.02049443
v 0.02281523 -0.09325610 0.02049443
v 0.02281523 -0.09325610 0.02049443
v 0.02281523 -0.09325610 0.02049443
v 0.02788592 -0.09320024 0.02049443
v 0.02788592 -0.09320024 0.02049443
v 0.02788592 -0.09320024 0.02049443
v 0.02788592 -0.09320024 0.02049443
v 0.10972613 -0.09209201 0.02051240
v 0.10972613 -0.09209201 0.02051240
v 0.10972613 -0.09209201 0.02051240
v 0.10972613 -0.09209201 0.02051240
v 0.10972613 -0.09209201 0.02051240
v 0.10972613 -0.09209201 0.02051240
v 0.10972613 -0.09209201 0.02051240
v -0.00002440 -0.08830579 0.00528753
v -0.00002440 -0.08830579 0.00528753
v -0.00002440 -0.08830579 0.00528753
v -0.00002440 -0.08830579 0.00528753
v 0.01774453 -0.08830284 0.00528753
v 0.01774453 -0.08830284 0.00528753
v 0.01774453 -0.08830284 0.00528753
v 0.01774453 -0.08830284 0.00528753
v 0.01774453 -0.08830284 0.00528753
v 0.01774453 -0.08830284 0.00528753
v 0.00761387 -0.08830873 0.00528753
v 0.00761387 -0.08830873 0.00528753
v 0.00761387 -0.08830873 0.00528753
v 0.00761387 -0.08830873 0.00528753
v 0.02281523 -0.08828815 0.00528753
v 0.02281523 -0.08828815 0.00528753
v 0.02281523 -0.08828815 0.00528753
v 0.02281523 -0.08828815 0.00528753
v 0.02281523 -0.08828815 0.00528753
v 0.02281523 -0.08828815 0.00528753
v 0.02281523 -0.08828815 0.00528753
v 0.02281523 -0.08828815 0.00528753
v 0.02281523 -0.08828815 0.00528753
v 0.02788592 -0.09003135 0.01035849
v 0.02788592 -0.09003135 0.01035849
v 0.02788592 -0.09003135 0.01035849
v 0.02788592 -0.09003135 0.01035849
v 0.02788592 -0.09003135 0.01035849
v 0.03802732 -0.08817644 0.00528753
v 0.03802732 -0.08817644 0.00528753
v 0.03802732 -0.08817644 0.00528753
v 0.03802732 -0.08817644 0.00528753
v 0.06335932 -0.08798537 0.00528753
v 0.06335932 -0.08798537 0.00528753
v 0.06335932 -0.08798537 0.00528753
v 0.06335932 -0.08798537 0.00528753
v 0.06335932 -0.08798537 0.00528753
v 0.06335932 -0.08798537 0.00528753
v 0.10972613 -0.06416861 -0.00256602
v 0.10972613 -0.06416861 -0.00256602
v 0.10972613 -0.06416861 -0.00256602
v 0.10898487 -0.06336610 -0.00263192
v 0.10898487 -0.06336610 -0.00263192
v 0.10898487 -0.06336610 -0.00263192
v 0.10898487 -0.06336610 -0.00263192
v 0.10898487 -0.06336610 -0.00263192
v 0.10898487 -0.06336610 -0.00263192
v 0.10898487 -0.06336610 -0.00263192
v 0.10391417 -0.06336610 -0.00267684
v 0.10391417 -0.06336610 -0.00267684
v 0.10391417 -0.06336610 -0.00267684
v 0.10391417 -0.06336610 -0.00267684
v 0.10391417 -0.06336610 -0.00267684
v 0.10391417 -0.06336610 -0.00267684
v 0.10391417 -0.06336610 -0.00267684
v 0.10391417 -0.06336610 -0.00267684
v 0.10391417 -0.06334846 -0.00267385
v 0.10391417 -0.06334846 -0.00267385
v 0.10391417 -0.06334846 -0.00267385
v 0.05828862 -0.06336610 -0.00267085
v 0.05828862 -0.06336610 -0.00267085
v 0.05828862 -0.06336610 -0.00267085
v 0.05828862 -0.06336610 -0.00267085
v 0.05828862 -0.06336610 -0.00267085
v 0.05828862 -0.06336610 -0.00267085
v -0.00002440 -0.06545616 -0.00256602
v -0.00002440 -0.06545616 -0.00256602
v -0.00002440 -0.06545616 -0.00256602
v 0.07347924 -0.06334846 -0.00267385
v 0.07347924 -0.06334846 -0.00267385
v 0.07347924 -0.06334846 -0.00267385
v 0.07347924 -0.06334846 -0.00267385
v 0.06843002 -0.08965801 0.01035849
v 0.06843002 -0.08965801 0.01035849
v 0.06843002 -0.08965801 0.01035849
v 0.06843002 -0.08965801 0.01035849
v 0.07856068 -0.08954336 0.01035849
v 0.07856068 -0.08954336 0.01035849
v 0.07856068 -0.08954336 0.01035849
v 0.07856068 -0.08954336 0.01035849
v 0.07856068 -0.08954336 0.01035849
v 0.09884346 -0.08929938 0.01035849
v 0.09884346 -0.08929938 0.01035849
v 0.09884346 -0.08929938 0.01035849
v 0.09884346 -0.08929938 0.01035849
v 0.10391417 -0.08913770 0.01035849
v 0.10391417 -0.08913770 0.01035849
v 0.10391417 -0.08913770 0.01035849
v 0.10391417 -0.08913770 0.01035849
v 0.10391417 -0.08913770 0.01035849
v 0.10391417 -0.08913770 0.01035849
v 0.10854439 -0.09208026 0.02025181
v 0.10854439 -0.09208026 0.02025181
v 0.10854439 -0.09208026 0.02025181
v 0.08363138 -0.08948457 0.01035849
v 0.08363138 -0.08948457 0.01035849
v 0.08363138 -0.08948457 0.01035849
v 0.08363138 -0.08948457 0.01035849
v 0.04815797 -0.08985791 0.01035849
v 0.04815797 -0.08985791 0.01035849
v 0.04815797 -0.08985791 0.01035849
v 0.04815797 -0.08985791 0.01035849
v 0.04815797 -0.08985791 0.01035849
v 0.04815797 -0.08985791 0.01035849
v 0.06335932 -0.08971386 0.01035849
v 0.06335932 -0.08971386 0.01035849
v 0.06335932 -0.08971386 0.01035849
v 0.06335932 -0.08971386 0.01035849
v 0.06335932 -0.08971386 0.01035849
v 0.10882372 -0.08689478 0.00498501
v 0.10882372 -0.08689478 0.00498501
v 0.10882372 -0.08689478 0.00498501
v 0.10882372 -0.08689478 0.00498501
v 0.10882372 -0.08689478 0.00498501
v 0.10972613 -0.08684186 0.00526357
v 0.10972613 -0.08684186 0.00526357
v 0.10972613 -0.08684186 0.00526357
v 0.10391417 -0.08746212 0.00528753
v 0.10391417 -0.08746212 0.00528753
v 0.10391417 -0.08746212 0.00528753
v 0.10391417 -0.08746212 0.00528753
v 0.10391417 -0.08746212 0.00528753
v 0.10391417 -0.08746212 0.00528753
v -0.00002440 -0.08748269 0.00381387
v -0.00002440 -0.08748269 0.00381387
v -0.00002440 -0.08748269 0.00381387
v 0.00761387 -0.08667725 0.00236417
v 0.00761387 -0.08667725 0.00236417
v 0.00761387 -0.08667725 0.00236417
v 0.00761387 -0.08667725 0.00236417
v 0.00761387 -0.08667725 0.00236417
v 0.00761387 -0.08667725 0.00236417
v 0.01774453 -0.08668018 0.00236417
v 0.01774453 -0.08668018 0.00236417
v 0.01774453 -0.08668018 0.00236417
v 0.01774453 -0.08668018 0.00236417
v 0.01774453 -0.08668018 0.00236417
v 0.02281523 -0.08667430 0.00236716
v 0.02281523 -0.08667430 0.00236716
v 0.02281523 -0.08667430 0.00236716
v 0.02281523 -0.08667430 0.00236716
v 0.02281523 -0.08667430 0.00236716
v 0.02281523 -0.08667430 0.00236716
v 0.02281523 -0.08667430 0.00236716
v 0.02281523 -0.08667430 0.00236716
v 0.03802732 -0.08663609 0.00238513
v 0.03802732 -0.08663609 0.00238513
v 0.03802732 -0.08663609 0.00238513
v 0.03802732 -0.08663609 0.00238513
v 0.03802732 -0.08663609 0.00238513
v 0.06335932 -0.08656847 0.00242108
v 0.06335932 -0.08656847 0.00242108
v 0.06335932 -0.08656847 0.00242108
v 0.06335932 -0.08656847 0.00242108
v 0.06335932 -0.08656847 0.00242108
v 0.06335932 -0.08656847 0.00242108
v 0.08870207 -0.08648617 0.00247199
v 0.08870207 -0.08648617 0.00247199
v 0.08870207 -0.08648617 0.00247199
v 0.08870207 -0.08648617 0.00247199
v 0.09884346 -0.08644501 0.00250195
v 0.09884346 -0.08644501 0.00250195
v 0.09884346 -0.08644501 0.00250195
v 0.09884346 -0.08644501 0.00250195
v 0.09884346 -0.08644501 0.00250195
v 0.09884346 -0.08644501 0.00250195
v 0.09884346 -0.08644501 0.00250195
v 0.09884346 -0.08644501 0.00250195
v 0.09884346 -0.08644501 0.00250195
v 0.09884346 -0.08644501 0.00250195
v 0.08363138 -0.08780018 0.00528753
v 0.08363138 -0.08780018 0.00528753
v 0.08363138 -0.08780018 0.00528753
v 0.08363138 -0.08780018 0.00528753
v 0.10972613 -0.06693185 -0.00244022
v 0.10972613 -0.06693185 -0.00244022
v 0.10972613 -0.06693185 -0.00244022
v 0.10972613 -0.06693185 -0.00244022
v 0.10972613 -0.06693185 -0.00244022
v 0.10898487 -0.06711704 -0.00245819
v 0.10898487 -0.06711704 -0.00245819
v 0.10898487 -0.06711704 -0.00245819
v 0.10898487 -0.06711704 -0.00245819
v 0.10898487 -0.06711704 -0.00245819
v 0.10391417 -0.06757268 -0.00250013
v 0.10391417 -0.06757268 -0.00250013
v 0.10391417 -0.06757268 -0.00250013
v 0.10391417 -0.06757268 -0.00250013
v 0.10391417 -0.06757268 -0.00250013
v 0.10391417 -0.06757268 -0.00250013
v 0.10391417 -0.06757268 -0.00250013
v 0.07350072 -0.06764912 -0.00249713
v 0.07350072 -0.06764912 -0.00249713
v 0.07350072 -0.06764912 -0.00249713
v 0.07350072 -0.06764912 -0.00249713
v 0.07350072 -0.06764912 -0.00249713
v 0.05828862 -0.06764323 -0.00249713
v 0.05828862 -0.06764323 -0.00249713
v 0.05828862 -0.06764323 -0.00249713
v 0.05828862 -0.06764323 -0.00249713
v 0.05828862 -0.06764323 -0.00249713
v 0.05828862 -0.06764323 -0.00249713
v 0.05828862 -0.06764323 -0.00249713
v 0.05828862 -0.06764323 -0.00249713
v 0.05828862 -0.06764323 -0.00249713
v 0.07350072 -0.06336610 -0.00267385
v 0.07350072 -0.06336610 -0.00267385
v 0.07350072 -0.06336610 -0.00267385
v 0.07350072 -0.06336610 -0.00267385
v -0.00002440 -0.06758151 -0.00248215
v -0.00002440 -0.06758151 -0.00248215
v -0.00002440 -0.06758151 -0.00248215
v -0.00002440 -0.06758151 -0.00248215
v 0.09884346 -0.08764438 0.00528753
v 0.09884346 -0.08764438 0.00528753
v 0.09884346 -0.08764438 0.00528753
v 0.09884346 -0.08764438 0.00528753
v 0.09884346 -0.08764438 0.00528753
v 0.09884346 -0.08764438 0.00528753
v 0.09884346 -0.08764438 0.00528753
v 0.09884346 -0.08764438 0.00528753
v 0.09884346 -0.08764438 0.00528753
v 0.09884346 -0.08764438 0.00528753
v 0.08870207 -0.08775314 0.00528753
v 0.08870207 -0.08775314 0.00528753
v 0.08870207 -0.08775314 0.00528753
v 0.08870207 -0.08775314 0.00528753
v 0.08870207 -0.08775314 0.00528753
v 0.10702963 -0.08623631 0.00269065
v 0.10702963 -0.08623631 0.00269065
v 0.10702963 -0.08623631 0.00269065
v 0.10702963 -0.08623631 0.00269065
v 0.10702963 -0.08623631 0.00269065
v 0.10702963 -0.08623631 0.00269065
v 0.10702963 -0.08623631 0.00269065
v 0.10702963 -0.08623631 0.00269065
v 0.10972613 -0.08633625 0.00391271
v 0.10972613 -0.08633625 0.00391271
v 0.10972613 -0.08633625 0.00391271
v 0.10972613 -0.08633625 0.00391271
v 0.10391417 -0.08635388 0.00258282
v 0.10391417 -0.08635388 0.00258282
v 0.10391417 -0.08635388 0.00258282
v 0.10391417 -0.08635388 0.00258282
v 0.10391417 -0.08635388 0.00258282
v -0.00002440 -0.08667430 0.00236716
v -0.00002440 -0.08667430 0.00236716
v -0.00002440 -0.08667430 0.00236716
v -0.00002440 -0.08514277 0.00183101
v -0.00002440 -0.08514277 0.00183101
v -0.00002440 -0.08514277 0.00183101
v -0.00002440 -0.08514277 0.00183101
v -0.00002440 -0.08514277 0.00183101
v 0.01774453 -0.08363769 0.00130085
v 0.01774453 -0.08363769 0.00130085
v 0.01774453 -0.08363769 0.00130085
v 0.01774453 -0.08363769 0.00130085
v 0.01774453 -0.08363769 0.00130085
v 0.01774453 -0.08363769 0.00130085
v 0.01774453 -0.08363769 0.00130085
v 0.01774453 -0.08363769 0.00130085
v 0.01774453 -0.08363769 0.00130085
v 0.01774453 -0.08363769 0.00130085
v 0.01774453 -0.08363769 0.00130085
v 0.01774453 -0.08363769 0.00130085
v 0.02281523 -0.08363769 0.00130684
v 0.02281523 -0.08363769 0.00130684
v 0.02281523 -0.08363769 0.00130684
v 0.02281523 -0.08363769 0.00130684
v 0.05828862 -0.08363769 0.00136675
v 0.05828862 -0.08363769 0.00136675
v 0.05828862 -0.08363769 0.00136675
v 0.05828862 -0.08363769 0.00136675
v 0.06335932 -0.08363769 0.00137573
v 0.06335932 -0.08363769 0.00137573
v 0.06335932 -0.08363769 0.00137573
v 0.06335932 -0.08363769 0.00137573
v 0.06335932 -0.08363769 0.00137573
v 0.06335932 -0.08363769 0.00137573
v 0.05828862 -0.08658024 0.00241209
v 0.05828862 -0.08658024 0.00241209
v 0.05828862 -0.08658024 0.00241209
v 0.05828862 -0.08658024 0.00241209
v 0.05828862 -0.08658024 0.00241209
v 0.08870207 -0.08363769 0.00143863
v 0.08870207 -0.08363769 0.00143863
v 0.08870207 -0.08363769 0.00143863
v 0.08870207 -0.08363769 0.00143863
v 0.08870207 -0.08363769 0.00143863
v 0.09884346 -0.08363769 0.00146858
v 0.09884346 -0.08363769 0.00146858
v 0.09884346 -0.08363769 0.00146858
v 0.09884346 -0.08363769 0.00146858
v 0.09884346 -0.08363769 0.00146858
v 0.09884346 -0.08363769 0.00146858
v 0.10391417 -0.08363769 0.00155545
v 0.10391417 -0.08363769 0.00155545
v 0.10391417 -0.08363769 0.00155545
v 0.10391417 -0.08363769 0.00155545
v 0.10391417 -0.08363769 0.00155545
v 0.10391417 -0.08363769 0.00155545
v 0.10391417 -0.08363769 0.00155545
v 0.10972613 -0.06943052 -0.00206581
v 0.10972613 -0.06943052 -0.00206581
v 0.10972613 -0.06943052 -0.00206581
v 0.10898487 -0.06965099 -0.00214070
v 0.10898487 -0.06965099 -0.00214070
v 0.10898487 -0.06965099 -0.00214070
v 0.10898487 -0.06965099 -0.00214070
v 0.10898487 -0.06965099 -0.00214070
v 0.10898487 -0.06965099 -0.00214070
v 0.10391417 -0.07010664 -0.00220359
v 0.10391417 -0.07010664 -0.00220359
v 0.10391417 -0.07010664 -0.00220359
v 0.10391417 -0.07010664 -0.00220359
v 0.10391417 -0.07010664 -0.00220359
v 0.10391417 -0.07010664 -0.00220359
v 0.07856068 -0.07017718 -0.00221857
v 0.07856068 -0.07017718 -0.00221857
v 0.07856068 -0.07017718 -0.00221857
v 0.07856068 -0.07017718 -0.00221857
v 0.07856068 -0.07017718 -0.00221857
v 0.07856068 -0.07017718 -0.00221857
v 0.07856068 -0.06764323 -0.00249713
v 0.07856068 -0.06764323 -0.00249713
v 0.07856068 -0.06764323 -0.00249713
v 0.07350072 -0.07018306 -0.00221857
v 0.07350072 -0.07018306 -0.00221857
v 0.07350072 -0.07018306 -0.00221857
v 0.07350072 -0.07018306 -0.00221857
v 0.07350072 -0.07018306 -0.00221857
v 0.07350072 -0.07018306 -0.00221857
v 0.05828862 -0.07017718 -0.00221857
v 0.05828862 -0.07017718 -0.00221857
v 0.05828862 -0.07017718 -0.00221857
v 0.05828862 -0.07017718 -0.00221857
v 0.00254318 -0.07012133 -0.00221558
v 0.00254318 -0.07012133 -0.00221558
v 0.00254318 -0.07012133 -0.00221558
v 0.00254318 -0.07012133 -0.00221558
v -0.00002440 -0.07011545 -0.00221558
v -0.00002440 -0.07011545 -0.00221558
v -0.00002440 -0.07011545 -0.00221558
v -0.00002440 -0.07011545 -0.00221558
v -0.00002440 -0.07011545 -0.00221558
v -0.00002440 -0.06883672 -0.00235036
v -0.00002440 -0.06883672 -0.00235036
v -0.00002440 -0.06883672 -0.00235036
v 0.10882372 -0.08398456 0.00195082
v 0.10882372 -0.08398456 0.00195082
v 0.10882372 -0.08398456 0.00195082
v 0.10882372 -0.08398456 0.00195082
v 0.10882372 -0.08398456 0.00195082
v 0.10972613 -0.08377290 0.00195681
v 0.10972613 -0.08377290 0.00195681
v 0.10972613 -0.08377290 0.00195681
v 0.10972613 -0.08377290 0.00195681
v 0.10972613 -0.08597467 0.00301114
v 0.10972613 -0.08597467 0.00301114
v 0.10972613 -0.08597467 0.00301114
v -0.00002440 -0.08363769 0.00130684
v -0.00002440 -0.08363769 0.00130684
v -0.00002440 -0.08363769 0.00130684
v -0.00002440 -0.08363769 0.00130684
v 0.00761387 -0.08363769 0.00130385
v 0.00761387 -0.08363769 0.00130385
v 0.00761387 -0.08363769 0.00130385
v 0.00761387 -0.08363769 0.00130385
v 0.00761387 -0.07350483 -0.00142483
v 0.00761387 -0.07350483 -0.00142483
v 0.00761387 -0.07350483 -0.00142483
v 0.00761387 -0.07350483 -0.00142483
v 0.00761387 -0.07350483 -0.00142483
v 0.00761387 -0.07350483 -0.00142483
v 0.00761387 -0.07350483 -0.00142483
v 0.00761387 -0.07350483 -0.00142483
v 0.00761387 -0.07350483 -0.00142483
v 0.04815797 -0.07350483 -0.00142183
v 0.04815797 -0.07350483 -0.00142183
v 0.04815797 -0.07350483 -0.00142183
v 0.04815797 -0.07350483 -0.00142183
v 0.06335932 -0.07350483 -0.00141884
v 0.06335932 -0.07350483 -0.00141884
v 0.06335932 -0.07350483 -0.00141884
v 0.06335932 -0.07350483 -0.00141884
v 0.07350072 -0.07350483 -0.00141584
v 0.07350072 -0.07350483 -0.00141584
v 0.07350072 -0.07350483 -0.00141584
v 0.07350072 -0.07350483 -0.00141584
v 0.10391417 -0.07350483 -0.00139787
v 0.10391417 -0.07350483 -0.00139787
v 0.10391417 -0.07350483 -0.00139787
v 0.10391417 -0.07350483 -0.00139787
v 0.10391417 -0.07350483 -0.00139787
v 0.10391417 -0.07350483 -0.00139787
v 0.10391417 -0.07856978 -0.00000208
v 0.10391417 -0.07856978 -0.00000208
v 0.10391417 -0.07856978 -0.00000208
v 0.10391417 -0.07856978 -0.00000208
v 0.10391417 -0.07856978 -0.00000208
v 0.10391417 -0.07856978 -0.00000208
v 0.10391417 -0.07856978 -0.00000208
v 0.10391417 -0.07856978 -0.00000208
v 0.10391417 -0.07856978 -0.00000208
v 0.10391417 -0.07856978 -0.00000208
v 0.10391417 -0.07856978 -0.00000208
v 0.06843002 -0.08363769 0.00138771
v 0.06843002 -0.08363769 0.00138771
v 0.06843002 -0.08363769 0.00138771
v 0.06843002 -0.08363769 0.00138771
v 0.10898487 -0.07856978 0.00014169
v 0.10898487 -0.07856978 0.00014169
v 0.10898487 -0.07856978 0.00014169
v 0.10898487 -0.07856978 0.00014169
v 0.10898487 -0.07856978 0.00014169
v 0.10898487 -0.07856978 0.00014169
v 0.10972613 -0.07021540 -0.00192803
v 0.10972613 -0.07021540 -0.00192803
v 0.10972613 -0.07021540 -0.00192803
v 0.10972613 -0.07021540 -0.00192803
v 0.10898487 -0.07350483 -0.00125709
v 0.10898487 -0.07350483 -0.00125709
v 0.10898487 -0.07350483 -0.00125709
v 0.10898487 -0.07350483 -0.00125709
v 0.10898487 -0.07350483 -0.00125709
v 0.10898487 -0.07350483 -0.00125709
v 0.10898487 -0.07350483 -0.00125709
v 0.10898487 -0.07350483 -0.00125709
v -0.00002440 -0.07350483 -0.00141884
v -0.00002440 -0.07350483 -0.00141884
v -0.00002440 -0.07350483 -0.00141884
v 0.10972613 -0.07856978 0.00020459
v 0.10972613 -0.07856978 0.00020459
v 0.10972613 -0.07856978 0.00020459
v 0.10972613 -0.07856978 0.00020459
v 0.10972613 -0.07424267 -0.00099052
v 0.10972613 -0.07424267 -0.00099052
v 0.10972613 -0.07424267 -0.00099052
v 0.10972613 -0.07424267 -0.00099052
v 0.10972613 -0.07350483 -0.00117323
v 0.10972613 -0.07350483 -0.00117323
v 0.10972613 -0.07350483 -0.00117323
f 3 7 13
f 4 16 37
f 4 37 82
f 5 83 146
f 4 145 225
f 4 225 342
f 4 342 465
f 4 465 585
f 4 585 582
f 4 582 660
f 4 660 664
f 4 664 667
f 4 667 645
f 4 645 530
f 4 530 404
f 4 404 266
f 4 266 180
f 4 180 117
f 4 117 53
f 4 53 22
f 1 20 25
f 2 26 6
f 11 28 39
f 10 38 14
f 9 27 43
f 8 42 45
f 12 46 29
f 15 40 30
f 21 51 56
f 19 55 60
f 17 59 62
f 18 63 24
f 23 61 58
f 23 58 54
f 23 54 118
f 23 118 185
f 23 185 291
f 23 291 435
f 23 435 571
f 23 571 566
f 23 566 654
f 23 654 586
f 23 586 474
f 23 474 471
f 23 471 349
f 23 349 226
f 23 226 150
f 23 150 96
f 23 96 44
f 23 44 41
f 34 65 67
f 35 69 72
f 36 73 77
f 31 48 84
f 32 85 88
f 33 91 64
f 47 98 100
f 49 101 110
f 50 111 86
f 52 115 181
f 52 181 283
f 52 283 297
f 52 297 192
f 52 192 120
f 52 120 57
f 66 92 68
f 71 123 74
f 70 95 122
f 75 125 135
f 76 136 78
f 79 138 140
f 80 141 127
f 81 134 144
f 87 112 89
f 90 113 147
f 93 149 106
f 94 107 121
f 97 152 154
f 97 154 99
f 105 148 114
f 102 156 158
f 103 160 162
f 104 165 167
f 108 168 173
f 109 174 124
f 116 178 272
f 116 272 184
f 119 189 186
f 131 196 199
f 132 200 203
f 133 204 142
f 126 139 137
f 128 177 211
f 129 214 217
f 130 218 195
f 143 208 220
f 151 228 236
f 151 236 153
f 155 231 157
f 155 239 231
f 159 233 161
f 163 235 241
f 164 245 166
f 172 250 175
f 169 248 256
f 170 257 259
f 171 260 249
f 176 251 209
f 179 265 273
f 183 267 280
f 182 279 284
f 187 190 285
f 188 286 292
f 191 294 431
f 191 431 289
f 193 301 303
f 194 305 197
f 193 216 301
f 198 306 321
f 198 321 201
f 205 310 312
f 206 314 317
f 207 318 219
f 202 323 308
f 210 253 325
f 212 329 331
f 213 334 299
f 213 299 215
f 224 338 340
f 221 319 315
f 222 316 346
f 223 348 336
f 227 351 354
f 229 356 237
f 232 362 365
f 234 369 240
f 230 238 360
f 237 356 358
f 242 370 373
f 243 375 380
f 244 381 383
f 246 385 387
f 247 388 254
f 252 261 324
f 255 389 258
f 262 390 396
f 263 398 326
f 264 401 271
f 270 400 408
f 269 405 415
f 268 414 281
f 277 410 418
f 276 417 429
f 275 428 434
f 274 433 295
f 278 296 282
f 287 436 293
f 290 432 425
f 288 424 438
f 298 333 441
f 300 442 302
f 304 443 320
f 309 446 311
f 307 322 444
f 313 448 344
f 327 399 450
f 328 451 330
f 332 453 440
f 337 459 462
f 339 464 341
f 335 347 457
f 345 470 455
f 343 447 468
f 350 473 353
f 352 472 475
f 355 478 481
f 357 482 359
f 361 487 363
f 364 490 492
f 366 494 496
f 367 498 500
f 368 501 371
f 372 502 505
f 374 509 378
f 376 508 512
f 377 514 516
f 379 517 382
f 384 518 386
f 393 519 521
f 394 523 466
f 395 467 445
f 392 439 452
f 391 449 397
f 403 528 535
f 402 533 409
f 407 531 540
f 406 539 416
f 413 537 547
f 412 544 551
f 411 549 420
f 421 550 543
f 421 543 554
f 419 553 561
f 419 561 430
f 427 559 565
f 426 564 570
f 423 569 573
f 422 572 437
f 458 578 580
f 461 581 584
f 460 583 463
f 454 469 525
f 456 526 574
f 476 589 591
f 477 593 480
f 479 592 599
f 483 602 604
f 484 606 608
f 485 610 612
f 486 614 616
f 488 617 621
f 489 622 491
f 493 623 495
f 497 624 499
f 503 632 506
f 504 625 633
f 507 635 511
f 510 634 626
f 513 627 515
f 520 628 522
f 524 630 636
f 527 638 575
f 529 644 536
f 534 642 651
f 532 649 542
f 541 647 620
f 538 618 548
f 545 611 609
f 545 609 557
f 546 615 613
f 556 607 605
f 555 603 601
f 552 600 560
f 558 598 563
f 562 596 568
f 567 594 655
f 576 639 657
f 577 658 579
f 587 656 595
f 588 597 590
f 619 646 629
f 631 648 637
f 640 650 661
f 641 662 659
f 643 666 653
f 652 665 663

