# https://github.com/mikedh/trimesh
v -0.10913823 -0.08849300 0.02780524
v -0.10913823 -0.08849300 0.02780524
v -0.10913823 -0.08849300 0.02780524
v -0.10913823 -0.08849300 0.02780524
v -0.10913823 -0.08849300 0.02780524
v -0.10913823 -0.08849300 0.02780524
v -0.10913823 -0.08849300 0.02780524
v -0.10913823 -0.08849300 0.02780524
v -0.10913823 -0.08502892 0.02598434
v -0.10913823 -0.08502892 0.02598434
v -0.10913823 -0.08502892 0.02598434
v -0.10913823 -0.08502892 0.02598434
v -0.10913823 -0.08502892 0.02598434
v -0.10913823 -0.08851356 0.02779629
v -0.10913823 -0.08851356 0.02779629
v -0.10913823 -0.08851356 0.02779629
v -0.10913823 -0.08851356 0.02779629
v -0.10912755 -0.08850475 0.02780226
v -0.10912755 -0.08850475 0.02780226
v -0.10912755 -0.08850475 0.02780226
v -0.10912755 -0.08850475 0.02780226
v -0.10912755 -0.08850475 0.02780226
v -0.10912755 -0.08850475 0.02780226
v -0.10912755 -0.08850475 0.02780226
v -0.10912755 -0.08850475 0.02780226
v -0.10912755 -0.08850475 0.02780226
v -0.10912755 -0.08850475 0.02780226
v -0.10912755 -0.08850475 0.02780226
v -0.10912755 -0.08850475 0.02780226
v -0.10912755 -0.08850475 0.02780226
v -0.08363277 -0.08870731 0.02752166
v -0.08363277 -0.08870731 0.02752166
v -0.08363277 -0.08870731 0.02752166
v -0.08363277 -0.08870731 0.02752166
v -0.07857012 -0.08870731 0.02747091
v -0.07857012 -0.08870731 0.02747091
v -0.07857012 -0.08870731 0.02747091
v -0.07857012 -0.08870731 0.02747091
v -0.07857012 -0.08870731 0.02747091
v -0.00003508 -0.08870731 0.02660523
v -0.00003508 -0.08870731 0.02660523
v -0.00003508 -0.08870731 0.02660523
v -0.00003508 -0.08870731 0.02660523
v -0.00003508 -0.08870731 0.02660523
v -0.10913823 -0.06339604 0.00630367
v -0.10913823 -0.06339604 0.00630367
v -0.10913823 -0.06339604 0.00630367
v -0.00003508 -0.08567477 0.02425299
v -0.00003508 -0.08567477 0.02425299
v -0.00003508 -0.08567477 0.02425299
v -0.00003508 -0.06339604 0.00600516
v -0.00003508 -0.06339604 0.00600516
v -0.00003508 -0.06339604 0.00600516
v -0.00003508 -0.06339604 0.00600516
v -0.10913823 -0.09228001 0.02529478
v -0.10913823 -0.09228001 0.02529478
v -0.10913823 -0.09228001 0.02529478
v -0.10913823 -0.09228001 0.02529478
v -0.10897802 -0.09228294 0.02530075
v -0.10897802 -0.09228294 0.02530075
v -0.10897802 -0.09228294 0.02530075
v -0.10897802 -0.09228294 0.02530075
v -0.10897802 -0.09228294 0.02530075
v -0.10897802 -0.09228294 0.02530075
v -0.10897802 -0.09228294 0.02530075
v -0.10897802 -0.09228294 0.02530075
v -0.10897802 -0.09228294 0.02530075
v -0.10897802 -0.09228294 0.02530075
v -0.10897802 -0.09228294 0.02530075
v -0.10897802 -0.09228294 0.02530075
v -0.10897802 -0.09228294 0.02530075
v -0.10897802 -0.09228294 0.02530075
v -0.10897802 -0.09228294 0.02530075
v -0.10391538 -0.09227708 0.02536344
v -0.10391538 -0.09227708 0.02536344
v -0.10391538 -0.09227708 0.02536344
v -0.08870610 -0.09233872 0.02547090
v -0.08870610 -0.09233872 0.02547090
v -0.08870610 -0.09233872 0.02547090
v -0.08870610 -0.09233872 0.02547090
v -0.08870610 -0.09233872 0.02547090
v -0.07857012 -0.09240331 0.02548284
v -0.07857012 -0.09240331 0.02548284
v -0.07857012 -0.09240331 0.02548284
v -0.07349680 -0.09244147 0.02548284
v -0.07349680 -0.09244147 0.02548284
v -0.07349680 -0.09244147 0.02548284
v -0.07349680 -0.09244147 0.02548284
v -0.07349680 -0.09244147 0.02548284
v -0.02789029 -0.09272917 0.02544702
v -0.02789029 -0.09272917 0.02544702
v -0.02789029 -0.09272917 0.02544702
v -0.02789029 -0.09272917 0.02544702
v -0.02281697 -0.09276146 0.02543807
v -0.02281697 -0.09276146 0.02543807
v -0.02281697 -0.09276146 0.02543807
v -0.02281697 -0.09276146 0.02543807
v -0.02281697 -0.09276146 0.02543807
v -0.02281697 -0.09276146 0.02543807
v -0.01774365 -0.09277614 0.02543210
v -0.01774365 -0.09277614 0.02543210
v -0.01774365 -0.09277614 0.02543210
v -0.01774365 -0.09277614 0.02543210
v -0.00760768 -0.09285541 0.02538434
v -0.00760768 -0.09285541 0.02538434
v -0.00760768 -0.09285541 0.02538434
v -0.00760768 -0.09285541 0.02538434
v -0.00760768 -0.09285541 0.02538434
v -0.00760768 -0.09285541 0.02538434
v -0.00760768 -0.09285541 0.02538434
v -0.00760768 -0.09285541 0.02538434
v -0.00003508 -0.09284659 0.02538135
v -0.00003508 -0.09284659 0.02538135
v -0.00003508 -0.09284659 0.02538135
v -0.00003508 -0.09284659 0.02538135
v -0.00003508 -0.09284659 0.02538135
v -0.00003508 -0.09284659 0.02538135
v -0.00003508 -0.09080044 0.02598732
v -0.00003508 -0.09080044 0.02598732
v -0.00003508 -0.09080044 0.02598732
v -0.10913823 -0.06339604 -0.00264264
v -0.10913823 -0.06339604 -0.00264264
v -0.10913823 -0.06339604 -0.00264264
v -0.00003508 -0.06339604 -0.00264562
v -0.00003508 -0.06339604 -0.00264562
v -0.00003508 -0.06339604 -0.00264562
v -0.10913823 -0.09228001 0.02518433
v -0.10913823 -0.09228001 0.02518433
v -0.10913823 -0.09228001 0.02518433
v -0.10913823 -0.09228001 0.02518433
v -0.10913823 -0.09228001 0.02518433
v -0.10391538 -0.09234460 0.02049178
v -0.10391538 -0.09234460 0.02049178
v -0.10391538 -0.09234460 0.02049178
v -0.10391538 -0.09234460 0.02049178
v -0.10391538 -0.09234460 0.02049178
v -0.10391538 -0.09234460 0.02049178
v -0.10391538 -0.09234460 0.02049178
v -0.10391538 -0.09234460 0.02049178
v -0.10391538 -0.09234460 0.02049178
v -0.10391538 -0.09234460 0.02049178
v -0.02789029 -0.09321061 0.02049178
v -0.02789029 -0.09321061 0.02049178
v -0.02789029 -0.09321061 0.02049178
v -0.02789029 -0.09321061 0.02049178
v -0.02281697 -0.09326639 0.02049178
v -0.02281697 -0.09326639 0.02049178
v -0.02281697 -0.09326639 0.02049178
v -0.02281697 -0.09326639 0.02049178
v -0.02281697 -0.09326639 0.02049178
v -0.02281697 -0.09326639 0.02049178
v -0.01268101 -0.09334859 0.02049178
v -0.01268101 -0.09334859 0.02049178
v -0.01268101 -0.09334859 0.02049178
v -0.01268101 -0.09334859 0.02049178
v -0.01268101 -0.09334859 0.02049178
v -0.00760768 -0.09338382 0.02049178
v -0.00760768 -0.09338382 0.02049178
v -0.00760768 -0.09338382 0.02049178
v -0.00760768 -0.09338382 0.02049178
v -0.00760768 -0.09338382 0.02049178
v -0.00760768 -0.09338382 0.02049178
v -0.00760768 -0.09338382 0.02049178
v -0.00760768 -0.09338382 0.02049178
v -0.00760768 -0.09338382 0.02049178
v -0.01268101 -0.09282017 0.02540523
v -0.01268101 -0.09282017 0.02540523
v -0.01268101 -0.09282017 0.02540523
v -0.00003508 -0.09311374 0.02291268
v -0.00003508 -0.09311374 0.02291268
v -0.00003508 -0.09311374 0.02291268
v -0.00003508 -0.09311374 0.02291268
v -0.10913823 -0.06723883 -0.00246950
v -0.10913823 -0.06723883 -0.00246950
v -0.10913823 -0.06723883 -0.00246950
v -0.10913823 -0.06723883 -0.00246950
v -0.10897802 -0.06339604 -0.00265159
v -0.10897802 -0.06339604 -0.00265159
v -0.10897802 -0.06339604 -0.00265159
v -0.10897802 -0.06339604 -0.00265159
v -0.10897802 -0.06339604 -0.00265159
v -0.00003508 -0.06545394 -0.00256801
v -0.00003508 -0.06545394 -0.00256801
v -0.00003508 -0.06545394 -0.00256801
v -0.10391538 -0.06339604 -0.00269040
v -0.10391538 -0.06339604 -0.00269040
v -0.10391538 -0.06339604 -0.00269040
v -0.10391538 -0.06339604 -0.00269040
v -0.10391538 -0.06339604 -0.00269040
v -0.10391538 -0.06339604 -0.00269040
v -0.10913823 -0.09209506 0.02036939
v -0.10913823 -0.09209506 0.02036939
v -0.10913823 -0.09209506 0.02036939
v -0.10913823 -0.09209506 0.02036939
v -0.10913823 -0.09209506 0.02036939
v -0.10913823 -0.09209506 0.02036939
v -0.10913823 -0.09209506 0.02036939
v -0.10858284 -0.09209213 0.02024700
v -0.10858284 -0.09209213 0.02024700
v -0.10858284 -0.09209213 0.02024700
v -0.10391538 -0.08914179 0.01035741
v -0.10391538 -0.08914179 0.01035741
v -0.10391538 -0.08914179 0.01035741
v -0.10391538 -0.08914179 0.01035741
v -0.10391538 -0.08914179 0.01035741
v -0.10391538 -0.08914179 0.01035741
v -0.09884205 -0.08929152 0.01035741
v -0.09884205 -0.08929152 0.01035741
v -0.09884205 -0.08929152 0.01035741
v -0.09884205 -0.08929152 0.01035741
v -0.08363277 -0.08947939 0.01035741
v -0.08363277 -0.08947939 0.01035741
v -0.08363277 -0.08947939 0.01035741
v -0.08363277 -0.08947939 0.01035741
v -0.07857012 -0.08954104 0.01035741
v -0.07857012 -0.08954104 0.01035741
v -0.07857012 -0.08954104 0.01035741
v -0.07857012 -0.08954104 0.01035741
v -0.06336083 -0.08971718 0.01035741
v -0.06336083 -0.08971718 0.01035741
v -0.06336083 -0.08971718 0.01035741
v -0.06336083 -0.08971718 0.01035741
v -0.06336083 -0.08971718 0.01035741
v -0.06336083 -0.08971718 0.01035741
v -0.06336083 -0.08971718 0.01035741
v -0.05323555 -0.08982285 0.01035741
v -0.05323555 -0.08982285 0.01035741
v -0.05323555 -0.08982285 0.01035741
v -0.05323555 -0.08982285 0.01035741
v -0.05323555 -0.08982285 0.01035741
v -0.05323555 -0.08982285 0.01035741
v -0.05323555 -0.08982285 0.01035741
v -0.04308890 -0.08991094 0.01035741
v -0.04308890 -0.08991094 0.01035741
v -0.04308890 -0.08991094 0.01035741
v -0.04308890 -0.08991094 0.01035741
v -0.03802626 -0.08995203 0.01035741
v -0.03802626 -0.08995203 0.01035741
v -0.03802626 -0.08995203 0.01035741
v -0.03802626 -0.08995203 0.01035741
v -0.02281697 -0.09007239 0.01035741
v -0.02281697 -0.09007239 0.01035741
v -0.02281697 -0.09007239 0.01035741
v -0.02281697 -0.09007239 0.01035741
v -0.02281697 -0.09007239 0.01035741
v -0.02281697 -0.09007239 0.01035741
v -0.02281697 -0.09007239 0.01035741
v -0.01774365 -0.09009881 0.01035741
v -0.01774365 -0.09009881 0.01035741
v -0.01774365 -0.09009881 0.01035741
v -0.01774365 -0.09009881 0.01035741
v -0.01774365 -0.09009881 0.01035741
v -0.01268101 -0.09010762 0.01035741
v -0.01268101 -0.09010762 0.01035741
v -0.01268101 -0.09010762 0.01035741
v -0.01268101 -0.09010762 0.01035741
v -0.01268101 -0.09010762 0.01035741
v -0.00003508 -0.09010762 0.01035741
v -0.00003508 -0.09010762 0.01035741
v -0.00003508 -0.09010762 0.01035741
v -0.00003508 -0.09010762 0.01035741
v -0.00003508 -0.09010762 0.01035741
v -0.00003508 -0.09337502 0.02049178
v -0.00003508 -0.09337502 0.02049178
v -0.00003508 -0.09337502 0.02049178
v -0.10913823 -0.06964020 -0.00217696
v -0.10913823 -0.06964020 -0.00217696
v -0.10913823 -0.06964020 -0.00217696
v -0.10913823 -0.06964020 -0.00217696
v -0.10897802 -0.06727993 -0.00247547
v -0.10897802 -0.06727993 -0.00247547
v -0.10897802 -0.06727993 -0.00247547
v -0.10897802 -0.06727993 -0.00247547
v -0.10897802 -0.06727993 -0.00247547
v -0.10897802 -0.06727993 -0.00247547
v -0.10391538 -0.06770560 -0.00250831
v -0.10391538 -0.06770560 -0.00250831
v -0.10391538 -0.06770560 -0.00250831
v -0.10391538 -0.06770560 -0.00250831
v -0.10391538 -0.06770560 -0.00250831
v -0.10391538 -0.06770560 -0.00250831
v -0.10391538 -0.06770560 -0.00250831
v -0.10391538 -0.06770560 -0.00250831
v -0.00003508 -0.06758230 -0.00248443
v -0.00003508 -0.06758230 -0.00248443
v -0.00003508 -0.06758230 -0.00248443
v -0.00003508 -0.06758230 -0.00248443
v -0.00003508 -0.06758230 -0.00248443
v -0.09884205 -0.06768211 -0.00250831
v -0.09884205 -0.06768211 -0.00250831
v -0.09884205 -0.06768211 -0.00250831
v -0.10913823 -0.08687252 0.00510963
v -0.10913823 -0.08687252 0.00510963
v -0.10913823 -0.08687252 0.00510963
v -0.10913823 -0.08687252 0.00510963
v -0.10878578 -0.08689307 0.00500217
v -0.10878578 -0.08689307 0.00500217
v -0.10878578 -0.08689307 0.00500217
v -0.10878578 -0.08689307 0.00500217
v -0.10878578 -0.08689307 0.00500217
v -0.10391538 -0.08745671 0.00528874
v -0.10391538 -0.08745671 0.00528874
v -0.10391538 -0.08745671 0.00528874
v -0.10391538 -0.08745671 0.00528874
v -0.10391538 -0.08745671 0.00528874
v -0.10391538 -0.08745671 0.00528874
v -0.09884205 -0.08763872 0.00528874
v -0.09884205 -0.08763872 0.00528874
v -0.09884205 -0.08763872 0.00528874
v -0.09884205 -0.08763872 0.00528874
v -0.09884205 -0.08763872 0.00528874
v -0.09884205 -0.08763872 0.00528874
v -0.09884205 -0.08763872 0.00528874
v -0.09884205 -0.08763872 0.00528874
v -0.09884205 -0.08763872 0.00528874
v -0.08870610 -0.08774735 0.00528874
v -0.08870610 -0.08774735 0.00528874
v -0.08870610 -0.08774735 0.00528874
v -0.08870610 -0.08774735 0.00528874
v -0.08870610 -0.08774735 0.00528874
v -0.08363277 -0.08779726 0.00528874
v -0.08363277 -0.08779726 0.00528874
v -0.08363277 -0.08779726 0.00528874
v -0.08363277 -0.08779726 0.00528874
v -0.06842348 -0.08794404 0.00528874
v -0.06842348 -0.08794404 0.00528874
v -0.06842348 -0.08794404 0.00528874
v -0.06842348 -0.08794404 0.00528874
v -0.06336083 -0.08799101 0.00528874
v -0.06336083 -0.08799101 0.00528874
v -0.06336083 -0.08799101 0.00528874
v -0.06336083 -0.08799101 0.00528874
v -0.06336083 -0.08799101 0.00528874
v -0.06336083 -0.08799101 0.00528874
v -0.06336083 -0.08799101 0.00528874
v -0.03802626 -0.08818770 0.00528874
v -0.03802626 -0.08818770 0.00528874
v -0.03802626 -0.08818770 0.00528874
v -0.03802626 -0.08818770 0.00528874
v -0.02281697 -0.08829044 0.00528874
v -0.02281697 -0.08829044 0.00528874
v -0.02281697 -0.08829044 0.00528874
v -0.02281697 -0.08829044 0.00528874
v -0.02281697 -0.08829044 0.00528874
v -0.02281697 -0.08829044 0.00528874
v -0.02281697 -0.08829044 0.00528874
v -0.02281697 -0.08829044 0.00528874
v -0.02281697 -0.08829044 0.00528874
v -0.02281697 -0.08829044 0.00528874
v -0.01774365 -0.08830806 0.00528874
v -0.01774365 -0.08830806 0.00528874
v -0.01774365 -0.08830806 0.00528874
v -0.01774365 -0.08830806 0.00528874
v -0.01774365 -0.08830806 0.00528874
v -0.01774365 -0.08830806 0.00528874
v -0.01774365 -0.08830806 0.00528874
v -0.01268101 -0.08831100 0.00528874
v -0.01268101 -0.08831100 0.00528874
v -0.01268101 -0.08831100 0.00528874
v -0.01268101 -0.08831100 0.00528874
v -0.01268101 -0.08831100 0.00528874
v -0.00003508 -0.08830513 0.00528874
v -0.00003508 -0.08830513 0.00528874
v -0.00003508 -0.08830513 0.00528874
v -0.00003508 -0.08830513 0.00528874
v -0.10913823 -0.07350353 -0.00127547
v -0.10913823 -0.07350353 -0.00127547
v -0.10913823 -0.07350353 -0.00127547
v -0.10913823 -0.07350353 -0.00127547
v -0.10897802 -0.06981340 -0.00216204
v -0.10897802 -0.06981340 -0.00216204
v -0.10897802 -0.06981340 -0.00216204
v -0.10897802 -0.06981340 -0.00216204
v -0.10897802 -0.06981340 -0.00216204
v -0.10391538 -0.07023907 -0.00222174
v -0.10391538 -0.07023907 -0.00222174
v -0.10391538 -0.07023907 -0.00222174
v -0.10391538 -0.07023907 -0.00222174
v -0.10391538 -0.07023907 -0.00222174
v -0.10391538 -0.07023907 -0.00222174
v -0.10391538 -0.07023907 -0.00222174
v -0.10391538 -0.07023907 -0.00222174
v -0.10391538 -0.07023907 -0.00222174
v -0.07349680 -0.07020091 -0.00222174
v -0.07349680 -0.07020091 -0.00222174
v -0.07349680 -0.07020091 -0.00222174
v -0.07349680 -0.07020091 -0.00222174
v -0.07349680 -0.07020091 -0.00222174
v -0.00003508 -0.07011577 -0.00221577
v -0.00003508 -0.07011577 -0.00221577
v -0.00003508 -0.07011577 -0.00221577
v -0.00003508 -0.07011577 -0.00221577
v -0.10913823 -0.08666997 0.00458724
v -0.10913823 -0.08666997 0.00458724
v -0.10913823 -0.08666997 0.00458724
v -0.10913823 -0.08666997 0.00458724
v -0.10913823 -0.08666997 0.00458724
v -0.10697005 -0.08623549 0.00269470
v -0.10697005 -0.08623549 0.00269470
v -0.10697005 -0.08623549 0.00269470
v -0.10697005 -0.08623549 0.00269470
v -0.10697005 -0.08623549 0.00269470
v -0.10697005 -0.08623549 0.00269470
v -0.10697005 -0.08623549 0.00269470
v -0.10697005 -0.08623549 0.00269470
v -0.10391538 -0.08634705 0.00259022
v -0.10391538 -0.08634705 0.00259022
v -0.10391538 -0.08634705 0.00259022
v -0.10391538 -0.08634705 0.00259022
v -0.10391538 -0.08634705 0.00259022
v -0.09884205 -0.08643805 0.00250664
v -0.09884205 -0.08643805 0.00250664
v -0.09884205 -0.08643805 0.00250664
v -0.09884205 -0.08643805 0.00250664
v -0.09884205 -0.08643805 0.00250664
v -0.09884205 -0.08643805 0.00250664
v -0.09884205 -0.08643805 0.00250664
v -0.09884205 -0.08643805 0.00250664
v -0.09884205 -0.08643805 0.00250664
v -0.09884205 -0.08643805 0.00250664
v -0.09884205 -0.08643805 0.00250664
v -0.03802626 -0.08664061 0.00238425
v -0.03802626 -0.08664061 0.00238425
v -0.03802626 -0.08664061 0.00238425
v -0.03802626 -0.08664061 0.00238425
v -0.03802626 -0.08664061 0.00238425
v -0.09376873 -0.08646153 0.00249171
v -0.09376873 -0.08646153 0.00249171
v -0.09376873 -0.08646153 0.00249171
v -0.09376873 -0.08646153 0.00249171
v -0.08870610 -0.08648208 0.00247679
v -0.08870610 -0.08648208 0.00247679
v -0.08870610 -0.08648208 0.00247679
v -0.08870610 -0.08648208 0.00247679
v -0.08363277 -0.08649969 0.00246484
v -0.08363277 -0.08649969 0.00246484
v -0.08363277 -0.08649969 0.00246484
v -0.08363277 -0.08649969 0.00246484
v -0.08363277 -0.08649969 0.00246484
v -0.06336083 -0.08657015 0.00242007
v -0.06336083 -0.08657015 0.00242007
v -0.06336083 -0.08657015 0.00242007
v -0.06336083 -0.08657015 0.00242007
v -0.06336083 -0.08657015 0.00242007
v -0.06336083 -0.08657015 0.00242007
v -0.01774365 -0.08668464 0.00236037
v -0.01774365 -0.08668464 0.00236037
v -0.01774365 -0.08668464 0.00236037
v -0.01774365 -0.08668464 0.00236037
v -0.01774365 -0.08668464 0.00236037
v -0.01774365 -0.08668464 0.00236037
v -0.01774365 -0.08668464 0.00236037
v -0.01774365 -0.08668464 0.00236037
v -0.01774365 -0.08668464 0.00236037
v -0.01774365 -0.08668464 0.00236037
v -0.02281697 -0.08667876 0.00236335
v -0.02281697 -0.08667876 0.00236335
v -0.02281697 -0.08667876 0.00236335
v -0.02281697 -0.08667876 0.00236335
v -0.02281697 -0.08667876 0.00236335
v -0.00003508 -0.08748314 0.00381410
v -0.00003508 -0.08748314 0.00381410
v -0.00003508 -0.08748314 0.00381410
v -0.10913823 -0.07857048 0.00014543
v -0.10913823 -0.07857048 0.00014543
v -0.10913823 -0.07857048 0.00014543
v -0.10913823 -0.07857048 0.00014543
v -0.10913823 -0.07857048 0.00014543
v -0.10897802 -0.07350353 -0.00129338
v -0.10897802 -0.07350353 -0.00129338
v -0.10897802 -0.07350353 -0.00129338
v -0.10897802 -0.07350353 -0.00129338
v -0.10897802 -0.07350353 -0.00129338
v -0.10897802 -0.07350353 -0.00129338
v -0.10897802 -0.07350353 -0.00129338
v -0.10391538 -0.07350353 -0.00142472
v -0.10391538 -0.07350353 -0.00142472
v -0.10391538 -0.07350353 -0.00142472
v -0.10391538 -0.07350353 -0.00142472
v -0.10391538 -0.07350353 -0.00142472
v -0.10391538 -0.07350353 -0.00142472
v -0.00003508 -0.07350353 -0.00141875
v -0.00003508 -0.07350353 -0.00141875
v -0.00003508 -0.07350353 -0.00141875
v -0.00003508 -0.07350353 -0.00141875
v -0.00003508 -0.07350353 -0.00141875
v -0.00003508 -0.07350353 -0.00141875
v -0.03295294 -0.07350353 -0.00142174
v -0.03295294 -0.07350353 -0.00142174
v -0.03295294 -0.07350353 -0.00142174
v -0.07349680 -0.07350353 -0.00142472
v -0.07349680 -0.07350353 -0.00142472
v -0.07349680 -0.07350353 -0.00142472
v -0.07349680 -0.07350353 -0.00142472
v -0.00003508 -0.07179204 -0.00182174
v -0.00003508 -0.07179204 -0.00182174
v -0.00003508 -0.07179204 -0.00182174
v -0.10913823 -0.08439483 0.00221111
v -0.10913823 -0.08439483 0.00221111
v -0.10913823 -0.08439483 0.00221111
v -0.10913823 -0.08388989 0.00195440
v -0.10913823 -0.08388989 0.00195440
v -0.10913823 -0.08388989 0.00195440
v -0.10913823 -0.08388989 0.00195440
v -0.10878578 -0.08397209 0.00195141
v -0.10878578 -0.08397209 0.00195141
v -0.10878578 -0.08397209 0.00195141
v -0.10878578 -0.08397209 0.00195141
v -0.10878578 -0.08397209 0.00195141
v -0.10878578 -0.08397209 0.00195141
v -0.10391538 -0.08363743 0.00156335
v -0.10391538 -0.08363743 0.00156335
v -0.10391538 -0.08363743 0.00156335
v -0.10391538 -0.08363743 0.00156335
v -0.10391538 -0.08363743 0.00156335
v -0.10391538 -0.08363743 0.00156335
v -0.10391538 -0.08363743 0.00156335
v -0.09884205 -0.08363743 0.00147380
v -0.09884205 -0.08363743 0.00147380
v -0.09884205 -0.08363743 0.00147380
v -0.09884205 -0.08363743 0.00147380
v -0.09884205 -0.08363743 0.00147380
v -0.09884205 -0.08363743 0.00147380
v -0.09884205 -0.08363743 0.00147380
v -0.06336083 -0.08363743 0.00137230
v -0.06336083 -0.08363743 0.00137230
v -0.06336083 -0.08363743 0.00137230
v -0.06336083 -0.08363743 0.00137230
v -0.06336083 -0.08363743 0.00137230
v -0.06336083 -0.08363743 0.00137230
v -0.09376873 -0.08363743 0.00145588
v -0.09376873 -0.08363743 0.00145588
v -0.09376873 -0.08363743 0.00145588
v -0.09376873 -0.08363743 0.00145588
v -0.09376873 -0.08363743 0.00145588
v -0.08870610 -0.08363743 0.00144096
v -0.08870610 -0.08363743 0.00144096
v -0.08870610 -0.08363743 0.00144096
v -0.08870610 -0.08363743 0.00144096
v -0.01774365 -0.08363743 0.00130066
v -0.01774365 -0.08363743 0.00130066
v -0.01774365 -0.08363743 0.00130066
v -0.01774365 -0.08363743 0.00130066
v -0.01774365 -0.08363743 0.00130066
v -0.01774365 -0.08363743 0.00130066
v -0.01774365 -0.08363743 0.00130066
v -0.00003508 -0.08514341 0.00183201
v -0.00003508 -0.08514341 0.00183201
v -0.00003508 -0.08514341 0.00183201
v -0.00003508 -0.08514341 0.00183201
v -0.00003508 -0.08514341 0.00183201
v -0.00760768 -0.08667876 0.00236335
v -0.00760768 -0.08667876 0.00236335
v -0.00760768 -0.08667876 0.00236335
v -0.00003508 -0.08667583 0.00236634
v -0.00003508 -0.08667583 0.00236634
v -0.00003508 -0.08667583 0.00236634
v -0.00003508 -0.08667583 0.00236634
v -0.02281697 -0.08363743 0.00130365
v -0.02281697 -0.08363743 0.00130365
v -0.02281697 -0.08363743 0.00130365
v -0.02281697 -0.08363743 0.00130365
v -0.02281697 -0.08363743 0.00130365
v -0.02281697 -0.08363743 0.00130365
v -0.10913823 -0.08361688 0.00185887
v -0.10913823 -0.08361688 0.00185887
v -0.10913823 -0.08361688 0.00185887
v -0.10897802 -0.07857048 0.00013349
v -0.10897802 -0.07857048 0.00013349
v -0.10897802 -0.07857048 0.00013349
v -0.10897802 -0.07857048 0.00013349
v -0.10897802 -0.07857048 0.00013349
v -0.10391538 -0.07857048 -0.00000681
v -0.10391538 -0.07857048 -0.00000681
v -0.10391538 -0.07857048 -0.00000681
v -0.10391538 -0.07857048 -0.00000681
v -0.10391538 -0.07857048 -0.00000681
v -0.10391538 -0.07857048 -0.00000681
v -0.10391538 -0.07857048 -0.00000681
v -0.10391538 -0.07857048 -0.00000681
v -0.10391538 -0.07857048 -0.00000681
v -0.00003508 -0.08363743 0.00130962
v -0.00003508 -0.08363743 0.00130962
v -0.00003508 -0.08363743 0.00130962
f 2 9 45
f 2 45 121
f 2 121 173
f 2 173 266
f 2 266 366
f 2 366 464
f 2 464 565
f 2 565 501
f 2 501 498
f 2 498 393
f 3 394 293
f 2 292 191
f 2 191 128
f 1 127 55
f 2 56 14
f 4 15 18
f 5 30 32
f 6 34 36
f 8 39 42
f 7 40 11
f 13 43 49
f 12 48 53
f 10 52 47
f 16 57 59
f 17 64 19
f 20 65 74
f 21 75 77
f 22 81 83
f 23 84 88
f 24 89 92
f 25 93 96
f 26 99 102
f 27 103 108
f 28 109 112
f 29 114 31
f 33 115 35
f 37 116 118
f 38 119 41
f 44 120 117
f 44 117 172
f 44 172 265
f 44 265 262
f 44 262 365
f 44 365 463
f 44 463 558
f 44 558 551
f 44 551 584
f 44 584 487
f 44 487 497
f 44 497 392
f 44 392 288
f 44 288 184
f 44 184 126
f 44 126 54
f 44 54 50
f 46 51 124
f 46 124 186
f 46 186 181
f 46 181 123
f 58 130 60
f 69 85 79
f 67 78 76
f 61 131 136
f 62 139 142
f 63 143 146
f 66 150 152
f 68 155 157
f 72 159 104
f 73 105 95
f 70 94 90
f 71 91 86
f 80 87 82
f 97 106 166
f 98 167 100
f 101 168 107
f 110 164 169
f 111 171 113
f 122 177 175
f 125 182 189
f 129 196 132
f 133 197 199
f 134 200 203
f 135 205 207
f 137 209 211
f 138 214 216
f 140 217 219
f 141 221 144
f 145 222 147
f 148 224 226
f 149 231 233
f 151 236 238
f 151 238 153
f 154 240 242
f 156 244 158
f 160 246 248
f 161 251 253
f 162 257 259
f 163 261 263
f 165 264 170
f 176 178 271
f 174 270 268
f 180 185 278
f 179 277 275
f 183 286 190
f 188 284 290
f 187 289 280
f 192 295 297
f 193 299 301
f 194 303 201
f 195 202 198
f 206 309 208
f 204 305 307
f 210 311 212
f 213 312 215
f 218 313 220
f 223 314 316
f 225 317 227
f 228 319 321
f 229 322 325
f 230 327 329
f 232 331 234
f 235 332 237
f 239 333 241
f 243 334 336
f 245 338 340
f 247 344 249
f 250 347 350
f 252 353 254
f 255 356 358
f 256 359 258
f 260 361 363
f 269 272 372
f 267 370 367
f 274 276 378
f 273 377 374
f 279 384 380
f 282 291 285
f 283 287 391
f 281 389 385
f 294 396 296
f 300 402 302
f 298 397 400
f 304 404 406
f 306 408 308
f 310 409 411
f 315 414 318
f 320 415 323
f 324 416 326
f 328 417 330
f 335 418 337
f 339 419 341
f 349 423 351
f 342 420 427
f 343 428 431
f 345 433 435
f 346 436 440
f 348 442 422
f 355 449 357
f 352 424 456
f 354 459 446
f 360 451 362
f 364 455 462
f 368 371 469
f 369 470 465
f 373 375 472
f 376 476 474
f 383 388 485
f 381 482 488
f 382 489 493
f 379 491 480
f 386 390 495
f 387 496 484
f 395 499 398
f 399 500 502
f 401 503 505
f 403 510 512
f 405 513 407
f 410 515 412
f 413 517 519
f 421 520 429
f 425 445 527
f 426 528 457
f 430 521 432
f 434 523 437
f 439 524 533
f 438 532 441
f 443 535 537
f 444 539 526
f 450 544 547
f 452 549 552
f 453 554 556
f 454 557 461
f 447 460 562
f 448 564 541
f 458 530 560
f 467 471 568
f 468 569 508
f 466 507 567
f 475 477 575
f 473 573 571
f 481 492 542
f 479 540 563
f 478 561 581
f 486 582 545
f 483 543 490
f 490 543 494
f 504 566 506
f 509 570 511
f 514 572 574
f 516 576 518
f 522 577 531
f 525 538 579
f 529 580 559
f 534 578 536
f 546 583 548
f 550 555 553

