# https://github.com/mikedh/trimesh
v 0.00760421 0.09340101 0.02049264
v 0.00760421 0.09340101 0.02049264
v 0.00760421 0.09340101 0.02049264
v 0.00760421 0.09340101 0.02049264
v 0.00760421 0.09340101 0.02049264
v 0.00760421 0.09340101 0.02049264
v 0.00760421 0.09340101 0.02049264
v 0.00760421 0.09340101 0.02049264
v 0.00760421 0.09340101 0.02049264
v 0.00760421 0.09340101 0.02049264
v 0.00760421 0.09286344 0.02542295
v 0.00760421 0.09286344 0.02542295
v 0.00760421 0.09286344 0.02542295
v 0.01268284 0.09284431 0.02543284
v 0.01268284 0.09284431 0.02543284
v 0.01268284 0.09284431 0.02543284
v 0.01268284 0.09284431 0.02543284
v 0.01268284 0.09284431 0.02543284
v 0.01268284 0.09284431 0.02543284
v 0.01268284 0.09338188 0.02049264
v 0.01268284 0.09338188 0.02049264
v 0.01268284 0.09338188 0.02049264
v 0.01268284 0.09338188 0.02049264
v 0.01268284 0.09338188 0.02049264
v 0.01268284 0.09338188 0.02049264
v 0.01775079 0.09010120 0.01035722
v 0.01775079 0.09010120 0.01035722
v 0.01775079 0.09010120 0.01035722
v 0.01775079 0.09010120 0.01035722
v 0.01775079 0.09010120 0.01035722
v 0.01775079 0.09010120 0.01035722
v 0.01268284 0.09011183 0.01035722
v 0.01268284 0.09011183 0.01035722
v 0.01268284 0.09011183 0.01035722
v 0.01268284 0.09011183 0.01035722
v 0.01268284 0.09011183 0.01035722
v 0.01268284 0.09011183 0.01035722
v 0.01268284 0.09011183 0.01035722
v 0.00760421 0.09011608 0.01035722
v 0.00760421 0.09011608 0.01035722
v 0.00760421 0.09011608 0.01035722
v 0.00760421 0.09011608 0.01035722
v 0.00253625 0.09011820 0.01035722
v 0.00253625 0.09011820 0.01035722
v 0.00253625 0.09011820 0.01035722
v 0.00253625 0.09011820 0.01035722
v 0.00253625 0.09011820 0.01035722
v 0.00253625 0.09011820 0.01035722
v -0.00002440 0.09011608 0.01035722
v -0.00002440 0.09011608 0.01035722
v -0.00002440 0.09011608 0.01035722
v -0.00002440 0.09011608 0.01035722
v -0.00002440 0.09338614 0.02049264
v -0.00002440 0.09338614 0.02049264
v -0.00002440 0.09338614 0.02049264
v -0.00002440 0.09285069 0.02544272
v -0.00002440 0.09285069 0.02544272
v -0.00002440 0.09285069 0.02544272
v -0.00002440 0.09285069 0.02544272
v -0.00002440 0.09285069 0.02544272
v -0.00002440 0.09285069 0.02544272
v -0.00002440 0.09285069 0.02544272
v 0.02281875 0.09277632 0.02547040
v 0.02281875 0.09277632 0.02547040
v 0.02281875 0.09277632 0.02547040
v 0.02281875 0.09277632 0.02547040
v 0.02281875 0.09277632 0.02547040
v 0.10897405 0.09231312 0.02528457
v 0.10897405 0.09231312 0.02528457
v 0.10897405 0.09231312 0.02528457
v 0.10897405 0.09231312 0.02528457
v 0.10897405 0.09231312 0.02528457
v 0.10897405 0.09231312 0.02528457
v 0.10897405 0.09231312 0.02528457
v 0.10897405 0.09231312 0.02528457
v 0.10897405 0.09231312 0.02528457
v 0.10897405 0.09231312 0.02528457
v 0.02281875 0.09328627 0.02049264
v 0.02281875 0.09328627 0.02049264
v 0.02281875 0.09328627 0.02049264
v 0.02281875 0.09328627 0.02049264
v 0.02281875 0.09328627 0.02049264
v 0.02281875 0.09328627 0.02049264
v 0.02281875 0.09007570 0.01035722
v 0.02281875 0.09007570 0.01035722
v 0.02281875 0.09007570 0.01035722
v 0.02281875 0.09007570 0.01035722
v 0.02281875 0.09007570 0.01035722
v 0.02281875 0.09007570 0.01035722
v 0.02281875 0.09007570 0.01035722
v 0.02281875 0.09007570 0.01035722
v 0.01775079 0.08913655 0.00760345
v 0.01775079 0.08913655 0.00760345
v 0.01775079 0.08913655 0.00760345
v 0.01775079 0.08913655 0.00760345
v 0.02050350 0.08912593 0.00760345
v 0.02050350 0.08912593 0.00760345
v 0.02050350 0.08912593 0.00760345
v 0.02050350 0.08912593 0.00760345
v 0.01543554 0.08914080 0.00760345
v 0.01543554 0.08914080 0.00760345
v 0.01543554 0.08914080 0.00760345
v 0.01268284 0.08914505 0.00760345
v 0.01268284 0.08914505 0.00760345
v 0.01268284 0.08914505 0.00760345
v 0.01035691 0.08914717 0.00760345
v 0.01035691 0.08914717 0.00760345
v 0.01035691 0.08914717 0.00760345
v 0.01035691 0.08914717 0.00760345
v 0.01035691 0.08914717 0.00760345
v -0.00002440 0.08923004 0.00784660
v -0.00002440 0.08923004 0.00784660
v -0.00002440 0.08923004 0.00784660
v -0.00002440 0.08923004 0.00784660
v -0.00002440 0.08923004 0.00784660
v 0.00528895 0.08914717 0.00760345
v 0.00528895 0.08914717 0.00760345
v 0.00528895 0.08914717 0.00760345
v 0.00528895 0.08914717 0.00760345
v -0.00002440 0.08870734 0.02661896
v -0.00002440 0.08870734 0.02661896
v -0.00002440 0.08870734 0.02661896
v -0.00002440 0.08870734 0.02661896
v 0.10897405 0.08853736 0.02779915
v 0.10897405 0.08853736 0.02779915
v 0.10897405 0.08853736 0.02779915
v 0.10897405 0.08853736 0.02779915
v 0.10897405 0.08853736 0.02779915
v 0.10897405 0.08853736 0.02779915
v 0.07349834 0.09247248 0.02546249
v 0.07349834 0.09247248 0.02546249
v 0.07349834 0.09247248 0.02546249
v 0.10897405 0.09230886 0.02516596
v 0.10897405 0.09230886 0.02516596
v 0.10897405 0.09230886 0.02516596
v 0.10390609 0.09237048 0.02049264
v 0.10390609 0.09237048 0.02049264
v 0.10390609 0.09237048 0.02049264
v 0.10390609 0.09237048 0.02049264
v 0.10390609 0.09237048 0.02049264
v 0.10390609 0.09237048 0.02049264
v 0.10390609 0.09237048 0.02049264
v 0.09883813 0.09244061 0.02049264
v 0.09883813 0.09244061 0.02049264
v 0.09883813 0.09244061 0.02049264
v 0.09883813 0.09244061 0.02049264
v 0.07349834 0.09272744 0.02049264
v 0.07349834 0.09272744 0.02049264
v 0.07349834 0.09272744 0.02049264
v 0.07349834 0.09272744 0.02049264
v 0.07349834 0.09272744 0.02049264
v 0.06843038 0.08963375 0.01035722
v 0.06843038 0.08963375 0.01035722
v 0.06843038 0.08963375 0.01035722
v 0.06843038 0.08963375 0.01035722
v 0.06843038 0.08963375 0.01035722
v 0.06336242 0.08968900 0.01035722
v 0.06336242 0.08968900 0.01035722
v 0.06336242 0.08968900 0.01035722
v 0.06336242 0.08968900 0.01035722
v 0.06336242 0.08968900 0.01035722
v 0.06336242 0.08968900 0.01035722
v 0.06336242 0.08968900 0.01035722
v 0.02557146 0.08908980 0.00760345
v 0.02557146 0.08908980 0.00760345
v 0.02557146 0.08908980 0.00760345
v 0.02281875 0.08911317 0.00760345
v 0.02281875 0.08911317 0.00760345
v 0.02281875 0.08911317 0.00760345
v 0.06611513 0.08872646 0.00760345
v 0.06611513 0.08872646 0.00760345
v 0.06611513 0.08872646 0.00760345
v 0.06611513 0.08872646 0.00760345
v -0.00002440 0.08914292 0.00760345
v -0.00002440 0.08914292 0.00760345
v -0.00002440 0.08914292 0.00760345
v 0.00253625 0.08914505 0.00760345
v 0.00253625 0.08914505 0.00760345
v 0.00253625 0.08914505 0.00760345
v -0.00002440 0.08569014 0.02420520
v -0.00002440 0.08569014 0.02420520
v -0.00002440 0.08569014 0.02420520
v 0.10897405 0.08499107 0.02598438
v 0.10897405 0.08499107 0.02598438
v 0.10897405 0.08499107 0.02598438
v 0.10897405 0.08499107 0.02598438
v 0.10897405 0.08499107 0.02598438
v 0.10897405 0.08499107 0.02598438
v 0.10897405 0.09210700 0.02035426
v 0.10897405 0.09210700 0.02035426
v 0.10897405 0.09210700 0.02035426
v 0.10897405 0.09210700 0.02035426
v 0.10897405 0.09210700 0.02035426
v 0.10897405 0.09210700 0.02035426
v 0.10897405 0.09210700 0.02035426
v 0.10849392 0.09210063 0.02024948
v 0.10849392 0.09210063 0.02024948
v 0.10849392 0.09210063 0.02024948
v 0.10849392 0.09210063 0.02024948
v 0.10390609 0.08912379 0.01035722
v 0.10390609 0.08912379 0.01035722
v 0.10390609 0.08912379 0.01035722
v 0.10390609 0.08912379 0.01035722
v 0.10390609 0.08912379 0.01035722
v 0.09883813 0.08929379 0.01035722
v 0.09883813 0.08929379 0.01035722
v 0.09883813 0.08929379 0.01035722
v 0.09883813 0.08929379 0.01035722
v 0.09883813 0.08929379 0.01035722
v 0.09883813 0.08929379 0.01035722
v 0.09883813 0.08840775 0.00760345
v 0.09883813 0.08840775 0.00760345
v 0.09883813 0.08840775 0.00760345
v 0.09883813 0.08840775 0.00760345
v 0.09883813 0.08840775 0.00760345
v 0.09883813 0.08840775 0.00760345
v 0.09652287 0.08843111 0.00760345
v 0.09652287 0.08843111 0.00760345
v 0.09652287 0.08843111 0.00760345
v 0.08638696 0.08853098 0.00760345
v 0.08638696 0.08853098 0.00760345
v 0.08638696 0.08853098 0.00760345
v -0.00002440 0.07309224 0.00760345
v -0.00002440 0.07309224 0.00760345
v -0.00002440 0.07309224 0.00760345
v -0.00002440 0.07309224 0.00760345
v 0.10896338 0.07169625 0.00760345
v 0.10896338 0.07169625 0.00760345
v 0.10896338 0.07169625 0.00760345
v 0.10896338 0.07169625 0.00760345
v 0.10897405 0.07170262 0.00760542
v 0.10897405 0.07170262 0.00760542
v 0.10897405 0.07170262 0.00760542
v 0.10892070 0.08773418 0.00760345
v 0.10892070 0.08773418 0.00760345
v 0.10892070 0.08773418 0.00760345
v 0.10644540 0.08798065 0.00760345
v 0.10644540 0.08798065 0.00760345
v 0.10644540 0.08798065 0.00760345
v 0.10390609 0.08822714 0.00760345
v 0.10390609 0.08822714 0.00760345
v 0.10390609 0.08822714 0.00760345
v 0.10390609 0.08822714 0.00760345
v 0.10390609 0.08822714 0.00760345
v 0.10897405 0.08772781 0.00760345
v 0.10897405 0.08772781 0.00760345
v 0.10897405 0.08772781 0.00760345
v 0.10897405 0.07418226 0.00760345
v 0.10897405 0.07418226 0.00760345
v 0.10897405 0.07418226 0.00760345
f 8 13 16
f 10 17 21
f 9 20 29
f 7 27 38
f 6 33 42
f 5 40 48
f 4 44 52
f 1 50 54
f 2 55 58
f 3 59 11
f 12 61 14
f 15 62 64
f 19 66 69
f 18 68 23
f 24 78 90
f 22 85 31
f 25 72 80
f 26 94 37
f 30 84 98
f 28 97 95
f 36 93 102
f 35 101 105
f 34 104 110
f 32 109 41
f 39 108 47
f 43 113 51
f 46 107 119
f 45 117 115
f 49 111 174
f 49 174 223
f 49 223 180
f 49 180 120
f 49 120 56
f 49 56 53
f 57 123 125
f 60 126 63
f 65 127 130
f 67 131 70
f 71 132 128
f 77 129 188
f 77 188 233
f 77 233 250
f 77 250 247
f 77 247 195
f 77 195 135
f 76 133 141
f 75 137 146
f 74 144 151
f 73 150 83
f 82 147 154
f 81 153 163
f 79 159 91
f 87 165 169
f 86 168 99
f 89 157 172
f 88 171 166
f 92 96 167
f 92 167 164
f 92 164 170
f 92 170 220
f 92 220 217
f 92 217 211
f 92 211 240
f 92 240 237
f 92 237 234
f 92 234 245
f 92 245 248
f 92 248 228
f 92 228 226
f 92 226 176
f 92 176 179
f 92 179 118
f 92 118 106
f 92 106 103
f 92 103 100
f 114 116 178
f 112 177 175
f 121 181 183
f 122 186 124
f 134 190 142
f 140 189 197
f 139 196 203
f 138 201 210
f 136 208 145
f 143 207 149
f 148 206 156
f 155 205 214
f 152 213 162
f 161 212 219
f 160 218 222
f 158 221 173
f 182 224 184
f 187 230 232
f 185 225 227
f 193 235 239
f 192 238 244
f 191 243 199
f 194 246 236
f 198 242 204
f 202 241 216
f 200 215 209
f 229 249 231

