# https://github.com/mikedh/trimesh
v -0.13115476 0.07124857 0.02822674
v -0.13115476 0.07124857 0.02822674
v -0.13115476 0.07124857 0.02822674
v -0.13115476 0.07124857 0.02822674
v -0.13115476 0.07124857 0.02822674
v -0.13115476 0.07124857 0.02822674
v -0.13115476 0.07124857 0.02822674
v -0.13115476 0.07124857 0.02822674
v -0.13288143 0.07124857 0.02822674
v -0.13288143 0.07124857 0.02822674
v -0.13288143 0.07124857 0.02822674
v -0.13288143 0.07124857 0.02822674
v -0.13288143 0.07124857 0.02822674
v -0.12848221 0.07124857 0.02618924
v -0.12848221 0.07124857 0.02618924
v -0.12848221 0.07124857 0.02618924
v -0.12848221 0.07124857 0.02618924
v -0.10387895 0.08507149 0.02529451
v -0.10387895 0.08507149 0.02529451
v -0.10387895 0.08507149 0.02529451
v -0.10387895 0.08507149 0.02529451
v -0.10387895 0.08507149 0.02529451
v -0.10387895 0.08507149 0.02529451
v -0.10387895 0.08507149 0.02529451
v -0.10387895 0.08507149 0.02529451
v -0.10387895 0.08509629 0.02531223
v -0.10387895 0.08509629 0.02531223
v -0.10387895 0.08509629 0.02531223
v -0.10387895 0.08870757 0.02760072
v -0.10387895 0.08870757 0.02760072
v -0.10387895 0.08870757 0.02760072
v -0.10387895 0.08870757 0.02760072
v -0.10387895 0.08870757 0.02760072
v -0.10387895 0.08870757 0.02760072
v -0.10387895 0.08870757 0.02760072
v -0.10387895 0.08870757 0.02760072
v -0.11085096 0.08612159 0.02813224
v -0.11085096 0.08612159 0.02813224
v -0.11085096 0.08612159 0.02813224
v -0.11085096 0.08612159 0.02813224
v -0.11405664 0.08603271 0.02816768
v -0.11405664 0.08603271 0.02816768
v -0.11405664 0.08603271 0.02816768
v -0.11405664 0.08687195 0.02816768
v -0.11405664 0.08687195 0.02816768
v -0.11405664 0.08687195 0.02816768
v -0.11405664 0.08687195 0.02816768
v -0.11405664 0.08687195 0.02816768
v -0.11405664 0.08687195 0.02816768
v -0.11405664 0.08687195 0.02816768
v -0.11405664 0.08687195 0.02816768
v -0.12731619 0.08167106 0.02816473
v -0.12731619 0.08167106 0.02816473
v -0.12731619 0.08167106 0.02816473
v -0.12731619 0.08167106 0.02816473
v -0.12731619 0.08167106 0.02816473
v -0.12731619 0.08167106 0.02816473
v -0.12731619 0.08167106 0.02816473
v -0.12731619 0.08167106 0.02816473
v -0.13243773 0.07350381 0.02818835
v -0.13243773 0.07350381 0.02818835
v -0.13243773 0.07350381 0.02818835
v -0.13243773 0.07350381 0.02818835
v -0.13541640 0.07124857 0.02765978
v -0.13541640 0.07124857 0.02765978
v -0.13541640 0.07124857 0.02765978
v -0.13541640 0.07124857 0.02765978
v -0.13541640 0.07124857 0.02765978
v -0.10391678 0.07124857 0.00720209
v -0.10391678 0.07124857 0.00720209
v -0.10391678 0.07124857 0.00720209
v -0.10387895 0.07125684 0.00720504
v -0.10387895 0.07125684 0.00720504
v -0.10387895 0.07125684 0.00720504
v -0.10387895 0.07125684 0.00720504
v -0.10387895 0.09230851 0.02533289
v -0.10387895 0.09230851 0.02533289
v -0.10387895 0.09230851 0.02533289
v -0.10387895 0.09230851 0.02533289
v -0.10387895 0.09230851 0.02533289
v -0.11405664 0.08940626 0.02761844
v -0.11405664 0.08940626 0.02761844
v -0.11405664 0.08940626 0.02761844
v -0.11405664 0.08940626 0.02761844
v -0.11405664 0.08940626 0.02761844
v -0.11405664 0.08940626 0.02761844
v -0.11405664 0.08940626 0.02761844
v -0.11405664 0.08940626 0.02761844
v -0.11405664 0.08940626 0.02761844
v -0.11405664 0.08940626 0.02761844
v -0.11405664 0.08940626 0.02761844
v -0.10908990 0.08849878 0.02781924
v -0.10908990 0.08849878 0.02781924
v -0.10908990 0.08849878 0.02781924
v -0.10908990 0.08849878 0.02781924
v -0.11085096 0.08666938 0.02813224
v -0.11085096 0.08666938 0.02813224
v -0.11085096 0.08666938 0.02813224
v -0.11085096 0.08666938 0.02813224
v -0.11912658 0.08650194 0.02814110
v -0.11912658 0.08650194 0.02814110
v -0.11912658 0.08650194 0.02814110
v -0.11912658 0.08650194 0.02814110
v -0.13069730 0.07962873 0.02786944
v -0.13069730 0.07962873 0.02786944
v -0.13069730 0.07962873 0.02786944
v -0.13069730 0.07962873 0.02786944
v -0.13069730 0.07962873 0.02786944
v -0.13069730 0.07962873 0.02786944
v -0.13069730 0.07962873 0.02786944
v -0.13189427 0.07624897 0.02811453
v -0.13189427 0.07624897 0.02811453
v -0.13189427 0.07624897 0.02811453
v -0.13189427 0.07624897 0.02811453
v -0.13189427 0.07624897 0.02811453
v -0.12166498 0.08617741 0.02809681
v -0.12166498 0.08617741 0.02809681
v -0.12166498 0.08617741 0.02809681
v -0.12166498 0.08617741 0.02809681
v -0.12166498 0.08617741 0.02809681
v -0.12504264 0.08504874 0.02785467
v -0.12504264 0.08504874 0.02785467
v -0.12504264 0.08504874 0.02785467
v -0.12504264 0.08504874 0.02785467
v -0.12504264 0.08504874 0.02785467
v -0.12504264 0.08504874 0.02785467
v -0.12504264 0.08504874 0.02785467
v -0.13497269 0.07350381 0.02747375
v -0.13497269 0.07350381 0.02747375
v -0.13497269 0.07350381 0.02747375
v -0.13497269 0.07350381 0.02747375
v -0.13497269 0.07350381 0.02747375
v -0.13497269 0.07350381 0.02747375
v -0.13497269 0.07350381 0.02747375
v -0.13497269 0.07350381 0.02747375
v -0.13722561 0.07124857 0.02658492
v -0.13722561 0.07124857 0.02658492
v -0.13722561 0.07124857 0.02658492
v -0.10387895 0.07124857 0.00710169
v -0.10387895 0.07124857 0.00710169
v -0.10387895 0.07124857 0.00710169
v -0.10387895 0.07124857 0.00710169
v -0.10387895 0.09231058 0.02529746
v -0.10387895 0.09231058 0.02529746
v -0.10387895 0.09231058 0.02529746
v -0.10898672 0.09231265 0.02530041
v -0.10898672 0.09231265 0.02530041
v -0.10898672 0.09231265 0.02530041
v -0.10898672 0.09231265 0.02530041
v -0.10898672 0.09231265 0.02530041
v -0.10898672 0.09231265 0.02530041
v -0.10898672 0.09231265 0.02530041
v -0.10391678 0.09230851 0.02533289
v -0.10391678 0.09230851 0.02533289
v -0.10391678 0.09230851 0.02533289
v -0.11405664 0.09215141 0.02508485
v -0.11405664 0.09215141 0.02508485
v -0.11405664 0.09215141 0.02508485
v -0.11405664 0.09215141 0.02508485
v -0.11912658 0.09180826 0.02453856
v -0.11912658 0.09180826 0.02453856
v -0.11912658 0.09180826 0.02453856
v -0.11912658 0.09180826 0.02453856
v -0.11912658 0.09180826 0.02453856
v -0.11912658 0.08903625 0.02707215
v -0.11912658 0.08903625 0.02707215
v -0.11912658 0.08903625 0.02707215
v -0.11912658 0.08903625 0.02707215
v -0.11912658 0.08903625 0.02707215
v -0.11912658 0.08903625 0.02707215
v -0.12910821 0.08347153 0.02691565
v -0.12910821 0.08347153 0.02691565
v -0.12910821 0.08347153 0.02691565
v -0.12910821 0.08347153 0.02691565
v -0.12910821 0.08347153 0.02691565
v -0.13277136 0.08363896 0.02426690
v -0.13277136 0.08363896 0.02426690
v -0.13277136 0.08363896 0.02426690
v -0.13277136 0.08363896 0.02426690
v -0.13277136 0.08363896 0.02426690
v -0.13414031 0.07835330 0.02599139
v -0.13414031 0.07835330 0.02599139
v -0.13414031 0.07835330 0.02599139
v -0.13414031 0.07835330 0.02599139
v -0.12369433 0.08844504 0.02582898
v -0.12369433 0.08844504 0.02582898
v -0.12369433 0.08844504 0.02582898
v -0.12369433 0.08844504 0.02582898
v -0.12925955 0.08709934 0.02425509
v -0.12925955 0.08709934 0.02425509
v -0.12925955 0.08709934 0.02425509
v -0.12925955 0.08709934 0.02425509
v -0.12925955 0.08709934 0.02425509
v -0.13744918 0.07707788 0.02411335
v -0.13744918 0.07707788 0.02411335
v -0.13744918 0.07707788 0.02411335
v -0.13744918 0.07707788 0.02411335
v -0.13744918 0.07707788 0.02411335
v -0.13744918 0.07707788 0.02411335
v -0.13744918 0.07707788 0.02411335
v -0.13836411 0.07350381 0.02493721
v -0.13836411 0.07350381 0.02493721
v -0.13836411 0.07350381 0.02493721
v -0.13901419 0.07124857 0.02524726
v -0.13901419 0.07124857 0.02524726
v -0.13901419 0.07124857 0.02524726
v -0.13901419 0.07124857 0.02524726
v -0.13901419 0.07124857 0.02524726
v -0.10387895 0.07124857 -0.00194009
v -0.10387895 0.07124857 -0.00194009
v -0.10387895 0.07124857 -0.00194009
v -0.10387895 0.07124857 -0.00194009
v -0.10387895 0.07124857 -0.00194009
v -0.10387895 0.09236433 0.02049309
v -0.10387895 0.09236433 0.02049309
v -0.10387895 0.09236433 0.02049309
v -0.10387895 0.09236433 0.02049309
v -0.10387895 0.09236433 0.02049309
v -0.11405664 0.09215141 0.02147050
v -0.11405664 0.09215141 0.02147050
v -0.11405664 0.09215141 0.02147050
v -0.11405664 0.09215141 0.02147050
v -0.11405664 0.09215141 0.02147050
v -0.11405664 0.09215141 0.02147050
v -0.11405664 0.09215141 0.02147050
v -0.11912658 0.09180826 0.02214376
v -0.11912658 0.09180826 0.02214376
v -0.11912658 0.09180826 0.02214376
v -0.11912658 0.09180826 0.02214376
v -0.12234946 0.09150233 0.02380034
v -0.12234946 0.09150233 0.02380034
v -0.12234946 0.09150233 0.02380034
v -0.12234946 0.09150233 0.02380034
v -0.12234946 0.09150233 0.02380034
v -0.12234946 0.09150233 0.02380034
v -0.13188395 0.08624768 0.02321862
v -0.13188395 0.08624768 0.02321862
v -0.13188395 0.08624768 0.02321862
v -0.13188395 0.08624768 0.02321862
v -0.13188395 0.08624768 0.02321862
v -0.13188395 0.08624768 0.02321862
v -0.13744918 0.07707788 0.02243315
v -0.13744918 0.07707788 0.02243315
v -0.13744918 0.07707788 0.02243315
v -0.13744918 0.07707788 0.02243315
v -0.13744918 0.07707788 0.02243315
v -0.13744918 0.07707788 0.02243315
v -0.13901419 0.07124857 0.02173626
v -0.13901419 0.07124857 0.02173626
v -0.13901419 0.07124857 0.02173626
v -0.13901419 0.07124857 0.02173626
v -0.13901419 0.07124857 0.02173626
v -0.10391678 0.07350381 -0.00140562
v -0.10391678 0.07350381 -0.00140562
v -0.10391678 0.07350381 -0.00140562
v -0.10391678 0.07350381 -0.00140562
v -0.10387895 0.07350381 -0.00140562
v -0.10387895 0.07350381 -0.00140562
v -0.10387895 0.07350381 -0.00140562
v -0.10562625 0.07124857 -0.00188989
v -0.10562625 0.07124857 -0.00188989
v -0.10562625 0.07124857 -0.00188989
v -0.10898672 0.07350381 -0.00126092
v -0.10898672 0.07350381 -0.00126092
v -0.10898672 0.07350381 -0.00126092
v -0.10898672 0.07350381 -0.00126092
v -0.10898672 0.07350381 -0.00126092
v -0.10898672 0.07350381 -0.00126092
v -0.10898672 0.07350381 -0.00126092
v -0.10898672 0.07350381 -0.00126092
v -0.10387895 0.08912513 0.01035874
v -0.10387895 0.08912513 0.01035874
v -0.10387895 0.08912513 0.01035874
v -0.10387895 0.08912513 0.01035874
v -0.10851893 0.09210387 0.02024505
v -0.10851893 0.09210387 0.02024505
v -0.10851893 0.09210387 0.02024505
v -0.10851893 0.09210387 0.02024505
v -0.10851893 0.09210387 0.02024505
v -0.10851893 0.09210387 0.02024505
v -0.10391678 0.08747970 0.00528861
v -0.10391678 0.08747970 0.00528861
v -0.10391678 0.08747970 0.00528861
v -0.10391678 0.08747970 0.00528861
v -0.10391678 0.08747970 0.00528861
v -0.10887321 0.08690296 0.00499037
v -0.10887321 0.08690296 0.00499037
v -0.10887321 0.08690296 0.00499037
v -0.10887321 0.08690296 0.00499037
v -0.10887321 0.08690296 0.00499037
v -0.10887321 0.08690296 0.00499037
v -0.12234946 0.09150233 0.02266643
v -0.12234946 0.09150233 0.02266643
v -0.12234946 0.09150233 0.02266643
v -0.12234946 0.09150233 0.02266643
v -0.12234946 0.09150233 0.02266643
v -0.12234946 0.09150233 0.02266643
v -0.12234946 0.09150233 0.02266643
v -0.12234946 0.09150233 0.02266643
v -0.13188395 0.08624768 0.02293809
v -0.13188395 0.08624768 0.02293809
v -0.13188395 0.08624768 0.02293809
v -0.13188395 0.08624768 0.02293809
v -0.13188395 0.08624768 0.02293809
v -0.12716830 0.07196794 0.00243020
v -0.12716830 0.07196794 0.00243020
v -0.12716830 0.07196794 0.00243020
v -0.12716830 0.07196794 0.00243020
v -0.12716830 0.07196794 0.00243020
v -0.12716830 0.07196794 0.00243020
v -0.12716830 0.07196794 0.00243020
v -0.12716830 0.07196794 0.00243020
v -0.12716830 0.07196794 0.00243020
v -0.12716830 0.07196794 0.00243020
v -0.12716830 0.07196794 0.00243020
v -0.13836411 0.07350381 0.02192230
v -0.13836411 0.07350381 0.02192230
v -0.13836411 0.07350381 0.02192230
v -0.12619490 0.07534770 0.00334855
v -0.12619490 0.07534770 0.00334855
v -0.12619490 0.07534770 0.00334855
v -0.12619490 0.07534770 0.00334855
v -0.12764296 0.07124857 0.00301192
v -0.12764296 0.07124857 0.00301192
v -0.12764296 0.07124857 0.00301192
v -0.10387895 0.07853521 -0.00001185
v -0.10387895 0.07853521 -0.00001185
v -0.10387895 0.07853521 -0.00001185
v -0.10387895 0.07853521 -0.00001185
v -0.10387895 0.07853521 -0.00001185
v -0.10387895 0.07853521 -0.00001185
v -0.10387895 0.07853521 -0.00001185
v -0.10898672 0.07124857 -0.00177178
v -0.10898672 0.07124857 -0.00177178
v -0.10898672 0.07124857 -0.00177178
v -0.10898672 0.07124857 -0.00177178
v -0.10898672 0.07857242 0.00015056
v -0.10898672 0.07857242 0.00015056
v -0.10898672 0.07857242 0.00015056
v -0.10898672 0.07857242 0.00015056
v -0.10898672 0.07857242 0.00015056
v -0.10898672 0.07857242 0.00015056
v -0.11405664 0.07350381 -0.00068511
v -0.11405664 0.07350381 -0.00068511
v -0.11405664 0.07350381 -0.00068511
v -0.11405664 0.07350381 -0.00068511
v -0.11405664 0.07350381 -0.00068511
v -0.11405664 0.07350381 -0.00068511
v -0.11405664 0.07350381 -0.00068511
v -0.11405664 0.07857242 0.00057578
v -0.11405664 0.07857242 0.00057578
v -0.11405664 0.07857242 0.00057578
v -0.11405664 0.07857242 0.00057578
v -0.11405664 0.07857242 0.00057578
v -0.11405664 0.07857242 0.00057578
v -0.11405664 0.07857242 0.00057578
v -0.10387895 0.08911273 0.01032035
v -0.10387895 0.08911273 0.01032035
v -0.10387895 0.08911273 0.01032035
v -0.10387895 0.08911273 0.01032035
v -0.10387895 0.08748176 0.00528861
v -0.10387895 0.08748176 0.00528861
v -0.10387895 0.08748176 0.00528861
v -0.10387895 0.08748176 0.00528861
v -0.10387895 0.08748176 0.00528861
v -0.10387895 0.08748176 0.00528861
v -0.10710871 0.08625389 0.00267529
v -0.10710871 0.08625389 0.00267529
v -0.10710871 0.08625389 0.00267529
v -0.10710871 0.08625389 0.00267529
v -0.10710871 0.08625389 0.00267529
v -0.10710871 0.08625389 0.00267529
v -0.10710871 0.08625389 0.00267529
v -0.10710871 0.08625389 0.00267529
v -0.11048637 0.08589420 0.00310346
v -0.11048637 0.08589420 0.00310346
v -0.11048637 0.08589420 0.00310346
v -0.11048637 0.08589420 0.00310346
v -0.11048637 0.08589420 0.00310346
v -0.11048637 0.08589420 0.00310346
v -0.11048637 0.08589420 0.00310346
v -0.11048637 0.08589420 0.00310346
v -0.11048637 0.08589420 0.00310346
v -0.12172345 0.08115633 0.00270778
v -0.12172345 0.08115633 0.00270778
v -0.12172345 0.08115633 0.00270778
v -0.12172345 0.08115633 0.00270778
v -0.12172345 0.08115633 0.00270778
v -0.12172345 0.08115633 0.00270778
v -0.12172345 0.08115633 0.00270778
v -0.12172345 0.08115633 0.00270778
v -0.12172345 0.08115633 0.00270778
v -0.12172345 0.08115633 0.00270778
v -0.11405664 0.08658050 0.00664399
v -0.11405664 0.08658050 0.00664399
v -0.11405664 0.08658050 0.00664399
v -0.11676014 0.08626422 0.00759187
v -0.11676014 0.08626422 0.00759187
v -0.11676014 0.08626422 0.00759187
v -0.11676014 0.08626422 0.00759187
v -0.11676014 0.08626422 0.00759187
v -0.12723021 0.07124857 0.00238591
v -0.12723021 0.07124857 0.00238591
v -0.12723021 0.07124857 0.00238591
v -0.12257303 0.07857242 0.00235047
v -0.12257303 0.07857242 0.00235047
v -0.12257303 0.07857242 0.00235047
v -0.12257303 0.07857242 0.00235047
v -0.12257303 0.07857242 0.00235047
v -0.12437881 0.07359683 0.00182486
v -0.12437881 0.07359683 0.00182486
v -0.12437881 0.07359683 0.00182486
v -0.12437881 0.07359683 0.00182486
v -0.12429282 0.07124857 0.00145870
v -0.12429282 0.07124857 0.00145870
v -0.12429282 0.07124857 0.00145870
v -0.12429282 0.07124857 0.00145870
v -0.12429282 0.07124857 0.00145870
v -0.12655949 0.07124857 0.00214377
v -0.12655949 0.07124857 0.00214377
v -0.12655949 0.07124857 0.00214377
v -0.10387895 0.08360175 0.00152366
v -0.10387895 0.08360175 0.00152366
v -0.10387895 0.08360175 0.00152366
v -0.10387895 0.08360175 0.00152366
v -0.10391678 0.07857242 -0.00000003
v -0.10391678 0.07857242 -0.00000003
v -0.10391678 0.07857242 -0.00000003
v -0.11111237 0.07124857 -0.00152964
v -0.11111237 0.07124857 -0.00152964
v -0.11111237 0.07124857 -0.00152964
v -0.10887321 0.08397798 0.00194593
v -0.10887321 0.08397798 0.00194593
v -0.10887321 0.08397798 0.00194593
v -0.10887321 0.08397798 0.00194593
v -0.10887321 0.08397798 0.00194593
v -0.10391678 0.08363896 0.00153547
v -0.10391678 0.08363896 0.00153547
v -0.10391678 0.08363896 0.00153547
v -0.10391678 0.08363896 0.00153547
v -0.10391678 0.08363896 0.00153547
v -0.10391678 0.08363896 0.00153547
v -0.10391678 0.08363896 0.00153547
v -0.10391678 0.08363896 0.00153547
v -0.10391678 0.08363896 0.00153547
v -0.11390530 0.07124857 -0.00110737
v -0.11390530 0.07124857 -0.00110737
v -0.11390530 0.07124857 -0.00110737
v -0.11390530 0.07124857 -0.00110737
v -0.11912658 0.07350381 0.00033364
v -0.11912658 0.07350381 0.00033364
v -0.11912658 0.07350381 0.00033364
v -0.11912658 0.07350381 0.00033364
v -0.11912658 0.07350381 0.00033364
v -0.11912658 0.07350381 0.00033364
v -0.11912658 0.07350381 0.00033364
v -0.11912658 0.07350381 0.00033364
v -0.11912658 0.07857242 0.00140259
v -0.11912658 0.07857242 0.00140259
v -0.11912658 0.07857242 0.00140259
v -0.11912658 0.07857242 0.00140259
v -0.11912658 0.07857242 0.00140259
v -0.11912658 0.07857242 0.00140259
v -0.11405664 0.08271909 0.00200498
v -0.11405664 0.08271909 0.00200498
v -0.11405664 0.08271909 0.00200498
v -0.11405664 0.08271909 0.00200498
v -0.11405664 0.08271909 0.00200498
v -0.11912658 0.08170205 0.00240953
v -0.11912658 0.08170205 0.00240953
v -0.11912658 0.08170205 0.00240953
v -0.11912658 0.08170205 0.00240953
v -0.11912658 0.08170205 0.00240953
v -0.10387895 0.08637585 0.00256013
v -0.10387895 0.08637585 0.00256013
v -0.10387895 0.08637585 0.00256013
v -0.10387895 0.08637585 0.00256013
v -0.10391678 0.08637585 0.00256013
v -0.10391678 0.08637585 0.00256013
v -0.10391678 0.08637585 0.00256013
v -0.10391678 0.08637585 0.00256013
v -0.10391678 0.08637585 0.00256013
v -0.11405664 0.08525546 0.00411040
v -0.11405664 0.08525546 0.00411040
v -0.11405664 0.08525546 0.00411040
v -0.11912658 0.07124857 0.00005017
v -0.11912658 0.07124857 0.00005017
v -0.11912658 0.07124857 0.00005017
v -0.10387895 0.08363896 0.00153547
v -0.10387895 0.08363896 0.00153547
v -0.10387895 0.08363896 0.00153547
v -0.10387895 0.08363896 0.00153547
v -0.10387895 0.08635517 0.00255127
v -0.10387895 0.08635517 0.00255127
v -0.10387895 0.08635517 0.00255127
v -0.10387895 0.08635517 0.00255127
v -0.10387895 0.08635517 0.00255127
v -0.11681174 0.07124857 -0.00052270
v -0.11681174 0.07124857 -0.00052270
v -0.11681174 0.07124857 -0.00052270
f 1 12 68
f 1 68 138
f 1 138 208
f 1 208 252
f 1 252 325
f 1 325 404
f 1 404 421
f 1 421 418
f 1 418 488
f 1 488 500
f 1 500 449
f 1 449 431
f 1 431 336
f 1 336 262
f 1 262 212
f 1 212 139
f 1 139 69
f 1 69 14
f 8 16 19
f 7 18 27
f 6 26 34
f 5 33 40
f 4 38 43
f 3 41 49
f 2 48 13
f 10 56 63
f 9 61 67
f 11 46 59
f 15 70 72
f 17 74 20
f 23 75 141
f 24 142 213
f 24 213 259
f 24 259 332
f 24 332 425
f 23 424 491
f 24 492 497
f 22 496 476
f 24 477 366
f 24 366 359
f 25 360 274
f 24 273 218
f 24 218 145
f 24 145 80
f 24 80 36
f 21 35 28
f 31 79 91
f 29 90 94
f 30 95 98
f 32 99 39
f 37 96 50
f 37 50 42
f 51 97 93
f 47 92 88
f 44 86 102
f 45 103 58
f 53 110 114
f 55 115 62
f 57 101 120
f 54 117 127
f 52 126 109
f 60 113 66
f 64 133 137
f 65 112 135
f 71 140 73
f 78 144 152
f 76 150 154
f 77 155 89
f 87 153 149
f 84 146 158
f 83 156 162
f 82 161 170
f 81 169 118
f 85 119 100
f 108 123 175
f 106 171 179
f 104 178 183
f 105 184 132
f 107 134 111
f 116 167 125
f 124 165 187
f 122 186 193
f 121 191 174
f 130 198 203
f 128 202 206
f 129 207 136
f 131 182 200
f 143 217 151
f 147 224 159
f 148 216 225
f 157 221 229
f 157 229 164
f 163 228 299
f 163 299 235
f 160 234 168
f 166 233 188
f 173 189 240
f 172 238 180
f 177 199 181
f 176 237 197
f 185 232 192
f 190 231 241
f 194 242 248
f 194 248 204
f 195 205 201
f 196 236 300
f 196 300 243
f 211 255 257
f 209 261 268
f 210 269 253
f 215 272 280
f 214 279 223
f 222 275 283
f 220 281 290
f 219 289 227
f 226 287 298
f 230 292 303
f 230 303 239
f 245 308 318
f 244 316 249
f 247 301 320
f 246 319 309
f 251 317 307
f 250 305 323
f 256 331 258
f 254 270 328
f 260 335 266
f 267 340 326
f 263 334 348
f 264 349 353
f 265 355 337
f 271 358 278
f 277 357 364
f 276 361 284
f 285 362 372
f 282 370 291
f 288 368 383
f 286 382 297
f 293 386 304
f 296 379 396
f 295 395 401
f 294 397 387
f 302 384 321
f 306 402 324
f 310 322 385
f 311 388 405
f 313 406 410
f 315 411 415
f 314 414 420
f 312 419 403
f 327 341 426
f 330 428 443
f 329 442 422
f 333 430 347
f 338 356 434
f 339 435 437
f 342 440 427
f 346 429 448
f 343 447 456
f 344 457 460
f 345 462 350
f 354 468 433
f 351 463 472
f 352 473 466
f 365 475 482
f 363 478 373
f 369 432 467
f 367 465 381
f 374 479 439
f 371 438 436
f 380 464 471
f 378 469 392
f 375 390 484
f 376 485 399
f 377 400 394
f 393 470 461
f 391 459 409
f 389 398 483
f 408 458 453
f 407 451 413
f 412 450 416
f 417 452 486
f 423 444 489
f 441 480 493
f 445 494 490
f 446 499 455
f 454 498 487
f 474 495 481

