# https://github.com/mikedh/trimesh
v -0.00000598 0.00000610 -0.00262426
v -0.00000598 0.00000610 -0.00262426
v -0.00000598 0.00000610 -0.00262426
v -0.00000598 0.00000610 -0.00262426
v -0.00000598 0.00000610 0.00599558
v -0.00000598 0.00000610 0.00599558
v -0.00000598 0.00000610 0.00599558
v 0.10897631 0.00000610 -0.00267081
v 0.10897631 0.00000610 -0.00267081
v 0.10897631 0.00000610 -0.00267081
v 0.10897631 0.00000610 -0.00267081
v 0.10897631 0.00000610 -0.00267081
v 0.10897631 0.00000610 -0.00267081
v -0.10896684 -0.00007459 -0.00268335
v -0.10896684 -0.00007459 -0.00268335
v -0.10896684 -0.00007459 -0.00268335
v -0.10896684 -0.00007459 -0.00268335
v -0.10913823 -0.00007459 -0.00267529
v -0.10913823 -0.00007459 -0.00267529
v -0.10913823 -0.00007459 -0.00267529
v -0.10913823 -0.00007459 -0.00267529
v 0.10972614 0.00000610 0.00614152
v 0.10972614 0.00000610 0.00614152
v 0.10972614 0.00000610 0.00614152
v 0.10972614 0.00000610 0.00614152
v -0.10913823 -0.00007459 0.00602691
v -0.10913823 -0.00007459 0.00602691
v -0.10913823 -0.00007459 0.00602691
v -0.10913823 -0.00007459 0.00602691
v -0.10913823 -0.00007459 0.00602691
v 0.10972614 0.00000610 -0.00263321
v 0.10972614 0.00000610 -0.00263321
v 0.10972614 0.00000610 -0.00263321
v 0.10972614 -0.00761507 -0.00263500
v 0.10972614 -0.00761507 -0.00263500
v 0.10972614 -0.00761507 -0.00263500
v 0.10972614 -0.00761507 -0.00263500
v 0.10897631 -0.00761507 -0.00267171
v 0.10897631 -0.00761507 -0.00267171
v -0.10896684 -0.02788439 -0.00272096
v -0.10896684 -0.02788439 -0.00272096
v -0.10896684 -0.02788439 -0.00272096
v -0.10896684 -0.02788439 -0.00272096
v -0.10896684 -0.02788439 -0.00272096
v -0.10896684 -0.02788439 -0.00272096
v -0.10913823 -0.02788439 -0.00271290
v -0.10913823 -0.02788439 -0.00271290
v -0.10913823 -0.02788439 -0.00271290
v 0.10972614 -0.06334019 0.00642625
v 0.10972614 -0.06334019 0.00642625
v 0.10972614 -0.06334019 0.00642625
v 0.10972614 -0.06334019 0.00642625
v 0.10972614 -0.06334019 0.00642625
v -0.10913823 -0.06339604 0.00630269
v -0.10913823 -0.06339604 0.00630269
v -0.10913823 -0.06339604 0.00630269
v -0.10913823 -0.06339604 0.00630269
v 0.10972614 -0.02788439 -0.00263590
v 0.10972614 -0.02788439 -0.00263590
v 0.10972614 -0.02788439 -0.00263590
v 0.10897631 -0.02788439 -0.00267350
v 0.10897631 -0.02788439 -0.00267350
v 0.10897631 -0.02788439 -0.00267350
v 0.10897631 -0.02788439 -0.00267350
v 0.10897631 -0.02788439 -0.00267350
v -0.10896684 -0.03800664 -0.00271917
v -0.10896684 -0.03800664 -0.00271917
v -0.10896684 -0.03800664 -0.00271917
v -0.10896684 -0.03800664 -0.00271917
v 0.10389889 -0.06334019 -0.00267619
v 0.10389889 -0.06334019 -0.00267619
v 0.10389889 -0.06334019 -0.00267619
v 0.10389889 -0.06334019 -0.00267619
v 0.10389889 -0.06334019 -0.00267619
v 0.10389889 -0.06334019 -0.00267619
v 0.10389889 -0.06334019 -0.00267619
v 0.10389889 -0.06334019 -0.00267619
v 0.10389889 -0.06334019 -0.00267619
v 0.10389889 -0.06334019 -0.00267619
v 0.10389889 -0.06334019 -0.00267619
v -0.10913823 -0.03800664 -0.00271111
v -0.10913823 -0.03800664 -0.00271111
v -0.00002741 -0.06339604 0.00600363
v -0.00002741 -0.06339604 0.00600363
v -0.00002741 -0.06339604 0.00600363
v 0.10972614 -0.06334019 -0.00258844
v 0.10972614 -0.06334019 -0.00258844
v 0.10972614 -0.06334019 -0.00258844
v 0.10972614 -0.06334019 -0.00258844
v -0.10913823 -0.06339604 -0.00264306
v -0.10913823 -0.06339604 -0.00264306
v -0.10913823 -0.06339604 -0.00264306
v -0.10913823 -0.06339604 -0.00264306
v 0.10972614 -0.05322415 -0.00263410
v 0.10972614 -0.05322415 -0.00263410
v 0.10972614 -0.05322415 -0.00263410
v 0.10972614 -0.05322415 -0.00263410
v 0.10897631 -0.05322415 -0.00267350
v 0.10897631 -0.05322415 -0.00267350
v 0.10897631 -0.05322415 -0.00267350
v 0.10897631 -0.05322415 -0.00267350
v 0.10897631 -0.05322415 -0.00267350
v -0.10896684 -0.04307707 -0.00271738
v -0.10896684 -0.04307707 -0.00271738
v -0.10896684 -0.04307707 -0.00271738
v -0.10896684 -0.04307707 -0.00271738
v -0.10913823 -0.04285985 -0.00271021
v -0.10913823 -0.04285985 -0.00271021
v -0.10913823 -0.04285985 -0.00271021
v -0.10913823 -0.04285985 -0.00271021
v -0.10913823 -0.04285985 -0.00271021
v 0.10897631 -0.05828837 -0.00266723
v 0.10897631 -0.05828837 -0.00266723
v 0.10897631 -0.05828837 -0.00266723
v 0.10897631 -0.05828837 -0.00266723
v 0.10897631 -0.05828837 -0.00266723
v 0.10897631 -0.06334019 -0.00263142
v 0.10897631 -0.06334019 -0.00263142
v 0.10897631 -0.06334019 -0.00263142
v 0.10897631 -0.06334019 -0.00263142
v 0.10897631 -0.06334019 -0.00263142
v -0.00002741 -0.06339604 -0.00264753
v -0.00002741 -0.06339604 -0.00264753
v -0.00002741 -0.06339604 -0.00264753
v -0.00002741 -0.06339604 -0.00264753
v -0.00002741 -0.06339604 -0.00264753
v -0.10386800 -0.06339604 -0.00268962
v -0.10386800 -0.06339604 -0.00268962
v -0.10386800 -0.06339604 -0.00268962
v -0.10386800 -0.06339604 -0.00268962
v -0.10391086 -0.06335880 -0.00269051
v -0.10391086 -0.06335880 -0.00269051
v -0.10391086 -0.06335880 -0.00269051
v -0.10391086 -0.06335880 -0.00269051
v -0.10391086 -0.06335880 -0.00269051
v -0.10391086 -0.06335880 -0.00269051
v -0.10896684 -0.05321795 -0.00271200
v -0.10896684 -0.05321795 -0.00271200
v -0.10896684 -0.05321795 -0.00271200
v -0.10896684 -0.05321795 -0.00271200
v -0.10896684 -0.05321795 -0.00271200
v -0.10896684 -0.05321795 -0.00271200
v -0.10896684 -0.05321795 -0.00271200
v 0.10972614 -0.05828837 -0.00262694
v 0.10972614 -0.05828837 -0.00262694
v 0.10972614 -0.05828837 -0.00262694
v 0.10972614 -0.05828837 -0.00262694
v -0.10913823 -0.06335880 -0.00264485
v -0.10913823 -0.06335880 -0.00264485
v -0.10913823 -0.06335880 -0.00264485
v -0.10896684 -0.06339604 -0.00265201
v -0.10896684 -0.06339604 -0.00265201
v -0.10896684 -0.06339604 -0.00265201
v -0.10913823 -0.04792408 -0.00270753
v -0.10913823 -0.04792408 -0.00270753
v -0.10913823 -0.04792408 -0.00270753
v -0.10391086 -0.06339604 -0.00268962
v -0.10391086 -0.06339604 -0.00268962
v -0.10391086 -0.06339604 -0.00268962
v -0.10391086 -0.06339604 -0.00268962
v -0.10896684 -0.06335880 -0.00265380
v -0.10896684 -0.06335880 -0.00265380
v -0.10896684 -0.06335880 -0.00265380
v -0.10896684 -0.06335880 -0.00265380
v -0.10896684 -0.06335880 -0.00265380
v -0.10896684 -0.06335880 -0.00265380
v -0.10896684 -0.06335880 -0.00265380
v -0.10896684 -0.06335880 -0.00265380
v -0.10896684 -0.05828837 -0.00269051
v -0.10896684 -0.05828837 -0.00269051
v -0.10896684 -0.05828837 -0.00269051
v -0.10896684 -0.05828837 -0.00269051
v -0.10896684 -0.05828837 -0.00269051
v -0.10913823 -0.05321795 -0.00270394
v -0.10913823 -0.05321795 -0.00270394
v -0.10913823 -0.05321795 -0.00270394
v -0.10913823 -0.06312918 -0.00264753
v -0.10913823 -0.06312918 -0.00264753
v -0.10913823 -0.06312918 -0.00264753
v -0.10913823 -0.06312918 -0.00264753
v -0.10894541 -0.06339604 -0.00265291
v -0.10894541 -0.06339604 -0.00265291
v -0.10894541 -0.06339604 -0.00265291
v -0.10913823 -0.05828837 -0.00268245
v -0.10913823 -0.05828837 -0.00268245
v -0.10913823 -0.05828837 -0.00268245
f 4 7 24
f 4 24 31
f 4 31 9
f 3 8 16
f 1 15 20
f 2 21 27
f 2 27 5
f 6 28 22
f 13 32 35
f 12 34 39
f 11 38 43
f 10 42 17
f 14 40 47
f 14 47 19
f 18 46 81
f 18 81 107
f 18 107 154
f 18 154 174
f 18 174 184
f 18 184 177
f 18 177 148
f 18 148 90
f 18 90 54
f 18 54 26
f 25 53 89
f 25 89 147
f 25 147 97
f 25 97 60
f 25 60 37
f 25 37 33
f 23 30 50
f 29 55 49
f 36 58 65
f 34 64 39
f 38 61 43
f 41 66 82
f 41 82 48
f 44 62 73
f 45 74 68
f 52 85 126
f 52 126 87
f 51 57 84
f 56 93 153
f 56 153 183
f 56 183 160
f 56 160 128
f 56 128 122
f 56 122 83
f 59 94 101
f 58 100 65
f 63 98 77
f 67 104 111
f 66 108 82
f 69 75 106
f 79 99 112
f 80 113 119
f 78 117 124
f 76 123 130
f 72 129 136
f 71 135 143
f 70 142 105
f 86 125 118
f 88 121 146
f 91 150 162
f 92 163 151
f 96 144 115
f 95 114 102
f 103 140 110
f 109 139 156
f 116 145 120
f 127 159 134
f 132 157 167
f 131 166 172
f 133 173 141
f 138 169 185
f 138 185 176
f 137 175 155
f 149 178 161
f 152 165 181
f 158 182 168
f 164 180 171
f 170 179 186

