# https://github.com/mikedh/trimesh
v 0.13555749 -0.00759395 0.01634398
v 0.13555749 -0.00759395 0.01634398
v 0.13555749 -0.00759395 0.01634398
v 0.13555749 -0.00759395 0.01634398
v 0.13555749 -0.00759395 0.01634398
v 0.13555749 -0.00759395 0.01634398
v 0.13555749 -0.00759395 0.01634398
v 0.13555749 -0.00759395 0.01634398
v 0.13555749 -0.00759395 0.01634398
v 0.13555749 -0.00759395 0.01634398
v 0.13555749 -0.00759395 0.01634398
v 0.13554449 -0.00095143 0.01634398
v 0.13554449 -0.00095143 0.01634398
v 0.13554449 -0.00095143 0.01634398
v 0.13554449 -0.00095143 0.01634398
v 0.13555490 -0.01108431 0.01634398
v 0.13555490 -0.01108431 0.01634398
v 0.13555490 -0.01108431 0.01634398
v 0.13226058 -0.02787323 0.00628827
v 0.13226058 -0.02787323 0.00628827
v 0.13226058 -0.02787323 0.00628827
v 0.13226058 -0.02787323 0.00628827
v 0.13226058 -0.02787323 0.00628827
v 0.13226058 -0.02787323 0.00628827
v 0.13226058 -0.02787323 0.00628827
v 0.13226058 -0.02787323 0.00628827
v 0.13226058 -0.02787323 0.00628827
v 0.13226058 -0.02281356 0.00628083
v 0.13226058 -0.02281356 0.00628083
v 0.13226058 -0.02281356 0.00628083
v 0.13226058 -0.02281356 0.00628083
v 0.13226058 -0.01266715 0.00626780
v 0.13226058 -0.01266715 0.00626780
v 0.13226058 -0.01266715 0.00626780
v 0.13226058 -0.01266715 0.00626780
v 0.13226579 0.02787789 0.00628455
v 0.13226579 0.02787789 0.00628455
v 0.13226579 0.02787789 0.00628455
v 0.13226579 0.02787789 0.00628455
v 0.13226579 0.02787789 0.00628455
v 0.13226579 0.02787789 0.00628455
v 0.13226579 0.02787789 0.00628455
v 0.13553929 0.01267181 0.01630675
v 0.13553929 0.01267181 0.01630675
v 0.13553929 0.01267181 0.01630675
v 0.13553929 0.01267181 0.01630675
v 0.13551847 0.02431988 0.01630675
v 0.13551847 0.02431988 0.01630675
v 0.13551847 0.02431988 0.01630675
v 0.13551847 0.02431988 0.01630675
v 0.13551847 0.02431988 0.01630675
v 0.13554188 -0.00000444 0.01634398
v 0.13554188 -0.00000444 0.01634398
v 0.13554188 -0.00000444 0.01634398
v 0.13554188 -0.00000444 0.01634398
v 0.13554188 -0.00000444 0.01634398
v 0.13554188 -0.00000444 0.01634398
v 0.13554188 -0.00000444 0.01634398
v 0.13554188 -0.00000444 0.01634398
v 0.13554188 -0.00000444 0.01634398
v 0.13554188 -0.00000444 0.01634398
v 0.13554188 -0.00000444 0.01634398
v 0.13554188 -0.00000444 0.01634398
v 0.13554188 -0.00000444 0.01634398
v 0.13554188 -0.00000444 0.01634398
v 0.13554188 -0.00000444 0.01634398
v 0.13554188 -0.00000444 0.01634398
v 0.13551066 0.02787789 0.01630675
v 0.13551066 0.02787789 0.01630675
v 0.13551066 0.02787789 0.01630675
v 0.13551066 0.02787789 0.01630675
v 0.13551066 0.02787789 0.01630675
v 0.13554188 -0.02281356 0.01634398
v 0.13554188 -0.02281356 0.01634398
v 0.13554188 -0.02281356 0.01634398
v 0.13554188 -0.02281356 0.01634398
v 0.13108182 -0.02787323 0.00375480
v 0.13108182 -0.02787323 0.00375480
v 0.13108182 -0.02787323 0.00375480
v 0.13108182 -0.02787323 0.00375480
v 0.13108182 -0.02787323 0.00375480
v 0.13108182 -0.02787323 0.00375480
v 0.13108182 -0.02787323 0.00375480
v 0.13108702 -0.02281356 0.00374735
v 0.13108702 -0.02281356 0.00374735
v 0.13108702 -0.02281356 0.00374735
v 0.13108702 -0.02281356 0.00374735
v 0.13109743 -0.01266715 0.00373432
v 0.13109743 -0.01266715 0.00373432
v 0.13109743 -0.01266715 0.00373432
v 0.13109743 -0.01266715 0.00373432
v 0.13109743 -0.01266715 0.00373432
v 0.13109743 -0.01266715 0.00373432
v 0.13109743 -0.01266715 0.00373432
v 0.13553148 -0.02787323 0.01634398
v 0.13553148 -0.02787323 0.01634398
v 0.13553148 -0.02787323 0.01634398
v 0.13553148 -0.02787323 0.01634398
v 0.13553148 -0.02787323 0.01634398
v 0.13225538 -0.03294643 0.00631433
v 0.13225538 -0.03294643 0.00631433
v 0.13225538 -0.03294643 0.00631433
v 0.13225538 -0.03294643 0.00631433
v 0.13225538 -0.03294643 0.00631433
v 0.13225538 -0.03294643 0.00631433
v 0.13110003 -0.00759395 0.00373432
v 0.13110003 -0.00759395 0.00373432
v 0.13110003 -0.00759395 0.00373432
v 0.13110003 -0.00759395 0.00373432
v 0.13110003 -0.00759395 0.00373432
v 0.13110003 -0.00759395 0.00373432
v 0.13110003 -0.00759395 0.00373432
v 0.13108443 0.02787789 0.00374922
v 0.13108443 0.02787789 0.00374922
v 0.13108443 0.02787789 0.00374922
v 0.13108443 0.02787789 0.00374922
v 0.13108182 0.03293756 0.00375852
v 0.13108182 0.03293756 0.00375852
v 0.13108182 0.03293756 0.00375852
v 0.13108182 0.03293756 0.00375852
v 0.13108182 0.03293756 0.00375852
v 0.13108182 0.03293756 0.00375852
v 0.13108182 0.03293756 0.00375852
v 0.13108182 0.03293756 0.00375852
v 0.13226058 0.03293756 0.00629386
v 0.13226058 0.03293756 0.00629386
v 0.13226058 0.03293756 0.00629386
v 0.13226058 0.03293756 0.00629386
v 0.13226058 0.03293756 0.00629386
v 0.13226058 0.03293756 0.00629386
v 0.13226058 0.03293756 0.00629386
v 0.12687155 -0.00000444 0.01634398
v 0.12687155 -0.00000444 0.01634398
v 0.12687155 -0.00000444 0.01634398
v 0.13546381 0.03293756 0.01630675
v 0.13546381 0.03293756 0.01630675
v 0.13546381 0.03293756 0.01630675
v 0.13546381 0.03293756 0.01630675
v 0.13546381 0.03293756 0.01630675
v 0.13543781 0.03439865 0.01630675
v 0.13543781 0.03439865 0.01630675
v 0.13543781 0.03439865 0.01630675
v 0.13543781 0.03439865 0.01630675
v 0.13537274 0.03801077 0.01630675
v 0.13537274 0.03801077 0.01630675
v 0.13537274 0.03801077 0.01630675
v 0.13537274 0.03801077 0.01630675
v 0.13537274 0.03801077 0.01630675
v 0.13533371 0.03941773 0.01630675
v 0.13533371 0.03941773 0.01630675
v 0.13533371 0.03941773 0.01630675
v 0.13533371 0.03941773 0.01630675
v 0.13522182 0.04308397 0.01630675
v 0.13522182 0.04308397 0.01630675
v 0.13522182 0.04308397 0.01630675
v 0.13522182 0.04308397 0.01630675
v 0.13517238 0.04443683 0.01630675
v 0.13517238 0.04443683 0.01630675
v 0.13517238 0.04443683 0.01630675
v 0.13517238 0.04443683 0.01630675
v 0.13495380 0.04946944 0.01630675
v 0.13495380 0.04946944 0.01630675
v 0.13495380 0.04946944 0.01630675
v 0.13495380 0.04946944 0.01630675
v 0.13469359 0.05448853 0.01630675
v 0.13469359 0.05448853 0.01630675
v 0.13469359 0.05448853 0.01630675
v 0.13469359 0.05448853 0.01630675
v 0.13442556 0.05953468 0.01630675
v 0.13442556 0.05953468 0.01630675
v 0.13442556 0.05953468 0.01630675
v 0.13442556 0.05953468 0.01630675
v 0.13442556 0.05953468 0.01630675
v 0.13415235 0.06456730 0.01630675
v 0.13415235 0.06456730 0.01630675
v 0.13415235 0.06456730 0.01630675
v 0.13415235 0.06456730 0.01630675
v 0.13389213 0.06842293 0.01630675
v 0.13389213 0.06842293 0.01630675
v 0.13389213 0.06842293 0.01630675
v 0.13389213 0.06842293 0.01630675
v 0.13389213 0.06842293 0.01630675
v 0.13389213 0.06842293 0.01630675
v 0.13389213 0.06842293 0.01630675
v 0.13389213 0.06842293 0.01630675
v 0.13385570 0.06872056 0.01630675
v 0.13385570 0.06872056 0.01630675
v 0.13385570 0.06872056 0.01630675
v 0.13385570 0.06872056 0.01630675
v 0.13385570 0.06872056 0.01630675
v 0.13385570 0.06872056 0.01630675
v 0.13106360 -0.03294643 0.00378086
v 0.13106360 -0.03294643 0.00378086
v 0.13106360 -0.03294643 0.00378086
v 0.13106360 -0.03294643 0.00378086
v 0.13106360 -0.03294643 0.00378086
v 0.13106360 -0.03294643 0.00378086
v 0.12849009 -0.03800611 0.00198453
v 0.12849009 -0.03800611 0.00198453
v 0.12849009 -0.03800611 0.00198453
v 0.12849009 -0.03800611 0.00198453
v 0.12849009 -0.03800611 0.00198453
v 0.12852652 -0.03294643 0.00198453
v 0.12852652 -0.03294643 0.00198453
v 0.12852652 -0.03294643 0.00198453
v 0.12852652 -0.03294643 0.00198453
v 0.12854734 -0.02787323 0.00198081
v 0.12854734 -0.02787323 0.00198081
v 0.12854734 -0.02787323 0.00198081
v 0.12854734 -0.02787323 0.00198081
v 0.12854734 -0.02787323 0.00198081
v 0.12854734 -0.02787323 0.00198081
v 0.12854734 -0.02787323 0.00198081
v 0.12855514 -0.02281356 0.00198081
v 0.12855514 -0.02281356 0.00198081
v 0.12855514 -0.02281356 0.00198081
v 0.12855514 -0.02281356 0.00198081
v 0.12856295 -0.01266715 0.00197895
v 0.12856295 -0.01266715 0.00197895
v 0.12856295 -0.01266715 0.00197895
v 0.12856295 -0.01266715 0.00197895
v 0.12856815 -0.00759395 0.00197895
v 0.12856815 -0.00759395 0.00197895
v 0.12856815 -0.00759395 0.00197895
v 0.12856815 -0.00759395 0.00197895
v 0.12856815 -0.00759395 0.00197895
v 0.12856815 -0.00759395 0.00197895
v 0.12856815 -0.00759395 0.00197895
v 0.13550025 -0.03137712 0.01634398
v 0.13550025 -0.03137712 0.01634398
v 0.13550025 -0.03137712 0.01634398
v 0.13550025 -0.03137712 0.01634398
v 0.13550025 -0.03137712 0.01634398
v 0.13222936 -0.03800611 0.00639810
v 0.13222936 -0.03800611 0.00639810
v 0.13222936 -0.03800611 0.00639810
v 0.13222936 -0.03800611 0.00639810
v 0.13222936 -0.03800611 0.00639810
v 0.13222936 -0.03800611 0.00639810
v 0.13222936 -0.03800611 0.00639810
v 0.12854994 0.02787789 0.00197523
v 0.12854994 0.02787789 0.00197523
v 0.12854994 0.02787789 0.00197523
v 0.12854994 0.02787789 0.00197523
v 0.12854734 0.03293756 0.00197523
v 0.12854734 0.03293756 0.00197523
v 0.12854734 0.03293756 0.00197523
v 0.12854734 0.03293756 0.00197523
v 0.12854734 0.03293756 0.00197523
v 0.12854734 0.03293756 0.00197523
v 0.12854734 0.03293756 0.00197523
v 0.12854734 0.03293756 0.00197523
v 0.12850831 0.03801077 0.00197709
v 0.12850831 0.03801077 0.00197709
v 0.12850831 0.03801077 0.00197709
v 0.12850831 0.03801077 0.00197709
v 0.12839641 0.04308397 0.00198640
v 0.12839641 0.04308397 0.00198640
v 0.12839641 0.04308397 0.00198640
v 0.12839641 0.04308397 0.00198640
v 0.12839641 0.04308397 0.00198640
v 0.12839641 0.04308397 0.00198640
v 0.12839641 0.04308397 0.00198640
v 0.13104278 0.03801077 0.00383857
v 0.13104278 0.03801077 0.00383857
v 0.13104278 0.03801077 0.00383857
v 0.13104278 0.03801077 0.00383857
v 0.13104278 0.03801077 0.00383857
v 0.13104278 0.03801077 0.00383857
v 0.13104278 0.03801077 0.00383857
v 0.13223457 0.03801077 0.00637390
v 0.13223457 0.03801077 0.00637390
v 0.13223457 0.03801077 0.00637390
v 0.13223457 0.03801077 0.00637390
v 0.13223457 0.03801077 0.00637390
v 0.13223457 0.03801077 0.00637390
v 0.13223457 0.03801077 0.00637390
v 0.12355903 -0.06948703 0.01634398
v 0.12355903 -0.06948703 0.01634398
v 0.12355903 -0.06948703 0.01634398
v 0.12355903 -0.06948703 0.01634398
v 0.12355903 -0.06948703 0.01634398
v 0.12385568 0.06872056 0.01630675
v 0.12385568 0.06872056 0.01630675
v 0.12385568 0.06872056 0.01630675
v 0.12385568 0.06872056 0.01630675
v 0.13216691 0.04308397 0.00660472
v 0.13216691 0.04308397 0.00660472
v 0.13216691 0.04308397 0.00660472
v 0.13216691 0.04308397 0.00660472
v 0.13216691 0.04308397 0.00660472
v 0.13216691 0.04308397 0.00660472
v 0.13216691 0.04308397 0.00660472
v 0.13216691 0.04308397 0.00660472
v 0.13216691 0.04308397 0.00660472
v 0.13216691 0.04308397 0.00660472
v 0.13216691 0.04308397 0.00660472
v 0.13203420 0.04814365 0.00703286
v 0.13203420 0.04814365 0.00703286
v 0.13203420 0.04814365 0.00703286
v 0.13203420 0.04814365 0.00703286
v 0.13203420 0.04814365 0.00703286
v 0.13203420 0.04814365 0.00703286
v 0.13203420 0.04814365 0.00703286
v 0.13189889 0.05218868 0.00747589
v 0.13189889 0.05218868 0.00747589
v 0.13189889 0.05218868 0.00747589
v 0.13189889 0.05218868 0.00747589
v 0.13177919 0.05558434 0.00785750
v 0.13177919 0.05558434 0.00785750
v 0.13177919 0.05558434 0.00785750
v 0.13177919 0.05558434 0.00785750
v 0.13147734 0.06334972 0.00881802
v 0.13147734 0.06334972 0.00881802
v 0.13147734 0.06334972 0.00881802
v 0.13147734 0.06334972 0.00881802
v 0.13127437 0.06842293 0.00948443
v 0.13127437 0.06842293 0.00948443
v 0.13127437 0.06842293 0.00948443
v 0.13127437 0.06842293 0.00948443
v 0.13127437 0.06842293 0.00948443
v 0.13123014 0.06872056 0.00955517
v 0.13123014 0.06872056 0.00955517
v 0.13123014 0.06872056 0.00955517
v 0.13123014 0.06872056 0.00955517
v 0.13102197 -0.03800611 0.00386463
v 0.13102197 -0.03800611 0.00386463
v 0.13102197 -0.03800611 0.00386463
v 0.13102197 -0.03800611 0.00386463
v 0.13102197 -0.03800611 0.00386463
v 0.13102197 -0.03800611 0.00386463
v 0.13102197 -0.03800611 0.00386463
v 0.12839381 -0.04307931 0.00198826
v 0.12839381 -0.04307931 0.00198826
v 0.12839381 -0.04307931 0.00198826
v 0.12839381 -0.04307931 0.00198826
v 0.12839381 -0.04307931 0.00198826
v 0.12839381 -0.04307931 0.00198826
v 0.12839381 -0.04307931 0.00198826
v 0.12419136 -0.04307931 0.00054747
v 0.12419136 -0.04307931 0.00054747
v 0.12419136 -0.04307931 0.00054747
v 0.12419136 -0.04307931 0.00054747
v 0.12419136 -0.04307931 0.00054747
v 0.12419136 -0.04307931 0.00054747
v 0.12419136 -0.04307931 0.00054747
v 0.12419136 -0.04307931 0.00054747
v 0.12419136 -0.03800611 0.00054003
v 0.12419136 -0.03800611 0.00054003
v 0.12419136 -0.03800611 0.00054003
v 0.12419136 -0.03800611 0.00054003
v 0.12419136 -0.03800611 0.00054003
v 0.12419136 -0.03800611 0.00054003
v 0.12419136 -0.02787323 0.00053630
v 0.12419136 -0.02787323 0.00053630
v 0.12419136 -0.02787323 0.00053630
v 0.12419136 -0.02787323 0.00053630
v 0.12419136 -0.02787323 0.00053630
v 0.12419136 0.02787789 0.00052700
v 0.12419136 0.02787789 0.00052700
v 0.12419136 0.02787789 0.00052700
v 0.12419136 0.02787789 0.00052700
v 0.12419136 0.02787789 0.00052700
v 0.12419136 0.03293756 0.00052700
v 0.12419136 0.03293756 0.00052700
v 0.12419136 0.03293756 0.00052700
v 0.12419136 0.03293756 0.00052700
v 0.12419136 0.03293756 0.00052700
v 0.12419136 0.03293756 0.00052700
v 0.12419136 0.03293756 0.00052700
v 0.13548204 -0.03294643 0.01634398
v 0.13548204 -0.03294643 0.01634398
v 0.13548204 -0.03294643 0.01634398
v 0.13548204 -0.03294643 0.01634398
v 0.13539096 -0.03800611 0.01634398
v 0.13539096 -0.03800611 0.01634398
v 0.13539096 -0.03800611 0.01634398
v 0.13539096 -0.03800611 0.01634398
v 0.13216171 -0.04307931 0.00661031
v 0.13216171 -0.04307931 0.00661031
v 0.13216171 -0.04307931 0.00661031
v 0.13216171 -0.04307931 0.00661031
v 0.13216171 -0.04307931 0.00661031
v 0.13216171 -0.04307931 0.00661031
v 0.13216171 -0.04307931 0.00661031
v 0.12419136 0.03801077 0.00052886
v 0.12419136 0.03801077 0.00052886
v 0.12419136 0.03801077 0.00052886
v 0.12419136 0.03801077 0.00052886
v 0.12419136 0.03801077 0.00052886
v 0.12419136 0.04308397 0.00054189
v 0.12419136 0.04308397 0.00054189
v 0.12419136 0.04308397 0.00054189
v 0.12419136 0.04308397 0.00054189
v 0.12419136 0.04308397 0.00054189
v 0.12419136 0.04308397 0.00054189
v 0.12419136 0.04308397 0.00054189
v 0.12419136 0.04814365 0.00060146
v 0.12419136 0.04814365 0.00060146
v 0.12419136 0.04814365 0.00060146
v 0.12419136 0.04814365 0.00060146
v 0.12419136 0.04814365 0.00060146
v 0.12419136 0.04814365 0.00060146
v 0.12419136 0.04814365 0.00060146
v 0.12419136 0.06334972 0.00085462
v 0.12419136 0.06334972 0.00085462
v 0.12419136 0.06334972 0.00085462
v 0.12419136 0.06334972 0.00085462
v 0.12419136 0.06334972 0.00085462
v 0.12419136 0.06334972 0.00085462
v 0.12419136 0.06334972 0.00085462
v 0.12820125 0.04814365 0.00201990
v 0.12820125 0.04814365 0.00201990
v 0.12820125 0.04814365 0.00201990
v 0.12820125 0.04814365 0.00201990
v 0.12820125 0.04814365 0.00201990
v 0.12746485 0.06842293 0.00222839
v 0.12746485 0.06842293 0.00222839
v 0.12746485 0.06842293 0.00222839
v 0.12746485 0.06842293 0.00222839
v 0.12746485 0.06842293 0.00222839
v 0.12746485 0.06842293 0.00222839
v 0.12746485 0.06842293 0.00222839
v 0.12746485 0.06842293 0.00222839
v 0.13092829 0.04308397 0.00406939
v 0.13092829 0.04308397 0.00406939
v 0.13092829 0.04308397 0.00406939
v 0.13092829 0.04308397 0.00406939
v 0.13092829 0.04308397 0.00406939
v 0.10972867 -0.06948703 0.00723763
v 0.10972867 -0.06948703 0.00723763
v 0.10972867 -0.06948703 0.00723763
v 0.10972867 -0.06948703 0.00723763
v 0.13373600 -0.06948703 0.01634398
v 0.13373600 -0.06948703 0.01634398
v 0.13373600 -0.06948703 0.01634398
v 0.13373600 -0.06948703 0.01634398
v 0.10898706 0.06872056 0.00693420
v 0.10898706 0.06872056 0.00693420
v 0.10898706 0.06872056 0.00693420
v 0.10898706 0.06872056 0.00693420
v 0.10898706 0.06872056 0.00693420
v 0.10898706 0.06872056 0.00693420
v 0.12948411 0.06842293 0.00528866
v 0.12948411 0.06842293 0.00528866
v 0.12948411 0.06842293 0.00528866
v 0.12948411 0.06842293 0.00528866
v 0.12948411 0.06842293 0.00528866
v 0.12948411 0.06842293 0.00528866
v 0.12948411 0.06842293 0.00528866
v 0.12948411 0.06842293 0.00528866
v 0.12948411 0.06842293 0.00528866
v 0.12948411 0.06842293 0.00528866
v 0.12948411 0.06842293 0.00528866
v 0.12954655 0.06872056 0.00561256
v 0.12954655 0.06872056 0.00561256
v 0.12954655 0.06872056 0.00561256
v 0.12954655 0.06872056 0.00561256
v 0.13092569 -0.04307931 0.00407497
v 0.13092569 -0.04307931 0.00407497
v 0.13092569 -0.04307931 0.00407497
v 0.13092569 -0.04307931 0.00407497
v 0.13092569 -0.04307931 0.00407497
v 0.12746225 -0.06843180 0.00223025
v 0.12746225 -0.06843180 0.00223025
v 0.12746225 -0.06843180 0.00223025
v 0.12746225 -0.06843180 0.00223025
v 0.12746225 -0.06843180 0.00223025
v 0.12746225 -0.06843180 0.00223025
v 0.12746225 -0.06843180 0.00223025
v 0.12746225 -0.06843180 0.00223025
v 0.12746225 -0.06843180 0.00223025
v 0.12746225 -0.06843180 0.00223025
v 0.12746225 -0.06843180 0.00223025
v 0.12821426 -0.04815251 0.00201432
v 0.12821426 -0.04815251 0.00201432
v 0.12821426 -0.04815251 0.00201432
v 0.12821426 -0.04815251 0.00201432
v 0.12821426 -0.04815251 0.00201432
v 0.12419136 -0.06334507 0.00085648
v 0.12419136 -0.06334507 0.00085648
v 0.12419136 -0.06334507 0.00085648
v 0.12419136 -0.06334507 0.00085648
v 0.12419136 -0.06334507 0.00085648
v 0.12419136 -0.06334507 0.00085648
v 0.12419136 -0.06334507 0.00085648
v 0.12419136 -0.04815251 0.00059587
v 0.12419136 -0.04815251 0.00059587
v 0.12419136 -0.04815251 0.00059587
v 0.12419136 -0.04815251 0.00059587
v 0.12419136 -0.04815251 0.00059587
v 0.12419136 -0.04815251 0.00059587
v 0.12419136 -0.04815251 0.00059587
v 0.11912499 -0.04815251 -0.00078721
v 0.11912499 -0.04815251 -0.00078721
v 0.11912499 -0.04815251 -0.00078721
v 0.11912499 -0.04815251 -0.00078721
v 0.11912499 -0.04815251 -0.00078721
v 0.11912499 -0.04815251 -0.00078721
v 0.11912499 -0.04307931 -0.00082816
v 0.11912499 -0.04307931 -0.00082816
v 0.11912499 -0.04307931 -0.00082816
v 0.11912499 -0.04307931 -0.00082816
v 0.11912499 -0.04307931 -0.00082816
v 0.11912499 -0.04307931 -0.00082816
v 0.11912499 -0.03800611 -0.00083560
v 0.11912499 -0.03800611 -0.00083560
v 0.11912499 -0.03800611 -0.00083560
v 0.11912499 -0.03800611 -0.00083560
v 0.11912499 -0.03800611 -0.00083560
v 0.11912499 -0.03800611 -0.00083560
v 0.11912499 -0.03800611 -0.00083560
v 0.11912499 -0.03800611 -0.00083560
v 0.11912499 -0.02787323 -0.00083747
v 0.11912499 -0.02787323 -0.00083747
v 0.11912499 -0.02787323 -0.00083747
v 0.11912499 -0.02787323 -0.00083747
v 0.11912499 0.01267181 -0.00084119
v 0.11912499 0.01267181 -0.00084119
v 0.11912499 0.01267181 -0.00084119
v 0.11912499 0.01267181 -0.00084119
v 0.11912499 0.02787789 -0.00084119
v 0.11912499 0.02787789 -0.00084119
v 0.11912499 0.02787789 -0.00084119
v 0.11912499 0.02787789 -0.00084119
v 0.11912499 0.03801077 -0.00083933
v 0.11912499 0.03801077 -0.00083933
v 0.11912499 0.03801077 -0.00083933
v 0.11912499 0.03801077 -0.00083933
v 0.11912499 0.03801077 -0.00083933
v 0.11912499 0.03801077 -0.00083933
v 0.11912499 0.03801077 -0.00083933
v 0.13523743 -0.04307931 0.01634398
v 0.13523743 -0.04307931 0.01634398
v 0.13523743 -0.04307931 0.01634398
v 0.13501885 -0.04815251 0.01634398
v 0.13501885 -0.04815251 0.01634398
v 0.13501885 -0.04815251 0.01634398
v 0.13501885 -0.04815251 0.01634398
v 0.13203941 -0.04815251 0.00701797
v 0.13203941 -0.04815251 0.00701797
v 0.13203941 -0.04815251 0.00701797
v 0.13203941 -0.04815251 0.00701797
v 0.13203941 -0.04815251 0.00701797
v 0.13203941 -0.04815251 0.00701797
v 0.13203941 -0.04815251 0.00701797
v 0.13203941 -0.04815251 0.00701797
v 0.13203941 -0.04815251 0.00701797
v 0.11912499 0.04308397 -0.00083188
v 0.11912499 0.04308397 -0.00083188
v 0.11912499 0.04308397 -0.00083188
v 0.11912499 0.04308397 -0.00083188
v 0.11912499 0.04308397 -0.00083188
v 0.11912499 0.04308397 -0.00083188
v 0.11912499 0.04308397 -0.00083188
v 0.11912499 0.04814365 -0.00079093
v 0.11912499 0.04814365 -0.00079093
v 0.11912499 0.04814365 -0.00079093
v 0.11912499 0.04814365 -0.00079093
v 0.11912499 0.04814365 -0.00079093
v 0.11912499 0.04814365 -0.00079093
v 0.11912499 0.05321685 -0.00072578
v 0.11912499 0.05321685 -0.00072578
v 0.11912499 0.05321685 -0.00072578
v 0.11912499 0.05321685 -0.00072578
v 0.11912499 0.05827652 -0.00065504
v 0.11912499 0.05827652 -0.00065504
v 0.11912499 0.05827652 -0.00065504
v 0.11912499 0.05827652 -0.00065504
v 0.11912499 0.06334972 -0.00057314
v 0.11912499 0.06334972 -0.00057314
v 0.11912499 0.06334972 -0.00057314
v 0.11912499 0.06334972 -0.00057314
v 0.11912499 0.06334972 -0.00057314
v 0.11912499 0.06334972 -0.00057314
v 0.12419136 0.06842293 0.00104076
v 0.12419136 0.06842293 0.00104076
v 0.12419136 0.06842293 0.00104076
v 0.12419136 0.06842293 0.00104076
v 0.12419136 0.06842293 0.00104076
v 0.12419136 0.06842293 0.00104076
v 0.12419136 0.06842293 0.00104076
v 0.12419136 0.06842293 0.00104076
v 0.12419136 0.06842293 0.00104076
v 0.12419136 0.06842293 0.00104076
v 0.12762618 0.06334972 0.00216324
v 0.12762618 0.06334972 0.00216324
v 0.12762618 0.06334972 0.00216324
v 0.12744143 0.06872056 0.00224514
v 0.12744143 0.06872056 0.00224514
v 0.12744143 0.06872056 0.00224514
v 0.12744143 0.06872056 0.00224514
v 0.12744143 0.06872056 0.00224514
v 0.10972867 -0.06948703 -0.00205673
v 0.10972867 -0.06948703 -0.00205673
v 0.10972867 -0.06948703 -0.00205673
v 0.10972867 -0.06948703 -0.00205673
v 0.10972867 -0.06948703 -0.00205673
v 0.10972867 -0.06948703 -0.00205673
v 0.10897405 -0.00000444 0.00601650
v 0.10897405 -0.00000444 0.00601650
v 0.10897405 -0.00000444 0.00601650
v 0.10897405 -0.00000444 0.00601650
v 0.10897405 -0.00000444 0.00601650
v 0.13150856 -0.06948703 0.01057339
v 0.13150856 -0.06948703 0.01057339
v 0.13150856 -0.06948703 0.01057339
v 0.13150856 -0.06948703 0.01057339
v 0.13127697 -0.06843180 0.00946023
v 0.13127697 -0.06843180 0.00946023
v 0.13127697 -0.06843180 0.00946023
v 0.13127697 -0.06843180 0.00946023
v 0.13127697 -0.06843180 0.00946023
v 0.13393116 -0.06843180 0.01634398
v 0.13393116 -0.06843180 0.01634398
v 0.13393116 -0.06843180 0.01634398
v 0.13393116 -0.06843180 0.01634398
v 0.13393116 -0.06843180 0.01634398
v 0.13393116 -0.06843180 0.01634398
v 0.13393116 -0.06843180 0.01634398
v 0.13393116 -0.06843180 0.01634398
v 0.10897405 0.06872056 0.00641299
v 0.10897405 0.06872056 0.00641299
v 0.10897405 0.06872056 0.00641299
v 0.10897405 0.06842293 0.00686905
v 0.10897405 0.06842293 0.00686905
v 0.10897405 0.06842293 0.00686905
v 0.12940344 0.06872056 0.00528121
v 0.12940344 0.06872056 0.00528121
v 0.12940344 0.06872056 0.00528121
v 0.12940344 0.06872056 0.00528121
v 0.13074874 -0.04815251 0.00448636
v 0.13074874 -0.04815251 0.00448636
v 0.13074874 -0.04815251 0.00448636
v 0.13074874 -0.04815251 0.00448636
v 0.12419136 -0.06843180 0.00104449
v 0.12419136 -0.06843180 0.00104449
v 0.12419136 -0.06843180 0.00104449
v 0.12419136 -0.06843180 0.00104449
v 0.12419136 -0.06843180 0.00104449
v 0.12419136 -0.06843180 0.00104449
v 0.12419136 -0.06843180 0.00104449
v 0.12419136 -0.06843180 0.00104449
v 0.12419136 -0.06843180 0.00104449
v 0.12762879 -0.06334507 0.00216324
v 0.12762879 -0.06334507 0.00216324
v 0.12762879 -0.06334507 0.00216324
v 0.12947890 -0.06843180 0.00528866
v 0.12947890 -0.06843180 0.00528866
v 0.12947890 -0.06843180 0.00528866
v 0.12947890 -0.06843180 0.00528866
v 0.12947890 -0.06843180 0.00528866
v 0.12947890 -0.06843180 0.00528866
v 0.12947890 -0.06843180 0.00528866
v 0.12947890 -0.06843180 0.00528866
v 0.12947890 -0.06843180 0.00528866
v 0.12947890 -0.06843180 0.00528866
v 0.12947890 -0.06843180 0.00528866
v 0.12878673 -0.06948703 0.00443796
v 0.12878673 -0.06948703 0.00443796
v 0.12878673 -0.06948703 0.00443796
v 0.12878673 -0.06948703 0.00443796
v 0.12736857 -0.06948703 0.00229168
v 0.12736857 -0.06948703 0.00229168
v 0.12736857 -0.06948703 0.00229168
v 0.12507349 -0.06948703 0.00145960
v 0.12507349 -0.06948703 0.00145960
v 0.12507349 -0.06948703 0.00145960
v 0.12507349 -0.06948703 0.00145960
v 0.11912499 -0.06334507 -0.00057500
v 0.11912499 -0.06334507 -0.00057500
v 0.11912499 -0.06334507 -0.00057500
v 0.11912499 -0.06334507 -0.00057500
v 0.11912499 -0.06334507 -0.00057500
v 0.11912499 -0.06334507 -0.00057500
v 0.11912499 -0.05828540 -0.00065318
v 0.11912499 -0.05828540 -0.00065318
v 0.11912499 -0.05828540 -0.00065318
v 0.11912499 -0.05828540 -0.00065318
v 0.11912499 -0.05321219 -0.00072392
v 0.11912499 -0.05321219 -0.00072392
v 0.11912499 -0.05321219 -0.00072392
v 0.11912499 -0.05321219 -0.00072392
v 0.11476641 -0.05828540 -0.00184453
v 0.11476641 -0.05828540 -0.00184453
v 0.11476641 -0.05828540 -0.00184453
v 0.11476641 -0.05828540 -0.00184453
v 0.11476641 -0.05828540 -0.00184453
v 0.11476641 -0.05828540 -0.00184453
v 0.11476641 -0.05828540 -0.00184453
v 0.11482886 -0.05321219 -0.00187803
v 0.11482886 -0.05321219 -0.00187803
v 0.11482886 -0.05321219 -0.00187803
v 0.11482886 -0.05321219 -0.00187803
v 0.11482886 -0.05321219 -0.00187803
v 0.11486789 -0.04307931 -0.00192085
v 0.11486789 -0.04307931 -0.00192085
v 0.11486789 -0.04307931 -0.00192085
v 0.11486789 -0.04307931 -0.00192085
v 0.11486789 -0.04307931 -0.00192085
v 0.11485488 -0.04815251 -0.00190409
v 0.11485488 -0.04815251 -0.00190409
v 0.11485488 -0.04815251 -0.00190409
v 0.11485488 -0.04815251 -0.00190409
v 0.11485488 -0.04815251 -0.00190409
v 0.11487309 -0.03800611 -0.00192457
v 0.11487309 -0.03800611 -0.00192457
v 0.11487309 -0.03800611 -0.00192457
v 0.11487309 -0.03800611 -0.00192457
v 0.11487309 -0.03800611 -0.00192457
v 0.11490172 -0.02787323 -0.00192457
v 0.11490172 -0.02787323 -0.00192457
v 0.11490172 -0.02787323 -0.00192457
v 0.11490172 -0.02787323 -0.00192457
v 0.11489912 -0.02281356 -0.00192643
v 0.11489912 -0.02281356 -0.00192643
v 0.11489912 -0.02281356 -0.00192643
v 0.11489912 -0.02281356 -0.00192643
v 0.11489912 -0.02281356 -0.00192643
v 0.11489912 -0.02281356 -0.00192643
v 0.11490172 0.00759861 -0.00192829
v 0.11490172 0.00759861 -0.00192829
v 0.11490172 0.00759861 -0.00192829
v 0.11490172 0.00759861 -0.00192829
v 0.11490172 0.00759861 -0.00192829
v 0.11490432 -0.00759395 -0.00192643
v 0.11490432 -0.00759395 -0.00192643
v 0.11490172 0.01267181 -0.00192829
v 0.11490172 0.01267181 -0.00192829
v 0.11490172 0.01267181 -0.00192829
v 0.11490172 0.01267181 -0.00192829
v 0.11490172 0.01267181 -0.00192829
v 0.11485749 0.04308397 -0.00192271
v 0.11485749 0.04308397 -0.00192271
v 0.11485749 0.04308397 -0.00192271
v 0.11485749 0.04308397 -0.00192271
v 0.11485749 0.04308397 -0.00192271
v 0.11488351 0.02787789 -0.00192829
v 0.11488351 0.02787789 -0.00192829
v 0.11488351 0.02787789 -0.00192829
v 0.11488351 0.02787789 -0.00192829
v 0.11488351 0.02787789 -0.00192829
v 0.13476125 -0.05321219 0.01634398
v 0.13476125 -0.05321219 0.01634398
v 0.13476125 -0.05321219 0.01634398
v 0.13423562 -0.06334507 0.01634398
v 0.13423562 -0.06334507 0.01634398
v 0.13423562 -0.06334507 0.01634398
v 0.13190150 -0.05226519 0.00746287
v 0.13190150 -0.05226519 0.00746287
v 0.13190150 -0.05226519 0.00746287
v 0.13190150 -0.05226519 0.00746287
v 0.11485228 0.04814365 -0.00190595
v 0.11485228 0.04814365 -0.00190595
v 0.11485228 0.04814365 -0.00190595
v 0.11485228 0.04814365 -0.00190595
v 0.11485228 0.04814365 -0.00190595
v 0.11483146 0.05321685 -0.00187803
v 0.11483146 0.05321685 -0.00187803
v 0.11483146 0.05321685 -0.00187803
v 0.11483146 0.05321685 -0.00187803
v 0.11483146 0.05321685 -0.00187803
v 0.11477683 0.05827652 -0.00184453
v 0.11477683 0.05827652 -0.00184453
v 0.11477683 0.05827652 -0.00184453
v 0.11477683 0.05827652 -0.00184453
v 0.11477683 0.05827652 -0.00184453
v 0.11477683 0.05827652 -0.00184453
v 0.11477683 0.05827652 -0.00184453
v 0.11477683 0.05827652 -0.00184453
v 0.11458947 0.06334972 -0.00179799
v 0.11458947 0.06334972 -0.00179799
v 0.11458947 0.06334972 -0.00179799
v 0.11458947 0.06334972 -0.00179799
v 0.11458947 0.06334972 -0.00179799
v 0.11178175 0.06636659 -0.00237877
v 0.11178175 0.06636659 -0.00237877
v 0.11178175 0.06636659 -0.00237877
v 0.11178175 0.06636659 -0.00237877
v 0.11178175 0.06636659 -0.00237877
v 0.11178175 0.06636659 -0.00237877
v 0.11178175 0.06636659 -0.00237877
v 0.11178175 0.06636659 -0.00237877
v 0.11178175 0.06636659 -0.00237877
v 0.11178175 0.06636659 -0.00237877
v 0.11178175 0.06636659 -0.00237877
v 0.11912499 0.06842293 -0.00028461
v 0.11912499 0.06842293 -0.00028461
v 0.11912499 0.06842293 -0.00028461
v 0.11912499 0.06872056 -0.00024924
v 0.11912499 0.06872056 -0.00024924
v 0.11912499 0.06872056 -0.00024924
v 0.11912499 0.06872056 -0.00024924
v 0.11912499 0.06872056 -0.00024924
v 0.11912499 0.06872056 -0.00024924
v 0.12390252 0.06872056 0.00100168
v 0.12390252 0.06872056 0.00100168
v 0.12390252 0.06872056 0.00100168
v 0.12420176 0.06872056 0.00108544
v 0.12420176 0.06872056 0.00108544
v 0.12420176 0.06872056 0.00108544
v 0.10897405 -0.00000444 -0.00263007
v 0.10897405 -0.00000444 -0.00263007
v 0.10897405 -0.00000444 -0.00263007
v 0.10897405 0.00000909 -0.00267102
v 0.10897405 0.00000909 -0.00267102
v 0.10897405 0.00000909 -0.00267102
v 0.10897405 0.00000909 -0.00267102
v 0.10897405 0.00000909 -0.00267102
v 0.10897405 0.00000909 -0.00267102
v 0.10897405 0.00000909 -0.00267102
v 0.10897405 0.00000909 -0.00267102
v 0.10897405 0.00000909 -0.00267102
v 0.10897405 0.00000909 -0.00267102
v 0.10897405 0.00000909 -0.00267102
v 0.10897405 0.00000909 -0.00267102
v 0.10972867 -0.06941938 -0.00206790
v 0.10972867 -0.06941938 -0.00206790
v 0.10972867 -0.06941938 -0.00206790
v 0.10972867 -0.06941938 -0.00206790
v 0.11179738 -0.06640252 -0.00238063
v 0.11179738 -0.06640252 -0.00238063
v 0.11179738 -0.06640252 -0.00238063
v 0.11179738 -0.06640252 -0.00238063
v 0.11179738 -0.06640252 -0.00238063
v 0.11179738 -0.06640252 -0.00238063
v 0.11179738 -0.06640252 -0.00238063
v 0.11179738 -0.06640252 -0.00238063
v 0.11179738 -0.06640252 -0.00238063
v 0.11179738 -0.06640252 -0.00238063
v 0.11179738 -0.06640252 -0.00238063
v 0.10979112 -0.06948703 -0.00204743
v 0.10979112 -0.06948703 -0.00204743
v 0.10979112 -0.06948703 -0.00204743
v 0.12918746 -0.06948703 0.00525701
v 0.12918746 -0.06948703 0.00525701
v 0.12918746 -0.06948703 0.00525701
v 0.13148515 -0.06334507 0.00878824
v 0.13148515 -0.06334507 0.00878824
v 0.13148515 -0.06334507 0.00878824
v 0.13148515 -0.06334507 0.00878824
v 0.13168031 -0.05828540 0.00815906
v 0.13168031 -0.05828540 0.00815906
v 0.13168031 -0.05828540 0.00815906
v 0.13168031 -0.05828540 0.00815906
v 0.13178699 -0.05564733 0.00784447
v 0.13178699 -0.05564733 0.00784447
v 0.13178699 -0.05564733 0.00784447
v 0.13178699 -0.05564733 0.00784447
v 0.10897405 0.06872056 0.00468182
v 0.10897405 0.06872056 0.00468182
v 0.10897405 0.06872056 0.00468182
v 0.12422779 -0.06948703 0.00120830
v 0.12422779 -0.06948703 0.00120830
v 0.12422779 -0.06948703 0.00120830
v 0.11912499 -0.06948703 -0.00015803
v 0.11912499 -0.06948703 -0.00015803
v 0.11912499 -0.06948703 -0.00015803
v 0.11912499 -0.06948703 -0.00015803
v 0.11912499 -0.06843180 -0.00029019
v 0.11912499 -0.06843180 -0.00029019
v 0.11912499 -0.06843180 -0.00029019
v 0.11912499 -0.06843180 -0.00029019
v 0.11912499 -0.06843180 -0.00029019
v 0.11459727 -0.06334507 -0.00180357
v 0.11459727 -0.06334507 -0.00180357
v 0.11459727 -0.06334507 -0.00180357
v 0.11459727 -0.06334507 -0.00180357
v 0.11459727 -0.06334507 -0.00180357
v 0.11459727 -0.06334507 -0.00180357
v 0.11223193 -0.05828540 -0.00249046
v 0.11223193 -0.05828540 -0.00249046
v 0.11223193 -0.05828540 -0.00249046
v 0.11223193 -0.05828540 -0.00249046
v 0.11223193 -0.05828540 -0.00249046
v 0.11223193 -0.05828540 -0.00249046
v 0.11223193 -0.05828540 -0.00249046
v 0.11223193 -0.05828540 -0.00249046
v 0.11229698 -0.05321219 -0.00249790
v 0.11229698 -0.05321219 -0.00249790
v 0.11229698 -0.05321219 -0.00249790
v 0.11229698 -0.05321219 -0.00249790
v 0.11229698 -0.05321219 -0.00249790
v 0.11229698 -0.05321219 -0.00249790
v 0.11229698 -0.05321219 -0.00249790
v 0.11236723 -0.02787323 -0.00250163
v 0.11236723 -0.02787323 -0.00250163
v 0.11236723 -0.02787323 -0.00250163
v 0.11236723 -0.02787323 -0.00250163
v 0.11236723 -0.02787323 -0.00250163
v 0.11236723 -0.02787323 -0.00250163
v 0.11236723 -0.02787323 -0.00250163
v 0.11236723 -0.02787323 -0.00250163
v 0.11236984 0.00759861 -0.00250163
v 0.11236984 0.00759861 -0.00250163
v 0.11236984 0.01267181 -0.00250163
v 0.11236984 0.01267181 -0.00250163
v 0.11236984 0.01267181 -0.00250163
v 0.11236984 0.01267181 -0.00250163
v 0.11236984 0.01267181 -0.00250163
v 0.11236984 0.01267181 -0.00250163
v 0.11236984 0.01267181 -0.00250163
v 0.11229698 0.05321685 -0.00249977
v 0.11229698 0.05321685 -0.00249977
v 0.11229698 0.05321685 -0.00249977
v 0.11229698 0.05321685 -0.00249977
v 0.11229698 0.05321685 -0.00249977
v 0.11229698 0.05321685 -0.00249977
v 0.11229698 0.05321685 -0.00249977
v 0.11224234 0.05827652 -0.00249418
v 0.11224234 0.05827652 -0.00249418
v 0.11224234 0.05827652 -0.00249418
v 0.11224234 0.05827652 -0.00249418
v 0.11224234 0.05827652 -0.00249418
v 0.11224234 0.05827652 -0.00249418
v 0.11224234 0.05827652 -0.00249418
v 0.11205498 0.06334972 -0.00244951
v 0.11205498 0.06334972 -0.00244951
v 0.11205498 0.06334972 -0.00244951
v 0.11205498 0.06334972 -0.00244951
v 0.11205498 0.06334972 -0.00244951
v 0.10897405 0.06336326 -0.00261890
v 0.10897405 0.06336326 -0.00261890
v 0.10897405 0.06336326 -0.00261890
v 0.10897405 0.06336326 -0.00261890
v 0.10897405 0.06336326 -0.00261890
v 0.10897405 0.06707007 -0.00244951
v 0.10897405 0.06707007 -0.00244951
v 0.10897405 0.06707007 -0.00244951
v 0.10897405 0.06707007 -0.00244951
v 0.10897405 0.06707007 -0.00244951
v 0.10975469 0.06872056 -0.00220379
v 0.10975469 0.06872056 -0.00220379
v 0.10975469 0.06872056 -0.00220379
v 0.10975469 0.06872056 -0.00220379
v 0.11373857 0.06872056 -0.00157647
v 0.11373857 0.06872056 -0.00157647
v 0.11373857 0.06872056 -0.00157647
v 0.11373857 0.06872056 -0.00157647
v 0.11370474 0.06820647 -0.00166955
v 0.11370474 0.06820647 -0.00166955
v 0.11370474 0.06820647 -0.00166955
v 0.10898706 0.06334972 -0.00261890
v 0.10898706 0.06334972 -0.00261890
v 0.10898706 0.06334972 -0.00261890
v 0.10898706 0.06334972 -0.00261890
v 0.10898706 0.06334972 -0.00261890
v 0.10897405 0.00761213 -0.00267102
v 0.10897405 0.00761213 -0.00267102
v 0.10897405 0.00761213 -0.00267102
v 0.10898706 0.00759861 -0.00267288
v 0.10898706 0.00759861 -0.00267288
v 0.10898706 0.00759861 -0.00267288
v 0.10898706 0.00759861 -0.00267288
v 0.10898706 0.00759861 -0.00267288
v 0.10898706 0.00759861 -0.00267288
v 0.10898706 0.00759861 -0.00267288
v 0.10898706 0.00759861 -0.00267288
v 0.10898706 -0.00000444 -0.00267102
v 0.10898706 -0.00000444 -0.00267102
v 0.10898706 -0.00000444 -0.00267102
v 0.10972867 -0.05321219 -0.00263379
v 0.10972867 -0.05321219 -0.00263379
v 0.10972867 -0.05321219 -0.00263379
v 0.10972867 -0.05321219 -0.00263379
v 0.10972867 -0.05321219 -0.00263379
v 0.10972867 -0.05321219 -0.00263379
v 0.10972867 -0.05321219 -0.00263379
v 0.10972867 -0.05828540 -0.00262635
v 0.10972867 -0.05828540 -0.00262635
v 0.10972867 -0.05828540 -0.00262635
v 0.10972867 -0.05828540 -0.00262635
v 0.10972867 -0.05828540 -0.00262635
v 0.10972867 -0.06334507 -0.00258726
v 0.10972867 -0.06334507 -0.00258726
v 0.10972867 -0.06334507 -0.00258726
v 0.10972867 -0.06334507 -0.00258726
v 0.10972867 -0.06334507 -0.00258726
v 0.10972867 -0.06415678 -0.00256492
v 0.10972867 -0.06415678 -0.00256492
v 0.10972867 -0.06415678 -0.00256492
v 0.10972867 -0.06415678 -0.00256492
v 0.10972867 -0.06691661 -0.00243834
v 0.10972867 -0.06691661 -0.00243834
v 0.10972867 -0.06691661 -0.00243834
v 0.10972867 -0.06691661 -0.00243834
v 0.11371515 -0.06821534 -0.00167885
v 0.11371515 -0.06821534 -0.00167885
v 0.11371515 -0.06821534 -0.00167885
v 0.11371515 -0.06821534 -0.00167885
v 0.11379582 -0.06948703 -0.00144245
v 0.11379582 -0.06948703 -0.00144245
v 0.11379582 -0.06948703 -0.00144245
v 0.11379582 -0.06948703 -0.00144245
v 0.11206018 -0.06334507 -0.00244951
v 0.11206018 -0.06334507 -0.00244951
v 0.11206018 -0.06334507 -0.00244951
v 0.11206018 -0.06334507 -0.00244951
v 0.10898185 0.06872056 -0.00224660
v 0.10898185 0.06872056 -0.00224660
v 0.10898185 0.06872056 -0.00224660
v 0.11500320 -0.06948703 -0.00119673
v 0.11500320 -0.06948703 -0.00119673
v 0.11500320 -0.06948703 -0.00119673
v 0.11500320 -0.06948703 -0.00119673
v 0.10972867 -0.02787323 -0.00263565
v 0.10972867 -0.02787323 -0.00263565
v 0.10972867 -0.02787323 -0.00263565
v 0.10972867 -0.02787323 -0.00263565
v 0.10898706 0.05321685 -0.00266730
v 0.10898706 0.05321685 -0.00266730
v 0.10898706 0.05321685 -0.00266730
v 0.10898706 0.05321685 -0.00266730
v 0.10898706 0.05321685 -0.00266730
v 0.10898706 0.05827652 -0.00266171
v 0.10898706 0.05827652 -0.00266171
v 0.10898706 0.05827652 -0.00266171
v 0.10898706 0.05827652 -0.00266171
v 0.10898706 0.05827652 -0.00266171
v 0.10898706 0.05827652 -0.00266171
v 0.10897405 0.05829006 -0.00266171
v 0.10897405 0.05829006 -0.00266171
v 0.10897405 0.05829006 -0.00266171
v 0.10897405 0.05323038 -0.00266730
v 0.10897405 0.05323038 -0.00266730
v 0.10897405 0.05323038 -0.00266730
v 0.10897405 0.05323038 -0.00266730
f 4 12 54
f 2 53 134
f 2 134 282
f 2 282 435
f 2 435 614
f 2 614 746
f 2 746 743
f 2 743 536
f 2 536 533
f 2 533 375
f 2 375 372
f 1 371 229
f 2 230 95
f 3 96 74
f 2 73 16
f 10 17 24
f 9 23 31
f 8 30 35
f 7 34 40
f 11 41 44
f 6 43 49
f 5 48 15
f 14 47 70
f 13 69 67
f 18 75 25
f 19 82 86
f 21 87 92
f 22 93 28
f 26 76 97
f 27 98 103
f 20 102 83
f 29 94 32
f 32 94 111
f 33 112 39
f 36 115 122
f 38 124 126
f 42 127 45
f 37 110 116
f 46 128 50
f 51 129 71
f 66 68 136
f 65 135 141
f 64 140 145
f 63 144 150
f 62 149 154
f 61 153 158
f 60 157 162
f 59 161 166
f 58 165 170
f 57 169 175
f 56 174 179
f 55 178 189
f 52 188 286
f 52 286 133
f 72 131 138
f 81 101 197
f 80 192 201
f 79 200 206
f 78 205 213
f 77 212 85
f 84 211 91
f 90 210 217
f 88 216 221
f 88 221 226
f 89 228 107
f 99 231 104
f 105 232 237
f 100 236 196
f 106 227 243
f 108 244 249
f 109 250 113
f 114 252 118
f 117 251 255
f 119 256 261
f 120 262 264
f 121 270 272
f 123 273 125
f 130 274 137
f 132 284 280
f 139 276 142
f 143 277 148
f 146 275 294
f 147 295 151
f 152 297 156
f 155 296 160
f 159 293 164
f 163 292 168
f 167 291 173
f 172 290 304
f 171 303 177
f 176 302 185
f 184 301 308
f 183 307 312
f 182 311 316
f 181 315 321
f 180 320 191
f 186 322 455
f 187 456 629
f 186 628 589
f 186 589 799
f 186 799 796
f 186 796 790
f 186 790 936
f 186 936 932
f 186 932 1000
f 186 1000 852
f 186 852 624
f 186 624 443
f 186 443 285
f 190 318 325
f 195 235 332
f 194 326 338
f 193 337 202
f 199 333 346
f 198 345 204
f 203 344 209
f 208 343 353
f 207 352 215
f 214 351 220
f 219 350 358
f 218 357 223
f 222 356 362
f 224 363 367
f 225 368 241
f 233 373 238
f 240 374 377
f 239 376 383
f 234 381 331
f 242 370 246
f 245 369 389
f 247 390 394
f 248 395 253
f 254 397 258
f 257 396 403
f 259 404 407
f 260 409 412
f 263 415 265
f 266 416 421
f 267 422 425
f 268 429 288
f 269 289 271
f 281 433 597
f 281 597 832
f 281 832 991
f 281 991 1002
f 281 1002 856
f 281 856 853
f 281 853 666
f 281 666 663
f 281 663 659
f 281 659 835
f 281 835 605
f 281 605 434
f 279 283 442
f 278 441 432
f 287 428 299
f 300 451 305
f 298 427 447
f 306 452 309
f 310 453 313
f 314 454 319
f 317 450 324
f 323 449 458
f 330 380 463
f 329 459 470
f 328 469 479
f 327 478 339
f 336 475 483
f 335 482 493
f 334 492 347
f 342 487 498
f 341 496 505
f 340 504 513
f 340 513 349
f 348 512 355
f 354 511 517
f 354 517 361
f 359 520 525
f 359 525 366
f 360 516 521
f 364 524 530
f 365 532 387
f 378 535 385
f 384 534 539
f 382 537 547
f 379 542 462
f 386 531 553
f 388 555 392
f 391 554 558
f 393 561 399
f 398 560 564
f 400 565 568
f 401 569 573
f 402 575 406
f 405 574 582
f 408 585 418
f 410 419 586
f 411 587 413
f 414 588 420
f 417 584 591
f 423 593 445
f 424 446 426
f 431 440 604
f 430 602 804
f 430 804 595
f 436 608 611
f 437 612 615
f 438 623 626
f 439 627 603
f 444 592 630
f 448 631 457
f 461 541 635
f 460 632 473
f 466 644 484
f 467 485 645
f 468 647 477
f 474 633 649
f 472 648 661
f 471 660 665
f 465 664 669
f 464 668 643
f 476 646 486
f 481 675 491
f 480 641 674
f 490 673 679
f 489 678 683
f 488 681 499
f 497 680 688
f 495 686 695
f 494 694 503
f 500 699 508
f 502 693 705
f 501 704 700
f 507 698 710
f 506 709 713
f 509 714 718
f 510 719 514
f 515 720 519
f 518 724 732
f 518 732 523
f 519 720 727
f 519 727 725
f 522 731 529
f 527 737 550
f 528 730 742
f 526 741 735
f 538 745 548
f 546 744 748
f 545 747 621
f 544 620 752
f 543 749 654
f 540 651 634
f 549 736 756
f 551 757 760
f 552 761 556
f 557 762 766
f 559 768 562
f 563 769 566
f 567 770 572
f 570 774 580
f 571 767 775
f 578 785 789
f 576 788 794
f 577 795 797
f 581 798 800
f 583 801 590
f 579 773 786
f 594 803 807
f 596 808 817
f 598 820 824
f 599 825 833
f 601 625 622
f 601 622 851
f 601 851 928
f 601 928 922
f 601 922 1021
f 601 1021 1024
f 601 1024 948
f 601 948 806
f 600 805 802
f 606 837 652
f 607 653 609
f 610 658 839
f 613 840 616
f 617 841 844
f 618 845 848
f 619 849 751
f 642 667 855
f 638 854 859
f 636 858 863
f 637 864 830
f 639 831 868
f 640 869 670
f 650 836 662
f 655 750 846
f 656 847 842
f 657 843 838
f 671 870 687
f 672 690 677
f 676 689 682
f 685 878 692
f 684 867 877
f 691 875 703
f 697 701 884
f 696 883 708
f 702 874 885
f 706 882 890
f 707 893 712
f 711 892 716
f 715 891 722
f 717 723 726
f 721 895 902
f 721 902 729
f 721 889 895
f 728 901 739
f 733 740 907
f 734 908 753
f 738 900 906
f 754 909 913
f 755 914 758
f 759 915 763
f 764 916 919
f 765 921 772
f 771 920 784
f 776 925 929
f 779 931 934
f 780 935 937
f 781 938 940
f 782 942 792
f 783 793 787
f 778 918 947
f 777 944 926
f 791 941 939
f 813 950 952
f 816 953 960
f 815 959 963
f 814 962 970
f 812 969 975
f 811 974 980
f 810 979 984
f 809 983 818
f 819 986 823
f 828 861 990
f 827 987 993
f 826 992 834
f 821 985 981
f 822 982 996
f 829 997 865
f 850 999 927
f 857 1005 862
f 860 1004 989
f 866 998 876
f 871 972 881
f 873 995 977
f 872 976 973
f 879 967 888
f 880 971 968
f 887 966 1009
f 886 1008 894
f 894 1008 899
f 897 1007 958
f 896 957 1012
f 898 1014 904
f 903 1013 1018
f 905 1019 910
f 911 1020 945
f 912 946 917
f 924 943 1017
f 923 1016 1023
f 930 1001 933
f 949 1025 951
f 954 1026 1010
f 956 1006 965
f 955 964 961
f 978 996 982
f 988 1003 994
f 1011 1027 1022
f 1011 1022 1015

