# https://github.com/mikedh/trimesh
v -0.13903914 -0.07118857 0.02172747
v -0.13903914 -0.07118857 0.02172747
v -0.13903914 -0.07118857 0.02172747
v -0.13903914 -0.07118857 0.02172747
v -0.13903914 -0.07118857 0.02172747
v -0.13837182 -0.07350299 0.02191281
v -0.13837182 -0.07350299 0.02191281
v -0.13837182 -0.07350299 0.02191281
v -0.13744692 -0.07708920 0.02242470
v -0.13744692 -0.07708920 0.02242470
v -0.13744692 -0.07708920 0.02242470
v -0.13744692 -0.07708920 0.02242470
v -0.13744692 -0.07708920 0.02242470
v -0.13744692 -0.07708920 0.02242470
v -0.13903914 -0.07118857 0.02530774
v -0.13903914 -0.07118857 0.02530774
v -0.13903914 -0.07118857 0.02530774
v -0.13903914 -0.07118857 0.02530774
v -0.13903914 -0.07118857 0.02530774
v -0.12721752 -0.07118857 0.00239339
v -0.12721752 -0.07118857 0.00239339
v -0.12721752 -0.07118857 0.00239339
v -0.12715020 -0.07194834 0.00244046
v -0.12715020 -0.07194834 0.00244046
v -0.12715020 -0.07194834 0.00244046
v -0.12715020 -0.07194834 0.00244046
v -0.12715020 -0.07194834 0.00244046
v -0.12715020 -0.07194834 0.00244046
v -0.12715020 -0.07194834 0.00244046
v -0.12715020 -0.07194834 0.00244046
v -0.12715020 -0.07194834 0.00244046
v -0.13187417 -0.08623952 0.02295129
v -0.13187417 -0.08623952 0.02295129
v -0.13187417 -0.08623952 0.02295129
v -0.13187417 -0.08623952 0.02295129
v -0.13187417 -0.08623952 0.02295129
v -0.13744692 -0.07708920 0.02418688
v -0.13744692 -0.07708920 0.02418688
v -0.13744692 -0.07708920 0.02418688
v -0.13744692 -0.07708920 0.02418688
v -0.13744692 -0.07708920 0.02418688
v -0.13744692 -0.07708920 0.02418688
v -0.13744692 -0.07708920 0.02418688
v -0.12619018 -0.07532810 0.00334951
v -0.12619018 -0.07532810 0.00334951
v -0.12619018 -0.07532810 0.00334951
v -0.12619018 -0.07532810 0.00334951
v -0.13837182 -0.07350299 0.02501649
v -0.13837182 -0.07350299 0.02501649
v -0.13837182 -0.07350299 0.02501649
v -0.13509957 -0.07350299 0.02755240
v -0.13509957 -0.07350299 0.02755240
v -0.13509957 -0.07350299 0.02755240
v -0.13509957 -0.07350299 0.02755240
v -0.13509957 -0.07350299 0.02755240
v -0.13509957 -0.07350299 0.02755240
v -0.13509957 -0.07350299 0.02755240
v -0.13555031 -0.07118857 0.02772009
v -0.13555031 -0.07118857 0.02772009
v -0.13555031 -0.07118857 0.02772009
v -0.13555031 -0.07118857 0.02772009
v -0.12429063 -0.07118857 0.00146376
v -0.12429063 -0.07118857 0.00146376
v -0.12429063 -0.07118857 0.00146376
v -0.12429063 -0.07118857 0.00146376
v -0.12437552 -0.07358351 0.00183444
v -0.12437552 -0.07358351 0.00183444
v -0.12437552 -0.07358351 0.00183444
v -0.12437552 -0.07358351 0.00183444
v -0.12437552 -0.07358351 0.00183444
v -0.12257256 -0.07857159 0.00235515
v -0.12257256 -0.07857159 0.00235515
v -0.12257256 -0.07857159 0.00235515
v -0.12257256 -0.07857159 0.00235515
v -0.12257256 -0.07857159 0.00235515
v -0.12172378 -0.08115440 0.00271112
v -0.12172378 -0.08115440 0.00271112
v -0.12172378 -0.08115440 0.00271112
v -0.12172378 -0.08115440 0.00271112
v -0.12172378 -0.08115440 0.00271112
v -0.12172378 -0.08115440 0.00271112
v -0.12172378 -0.08115440 0.00271112
v -0.12172378 -0.08115440 0.00271112
v -0.12172378 -0.08115440 0.00271112
v -0.12172378 -0.08115440 0.00271112
v -0.12231793 -0.09149393 0.02266887
v -0.12231793 -0.09149393 0.02266887
v -0.12231793 -0.09149393 0.02266887
v -0.12231793 -0.09149393 0.02266887
v -0.12231793 -0.09149393 0.02266887
v -0.12231793 -0.09149393 0.02266887
v -0.12231793 -0.09149393 0.02266887
v -0.12231793 -0.09149393 0.02266887
v -0.12231793 -0.09149393 0.02266887
v -0.13187417 -0.08623952 0.02320429
v -0.13187417 -0.08623952 0.02320429
v -0.13187417 -0.08623952 0.02320429
v -0.13187417 -0.08623952 0.02320429
v -0.13187417 -0.08623952 0.02320429
v -0.13187417 -0.08623952 0.02320429
v -0.13277272 -0.08363812 0.02428102
v -0.13277272 -0.08363812 0.02428102
v -0.13277272 -0.08363812 0.02428102
v -0.13277272 -0.08363812 0.02428102
v -0.13277272 -0.08363812 0.02428102
v -0.13418347 -0.07842707 0.02604615
v -0.13418347 -0.07842707 0.02604615
v -0.13418347 -0.07842707 0.02604615
v -0.13418347 -0.07842707 0.02604615
v -0.13084683 -0.07976287 0.02790249
v -0.13084683 -0.07976287 0.02790249
v -0.13084683 -0.07976287 0.02790249
v -0.13084683 -0.07976287 0.02790249
v -0.13084683 -0.07976287 0.02790249
v -0.13084683 -0.07976287 0.02790249
v -0.13084683 -0.07976287 0.02790249
v -0.13196783 -0.07638517 0.02812313
v -0.13196783 -0.07638517 0.02812313
v -0.13196783 -0.07638517 0.02812313
v -0.13196783 -0.07638517 0.02812313
v -0.13196783 -0.07638517 0.02812313
v -0.13196783 -0.07638517 0.02812313
v -0.13417469 -0.07118857 0.02807311
v -0.13417469 -0.07118857 0.02807311
v -0.13417469 -0.07118857 0.02807311
v -0.13417469 -0.07118857 0.02807311
v -0.12143986 -0.07118857 0.00065474
v -0.12143986 -0.07118857 0.00065474
v -0.12143986 -0.07118857 0.00065474
v -0.12143986 -0.07118857 0.00065474
v -0.11912471 -0.07350299 0.00033407
v -0.11912471 -0.07350299 0.00033407
v -0.11912471 -0.07350299 0.00033407
v -0.11912471 -0.07350299 0.00033407
v -0.11912471 -0.07350299 0.00033407
v -0.11912471 -0.07350299 0.00033407
v -0.11912471 -0.07350299 0.00033407
v -0.11912471 -0.07857159 0.00140198
v -0.11912471 -0.07857159 0.00140198
v -0.11912471 -0.07857159 0.00140198
v -0.11912471 -0.07857159 0.00140198
v -0.11912471 -0.07857159 0.00140198
v -0.11912471 -0.07857159 0.00140198
v -0.11912471 -0.08170359 0.00240810
v -0.11912471 -0.08170359 0.00240810
v -0.11912471 -0.08170359 0.00240810
v -0.11912471 -0.08170359 0.00240810
v -0.11912471 -0.08170359 0.00240810
v -0.11035581 -0.08588441 0.00312004
v -0.11035581 -0.08588441 0.00312004
v -0.11035581 -0.08588441 0.00312004
v -0.11035581 -0.08588441 0.00312004
v -0.11035581 -0.08588441 0.00312004
v -0.11035581 -0.08588441 0.00312004
v -0.11035581 -0.08588441 0.00312004
v -0.11035581 -0.08588441 0.00312004
v -0.11035581 -0.08588441 0.00312004
v -0.11035581 -0.08588441 0.00312004
v -0.11405537 -0.08525058 0.00410263
v -0.11405537 -0.08525058 0.00410263
v -0.11405537 -0.08525058 0.00410263
v -0.11678321 -0.08627668 0.00756523
v -0.11678321 -0.08627668 0.00756523
v -0.11678321 -0.08627668 0.00756523
v -0.11678321 -0.08627668 0.00756523
v -0.11678321 -0.08627668 0.00756523
v -0.11912471 -0.09179950 0.02214227
v -0.11912471 -0.09179950 0.02214227
v -0.11912471 -0.09179950 0.02214227
v -0.11912471 -0.09179950 0.02214227
v -0.12231793 -0.09149393 0.02381915
v -0.12231793 -0.09149393 0.02381915
v -0.12231793 -0.09149393 0.02381915
v -0.12231793 -0.09149393 0.02381915
v -0.12231793 -0.09149393 0.02381915
v -0.12231793 -0.09149393 0.02381915
v -0.11405537 -0.08658844 0.00663559
v -0.11405537 -0.08658844 0.00663559
v -0.11405537 -0.08658844 0.00663559
v -0.10913823 -0.08667103 0.00458510
v -0.10913823 -0.08667103 0.00458510
v -0.10913823 -0.08667103 0.00458510
v -0.10913823 -0.08667103 0.00458510
v -0.10913823 -0.08667103 0.00458510
v -0.10913823 -0.08667103 0.00458510
v -0.10913823 -0.08687336 0.00510875
v -0.10913823 -0.08687336 0.00510875
v -0.10913823 -0.08687336 0.00510875
v -0.10913823 -0.08687336 0.00510875
v -0.10913823 -0.08687336 0.00510875
v -0.12926047 -0.08706949 0.02426043
v -0.12926047 -0.08706949 0.02426043
v -0.12926047 -0.08706949 0.02426043
v -0.12926047 -0.08706949 0.02426043
v -0.12926047 -0.08706949 0.02426043
v -0.12919900 -0.08354729 0.02694049
v -0.12919900 -0.08354729 0.02694049
v -0.12919900 -0.08354729 0.02694049
v -0.12919900 -0.08354729 0.02694049
v -0.12919900 -0.08354729 0.02694049
v -0.12508090 -0.08517419 0.02787601
v -0.12508090 -0.08517419 0.02787601
v -0.12508090 -0.08517419 0.02787601
v -0.12508090 -0.08517419 0.02787601
v -0.12508090 -0.08517419 0.02787601
v -0.12508090 -0.08517419 0.02787601
v -0.12508090 -0.08517419 0.02787601
v -0.12746629 -0.08179443 0.02817608
v -0.12746629 -0.08179443 0.02817608
v -0.12746629 -0.08179443 0.02817608
v -0.12746629 -0.08179443 0.02817608
v -0.12746629 -0.08179443 0.02817608
v -0.12746629 -0.08179443 0.02817608
v -0.12746629 -0.08179443 0.02817608
v -0.12746629 -0.08179443 0.02817608
v -0.13256490 -0.07350299 0.02819962
v -0.13256490 -0.07350299 0.02819962
v -0.13256490 -0.07350299 0.02819962
v -0.13256490 -0.07350299 0.02819962
v -0.13301565 -0.07118857 0.02824080
v -0.13301565 -0.07118857 0.02824080
v -0.13301565 -0.07118857 0.02824080
v -0.13301565 -0.07118857 0.02824080
v -0.13301565 -0.07118857 0.02824080
v -0.11912471 -0.07118857 0.00003989
v -0.11912471 -0.07118857 0.00003989
v -0.11912471 -0.07118857 0.00003989
v -0.11391781 -0.07118857 -0.00114864
v -0.11391781 -0.07118857 -0.00114864
v -0.11391781 -0.07118857 -0.00114864
v -0.11391781 -0.07118857 -0.00114864
v -0.11405537 -0.07350299 -0.00070735
v -0.11405537 -0.07350299 -0.00070735
v -0.11405537 -0.07350299 -0.00070735
v -0.11405537 -0.07350299 -0.00070735
v -0.11405537 -0.07350299 -0.00070735
v -0.11405537 -0.07350299 -0.00070735
v -0.11405537 -0.07857159 0.00055766
v -0.11405537 -0.07857159 0.00055766
v -0.11405537 -0.07857159 0.00055766
v -0.11405537 -0.07857159 0.00055766
v -0.11405537 -0.07857159 0.00055766
v -0.11405537 -0.07857159 0.00055766
v -0.11405537 -0.07857159 0.00055766
v -0.11405537 -0.08271730 0.00199330
v -0.11405537 -0.08271730 0.00199330
v -0.11405537 -0.08271730 0.00199330
v -0.11405537 -0.08271730 0.00199330
v -0.11405537 -0.08271730 0.00199330
v -0.10913823 -0.08389000 0.00195505
v -0.10913823 -0.08389000 0.00195505
v -0.10913823 -0.08389000 0.00195505
v -0.10913823 -0.08389000 0.00195505
v -0.10913823 -0.08389000 0.00195505
v -0.10913823 -0.08439584 0.00221100
v -0.10913823 -0.08439584 0.00221100
v -0.10913823 -0.08439584 0.00221100
v -0.11405537 -0.09213603 0.02146564
v -0.11405537 -0.09213603 0.02146564
v -0.11405537 -0.09213603 0.02146564
v -0.11405537 -0.09213603 0.02146564
v -0.11405537 -0.09213603 0.02146564
v -0.11912471 -0.09179950 0.02455756
v -0.11912471 -0.09179950 0.02455756
v -0.11912471 -0.09179950 0.02455756
v -0.11912471 -0.09179950 0.02455756
v -0.11912471 -0.09179950 0.02455756
v -0.11912471 -0.08906596 0.02709052
v -0.11912471 -0.08906596 0.02709052
v -0.11912471 -0.08906596 0.02709052
v -0.11912471 -0.08906596 0.02709052
v -0.11912471 -0.08906596 0.02709052
v -0.11912471 -0.08906596 0.02709052
v -0.12369941 -0.08843833 0.02584905
v -0.12369941 -0.08843833 0.02584905
v -0.12369941 -0.08843833 0.02584905
v -0.12369941 -0.08843833 0.02584905
v -0.10913823 -0.09209680 0.02036832
v -0.10913823 -0.09209680 0.02036832
v -0.10913823 -0.09209680 0.02036832
v -0.12170621 -0.08619204 0.02809959
v -0.12170621 -0.08619204 0.02809959
v -0.12170621 -0.08619204 0.02809959
v -0.12170621 -0.08619204 0.02809959
v -0.12170621 -0.08619204 0.02809959
v -0.11912471 -0.08653270 0.02814372
v -0.11912471 -0.08653270 0.02814372
v -0.11912471 -0.08653270 0.02814372
v -0.11912471 -0.08653270 0.02814372
v -0.11405537 -0.08689813 0.02817314
v -0.11405537 -0.08689813 0.02817314
v -0.11405537 -0.08689813 0.02817314
v -0.11405537 -0.08689813 0.02817314
v -0.11405537 -0.08689813 0.02817314
v -0.11405537 -0.08689813 0.02817314
v -0.11405537 -0.08689813 0.02817314
v -0.11405537 -0.08689813 0.02817314
v -0.13099903 -0.07118857 0.02824080
v -0.13099903 -0.07118857 0.02824080
v -0.13099903 -0.07118857 0.02824080
v -0.13099903 -0.07118857 0.02824080
v -0.13099903 -0.07118857 0.02824080
v -0.10913823 -0.07118857 -0.00181350
v -0.10913823 -0.07118857 -0.00181350
v -0.10913823 -0.07118857 -0.00181350
v -0.10913823 -0.07118857 -0.00181350
v -0.10913823 -0.07350299 -0.00127514
v -0.10913823 -0.07350299 -0.00127514
v -0.10913823 -0.07350299 -0.00127514
v -0.10913823 -0.07350299 -0.00127514
v -0.10913823 -0.07857159 0.00014579
v -0.10913823 -0.07857159 0.00014579
v -0.10913823 -0.07857159 0.00014579
v -0.10913823 -0.08361955 0.00186091
v -0.10913823 -0.08361955 0.00186091
v -0.10913823 -0.08361955 0.00186091
v -0.10913823 -0.08361955 0.00186091
v -0.10913823 -0.09227848 0.02518418
v -0.10913823 -0.09227848 0.02518418
v -0.10913823 -0.09227848 0.02518418
v -0.10913823 -0.09227848 0.02518418
v -0.11405537 -0.09213603 0.02507533
v -0.11405537 -0.09213603 0.02507533
v -0.11405537 -0.09213603 0.02507533
v -0.11405537 -0.09213603 0.02507533
v -0.11405537 -0.08943347 0.02761124
v -0.11405537 -0.08943347 0.02761124
v -0.11405537 -0.08943347 0.02761124
v -0.11405537 -0.08943347 0.02761124
v -0.11405537 -0.08943347 0.02761124
v -0.11405537 -0.08943347 0.02761124
v -0.11405537 -0.08943347 0.02761124
v -0.11405537 -0.08943347 0.02761124
v -0.11405537 -0.08943347 0.02761124
v -0.10913823 -0.08849200 0.02780246
v -0.10913823 -0.08849200 0.02780246
v -0.10913823 -0.08849200 0.02780246
v -0.10913823 -0.08849200 0.02780246
v -0.10913823 -0.08849200 0.02780246
v -0.10913823 -0.08849200 0.02780246
v -0.10913823 -0.08849200 0.02780246
v -0.11091485 -0.08668135 0.02813489
v -0.11091485 -0.08668135 0.02813489
v -0.11091485 -0.08668135 0.02813489
v -0.11405537 -0.08602481 0.02817314
v -0.11405537 -0.08602481 0.02817314
v -0.11405537 -0.08602481 0.02817314
v -0.11091485 -0.08611565 0.02813489
v -0.11091485 -0.08611565 0.02813489
v -0.11091485 -0.08611565 0.02813489
v -0.11091485 -0.08611565 0.02813489
v -0.11091485 -0.08611565 0.02813489
v -0.11091485 -0.08611565 0.02813489
v -0.12962047 -0.07118857 0.02758770
v -0.12962047 -0.07118857 0.02758770
v -0.12962047 -0.07118857 0.02758770
v -0.12962047 -0.07118857 0.02758770
v -0.10913823 -0.07118857 0.00749757
v -0.10913823 -0.07118857 0.00749757
v -0.10913823 -0.07118857 0.00749757
v -0.10913823 -0.09227848 0.02529303
v -0.10913823 -0.09227848 0.02529303
v -0.10913823 -0.09227848 0.02529303
v -0.10913823 -0.09227848 0.02529303
v -0.10913823 -0.09227848 0.02529303
v -0.10913823 -0.08851265 0.02779658
v -0.10913823 -0.08851265 0.02779658
v -0.10913823 -0.08851265 0.02779658
v -0.10913823 -0.08851265 0.02779658
v -0.10913823 -0.08502967 0.02598438
v -0.10913823 -0.08502967 0.02598438
v -0.10913823 -0.08502967 0.02598438
v -0.10913823 -0.08502967 0.02598438
f 2 6 10
f 1 9 37
f 1 37 15
f 5 19 61
f 5 61 126
f 5 126 223
f 5 223 298
f 5 298 354
f 5 354 358
f 5 358 305
f 5 305 231
f 5 231 227
f 5 227 130
f 5 130 65
f 5 65 22
f 3 20 23
f 4 24 7
f 8 25 12
f 11 32 95
f 11 95 39
f 13 26 44
f 14 45 33
f 17 49 51
f 18 54 58
f 16 38 48
f 21 62 30
f 31 63 67
f 29 66 72
f 28 71 80
f 27 77 47
f 35 86 171
f 35 171 98
f 34 46 76
f 36 78 87
f 40 96 101
f 42 102 106
f 43 107 53
f 41 52 50
f 55 109 111
f 56 114 117
f 57 118 59
f 60 119 123
f 64 127 68
f 69 128 131
f 70 132 73
f 74 133 138
f 75 139 83
f 85 141 145
f 84 144 152
f 82 149 160
f 81 159 163
f 79 162 88
f 94 169 266
f 94 266 176
f 89 166 178
f 90 179 153
f 91 155 180
f 92 181 186
f 93 187 167
f 100 172 192
f 99 191 198
f 97 197 105
f 104 196 112
f 103 110 108
f 115 205 208
f 116 209 121
f 113 200 203
f 122 211 218
f 120 216 124
f 125 217 220
f 129 225 134
f 135 226 228
f 136 229 232
f 137 233 140
f 142 234 238
f 143 239 147
f 148 240 246
f 146 245 154
f 151 177 165
f 150 164 161
f 156 247 250
f 157 251 255
f 158 256 182
f 170 259 323
f 170 323 267
f 168 188 258
f 175 263 270
f 174 269 277
f 173 274 194
f 184 257 254
f 183 253 317
f 183 317 313
f 183 313 310
f 183 310 306
f 183 306 360
f 183 360 373
f 183 373 340
f 185 341 369
f 183 368 364
f 184 365 321
f 183 320 280
f 183 280 190
f 189 278 260
f 195 275 202
f 193 201 199
f 207 283 210
f 204 276 268
f 206 271 281
f 214 289 291
f 215 292 222
f 212 221 219
f 213 285 287
f 224 293 299
f 230 303 235
f 236 304 307
f 237 308 241
f 243 309 311
f 244 312 316
f 242 315 249
f 248 314 252
f 262 279 319
f 261 318 362
f 261 362 325
f 265 322 328
f 264 326 272
f 273 327 282
f 284 330 286
f 288 331 290
f 297 337 343
f 296 342 348
f 296 348 346
f 295 345 300
f 294 332 335
f 301 347 349
f 302 351 355
f 324 361 329
f 334 363 367
f 333 366 336
f 339 372 353
f 338 350 344
f 352 370 356
f 357 371 359

