# https://github.com/mikedh/trimesh
v -0.10913823 -0.07118857 0.00749845
v -0.10913823 -0.07118857 0.00749845
v -0.10913823 -0.07118857 0.00749845
v -0.10913823 -0.07118857 0.00749845
v -0.12371601 -0.07118857 0.01834078
v -0.12371601 -0.07118857 0.01834078
v -0.12371601 -0.07118857 0.01834078
v -0.12371601 -0.07118857 0.01834078
v -0.10913823 -0.07118857 -0.00181263
v -0.10913823 -0.07118857 -0.00181263
v -0.10913823 -0.07118857 -0.00181263
v -0.10913823 -0.00006975 0.00602904
v -0.10913823 -0.00006975 0.00602904
v -0.10913823 -0.00006975 0.00602904
v -0.10913823 -0.00006975 0.00602904
v -0.13483974 -0.07118857 0.01834078
v -0.13483974 -0.07118857 0.01834078
v -0.13483974 -0.07118857 0.01834078
v -0.13483974 -0.07118857 0.01834078
v -0.13483974 -0.07118857 0.01834078
v -0.12763398 -0.00006975 0.01834078
v -0.12763398 -0.00006975 0.01834078
v -0.12763398 -0.00006975 0.01834078
v -0.11391704 -0.07118857 -0.00114697
v -0.11391704 -0.07118857 -0.00114697
v -0.11391704 -0.07118857 -0.00114697
v -0.11391704 -0.07118857 -0.00114697
v -0.11391704 -0.07118857 -0.00114697
v -0.11391704 -0.07118857 -0.00114697
v -0.10913823 -0.06976146 -0.00214856
v -0.10913823 -0.06976146 -0.00214856
v -0.10913823 -0.06976146 -0.00214856
v -0.10913823 -0.06976146 -0.00214856
v -0.10913823 -0.00006975 -0.00267614
v -0.10913823 -0.00006975 -0.00267614
v -0.10913823 -0.00006975 -0.00267614
v -0.10913823 -0.00006975 -0.00267614
v -0.10913823 -0.00006975 -0.00267614
v -0.12872008 -0.07118857 0.00520881
v -0.12872008 -0.07118857 0.00520881
v -0.12872008 -0.07118857 0.00520881
v -0.13515081 -0.06843181 0.01834078
v -0.13515081 -0.06843181 0.01834078
v -0.13515081 -0.06843181 0.01834078
v -0.13515081 -0.06843181 0.01834078
v -0.13515081 -0.06843181 0.01834078
v -0.13515081 -0.06843181 0.01834078
v -0.13515081 -0.06843181 0.01834078
v -0.13515081 -0.06843181 0.01834078
v -0.13129183 -0.06843181 0.00941920
v -0.13129183 -0.06843181 0.00941920
v -0.13129183 -0.06843181 0.00941920
v -0.13129183 -0.06843181 0.00941920
v -0.12949240 -0.06843181 0.00528918
v -0.12949240 -0.06843181 0.00528918
v -0.12949240 -0.06843181 0.00528918
v -0.12949240 -0.06843181 0.00528918
v -0.12949240 -0.06843181 0.00528918
v -0.12949240 -0.06843181 0.00528918
v -0.12949240 -0.06843181 0.00528918
v -0.12949240 -0.06843181 0.00528918
v -0.12949240 -0.06843181 0.00528918
v -0.12949240 -0.06843181 0.00528918
v -0.12949240 -0.06843181 0.00528918
v -0.13650507 -0.00006975 0.01834078
v -0.13650507 -0.00006975 0.01834078
v -0.13650507 -0.00006975 0.01834078
v -0.10913823 -0.06963614 -0.00217535
v -0.10913823 -0.06963614 -0.00217535
v -0.10913823 -0.06963614 -0.00217535
v -0.10913823 -0.06963614 -0.00217535
v -0.10913823 -0.06963614 -0.00217535
v -0.11912492 -0.07118857 0.00003805
v -0.11912492 -0.07118857 0.00003805
v -0.11912492 -0.07118857 0.00003805
v -0.11912492 -0.07118857 0.00003805
v -0.11912492 -0.07118857 0.00003805
v -0.11374541 -0.06829954 -0.00169722
v -0.11374541 -0.06829954 -0.00169722
v -0.11374541 -0.06829954 -0.00169722
v -0.11374541 -0.06829954 -0.00169722
v -0.11184944 -0.06652435 -0.00239792
v -0.11184944 -0.06652435 -0.00239792
v -0.11184944 -0.06652435 -0.00239792
v -0.11184944 -0.06652435 -0.00239792
v -0.11184944 -0.06652435 -0.00239792
v -0.11184944 -0.06652435 -0.00239792
v -0.11184944 -0.06652435 -0.00239792
v -0.11184944 -0.06652435 -0.00239792
v -0.11184944 -0.06652435 -0.00239792
v -0.11240187 -0.00760907 -0.00251745
v -0.11240187 -0.00760907 -0.00251745
v -0.11240187 -0.00760907 -0.00251745
v -0.11240187 -0.00760907 -0.00251745
v -0.11237505 -0.00006975 -0.00250715
v -0.11237505 -0.00006975 -0.00250715
v -0.11237505 -0.00006975 -0.00250715
v -0.10913823 -0.02788100 -0.00271324
v -0.10913823 -0.02788100 -0.00271324
v -0.10913823 -0.02788100 -0.00271324
v -0.10913823 -0.02788100 -0.00271324
v -0.11248232 -0.02788100 -0.00254219
v -0.11248232 -0.02788100 -0.00254219
v -0.11248232 -0.02788100 -0.00254219
v -0.11248232 -0.02788100 -0.00254219
v -0.11248232 -0.02788100 -0.00254219
v -0.11248232 -0.02788100 -0.00254219
v -0.11248232 -0.02788100 -0.00254219
v -0.12721832 -0.07118857 0.00239364
v -0.12721832 -0.07118857 0.00239364
v -0.12721832 -0.07118857 0.00239364
v -0.12721832 -0.07118857 0.00239364
v -0.12721832 -0.07118857 0.00239364
v -0.13522321 -0.06738062 0.01834078
v -0.13522321 -0.06738062 0.01834078
v -0.13522321 -0.06738062 0.01834078
v -0.13522321 -0.06738062 0.01834078
v -0.13205076 -0.04815292 0.00697911
v -0.13205076 -0.04815292 0.00697911
v -0.13205076 -0.04815292 0.00697911
v -0.13205076 -0.04815292 0.00697911
v -0.13205076 -0.04815292 0.00697911
v -0.13205076 -0.04815292 0.00697911
v -0.13205076 -0.04815292 0.00697911
v -0.13188717 -0.05322090 0.00752318
v -0.13188717 -0.05322090 0.00752318
v -0.13188717 -0.05322090 0.00752318
v -0.13188717 -0.05322090 0.00752318
v -0.13180136 -0.05582450 0.00780553
v -0.13180136 -0.05582450 0.00780553
v -0.13180136 -0.05582450 0.00780553
v -0.13180136 -0.05582450 0.00780553
v -0.13166459 -0.05920780 0.00822389
v -0.13166459 -0.05920780 0.00822389
v -0.13166459 -0.05920780 0.00822389
v -0.13166459 -0.05920780 0.00822389
v -0.13149564 -0.06335687 0.00875147
v -0.13149564 -0.06335687 0.00875147
v -0.13149564 -0.06335687 0.00875147
v -0.13149564 -0.06335687 0.00875147
v -0.12746235 -0.06843181 0.00223083
v -0.12746235 -0.06843181 0.00223083
v -0.12746235 -0.06843181 0.00223083
v -0.12746235 -0.06843181 0.00223083
v -0.12746235 -0.06843181 0.00223083
v -0.12746235 -0.06843181 0.00223083
v -0.12746235 -0.06843181 0.00223083
v -0.12746235 -0.06843181 0.00223083
v -0.12746235 -0.06843181 0.00223083
v -0.13077157 -0.04815292 0.00444628
v -0.13077157 -0.04815292 0.00444628
v -0.13077157 -0.04815292 0.00444628
v -0.13077157 -0.04815292 0.00444628
v -0.13653189 -0.00756034 0.01834078
v -0.13653189 -0.00756034 0.01834078
v -0.13653189 -0.00756034 0.01834078
v -0.13653189 -0.00756034 0.01834078
v -0.13227602 -0.00006975 0.00629696
v -0.13227602 -0.00006975 0.00629696
v -0.13227602 -0.00006975 0.00629696
v -0.13227602 -0.00006975 0.00629696
v -0.13227602 -0.00006975 0.00629696
v -0.13227602 -0.00006975 0.00629696
v -0.10913823 -0.06723443 -0.00247005
v -0.10913823 -0.06723443 -0.00247005
v -0.10913823 -0.06723443 -0.00247005
v -0.12143923 -0.07118857 0.00065425
v -0.12143923 -0.07118857 0.00065425
v -0.12143923 -0.07118857 0.00065425
v -0.12419067 -0.06843181 0.00103345
v -0.12419067 -0.06843181 0.00103345
v -0.12419067 -0.06843181 0.00103345
v -0.12419067 -0.06843181 0.00103345
v -0.12419067 -0.06843181 0.00103345
v -0.12419067 -0.06843181 0.00103345
v -0.12419067 -0.06843181 0.00103345
v -0.12419067 -0.06843181 0.00103345
v -0.12419067 -0.06843181 0.00103345
v -0.12419067 -0.06843181 0.00103345
v -0.11912492 -0.06843181 -0.00031437
v -0.11912492 -0.06843181 -0.00031437
v -0.11912492 -0.06843181 -0.00031437
v -0.11912492 -0.06843181 -0.00031437
v -0.11465183 -0.06335687 -0.00181675
v -0.11465183 -0.06335687 -0.00181675
v -0.11465183 -0.06335687 -0.00181675
v -0.11465183 -0.06335687 -0.00181675
v -0.11465183 -0.06335687 -0.00181675
v -0.11465183 -0.06335687 -0.00181675
v -0.11211762 -0.06335687 -0.00246387
v -0.11211762 -0.06335687 -0.00246387
v -0.11211762 -0.06335687 -0.00246387
v -0.11211762 -0.06335687 -0.00246387
v -0.11211762 -0.06335687 -0.00246387
v -0.10913823 -0.06335687 -0.00264317
v -0.10913823 -0.06335687 -0.00264317
v -0.10913823 -0.06335687 -0.00264317
v -0.10913823 -0.06335687 -0.00264317
v -0.11367837 -0.00006975 -0.00220832
v -0.11367837 -0.00006975 -0.00220832
v -0.11367837 -0.00006975 -0.00220832
v -0.11367837 -0.00006975 -0.00220832
v -0.10913823 -0.03801696 -0.00271118
v -0.10913823 -0.03801696 -0.00271118
v -0.10913823 -0.03801696 -0.00271118
v -0.11247964 -0.03801696 -0.00254219
v -0.11247964 -0.03801696 -0.00254219
v -0.11247964 -0.03801696 -0.00254219
v -0.11247964 -0.03801696 -0.00254219
v -0.11247964 -0.03801696 -0.00254219
v -0.11247964 -0.03801696 -0.00254219
v -0.11247964 -0.03801696 -0.00254219
v -0.11247964 -0.03801696 -0.00254219
v -0.11501654 -0.02788100 -0.00193010
v -0.11501654 -0.02788100 -0.00193010
v -0.11501654 -0.02788100 -0.00193010
v -0.11501654 -0.02788100 -0.00193010
v -0.11501654 -0.02788100 -0.00193010
v -0.11501654 -0.02788100 -0.00193010
v -0.11501654 -0.02788100 -0.00193010
v -0.11501654 -0.02788100 -0.00193010
v -0.11490927 -0.00006975 -0.00192392
v -0.11490927 -0.00006975 -0.00192392
v -0.11490927 -0.00006975 -0.00192392
v -0.11490927 -0.00006975 -0.00192392
v -0.12428990 -0.07118857 0.00146212
v -0.12428990 -0.07118857 0.00146212
v -0.12428990 -0.07118857 0.00146212
v -0.13544043 -0.06241706 0.01834078
v -0.13544043 -0.06241706 0.01834078
v -0.13544043 -0.06241706 0.01834078
v -0.13217680 -0.04308494 0.00657518
v -0.13217680 -0.04308494 0.00657518
v -0.13217680 -0.04308494 0.00657518
v -0.13217680 -0.04308494 0.00657518
v -0.13217680 -0.04308494 0.00657518
v -0.13217680 -0.04308494 0.00657518
v -0.13217680 -0.04308494 0.00657518
v -0.13217680 -0.04308494 0.00657518
v -0.13217680 -0.04308494 0.00657518
v -0.13217680 -0.04308494 0.00657518
v -0.13094590 -0.04308494 0.00404029
v -0.13094590 -0.04308494 0.00404029
v -0.13094590 -0.04308494 0.00404029
v -0.13094590 -0.04308494 0.00404029
v -0.13094590 -0.04308494 0.00404029
v -0.12763398 -0.06335687 0.00216076
v -0.12763398 -0.06335687 0.00216076
v -0.12763398 -0.06335687 0.00216076
v -0.12419067 -0.06335687 0.00084179
v -0.12419067 -0.06335687 0.00084179
v -0.12419067 -0.06335687 0.00084179
v -0.12419067 -0.06335687 0.00084179
v -0.12419067 -0.06335687 0.00084179
v -0.12419067 -0.06335687 0.00084179
v -0.12419067 -0.06335687 0.00084179
v -0.13101830 -0.03801696 0.00385687
v -0.13101830 -0.03801696 0.00385687
v -0.13101830 -0.03801696 0.00385687
v -0.13101830 -0.03801696 0.00385687
v -0.13101830 -0.03801696 0.00385687
v -0.13101830 -0.03801696 0.00385687
v -0.13101830 -0.03801696 0.00385687
v -0.12823737 -0.04815292 0.00200619
v -0.12823737 -0.04815292 0.00200619
v -0.12823737 -0.04815292 0.00200619
v -0.12823737 -0.04815292 0.00200619
v -0.12823737 -0.04815292 0.00200619
v -0.13227870 -0.01267705 0.00628665
v -0.13227870 -0.01267705 0.00628665
v -0.13227870 -0.01267705 0.00628665
v -0.13227870 -0.01267705 0.00628665
v -0.13227870 -0.01267705 0.00628665
v -0.13227870 -0.01267705 0.00628665
v -0.13227870 -0.01267705 0.00628665
v -0.13653189 -0.01267705 0.01834078
v -0.13653189 -0.01267705 0.01834078
v -0.13653189 -0.01267705 0.01834078
v -0.13165387 -0.00006975 0.00499448
v -0.13165387 -0.00006975 0.00499448
v -0.13165387 -0.00006975 0.00499448
v -0.13106925 -0.00760907 0.00375176
v -0.13106925 -0.00760907 0.00375176
v -0.13106925 -0.00760907 0.00375176
v -0.13106925 -0.00760907 0.00375176
v -0.13106925 -0.00760907 0.00375176
v -0.13106925 -0.00760907 0.00375176
v -0.13106925 -0.00760907 0.00375176
v -0.13106925 -0.00760907 0.00375176
v -0.13227602 -0.00760907 0.00628665
v -0.13227602 -0.00760907 0.00628665
v -0.13227602 -0.00760907 0.00628665
v -0.11912492 -0.06335687 -0.00060289
v -0.11912492 -0.06335687 -0.00060289
v -0.11912492 -0.06335687 -0.00060289
v -0.11912492 -0.06335687 -0.00060289
v -0.11912492 -0.06335687 -0.00060289
v -0.11912492 -0.06335687 -0.00060289
v -0.11482882 -0.05828888 -0.00185797
v -0.11482882 -0.05828888 -0.00185797
v -0.11482882 -0.05828888 -0.00185797
v -0.11482882 -0.05828888 -0.00185797
v -0.11482882 -0.05828888 -0.00185797
v -0.11482882 -0.05828888 -0.00185797
v -0.11482882 -0.05828888 -0.00185797
v -0.11229460 -0.05828888 -0.00250921
v -0.11229460 -0.05828888 -0.00250921
v -0.11229460 -0.05828888 -0.00250921
v -0.11229460 -0.05828888 -0.00250921
v -0.11229460 -0.05828888 -0.00250921
v -0.11229460 -0.05828888 -0.00250921
v -0.11229460 -0.05828888 -0.00250921
v -0.10913823 -0.06312713 -0.00264729
v -0.10913823 -0.06312713 -0.00264729
v -0.10913823 -0.06312713 -0.00264729
v -0.10913823 -0.06312713 -0.00264729
v -0.10913823 -0.04815292 -0.00270706
v -0.10913823 -0.04815292 -0.00270706
v -0.10913823 -0.04815292 -0.00270706
v -0.10913823 -0.04815292 -0.00270706
v -0.11246891 -0.04308494 -0.00254012
v -0.11246891 -0.04308494 -0.00254012
v -0.11246891 -0.04308494 -0.00254012
v -0.11246891 -0.04308494 -0.00254012
v -0.11246891 -0.04308494 -0.00254012
v -0.11500581 -0.04308494 -0.00192804
v -0.11500581 -0.04308494 -0.00192804
v -0.11500581 -0.04308494 -0.00192804
v -0.11500581 -0.04308494 -0.00192804
v -0.11500581 -0.04308494 -0.00192804
v -0.11500581 -0.04308494 -0.00192804
v -0.11500581 -0.04308494 -0.00192804
v -0.11500581 -0.04308494 -0.00192804
v -0.11500581 -0.04308494 -0.00192804
v -0.11501386 -0.03801696 -0.00192804
v -0.11501386 -0.03801696 -0.00192804
v -0.11501386 -0.03801696 -0.00192804
v -0.11501386 -0.03801696 -0.00192804
v -0.11912492 -0.03295594 -0.00085020
v -0.11912492 -0.03295594 -0.00085020
v -0.11912492 -0.03295594 -0.00085020
v -0.11912492 -0.03295594 -0.00085020
v -0.11912492 -0.03295594 -0.00085020
v -0.11912492 -0.03295594 -0.00085020
v -0.11912492 -0.03295594 -0.00085020
v -0.11912492 -0.02788100 -0.00084814
v -0.11912492 -0.02788100 -0.00084814
v -0.11912492 -0.02788100 -0.00084814
v -0.11912492 -0.02788100 -0.00084814
v -0.11912492 -0.02788100 -0.00084814
v -0.11912492 -0.00006975 -0.00083371
v -0.11912492 -0.00006975 -0.00083371
v -0.11912492 -0.00006975 -0.00083371
v -0.11912492 -0.00006975 -0.00083371
v -0.11695810 -0.00006975 -0.00139427
v -0.11695810 -0.00006975 -0.00139427
v -0.11695810 -0.00006975 -0.00139427
v -0.13581587 -0.05251779 0.01834078
v -0.13581587 -0.05251779 0.01834078
v -0.13581587 -0.05251779 0.01834078
v -0.13617255 -0.04308494 0.01834078
v -0.13617255 -0.04308494 0.01834078
v -0.13617255 -0.04308494 0.01834078
v -0.13618595 -0.04272990 0.01834078
v -0.13618595 -0.04272990 0.01834078
v -0.13618595 -0.04272990 0.01834078
v -0.13633881 -0.03801696 0.01834078
v -0.13633881 -0.03801696 0.01834078
v -0.13633881 -0.03801696 0.01834078
v -0.13633881 -0.03801696 0.01834078
v -0.13224384 -0.03801696 0.00639176
v -0.13224384 -0.03801696 0.00639176
v -0.13224384 -0.03801696 0.00639176
v -0.13224384 -0.03801696 0.00639176
v -0.13224384 -0.03801696 0.00639176
v -0.13224384 -0.03801696 0.00639176
v -0.13224384 -0.03801696 0.00639176
v -0.12841167 -0.04308494 0.00197940
v -0.12841167 -0.04308494 0.00197940
v -0.12841167 -0.04308494 0.00197940
v -0.12841167 -0.04308494 0.00197940
v -0.12841167 -0.04308494 0.00197940
v -0.12841167 -0.04308494 0.00197940
v -0.12841167 -0.04308494 0.00197940
v -0.12419067 -0.04815292 0.00057800
v -0.12419067 -0.04815292 0.00057800
v -0.12419067 -0.04815292 0.00057800
v -0.12419067 -0.04815292 0.00057800
v -0.12419067 -0.04815292 0.00057800
v -0.12419067 -0.04815292 0.00057800
v -0.12419067 -0.04815292 0.00057800
v -0.13104512 -0.03295594 0.00379092
v -0.13104512 -0.03295594 0.00379092
v -0.13104512 -0.03295594 0.00379092
v -0.13104512 -0.03295594 0.00379092
v -0.13104512 -0.03295594 0.00379092
v -0.13104512 -0.03295594 0.00379092
v -0.13106925 -0.01267705 0.00375176
v -0.13106925 -0.01267705 0.00375176
v -0.13106925 -0.01267705 0.00375176
v -0.13106925 -0.01267705 0.00375176
v -0.13106925 -0.01267705 0.00375176
v -0.13106925 -0.01267705 0.00375176
v -0.13106925 -0.01267705 0.00375176
v -0.13227602 -0.02281301 0.00629283
v -0.13227602 -0.02281301 0.00629283
v -0.13227602 -0.02281301 0.00629283
v -0.13227602 -0.02281301 0.00629283
v -0.13227602 -0.02281301 0.00629283
v -0.13652921 -0.01774503 0.01834078
v -0.13652921 -0.01774503 0.01834078
v -0.13652921 -0.01774503 0.01834078
v -0.13652921 -0.01774503 0.01834078
v -0.13106389 -0.00006975 0.00376207
v -0.13106389 -0.00006975 0.00376207
v -0.13106389 -0.00006975 0.00376207
v -0.12853504 -0.00760907 0.00197528
v -0.12853504 -0.00760907 0.00197528
v -0.12853504 -0.00760907 0.00197528
v -0.12853504 -0.00760907 0.00197528
v -0.12853504 -0.00760907 0.00197528
v -0.12853504 -0.00760907 0.00197528
v -0.12852699 -0.00006975 0.00197734
v -0.12852699 -0.00006975 0.00197734
v -0.12852699 -0.00006975 0.00197734
v -0.12852699 -0.00006975 0.00197734
v -0.11912492 -0.05828888 -0.00067914
v -0.11912492 -0.05828888 -0.00067914
v -0.11912492 -0.05828888 -0.00067914
v -0.11912492 -0.04815292 -0.00080486
v -0.11912492 -0.04815292 -0.00080486
v -0.11912492 -0.04815292 -0.00080486
v -0.11912492 -0.04815292 -0.00080486
v -0.11912492 -0.04815292 -0.00080486
v -0.11912492 -0.04815292 -0.00080486
v -0.11493072 -0.05322090 -0.00188682
v -0.11493072 -0.05322090 -0.00188682
v -0.11493072 -0.05322090 -0.00188682
v -0.11493072 -0.05322090 -0.00188682
v -0.11493072 -0.05322090 -0.00188682
v -0.11239651 -0.05322090 -0.00253188
v -0.11239651 -0.05322090 -0.00253188
v -0.11239651 -0.05322090 -0.00253188
v -0.11239651 -0.05322090 -0.00253188
v -0.11239651 -0.05322090 -0.00253188
v -0.11239651 -0.05322090 -0.00253188
v -0.11239651 -0.05322090 -0.00253188
v -0.10913823 -0.05806612 -0.00268439
v -0.10913823 -0.05806612 -0.00268439
v -0.10913823 -0.05806612 -0.00268439
v -0.10913823 -0.05806612 -0.00268439
v -0.10913823 -0.05322090 -0.00270293
v -0.10913823 -0.05322090 -0.00270293
v -0.10913823 -0.05322090 -0.00270293
v -0.10913823 -0.05322090 -0.00270293
v -0.10913823 -0.05322090 -0.00270293
v -0.11243942 -0.04815292 -0.00253600
v -0.11243942 -0.04815292 -0.00253600
v -0.11243942 -0.04815292 -0.00253600
v -0.11243942 -0.04815292 -0.00253600
v -0.11912492 -0.04308494 -0.00083989
v -0.11912492 -0.04308494 -0.00083989
v -0.11912492 -0.04308494 -0.00083989
v -0.11912492 -0.04308494 -0.00083989
v -0.11912492 -0.04308494 -0.00083989
v -0.11912492 -0.03801696 -0.00084608
v -0.11912492 -0.03801696 -0.00084608
v -0.11912492 -0.03801696 -0.00084608
v -0.11912492 -0.03801696 -0.00084608
v -0.11912492 -0.03801696 -0.00084608
v -0.11497364 -0.04815292 -0.00191155
v -0.11497364 -0.04815292 -0.00191155
v -0.11497364 -0.04815292 -0.00191155
v -0.11497364 -0.04815292 -0.00191155
v -0.11497364 -0.04815292 -0.00191155
v -0.12419067 -0.03295594 0.00052029
v -0.12419067 -0.03295594 0.00052029
v -0.12419067 -0.03295594 0.00052029
v -0.12419067 -0.03295594 0.00052029
v -0.12419067 -0.03295594 0.00052029
v -0.12419067 -0.03295594 0.00052029
v -0.12419067 -0.03295594 0.00052029
v -0.12419067 -0.03295594 0.00052029
v -0.12419067 -0.03295594 0.00052029
v -0.12419067 -0.00006975 0.00053266
v -0.12419067 -0.00006975 0.00053266
v -0.12419067 -0.00006975 0.00053266
v -0.12419067 -0.00006975 0.00053266
v -0.12419067 -0.00006975 0.00053266
v -0.12419067 -0.00006975 0.00053266
v -0.12158941 -0.00006975 -0.00017011
v -0.12158941 -0.00006975 -0.00017011
v -0.12158941 -0.00006975 -0.00017011
v -0.13642998 -0.03295594 0.01834078
v -0.13642998 -0.03295594 0.01834078
v -0.13642998 -0.03295594 0.01834078
v -0.13648094 -0.02786707 0.01834078
v -0.13648094 -0.02786707 0.01834078
v -0.13648094 -0.02786707 0.01834078
v -0.13648094 -0.02786707 0.01834078
v -0.13226798 -0.03295594 0.00632581
v -0.13226798 -0.03295594 0.00632581
v -0.13226798 -0.03295594 0.00632581
v -0.13226798 -0.03295594 0.00632581
v -0.13226798 -0.03295594 0.00632581
v -0.13226798 -0.03295594 0.00632581
v -0.12848140 -0.03801696 0.00197734
v -0.12848140 -0.03801696 0.00197734
v -0.12848140 -0.03801696 0.00197734
v -0.12848140 -0.03801696 0.00197734
v -0.12848140 -0.03801696 0.00197734
v -0.12419067 -0.04308494 0.00053060
v -0.12419067 -0.04308494 0.00053060
v -0.12419067 -0.04308494 0.00053060
v -0.12419067 -0.04308494 0.00053060
v -0.12419067 -0.04308494 0.00053060
v -0.12419067 -0.04308494 0.00053060
v -0.12419067 -0.04308494 0.00053060
v -0.12419067 -0.04308494 0.00053060
v -0.13105853 -0.02788100 0.00376825
v -0.13105853 -0.02788100 0.00376825
v -0.13105853 -0.02788100 0.00376825
v -0.13105853 -0.02788100 0.00376825
v -0.13105853 -0.02788100 0.00376825
v -0.13105853 -0.02788100 0.00376825
v -0.12853504 -0.01267705 0.00197528
v -0.12853504 -0.01267705 0.00197528
v -0.12853504 -0.01267705 0.00197528
v -0.12853504 -0.01267705 0.00197528
v -0.12852967 -0.02281301 0.00197528
v -0.12852967 -0.02281301 0.00197528
v -0.12852967 -0.02281301 0.00197528
v -0.12852967 -0.02281301 0.00197528
v -0.12852431 -0.02788100 0.00197528
v -0.12852431 -0.02788100 0.00197528
v -0.12852431 -0.02788100 0.00197528
v -0.12852431 -0.02788100 0.00197528
v -0.12852431 -0.02788100 0.00197528
v -0.12852431 -0.02788100 0.00197528
v -0.13106657 -0.01774503 0.00375382
v -0.13106657 -0.01774503 0.00375382
v -0.13106657 -0.01774503 0.00375382
v -0.13106657 -0.01774503 0.00375382
v -0.13106657 -0.01774503 0.00375382
v -0.13227602 -0.02788100 0.00630314
v -0.13227602 -0.02788100 0.00630314
v -0.13227602 -0.02788100 0.00630314
v -0.13227602 -0.02788100 0.00630314
v -0.13227602 -0.02788100 0.00630314
v -0.13227602 -0.02788100 0.00630314
v -0.13227602 -0.02788100 0.00630314
v -0.13651580 -0.02278517 0.01834078
v -0.13651580 -0.02278517 0.01834078
v -0.13651580 -0.02278517 0.01834078
v -0.13651580 -0.02278517 0.01834078
v -0.12630117 -0.00006975 0.00123542
v -0.12630117 -0.00006975 0.00123542
v -0.12630117 -0.00006975 0.00123542
v -0.12851090 -0.03295594 0.00197528
v -0.12851090 -0.03295594 0.00197528
v -0.12851090 -0.03295594 0.00197528
v -0.12851090 -0.03295594 0.00197528
v -0.12851090 -0.03295594 0.00197528
v -0.12851090 -0.03295594 0.00197528
v -0.13106389 -0.02281301 0.00376001
v -0.13106389 -0.02281301 0.00376001
v -0.13106389 -0.02281301 0.00376001
v -0.13106389 -0.02281301 0.00376001
v -0.13106389 -0.02281301 0.00376001
f 1 5 19
f 1 19 41
f 1 41 113
f 1 113 228
f 1 228 169
f 1 169 77
f 1 77 29
f 1 29 10
f 3 11 32
f 4 33 72
f 3 71 166
f 3 166 198
f 3 198 316
f 3 316 451
f 3 451 456
f 3 456 320
f 3 320 205
f 3 205 101
f 3 101 38
f 3 38 15
f 2 14 8
f 7 13 23
f 6 22 67
f 6 67 157
f 6 157 278
f 6 278 413
f 6 413 555
f 6 555 500
f 6 500 496
f 6 496 370
f 6 370 366
f 6 366 363
f 6 363 360
f 6 360 231
f 6 231 117
f 6 117 49
f 6 49 20
f 9 28 31
f 12 37 97
f 12 97 202
f 12 202 225
f 12 225 357
f 12 357 354
f 12 354 493
f 12 493 490
f 12 490 558
f 12 558 426
f 12 426 416
f 12 416 281
f 12 281 163
f 12 163 66
f 12 66 21
f 16 48 52
f 17 53 57
f 18 61 39
f 27 69 30
f 24 76 80
f 25 81 86
f 26 87 68
f 34 93 96
f 36 98 107
f 35 106 94
f 40 62 109
f 42 116 119
f 43 120 125
f 44 126 129
f 45 130 133
f 46 134 137
f 47 138 50
f 51 139 54
f 64 142 110
f 55 140 135
f 56 136 131
f 58 132 127
f 59 128 122
f 60 124 151
f 63 152 141
f 65 158 154
f 70 89 164
f 73 168 178
f 74 179 181
f 75 183 79
f 78 182 85
f 84 189 191
f 88 194 196
f 90 197 165
f 83 180 177
f 82 176 186
f 92 201 95
f 91 105 200
f 100 203 212
f 99 210 108
f 102 220 223
f 104 224 199
f 103 208 221
f 112 172 226
f 111 149 171
f 114 230 237
f 115 238 118
f 121 241 243
f 123 244 150
f 147 249 251
f 148 252 170
f 143 153 245
f 144 246 260
f 145 261 264
f 146 266 247
f 156 270 276
f 155 159 269
f 162 279 285
f 161 282 291
f 160 290 272
f 167 227 174
f 173 256 294
f 175 298 185
f 184 297 303
f 187 305 307
f 188 308 190
f 192 310 313
f 193 314 195
f 204 319 213
f 211 318 325
f 209 321 333
f 207 332 338
f 206 337 219
f 215 343 350
f 214 349 352
f 217 353 355
f 218 356 222
f 216 336 345
f 229 359 235
f 234 358 362
f 233 361 365
f 232 364 367
f 236 369 372
f 239 377 258
f 240 259 242
f 248 267 250
f 253 268 381
f 254 382 385
f 255 387 293
f 262 378 265
f 257 376 394
f 263 395 379
f 275 399 407
f 271 406 277
f 273 292 283
f 274 284 398
f 277 406 412
f 280 414 286
f 289 418 526
f 289 526 403
f 287 415 423
f 288 424 417
f 296 429 300
f 295 388 427
f 299 428 389
f 301 391 431
f 302 432 436
f 304 438 306
f 309 440 442
f 311 445 448
f 312 449 315
f 317 455 324
f 323 454 460
f 322 458 334
f 326 464 469
f 328 470 342
f 329 344 335
f 331 457 444
f 330 443 475
f 327 473 465
f 339 483 487
f 341 488 346
f 340 467 484
f 347 489 491
f 348 492 351
f 368 494 371
f 373 495 497
f 374 498 501
f 375 506 393
f 380 396 507
f 383 510 512
f 384 513 386
f 390 516 430
f 392 505 522
f 397 523 508
f 404 527 531
f 402 530 537
f 401 536 544
f 400 540 408
f 409 541 548
f 405 547 411
f 410 546 554
f 420 425 556
f 421 557 485
f 422 486 481
f 419 480 529
f 433 519 462
f 434 463 471
f 435 472 437
f 439 474 441
f 447 453 450
f 446 459 452
f 461 518 468
f 466 517 482
f 477 515 564
f 476 563 538
f 478 539 532
f 479 533 528
f 499 552 502
f 503 553 545
f 504 551 521
f 509 524 559
f 511 562 514
f 520 550 566
f 525 567 560
f 534 561 568
f 535 569 543
f 542 565 549

