# https://github.com/mikedh/trimesh
v 0.00528895 0.08914877 0.00760244
v 0.00528895 0.08914877 0.00760244
v 0.00528895 0.08914877 0.00760244
v 0.00528895 0.08914877 0.00760244
v 0.00528895 0.08914877 0.00760244
v 0.01543554 0.08914003 0.00760244
v 0.01543554 0.08914003 0.00760244
v 0.01543554 0.08914003 0.00760244
v 0.01543554 0.08914003 0.00760244
v 0.01268284 0.08832854 0.00528686
v 0.01268284 0.08832854 0.00528686
v 0.01268284 0.08832854 0.00528686
v 0.01268284 0.08832854 0.00528686
v 0.01268284 0.08832854 0.00528686
v 0.01268284 0.08832854 0.00528686
v 0.00760421 0.08832854 0.00528686
v 0.00760421 0.08832854 0.00528686
v 0.00760421 0.08832854 0.00528686
v 0.00760421 0.08832854 0.00528686
v 0.00760421 0.08832854 0.00528686
v -0.00002440 0.08831982 0.00528686
v -0.00002440 0.08831982 0.00528686
v -0.00002440 0.08831982 0.00528686
v -0.00002440 0.08831982 0.00528686
v -0.00002440 0.08831982 0.00528686
v -0.00002440 0.08914003 0.00760244
v -0.00002440 0.08914003 0.00760244
v -0.00002440 0.08914003 0.00760244
v 0.01775079 0.08831982 0.00528686
v 0.01775079 0.08831982 0.00528686
v 0.01775079 0.08831982 0.00528686
v 0.01775079 0.08831982 0.00528686
v 0.01775079 0.08831982 0.00528686
v 0.02050350 0.08912259 0.00760244
v 0.02050350 0.08912259 0.00760244
v 0.02050350 0.08912259 0.00760244
v 0.01268284 0.08669683 0.00235265
v 0.01268284 0.08669683 0.00235265
v 0.01268284 0.08669683 0.00235265
v 0.01268284 0.08669683 0.00235265
v 0.01268284 0.08669683 0.00235265
v 0.01775079 0.08669683 0.00235365
v 0.01775079 0.08669683 0.00235365
v 0.01775079 0.08669683 0.00235365
v 0.01775079 0.08669683 0.00235365
v 0.01775079 0.08669683 0.00235365
v 0.01775079 0.08669683 0.00235365
v 0.01775079 0.08669683 0.00235365
v 0.00760421 0.08669683 0.00235466
v 0.00760421 0.08669683 0.00235466
v 0.00760421 0.08669683 0.00235466
v 0.00760421 0.08669683 0.00235466
v 0.00760421 0.08669683 0.00235466
v 0.00760421 0.08669683 0.00235466
v 0.00760421 0.08669683 0.00235466
v -0.00002440 0.08668809 0.00236069
v -0.00002440 0.08668809 0.00236069
v -0.00002440 0.08668809 0.00236069
v -0.00002440 0.07308459 0.00760244
v -0.00002440 0.07308459 0.00760244
v -0.00002440 0.07308459 0.00760244
v -0.00002440 0.07308459 0.00760244
v 0.02281875 0.08830236 0.00528686
v 0.02281875 0.08830236 0.00528686
v 0.02281875 0.08830236 0.00528686
v 0.02281875 0.08830236 0.00528686
v 0.02281875 0.08830236 0.00528686
v 0.02281875 0.08830236 0.00528686
v 0.02281875 0.08830236 0.00528686
v 0.02281875 0.08668809 0.00235868
v 0.02281875 0.08668809 0.00235868
v 0.02281875 0.08668809 0.00235868
v 0.02281875 0.08668809 0.00235868
v 0.02281875 0.08668809 0.00235868
v 0.02281875 0.08668809 0.00235868
v 0.02281875 0.08911386 0.00760244
v 0.02281875 0.08911386 0.00760244
v 0.02281875 0.08911386 0.00760244
v 0.02281875 0.08911386 0.00760244
v 0.02281875 0.08911386 0.00760244
v 0.01268284 0.08363406 0.00129444
v 0.01268284 0.08363406 0.00129444
v 0.01268284 0.08363406 0.00129444
v 0.01268284 0.08363406 0.00129444
v 0.01268284 0.08363406 0.00129444
v 0.01268284 0.08363406 0.00129444
v 0.01268284 0.08363406 0.00129444
v 0.01268284 0.08363406 0.00129444
v 0.01268284 0.08363406 0.00129444
v 0.01268284 0.08363406 0.00129444
v 0.01775079 0.08363406 0.00129645
v 0.01775079 0.08363406 0.00129645
v 0.01775079 0.08363406 0.00129645
v 0.01775079 0.08363406 0.00129645
v 0.01775079 0.08363406 0.00129645
v 0.01775079 0.08363406 0.00129645
v 0.02281875 0.08363406 0.00130148
v 0.02281875 0.08363406 0.00130148
v 0.02281875 0.08363406 0.00130148
v 0.02281875 0.08363406 0.00130148
v 0.02281875 0.08363406 0.00130148
v 0.02281875 0.08363406 0.00130148
v 0.02281875 0.08363406 0.00130148
v 0.00760421 0.08363406 0.00129746
v 0.00760421 0.08363406 0.00129746
v 0.00760421 0.08363406 0.00129746
v 0.00760421 0.08363406 0.00129746
v 0.00760421 0.08363406 0.00129746
v -0.00002440 0.08517854 0.00183863
v -0.00002440 0.08517854 0.00183863
v -0.00002440 0.08517854 0.00183863
v -0.00002440 0.08517854 0.00183863
v -0.00002440 0.00000610 0.00599602
v -0.00002440 0.00000610 0.00599602
v -0.00002440 0.00000610 0.00599602
v 0.00253625 0.00000610 0.00599702
v 0.00253625 0.00000610 0.00599702
v 0.00253625 0.00000610 0.00599702
v 0.00253625 0.00000610 0.00599702
v 0.10896338 0.07168847 0.00760244
v 0.10896338 0.07168847 0.00760244
v 0.10896338 0.07168847 0.00760244
v 0.10896338 0.07168847 0.00760244
v 0.07856629 0.08783118 0.00528686
v 0.07856629 0.08783118 0.00528686
v 0.07856629 0.08783118 0.00528686
v 0.07856629 0.08783118 0.00528686
v 0.09883813 0.08646122 0.00247738
v 0.09883813 0.08646122 0.00247738
v 0.09883813 0.08646122 0.00247738
v 0.09883813 0.08646122 0.00247738
v 0.09883813 0.08646122 0.00247738
v 0.09883813 0.08646122 0.00247738
v 0.09883813 0.08646122 0.00247738
v 0.09377017 0.08647868 0.00246933
v 0.09377017 0.08647868 0.00246933
v 0.09377017 0.08647868 0.00246933
v 0.09377017 0.08647868 0.00246933
v 0.09883813 0.08363406 0.00145136
v 0.09883813 0.08363406 0.00145136
v 0.09883813 0.08363406 0.00145136
v 0.09883813 0.08363406 0.00145136
v 0.09883813 0.08363406 0.00145136
v 0.09883813 0.08363406 0.00145136
v 0.09883813 0.08363406 0.00145136
v 0.06336242 0.08874738 0.00760244
v 0.06336242 0.08874738 0.00760244
v 0.06336242 0.08874738 0.00760244
v 0.09883813 0.08765665 0.00528686
v 0.09883813 0.08765665 0.00528686
v 0.09883813 0.08765665 0.00528686
v 0.09883813 0.08765665 0.00528686
v 0.09883813 0.08765665 0.00528686
v 0.09883813 0.08765665 0.00528686
v 0.09883813 0.08765665 0.00528686
v 0.09883813 0.08765665 0.00528686
v 0.00760421 0.07349470 -0.00142350
v 0.00760421 0.07349470 -0.00142350
v 0.00760421 0.07349470 -0.00142350
v 0.00760421 0.07349470 -0.00142350
v 0.08870222 0.07349470 -0.00141143
v 0.08870222 0.07349470 -0.00141143
v 0.08870222 0.07349470 -0.00141143
v 0.08870222 0.07349470 -0.00141143
v 0.08870222 0.07349470 -0.00141143
v 0.04815855 0.07349470 -0.00142451
v 0.04815855 0.07349470 -0.00142451
v 0.04815855 0.07349470 -0.00142451
v 0.04815855 0.07349470 -0.00142451
v 0.04309059 0.07349470 -0.00142551
v 0.04309059 0.07349470 -0.00142551
v 0.04309059 0.07349470 -0.00142551
v 0.04309059 0.07349470 -0.00142551
v 0.02788671 0.07349470 -0.00142753
v 0.02788671 0.07349470 -0.00142753
v 0.02788671 0.07349470 -0.00142753
v 0.02788671 0.07349470 -0.00142753
v 0.02788671 0.07349470 -0.00142753
v 0.02788671 0.07349470 -0.00142753
v 0.02788671 0.07349470 -0.00142753
v 0.09883813 0.07349470 -0.00140439
v 0.09883813 0.07349470 -0.00140439
v 0.09883813 0.07349470 -0.00140439
v 0.09883813 0.07349470 -0.00140439
v 0.09883813 0.07349470 -0.00140439
v 0.09377017 0.07349470 -0.00140841
v 0.09377017 0.07349470 -0.00140841
v 0.09377017 0.07349470 -0.00140841
v 0.09377017 0.07349470 -0.00140841
v 0.09883813 0.07856438 -0.00000317
v 0.09883813 0.07856438 -0.00000317
v 0.09883813 0.07856438 -0.00000317
v 0.09883813 0.07856438 -0.00000317
v 0.10390609 0.07349470 -0.00139835
v 0.10390609 0.07349470 -0.00139835
v 0.10390609 0.07349470 -0.00139835
v 0.10390609 0.07349470 -0.00139835
v 0.10390609 0.07349470 -0.00139835
v 0.10390609 0.07349470 -0.00139835
v 0.10390609 0.07349470 -0.00139835
v -0.00002440 0.07349470 -0.00141847
v -0.00002440 0.07349470 -0.00141847
v -0.00002440 0.07349470 -0.00141847
v -0.00002440 0.07349470 -0.00141847
v -0.00002440 0.07349470 -0.00141847
v -0.00002440 0.07349470 -0.00141847
v -0.00002440 0.08363406 0.00130752
v -0.00002440 0.08363406 0.00130752
v -0.00002440 0.08363406 0.00130752
v -0.00002440 0.00000610 -0.00262455
v -0.00002440 0.00000610 -0.00262455
v -0.00002440 0.00000610 -0.00262455
v -0.00002440 0.00000610 -0.00262455
v 0.10897405 0.00000610 0.00601412
v 0.10897405 0.00000610 0.00601412
v 0.10897405 0.00000610 0.00601412
v 0.10897405 0.00000610 0.00601412
v 0.10897405 0.00000610 0.00601412
v 0.10897405 0.07417531 0.00760244
v 0.10897405 0.07417531 0.00760244
v 0.10897405 0.07417531 0.00760244
v 0.10390609 0.08636523 0.00256187
v 0.10390609 0.08636523 0.00256187
v 0.10390609 0.08636523 0.00256187
v 0.10390609 0.08636523 0.00256187
v 0.10390609 0.08636523 0.00256187
v 0.10390609 0.08363406 0.00154290
v 0.10390609 0.08363406 0.00154290
v 0.10390609 0.08363406 0.00154290
v 0.10390609 0.08363406 0.00154290
v 0.10390609 0.08363406 0.00154290
v 0.10390609 0.08363406 0.00154290
v 0.10390609 0.08363406 0.00154290
v 0.10390609 0.07856438 0.00000789
v 0.10390609 0.07856438 0.00000789
v 0.10390609 0.07856438 0.00000789
v 0.10390609 0.07856438 0.00000789
v 0.10390609 0.07856438 0.00000789
v 0.08638696 0.08852923 0.00760244
v 0.08638696 0.08852923 0.00760244
v 0.08638696 0.08852923 0.00760244
v 0.09883813 0.08840708 0.00760244
v 0.09883813 0.08840708 0.00760244
v 0.09883813 0.08840708 0.00760244
v 0.10390609 0.08747341 0.00528686
v 0.10390609 0.08747341 0.00528686
v 0.10390609 0.08747341 0.00528686
v 0.10390609 0.08747341 0.00528686
v 0.10390609 0.08747341 0.00528686
v 0.10390609 0.08747341 0.00528686
v 0.00760421 0.07010909 -0.00221414
v 0.00760421 0.07010909 -0.00221414
v 0.00760421 0.07010909 -0.00221414
v 0.00760421 0.07010909 -0.00221414
v 0.00760421 0.07010909 -0.00221414
v 0.08870222 0.07010909 -0.00221313
v 0.08870222 0.07010909 -0.00221313
v 0.08870222 0.07010909 -0.00221313
v 0.08870222 0.07010909 -0.00221313
v 0.08870222 0.07010909 -0.00221313
v 0.08870222 0.07010909 -0.00221313
v 0.08870222 0.07010909 -0.00221313
v 0.01268284 0.07010909 -0.00221515
v 0.01268284 0.07010909 -0.00221515
v 0.01268284 0.07010909 -0.00221515
v 0.01268284 0.07010909 -0.00221515
v 0.01268284 0.07010909 -0.00221515
v 0.05829446 0.07010909 -0.00221615
v 0.05829446 0.07010909 -0.00221615
v 0.05829446 0.07010909 -0.00221615
v 0.05829446 0.07010909 -0.00221615
v 0.05322650 0.07010909 -0.00221615
v 0.05322650 0.07010909 -0.00221615
v 0.05322650 0.07010909 -0.00221615
v 0.05322650 0.07010909 -0.00221615
v 0.09377017 0.07010037 -0.00221213
v 0.09377017 0.07010037 -0.00221213
v 0.09377017 0.07010037 -0.00221213
v 0.09377017 0.07010037 -0.00221213
v 0.09377017 0.07010037 -0.00221213
v 0.09377017 0.07010037 -0.00221213
v 0.09377017 0.07010037 -0.00221213
v 0.10897405 0.07351215 -0.00125250
v 0.10897405 0.07351215 -0.00125250
v 0.10897405 0.07351215 -0.00125250
v 0.10897405 0.07351215 -0.00125250
v 0.10390609 0.07006546 -0.00220710
v 0.10390609 0.07006546 -0.00220710
v 0.10390609 0.07006546 -0.00220710
v 0.10390609 0.07006546 -0.00220710
v 0.10390609 0.07006546 -0.00220710
v 0.10390609 0.07006546 -0.00220710
v 0.00253625 0.07010037 -0.00221213
v 0.00253625 0.07010037 -0.00221213
v 0.00253625 0.07010037 -0.00221213
v 0.00253625 0.07010037 -0.00221213
v 0.00253625 0.07010037 -0.00221213
v -0.00002440 0.07181062 -0.00181077
v -0.00002440 0.07181062 -0.00181077
v -0.00002440 0.07181062 -0.00181077
v -0.00002440 0.06335533 -0.00265372
v -0.00002440 0.06335533 -0.00265372
v -0.00002440 0.06335533 -0.00265372
v -0.00002440 0.06335533 -0.00265372
v -0.00002440 0.06335533 -0.00265372
v -0.00002440 0.06335533 -0.00265372
v 0.10897405 0.00001482 -0.00267082
v 0.10897405 0.00001482 -0.00267082
v 0.10897405 0.00001482 -0.00267082
v 0.10897405 0.00001482 -0.00267082
v 0.10897405 0.00001482 -0.00267082
v 0.10897405 0.00001482 -0.00267082
v 0.10643474 0.00000610 -0.00266076
v 0.10643474 0.00000610 -0.00266076
v 0.10643474 0.00000610 -0.00266076
v 0.10897405 0.00000610 -0.00263159
v 0.10897405 0.00000610 -0.00263159
v 0.10897405 0.00000610 -0.00263159
v 0.10897405 0.08772647 0.00760244
v 0.10897405 0.08772647 0.00760244
v 0.10897405 0.08772647 0.00760244
v 0.10897405 0.08772647 0.00760244
v 0.10708558 0.08624309 0.00267755
v 0.10708558 0.08624309 0.00267755
v 0.10708558 0.08624309 0.00267755
v 0.10708558 0.08624309 0.00267755
v 0.10708558 0.08624309 0.00267755
v 0.10708558 0.08624309 0.00267755
v 0.10708558 0.08624309 0.00267755
v 0.10708558 0.08624309 0.00267755
v 0.10885669 0.08398310 0.00194727
v 0.10885669 0.08398310 0.00194727
v 0.10885669 0.08398310 0.00194727
v 0.10885669 0.08398310 0.00194727
v 0.10885669 0.08398310 0.00194727
v 0.10897405 0.07858183 0.00015375
v 0.10897405 0.07858183 0.00015375
v 0.10897405 0.07858183 0.00015375
v 0.10897405 0.07858183 0.00015375
v 0.10897405 0.07858183 0.00015375
v 0.10390609 0.08822383 0.00760244
v 0.10390609 0.08822383 0.00760244
v 0.10390609 0.08822383 0.00760244
v 0.10644540 0.08797951 0.00760244
v 0.10644540 0.08797951 0.00760244
v 0.10644540 0.08797951 0.00760244
v 0.10644540 0.08797951 0.00760244
v 0.10885669 0.08688878 0.00498207
v 0.10885669 0.08688878 0.00498207
v 0.10885669 0.08688878 0.00498207
v 0.10885669 0.08688878 0.00498207
v 0.10885669 0.08688878 0.00498207
v 0.10885669 0.08688878 0.00498207
v -0.00002440 0.06756116 -0.00248875
v -0.00002440 0.06756116 -0.00248875
v -0.00002440 0.06756116 -0.00248875
v -0.00002440 0.06756116 -0.00248875
v -0.00002440 0.06756116 -0.00248875
v -0.00002440 0.06756116 -0.00248875
v -0.00002440 0.06756116 -0.00248875
v -0.00002440 0.06756116 -0.00248875
v 0.08870222 0.06757862 -0.00248976
v 0.08870222 0.06757862 -0.00248976
v 0.08870222 0.06757862 -0.00248976
v 0.08870222 0.06757862 -0.00248976
v 0.08870222 0.06757862 -0.00248976
v 0.08870222 0.06757862 -0.00248976
v 0.08870222 0.06757862 -0.00248976
v 0.08870222 0.06757862 -0.00248976
v 0.00760421 0.06757862 -0.00248774
v 0.00760421 0.06757862 -0.00248774
v 0.00760421 0.06757862 -0.00248774
v 0.10390609 0.06752626 -0.00248774
v 0.10390609 0.06752626 -0.00248774
v 0.10390609 0.06752626 -0.00248774
v 0.10390609 0.06752626 -0.00248774
v 0.10390609 0.06752626 -0.00248774
v 0.10390609 0.06752626 -0.00248774
v 0.10897405 0.06961173 -0.00213668
v 0.10897405 0.06961173 -0.00213668
v 0.10897405 0.06961173 -0.00213668
v 0.10897405 0.06707252 -0.00244952
v 0.10897405 0.06707252 -0.00244952
v 0.10897405 0.06707252 -0.00244952
v 0.10897405 0.06707252 -0.00244952
v -0.00002440 0.07009164 -0.00221112
v -0.00002440 0.07009164 -0.00221112
v -0.00002440 0.07009164 -0.00221112
v 0.08870222 0.06335533 -0.00265875
v 0.08870222 0.06335533 -0.00265875
v 0.08870222 0.06335533 -0.00265875
v 0.08870222 0.06335533 -0.00265875
v 0.08870222 0.06335533 -0.00265875
v 0.08870222 0.06335533 -0.00265875
v 0.10897405 0.05323342 -0.00266679
v 0.10897405 0.05323342 -0.00266679
v 0.10897405 0.05323342 -0.00266679
v 0.10897405 0.05323342 -0.00266679
v 0.10897405 0.00762371 -0.00267283
v 0.10897405 0.00762371 -0.00267283
v 0.10897405 0.00762371 -0.00267283
v 0.10897405 0.08682771 0.00485533
v 0.10897405 0.08682771 0.00485533
v 0.10897405 0.08682771 0.00485533
v 0.10897405 0.08682771 0.00485533
v 0.10892070 0.08773519 0.00760244
v 0.10892070 0.08773519 0.00760244
v 0.10892070 0.08773519 0.00760244
v 0.10897405 0.08411398 0.00202472
v 0.10897405 0.08411398 0.00202472
v 0.10897405 0.08411398 0.00202472
v 0.10897405 0.08395692 0.00194827
v 0.10897405 0.08395692 0.00194827
v 0.10897405 0.08395692 0.00194827
v 0.10897405 0.08395692 0.00194827
v 0.10897405 0.08386967 0.00191910
v 0.10897405 0.08386967 0.00191910
v 0.10897405 0.08386967 0.00191910
v 0.10390609 0.06335533 -0.00265472
v 0.10390609 0.06335533 -0.00265472
v 0.10390609 0.06335533 -0.00265472
v 0.10390609 0.06335533 -0.00265472
v 0.10897405 0.06337278 -0.00261952
v 0.10897405 0.06337278 -0.00261952
v 0.10897405 0.06337278 -0.00261952
v 0.10897405 0.06337278 -0.00261952
v 0.10897405 0.05830310 -0.00266277
v 0.10897405 0.05830310 -0.00266277
v 0.10897405 0.05830310 -0.00266277
v 0.10897405 0.05830310 -0.00266277
f 5 7 13
f 3 11 20
f 2 16 24
f 1 22 27
f 4 28 62
f 4 62 122
f 4 122 219
f 4 219 319
f 4 319 406
f 4 406 344
f 4 344 341
f 4 341 242
f 4 242 239
f 4 239 146
f 4 146 76
f 4 76 34
f 4 34 6
f 8 30 15
f 9 35 64
f 9 64 33
f 10 39 19
f 14 29 47
f 12 42 40
f 17 52 25
f 18 38 55
f 21 56 109
f 21 109 207
f 21 207 201
f 21 201 298
f 21 298 386
f 21 386 354
f 21 354 301
f 21 301 210
f 21 210 113
f 21 113 59
f 21 59 26
f 23 49 57
f 32 63 74
f 31 72 48
f 36 77 66
f 41 43 87
f 37 83 54
f 44 92 90
f 46 70 101
f 45 97 95
f 53 82 108
f 51 106 112
f 50 111 58
f 60 114 116
f 61 117 120
f 69 78 126
f 68 124 130
f 67 129 138
f 65 137 75
f 73 135 142
f 71 140 103
f 80 147 151
f 79 150 127
f 81 158 107
f 89 91 163
f 88 162 169
f 86 167 173
f 85 171 180
f 84 175 160
f 96 98 183
f 94 182 189
f 93 187 165
f 102 139 191
f 100 190 196
f 99 194 184
f 107 158 206
f 104 202 208
f 105 209 110
f 115 213 314
f 115 314 316
f 115 316 215
f 115 215 119
f 118 214 121
f 123 216 220
f 125 149 131
f 134 154 223
f 133 222 229
f 132 227 144
f 128 143 136
f 145 228 236
f 141 235 193
f 148 240 152
f 153 241 243
f 156 244 342
f 156 342 246
f 155 245 224
f 157 253 205
f 159 174 255
f 164 186 262
f 161 260 168
f 166 259 172
f 170 258 179
f 174 264 255
f 178 257 271
f 177 269 275
f 176 274 267
f 185 195 281
f 181 279 188
f 186 278 262
f 192 234 198
f 199 238 337
f 199 337 283
f 200 284 291
f 197 288 282
f 203 294 300
f 204 251 296
f 211 302 307
f 212 309 313
f 217 318 311
f 218 312 401
f 218 401 398
f 218 398 430
f 218 430 426
f 218 426 385
f 218 385 381
f 218 381 286
f 218 286 340
f 218 340 418
f 218 418 415
f 218 415 411
f 218 411 405
f 218 405 322
f 218 322 221
f 226 247 324
f 225 323 231
f 232 325 331
f 233 332 338
f 230 336 237
f 249 343 345
f 250 346 349
f 248 348 327
f 254 263 357
f 252 356 297
f 261 276 368
f 256 366 270
f 265 370 359
f 266 273 372
f 268 364 272
f 273 365 372
f 280 287 375
f 277 374 369
f 285 380 292
f 290 379 384
f 289 383 378
f 295 355 388
f 293 387 299
f 306 358 390
f 304 389 395
f 305 396 400
f 303 399 308
f 310 317 315
f 321 403 353
f 320 352 408
f 328 351 402
f 330 404 410
f 329 409 414
f 326 413 335
f 334 412 417
f 333 416 339
f 347 407 350
f 361 371 363
f 360 362 392
f 367 373 420
f 367 420 394
f 377 382 425
f 376 423 421
f 393 419 428
f 391 427 397
f 422 424 429

