# https://github.com/mikedh/trimesh
v -0.12232956 0.07124650 0.01508121
v -0.12232956 0.07124650 0.01508121
v -0.12232956 0.07124650 0.01508121
v -0.12232956 0.07124650 0.01508121
v -0.13276809 0.07124650 0.01508121
v -0.13276809 0.07124650 0.01508121
v -0.13276809 0.07124650 0.01508121
v -0.13276809 0.07124650 0.01508121
v -0.13276809 0.07124650 0.01508121
v -0.13276809 0.07124650 0.01508121
v -0.13276809 0.07124650 0.01508121
v -0.12351750 0.07124650 0.01804598
v -0.12351750 0.07124650 0.01804598
v -0.12351750 0.07124650 0.01804598
v -0.12351750 0.07124650 0.01804598
v -0.12371853 -0.07118857 0.01834141
v -0.12371853 -0.07118857 0.01834141
v -0.12371853 -0.07118857 0.01834141
v -0.12371853 -0.07118857 0.01834141
v -0.12371853 -0.07118857 0.01834141
v -0.12638376 -0.00006863 0.01508121
v -0.12638376 -0.00006863 0.01508121
v -0.12638376 -0.00006863 0.01508121
v -0.13901536 0.07124650 0.02174079
v -0.13901536 0.07124650 0.02174079
v -0.13901536 0.07124650 0.02174079
v -0.13319453 0.06876477 0.01508121
v -0.13319453 0.06876477 0.01508121
v -0.13319453 0.06876477 0.01508121
v -0.15336795 0.04308296 0.02175129
v -0.15336795 0.04308296 0.02175129
v -0.15336795 0.04308296 0.02175129
v -0.15336795 0.04308296 0.02175129
v -0.15336795 0.04308296 0.02175129
v -0.15336795 0.04308296 0.02175129
v -0.15336795 0.04308296 0.02175129
v -0.15336795 0.04308296 0.02175129
v -0.15336795 0.04308296 0.02175129
v -0.15271613 0.04814403 0.02238416
v -0.15271613 0.04814403 0.02238416
v -0.15271613 0.04814403 0.02238416
v -0.15271613 0.04814403 0.02238416
v -0.15210693 0.05075125 0.02298027
v -0.15210693 0.05075125 0.02298027
v -0.15210693 0.05075125 0.02298027
v -0.15210693 0.05075125 0.02298027
v -0.14262483 0.06723111 0.02237497
v -0.14262483 0.06723111 0.02237497
v -0.14262483 0.06723111 0.02237497
v -0.14262483 0.06723111 0.02237497
v -0.12457140 0.07124650 0.02052625
v -0.12457140 0.07124650 0.02052625
v -0.12457140 0.07124650 0.02052625
v -0.12461709 -0.07118857 0.02052100
v -0.12461709 -0.07118857 0.02052100
v -0.12461709 -0.07118857 0.02052100
v -0.12461709 -0.07118857 0.02052100
v -0.12461709 -0.07118857 0.02052100
v -0.13484240 -0.07118857 0.01834141
v -0.13484240 -0.07118857 0.01834141
v -0.13484240 -0.07118857 0.01834141
v -0.13484240 -0.07118857 0.01834141
v -0.13484240 -0.07118857 0.01834141
v -0.13484240 -0.07118857 0.01834141
v -0.13484240 -0.07118857 0.01834141
v -0.13484240 -0.07118857 0.01834141
v -0.13507390 -0.00006863 0.01508121
v -0.13507390 -0.00006863 0.01508121
v -0.13507390 -0.00006863 0.01508121
v -0.13507390 -0.00006863 0.01508121
v -0.13507390 -0.00006863 0.01508121
v -0.13507390 -0.00006863 0.01508121
v -0.13507390 -0.00006863 0.01508121
v -0.13901536 0.07124650 0.02524783
v -0.13901536 0.07124650 0.02524783
v -0.13901536 0.07124650 0.02524783
v -0.13323718 0.06841621 0.01508121
v -0.13323718 0.06841621 0.01508121
v -0.13323718 0.06841621 0.01508121
v -0.14953613 0.04308296 0.02036870
v -0.14953613 0.04308296 0.02036870
v -0.14953613 0.04308296 0.02036870
v -0.14953613 0.04308296 0.02036870
v -0.14953613 0.04308296 0.02036870
v -0.14953613 0.04308296 0.02036870
v -0.15342888 0.03800794 0.02168170
v -0.15342888 0.03800794 0.02168170
v -0.15342888 0.03800794 0.02168170
v -0.15342888 0.03800794 0.02168170
v -0.15342888 0.03800794 0.02168170
v -0.15342888 0.03800794 0.02168170
v -0.15342888 0.03800794 0.02168170
v -0.15342888 0.03800794 0.02168170
v -0.15342888 0.03800794 0.02168170
v -0.15336795 0.04308296 0.02500755
v -0.15336795 0.04308296 0.02500755
v -0.15336795 0.04308296 0.02500755
v -0.15336795 0.04308296 0.02500755
v -0.15336795 0.04308296 0.02500755
v -0.13359965 0.06335514 0.01508121
v -0.13359965 0.06335514 0.01508121
v -0.13359965 0.06335514 0.01508121
v -0.13392556 0.05825223 0.01508121
v -0.13392556 0.05825223 0.01508121
v -0.13392556 0.05825223 0.01508121
v -0.13392556 0.05825223 0.01508121
v -0.15271613 0.04814403 0.02406481
v -0.15271613 0.04814403 0.02406481
v -0.15271613 0.04814403 0.02406481
v -0.15271613 0.04814403 0.02406481
v -0.15271613 0.04814403 0.02406481
v -0.15210693 0.05075125 0.02311945
v -0.15210693 0.05075125 0.02311945
v -0.15210693 0.05075125 0.02311945
v -0.15210693 0.05075125 0.02311945
v -0.14262483 0.06723111 0.02419217
v -0.14262483 0.06723111 0.02419217
v -0.14262483 0.06723111 0.02419217
v -0.14262483 0.06723111 0.02419217
v -0.14262483 0.06723111 0.02419217
v -0.14262483 0.06723111 0.02419217
v -0.12582025 0.07124650 0.02276362
v -0.12582025 0.07124650 0.02276362
v -0.12582025 0.07124650 0.02276362
v -0.12582025 0.07124650 0.02276362
v -0.12639594 -0.07118857 0.02359869
v -0.12639594 -0.07118857 0.02359869
v -0.12639594 -0.07118857 0.02359869
v -0.12639594 -0.07118857 0.02359869
v -0.13903365 -0.07118857 0.02173160
v -0.13903365 -0.07118857 0.02173160
v -0.13903365 -0.07118857 0.02173160
v -0.14261265 -0.06721500 0.02238941
v -0.14261265 -0.06721500 0.02238941
v -0.14261265 -0.06721500 0.02238941
v -0.14261265 -0.06721500 0.02238941
v -0.14261265 -0.06721500 0.02238941
v -0.14782125 -0.05728804 0.02229750
v -0.14782125 -0.05728804 0.02229750
v -0.14782125 -0.05728804 0.02229750
v -0.14782125 -0.05728804 0.02229750
v -0.15271003 -0.04814186 0.02238154
v -0.15271003 -0.04814186 0.02238154
v -0.15271003 -0.04814186 0.02238154
v -0.15271003 -0.04814186 0.02238154
v -0.15271003 -0.04814186 0.02238154
v -0.15336795 -0.04308078 0.02173291
v -0.15336795 -0.04308078 0.02173291
v -0.15336795 -0.04308078 0.02173291
v -0.15336795 -0.04308078 0.02173291
v -0.15336795 -0.04308078 0.02173291
v -0.14953309 -0.04308078 0.02034769
v -0.14953309 -0.04308078 0.02034769
v -0.14953309 -0.04308078 0.02034769
v -0.14953309 -0.04308078 0.02034769
v -0.14953309 -0.04308078 0.02034769
v -0.13507694 0.00759967 0.01508121
v -0.13507694 0.00759967 0.01508121
v -0.13507694 0.00759967 0.01508121
v -0.14953309 -0.03800577 0.02028729
v -0.14953309 -0.03800577 0.02028729
v -0.14953309 -0.03800577 0.02028729
v -0.15343802 -0.03800577 0.02166989
v -0.15343802 -0.03800577 0.02166989
v -0.15343802 -0.03800577 0.02166989
v -0.15343802 -0.03800577 0.02166989
v -0.15343802 -0.03800577 0.02166989
v -0.15343802 -0.03800577 0.02166989
v -0.15343802 -0.03800577 0.02166989
v -0.15344410 -0.02786968 0.02166726
v -0.15344410 -0.02786968 0.02166726
v -0.15344410 -0.02786968 0.02166726
v -0.15344410 -0.02786968 0.02166726
v -0.15344410 -0.02786968 0.02166726
v -0.13723043 0.07124650 0.02658448
v -0.13723043 0.07124650 0.02658448
v -0.13723043 0.07124650 0.02658448
v -0.13723043 0.07124650 0.02658448
v -0.13723043 0.07124650 0.02658448
v -0.13723043 0.07124650 0.02658448
v -0.13423320 0.05321905 0.01508121
v -0.13423320 0.05321905 0.01508121
v -0.13423320 0.05321905 0.01508121
v -0.13451647 0.04814403 0.01508121
v -0.13451647 0.04814403 0.01508121
v -0.13451647 0.04814403 0.01508121
v -0.13476321 0.04308296 0.01508121
v -0.13476321 0.04308296 0.01508121
v -0.13476321 0.04308296 0.01508121
v -0.13476321 0.04308296 0.01508121
v -0.13491550 0.03835650 0.01508121
v -0.13491550 0.03835650 0.01508121
v -0.13491550 0.03835650 0.01508121
v -0.13492159 0.03800794 0.01508121
v -0.13492159 0.03800794 0.01508121
v -0.13492159 0.03800794 0.01508121
v -0.13500992 0.03294686 0.01508121
v -0.13500992 0.03294686 0.01508121
v -0.13500992 0.03294686 0.01508121
v -0.13505257 0.02787185 0.01508121
v -0.13505257 0.02787185 0.01508121
v -0.13505257 0.02787185 0.01508121
v -0.13505257 0.02787185 0.01508121
v -0.15343193 0.03294686 0.02167514
v -0.15343193 0.03294686 0.02167514
v -0.15343193 0.03294686 0.02167514
v -0.15343193 0.03294686 0.02167514
v -0.15343193 0.03294686 0.02167514
v -0.15342888 0.03800794 0.02504825
v -0.15342888 0.03800794 0.02504825
v -0.15342888 0.03800794 0.02504825
v -0.15342888 0.03800794 0.02504825
v -0.15342888 0.03800794 0.02504825
v -0.15342888 0.03800794 0.02504825
v -0.15342888 0.03800794 0.02504825
v -0.14953613 0.04308296 0.02744056
v -0.14953613 0.04308296 0.02744056
v -0.14953613 0.04308296 0.02744056
v -0.14953613 0.04308296 0.02744056
v -0.14953613 0.04308296 0.02744056
v -0.14953613 0.04308296 0.02744056
v -0.14953613 0.04308296 0.02744056
v -0.14953613 0.04814403 0.02635864
v -0.14953613 0.04814403 0.02635864
v -0.14953613 0.04814403 0.02635864
v -0.14953613 0.04814403 0.02635864
v -0.14953613 0.04814403 0.02635864
v -0.14953613 0.04814403 0.02635864
v -0.14953613 0.04814403 0.02635864
v -0.14780907 0.05731810 0.02429590
v -0.14780907 0.05731810 0.02429590
v -0.14780907 0.05731810 0.02429590
v -0.14780907 0.05731810 0.02429590
v -0.14780907 0.05731810 0.02429590
v -0.14780907 0.05731810 0.02429590
v -0.14363914 0.06335514 0.02498917
v -0.14363914 0.06335514 0.02498917
v -0.14363914 0.06335514 0.02498917
v -0.12707214 0.07124650 0.02480666
v -0.12707214 0.07124650 0.02480666
v -0.12707214 0.07124650 0.02480666
v -0.12707214 0.07124650 0.02480666
v -0.12707214 0.07124650 0.02480666
v -0.12833317 -0.07118857 0.02616168
v -0.12833317 -0.07118857 0.02616168
v -0.12833317 -0.07118857 0.02616168
v -0.13903365 -0.07118857 0.02530823
v -0.13903365 -0.07118857 0.02530823
v -0.13903365 -0.07118857 0.02530823
v -0.13903365 -0.07118857 0.02530823
v -0.14261265 -0.06721500 0.02419743
v -0.14261265 -0.06721500 0.02419743
v -0.14261265 -0.06721500 0.02419743
v -0.14261265 -0.06721500 0.02419743
v -0.15210084 -0.05074908 0.02298815
v -0.15210084 -0.05074908 0.02298815
v -0.15210084 -0.05074908 0.02298815
v -0.15210084 -0.05074908 0.02298815
v -0.15271003 -0.04814186 0.02405037
v -0.15271003 -0.04814186 0.02405037
v -0.15271003 -0.04814186 0.02405037
v -0.15271003 -0.04814186 0.02405037
v -0.15271003 -0.04814186 0.02405037
v -0.15271003 -0.04814186 0.02405037
v -0.15336795 -0.04308078 0.02499967
v -0.15336795 -0.04308078 0.02499967
v -0.15336795 -0.04308078 0.02499967
v -0.15336795 -0.04308078 0.02499967
v -0.15336795 -0.04308078 0.02499967
v -0.13507694 0.01300930 0.01508121
v -0.13507694 0.01300930 0.01508121
v -0.13507694 0.01300930 0.01508121
v -0.13507694 0.01300930 0.01508121
v -0.15344410 -0.01773359 0.02166595
v -0.15344410 -0.01773359 0.02166595
v -0.15344410 -0.01773359 0.02166595
v -0.15344410 -0.01773359 0.02166595
v -0.15344410 -0.01773359 0.02166595
v -0.15343802 -0.03800577 0.02504300
v -0.15343802 -0.03800577 0.02504300
v -0.15343802 -0.03800577 0.02504300
v -0.15343802 -0.03800577 0.02504300
v -0.15343802 -0.03800577 0.02504300
v -0.15343802 -0.03800577 0.02504300
v -0.15344106 -0.03294470 0.02166989
v -0.15344106 -0.03294470 0.02166989
v -0.15344410 -0.02786968 0.02504694
v -0.15344410 -0.02786968 0.02504694
v -0.15344410 -0.02786968 0.02504694
v -0.15344410 -0.02786968 0.02504694
v -0.15344410 -0.02786968 0.02504694
v -0.13542113 0.07124650 0.02765983
v -0.13542113 0.07124650 0.02765983
v -0.13542113 0.07124650 0.02765983
v -0.13542113 0.07124650 0.02765983
v -0.13542113 0.07124650 0.02765983
v -0.13506780 0.02314539 0.01508121
v -0.13506780 0.02314539 0.01508121
v -0.13506780 0.02314539 0.01508121
v -0.13506780 0.02314539 0.01508121
v -0.15343497 0.02787185 0.02167120
v -0.15343497 0.02787185 0.02167120
v -0.15343497 0.02787185 0.02167120
v -0.15343802 0.02281077 0.02166989
v -0.15343802 0.02281077 0.02166989
v -0.15343802 0.02281077 0.02166989
v -0.15343802 0.02281077 0.02166989
v -0.15344106 0.01773576 0.02504563
v -0.15344106 0.01773576 0.02504563
v -0.15344106 0.01773576 0.02504563
v -0.15344106 0.01773576 0.02504563
v -0.15343802 0.00253859 0.02505613
v -0.15343802 0.00253859 0.02505613
v -0.15343802 0.00253859 0.02505613
v -0.15343802 0.00253859 0.02505613
v -0.15343802 0.00253859 0.02505613
v -0.15343802 0.00253859 0.02505613
v -0.14953613 -0.00006863 0.02750621
v -0.14953613 -0.00006863 0.02750621
v -0.14953613 -0.00006863 0.02750621
v -0.14953613 -0.00006863 0.02750621
v -0.14953613 -0.00006863 0.02750621
v -0.14953613 -0.00006863 0.02750621
v -0.14953613 -0.00006863 0.02750621
v -0.14953613 -0.00006863 0.02750621
v -0.14953613 -0.00006863 0.02750621
v -0.14953613 0.03800794 0.02749045
v -0.14953613 0.03800794 0.02749045
v -0.14953613 0.03800794 0.02749045
v -0.14953613 0.03800794 0.02749045
v -0.14953613 0.03800794 0.02749045
v -0.14637746 0.04308296 0.02799464
v -0.14637746 0.04308296 0.02799464
v -0.14637746 0.04308296 0.02799464
v -0.14637746 0.04308296 0.02799464
v -0.14637746 0.04308296 0.02799464
v -0.14637746 0.04308296 0.02799464
v -0.14572868 0.04814403 0.02785547
v -0.14572868 0.04814403 0.02785547
v -0.14572868 0.04814403 0.02785547
v -0.14572868 0.04814403 0.02785547
v -0.14572868 0.04814403 0.02785547
v -0.14572868 0.04814403 0.02785547
v -0.14572868 0.04814403 0.02785547
v -0.14422701 0.05323299 0.02764801
v -0.14422701 0.05323299 0.02764801
v -0.14422701 0.05323299 0.02764801
v -0.14422701 0.05323299 0.02764801
v -0.14422701 0.05323299 0.02764801
v -0.12848547 0.07124650 0.02618926
v -0.12848547 0.07124650 0.02618926
v -0.12848547 0.07124650 0.02618926
v -0.12962466 -0.07118857 0.02759024
v -0.12962466 -0.07118857 0.02759024
v -0.12962466 -0.07118857 0.02759024
v -0.12962466 -0.07118857 0.02759024
v -0.12962466 -0.07118857 0.02759024
v -0.13555515 -0.07118857 0.02772154
v -0.13555515 -0.07118857 0.02772154
v -0.13555515 -0.07118857 0.02772154
v -0.13555515 -0.07118857 0.02772154
v -0.13555515 -0.07118857 0.02772154
v -0.13555515 -0.07118857 0.02772154
v -0.14782125 -0.05728804 0.02429590
v -0.14782125 -0.05728804 0.02429590
v -0.14782125 -0.05728804 0.02429590
v -0.14782125 -0.05728804 0.02429590
v -0.14782125 -0.05728804 0.02429590
v -0.14782125 -0.05728804 0.02429590
v -0.14782125 -0.05728804 0.02429590
v -0.15210084 -0.05074908 0.02310763
v -0.15210084 -0.05074908 0.02310763
v -0.15210084 -0.05074908 0.02310763
v -0.15210084 -0.05074908 0.02310763
v -0.14952090 -0.05274283 0.02470687
v -0.14952090 -0.05274283 0.02470687
v -0.14952090 -0.05274283 0.02470687
v -0.14953309 -0.04814186 0.02633894
v -0.14953309 -0.04814186 0.02633894
v -0.14953309 -0.04814186 0.02633894
v -0.14953309 -0.04814186 0.02633894
v -0.14953309 -0.04814186 0.02633894
v -0.14953309 -0.04814186 0.02633894
v -0.14953309 -0.04814186 0.02633894
v -0.14953309 -0.04308078 0.02741167
v -0.14953309 -0.04308078 0.02741167
v -0.14953309 -0.04308078 0.02741167
v -0.14953309 -0.04308078 0.02741167
v -0.14953309 -0.04308078 0.02741167
v -0.14953309 -0.04308078 0.02741167
v -0.14953309 -0.04308078 0.02741167
v -0.15344106 0.01773576 0.02166989
v -0.15344106 0.01773576 0.02166989
v -0.15344106 0.01773576 0.02166989
v -0.15344106 0.01773576 0.02166989
v -0.13507390 0.01808432 0.01508121
v -0.13507390 0.01808432 0.01508121
v -0.13507390 0.01808432 0.01508121
v -0.15344410 -0.01773359 0.02504694
v -0.15344410 -0.01773359 0.02504694
v -0.15344410 -0.01773359 0.02504694
v -0.15344410 -0.01773359 0.02504694
v -0.14953309 -0.03800577 0.02747207
v -0.14953309 -0.03800577 0.02747207
v -0.14953309 -0.03800577 0.02747207
v -0.14953309 -0.03800577 0.02747207
v -0.14953309 -0.03800577 0.02747207
v -0.14953309 -0.03800577 0.02747207
v -0.14953309 -0.03294470 0.02749045
v -0.14953309 -0.03294470 0.02749045
v -0.14953309 -0.03294470 0.02749045
v -0.14953309 -0.03294470 0.02749045
v -0.14953309 -0.03294470 0.02749045
v -0.14953309 -0.03294470 0.02749045
v -0.15344106 -0.03294470 0.02504825
v -0.15344106 -0.03294470 0.02504825
v -0.15344106 -0.03294470 0.02504825
v -0.15344106 -0.03294470 0.02504825
v -0.15344106 -0.03294470 0.02504825
v -0.15344106 -0.03294470 0.02504825
v -0.15343802 -0.00253642 0.02505613
v -0.15343802 -0.00253642 0.02505613
v -0.15343802 -0.00253642 0.02505613
v -0.15343802 -0.00253642 0.02505613
v -0.13597550 0.06841621 0.02789486
v -0.13597550 0.06841621 0.02789486
v -0.13597550 0.06841621 0.02789486
v -0.13597550 0.06841621 0.02789486
v -0.13597550 0.06841621 0.02789486
v -0.13288689 0.07124650 0.02822573
v -0.13288689 0.07124650 0.02822573
v -0.13288689 0.07124650 0.02822573
v -0.13288689 0.07124650 0.02822573
v -0.13288689 0.07124650 0.02822573
v -0.13288689 0.07124650 0.02822573
v -0.13288689 0.07124650 0.02822573
v -0.13288689 0.07124650 0.02822573
v -0.14645056 -0.00006863 0.02801171
v -0.14645056 -0.00006863 0.02801171
v -0.14645056 -0.00006863 0.02801171
v -0.14645056 -0.00006863 0.02801171
v -0.14645056 -0.00006863 0.02801171
v -0.14640792 0.03800794 0.02800384
v -0.14640792 0.03800794 0.02800384
v -0.14640792 0.03800794 0.02800384
v -0.14640792 0.03800794 0.02800384
v -0.14640792 0.03800794 0.02800384
v -0.14953309 -0.02786968 0.02749701
v -0.14953309 -0.02786968 0.02749701
v -0.14953309 -0.02786968 0.02749701
v -0.14953309 -0.02786968 0.02749701
v -0.14645056 -0.02786968 0.02801171
v -0.14645056 -0.02786968 0.02801171
v -0.14645056 -0.02786968 0.02801171
v -0.14645056 -0.02786968 0.02801171
v -0.14645056 -0.02786968 0.02801171
v -0.14645056 -0.02786968 0.02801171
v -0.14645056 -0.02786968 0.02801171
v -0.14645056 -0.02786968 0.02801171
v -0.14645056 -0.02786968 0.02801171
v -0.14645056 -0.02786968 0.02801171
v -0.14384323 0.04308296 0.02827300
v -0.14384323 0.04308296 0.02827300
v -0.14384323 0.04308296 0.02827300
v -0.14384323 0.04308296 0.02827300
v -0.14384323 0.04308296 0.02827300
v -0.14384323 0.04308296 0.02827300
v -0.14384323 0.04308296 0.02827300
v -0.14384323 0.04308296 0.02827300
v -0.14319443 0.04814403 0.02822573
v -0.14319443 0.04814403 0.02822573
v -0.14319443 0.04814403 0.02822573
v -0.14319443 0.04814403 0.02822573
v -0.14319443 0.04814403 0.02822573
v -0.14319443 0.04814403 0.02822573
v -0.14319443 0.04814403 0.02822573
v -0.14319443 0.04814403 0.02822573
v -0.14237812 0.05155991 0.02814827
v -0.14237812 0.05155991 0.02814827
v -0.14237812 0.05155991 0.02814827
v -0.14237812 0.05155991 0.02814827
v -0.13660906 0.06543255 0.02805373
v -0.13660906 0.06543255 0.02805373
v -0.13660906 0.06543255 0.02805373
v -0.13660906 0.06543255 0.02805373
v -0.13115983 0.07124650 0.02822573
v -0.13115983 0.07124650 0.02822573
v -0.13115983 0.07124650 0.02822573
v -0.13115983 0.07124650 0.02822573
v -0.13115983 0.07124650 0.02822573
v -0.13115983 0.07124650 0.02822573
v -0.13115983 0.07124650 0.02822573
v -0.13100448 -0.07118857 0.02824018
v -0.13100448 -0.07118857 0.02824018
v -0.13100448 -0.07118857 0.02824018
v -0.13100448 -0.07118857 0.02824018
v -0.13100448 -0.07118857 0.02824018
v -0.13100448 -0.07118857 0.02824018
v -0.13100448 -0.07118857 0.02824018
v -0.13417838 -0.07118857 0.02807343
v -0.13417838 -0.07118857 0.02807343
v -0.13417838 -0.07118857 0.02807343
v -0.13417838 -0.07118857 0.02807343
v -0.13417838 -0.07118857 0.02807343
v -0.13609429 -0.06842799 0.02792506
v -0.13609429 -0.06842799 0.02792506
v -0.13609429 -0.06842799 0.02792506
v -0.13609429 -0.06842799 0.02792506
v -0.14423006 -0.05323082 0.02765195
v -0.14423006 -0.05323082 0.02765195
v -0.14423006 -0.05323082 0.02765195
v -0.14423006 -0.05323082 0.02765195
v -0.14423006 -0.05323082 0.02765195
v -0.14569212 -0.04814186 0.02785153
v -0.14569212 -0.04814186 0.02785153
v -0.14569212 -0.04814186 0.02785153
v -0.14569212 -0.04814186 0.02785153
v -0.14569212 -0.04814186 0.02785153
v -0.14569212 -0.04814186 0.02785153
v -0.14569212 -0.04814186 0.02785153
v -0.14628304 -0.04308078 0.02797364
v -0.14628304 -0.04308078 0.02797364
v -0.14628304 -0.04308078 0.02797364
v -0.14628304 -0.04308078 0.02797364
v -0.14628304 -0.04308078 0.02797364
v -0.14628304 -0.04308078 0.02797364
v -0.14635919 -0.03800577 0.02799202
v -0.14635919 -0.03800577 0.02799202
v -0.14635919 -0.03800577 0.02799202
v -0.14635919 -0.03800577 0.02799202
v -0.14642011 -0.03294470 0.02800515
v -0.14642011 -0.03294470 0.02800515
v -0.14642011 -0.03294470 0.02800515
v -0.14642011 -0.03294470 0.02800515
v -0.14642011 -0.03294470 0.02800515
v -0.13344125 0.06841621 0.02827300
v -0.13344125 0.06841621 0.02827300
v -0.13344125 0.06841621 0.02827300
v -0.13433372 0.05828012 0.02845551
v -0.13433372 0.05828012 0.02845551
v -0.13433372 0.05828012 0.02845551
v -0.13433372 0.05828012 0.02845551
v -0.13433372 0.05828012 0.02845551
v -0.13433372 0.05828012 0.02845551
v -0.13433372 0.05828012 0.02845551
v -0.13433372 0.05828012 0.02845551
v -0.13433372 0.05828012 0.02845551
v -0.14391328 0.00253859 0.02827038
v -0.14391328 0.00253859 0.02827038
v -0.14391328 0.00253859 0.02827038
v -0.14391328 0.00253859 0.02827038
v -0.14374880 -0.04308078 0.02827694
v -0.14374880 -0.04308078 0.02827694
v -0.14374880 -0.04308078 0.02827694
v -0.14374880 -0.04308078 0.02827694
v -0.14374880 -0.04308078 0.02827694
v -0.14374880 -0.04308078 0.02827694
v -0.14374880 -0.04308078 0.02827694
v -0.14374880 -0.04308078 0.02827694
v -0.14374880 -0.04308078 0.02827694
v -0.14374880 -0.04308078 0.02827694
v -0.14374880 -0.04308078 0.02827694
v -0.14382495 -0.03800577 0.02827300
v -0.14382495 -0.03800577 0.02827300
v -0.14382495 -0.03800577 0.02827300
v -0.14388587 -0.03294470 0.02827038
v -0.14388587 -0.03294470 0.02827038
v -0.14388587 -0.03294470 0.02827038
v -0.14388587 -0.03294470 0.02827038
v -0.14391633 -0.02786968 0.02826906
v -0.14391633 -0.02786968 0.02826906
v -0.14391633 -0.02786968 0.02826906
v -0.14391633 -0.02786968 0.02826906
v -0.14391328 -0.00006863 0.02827038
v -0.14391328 -0.00006863 0.02827038
v -0.14391328 -0.00006863 0.02827038
v -0.14391328 -0.00006863 0.02827038
v -0.14391328 -0.00006863 0.02827038
v -0.13939916 0.04308296 0.02846207
v -0.13939916 0.04308296 0.02846207
v -0.13939916 0.04308296 0.02846207
v -0.13939916 0.04308296 0.02846207
v -0.13939916 0.04308296 0.02846207
v -0.13939916 0.04308296 0.02846207
v -0.13939916 0.04814403 0.02841743
v -0.13939916 0.04814403 0.02841743
v -0.13939916 0.04814403 0.02841743
v -0.13939916 0.04814403 0.02841743
v -0.13939916 -0.04308078 0.02846733
v -0.13939916 -0.04308078 0.02846733
v -0.13939916 -0.04308078 0.02846733
v -0.13939916 -0.04308078 0.02846733
v -0.13939916 -0.04308078 0.02846733
v -0.13939916 -0.04308078 0.02846733
v -0.13939916 -0.04308078 0.02846733
v -0.13939916 -0.04308078 0.02846733
v -0.13143092 0.06841621 0.02827300
v -0.13143092 0.06841621 0.02827300
v -0.13143092 0.06841621 0.02827300
v -0.13143700 0.06335514 0.02830583
v -0.13143700 0.06335514 0.02830583
v -0.13143700 0.06335514 0.02830583
v -0.13143700 0.06335514 0.02830583
v -0.13143700 0.06335514 0.02830583
v -0.13143700 0.06335514 0.02830583
v -0.13143700 0.06335514 0.02830583
v -0.13141264 -0.06335297 0.02832290
v -0.13141264 -0.06335297 0.02832290
v -0.13141264 -0.06335297 0.02832290
v -0.13141264 -0.06335297 0.02832290
v -0.13141264 -0.06335297 0.02832290
v -0.13140046 -0.06842799 0.02828744
v -0.13140046 -0.06842799 0.02828744
v -0.13140046 -0.06842799 0.02828744
v -0.13433372 -0.05827795 0.02846995
v -0.13433372 -0.05827795 0.02846995
v -0.13433372 -0.05827795 0.02846995
v -0.13433372 -0.05827795 0.02846995
v -0.13433372 -0.05827795 0.02846995
v -0.13433372 -0.05827795 0.02846995
v -0.13433372 -0.05827795 0.02846995
v -0.13433372 -0.05827795 0.02846995
v -0.13433372 -0.05827795 0.02846995
v -0.13302091 -0.07118857 0.02824018
v -0.13302091 -0.07118857 0.02824018
v -0.13302091 -0.07118857 0.02824018
v -0.13302091 -0.07118857 0.02824018
v -0.13302091 -0.07118857 0.02824018
v -0.13302091 -0.07118857 0.02824018
v -0.14238116 -0.05155774 0.02814827
v -0.14238116 -0.05155774 0.02814827
v -0.14238116 -0.05155774 0.02814827
v -0.14238116 -0.05155774 0.02814827
v -0.14315789 -0.04814186 0.02822573
v -0.14315789 -0.04814186 0.02822573
v -0.14315789 -0.04814186 0.02822573
v -0.14315789 -0.04814186 0.02822573
v -0.14315789 -0.04814186 0.02822573
v -0.14315789 -0.04814186 0.02822573
v -0.14315789 -0.04814186 0.02822573
v -0.14315789 -0.04814186 0.02822573
v -0.13433372 0.05321905 0.02847914
v -0.13433372 0.05321905 0.02847914
v -0.13433372 0.05321905 0.02847914
v -0.13433372 0.05321905 0.02847914
v -0.13939916 -0.04814186 0.02842006
v -0.13939916 -0.04814186 0.02842006
v -0.13939916 -0.04814186 0.02842006
v -0.13939916 -0.04814186 0.02842006
v -0.13433372 -0.05321688 0.02849490
v -0.13433372 -0.05321688 0.02849490
v -0.13433372 -0.05321688 0.02849490
v -0.13433372 -0.05321688 0.02849490
v -0.13433372 -0.05321688 0.02849490
v -0.13433372 -0.05321688 0.02849490
v -0.13355700 -0.06842799 0.02828744
v -0.13355700 -0.06842799 0.02828744
v -0.13355700 -0.06842799 0.02828744
f 2 11 26
f 2 26 76
f 2 76 180
f 2 180 296
f 2 296 436
f 2 436 486
f 2 486 350
f 2 350 239
f 2 239 122
f 2 122 51
f 2 51 12
f 4 15 20
f 3 18 23
f 1 21 72
f 1 72 159
f 1 159 273
f 1 273 398
f 1 398 300
f 1 300 203
f 1 203 199
f 1 199 196
f 1 196 193
f 1 193 190
f 1 190 186
f 1 186 183
f 1 183 106
f 1 106 102
f 1 102 79
f 1 79 29
f 1 29 10
f 9 27 33
f 8 32 42
f 7 41 46
f 5 45 49
f 6 50 25
f 13 53 57
f 14 58 19
f 17 54 126
f 17 126 244
f 17 244 353
f 17 353 493
f 17 493 628
f 17 628 504
f 17 504 363
f 17 363 250
f 17 250 132
f 17 132 66
f 16 65 73
f 16 73 22
f 24 48 118
f 24 118 74
f 28 77 34
f 37 80 88
f 30 87 210
f 30 210 95
f 31 96 107
f 31 107 39
f 35 78 100
f 36 101 103
f 38 104 81
f 40 108 112
f 40 112 43
f 44 113 116
f 44 116 47
f 52 125 56
f 55 124 129
f 59 131 136
f 60 137 140
f 61 141 145
f 62 146 149
f 63 151 153
f 64 156 71
f 70 155 162
f 69 160 168
f 68 167 174
f 67 173 158
f 75 120 175
f 82 105 181
f 83 182 184
f 84 185 187
f 85 188 90
f 92 189 191
f 94 192 195
f 93 194 198
f 91 197 202
f 89 201 208
f 86 205 209
f 98 212 216
f 99 218 226
f 97 223 110
f 111 224 233
f 109 231 115
f 114 230 117
f 119 232 236
f 121 237 176
f 123 243 128
f 127 242 246
f 130 247 253
f 130 253 134
f 133 251 372
f 133 372 256
f 135 257 138
f 139 258 144
f 143 255 371
f 143 371 260
f 142 259 266
f 142 266 148
f 147 265 280
f 147 280 165
f 150 166 152
f 154 169 161
f 158 173 278
f 157 277 272
f 164 279 415
f 164 415 286
f 163 285 170
f 172 286 415
f 172 415 288
f 171 287 400
f 171 400 275
f 177 238 234
f 178 235 225
f 179 227 292
f 200 299 207
f 206 298 303
f 204 301 304
f 205 305 308
f 205 308 209
f 211 311 315
f 213 317 320
f 215 321 328
f 214 327 217
f 221 329 332
f 222 333 341
f 220 338 348
f 219 346 229
f 228 345 293
f 240 352 356
f 241 357 245
f 249 358 369
f 248 366 254
f 252 364 373
f 261 374 365
f 263 367 375
f 264 376 379
f 262 378 267
f 269 382 387
f 268 385 281
f 270 394 306
f 270 306 396
f 271 276 395
f 274 399 309
f 274 309 393
f 283 403 411
f 282 410 420
f 284 386 404
f 291 416 422
f 290 421 314
f 289 313 402
f 295 427 430
f 294 347 425
f 297 307 302
f 297 397 307
f 305 392 308
f 310 401 312
f 316 423 318
f 325 438 445
f 324 444 331
f 319 424 417
f 322 418 448
f 323 450 452
f 326 455 439
f 330 443 334
f 336 462 472
f 335 470 343
f 337 446 463
f 344 471 480
f 342 478 484
f 340 482 428
f 339 426 349
f 351 492 355
f 354 491 499
f 362 500 506
f 361 505 511
f 360 509 383
f 359 381 370
f 368 380 377
f 384 510 388
f 389 512 514
f 391 517 522
f 390 521 405
f 407 527 533
f 406 532 414
f 408 523 528
f 413 531 454
f 412 453 451
f 409 449 419
f 429 483 431
f 432 485 479
f 433 481 473
f 434 474 536
f 435 538 543
f 437 544 487
f 441 548 465
f 440 464 447
f 442 459 574
f 442 574 549
f 456 535 555
f 457 556 563
f 458 564 566
f 461 567 571
f 460 570 575
f 468 579 587
f 466 586 477
f 467 551 592
f 469 593 580
f 476 585 540
f 475 539 537
f 488 545 597
f 489 599 604
f 490 606 498
f 496 610 614
f 495 612 621
f 494 620 629
f 497 605 611
f 503 624 632
f 502 630 518
f 501 516 508
f 507 515 513
f 519 634 524
f 520 631 635
f 526 553 529
f 525 636 552
f 530 554 534
f 541 588 581
f 542 582 642
f 547 644 601
f 546 600 598
f 550 578 591
f 559 572 569
f 557 568 565
f 558 641 647
f 562 648 590
f 561 589 577
f 560 576 573
f 583 596 651
f 584 652 643
f 594 649 617
f 595 618 650
f 602 645 654
f 603 655 609
f 608 653 623
f 607 622 613
f 616 646 640
f 615 639 657
f 619 658 627
f 626 656 638
f 625 637 633

