# https://github.com/mikedh/trimesh
v -0.10891072 0.07124650 -0.00161631
v -0.10891072 0.07124650 -0.00161631
v -0.10891072 0.07124650 -0.00161631
v -0.10891072 0.07124650 -0.00161631
v -0.10891072 0.07124650 -0.00161631
v -0.10891072 0.07124650 0.00750712
v -0.10891072 0.07124650 0.00750712
v -0.10891072 0.07124650 0.00750712
v -0.10891072 0.07124650 0.00750712
v -0.10561695 0.07124650 -0.00189048
v -0.10561695 0.07124650 -0.00189048
v -0.10561695 0.07124650 -0.00189048
v -0.10561695 0.07124650 -0.00189048
v -0.10561695 0.07124650 -0.00189048
v -0.10891072 0.07122556 -0.00177941
v -0.10891072 0.07122556 -0.00177941
v -0.10891072 0.07122556 -0.00177941
v -0.10891072 -0.00006975 0.00600122
v -0.10891072 -0.00006975 0.00600122
v -0.10891072 -0.00006975 0.00600122
v -0.00003506 -0.00006975 0.00599622
v -0.00003506 -0.00006975 0.00599622
v -0.00003506 -0.00006975 0.00599622
v -0.00003506 -0.00006975 0.00599622
v -0.00003506 0.07124650 0.00714790
v -0.00003506 0.07124650 0.00714790
v -0.00003506 0.07124650 0.00714790
v -0.10391143 0.07124650 -0.00193950
v -0.10391143 0.07124650 -0.00193950
v -0.10391143 0.07124650 -0.00193950
v -0.10391143 0.07124650 -0.00193950
v -0.10391143 0.07009467 -0.00220967
v -0.10391143 0.07009467 -0.00220967
v -0.10391143 0.07009467 -0.00220967
v -0.10391143 0.07009467 -0.00220967
v -0.10391143 0.07009467 -0.00220967
v -0.10391143 0.07009467 -0.00220967
v -0.10891072 0.06961997 -0.00214363
v -0.10891072 0.06961997 -0.00214363
v -0.10891072 0.06961997 -0.00214363
v -0.10891072 0.06961997 -0.00214363
v -0.10891072 -0.00006975 -0.00268295
v -0.10891072 -0.00006975 -0.00268295
v -0.10891072 -0.00006975 -0.00268295
v -0.00003506 -0.00006975 -0.00262491
v -0.00003506 -0.00006975 -0.00262491
v -0.00003506 -0.00006975 -0.00262491
v -0.00003506 -0.00006975 -0.00262491
v -0.00003506 0.07124650 -0.00194351
v -0.00003506 0.07124650 -0.00194351
v -0.00003506 0.07124650 -0.00194351
v -0.00003506 0.07124650 -0.00194351
v -0.10053239 0.07124650 -0.00194451
v -0.10053239 0.07124650 -0.00194451
v -0.10053239 0.07124650 -0.00194451
v -0.10053239 0.07124650 -0.00194451
v -0.09883754 0.07011561 -0.00221267
v -0.09883754 0.07011561 -0.00221267
v -0.09883754 0.07011561 -0.00221267
v -0.09883754 0.07011561 -0.00221267
v -0.09883754 0.07011561 -0.00221267
v -0.09883754 0.07011561 -0.00221267
v -0.09883754 0.07011561 -0.00221267
v -0.10391143 0.06756062 -0.00249383
v -0.10391143 0.06756062 -0.00249383
v -0.10391143 0.06756062 -0.00249383
v -0.10391143 0.06756062 -0.00249383
v -0.10391143 0.06756062 -0.00249383
v -0.10391143 0.06756062 -0.00249383
v -0.10391143 0.06756062 -0.00249383
v -0.10391143 0.06756062 -0.00249383
v -0.10391143 0.06756062 -0.00249383
v -0.10891072 0.06708593 -0.00245181
v -0.10891072 0.06708593 -0.00245181
v -0.10891072 0.06708593 -0.00245181
v -0.10891072 0.06708593 -0.00245181
v -0.10891072 0.06708593 -0.00245181
v -0.10891072 0.00754634 -0.00269095
v -0.10891072 0.00754634 -0.00269095
v -0.10891072 0.00754634 -0.00269095
v -0.10891072 0.05322198 -0.00271497
v -0.10891072 0.05322198 -0.00271497
v -0.10891072 0.05322198 -0.00271497
v -0.00003506 0.06335816 -0.00265393
v -0.00003506 0.06335816 -0.00265393
v -0.00003506 0.06335816 -0.00265393
v -0.00003506 0.06335816 -0.00265393
v -0.00003506 0.06335816 -0.00265393
v -0.00003506 0.07009467 -0.00221067
v -0.00003506 0.07009467 -0.00221067
v -0.00003506 0.07009467 -0.00221067
v -0.07350001 0.07012259 -0.00221467
v -0.07350001 0.07012259 -0.00221467
v -0.07350001 0.07012259 -0.00221467
v -0.07350001 0.07012259 -0.00221467
v -0.07350001 0.07012259 -0.00221467
v -0.07350001 0.07012259 -0.00221467
v -0.07350001 0.07124650 -0.00195051
v -0.07350001 0.07124650 -0.00195051
v -0.07350001 0.07124650 -0.00195051
v -0.09883754 0.07124650 -0.00194651
v -0.09883754 0.07124650 -0.00194651
v -0.09883754 0.07124650 -0.00194651
v -0.09883754 0.07124650 -0.00194651
v -0.09377430 0.07124650 -0.00194951
v -0.09377430 0.07124650 -0.00194951
v -0.09377430 0.07124650 -0.00194951
v -0.09377430 0.07124650 -0.00194951
v -0.09377430 0.07012259 -0.00221367
v -0.09377430 0.07012259 -0.00221367
v -0.09377430 0.07012259 -0.00221367
v -0.09377430 0.07012259 -0.00221367
v -0.09377430 0.07012259 -0.00221367
v -0.09377430 0.07012259 -0.00221367
v -0.09883754 0.06758156 -0.00249283
v -0.09883754 0.06758156 -0.00249283
v -0.09883754 0.06758156 -0.00249283
v -0.09377430 0.06758855 -0.00249283
v -0.09377430 0.06758855 -0.00249283
v -0.09377430 0.06758855 -0.00249283
v -0.09377430 0.06758855 -0.00249283
v -0.09377430 0.06758855 -0.00249283
v -0.09377430 0.06758855 -0.00249283
v -0.10391143 0.06335816 -0.00266694
v -0.10391143 0.06335816 -0.00266694
v -0.10391143 0.06335816 -0.00266694
v -0.10391143 0.06335816 -0.00266694
v -0.10391143 0.06335816 -0.00266694
v -0.10391143 0.06335816 -0.00266694
v -0.10391143 0.06335816 -0.00266694
v -0.10891072 0.06335816 -0.00263592
v -0.10891072 0.06335816 -0.00263592
v -0.10891072 0.06335816 -0.00263592
v -0.10891072 0.06335816 -0.00263592
v -0.10891072 0.06703008 -0.00245481
v -0.10891072 0.06703008 -0.00245481
v -0.10891072 0.06703008 -0.00245481
v -0.10891072 0.06703008 -0.00245481
v -0.10891072 0.05829007 -0.00269896
v -0.10891072 0.05829007 -0.00269896
v -0.10891072 0.05829007 -0.00269896
v -0.10891072 0.05829007 -0.00269896
v -0.00003506 0.06548033 -0.00257088
v -0.00003506 0.06548033 -0.00257088
v -0.00003506 0.06548033 -0.00257088
v -0.00003506 0.06756062 -0.00248883
v -0.00003506 0.06756062 -0.00248883
v -0.00003506 0.06756062 -0.00248883
v -0.00003506 0.06756062 -0.00248883
v -0.00003506 0.06756062 -0.00248883
f 5 7 25
f 5 25 49
f 5 49 99
f 5 99 108
f 5 108 104
f 4 103 55
f 5 56 31
f 5 31 14
f 3 13 17
f 2 15 38
f 2 38 74
f 1 73 135
f 2 136 131
f 2 131 139
f 2 139 81
f 2 81 78
f 2 78 42
f 2 42 18
f 2 18 6
f 8 20 22
f 9 23 26
f 12 28 33
f 11 32 40
f 10 39 16
f 19 43 45
f 19 45 21
f 24 48 88
f 24 88 145
f 24 145 150
f 24 150 91
f 24 91 52
f 24 52 27
f 30 53 58
f 29 57 36
f 35 64 76
f 34 75 41
f 37 60 68
f 44 79 46
f 47 80 83
f 47 83 87
f 50 90 96
f 51 97 100
f 54 101 59
f 61 102 105
f 62 106 109
f 63 111 70
f 69 110 115
f 71 117 119
f 72 120 126
f 67 125 134
f 66 132 138
f 65 137 77
f 82 142 86
f 84 141 127
f 85 130 144
f 89 149 95
f 92 121 113
f 93 114 107
f 93 107 98
f 94 148 123
f 112 118 116
f 122 146 128
f 124 140 133
f 129 147 143

